0
SECTION
2
HEADER
9
$INSUNITS
70
4
9
$ACADVER
1
AC1014
9
$HANDSEED
5
FFFF
0
ENDSEC
0
SECTION
2
TABLES
0
TABLE
2
VPORT
5
8
100
AcDbSymbolTable
0
ENDTAB
0
TABLE
2
LTYPE
5
5
100
AcDbSymbolTable
0
LTYPE
5
14
100
AcDbSymbolTableRecord
100
AcDbLinetypeTableRecord
2
BYBLOCK
70
0
0
LTYPE
5
15
100
AcDbSymbolTableRecord
100
AcDbLinetypeTableRecord
2
BYLAYER
70
0
0
LTYPE
5
16
100
AcDbSymbolTableRecord
100
AcDbLinetypeTableRecord
2
DASHED
70
0
3
Dashed __ __ __ __ __ __ __ __ __ __ __ __ __ _
72
65
73
2
40
0.75
49
0.5
74
0
49
-0.25
74
0
0
ENDTAB
0
TABLE
2
LAYER
5
2
100
AcDbSymbolTable
70
2
0
LAYER
5
50
100
AcDbSymbolTableRecord
100
AcDbLayerTableRecord
2
0
70
0
62
7
6
CONTINUOUS
0
ENDTAB
0
TABLE
2
STYLE
5
3
100
AcDbSymbolTable
70
1
0
STYLE
5
11
100
AcDbSymbolTableRecord
100
AcDbTextStyleTableRecord
2
STANDARD
70
0
0
ENDTAB
0
TABLE
2
VIEW
5
6
100
AcDbSymbolTable
70
0
0
ENDTAB
0
TABLE
2
UCS
5
7
100
AcDbSymbolTable
70
0
0
ENDTAB
0
TABLE
2
APPID
5
9
100
AcDbSymbolTable
70
2
0
APPID
5
12
100
AcDbSymbolTableRecord
100
AcDbRegAppTableRecord
2
ACAD
70
0
0
ENDTAB
0
TABLE
2
DIMSTYLE
5
A
100
AcDbSymbolTable
70
1
0
ENDTAB
0
TABLE
2
BLOCK_RECORD
5
1
100
AcDbSymbolTable
70
1
0
BLOCK_RECORD
5
1F
100
AcDbSymbolTableRecord
100
AcDbBlockTableRecord
2
*MODEL_SPACE
0
BLOCK_RECORD
5
1B
100
AcDbSymbolTableRecord
100
AcDbBlockTableRecord
2
*PAPER_SPACE
0
ENDTAB
0
ENDSEC
0
SECTION
2
BLOCKS
0
BLOCK
5
20
100
AcDbEntity
100
AcDbBlockBegin
2
*MODEL_SPACE
0
ENDBLK
5
21
100
AcDbEntity
100
AcDbBlockEnd
0
BLOCK
5
1C
100
AcDbEntity
100
AcDbBlockBegin
2
*PAPER_SPACE
0
ENDBLK
5
1D
100
AcDbEntity
100
AcDbBlockEnd
0
ENDSEC
0
SECTION
2
ENTITIES
0
SPLINE
5
100
100
AcDbEntity
8
0
100
AcDbSpline
70
6
71
5
72
671
73
665
74
0
42
0.000000001
43
0.0000000001
44
0.0000000001
40
0
40
0
40
0
40
0
40
0
40
0
40
0.0015151515151515152
40
0.0030303030303030303
40
0.0045454545454545452
40
0.0060606060606060606
40
0.007575757575757576
40
0.0090909090909090905
40
0.010606060606060605
40
0.012121212121212119
40
0.013636363636363634
40
0.015151515151515148
40
0.016666666666666663
40
0.018181818181818177
40
0.019696969696969692
40
0.021212121212121206
40
0.022727272727272721
40
0.024242424242424235
40
0.02575757575757575
40
0.027272727272727264
40
0.028787878787878779
40
0.030303030303030293
40
0.031818181818181808
40
0.033333333333333326
40
0.034848484848484844
40
0.036363636363636362
40
0.03787878787878788
40
0.039393939393939398
40
0.040909090909090916
40
0.042424242424242434
40
0.043939393939393952
40
0.04545454545454547
40
0.046969696969696988
40
0.048484848484848506
40
0.050000000000000024
40
0.051515151515151542
40
0.05303030303030306
40
0.054545454545454577
40
0.056060606060606095
40
0.057575757575757613
40
0.059090909090909131
40
0.060606060606060649
40
0.062121212121212167
40
0.063636363636363685
40
0.065151515151515196
40
0.066666666666666707
40
0.068181818181818218
40
0.069696969696969729
40
0.07121212121212124
40
0.072727272727272751
40
0.074242424242424263
40
0.075757575757575774
40
0.077272727272727285
40
0.078787878787878796
40
0.080303030303030307
40
0.081818181818181818
40
0.083333333333333329
40
0.08484848484848484
40
0.086363636363636351
40
0.087878787878787862
40
0.089393939393939373
40
0.090909090909090884
40
0.092424242424242395
40
0.093939393939393906
40
0.095454545454545417
40
0.096969696969696928
40
0.098484848484848439
40
0.09999999999999995
40
0.10151515151515146
40
0.10303030303030297
40
0.10454545454545448
40
0.10606060606060599
40
0.10757575757575751
40
0.10909090909090902
40
0.11060606060606053
40
0.11212121212121204
40
0.11363636363636355
40
0.11515151515151506
40
0.11666666666666657
40
0.11818181818181808
40
0.11969696969696959
40
0.1212121212121211
40
0.12272727272727262
40
0.12424242424242413
40
0.12575757575757565
40
0.12727272727272718
40
0.1287878787878787
40
0.13030303030303023
40
0.13181818181818175
40
0.13333333333333328
40
0.1348484848484848
40
0.13636363636363633
40
0.13787878787878785
40
0.13939393939393938
40
0.1409090909090909
40
0.14242424242424243
40
0.14393939393939395
40
0.14545454545454548
40
0.146969696969697
40
0.14848484848484853
40
0.15000000000000005
40
0.15151515151515157
40
0.1530303030303031
40
0.15454545454545462
40
0.15606060606060615
40
0.15757575757575767
40
0.1590909090909092
40
0.16060606060606072
40
0.16212121212121225
40
0.16363636363636377
40
0.1651515151515153
40
0.16666666666666682
40
0.16818181818181835
40
0.16969696969696987
40
0.1712121212121214
40
0.17272727272727292
40
0.17424242424242445
40
0.17575757575757597
40
0.1772727272727275
40
0.17878787878787902
40
0.18030303030303055
40
0.18181818181818207
40
0.1833333333333336
40
0.18484848484848512
40
0.18636363636363665
40
0.18787878787878817
40
0.1893939393939397
40
0.19090909090909122
40
0.19242424242424275
40
0.19393939393939427
40
0.1954545454545458
40
0.19696969696969732
40
0.19848484848484885
40
0.20000000000000037
40
0.2015151515151519
40
0.20303030303030342
40
0.20454545454545495
40
0.20606060606060647
40
0.207575757575758
40
0.20909090909090952
40
0.21060606060606105
40
0.21212121212121257
40
0.2136363636363641
40
0.21515151515151562
40
0.21666666666666715
40
0.21818181818181867
40
0.2196969696969702
40
0.22121212121212172
40
0.22272727272727325
40
0.22424242424242477
40
0.2257575757575763
40
0.22727272727272782
40
0.22878787878787935
40
0.23030303030303087
40
0.23181818181818239
40
0.23333333333333392
40
0.23484848484848544
40
0.23636363636363697
40
0.23787878787878849
40
0.23939393939394002
40
0.24090909090909154
40
0.24242424242424307
40
0.24393939393939459
40
0.24545454545454612
40
0.24696969696969764
40
0.24848484848484917
40
0.25000000000000067
40
0.25151515151515219
40
0.25303030303030372
40
0.25454545454545524
40
0.25606060606060677
40
0.25757575757575829
40
0.25909090909090982
40
0.26060606060606134
40
0.26212121212121287
40
0.26363636363636439
40
0.26515151515151592
40
0.26666666666666744
40
0.26818181818181897
40
0.26969696969697049
40
0.27121212121212201
40
0.27272727272727354
40
0.27424242424242506
40
0.27575757575757659
40
0.27727272727272811
40
0.27878787878787964
40
0.28030303030303116
40
0.28181818181818269
40
0.28333333333333421
40
0.28484848484848574
40
0.28636363636363726
40
0.28787878787878879
40
0.28939393939394031
40
0.29090909090909184
40
0.29242424242424336
40
0.29393939393939489
40
0.29545454545454641
40
0.29696969696969794
40
0.29848484848484946
40
0.30000000000000099
40
0.30151515151515251
40
0.30303030303030404
40
0.30454545454545556
40
0.30606060606060709
40
0.30757575757575861
40
0.30909090909091014
40
0.31060606060606166
40
0.31212121212121319
40
0.31363636363636471
40
0.31515151515151624
40
0.31666666666666776
40
0.31818181818181929
40
0.31969696969697081
40
0.32121212121212234
40
0.32272727272727386
40
0.32424242424242539
40
0.32575757575757691
40
0.32727272727272844
40
0.32878787878787996
40
0.33030303030303149
40
0.33181818181818301
40
0.33333333333333454
40
0.33484848484848606
40
0.33636363636363759
40
0.33787878787878911
40
0.33939393939394064
40
0.34090909090909216
40
0.34242424242424369
40
0.34393939393939521
40
0.34545454545454674
40
0.34696969696969826
40
0.34848484848484979
40
0.35000000000000131
40
0.35151515151515283
40
0.35303030303030436
40
0.35454545454545588
40
0.35606060606060741
40
0.35757575757575893
40
0.35909090909091046
40
0.36060606060606198
40
0.36212121212121351
40
0.36363636363636503
40
0.36515151515151656
40
0.36666666666666808
40
0.36818181818181961
40
0.36969696969697113
40
0.37121212121212266
40
0.37272727272727418
40
0.37424242424242571
40
0.37575757575757723
40
0.37727272727272876
40
0.37878787878788028
40
0.38030303030303181
40
0.38181818181818333
40
0.38333333333333486
40
0.38484848484848638
40
0.38636363636363791
40
0.38787878787878943
40
0.38939393939394096
40
0.39090909090909248
40
0.39242424242424401
40
0.39393939393939553
40
0.39545454545454706
40
0.39696969696969858
40
0.39848484848485011
40
0.40000000000000163
40
0.40151515151515316
40
0.40303030303030468
40
0.40454545454545621
40
0.40606060606060773
40
0.40757575757575926
40
0.40909090909091078
40
0.41060606060606231
40
0.41212121212121383
40
0.41363636363636536
40
0.41515151515151688
40
0.41666666666666841
40
0.41818181818181993
40
0.41969696969697146
40
0.42121212121212298
40
0.42272727272727451
40
0.42424242424242603
40
0.42575757575757756
40
0.42727272727272908
40
0.42878787878788061
40
0.43030303030303213
40
0.43181818181818366
40
0.43333333333333518
40
0.4348484848484867
40
0.43636363636363823
40
0.43787878787878975
40
0.43939393939394128
40
0.4409090909090928
40
0.44242424242424433
40
0.44393939393939585
40
0.44545454545454738
40
0.4469696969696989
40
0.44848484848485043
40
0.45000000000000195
40
0.45151515151515348
40
0.453030303030305
40
0.45454545454545653
40
0.45606060606060805
40
0.45757575757575958
40
0.4590909090909111
40
0.46060606060606263
40
0.46212121212121415
40
0.46363636363636568
40
0.4651515151515172
40
0.46666666666666873
40
0.46818181818182025
40
0.46969696969697178
40
0.4712121212121233
40
0.47272727272727483
40
0.47424242424242635
40
0.47575757575757788
40
0.4772727272727294
40
0.47878787878788093
40
0.48030303030303245
40
0.48181818181818398
40
0.4833333333333355
40
0.48484848484848703
40
0.48636363636363855
40
0.48787878787879008
40
0.4893939393939416
40
0.49090909090909313
40
0.49242424242424465
40
0.49393939393939618
40
0.4954545454545477
40
0.49696969696969923
40
0.49848484848485075
40
0.50000000000000222
40
0.50151515151515369
40
0.50303030303030516
40
0.50454545454545663
40
0.5060606060606081
40
0.50757575757575957
40
0.50909090909091104
40
0.51060606060606251
40
0.51212121212121398
40
0.51363636363636545
40
0.51515151515151691
40
0.51666666666666838
40
0.51818181818181985
40
0.51969696969697132
40
0.52121212121212279
40
0.52272727272727426
40
0.52424242424242573
40
0.5257575757575772
40
0.52727272727272867
40
0.52878787878788014
40
0.53030303030303161
40
0.53181818181818308
40
0.53333333333333455
40
0.53484848484848602
40
0.53636363636363749
40
0.53787878787878896
40
0.53939393939394042
40
0.54090909090909189
40
0.54242424242424336
40
0.54393939393939483
40
0.5454545454545463
40
0.54696969696969777
40
0.54848484848484924
40
0.55000000000000071
40
0.55151515151515218
40
0.55303030303030365
40
0.55454545454545512
40
0.55606060606060659
40
0.55757575757575806
40
0.55909090909090953
40
0.560606060606061
40
0.56212121212121247
40
0.56363636363636394
40
0.5651515151515154
40
0.56666666666666687
40
0.56818181818181834
40
0.56969696969696981
40
0.57121212121212128
40
0.57272727272727275
40
0.57424242424242422
40
0.57575757575757569
40
0.57727272727272716
40
0.57878787878787863
40
0.5803030303030301
40
0.58181818181818157
40
0.58333333333333304
40
0.58484848484848451
40
0.58636363636363598
40
0.58787878787878745
40
0.58939393939393891
40
0.59090909090909038
40
0.59242424242424185
40
0.59393939393939332
40
0.59545454545454479
40
0.59696969696969626
40
0.59848484848484773
40
0.5999999999999992
40
0.60151515151515067
40
0.60303030303030214
40
0.60454545454545361
40
0.60606060606060508
40
0.60757575757575655
40
0.60909090909090802
40
0.61060606060605949
40
0.61212121212121096
40
0.61363636363636243
40
0.61515151515151389
40
0.61666666666666536
40
0.61818181818181683
40
0.6196969696969683
40
0.62121212121211977
40
0.62272727272727124
40
0.62424242424242271
40
0.62575757575757418
40
0.62727272727272565
40
0.62878787878787712
40
0.63030303030302859
40
0.63181818181818006
40
0.63333333333333153
40
0.634848484848483
40
0.63636363636363447
40
0.63787878787878594
40
0.6393939393939374
40
0.64090909090908887
40
0.64242424242424034
40
0.64393939393939181
40
0.64545454545454328
40
0.64696969696969475
40
0.64848484848484622
40
0.64999999999999769
40
0.65151515151514916
40
0.65303030303030063
40
0.6545454545454521
40
0.65606060606060357
40
0.65757575757575504
40
0.65909090909090651
40
0.66060606060605798
40
0.66212121212120945
40
0.66363636363636092
40
0.66515151515151238
40
0.66666666666666385
40
0.66818181818181532
40
0.66969696969696679
40
0.67121212121211826
40
0.67272727272726973
40
0.6742424242424212
40
0.67575757575757267
40
0.67727272727272414
40
0.67878787878787561
40
0.68030303030302708
40
0.68181818181817855
40
0.68333333333333002
40
0.68484848484848149
40
0.68636363636363296
40
0.68787878787878443
40
0.6893939393939359
40
0.69090909090908736
40
0.69242424242423883
40
0.6939393939393903
40
0.69545454545454177
40
0.69696969696969324
40
0.69848484848484471
40
0.69999999999999618
40
0.70151515151514765
40
0.70303030303029912
40
0.70454545454545059
40
0.70606060606060206
40
0.70757575757575353
40
0.709090909090905
40
0.71060606060605647
40
0.71212121212120794
40
0.71363636363635941
40
0.71515151515151087
40
0.71666666666666234
40
0.71818181818181381
40
0.71969696969696528
40
0.72121212121211675
40
0.72272727272726822
40
0.72424242424241969
40
0.72575757575757116
40
0.72727272727272263
40
0.7287878787878741
40
0.73030303030302557
40
0.73181818181817704
40
0.73333333333332851
40
0.73484848484847998
40
0.73636363636363145
40
0.73787878787878292
40
0.73939393939393439
40
0.74090909090908585
40
0.74242424242423732
40
0.74393939393938879
40
0.74545454545454026
40
0.74696969696969173
40
0.7484848484848432
40
0.74999999999999467
40
0.75151515151514614
40
0.75303030303029761
40
0.75454545454544908
40
0.75606060606060055
40
0.75757575757575202
40
0.75909090909090349
40
0.76060606060605496
40
0.76212121212120643
40
0.7636363636363579
40
0.76515151515150936
40
0.76666666666666083
40
0.7681818181818123
40
0.76969696969696377
40
0.77121212121211524
40
0.77272727272726671
40
0.77424242424241818
40
0.77575757575756965
40
0.77727272727272112
40
0.77878787878787259
40
0.78030303030302406
40
0.78181818181817553
40
0.783333333333327
40
0.78484848484847847
40
0.78636363636362994
40
0.78787878787878141
40
0.78939393939393288
40
0.79090909090908434
40
0.79242424242423581
40
0.79393939393938728
40
0.79545454545453875
40
0.79696969696969022
40
0.79848484848484169
40
0.79999999999999316
40
0.80151515151514463
40
0.8030303030302961
40
0.80454545454544757
40
0.80606060606059904
40
0.80757575757575051
40
0.80909090909090198
40
0.81060606060605345
40
0.81212121212120492
40
0.81363636363635639
40
0.81515151515150785
40
0.81666666666665932
40
0.81818181818181079
40
0.81969696969696226
40
0.82121212121211373
40
0.8227272727272652
40
0.82424242424241667
40
0.82575757575756814
40
0.82727272727271961
40
0.82878787878787108
40
0.83030303030302255
40
0.83181818181817402
40
0.83333333333332549
40
0.83484848484847696
40
0.83636363636362843
40
0.8378787878787799
40
0.83939393939393137
40
0.84090909090908283
40
0.8424242424242343
40
0.84393939393938577
40
0.84545454545453724
40
0.84696969696968871
40
0.84848484848484018
40
0.84999999999999165
40
0.85151515151514312
40
0.85303030303029459
40
0.85454545454544606
40
0.85606060606059753
40
0.857575757575749
40
0.85909090909090047
40
0.86060606060605194
40
0.86212121212120341
40
0.86363636363635488
40
0.86515151515150635
40
0.86666666666665781
40
0.86818181818180928
40
0.86969696969696075
40
0.87121212121211222
40
0.87272727272726369
40
0.87424242424241516
40
0.87575757575756663
40
0.8772727272727181
40
0.87878787878786957
40
0.88030303030302104
40
0.88181818181817251
40
0.88333333333332398
40
0.88484848484847545
40
0.88636363636362692
40
0.88787878787877839
40
0.88939393939392986
40
0.89090909090908132
40
0.89242424242423279
40
0.89393939393938426
40
0.89545454545453573
40
0.8969696969696872
40
0.89848484848483867
40
0.89999999999999014
40
0.90151515151514161
40
0.90303030303029308
40
0.90454545454544455
40
0.90606060606059602
40
0.90757575757574749
40
0.90909090909089896
40
0.91060606060605043
40
0.9121212121212019
40
0.91363636363635337
40
0.91515151515150484
40
0.9166666666666563
40
0.91818181818180777
40
0.91969696969695924
40
0.92121212121211071
40
0.92272727272726218
40
0.92424242424241365
40
0.92575757575756512
40
0.92727272727271659
40
0.92878787878786806
40
0.93030303030301953
40
0.931818181818171
40
0.93333333333332247
40
0.93484848484847394
40
0.93636363636362541
40
0.93787878787877688
40
0.93939393939392835
40
0.94090909090907981
40
0.94242424242423128
40
0.94393939393938275
40
0.94545454545453422
40
0.94696969696968569
40
0.94848484848483716
40
0.94999999999998863
40
0.9515151515151401
40
0.95303030303029157
40
0.95454545454544304
40
0.95606060606059451
40
0.95757575757574598
40
0.95909090909089745
40
0.96060606060604892
40
0.96212121212120039
40
0.96363636363635186
40
0.96515151515150333
40
0.96666666666665479
40
0.96818181818180626
40
0.96969696969695773
40
0.9712121212121092
40
0.97272727272726067
40
0.97424242424241214
40
0.97575757575756361
40
0.97727272727271508
40
0.97878787878786655
40
0.98030303030301802
40
0.98181818181816949
40
0.98333333333332096
40
0.98484848484847243
40
0.9863636363636239
40
0.98787878787877537
40
0.98939393939392684
40
0.99090909090907831
40
0.99242424242422977
40
0.99393939393938124
40
0.99545454545453271
40
0.99696969696968418
40
0.99848484848483565
40
1
40
1
40
1
40
1
40
1
40
1
41
1
41
1
41
1
41
1
41
1
41
1
41
1
41
1
41
1
41
1
41
1
41
1
41
1
41
1
41
1
41
1
41
1
41
1
41
1
41
1
41
1
41
1
41
1
41
1
41
1
41
1
41
1
41
1
41
1
41
1
41
1
41
1
41
1
41
1
41
1
41
1
41
1
41
1
41
1
41
1
41
1
41
1
41
1
41
1
41
1
41
1
41
1
41
1
41
1
41
1
41
1
41
1
41
1
41
1
41
1
41
1
41
1
41
1
41
1
41
1
41
1
41
1
41
1
41
1
41
1
41
1
41
1
41
1
41
1
41
1
41
1
41
1
41
1
41
1
41
1
41
1
41
1
41
1
41
1
41
1
41
1
41
1
41
1
41
1
41
1
41
1
41
1
41
1
41
1
41
1
41
1
41
1
41
1
41
1
41
1
41
1
41
1
41
1
41
1
41
1
41
1
41
1
41
1
41
1
41
1
41
1
41
1
41
1
41
1
41
1
41
1
41
1
41
1
41
1
41
1
41
1
41
1
41
1
41
1
41
1
41
1
41
1
41
1
41
1
41
1
41
1
41
1
41
1
41
1
41
1
41
1
41
1
41
1
41
1
41
1
41
1
41
1
41
1
41
1
41
1
41
1
41
1
41
1
41
1
41
1
41
1
41
1
41
1
41
1
41
1
41
1
41
1
41
1
41
1
41
1
41
1
41
1
41
1
41
1
41
1
41
1
41
1
41
1
41
1
41
1
41
1
41
1
41
1
41
1
41
1
41
1
41
1
41
1
41
1
41
1
41
1
41
1
41
1
41
1
41
1
41
1
41
1
41
1
41
1
41
1
41
1
41
1
41
1
41
1
41
1
41
1
41
1
41
1
41
1
41
1
41
1
41
1
41
1
41
1
41
1
41
1
41
1
41
1
41
1
41
1
41
1
41
1
41
1
41
1
41
1
41
1
41
1
41
1
41
1
41
1
41
1
41
1
41
1
41
1
41
1
41
1
41
1
41
1
41
1
41
1
41
1
41
1
41
1
41
1
41
1
41
1
41
1
41
1
41
1
41
1
41
1
41
1
41
1
41
1
41
1
41
1
41
1
41
1
41
1
41
1
41
1
41
1
41
1
41
1
41
1
41
1
41
1
41
1
41
1
41
1
41
1
41
1
41
1
41
1
41
1
41
1
41
1
41
1
41
1
41
1
41
1
41
1
41
1
41
1
41
1
41
1
41
1
41
1
41
1
41
1
41
1
41
1
41
1
41
1
41
1
41
1
41
1
41
1
41
1
41
1
41
1
41
1
41
1
41
1
41
1
41
1
41
1
41
1
41
1
41
1
41
1
41
1
41
1
41
1
41
1
41
1
41
1
41
1
41
1
41
1
41
1
41
1
41
1
41
1
41
1
41
1
41
1
41
1
41
1
41
1
41
1
41
1
41
1
41
1
41
1
41
1
41
1
41
1
41
1
41
1
41
1
41
1
41
1
41
1
41
1
41
1
41
1
41
1
41
1
41
1
41
1
41
1
41
1
41
1
41
1
41
1
41
1
41
1
41
1
41
1
41
1
41
1
41
1
41
1
41
1
41
1
41
1
41
1
41
1
41
1
41
1
41
1
41
1
41
1
41
1
41
1
41
1
41
1
41
1
41
1
41
1
41
1
41
1
41
1
41
1
41
1
41
1
41
1
41
1
41
1
41
1
41
1
41
1
41
1
41
1
41
1
41
1
41
1
41
1
41
1
41
1
41
1
41
1
41
1
41
1
41
1
41
1
41
1
41
1
41
1
41
1
41
1
41
1
41
1
41
1
41
1
41
1
41
1
41
1
41
1
41
1
41
1
41
1
41
1
41
1
41
1
41
1
41
1
41
1
41
1
41
1
41
1
41
1
41
1
41
1
41
1
41
1
41
1
41
1
41
1
41
1
41
1
41
1
41
1
41
1
41
1
41
1
41
1
41
1
41
1
41
1
41
1
41
1
41
1
41
1
41
1
41
1
41
1
41
1
41
1
41
1
41
1
41
1
41
1
41
1
41
1
41
1
41
1
41
1
41
1
41
1
41
1
41
1
41
1
41
1
41
1
41
1
41
1
41
1
41
1
41
1
41
1
41
1
41
1
41
1
41
1
41
1
41
1
41
1
41
1
41
1
41
1
41
1
41
1
41
1
41
1
41
1
41
1
41
1
41
1
41
1
41
1
41
1
41
1
41
1
41
1
41
1
41
1
41
1
41
1
41
1
41
1
41
1
41
1
41
1
41
1
41
1
41
1
41
1
41
1
41
1
41
1
41
1
41
1
41
1
41
1
41
1
41
1
41
1
41
1
41
1
41
1
41
1
41
1
41
1
41
1
41
1
41
1
41
1
41
1
41
1
41
1
41
1
41
1
41
1
41
1
41
1
41
1
41
1
41
1
41
1
41
1
41
1
41
1
41
1
41
1
41
1
41
1
41
1
41
1
41
1
41
1
41
1
41
1
41
1
41
1
41
1
41
1
41
1
41
1
41
1
41
1
41
1
41
1
41
1
41
1
41
1
41
1
41
1
41
1
41
1
41
1
41
1
41
1
41
1
41
1
41
1
41
1
41
1
41
1
41
1
41
1
41
1
41
1
41
1
41
1
41
1
41
1
41
1
41
1
41
1
41
1
41
1
41
1
41
1
41
1
41
1
41
1
41
1
41
1
41
1
41
1
41
1
41
1
41
1
41
1
41
1
41
1
41
1
41
1
41
1
41
1
41
1
41
1
41
1
41
1
41
1
41
1
41
1
41
1
41
1
41
1
41
1
41
1
41
1
41
1
41
1
41
1
41
1
41
1
41
1
41
1
41
1
41
1
41
1
41
1
41
1
41
1
41
1
41
1
41
1
41
1
41
1
41
1
41
1
41
1
41
1
41
1
41
1
41
1
41
1
41
1
41
1
41
1
41
1
41
1
41
1
41
1
41
1
41
1
41
1
41
1
41
1
41
1
41
1
41
1
41
1
41
1
41
1
41
1
10
19.244499999999999
20
-95.226900000000001
30
0
10
19.151742975303787
20
-95.244441732115362
30
0
10
18.965319137210038
20
-95.274565782010413
30
0
10
18.683475071011006
20
-95.304876872803405
30
0
10
18.305161363728448
20
-95.315695849656606
30
0
10
17.832605236619543
20
-95.280513798671933
30
0
10
17.365729577031804
20
-95.196962031420156
30
0
10
16.911044103943784
20
-95.064889636019103
30
0
10
16.474636294127851
20
-94.884717060956021
30
0
10
16.060269874271015
20
-94.65850341548304
30
0
10
15.669362178999469
20
-94.390385748066663
30
0
10
15.303211298760338
20
-94.085746220686303
30
0
10
14.9658640492455
20
-93.750891190906231
30
0
10
14.662002099772234
20
-93.391776006845873
30
0
10
14.392137274778879
20
-93.012649891301862
30
0
10
14.147019471104688
20
-92.613960344940267
30
0
10
13.914029124004607
20
-92.196202287306534
30
0
10
13.686847022103825
20
-91.765462796458692
30
0
10
13.473894748717523
20
-91.338028761912625
30
0
10
13.287797671763217
20
-90.926116560590941
30
0
10
13.132825279564038
20
-90.5199751414047
30
0
10
12.997150357458825
20
-90.079538720974369
30
0
10
12.864448007879909
20
-89.562733654040372
30
0
10
12.724832179594312
20
-88.954706362871548
30
0
10
12.580098842225794
20
-88.278565850869271
30
0
10
12.436948547017508
20
-87.569422447950714
30
0
10
12.303434762774044
20
-86.858889361920632
30
0
10
12.183251832414545
20
-86.151149027999381
30
0
10
12.074011089913503
20
-85.417677137341258
30
0
10
11.970063114456034
20
-84.614557915288373
30
0
10
11.86431534706932
20
-83.69491397997237
30
0
10
11.750292258520275
20
-82.6221065111379
30
0
10
11.624492263148742
20
-81.385576670517821
30
0
10
11.486826091368611
20
-80.002264342603411
30
0
10
11.339627078177623
20
-78.507509318447745
30
0
10
11.187089125512475
20
-76.949098198371203
30
0
10
11.034525642270172
20
-75.379980360985115
30
0
10
10.887710833499359
20
-73.851629630796879
30
0
10
10.752172621370359
20
-72.406954007192141
30
0
10
10.632536532017898
20
-71.073805387551673
30
0
10
10.531775321781664
20
-69.85725804558578
30
0
10
10.450721030921704
20
-68.735399814949488
30
0
10
10.388585829066727
20
-67.66865200110297
30
0
10
10.343332034327267
20
-66.607099029146028
30
0
10
10.312097415125017
20
-65.498476148999785
30
0
10
10.291605280314744
20
-64.296150405976292
30
0
10
10.27856162007174
20
-62.966466837042148
30
0
10
10.270105260372205
20
-61.497920894131724
30
0
10
10.264070809637973
20
-59.904165006834837
30
0
10
10.258929726347382
20
-58.216503958598096
30
0
10
10.253804998524643
20
-56.47878319632926
30
0
10
10.24845596999339
20
-54.741322671334061
30
0
10
10.243276513754902
20
-53.055241101270958
30
0
10
10.239286143179257
20
-51.466653523444066
30
0
10
10.238127261956153
20
-50.010827565842426
30
0
10
10.242052590104326
20
-48.706580387648572
30
0
10
10.253933967399476
20
-47.550040099883326
30
0
10
10.277212000238316
20
-46.510232446646633
30
0
10
10.315397714026117
20
-45.538681074939532
30
0
10
10.371614506465573
20
-44.577695361547718
30
0
10
10.448130242200593
20
-43.56908724241444
30
0
10
10.545880792796748
20
-42.462874174812441
30
0
10
10.664027187274399
20
-41.225591587086335
30
0
10
10.799418365213032
20
-39.849831591028448
30
0
10
10.947074115244801
20
-38.350285630395121
30
0
10
11.100796675218179
20
-36.758080410465666
30
0
10
11.253736319776984
20
-35.11572263379206
30
0
10
11.398977040148372
20
-33.471782105742683
30
0
10
11.530111933883642
20
-31.875699537912734
30
0
10
11.641826869715699
20
-30.372512456481982
30
0
10
11.730471665511077
20
-28.997682097990239
30
0
10
11.794657904940664
20
-27.771720338869443
30
0
10
11.835784886776285
20
-26.69534926038466
30
0
10
11.857238277238991
20
-25.754677351813609
30
0
10
11.863658336392255
20
-24.925797469736871
30
0
10
11.860169753336047
20
-24.179800835467027
30
0
10
11.851655561628924
20
-23.487162189624197
30
0
10
11.841944353493938
20
-22.823508575136813
30
0
10
11.833282119114447
20
-22.170470536816943
30
0
10
11.826047452984412
20
-21.510540673279408
30
0
10
11.818507691040697
20
-20.824149813772223
30
0
10
11.806317592585051
20
-20.084343643278974
30
0
10
11.783091523421351
20
-19.258473422620035
30
0
10
11.742006246906513
20
-18.316139141987133
30
0
10
11.677107023580701
20
-17.235361948855449
30
0
10
11.584760330936719
20
-16.009618716824512
30
0
10
11.464985131276379
20
-14.654184634779856
30
0
10
11.322994802461688
20
-13.213645211979351
30
0
10
11.167502203753763
20
-11.75161464088967
30
0
10
11.00882398414212
20
-10.339361257961723
30
0
10
10.857025806575059
20
-9.0446377347592453
30
0
10
10.720121212092341
20
-7.9208510537549826
30
0
10
10.602083247470933
20
-6.9950995655239314
30
0
10
10.501320625181691
20
-6.2590053924257658
30
0
10
10.407995282110974
20
-5.6525816808197407
30
0
10
10.305952006847638
20
-5.0758150723137536
30
0
10
10.178803077788279
20
-4.4251884336923775
30
0
10
10.014289875023529
20
-3.6198993856440813
30
0
10
9.8106221579942314
20
-2.639844466929155
30
0
10
9.5762786053897173
20
-1.5247935428297996
30
0
10
9.3255316228866345
20
-0.34817296419672539
30
0
10
9.0752850795865658
20
0.80131031846991674
30
0
10
8.841249609287793
20
1.8420951932051775
30
0
10
8.6346828539286342
20
2.7185598593476095
30
0
10
8.4582046445603076
20
3.4259849312645398
30
0
10
8.3043194396184923
20
4.0171917042968657
30
0
10
8.1591493740154668
20
4.5730006554253757
30
0
10
8.0049666549182845
20
5.1819740865143205
30
0
10
7.8233828814406117
20
5.9131181620718394
30
0
10
7.5976430456658886
20
6.8031149819265169
30
0
10
7.3138560417124658
20
7.8639556611720165
30
0
10
6.9624920876153826
20
9.0859196086448826
30
0
10
6.5396999627390624
20
10.44241631188148
30
0
10
6.0488703086235462
20
11.894044581944476
30
0
10
5.501698419057707
20
13.392955759877578
30
0
10
4.9204457229832483
20
14.887167267952844
30
0
10
4.3355058216506679
20
16.32454067610189
30
0
10
3.7793030084639994
20
17.656370466584448
30
0
10
3.281150379984509
20
18.841156005410056
30
0
10
2.861916010488442
20
19.848150864449423
30
0
10
2.528305022225191
20
20.661346548128627
30
0
10
2.2683909707319163
20
21.282481576533769
30
0
10
2.0440352018110657
20
21.736340879511985
30
0
10
1.7919295702357636
20
22.069777299771403
30
0
10
1.455890807081669
20
22.328065095092843
30
0
10
1.0247863872198391
20
22.527131653854838
30
0
10
0.53972954539866946
20
22.648197668382895
30
0
10
0.052980067478995349
20
22.667600913007334
30
0
10
-0.41149333406476918
20
22.585444748296524
30
0
10
-0.85867862305682008
20
22.425695571998212
30
0
10
-1.2954833656650977
20
22.215369711248947
30
0
10
-1.70757787436205
20
21.967709736830415
30
0
10
-2.0698873496323893
20
21.682219529229737
30
0
10
-2.367527696054788
20
21.350421543386183
30
0
10
-2.612750870117007
20
20.959624295973533
30
0
10
-2.8338700065824547
20
20.498330535664468
30
0
10
-3.0630917641093927
20
19.961716070607942
30
0
10
-3.3263601602207595
20
19.355970393016285
30
0
10
-3.6395240881404494
20
18.698042474378418
30
0
10
-4.0042685612374314
20
18.015498344072014
30
0
10
-4.4026880242434245
20
17.347601796351658
30
0
10
-4.7970123145058166
20
16.741796706212149
30
0
10
-5.1478332012425501
20
16.232393141470951
30
0
10
-5.4273823212008567
20
15.825131615512767
30
0
10
-5.638537629719198
20
15.473378015962808
30
0
10
-5.8195752192737951
20
15.076731893900515
30
0
10
-6.0190381108806825
20
14.526292451461291
30
0
10
-6.2723147542146069
20
13.748672894175101
30
0
10
-6.5918531188627894
20
12.723014981701803
30
0
10
-6.9748918443443788
20
11.464693813264441
30
0
10
-7.4062981692934073
20
10.018276572934084
30
0
10
-7.8634446879122288
20
8.4466257411549837
30
0
10
-8.320141029953966
20
6.8217959407977329
30
0
10
-8.7511379625249859
20
5.2148304802354906
30
0
10
-9.1359969204745823
20
3.6868009644916846
30
0
10
-9.4642070883459581
20
2.277380219241115
30
0
10
-9.7352860110858011
20
1.0033618114880016
30
0
10
-9.9556595912144701
20
-0.13641330421607212
30
0
10
-10.136490114344053
20
-1.1580455218404675
30
0
10
-10.291145820010259
20
-2.0887762626214332
30
0
10
-10.432748315947958
20
-2.9635225096899425
30
0
10
-10.571864652743326
20
-3.8212758460730378
30
0
10
-10.713675348194091
20
-4.701539118507764
30
0
10
-10.858534616278545
20
-5.6408431236245704
30
0
10
-11.003546154982907
20
-6.6692302362981692
30
0
10
-11.143776530584359
20
-7.8068821251748934
30
0
10
-11.273667511928398
20
-9.0603882622174883
30
0
10
-11.38825300864103
20
-10.419863211346708
30
0
10
-11.484732624612597
20
-11.853976733617618
30
0
10
-11.562784147037783
20
-13.312875461561733
30
0
10
-11.623736810833167
20
-14.738308619803369
30
0
10
-11.67005798359723
20
-16.071796958951047
30
0
10
-11.704715355196434
20
-17.263514104437622
30
0
10
-11.730583680621862
20
-18.28106768561884
30
0
10
-11.749852791385131
20
-19.117847182011456
30
0
10
-11.763386255475027
20
-19.802697241736681
30
0
10
-11.770245496368041
20
-20.405640627565774
30
0
10
-11.768396776858893
20
-21.015303190934699
30
0
10
-11.755276990972893
20
-21.720053316911393
30
0
10
-11.728447161789525
20
-22.586187043041122
30
0
10
-11.686110217396084
20
-23.641870103602294
30
0
10
-11.627085183448562
20
-24.88618121522191
30
0
10
-11.550850731705173
20
-26.294857843613414
30
0
10
-11.457563018343183
20
-27.82734401559539
30
0
10
-11.348082040033793
20
-29.433226657634481
30
0
10
-11.223999984770753
20
-31.059066409444782
30
0
10
-11.087655571882634
20
-32.654751568196751
30
0
10
-10.942186216707386
20
-34.180798395783285
30
0
10
-10.791461351984031
20
-35.612853590085948
30
0
10
-10.639708396668661
20
-36.939062252264719
30
0
10
-10.491197802734519
20
-38.158787028826232
30
0
10
-10.349903195844108
20
-39.280793824655142
30
0
10
-10.219175521475927
20
-40.321660544995773
30
0
10
-10.101403316609201
20
-41.30410125294042
30
0
10
-9.9976974428419467
20
-42.255300315489528
30
0
10
-9.9075154575206898
20
-43.205314590334247
30
0
10
-9.8290692514614069
20
-44.184281034473642
30
0
10
-9.7598126922734387
20
-45.219462013353244
30
0
10
-9.6968927220650265
20
-46.33242856820651
30
0
10
-9.6376335738937708
20
-47.536006367891581
30
0
10
-9.57996541749994
20
-48.831741449916791
30
0
10
-9.5229817894840139
20
-50.206081912612774
30
0
10
-9.4668987164318743
20
-51.63260293254568
30
0
10
-9.4127177143263374
20
-53.0772357498413
30
0
10
-9.3619827092393741
20
-54.502534072928725
30
0
10
-9.3164958943007612
20
-55.872381949259839
30
0
10
-9.2780559936403044
20
-57.156415783955588
30
0
10
-9.2481757634849586
20
-58.334793604893981
30
0
10
-9.2278345562323736
20
-59.402288329130968
30
0
10
-9.2171480661447944
20
-60.374037261476794
30
0
10
-9.2155424288390453
20
-61.281129153049527
30
0
10
-9.2220689405446468
20
-62.163351255642276
30
0
10
-9.2356767323654374
20
-63.062790514966125
30
0
10
-9.2554914069783774
20
-64.017301687391495
30
0
10
-9.281118807436247
20
-65.053498481330777
30
0
10
-9.3128545122200475
20
-66.181559061545926
30
0
10
-9.3514224357912852
20
-67.399096336891759
30
0
10
-9.3977777993609042
20
-68.693800214365254
30
0
10
-9.4528831434161589
20
-70.046570631753866
30
0
10
-9.5175001971085447
20
-71.434411463821291
30
0
10
-9.5919647805306258
20
-72.8334966771979
30
0
10
-9.6759928570215905
20
-74.221998945944662
30
0
10
-9.7684109181143288
20
-75.583447190045575
30
0
10
-9.8674018904203891
20
-76.906532750701501
30
0
10
-9.9708704741529157
20
-78.184077592051267
30
0
10
-10.076772676556043
20
-79.412286954898931
30
0
10
-10.183449240692672
20
-80.58988633492902
30
0
10
-10.289983112334461
20
-81.71729994880215
30
0
10
-10.396486577053546
20
-82.79583057312297
30
0
10
-10.504565507506436
20
-83.826792006110736
30
0
10
-10.617177843216368
20
-84.810826372572564
30
0
10
-10.73759956771436
20
-85.747464386983552
30
0
10
-10.868632200151001
20
-86.634665876495674
30
0
10
-11.011658027631741
20
-87.468283777719975
30
0
10
-11.165887529502301
20
-88.241757556418875
30
0
10
-11.327187875637142
20
-88.945185194157204
30
0
10
-11.490209697290048
20
-89.569620756744968
30
0
10
-11.651266955550826
20
-90.112689615940326
30
0
10
-11.810733013360169
20
-90.58317767266837
30
0
10
-11.976216980846882
20
-91.007528974080032
30
0
10
-12.1583554193276
20
-91.417211116776542
30
0
10
-12.365380440336995
20
-91.832695823421233
30
0
10
-12.59869128460868
20
-92.250534627338055
30
0
10
-12.856398578514268
20
-92.656321313223742
30
0
10
-13.13696898700363
20
-93.038212083176802
30
0
10
-13.441476549086421
20
-93.395137411854705
30
0
10
-13.771590112005921
20
-93.729220987372699
30
0
10
-14.128037756441412
20
-94.039707529609856
30
0
10
-14.509890415811013
20
-94.320847448580167
30
0
10
-14.91525580299756
20
-94.56585779211116
30
0
10
-15.341675408362775
20
-94.769920272804455
30
0
10
-15.786212054414353
20
-94.930307239726872
30
0
10
-16.245237602703895
20
-95.044537210466927
30
0
10
-16.714309474108912
20
-95.108928674368585
30
0
10
-17.18806973936988
20
-95.119547322062658
30
0
10
-17.660109645031962
20
-95.073691749647864
30
0
10
-18.122976916436826
20
-94.971161692856626
30
0
10
-18.569685222292659
20
-94.814280340156657
30
0
10
-18.995470115191438
20
-94.608216826204114
30
0
10
-19.398600439863085
20
-94.360502328112915
30
0
10
-19.778622373269588
20
-94.078780614529563
30
0
10
-20.134701466305842
20
-93.768257084643082
30
0
10
-20.465111032232599
20
-93.431290024791934
30
0
10
-20.768245300589761
20
-93.0694590922771
30
0
10
-21.043440583385401
20
-92.685423240674609
30
0
10
-21.290868096786063
20
-92.282807914489865
30
0
10
-21.5108411374128
20
-91.864917937060554
30
0
10
-21.703224989920077
20
-91.433661030584418
30
0
10
-21.867675495191683
20
-90.990537874967913
30
0
10
-22.004057039418949
20
-90.538487051427694
30
0
10
-22.112798066133379
20
-90.082541864947217
30
0
10
-22.195109100175735
20
-89.61873000829496
30
0
10
-22.253254845474405
20
-89.121151956600016
30
0
10
-22.290647393952646
20
-88.535891873923291
30
0
10
-22.311324044358834
20
-87.798697615243526
30
0
10
-22.319549765322733
20
-86.847853353147443
30
0
10
-22.319325495798445
20
-85.640655877759571
30
0
10
-22.314079889206791
20
-84.162919022512241
30
0
10
-22.306776063387225
20
-82.422741809228327
30
0
10
-22.299940886152076
20
-80.44721270570561
30
0
10
-22.295724903159268
20
-78.277952261298438
30
0
10
-22.295949128644132
20
-75.967154526702544
30
0
10
-22.302157608833348
20
-73.573407532904042
30
0
10
-22.315667200975206
20
-71.157624246400715
30
0
10
-22.337619230931367
20
-68.778890641950298
30
0
10
-22.369028751164819
20
-66.490431607390377
30
0
10
-22.410838519163498
20
-64.33533512502342
30
0
10
-22.46396232277467
20
-62.342826392531087
30
0
10
-22.529354079116032
20
-60.523208553613024
30
0
10
-22.60798629729522
20
-58.867494489184963
30
0
10
-22.700720025946133
20
-57.352664152169055
30
0
10
-22.808202305989038
20
-55.945483765100413
30
0
10
-22.930753238960115
20
-54.606893736409674
30
0
10
-23.068255659189131
20
-53.296189135155984
30
0
10
-23.220047938811632
20
-51.975205642213837
30
0
10
-23.384805534935687
20
-50.612697801766934
30
0
10
-23.560450569665452
20
-49.188178563491974
30
0
10
-23.743990779230163
20
-47.697141971934542
30
0
10
-23.931674520312178
20
-46.150073755170268
30
0
10
-24.119323898776951
20
-44.567955764159983
30
0
10
-24.30261363456253
20
-42.978843353431024
30
0
10
-24.477371281106354
20
-41.414010205214311
30
0
10
-24.639870867457788
20
-39.904251619333188
30
0
10
-24.787123388885021
20
-38.476182545337231
30
0
10
-24.917182589229601
20
-37.148391481598566
30
0
10
-25.029411413130084
20
-35.928000645287469
30
0
10
-25.124851299546766
20
-34.806148446194932
30
0
10
-25.205841361055128
20
-33.761350183787009
30
0
10
-25.275466728144259
20
-32.76464948702592
30
0
10
-25.337074769151403
20
-31.784065901291122
30
0
10
-25.393742330513497
20
-30.789535523562449
30
0
10
-25.447811728313532
20
-29.757179669001481
30
0
10
-25.500278071753748
20
-28.675011155418808
30
0
10
-25.550757600314668
20
-27.543037045827408
30
0
10
-25.597891451334121
20
-26.369170681871434
30
0
10
-25.639624683437027
20
-25.166333676409444
30
0
10
-25.673533172159427
20
-23.949124436547823
30
0
10
-25.697137939502568
20
-22.730543102753646
30
0
10
-25.708206222587791
20
-21.518995698960367
30
0
10
-25.705106253587083
20
-20.314397859197484
30
0
10
-25.686844430618137
20
-19.109442959900832
30
0
10
-25.65298804824166
20
-17.892702544271902
30
0
10
-25.603626331082555
20
-16.651147278867526
30
0
10
-25.539314118597694
20
-15.372857892649295
30
0
10
-25.461026151512812
20
-14.049774485446493
30
0
10
-25.370099463849822
20
-12.680149793165929
30
0
10
-25.268198717148785
20
-11.271808626540029
30
0
10
-25.15721150676594
20
-9.842771686039729
30
0
10
-25.039006401716485
20
-8.4166765872944804
30
0
10
-24.915221937929154
20
-7.0193373452890722
30
0
10
-24.787040002823375
20
-5.6748056559726558
30
0
10
-24.654973258177741
20
-4.401742517563811
30
0
10
-24.518629401869187
20
-3.2094301288648408
30
0
10
-24.376525354291751
20
-2.0944666924255562
30
0
10
-24.225781744114411
20
-1.0358694184260309
30
0
10
-24.062235689682005
20
0.0042902583548386272
30
0
10
-23.88106512164503
20
1.0734926792035198
30
0
10
-23.67728318830536
20
2.2230927810099264
30
0
10
-23.446283967664698
20
3.5019636829180185
30
0
10
-23.184369598027594
20
4.9503893055461257
30
0
10
-22.889277571545094
20
6.5939465952770444
30
0
10
-22.560726618429854
20
8.437161831982948
30
0
10
-22.200901512780543
20
10.457919669157032
30
0
10
-21.813991008593156
20
12.613566541364671
30
0
10
-21.405779497532649
20
14.846350129396308
30
0
10
-20.983218270082805
20
17.089111483249678
30
0
10
-20.554005675422783
20
19.270865881437931
30
0
10
-20.126162966562188
20
21.322440241179301
30
0
10
-19.707613177097848
20
23.18206575527298
30
0
10
-19.305755983213192
20
24.801037344513208
30
0
10
-18.927050582663266
20
26.149234314074388
30
0
10
-18.576580465328981
20
27.220957425872975
30
0
10
-18.257660531624072
20
28.040024809075391
30
0
10
-17.971332624608497
20
28.666821615297245
30
0
10
-17.717412776217323
20
29.178164359715851
30
0
10
-17.495692123950096
20
29.644466137456334
30
0
10
-17.307058176405175
20
30.108305593008428
30
0
10
-17.154730404975581
20
30.561134108907897
30
0
10
-17.040251715375582
20
30.980641007981063
30
0
10
-16.95864175559435
20
31.375248041874318
30
0
10
-16.895357782851214
20
31.814691204005431
30
0
10
-16.832314660133786
20
32.39115288084006
30
0
10
-16.753617342088415
20
33.18354073809823
30
0
10
-16.649183148968355
20
34.23467616365231
30
0
10
-16.513312412131775
20
35.560814013924883
30
0
10
-16.344388666117744
20
37.153887986781655
30
0
10
-16.144124173273774
20
38.98668812375093
30
0
10
-15.917000259710601
20
41.016778681400737
30
0
10
-15.669623052075183
20
43.190970507088615
30
0
10
-15.410117589931327
20
45.449524805936704
30
0
10
-15.147500993499028
20
47.730541384119988
30
0
10
-14.891075040869264
20
49.974106645166252
30
0
10
-14.649785317084326
20
52.126933128054318
30
0
10
-14.431676447753169
20
54.145535731582029
30
0
10
-14.243601949477975
20
55.995686574617423
30
0
10
-14.090873846854413
20
57.652567050201533
30
0
10
-13.976961279669343
20
59.100662384273448
30
0
10
-13.903110718458763
20
60.333723251467589
30
0
10
-13.868133071377907
20
61.354798411879095
30
0
10
-13.867809448737191
20
62.176005271340998
30
0
10
-13.895183250435865
20
62.818953558305815
30
0
10
-13.938712278158508
20
63.313583861692337
30
0
10
-13.987544105736729
20
63.7020145394509
30
0
10
-14.041810199941143
20
64.043940769235974
30
0
10
-14.126406473179191
20
64.427952456921645
30
0
10
-14.280738698605148
20
64.95084442034495
30
0
10
-14.537233635539913
20
65.683135964671123
30
0
10
-14.900935049656622
20
66.634380364941265
30
0
10
-15.353393694211682
20
67.764071240684643
30
0
10
-15.861269334313718
20
69.000825357950006
30
0
10
-16.383214288316406
20
70.258563843795045
30
0
10
-16.87749995843221
20
71.454011657511515
30
0
10
-17.309284700912503
20
72.523511137924586
30
0
10
-17.658129126727708
20
73.440413018289846
30
0
10
-17.92514994188905
20
74.231454742947548
30
0
10
-18.12554227380593
20
74.952331894345235
30
0
10
-18.281203574489183
20
75.663227298233096
30
0
10
-18.413615092315037
20
76.405842085663437
30
0
10
-18.535926825309371
20
77.176318157195738
30
0
10
-18.647459231432535
20
77.910593924793773
30
0
10
-18.740278932959633
20
78.537250890959157
30
0
10
-18.803938932386068
20
79.016228710520679
30
0
10
-18.831419578365221
20
79.393933823696671
30
0
10
-18.823072960548963
20
79.81927750205395
30
0
10
-18.784305105737985
20
80.446328995034179
30
0
10
-18.724329538480745
20
81.33535893133282
30
0
10
-18.654140253302657
20
82.417216932453542
30
0
10
-18.584005154309789
20
83.560294712139552
30
0
10
-18.521137194714679
20
84.610869688344934
30
0
10
-18.467102668002084
20
85.446231190529701
30
0
10
-18.415790064454452
20
86.017741433198452
30
0
10
-18.349953780168867
20
86.410348866175354
30
0
10
-18.249545965864858
20
86.781386421921241
30
0
10
-18.102392165011537
20
87.276669184419333
30
0
10
-17.91363920295009
20
87.956926228558416
30
0
10
-17.699736343164002
20
88.818361357790693
30
0
10
-17.482607008658171
20
89.812101870145142
30
0
10
-17.283944190931855
20
90.863727376137305
30
0
10
-17.119015988020113
20
91.8933745532822
30
0
10
-16.992006726567638
20
92.83370428509771
30
0
10
-16.898533670744733
20
93.636264989055547
30
0
10
-16.827054476983673
20
94.280666301735153
30
0
10
-16.760939705025969
20
94.780193516415324
30
0
10
-16.679711500523766
20
95.194782742781825
30
0
10
-16.562378897344786
20
95.621757706318476
30
0
10
-16.393182976217769
20
96.152516562354435
30
0
10
-16.168560859524277
20
96.826858587708685
30
0
10
-15.896965248660994
20
97.625735037992712
30
0
10
-15.592628763705774
20
98.49917625826842
30
0
10
-15.2708439398581
20
99.384785440578838
30
0
10
-14.943118571083126
20
100.22836547147134
30
0
10
-14.611119897582093
20
101.00807747127278
30
0
10
-14.268420161924581
20
101.73144992349589
30
0
10
-13.905373953435268
20
102.42115594456685
30
0
10
-13.513084374136881
20
103.10420504176247
30
0
10
-13.087500804286627
20
103.80030280194667
30
0
10
-12.634117334507769
20
104.50899991904359
30
0
10
-12.164949321048571
20
105.21516145320341
30
0
10
-11.694377246448182
20
105.89717278950263
30
0
10
-11.235417300313458
20
106.53412331210644
30
0
10
-10.795757317464394
20
107.11352643124427
30
0
10
-10.374046485602829
20
107.6385138314688
30
0
10
-9.9625609656005807
20
108.12247739847783
30
0
10
-9.5497135484379019
20
108.58405027617097
30
0
10
-9.1226214597756687
20
109.04188495185103
30
0
10
-8.669655407151561
20
109.50972765232351
30
0
10
-8.1837204837542412
20
109.99427060793809
30
0
10
-7.6652741528547583
20
110.49303591566971
30
0
10
-7.1258843740324505
20
110.99184582690205
30
0
10
-6.5902698967764604
20
111.4636473048019
30
0
10
-6.0847878313930952
20
111.87997555165637
30
0
10
-5.6280458393466066
20
112.22032753434917
30
0
10
-5.2189505289529636
20
112.48418232081715
30
0
10
-4.8307872986434672
20
112.69670704480697
30
0
10
-4.4309185846812404
20
112.88832953220329
30
0
10
-4.0012526618176585
20
113.07286203895679
30
0
10
-3.5467819930220319
20
113.23988711193884
30
0
10
-3.0810701937485065
20
113.37273015063217
30
0
10
-2.6151507928741271
20
113.46467781740857
30
0
10
-2.1523420443354002
20
113.5204153504601
30
0
10
-1.6910049007330339
20
113.54455249928398
30
0
10
-1.2237316078134324
20
113.53120862038904
30
0
10
-0.74507037861533276
20
113.47057087544636
30
0
10
-0.26099314960193121
20
113.36174050417515
30
0
10
0.20165475417205497
20
113.22399515515293
30
0
10
0.61855750463993209
20
113.077337944693
30
0
10
0.99775282059989356
20
112.91722275106102
30
0
10
1.3958229494978096
20
112.70076151287428
30
0
10
1.8705792013029021
20
112.38526060427446
30
0
10
2.4309650614495122
20
111.96917142803539
30
0
10
3.0176905843206852
20
111.50737486621018
30
0
10
3.5551536796872614
20
111.06688509857005
30
0
10
3.9826465153800372
20
110.70002864553231
30
0
10
4.3051817119013664
20
110.40079209273213
30
0
10
4.5975938452505201
20
110.10166067043038
30
0
10
4.9475119250469666
20
109.72362235482684
30
0
10
5.401880136540159
20
109.22301426104738
30
0
10
5.955236176936344
20
108.60233080222923
30
0
10
6.5735506680675337
20
107.89024529335217
30
0
10
7.2076848292475857
20
107.13069924585224
30
0
10
7.8100907739520498
20
106.36897804320542
30
0
10
8.3528301325364502
20
105.63717683439447
30
0
10
8.827521020442715
20
104.95224431669605
30
0
10
9.2388541606921581
20
104.31865151553342
30
0
10
9.6002403453807617
20
103.72944650096076
30
0
10
9.9286554234778972
20
103.16809212866444
30
0
10
10.239589212527839
20
102.60967980314942
30
0
10
10.545645279457476
20
102.02703329755198
30
0
10
10.855549578447427
20
101.39728944277331
30
0
10
11.173046693004471
20
100.70815147806982
30
0
10
11.495738563341165
20
99.964705129855233
30
0
10
11.817090137073096
20
99.183373243598908
30
0
10
12.128618301147016
20
98.385212751770993
30
0
10
12.421963243247532
20
97.589617126802381
30
0
10
12.6911247315892
20
96.807463485911484
30
0
10
12.93429528680644
20
96.035606140905813
30
0
10
13.152442689375199
20
95.262222174898724
30
0
10
13.348145370161324
20
94.471306068934211
30
0
10
13.524404126347866
20
93.647260267418417
30
0
10
13.683291878151971
20
92.77998523241007
30
0
10
13.825222631411689
20
91.868033788662729
30
0
10
13.950029654780174
20
90.916178401397488
30
0
10
14.057682856501597
20
89.934013881040741
30
0
10
14.14920745813723
20
88.934135809146028
30
0
10
14.227381910111816
20
87.930533214026539
30
0
10
14.297873962596
20
86.936804500134542
30
0
10
14.368302462243594
20
85.964926225867529
30
0
10
14.446420789353049
20
85.024259959403722
30
0
10
14.538556889610827
20
84.120441169117427
30
0
10
14.648000118307198
20
83.254412861555096
30
0
10
14.773284230378261
20
82.421171133346093
30
0
10
14.906878819392507
20
81.609273591029336
30
0
10
15.037800508008567
20
80.806637246275812
30
0
10
15.15396100095229
20
80.00619308219639
30
0
10
15.24448765406458
20
79.210838522998827
30
0
10
15.302356845681205
20
78.440477255466902
30
0
10
15.325950714588135
20
77.732354258333658
30
0
10
15.317558046261649
20
77.118947770503496
30
0
10
15.282255398616837
20
76.612411239314156
30
0
10
15.226993324721844
20
76.180886545297227
30
0
10
15.158536908085543
20
75.745725394022386
30
0
10
15.079692886270063
20
75.219716868187987
30
0
10
14.984526976838545
20
74.543734386885163
30
0
10
14.858892689235009
20
73.700482568989059
30
0
10
14.686470100504511
20
72.70089408515544
30
0
10
14.453244189784622
20
71.578231751971614
30
0
10
14.152724149109531
20
70.378976180857208
30
0
10
13.790606380562334
20
69.155209685142026
30
0
10
13.39032508967777
20
67.95603529066608
30
0
10
12.986548102983871
20
66.825134123688031
30
0
10
12.61756837717625
20
65.798740188142276
30
0
10
12.318383497499447
20
64.903379976954895
30
0
10
12.112828639897067
20
64.153918427810126
30
0
10
12.007648016426655
20
63.550989011596798
30
0
10
11.981848979495384
20
63.079901607831268
30
0
10
11.998477471529604
20
62.7029912123038
30
0
10
12.025407215040344
20
62.350531898907917
30
0
10
12.055646893955203
20
61.909098758189323
30
0
10
12.101041632533196
20
61.245191265515935
30
0
10
12.181564242811337
20
60.234175436228782
30
0
10
12.316453007086782
20
58.786520338074951
30
0
10
12.513939156947822
20
56.877289925051812
30
0
10
12.772633244303604
20
54.537150652203785
30
0
10
13.08370213344725
20
51.840453387037314
30
0
10
13.432769903178013
20
48.894359234220317
30
0
10
13.801933786681367
20
45.827529679933832
30
0
10
14.171732913548311
20
42.778995118511254
30
0
10
14.523132034530617
20
39.88696820315505
30
0
10
14.839511101369853
20
37.277631307742631
30
0
10
15.10862376778914
20
35.054050392547694
30
0
10
15.324635726278119
20
33.284766118974765
30
0
10
15.489974543839173
20
31.993145962117598
30
0
10
15.61761946641643
20
31.144960120915574
30
0
10
15.732357027367563
20
30.640131709904416
30
0
10
15.87472025548724
20
30.293660475471334
30
0
10
16.082361744534367
20
29.907281458571568
30
0
10
16.366793133735534
20
29.359456515344874
30
0
10
16.692942345092217
20
28.684823120792554
30
0
10
17.005113323478266
20
27.996030147804941
30
0
10
17.251124869475269
20
27.411271194141271
30
0
10
17.408498648858387
20
26.975728977140378
30
0
10
17.50602222330906
20
26.596515533972212
30
0
10
17.596847496150602
20
26.118714131757152
30
0
10
17.731895145763239
20
25.40041263388764
30
0
10
17.940895219750107
20
24.365896362691345
30
0
10
18.238439347355961
20
22.987122271341235
30
0
10
18.625331499306011
20
21.278678743833979
30
0
10
19.091804516031598
20
19.287394439963347
30
0
10
19.61994342785151
20
17.084219672402735
30
0
10
20.186441577165439
20
14.755159938977219
30
0
10
20.765232634270077
20
12.39254956352119
30
0
10
21.330131219096906
20
10.086337580300611
30
0
10
21.857573851850912
20
7.9149999196663776
30
0
10
22.329073612657069
20
5.9374732344826286
30
0
10
22.734396880379947
20
4.1825284281235984
30
0
10
23.072144719054094
20
2.647336485616206
30
0
10
23.347383405926365
20
1.3064882982637545
30
0
10
23.570052713715107
20
0.11825255213349305
30
0
10
23.753044395407457
20
-0.96798086313494525
30
0
10
23.910452183407568
20
-2.0049056047161522
30
0
10
24.055677734157324
20
-3.0398986946066335
30
0
10
24.19976304843135
20
-4.108643810470987
30
0
10
24.34921412478537
20
-5.2264058335782879
30
0
10
24.505859191045595
20
-6.388735548164556
30
0
10
24.668167285621273
20
-7.5789304926539565
30
0
10
24.832144334151923
20
-8.7735692909424792
30
0
10
24.992391436851843
20
-9.9487228049874439
30
0
10
25.143120836000836
20
-11.086144311293575
30
0
10
25.279126187143007
20
-12.178837282952751
30
0
10
25.396937168535388
20
-13.238518326480364
30
0
10
25.494853200513585
20
-14.291980905494308
30
0
10
25.572596544172697
20
-15.373729950161652
30
0
10
25.631091485253833
20
-16.51982334848163
30
0
10
25.672190965277668
20
-17.761270365385307
30
0
10
25.698425517103999
20
-19.117478814835177
30
0
10
25.712743249352812
20
-20.590014500270701
30
0
10
25.718252011892318
20
-22.155330193478736
30
0
10
25.717982894787063
20
-23.77115814821164
30
0
10
25.714655442162318
20
-25.384299397687357
30
0
10
25.710444774049144
20
-26.937867317909845
30
0
10
25.706742096539898
20
-28.378862258522286
30
0
10
25.703931462069693
20
-29.665370519270972
30
0
10
25.701128341717808
20
-30.774467450392343
30
0
10
25.696007523052366
20
-31.708549621486529
30
0
10
25.684411692944416
20
-32.505490105128885
30
0
10
25.660794475552674
20
-33.234244763343533
30
0
10
25.619369469756709
20
-33.97801537062103
30
0
10
25.555101445737822
20
-34.820406945389252
30
0
10
25.464674352258655
20
-35.831440522445057
30
0
10
25.347691467703044
20
-37.050890450665619
30
0
10
25.206545734892401
20
-38.487924598164739
30
0
10
25.045704308027304
20
-40.127993503318471
30
0
10
24.871182179450237
20
-41.937378886348682
30
0
10
24.689936012208854
20
-43.868723862994045
30
0
10
24.509294712774157
20
-45.866125449130351
30
0
10
24.336368439889746
20
-47.870452883625305
30
0
10
24.177480271687244
20
-49.824481372157322
30
0
10
24.037557018279195
20
-51.678308177284158
30
0
10
23.919610439217955
20
-53.394171956094361
30
0
10
23.823995710524386
20
-54.952728691135981
30
0
10
23.748660297890325
20
-56.352859408734972
30
0
10
23.689952156068514
20
-57.607815064657913
30
0
10
23.643259463472898
20
-58.742482873639503
30
0
10
23.60371271418925
20
-59.790196698112126
30
0
10
23.566877118256727
20
-60.789723899188964
30
0
10
23.529409447816448
20
-61.782221119274027
30
0
10
23.48982576656077
20
-62.808095773530141
30
0
10
23.448921802363735
20
-63.904246169315329
30
0
10
23.409074956148924
20
-65.102573761539531
30
0
10
23.373735723837356
20
-66.428273924547639
30
0
10
23.346845660624286
20
-67.898222049308174
30
0
10
23.332284163396963
20
-69.51930030830259
30
0
10
23.333308713372919
20
-71.28679277867181
30
0
10
23.35198431069513
20
-73.182650989265397
30
0
10
23.388649643377168
20
-75.17405068256393
30
0
10
23.441281869429918
20
-77.211195379339074
30
0
10
23.505924697583396
20
-79.232897450456264
30
0
10
23.57725463226236
20
-81.173147810431274
30
0
10
23.649099169979721
20
-82.967379001914807
30
0
10
23.714973114223007
20
-84.558759339581414
30
0
10
23.768611976579912
20
-85.904700666358963
30
0
10
23.804495307984766
20
-86.982747664602712
30
0
10
23.818400701300423
20
-87.797957868588441
30
0
10
23.807882884851406
20
-88.386774828881656
30
0
10
23.772941884512491
20
-88.829586538539672
30
0
10
23.715822677469149
20
-89.22652034001149
30
0
10
23.640177500593328
20
-89.656045878677418
30
0
10
23.55065023622414
20
-90.130636007041019
30
0
10
23.450366795507087
20
-90.619878537412873
30
0
10
23.337932442952727
20
-91.089682098245532
30
0
10
23.204792713777458
20
-91.535046628861892
30
0
10
23.040438252796175
20
-91.965759392074915
30
0
10
22.838287359530753
20
-92.389778983980264
30
0
10
22.599433993115806
20
-92.802247834355256
30
0
10
22.328367932226328
20
-93.194186710191488
30
0
10
22.029320799859935
20
-93.55996712532631
30
0
10
21.704175020323831
20
-93.900072384112562
30
0
10
21.353690255349349
20
-94.215502800890434
30
0
10
20.977804762783286
20
-94.503041456911632
30
0
10
20.576665752004033
20
-94.755342059845816
30
0
10
20.151617549011984
20
-94.964806770501738
30
0
10
19.795517250330604
20
-95.094369554996874
30
0
10
19.521861285388887
20
-95.169315389317859
30
0
10
19.337257024696999
20
-95.209358267884525
30
0
10
19.244499999999999
20
-95.226900000000001
30
0
0
ENDSEC
0
SECTION
2
OBJECTS
0
DICTIONARY
5
C
100
AcDbDictionary
3
ACAD_GROUP
350
D
3
ACAD_MLINESTYLE
350
17
0
DICTIONARY
5
D
100
AcDbDictionary
0
DICTIONARY
5
1A
330
C
100
AcDbDictionary
0
DICTIONARY
5
17
100
AcDbDictionary
0
ENDSEC
0
EOF
