0
SECTION
2
HEADER
9
$INSUNITS
70
4
9
$ACADVER
1
AC1014
9
$HANDSEED
5
FFFF
0
ENDSEC
0
SECTION
2
TABLES
0
TABLE
2
VPORT
5
8
100
AcDbSymbolTable
0
ENDTAB
0
TABLE
2
LTYPE
5
5
100
AcDbSymbolTable
0
LTYPE
5
14
100
AcDbSymbolTableRecord
100
AcDbLinetypeTableRecord
2
BYBLOCK
70
0
0
LTYPE
5
15
100
AcDbSymbolTableRecord
100
AcDbLinetypeTableRecord
2
BYLAYER
70
0
0
LTYPE
5
16
100
AcDbSymbolTableRecord
100
AcDbLinetypeTableRecord
2
DASHED
70
0
3
Dashed __ __ __ __ __ __ __ __ __ __ __ __ __ _
72
65
73
2
40
0.75
49
0.5
74
0
49
-0.25
74
0
0
ENDTAB
0
TABLE
2
LAYER
5
2
100
AcDbSymbolTable
70
2
0
LAYER
5
50
100
AcDbSymbolTableRecord
100
AcDbLayerTableRecord
2
0
70
0
62
7
6
CONTINUOUS
0
ENDTAB
0
TABLE
2
STYLE
5
3
100
AcDbSymbolTable
70
1
0
STYLE
5
11
100
AcDbSymbolTableRecord
100
AcDbTextStyleTableRecord
2
STANDARD
70
0
0
ENDTAB
0
TABLE
2
VIEW
5
6
100
AcDbSymbolTable
70
0
0
ENDTAB
0
TABLE
2
UCS
5
7
100
AcDbSymbolTable
70
0
0
ENDTAB
0
TABLE
2
APPID
5
9
100
AcDbSymbolTable
70
2
0
APPID
5
12
100
AcDbSymbolTableRecord
100
AcDbRegAppTableRecord
2
ACAD
70
0
0
ENDTAB
0
TABLE
2
DIMSTYLE
5
A
100
AcDbSymbolTable
70
1
0
ENDTAB
0
TABLE
2
BLOCK_RECORD
5
1
100
AcDbSymbolTable
70
1
0
BLOCK_RECORD
5
1F
100
AcDbSymbolTableRecord
100
AcDbBlockTableRecord
2
*MODEL_SPACE
0
BLOCK_RECORD
5
1B
100
AcDbSymbolTableRecord
100
AcDbBlockTableRecord
2
*PAPER_SPACE
0
ENDTAB
0
ENDSEC
0
SECTION
2
BLOCKS
0
BLOCK
5
20
100
AcDbEntity
100
AcDbBlockBegin
2
*MODEL_SPACE
0
ENDBLK
5
21
100
AcDbEntity
100
AcDbBlockEnd
0
BLOCK
5
1C
100
AcDbEntity
100
AcDbBlockBegin
2
*PAPER_SPACE
0
ENDBLK
5
1D
100
AcDbEntity
100
AcDbBlockEnd
0
ENDSEC
0
SECTION
2
ENTITIES
0
SPLINE
5
100
100
AcDbEntity
8
0
100
AcDbSpline
70
6
71
5
72
791
73
785
74
0
42
0.000000001
43
0.0000000001
44
0.0000000001
40
0
40
0
40
0
40
0
40
0
40
0
40
0.0012820512820512821
40
0.0025641025641025641
40
0.0038461538461538464
40
0.0051282051282051282
40
0.00641025641025641
40
0.0076923076923076919
40
0.0089743589743589737
40
0.010256410256410256
40
0.011538461538461539
40
0.012820512820512822
40
0.014102564102564105
40
0.015384615384615387
40
0.01666666666666667
40
0.017948717948717951
40
0.019230769230769232
40
0.020512820512820513
40
0.021794871794871794
40
0.023076923076923075
40
0.024358974358974356
40
0.025641025641025637
40
0.026923076923076918
40
0.028205128205128199
40
0.02948717948717948
40
0.030769230769230761
40
0.032051282051282041
40
0.033333333333333326
40
0.03461538461538461
40
0.035897435897435895
40
0.037179487179487179
40
0.038461538461538464
40
0.039743589743589748
40
0.041025641025641033
40
0.042307692307692317
40
0.043589743589743601
40
0.044871794871794886
40
0.04615384615384617
40
0.047435897435897455
40
0.048717948717948739
40
0.050000000000000024
40
0.051282051282051308
40
0.052564102564102592
40
0.053846153846153877
40
0.055128205128205161
40
0.056410256410256446
40
0.05769230769230773
40
0.058974358974359015
40
0.060256410256410299
40
0.061538461538461584
40
0.062820512820512861
40
0.064102564102564139
40
0.065384615384615416
40
0.066666666666666693
40
0.067948717948717971
40
0.069230769230769248
40
0.070512820512820526
40
0.071794871794871803
40
0.073076923076923081
40
0.074358974358974358
40
0.075641025641025636
40
0.076923076923076913
40
0.078205128205128191
40
0.079487179487179468
40
0.080769230769230746
40
0.082051282051282023
40
0.083333333333333301
40
0.084615384615384578
40
0.085897435897435856
40
0.087179487179487133
40
0.088461538461538411
40
0.089743589743589688
40
0.091025641025640966
40
0.092307692307692243
40
0.093589743589743521
40
0.094871794871794798
40
0.096153846153846076
40
0.097435897435897353
40
0.098717948717948631
40
0.099999999999999908
40
0.10128205128205119
40
0.10256410256410246
40
0.10384615384615374
40
0.10512820512820502
40
0.1064102564102563
40
0.10769230769230757
40
0.10897435897435885
40
0.11025641025641013
40
0.11153846153846141
40
0.11282051282051268
40
0.11410256410256396
40
0.11538461538461524
40
0.11666666666666652
40
0.11794871794871779
40
0.11923076923076907
40
0.12051282051282035
40
0.12179487179487163
40
0.1230769230769229
40
0.12435897435897418
40
0.12564102564102547
40
0.12692307692307675
40
0.12820512820512803
40
0.1294871794871793
40
0.13076923076923058
40
0.13205128205128186
40
0.13333333333333314
40
0.13461538461538441
40
0.13589743589743569
40
0.13717948717948697
40
0.13846153846153825
40
0.13974358974358952
40
0.1410256410256408
40
0.14230769230769208
40
0.14358974358974336
40
0.14487179487179463
40
0.14615384615384591
40
0.14743589743589719
40
0.14871794871794847
40
0.14999999999999974
40
0.15128205128205102
40
0.1525641025641023
40
0.15384615384615358
40
0.15512820512820485
40
0.15641025641025613
40
0.15769230769230741
40
0.15897435897435869
40
0.16025641025640996
40
0.16153846153846124
40
0.16282051282051252
40
0.1641025641025638
40
0.16538461538461507
40
0.16666666666666635
40
0.16794871794871763
40
0.16923076923076891
40
0.17051282051282018
40
0.17179487179487146
40
0.17307692307692274
40
0.17435897435897402
40
0.17564102564102529
40
0.17692307692307657
40
0.17820512820512785
40
0.17948717948717913
40
0.1807692307692304
40
0.18205128205128168
40
0.18333333333333296
40
0.18461538461538424
40
0.18589743589743551
40
0.18717948717948679
40
0.18846153846153807
40
0.18974358974358935
40
0.19102564102564062
40
0.1923076923076919
40
0.19358974358974318
40
0.19487179487179446
40
0.19615384615384573
40
0.19743589743589701
40
0.19871794871794829
40
0.19999999999999957
40
0.20128205128205084
40
0.20256410256410212
40
0.2038461538461534
40
0.20512820512820468
40
0.20641025641025595
40
0.20769230769230723
40
0.20897435897435851
40
0.21025641025640979
40
0.21153846153846106
40
0.21282051282051234
40
0.21410256410256362
40
0.2153846153846149
40
0.21666666666666617
40
0.21794871794871745
40
0.21923076923076873
40
0.22051282051282001
40
0.22179487179487128
40
0.22307692307692256
40
0.22435897435897384
40
0.22564102564102512
40
0.22692307692307639
40
0.22820512820512767
40
0.22948717948717895
40
0.23076923076923023
40
0.2320512820512815
40
0.23333333333333278
40
0.23461538461538406
40
0.23589743589743534
40
0.23717948717948661
40
0.23846153846153789
40
0.23974358974358917
40
0.24102564102564045
40
0.24230769230769172
40
0.243589743589743
40
0.24487179487179428
40
0.24615384615384556
40
0.24743589743589683
40
0.24871794871794811
40
0.24999999999999939
40
0.25128205128205067
40
0.25256410256410194
40
0.25384615384615322
40
0.2551282051282045
40
0.25641025641025578
40
0.25769230769230705
40
0.25897435897435833
40
0.26025641025640961
40
0.26153846153846089
40
0.26282051282051216
40
0.26410256410256344
40
0.26538461538461472
40
0.266666666666666
40
0.26794871794871727
40
0.26923076923076855
40
0.27051282051281983
40
0.27179487179487111
40
0.27307692307692238
40
0.27435897435897366
40
0.27564102564102494
40
0.27692307692307622
40
0.27820512820512749
40
0.27948717948717877
40
0.28076923076923005
40
0.28205128205128133
40
0.2833333333333326
40
0.28461538461538388
40
0.28589743589743516
40
0.28717948717948644
40
0.28846153846153771
40
0.28974358974358899
40
0.29102564102564027
40
0.29230769230769155
40
0.29358974358974282
40
0.2948717948717941
40
0.29615384615384538
40
0.29743589743589666
40
0.29871794871794793
40
0.29999999999999921
40
0.30128205128205049
40
0.30256410256410177
40
0.30384615384615304
40
0.30512820512820432
40
0.3064102564102556
40
0.30769230769230688
40
0.30897435897435815
40
0.31025641025640943
40
0.31153846153846071
40
0.31282051282051199
40
0.31410256410256326
40
0.31538461538461454
40
0.31666666666666582
40
0.3179487179487171
40
0.31923076923076837
40
0.32051282051281965
40
0.32179487179487093
40
0.32307692307692221
40
0.32435897435897348
40
0.32564102564102476
40
0.32692307692307604
40
0.32820512820512732
40
0.32948717948717859
40
0.33076923076922987
40
0.33205128205128115
40
0.33333333333333243
40
0.3346153846153837
40
0.33589743589743498
40
0.33717948717948626
40
0.33846153846153754
40
0.33974358974358881
40
0.34102564102564009
40
0.34230769230769137
40
0.34358974358974265
40
0.34487179487179392
40
0.3461538461538452
40
0.34743589743589648
40
0.34871794871794776
40
0.34999999999999903
40
0.35128205128205031
40
0.35256410256410159
40
0.35384615384615287
40
0.35512820512820414
40
0.35641025641025542
40
0.3576923076923067
40
0.35897435897435798
40
0.36025641025640925
40
0.36153846153846053
40
0.36282051282051181
40
0.36410256410256309
40
0.36538461538461436
40
0.36666666666666564
40
0.36794871794871692
40
0.3692307692307682
40
0.37051282051281947
40
0.37179487179487075
40
0.37307692307692203
40
0.37435897435897331
40
0.37564102564102458
40
0.37692307692307586
40
0.37820512820512714
40
0.37948717948717842
40
0.38076923076922969
40
0.38205128205128097
40
0.38333333333333225
40
0.38461538461538353
40
0.3858974358974348
40
0.38717948717948608
40
0.38846153846153736
40
0.38974358974358864
40
0.39102564102563991
40
0.39230769230769119
40
0.39358974358974247
40
0.39487179487179375
40
0.39615384615384502
40
0.3974358974358963
40
0.39871794871794758
40
0.39999999999999886
40
0.40128205128205013
40
0.40256410256410141
40
0.40384615384615269
40
0.40512820512820397
40
0.40641025641025524
40
0.40769230769230652
40
0.4089743589743578
40
0.41025641025640908
40
0.41153846153846035
40
0.41282051282051163
40
0.41410256410256291
40
0.41538461538461419
40
0.41666666666666546
40
0.41794871794871674
40
0.41923076923076802
40
0.4205128205128193
40
0.42179487179487057
40
0.42307692307692185
40
0.42435897435897313
40
0.42564102564102441
40
0.42692307692307568
40
0.42820512820512696
40
0.42948717948717824
40
0.43076923076922952
40
0.43205128205128079
40
0.43333333333333207
40
0.43461538461538335
40
0.43589743589743463
40
0.4371794871794859
40
0.43846153846153718
40
0.43974358974358846
40
0.44102564102563974
40
0.44230769230769101
40
0.44358974358974229
40
0.44487179487179357
40
0.44615384615384485
40
0.44743589743589612
40
0.4487179487179474
40
0.44999999999999868
40
0.45128205128204996
40
0.45256410256410123
40
0.45384615384615251
40
0.45512820512820379
40
0.45641025641025507
40
0.45769230769230634
40
0.45897435897435762
40
0.4602564102564089
40
0.46153846153846018
40
0.46282051282051145
40
0.46410256410256273
40
0.46538461538461401
40
0.46666666666666529
40
0.46794871794871656
40
0.46923076923076784
40
0.47051282051281912
40
0.4717948717948704
40
0.47307692307692167
40
0.47435897435897295
40
0.47564102564102423
40
0.47692307692307551
40
0.47820512820512678
40
0.47948717948717806
40
0.48076923076922934
40
0.48205128205128062
40
0.48333333333333189
40
0.48461538461538317
40
0.48589743589743445
40
0.48717948717948573
40
0.488461538461537
40
0.48974358974358828
40
0.49102564102563956
40
0.49230769230769084
40
0.49358974358974211
40
0.49487179487179339
40
0.49615384615384467
40
0.49743589743589595
40
0.49871794871794722
40
0.4999999999999985
40
0.50128205128204983
40
0.50256410256410111
40
0.50384615384615239
40
0.50512820512820367
40
0.50641025641025494
40
0.50769230769230622
40
0.5089743589743575
40
0.51025641025640878
40
0.51153846153846005
40
0.51282051282051133
40
0.51410256410256261
40
0.51538461538461389
40
0.51666666666666516
40
0.51794871794871644
40
0.51923076923076772
40
0.520512820512819
40
0.52179487179487027
40
0.52307692307692155
40
0.52435897435897283
40
0.52564102564102411
40
0.52692307692307538
40
0.52820512820512666
40
0.52948717948717794
40
0.53076923076922922
40
0.53205128205128049
40
0.53333333333333177
40
0.53461538461538305
40
0.53589743589743433
40
0.5371794871794856
40
0.53846153846153688
40
0.53974358974358816
40
0.54102564102563944
40
0.54230769230769071
40
0.54358974358974199
40
0.54487179487179327
40
0.54615384615384455
40
0.54743589743589582
40
0.5487179487179471
40
0.54999999999999838
40
0.55128205128204966
40
0.55256410256410093
40
0.55384615384615221
40
0.55512820512820349
40
0.55641025641025477
40
0.55769230769230604
40
0.55897435897435732
40
0.5602564102564086
40
0.56153846153845988
40
0.56282051282051115
40
0.56410256410256243
40
0.56538461538461371
40
0.56666666666666499
40
0.56794871794871626
40
0.56923076923076754
40
0.57051282051281882
40
0.5717948717948701
40
0.57307692307692137
40
0.57435897435897265
40
0.57564102564102393
40
0.57692307692307521
40
0.57820512820512648
40
0.57948717948717776
40
0.58076923076922904
40
0.58205128205128032
40
0.58333333333333159
40
0.58461538461538287
40
0.58589743589743415
40
0.58717948717948543
40
0.5884615384615367
40
0.58974358974358798
40
0.59102564102563926
40
0.59230769230769054
40
0.59358974358974181
40
0.59487179487179309
40
0.59615384615384437
40
0.59743589743589565
40
0.59871794871794692
40
0.5999999999999982
40
0.60128205128204948
40
0.60256410256410076
40
0.60384615384615203
40
0.60512820512820331
40
0.60641025641025459
40
0.60769230769230587
40
0.60897435897435714
40
0.61025641025640842
40
0.6115384615384597
40
0.61282051282051098
40
0.61410256410256225
40
0.61538461538461353
40
0.61666666666666481
40
0.61794871794871609
40
0.61923076923076736
40
0.62051282051281864
40
0.62179487179486992
40
0.6230769230769212
40
0.62435897435897247
40
0.62564102564102375
40
0.62692307692307503
40
0.62820512820512631
40
0.62948717948717758
40
0.63076923076922886
40
0.63205128205128014
40
0.63333333333333142
40
0.63461538461538269
40
0.63589743589743397
40
0.63717948717948525
40
0.63846153846153653
40
0.6397435897435878
40
0.64102564102563908
40
0.64230769230769036
40
0.64358974358974164
40
0.64487179487179291
40
0.64615384615384419
40
0.64743589743589547
40
0.64871794871794675
40
0.64999999999999802
40
0.6512820512820493
40
0.65256410256410058
40
0.65384615384615186
40
0.65512820512820313
40
0.65641025641025441
40
0.65769230769230569
40
0.65897435897435697
40
0.66025641025640824
40
0.66153846153845952
40
0.6628205128205108
40
0.66410256410256208
40
0.66538461538461335
40
0.66666666666666463
40
0.66794871794871591
40
0.66923076923076719
40
0.67051282051281846
40
0.67179487179486974
40
0.67307692307692102
40
0.6743589743589723
40
0.67564102564102357
40
0.67692307692307485
40
0.67820512820512613
40
0.67948717948717741
40
0.68076923076922868
40
0.68205128205127996
40
0.68333333333333124
40
0.68461538461538252
40
0.68589743589743379
40
0.68717948717948507
40
0.68846153846153635
40
0.68974358974358763
40
0.6910256410256389
40
0.69230769230769018
40
0.69358974358974146
40
0.69487179487179274
40
0.69615384615384401
40
0.69743589743589529
40
0.69871794871794657
40
0.69999999999999785
40
0.70128205128204912
40
0.7025641025641004
40
0.70384615384615168
40
0.70512820512820296
40
0.70641025641025423
40
0.70769230769230551
40
0.70897435897435679
40
0.71025641025640807
40
0.71153846153845934
40
0.71282051282051062
40
0.7141025641025619
40
0.71538461538461318
40
0.71666666666666445
40
0.71794871794871573
40
0.71923076923076701
40
0.72051282051281829
40
0.72179487179486956
40
0.72307692307692084
40
0.72435897435897212
40
0.7256410256410234
40
0.72692307692307467
40
0.72820512820512595
40
0.72948717948717723
40
0.73076923076922851
40
0.73205128205127978
40
0.73333333333333106
40
0.73461538461538234
40
0.73589743589743362
40
0.73717948717948489
40
0.73846153846153617
40
0.73974358974358745
40
0.74102564102563873
40
0.74230769230769
40
0.74358974358974128
40
0.74487179487179256
40
0.74615384615384384
40
0.74743589743589511
40
0.74871794871794639
40
0.74999999999999767
40
0.75128205128204895
40
0.75256410256410022
40
0.7538461538461515
40
0.75512820512820278
40
0.75641025641025406
40
0.75769230769230533
40
0.75897435897435661
40
0.76025641025640789
40
0.76153846153845917
40
0.76282051282051044
40
0.76410256410256172
40
0.765384615384613
40
0.76666666666666428
40
0.76794871794871555
40
0.76923076923076683
40
0.77051282051281811
40
0.77179487179486939
40
0.77307692307692066
40
0.77435897435897194
40
0.77564102564102322
40
0.7769230769230745
40
0.77820512820512577
40
0.77948717948717705
40
0.78076923076922833
40
0.78205128205127961
40
0.78333333333333088
40
0.78461538461538216
40
0.78589743589743344
40
0.78717948717948472
40
0.78846153846153599
40
0.78974358974358727
40
0.79102564102563855
40
0.79230769230768983
40
0.7935897435897411
40
0.79487179487179238
40
0.79615384615384366
40
0.79743589743589494
40
0.79871794871794621
40
0.79999999999999749
40
0.80128205128204877
40
0.80256410256410005
40
0.80384615384615132
40
0.8051282051282026
40
0.80641025641025388
40
0.80769230769230516
40
0.80897435897435643
40
0.81025641025640771
40
0.81153846153845899
40
0.81282051282051027
40
0.81410256410256154
40
0.81538461538461282
40
0.8166666666666641
40
0.81794871794871538
40
0.81923076923076665
40
0.82051282051281793
40
0.82179487179486921
40
0.82307692307692049
40
0.82435897435897176
40
0.82564102564102304
40
0.82692307692307432
40
0.8282051282051256
40
0.82948717948717687
40
0.83076923076922815
40
0.83205128205127943
40
0.83333333333333071
40
0.83461538461538198
40
0.83589743589743326
40
0.83717948717948454
40
0.83846153846153582
40
0.83974358974358709
40
0.84102564102563837
40
0.84230769230768965
40
0.84358974358974093
40
0.8448717948717922
40
0.84615384615384348
40
0.84743589743589476
40
0.84871794871794604
40
0.84999999999999731
40
0.85128205128204859
40
0.85256410256409987
40
0.85384615384615115
40
0.85512820512820242
40
0.8564102564102537
40
0.85769230769230498
40
0.85897435897435626
40
0.86025641025640753
40
0.86153846153845881
40
0.86282051282051009
40
0.86410256410256137
40
0.86538461538461264
40
0.86666666666666392
40
0.8679487179487152
40
0.86923076923076648
40
0.87051282051281775
40
0.87179487179486903
40
0.87307692307692031
40
0.87435897435897159
40
0.87564102564102286
40
0.87692307692307414
40
0.87820512820512542
40
0.8794871794871767
40
0.88076923076922797
40
0.88205128205127925
40
0.88333333333333053
40
0.88461538461538181
40
0.88589743589743308
40
0.88717948717948436
40
0.88846153846153564
40
0.88974358974358692
40
0.89102564102563819
40
0.89230769230768947
40
0.89358974358974075
40
0.89487179487179203
40
0.8961538461538433
40
0.89743589743589458
40
0.89871794871794586
40
0.89999999999999714
40
0.90128205128204841
40
0.90256410256409969
40
0.90384615384615097
40
0.90512820512820225
40
0.90641025641025352
40
0.9076923076923048
40
0.90897435897435608
40
0.91025641025640736
40
0.91153846153845863
40
0.91282051282050991
40
0.91410256410256119
40
0.91538461538461247
40
0.91666666666666374
40
0.91794871794871502
40
0.9192307692307663
40
0.92051282051281758
40
0.92179487179486885
40
0.92307692307692013
40
0.92435897435897141
40
0.92564102564102269
40
0.92692307692307396
40
0.92820512820512524
40
0.92948717948717652
40
0.9307692307692278
40
0.93205128205127907
40
0.93333333333333035
40
0.93461538461538163
40
0.93589743589743291
40
0.93717948717948418
40
0.93846153846153546
40
0.93974358974358674
40
0.94102564102563802
40
0.94230769230768929
40
0.94358974358974057
40
0.94487179487179185
40
0.94615384615384313
40
0.9474358974358944
40
0.94871794871794568
40
0.94999999999999696
40
0.95128205128204824
40
0.95256410256409951
40
0.95384615384615079
40
0.95512820512820207
40
0.95641025641025335
40
0.95769230769230462
40
0.9589743589743559
40
0.96025641025640718
40
0.96153846153845846
40
0.96282051282050973
40
0.96410256410256101
40
0.96538461538461229
40
0.96666666666666357
40
0.96794871794871484
40
0.96923076923076612
40
0.9705128205128174
40
0.97179487179486868
40
0.97307692307691995
40
0.97435897435897123
40
0.97564102564102251
40
0.97692307692307379
40
0.97820512820512506
40
0.97948717948717634
40
0.98076923076922762
40
0.9820512820512789
40
0.98333333333333017
40
0.98461538461538145
40
0.98589743589743273
40
0.98717948717948401
40
0.98846153846153528
40
0.98974358974358656
40
0.99102564102563784
40
0.99230769230768912
40
0.99358974358974039
40
0.99487179487179167
40
0.99615384615384295
40
0.99743589743589423
40
0.9987179487179455
40
1
40
1
40
1
40
1
40
1
40
1
41
1
41
1
41
1
41
1
41
1
41
1
41
1
41
1
41
1
41
1
41
1
41
1
41
1
41
1
41
1
41
1
41
1
41
1
41
1
41
1
41
1
41
1
41
1
41
1
41
1
41
1
41
1
41
1
41
1
41
1
41
1
41
1
41
1
41
1
41
1
41
1
41
1
41
1
41
1
41
1
41
1
41
1
41
1
41
1
41
1
41
1
41
1
41
1
41
1
41
1
41
1
41
1
41
1
41
1
41
1
41
1
41
1
41
1
41
1
41
1
41
1
41
1
41
1
41
1
41
1
41
1
41
1
41
1
41
1
41
1
41
1
41
1
41
1
41
1
41
1
41
1
41
1
41
1
41
1
41
1
41
1
41
1
41
1
41
1
41
1
41
1
41
1
41
1
41
1
41
1
41
1
41
1
41
1
41
1
41
1
41
1
41
1
41
1
41
1
41
1
41
1
41
1
41
1
41
1
41
1
41
1
41
1
41
1
41
1
41
1
41
1
41
1
41
1
41
1
41
1
41
1
41
1
41
1
41
1
41
1
41
1
41
1
41
1
41
1
41
1
41
1
41
1
41
1
41
1
41
1
41
1
41
1
41
1
41
1
41
1
41
1
41
1
41
1
41
1
41
1
41
1
41
1
41
1
41
1
41
1
41
1
41
1
41
1
41
1
41
1
41
1
41
1
41
1
41
1
41
1
41
1
41
1
41
1
41
1
41
1
41
1
41
1
41
1
41
1
41
1
41
1
41
1
41
1
41
1
41
1
41
1
41
1
41
1
41
1
41
1
41
1
41
1
41
1
41
1
41
1
41
1
41
1
41
1
41
1
41
1
41
1
41
1
41
1
41
1
41
1
41
1
41
1
41
1
41
1
41
1
41
1
41
1
41
1
41
1
41
1
41
1
41
1
41
1
41
1
41
1
41
1
41
1
41
1
41
1
41
1
41
1
41
1
41
1
41
1
41
1
41
1
41
1
41
1
41
1
41
1
41
1
41
1
41
1
41
1
41
1
41
1
41
1
41
1
41
1
41
1
41
1
41
1
41
1
41
1
41
1
41
1
41
1
41
1
41
1
41
1
41
1
41
1
41
1
41
1
41
1
41
1
41
1
41
1
41
1
41
1
41
1
41
1
41
1
41
1
41
1
41
1
41
1
41
1
41
1
41
1
41
1
41
1
41
1
41
1
41
1
41
1
41
1
41
1
41
1
41
1
41
1
41
1
41
1
41
1
41
1
41
1
41
1
41
1
41
1
41
1
41
1
41
1
41
1
41
1
41
1
41
1
41
1
41
1
41
1
41
1
41
1
41
1
41
1
41
1
41
1
41
1
41
1
41
1
41
1
41
1
41
1
41
1
41
1
41
1
41
1
41
1
41
1
41
1
41
1
41
1
41
1
41
1
41
1
41
1
41
1
41
1
41
1
41
1
41
1
41
1
41
1
41
1
41
1
41
1
41
1
41
1
41
1
41
1
41
1
41
1
41
1
41
1
41
1
41
1
41
1
41
1
41
1
41
1
41
1
41
1
41
1
41
1
41
1
41
1
41
1
41
1
41
1
41
1
41
1
41
1
41
1
41
1
41
1
41
1
41
1
41
1
41
1
41
1
41
1
41
1
41
1
41
1
41
1
41
1
41
1
41
1
41
1
41
1
41
1
41
1
41
1
41
1
41
1
41
1
41
1
41
1
41
1
41
1
41
1
41
1
41
1
41
1
41
1
41
1
41
1
41
1
41
1
41
1
41
1
41
1
41
1
41
1
41
1
41
1
41
1
41
1
41
1
41
1
41
1
41
1
41
1
41
1
41
1
41
1
41
1
41
1
41
1
41
1
41
1
41
1
41
1
41
1
41
1
41
1
41
1
41
1
41
1
41
1
41
1
41
1
41
1
41
1
41
1
41
1
41
1
41
1
41
1
41
1
41
1
41
1
41
1
41
1
41
1
41
1
41
1
41
1
41
1
41
1
41
1
41
1
41
1
41
1
41
1
41
1
41
1
41
1
41
1
41
1
41
1
41
1
41
1
41
1
41
1
41
1
41
1
41
1
41
1
41
1
41
1
41
1
41
1
41
1
41
1
41
1
41
1
41
1
41
1
41
1
41
1
41
1
41
1
41
1
41
1
41
1
41
1
41
1
41
1
41
1
41
1
41
1
41
1
41
1
41
1
41
1
41
1
41
1
41
1
41
1
41
1
41
1
41
1
41
1
41
1
41
1
41
1
41
1
41
1
41
1
41
1
41
1
41
1
41
1
41
1
41
1
41
1
41
1
41
1
41
1
41
1
41
1
41
1
41
1
41
1
41
1
41
1
41
1
41
1
41
1
41
1
41
1
41
1
41
1
41
1
41
1
41
1
41
1
41
1
41
1
41
1
41
1
41
1
41
1
41
1
41
1
41
1
41
1
41
1
41
1
41
1
41
1
41
1
41
1
41
1
41
1
41
1
41
1
41
1
41
1
41
1
41
1
41
1
41
1
41
1
41
1
41
1
41
1
41
1
41
1
41
1
41
1
41
1
41
1
41
1
41
1
41
1
41
1
41
1
41
1
41
1
41
1
41
1
41
1
41
1
41
1
41
1
41
1
41
1
41
1
41
1
41
1
41
1
41
1
41
1
41
1
41
1
41
1
41
1
41
1
41
1
41
1
41
1
41
1
41
1
41
1
41
1
41
1
41
1
41
1
41
1
41
1
41
1
41
1
41
1
41
1
41
1
41
1
41
1
41
1
41
1
41
1
41
1
41
1
41
1
41
1
41
1
41
1
41
1
41
1
41
1
41
1
41
1
41
1
41
1
41
1
41
1
41
1
41
1
41
1
41
1
41
1
41
1
41
1
41
1
41
1
41
1
41
1
41
1
41
1
41
1
41
1
41
1
41
1
41
1
41
1
41
1
41
1
41
1
41
1
41
1
41
1
41
1
41
1
41
1
41
1
41
1
41
1
41
1
41
1
41
1
41
1
41
1
41
1
41
1
41
1
41
1
41
1
41
1
41
1
41
1
41
1
41
1
41
1
41
1
41
1
41
1
41
1
41
1
41
1
41
1
41
1
41
1
41
1
41
1
41
1
41
1
41
1
41
1
41
1
41
1
41
1
41
1
41
1
41
1
41
1
41
1
41
1
41
1
41
1
41
1
41
1
41
1
41
1
41
1
41
1
41
1
41
1
41
1
41
1
41
1
41
1
41
1
41
1
41
1
41
1
41
1
41
1
41
1
41
1
41
1
41
1
41
1
41
1
41
1
41
1
41
1
41
1
41
1
41
1
41
1
41
1
41
1
41
1
41
1
41
1
41
1
41
1
41
1
41
1
41
1
41
1
41
1
41
1
41
1
41
1
41
1
41
1
41
1
41
1
41
1
41
1
41
1
41
1
41
1
41
1
41
1
41
1
41
1
41
1
41
1
41
1
41
1
41
1
41
1
41
1
41
1
41
1
41
1
41
1
41
1
41
1
41
1
41
1
41
1
41
1
41
1
41
1
41
1
41
1
41
1
41
1
41
1
41
1
41
1
41
1
41
1
10
19.404
20
-104.26690000000001
30
0
10
19.314611844849352
20
-104.28556828654985
30
0
10
19.134904697034141
20
-104.31840482672378
30
0
10
18.863015951116672
20
-104.35410936635849
30
0
10
18.49766009129236
20
-104.37447311668305
30
0
10
18.040747583503251
20
-104.35422272319286
30
0
10
17.588244758850273
20
-104.28781352212049
30
0
10
17.145071246836206
20
-104.17431860896551
30
0
10
16.716101017433193
20
-104.01371159890408
30
0
10
16.305781479618805
20
-103.80814006248244
30
0
10
15.917791878043779
20
-103.56366958973123
30
0
10
15.554599673797524
20
-103.28753444132607
30
0
10
15.217144342387666
20
-102.98531258769835
30
0
10
14.904192733596513
20
-102.65705529902668
30
0
10
14.613782831205679
20
-102.30141360399996
30
0
10
14.344748169652314
20
-101.92034945467302
30
0
10
14.098957086580189
20
-101.52604808921366
30
0
10
13.879001159356694
20
-101.13310264024533
30
0
10
13.685032760119169
20
-100.74784741403228
30
0
10
13.510620634537718
20
-100.35466058740467
30
0
10
13.345320413740909
20
-99.923485820716124
30
0
10
13.179816855323779
20
-99.425793538062919
30
0
10
13.011406620920781
20
-98.850982445505494
30
0
10
12.844079752462143
20
-98.208453060101562
30
0
10
12.684739466843462
20
-97.519438359641356
30
0
10
12.540771547589859
20
-96.812055133040502
30
0
10
12.416693785445865
20
-96.114909352823773
30
0
10
12.312351091695612
20
-95.451678227824331
30
0
10
12.224511988520369
20
-94.836602545237469
30
0
10
12.14785101546612
20
-94.269793338256193
30
0
10
12.076163321260701
20
-93.732764735123894
30
0
10
12.003506002873872
20
-93.183434847491043
30
0
10
11.924667339229767
20
-92.56781332025102
30
0
10
11.835615111810448
20
-91.832941666381288
30
0
10
11.733900389976204
20
-90.938257089223839
30
0
10
11.619210936736932
20
-89.870362119706726
30
0
10
11.493229997656647
20
-88.643134494475504
30
0
10
11.359091010058084
20
-87.289427963197596
30
0
10
11.220956224129973
20
-85.85534555186824
30
0
10
11.08354411967454
20
-84.393449636216019
30
0
10
10.951678564149734
20
-82.956424340321263
30
0
10
10.829829141491526
20
-81.590551911609566
30
0
10
10.721654057103599
20
-80.329249046878616
30
0
10
10.629544821315932
20
-79.186624864362628
30
0
10
10.554162143147012
20
-78.150897445779634
30
0
10
10.49477532444023
20
-77.191169669629147
30
0
10
10.449612497678222
20
-76.264394846384405
30
0
10
10.41620543497933
20
-75.322231338088017
30
0
10
10.391739822201773
20
-74.318035885944724
30
0
10
10.37339580827271
20
-73.21358427242275
30
0
10
10.358710337091217
20
-71.986418090464312
30
0
10
10.345877936671874
20
-70.63541393458182
30
0
10
10.33368398251409
20
-69.175717034906938
30
0
10
10.321480143492639
20
-67.634901925898589
30
0
10
10.309143719676261
20
-66.048651969488972
30
0
10
10.297043460931167
20
-64.456661196241441
30
0
10
10.286003486665473
20
-62.898400195333863
30
0
10
10.277265979019585
20
-61.409034355520724
30
0
10
10.272459171738127
20
-60.015058471042266
30
0
10
10.273551931717144
20
-58.730562923992736
30
0
10
10.282841608992392
20
-57.551969410494962
30
0
10
10.302819941894821
20
-56.458351935153281
30
0
10
10.335912651285071
20
-55.417538974132853
30
0
10
10.384252897911907
20
-54.390664687642229
30
0
10
10.449440993683417
20
-53.337351991619002
30
0
10
10.532309807362399
20
-52.22062781577452
30
0
10
10.632688145558431
20
-51.01194713694472
30
0
10
10.749163966610817
20
-49.696185653795446
30
0
10
10.878850520564313
20
-48.276603213917717
30
0
10
11.017743242658003
20
-46.771020552320728
30
0
10
11.161072814749184
20
-45.208053946190596
30
0
10
11.303660272315128
20
-43.623322325746081
30
0
10
11.440269822230311
20
-42.055679555900205
30
0
10
11.565965921522981
20
-40.543404937618028
30
0
10
11.67646091133556
20
-39.120483700785854
30
0
10
11.76848441141148
20
-37.812681428128911
30
0
10
11.84010208861533
20
-36.634097413951842
30
0
10
11.89115643855593
20
-35.582564088241512
30
0
10
11.923316445895571
20
-34.63874373620466
30
0
10
11.939359302598074
20
-33.772466465995016
30
0
10
11.942624542975771
20
-32.947462960274521
30
0
10
11.936384236880826
20
-32.126836902019889
30
0
10
11.923283359433199
20
-31.277998007027922
30
0
10
11.904667689562389
20
-30.378362761265588
30
0
10
11.880215095444724
20
-29.419062747117472
30
0
10
11.848600834379635
20
-28.401876930034273
30
0
10
11.808003065919204
20
-27.337247494291969
30
0
10
11.756657891152738
20
-26.241877847227467
30
0
10
11.693423278760998
20
-25.13649289025539
30
0
10
11.618269267851433
20
-24.043566711971955
30
0
10
11.532970612449354
20
-22.984973836004471
30
0
10
11.44110721201362
20
-21.979988204753358
30
0
10
11.346977136008844
20
-21.043800852616087
30
0
10
11.254785736934718
20
-20.185971881094869
30
0
10
11.167682320241553
20
-19.408785027610346
30
0
10
11.086956533993014
20
-18.70592907894817
30
0
10
11.010938270519885
20
-18.060351330333454
30
0
10
10.934755948932757
20
-17.44467173850709
30
0
10
10.852315196747144
20
-16.828295780617491
30
0
10
10.757881043142802
20
-16.183339979915122
30
0
10
10.647777298005899
20
-15.490882447150671
30
0
10
10.522142035557456
20
-14.74746222000287
30
0
10
10.383564995479315
20
-13.960139330347852
30
0
10
10.235616296937129
20
-13.141156506935035
30
0
10
10.081341827909274
20
-12.302494939235881
30
0
10
9.9219407586748023
20
-11.451052703769165
30
0
10
9.7549402352064458
20
-10.582095673657303
30
0
10
9.574763064002326
20
-9.6809365959184639
30
0
10
9.3744978368206944
20
-8.7287489110337653
30
0
10
9.1473043533000737
20
-7.7071271473794534
30
0
10
8.8879435120938339
20
-6.6030735567858443
30
0
10
8.5943160054325727
20
-5.4140192260916535
30
0
10
8.2688510259257608
20
-4.1523195480784443
30
0
10
7.9203436945049095
20
-2.8513173066361568
30
0
10
7.5622590338230289
20
-1.5591082485688013
30
0
10
7.2103336593754888
20
-0.32990834291760074
30
0
10
6.8804031968232966
20
0.78389242908418577
30
0
10
6.5861738034516133
20
1.7396432834636277
30
0
10
6.3369276764288678
20
2.5131032034564935
30
0
10
6.135466876749879
20
3.105053634175607
30
0
10
5.975443317213446
20
3.5529842315687472
30
0
10
5.8407113502388146
20
3.9268930668324109
30
0
10
5.7093299855926549
20
4.2968840905537151
30
0
10
5.5559451591464946
20
4.7021063902629576
30
0
10
5.3565157517389874
20
5.13251717200749
30
0
10
5.0960754837713251
20
5.5542145746383706
30
0
10
4.7783683775855241
20
5.9277972433848047
30
0
10
4.4283828303261172
20
6.2262525339145869
30
0
10
4.0683252778197199
20
6.4350014717486692
30
0
10
3.6940006627418271
20
6.5555778325278657
30
0
10
3.2601265622099751
20
6.6061803332578659
30
0
10
2.7205461644278066
20
6.6123770211691379
30
0
10
2.0642898506270715
20
6.5985547224384256
30
0
10
1.3464106891351135
20
6.5798527887895126
30
0
10
0.64888544086228295
20
6.5630866894200448
30
0
10
0.045443727281630639
20
6.5465890957010195
30
0
10
-0.43043653505858681
20
6.5210252941980595
30
0
10
-0.83068783939611546
20
6.4684031952437913
30
0
10
-1.2521803964566538
20
6.3707384671014502
30
0
10
-1.7791317237001578
20
6.2197038617633567
30
0
10
-2.4185090173675263
20
6.0291084185818207
30
0
10
-3.1107993763582407
20
5.8280361039211703
30
0
10
-3.7755356314062283
20
5.6448772426825968
30
0
10
-4.341186327441366
20
5.4964312860541344
30
0
10
-4.7913209796614868
20
5.3700349376900594
30
0
10
-5.1708151868924377
20
5.2249876621693474
30
0
10
-5.5363293421812765
20
5.0204315651990514
30
0
10
-5.9106419698986734
20
4.7432281555350029
30
0
10
-6.2614426538719057
20
4.4180162691544176
30
0
10
-6.5452391327293737
20
4.0739977170705934
30
0
10
-6.7431628159565227
20
3.7158738755316461
30
0
10
-6.8841932111038462
20
3.306884758968903
30
0
10
-7.0151686272316471
20
2.7973258803040775
30
0
10
-7.17896421229268
20
2.1465235998170136
30
0
10
-7.3947733083839786
20
1.3419483235102783
30
0
10
-7.6657744756779636
20
0.39071743687899552
30
0
10
-7.9823234275340917
20
-0.68447222145133113
30
0
10
-8.3268703987824981
20
-1.8511130256892083
30
0
10
-8.6782582238394959
20
-3.0720505017438549
30
0
10
-9.0160131155676204
20
-4.3106243380225946
30
0
10
-9.3253044565286096
20
-5.5365078439190256
30
0
10
-9.5993235563614672
20
-6.728875821338117
30
0
10
-9.8370125594302085
20
-7.8747691592482223
30
0
10
-10.041847283571247
20
-8.9685438842367997
30
0
10
-10.220191462565717
20
-10.010887777197414
30
0
10
-10.379845546999531
20
-11.008013993935471
30
0
10
-10.528485597700609
20
-11.970797044937928
30
0
10
-10.672211314208415
20
-12.913890140097035
30
0
10
-10.813881882060041
20
-13.854966982963502
30
0
10
-10.953647960397156
20
-14.812419313912295
30
0
10
-11.089743604342656
20
-15.80286057892182
30
0
10
-11.219184643346789
20
-16.838709289933146
30
0
10
-11.33850936474547
20
-17.925715039678533
30
0
10
-11.444494283963367
20
-19.060564025757532
30
0
10
-11.534896608257977
20
-20.228319947788542
30
0
10
-11.609140093097409
20
-21.400302481774037
30
0
10
-11.667912105289798
20
-22.540654318206368
30
0
10
-11.712805839064686
20
-23.612585673662458
30
0
10
-11.745948183433956
20
-24.584637063155441
30
0
10
-11.7696277930864
20
-25.437167868159378
30
0
10
-11.785936762688529
20
-26.168205447887068
30
0
10
-11.796373607773571
20
-26.80087054232353
30
0
10
-11.801563901406919
20
-27.386136319200073
30
0
10
-11.801434547089896
20
-27.98798484260228
30
0
10
-11.79531789711225
20
-28.671029795189416
30
0
10
-11.782084615045363
20
-29.487656432746828
30
0
10
-11.760260877181047
20
-30.464100418496312
30
0
10
-11.728197147494253
20
-31.603503435311389
30
0
10
-11.684240512342923
20
-32.891045424002954
30
0
10
-11.626905323284262
20
-34.298323332685314
30
0
10
-11.55504585712996
20
-35.788064867817575
30
0
10
-11.468025081053806
20
-37.318658390704165
30
0
10
-11.365892140633871
20
-38.848854293096416
30
0
10
-11.249539688904024
20
-40.342177176012044
30
0
10
-11.120909379223896
20
-41.771980594320162
30
0
10
-10.983052872597941
20
-43.124601527670833
30
0
10
-10.839728222000796
20
-44.396427112970002
30
0
10
-10.695075502312898
20
-45.591993527236305
30
0
10
-10.553259899595371
20
-46.721672765100948
30
0
10
-10.418131773069243
20
-47.799548896356072
30
0
10
-10.292872244875937
20
-48.841181256355512
30
0
10
-10.179661708410334
20
-49.861489951143838
30
0
10
-10.079298564170367
20
-50.872412789258171
30
0
10
-9.9909581711144035
20
-51.881184466901608
30
0
10
-9.9127177266338471
20
-52.891992541586255
30
0
10
-9.8419911552257293
20
-53.907236529977453
30
0
10
-9.7759924263918698
20
-54.928913737013389
30
0
10
-9.7122012888462645
20
-55.960012052486235
30
0
10
-9.6487941694329358
20
-57.005757970523916
30
0
10
-9.5851719522844459
20
-58.075270437711879
30
0
10
-9.5221739020035674
20
-59.181898511723617
30
0
10
-9.4616241899468996
20
-60.340762325548738
30
0
10
-9.406016432067716
20
-61.56686934079778
30
0
10
-9.3581446237572266
20
-62.873013592548844
30
0
10
-9.3207535748145922
20
-64.267738641181694
30
0
10
-9.2961888477033607
20
-65.753340275426893
30
0
10
-9.2860285615560105
20
-67.323695832407694
30
0
10
-9.2907660216926065
20
-68.962534434114247
30
0
10
-9.3093607720979108
20
-70.640583379478329
30
0
10
-9.3394475511755495
20
-72.318316595529936
30
0
10
-9.3778335976403202
20
-73.95115411529153
30
0
10
-9.4209051687505188
20
-75.493894963358841
30
0
10
-9.4650686496058594
20
-76.905430851877682
30
0
10
-9.5071841582125654
20
-78.153427444923125
30
0
10
-9.5449853497536434
20
-79.218815357010868
30
0
10
-9.5775447584604674
20
-80.100838010046033
30
0
10
-9.6056269673019568
20
-80.820749544355095
30
0
10
-9.6323199486027029
20
-81.4288509098036
30
0
10
-9.6626044583747568
20
-81.998792541879752
30
0
10
-9.7019175501494477
20
-82.609835807205741
30
0
10
-9.7550477557243696
20
-83.333058116510642
30
0
10
-9.8247768081910092
20
-84.21459448659833
30
0
10
-9.9109830204285725
20
-85.264195933010797
30
0
10
-10.011569761721148
20
-86.4646904523009
30
0
10
-10.123143799223001
20
-87.778588263854672
30
0
10
-10.241793075038769
20
-89.155810002595643
30
0
10
-10.36381665304171
20
-90.540901403973706
30
0
10
-10.486487933640793
20
-91.880550221468994
30
0
10
-10.608773998173751
20
-93.130783388262444
30
0
10
-10.732144259642777
20
-94.264753619193158
30
0
10
-10.86113635252071
20
-95.278961694450686
30
0
10
-11.001773527257136
20
-96.185716293596784
30
0
10
-11.160168686766443
20
-97.006780813040606
30
0
10
-11.341053926208268
20
-97.766561679217546
30
0
10
-11.54634900183494
20
-98.485503557038513
30
0
10
-11.773696314265489
20
-99.173368286916713
30
0
10
-12.015046148329684
20
-99.822618511678229
30
0
10
-12.260385399384566
20
-100.41703519260118
30
0
10
-12.501847605396479
20
-100.9411226363848
30
0
10
-12.736976124510043
20
-101.38781033508941
30
0
10
-12.974076597077788
20
-101.77033982328746
30
0
10
-13.228006345949106
20
-102.11492901844345
30
0
10
-13.512546238804928
20
-102.44633694863394
30
0
10
-13.831799777107319
20
-102.77195881464719
30
0
10
-14.180811571498143
20
-103.08252343919537
30
0
10
-14.551948958922926
20
-103.36346789453415
30
0
10
-14.940814922908725
20
-103.60509349060783
30
0
10
-15.3473407524762
20
-103.80524828420917
30
0
10
-15.772126713346896
20
-103.96424254972041
30
0
10
-16.213584018406777
20
-104.08130859707794
30
0
10
-16.666868039302166
20
-104.15309037802935
30
0
10
-17.125639697775352
20
-104.17580881406084
30
0
10
-17.583146471252331
20
-104.14648739659627
30
0
10
-18.033211601748178
20
-104.06419621555465
30
0
10
-18.470415850564752
20
-103.93023134845657
30
0
10
-18.890590728339237
20
-103.74897472503125
30
0
10
-19.290908345545425
20
-103.52730994687042
30
0
10
-19.669455120424338
20
-103.27211074065252
30
0
10
-20.024870112076108
20
-102.98751225980645
30
0
10
-20.356076470668359
20
-102.67408129836967
30
0
10
-20.662342300447154
20
-102.33247622926301
30
0
10
-20.94330580040511
20
-101.96708454139139
30
0
10
-21.198928413531796
20
-101.5873279826223
30
0
10
-21.429154569506924
20
-101.20072989118823
30
0
10
-21.63355907805223
20
-100.80606022196886
30
0
10
-21.811164547662663
20
-100.38981621955944
30
0
10
-21.961242336982668
20
-99.941778593671131
30
0
10
-22.084031447353457
20
-99.469702130355785
30
0
10
-22.181382715758836
20
-99.010404339467101
30
0
10
-22.256156246367649
20
-98.596182643865973
30
0
10
-22.311719989276099
20
-98.22426580214595
30
0
10
-22.351420086531725
20
-97.826647167306632
30
0
10
-22.378485068836884
20
-97.30498317935924
30
0
10
-22.395912973652919
20
-96.56303838900611
30
0
10
-22.406361417400898
20
-95.541103204345916
30
0
10
-22.412174851567741
20
-94.212206843487564
30
0
10
-22.41541809034306
20
-92.577145435268704
30
0
10
-22.417907450692983
20
-90.659935311478421
30
0
10
-22.421242904086562
20
-88.50308716565273
30
0
10
-22.4268397901279
20
-86.162957449310667
30
0
10
-22.43596071771529
20
-83.705066608538132
30
0
10
-22.449747380923476
20
-81.199431917113444
30
0
10
-22.469252416301956
20
-78.715893633598327
30
0
10
-22.495471226813205
20
-76.319445113061718
30
0
10
-22.529373852797974
20
-74.065558700390369
30
0
10
-22.571936744479174
20
-71.995519109208431
30
0
10
-22.624174761276635
20
-70.131739776124093
30
0
10
-22.687172558482786
20
-68.473124359211482
30
0
10
-22.761987223483867
20
-66.999761397524409
30
0
10
-22.849551625721475
20
-65.677571376991494
30
0
10
-22.950577319778354
20
-64.46297598706893
30
0
10
-23.065458044227679
20
-63.307547248020065
30
0
10
-23.194172015102339
20
-62.162689764649954
30
0
10
-23.336186930377657
20
-60.984251706550701
30
0
10
-23.490358693351169
20
-59.737299058291796
30
0
10
-23.65484486175859
20
-58.400507564215765
30
0
10
-23.826980006046284
20
-56.971543094787151
30
0
10
-24.003468598820699
20
-55.464201044061888
30
0
10
-24.180634116588905
20
-53.904085364916348
30
0
10
-24.354648777160289
20
-52.324793429089034
30
0
10
-24.521770887191838
20
-50.763895937347414
30
0
10
-24.678580145123789
20
-49.258987280532551
30
0
10
-24.822210985553816
20
-47.843746543434094
30
0
10
-24.950593373669104
20
-46.543898751242651
30
0
10
-25.062675022336936
20
-45.373440633624796
30
0
10
-25.158688419689994
20
-44.330221962040042
30
0
10
-25.240287782078536
20
-43.393401079651809
30
0
10
-25.310050228697229
20
-42.530064344988226
30
0
10
-25.371061929400767
20
-41.700620662599455
30
0
10
-25.426469070043012
20
-40.864703332221168
30
0
10
-25.479048800685558
20
-39.986783458566954
30
0
10
-25.530759739960093
20
-39.042078997779612
30
0
10
-25.582334984334928
20
-38.021848061067502
30
0
10
-25.633499034053635
20
-36.929600759081573
30
0
10
-25.683150958378612
20
-35.777814308068315
30
0
10
-25.729560592487125
20
-34.584430404790446
30
0
10
-25.770558489153899
20
-33.369508718780004
30
0
10
-25.803730185964667
20
-32.151665842811134
30
0
10
-25.82660478330666
20
-30.944951633842063
30
0
10
-25.836855538982384
20
-29.754673836032318
30
0
10
-25.832453038814709
20
-28.577512111752029
30
0
10
-25.81178583992601
20
-27.404689836720856
30
0
10
-25.773789106714936
20
-26.224233750190994
30
0
10
-25.718073384183246
20
-25.023638000082599
30
0
10
-25.645045432546972
20
-23.792289238789191
30
0
10
-25.556050800009118
20
-22.524146862146104
30
0
10
-25.453464244233061
20
-21.219957495102861
30
0
10
-25.340908410299512
20
-19.890549779168211
30
0
10
-25.223000321624628
20
-18.556198317229047
30
0
10
-25.104615265779589
20
-17.241987801910753
30
0
10
-24.990284832599265
20
-15.974275686468342
30
0
10
-24.883531611619087
20
-14.776663372364212
30
0
10
-24.786250640772739
20
-13.666276273664424
30
0
10
-24.698025143216377
20
-12.649682447800696
30
0
10
-24.615576932785221
20
-11.719500063369594
30
0
10
-24.531898644955689
20
-10.849404095099677
30
0
10
-24.436455177230442
20
-9.9944947574739889
30
0
10
-24.316939099603747
20
-9.0994523677310379
30
0
10
-24.1606491811207
20
-8.1048057518421697
30
0
10
-23.956025870136173
20
-6.9539824280161309
30
0
10
-23.694108972588563
20
-5.5999797007160526
30
0
10
-23.370053626553677
20
-4.0123027860616212
30
0
10
-22.984562676882966
20
-2.1835429845105301
30
0
10
-22.545513508646881
20
-0.1367743809629719
30
0
10
-22.066444510027821
20
2.0801989423025078
30
0
10
-21.564815466743141
20
4.4015404505486702
30
0
10
-21.060350984366259
20
6.7497334934266275
30
0
10
-20.573345883031415
20
9.0420878870333414
30
0
10
-20.122993879062413
20
11.197160181045071
30
0
10
-19.725690139889707
20
13.141257389040021
30
0
10
-19.39338244080438
20
14.814797291779554
30
0
10
-19.131814537863889
20
16.178980436474379
30
0
10
-18.939017520793445
20
17.221747936752227
30
0
10
-18.803225590952273
20
17.965395823204119
30
0
10
-18.702137960928781
20
18.470315439542173
30
0
10
-18.598822289608282
20
18.848407914680315
30
0
10
-18.454042825496167
20
19.228878284582898
30
0
10
-18.242425185468967
20
19.712184583869583
30
0
10
-17.972228106143
20
20.315108791110376
30
0
10
-17.680308785284033
20
20.980561246912938
30
0
10
-17.41204822203192
20
21.626677161350774
30
0
10
-17.207341392878899
20
22.180387364922346
30
0
10
-17.080945419881321
20
22.624838105394723
30
0
10
-17.01536068808948
20
23.016899523186225
30
0
10
-16.978657804460028
20
23.445527535195644
30
0
10
-16.938717764099209
20
23.998730795032515
30
0
10
-16.875012679422156
20
24.735986115852352
30
0
10
-16.775193408810456
20
25.695402157203453
30
0
10
-16.634475805936269
20
26.894464449209391
30
0
10
-16.453912299749799
20
28.333339069686502
30
0
10
-16.239138283155473
20
29.997083559458861
30
0
10
-15.998917416772843
20
31.858327048583959
30
0
10
-15.743766271765477
20
33.879749944764271
30
0
10
-15.484561777621328
20
36.01664577751589
30
0
10
-15.231115792658681
20
38.219457145762526
30
0
10
-14.990879317873439
20
40.436295295216389
30
0
10
-14.769314913762965
20
42.615055461601912
30
0
10
-14.570156006350988
20
44.705562397509333
30
0
10
-14.395709102536802
20
46.661703280699328
30
0
10
-14.247137900200777
20
48.44356835588637
30
0
10
-14.124754840062415
20
50.019582925820949
30
0
10
-14.028310207522527
20
51.368655667257769
30
0
10
-13.957280506233145
20
52.482290971849707
30
0
10
-13.911161266088826
20
53.366784418995145
30
0
10
-13.889748338278508
20
54.045225473384065
30
0
10
-13.893446976266542
20
54.559956815700545
30
0
10
-13.923503783001575
20
54.973773109986716
30
0
10
-13.981089485427141
20
55.352546961576181
30
0
10
-14.066450761894869
20
55.748911283545596
30
0
10
-14.178030576647886
20
56.185567576504596
30
0
10
-14.314385184778114
20
56.666886352990666
30
0
10
-14.476010870645176
20
57.190088124616864
30
0
10
-14.66738637220088
20
57.757199367766859
30
0
10
-14.894590865124982
20
58.373235704020303
30
0
10
-15.162493262122593
20
59.043435683699443
30
0
10
-15.472394355970156
20
59.771041378824172
30
0
10
-15.818752655310636
20
60.554353061496684
30
0
10
-16.189672588340535
20
61.38638495583141
30
0
10
-16.569783687487345
20
62.256089947756095
30
0
10
-16.942351701630582
20
63.149141934901031
30
0
10
-17.291814788240359
20
64.0488414485378
30
0
10
-17.605887650808434
20
64.937105883504557
30
0
10
-17.878468034885319
20
65.795084708036171
30
0
10
-18.109783404981492
20
66.605245923954413
30
0
10
-18.303775860790349
20
67.354876905734002
30
0
10
-18.466180933474529
20
68.039369621356528
30
0
10
-18.60242690297596
20
68.665233435283241
30
0
10
-18.71536505839175
20
69.254079186436655
30
0
10
-18.803817218265873
20
69.843603563693065
30
0
10
-18.86484389217911
20
70.475875260719093
30
0
10
-18.895524272233878
20
71.187159445616388
30
0
10
-18.894823305601893
20
71.99772107364447
30
0
10
-18.865692756507027
20
72.900124136232165
30
0
10
-18.813944285111866
20
73.865573489250437
30
0
10
-18.746638794050398
20
74.852867772243172
30
0
10
-18.670683791270001
20
75.816307236010672
30
0
10
-18.591262837532408
20
76.714306119370022
30
0
10
-18.510524883420999
20
77.517084468828244
30
0
10
-18.425673897530739
20
78.216351971148043
30
0
10
-18.330668811533215
20
78.823536430551556
30
0
10
-18.219163513573797
20
79.364701546324682
30
0
10
-18.086772538991394
20
79.876308959961307
30
0
10
-17.934229408946813
20
80.401240746281417
30
0
10
-17.767945035159187
20
80.982450740185158
30
0
10
-17.59715464346359
20
81.652771256155674
30
0
10
-17.431934514423471
20
82.426055498417185
30
0
10
-17.280798821403515
20
83.286966726362834
30
0
10
-17.148667639511793
20
84.183686629413017
30
0
10
-17.036820793800992
20
85.048660243862827
30
0
10
-16.942775641257956
20
85.816488114504764
30
0
10
-16.860066569410353
20
86.444138759474868
30
0
10
-16.778355238136243
20
86.927341417825062
30
0
10
-16.682658226670629
20
87.325937569162278
30
0
10
-16.558267305192079
20
87.73034252280533
30
0
10
-16.396184416603333
20
88.219111385144927
30
0
10
-16.199956154602447
20
88.810561935608433
30
0
10
-15.982204741614069
20
89.471766954821874
30
0
10
-15.757096438009203
20
90.149862392876869
30
0
10
-15.534878003531659
20
90.793619229296198
30
0
10
-15.313867323283683
20
91.384438058790039
30
0
10
-15.079517155347371
20
91.944281026933197
30
0
10
-14.81362869400899
20
92.511693137561153
30
0
10
-14.50099237190226
20
93.125710891095707
30
0
10
-14.137411533891289
20
93.805845479403104
30
0
10
-13.736152821965657
20
94.535865450189505
30
0
10
-13.319581505055268
20
95.279140327720569
30
0
10
-12.9118927106601
20
95.991805817519875
30
0
10
-12.531059997198957
20
96.637350034328975
30
0
10
-12.18196831837221
20
97.199202083839367
30
0
10
-11.846812508673993
20
97.697818975261157
30
0
10
-11.49359581317311
20
98.178256569423823
30
0
10
-11.090091970767508
20
98.688978770295563
30
0
10
-10.614548819850096
20
99.265678569691119
30
0
10
-10.07107480261951
20
99.908181932112527
30
0
10
-9.4906613167668823
20
100.57825325065822
30
0
10
-8.9156361443336944
20
101.22138808519729
30
0
10
-8.3880294119278425
20
101.78300448065917
30
0
10
-7.9370419771893115
20
102.22578057494367
30
0
10
-7.5652655319142283
20
102.54916419478947
30
0
10
-7.2402578348461191
20
102.80012078943521
30
0
10
-6.9170645134257818
20
103.03470140760845
30
0
10
-6.5577848854528717
20
103.28355081760436
30
0
10
-6.1502754146987986
20
103.52096203857541
30
0
10
-5.7012320897486681
20
103.69699327603981
30
0
10
-5.2314199843856377
20
103.76495157416687
30
0
10
-4.7700384131506297
20
103.70963908242958
30
0
10
-4.3484353864106682
20
103.53539086532959
30
0
10
-3.9936470661579437
20
103.25545624391744
30
0
10
-3.7221290171429207
20
102.88109742616747
30
0
10
-3.5395290907788111
20
102.43059811678552
30
0
10
-3.440503676050239
20
101.93739982775185
30
0
10
-3.4082166508533582
20
101.45950531490841
30
0
10
-3.4268413734987577
20
101.04480479299716
30
0
10
-3.4934969748459146
20
100.69782315933148
30
0
10
-3.6321606643986208
20
100.34116893232382
30
0
10
-3.874902204067348
20
99.865761745228255
30
0
10
-4.2420982871727562
20
99.184079827262337
30
0
10
-4.7203795778455513
20
98.28895026951075
30
0
10
-5.2703266905399886
20
97.237535930851905
30
0
10
-5.8385585181298332
20
96.124245193921766
30
0
10
-6.3682316554350846
20
95.057636939029237
30
0
10
-6.8102699143417649
20
94.135520938264037
30
0
10
-7.1341400917540989
20
93.421113382769491
30
0
10
-7.3391563413078522
20
92.918072843605003
30
0
10
-7.464602068056756
20
92.547919899224951
30
0
10
-7.560876947261379
20
92.204164680856152
30
0
10
-7.6623995740137794
20
91.803119359970381
30
0
10
-7.7584508033579507
20
91.338399507387024
30
0
10
-7.8149760322147994
20
90.846782798124295
30
0
10
-7.7970612868163869
20
90.372986988352991
30
0
10
-7.6931008567371473
20
89.93134060400466
30
0
10
-7.5099471978312042
20
89.517392316308801
30
0
10
-7.2650015074135545
20
89.123414270582458
30
0
10
-6.9795943201426009
20
88.755052609942183
30
0
10
-6.6713183991604188
20
88.423808025914141
30
0
10
-6.347668087439013
20
88.136364426979625
30
0
10
-5.9967274476944921
20
87.882526863617855
30
0
10
-5.5963256539181518
20
87.641511047668303
30
0
10
-5.1265732438266953
20
87.392359783572914
30
0
10
-4.5836176599556273
20
87.124678718449218
30
0
10
-3.9790261426076583
20
86.838990937629291
30
0
10
-3.3333558846436997
20
86.54266039429146
30
0
10
-2.671849190682321
20
86.247491201446991
30
0
10
-2.0187946402294625
20
85.96617876336785
30
0
10
-1.3940193749743006
20
85.71083184632306
30
0
10
-0.81194510949090204
20
85.494257232490554
30
0
10
-0.28013985674806874
20
85.330519672501111
30
0
10
0.20208526933853246
20
85.236000457228371
30
0
10
0.64466141333999838
20
85.229665755138768
30
0
10
1.0604548224683827
20
85.324054695221321
30
0
10
1.459295666417266
20
85.516572724603066
30
0
10
1.8421251286134668
20
85.781190056582361
30
0
10
2.206243132112307
20
86.083375748079447
30
0
10
2.5501328220637132
20
86.394186862454831
30
0
10
2.8786873460507367
20
86.7051569133383
30
0
10
3.1980679887726722
20
87.020568158180339
30
0
10
3.5106262255504643
20
87.349528921279912
30
0
10
3.8091552678910494
20
87.697449707769991
30
0
10
4.0806722341471184
20
88.067051487652975
30
0
10
4.3109593099533825
20
88.459976833038695
30
0
10
4.4892001698990383
20
88.878906702047431
30
0
10
4.609001677950272
20
89.323940672891027
30
0
10
4.6685135575276933
20
89.789020044520797
30
0
10
4.6712313735968909
20
90.25602603972068
30
0
10
4.6239812018561421
20
90.70491495748351
30
0
10
4.5343159602181364
20
91.126162007885881
30
0
10
4.4079631889732092
20
91.536289780342372
30
0
10
4.2472864942654986
20
91.970232213835317
30
0
10
4.0506042250182066
20
92.466015123150612
30
0
10
3.8104435752251891
20
93.04967170066962
30
0
10
3.5160191064574335
20
93.731404468749872
30
0
10
3.1576379952755413
20
94.508593740359316
30
0
10
2.7307281754780766
20
95.36650452003245
30
0
10
2.2395287813703155
20
96.280164024468448
30
0
10
1.7021187853700352
20
97.215224678047548
30
0
10
1.1507801820589794
20
98.131028056611811
30
0
10
0.62356561273952293
20
98.987479292167563
30
0
10
0.15803005423901517
20
99.750883626041201
30
0
10
-0.2163586356093003
20
100.40064407632484
30
0
10
-0.48420417354129752
20
100.93456704125637
30
0
10
-0.65334739416948173
20
101.37722089307783
30
0
10
-0.75504788375106902
20
101.77942654180173
30
0
10
-0.81936642062500387
20
102.19214504656028
30
0
10
-0.85126725518685364
20
102.6421933794761
30
0
10
-0.81570659135022361
20
103.11400553893181
30
0
10
-0.67052983686396239
20
103.56868287607671
30
0
10
-0.3951953049701637
20
103.95795112129028
30
0
10
-0.014676213479162
20
104.23961275856682
30
0
10
0.42623972376615626
20
104.38591998203167
30
0
10
0.88444080309488526
20
104.39433446521832
30
0
10
1.3380839500287136
20
104.29390658505964
30
0
10
1.7774421418031852
20
104.1256165577539
30
0
10
2.1987728332401084
20
103.92459744596296
30
0
10
2.5976935972466393
20
103.70357005039307
30
0
10
2.9724056896922879
20
103.46289588531774
30
0
10
3.3260711473045252
20
103.19870910709852
30
0
10
3.6694445213545834
20
102.91159778466289
30
0
10
4.0179830481619891
20
102.60067941699694
30
0
10
4.3891290415240976
20
102.2582326042301
30
0
10
4.7994955404390325
20
101.8636888715491
30
0
10
5.2610668317594413
20
101.39327445371381
30
0
10
5.7768756143608835
20
100.83120532141058
30
0
10
6.3377737286661038
20
100.17863384809493
30
0
10
6.9165392551273532
20
99.467656106582396
30
0
10
7.4735105891454641
20
98.753714723995628
30
0
10
7.9685225683308349
20
98.096079021244577
30
0
10
8.3716684853771053
20
97.540798116419566
30
0
10
8.6728945922437468
20
97.105199114400591
30
0
10
8.8960600999302706
20
96.755563866060555
30
0
10
9.0981558899491279
20
96.407809127984891
30
0
10
9.3396285971867119
20
95.973055235373309
30
0
10
9.6571970730106962
20
95.399334230255164
30
0
10
10.045759750166605
20
94.699124025016062
30
0
10
10.476320952075767
20
93.920758404738393
30
0
10
10.907283546043292
20
93.130177005516686
30
0
10
11.298463633365783
20
92.388423085074081
30
0
10
11.623736655845185
20
91.731300652950239
30
0
10
11.884851116023185
20
91.147131191727311
30
0
10
12.101213299568895
20
90.596089415030448
30
0
10
12.298341993386813
20
90.03208462875746
30
0
10
12.497895173661345
20
89.421389240665349
30
0
10
12.704354082602132
20
88.768366556407614
30
0
10
12.906316254642896
20
88.109885251008421
30
0
10
13.0863655432976
20
87.490985715432586
30
0
10
13.227637151964977
20
86.948304483739847
30
0
10
13.323281033161896
20
86.485726460902427
30
0
10
13.379785009611229
20
86.067916804095319
30
0
10
13.407924832388016
20
85.650061547210669
30
0
10
13.41516939943987
20
85.204139627893994
30
0
10
13.400162930519208
20
84.736519201810438
30
0
10
13.357641075334048
20
84.2669382262917
30
0
10
13.281780875411203
20
83.812652577083938
30
0
10
13.169462755205441
20
83.374605717035749
30
0
10
13.019005568078253
20
82.948279557776146
30
0
10
12.829562394082449
20
82.531566595401529
30
0
10
12.600284906057444
20
82.132508039635297
30
0
10
12.330045096548613
20
81.763170471602223
30
0
10
12.017007190241319
20
81.434797095783125
30
0
10
11.658418223863414
20
81.152762861523939
30
0
10
11.255394536740912
20
80.919957474153307
30
0
10
10.81734579328695
20
80.739713475455588
30
0
10
10.366904025055007
20
80.618989121473646
30
0
10
9.9252175924930981
20
80.563067340763851
30
0
10
9.4983382826998746
20
80.570211938482998
30
0
10
9.060357968421247
20
80.626277220607193
30
0
10
8.5846305801040348
20
80.70254626033325
30
0
10
8.075212193542022
20
80.754606743940002
30
0
10
7.6051288178715382
20
80.719089714925971
30
0
10
7.276089630751259
20
80.530733111032305
30
0
10
7.1660689467195908
20
80.14258596062929
30
0
10
7.2827321193396957
20
79.544486406504504
30
0
10
7.5842528895782202
20
78.754902098277398
30
0
10
7.9988372439382314
20
77.813301203435572
30
0
10
8.4453101359522851
20
76.772251890787643
30
0
10
8.8518319215509784
20
75.689828204328066
30
0
10
9.1790713308569511
20
74.62139409809788
30
0
10
9.4183793695547209
20
73.614677776812897
30
0
10
9.5814733687577984
20
72.70581280182013
30
0
10
9.6930707980117319
20
71.915289621889002
30
0
10
9.7819692182289977
20
71.243434292090612
30
0
10
9.8735426668548953
20
70.667277773577766
30
0
10
9.9797393185099477
20
70.133827183437916
30
0
10
10.099262847162759
20
69.569488047166331
30
0
10
10.223783993571525
20
68.899685131428811
30
0
10
10.342079633926058
20
68.064228455378995
30
0
10
10.445569460477873
20
67.037046972254487
30
0
10
10.531515491561382
20
65.835662250979695
30
0
10
10.601348363778914
20
64.506685203967209
30
0
10
10.659902861538523
20
63.115913652160707
30
0
10
10.714291620491487
20
61.736550938929931
30
0
10
10.772939752251641
20
60.438354105497474
30
0
10
10.844535169191627
20
59.276086703394213
30
0
10
10.937050371947223
20
58.278959205939415
30
0
10
11.05664912061355
20
57.437992686484947
30
0
10
11.206901292096616
20
56.699342578618513
30
0
10
11.389188219556903
20
55.981037502968448
30
0
10
11.602929318398431
20
55.186142070725509
30
0
10
11.845878610926752
20
54.217426288756357
30
0
10
12.114391241427104
20
52.991143934063636
30
0
10
12.403703356910999
20
51.451785468515695
30
0
10
12.708204849198751
20
49.58470465279423
30
0
10
13.021698379675426
20
47.408768765330002
30
0
10
13.337658654096121
20
44.970574298719882
30
0
10
13.649491642238967
20
42.338067111620944
30
0
10
13.95079383035301
20
39.594416435434695
30
0
10
14.235611429660796
20
36.831778665743762
30
0
10
14.498699680590006
20
34.145111638978378
30
0
10
14.735781954564629
20
31.625960465127037
30
0
10
14.943809344467669
20
29.356271290103415
30
0
10
15.121219149175547
20
27.402156480167285
30
0
10
15.268195960996916
20
25.807765249427867
30
0
10
15.386926749030307
20
24.588911923059552
30
0
10
15.481869955442988
20
23.727266288648529
30
0
10
15.559991638293118
20
23.163211541137873
30
0
10
15.631088994340432
20
22.792416230877691
30
0
10
15.708655245726749
20
22.49664239359273
30
0
10
15.810827965084906
20
22.172100973862264
30
0
10
15.960988683725173
20
21.757853907623407
30
0
10
16.176383082199614
20
21.233370670367471
30
0
10
16.457286554408906
20
20.617144059950046
30
0
10
16.775533316234107
20
19.965125487918883
30
0
10
17.08859663046151
20
19.346366547938047
30
0
10
17.355351224855255
20
18.8159144803539
30
0
10
17.549293216593945
20
18.392653222334086
30
0
10
17.677550501231071
20
18.025433868877951
30
0
10
17.774540758728943
20
17.610694656697436
30
0
10
17.883572090004179
20
17.034029984823921
30
0
10
18.039383523497857
20
16.211035502745915
30
0
10
18.261954140352938
20
15.100517179739848
30
0
10
18.560503690455445
20
13.693550323619688
30
0
10
18.934409391172231
20
12.009811665311725
30
0
10
19.3753993100106
20
10.090902198841201
30
0
10
19.869197214564899
20
7.9949641469198944
30
0
10
20.397405742827409
20
5.7907330945328495
30
0
10
20.939281553165578
20
3.5518521567237538
30
0
10
21.473569390577055
20
1.3510299688933634
30
0
10
21.980281881153267
20
-0.74563319437931097
30
0
10
22.442569878799237
20
-2.6846262874254063
30
0
10
22.848396083633638
20
-4.4303254670613361
30
0
10
23.192700538511424
20
-5.9720077820266102
30
0
10
23.476732270872105
20
-7.3209691325712161
30
0
10
23.706457300859292
20
-8.5044128842055322
30
0
10
23.891277324226866
20
-9.560430811734502
30
0
10
24.042609233930442
20
-10.532481422162505
30
0
10
24.172546019562013
20
-11.464190854463181
30
0
10
24.292432442266914
20
-12.393766981824177
30
0
10
24.411595088610429
20
-13.349161237230842
30
0
10
24.53570736185528
20
-14.341433974914594
30
0
10
24.666855476907713
20
-15.366512597356081
30
0
10
24.804444991181562
20
-16.41108687524369
30
0
10
24.945845907990297
20
-17.457238200823284
30
0
10
25.087140855199749
20
-18.487521775496873
30
0
10
25.223841609905115
20
-19.490022335007513
30
0
10
25.351589649200818
20
-20.463026558102136
30
0
10
25.46694140900069
20
-21.420898450807606
30
0
10
25.567426708407783
20
-22.390256881405108
30
0
10
25.651462179931741
20
-23.404266402374809
30
0
10
25.718315840659102
20
-24.497541400605904
30
0
10
25.768048477365781
20
-25.70088443442399
30
0
10
25.801468933701717
20
-27.035883322237993
30
0
10
25.820074248850652
20
-28.510064308553055
30
0
10
25.826018584753459
20
-30.110603722071716
30
0
10
25.821994909868792
20
-31.802700832755999
30
0
10
25.810944457414259
20
-33.537251579729379
30
0
10
25.795803403963234
20
-35.25652748360632
30
0
10
25.779233548858397
20
-36.900670825759676
30
0
10
25.763362379929728
20
-38.413798996711719
30
0
10
25.749513176651142
20
-39.750374422371301
30
0
10
25.737953140098206
20
-40.881234047010572
30
0
10
25.72760179378022
20
-41.800291426346412
30
0
10
25.715831442437992
20
-42.529715916426774
30
0
10
25.6980364862379
20
-43.128916970071593
30
0
10
25.668356997244295
20
-43.684602553526176
30
0
10
25.620969322965138
20
-44.291687246888436
30
0
10
25.551117719248264
20
-45.038154359893916
30
0
10
25.456434767760211
20
-45.985871775784517
30
0
10
25.337527645621446
20
-47.16123842545116
30
0
10
25.197248655077097
20
-48.563244094516556
30
0
10
25.040249953213337
20
-50.167775677506668
30
0
10
24.872424921318466
20
-51.933421897204433
30
0
10
24.700397212359494
20
-53.806643731607494
30
0
10
24.530991096371078
20
-55.72720322355223
30
0
10
24.3707056797967
20
-57.633514296310047
30
0
10
24.225197169007199
20
-59.467949663251147
30
0
10
24.098735074725187
20
-61.18234676832504
30
0
10
23.993722704957392
20
-62.743004869424468
30
0
10
23.910052216760469
20
-64.13699977618117
30
0
10
23.845497497971007
20
-65.370217744021048
30
0
10
23.796396217404659
20
-66.463073039167128
30
0
10
23.758237689752168
20
-67.446995305892472
30
0
10
23.726283009908521
20
-68.36061801169167
30
0
10
23.696187857800037
20
-69.246041587602349
30
0
10
23.664585636144121
20
-70.145189706690104
30
0
10
23.629780659462011
20
-71.095823220188208
30
0
10
23.592094693935287
20
-72.128674629917782
30
0
10
23.553305631264017
20
-73.267539223471914
30
0
10
23.516257192833795
20
-74.528806732090203
30
0
10
23.484401294898205
20
-75.921216987611217
30
0
10
23.46136813770018
20
-77.445514748553634
30
0
10
23.450526757375002
20
-79.094159695023961
30
0
10
23.454544140343053
20
-80.850984979425974
30
0
10
23.474957855440643
20
-82.690942093902549
30
0
10
23.511712092095358
20
-84.579655265969947
30
0
10
23.562799231422677
20
-86.473505412828047
30
0
10
23.624735975828628
20
-88.323894590018142
30
0
10
23.692960120005825
20
-90.081102238186503
30
0
10
23.762258455273006
20
-91.698324145671222
30
0
10
23.827179761772477
20
-93.135573912260867
30
0
10
23.882458063345922
20
-94.363782186508288
30
0
10
23.923422515480052
20
-95.368489087244626
30
0
10
23.946433851925253
20
-96.154459648320781
30
0
10
23.949260781454747
20
-96.748156323916305
30
0
10
23.931602665209475
20
-97.205402096184784
30
0
10
23.895074995782611
20
-97.601349037163573
30
0
10
23.842422099574719
20
-98.003964198604251
30
0
10
23.777125615645126
20
-98.445445074648347
30
0
10
23.702263823033576
20
-98.91481801981341
30
0
10
23.618812444678046
20
-99.385310544984407
30
0
10
23.523448833550642
20
-99.837013521162675
30
0
10
23.408410120553974
20
-100.27058750837955
30
0
10
23.265502348602872
20
-100.69365484611072
30
0
10
23.089795981113802
20
-101.11188159875792
30
0
10
22.88188786059365
20
-101.5217850515964
30
0
10
22.644773357843427
20
-101.91676850396951
30
0
10
22.381480315282715
20
-102.2910481094754
30
0
10
22.092990884890568
20
-102.64317133403691
30
0
10
21.779357446710435
20
-102.97285122504151
30
0
10
21.440341281726731
20
-103.27867306902839
30
0
10
21.076193721115793
20
-103.55594463993098
30
0
10
20.687926965044756
20
-103.79881232345673
30
0
10
20.277681714522267
20
-104.00194354396419
30
0
10
19.934744835350923
20
-104.13019026675316
30
0
10
19.671233627938424
20
-104.20639510742458
30
0
10
19.493388155150861
20
-104.24823171345011
30
0
10
19.404
20
-104.26690000000001
30
0
0
ENDSEC
0
SECTION
2
OBJECTS
0
DICTIONARY
5
C
100
AcDbDictionary
3
ACAD_GROUP
350
D
3
ACAD_MLINESTYLE
350
17
0
DICTIONARY
5
D
100
AcDbDictionary
0
DICTIONARY
5
1A
330
C
100
AcDbDictionary
0
DICTIONARY
5
17
100
AcDbDictionary
0
ENDSEC
0
EOF
