0
SECTION
2
HEADER
9
$INSUNITS
70
4
9
$ACADVER
1
AC1014
9
$HANDSEED
5
FFFF
0
ENDSEC
0
SECTION
2
TABLES
0
TABLE
2
VPORT
5
8
100
AcDbSymbolTable
0
ENDTAB
0
TABLE
2
LTYPE
5
5
100
AcDbSymbolTable
0
LTYPE
5
14
100
AcDbSymbolTableRecord
100
AcDbLinetypeTableRecord
2
BYBLOCK
70
0
0
LTYPE
5
15
100
AcDbSymbolTableRecord
100
AcDbLinetypeTableRecord
2
BYLAYER
70
0
0
LTYPE
5
16
100
AcDbSymbolTableRecord
100
AcDbLinetypeTableRecord
2
DASHED
70
0
3
Dashed __ __ __ __ __ __ __ __ __ __ __ __ __ _
72
65
73
2
40
0.75
49
0.5
74
0
49
-0.25
74
0
0
ENDTAB
0
TABLE
2
LAYER
5
2
100
AcDbSymbolTable
70
2
0
LAYER
5
50
100
AcDbSymbolTableRecord
100
AcDbLayerTableRecord
2
0
70
0
62
7
6
CONTINUOUS
0
ENDTAB
0
TABLE
2
STYLE
5
3
100
AcDbSymbolTable
70
1
0
STYLE
5
11
100
AcDbSymbolTableRecord
100
AcDbTextStyleTableRecord
2
STANDARD
70
0
0
ENDTAB
0
TABLE
2
VIEW
5
6
100
AcDbSymbolTable
70
0
0
ENDTAB
0
TABLE
2
UCS
5
7
100
AcDbSymbolTable
70
0
0
ENDTAB
0
TABLE
2
APPID
5
9
100
AcDbSymbolTable
70
2
0
APPID
5
12
100
AcDbSymbolTableRecord
100
AcDbRegAppTableRecord
2
ACAD
70
0
0
ENDTAB
0
TABLE
2
DIMSTYLE
5
A
100
AcDbSymbolTable
70
1
0
ENDTAB
0
TABLE
2
BLOCK_RECORD
5
1
100
AcDbSymbolTable
70
1
0
BLOCK_RECORD
5
1F
100
AcDbSymbolTableRecord
100
AcDbBlockTableRecord
2
*MODEL_SPACE
0
BLOCK_RECORD
5
1B
100
AcDbSymbolTableRecord
100
AcDbBlockTableRecord
2
*PAPER_SPACE
0
ENDTAB
0
ENDSEC
0
SECTION
2
BLOCKS
0
BLOCK
5
20
100
AcDbEntity
100
AcDbBlockBegin
2
*MODEL_SPACE
0
ENDBLK
5
21
100
AcDbEntity
100
AcDbBlockEnd
0
BLOCK
5
1C
100
AcDbEntity
100
AcDbBlockBegin
2
*PAPER_SPACE
0
ENDBLK
5
1D
100
AcDbEntity
100
AcDbBlockEnd
0
ENDSEC
0
SECTION
2
ENTITIES
0
SPLINE
5
100
100
AcDbEntity
8
0
100
AcDbSpline
70
6
71
5
72
796
73
790
74
0
42
0.000000001
43
0.0000000001
44
0.0000000001
40
0
40
0
40
0
40
0
40
0
40
0
40
0.0012738853503184713
40
0.0025477707006369425
40
0.003821656050955414
40
0.0050955414012738851
40
0.0063694267515923561
40
0.0076433121019108272
40
0.0089171974522292991
40
0.01019108280254777
40
0.011464968152866241
40
0.012738853503184712
40
0.014012738853503183
40
0.015286624203821654
40
0.016560509554140127
40
0.017834394904458598
40
0.019108280254777069
40
0.02038216560509554
40
0.021656050955414011
40
0.022929936305732482
40
0.024203821656050954
40
0.025477707006369425
40
0.026751592356687896
40
0.028025477707006367
40
0.029299363057324838
40
0.030573248407643309
40
0.031847133757961783
40
0.033121019108280254
40
0.034394904458598725
40
0.035668789808917196
40
0.036942675159235668
40
0.038216560509554139
40
0.03949044585987261
40
0.040764331210191081
40
0.042038216560509552
40
0.043312101910828023
40
0.044585987261146494
40
0.045859872611464965
40
0.047133757961783436
40
0.048407643312101907
40
0.049681528662420378
40
0.050955414012738849
40
0.05222929936305732
40
0.053503184713375791
40
0.054777070063694262
40
0.056050955414012733
40
0.057324840764331204
40
0.058598726114649675
40
0.059872611464968147
40
0.061146496815286618
40
0.062420382165605089
40
0.063694267515923567
40
0.064968152866242038
40
0.066242038216560509
40
0.06751592356687898
40
0.068789808917197451
40
0.070063694267515922
40
0.071337579617834393
40
0.072611464968152864
40
0.073885350318471335
40
0.075159235668789806
40
0.076433121019108277
40
0.077707006369426748
40
0.078980891719745219
40
0.08025477707006369
40
0.081528662420382161
40
0.082802547770700632
40
0.084076433121019103
40
0.085350318471337575
40
0.086624203821656046
40
0.087898089171974517
40
0.089171974522292988
40
0.090445859872611459
40
0.09171974522292993
40
0.092993630573248401
40
0.094267515923566872
40
0.095541401273885343
40
0.096815286624203814
40
0.098089171974522285
40
0.099363057324840756
40
0.10063694267515923
40
0.1019108280254777
40
0.10318471337579617
40
0.10445859872611464
40
0.10573248407643311
40
0.10700636942675158
40
0.10828025477707005
40
0.10955414012738852
40
0.110828025477707
40
0.11210191082802547
40
0.11337579617834394
40
0.11464968152866241
40
0.11592356687898088
40
0.11719745222929935
40
0.11847133757961782
40
0.11974522292993629
40
0.12101910828025476
40
0.12229299363057324
40
0.12356687898089171
40
0.12484076433121018
40
0.12611464968152866
40
0.12738853503184713
40
0.1286624203821656
40
0.12993630573248408
40
0.13121019108280255
40
0.13248407643312102
40
0.13375796178343949
40
0.13503184713375796
40
0.13630573248407643
40
0.1375796178343949
40
0.13885350318471337
40
0.14012738853503184
40
0.14140127388535031
40
0.14267515923566879
40
0.14394904458598726
40
0.14522292993630573
40
0.1464968152866242
40
0.14777070063694267
40
0.14904458598726114
40
0.15031847133757961
40
0.15159235668789808
40
0.15286624203821655
40
0.15414012738853503
40
0.1554140127388535
40
0.15668789808917197
40
0.15796178343949044
40
0.15923566878980891
40
0.16050955414012738
40
0.16178343949044585
40
0.16305732484076432
40
0.16433121019108279
40
0.16560509554140126
40
0.16687898089171974
40
0.16815286624203821
40
0.16942675159235668
40
0.17070063694267515
40
0.17197452229299362
40
0.17324840764331209
40
0.17452229299363056
40
0.17579617834394903
40
0.1770700636942675
40
0.17834394904458598
40
0.17961783439490445
40
0.18089171974522292
40
0.18216560509554139
40
0.18343949044585986
40
0.18471337579617833
40
0.1859872611464968
40
0.18726114649681527
40
0.18853503184713374
40
0.18980891719745221
40
0.19108280254777069
40
0.19235668789808916
40
0.19363057324840763
40
0.1949044585987261
40
0.19617834394904457
40
0.19745222929936304
40
0.19872611464968151
40
0.19999999999999998
40
0.20127388535031845
40
0.20254777070063693
40
0.2038216560509554
40
0.20509554140127387
40
0.20636942675159234
40
0.20764331210191081
40
0.20891719745222928
40
0.21019108280254775
40
0.21146496815286622
40
0.21273885350318469
40
0.21401273885350316
40
0.21528662420382164
40
0.21656050955414011
40
0.21783439490445858
40
0.21910828025477705
40
0.22038216560509552
40
0.22165605095541399
40
0.22292993630573246
40
0.22420382165605093
40
0.2254777070063694
40
0.22675159235668788
40
0.22802547770700635
40
0.22929936305732482
40
0.23057324840764329
40
0.23184713375796176
40
0.23312101910828023
40
0.2343949044585987
40
0.23566878980891717
40
0.23694267515923564
40
0.23821656050955411
40
0.23949044585987259
40
0.24076433121019106
40
0.24203821656050953
40
0.243312101910828
40
0.24458598726114647
40
0.24585987261146494
40
0.24713375796178341
40
0.24840764331210188
40
0.24968152866242035
40
0.25095541401273885
40
0.25222929936305732
40
0.2535031847133758
40
0.25477707006369427
40
0.25605095541401274
40
0.25732484076433121
40
0.25859872611464968
40
0.25987261146496815
40
0.26114649681528662
40
0.26242038216560509
40
0.26369426751592356
40
0.26496815286624203
40
0.26624203821656051
40
0.26751592356687898
40
0.26878980891719745
40
0.27006369426751592
40
0.27133757961783439
40
0.27261146496815286
40
0.27388535031847133
40
0.2751592356687898
40
0.27643312101910827
40
0.27770700636942675
40
0.27898089171974522
40
0.28025477707006369
40
0.28152866242038216
40
0.28280254777070063
40
0.2840764331210191
40
0.28535031847133757
40
0.28662420382165604
40
0.28789808917197451
40
0.28917197452229298
40
0.29044585987261146
40
0.29171974522292993
40
0.2929936305732484
40
0.29426751592356687
40
0.29554140127388534
40
0.29681528662420381
40
0.29808917197452228
40
0.29936305732484075
40
0.30063694267515922
40
0.3019108280254777
40
0.30318471337579617
40
0.30445859872611464
40
0.30573248407643311
40
0.30700636942675158
40
0.30828025477707005
40
0.30955414012738852
40
0.31082802547770699
40
0.31210191082802546
40
0.31337579617834393
40
0.31464968152866241
40
0.31592356687898088
40
0.31719745222929935
40
0.31847133757961782
40
0.31974522292993629
40
0.32101910828025476
40
0.32229299363057323
40
0.3235668789808917
40
0.32484076433121017
40
0.32611464968152865
40
0.32738853503184712
40
0.32866242038216559
40
0.32993630573248406
40
0.33121019108280253
40
0.332484076433121
40
0.33375796178343947
40
0.33503184713375794
40
0.33630573248407641
40
0.33757961783439489
40
0.33885350318471336
40
0.34012738853503183
40
0.3414012738853503
40
0.34267515923566877
40
0.34394904458598724
40
0.34522292993630571
40
0.34649681528662418
40
0.34777070063694265
40
0.34904458598726112
40
0.3503184713375796
40
0.35159235668789807
40
0.35286624203821654
40
0.35414012738853501
40
0.35541401273885348
40
0.35668789808917195
40
0.35796178343949042
40
0.35923566878980889
40
0.36050955414012736
40
0.36178343949044584
40
0.36305732484076431
40
0.36433121019108278
40
0.36560509554140125
40
0.36687898089171972
40
0.36815286624203819
40
0.36942675159235666
40
0.37070063694267513
40
0.3719745222929936
40
0.37324840764331207
40
0.37452229299363055
40
0.37579617834394902
40
0.37707006369426749
40
0.37834394904458596
40
0.37961783439490443
40
0.3808917197452229
40
0.38216560509554137
40
0.38343949044585984
40
0.38471337579617831
40
0.38598726114649679
40
0.38726114649681526
40
0.38853503184713373
40
0.3898089171974522
40
0.39108280254777067
40
0.39235668789808914
40
0.39363057324840761
40
0.39490445859872608
40
0.39617834394904455
40
0.39745222929936302
40
0.3987261146496815
40
0.39999999999999997
40
0.40127388535031844
40
0.40254777070063691
40
0.40382165605095538
40
0.40509554140127385
40
0.40636942675159232
40
0.40764331210191079
40
0.40891719745222926
40
0.41019108280254774
40
0.41146496815286621
40
0.41273885350318468
40
0.41401273885350315
40
0.41528662420382162
40
0.41656050955414009
40
0.41783439490445856
40
0.41910828025477703
40
0.4203821656050955
40
0.42165605095541397
40
0.42292993630573245
40
0.42420382165605092
40
0.42547770700636939
40
0.42675159235668786
40
0.42802547770700633
40
0.4292993630573248
40
0.43057324840764327
40
0.43184713375796174
40
0.43312101910828021
40
0.43439490445859869
40
0.43566878980891716
40
0.43694267515923563
40
0.4382165605095541
40
0.43949044585987257
40
0.44076433121019104
40
0.44203821656050951
40
0.44331210191082798
40
0.44458598726114645
40
0.44585987261146492
40
0.4471337579617834
40
0.44840764331210187
40
0.44968152866242034
40
0.45095541401273881
40
0.45222929936305728
40
0.45350318471337575
40
0.45477707006369422
40
0.45605095541401269
40
0.45732484076433116
40
0.45859872611464964
40
0.45987261146496811
40
0.46114649681528658
40
0.46242038216560505
40
0.46369426751592352
40
0.46496815286624199
40
0.46624203821656046
40
0.46751592356687893
40
0.4687898089171974
40
0.47006369426751587
40
0.47133757961783435
40
0.47261146496815282
40
0.47388535031847129
40
0.47515923566878976
40
0.47643312101910823
40
0.4777070063694267
40
0.47898089171974517
40
0.48025477707006364
40
0.48152866242038211
40
0.48280254777070059
40
0.48407643312101906
40
0.48535031847133753
40
0.486624203821656
40
0.48789808917197447
40
0.48917197452229294
40
0.49044585987261141
40
0.49171974522292988
40
0.49299363057324835
40
0.49426751592356682
40
0.4955414012738853
40
0.49681528662420377
40
0.49808917197452224
40
0.49936305732484071
40
0.50063694267515924
40
0.50191082802547771
40
0.50318471337579618
40
0.50445859872611465
40
0.50573248407643312
40
0.50700636942675159
40
0.50828025477707006
40
0.50955414012738853
40
0.510828025477707
40
0.51210191082802548
40
0.51337579617834395
40
0.51464968152866242
40
0.51592356687898089
40
0.51719745222929936
40
0.51847133757961783
40
0.5197452229299363
40
0.52101910828025477
40
0.52229299363057324
40
0.52356687898089171
40
0.52484076433121019
40
0.52611464968152866
40
0.52738853503184713
40
0.5286624203821656
40
0.52993630573248407
40
0.53121019108280254
40
0.53248407643312101
40
0.53375796178343948
40
0.53503184713375795
40
0.53630573248407643
40
0.5375796178343949
40
0.53885350318471337
40
0.54012738853503184
40
0.54140127388535031
40
0.54267515923566878
40
0.54394904458598725
40
0.54522292993630572
40
0.54649681528662419
40
0.54777070063694266
40
0.54904458598726114
40
0.55031847133757961
40
0.55159235668789808
40
0.55286624203821655
40
0.55414012738853502
40
0.55541401273885349
40
0.55668789808917196
40
0.55796178343949043
40
0.5592356687898089
40
0.56050955414012738
40
0.56178343949044585
40
0.56305732484076432
40
0.56433121019108279
40
0.56560509554140126
40
0.56687898089171973
40
0.5681528662420382
40
0.56942675159235667
40
0.57070063694267514
40
0.57197452229299361
40
0.57324840764331209
40
0.57452229299363056
40
0.57579617834394903
40
0.5770700636942675
40
0.57834394904458597
40
0.57961783439490444
40
0.58089171974522291
40
0.58216560509554138
40
0.58343949044585985
40
0.58471337579617833
40
0.5859872611464968
40
0.58726114649681527
40
0.58853503184713374
40
0.58980891719745221
40
0.59108280254777068
40
0.59235668789808915
40
0.59363057324840762
40
0.59490445859872609
40
0.59617834394904456
40
0.59745222929936304
40
0.59872611464968151
40
0.59999999999999998
40
0.60127388535031845
40
0.60254777070063692
40
0.60382165605095539
40
0.60509554140127386
40
0.60636942675159233
40
0.6076433121019108
40
0.60891719745222928
40
0.61019108280254775
40
0.61146496815286622
40
0.61273885350318469
40
0.61401273885350316
40
0.61528662420382163
40
0.6165605095541401
40
0.61783439490445857
40
0.61910828025477704
40
0.62038216560509551
40
0.62165605095541399
40
0.62292993630573246
40
0.62420382165605093
40
0.6254777070063694
40
0.62675159235668787
40
0.62802547770700634
40
0.62929936305732481
40
0.63057324840764328
40
0.63184713375796175
40
0.63312101910828023
40
0.6343949044585987
40
0.63566878980891717
40
0.63694267515923564
40
0.63821656050955411
40
0.63949044585987258
40
0.64076433121019105
40
0.64203821656050952
40
0.64331210191082799
40
0.64458598726114646
40
0.64585987261146494
40
0.64713375796178341
40
0.64840764331210188
40
0.64968152866242035
40
0.65095541401273882
40
0.65222929936305729
40
0.65350318471337576
40
0.65477707006369423
40
0.6560509554140127
40
0.65732484076433118
40
0.65859872611464965
40
0.65987261146496812
40
0.66114649681528659
40
0.66242038216560506
40
0.66369426751592353
40
0.664968152866242
40
0.66624203821656047
40
0.66751592356687894
40
0.66878980891719741
40
0.67006369426751589
40
0.67133757961783436
40
0.67261146496815283
40
0.6738853503184713
40
0.67515923566878977
40
0.67643312101910824
40
0.67770700636942671
40
0.67898089171974518
40
0.68025477707006365
40
0.68152866242038213
40
0.6828025477707006
40
0.68407643312101907
40
0.68535031847133754
40
0.68662420382165601
40
0.68789808917197448
40
0.68917197452229295
40
0.69044585987261142
40
0.69171974522292989
40
0.69299363057324836
40
0.69426751592356684
40
0.69554140127388531
40
0.69681528662420378
40
0.69808917197452225
40
0.69936305732484072
40
0.70063694267515919
40
0.70191082802547766
40
0.70318471337579613
40
0.7044585987261146
40
0.70573248407643308
40
0.70700636942675155
40
0.70828025477707002
40
0.70955414012738849
40
0.71082802547770696
40
0.71210191082802543
40
0.7133757961783439
40
0.71464968152866237
40
0.71592356687898084
40
0.71719745222929931
40
0.71847133757961779
40
0.71974522292993626
40
0.72101910828025473
40
0.7222929936305732
40
0.72356687898089167
40
0.72484076433121014
40
0.72611464968152861
40
0.72738853503184708
40
0.72866242038216555
40
0.72993630573248403
40
0.7312101910828025
40
0.73248407643312097
40
0.73375796178343944
40
0.73503184713375791
40
0.73630573248407638
40
0.73757961783439485
40
0.73885350318471332
40
0.74012738853503179
40
0.74140127388535026
40
0.74267515923566874
40
0.74394904458598721
40
0.74522292993630568
40
0.74649681528662415
40
0.74777070063694262
40
0.74904458598726109
40
0.75031847133757956
40
0.75159235668789803
40
0.7528662420382165
40
0.75414012738853498
40
0.75541401273885345
40
0.75668789808917192
40
0.75796178343949039
40
0.75923566878980886
40
0.76050955414012733
40
0.7617834394904458
40
0.76305732484076427
40
0.76433121019108274
40
0.76560509554140121
40
0.76687898089171969
40
0.76815286624203816
40
0.76942675159235663
40
0.7707006369426751
40
0.77197452229299357
40
0.77324840764331204
40
0.77452229299363051
40
0.77579617834394898
40
0.77707006369426745
40
0.77834394904458593
40
0.7796178343949044
40
0.78089171974522287
40
0.78216560509554134
40
0.78343949044585981
40
0.78471337579617828
40
0.78598726114649675
40
0.78726114649681522
40
0.78853503184713369
40
0.78980891719745216
40
0.79108280254777064
40
0.79235668789808911
40
0.79363057324840758
40
0.79490445859872605
40
0.79617834394904452
40
0.79745222929936299
40
0.79872611464968146
40
0.79999999999999993
40
0.8012738853503184
40
0.80254777070063688
40
0.80382165605095535
40
0.80509554140127382
40
0.80636942675159229
40
0.80764331210191076
40
0.80891719745222923
40
0.8101910828025477
40
0.81146496815286617
40
0.81273885350318464
40
0.81401273885350311
40
0.81528662420382159
40
0.81656050955414006
40
0.81783439490445853
40
0.819108280254777
40
0.82038216560509547
40
0.82165605095541394
40
0.82292993630573241
40
0.82420382165605088
40
0.82547770700636935
40
0.82675159235668783
40
0.8280254777070063
40
0.82929936305732477
40
0.83057324840764324
40
0.83184713375796171
40
0.83312101910828018
40
0.83439490445859865
40
0.83566878980891712
40
0.83694267515923559
40
0.83821656050955407
40
0.83949044585987254
40
0.84076433121019101
40
0.84203821656050948
40
0.84331210191082795
40
0.84458598726114642
40
0.84585987261146489
40
0.84713375796178336
40
0.84840764331210183
40
0.8496815286624203
40
0.85095541401273878
40
0.85222929936305725
40
0.85350318471337572
40
0.85477707006369419
40
0.85605095541401266
40
0.85732484076433113
40
0.8585987261146496
40
0.85987261146496807
40
0.86114649681528654
40
0.86242038216560502
40
0.86369426751592349
40
0.86496815286624196
40
0.86624203821656043
40
0.8675159235668789
40
0.86878980891719737
40
0.87006369426751584
40
0.87133757961783431
40
0.87261146496815278
40
0.87388535031847125
40
0.87515923566878973
40
0.8764331210191082
40
0.87770700636942667
40
0.87898089171974514
40
0.88025477707006361
40
0.88152866242038208
40
0.88280254777070055
40
0.88407643312101902
40
0.88535031847133749
40
0.88662420382165597
40
0.88789808917197444
40
0.88917197452229291
40
0.89044585987261138
40
0.89171974522292985
40
0.89299363057324832
40
0.89426751592356679
40
0.89554140127388526
40
0.89681528662420373
40
0.8980891719745222
40
0.89936305732484068
40
0.90063694267515915
40
0.90191082802547762
40
0.90318471337579609
40
0.90445859872611456
40
0.90573248407643303
40
0.9070063694267515
40
0.90828025477706997
40
0.90955414012738844
40
0.91082802547770692
40
0.91210191082802539
40
0.91337579617834386
40
0.91464968152866233
40
0.9159235668789808
40
0.91719745222929927
40
0.91847133757961774
40
0.91974522292993621
40
0.92101910828025468
40
0.92229299363057315
40
0.92356687898089163
40
0.9248407643312101
40
0.92611464968152857
40
0.92738853503184704
40
0.92866242038216551
40
0.92993630573248398
40
0.93121019108280245
40
0.93248407643312092
40
0.93375796178343939
40
0.93503184713375787
40
0.93630573248407634
40
0.93757961783439481
40
0.93885350318471328
40
0.94012738853503175
40
0.94140127388535022
40
0.94267515923566869
40
0.94394904458598716
40
0.94522292993630563
40
0.9464968152866241
40
0.94777070063694258
40
0.94904458598726105
40
0.95031847133757952
40
0.95159235668789799
40
0.95286624203821646
40
0.95414012738853493
40
0.9554140127388534
40
0.95668789808917187
40
0.95796178343949034
40
0.95923566878980882
40
0.96050955414012729
40
0.96178343949044576
40
0.96305732484076423
40
0.9643312101910827
40
0.96560509554140117
40
0.96687898089171964
40
0.96815286624203811
40
0.96942675159235658
40
0.97070063694267505
40
0.97197452229299353
40
0.973248407643312
40
0.97452229299363047
40
0.97579617834394894
40
0.97707006369426741
40
0.97834394904458588
40
0.97961783439490435
40
0.98089171974522282
40
0.98216560509554129
40
0.98343949044585977
40
0.98471337579617824
40
0.98598726114649671
40
0.98726114649681518
40
0.98853503184713365
40
0.98980891719745212
40
0.99108280254777059
40
0.99235668789808906
40
0.99363057324840753
40
0.994904458598726
40
0.99617834394904448
40
0.99745222929936295
40
0.99872611464968142
40
1
40
1
40
1
40
1
40
1
40
1
41
1
41
1
41
1
41
1
41
1
41
1
41
1
41
1
41
1
41
1
41
1
41
1
41
1
41
1
41
1
41
1
41
1
41
1
41
1
41
1
41
1
41
1
41
1
41
1
41
1
41
1
41
1
41
1
41
1
41
1
41
1
41
1
41
1
41
1
41
1
41
1
41
1
41
1
41
1
41
1
41
1
41
1
41
1
41
1
41
1
41
1
41
1
41
1
41
1
41
1
41
1
41
1
41
1
41
1
41
1
41
1
41
1
41
1
41
1
41
1
41
1
41
1
41
1
41
1
41
1
41
1
41
1
41
1
41
1
41
1
41
1
41
1
41
1
41
1
41
1
41
1
41
1
41
1
41
1
41
1
41
1
41
1
41
1
41
1
41
1
41
1
41
1
41
1
41
1
41
1
41
1
41
1
41
1
41
1
41
1
41
1
41
1
41
1
41
1
41
1
41
1
41
1
41
1
41
1
41
1
41
1
41
1
41
1
41
1
41
1
41
1
41
1
41
1
41
1
41
1
41
1
41
1
41
1
41
1
41
1
41
1
41
1
41
1
41
1
41
1
41
1
41
1
41
1
41
1
41
1
41
1
41
1
41
1
41
1
41
1
41
1
41
1
41
1
41
1
41
1
41
1
41
1
41
1
41
1
41
1
41
1
41
1
41
1
41
1
41
1
41
1
41
1
41
1
41
1
41
1
41
1
41
1
41
1
41
1
41
1
41
1
41
1
41
1
41
1
41
1
41
1
41
1
41
1
41
1
41
1
41
1
41
1
41
1
41
1
41
1
41
1
41
1
41
1
41
1
41
1
41
1
41
1
41
1
41
1
41
1
41
1
41
1
41
1
41
1
41
1
41
1
41
1
41
1
41
1
41
1
41
1
41
1
41
1
41
1
41
1
41
1
41
1
41
1
41
1
41
1
41
1
41
1
41
1
41
1
41
1
41
1
41
1
41
1
41
1
41
1
41
1
41
1
41
1
41
1
41
1
41
1
41
1
41
1
41
1
41
1
41
1
41
1
41
1
41
1
41
1
41
1
41
1
41
1
41
1
41
1
41
1
41
1
41
1
41
1
41
1
41
1
41
1
41
1
41
1
41
1
41
1
41
1
41
1
41
1
41
1
41
1
41
1
41
1
41
1
41
1
41
1
41
1
41
1
41
1
41
1
41
1
41
1
41
1
41
1
41
1
41
1
41
1
41
1
41
1
41
1
41
1
41
1
41
1
41
1
41
1
41
1
41
1
41
1
41
1
41
1
41
1
41
1
41
1
41
1
41
1
41
1
41
1
41
1
41
1
41
1
41
1
41
1
41
1
41
1
41
1
41
1
41
1
41
1
41
1
41
1
41
1
41
1
41
1
41
1
41
1
41
1
41
1
41
1
41
1
41
1
41
1
41
1
41
1
41
1
41
1
41
1
41
1
41
1
41
1
41
1
41
1
41
1
41
1
41
1
41
1
41
1
41
1
41
1
41
1
41
1
41
1
41
1
41
1
41
1
41
1
41
1
41
1
41
1
41
1
41
1
41
1
41
1
41
1
41
1
41
1
41
1
41
1
41
1
41
1
41
1
41
1
41
1
41
1
41
1
41
1
41
1
41
1
41
1
41
1
41
1
41
1
41
1
41
1
41
1
41
1
41
1
41
1
41
1
41
1
41
1
41
1
41
1
41
1
41
1
41
1
41
1
41
1
41
1
41
1
41
1
41
1
41
1
41
1
41
1
41
1
41
1
41
1
41
1
41
1
41
1
41
1
41
1
41
1
41
1
41
1
41
1
41
1
41
1
41
1
41
1
41
1
41
1
41
1
41
1
41
1
41
1
41
1
41
1
41
1
41
1
41
1
41
1
41
1
41
1
41
1
41
1
41
1
41
1
41
1
41
1
41
1
41
1
41
1
41
1
41
1
41
1
41
1
41
1
41
1
41
1
41
1
41
1
41
1
41
1
41
1
41
1
41
1
41
1
41
1
41
1
41
1
41
1
41
1
41
1
41
1
41
1
41
1
41
1
41
1
41
1
41
1
41
1
41
1
41
1
41
1
41
1
41
1
41
1
41
1
41
1
41
1
41
1
41
1
41
1
41
1
41
1
41
1
41
1
41
1
41
1
41
1
41
1
41
1
41
1
41
1
41
1
41
1
41
1
41
1
41
1
41
1
41
1
41
1
41
1
41
1
41
1
41
1
41
1
41
1
41
1
41
1
41
1
41
1
41
1
41
1
41
1
41
1
41
1
41
1
41
1
41
1
41
1
41
1
41
1
41
1
41
1
41
1
41
1
41
1
41
1
41
1
41
1
41
1
41
1
41
1
41
1
41
1
41
1
41
1
41
1
41
1
41
1
41
1
41
1
41
1
41
1
41
1
41
1
41
1
41
1
41
1
41
1
41
1
41
1
41
1
41
1
41
1
41
1
41
1
41
1
41
1
41
1
41
1
41
1
41
1
41
1
41
1
41
1
41
1
41
1
41
1
41
1
41
1
41
1
41
1
41
1
41
1
41
1
41
1
41
1
41
1
41
1
41
1
41
1
41
1
41
1
41
1
41
1
41
1
41
1
41
1
41
1
41
1
41
1
41
1
41
1
41
1
41
1
41
1
41
1
41
1
41
1
41
1
41
1
41
1
41
1
41
1
41
1
41
1
41
1
41
1
41
1
41
1
41
1
41
1
41
1
41
1
41
1
41
1
41
1
41
1
41
1
41
1
41
1
41
1
41
1
41
1
41
1
41
1
41
1
41
1
41
1
41
1
41
1
41
1
41
1
41
1
41
1
41
1
41
1
41
1
41
1
41
1
41
1
41
1
41
1
41
1
41
1
41
1
41
1
41
1
41
1
41
1
41
1
41
1
41
1
41
1
41
1
41
1
41
1
41
1
41
1
41
1
41
1
41
1
41
1
41
1
41
1
41
1
41
1
41
1
41
1
41
1
41
1
41
1
41
1
41
1
41
1
41
1
41
1
41
1
41
1
41
1
41
1
41
1
41
1
41
1
41
1
41
1
41
1
41
1
41
1
41
1
41
1
41
1
41
1
41
1
41
1
41
1
41
1
41
1
41
1
41
1
41
1
41
1
41
1
41
1
41
1
41
1
41
1
41
1
41
1
41
1
41
1
41
1
41
1
41
1
41
1
41
1
41
1
41
1
41
1
41
1
41
1
41
1
41
1
41
1
41
1
41
1
41
1
41
1
41
1
41
1
41
1
41
1
41
1
41
1
41
1
41
1
41
1
41
1
41
1
41
1
41
1
41
1
41
1
41
1
41
1
41
1
41
1
41
1
41
1
41
1
41
1
41
1
41
1
41
1
41
1
41
1
41
1
41
1
41
1
41
1
41
1
41
1
41
1
41
1
41
1
41
1
41
1
41
1
41
1
41
1
41
1
41
1
41
1
41
1
41
1
41
1
41
1
41
1
41
1
41
1
41
1
41
1
41
1
41
1
41
1
41
1
41
1
41
1
41
1
41
1
41
1
41
1
41
1
41
1
41
1
41
1
41
1
41
1
41
1
41
1
41
1
41
1
41
1
41
1
41
1
41
1
41
1
10
18.9956
20
-104.3383
30
0
10
18.905596495249231
20
-104.35068558873867
30
0
10
18.725098759388604
20
-104.37182329662974
30
0
10
18.45322061842937
20
-104.39249246417788
30
0
10
18.089738798432514
20
-104.39682820491774
30
0
10
17.63703901531153
20
-104.35969863344644
30
0
10
17.189757752148086
20
-104.27713783346142
30
0
10
16.752656683322702
20
-104.14938119955195
30
0
10
16.330637893553615
20
-103.97876359460939
30
0
10
15.927851374019948
20
-103.76858210643195
30
0
10
15.546676154269631
20
-103.52175485305395
30
0
10
15.188066951709247
20
-103.24158716927087
30
0
10
14.85209899489602
20
-102.93256648751033
30
0
10
14.538517744320476
20
-102.60183080786787
30
0
10
14.246830731368421
20
-102.2563606690679
30
0
10
13.976327963933743
20
-101.89996645441997
30
0
10
13.725974454842367
20
-101.52837566648095
30
0
10
13.49502364697269
20
-101.13465669987237
30
0
10
13.283586875093674
20
-100.71674490667903
30
0
10
13.093881272984724
20
-100.28867521931741
30
0
10
12.928428826564431
20
-99.871743861507554
30
0
10
12.78714502656406
20
-99.477078389280948
30
0
10
12.663426709459522
20
-99.083639446826638
30
0
10
12.54575389359678
20
-98.64552310012742
30
0
10
12.423510207821282
20
-98.122002079039916
30
0
10
12.292849733508094
20
-97.507907268496638
30
0
10
12.158141396787228
20
-96.839730212625582
30
0
10
12.027104695148196
20
-96.167068618561615
30
0
10
11.907700286048279
20
-95.533828952770449
30
0
10
11.804098120271615
20
-94.954049820469862
30
0
10
11.713631064479962
20
-94.394023077016698
30
0
10
11.629552118825089
20
-93.793577352825793
30
0
10
11.543399183904537
20
-93.084784406581008
30
0
10
11.44735881597393
20
-92.210380032009965
30
0
10
11.337006605484369
20
-91.145490226055173
30
0
10
11.211314672798325
20
-89.896176672101149
30
0
10
11.071838150969306
20
-88.491058002607531
30
0
10
10.922177566353984
20
-86.975250835512696
30
0
10
10.767327575621366
20
-85.403366714458912
30
0
10
10.613070202162485
20
-83.83285212330631
30
0
10
10.46535893943469
20
-82.31732574891133
30
0
10
10.329683524650854
20
-80.899580216599887
30
0
10
10.210497471956639
20
-79.60551601189951
30
0
10
10.110482735450763
20
-78.435708123246016
30
0
10
10.030471230522579
20
-77.366482090729193
30
0
10
9.9698710688927434
20
-76.358289036269895
30
0
10
9.9269468534157923
20
-75.361974287452412
30
0
10
9.899159688162614
20
-74.325899613010307
30
0
10
9.8834823228300976
20
-73.202729394916858
30
0
10
9.8767232782770176
20
-71.956292106532388
30
0
10
9.8758511702843457
20
-70.568574088815666
30
0
10
9.8783074542185325
20
-69.046191519060201
30
0
10
9.8820206272333095
20
-67.414821835882449
30
0
10
9.8854329988347782
20
-65.714129879143584
30
0
10
9.8875226295269041
20
-63.992510663202786
30
0
10
9.8878275331283909
20
-62.301903810299976
30
0
10
9.8864684341208111
20
-60.692591766000021
30
0
10
9.8841732632965833
20
-59.207971249523155
30
0
10
9.8822983341976887
20
-57.87941455205133
30
0
10
9.882856951237267
20
-56.720909709030963
30
0
10
9.8885306877773065
20
-55.724225561373963
30
0
10
9.9027259145136028
20
-54.852703255215872
30
0
10
9.9291550507063935
20
-54.049388632294146
30
0
10
9.9713508676562181
20
-53.247118560567813
30
0
10
10.032213489991864
20
-52.377767381055271
30
0
10
10.113523439489782
20
-51.382178645365613
30
0
10
10.215516426306507
20
-50.219027524954186
30
0
10
10.336310081561939
20
-48.876139264265603
30
0
10
10.472158489717039
20
-47.368197981910058
30
0
10
10.617986991675863
20
-45.729857024761209
30
0
10
10.767833908124381
20
-44.010373226083388
30
0
10
10.915332300217219
20
-42.267591883111677
30
0
10
11.054171839566735
20
-40.562240438157701
30
0
10
11.178575502470576
20
-38.952019969456877
30
0
10
11.283755339106179
20
-37.485944820009486
30
0
10
11.366411071643988
20
-36.198200883830452
30
0
10
11.425131156204175
20
-35.10308710784696
30
0
10
11.461033252810505
20
-34.187304236924881
30
0
10
11.477447437805914
20
-33.412849348725338
30
0
10
11.478888338464635
20
-32.727803008085559
30
0
10
11.470214185536012
20
-32.075018334654224
30
0
10
11.455751633971447
20
-31.401250956078755
30
0
10
11.438333460666289
20
-30.667107500283677
30
0
10
11.418692702556616
20
-29.853484968937213
30
0
10
11.396055567764416
20
-28.956135800383635
30
0
10
11.368528109004885
20
-27.982278890188258
30
0
10
11.333566724875068
20
-26.946376857101242
30
0
10
11.288407067147929
20
-25.866331505996701
30
0
10
11.23052468149724
20
-24.759351047847034
30
0
10
11.158041862699434
20
-23.638389346644537
30
0
10
11.069720382506114
20
-22.513065884709423
30
0
10
10.964987883298964
20
-21.390204666310222
30
0
10
10.843953941878796
20
-20.274523627292279
30
0
10
10.707424920460433
20
-19.16924757499271
30
0
10
10.556932350548768
20
-18.076782946706047
30
0
10
10.394725065856537
20
-16.999298173904648
30
0
10
10.223853218474572
20
-15.939514571999334
30
0
10
10.047867444006524
20
-14.900635884912802
30
0
10
9.8702646243005336
20
-13.885707516763983
30
0
10
9.6940013617502139
20
-12.897137466063382
30
0
10
9.5209964416995216
20
-11.936167930453369
30
0
10
9.3515989500726313
20
-11.002327912048905
30
0
10
9.1841627857824921
20
-10.092988142543923
30
0
10
9.0143392677901097
20
-9.2026294046838704
30
0
10
8.8359646037881685
20
-8.3237454958774428
30
0
10
8.64252543628373
20
-7.4483348273226699
30
0
10
8.4283962243074733
20
-6.5691678313033774
30
0
10
8.1902557944423631
20
-5.6812152004807608
30
0
10
7.9282318055897347
20
-4.7828507372996496
30
0
10
7.6476518566009632
20
-3.8775431063999397
30
0
10
7.3583007852297735
20
-2.9735575286985059
30
0
10
7.0719773762072986
20
-2.0823314702667393
30
0
10
6.8006102780774738
20
-1.2172408843201015
30
0
10
6.5540262031498839
20
-0.39221365214770954
30
0
10
6.3381381262184897
20
0.37961081979854644
30
0
10
6.1522865688295241
20
1.087193494111135
30
0
10
5.9894623226206587
20
1.7231217394954519
30
0
10
5.8400725960457054
20
2.2855552567808952
30
0
10
5.6946494028970394
20
2.779870070726127
30
0
10
5.5473162104131628
20
3.2208518109113866
30
0
10
5.3979933399091662
20
3.6334371171525568
30
0
10
5.2453374136885671
20
4.0413172991941417
30
0
10
5.0803082111887257
20
4.4564044082134178
30
0
10
4.879899668477842
20
4.8684446905337868
30
0
10
4.6205678444723581
20
5.2542825730538647
30
0
10
4.2906220390349423
20
5.5865342610551059
30
0
10
3.9040625448845754
20
5.8425054520459678
30
0
10
3.4858566942099571
20
6.0097637208217609
30
0
10
3.0567054025678129
20
6.0909476429793248
30
0
10
2.6164429571942427
20
6.110295715891545
30
0
10
2.1505735827124646
20
6.1000561664881641
30
0
10
1.6388259517076542
20
6.0861156343927112
30
0
10
1.063559500079412
20
6.0715047535067814
30
0
10
0.41347353539525078
20
6.0422711455972298
30
0
10
-0.3134501240499577
20
5.9782718366288501
30
0
10
-1.1073585396445098
20
5.8613603572069124
30
0
10
-1.9422882699342514
20
5.6867786344556261
30
0
10
-2.7784315834064999
20
5.4650162312960653
30
0
10
-3.5712788718366255
20
5.2140488947052086
30
0
10
-4.279088851094432
20
4.9540474631502542
30
0
10
-4.8706800351977586
20
4.7012437706626464
30
0
10
-5.3339391781146066
20
4.461769580587573
30
0
10
-5.681474663363197
20
4.2266810116375444
30
0
10
-5.9407741302214392
20
3.9747441429073604
30
0
10
-6.1461632055602831
20
3.6738951255320424
30
0
10
-6.330499453251698
20
3.2840316971651351
30
0
10
-6.5218835179096457
20
2.7677317717901575
30
0
10
-6.7397455222002591
20
2.1005451758723144
30
0
10
-6.9913775880759754
20
1.2809680671135855
30
0
10
-7.2746651537743929
20
0.32532046762408839
30
0
10
-7.5806545721207863
20
-0.7368405612689688
30
0
10
-7.8961640291206034
20
-1.8674907478188087
30
0
10
-8.2064119796604462
20
-3.0248761388384042
30
0
10
-8.4975547772539191
20
-4.1681586525448076
30
0
10
-8.7594625031004494
20
-5.262354284824605
30
0
10
-8.9877938529621879
20
-6.2823851536308704
30
0
10
-9.182586988985177
20
-7.2127149744045651
30
0
10
-9.347306360285458
20
-8.0475550157422937
30
0
10
-9.4877111242118648
20
-8.7908635155225028
30
0
10
-9.6108028394255935
20
-9.4563992904501184
30
0
10
-9.7237313190464363
20
-10.067832006338156
30
0
10
-9.8327409954354508
20
-10.658611333666755
30
0
10
-9.9429378133317492
20
-11.266186464101196
30
0
10
-10.058011037911632
20
-11.926174678001995
30
0
10
-10.180011388764612
20
-12.66703622635066
30
0
10
-10.309006807848233
20
-13.503321670469855
30
0
10
-10.443337702804206
20
-14.436271490600539
30
0
10
-10.580124382144529
20
-15.457544795707046
30
0
10
-10.715695508288857
20
-16.551954521768899
30
0
10
-10.846045091450677
20
-17.700589024226559
30
0
10
-10.967287228260613
20
-18.883830623700653
30
0
10
-11.076088294217474
20
-20.084270732721855
30
0
10
-11.170170785419574
20
-21.290058657824822
30
0
10
-11.248222979161326
20
-22.494525248218366
30
0
10
-11.309695465941749
20
-23.695093767532253
30
0
10
-11.354637565786984
20
-24.892440687089628
30
0
10
-11.38351576405773
20
-26.089547368770507
30
0
10
-11.397042702739837
20
-27.290808087366884
30
0
10
-11.39599506191092
20
-28.501091874195403
30
0
10
-11.381051643299408
20
-29.724875754063191
30
0
10
-11.352583218154519
20
-30.965215169540024
30
0
10
-11.310696884898377
20
-32.223565224254216
30
0
10
-11.255376878200011
20
-33.499923587115234
30
0
10
-11.186593894187524
20
-34.792868735047065
30
0
10
-11.104427670645586
20
-36.099641550059481
30
0
10
-11.009183589762941
20
-37.416208930734946
30
0
10
-10.901512528104746
20
-38.737333653233456
30
0
10
-10.782527747614822
20
-40.056644966112827
30
0
10
-10.653926777492892
20
-41.366700698034229
30
0
10
-10.518100703321753
20
-42.659075951625866
30
0
10
-10.377918905975408
20
-43.92516124188252
30
0
10
-10.236524852063088
20
-45.15693699520935
30
0
10
-10.097128008710644
20
-46.347754978029045
30
0
10
-9.9627968040977706
20
-47.493121212694305
30
0
10
-9.8362525262963327
20
-48.591468052672681
30
0
10
-9.7196595850914989
20
-49.644954730696178
30
0
10
-9.6144249603931762
20
-50.660199546035301
30
0
10
-9.5209730698191368
20
-51.649193380632575
30
0
10
-9.4389147794532242
20
-52.627303295141765
30
0
10
-9.3672462478481027
20
-53.611053008820697
30
0
10
-9.3045367263178598
20
-54.615991435656106
30
0
10
-9.2491216117688726
20
-55.654507204428363
30
0
10
-9.1992918608486818
20
-56.733705382232742
30
0
10
-9.1534882413028118
20
-57.853164676611641
30
0
10
-9.1104842230195118
20
-59.003010139201024
30
0
10
-9.0693900947884405
20
-60.167204558536326
30
0
10
-9.0296657580958222
20
-61.32654822842013
30
0
10
-8.9911314341980244
20
-62.461828013472129
30
0
10
-8.9539765830514746
20
-63.556813998567321
30
0
10
-8.9187758010834344
20
-64.601528014901902
30
0
10
-8.8864872064910667
20
-65.59491269064165
30
0
10
-8.8584944762246405
20
-66.548959420687169
30
0
10
-8.8364781871337357
20
-67.487149763413839
30
0
10
-8.8221494804639136
20
-68.43828091920868
30
0
10
-8.8170195909374307
20
-69.431544446456215
30
0
10
-8.8221620026649479
20
-70.491225933263209
30
0
10
-8.8379608060833998
20
-71.631254413130009
30
0
10
-8.8639047102250395
20
-72.850548860480984
30
0
10
-8.8982601670184085
20
-74.126154725192407
30
0
10
-8.9383495982154368
20
-75.41753324866248
30
0
10
-8.981095178662164
20
-76.675758586192501
30
0
10
-9.0234810282582405
20
-77.85119630187873
30
0
10
-9.0630420713257074
20
-78.901701978453588
30
0
10
-9.0983582595771022
20
-79.800854609034502
30
0
10
-9.1295073908956734
20
-80.54557490456358
30
0
10
-9.1586292029541685
20
-81.165442958462094
30
0
10
-9.1901636077982189
20
-81.727014663350815
30
0
10
-9.2294469466509614
20
-82.312827541393375
30
0
10
-9.2814770364442793
20
-83.0030715379078
30
0
10
-9.3496940981068875
20
-83.857350377152471
30
0
10
-9.4345453056099959
20
-84.8935080046883
30
0
10
-9.5339797706744154
20
-86.093094133031315
30
0
10
-9.6443389779364015
20
-87.412289652364947
30
0
10
-9.7611051150054138
20
-88.790891362399435
30
0
10
-9.8797195687412636
20
-90.162206839379365
30
0
10
-9.9963471271683915
20
-91.462339593671118
30
0
10
-10.108719682597592
20
-92.640244822028123
30
0
10
-10.216814064347988
20
-93.666261385586367
30
0
10
-10.323937613693166
20
-94.544347798897391
30
0
10
-10.435716981041212
20
-95.305223885934197
30
0
10
-10.558321149592002
20
-95.992341880332219
30
0
10
-10.696829381332641
20
-96.649583483485415
30
0
10
-10.853769049158906
20
-97.309572468967716
30
0
10
-11.027022280824056
20
-97.978487458011955
30
0
10
-11.209966200906646
20
-98.633745482170255
30
0
10
-11.395256560775159
20
-99.242758423177548
30
0
10
-11.577711959374842
20
-99.776558497741362
30
0
10
-11.757666084674661
20
-100.22593409622404
30
0
10
-11.943822246926842
20
-100.61524795612912
30
0
10
-12.147628619453833
20
-100.98124427695996
30
0
10
-12.378073013713511
20
-101.35347826626032
30
0
10
-12.636066851814864
20
-101.73324724824914
30
0
10
-12.918167216417382
20
-102.10611574217707
30
0
10
-13.220348315641075
20
-102.45473889612873
30
0
10
-13.542224420191571
20
-102.77298674664092
30
0
10
-13.885403857161618
20
-103.0621970704085
30
0
10
-14.25132950972268
20
-103.32566051823527
30
0
10
-14.638914861122164
20
-103.56295730396153
30
0
10
-15.04523241405394
20
-103.77047985135482
30
0
10
-15.466788546394895
20
-103.94340255326327
30
0
10
-15.900891138232788
20
-104.07737493434873
30
0
10
-16.34526932091514
20
-104.16896413213449
30
0
10
-16.797162753078172
20
-104.21554357676121
30
0
10
-17.252300207269307
20
-104.21527252097928
30
0
10
-17.705312130541714
20
-104.16745910052111
30
0
10
-18.150813675635732
20
-104.07296837146454
30
0
10
-18.584502306661712
20
-103.93501140978455
30
0
10
-19.003290848533123
20
-103.75819667675012
30
0
10
-19.404734098589348
20
-103.5468240056864
30
0
10
-19.786539617576089
20
-103.30260652624665
30
0
10
-20.146522423685145
20
-103.02546856831425
30
0
10
-20.48303883003415
20
-102.71652981808782
30
0
10
-20.795405050434482
20
-102.38193078911961
30
0
10
-21.083906148917741
20
-102.03160607802161
30
0
10
-21.349176110448589
20
-101.67274828629687
30
0
10
-21.591706767174411
20
-101.30195545363856
30
0
10
-21.811417828524764
20
-100.90596442208894
30
0
10
-22.00761193131806
20
-100.47629127846882
30
0
10
-22.178696897111713
20
-100.02508144792499
30
0
10
-22.322407162854418
20
-99.588095217702858
30
0
10
-22.437127958726126
20
-99.192205109712418
30
0
10
-22.523182681150182
20
-98.82542737482396
30
0
10
-22.583690279386438
20
-98.417249281630234
30
0
10
-22.623233889455946
20
-97.874665090167738
30
0
10
-22.64680538011547
20
-97.111324537901567
30
0
10
-22.65876278728706
20
-96.07575110464154
30
0
10
-22.662961552869355
20
-94.744539909266848
30
0
10
-22.662757483339547
20
-93.119308676955583
30
0
10
-22.661059954290621
20
-91.222182742436516
30
0
10
-22.660363692625932
20
-89.091904778019995
30
0
10
-22.662789761941045
20
-86.779676669972673
30
0
10
-22.670122596794073
20
-84.345115336261671
30
0
10
-22.683848698196311
20
-81.852163153012313
30
0
10
-22.705194694084557
20
-79.365009722022251
30
0
10
-22.735165475572991
20
-76.944027970706969
30
0
10
-22.774582749919677
20
-74.641659451121626
30
0
10
-22.824122359407582
20
-72.498425286862613
30
0
10
-22.884354636958143
20
-70.538635511879079
30
0
10
-22.955776169979927
20
-68.76694655712555
30
0
10
-23.0387662282862
20
-67.17234136708899
30
0
10
-23.133549839550906
20
-65.731458617289775
30
0
10
-23.240158187355465
20
-64.412175426892261
30
0
10
-23.358390451769438
20
-63.177071178979773
30
0
10
-23.487774317424453
20
-61.986967910074497
30
0
10
-23.62752870017669
20
-60.80437845817535
30
0
10
-23.776521686078979
20
-59.597131998589219
30
0
10
-23.933239467969649
20
-58.341601833488795
30
0
10
-24.095728685771558
20
-57.026890342358229
30
0
10
-24.261628464371281
20
-55.655788361054093
30
0
10
-24.428332965429959
20
-54.241040088376131
30
0
10
-24.593122634428099
20
-52.802736472696296
30
0
10
-24.753307782374705
20
-51.365258606540607
30
0
10
-24.906367612141501
20
-49.954400019656724
30
0
10
-25.050089534137591
20
-48.594443670379917
30
0
10
-25.1827122449047
20
-47.305184911899573
30
0
10
-25.30305813920161
20
-46.099148988293265
30
0
10
-25.410692025299781
20
-44.978313910278864
30
0
10
-25.506002112171785
20
-43.932302796364112
30
0
10
-25.589971113371529
20
-42.942432820363791
30
0
10
-25.663992667863333
20
-41.984913782638415
30
0
10
-25.729672009017769
20
-41.034329190670206
30
0
10
-25.788628895757807
20
-40.067110403987186
30
0
10
-25.842309941867846
20
-39.064749521653624
30
0
10
-25.891771723909578
20
-38.01776630058805
30
0
10
-25.937561530373912
20
-36.927181858490535
30
0
10
-25.979787769071926
20
-35.801147896323428
30
0
10
-26.018149532564451
20
-34.652631709807984
30
0
10
-26.051982050647553
20
-33.496662850553335
30
0
10
-26.080296417143156
20
-32.347802811148803
30
0
10
-26.101819296977734
20
-31.217435936030959
30
0
10
-26.115038473151749
20
-30.111332209326555
30
0
10
-26.118230530492777
20
-29.026579585574709
30
0
10
-26.109635300058549
20
-27.953472820344516
30
0
10
-26.087656535614862
20
-26.878314379598169
30
0
10
-26.051055961802859
20
-25.785918794131501
30
0
10
-25.999144532824214
20
-24.662196432603665
30
0
10
-25.931987795246659
20
-23.496807652902444
30
0
10
-25.850575113737765
20
-22.285543112751633
30
0
10
-25.757077269322433
20
-21.033411698751987
30
0
10
-25.654825783344151
20
-19.755478464021536
30
0
10
-25.547671691278456
20
-18.47268010276305
30
0
10
-25.439472099993274
20
-17.208670355821539
30
0
10
-25.333522325780784
20
-15.986236490066094
30
0
10
-25.232019266520279
20
-14.82394126252423
30
0
10
-25.135492780670855
20
-13.732569768723151
30
0
10
-25.042294024928186
20
-12.711888679905348
30
0
10
-24.947955696482758
20
-11.746723275412606
30
0
10
-24.844923060976036
20
-10.804997301282826
30
0
10
-24.723839775167853
20
-9.8439926040455585
30
0
10
-24.574607445456497
20
-8.8154137852964922
30
0
10
-24.387535673099549
20
-7.6709287238841926
30
0
10
-24.154448477500289
20
-6.367484095581303
30
0
10
-23.869821238041261
20
-4.8727692046821645
30
0
10
-23.531877191285865
20
-3.1704962137960213
30
0
10
-23.143766395909143
20
-1.2660446859576058
30
0
10
-22.71452252427807
20
0.80886925296857215
30
0
10
-22.257462255582823
20
3.0027354558070209
30
0
10
-21.788764186269859
20
5.2500061746181759
30
0
10
-21.325978398261558
20
7.4771546817364554
30
0
10
-20.886568214862894
20
9.6085967775958192
30
0
10
-20.486431844645999
20
11.57269118610796
30
0
10
-20.138447242031987
20
13.307659636600317
30
0
10
-19.85097310263788
20
14.767649320621842
30
0
10
-19.626447293349052
20
15.928484062134649
30
0
10
-19.459760680479011
20
16.794130874607124
30
0
10
-19.337152916332101
20
17.401505028778448
30
0
10
-19.233865917050366
20
17.829230155262884
30
0
10
-19.115389130649675
20
18.194944532293636
30
0
10
-18.951682244298759
20
18.610754470876152
30
0
10
-18.730619449410437
20
19.14162300398355
30
0
10
-18.468752480794343
20
19.77115346675857
30
0
10
-18.197493481985092
20
20.438297026136567
30
0
10
-17.95136120104646
20
21.067793607050987
30
0
10
-17.75647705006789
20
21.600581600381968
30
0
10
-17.616297126399843
20
22.030460450242035
30
0
10
-17.517445019317574
20
22.393283324454213
30
0
10
-17.440112585287711
20
22.744722255482923
30
0
10
-17.368489373834915
20
23.139302061116439
30
0
10
-17.292524211541181
20
23.623396486536322
30
0
10
-17.205649444861809
20
24.235553612827299
30
0
10
-17.103664715326929
20
25.00403861947845
30
0
10
-16.983961289664826
20
25.947047973096616
30
0
10
-16.845529077741261
20
27.07347330665926
30
0
10
-16.688694128434417
20
28.38355059819736
30
0
10
-16.514969400627638
20
29.869555868593576
30
0
10
-16.326857009266412
20
31.516475788888396
30
0
10
-16.12767110133958
20
33.302701035320545
30
0
10
-15.921352487782126
20
35.200681798231052
30
0
10
-15.71228536511515
20
37.177664840559032
30
0
10
-15.505116730969624
20
39.196235475403498
30
0
10
-15.30456177323396
20
41.215522149465286
30
0
10
-15.115189344993535
20
43.193323220900808
30
0
10
-14.941211163720446
20
45.08800779629658
30
0
10
-14.786272083772225
20
46.860508459447345
30
0
10
-14.65323396789703
20
48.476273658574975
30
0
10
-14.543976073701064
20
49.907239934516198
30
0
10
-14.459156345457387
20
51.133790013041683
30
0
10
-14.398063790225686
20
52.146730217373296
30
0
10
-14.358258978012856
20
52.949229171562322
30
0
10
-14.335710555269729
20
53.558843542225169
30
0
10
-14.32368878088554
20
54.009357307976188
30
0
10
-14.318984341445795
20
54.352358323341662
30
0
10
-14.328225955157023
20
54.656724794456267
30
0
10
-14.377401390756376
20
55.012800873723506
30
0
10
-14.502303053188141
20
55.51333109164041
30
0
10
-14.733306486172461
20
56.228819121125269
30
0
10
-15.078891111352515
20
57.178894527963926
30
0
10
-15.52449030486061
20
58.3329400596851
30
0
10
-16.040607185419567
20
59.627707311761931
30
0
10
-16.587977972475773
20
60.979529276173508
30
0
10
-17.12403480664544
20
62.298962239793525
30
0
10
-17.608643311924933
20
63.503955795375418
30
0
10
-18.010541813129471
20
64.534654176669534
30
0
10
-18.312567676999073
20
65.365161955658479
30
0
10
-18.519668905004146
20
66.022416025116954
30
0
10
-18.656382372644423
20
66.578033185452171
30
0
10
-18.754597577745383
20
67.114985406711156
30
0
10
-18.844501341652645
20
67.702848316014752
30
0
10
-18.943163268797932
20
68.366063147921764
30
0
10
-19.047265218007009
20
69.065481946271959
30
0
10
-19.142911897020369
20
69.735628577712646
30
0
10
-19.213551914992134
20
70.316146668138572
30
0
10
-19.247961578721494
20
70.782506362976733
30
0
10
-19.249914876464803
20
71.184694911818724
30
0
10
-19.231921883055143
20
71.614558539931195
30
0
10
-19.206696416847578
20
72.163253929571425
30
0
10
-19.1779314835489
20
72.87516252257258
30
0
10
-19.1409631535284
20
73.74837151365918
30
0
10
-19.086819063185768
20
74.750914343111305
30
0
10
-19.005044113360555
20
75.831475366607549
30
0
10
-18.887204553993286
20
76.932844543979996
30
0
10
-18.729714318461998
20
78.00318892774898
30
0
10
-18.537926225827949
20
79.010786490491441
30
0
10
-18.325044482039289
20
79.945285307845225
30
0
10
-18.107900990685277
20
80.810984909008567
30
0
10
-17.903770744927062
20
81.622599421140066
30
0
10
-17.726563842902287
20
82.399847225247953
30
0
10
-17.58373376555857
20
83.162885867166835
30
0
10
-17.471771464516756
20
83.926540589695577
30
0
10
-17.37656816461087
20
84.698304573578099
30
0
10
-17.278961857449499
20
85.480312878540502
30
0
10
-17.158995529778981
20
86.270275075971796
30
0
10
-17.000522957132365
20
87.062821019430743
30
0
10
-16.796085523250376
20
87.8506957326193
30
0
10
-16.550420237941715
20
88.625941860474668
30
0
10
-16.2757345819292
20
89.380552524995124
30
0
10
-15.988041985228183
20
90.107195141359057
30
0
10
-15.702993829487543
20
90.79991515696338
30
0
10
-15.43213879694818
20
91.45483008691977
30
0
10
-15.178438058702655
20
92.070871613812969
30
0
10
-14.937505095000745
20
92.650314304732646
30
0
10
-14.699742271757046
20
93.199491614368682
30
0
10
-14.452278232813565
20
93.72903009851953
30
0
10
-14.18071723608324
20
94.255281736221946
30
0
10
-13.872092234429193
20
94.797247290480158
30
0
10
-13.519402794393914
20
95.368596349019427
30
0
10
-13.125288088580621
20
95.971603754202448
30
0
10
-12.70701221130761
20
96.588998277992232
30
0
10
-12.298117051409749
20
97.180481835865535
30
0
10
-11.93292459943665
20
97.702786142293292
30
0
10
-11.631956497406794
20
98.128337963767564
30
0
10
-11.389254042039646
20
98.46167540584419
30
0
10
-11.153171418328331
20
98.763886607983281
30
0
10
-10.853637445962129
20
99.119564529528716
30
0
10
-10.435843108718032
20
99.595690385739616
30
0
10
-9.8994552500109201
20
100.19394542026458
30
0
10
-9.2901141025424057
20
100.86061485547583
30
0
10
-8.6737415273450829
20
101.51722806683195
30
0
10
-8.1152061174134484
20
102.08602360608364
30
0
10
-7.6581934374819731
20
102.51374234952009
30
0
10
-7.2972256554026158
20
102.805426605447
30
0
10
-6.9787598856601907
20
103.02148101506644
30
0
10
-6.6403333862771419
20
103.22774890933377
30
0
10
-6.2470535710090971
20
103.4472995631445
30
0
10
-5.8091984005077792
20
103.64086406755236
30
0
10
-5.3537976636610782
20
103.75363116756226
30
0
10
-4.9027745324977703
20
103.75382049256955
30
0
10
-4.4583477485948055
20
103.65694958088775
30
0
10
-4.0210028693302737
20
103.49232417079574
30
0
10
-3.6037288286605418
20
103.27642737960461
30
0
10
-3.2409467549921676
20
102.99448065534582
30
0
10
-2.9675198920608987
20
102.63015185580564
30
0
10
-2.8005334341246209
20
102.19079696155936
30
0
10
-2.7252276201113812
20
101.72596061662625
30
0
10
-2.717638241077645
20
101.2871082238248
30
0
10
-2.7642159558508346
20
100.89170317438983
30
0
10
-2.879227350493061
20
100.49227919382221
30
0
10
-3.0850486181259953
20
100.01833820581018
30
0
10
-3.3955544415892742
20
99.412271653712423
30
0
10
-3.7988814442270695
20
98.666447352711685
30
0
10
-4.2658499060132451
20
97.808936972942448
30
0
10
-4.757575463801861
20
96.890874582752275
30
0
10
-5.2333190602367994
20
95.973285661782612
30
0
10
-5.6584115280708573
20
95.113902385677363
30
0
10
-6.0117309472031657
20
94.354548535183625
30
0
10
-6.2944957757339388
20
93.706766372826209
30
0
10
-6.5226716729751448
20
93.158631892609151
30
0
10
-6.7169576549247978
20
92.684180184887026
30
0
10
-6.8946915048009751
20
92.251522904806095
30
0
10
-7.0584125035859699
20
91.832429709449613
30
0
10
-7.1962752287298795
20
91.407301430451611
30
0
10
-7.2911922251714492
20
90.96576947669368
30
0
10
-7.3289757250358036
20
90.509724494038096
30
0
10
-7.3017743658168417
20
90.051204445867285
30
0
10
-7.205200277141774
20
89.605797302774903
30
0
10
-7.0359474077564785
20
89.186091526822366
30
0
10
-6.7929581187844921
20
88.798617090843749
30
0
10
-6.4830052544392505
20
88.446635096549912
30
0
10
-6.1284860771215577
20
88.132193377231403
30
0
10
-5.7645082958004901
20
87.856449312542978
30
0
10
-5.4167042032777255
20
87.615938159946296
30
0
10
-5.078031918188092
20
87.398527015990453
30
0
10
-4.7004156888477127
20
87.182935487801643
30
0
10
-4.2337677907735181
20
86.949412485048981
30
0
10
-3.6604214084034132
20
86.689481983636441
30
0
10
-3.0210238423935145
20
86.413223500523046
30
0
10
-2.3811304052351505
20
86.140353287031303
30
0
10
-1.8046084801652293
20
85.893169354284822
30
0
10
-1.3271797513701566
20
85.689492714173554
30
0
10
-0.92273805796522834
20
85.533765664337125
30
0
10
-0.53339516443580748
20
85.424154581753683
30
0
10
-0.10741775790297434
20
85.361192704304187
30
0
10
0.35643256303248655
20
85.359073453415547
30
0
10
0.82365210757612961
20
85.436811403838973
30
0
10
1.2550709941138296
20
85.605078263354883
30
0
10
1.638901126397059
20
85.850158983002856
30
0
10
1.9881703400627697
20
86.141598242499811
30
0
10
2.3228151190940913
20
86.448589335687714
30
0
10
2.6540507228488175
20
86.757114245091685
30
0
10
2.9804827621139411
20
87.070506005800837
30
0
10
3.2934651710838416
20
87.399368353279968
30
0
10
3.5795588985579192
20
87.753791005998295
30
0
10
3.8239763696172839
20
88.138778736498566
30
0
10
4.0130687443668043
20
88.554655367493723
30
0
10
4.1375262890899283
20
88.995223755466839
30
0
10
4.1939444492631646
20
89.449415305794133
30
0
10
4.1844745148707361
20
89.905455372612238
30
0
10
4.1173230760512425
20
90.355227221238877
30
0
10
4.0057047724020034
20
90.795958473382086
30
0
10
3.8645784382893473
20
91.227915196615257
30
0
10
3.7081505903049861
20
91.652182630413478
30
0
10
3.5463693845146276
20
92.070996062395395
30
0
10
3.3808277829920512
20
92.493423416655361
30
0
10
3.1995338029660663
20
92.941348555890997
30
0
10
2.9756308775637388
20
93.451253292560921
30
0
10
2.6791058294406951
20
94.060674668174073
30
0
10
2.2865441269968785
20
94.79699863354324
30
0
10
1.7911658494289504
20
95.66593621130643
30
0
10
1.2140289166930582
20
96.638539417985371
30
0
10
0.59645589355115125
20
97.661510326698803
30
0
10
-0.009593912808576105
20
98.670059621725841
30
0
10
-0.55038747178238179
20
99.599809633929226
30
0
10
-0.97966055749015246
20
100.39918593451632
30
0
10
-1.2675658145765103
20
101.04140141298437
30
0
10
-1.4100601054787525
20
101.53708567475975
30
0
10
-1.4372097404016317
20
101.94529726146911
30
0
10
-1.389414496807849
20
102.33697147854535
30
0
10
-1.2951237380176264
20
102.7604880322054
30
0
10
-1.1469741884954661
20
103.20512930150983
30
0
10
-0.92306072993831445
20
103.62713870162494
30
0
10
-0.60805049989298365
20
103.97623785694883
30
0
10
-0.21689337512632118
20
104.22399700225304
30
0
10
0.21907610848915793
20
104.36106061871983
30
0
10
0.66854036649486948
20
104.39153084663529
30
0
10
1.1179578316766108
20
104.32806309818078
30
0
10
1.5636909709195543
20
104.18961308109144
30
0
10
2.0021926395669638
20
103.99918417435859
30
0
10
2.4177634149885168
20
103.78273512098146
30
0
10
2.7943416112370576
20
103.56003901446583
30
0
10
3.1296418304081612
20
103.33618851219327
30
0
10
3.4545243164897119
20
103.08810962556807
30
0
10
3.8151773536291218
20
102.78056266311731
30
0
10
4.2460546292795254
20
102.38889868291443
30
0
10
4.7387548187557833
20
101.92579596112722
30
0
10
5.2483579912307201
20
101.43519161847428
30
0
10
5.7213921278326074
20
100.96745482674338
30
0
10
6.1147201105577444
20
100.56243897621991
30
0
10
6.4232591830806518
20
100.22483972705504
30
0
10
6.6875796129438818
20
99.917139437638156
30
0
10
6.9620555792081333
20
99.587280202347415
30
0
10
7.2878926648445503
20
99.191775787401909
30
0
10
7.6726255030237152
20
98.713980270571426
30
0
10
8.1041560960984409
20
98.154817596426781
30
0
10
8.5589485523577871
20
97.52826997172042
30
0
10
9.0122170794295684
20
96.855088387141848
30
0
10
9.4481136966415953
20
96.156970396811587
30
0
10
9.8587693477846372
20
95.454465605774388
30
0
10
10.241861859246054
20
94.76555164270907
30
0
10
10.598649152933056
20
94.103860242899046
30
0
10
10.931972164927279
20
93.47727713860121
30
0
10
11.243855950427978
20
92.885819661563502
30
0
10
11.535114966007674
20
92.322281327137034
30
0
10
11.80654995034959
20
91.77488528056962
30
0
10
12.059582915827569
20
91.229372303978749
30
0
10
12.297337964513499
20
90.671277486608886
30
0
10
12.524877581342285
20
90.088253986397689
30
0
10
12.746815453560307
20
89.472823032520552
30
0
10
12.965262536902831
20
88.825180366184782
30
0
10
13.177799492282279
20
88.15569392232247
30
0
10
13.375019401663153
20
87.488306384582174
30
0
10
13.543985929621339
20
86.852648085496952
30
0
10
13.672809527923327
20
86.273851679793296
30
0
10
13.754126564950642
20
85.764878357594142
30
0
10
13.790711870384214
20
85.31373452793899
30
0
10
13.793457517014239
20
84.889140829528529
30
0
10
13.77400465308874
20
84.459017710566826
30
0
10
13.737190845890142
20
84.009671124294869
30
0
10
13.679438296426136
20
83.54969646189258
30
0
10
13.594528784090564
20
83.094792204949769
30
0
10
13.478545438290093
20
82.655106578473081
30
0
10
13.33162957516101
20
82.229556116000481
30
0
10
13.153647554749375
20
81.815178523247312
30
0
10
12.940053063507806
20
81.414327132024709
30
0
10
12.681355972091081
20
81.038401916113799
30
0
10
12.371174101542778
20
80.70018085949431
30
0
10
12.014440439436553
20
80.407375285041169
30
0
10
11.630309346184735
20
80.158922302143168
30
0
10
11.236394888857069
20
79.953059597434958
30
0
10
10.833557545558579
20
79.794917370926825
30
0
10
10.397171217905431
20
79.700283829972363
30
0
10
9.908121189246291
20
79.675635831026625
30
0
10
9.3809069797140996
20
79.699800702501292
30
0
10
8.8874660502153802
20
79.708487283997925
30
0
10
8.5132626743574598
20
79.623012715693747
30
0
10
8.3181173879526469
20
79.375816060029479
30
0
10
8.2965350765111836
20
78.93665280485142
30
0
10
8.4056774133838026
20
78.306513697044338
30
0
10
8.5923886164765761
20
77.512522350205984
30
0
10
8.8187915371303944
20
76.602191537076322
30
0
10
9.0586499826978226
20
75.633729637926422
30
0
10
9.295592066015768
20
74.666492116975675
30
0
10
9.5206300052501902
20
73.75146077635587
30
0
10
9.7299629417743212
20
72.921530615845256
30
0
10
9.9226961509707046
20
72.182303780569697
30
0
10
10.098493190194766
20
71.501521994498859
30
0
10
10.257451554090672
20
70.822515541186618
30
0
10
10.400133216060796
20
70.078874761703403
30
0
10
10.527538485271856
20
69.209295255644577
30
0
10
10.641103500094717
20
68.170948899362486
30
0
10
10.742688451963627
20
66.957000668512222
30
0
10
10.834565602904751
20
65.595752749898026
30
0
10
10.919402471996229
20
64.138558709206805
30
0
10
11.000246860042942
20
62.651140395665635
30
0
10
11.080510830015303
20
61.203509880254423
30
0
10
11.163955771977994
20
59.860461307351116
30
0
10
11.254675538622713
20
58.671883214851192
30
0
10
11.357083827411882
20
57.662994977097441
30
0
10
11.475891670241708
20
56.824977352287583
30
0
10
11.616111247960676
20
56.104447921625528
30
0
10
11.782513176398101
20
55.416836302827235
30
0
10
11.979046789413532
20
54.661228419864266
30
0
10
12.208284489102553
20
53.734504671629402
30
0
10
12.470831936975205
20
52.546164132922229
30
0
10
12.764809083384097
20
51.031945554623221
30
0
10
13.085153837256055
20
49.17034108939788
30
0
10
13.424168766127885
20
46.978999189288331
30
0
10
13.772354137300525
20
44.506502968906474
30
0
10
14.11914273680285
20
41.825732510175627
30
0
10
14.4536762642357
20
39.026561226533182
30
0
10
14.765562985211901
20
36.20884240973745
30
0
10
15.045645501762316
20
33.475261755687377
30
0
10
15.286759422984428
20
30.924269122947084
30
0
10
15.484507016450131
20
28.642926284884854
30
0
10
15.637998791804392
20
26.699906562718041
30
0
10
15.750668492429394
20
25.13815989872981
30
0
10
15.830918178312372
20
23.96834647474909
30
0
10
15.893158140332918
20
23.160486640579801
30
0
10
15.95792271336283
20
22.639785158977514
30
0
10
16.054302874925035
20
22.271968058635437
30
0
10
16.209892133288793
20
21.905999115142013
30
0
10
16.438845091799042
20
21.427089828204508
30
0
10
16.726678292673657
20
20.821019236136507
30
0
10
17.036552201746371
20
20.157592979503413
30
0
10
17.326847816131917
20
19.531600584587579
30
0
10
17.563788629657143
20
19.021738558853436
30
0
10
17.739229354224001
20
18.631983856813722
30
0
10
17.876070805522616
20
18.273444376353766
30
0
10
18.01025046155139
20
17.822021710093178
30
0
10
18.176127925891763
20
17.165159510050007
30
0
10
18.394546939549834
20
16.239783594244315
30
0
10
18.676498786261615
20
15.019334541713288
30
0
10
19.023912741445425
20
13.510167631502213
30
0
10
19.431591282323424
20
11.744220379250944
30
0
10
19.888655525730933
20
9.7732777132832123
30
0
10
20.380203084721451
20
7.6625424874792403
30
0
10
20.888870294240704
20
5.4845228171545548
30
0
10
21.396445159251861
20
3.3127423015329405
30
0
10
21.885436196656265
20
1.2156213127841602
30
0
10
22.340712011097491
20
-0.74993578103162217
30
0
10
22.750988830008243
20
-2.5443089384967816
30
0
10
23.110699400743805
20
-4.1525537537546677
30
0
10
23.419451869975614
20
-5.5815279680491727
30
0
10
23.680826167058594
20
-6.8541951073232212
30
0
10
23.901394628972238
20
-8.0048849480813473
30
0
10
24.089647133825611
20
-9.0741435665155858
30
0
10
24.254960999121412
20
-10.103782446773096
30
0
10
24.406542943692052
20
-11.131789107226018
30
0
10
24.552403290036736
20
-12.187420319126465
30
0
10
24.698268160834047
20
-13.285923791735586
30
0
10
24.846657401359021
20
-14.424266604310755
30
0
10
24.997591686394887
20
-15.586824980062859
30
0
10
25.149168560455557
20
-16.750255938798212
30
0
10
25.298192264469126
20
-17.888737172545159
30
0
10
25.440771909884084
20
-18.978921999567604
30
0
10
25.572953602363334
20
-20.005314472412334
30
0
10
25.691290328680974
20
-20.964767214553042
30
0
10
25.79355785431261
20
-21.873100328510414
30
0
10
25.878875132384096
20
-22.763027603330226
30
0
10
25.947408627456046
20
-23.676038679210365
30
0
10
26.000199065840501
20
-24.65600266878527
30
0
10
26.038938397350716
20
-25.742197073372832
30
0
10
26.065766544942438
20
-26.962271774472917
30
0
10
26.08306330930354
20
-28.325970797398881
30
0
10
26.093232944104138
20
-29.816653525229846
30
0
10
26.098548838318912
20
-31.39504192383572
30
0
10
26.101022117477058
20
-33.007460745765933
30
0
10
26.102261492523162
20
-34.592626586516182
30
0
10
26.103338634054587
20
-36.088996616616321
30
0
10
26.104646846285974
20
-37.441982758367828
30
0
10
26.105772651972131
20
-38.610978518812423
30
0
10
26.105338491033933
20
-39.577036716509397
30
0
10
26.100912379059245
20
-40.348933998635928
30
0
10
26.088753346881333
20
-40.973238746824158
30
0
10
26.064181901624693
20
-41.529136156041027
30
0
10
26.022542901698415
20
-42.108946298779479
30
0
10
25.959974410608048
20
-42.803119832673708
30
0
10
25.874322511624666
20
-43.682260472235662
30
0
10
25.76579596220952
20
-44.783807694996014
30
0
10
25.636468451290355
20
-46.118379235464587
30
0
10
25.489926390109005
20
-47.673656983595698
30
0
10
25.330860554880644
20
-49.419219729122652
30
0
10
25.164681458438665
20
-51.31097428936031
30
0
10
24.997124954436551
20
-53.295755577509929
30
0
10
24.833861057023739
20
-55.315862206684031
30
0
10
24.680103686787362
20
-57.313600303890205
30
0
10
24.540214647334643
20
-59.235869025983263
30
0
10
24.417322574444039
20
-61.038622782645518
30
0
10
24.312905642700638
20
-62.691637766534086
30
0
10
24.22647667726477
20
-64.182415548770678
30
0
10
24.156094187752966
20
-65.513122351676515
30
0
10
24.098796659986135
20
-66.698175461110424
30
0
10
24.051066243521721
20
-67.761581914895061
30
0
10
24.009279892102025
20
-68.734382686183409
30
0
10
23.970165988687381
20
-69.652051495764596
30
0
10
23.931258398462184
20
-70.551913433926387
30
0
10
23.891352141085637
20
-71.470554562793268
30
0
10
23.850956997638391
20
-72.441236970730714
30
0
10
23.811883284022546
20
-73.492805962606766
30
0
10
23.776828449801172
20
-74.648591021404485
30
0
10
23.748964612598805
20
-75.925317272659044
30
0
10
23.731522932058461
20
-77.3319936988282
30
0
10
23.727385758285781
20
-78.868854627562811
30
0
10
23.738660533382806
20
-80.526177469564971
30
0
10
23.766296289948869
20
-82.283388558189543
30
0
10
23.80959761241963
20
-84.107475625474393
30
0
10
23.8660621820896
20
-85.953588829829613
30
0
10
23.931911549706459
20
-87.77033920991515
30
0
10
24.00247790430269
20
-89.504111641644357
30
0
10
24.072649755107236
20
-91.103801437892258
30
0
10
24.137289098409024
20
-92.52530036183262
30
0
10
24.191668601467093
20
-93.736251971554623
30
0
10
24.231882172092195
20
-94.720316176617843
30
0
10
24.255308832852901
20
-95.48251673661531
30
0
10
24.260955677720922
20
-96.052083331506992
30
0
10
24.250099327935274
20
-96.491467214201663
30
0
10
24.225628878693183
20
-96.879518814439081
30
0
10
24.190700757777105
20
-97.284372238505227
30
0
10
24.147491984634073
20
-97.731435906027485
30
0
10
24.096405288332893
20
-98.204853825395574
30
0
10
24.035972400349191
20
-98.675486273250073
30
0
10
23.962219257273244
20
-99.126267586211014
30
0
10
23.869400130459532
20
-99.56088324548405
30
0
10
23.751937024019334
20
-99.989176368420459
30
0
10
23.606436176628126
20
-100.41687710174881
30
0
10
23.432431775303726
20
-100.83993090365355
30
0
10
23.23087614910893
20
-101.25122336196247
30
0
10
23.003024410539339
20
-101.64492989112105
30
0
10
22.749579247604149
20
-102.01967503439883
30
0
10
22.471051084535254
20
-102.37555317559637
30
0
10
22.167855724653577
20
-102.71228701860947
30
0
10
21.840513854399259
20
-103.02752209421763
30
0
10
21.48978280951566
20
-103.31778417146882
30
0
10
21.116817347317891
20
-103.57892574370071
30
0
10
20.7233024243444
20
-103.80682086909346
30
0
10
20.311469092520312
20
-103.99817242067626
30
0
10
19.884131528048254
20
-104.15139952094026
30
0
10
19.532581391590607
20
-104.2441393702087
30
0
10
19.265119787893187
20
-104.29750976419743
30
0
10
19.085603504750772
20
-104.32591441126132
30
0
10
18.9956
20
-104.3383
30
0
0
ENDSEC
0
SECTION
2
OBJECTS
0
DICTIONARY
5
C
100
AcDbDictionary
3
ACAD_GROUP
350
D
3
ACAD_MLINESTYLE
350
17
0
DICTIONARY
5
D
100
AcDbDictionary
0
DICTIONARY
5
1A
330
C
100
AcDbDictionary
0
DICTIONARY
5
17
100
AcDbDictionary
0
ENDSEC
0
EOF
