0
SECTION
2
HEADER
9
$INSUNITS
70
4
9
$ACADVER
1
AC1014
9
$HANDSEED
5
FFFF
0
ENDSEC
0
SECTION
2
TABLES
0
TABLE
2
VPORT
5
8
100
AcDbSymbolTable
0
ENDTAB
0
TABLE
2
LTYPE
5
5
100
AcDbSymbolTable
0
LTYPE
5
14
100
AcDbSymbolTableRecord
100
AcDbLinetypeTableRecord
2
BYBLOCK
70
0
0
LTYPE
5
15
100
AcDbSymbolTableRecord
100
AcDbLinetypeTableRecord
2
BYLAYER
70
0
0
LTYPE
5
16
100
AcDbSymbolTableRecord
100
AcDbLinetypeTableRecord
2
DASHED
70
0
3
Dashed __ __ __ __ __ __ __ __ __ __ __ __ __ _
72
65
73
2
40
0.75
49
0.5
74
0
49
-0.25
74
0
0
ENDTAB
0
TABLE
2
LAYER
5
2
100
AcDbSymbolTable
70
2
0
LAYER
5
50
100
AcDbSymbolTableRecord
100
AcDbLayerTableRecord
2
0
70
0
62
7
6
CONTINUOUS
0
ENDTAB
0
TABLE
2
STYLE
5
3
100
AcDbSymbolTable
70
1
0
STYLE
5
11
100
AcDbSymbolTableRecord
100
AcDbTextStyleTableRecord
2
STANDARD
70
0
0
ENDTAB
0
TABLE
2
VIEW
5
6
100
AcDbSymbolTable
70
0
0
ENDTAB
0
TABLE
2
UCS
5
7
100
AcDbSymbolTable
70
0
0
ENDTAB
0
TABLE
2
APPID
5
9
100
AcDbSymbolTable
70
2
0
APPID
5
12
100
AcDbSymbolTableRecord
100
AcDbRegAppTableRecord
2
ACAD
70
0
0
ENDTAB
0
TABLE
2
DIMSTYLE
5
A
100
AcDbSymbolTable
70
1
0
ENDTAB
0
TABLE
2
BLOCK_RECORD
5
1
100
AcDbSymbolTable
70
1
0
BLOCK_RECORD
5
1F
100
AcDbSymbolTableRecord
100
AcDbBlockTableRecord
2
*MODEL_SPACE
0
BLOCK_RECORD
5
1B
100
AcDbSymbolTableRecord
100
AcDbBlockTableRecord
2
*PAPER_SPACE
0
ENDTAB
0
ENDSEC
0
SECTION
2
BLOCKS
0
BLOCK
5
20
100
AcDbEntity
100
AcDbBlockBegin
2
*MODEL_SPACE
0
ENDBLK
5
21
100
AcDbEntity
100
AcDbBlockEnd
0
BLOCK
5
1C
100
AcDbEntity
100
AcDbBlockBegin
2
*PAPER_SPACE
0
ENDBLK
5
1D
100
AcDbEntity
100
AcDbBlockEnd
0
ENDSEC
0
SECTION
2
ENTITIES
0
SPLINE
5
100
100
AcDbEntity
8
0
100
AcDbSpline
70
6
71
5
72
671
73
665
74
0
42
0.000000001
43
0.0000000001
44
0.0000000001
40
0
40
0
40
0
40
0
40
0
40
0
40
0.0015151515151515152
40
0.0030303030303030303
40
0.0045454545454545452
40
0.0060606060606060606
40
0.007575757575757576
40
0.0090909090909090905
40
0.010606060606060605
40
0.012121212121212119
40
0.013636363636363634
40
0.015151515151515148
40
0.016666666666666663
40
0.018181818181818177
40
0.019696969696969692
40
0.021212121212121206
40
0.022727272727272721
40
0.024242424242424235
40
0.02575757575757575
40
0.027272727272727264
40
0.028787878787878779
40
0.030303030303030293
40
0.031818181818181808
40
0.033333333333333326
40
0.034848484848484844
40
0.036363636363636362
40
0.03787878787878788
40
0.039393939393939398
40
0.040909090909090916
40
0.042424242424242434
40
0.043939393939393952
40
0.04545454545454547
40
0.046969696969696988
40
0.048484848484848506
40
0.050000000000000024
40
0.051515151515151542
40
0.05303030303030306
40
0.054545454545454577
40
0.056060606060606095
40
0.057575757575757613
40
0.059090909090909131
40
0.060606060606060649
40
0.062121212121212167
40
0.063636363636363685
40
0.065151515151515196
40
0.066666666666666707
40
0.068181818181818218
40
0.069696969696969729
40
0.07121212121212124
40
0.072727272727272751
40
0.074242424242424263
40
0.075757575757575774
40
0.077272727272727285
40
0.078787878787878796
40
0.080303030303030307
40
0.081818181818181818
40
0.083333333333333329
40
0.08484848484848484
40
0.086363636363636351
40
0.087878787878787862
40
0.089393939393939373
40
0.090909090909090884
40
0.092424242424242395
40
0.093939393939393906
40
0.095454545454545417
40
0.096969696969696928
40
0.098484848484848439
40
0.09999999999999995
40
0.10151515151515146
40
0.10303030303030297
40
0.10454545454545448
40
0.10606060606060599
40
0.10757575757575751
40
0.10909090909090902
40
0.11060606060606053
40
0.11212121212121204
40
0.11363636363636355
40
0.11515151515151506
40
0.11666666666666657
40
0.11818181818181808
40
0.11969696969696959
40
0.1212121212121211
40
0.12272727272727262
40
0.12424242424242413
40
0.12575757575757565
40
0.12727272727272718
40
0.1287878787878787
40
0.13030303030303023
40
0.13181818181818175
40
0.13333333333333328
40
0.1348484848484848
40
0.13636363636363633
40
0.13787878787878785
40
0.13939393939393938
40
0.1409090909090909
40
0.14242424242424243
40
0.14393939393939395
40
0.14545454545454548
40
0.146969696969697
40
0.14848484848484853
40
0.15000000000000005
40
0.15151515151515157
40
0.1530303030303031
40
0.15454545454545462
40
0.15606060606060615
40
0.15757575757575767
40
0.1590909090909092
40
0.16060606060606072
40
0.16212121212121225
40
0.16363636363636377
40
0.1651515151515153
40
0.16666666666666682
40
0.16818181818181835
40
0.16969696969696987
40
0.1712121212121214
40
0.17272727272727292
40
0.17424242424242445
40
0.17575757575757597
40
0.1772727272727275
40
0.17878787878787902
40
0.18030303030303055
40
0.18181818181818207
40
0.1833333333333336
40
0.18484848484848512
40
0.18636363636363665
40
0.18787878787878817
40
0.1893939393939397
40
0.19090909090909122
40
0.19242424242424275
40
0.19393939393939427
40
0.1954545454545458
40
0.19696969696969732
40
0.19848484848484885
40
0.20000000000000037
40
0.2015151515151519
40
0.20303030303030342
40
0.20454545454545495
40
0.20606060606060647
40
0.207575757575758
40
0.20909090909090952
40
0.21060606060606105
40
0.21212121212121257
40
0.2136363636363641
40
0.21515151515151562
40
0.21666666666666715
40
0.21818181818181867
40
0.2196969696969702
40
0.22121212121212172
40
0.22272727272727325
40
0.22424242424242477
40
0.2257575757575763
40
0.22727272727272782
40
0.22878787878787935
40
0.23030303030303087
40
0.23181818181818239
40
0.23333333333333392
40
0.23484848484848544
40
0.23636363636363697
40
0.23787878787878849
40
0.23939393939394002
40
0.24090909090909154
40
0.24242424242424307
40
0.24393939393939459
40
0.24545454545454612
40
0.24696969696969764
40
0.24848484848484917
40
0.25000000000000067
40
0.25151515151515219
40
0.25303030303030372
40
0.25454545454545524
40
0.25606060606060677
40
0.25757575757575829
40
0.25909090909090982
40
0.26060606060606134
40
0.26212121212121287
40
0.26363636363636439
40
0.26515151515151592
40
0.26666666666666744
40
0.26818181818181897
40
0.26969696969697049
40
0.27121212121212201
40
0.27272727272727354
40
0.27424242424242506
40
0.27575757575757659
40
0.27727272727272811
40
0.27878787878787964
40
0.28030303030303116
40
0.28181818181818269
40
0.28333333333333421
40
0.28484848484848574
40
0.28636363636363726
40
0.28787878787878879
40
0.28939393939394031
40
0.29090909090909184
40
0.29242424242424336
40
0.29393939393939489
40
0.29545454545454641
40
0.29696969696969794
40
0.29848484848484946
40
0.30000000000000099
40
0.30151515151515251
40
0.30303030303030404
40
0.30454545454545556
40
0.30606060606060709
40
0.30757575757575861
40
0.30909090909091014
40
0.31060606060606166
40
0.31212121212121319
40
0.31363636363636471
40
0.31515151515151624
40
0.31666666666666776
40
0.31818181818181929
40
0.31969696969697081
40
0.32121212121212234
40
0.32272727272727386
40
0.32424242424242539
40
0.32575757575757691
40
0.32727272727272844
40
0.32878787878787996
40
0.33030303030303149
40
0.33181818181818301
40
0.33333333333333454
40
0.33484848484848606
40
0.33636363636363759
40
0.33787878787878911
40
0.33939393939394064
40
0.34090909090909216
40
0.34242424242424369
40
0.34393939393939521
40
0.34545454545454674
40
0.34696969696969826
40
0.34848484848484979
40
0.35000000000000131
40
0.35151515151515283
40
0.35303030303030436
40
0.35454545454545588
40
0.35606060606060741
40
0.35757575757575893
40
0.35909090909091046
40
0.36060606060606198
40
0.36212121212121351
40
0.36363636363636503
40
0.36515151515151656
40
0.36666666666666808
40
0.36818181818181961
40
0.36969696969697113
40
0.37121212121212266
40
0.37272727272727418
40
0.37424242424242571
40
0.37575757575757723
40
0.37727272727272876
40
0.37878787878788028
40
0.38030303030303181
40
0.38181818181818333
40
0.38333333333333486
40
0.38484848484848638
40
0.38636363636363791
40
0.38787878787878943
40
0.38939393939394096
40
0.39090909090909248
40
0.39242424242424401
40
0.39393939393939553
40
0.39545454545454706
40
0.39696969696969858
40
0.39848484848485011
40
0.40000000000000163
40
0.40151515151515316
40
0.40303030303030468
40
0.40454545454545621
40
0.40606060606060773
40
0.40757575757575926
40
0.40909090909091078
40
0.41060606060606231
40
0.41212121212121383
40
0.41363636363636536
40
0.41515151515151688
40
0.41666666666666841
40
0.41818181818181993
40
0.41969696969697146
40
0.42121212121212298
40
0.42272727272727451
40
0.42424242424242603
40
0.42575757575757756
40
0.42727272727272908
40
0.42878787878788061
40
0.43030303030303213
40
0.43181818181818366
40
0.43333333333333518
40
0.4348484848484867
40
0.43636363636363823
40
0.43787878787878975
40
0.43939393939394128
40
0.4409090909090928
40
0.44242424242424433
40
0.44393939393939585
40
0.44545454545454738
40
0.4469696969696989
40
0.44848484848485043
40
0.45000000000000195
40
0.45151515151515348
40
0.453030303030305
40
0.45454545454545653
40
0.45606060606060805
40
0.45757575757575958
40
0.4590909090909111
40
0.46060606060606263
40
0.46212121212121415
40
0.46363636363636568
40
0.4651515151515172
40
0.46666666666666873
40
0.46818181818182025
40
0.46969696969697178
40
0.4712121212121233
40
0.47272727272727483
40
0.47424242424242635
40
0.47575757575757788
40
0.4772727272727294
40
0.47878787878788093
40
0.48030303030303245
40
0.48181818181818398
40
0.4833333333333355
40
0.48484848484848703
40
0.48636363636363855
40
0.48787878787879008
40
0.4893939393939416
40
0.49090909090909313
40
0.49242424242424465
40
0.49393939393939618
40
0.4954545454545477
40
0.49696969696969923
40
0.49848484848485075
40
0.50000000000000222
40
0.50151515151515369
40
0.50303030303030516
40
0.50454545454545663
40
0.5060606060606081
40
0.50757575757575957
40
0.50909090909091104
40
0.51060606060606251
40
0.51212121212121398
40
0.51363636363636545
40
0.51515151515151691
40
0.51666666666666838
40
0.51818181818181985
40
0.51969696969697132
40
0.52121212121212279
40
0.52272727272727426
40
0.52424242424242573
40
0.5257575757575772
40
0.52727272727272867
40
0.52878787878788014
40
0.53030303030303161
40
0.53181818181818308
40
0.53333333333333455
40
0.53484848484848602
40
0.53636363636363749
40
0.53787878787878896
40
0.53939393939394042
40
0.54090909090909189
40
0.54242424242424336
40
0.54393939393939483
40
0.5454545454545463
40
0.54696969696969777
40
0.54848484848484924
40
0.55000000000000071
40
0.55151515151515218
40
0.55303030303030365
40
0.55454545454545512
40
0.55606060606060659
40
0.55757575757575806
40
0.55909090909090953
40
0.560606060606061
40
0.56212121212121247
40
0.56363636363636394
40
0.5651515151515154
40
0.56666666666666687
40
0.56818181818181834
40
0.56969696969696981
40
0.57121212121212128
40
0.57272727272727275
40
0.57424242424242422
40
0.57575757575757569
40
0.57727272727272716
40
0.57878787878787863
40
0.5803030303030301
40
0.58181818181818157
40
0.58333333333333304
40
0.58484848484848451
40
0.58636363636363598
40
0.58787878787878745
40
0.58939393939393891
40
0.59090909090909038
40
0.59242424242424185
40
0.59393939393939332
40
0.59545454545454479
40
0.59696969696969626
40
0.59848484848484773
40
0.5999999999999992
40
0.60151515151515067
40
0.60303030303030214
40
0.60454545454545361
40
0.60606060606060508
40
0.60757575757575655
40
0.60909090909090802
40
0.61060606060605949
40
0.61212121212121096
40
0.61363636363636243
40
0.61515151515151389
40
0.61666666666666536
40
0.61818181818181683
40
0.6196969696969683
40
0.62121212121211977
40
0.62272727272727124
40
0.62424242424242271
40
0.62575757575757418
40
0.62727272727272565
40
0.62878787878787712
40
0.63030303030302859
40
0.63181818181818006
40
0.63333333333333153
40
0.634848484848483
40
0.63636363636363447
40
0.63787878787878594
40
0.6393939393939374
40
0.64090909090908887
40
0.64242424242424034
40
0.64393939393939181
40
0.64545454545454328
40
0.64696969696969475
40
0.64848484848484622
40
0.64999999999999769
40
0.65151515151514916
40
0.65303030303030063
40
0.6545454545454521
40
0.65606060606060357
40
0.65757575757575504
40
0.65909090909090651
40
0.66060606060605798
40
0.66212121212120945
40
0.66363636363636092
40
0.66515151515151238
40
0.66666666666666385
40
0.66818181818181532
40
0.66969696969696679
40
0.67121212121211826
40
0.67272727272726973
40
0.6742424242424212
40
0.67575757575757267
40
0.67727272727272414
40
0.67878787878787561
40
0.68030303030302708
40
0.68181818181817855
40
0.68333333333333002
40
0.68484848484848149
40
0.68636363636363296
40
0.68787878787878443
40
0.6893939393939359
40
0.69090909090908736
40
0.69242424242423883
40
0.6939393939393903
40
0.69545454545454177
40
0.69696969696969324
40
0.69848484848484471
40
0.69999999999999618
40
0.70151515151514765
40
0.70303030303029912
40
0.70454545454545059
40
0.70606060606060206
40
0.70757575757575353
40
0.709090909090905
40
0.71060606060605647
40
0.71212121212120794
40
0.71363636363635941
40
0.71515151515151087
40
0.71666666666666234
40
0.71818181818181381
40
0.71969696969696528
40
0.72121212121211675
40
0.72272727272726822
40
0.72424242424241969
40
0.72575757575757116
40
0.72727272727272263
40
0.7287878787878741
40
0.73030303030302557
40
0.73181818181817704
40
0.73333333333332851
40
0.73484848484847998
40
0.73636363636363145
40
0.73787878787878292
40
0.73939393939393439
40
0.74090909090908585
40
0.74242424242423732
40
0.74393939393938879
40
0.74545454545454026
40
0.74696969696969173
40
0.7484848484848432
40
0.74999999999999467
40
0.75151515151514614
40
0.75303030303029761
40
0.75454545454544908
40
0.75606060606060055
40
0.75757575757575202
40
0.75909090909090349
40
0.76060606060605496
40
0.76212121212120643
40
0.7636363636363579
40
0.76515151515150936
40
0.76666666666666083
40
0.7681818181818123
40
0.76969696969696377
40
0.77121212121211524
40
0.77272727272726671
40
0.77424242424241818
40
0.77575757575756965
40
0.77727272727272112
40
0.77878787878787259
40
0.78030303030302406
40
0.78181818181817553
40
0.783333333333327
40
0.78484848484847847
40
0.78636363636362994
40
0.78787878787878141
40
0.78939393939393288
40
0.79090909090908434
40
0.79242424242423581
40
0.79393939393938728
40
0.79545454545453875
40
0.79696969696969022
40
0.79848484848484169
40
0.79999999999999316
40
0.80151515151514463
40
0.8030303030302961
40
0.80454545454544757
40
0.80606060606059904
40
0.80757575757575051
40
0.80909090909090198
40
0.81060606060605345
40
0.81212121212120492
40
0.81363636363635639
40
0.81515151515150785
40
0.81666666666665932
40
0.81818181818181079
40
0.81969696969696226
40
0.82121212121211373
40
0.8227272727272652
40
0.82424242424241667
40
0.82575757575756814
40
0.82727272727271961
40
0.82878787878787108
40
0.83030303030302255
40
0.83181818181817402
40
0.83333333333332549
40
0.83484848484847696
40
0.83636363636362843
40
0.8378787878787799
40
0.83939393939393137
40
0.84090909090908283
40
0.8424242424242343
40
0.84393939393938577
40
0.84545454545453724
40
0.84696969696968871
40
0.84848484848484018
40
0.84999999999999165
40
0.85151515151514312
40
0.85303030303029459
40
0.85454545454544606
40
0.85606060606059753
40
0.857575757575749
40
0.85909090909090047
40
0.86060606060605194
40
0.86212121212120341
40
0.86363636363635488
40
0.86515151515150635
40
0.86666666666665781
40
0.86818181818180928
40
0.86969696969696075
40
0.87121212121211222
40
0.87272727272726369
40
0.87424242424241516
40
0.87575757575756663
40
0.8772727272727181
40
0.87878787878786957
40
0.88030303030302104
40
0.88181818181817251
40
0.88333333333332398
40
0.88484848484847545
40
0.88636363636362692
40
0.88787878787877839
40
0.88939393939392986
40
0.89090909090908132
40
0.89242424242423279
40
0.89393939393938426
40
0.89545454545453573
40
0.8969696969696872
40
0.89848484848483867
40
0.89999999999999014
40
0.90151515151514161
40
0.90303030303029308
40
0.90454545454544455
40
0.90606060606059602
40
0.90757575757574749
40
0.90909090909089896
40
0.91060606060605043
40
0.9121212121212019
40
0.91363636363635337
40
0.91515151515150484
40
0.9166666666666563
40
0.91818181818180777
40
0.91969696969695924
40
0.92121212121211071
40
0.92272727272726218
40
0.92424242424241365
40
0.92575757575756512
40
0.92727272727271659
40
0.92878787878786806
40
0.93030303030301953
40
0.931818181818171
40
0.93333333333332247
40
0.93484848484847394
40
0.93636363636362541
40
0.93787878787877688
40
0.93939393939392835
40
0.94090909090907981
40
0.94242424242423128
40
0.94393939393938275
40
0.94545454545453422
40
0.94696969696968569
40
0.94848484848483716
40
0.94999999999998863
40
0.9515151515151401
40
0.95303030303029157
40
0.95454545454544304
40
0.95606060606059451
40
0.95757575757574598
40
0.95909090909089745
40
0.96060606060604892
40
0.96212121212120039
40
0.96363636363635186
40
0.96515151515150333
40
0.96666666666665479
40
0.96818181818180626
40
0.96969696969695773
40
0.9712121212121092
40
0.97272727272726067
40
0.97424242424241214
40
0.97575757575756361
40
0.97727272727271508
40
0.97878787878786655
40
0.98030303030301802
40
0.98181818181816949
40
0.98333333333332096
40
0.98484848484847243
40
0.9863636363636239
40
0.98787878787877537
40
0.98939393939392684
40
0.99090909090907831
40
0.99242424242422977
40
0.99393939393938124
40
0.99545454545453271
40
0.99696969696968418
40
0.99848484848483565
40
1
40
1
40
1
40
1
40
1
40
1
41
1
41
1
41
1
41
1
41
1
41
1
41
1
41
1
41
1
41
1
41
1
41
1
41
1
41
1
41
1
41
1
41
1
41
1
41
1
41
1
41
1
41
1
41
1
41
1
41
1
41
1
41
1
41
1
41
1
41
1
41
1
41
1
41
1
41
1
41
1
41
1
41
1
41
1
41
1
41
1
41
1
41
1
41
1
41
1
41
1
41
1
41
1
41
1
41
1
41
1
41
1
41
1
41
1
41
1
41
1
41
1
41
1
41
1
41
1
41
1
41
1
41
1
41
1
41
1
41
1
41
1
41
1
41
1
41
1
41
1
41
1
41
1
41
1
41
1
41
1
41
1
41
1
41
1
41
1
41
1
41
1
41
1
41
1
41
1
41
1
41
1
41
1
41
1
41
1
41
1
41
1
41
1
41
1
41
1
41
1
41
1
41
1
41
1
41
1
41
1
41
1
41
1
41
1
41
1
41
1
41
1
41
1
41
1
41
1
41
1
41
1
41
1
41
1
41
1
41
1
41
1
41
1
41
1
41
1
41
1
41
1
41
1
41
1
41
1
41
1
41
1
41
1
41
1
41
1
41
1
41
1
41
1
41
1
41
1
41
1
41
1
41
1
41
1
41
1
41
1
41
1
41
1
41
1
41
1
41
1
41
1
41
1
41
1
41
1
41
1
41
1
41
1
41
1
41
1
41
1
41
1
41
1
41
1
41
1
41
1
41
1
41
1
41
1
41
1
41
1
41
1
41
1
41
1
41
1
41
1
41
1
41
1
41
1
41
1
41
1
41
1
41
1
41
1
41
1
41
1
41
1
41
1
41
1
41
1
41
1
41
1
41
1
41
1
41
1
41
1
41
1
41
1
41
1
41
1
41
1
41
1
41
1
41
1
41
1
41
1
41
1
41
1
41
1
41
1
41
1
41
1
41
1
41
1
41
1
41
1
41
1
41
1
41
1
41
1
41
1
41
1
41
1
41
1
41
1
41
1
41
1
41
1
41
1
41
1
41
1
41
1
41
1
41
1
41
1
41
1
41
1
41
1
41
1
41
1
41
1
41
1
41
1
41
1
41
1
41
1
41
1
41
1
41
1
41
1
41
1
41
1
41
1
41
1
41
1
41
1
41
1
41
1
41
1
41
1
41
1
41
1
41
1
41
1
41
1
41
1
41
1
41
1
41
1
41
1
41
1
41
1
41
1
41
1
41
1
41
1
41
1
41
1
41
1
41
1
41
1
41
1
41
1
41
1
41
1
41
1
41
1
41
1
41
1
41
1
41
1
41
1
41
1
41
1
41
1
41
1
41
1
41
1
41
1
41
1
41
1
41
1
41
1
41
1
41
1
41
1
41
1
41
1
41
1
41
1
41
1
41
1
41
1
41
1
41
1
41
1
41
1
41
1
41
1
41
1
41
1
41
1
41
1
41
1
41
1
41
1
41
1
41
1
41
1
41
1
41
1
41
1
41
1
41
1
41
1
41
1
41
1
41
1
41
1
41
1
41
1
41
1
41
1
41
1
41
1
41
1
41
1
41
1
41
1
41
1
41
1
41
1
41
1
41
1
41
1
41
1
41
1
41
1
41
1
41
1
41
1
41
1
41
1
41
1
41
1
41
1
41
1
41
1
41
1
41
1
41
1
41
1
41
1
41
1
41
1
41
1
41
1
41
1
41
1
41
1
41
1
41
1
41
1
41
1
41
1
41
1
41
1
41
1
41
1
41
1
41
1
41
1
41
1
41
1
41
1
41
1
41
1
41
1
41
1
41
1
41
1
41
1
41
1
41
1
41
1
41
1
41
1
41
1
41
1
41
1
41
1
41
1
41
1
41
1
41
1
41
1
41
1
41
1
41
1
41
1
41
1
41
1
41
1
41
1
41
1
41
1
41
1
41
1
41
1
41
1
41
1
41
1
41
1
41
1
41
1
41
1
41
1
41
1
41
1
41
1
41
1
41
1
41
1
41
1
41
1
41
1
41
1
41
1
41
1
41
1
41
1
41
1
41
1
41
1
41
1
41
1
41
1
41
1
41
1
41
1
41
1
41
1
41
1
41
1
41
1
41
1
41
1
41
1
41
1
41
1
41
1
41
1
41
1
41
1
41
1
41
1
41
1
41
1
41
1
41
1
41
1
41
1
41
1
41
1
41
1
41
1
41
1
41
1
41
1
41
1
41
1
41
1
41
1
41
1
41
1
41
1
41
1
41
1
41
1
41
1
41
1
41
1
41
1
41
1
41
1
41
1
41
1
41
1
41
1
41
1
41
1
41
1
41
1
41
1
41
1
41
1
41
1
41
1
41
1
41
1
41
1
41
1
41
1
41
1
41
1
41
1
41
1
41
1
41
1
41
1
41
1
41
1
41
1
41
1
41
1
41
1
41
1
41
1
41
1
41
1
41
1
41
1
41
1
41
1
41
1
41
1
41
1
41
1
41
1
41
1
41
1
41
1
41
1
41
1
41
1
41
1
41
1
41
1
41
1
41
1
41
1
41
1
41
1
41
1
41
1
41
1
41
1
41
1
41
1
41
1
41
1
41
1
41
1
41
1
41
1
41
1
41
1
41
1
41
1
41
1
41
1
41
1
41
1
41
1
41
1
41
1
41
1
41
1
41
1
41
1
41
1
41
1
41
1
41
1
41
1
41
1
41
1
41
1
41
1
41
1
41
1
41
1
41
1
41
1
41
1
41
1
41
1
41
1
41
1
41
1
41
1
41
1
41
1
41
1
41
1
41
1
41
1
41
1
41
1
41
1
41
1
41
1
41
1
41
1
41
1
41
1
41
1
41
1
41
1
41
1
41
1
41
1
41
1
41
1
41
1
41
1
41
1
41
1
41
1
41
1
41
1
41
1
41
1
41
1
41
1
41
1
41
1
41
1
41
1
41
1
41
1
41
1
41
1
41
1
41
1
41
1
41
1
41
1
41
1
41
1
41
1
41
1
41
1
41
1
41
1
41
1
41
1
41
1
41
1
41
1
41
1
10
19.244499999999999
20
-104.3479
30
0
10
19.151742183034585
20
-104.36543574743034
30
0
10
18.965316839967556
20
-104.39554637985141
30
0
10
18.68347109860386
20
-104.4258340613864
30
0
10
18.305157156841226
20
-104.43661984612497
30
0
10
17.832603778511515
20
-104.40140412929993
30
0
10
17.365731504546581
20
-104.31783593721656
30
0
10
16.911046350817031
20
-104.18576986929132
30
0
10
16.474633129797763
20
-104.00562581987984
30
0
10
16.060257059225435
20
-103.77945185317162
30
0
10
15.669340923388626
20
-103.51136657904873
30
0
10
15.30318778015863
20
-103.2067378254102
30
0
10
14.965844007095706
20
-102.87187563592725
30
0
10
14.661986282126382
20
-102.51275198262101
30
0
10
14.39212205370216
20
-102.133629012284
30
0
10
14.147002852523622
20
-101.73494675659973
30
0
10
13.914014282031273
20
-101.31718307099618
30
0
10
13.686840295790621
20
-100.88641690824156
30
0
10
13.473898312441241
20
-100.45895084989083
30
0
10
13.287806490295031
20
-100.04702405016408
30
0
10
13.132830687948861
20
-99.640897031620241
30
0
10
12.997146885432009
20
-99.200491152387769
30
0
10
12.864435753251076
20
-98.683711874730875
30
0
10
12.724815772806664
20
-98.075693332896336
30
0
10
12.580083370271517
20
-97.399545808015546
30
0
10
12.436937455758981
20
-96.690386556644143
30
0
10
12.30342876452703
20
-95.979837910270646
30
0
10
12.183249323005734
20
-95.272087092095902
30
0
10
12.07400963019364
20
-94.538610467109834
30
0
10
11.970060363455664
20
-93.73549074695984
30
0
10
11.864309712487781
20
-92.815847922646498
30
0
10
11.750283185656871
20
-91.743040780726218
30
0
10
11.624480140552254
20
-90.506509801072767
30
0
10
11.486811844757893
20
-89.123194838353555
30
0
10
11.339611899026643
20
-87.628436176012329
30
0
10
11.187074224385999
20
-86.070021202990205
30
0
10
11.034512070730818
20
-84.500900178276794
30
0
10
10.887699357066792
20
-82.972547708729536
30
0
10
10.752163648224339
20
-81.527872227270393
30
0
10
10.632530102065214
20
-80.194725619032866
30
0
10
10.531771137822609
20
-78.978181225908216
30
0
10
10.450718597995358
20
-77.856325782479502
30
0
10
10.38858457890861
20
-76.789579705779673
30
0
10
10.343331419247079
20
-75.728026724656544
30
0
10
10.312096978009272
20
-74.619401714904996
30
0
10
10.291604698262047
20
-73.417071773677378
30
0
10
10.278560721791138
20
-72.087382442798557
30
0
10
10.270104019902018
20
-70.618830416881423
30
0
10
10.264069297123557
20
-69.025069203714168
30
0
10
10.258928070060193
20
-67.337404434432926
30
0
10
10.253803353596286
20
-65.599682168250894
30
0
10
10.248454495288833
20
-63.862222699332918
30
0
10
10.243275356593873
20
-62.176144788408024
30
0
10
10.239285431320511
20
-60.587563205313401
30
0
10
10.23812710474305
20
-59.13174493156631
30
0
10
10.242053084117959
20
-57.827506172086061
30
0
10
10.253935217834531
20
-56.670973511136467
30
0
10
10.277214124751362
20
-55.631171325415245
30
0
10
10.3154008278416
20
-54.65962246408823
30
0
10
10.371618708289326
20
-53.698635930828857
30
0
10
10.448135590859861
20
-52.690023820045873
30
0
10
10.545887284238233
20
-51.583804207137987
30
0
10
10.66403471529644
20
-50.346513770284666
30
0
10
10.799426705022373
20
-48.970746142141877
30
0
10
10.947082961993193
20
-47.471193840798563
30
0
10
11.100805667344449
20
-45.878984418280318
30
0
10
11.253745070554128
20
-44.236625100922907
30
0
10
11.398985168423476
20
-42.59268592526881
30
0
10
11.530119096056197
20
-40.996607531545493
30
0
10
11.64183279631095
20
-39.493427047608009
30
0
10
11.730476191039756
20
-38.118605040612835
30
0
10
11.794661019408611
20
-36.892652291403728
30
0
10
11.835786728481569
20
-35.816289807180702
30
0
10
11.857239079612633
20
-34.875625365954399
30
0
10
11.863658390302032
20
-34.04675135143836
30
0
10
11.860169360487694
20
-33.300758817872648
30
0
10
11.851654991318215
20
-32.608122599733306
30
0
10
11.841943792351
20
-31.944470182570672
30
0
10
11.83328165306165
20
-31.291432303038206
30
0
10
11.826047046809464
20
-30.63150153486604
30
0
10
11.818507173469111
20
-29.945108470275869
30
0
10
11.806316631848015
20
-29.20529828105364
30
0
10
11.783089721868873
20
-28.37942217068413
30
0
10
11.742003217997258
20
-27.437080427762876
30
0
10
11.677102479745884
20
-26.356294919142186
30
0
10
11.584754152478808
20
-25.130543557074027
30
0
10
11.464977473183582
20
-23.77510310038517
30
0
10
11.322986098095347
20
-22.334560596297077
30
0
10
11.167493021353474
20
-20.872530934272518
30
0
10
11.008814933438561
20
-19.460282581673852
30
0
10
10.857017425150993
20
-18.165567662877294
30
0
10
10.720113862683329
20
-17.041791995384752
30
0
10
10.602077009171392
20
-16.11605211142026
30
0
10
10.501315194753074
20
-15.379967720653859
30
0
10
10.407989847783023
20
-14.773548796421165
30
0
10
10.305945592841601
20
-14.196780874677899
30
0
10
10.178794819968056
20
-13.546147371387349
30
0
10
10.014279320327212
20
-12.740848254873622
30
0
10
9.8106095583645683
20
-11.760784177145275
30
0
10
9.5762646406560865
20
-10.645727494631931
30
0
10
9.3255172193067111
20
-9.4691059919796743
30
0
10
9.075271199426016
20
-8.3196268290698612
30
0
10
8.8412370429915228
20
-7.2788501056582255
30
0
10
8.6346720406821049
20
-6.4023955849159329
30
0
10
8.4581954110292461
20
-5.6949790306587484
30
0
10
8.3043111503826896
20
-5.1037767483051493
30
0
10
8.1591411094755824
20
-4.5479673051302978
30
0
10
8.0049573675143506
20
-3.9389886580475646
30
0
10
7.8233715744018619
20
-3.207836477605357
30
0
10
7.5976288507865499
20
-2.3178302411506437
30
0
10
7.313838296983473
20
-1.2569801511918675
30
0
10
6.9624704153853152
20
-0.035007874349630014
30
0
10
6.5396743460299263
20
1.32149524933982
30
0
10
6.0488411696516415
20
2.7731274463525795
30
0
10
5.5016666908609988
20
4.2720397158667254
30
0
10
4.920412944547806
20
5.766249379522451
30
0
10
4.3354737852999232
20
7.2036181100361905
30
0
10
3.779273482893621
20
8.535440693678142
30
0
10
3.2811247908333714
20
9.7202170132650316
30
0
10
2.8618951808855324
20
10.727201334962611
30
0
10
2.5282887995935779
20
11.540386114153474
30
0
10
2.2683781172084054
20
12.161510888649499
30
0
10
2.0440226566649802
20
12.615362128353345
30
0
10
1.7919137833377552
20
12.948793234677328
30
0
10
1.4558694895349706
20
13.207077741228444
30
0
10
1.0247607561865733
20
13.40614066719267
30
0
10
0.5397024676970873
20
13.527201682828665
30
0
10
0.052954010019302403
20
13.546599022292408
30
0
10
-0.41151818157801895
20
13.464437877653877
30
0
10
-0.85870276539993085
20
13.304685253327733
30
0
10
-1.2955067523334449
20
13.094357189302585
30
0
10
-1.7075991769511818
20
12.846695260809229
30
0
10
-2.0699053121696935
20
12.561202849985866
30
0
10
-2.367542216207505
20
12.229402036231054
30
0
10
-2.612763218521494
20
11.838601276115339
30
0
10
-2.8338819262076553
20
11.377303508745172
30
0
10
-3.0631048832685206
20
10.840685081820405
30
0
10
-3.3263756402808413
20
10.234936073067896
30
0
10
-3.6395424178734248
20
9.5770060476562797
30
0
10
-4.0042893807901576
20
8.8944615723184999
30
0
10
-4.4027097132800108
20
8.2265671508358356
30
0
10
-4.7970326350292662
20
7.6207665743182762
30
0
10
-5.1478502629577152
20
7.1113686789227106
30
0
10
-5.4273952283164419
20
6.7041120335087703
30
0
10
-5.6385476946321162
20
6.3523589979293433
30
0
10
-5.8195849501545371
20
5.9557075172222298
30
0
10
-6.0190499856136821
20
5.4052574275001506
30
0
10
-6.2723299562675026
20
4.6276249229393427
30
0
10
-6.5918718751205017
20
3.6019540109006738
30
0
10
-6.9749136255106485
20
2.3436215704824264
30
0
10
-7.4063219319199742
20
0.89719601539049387
30
0
10
-7.8634690966550327
20
-0.67445945401580676
30
0
10
-8.3201646865929888
20
-2.2992900173133672
30
0
10
-8.7511596285444053
20
-3.9062526771823998
30
0
10
-9.1360157427598452
20
-5.4342766535058953
30
0
10
-9.4642228226893224
20
-6.8436904541646628
30
0
10
-9.7352988376881839
20
-8.1177015439718208
30
0
10
-9.9556700032710985
20
-9.2574698454499114
30
0
10
-10.136498781449442
20
-10.279096422108623
30
0
10
-10.291153460491618
20
-11.209823182806463
30
0
10
-10.432755573862785
20
-12.084567408794719
30
0
10
-10.571871957494194
20
-12.942320797853856
30
0
10
-10.713682822663074
20
-13.822586129691089
30
0
10
-10.858542186325376
20
-14.761893957815692
30
0
10
-11.003553604428673
20
-15.790286233476438
30
0
10
-11.143783577089692
20
-16.927944024484553
30
0
10
-11.273673874214399
20
-18.181456014925821
30
0
10
-11.388258474117134
20
-19.540935813178425
30
0
10
-11.484737124448587
20
-20.975051992831858
30
0
10
-11.562787713763214
20
-22.433950514643239
30
0
10
-11.623739550276461
20
-23.859380355369858
30
0
10
-11.670060041746531
20
-25.192862487530011
30
0
10
-11.704716888686079
20
-26.384571186973965
30
0
10
-11.730584823681067
20
-27.402115239451163
30
0
10
-11.749853630406665
20
-28.238885623175271
30
0
10
-11.763386786957934
20
-28.923729225163424
30
0
10
-11.770245639847897
20
-29.526670497656198
30
0
10
-11.768396414565983
20
-30.136335727740192
30
0
10
-11.755275993377142
20
-30.841092864016915
30
0
10
-11.728445425082992
20
-31.707236133954734
30
0
10
-11.686107670164628
20
-32.762929424768657
30
0
10
-11.627081784526865
20
-34.007250037630811
30
0
10
-11.550846472027249
20
-35.415934294468229
30
0
10
-11.457557921729338
20
-36.948425451620061
30
0
10
-11.348076164669582
20
-38.554310018114592
30
0
10
-11.223993425576591
20
-40.180148624366439
30
0
10
-11.087648461457436
20
-41.775829935519219
30
0
10
-10.942178731375199
20
-43.30187109746231
30
0
10
-10.791453698561513
20
-44.733919758807716
30
0
10
-10.639700795614708
20
-46.060121909407769
30
0
10
-10.491190471660847
20
-47.279841002333114
30
0
10
-10.349896332294303
20
-48.401843597682735
30
0
10
-10.219169283880136
20
-49.442708059736532
30
0
10
-10.101397807523194
20
-50.425148651668792
30
0
10
-9.9976926841479461
20
-51.376349644061875
30
0
10
-9.9075113842759439
20
-52.326367407315651
30
0
10
-9.8290657402758583
20
-53.305338084995732
30
0
10
-9.7598095809545722
20
-54.340523055569363
30
0
10
-9.696889835798892
20
-55.453492315252845
30
0
10
-9.6376307508745942
20
-56.657070575459159
30
0
10
-9.5799625385843949
20
-57.952803103065598
30
0
10
-9.5229788069715795
20
-59.327137606949798
30
0
10
-9.466895641094105
20
-60.753649607479552
30
0
10
-9.4127146081023643
20
-62.198271161930279
30
0
10
-9.3619796718374477
20
-63.623557173004201
30
0
10
-9.3164930489006874
20
-64.993393085693299
30
0
10
-9.2780534683846287
20
-66.277416791345857
30
0
10
-9.2481736727150992
20
-67.455787692206442
30
0
10
-9.2278329738756497
20
-68.523279945224743
30
0
10
-9.217147008495866
20
-69.495031522198175
30
0
10
-9.2155418825778792
20
-70.40213053429396
30
0
10
-9.2220688740300005
20
-71.284362921268169
30
0
10
-9.2356771096452146
20
-72.183813851918629
30
0
10
-9.2554921944802651
20
-73.138336255114936
30
0
10
-9.281119982504503
20
-74.174542213029355
30
0
10
-9.3128560533776135
20
-75.302609038600224
30
0
10
-9.351424312215677
20
-76.520149462453077
30
0
10
-9.3977799659976231
20
-77.814853706738802
30
0
10
-9.4528855393387072
20
-79.167622369094289
30
0
10
-9.5175027475503846
20
-80.555460171933774
30
0
10
-9.5919674037978027
20
-81.954541951562817
30
0
10
-9.6759954725146926
20
-83.343041140854396
30
0
10
-9.768413465096474
20
-84.70448708809441
30
0
10
-9.8674043551422592
20
-86.027571172593952
30
0
10
-9.9708728994904092
20
-87.305115158434688
30
0
10
-10.076775162316746
20
-88.53332393376661
30
0
10
-10.183451931172851
20
-89.71092259967557
30
0
10
-10.289986172669094
20
-90.83833504205225
30
0
10
-10.396490157494291
20
-91.91686386471234
30
0
10
-10.504569697018285
20
-92.947822983630445
30
0
10
-10.617182591767534
20
-93.931854932822304
30
0
10
-10.737604672413664
20
-94.868490900364307
30
0
10
-10.868637336759377
20
-95.755691078157781
30
0
10
-11.011662846615344
20
-96.589308460426906
30
0
10
-11.165891780469149
20
-97.362782083875388
30
0
10
-11.327191647397628
20
-98.066208801530067
30
0
10
-11.490213539643273
20
-98.690641645506105
30
0
10
-11.651271639862966
20
-99.2337057786267
30
0
10
-11.810739108925578
20
-99.704188507825648
30
0
10
-11.976223930923791
20
-100.12853758351019
30
0
10
-12.158361560130366
20
-100.53822333857936
30
0
10
-12.365384473407255
20
-100.95371553476241
30
0
10
-12.598694962201025
20
-101.37155702299029
30
0
10
-12.856406976562518
20
-101.77733286802049
30
0
10
-13.13698788477582
20
-102.15919737135955
30
0
10
-13.441508323936569
20
-102.51608906247073
30
0
10
-13.771632535051967
20
-102.85014335462036
30
0
10
-14.12808537162185
20
-103.16061576179679
30
0
10
-14.509937383814277
20
-103.44176305404505
30
0
10
-14.915297704977446
20
-103.68680202532651
30
0
10
-15.341710778165732
20
-103.89090246001217
30
0
10
-15.786242568215705
20
-104.05131889099833
30
0
10
-16.245266889684206
20
-104.16555713116615
30
0
10
-16.714340267733682
20
-104.22993939669482
30
0
10
-17.188102394754672
20
-104.24054428834836
30
0
10
-17.660142515493238
20
-104.19468133352862
30
0
10
-18.123008368352544
20
-104.09215030170878
30
0
10
-18.569714640664344
20
-103.93526931194764
30
0
10
-18.99549784851045
20
-103.72920355166747
30
0
10
-19.398626852141327
20
-103.48148501362031
30
0
10
-19.778647445036771
20
-103.19975974576609
30
0
10
-20.134724851293797
20
-102.88923429655361
30
0
10
-20.465132466511193
20
-102.55226626309103
30
0
10
-20.768264736981102
20
-102.19043428503936
30
0
10
-21.043458127224298
20
-101.80639702319696
30
0
10
-21.29088382400154
20
-101.40378026704636
30
0
10
-21.510855035779525
20
-100.98588919635347
30
0
10
-21.703236996357017
20
-100.5546315531688
30
0
10
-21.867685578767102
20
-100.11150784227661
30
0
10
-22.004065224672491
20
-99.659456719083835
30
0
10
-22.112804429543292
20
-99.203511276159134
30
0
10
-22.195113764975002
20
-98.739698318451957
30
0
10
-22.253258005151064
20
-98.242116405503225
30
0
10
-22.290649297665151
20
-97.656848395862824
30
0
10
-22.311324967635315
20
-96.919641955631903
30
0
10
-22.319549987051801
20
-95.968781874516722
30
0
10
-22.319325262550265
20
-94.76156677937945
30
0
10
-22.314079414455541
20
-93.283812187144633
30
0
10
-22.306775531781803
20
-91.543618471569133
30
0
10
-22.299940455640414
20
-89.568075203015113
30
0
10
-22.295724708169434
20
-87.39880374964649
30
0
10
-22.295949282933446
20
-85.087998713433848
30
0
10
-22.302158208614067
20
-82.694248402984243
30
0
10
-22.315668328030998
20
-80.278465793509142
30
0
10
-22.337620955904192
20
-77.899736596733689
30
0
10
-22.369031136803695
20
-75.611285172878752
30
0
10
-22.410841623930825
20
-73.456198699221645
30
0
10
-22.4639662039176
20
-71.463701323807399
30
0
10
-22.52935879753921
20
-69.644094809109959
30
0
10
-22.607991910033597
20
-67.988390967587108
30
0
10
-22.700726579376166
20
-66.47356895525968
30
0
10
-22.80820982882431
20
-65.066394479277704
30
0
10
-22.930761735296162
20
-63.727807708781292
30
0
10
-23.068265101555841
20
-62.417103749255681
30
0
10
-23.220058261094167
20
-61.096118594250974
30
0
10
-23.384816625585589
20
-59.733607369916001
30
0
10
-23.560462264203359
20
-58.309083889528949
30
0
10
-23.744002853862412
20
-56.818043319480751
30
0
10
-23.931686715449171
20
-55.270972178839969
30
0
10
-24.119335936546705
20
-53.68885289673451
30
0
10
-24.302625238444072
20
-52.099741149845542
30
0
10
-24.47738219472236
20
-50.534910704675411
30
0
10
-24.639880873162173
20
-49.025156705988415
30
0
10
-24.787132327331619
20
-47.597093700586314
30
0
10
-24.917190376019832
20
-46.26930956663108
30
0
10
-25.029418062138724
20
-45.048925614078726
30
0
10
-25.124856929423906
20
-43.92707923530579
30
0
10
-25.205846152026254
20
-42.882285124692949
30
0
10
-25.275470893340326
20
-41.885586566338411
30
0
10
-25.337078520324113
20
-40.905003080539274
30
0
10
-25.393745846290066
20
-39.91047103267293
30
0
10
-25.447815122023847
20
-38.878112305184544
30
0
10
-25.500281357601398
20
-37.79594059800683
30
0
10
-25.550760720787537
20
-36.663963581037336
30
0
10
-25.597894295109811
20
-35.490095017916154
30
0
10
-25.639627106469717
20
-34.287256728371879
30
0
10
-25.673535017488049
20
-33.070047120616806
30
0
10
-25.697139056710331
20
-31.851466138502623
30
0
10
-25.708206488751028
20
-30.639919384307113
30
0
10
-25.705105589810458
20
-29.435321915291425
30
0
10
-25.686842794083681
20
-28.230366773752994
30
0
10
-25.652985430525476
20
-27.013625309668733
30
0
10
-25.603622754162725
20
-25.772068180102508
30
0
10
-25.539309631847125
20
-24.493776263795187
30
0
10
-25.461020828762486
20
-23.170689992717698
30
0
10
-25.370093399753518
20
-21.801062576068233
30
0
10
-25.268192026115202
20
-20.392719536255406
30
0
10
-25.15720430998547
20
-18.963682067920359
30
0
10
-25.038998813231046
20
-17.537588033437213
30
0
10
-24.915214051136402
20
-16.140251464010955
30
0
10
-24.78703187648
20
-14.795723831667587
30
0
10
-24.654964902909654
20
-13.522665680395447
30
0
10
-24.518620765354701
20
-12.330358507504034
30
0
10
-24.376516309207901
20
-11.215399604796497
30
0
10
-24.225772068213264
20
-10.156804960001509
30
0
10
-24.062225100910183
20
-9.1166452010455394
30
0
10
-23.881053310129175
20
-8.0474395518453115
30
0
10
-23.677269849877753
20
-6.8978330309644695
30
0
10
-23.446268836056475
20
-5.6189528464164002
30
0
10
-23.184352480136084
20
-4.1705158128294144
30
0
10
-22.889258376447557
20
-2.5269460481630195
30
0
10
-22.56070540188275
20
-0.68371885545682953
30
0
10
-22.200878475957548
20
1.3370488839499119
30
0
10
-21.813966464417128
20
3.4927025146373625
30
0
10
-21.405753848391676
20
5.7254889286816333
30
0
10
-20.983191980088858
20
7.9682487525533041
30
0
10
-20.553979244268852
20
10.149997184147699
30
0
10
-20.126136902199512
20
12.201561412903047
30
0
10
-19.707587967832868
20
14.061173264045649
30
0
10
-19.30573207035016
20
15.680128633232799
30
0
10
-18.92702832999046
20
17.02830819696414
30
0
10
-18.576560134525568
20
18.100014366270173
30
0
10
-18.257642242039839
20
18.919067486786254
30
0
10
-17.971316353653545
20
19.545854726411498
30
0
10
-17.717398462749021
20
20.057192812023356
30
0
10
-17.495679720569331
20
20.523494006882061
30
0
10
-17.307047806398288
20
20.98733391643038
30
0
10
-17.154722299481094
20
21.44016113504518
30
0
10
-17.040245925769732
20
21.859665058411657
30
0
10
-16.958637717023368
20
22.254271183713996
30
0
10
-16.895354362506232
20
22.693719360152752
30
0
10
-16.832310512538104
20
23.270193511798713
30
0
10
-16.753611348389882
20
24.062600029146715
30
0
10
-16.649174538412101
20
25.113758109486433
30
0
10
-16.513300794694199
20
26.439920145363544
30
0
10
-16.344374062259256
20
28.033017129624142
30
0
10
-16.144107001606592
20
29.865836465953581
30
0
10
-15.916981299763453
20
31.895940027042336
30
0
10
-15.669603374261893
20
34.070136774296728
30
0
10
-15.410098457260247
20
36.328686732978682
30
0
10
-15.147483730421014
20
38.609689485074753
30
0
10
-14.891060877422543
20
40.853232336661975
30
0
10
-14.649775189765572
20
43.006030209500281
30
0
10
-14.431670817263198
20
45.024601607444048
30
0
10
-14.243600714019554
20
46.874722777183955
30
0
10
-14.090876329515856
20
48.531579244595704
30
0
10
-13.976966297702072
20
49.979659793374644
30
0
10
-13.903116733154349
20
51.212717498675346
30
0
10
-13.868138414358405
20
52.233801849374053
30
0
10
-13.86781263747033
20
53.055028609518033
30
0
10
-13.895183362223269
20
53.698003238204265
30
0
10
-13.938709447012855
20
54.192658089141979
30
0
10
-13.98754029098858
20
54.581101860856521
30
0
10
-14.04180865252278
20
54.923023278010568
30
0
10
-14.126410104556701
20
55.307014918980897
30
0
10
-14.280749685958369
20
55.829882348287462
30
0
10
-14.53725251268817
20
56.562155152832489
30
0
10
-14.900960443415732
20
57.513390710351182
30
0
10
-15.353423277575706
20
58.643083039884935
30
0
10
-15.861300312077393
20
59.879846472435375
30
0
10
-16.383243949680161
20
61.137598152155874
30
0
10
-16.877526115371026
20
62.333058743349554
30
0
10
-17.309305993338825
20
63.402566956626686
30
0
10
-17.65814543200522
20
64.319472313639366
30
0
10
-17.925162141961373
20
65.110513030032052
30
0
10
-18.125551615201459
20
65.831385704588584
30
0
10
-18.2812112646873
20
66.54227440393646
30
0
10
-18.413621978843498
20
67.284881525144314
30
0
10
-18.535933014417029
20
68.055349033439711
30
0
10
-18.647464400132531
20
68.78961711579646
30
0
10
-18.740282784353312
20
69.416270838356965
30
0
10
-18.803941422245913
20
69.895252797390782
30
0
10
-18.831421182691713
20
70.27297199617577
30
0
10
-18.823074462790338
20
70.698334894293239
30
0
10
-18.784307301649918
20
71.325402923381688
30
0
10
-18.724332939697184
20
72.21444458794484
30
0
10
-18.654144877342173
20
73.296308310748898
30
0
10
-18.584010467648241
20
74.439385157044015
30
0
10
-18.52114219676854
20
75.489952523033168
30
0
10
-18.467106080707634
20
76.325300694467046
30
0
10
-18.415790737142341
20
76.896792849951595
30
0
10
-18.349951023698281
20
77.289381060524633
30
0
10
-18.24953941360868
20
77.660406285705861
30
0
10
-18.102382241566062
20
78.155687108333154
30
0
10
-17.91362714081696
20
78.835950607184515
30
0
10
-17.699723724147667
20
79.697397164454429
30
0
10
-17.482595442056475
20
80.691149509211826
30
0
10
-17.283934956551001
20
81.742783100478178
30
0
10
-17.11900958261587
20
82.772432176732025
30
0
10
-16.992002784746177
20
83.712757407081426
30
0
10
-16.898531155218382
20
84.515308500230049
30
0
10
-16.827051941969636
20
85.159697844558352
30
0
10
-16.760935700515226
20
85.659214334223122
30
0
10
-16.679705116889593
20
86.073798889982228
30
0
10
-16.562370426828245
20
86.500777995403908
30
0
10
-16.393173964365705
20
87.031549746919907
30
0
10
-16.168553522266112
20
87.705909594825741
30
0
10
-15.896961220141556
20
88.504804807663518
30
0
10
-15.592628486941049
20
89.378261762499335
30
0
10
-15.270846421806505
20
90.263880392322108
30
0
10
-14.943121588799158
20
91.107461461295784
30
0
10
-14.611120681007495
20
91.887165826419221
30
0
10
-14.26841605444279
20
92.610523555645671
30
0
10
-13.905362964888813
20
93.300210480708273
30
0
10
-13.513065628099831
20
93.983239533965559
30
0
10
-13.087474948866182
20
94.679319704348671
30
0
10
-12.634086710269445
20
95.388004944812351
30
0
10
-12.164917542534395
20
96.094163399393125
30
0
10
-11.694348592495103
20
96.776182278598412
30
0
10
-11.235395822833421
20
97.413150740075935
30
0
10
-10.79574561101424
20
97.992579143895156
30
0
10
-10.374044412321371
20
98.517592117314933
30
0
10
-9.9625655038392189
20
99.00157320077011
30
0
10
-9.5497194534032595
20
99.463148954614709
30
0
10
-9.122622904265258
20
99.920970115383739
30
0
10
-8.6696483924091741
20
100.38878863581203
30
0
10
-8.1837040571043431
20
100.87330574805932
30
0
10
-7.6652505035418717
20
101.37205227840931
30
0
10
-7.1258578785631466
20
101.87085473136209
30
0
10
-6.5902447694545838
20
102.34265712864087
30
0
10
-6.0847665232827293
20
102.7589889217593
30
0
10
-5.6280285092273754
20
103.09934141644307
30
0
10
-5.218935141327977
20
103.36319257710231
30
0
10
-4.8307715509964488
20
103.5757138799179
30
0
10
-4.4309012362421631
20
103.76733746393498
30
0
10
-4.0012340687695769
20
103.95187363491343
30
0
10
-3.5467629243879446
20
104.11889775296083
30
0
10
-3.0810511499133355
20
104.25173081768247
30
0
10
-2.6151318385513651
20
104.34366705756297
30
0
10
-2.1523232104206809
20
104.39940677309765
30
0
10
-1.6909860100591378
20
104.42356981019552
30
0
10
-1.2237117976016307
20
104.41026802536696
30
0
10
-0.74504841409604006
20
104.34967016218022
30
0
10
-0.26096904070911192
20
104.24086066393663
30
0
10
0.20167827035419678
20
104.10311180267483
30
0
10
0.61857586876090054
20
103.9564297644978
30
0
10
0.99776286123622226
20
103.79627675155194
30
0
10
1.3958246581211275
20
103.57977738436071
30
0
10
1.8705750412538067
20
103.2642505551328
30
0
10
2.4309588517995078
20
102.84815299765776
30
0
10
3.0176854207715569
20
102.38636152987354
30
0
10
3.5551510209713895
20
101.94588240005304
30
0
10
3.9826459449939353
20
101.57903371478096
30
0
10
4.3051816750345049
20
101.27979838998002
30
0
10
4.5975930174901034
20
100.98066369889922
30
0
10
4.9475098223906402
20
100.60262154359833
30
0
10
5.4018770755631431
20
100.10201159218865
30
0
10
5.9552327347795888
20
99.481328678603873
30
0
10
6.5735474046251774
20
98.76924545030829
30
0
10
7.2076820837252207
20
98.009702131733206
30
0
10
7.8100885933512529
20
97.247982872625599
30
0
10
8.3528283526355462
20
96.516182321124546
30
0
10
8.8275194350391892
20
95.831249308389687
30
0
10
9.238852605272589
20
95.197655349360403
30
0
10
9.6002387458944778
20
94.608449140237923
30
0
10
9.9286537951600611
20
94.047094067504716
30
0
10
10.239587599807127
20
93.488681711704402
30
0
10
10.545643704982197
20
92.906035734089983
30
0
10
10.855548028005719
20
92.276292700806948
30
0
10
11.173045130469831
20
91.587155525805059
30
0
10
11.495736968742179
20
90.843709707681711
30
0
10
11.817088520137647
20
90.062377997523896
30
0
10
12.128616703680304
20
89.264217338823869
30
0
10
12.421961728358859
20
88.46862130664195
30
0
10
12.691123353986317
20
87.686467212708834
30
0
10
12.934294066596292
20
86.914609588739609
30
0
10
13.152441608126178
20
86.14122569354214
30
0
10
13.348144376626621
20
85.350310106461421
30
0
10
13.524403154270743
20
84.526265254673177
30
0
10
13.683290881226458
20
83.658991408777638
30
0
10
13.82522161151687
20
82.747041057359795
30
0
10
13.95002866705828
20
81.795186306193855
30
0
10
14.05768199978043
20
80.813021668123426
30
0
10
14.149206846298883
20
79.813142596758823
30
0
10
14.227381628379714
20
78.809538242085651
30
0
10
14.297874001322251
20
77.815807517996646
30
0
10
14.368302690309578
20
76.843927732147293
30
0
10
14.446420965655356
20
75.90326117944106
30
0
10
14.538556714523933
20
74.999443803320077
30
0
10
14.647999318673481
20
74.133418598890529
30
0
10
14.773282694353076
20
73.300180913378924
30
0
10
14.90687673414125
20
72.488286673552167
30
0
10
15.037798360882626
20
71.685651057217342
30
0
10
15.153959465342773
20
70.885203822359685
30
0
10
15.244487368956026
20
70.089842469903999
30
0
10
15.302358043974918
20
69.319472963205854
30
0
10
15.325952857242712
20
68.611345023457034
30
0
10
15.317559873956917
20
67.997941368681026
30
0
10
15.282255258865261
20
67.491417718057178
30
0
10
15.226989955773934
20
67.059913063396067
30
0
10
15.15853022124581
20
66.624770616510816
30
0
10
15.079683875384852
20
66.098770856165743
30
0
10
14.984516635478739
20
65.422784448180309
30
0
10
14.858881617520471
20
64.579516554569864
30
0
10
14.686458351695189
20
63.579902617242439
30
0
10
14.453231336274385
20
62.457209767356858
30
0
10
14.152709534172377
20
61.257923620326054
30
0
10
13.790589683882127
20
60.034131353365851
30
0
10
13.390306853415805
20
58.834940005964086
30
0
10
12.986529640515069
20
57.704033684501155
30
0
10
12.617551615426954
20
56.677647872019328
30
0
10
12.3183705485845
20
55.782308728333867
30
0
10
12.112821214168921
20
55.032878541944434
30
0
10
12.007646569620292
20
54.429985692153231
30
0
10
11.981851745237353
20
53.958931515664133
30
0
10
11.998481242661498
20
53.582041011413047
30
0
10
12.025409800109578
20
53.229578953850158
30
0
10
12.055649012575437
20
52.788117283357387
30
0
10
12.101045160110937
20
52.124161112898555
30
0
10
12.18157169334318
20
51.11308606374439
30
0
10
12.316466402734845
20
49.665373243506423
30
0
10
12.513959569045767
20
47.756096274276175
30
0
10
12.772660956851677
20
45.41592706871932
30
0
10
13.083736648451563
20
42.719219022802271
30
0
10
13.432810050976606
20
39.7731330422667
30
0
10
13.801977831574998
20
36.706328340054895
30
0
10
14.171778700699127
20
33.657831427163565
30
0
10
14.523177160970169
20
30.765849997214474
30
0
10
14.839553112412192
20
28.156560919118981
30
0
10
15.108660392449011
20
25.933024572210144
30
0
10
15.32466511296753
20
24.163776602523427
30
0
10
15.489995589376615
20
22.872180264421974
30
0
10
15.617632020822246
20
22.024003523947584
30
0
10
15.732362483517846
20
21.519168186632388
30
0
10
15.874721264704711
20
21.172678156509367
30
0
10
16.082360488671025
20
20.7862803477665
30
0
10
16.366791087741348
20
20.238445788007056
30
0
10
16.69294041819218
20
19.563812893998829
30
0
10
17.005111970479465
20
18.875026540158817
30
0
10
17.251124190920624
20
18.290274484569359
30
0
10
17.408498421407298
20
17.854735201714103
30
0
10
17.506022057750613
20
17.4755205179627
30
0
10
17.596847028356684
20
16.997715411193262
30
0
10
17.73189416196832
20
16.279409675022276
30
0
10
17.940893638854604
20
15.24488978413688
30
0
10
18.238437185331357
20
13.866113440378438
30
0
10
18.625328845258686
20
12.15766933285488
30
0
10
19.091801506668581
20
10.166386112043782
30
0
10
19.619940226062628
20
7.9632138237957317
30
0
10
20.186438352297706
20
5.6341575292129189
30
0
10
20.765229545049596
20
3.2715510207906631
30
0
10
21.330128398992269
20
0.96534278535552176
30
0
10
21.857571396487586
20
-1.2059917283433608
30
0
10
22.329071570585945
20
-3.1835162140439497
30
0
10
22.734395243471287
20
-4.9384598761544041
30
0
10
23.072143438952715
20
-6.4736516660871821
30
0
10
23.347382407214393
20
-7.8145005095520483
30
0
10
23.570051906825231
20
-9.0027374574779255
30
0
10
23.75304368822993
20
-10.088972322701249
30
0
10
23.910451492038138
20
-11.125898472418923
30
0
10
24.055676992587731
20
-12.160892691585826
30
0
10
24.199762217267306
20
-13.229638513328059
30
0
10
24.349213199308451
20
-14.347400821567728
30
0
10
24.505858191134951
20
-15.509730469638168
30
0
10
24.668166248776746
20
-16.699925109968625
30
0
10
24.832143307571389
20
-17.894563496755008
30
0
10
24.99239046999643
20
-19.069716611358867
30
0
10
25.14311997335674
20
-20.20713781343721
30
0
10
25.279125460565645
20
-21.299830591238376
30
0
10
25.39693659113594
20
-22.359511481792339
30
0
10
25.494852769233187
20
-23.412973878483605
30
0
10
25.572596241323517
20
-24.494722639789558
30
0
10
25.63109128180831
20
-25.640815601941224
30
0
10
25.672190824757301
20
-26.882262013843746
30
0
10
25.698425400579481
20
-28.238469719395919
30
0
10
25.712743121288799
20
-29.711004629300319
30
0
10
25.718251847080623
20
-31.276319673616978
30
0
10
25.717982683037448
20
-32.892147230666311
30
0
10
25.714655190599526
20
-34.505288435687042
30
0
10
25.710444507084983
20
-36.058856722447061
30
0
10
25.706741853459647
20
-37.499852445707887
30
0
10
25.703931292332015
20
-38.786361844688926
30
0
10
25.701128297755144
20
-39.895460129848836
30
0
10
25.696007651053637
20
-40.82954364461277
30
0
10
25.684412020631342
20
-41.626485120424292
30
0
10
25.660794993239197
20
-42.355240148068873
30
0
10
25.619370122585728
20
-43.099010297364295
30
0
10
25.555102134368909
20
-43.941400466991595
30
0
10
25.464674941353227
20
-44.952431677723268
30
0
10
25.34769180647881
20
-46.171878368059339
30
0
10
25.206545688324841
20
-47.60890845061779
30
0
10
25.045703776746741
20
-49.248972512943027
30
0
10
24.871181114452654
20
-51.058352326632424
30
0
10
24.689934421881034
20
-52.989691079672511
30
0
10
24.509292663300037
20
-54.987085890835857
30
0
10
24.336366048587706
20
-56.991406145789526
30
0
10
24.177477693451518
20
-58.945427253479224
30
0
10
24.037554425096964
20
-60.799246747188405
30
0
10
23.919607992695187
20
-62.515103638057319
30
0
10
23.823993526978342
20
-64.073654353570717
30
0
10
23.748658444822361
20
-65.473780259606741
30
0
10
23.689950649139476
20
-66.728732578857375
30
0
10
23.64325827093602
20
-67.863398700821463
30
0
10
23.603711765384304
20
-68.91111257266013
30
0
10
23.566876319112609
20
-69.910641541040945
30
0
10
23.529408698601841
20
-70.903142135151057
30
0
10
23.489824992494359
20
-71.929021542974596
30
0
10
23.448920961678574
20
-73.025177762796758
30
0
10
23.409074039254918
20
-74.223511896647054
30
0
10
23.373734752843678
20
-75.549218945761069
30
0
10
23.346844685426426
20
-77.019173938193191
30
0
10
23.332283255657416
20
-78.640258719325857
30
0
10
23.333307958525872
20
-80.407757107036076
30
0
10
23.351983796286319
20
-82.303620457942941
30
0
10
23.388649448298153
20
-84.295024477661741
30
0
10
23.441282042243145
20
-86.332172761044205
30
0
10
23.505925231801029
20
-88.353877752997946
30
0
10
23.577255459688224
20
-90.294130466953703
30
0
10
23.649100165291827
20
-92.088363549794607
30
0
10
23.714974112900187
20
-93.679745421806388
30
0
10
23.768612807012801
20
-95.025688029192565
30
0
10
23.804495833363593
20
-96.103736135357138
30
0
10
23.818400882581741
20
-96.918947357800832
30
0
10
23.807882837957152
20
-97.507765251416046
30
0
10
23.772941997615959
20
-97.950577892890024
30
0
10
23.715823543078166
20
-98.347513040582811
30
0
10
23.64017953993265
20
-98.777040424275043
30
0
10
23.550652936841715
20
-99.251631261737685
30
0
10
23.450368780965363
20
-99.740871181794432
30
0
10
23.337932728229113
20
-100.21066943660364
30
0
10
23.204792751622698
20
-100.65603229562208
30
0
10
23.040441533090306
20
-101.08675280292641
30
0
10
22.838295898329367
20
-101.51078576886366
30
0
10
22.599443955393493
20
-101.92325714822375
30
0
10
22.328370545636357
20
-102.31517367746636
30
0
10
22.029309433648411
20
-102.6809132455834
30
0
10
21.704152328805357
20
-103.02098659571675
30
0
10
21.353667350579045
20
-103.33641924758084
30
0
10
20.977792122683585
20
-103.62399351372949
30
0
10
20.576665494100407
20
-103.87633937191944
30
0
10
20.151623460845375
20
-104.08583276135229
30
0
10
19.79552209795434
20
-104.21539643588216
30
0
10
19.521863741761653
20
-104.29033189526911
30
0
10
19.337257816966208
20
-104.33036425256951
30
0
10
19.244499999999999
20
-104.3479
30
0
0
ENDSEC
0
SECTION
2
OBJECTS
0
DICTIONARY
5
C
100
AcDbDictionary
3
ACAD_GROUP
350
D
3
ACAD_MLINESTYLE
350
17
0
DICTIONARY
5
D
100
AcDbDictionary
0
DICTIONARY
5
1A
330
C
100
AcDbDictionary
0
DICTIONARY
5
17
100
AcDbDictionary
0
ENDSEC
0
EOF
