0
SECTION
2
HEADER
9
$INSUNITS
70
4
9
$ACADVER
1
AC1014
9
$HANDSEED
5
FFFF
0
ENDSEC
0
SECTION
2
TABLES
0
TABLE
2
VPORT
5
8
100
AcDbSymbolTable
0
ENDTAB
0
TABLE
2
LTYPE
5
5
100
AcDbSymbolTable
0
LTYPE
5
14
100
AcDbSymbolTableRecord
100
AcDbLinetypeTableRecord
2
BYBLOCK
70
0
0
LTYPE
5
15
100
AcDbSymbolTableRecord
100
AcDbLinetypeTableRecord
2
BYLAYER
70
0
0
LTYPE
5
16
100
AcDbSymbolTableRecord
100
AcDbLinetypeTableRecord
2
DASHED
70
0
3
Dashed __ __ __ __ __ __ __ __ __ __ __ __ __ _
72
65
73
2
40
0.75
49
0.5
74
0
49
-0.25
74
0
0
ENDTAB
0
TABLE
2
LAYER
5
2
100
AcDbSymbolTable
70
2
0
LAYER
5
50
100
AcDbSymbolTableRecord
100
AcDbLayerTableRecord
2
0
70
0
62
7
6
CONTINUOUS
0
ENDTAB
0
TABLE
2
STYLE
5
3
100
AcDbSymbolTable
70
1
0
STYLE
5
11
100
AcDbSymbolTableRecord
100
AcDbTextStyleTableRecord
2
STANDARD
70
0
0
ENDTAB
0
TABLE
2
VIEW
5
6
100
AcDbSymbolTable
70
0
0
ENDTAB
0
TABLE
2
UCS
5
7
100
AcDbSymbolTable
70
0
0
ENDTAB
0
TABLE
2
APPID
5
9
100
AcDbSymbolTable
70
2
0
APPID
5
12
100
AcDbSymbolTableRecord
100
AcDbRegAppTableRecord
2
ACAD
70
0
0
ENDTAB
0
TABLE
2
DIMSTYLE
5
A
100
AcDbSymbolTable
70
1
0
ENDTAB
0
TABLE
2
BLOCK_RECORD
5
1
100
AcDbSymbolTable
70
1
0
BLOCK_RECORD
5
1F
100
AcDbSymbolTableRecord
100
AcDbBlockTableRecord
2
*MODEL_SPACE
0
BLOCK_RECORD
5
1B
100
AcDbSymbolTableRecord
100
AcDbBlockTableRecord
2
*PAPER_SPACE
0
ENDTAB
0
ENDSEC
0
SECTION
2
BLOCKS
0
BLOCK
5
20
100
AcDbEntity
100
AcDbBlockBegin
2
*MODEL_SPACE
0
ENDBLK
5
21
100
AcDbEntity
100
AcDbBlockEnd
0
BLOCK
5
1C
100
AcDbEntity
100
AcDbBlockBegin
2
*PAPER_SPACE
0
ENDBLK
5
1D
100
AcDbEntity
100
AcDbBlockEnd
0
ENDSEC
0
SECTION
2
ENTITIES
0
SPLINE
5
100
100
AcDbEntity
8
0
100
AcDbSpline
70
6
71
5
72
636
73
630
74
0
42
0.000000001
43
0.0000000001
44
0.0000000001
40
0
40
0
40
0
40
0
40
0
40
0
40
0.0016000000000000001
40
0.0032000000000000002
40
0.0048000000000000004
40
0.0064000000000000003
40
0.0080000000000000002
40
0.0096000000000000009
40
0.011200000000000002
40
0.012800000000000002
40
0.014400000000000003
40
0.016000000000000004
40
0.017600000000000005
40
0.019200000000000005
40
0.020800000000000006
40
0.022400000000000007
40
0.024000000000000007
40
0.025600000000000008
40
0.027200000000000009
40
0.02880000000000001
40
0.03040000000000001
40
0.032000000000000008
40
0.033600000000000005
40
0.035200000000000002
40
0.036799999999999999
40
0.038399999999999997
40
0.039999999999999994
40
0.041599999999999991
40
0.043199999999999988
40
0.044799999999999986
40
0.046399999999999983
40
0.04799999999999998
40
0.049599999999999977
40
0.051199999999999975
40
0.052799999999999972
40
0.054399999999999969
40
0.055999999999999966
40
0.057599999999999964
40
0.059199999999999961
40
0.060799999999999958
40
0.062399999999999956
40
0.06399999999999996
40
0.065599999999999964
40
0.067199999999999968
40
0.068799999999999972
40
0.070399999999999976
40
0.071999999999999981
40
0.073599999999999985
40
0.075199999999999989
40
0.076799999999999993
40
0.078399999999999997
40
0.080000000000000002
40
0.081600000000000006
40
0.08320000000000001
40
0.084800000000000014
40
0.086400000000000018
40
0.088000000000000023
40
0.089600000000000027
40
0.091200000000000031
40
0.092800000000000035
40
0.094400000000000039
40
0.096000000000000044
40
0.097600000000000048
40
0.099200000000000052
40
0.10080000000000006
40
0.10240000000000006
40
0.10400000000000006
40
0.10560000000000007
40
0.10720000000000007
40
0.10880000000000008
40
0.11040000000000008
40
0.11200000000000009
40
0.11360000000000009
40
0.11520000000000009
40
0.1168000000000001
40
0.1184000000000001
40
0.12000000000000011
40
0.12160000000000011
40
0.12320000000000011
40
0.12480000000000012
40
0.12640000000000012
40
0.12800000000000011
40
0.1296000000000001
40
0.13120000000000009
40
0.13280000000000008
40
0.13440000000000007
40
0.13600000000000007
40
0.13760000000000006
40
0.13920000000000005
40
0.14080000000000004
40
0.14240000000000003
40
0.14400000000000002
40
0.14560000000000001
40
0.1472
40
0.14879999999999999
40
0.15039999999999998
40
0.15199999999999997
40
0.15359999999999996
40
0.15519999999999995
40
0.15679999999999994
40
0.15839999999999993
40
0.15999999999999992
40
0.16159999999999991
40
0.1631999999999999
40
0.16479999999999989
40
0.16639999999999988
40
0.16799999999999987
40
0.16959999999999986
40
0.17119999999999985
40
0.17279999999999984
40
0.17439999999999983
40
0.17599999999999982
40
0.17759999999999981
40
0.1791999999999998
40
0.18079999999999979
40
0.18239999999999978
40
0.18399999999999977
40
0.18559999999999977
40
0.18719999999999976
40
0.18879999999999975
40
0.19039999999999974
40
0.19199999999999973
40
0.19359999999999972
40
0.19519999999999971
40
0.1967999999999997
40
0.19839999999999969
40
0.19999999999999968
40
0.20159999999999967
40
0.20319999999999966
40
0.20479999999999965
40
0.20639999999999964
40
0.20799999999999963
40
0.20959999999999962
40
0.21119999999999961
40
0.2127999999999996
40
0.21439999999999959
40
0.21599999999999958
40
0.21759999999999957
40
0.21919999999999956
40
0.22079999999999955
40
0.22239999999999954
40
0.22399999999999953
40
0.22559999999999952
40
0.22719999999999951
40
0.2287999999999995
40
0.23039999999999949
40
0.23199999999999948
40
0.23359999999999947
40
0.23519999999999947
40
0.23679999999999946
40
0.23839999999999945
40
0.23999999999999944
40
0.24159999999999943
40
0.24319999999999942
40
0.24479999999999941
40
0.2463999999999994
40
0.24799999999999939
40
0.24959999999999938
40
0.25119999999999937
40
0.25279999999999936
40
0.25439999999999935
40
0.25599999999999934
40
0.25759999999999933
40
0.25919999999999932
40
0.26079999999999931
40
0.2623999999999993
40
0.26399999999999929
40
0.26559999999999928
40
0.26719999999999927
40
0.26879999999999926
40
0.27039999999999925
40
0.27199999999999924
40
0.27359999999999923
40
0.27519999999999922
40
0.27679999999999921
40
0.2783999999999992
40
0.27999999999999919
40
0.28159999999999918
40
0.28319999999999917
40
0.28479999999999916
40
0.28639999999999916
40
0.28799999999999915
40
0.28959999999999914
40
0.29119999999999913
40
0.29279999999999912
40
0.29439999999999911
40
0.2959999999999991
40
0.29759999999999909
40
0.29919999999999908
40
0.30079999999999907
40
0.30239999999999906
40
0.30399999999999905
40
0.30559999999999904
40
0.30719999999999903
40
0.30879999999999902
40
0.31039999999999901
40
0.311999999999999
40
0.31359999999999899
40
0.31519999999999898
40
0.31679999999999897
40
0.31839999999999896
40
0.31999999999999895
40
0.32159999999999894
40
0.32319999999999893
40
0.32479999999999892
40
0.32639999999999891
40
0.3279999999999989
40
0.32959999999999889
40
0.33119999999999888
40
0.33279999999999887
40
0.33439999999999886
40
0.33599999999999886
40
0.33759999999999885
40
0.33919999999999884
40
0.34079999999999883
40
0.34239999999999882
40
0.34399999999999881
40
0.3455999999999988
40
0.34719999999999879
40
0.34879999999999878
40
0.35039999999999877
40
0.35199999999999876
40
0.35359999999999875
40
0.35519999999999874
40
0.35679999999999873
40
0.35839999999999872
40
0.35999999999999871
40
0.3615999999999987
40
0.36319999999999869
40
0.36479999999999868
40
0.36639999999999867
40
0.36799999999999866
40
0.36959999999999865
40
0.37119999999999864
40
0.37279999999999863
40
0.37439999999999862
40
0.37599999999999861
40
0.3775999999999986
40
0.37919999999999859
40
0.38079999999999858
40
0.38239999999999857
40
0.38399999999999856
40
0.38559999999999856
40
0.38719999999999855
40
0.38879999999999854
40
0.39039999999999853
40
0.39199999999999852
40
0.39359999999999851
40
0.3951999999999985
40
0.39679999999999849
40
0.39839999999999848
40
0.39999999999999847
40
0.40159999999999846
40
0.40319999999999845
40
0.40479999999999844
40
0.40639999999999843
40
0.40799999999999842
40
0.40959999999999841
40
0.4111999999999984
40
0.41279999999999839
40
0.41439999999999838
40
0.41599999999999837
40
0.41759999999999836
40
0.41919999999999835
40
0.42079999999999834
40
0.42239999999999833
40
0.42399999999999832
40
0.42559999999999831
40
0.4271999999999983
40
0.42879999999999829
40
0.43039999999999828
40
0.43199999999999827
40
0.43359999999999826
40
0.43519999999999825
40
0.43679999999999825
40
0.43839999999999824
40
0.43999999999999823
40
0.44159999999999822
40
0.44319999999999821
40
0.4447999999999982
40
0.44639999999999819
40
0.44799999999999818
40
0.44959999999999817
40
0.45119999999999816
40
0.45279999999999815
40
0.45439999999999814
40
0.45599999999999813
40
0.45759999999999812
40
0.45919999999999811
40
0.4607999999999981
40
0.46239999999999809
40
0.46399999999999808
40
0.46559999999999807
40
0.46719999999999806
40
0.46879999999999805
40
0.47039999999999804
40
0.47199999999999803
40
0.47359999999999802
40
0.47519999999999801
40
0.476799999999998
40
0.47839999999999799
40
0.47999999999999798
40
0.48159999999999797
40
0.48319999999999796
40
0.48479999999999795
40
0.48639999999999795
40
0.48799999999999794
40
0.48959999999999793
40
0.49119999999999792
40
0.49279999999999791
40
0.4943999999999979
40
0.49599999999999789
40
0.49759999999999788
40
0.49919999999999787
40
0.50079999999999791
40
0.50239999999999796
40
0.50399999999999801
40
0.50559999999999805
40
0.5071999999999981
40
0.50879999999999814
40
0.51039999999999819
40
0.51199999999999823
40
0.51359999999999828
40
0.51519999999999833
40
0.51679999999999837
40
0.51839999999999842
40
0.51999999999999846
40
0.52159999999999851
40
0.52319999999999856
40
0.5247999999999986
40
0.52639999999999865
40
0.52799999999999869
40
0.52959999999999874
40
0.53119999999999878
40
0.53279999999999883
40
0.53439999999999888
40
0.53599999999999892
40
0.53759999999999897
40
0.53919999999999901
40
0.54079999999999906
40
0.54239999999999911
40
0.54399999999999915
40
0.5455999999999992
40
0.54719999999999924
40
0.54879999999999929
40
0.55039999999999933
40
0.55199999999999938
40
0.55359999999999943
40
0.55519999999999947
40
0.55679999999999952
40
0.55839999999999956
40
0.55999999999999961
40
0.56159999999999966
40
0.5631999999999997
40
0.56479999999999975
40
0.56639999999999979
40
0.56799999999999984
40
0.56959999999999988
40
0.57119999999999993
40
0.57279999999999998
40
0.57440000000000002
40
0.57600000000000007
40
0.57760000000000011
40
0.57920000000000016
40
0.5808000000000002
40
0.58240000000000025
40
0.5840000000000003
40
0.58560000000000034
40
0.58720000000000039
40
0.58880000000000043
40
0.59040000000000048
40
0.59200000000000053
40
0.59360000000000057
40
0.59520000000000062
40
0.59680000000000066
40
0.59840000000000071
40
0.60000000000000075
40
0.6016000000000008
40
0.60320000000000085
40
0.60480000000000089
40
0.60640000000000094
40
0.60800000000000098
40
0.60960000000000103
40
0.61120000000000108
40
0.61280000000000112
40
0.61440000000000117
40
0.61600000000000121
40
0.61760000000000126
40
0.6192000000000013
40
0.62080000000000135
40
0.6224000000000014
40
0.62400000000000144
40
0.62560000000000149
40
0.62720000000000153
40
0.62880000000000158
40
0.63040000000000163
40
0.63200000000000167
40
0.63360000000000172
40
0.63520000000000176
40
0.63680000000000181
40
0.63840000000000185
40
0.6400000000000019
40
0.64160000000000195
40
0.64320000000000199
40
0.64480000000000204
40
0.64640000000000208
40
0.64800000000000213
40
0.64960000000000218
40
0.65120000000000222
40
0.65280000000000227
40
0.65440000000000231
40
0.65600000000000236
40
0.6576000000000024
40
0.65920000000000245
40
0.6608000000000025
40
0.66240000000000254
40
0.66400000000000259
40
0.66560000000000263
40
0.66720000000000268
40
0.66880000000000273
40
0.67040000000000277
40
0.67200000000000282
40
0.67360000000000286
40
0.67520000000000291
40
0.67680000000000295
40
0.678400000000003
40
0.68000000000000305
40
0.68160000000000309
40
0.68320000000000314
40
0.68480000000000318
40
0.68640000000000323
40
0.68800000000000328
40
0.68960000000000332
40
0.69120000000000337
40
0.69280000000000341
40
0.69440000000000346
40
0.6960000000000035
40
0.69760000000000355
40
0.6992000000000036
40
0.70080000000000364
40
0.70240000000000369
40
0.70400000000000373
40
0.70560000000000378
40
0.70720000000000383
40
0.70880000000000387
40
0.71040000000000392
40
0.71200000000000396
40
0.71360000000000401
40
0.71520000000000405
40
0.7168000000000041
40
0.71840000000000415
40
0.72000000000000419
40
0.72160000000000424
40
0.72320000000000428
40
0.72480000000000433
40
0.72640000000000438
40
0.72800000000000442
40
0.72960000000000447
40
0.73120000000000451
40
0.73280000000000456
40
0.7344000000000046
40
0.73600000000000465
40
0.7376000000000047
40
0.73920000000000474
40
0.74080000000000479
40
0.74240000000000483
40
0.74400000000000488
40
0.74560000000000493
40
0.74720000000000497
40
0.74880000000000502
40
0.75040000000000506
40
0.75200000000000511
40
0.75360000000000515
40
0.7552000000000052
40
0.75680000000000525
40
0.75840000000000529
40
0.76000000000000534
40
0.76160000000000538
40
0.76320000000000543
40
0.76480000000000548
40
0.76640000000000552
40
0.76800000000000557
40
0.76960000000000561
40
0.77120000000000566
40
0.7728000000000057
40
0.77440000000000575
40
0.7760000000000058
40
0.77760000000000584
40
0.77920000000000589
40
0.78080000000000593
40
0.78240000000000598
40
0.78400000000000603
40
0.78560000000000607
40
0.78720000000000612
40
0.78880000000000616
40
0.79040000000000621
40
0.79200000000000625
40
0.7936000000000063
40
0.79520000000000635
40
0.79680000000000639
40
0.79840000000000644
40
0.80000000000000648
40
0.80160000000000653
40
0.80320000000000658
40
0.80480000000000662
40
0.80640000000000667
40
0.80800000000000671
40
0.80960000000000676
40
0.8112000000000068
40
0.81280000000000685
40
0.8144000000000069
40
0.81600000000000694
40
0.81760000000000699
40
0.81920000000000703
40
0.82080000000000708
40
0.82240000000000713
40
0.82400000000000717
40
0.82560000000000722
40
0.82720000000000726
40
0.82880000000000731
40
0.83040000000000735
40
0.8320000000000074
40
0.83360000000000745
40
0.83520000000000749
40
0.83680000000000754
40
0.83840000000000758
40
0.84000000000000763
40
0.84160000000000768
40
0.84320000000000772
40
0.84480000000000777
40
0.84640000000000781
40
0.84800000000000786
40
0.8496000000000079
40
0.85120000000000795
40
0.852800000000008
40
0.85440000000000804
40
0.85600000000000809
40
0.85760000000000813
40
0.85920000000000818
40
0.86080000000000823
40
0.86240000000000827
40
0.86400000000000832
40
0.86560000000000836
40
0.86720000000000841
40
0.86880000000000845
40
0.8704000000000085
40
0.87200000000000855
40
0.87360000000000859
40
0.87520000000000864
40
0.87680000000000868
40
0.87840000000000873
40
0.88000000000000878
40
0.88160000000000882
40
0.88320000000000887
40
0.88480000000000891
40
0.88640000000000896
40
0.888000000000009
40
0.88960000000000905
40
0.8912000000000091
40
0.89280000000000914
40
0.89440000000000919
40
0.89600000000000923
40
0.89760000000000928
40
0.89920000000000933
40
0.90080000000000937
40
0.90240000000000942
40
0.90400000000000946
40
0.90560000000000951
40
0.90720000000000955
40
0.9088000000000096
40
0.91040000000000965
40
0.91200000000000969
40
0.91360000000000974
40
0.91520000000000978
40
0.91680000000000983
40
0.91840000000000988
40
0.92000000000000992
40
0.92160000000000997
40
0.92320000000001001
40
0.92480000000001006
40
0.9264000000000101
40
0.92800000000001015
40
0.9296000000000102
40
0.93120000000001024
40
0.93280000000001029
40
0.93440000000001033
40
0.93600000000001038
40
0.93760000000001043
40
0.93920000000001047
40
0.94080000000001052
40
0.94240000000001056
40
0.94400000000001061
40
0.94560000000001065
40
0.9472000000000107
40
0.94880000000001075
40
0.95040000000001079
40
0.95200000000001084
40
0.95360000000001088
40
0.95520000000001093
40
0.95680000000001098
40
0.95840000000001102
40
0.96000000000001107
40
0.96160000000001111
40
0.96320000000001116
40
0.9648000000000112
40
0.96640000000001125
40
0.9680000000000113
40
0.96960000000001134
40
0.97120000000001139
40
0.97280000000001143
40
0.97440000000001148
40
0.97600000000001153
40
0.97760000000001157
40
0.97920000000001162
40
0.98080000000001166
40
0.98240000000001171
40
0.98400000000001175
40
0.9856000000000118
40
0.98720000000001185
40
0.98880000000001189
40
0.99040000000001194
40
0.99200000000001198
40
0.99360000000001203
40
0.99520000000001207
40
0.99680000000001212
40
0.99840000000001217
40
1
40
1
40
1
40
1
40
1
40
1
41
1
41
1
41
1
41
1
41
1
41
1
41
1
41
1
41
1
41
1
41
1
41
1
41
1
41
1
41
1
41
1
41
1
41
1
41
1
41
1
41
1
41
1
41
1
41
1
41
1
41
1
41
1
41
1
41
1
41
1
41
1
41
1
41
1
41
1
41
1
41
1
41
1
41
1
41
1
41
1
41
1
41
1
41
1
41
1
41
1
41
1
41
1
41
1
41
1
41
1
41
1
41
1
41
1
41
1
41
1
41
1
41
1
41
1
41
1
41
1
41
1
41
1
41
1
41
1
41
1
41
1
41
1
41
1
41
1
41
1
41
1
41
1
41
1
41
1
41
1
41
1
41
1
41
1
41
1
41
1
41
1
41
1
41
1
41
1
41
1
41
1
41
1
41
1
41
1
41
1
41
1
41
1
41
1
41
1
41
1
41
1
41
1
41
1
41
1
41
1
41
1
41
1
41
1
41
1
41
1
41
1
41
1
41
1
41
1
41
1
41
1
41
1
41
1
41
1
41
1
41
1
41
1
41
1
41
1
41
1
41
1
41
1
41
1
41
1
41
1
41
1
41
1
41
1
41
1
41
1
41
1
41
1
41
1
41
1
41
1
41
1
41
1
41
1
41
1
41
1
41
1
41
1
41
1
41
1
41
1
41
1
41
1
41
1
41
1
41
1
41
1
41
1
41
1
41
1
41
1
41
1
41
1
41
1
41
1
41
1
41
1
41
1
41
1
41
1
41
1
41
1
41
1
41
1
41
1
41
1
41
1
41
1
41
1
41
1
41
1
41
1
41
1
41
1
41
1
41
1
41
1
41
1
41
1
41
1
41
1
41
1
41
1
41
1
41
1
41
1
41
1
41
1
41
1
41
1
41
1
41
1
41
1
41
1
41
1
41
1
41
1
41
1
41
1
41
1
41
1
41
1
41
1
41
1
41
1
41
1
41
1
41
1
41
1
41
1
41
1
41
1
41
1
41
1
41
1
41
1
41
1
41
1
41
1
41
1
41
1
41
1
41
1
41
1
41
1
41
1
41
1
41
1
41
1
41
1
41
1
41
1
41
1
41
1
41
1
41
1
41
1
41
1
41
1
41
1
41
1
41
1
41
1
41
1
41
1
41
1
41
1
41
1
41
1
41
1
41
1
41
1
41
1
41
1
41
1
41
1
41
1
41
1
41
1
41
1
41
1
41
1
41
1
41
1
41
1
41
1
41
1
41
1
41
1
41
1
41
1
41
1
41
1
41
1
41
1
41
1
41
1
41
1
41
1
41
1
41
1
41
1
41
1
41
1
41
1
41
1
41
1
41
1
41
1
41
1
41
1
41
1
41
1
41
1
41
1
41
1
41
1
41
1
41
1
41
1
41
1
41
1
41
1
41
1
41
1
41
1
41
1
41
1
41
1
41
1
41
1
41
1
41
1
41
1
41
1
41
1
41
1
41
1
41
1
41
1
41
1
41
1
41
1
41
1
41
1
41
1
41
1
41
1
41
1
41
1
41
1
41
1
41
1
41
1
41
1
41
1
41
1
41
1
41
1
41
1
41
1
41
1
41
1
41
1
41
1
41
1
41
1
41
1
41
1
41
1
41
1
41
1
41
1
41
1
41
1
41
1
41
1
41
1
41
1
41
1
41
1
41
1
41
1
41
1
41
1
41
1
41
1
41
1
41
1
41
1
41
1
41
1
41
1
41
1
41
1
41
1
41
1
41
1
41
1
41
1
41
1
41
1
41
1
41
1
41
1
41
1
41
1
41
1
41
1
41
1
41
1
41
1
41
1
41
1
41
1
41
1
41
1
41
1
41
1
41
1
41
1
41
1
41
1
41
1
41
1
41
1
41
1
41
1
41
1
41
1
41
1
41
1
41
1
41
1
41
1
41
1
41
1
41
1
41
1
41
1
41
1
41
1
41
1
41
1
41
1
41
1
41
1
41
1
41
1
41
1
41
1
41
1
41
1
41
1
41
1
41
1
41
1
41
1
41
1
41
1
41
1
41
1
41
1
41
1
41
1
41
1
41
1
41
1
41
1
41
1
41
1
41
1
41
1
41
1
41
1
41
1
41
1
41
1
41
1
41
1
41
1
41
1
41
1
41
1
41
1
41
1
41
1
41
1
41
1
41
1
41
1
41
1
41
1
41
1
41
1
41
1
41
1
41
1
41
1
41
1
41
1
41
1
41
1
41
1
41
1
41
1
41
1
41
1
41
1
41
1
41
1
41
1
41
1
41
1
41
1
41
1
41
1
41
1
41
1
41
1
41
1
41
1
41
1
41
1
41
1
41
1
41
1
41
1
41
1
41
1
41
1
41
1
41
1
41
1
41
1
41
1
41
1
41
1
41
1
41
1
41
1
41
1
41
1
41
1
41
1
41
1
41
1
41
1
41
1
41
1
41
1
41
1
41
1
41
1
41
1
41
1
41
1
41
1
41
1
41
1
41
1
41
1
41
1
41
1
41
1
41
1
41
1
41
1
41
1
41
1
41
1
41
1
41
1
41
1
41
1
41
1
41
1
41
1
41
1
41
1
41
1
41
1
41
1
41
1
41
1
41
1
41
1
41
1
41
1
41
1
41
1
41
1
41
1
41
1
41
1
41
1
41
1
41
1
41
1
41
1
41
1
41
1
41
1
41
1
41
1
41
1
41
1
41
1
41
1
41
1
41
1
41
1
41
1
41
1
41
1
41
1
41
1
41
1
41
1
41
1
41
1
41
1
41
1
41
1
41
1
41
1
41
1
41
1
41
1
41
1
41
1
41
1
41
1
41
1
41
1
41
1
41
1
41
1
41
1
41
1
41
1
41
1
41
1
41
1
41
1
41
1
10
-20.978200000000001
20
-99.269400000000005
30
0
10
-21.065122697188823
20
-99.245892836734285
30
0
10
-21.238743275307378
20
-99.194916482564267
30
0
10
-21.498087693645218
20
-99.107462302785365
30
0
10
-21.835514180064749
20
-98.972348961239334
30
0
10
-22.22415816725082
20
-98.777915927636016
30
0
10
-22.581980019920813
20
-98.557005521893359
30
0
10
-22.942664694340856
20
-98.301126556246174
30
0
10
-23.343742096408914
20
-97.998363722673275
30
0
10
-23.800224958991052
20
-97.636288398157319
30
0
10
-24.298082425056656
20
-97.206378607820795
30
0
10
-24.809173585845205
20
-96.710266113728593
30
0
10
-25.299467915556342
20
-96.163992141162225
30
0
10
-25.741272664492566
20
-95.606680871089253
30
0
10
-26.117317422396091
20
-95.087673576769646
30
0
10
-26.422414290963445
20
-94.642094095880907
30
0
10
-26.665167499361708
20
-94.272793541254089
30
0
10
-26.87134446726812
20
-93.922829564380663
30
0
10
-27.071599210913156
20
-93.511916118508651
30
0
10
-27.285087234781106
20
-92.988072108165269
30
0
10
-27.506295375954409
20
-92.368653772571164
30
0
10
-27.717321370865236
20
-91.705233804840077
30
0
10
-27.897966553974463
20
-91.054875581866156
30
0
10
-28.037933256746207
20
-90.445180953452265
30
0
10
-28.144208302634564
20
-89.85372278106135
30
0
10
-28.231617278556534
20
-89.238519574612667
30
0
10
-28.316606695818113
20
-88.558185771901776
30
0
10
-28.408525893653461
20
-87.80102446655782
30
0
10
-28.506160802609244
20
-86.993755161764568
30
0
10
-28.602269296084458
20
-86.178781358456845
30
0
10
-28.686455648937077
20
-85.397579663226551
30
0
10
-28.74846738199718
20
-84.673542622203556
30
0
10
-28.78191895262934
20
-83.990285154725584
30
0
10
-28.784728486968625
20
-83.29625394811859
30
0
10
-28.757767376916483
20
-82.523087235178835
30
0
10
-28.704069781303055
20
-81.59978343491575
30
0
10
-28.627823007124672
20
-80.468299723027457
30
0
10
-28.533415229316496
20
-79.099375754131216
30
0
10
-28.425286978652295
20
-77.489337002996763
30
0
10
-28.307852321045264
20
-75.655591920008291
30
0
10
-28.185393424063712
20
-73.632612329452442
30
0
10
-28.061966544328428
20
-71.467711619699188
30
0
10
-27.941302839616181
20
-69.216905116207315
30
0
10
-27.826712009025037
20
-66.940746841123882
30
0
10
-27.720983302729934
20
-64.700149630377751
30
0
10
-27.626290920436155
20
-62.552274954232743
30
0
10
-27.544089923105631
20
-60.546247429913073
30
0
10
-27.475033928342825
20
-58.719283794214199
30
0
10
-27.418840152335729
20
-57.091814904264226
30
0
10
-27.374330763592564
20
-55.665984864988729
30
0
10
-27.339738700681298
20
-54.429231575731421
30
0
10
-27.312951614063525
20
-53.35665942639735
30
0
10
-27.291778391366019
20
-52.413893846044253
30
0
10
-27.274211499433257
20
-51.559742243658313
30
0
10
-27.258678380330188
20
-50.748908641610896
30
0
10
-27.244328123343152
20
-49.934755804542661
30
0
10
-27.231209672284173
20
-49.071830075889054
30
0
10
-27.220005093249718
20
-48.117322584453802
30
0
10
-27.211826848850311
20
-47.032704238693377
30
0
10
-27.207993486072262
20
-45.785261771649395
30
0
10
-27.209806756555661
20
-44.349746833443113
30
0
10
-27.21834626257322
20
-42.709811373911322
30
0
10
-27.234211443695855
20
-40.859946011341862
30
0
10
-27.257475037106886
20
-38.805482561185741
30
0
10
-27.287815140193263
20
-36.560974505561511
30
0
10
-27.324596590407584
20
-34.149037132999972
30
0
10
-27.366973167582668
20
-31.598999144370914
30
0
10
-27.413980828342481
20
-28.945635118435217
30
0
10
-27.46463489388475
20
-26.227863395811724
30
0
10
-27.518025310584335
20
-23.487458670778622
30
0
10
-27.573413261761374
20
-20.767758918370554
30
0
10
-27.630325991233398
20
-18.112373378799834
30
0
10
-27.688655208899004
20
-15.563893388699643
30
0
10
-27.748747438700537
20
-13.162594333498136
30
0
10
-27.811512993118569
20
-10.945159140344607
30
0
10
-27.878491660088606
20
-8.9433511113282265
30
0
10
-27.952021120142859
20
-7.1828067591832045
30
0
10
-28.035115799646153
20
-5.6814953565672841
30
0
10
-28.129851568173677
20
-4.4466465607351306
30
0
10
-28.235822807393504
20
-3.4716196967662034
30
0
10
-28.348785197605856
20
-2.7332846386366692
30
0
10
-28.458732784585333
20
-2.1880706603566162
30
0
10
-28.549352169696967
20
-1.7711838544378051
30
0
10
-28.594102019625758
20
-1.3880873766968138
30
0
10
-28.564188991074559
20
-0.93334255974613656
30
0
10
-28.445914155788238
20
-0.33165154648668393
30
0
10
-28.26000619425907
20
0.41774164843476541
30
0
10
-28.051800542162031
20
1.2566609339347978
30
0
10
-27.871612968575569
20
2.103976751605193
30
0
10
-27.75863207858151
20
2.8843546783087404
30
0
10
-27.722906000845811
20
3.5607193296924065
30
0
10
-27.729398103497005
20
4.1631373487907091
30
0
10
-27.724267950509855
20
4.7509574032400552
30
0
10
-27.658365772034688
20
5.3792802517121903
30
0
10
-27.514470392153967
20
6.0595817477449065
30
0
10
-27.324877859097882
20
6.7356432122264573
30
0
10
-27.143359776327003
20
7.3374990792500725
30
0
10
-27.025214698848838
20
7.817660758713922
30
0
10
-27.000185533765215
20
8.209313758283928
30
0
10
-27.061365791761567
20
8.6273446825915663
30
0
10
-27.182987442117739
20
9.1759917049837867
30
0
10
-27.334014073908669
20
9.8517976848513804
30
0
10
-27.485952323437111
20
10.551547216760472
30
0
10
-27.61454120969848
20
11.161988781847986
30
0
10
-27.703066568375448
20
11.616526268259296
30
0
10
-27.745846112869188
20
11.985083428418408
30
0
10
-27.746179176338167
20
12.424306166285495
30
0
10
-27.712227872819032
20
13.085525871528155
30
0
10
-27.65362657593327
20
14.037466062171207
30
0
10
-27.580680772808005
20
15.28160333942704
30
0
10
-27.503661191866698
20
16.769014385197867
30
0
10
-27.43205816635092
20
18.416490191111944
30
0
10
-27.373846357316548
20
20.123047202217109
30
0
10
-27.334760842194665
20
21.786082106574675
30
0
10
-27.317531403706425
20
23.318110080870916
30
0
10
-27.32122163004145
20
24.662238743644942
30
0
10
-27.340292460326911
20
25.810871661100556
30
0
10
-27.36614425964656
20
26.795655733690488
30
0
10
-27.389079143039275
20
27.672680550198155
30
0
10
-27.400079764438466
20
28.509535193697385
30
0
10
-27.392746506819915
20
29.371151168661342
30
0
10
-27.364976796884491
20
30.307178706446845
30
0
10
-27.321247621177356
20
31.336080257230506
30
0
10
-27.271233153706621
20
32.448773141778858
30
0
10
-27.227363849012885
20
33.617880369517671
30
0
10
-27.202752245428691
20
34.805069559214807
30
0
10
-27.208940137401882
20
35.969258798525338
30
0
10
-27.253780701335771
20
37.074295019197685
30
0
10
-27.339123721900059
20
38.097228832322791
30
0
10
-27.458988707331763
20
39.035262417904747
30
0
10
-27.602372654737977
20
39.900579083906301
30
0
10
-27.755633350064734
20
40.716202319777992
30
0
10
-27.905129297401889
20
41.511367128325517
30
0
10
-28.039533159956363
20
42.31731822408215
30
0
10
-28.152835736281002
20
43.16236971900922
30
0
10
-28.24421363347756
20
44.070137672622991
30
0
10
-28.316328077587094
20
45.059316199650368
30
0
10
-28.374135073034282
20
46.142995247904523
30
0
10
-28.42343977310653
20
47.328114540487498
30
0
10
-28.469661818151284
20
48.614984343232955
30
0
10
-28.516257058963323
20
49.996464301665462
30
0
10
-28.564398595158004
20
51.458665399712622
30
0
10
-28.613559325587474
20
52.982782752835142
30
0
10
-28.661832402187891
20
54.546598667167494
30
0
10
-28.706358308404411
20
56.126117222565313
30
0
10
-28.743709109758981
20
57.697152306768452
30
0
10
-28.770284416423515
20
59.236912771830504
30
0
10
-28.782717886809369
20
60.725642063928554
30
0
10
-28.778242723702299
20
62.148109935081834
30
0
10
-28.755165718335839
20
63.495478263144271
30
0
10
-28.712906932539664
20
64.765680069280208
30
0
10
-28.651695265905353
20
65.962612828424042
30
0
10
-28.572360965414152
20
67.095680434665667
30
0
10
-28.476092492260783
20
68.179174419575304
30
0
10
-28.36419899551214
20
69.231764455000587
30
0
10
-28.237892929922793
20
70.275847942317483
30
0
10
-28.098009185952311
20
71.337188720699359
30
0
10
-27.94493839301753
20
72.443652541451627
30
0
10
-27.778960319778303
20
73.622275674445277
30
0
10
-27.6004878441261
20
74.896709590839862
30
0
10
-27.410349454355398
20
76.28449424615448
30
0
10
-27.210049193900815
20
77.794451642827383
30
0
10
-27.002050457762582
20
79.423918196632883
30
0
10
-26.790016606501187
20
81.156300934222614
30
0
10
-26.5791490703748
20
82.957884019000801
30
0
10
-26.376244193937552
20
84.776810639554427
30
0
10
-26.188559798505331
20
86.551336207055243
30
0
10
-26.022839667830144
20
88.216807464883956
30
0
10
-25.884301277596158
20
89.713034885680898
30
0
10
-25.775582608779661
20
90.991733091117126
30
0
10
-25.69583759687341
20
92.023386246819129
30
0
10
-25.63946294603085
20
92.805629947100797
30
0
10
-25.595696240974959
20
93.368011809981795
30
0
10
-25.546061266172607
20
93.785728573177238
30
0
10
-25.470575910295494
20
94.15647119879489
30
0
10
-25.35856900104692
20
94.556543963929798
30
0
10
-25.220240017043331
20
94.99673437031521
30
0
10
-25.073960144489078
20
95.447390672150789
30
0
10
-24.927674085389381
20
95.878164579753062
30
0
10
-24.766690770734346
20
96.286250226712852
30
0
10
-24.570040936008265
20
96.679454838570308
30
0
10
-24.328352779332405
20
97.059654649477679
30
0
10
-24.048875120929676
20
97.416492671016613
30
0
10
-23.741075620524658
20
97.738609549342939
30
0
10
-23.402501621636361
20
98.023140249537875
30
0
10
-23.024860165783451
20
98.2743202787114
30
0
10
-22.611518796269053
20
98.495214069390414
30
0
10
-22.192752393301816
20
98.681115869276411
30
0
10
-21.798534953461793
20
98.826200302930545
30
0
10
-21.419856413516047
20
98.933200784037268
30
0
10
-20.992164186674454
20
99.018218835608621
30
0
10
-20.452139034581972
20
99.099458949545905
30
0
10
-19.798539019476408
20
99.185885396778403
30
0
10
-19.103866699895011
20
99.273429762332
30
0
10
-18.455434967894242
20
99.351983042663761
30
0
10
-17.921449272543725
20
99.409164829139627
30
0
10
-17.491676647777656
20
99.436302485261209
30
0
10
-17.096992976431711
20
99.429403693270132
30
0
10
-16.672843371955452
20
99.38741315014579
30
0
10
-16.217548736762222
20
99.311246054204901
30
0
10
-15.767302019091041
20
99.200191113917271
30
0
10
-15.351779272960965
20
99.046150470477116
30
0
10
-14.965564610845728
20
98.832824834462286
30
0
10
-14.593750677910801
20
98.552021656776319
30
0
10
-14.241152168773834
20
98.227983970841834
30
0
10
-13.934970436477506
20
97.909636512926554
30
0
10
-13.690440941505312
20
97.6232305583369
30
0
10
-13.475878370655153
20
97.319834682652413
30
0
10
-13.224022616664183
20
96.895425469561872
30
0
10
-12.868150645951175
20
96.248086873437302
30
0
10
-12.371889787147134
20
95.326045344257281
30
0
10
-11.726672327448956
20
94.123130675232133
30
0
10
-10.945412687824254
20
92.668327050143105
30
0
10
-10.057652006157053
20
91.017612263768967
30
0
10
-9.1040837054464347
20
89.244832582878914
30
0
10
-8.1313322345355914
20
87.432970811146404
30
0
10
-7.1866538298830394
20
85.665296201440967
30
0
10
-6.3125991455150556
20
84.016447000035029
30
0
10
-5.54185932778545
20
82.54381736918468
30
0
10
-4.8916344425960787
20
81.278155941196786
30
0
10
-4.3593761727808014
20
80.216430489602971
30
0
10
-3.9284647443340552
20
79.331068350812274
30
0
10
-3.572873946785851
20
78.57753031927902
30
0
10
-3.2622407390409149
20
77.902547850077681
30
0
10
-2.9667260177508039
20
77.252024376872214
30
0
10
-2.6620519595419645
20
76.57920777458051
30
0
10
-2.3342178174272896
20
75.852388759316327
30
0
10
-1.9773237019070504
20
75.052758317346743
30
0
10
-1.5916778109496295
20
74.172629634570882
30
0
10
-1.1817507391432687
20
73.213534385779241
30
0
10
-0.75430171994016715
20
72.184348324849068
30
0
10
-0.31616324350700387
20
71.099464691672509
30
0
10
0.1265976500889946
20
69.97667547624178
30
0
10
0.56862496169161192
20
68.834868717614995
30
0
10
1.0054891807962099
20
67.691751981681122
30
0
10
1.433784682801551
20
66.561629668140156
30
0
10
1.8512930789940949
20
65.453008126348834
30
0
10
2.2570824589501353
20
64.366622491901239
30
0
10
2.6517215634398159
20
63.292432499588749
30
0
10
3.0371341706299053
20
62.210081178306034
30
0
10
3.4159146062752721
20
61.094614500941084
30
0
10
3.7907743587406424
20
59.920915335784869
30
0
10
4.1639288597014099
20
58.668729762581108
30
0
10
4.5365257630590792
20
57.327271696901889
30
0
10
4.9080184051127649
20
55.90040007185727
30
0
10
5.2756495273742736
20
54.410632559283883
30
0
10
5.6336654690658206
20
52.906006496275864
30
0
10
5.9739368638601924
20
51.452182778089394
30
0
10
6.2871302511891987
20
50.119000802434797
30
0
10
6.5637005285966357
20
48.968441842366687
30
0
10
6.7949588017066107
20
48.04287521861103
30
0
10
6.9741062194783332
20
47.351174136024461
30
0
10
7.0972862514391739
20
46.860438394677331
30
0
10
7.164622542243821
20
46.473749179987877
30
0
10
7.1812173645610802
20
46.058765076192245
30
0
10
7.1577097225562909
20
45.515735120753753
30
0
10
7.1116036292229801
20
44.849151552193632
30
0
10
7.0638722711486075
20
44.140254975018522
30
0
10
7.0342091994451224
20
43.488155701510195
30
0
10
7.0368915540889763
20
42.963441271590376
30
0
10
7.0759586642265742
20
42.552102076937388
30
0
10
7.1506991263097603
20
42.191224056863661
30
0
10
7.2629821791372953
20
41.814766989088241
30
0
10
7.4213545771699838
20
41.386394580667101
30
0
10
7.6337600097477658
20
40.886326415923904
30
0
10
7.9002306441278245
20
40.302560262445681
30
0
10
8.2107203681755756
20
39.625894175629647
30
0
10
8.5501304162368257
20
38.853323754955788
30
0
10
8.9015647150743398
20
37.989297383468767
30
0
10
9.250052361252509
20
37.047467164389751
30
0
10
9.5867192482668546
20
36.053209811859176
30
0
10
9.9087118971259631
20
35.039633439466094
30
0
10
10.217547905474465
20
34.041112796251753
30
0
10
10.518002218445179
20
33.087821751741714
30
0
10
10.816745853871135
20
32.19946155410365
30
0
10
11.121145633434269
20
31.380236148061748
30
0
10
11.437856136438489
20
30.61100953226347
30
0
10
11.772203854478905
20
29.854156857259241
30
0
10
12.127976392504829
20
29.064873604918912
30
0
10
12.50707257491751
20
28.200701578862578
30
0
10
12.909240626761058
20
27.231291678754097
30
0
10
13.331706069739404
20
26.149262053639426
30
0
10
13.769068198850087
20
24.976932632963383
30
0
10
14.214254770784258
20
23.755438808683742
30
0
10
14.659323069041159
20
22.536448939474852
30
0
10
15.096319338141333
20
21.372873948793455
30
0
10
15.518116819770182
20
20.309984407410731
30
0
10
15.919254938456444
20
19.376403663617797
30
0
10
16.296796875073806
20
18.575033493731027
30
0
10
16.651132409969456
20
17.874316881951838
30
0
10
16.983990544944554
20
17.225787072744083
30
0
10
17.29628640414893
20
16.582313424808287
30
0
10
17.586397704761776
20
15.914317530429614
30
0
10
17.847385159698533
20
15.23103074705239
30
0
10
18.067690879418411
20
14.58568698708412
30
0
10
18.243906883087647
20
14.033109146525691
30
0
10
18.387965552848815
20
13.603166814281078
30
0
10
18.543754662176418
20
13.252969417857923
30
0
10
18.774731830407944
20
12.880361509678595
30
0
10
19.121834357978919
20
12.402241153590573
30
0
10
19.557049402711502
20
11.836828457071672
30
0
10
20.001017112859586
20
11.27801589221146
30
0
10
20.371547706815832
20
10.816223666023214
30
0
10
20.619007132827235
20
10.482185364315589
30
0
10
20.774761173410656
20
10.167663430682822
30
0
10
20.917753735723096
20
9.6925051993975906
30
0
10
21.126110872244212
20
8.8991002867358748
30
0
10
21.43892000506775
20
7.7270946472827706
30
0
10
21.865488010797954
20
6.1901123159305929
30
0
10
22.391049733274397
20
4.3599787809584987
30
0
10
22.983804956796227
20
2.3481175169656736
30
0
10
23.601368156882089
20
0.28821259002450283
30
0
10
24.197526025760446
20
-1.6818274006638831
30
0
10
24.728733382727764
20
-3.4372448450840567
30
0
10
25.16102148619845
20
-4.8849286498184519
30
0
10
25.47602975007873
20
-5.9794792738800941
30
0
10
25.679108794350579
20
-6.7450415849174394
30
0
10
25.800926123295863
20
-7.2790310918512819
30
0
10
25.882981829016472
20
-7.7110212210151916
30
0
10
25.967281029833742
20
-8.1732077289751395
30
0
10
26.08221077190364
20
-8.7603140322740902
30
0
10
26.237914302580801
20
-9.5158987466805662
30
0
10
26.432455291656698
20
-10.448652830525491
30
0
10
26.655271072572337
20
-11.541161661151957
30
0
10
26.89172099725586
20
-12.761711859311514
30
0
10
27.127174610561067
20
-14.07481633898424
30
0
10
27.351274213517623
20
-15.452231532524781
30
0
10
27.557309135807465
20
-16.871723013376332
30
0
10
27.741654514514529
20
-18.31600153244014
30
0
10
27.903185135188849
20
-19.77159524805165
30
0
10
28.042697318834165
20
-21.227736788790036
30
0
10
28.162333584702122
20
-22.675273115150297
30
0
10
28.26499173885539
20
-24.105497924777062
30
0
10
28.353774318583088
20
-25.509175415910693
30
0
10
28.431338483324986
20
-26.875095654972082
30
0
10
28.499581657661469
20
-28.190205723198144
30
0
10
28.55982656647635
20
-29.442070804972538
30
0
10
28.612886939534874
20
-30.620795400783088
30
0
10
28.659181077552034
20
-31.72112518199253
30
0
10
28.698825677414316
20
-32.744557516146351
30
0
10
28.73173642775388
20
-33.701248569770826
30
0
10
28.757729804168598
20
-34.612487300921785
30
0
10
28.776611755934951
20
-35.511457199760962
30
0
10
28.788206891987194
20
-36.437049839176183
30
0
10
28.792396394088943
20
-37.428747523723665
30
0
10
28.789153193392558
20
-38.521018877824567
30
0
10
28.778576750043619
20
-39.73808038182834
30
0
10
28.760931729455002
20
-41.088123435996494
30
0
10
28.736674124232849
20
-42.558872510032259
30
0
10
28.706379126975147
20
-44.123065410990407
30
0
10
28.670678486916195
20
-45.742982715170157
30
0
10
28.630194316501381
20
-47.375335895067963
30
0
10
28.585474208285284
20
-48.976015161030418
30
0
10
28.536926250149509
20
-50.504868925423921
30
0
10
28.484753007335595
20
-51.930536270763767
30
0
10
28.428888448508943
20
-53.23510172881717
30
0
10
28.368927641428037
20
-54.419195770613754
30
0
10
28.304076792778257
20
-55.505837549875487
30
0
10
28.233291516035088
20
-56.53270722296795
30
0
10
28.155399884995369
20
-57.545319986524461
30
0
10
28.069230329987942
20
-58.589982920835368
30
0
10
27.973739659875669
20
-59.706556078291612
30
0
10
27.868135942400102
20
-60.9219688772029
30
0
10
27.752016071309306
20
-62.241764839600364
30
0
10
27.625451329018151
20
-63.648568628815511
30
0
10
27.489007940389115
20
-65.109498906362802
30
0
10
27.343780919139999
20
-66.581317180253478
30
0
10
27.191429117146164
20
-68.016527336971151
30
0
10
27.034194648057838
20
-69.368993816137404
30
0
10
26.874964131190396
20
-70.599939604081328
30
0
10
26.717230177090421
20
-71.683378206367138
30
0
10
26.565292405717869
20
-72.612760895196402
30
0
10
26.423740288652379
20
-73.403981456622404
30
0
10
26.295264690954884
20
-74.088624209858324
30
0
10
26.178531909333621
20
-74.70908059302846
30
0
10
26.066557030474094
20
-75.312811484671556
30
0
10
25.94357891139326
20
-75.947252813639608
30
0
10
25.788075072869809
20
-76.653314810126744
30
0
10
25.580301201850688
20
-77.458277219993278
30
0
10
25.308843028647125
20
-78.368366478188889
30
0
10
24.976860057992887
20
-79.362535601310469
30
0
10
24.610320004323395
20
-80.382944433322464
30
0
10
24.247962234423373
20
-81.352779415777491
30
0
10
23.928790651326693
20
-82.19752960925149
30
0
10
23.679143325122382
20
-82.867276665758169
30
0
10
23.502841680243606
20
-83.353560235902719
30
0
10
23.363002093876176
20
-83.720657853086792
30
0
10
23.191369480068985
20
-84.08939574189688
30
0
10
22.931627637760403
20
-84.562066671836277
30
0
10
22.585931343828356
20
-85.142320215349955
30
0
10
22.205410835271881
20
-85.749165239588734
30
0
10
21.848006016439943
20
-86.285835155825083
30
0
10
21.549891051836493
20
-86.686116005078588
30
0
10
21.283450826868823
20
-86.982407741254264
30
0
10
20.985306662803069
20
-87.262512757924227
30
0
10
20.600140194216454
20
-87.601389521008244
30
0
10
20.115929949534884
20
-88.006658283957378
30
0
10
19.550074292486073
20
-88.446233690117282
30
0
10
18.938033661354183
20
-88.871045221336615
30
0
10
18.320499669395833
20
-89.241794325505538
30
0
10
17.732817006832313
20
-89.547219443871896
30
0
10
17.199893060192569
20
-89.792252039734393
30
0
10
16.731627655321503
20
-89.991121887946917
30
0
10
16.315276189948559
20
-90.157721570740279
30
0
10
15.918447026155544
20
-90.299928541996323
30
0
10
15.508223021023156
20
-90.420074375122113
30
0
10
15.070821933801298
20
-90.513153902303458
30
0
10
14.612729557588393
20
-90.570074872617354
30
0
10
14.149723639430491
20
-90.582999490604948
30
0
10
13.699406596884023
20
-90.550695832010618
30
0
10
13.273465829555906
20
-90.474397487059846
30
0
10
12.8691898460521
20
-90.351724411569506
30
0
10
12.464863272771245
20
-90.173104755951087
30
0
10
12.034415099328639
20
-89.927752253836587
30
0
10
11.562314087669346
20
-89.609583260977658
30
0
10
11.049829864643963
20
-89.219748607399438
30
0
10
10.507940793617648
20
-88.763751054516462
30
0
10
9.9538824004936295
20
-88.250132647914626
30
0
10
9.4056580548445794
20
-87.688090363988408
30
0
10
8.8798667500438579
20
-87.087426767532023
30
0
10
8.3912407557663951
20
-86.459810899605131
30
0
10
7.9517046709206749
20
-85.819808797285916
30
0
10
7.5696540069746412
20
-85.185696781944102
30
0
10
7.2490747949148258
20
-84.581182663211379
30
0
10
6.9894834357945035
20
-84.028212277399049
30
0
10
6.7860082546546616
20
-83.538685653388725
30
0
10
6.6293465787473904
20
-83.106103184716602
30
0
10
6.5059487050199305
20
-82.698293937695823
30
0
10
6.4024221051971448
20
-82.279008254743061
30
0
10
6.3108870051348598
20
-81.835023319837177
30
0
10
6.2314050810719639
20
-81.386169854332394
30
0
10
6.1671551553171922
20
-80.954618876367007
30
0
10
6.1199463786915755
20
-80.534099979561361
30
0
10
6.0892350471102752
20
-80.086880235179791
30
0
10
6.0746578536925488
20
-79.567292121062408
30
0
10
6.0778886058693837
20
-78.939930219410158
30
0
10
6.1021974260228031
20
-78.182759747306136
30
0
10
6.151168180865084
20
-77.284505966051327
30
0
10
6.2277375291331962
20
-76.244115695227535
30
0
10
6.3330590738045007
20
-75.069361089466881
30
0
10
6.4655540533805116
20
-73.775761049955818
30
0
10
6.6215350394262487
20
-72.384614488467292
30
0
10
6.7957330588134521
20
-70.921149318141204
30
0
10
6.9818590486749654
20
-69.412630645148923
30
0
10
7.1731547524509072
20
-67.886471488413861
30
0
10
7.3629388306275958
20
-66.368377216479956
30
0
10
7.5451766668758316
20
-64.880394600734732
30
0
10
7.7149894164746913
20
-63.439190818676451
30
0
10
7.8693139584929162
20
-62.053767311777356
30
0
10
8.0070149991141513
20
-60.725221306488038
30
0
10
8.1284065870710069
20
-59.448714156444169
30
0
10
8.2349312157527876
20
-58.214850539527617
30
0
10
8.3287729888875432
20
-57.011304859263952
30
0
10
8.4125029237093578
20
-55.824325571327179
30
0
10
8.4887013974008099
20
-54.640329563995344
30
0
10
8.5596116791420958
20
-53.447369471660664
30
0
10
8.6267247161291163
20
-52.236885798764654
30
0
10
8.6908089393273897
20
-51.003609859217221
30
0
10
8.7520514899211683
20
-49.74500349579575
30
0
10
8.8101616778886189
20
-48.46085578101966
30
0
10
8.8644900760979475
20
-47.15281485760638
30
0
10
8.9141413213485912
20
-45.823945602595799
30
0
10
8.9580886236813821
20
-44.478281003977649
30
0
10
8.9952899067965646
20
-43.120364839072245
30
0
10
9.0247964091906248
20
-41.754831055758963
30
0
10
9.0457778036530563
20
-40.386384425720948
30
0
10
9.0575538838778584
20
-39.019750082798993
30
0
10
9.0596236335661491
20
-37.659634698852933
30
0
10
9.0516956700058273
20
-36.310683242225394
30
0
10
9.0337175004446646
20
-34.97743640927041
30
0
10
9.0059066885960668
20
-33.664290614821951
30
0
10
8.9687779094494395
20
-32.375450149793949
30
0
10
8.923180692225813
20
-31.114900864385234
30
0
10
8.8701397316353621
20
-29.885987603872294
30
0
10
8.8106840080302256
20
-28.690971177507617
30
0
10
8.7456779730966936
20
-27.530584806753279
30
0
10
8.6756563514788514
20
-26.403608626492034
30
0
10
8.6006469821948723
20
-25.30639503266357
30
0
10
8.5200232158799452
20
-24.232512241379634
30
0
10
8.4322806565224013
20
-23.172086679728771
30
0
10
8.335244073866857
20
-22.112856691693633
30
0
10
8.2264197098224177
20
-21.041805395043333
30
0
10
8.1032984981210721
20
-19.94659657562454
30
0
10
7.9636820499966356
20
-18.817105091829252
30
0
10
7.8059936391505955
20
-17.646878460779149
30
0
10
7.6296080847970078
20
-16.434695324415969
30
0
10
7.4351379630995886
20
-15.185890031951342
30
0
10
7.2241450152964601
20
-13.910560349563298
30
0
10
6.9988876096551413
20
-12.621973512304649
30
0
10
6.7620524911878119
20
-11.334881018591076
30
0
10
6.5164979439514035
20
-10.063909095506983
30
0
10
6.2649810868017592
20
-8.8218311699348497
30
0
10
6.0099175808369063
20
-7.6180905174745019
30
0
10
5.7530650632243594
20
-6.4567294938519719
30
0
10
5.4954558356399685
20
-5.3362590363237601
30
0
10
5.2377405252416906
20
-4.2527097671744709
30
0
10
4.9804414962988641
20
-3.2020070991599132
30
0
10
4.7242339775532844
20
-2.1825033994216017
30
0
10
4.4702350605515369
20
-1.197706760114565
30
0
10
4.2202431598171115
20
-0.25830711960506492
30
0
10
3.977115853235107
20
0.61390859486951133
30
0
10
3.7444410943993156
20
1.3923874191112549
30
0
10
3.5260369706905044
20
2.05613219800059
30
0
10
3.3253402542523003
20
2.5985510316327325
30
0
10
3.1452118007473122
20
3.037299716608413
30
0
10
2.986709333403673
20
3.4228312230348794
30
0
10
2.8417029027903533
20
3.8089962169197507
30
0
10
2.6796282346233231
20
4.2173366989014127
30
0
10
2.4509513940074741
20
4.6199291379100593
30
0
10
2.1223556739685061
20
4.9717878219861564
30
0
10
1.7240253351760275
20
5.2396947542061776
30
0
10
1.3285585913438858
20
5.4132967717210132
30
0
10
0.97496119132721626
20
5.4958171515165031
30
0
10
0.59287704696403787
20
5.5006638022651728
30
0
10
0.055326122623739704
20
5.4457287991580809
30
0
10
-0.73462298857881592
20
5.3485356158062469
30
0
10
-1.7776186939965266
20
5.2215221881809182
30
0
10
-3.0085473535275624
20
5.0736846645994298
30
0
10
-4.3217155300126651
20
4.9117136949920965
30
0
10
-5.5973196111940924
20
4.7412469626036042
30
0
10
-6.7288397086764951
20
4.5682561756162805
30
0
10
-7.6466182607212634
20
4.3999470390428677
30
0
10
-8.3514802256273981
20
4.2469310083189047
30
0
10
-8.9127597802376606
20
4.120717540824808
30
0
10
-9.4127139953004466
20
4.0227802259104992
30
0
10
-9.9112318740930245
20
3.9384545306855516
30
0
10
-10.386120131199984
20
3.8225615981497891
30
0
10
-10.752865318257561
20
3.6151994413004922
30
0
10
-10.93561480974688
20
3.2763083842319674
30
0
10
-10.931983019067351
20
2.8203233022883674
30
0
10
-10.792544737977686
20
2.292649936658254
30
0
10
-10.580488394496639
20
1.7322817681636056
30
0
10
-10.34499854778085
20
1.1473838829731129
30
0
10
-10.123354382550788
20
0.52867583679416352
30
0
10
-9.9398555184219877
20
-0.14268810796557269
30
0
10
-9.8055238777583238
20
-0.88396579313406776
30
0
10
-9.71885066744683
20
-1.704890126588015
30
0
10
-9.6698980992225554
20
-2.6100264085869989
30
0
10
-9.6436080241301383
20
-3.5994184357998011
30
0
10
-9.623478082166665
20
-4.6699234243959893
30
0
10
-9.5949708951614507
20
-5.8162328787702036
30
0
10
-9.5493322885031713
20
-7.0320817529252908
30
0
10
-9.4829356008992711
20
-8.3106002889474411
30
0
10
-9.3961874387397017
20
-9.6446086389613281
30
0
10
-9.2925919534181496
20
-11.026929141832913
30
0
10
-9.1777432759242323
20
-12.450693793981063
30
0
10
-9.0583605962442366
20
-13.909647872631279
30
0
10
-8.9412776388087103
20
-15.398468966107703
30
0
10
-8.8325158219067639
20
-16.913047116830885
30
0
10
-8.7361562462695996
20
-18.450864932708576
30
0
10
-8.6543508189427136
20
-20.010804314698724
30
0
10
-8.5877096799928534
20
-21.592763285063938
30
0
10
-8.5355639877240428
20
-23.197335796906081
30
0
10
-8.4962808569111576
20
-24.825465078145204
30
0
10
-8.4675556658579314
20
-26.478108718952491
30
0
10
-8.4467146134582389
20
-28.155897836676115
30
0
10
-8.4310116419163776
20
-29.858800806685707
30
0
10
-8.4179306041872906
20
-31.585780317841888
30
0
10
-8.4054785096530171
20
-33.33446438819508
30
0
10
-8.3925007195653318
20
-35.100781199356128
30
0
10
-8.3785775317734945
20
-36.879291250214607
30
0
10
-8.3638956703836325
20
-38.663561476691527
30
0
10
-8.3491289472582881
20
-40.446523869586798
30
0
10
-8.3353149309200241
20
-42.220841198611971
30
0
10
-8.323733631225835
20
-43.979268358881725
30
0
10
-8.31578464156261
20
-45.715018658761579
30
0
10
-8.312866526565351
20
-47.422120886140682
30
0
10
-8.3162515754598392
20
-49.095796856681545
30
0
10
-8.3269711132447242
20
-50.732791643057666
30
0
10
-8.345675332299594
20
-52.331818339736451
30
0
10
-8.3725787862015029
20
-53.893617666320104
30
0
10
-8.4075325419582665
20
-55.420448758983127
30
0
10
-8.4500659067395141
20
-56.91571565908027
30
0
10
-8.4994405678215728
20
-58.383540446741776
30
0
10
-8.5546991208284346
20
-59.828355921514749
30
0
10
-8.6147166975590288
20
-61.254497510288786
30
0
10
-8.6782496549654873
20
-62.66577778050938
30
0
10
-8.7439892643195201
20
-64.06510981552286
30
0
10
-8.8106041292441759
20
-65.4540086195627
30
0
10
-8.8768194723235609
20
-66.832498807018212
30
0
10
-8.9415562350397195
20
-68.199678087733929
30
0
10
-9.0040554126745072
20
-69.554125815914702
30
0
10
-9.064010198469985
20
-70.89437916696842
30
0
10
-9.1216905392685153
20
-72.219368420306836
30
0
10
-9.1780808413100896
20
-73.528897618673611
30
0
10
-9.2349890145967102
20
-74.82404097910289
30
0
10
-9.295223166076898
20
-76.107731133803085
30
0
10
-9.3625673208679103
20
-77.384781153497187
30
0
10
-9.4410350108443382
20
-78.659869868801295
30
0
10
-9.5342471318052642
20
-79.935881727803576
30
0
10
-9.6447430742797451
20
-81.212048282449757
30
0
10
-9.7733612910191336
20
-82.482309418216971
30
0
10
-9.9184948666946493
20
-83.733266341337668
30
0
10
-10.07562322488441
20
-84.943043520406022
30
0
10
-10.236172898444329
20
-86.077938790223399
30
0
10
-10.388943459600172
20
-87.097530986289527
30
0
10
-10.523654904508003
20
-87.966775520702669
30
0
10
-10.634016880644804
20
-88.666535873427662
30
0
10
-10.720733268829893
20
-89.203873861580888
30
0
10
-10.795144847520895
20
-89.624510599262678
30
0
10
-10.880946683707108
20
-90.018741417194462
30
0
10
-11.001635084530314
20
-90.477354081778074
30
0
10
-11.166094820385368
20
-91.041975963260285
30
0
10
-11.36359254151879
20
-91.685057643478217
30
0
10
-11.578767510327598
20
-92.35165971841171
30
0
10
-11.80059670656216
20
-92.984301794873318
30
0
10
-12.037422044929569
20
-93.56200983921849
30
0
10
-12.314865268632918
20
-94.104067958021901
30
0
10
-12.655892575910261
20
-94.639651341417945
30
0
10
-13.068216653774998
20
-95.189524946847996
30
0
10
-13.522656274455937
20
-95.735766514110423
30
0
10
-13.966085049101395
20
-96.232247398810387
30
0
10
-14.354374155712748
20
-96.637443430075209
30
0
10
-14.675359878891605
20
-96.936982212723137
30
0
10
-14.985392046085803
20
-97.178897876920217
30
0
10
-15.367720276062812
20
-97.438781252625745
30
0
10
-15.870276196701285
20
-97.766750190457898
30
0
10
-16.454618746400428
20
-98.143981449850372
30
0
10
-17.043137348395469
20
-98.516795921124526
30
0
10
-17.559211908842329
20
-98.825827307849408
30
0
10
-17.976921066803033
20
-99.041373042018975
30
0
10
-18.346704379160403
20
-99.183457391072793
30
0
10
-18.737898993801792
20
-99.287629356984311
30
0
10
-19.179315973924375
20
-99.371101536083998
30
0
10
-19.64623775814491
20
-99.423281257533191
30
0
10
-20.10392687999261
20
-99.427551540225508
30
0
10
-20.4558393246256
20
-99.38775537961439
30
0
10
-20.717207092175805
20
-99.335959462158343
30
0
10
-20.891277302811837
20
-99.292907163265554
30
0
10
-20.978200000000001
20
-99.269400000000005
30
0
0
ENDSEC
0
SECTION
2
OBJECTS
0
DICTIONARY
5
C
100
AcDbDictionary
3
ACAD_GROUP
350
D
3
ACAD_MLINESTYLE
350
17
0
DICTIONARY
5
D
100
AcDbDictionary
0
DICTIONARY
5
1A
330
C
100
AcDbDictionary
0
DICTIONARY
5
17
100
AcDbDictionary
0
ENDSEC
0
EOF
