0
SECTION
2
HEADER
9
$INSUNITS
70
4
9
$ACADVER
1
AC1014
9
$HANDSEED
5
FFFF
0
ENDSEC
0
SECTION
2
TABLES
0
TABLE
2
VPORT
5
8
100
AcDbSymbolTable
0
ENDTAB
0
TABLE
2
LTYPE
5
5
100
AcDbSymbolTable
0
LTYPE
5
14
100
AcDbSymbolTableRecord
100
AcDbLinetypeTableRecord
2
BYBLOCK
70
0
0
LTYPE
5
15
100
AcDbSymbolTableRecord
100
AcDbLinetypeTableRecord
2
BYLAYER
70
0
0
LTYPE
5
16
100
AcDbSymbolTableRecord
100
AcDbLinetypeTableRecord
2
DASHED
70
0
3
Dashed __ __ __ __ __ __ __ __ __ __ __ __ __ _
72
65
73
2
40
0.75
49
0.5
74
0
49
-0.25
74
0
0
ENDTAB
0
TABLE
2
LAYER
5
2
100
AcDbSymbolTable
70
2
0
LAYER
5
50
100
AcDbSymbolTableRecord
100
AcDbLayerTableRecord
2
0
70
0
62
7
6
CONTINUOUS
0
ENDTAB
0
TABLE
2
STYLE
5
3
100
AcDbSymbolTable
70
1
0
STYLE
5
11
100
AcDbSymbolTableRecord
100
AcDbTextStyleTableRecord
2
STANDARD
70
0
0
ENDTAB
0
TABLE
2
VIEW
5
6
100
AcDbSymbolTable
70
0
0
ENDTAB
0
TABLE
2
UCS
5
7
100
AcDbSymbolTable
70
0
0
ENDTAB
0
TABLE
2
APPID
5
9
100
AcDbSymbolTable
70
2
0
APPID
5
12
100
AcDbSymbolTableRecord
100
AcDbRegAppTableRecord
2
ACAD
70
0
0
ENDTAB
0
TABLE
2
DIMSTYLE
5
A
100
AcDbSymbolTable
70
1
0
ENDTAB
0
TABLE
2
BLOCK_RECORD
5
1
100
AcDbSymbolTable
70
1
0
BLOCK_RECORD
5
1F
100
AcDbSymbolTableRecord
100
AcDbBlockTableRecord
2
*MODEL_SPACE
0
BLOCK_RECORD
5
1B
100
AcDbSymbolTableRecord
100
AcDbBlockTableRecord
2
*PAPER_SPACE
0
ENDTAB
0
ENDSEC
0
SECTION
2
BLOCKS
0
BLOCK
5
20
100
AcDbEntity
100
AcDbBlockBegin
2
*MODEL_SPACE
0
ENDBLK
5
21
100
AcDbEntity
100
AcDbBlockEnd
0
BLOCK
5
1C
100
AcDbEntity
100
AcDbBlockBegin
2
*PAPER_SPACE
0
ENDBLK
5
1D
100
AcDbEntity
100
AcDbBlockEnd
0
ENDSEC
0
SECTION
2
ENTITIES
0
SPLINE
5
100
100
AcDbEntity
8
0
100
AcDbSpline
70
6
71
5
72
631
73
625
74
0
42
0.000000001
43
0.0000000001
44
0.0000000001
40
0
40
0
40
0
40
0
40
0
40
0
40
0.0016129032258064516
40
0.0032258064516129032
40
0.0048387096774193551
40
0.0064516129032258064
40
0.0080645161290322578
40
0.0096774193548387101
40
0.011290322580645162
40
0.012903225806451615
40
0.014516129032258067
40
0.016129032258064519
40
0.017741935483870971
40
0.019354838709677424
40
0.020967741935483876
40
0.022580645161290328
40
0.02419354838709678
40
0.025806451612903233
40
0.027419354838709685
40
0.029032258064516137
40
0.03064516129032259
40
0.032258064516129038
40
0.033870967741935487
40
0.035483870967741936
40
0.037096774193548385
40
0.038709677419354833
40
0.040322580645161282
40
0.041935483870967731
40
0.04354838709677418
40
0.045161290322580629
40
0.046774193548387077
40
0.048387096774193526
40
0.049999999999999975
40
0.051612903225806424
40
0.053225806451612873
40
0.054838709677419321
40
0.05645161290322577
40
0.058064516129032219
40
0.059677419354838668
40
0.061290322580645117
40
0.062903225806451565
40
0.064516129032258021
40
0.066129032258064477
40
0.067741935483870933
40
0.069354838709677388
40
0.070967741935483844
40
0.0725806451612903
40
0.074193548387096755
40
0.075806451612903211
40
0.077419354838709667
40
0.079032258064516123
40
0.080645161290322578
40
0.082258064516129034
40
0.08387096774193549
40
0.085483870967741946
40
0.087096774193548401
40
0.088709677419354857
40
0.090322580645161313
40
0.091935483870967769
40
0.093548387096774224
40
0.09516129032258068
40
0.096774193548387136
40
0.098387096774193591
40
0.10000000000000005
40
0.1016129032258065
40
0.10322580645161296
40
0.10483870967741941
40
0.10645161290322587
40
0.10806451612903233
40
0.10967741935483878
40
0.11129032258064524
40
0.11290322580645169
40
0.11451612903225815
40
0.1161290322580646
40
0.11774193548387106
40
0.11935483870967752
40
0.12096774193548397
40
0.12258064516129043
40
0.12419354838709688
40
0.12580645161290333
40
0.12741935483870978
40
0.12903225806451624
40
0.13064516129032269
40
0.13225806451612915
40
0.1338709677419356
40
0.13548387096774206
40
0.13709677419354852
40
0.13870967741935497
40
0.14032258064516143
40
0.14193548387096788
40
0.14354838709677434
40
0.14516129032258079
40
0.14677419354838725
40
0.14838709677419371
40
0.15000000000000016
40
0.15161290322580662
40
0.15322580645161307
40
0.15483870967741953
40
0.15645161290322598
40
0.15806451612903244
40
0.1596774193548389
40
0.16129032258064535
40
0.16290322580645181
40
0.16451612903225826
40
0.16612903225806472
40
0.16774193548387117
40
0.16935483870967763
40
0.17096774193548409
40
0.17258064516129054
40
0.174193548387097
40
0.17580645161290345
40
0.17741935483870991
40
0.17903225806451636
40
0.18064516129032282
40
0.18225806451612928
40
0.18387096774193573
40
0.18548387096774219
40
0.18709677419354864
40
0.1887096774193551
40
0.19032258064516155
40
0.19193548387096801
40
0.19354838709677447
40
0.19516129032258092
40
0.19677419354838738
40
0.19838709677419383
40
0.20000000000000029
40
0.20161290322580674
40
0.2032258064516132
40
0.20483870967741966
40
0.20645161290322611
40
0.20806451612903257
40
0.20967741935483902
40
0.21129032258064548
40
0.21290322580645193
40
0.21451612903225839
40
0.21612903225806485
40
0.2177419354838713
40
0.21935483870967776
40
0.22096774193548421
40
0.22258064516129067
40
0.22419354838709712
40
0.22580645161290358
40
0.22741935483871004
40
0.22903225806451649
40
0.23064516129032295
40
0.2322580645161294
40
0.23387096774193586
40
0.23548387096774231
40
0.23709677419354877
40
0.23870967741935523
40
0.24032258064516168
40
0.24193548387096814
40
0.24354838709677459
40
0.24516129032258105
40
0.2467741935483875
40
0.24838709677419396
40
0.25000000000000039
40
0.25161290322580682
40
0.25322580645161324
40
0.25483870967741967
40
0.2564516129032261
40
0.25806451612903253
40
0.25967741935483896
40
0.26129032258064538
40
0.26290322580645181
40
0.26451612903225824
40
0.26612903225806467
40
0.2677419354838711
40
0.26935483870967752
40
0.27096774193548395
40
0.27258064516129038
40
0.27419354838709681
40
0.27580645161290324
40
0.27741935483870966
40
0.27903225806451609
40
0.28064516129032252
40
0.28225806451612895
40
0.28387096774193538
40
0.2854838709677418
40
0.28709677419354823
40
0.28870967741935466
40
0.29032258064516109
40
0.29193548387096752
40
0.29354838709677394
40
0.29516129032258037
40
0.2967741935483868
40
0.29838709677419323
40
0.29999999999999966
40
0.30161290322580608
40
0.30322580645161251
40
0.30483870967741894
40
0.30645161290322537
40
0.3080645161290318
40
0.30967741935483822
40
0.31129032258064465
40
0.31290322580645108
40
0.31451612903225751
40
0.31612903225806394
40
0.31774193548387036
40
0.31935483870967679
40
0.32096774193548322
40
0.32258064516128965
40
0.32419354838709608
40
0.3258064516129025
40
0.32741935483870893
40
0.32903225806451536
40
0.33064516129032179
40
0.33225806451612822
40
0.33387096774193464
40
0.33548387096774107
40
0.3370967741935475
40
0.33870967741935393
40
0.34032258064516036
40
0.34193548387096678
40
0.34354838709677321
40
0.34516129032257964
40
0.34677419354838607
40
0.3483870967741925
40
0.34999999999999892
40
0.35161290322580535
40
0.35322580645161178
40
0.35483870967741821
40
0.35645161290322463
40
0.35806451612903106
40
0.35967741935483749
40
0.36129032258064392
40
0.36290322580645035
40
0.36451612903225677
40
0.3661290322580632
40
0.36774193548386963
40
0.36935483870967606
40
0.37096774193548249
40
0.37258064516128891
40
0.37419354838709534
40
0.37580645161290177
40
0.3774193548387082
40
0.37903225806451463
40
0.38064516129032105
40
0.38225806451612748
40
0.38387096774193391
40
0.38548387096774034
40
0.38709677419354677
40
0.38870967741935319
40
0.39032258064515962
40
0.39193548387096605
40
0.39354838709677248
40
0.39516129032257891
40
0.39677419354838533
40
0.39838709677419176
40
0.39999999999999819
40
0.40161290322580462
40
0.40322580645161105
40
0.40483870967741747
40
0.4064516129032239
40
0.40806451612903033
40
0.40967741935483676
40
0.41129032258064319
40
0.41290322580644961
40
0.41451612903225604
40
0.41612903225806247
40
0.4177419354838689
40
0.41935483870967533
40
0.42096774193548175
40
0.42258064516128818
40
0.42419354838709461
40
0.42580645161290104
40
0.42741935483870747
40
0.42903225806451389
40
0.43064516129032032
40
0.43225806451612675
40
0.43387096774193318
40
0.43548387096773961
40
0.43709677419354603
40
0.43870967741935246
40
0.44032258064515889
40
0.44193548387096532
40
0.44354838709677175
40
0.44516129032257817
40
0.4467741935483846
40
0.44838709677419103
40
0.44999999999999746
40
0.45161290322580389
40
0.45322580645161031
40
0.45483870967741674
40
0.45645161290322317
40
0.4580645161290296
40
0.45967741935483603
40
0.46129032258064245
40
0.46290322580644888
40
0.46451612903225531
40
0.46612903225806174
40
0.46774193548386817
40
0.46935483870967459
40
0.47096774193548102
40
0.47258064516128745
40
0.47419354838709388
40
0.47580645161290031
40
0.47741935483870673
40
0.47903225806451316
40
0.48064516129031959
40
0.48225806451612602
40
0.48387096774193245
40
0.48548387096773887
40
0.4870967741935453
40
0.48870967741935173
40
0.49032258064515816
40
0.49193548387096458
40
0.49354838709677101
40
0.49516129032257744
40
0.49677419354838387
40
0.4983870967741903
40
0.49999999999999672
40
0.50161290322580321
40
0.50322580645160964
40
0.50483870967741606
40
0.50645161290322249
40
0.50806451612902892
40
0.50967741935483535
40
0.51129032258064178
40
0.5129032258064482
40
0.51451612903225463
40
0.51612903225806106
40
0.51774193548386749
40
0.51935483870967392
40
0.52096774193548034
40
0.52258064516128677
40
0.5241935483870932
40
0.52580645161289963
40
0.52741935483870606
40
0.52903225806451248
40
0.53064516129031891
40
0.53225806451612534
40
0.53387096774193177
40
0.5354838709677382
40
0.53709677419354462
40
0.53870967741935105
40
0.54032258064515748
40
0.54193548387096391
40
0.54354838709677034
40
0.54516129032257676
40
0.54677419354838319
40
0.54838709677418962
40
0.54999999999999605
40
0.55161290322580248
40
0.5532258064516089
40
0.55483870967741533
40
0.55645161290322176
40
0.55806451612902819
40
0.55967741935483462
40
0.56129032258064104
40
0.56290322580644747
40
0.5645161290322539
40
0.56612903225806033
40
0.56774193548386676
40
0.56935483870967318
40
0.57096774193547961
40
0.57258064516128604
40
0.57419354838709247
40
0.5758064516128989
40
0.57741935483870532
40
0.57903225806451175
40
0.58064516129031818
40
0.58225806451612461
40
0.58387096774193104
40
0.58548387096773746
40
0.58709677419354389
40
0.58870967741935032
40
0.59032258064515675
40
0.59193548387096317
40
0.5935483870967696
40
0.59516129032257603
40
0.59677419354838246
40
0.59838709677418889
40
0.59999999999999531
40
0.60161290322580174
40
0.60322580645160817
40
0.6048387096774146
40
0.60645161290322103
40
0.60806451612902745
40
0.60967741935483388
40
0.61129032258064031
40
0.61290322580644674
40
0.61451612903225317
40
0.61612903225805959
40
0.61774193548386602
40
0.61935483870967245
40
0.62096774193547888
40
0.62258064516128531
40
0.62419354838709173
40
0.62580645161289816
40
0.62741935483870459
40
0.62903225806451102
40
0.63064516129031745
40
0.63225806451612387
40
0.6338709677419303
40
0.63548387096773673
40
0.63709677419354316
40
0.63870967741934959
40
0.64032258064515601
40
0.64193548387096244
40
0.64354838709676887
40
0.6451612903225753
40
0.64677419354838173
40
0.64838709677418815
40
0.64999999999999458
40
0.65161290322580101
40
0.65322580645160744
40
0.65483870967741387
40
0.65645161290322029
40
0.65806451612902672
40
0.65967741935483315
40
0.66129032258063958
40
0.66290322580644601
40
0.66451612903225243
40
0.66612903225805886
40
0.66774193548386529
40
0.66935483870967172
40
0.67096774193547815
40
0.67258064516128457
40
0.674193548387091
40
0.67580645161289743
40
0.67741935483870386
40
0.67903225806451029
40
0.68064516129031671
40
0.68225806451612314
40
0.68387096774192957
40
0.685483870967736
40
0.68709677419354243
40
0.68870967741934885
40
0.69032258064515528
40
0.69193548387096171
40
0.69354838709676814
40
0.69516129032257457
40
0.69677419354838099
40
0.69838709677418742
40
0.69999999999999385
40
0.70161290322580028
40
0.70322580645160671
40
0.70483870967741313
40
0.70645161290321956
40
0.70806451612902599
40
0.70967741935483242
40
0.71129032258063885
40
0.71290322580644527
40
0.7145161290322517
40
0.71612903225805813
40
0.71774193548386456
40
0.71935483870967099
40
0.72096774193547741
40
0.72258064516128384
40
0.72419354838709027
40
0.7258064516128967
40
0.72741935483870312
40
0.72903225806450955
40
0.73064516129031598
40
0.73225806451612241
40
0.73387096774192884
40
0.73548387096773526
40
0.73709677419354169
40
0.73870967741934812
40
0.74032258064515455
40
0.74193548387096098
40
0.7435483870967674
40
0.74516129032257383
40
0.74677419354838026
40
0.74838709677418669
40
0.74999999999999312
40
0.75161290322579954
40
0.75322580645160597
40
0.7548387096774124
40
0.75645161290321883
40
0.75806451612902526
40
0.75967741935483168
40
0.76129032258063811
40
0.76290322580644454
40
0.76451612903225097
40
0.7661290322580574
40
0.76774193548386382
40
0.76935483870967025
40
0.77096774193547668
40
0.77258064516128311
40
0.77419354838708954
40
0.77580645161289596
40
0.77741935483870239
40
0.77903225806450882
40
0.78064516129031525
40
0.78225806451612168
40
0.7838709677419281
40
0.78548387096773453
40
0.78709677419354096
40
0.78870967741934739
40
0.79032258064515382
40
0.79193548387096024
40
0.79354838709676667
40
0.7951612903225731
40
0.79677419354837953
40
0.79838709677418596
40
0.79999999999999238
40
0.80161290322579881
40
0.80322580645160524
40
0.80483870967741167
40
0.8064516129032181
40
0.80806451612902452
40
0.80967741935483095
40
0.81129032258063738
40
0.81290322580644381
40
0.81451612903225024
40
0.81612903225805666
40
0.81774193548386309
40
0.81935483870966952
40
0.82096774193547595
40
0.82258064516128238
40
0.8241935483870888
40
0.82580645161289523
40
0.82741935483870166
40
0.82903225806450809
40
0.83064516129031452
40
0.83225806451612094
40
0.83387096774192737
40
0.8354838709677338
40
0.83709677419354023
40
0.83870967741934666
40
0.84032258064515308
40
0.84193548387095951
40
0.84354838709676594
40
0.84516129032257237
40
0.8467741935483788
40
0.84838709677418522
40
0.84999999999999165
40
0.85161290322579808
40
0.85322580645160451
40
0.85483870967741094
40
0.85645161290321736
40
0.85806451612902379
40
0.85967741935483022
40
0.86129032258063665
40
0.86290322580644307
40
0.8645161290322495
40
0.86612903225805593
40
0.86774193548386236
40
0.86935483870966879
40
0.87096774193547521
40
0.87258064516128164
40
0.87419354838708807
40
0.8758064516128945
40
0.87741935483870093
40
0.87903225806450735
40
0.88064516129031378
40
0.88225806451612021
40
0.88387096774192664
40
0.88548387096773307
40
0.88709677419353949
40
0.88870967741934592
40
0.89032258064515235
40
0.89193548387095878
40
0.89354838709676521
40
0.89516129032257163
40
0.89677419354837806
40
0.89838709677418449
40
0.89999999999999092
40
0.90161290322579735
40
0.90322580645160377
40
0.9048387096774102
40
0.90645161290321663
40
0.90806451612902306
40
0.90967741935482949
40
0.91129032258063591
40
0.91290322580644234
40
0.91451612903224877
40
0.9161290322580552
40
0.91774193548386163
40
0.91935483870966805
40
0.92096774193547448
40
0.92258064516128091
40
0.92419354838708734
40
0.92580645161289377
40
0.92741935483870019
40
0.92903225806450662
40
0.93064516129031305
40
0.93225806451611948
40
0.93387096774192591
40
0.93548387096773233
40
0.93709677419353876
40
0.93870967741934519
40
0.94032258064515162
40
0.94193548387095805
40
0.94354838709676447
40
0.9451612903225709
40
0.94677419354837733
40
0.94838709677418376
40
0.94999999999999019
40
0.95161290322579661
40
0.95322580645160304
40
0.95483870967740947
40
0.9564516129032159
40
0.95806451612902233
40
0.95967741935482875
40
0.96129032258063518
40
0.96290322580644161
40
0.96451612903224804
40
0.96612903225805447
40
0.96774193548386089
40
0.96935483870966732
40
0.97096774193547375
40
0.97258064516128018
40
0.97419354838708661
40
0.97580645161289303
40
0.97741935483869946
40
0.97903225806450589
40
0.98064516129031232
40
0.98225806451611875
40
0.98387096774192517
40
0.9854838709677316
40
0.98709677419353803
40
0.98870967741934446
40
0.99032258064515089
40
0.99193548387095731
40
0.99354838709676374
40
0.99516129032257017
40
0.9967741935483766
40
0.99838709677418302
40
1
40
1
40
1
40
1
40
1
40
1
41
1
41
1
41
1
41
1
41
1
41
1
41
1
41
1
41
1
41
1
41
1
41
1
41
1
41
1
41
1
41
1
41
1
41
1
41
1
41
1
41
1
41
1
41
1
41
1
41
1
41
1
41
1
41
1
41
1
41
1
41
1
41
1
41
1
41
1
41
1
41
1
41
1
41
1
41
1
41
1
41
1
41
1
41
1
41
1
41
1
41
1
41
1
41
1
41
1
41
1
41
1
41
1
41
1
41
1
41
1
41
1
41
1
41
1
41
1
41
1
41
1
41
1
41
1
41
1
41
1
41
1
41
1
41
1
41
1
41
1
41
1
41
1
41
1
41
1
41
1
41
1
41
1
41
1
41
1
41
1
41
1
41
1
41
1
41
1
41
1
41
1
41
1
41
1
41
1
41
1
41
1
41
1
41
1
41
1
41
1
41
1
41
1
41
1
41
1
41
1
41
1
41
1
41
1
41
1
41
1
41
1
41
1
41
1
41
1
41
1
41
1
41
1
41
1
41
1
41
1
41
1
41
1
41
1
41
1
41
1
41
1
41
1
41
1
41
1
41
1
41
1
41
1
41
1
41
1
41
1
41
1
41
1
41
1
41
1
41
1
41
1
41
1
41
1
41
1
41
1
41
1
41
1
41
1
41
1
41
1
41
1
41
1
41
1
41
1
41
1
41
1
41
1
41
1
41
1
41
1
41
1
41
1
41
1
41
1
41
1
41
1
41
1
41
1
41
1
41
1
41
1
41
1
41
1
41
1
41
1
41
1
41
1
41
1
41
1
41
1
41
1
41
1
41
1
41
1
41
1
41
1
41
1
41
1
41
1
41
1
41
1
41
1
41
1
41
1
41
1
41
1
41
1
41
1
41
1
41
1
41
1
41
1
41
1
41
1
41
1
41
1
41
1
41
1
41
1
41
1
41
1
41
1
41
1
41
1
41
1
41
1
41
1
41
1
41
1
41
1
41
1
41
1
41
1
41
1
41
1
41
1
41
1
41
1
41
1
41
1
41
1
41
1
41
1
41
1
41
1
41
1
41
1
41
1
41
1
41
1
41
1
41
1
41
1
41
1
41
1
41
1
41
1
41
1
41
1
41
1
41
1
41
1
41
1
41
1
41
1
41
1
41
1
41
1
41
1
41
1
41
1
41
1
41
1
41
1
41
1
41
1
41
1
41
1
41
1
41
1
41
1
41
1
41
1
41
1
41
1
41
1
41
1
41
1
41
1
41
1
41
1
41
1
41
1
41
1
41
1
41
1
41
1
41
1
41
1
41
1
41
1
41
1
41
1
41
1
41
1
41
1
41
1
41
1
41
1
41
1
41
1
41
1
41
1
41
1
41
1
41
1
41
1
41
1
41
1
41
1
41
1
41
1
41
1
41
1
41
1
41
1
41
1
41
1
41
1
41
1
41
1
41
1
41
1
41
1
41
1
41
1
41
1
41
1
41
1
41
1
41
1
41
1
41
1
41
1
41
1
41
1
41
1
41
1
41
1
41
1
41
1
41
1
41
1
41
1
41
1
41
1
41
1
41
1
41
1
41
1
41
1
41
1
41
1
41
1
41
1
41
1
41
1
41
1
41
1
41
1
41
1
41
1
41
1
41
1
41
1
41
1
41
1
41
1
41
1
41
1
41
1
41
1
41
1
41
1
41
1
41
1
41
1
41
1
41
1
41
1
41
1
41
1
41
1
41
1
41
1
41
1
41
1
41
1
41
1
41
1
41
1
41
1
41
1
41
1
41
1
41
1
41
1
41
1
41
1
41
1
41
1
41
1
41
1
41
1
41
1
41
1
41
1
41
1
41
1
41
1
41
1
41
1
41
1
41
1
41
1
41
1
41
1
41
1
41
1
41
1
41
1
41
1
41
1
41
1
41
1
41
1
41
1
41
1
41
1
41
1
41
1
41
1
41
1
41
1
41
1
41
1
41
1
41
1
41
1
41
1
41
1
41
1
41
1
41
1
41
1
41
1
41
1
41
1
41
1
41
1
41
1
41
1
41
1
41
1
41
1
41
1
41
1
41
1
41
1
41
1
41
1
41
1
41
1
41
1
41
1
41
1
41
1
41
1
41
1
41
1
41
1
41
1
41
1
41
1
41
1
41
1
41
1
41
1
41
1
41
1
41
1
41
1
41
1
41
1
41
1
41
1
41
1
41
1
41
1
41
1
41
1
41
1
41
1
41
1
41
1
41
1
41
1
41
1
41
1
41
1
41
1
41
1
41
1
41
1
41
1
41
1
41
1
41
1
41
1
41
1
41
1
41
1
41
1
41
1
41
1
41
1
41
1
41
1
41
1
41
1
41
1
41
1
41
1
41
1
41
1
41
1
41
1
41
1
41
1
41
1
41
1
41
1
41
1
41
1
41
1
41
1
41
1
41
1
41
1
41
1
41
1
41
1
41
1
41
1
41
1
41
1
41
1
41
1
41
1
41
1
41
1
41
1
41
1
41
1
41
1
41
1
41
1
41
1
41
1
41
1
41
1
41
1
41
1
41
1
41
1
41
1
41
1
41
1
41
1
41
1
41
1
41
1
41
1
41
1
41
1
41
1
41
1
41
1
41
1
41
1
41
1
41
1
41
1
41
1
41
1
41
1
41
1
41
1
41
1
41
1
41
1
41
1
41
1
41
1
41
1
41
1
41
1
41
1
41
1
41
1
41
1
41
1
41
1
41
1
41
1
41
1
41
1
41
1
41
1
41
1
41
1
41
1
41
1
41
1
41
1
41
1
41
1
41
1
41
1
41
1
41
1
41
1
41
1
41
1
41
1
41
1
41
1
41
1
41
1
41
1
10
-21.003599999999999
20
-99.268600000000021
30
0
10
-21.090906418037648
20
-99.244879868992825
30
0
10
-21.265274321292335
20
-99.193392268568331
30
0
10
-21.525652879240099
20
-99.104908784541252
30
0
10
-21.864090911542839
20
-98.967849134849502
30
0
10
-22.252904860409856
20
-98.7698950059699
30
0
10
-22.610160592780822
20
-98.544375670717557
30
0
10
-22.970448336978553
20
-98.283074341881303
30
0
10
-23.372041246800986
20
-97.974517395742353
30
0
10
-23.829979910655354
20
-97.6067680273473
30
0
10
-24.330216652155521
20
-97.17186324493332
30
0
10
-24.844378809518894
20
-96.672033102042519
30
0
10
-25.337988911488555
20
-96.123987040198415
30
0
10
-25.782461037951098
20
-95.567486823660644
30
0
10
-26.159302022689253
20
-95.051138074819903
30
0
10
-26.46248911654093
20
-94.608526192389803
30
0
10
-26.700917592080181
20
-94.239313590280119
30
0
10
-26.902066802593453
20
-93.883551656522073
30
0
10
-27.098153720874759
20
-93.461322570525653
30
0
10
-27.308402402878208
20
-92.925004869298888
30
0
10
-27.526454502522014
20
-92.296293007287716
30
0
10
-27.734046323643739
20
-91.627999719518385
30
0
10
-27.910890747475175
20
-90.976713815573447
30
0
10
-28.047831533372648
20
-90.365980162059785
30
0
10
-28.152709578853319
20
-89.770813003949854
30
0
10
-28.240489002833527
20
-89.148958724338584
30
0
10
-28.327183141249929
20
-88.460288979287157
30
0
10
-28.420783891633484
20
-87.696616485663
30
0
10
-28.519092269609089
20
-86.885519536409873
30
0
10
-28.614277469851483
20
-86.0684043665037
30
0
10
-28.695789729376639
20
-85.284592344575231
30
0
10
-28.753742278238192
20
-84.554401811986324
30
0
10
-28.782606079346749
20
-83.858943753134042
30
0
10
-28.781032877753994
20
-83.148419113567712
30
0
10
-28.750556908487273
20
-82.358419925669068
30
0
10
-28.694691771720187
20
-81.423306116912286
30
0
10
-28.617837901166343
20
-80.29125248881806
30
0
10
-28.524338736687056
20
-78.937311969890359
30
0
10
-28.418456592886471
20
-77.358828970985741
30
0
10
-28.304296427228863
20
-75.571984017512094
30
0
10
-28.185748723160216
20
-73.607913502287374
30
0
10
-28.066424307755845
20
-71.509010694164644
30
0
10
-27.949592570597321
20
-69.325147419982429
30
0
10
-27.838118353558926
20
-67.109933823421173
30
0
10
-27.734399078384449
20
-64.916953064007501
30
0
10
-27.640302524376423
20
-62.796027159812546
30
0
10
-27.557102547312272
20
-60.78942206983892
30
0
10
-27.485419852819835
20
-58.928190512514618
30
0
10
-27.425149283275623
20
-57.228153394427764
30
0
10
-27.37560258199418
20
-55.691628152575845
30
0
10
-27.335667674919776
20
-54.309592694598294
30
0
10
-27.30396157642506
20
-53.063690059833213
30
0
10
-27.278986891790645
20
-51.928304258547797
30
0
10
-27.259284665668034
20
-50.872595897589541
30
0
10
-27.243593697571974
20
-49.862577054564824
30
0
10
-27.230995565467552
20
-48.863117341337869
30
0
10
-27.221095882791673
20
-47.840115057429216
30
0
10
-27.213953777092716
20
-46.761531598083536
30
0
10
-27.209952514420898
20
-45.598158603736806
30
0
10
-27.209689973827146
20
-44.324478992861806
30
0
10
-27.213861423311421
20
-42.919483124090085
30
0
10
-27.223144162798825
20
-41.367517135916913
30
0
10
-27.238084718831097
20
-39.659087661774663
30
0
10
-27.258976931704908
20
-37.791756712869415
30
0
10
-27.285767565126879
20
-35.770787746878909
30
0
10
-27.318144469875559
20
-33.608168923061463
30
0
10
-27.355604976148381
20
-31.321811391687465
30
0
10
-27.397531941684825
20
-28.934680413115505
30
0
10
-27.443266439026871
20
-26.473954914121371
30
0
10
-27.492182120737112
20
-23.970175447475953
30
0
10
-27.543758319663645
20
-21.456395929138399
30
0
10
-27.597654955825291
20
-18.967336774082021
30
0
10
-27.653783740917227
20
-16.538530555989265
30
0
10
-27.712387779928292
20
-14.205486951155784
30
0
10
-27.774101771458231
20
-12.002812114226158
30
0
10
-27.840057274048839
20
-9.9634342911815246
30
0
10
-27.911882617861217
20
-8.1175807932822845
30
0
10
-27.991964328789742
20
-6.4923720642317262
30
0
10
-28.082586031856479
20
-5.1087674298207784
30
0
10
-28.184358185068874
20
-3.9768406481815148
30
0
10
-28.294868945944355
20
-3.0915714701570844
30
0
10
-28.407227573142414
20
-2.4283962138406694
30
0
10
-28.508690642180945
20
-1.9389243414512791
30
0
10
-28.579169263112828
20
-1.5464428112131188
30
0
10
-28.589930672037465
20
-1.1417019877982206
30
0
10
-28.518335068498466
20
-0.62256395397277819
30
0
10
-28.366180415371396
20
0.05794573455159413
30
0
10
-28.168349189656755
20
0.86581302587738485
30
0
10
-27.972835588353519
20
1.7263066057000198
30
0
10
-27.824552744886439
20
2.5548428134045906
30
0
10
-27.74998160455447
20
3.2876051047825836
30
0
10
-27.735737223869357
20
3.9219676454263852
30
0
10
-27.734565617977424
20
4.5106354180274613
30
0
10
-27.695086946613998
20
5.1153736218263202
30
0
10
-27.582087140064075
20
5.7769147967321768
30
0
10
-27.406969881271511
20
6.4673309665571495
30
0
10
-27.216581868722272
20
7.1149797550262184
30
0
10
-27.066739218638268
20
7.6570250484364308
30
0
10
-27.001749529725792
20
8.0796946355606707
30
0
10
-27.028738108776672
20
8.47237343204627
30
0
10
-27.128299086286638
20
8.9559452425456971
30
0
10
-27.269919497260055
20
9.5871321331925525
30
0
10
-27.424028057308515
20
10.293577980195728
30
0
10
-27.564300148864838
20
10.959557816911502
30
0
10
-27.670629507928194
20
11.486382272247642
30
0
10
-27.732550034500338
20
11.879050256834718
30
0
10
-27.750237516988847
20
12.269259831785327
30
0
10
-27.730205168269372
20
12.820173270536388
30
0
10
-27.681630734477267
20
13.639352870033212
30
0
10
-27.614389128531705
20
14.754078086524178
30
0
10
-27.538702137488976
20
16.138748734556078
30
0
10
-27.4642839848558
20
17.726098766623728
30
0
10
-27.399686296295176
20
19.42525809622655
30
0
10
-27.351581064374827
20
21.136573339741041
30
0
10
-27.324015536222625
20
22.768527116506409
30
0
10
-27.317807032800857
20
24.252109404191966
30
0
10
-27.329562380345031
20
25.560337983007813
30
0
10
-27.352066412991348
20
26.71003100021008
30
0
10
-27.376187604784654
20
27.744100517143998
30
0
10
-27.392396189618758
20
28.718846560170782
30
0
10
-27.392414723903311
20
29.689465386900142
30
0
10
-27.370870489115884
20
30.695745233266667
30
0
10
-27.326809517786216
20
31.749037660603946
30
0
10
-27.265632889242962
20
32.815117851625523
30
0
10
-27.197442874918615
20
33.831626281468182
30
0
10
-27.134776867671938
20
34.730752297208099
30
0
10
-27.090501389581512
20
35.461825665892405
30
0
10
-27.075759372916085
20
36.010038475883256
30
0
10
-27.097600102651572
20
36.426314267801601
30
0
10
-27.157826607160111
20
36.818999871584673
30
0
10
-27.253738607393675
20
37.29864432590292
30
0
10
-27.378194966090742
20
37.924229543053798
30
0
10
-27.521073054230708
20
38.700647037826805
30
0
10
-27.67116296320043
20
39.601972661576553
30
0
10
-27.817930286797889
20
40.586207095789028
30
0
10
-27.953332648534776
20
41.613577199925885
30
0
10
-28.073614855386563
20
42.663325360800243
30
0
10
-28.178342149486046
20
43.729890520122979
30
0
10
-28.269419563818317
20
44.8187590629894
30
0
10
-28.350129419039142
20
45.942499289607241
30
0
10
-28.424132473814979
20
47.116617959055318
30
0
10
-28.494551413317183
20
48.355724751649056
30
0
10
-28.56285672863871
20
49.669001801128857
30
0
10
-28.628392918560309
20
51.05789828089744
30
0
10
-28.689055263667878
20
52.517816278799714
30
0
10
-28.741711492755307
20
54.038909219560949
30
0
10
-28.782723838551153
20
55.607235543469926
30
0
10
-28.808432711705155
20
57.20576232780806
30
0
10
-28.81564635562599
20
58.815429066893678
30
0
10
-28.802152396841084
20
60.416195598865698
30
0
10
-28.767162881432849
20
61.98807328422852
30
0
10
-28.711927170653397
20
63.512220788336755
30
0
10
-28.639786502413827
20
64.971811915539305
30
0
10
-28.555308978507227
20
66.352526723968069
30
0
10
-28.46364102370535
20
67.643128065108669
30
0
10
-28.36976280928322
20
68.836007496078409
30
0
10
-28.277805133498276
20
69.927735814081572
30
0
10
-28.19029250143722
20
70.919631494795539
30
0
10
-28.107529083147295
20
71.818274991461919
30
0
10
-28.026637513887419
20
72.636165833077783
30
0
10
-27.942482681143787
20
73.391597939909715
30
0
10
-27.849281116860219
20
74.108260312552716
30
0
10
-27.741977055366437
20
74.814913274585024
30
0
10
-27.617735353479137
20
75.545066326072885
30
0
10
-27.477330074016287
20
76.336563594057083
30
0
10
-27.324085637153367
20
77.227033603243058
30
0
10
-27.162869277034332
20
78.249434306824639
30
0
10
-26.999067160623728
20
79.427578313079621
30
0
10
-26.837562014278898
20
80.771630016860016
30
0
10
-26.68172286590945
20
82.273700322954269
30
0
10
-26.532354541082061
20
83.903163944905998
30
0
10
-26.388213994439916
20
85.612501344301094
30
0
10
-26.246571743789936
20
87.343442072055311
30
0
10
-26.103756908004012
20
89.032998852170948
30
0
10
-25.955708710376069
20
90.619544177742853
30
0
10
-25.79852624077143
20
92.048876955495444
30
0
10
-25.629016534264867
20
93.280274196450407
30
0
10
-25.445249040365326
20
94.292594316728781
30
0
10
-25.247094098338948
20
95.090253081416151
30
0
10
-25.036802069894421
20
95.709523889144208
30
0
10
-24.816887585938723
20
96.202722810334208
30
0
10
-24.588093259780361
20
96.622991963482548
30
0
10
-24.347117907122705
20
97.00729626981547
30
0
10
-24.085072908621761
20
97.364575649572274
30
0
10
-23.7915000302004
20
97.690288392807517
30
0
10
-23.456959521175257
20
97.980698810047187
30
0
10
-23.078237651737968
20
98.238408942194027
30
0
10
-22.663143914852935
20
98.465454859126112
30
0
10
-22.240470458366303
20
98.657714975438438
30
0
10
-21.840224804892326
20
98.80903125473651
30
0
10
-21.461659414151519
20
98.920292311943214
30
0
10
-21.046242958158551
20
99.006697482652783
30
0
10
-20.526651597149986
20
99.087681758796791
30
0
10
-19.886291098814052
20
99.174796198293066
30
0
10
-19.189638402141462
20
99.264725320411287
30
0
10
-18.52455975209169
20
99.346836162461727
30
0
10
-17.966789591643771
20
99.407666047314066
30
0
10
-17.521724622854823
20
99.437632815024827
30
0
10
-17.124638880705032
20
99.433163700512978
30
0
10
-16.705401141100545
20
99.39343855773096
30
0
10
-16.25149269705522
20
99.318397063497358
30
0
10
-15.797019347147231
20
99.206201491515046
30
0
10
-15.376047350480093
20
99.050432210487571
30
0
10
-14.988021861689658
20
98.838142066709054
30
0
10
-14.617754817567977
20
98.562247263440156
30
0
10
-14.264254839273104
20
98.240494225230862
30
0
10
-13.950947075212529
20
97.915790858252919
30
0
10
-13.695118412439829
20
97.616111812081229
30
0
10
-13.475569238398055
20
97.308397289390825
30
0
10
-13.234528585943384
20
96.904310718971914
30
0
10
-12.909710423854232
20
96.309697045009614
30
0
10
-12.460934394407147
20
95.466670504983867
30
0
10
-11.871848013881536
20
94.35585981034842
30
0
10
-11.144220416663408
20
92.987134072017653
30
0
10
-10.294943833783357
20
91.394513613962715
30
0
10
-9.3518857572818241
20
89.629304353467361
30
0
10
-8.3502466111676075
20
87.754015522690963
30
0
10
-7.3286736433080515
20
85.835895017561768
30
0
10
-6.3255409820641129
20
83.940734920240359
30
0
10
-5.3750160762052506
20
82.126315630888655
30
0
10
-4.5035513608052531
20
80.436580374270093
30
0
10
-3.7253417613840516
20
78.894027271247765
30
0
10
-3.0429751445100965
20
77.501058485917738
30
0
10
-2.4502902484240821
20
76.245139230524444
30
0
10
-1.9345177769769608
20
75.102716541520607
30
0
10
-1.4787368973328954
20
74.043690377536976
30
0
10
-1.0641568698764396
20
73.035564062105024
30
0
10
-0.67256550123539549
20
72.047926641033285
30
0
10
-0.28849141548859047
20
71.056338466429693
30
0
10
0.097974914813034497
20
70.047607684486564
30
0
10
0.49098559498724881
20
69.019510084496645
30
0
10
0.89067888900584802
20
67.976406177741381
30
0
10
1.2943607373908992
20
66.926042378875238
30
0
10
1.6979109811724964
20
65.875890076906614
30
0
10
2.0971086211196703
20
64.829624263977692
30
0
10
2.4889556221245117
20
63.783680132538564
30
0
10
2.8730997197071613
20
62.723402075612107
30
0
10
3.2510856686444543
20
61.627423203281715
30
0
10
3.6254698770266849
20
60.472542740425659
30
0
10
3.9989779899713822
20
59.238473737745821
30
0
10
4.3736597374532327
20
57.912529873101846
30
0
10
4.7500092732462553
20
56.494606455094527
30
0
10
5.1261834918003313
20
55.001410617199568
30
0
10
5.4969776470580465
20
53.472520239372926
30
0
10
5.8535459841007329
20
51.97085171188882
30
0
10
6.1851563391818996
20
50.56795943810134
30
0
10
6.4805787512382853
20
49.331978200915685
30
0
10
6.7296018153512982
20
48.314827213421083
30
0
10
6.924533560340703
20
47.539026148924066
30
0
10
7.0616183614447099
20
46.986310095643297
30
0
10
7.1427045968700025
20
46.581610314664616
30
0
10
7.1762130141665335
20
46.189579089102466
30
0
10
7.1736928106293192
20
45.684883932230321
30
0
10
7.1459152764708564
20
45.033643635695512
30
0
10
7.1018224811273258
20
44.316390726294941
30
0
10
7.0533223435449539
20
43.644174374025226
30
0
10
7.0175836213196776
20
43.108257451661991
30
0
10
7.0229107373545316
20
42.696734429788592
30
0
10
7.1026281423007687
20
42.305751053030811
30
0
10
7.2807609148374697
20
41.817578892426191
30
0
10
7.5578241663247407
20
41.168551108926231
30
0
10
7.9150097231642382
20
40.348698108873208
30
0
10
8.3224814560964848
20
39.38320908670066
30
0
10
8.7464466989887075
20
38.32016768492835
30
0
10
9.1562070529487922
20
37.216352885209034
30
0
10
9.5325237729489256
20
36.122129070423867
30
0
10
9.8707516269098043
20
35.072945001809877
30
0
10
10.176017479625575
20
34.091503187495597
30
0
10
10.460358676025463
20
33.187383785503343
30
0
10
10.738983141267912
20
32.357572960848522
30
0
10
11.027103715552835
20
31.586894806859785
30
0
10
11.336044076870461
20
30.847779101971145
30
0
10
11.67128831908874
20
30.102707651685613
30
0
10
12.034099812332355
20
29.312017264636324
30
0
10
12.422367138568671
20
28.440476479152604
30
0
10
12.831766409226116
20
27.464471302074145
30
0
10
13.256771644503342
20
26.378657738482932
30
0
10
13.691775699029611
20
25.20358123313191
30
0
10
14.131252568879072
20
23.978226280194598
30
0
10
14.569864155287426
20
22.751597520268948
30
0
10
15.002589580074909
20
21.574553178362315
30
0
10
15.42483788046467
20
20.491750955146184
30
0
10
15.832584382867591
20
19.533038481546591
30
0
10
16.222458058876029
20
18.706273695732111
30
0
10
16.591950779846094
20
17.986440290397844
30
0
10
16.9388770057014
20
17.327641783039748
30
0
10
17.260604744379787
20
16.68195366711879
30
0
10
17.553381205328435
20
16.015665037023069
30
0
10
17.811574766666308
20
15.32732452281088
30
0
10
18.027147432853429
20
14.662851024515206
30
0
10
18.198957664776515
20
14.079066376940766
30
0
10
18.339516417735364
20
13.614221029287304
30
0
10
18.486790077503017
20
13.247367934652196
30
0
10
18.702107255698749
20
12.887235122055202
30
0
10
19.031550175620836
20
12.4438703882889
30
0
10
19.461486972722934
20
11.906182352561931
30
0
10
19.918588198553874
20
11.348364869936185
30
0
10
20.319655803268187
20
10.854532435262952
30
0
10
20.602916127521517
20
10.473739879970871
30
0
10
20.778138457064745
20
10.144451257161304
30
0
10
20.910155322909155
20
9.726344191529666
30
0
10
21.073838861536597
20
9.077855090665464
30
0
10
21.316316886826179
20
8.1224943726700261
30
0
10
21.658795868855044
20
6.8422511070406671
30
0
10
22.102168766134682
20
5.2644560776862859
30
0
10
22.631139091987933
20
3.4511935725732408
30
0
10
23.218970729623948
20
1.4876456616749567
30
0
10
23.831983736243973
20
-0.52914560940953237
30
0
10
24.434123614902639
20
-2.5015987577305849
30
0
10
24.991581918059161
20
-4.3431028585006164
30
0
10
25.477201326237619
20
-5.9889215779077194
30
0
10
25.875436726793577
20
-7.4086141803922523
30
0
10
26.1856783146658
20
-8.6140115494238998
30
0
10
26.418040620860644
20
-9.6467790831911575
30
0
10
26.590156633425362
20
-10.568693422186088
30
0
10
26.723634075512962
20
-11.451025816910782
30
0
10
26.840534748631701
20
-12.363936843129419
30
0
10
26.960126307935557
20
-13.366728687790603
30
0
10
27.094813397618452
20
-14.495579671438199
30
0
10
27.249418035718254
20
-15.761514355037471
30
0
10
27.423148300689423
20
-17.156583540285425
30
0
10
27.610795201893929
20
-18.657687407257548
30
0
10
27.804246592903223
20
-20.23136685037624
30
0
10
27.993865576085909
20
-21.838180721819494
30
0
10
28.169926224317507
20
-23.437258767911405
30
0
10
28.324026863908429
20
-24.990784424200832
30
0
10
28.450507713979821
20
-26.468494689189651
30
0
10
28.547881338530829
20
-27.852209149616989
30
0
10
28.617929580319434
20
-29.134400986273072
30
0
10
28.664784658778135
20
-30.316720311122275
30
0
10
28.694011640566835
20
-31.408537045491848
30
0
10
28.711700701648265
20
-32.425472069002595
30
0
10
28.723531218408716
20
-33.387941862204364
30
0
10
28.733904400171806
20
-34.319677817996265
30
0
10
28.744897969103711
20
-35.246308541453089
30
0
10
28.756610931285707
20
-36.193434965729011
30
0
10
28.767785755574341
20
-37.184582614087532
30
0
10
28.776327802850968
20
-38.239238535122091
30
0
10
28.779882791683566
20
-39.370758225831842
30
0
10
28.776354522398677
20
-40.584548980495107
30
0
10
28.764538538346208
20
-41.875562031213278
30
0
10
28.744080321513088
20
-43.230051634942257
30
0
10
28.715241786165571
20
-44.628563187818969
30
0
10
28.678732716437572
20
-46.048496222622589
30
0
10
28.635513602540396
20
-47.466872131406291
30
0
10
28.586614069945185
20
-48.862951964815664
30
0
10
28.532936913944084
20
-50.221062841216238
30
0
10
28.475086338198324
20
-51.532997073326747
30
0
10
28.41314021999127
20
-52.801449156732886
30
0
10
28.346673857751071
20
-54.038743597289027
30
0
10
28.274918165631945
20
-55.263039986749042
30
0
10
28.196876170045357
20
-56.495321435526229
30
0
10
28.111456824058582
20
-57.756056105569364
30
0
10
28.017601312879155
20
-59.062003952660007
30
0
10
27.914412773775567
20
-60.422949323166108
30
0
10
27.801284117237955
20
-61.838492815685981
30
0
10
27.678027828030196
20
-63.294741636541765
30
0
10
27.544916193759903
20
-64.767832160063264
30
0
10
27.40272150476531
20
-66.227548531460926
30
0
10
27.252754148572272
20
-67.64089835690217
30
0
10
27.09690638689748
20
-68.975723386403033
30
0
10
26.937682632000989
20
-70.204256027651383
30
0
10
26.778261284804884
20
-71.306790200698444
30
0
10
26.622482252457939
20
-72.275088846296512
30
0
10
26.475030002304077
20
-73.116472083584824
30
0
10
26.339633984824967
20
-73.851594095971535
30
0
10
26.216862158403188
20
-74.511363591095986
30
0
10
26.102265673319856
20
-75.134013713064917
30
0
10
25.983896988238445
20
-75.762458658399424
30
0
10
25.841495569691414
20
-76.44052689975581
30
0
10
25.653832777913177
20
-77.204010819176517
30
0
10
25.405576694103896
20
-78.071524762030052
30
0
10
25.093273923602585
20
-79.037155529164849
30
0
10
24.734285097580198
20
-80.058203730749796
30
0
10
24.364691876622281
20
-81.060727567547431
30
0
10
24.024651609858985
20
-81.965219169819349
30
0
10
23.746779327835924
20
-82.707463030060381
30
0
10
23.543838372993179
20
-83.260417239920557
30
0
10
23.395467653347801
20
-83.657841172089007
30
0
10
23.238601286839152
20
-84.011477670143094
30
0
10
23.007491134041054
20
-84.440776851669142
30
0
10
22.680297446195347
20
-84.991560249621415
30
0
10
22.298631743135896
20
-85.600637312466645
30
0
10
21.921803634161048
20
-86.171071087463758
30
0
10
21.599396104597098
20
-86.61680445603082
30
0
10
21.325701419207981
20
-86.936906572504995
30
0
10
21.04260666987571
20
-87.211839247643866
30
0
10
20.686384316993887
20
-87.529759435491471
30
0
10
20.229879583459255
20
-87.919386865288388
30
0
10
19.682739932167124
20
-88.355015047059197
30
0
10
19.075501382154062
20
-88.789168121097362
30
0
10
18.449367178810046
20
-89.174947489795017
30
0
10
17.843373028061844
20
-89.494579285779551
30
0
10
17.287939328137231
20
-89.751296609543942
30
0
10
16.798913229162899
20
-89.959419636397485
30
0
10
16.370466832332596
20
-90.134802583017475
30
0
10
15.971088485127678
20
-90.285794673458426
30
0
10
15.563788195371586
20
-90.414679780518782
30
0
10
15.129177877587397
20
-90.517812145146692
30
0
10
14.6741599291054
20
-90.587699104533215
30
0
10
14.214940318195946
20
-90.616886410045211
30
0
10
13.763274490852734
20
-90.602841883508461
30
0
10
13.322805464640586
20
-90.546256090534385
30
0
10
12.893087304623766
20
-90.445691117389032
30
0
10
12.471339601045337
20
-90.293032789561067
30
0
10
12.057378982705361
20
-90.082573497667937
30
0
10
11.661013796239523
20
-89.825099995214714
30
0
10
11.302179329322552
20
-89.551479469390941
30
0
10
10.990801576807483
20
-89.286073801484719
30
0
10
10.70075825835497
20
-89.014930802467262
30
0
10
10.375621370406598
20
-88.687868276795939
30
0
10
9.9668893971975567
20
-88.25666594031901
30
0
10
9.470460372195328
20
-87.70975806977512
30
0
10
8.9211716490270359
20
-87.070327359479734
30
0
10
8.3713766262521059
20
-86.379853961891001
30
0
10
7.8752014889179689
20
-85.686817675773057
30
0
10
7.4699707823743919
20
-85.032948042248989
30
0
10
7.1601264379457605
20
-84.441316330748748
30
0
10
6.9296976665242314
20
-83.918372719088012
30
0
10
6.7530477061515377
20
-83.456105084810616
30
0
10
6.6072861817385142
20
-83.032823376757037
30
0
10
6.4809022140063917
20
-82.618182394182199
30
0
10
6.3692886883890942
20
-82.187324395860415
30
0
10
6.2720361089245138
20
-81.739834225113697
30
0
10
6.1904075136017225
20
-81.295488939725473
30
0
10
6.126328510881569
20
-80.86852047922882
30
0
10
6.0806124066060754
20
-80.442742165156901
30
0
10
6.0535011362861804
20
-79.979131779117083
30
0
10
6.045765270930926
20
-79.434679183206583
30
0
10
6.0595485685395225
20
-78.776716439887352
30
0
10
6.0975476435535629
20
-77.983002663431776
30
0
10
6.1622016684127887
20
-77.041825521702151
30
0
10
6.2549389214783666
20
-75.952006146075902
30
0
10
6.3752594936005371
20
-74.723246571708714
30
0
10
6.5203597946831984
20
-73.375306751126729
30
0
10
6.6857965675857027
20
-71.934924586813636
30
0
10
6.8659255475546113
20
-70.433223028314515
30
0
10
7.0544290791732891
20
-68.902930903694511
30
0
10
7.2448086870405346
20
-67.375663221486619
30
0
10
7.4308857957601129
20
-65.879222674275226
30
0
10
7.6073150411566743
20
-64.434783163525722
30
0
10
7.770054326871092
20
-63.054379809214389
30
0
10
7.9169521359438955
20
-61.737600388893341
30
0
10
8.0475460271728636
20
-60.473609286791394
30
0
10
8.1626617301846753
20
-59.244515746936067
30
0
10
8.2640794537242019
20
-58.028292526127458
30
0
10
8.354173377254936
20
-56.801866298818609
30
0
10
8.4355595759058986
20
-55.544172676840695
30
0
10
8.510747524131526
20
-54.239137103874839
30
0
10
8.5817728822395232
20
-52.878900869748726
30
0
10
8.6498886700384041
20
-51.466317378268222
30
0
10
8.7156887514109229
20
-50.012098846865527
30
0
10
8.77918784856465
20
-48.532494429437222
30
0
10
8.839918271545919
20
-47.04677558719056
30
0
10
8.8970194691316227
20
-45.574777952193898
30
0
10
8.9493307964393143
20
-44.13447815013982
30
0
10
8.9954825729285943
20
-42.739417921843511
30
0
10
9.033988618265365
20
-41.396515983512501
30
0
10
9.0633362842483969
20
-40.102908644336317
30
0
10
9.0820857341794152
20
-38.846707141314326
30
0
10
9.0889763145255937
20
-37.610709168849056
30
0
10
9.0830304857138646
20
-36.375245647144595
30
0
10
9.0636596118127848
20
-35.121397100078617
30
0
10
9.0307670031985516
20
-33.834020074819406
30
0
10
8.9848566975042718
20
-32.504928671702935
30
0
10
8.9271290512289934
20
-31.135836446239811
30
0
10
8.8596108441373662
20
-29.741866472921132
30
0
10
8.7848253703185275
20
-28.347619858786398
30
0
10
8.7054212810517164
20
-26.982570329087721
30
0
10
8.6238131688852455
20
-25.676668587659449
30
0
10
8.5418240813358803
20
-24.455930125087516
30
0
10
8.4603112628073269
20
-23.337863668174215
30
0
10
8.3788362257940499
20
-22.327355855245834
30
0
10
8.2952263798249408
20
-21.411426239147552
30
0
10
8.2054642182944661
20
-20.557401531037858
30
0
10
8.1046312223652208
20
-19.722092271598232
30
0
10
7.9876618458138191
20
-18.858998884856078
30
0
10
7.8501943541072308
20
-17.926501596164798
30
0
10
7.6893292672336546
20
-16.895149380955957
30
0
10
7.5045617109239702
20
-15.756600436244367
30
0
10
7.29744634459108
20
-14.520616267924428
30
0
10
7.0710201075429202
20
-13.209776584197858
30
0
10
6.8293069442970245
20
-11.854965363652738
30
0
10
6.5767921048513722
20
-10.490570974941765
30
0
10
6.3179003010952117
20
-9.1497218272049334
30
0
10
6.0564936760522246
20
-7.8597101376877649
30
0
10
5.7953099122612066
20
-6.6368484648130579
30
0
10
5.5355792910563109
20
-5.4830201665711877
30
0
10
5.2775855000457481
20
-4.3911213981695312
30
0
10
5.0211144723067038
20
-3.3494762954402946
30
0
10
4.7659337521033072
20
-2.3464714136802947
30
0
10
4.5122881318126176
20
-1.3755034712806835
30
0
10
4.2613199817536405
20
-0.43884358287418163
30
0
10
4.015691920738079
20
0.44567898354111457
30
0
10
3.7794135277505307
20
1.2488438409536233
30
0
10
3.5569418997483098
20
1.9432024107602817
30
0
10
3.3525335189656396
20
2.5144017630450137
30
0
10
3.1693861622590487
20
2.9717409183908874
30
0
10
3.0092130295189339
20
3.3630909501677619
30
0
10
2.8651988564605952
20
3.7474071748294202
30
0
10
2.7103739979620012
20
4.1561388007897211
30
0
10
2.494666604764106
20
4.5656754166335647
30
0
10
2.1792357085153338
20
4.9293815212825063
30
0
10
1.7839876818463105
20
5.2098815597891566
30
0
10
1.3819254598030657
20
5.3957723130138362
30
0
10
1.0224374247536263
20
5.4900608386614422
30
0
10
0.64881680666486719
20
5.5048815062382284
30
0
10
0.13410759057044461
20
5.4561496832513425
30
0
10
-0.62817199277795455
20
5.3605429337042931
30
0
10
-1.649672368173388
20
5.231539710769237
30
0
10
-2.8701904024432996
20
5.080058580034386
30
0
10
-4.1862454007450829
20
4.9150434407514005
30
0
10
-5.4768404330469984
20
4.7440355134362937
30
0
10
-6.6316644962636859
20
4.5738474257028638
30
0
10
-7.5753620704405442
20
4.410967653691209
30
0
10
-8.3005125874235031
20
4.2626332088749965
30
0
10
-8.8727295024649191
20
4.1356522264139333
30
0
10
-9.375062967741302
20
4.0295803911246022
30
0
10
-9.8722289688494129
20
3.932496225144483
30
0
10
-10.35155490544312
20
3.8126103584430293
30
0
10
-10.732993042562367
20
3.6237582850931616
30
0
10
-10.937795005863283
20
3.3233807874943895
30
0
10
-10.951441397519497
20
2.8885266799903113
30
0
10
-10.8142684045674
20
2.3239119577684058
30
0
10
-10.589316254247001
20
1.6692496467160041
30
0
10
-10.340773191409831
20
1.0018664762072684
30
0
10
-10.124001142179875
20
0.39896048719757149
30
0
10
-9.9766140604947555
20
-0.091162992342813831
30
0
10
-9.9061508844979844
20
-0.49011668860005753
30
0
10
-9.8884784506808536
20
-0.89746062873392929
30
0
10
-9.8876398293934109
20
-1.4345930446027815
30
0
10
-9.8744872745204191
20
-2.1925470200055548
30
0
10
-9.8329215079320083
20
-3.215283868729216
30
0
10
-9.7557354945068049
20
-4.5129601198017832
30
0
10
-9.6436511224887624
20
-6.0659797459167875
30
0
10
-9.5030376117659081
20
-7.832851705600044
30
0
10
-9.3441833885871048
20
-9.7564487117548264
30
0
10
-9.1793578359670072
20
-11.770875299854795
30
0
10
-9.020898456082092
20
-13.808255831163653
30
0
10
-8.8794395767843035
20
-15.805129557030524
30
0
10
-8.7616965151581567
20
-17.710089958608521
30
0
10
-8.6702444349029353
20
-19.485834592602906
30
0
10
-8.6045358388477187
20
-21.107744300960611
30
0
10
-8.5615425027899743
20
-22.563513294588407
30
0
10
-8.5365532410255689
20
-23.852346646666177
30
0
10
-8.5239035087537864
20
-24.984339400031857
30
0
10
-8.5177373548719775
20
-25.979787214282389
30
0
10
-8.5127483752983295
20
-26.868504550919813
30
0
10
-8.504946492217897
20
-27.689192465739087
30
0
10
-8.4923659770481557
20
-28.488633020617435
30
0
10
-8.4746048948516659
20
-29.316830656784667
30
0
10
-8.45242062861203
20
-30.222425060029067
30
0
10
-8.427293201846739
20
-31.247815011913907
30
0
10
-8.4010277382910097
20
-32.424831566610543
30
0
10
-8.3752760585490051
20
-33.769101256077533
30
0
10
-8.351404013264446
20
-35.280185339101124
30
0
10
-8.3305547185279725
20
-36.945011821362328
30
0
10
-8.313651756004262
20
-38.740296666807005
30
0
10
-8.3014272367212421
20
-40.635384689187212
30
0
10
-8.2944391758327676
20
-42.594907345008728
30
0
10
-8.293093516835917
20
-44.581526110937048
30
0
10
-8.2976640299681002
20
-46.558622986915168
30
0
10
-8.3083134046666611
20
-48.493050873918754
30
0
10
-8.3251131707094732
20
-50.357771789894883
30
0
10
-8.3480656857530029
20
-52.134749829389655
30
0
10
-8.377120611084603
20
-53.817124537213601
30
0
10
-8.4121575049370545
20
-55.406895267327059
30
0
10
-8.4529721204492709
20
-56.9131054531342
30
0
10
-8.4992614120787895
20
-58.349836733986351
30
0
10
-8.5506087769002459
20
-59.734278521881599
30
0
10
-8.6064699180737971
20
-61.084778109834033
30
0
10
-8.6661567539164359
20
-62.418869184116829
30
0
10
-8.7288260891511644
20
-63.751379521886179
30
0
10
-8.7934568526359111
20
-65.092337452638745
30
0
10
-8.8588603013176801
20
-66.445464404847158
30
0
10
-8.923866021633895
20
-67.809795402305923
30
0
10
-8.987485857317056
20
-69.180908979573459
30
0
10
-9.049086747856423
20
-70.552309833676802
30
0
10
-9.1085589627363515
20
-71.916742963962733
30
0
10
-9.1664882154700926
20
-73.267545222582143
30
0
10
-9.224321718073444
20
-74.599962224398539
30
0
10
-9.2845473159416727
20
-75.912524236481616
30
0
10
-9.350837250824279
20
-77.208271602421007
30
0
10
-9.4273189796749435
20
-78.492338922811655
30
0
10
-9.5178869242179331
20
-79.769703945520988
30
0
10
-9.6254833072408221
20
-81.042821156526358
30
0
10
-9.751427281723867
20
-82.309425325884803
30
0
10
-9.8946417450880801
20
-83.559981425012978
30
0
10
-10.051114390821231
20
-84.775941137878164
30
0
10
-10.212794160152253
20
-85.926056578459054
30
0
10
-10.368349770732374
20
-86.969101460684271
30
0
10
-10.506975497771494
20
-87.867085509546968
30
0
10
-10.621489953576553
20
-88.596024714842926
30
0
10
-10.711726589346373
20
-89.157740531787582
30
0
10
-10.787780656730535
20
-89.591107528142047
30
0
10
-10.873427280024883
20
-89.984020178173964
30
0
10
-10.993736050823825
20
-90.431466397715923
30
0
10
-11.159934973883161
20
-90.985042126063846
30
0
10
-11.361137980156792
20
-91.623317124559151
30
0
10
-11.58002134958658
20
-92.29274024744187
30
0
10
-11.80301286685917
20
-92.933982094598448
30
0
10
-12.036029869953568
20
-93.520501415906239
30
0
10
-12.305783551094983
20
-94.068959960091291
30
0
10
-12.638184517668122
20
-94.608049199931571
30
0
10
-13.044886504362324
20
-95.16012796586611
30
0
10
-13.500185030122491
20
-95.710547289553546
30
0
10
-13.949958067776169
20
-96.213443679221001
30
0
10
-14.347122392262817
20
-96.626171041130235
30
0
10
-14.674648936049906
20
-96.931299832280686
30
0
10
-14.985319246927688
20
-97.173954491574662
30
0
10
-15.364101787126625
20
-97.430780369938446
30
0
10
-15.863886531735751
20
-97.755517389860302
30
0
10
-16.449736704458509
20
-98.132131693597273
30
0
10
-17.043494658236497
20
-98.506782527302477
30
0
10
-17.566633086190638
20
-98.819010233509502
30
0
10
-17.989614047141359
20
-99.036884748604479
30
0
10
-18.361820790365151
20
-99.179907997411746
30
0
10
-18.753790278036369
20
-99.284450301700687
30
0
10
-19.196408332799074
20
-99.368794381713727
30
0
10
-19.665308343250047
20
-99.422200633282017
30
0
10
-20.125270838196485
20
-99.427419460523112
30
0
10
-20.478852857275626
20
-99.387770481291653
30
0
10
-20.741435813065241
20
-99.33571305461173
30
0
10
-20.916293581961774
20
-99.292320131007315
30
0
10
-21.003599999999999
20
-99.268600000000021
30
0
0
ENDSEC
0
SECTION
2
OBJECTS
0
DICTIONARY
5
C
100
AcDbDictionary
3
ACAD_GROUP
350
D
3
ACAD_MLINESTYLE
350
17
0
DICTIONARY
5
D
100
AcDbDictionary
0
DICTIONARY
5
1A
330
C
100
AcDbDictionary
0
DICTIONARY
5
17
100
AcDbDictionary
0
ENDSEC
0
EOF
