0
SECTION
2
HEADER
9
$INSUNITS
70
4
9
$ACADVER
1
AC1014
9
$HANDSEED
5
FFFF
0
ENDSEC
0
SECTION
2
TABLES
0
TABLE
2
VPORT
5
8
100
AcDbSymbolTable
0
ENDTAB
0
TABLE
2
LTYPE
5
5
100
AcDbSymbolTable
0
LTYPE
5
14
100
AcDbSymbolTableRecord
100
AcDbLinetypeTableRecord
2
BYBLOCK
70
0
0
LTYPE
5
15
100
AcDbSymbolTableRecord
100
AcDbLinetypeTableRecord
2
BYLAYER
70
0
0
LTYPE
5
16
100
AcDbSymbolTableRecord
100
AcDbLinetypeTableRecord
2
DASHED
70
0
3
Dashed __ __ __ __ __ __ __ __ __ __ __ __ __ _
72
65
73
2
40
0.75
49
0.5
74
0
49
-0.25
74
0
0
ENDTAB
0
TABLE
2
LAYER
5
2
100
AcDbSymbolTable
70
2
0
LAYER
5
50
100
AcDbSymbolTableRecord
100
AcDbLayerTableRecord
2
0
70
0
62
7
6
CONTINUOUS
0
ENDTAB
0
TABLE
2
STYLE
5
3
100
AcDbSymbolTable
70
1
0
STYLE
5
11
100
AcDbSymbolTableRecord
100
AcDbTextStyleTableRecord
2
STANDARD
70
0
0
ENDTAB
0
TABLE
2
VIEW
5
6
100
AcDbSymbolTable
70
0
0
ENDTAB
0
TABLE
2
UCS
5
7
100
AcDbSymbolTable
70
0
0
ENDTAB
0
TABLE
2
APPID
5
9
100
AcDbSymbolTable
70
2
0
APPID
5
12
100
AcDbSymbolTableRecord
100
AcDbRegAppTableRecord
2
ACAD
70
0
0
ENDTAB
0
TABLE
2
DIMSTYLE
5
A
100
AcDbSymbolTable
70
1
0
ENDTAB
0
TABLE
2
BLOCK_RECORD
5
1
100
AcDbSymbolTable
70
1
0
BLOCK_RECORD
5
1F
100
AcDbSymbolTableRecord
100
AcDbBlockTableRecord
2
*MODEL_SPACE
0
BLOCK_RECORD
5
1B
100
AcDbSymbolTableRecord
100
AcDbBlockTableRecord
2
*PAPER_SPACE
0
ENDTAB
0
ENDSEC
0
SECTION
2
BLOCKS
0
BLOCK
5
20
100
AcDbEntity
100
AcDbBlockBegin
2
*MODEL_SPACE
0
ENDBLK
5
21
100
AcDbEntity
100
AcDbBlockEnd
0
BLOCK
5
1C
100
AcDbEntity
100
AcDbBlockBegin
2
*PAPER_SPACE
0
ENDBLK
5
1D
100
AcDbEntity
100
AcDbBlockEnd
0
ENDSEC
0
SECTION
2
ENTITIES
0
SPLINE
5
100
100
AcDbEntity
8
0
100
AcDbSpline
70
6
71
5
72
631
73
625
74
0
42
0.000000001
43
0.0000000001
44
0.0000000001
40
0
40
0
40
0
40
0
40
0
40
0
40
0.0016129032258064516
40
0.0032258064516129032
40
0.0048387096774193551
40
0.0064516129032258064
40
0.0080645161290322578
40
0.0096774193548387101
40
0.011290322580645162
40
0.012903225806451615
40
0.014516129032258067
40
0.016129032258064519
40
0.017741935483870971
40
0.019354838709677424
40
0.020967741935483876
40
0.022580645161290328
40
0.02419354838709678
40
0.025806451612903233
40
0.027419354838709685
40
0.029032258064516137
40
0.03064516129032259
40
0.032258064516129038
40
0.033870967741935487
40
0.035483870967741936
40
0.037096774193548385
40
0.038709677419354833
40
0.040322580645161282
40
0.041935483870967731
40
0.04354838709677418
40
0.045161290322580629
40
0.046774193548387077
40
0.048387096774193526
40
0.049999999999999975
40
0.051612903225806424
40
0.053225806451612873
40
0.054838709677419321
40
0.05645161290322577
40
0.058064516129032219
40
0.059677419354838668
40
0.061290322580645117
40
0.062903225806451565
40
0.064516129032258021
40
0.066129032258064477
40
0.067741935483870933
40
0.069354838709677388
40
0.070967741935483844
40
0.0725806451612903
40
0.074193548387096755
40
0.075806451612903211
40
0.077419354838709667
40
0.079032258064516123
40
0.080645161290322578
40
0.082258064516129034
40
0.08387096774193549
40
0.085483870967741946
40
0.087096774193548401
40
0.088709677419354857
40
0.090322580645161313
40
0.091935483870967769
40
0.093548387096774224
40
0.09516129032258068
40
0.096774193548387136
40
0.098387096774193591
40
0.10000000000000005
40
0.1016129032258065
40
0.10322580645161296
40
0.10483870967741941
40
0.10645161290322587
40
0.10806451612903233
40
0.10967741935483878
40
0.11129032258064524
40
0.11290322580645169
40
0.11451612903225815
40
0.1161290322580646
40
0.11774193548387106
40
0.11935483870967752
40
0.12096774193548397
40
0.12258064516129043
40
0.12419354838709688
40
0.12580645161290333
40
0.12741935483870978
40
0.12903225806451624
40
0.13064516129032269
40
0.13225806451612915
40
0.1338709677419356
40
0.13548387096774206
40
0.13709677419354852
40
0.13870967741935497
40
0.14032258064516143
40
0.14193548387096788
40
0.14354838709677434
40
0.14516129032258079
40
0.14677419354838725
40
0.14838709677419371
40
0.15000000000000016
40
0.15161290322580662
40
0.15322580645161307
40
0.15483870967741953
40
0.15645161290322598
40
0.15806451612903244
40
0.1596774193548389
40
0.16129032258064535
40
0.16290322580645181
40
0.16451612903225826
40
0.16612903225806472
40
0.16774193548387117
40
0.16935483870967763
40
0.17096774193548409
40
0.17258064516129054
40
0.174193548387097
40
0.17580645161290345
40
0.17741935483870991
40
0.17903225806451636
40
0.18064516129032282
40
0.18225806451612928
40
0.18387096774193573
40
0.18548387096774219
40
0.18709677419354864
40
0.1887096774193551
40
0.19032258064516155
40
0.19193548387096801
40
0.19354838709677447
40
0.19516129032258092
40
0.19677419354838738
40
0.19838709677419383
40
0.20000000000000029
40
0.20161290322580674
40
0.2032258064516132
40
0.20483870967741966
40
0.20645161290322611
40
0.20806451612903257
40
0.20967741935483902
40
0.21129032258064548
40
0.21290322580645193
40
0.21451612903225839
40
0.21612903225806485
40
0.2177419354838713
40
0.21935483870967776
40
0.22096774193548421
40
0.22258064516129067
40
0.22419354838709712
40
0.22580645161290358
40
0.22741935483871004
40
0.22903225806451649
40
0.23064516129032295
40
0.2322580645161294
40
0.23387096774193586
40
0.23548387096774231
40
0.23709677419354877
40
0.23870967741935523
40
0.24032258064516168
40
0.24193548387096814
40
0.24354838709677459
40
0.24516129032258105
40
0.2467741935483875
40
0.24838709677419396
40
0.25000000000000039
40
0.25161290322580682
40
0.25322580645161324
40
0.25483870967741967
40
0.2564516129032261
40
0.25806451612903253
40
0.25967741935483896
40
0.26129032258064538
40
0.26290322580645181
40
0.26451612903225824
40
0.26612903225806467
40
0.2677419354838711
40
0.26935483870967752
40
0.27096774193548395
40
0.27258064516129038
40
0.27419354838709681
40
0.27580645161290324
40
0.27741935483870966
40
0.27903225806451609
40
0.28064516129032252
40
0.28225806451612895
40
0.28387096774193538
40
0.2854838709677418
40
0.28709677419354823
40
0.28870967741935466
40
0.29032258064516109
40
0.29193548387096752
40
0.29354838709677394
40
0.29516129032258037
40
0.2967741935483868
40
0.29838709677419323
40
0.29999999999999966
40
0.30161290322580608
40
0.30322580645161251
40
0.30483870967741894
40
0.30645161290322537
40
0.3080645161290318
40
0.30967741935483822
40
0.31129032258064465
40
0.31290322580645108
40
0.31451612903225751
40
0.31612903225806394
40
0.31774193548387036
40
0.31935483870967679
40
0.32096774193548322
40
0.32258064516128965
40
0.32419354838709608
40
0.3258064516129025
40
0.32741935483870893
40
0.32903225806451536
40
0.33064516129032179
40
0.33225806451612822
40
0.33387096774193464
40
0.33548387096774107
40
0.3370967741935475
40
0.33870967741935393
40
0.34032258064516036
40
0.34193548387096678
40
0.34354838709677321
40
0.34516129032257964
40
0.34677419354838607
40
0.3483870967741925
40
0.34999999999999892
40
0.35161290322580535
40
0.35322580645161178
40
0.35483870967741821
40
0.35645161290322463
40
0.35806451612903106
40
0.35967741935483749
40
0.36129032258064392
40
0.36290322580645035
40
0.36451612903225677
40
0.3661290322580632
40
0.36774193548386963
40
0.36935483870967606
40
0.37096774193548249
40
0.37258064516128891
40
0.37419354838709534
40
0.37580645161290177
40
0.3774193548387082
40
0.37903225806451463
40
0.38064516129032105
40
0.38225806451612748
40
0.38387096774193391
40
0.38548387096774034
40
0.38709677419354677
40
0.38870967741935319
40
0.39032258064515962
40
0.39193548387096605
40
0.39354838709677248
40
0.39516129032257891
40
0.39677419354838533
40
0.39838709677419176
40
0.39999999999999819
40
0.40161290322580462
40
0.40322580645161105
40
0.40483870967741747
40
0.4064516129032239
40
0.40806451612903033
40
0.40967741935483676
40
0.41129032258064319
40
0.41290322580644961
40
0.41451612903225604
40
0.41612903225806247
40
0.4177419354838689
40
0.41935483870967533
40
0.42096774193548175
40
0.42258064516128818
40
0.42419354838709461
40
0.42580645161290104
40
0.42741935483870747
40
0.42903225806451389
40
0.43064516129032032
40
0.43225806451612675
40
0.43387096774193318
40
0.43548387096773961
40
0.43709677419354603
40
0.43870967741935246
40
0.44032258064515889
40
0.44193548387096532
40
0.44354838709677175
40
0.44516129032257817
40
0.4467741935483846
40
0.44838709677419103
40
0.44999999999999746
40
0.45161290322580389
40
0.45322580645161031
40
0.45483870967741674
40
0.45645161290322317
40
0.4580645161290296
40
0.45967741935483603
40
0.46129032258064245
40
0.46290322580644888
40
0.46451612903225531
40
0.46612903225806174
40
0.46774193548386817
40
0.46935483870967459
40
0.47096774193548102
40
0.47258064516128745
40
0.47419354838709388
40
0.47580645161290031
40
0.47741935483870673
40
0.47903225806451316
40
0.48064516129031959
40
0.48225806451612602
40
0.48387096774193245
40
0.48548387096773887
40
0.4870967741935453
40
0.48870967741935173
40
0.49032258064515816
40
0.49193548387096458
40
0.49354838709677101
40
0.49516129032257744
40
0.49677419354838387
40
0.4983870967741903
40
0.49999999999999672
40
0.50161290322580321
40
0.50322580645160964
40
0.50483870967741606
40
0.50645161290322249
40
0.50806451612902892
40
0.50967741935483535
40
0.51129032258064178
40
0.5129032258064482
40
0.51451612903225463
40
0.51612903225806106
40
0.51774193548386749
40
0.51935483870967392
40
0.52096774193548034
40
0.52258064516128677
40
0.5241935483870932
40
0.52580645161289963
40
0.52741935483870606
40
0.52903225806451248
40
0.53064516129031891
40
0.53225806451612534
40
0.53387096774193177
40
0.5354838709677382
40
0.53709677419354462
40
0.53870967741935105
40
0.54032258064515748
40
0.54193548387096391
40
0.54354838709677034
40
0.54516129032257676
40
0.54677419354838319
40
0.54838709677418962
40
0.54999999999999605
40
0.55161290322580248
40
0.5532258064516089
40
0.55483870967741533
40
0.55645161290322176
40
0.55806451612902819
40
0.55967741935483462
40
0.56129032258064104
40
0.56290322580644747
40
0.5645161290322539
40
0.56612903225806033
40
0.56774193548386676
40
0.56935483870967318
40
0.57096774193547961
40
0.57258064516128604
40
0.57419354838709247
40
0.5758064516128989
40
0.57741935483870532
40
0.57903225806451175
40
0.58064516129031818
40
0.58225806451612461
40
0.58387096774193104
40
0.58548387096773746
40
0.58709677419354389
40
0.58870967741935032
40
0.59032258064515675
40
0.59193548387096317
40
0.5935483870967696
40
0.59516129032257603
40
0.59677419354838246
40
0.59838709677418889
40
0.59999999999999531
40
0.60161290322580174
40
0.60322580645160817
40
0.6048387096774146
40
0.60645161290322103
40
0.60806451612902745
40
0.60967741935483388
40
0.61129032258064031
40
0.61290322580644674
40
0.61451612903225317
40
0.61612903225805959
40
0.61774193548386602
40
0.61935483870967245
40
0.62096774193547888
40
0.62258064516128531
40
0.62419354838709173
40
0.62580645161289816
40
0.62741935483870459
40
0.62903225806451102
40
0.63064516129031745
40
0.63225806451612387
40
0.6338709677419303
40
0.63548387096773673
40
0.63709677419354316
40
0.63870967741934959
40
0.64032258064515601
40
0.64193548387096244
40
0.64354838709676887
40
0.6451612903225753
40
0.64677419354838173
40
0.64838709677418815
40
0.64999999999999458
40
0.65161290322580101
40
0.65322580645160744
40
0.65483870967741387
40
0.65645161290322029
40
0.65806451612902672
40
0.65967741935483315
40
0.66129032258063958
40
0.66290322580644601
40
0.66451612903225243
40
0.66612903225805886
40
0.66774193548386529
40
0.66935483870967172
40
0.67096774193547815
40
0.67258064516128457
40
0.674193548387091
40
0.67580645161289743
40
0.67741935483870386
40
0.67903225806451029
40
0.68064516129031671
40
0.68225806451612314
40
0.68387096774192957
40
0.685483870967736
40
0.68709677419354243
40
0.68870967741934885
40
0.69032258064515528
40
0.69193548387096171
40
0.69354838709676814
40
0.69516129032257457
40
0.69677419354838099
40
0.69838709677418742
40
0.69999999999999385
40
0.70161290322580028
40
0.70322580645160671
40
0.70483870967741313
40
0.70645161290321956
40
0.70806451612902599
40
0.70967741935483242
40
0.71129032258063885
40
0.71290322580644527
40
0.7145161290322517
40
0.71612903225805813
40
0.71774193548386456
40
0.71935483870967099
40
0.72096774193547741
40
0.72258064516128384
40
0.72419354838709027
40
0.7258064516128967
40
0.72741935483870312
40
0.72903225806450955
40
0.73064516129031598
40
0.73225806451612241
40
0.73387096774192884
40
0.73548387096773526
40
0.73709677419354169
40
0.73870967741934812
40
0.74032258064515455
40
0.74193548387096098
40
0.7435483870967674
40
0.74516129032257383
40
0.74677419354838026
40
0.74838709677418669
40
0.74999999999999312
40
0.75161290322579954
40
0.75322580645160597
40
0.7548387096774124
40
0.75645161290321883
40
0.75806451612902526
40
0.75967741935483168
40
0.76129032258063811
40
0.76290322580644454
40
0.76451612903225097
40
0.7661290322580574
40
0.76774193548386382
40
0.76935483870967025
40
0.77096774193547668
40
0.77258064516128311
40
0.77419354838708954
40
0.77580645161289596
40
0.77741935483870239
40
0.77903225806450882
40
0.78064516129031525
40
0.78225806451612168
40
0.7838709677419281
40
0.78548387096773453
40
0.78709677419354096
40
0.78870967741934739
40
0.79032258064515382
40
0.79193548387096024
40
0.79354838709676667
40
0.7951612903225731
40
0.79677419354837953
40
0.79838709677418596
40
0.79999999999999238
40
0.80161290322579881
40
0.80322580645160524
40
0.80483870967741167
40
0.8064516129032181
40
0.80806451612902452
40
0.80967741935483095
40
0.81129032258063738
40
0.81290322580644381
40
0.81451612903225024
40
0.81612903225805666
40
0.81774193548386309
40
0.81935483870966952
40
0.82096774193547595
40
0.82258064516128238
40
0.8241935483870888
40
0.82580645161289523
40
0.82741935483870166
40
0.82903225806450809
40
0.83064516129031452
40
0.83225806451612094
40
0.83387096774192737
40
0.8354838709677338
40
0.83709677419354023
40
0.83870967741934666
40
0.84032258064515308
40
0.84193548387095951
40
0.84354838709676594
40
0.84516129032257237
40
0.8467741935483788
40
0.84838709677418522
40
0.84999999999999165
40
0.85161290322579808
40
0.85322580645160451
40
0.85483870967741094
40
0.85645161290321736
40
0.85806451612902379
40
0.85967741935483022
40
0.86129032258063665
40
0.86290322580644307
40
0.8645161290322495
40
0.86612903225805593
40
0.86774193548386236
40
0.86935483870966879
40
0.87096774193547521
40
0.87258064516128164
40
0.87419354838708807
40
0.8758064516128945
40
0.87741935483870093
40
0.87903225806450735
40
0.88064516129031378
40
0.88225806451612021
40
0.88387096774192664
40
0.88548387096773307
40
0.88709677419353949
40
0.88870967741934592
40
0.89032258064515235
40
0.89193548387095878
40
0.89354838709676521
40
0.89516129032257163
40
0.89677419354837806
40
0.89838709677418449
40
0.89999999999999092
40
0.90161290322579735
40
0.90322580645160377
40
0.9048387096774102
40
0.90645161290321663
40
0.90806451612902306
40
0.90967741935482949
40
0.91129032258063591
40
0.91290322580644234
40
0.91451612903224877
40
0.9161290322580552
40
0.91774193548386163
40
0.91935483870966805
40
0.92096774193547448
40
0.92258064516128091
40
0.92419354838708734
40
0.92580645161289377
40
0.92741935483870019
40
0.92903225806450662
40
0.93064516129031305
40
0.93225806451611948
40
0.93387096774192591
40
0.93548387096773233
40
0.93709677419353876
40
0.93870967741934519
40
0.94032258064515162
40
0.94193548387095805
40
0.94354838709676447
40
0.9451612903225709
40
0.94677419354837733
40
0.94838709677418376
40
0.94999999999999019
40
0.95161290322579661
40
0.95322580645160304
40
0.95483870967740947
40
0.9564516129032159
40
0.95806451612902233
40
0.95967741935482875
40
0.96129032258063518
40
0.96290322580644161
40
0.96451612903224804
40
0.96612903225805447
40
0.96774193548386089
40
0.96935483870966732
40
0.97096774193547375
40
0.97258064516128018
40
0.97419354838708661
40
0.97580645161289303
40
0.97741935483869946
40
0.97903225806450589
40
0.98064516129031232
40
0.98225806451611875
40
0.98387096774192517
40
0.9854838709677316
40
0.98709677419353803
40
0.98870967741934446
40
0.99032258064515089
40
0.99193548387095731
40
0.99354838709676374
40
0.99516129032257017
40
0.9967741935483766
40
0.99838709677418302
40
1
40
1
40
1
40
1
40
1
40
1
41
1
41
1
41
1
41
1
41
1
41
1
41
1
41
1
41
1
41
1
41
1
41
1
41
1
41
1
41
1
41
1
41
1
41
1
41
1
41
1
41
1
41
1
41
1
41
1
41
1
41
1
41
1
41
1
41
1
41
1
41
1
41
1
41
1
41
1
41
1
41
1
41
1
41
1
41
1
41
1
41
1
41
1
41
1
41
1
41
1
41
1
41
1
41
1
41
1
41
1
41
1
41
1
41
1
41
1
41
1
41
1
41
1
41
1
41
1
41
1
41
1
41
1
41
1
41
1
41
1
41
1
41
1
41
1
41
1
41
1
41
1
41
1
41
1
41
1
41
1
41
1
41
1
41
1
41
1
41
1
41
1
41
1
41
1
41
1
41
1
41
1
41
1
41
1
41
1
41
1
41
1
41
1
41
1
41
1
41
1
41
1
41
1
41
1
41
1
41
1
41
1
41
1
41
1
41
1
41
1
41
1
41
1
41
1
41
1
41
1
41
1
41
1
41
1
41
1
41
1
41
1
41
1
41
1
41
1
41
1
41
1
41
1
41
1
41
1
41
1
41
1
41
1
41
1
41
1
41
1
41
1
41
1
41
1
41
1
41
1
41
1
41
1
41
1
41
1
41
1
41
1
41
1
41
1
41
1
41
1
41
1
41
1
41
1
41
1
41
1
41
1
41
1
41
1
41
1
41
1
41
1
41
1
41
1
41
1
41
1
41
1
41
1
41
1
41
1
41
1
41
1
41
1
41
1
41
1
41
1
41
1
41
1
41
1
41
1
41
1
41
1
41
1
41
1
41
1
41
1
41
1
41
1
41
1
41
1
41
1
41
1
41
1
41
1
41
1
41
1
41
1
41
1
41
1
41
1
41
1
41
1
41
1
41
1
41
1
41
1
41
1
41
1
41
1
41
1
41
1
41
1
41
1
41
1
41
1
41
1
41
1
41
1
41
1
41
1
41
1
41
1
41
1
41
1
41
1
41
1
41
1
41
1
41
1
41
1
41
1
41
1
41
1
41
1
41
1
41
1
41
1
41
1
41
1
41
1
41
1
41
1
41
1
41
1
41
1
41
1
41
1
41
1
41
1
41
1
41
1
41
1
41
1
41
1
41
1
41
1
41
1
41
1
41
1
41
1
41
1
41
1
41
1
41
1
41
1
41
1
41
1
41
1
41
1
41
1
41
1
41
1
41
1
41
1
41
1
41
1
41
1
41
1
41
1
41
1
41
1
41
1
41
1
41
1
41
1
41
1
41
1
41
1
41
1
41
1
41
1
41
1
41
1
41
1
41
1
41
1
41
1
41
1
41
1
41
1
41
1
41
1
41
1
41
1
41
1
41
1
41
1
41
1
41
1
41
1
41
1
41
1
41
1
41
1
41
1
41
1
41
1
41
1
41
1
41
1
41
1
41
1
41
1
41
1
41
1
41
1
41
1
41
1
41
1
41
1
41
1
41
1
41
1
41
1
41
1
41
1
41
1
41
1
41
1
41
1
41
1
41
1
41
1
41
1
41
1
41
1
41
1
41
1
41
1
41
1
41
1
41
1
41
1
41
1
41
1
41
1
41
1
41
1
41
1
41
1
41
1
41
1
41
1
41
1
41
1
41
1
41
1
41
1
41
1
41
1
41
1
41
1
41
1
41
1
41
1
41
1
41
1
41
1
41
1
41
1
41
1
41
1
41
1
41
1
41
1
41
1
41
1
41
1
41
1
41
1
41
1
41
1
41
1
41
1
41
1
41
1
41
1
41
1
41
1
41
1
41
1
41
1
41
1
41
1
41
1
41
1
41
1
41
1
41
1
41
1
41
1
41
1
41
1
41
1
41
1
41
1
41
1
41
1
41
1
41
1
41
1
41
1
41
1
41
1
41
1
41
1
41
1
41
1
41
1
41
1
41
1
41
1
41
1
41
1
41
1
41
1
41
1
41
1
41
1
41
1
41
1
41
1
41
1
41
1
41
1
41
1
41
1
41
1
41
1
41
1
41
1
41
1
41
1
41
1
41
1
41
1
41
1
41
1
41
1
41
1
41
1
41
1
41
1
41
1
41
1
41
1
41
1
41
1
41
1
41
1
41
1
41
1
41
1
41
1
41
1
41
1
41
1
41
1
41
1
41
1
41
1
41
1
41
1
41
1
41
1
41
1
41
1
41
1
41
1
41
1
41
1
41
1
41
1
41
1
41
1
41
1
41
1
41
1
41
1
41
1
41
1
41
1
41
1
41
1
41
1
41
1
41
1
41
1
41
1
41
1
41
1
41
1
41
1
41
1
41
1
41
1
41
1
41
1
41
1
41
1
41
1
41
1
41
1
41
1
41
1
41
1
41
1
41
1
41
1
41
1
41
1
41
1
41
1
41
1
41
1
41
1
41
1
41
1
41
1
41
1
41
1
41
1
41
1
41
1
41
1
41
1
41
1
41
1
41
1
41
1
41
1
41
1
41
1
41
1
41
1
41
1
41
1
41
1
41
1
41
1
41
1
41
1
41
1
41
1
41
1
41
1
41
1
41
1
41
1
41
1
41
1
41
1
41
1
41
1
41
1
41
1
41
1
41
1
41
1
41
1
41
1
41
1
41
1
41
1
41
1
41
1
41
1
41
1
41
1
41
1
41
1
41
1
41
1
41
1
41
1
41
1
41
1
41
1
41
1
41
1
41
1
41
1
41
1
41
1
41
1
41
1
41
1
41
1
41
1
41
1
41
1
41
1
41
1
41
1
41
1
41
1
41
1
41
1
41
1
41
1
41
1
41
1
41
1
41
1
41
1
41
1
41
1
41
1
41
1
41
1
41
1
10
-21.2943
20
-99.179900000000004
30
0
10
-21.377730302018819
20
-99.15251969926743
30
0
10
-21.543103023659601
20
-99.093894732197029
30
0
10
-21.787149119401565
20
-98.994466645089346
30
0
10
-22.107253841932888
20
-98.837905183287972
30
0
10
-22.50374264917437
20
-98.601270359743324
30
0
10
-22.890782790482881
20
-98.33771608546283
30
0
10
-23.251677606309112
20
-98.076805896146041
30
0
10
-23.578112741093854
20
-97.837841379028504
30
0
10
-23.895287374130408
20
-97.597554471545109
30
0
10
-24.251943793452071
20
-97.299927227135242
30
0
10
-24.6810603609336
20
-96.90213416898294
30
0
10
-25.160414470933606
20
-96.41935901716954
30
0
10
-25.630263380936182
20
-95.908552288469963
30
0
10
-26.029608504848724
20
-95.431999561887693
30
0
10
-26.324800547045339
20
-95.029089851394772
30
0
10
-26.544646692843038
20
-94.681486811249172
30
0
10
-26.745259690208517
20
-94.342265917330366
30
0
10
-26.964684910246191
20
-93.972826980164115
30
0
10
-27.193280588657586
20
-93.569274829127494
30
0
10
-27.404063477623733
20
-93.145684010107971
30
0
10
-27.581189332784035
20
-92.722725658557707
30
0
10
-27.730776266366348
20
-92.314889185921686
30
0
10
-27.864968580728579
20
-91.922909986554643
30
0
10
-27.990540281137161
20
-91.519784566755092
30
0
10
-28.107983676267629
20
-91.064821803678214
30
0
10
-28.217357842644955
20
-90.52842809307964
30
0
10
-28.322053627116812
20
-89.914824410379737
30
0
10
-28.427024212329634
20
-89.247291097242808
30
0
10
-28.53636888682103
20
-88.551456152321478
30
0
10
-28.651072201921099
20
-87.838626067774172
30
0
10
-28.7669800521717
20
-87.091099583304853
30
0
10
-28.876662676156911
20
-86.272847876905161
30
0
10
-28.970938356561486
20
-85.338066749700204
30
0
10
-29.040581403479749
20
-84.240848726210515
30
0
10
-29.077828003716686
20
-82.943676886855513
30
0
10
-29.078281053298689
20
-81.428195845439646
30
0
10
-29.041094960600891
20
-79.696218389237231
30
0
10
-28.968235222295906
20
-77.765485434136224
30
0
10
-28.8640239505959
20
-75.667047144030349
30
0
10
-28.734566759299231
20
-73.441971609475473
30
0
10
-28.587230979003337
20
-71.138344073780672
30
0
10
-28.430100857139724
20
-68.808136746950382
30
0
10
-28.271444886258944
20
-66.50414488344056
30
0
10
-28.119172800468469
20
-64.276870075466661
30
0
10
-27.980308899480537
20
-62.171482653375705
30
0
10
-27.860430715791136
20
-60.224618868577352
30
0
10
-27.76318709674857
20
-58.461555323148531
30
0
10
-27.689623304981971
20
-56.892467148774045
30
0
10
-27.638190698241566
20
-55.511936988479732
30
0
10
-27.605548035023673
20
-54.302229907883309
30
0
10
-27.587160200346933
20
-53.235595025997391
30
0
10
-27.577972878816372
20
-52.276952773013363
30
0
10
-27.573069553780574
20
-51.386440438641678
30
0
10
-27.56830153691379
20
-50.521963854861134
30
0
10
-27.561012836186563
20
-49.641878153576798
30
0
10
-27.550461835542308
20
-48.707197391829638
30
0
10
-27.537307572021458
20
-47.682317300872725
30
0
10
-27.523258636686208
20
-46.535998970706281
30
0
10
-27.510658536435393
20
-45.242247592248006
30
0
10
-27.502096856697857
20
-43.781240731007742
30
0
10
-27.500012398564099
20
-42.140224556608871
30
0
10
-27.506292492045041
20
-40.314449729103373
30
0
10
-27.521894505764024
20
-38.308017658113314
30
0
10
-27.547007342982951
20
-36.132822170609955
30
0
10
-27.58119080249994
20
-33.807567458859992
30
0
10
-27.623523262469888
20
-31.356757500404857
30
0
10
-27.672745841633485
20
-28.809697718511735
30
0
10
-27.727408022978437
20
-26.199491410447973
30
0
10
-27.786012748442886
20
-23.56203864781358
30
0
10
-27.847161496045914
20
-20.935033832296806
30
0
10
-27.909699931513472
20
-18.356964650173925
30
0
10
-27.972862001805364
20
-15.86610862903961
30
0
10
-28.036417758434201
20
-13.499534944873229
30
0
10
-28.100812492814896
20
-11.292094157776438
30
0
10
-28.167326121571847
20
-9.2754358998203816
30
0
10
-28.238184876628551
20
-7.4769605500717162
30
0
10
-28.316799767111803
20
-5.9189476229911371
30
0
10
-28.406288091320956
20
-4.6151736177975646
30
0
10
-28.507750631295426
20
-3.5671132630371027
30
0
10
-28.618767563204099
20
-2.7605932167909621
30
0
10
-28.731506908090822
20
-2.1615723508940423
30
0
10
-28.831683826234567
20
-1.7138793540520525
30
0
10
-28.895522506001669
20
-1.3323340626733597
30
0
10
-28.892353058075102
20
-0.90896132550935516
30
0
10
-28.801642307459424
20
-0.35409562155108043
30
0
10
-28.633064141357835
20
0.35687092650028085
30
0
10
-28.427019139491275
20
1.1775080076150439
30
0
10
-28.233583910345462
20
2.0300961879409098
30
0
10
-28.09638975628172
20
2.8344412062745654
30
0
10
-28.036452868985315
20
3.5380094061884391
30
0
10
-28.030971348879532
20
4.1535922659337619
30
0
10
-28.029263969577407
20
4.7376690328229065
30
0
10
-27.980600935226512
20
5.3495463537507906
30
0
10
-27.856782928721955
20
6.019093262705991
30
0
10
-27.680115636034945
20
6.7054806088709302
30
0
10
-27.502659744956141
20
7.3365487804633167
30
0
10
-27.381340705466549
20
7.8541561556524613
30
0
10
-27.353886114417001
20
8.2601530616877099
30
0
10
-27.416089105928766
20
8.6551628403792087
30
0
10
-27.539306034364678
20
9.1558751061647001
30
0
10
-27.688086137345856
20
9.8003609467362942
30
0
10
-27.832956628044343
20
10.504902211038875
30
0
10
-27.950561569798452
20
11.154959047877561
30
0
10
-28.025980375734491
20
11.660014196806891
30
0
10
-28.055049717975919
20
12.043404634303263
30
0
10
-28.043539796800498
20
12.443053438102087
30
0
10
-28.002076556303951
20
13.017962354246205
30
0
10
-27.94155828563877
20
13.864181194735444
30
0
10
-27.871675864251021
20
15.002296875258889
30
0
10
-27.801066796680058
20
16.401880561983837
30
0
10
-27.736920610715423
20
17.993435612847584
30
0
10
-27.684808299951182
20
19.685716110880271
30
0
10
-27.64842893238313
20
21.380424387223691
30
0
10
-27.62936076829391
20
22.988767212455802
30
0
10
-27.626883164797139
20
24.445503059461295
30
0
10
-27.637587199733375
20
25.728314934961595
30
0
10
-27.65582528636909
20
26.857319230918606
30
0
10
-27.674887019284004
20
27.877562538338978
30
0
10
-27.687976436507835
20
28.84619136716498
30
0
10
-27.689257795293273
20
29.817941182556705
30
0
10
-27.674901850990025
20
30.830802683606294
30
0
10
-27.644061697180526
20
31.892888337105543
30
0
10
-27.600065501917253
20
32.965415536787013
30
0
10
-27.549524664920281
20
33.981920040399636
30
0
10
-27.501115820453407
20
34.871983380515587
30
0
10
-27.464492603996682
20
35.585266995839568
30
0
10
-27.449109279797746
20
36.111147020263125
30
0
10
-27.463161902719783
20
36.510586644381803
30
0
10
-27.512240462416027
20
36.906853822119018
30
0
10
-27.597967785478513
20
37.42326771074724
30
0
10
-27.716087571021383
20
38.121815509992167
30
0
10
-27.857430371521165
20
38.998222639394001
30
0
10
-28.01027248308403
20
40.009311110181464
30
0
10
-28.162295413185348
20
41.090255058548493
30
0
10
-28.302620942281848
20
42.17527157367455
30
0
10
-28.424029041948302
20
43.218687023595834
30
0
10
-28.52443678587457
20
44.210167551731239
30
0
10
-28.605332259359425
20
45.163576843423101
30
0
10
-28.670678189115804
20
46.109950903828185
30
0
10
-28.725621097966428
20
47.088791958642688
30
0
10
-28.775307586488918
20
48.140228517473489
30
0
10
-28.823596991696974
20
49.296447929755736
30
0
10
-28.871986376299425
20
50.574476623008081
30
0
10
-28.920125377329754
20
51.97874703867982
30
0
10
-28.966185155319199
20
53.502773530075913
30
0
10
-29.007283644636189
20
55.131168655383846
30
0
10
-29.039885531332622
20
56.841513550627511
30
0
10
-29.060216135497839
20
58.60629336704978
30
0
10
-29.064662216507383
20
60.394798894172546
30
0
10
-29.05019487857945
20
62.175055923196894
30
0
10
-29.014744344196579
20
63.915711564625546
30
0
10
-28.957693897647964
20
65.588018136324578
30
0
10
-28.879785864681516
20
67.167348584560671
30
0
10
-28.782765475432093
20
68.634514974923619
30
0
10
-28.669109514082827
20
69.977131965595149
30
0
10
-28.541717239149559
20
71.19100127363383
30
0
10
-28.403623201721331
20
72.281395953543225
30
0
10
-28.257687404576046
20
73.264600045414483
30
0
10
-28.106326163455012
20
74.168842660988844
30
0
10
-27.951148796979034
20
75.036720714354672
30
0
10
-27.792942718026403
20
75.922052468971103
30
0
10
-27.631987286707229
20
76.88148198126936
30
0
10
-27.468279183660634
20
77.967470498847845
30
0
10
-27.301790016589468
20
79.220840520556663
30
0
10
-27.132719250700582
20
80.663234371662398
30
0
10
-26.961727677080081
20
82.290260538550825
30
0
10
-26.790235893003583
20
84.062626314874791
30
0
10
-26.62016572246835
20
85.914181771420246
30
0
10
-26.453580686708641
20
87.763017989749542
30
0
10
-26.292360388427799
20
89.521538274166673
30
0
10
-26.137863506800365
20
91.106877236972977
30
0
10
-25.990589037717335
20
92.451364134868385
30
0
10
-25.849853689494676
20
93.512517796450112
30
0
10
-25.713426461642666
20
94.284289157410058
30
0
10
-25.577265910681017
20
94.805305601670526
30
0
10
-25.434993366369191
20
95.174899455462622
30
0
10
-25.279210712765305
20
95.511392992165014
30
0
10
-25.103200663049524
20
95.894141294766285
30
0
10
-24.902548643860236
20
96.317713310856732
30
0
10
-24.675018867417037
20
96.73702487979854
30
0
10
-24.421353297986521
20
97.115562562162836
30
0
10
-24.143564135457453
20
97.451690966433105
30
0
10
-23.841064736560057
20
97.756038841046603
30
0
10
-23.503503674363412
20
98.036141764974062
30
0
10
-23.119509744307869
20
98.290382883486188
30
0
10
-22.694036912657772
20
98.513125708285699
30
0
10
-22.268094780214579
20
98.696105216958415
30
0
10
-21.883376978808183
20
98.83417362303733
30
0
10
-21.530663694385289
20
98.93181868214927
30
0
10
-21.118223147751674
20
99.007396789080417
30
0
10
-20.545401920142062
20
99.081658973781529
30
0
10
-19.783081425845982
20
99.165530009335697
30
0
10
-18.904342246002315
20
99.254661761203892
30
0
10
-18.024590588191177
20
99.336598732254259
30
0
10
-17.259362883994129
20
99.3953297120256
30
0
10
-16.68179622448001
20
99.416258010377192
30
0
10
-16.263316067888425
20
99.392576603537378
30
0
10
-15.905590618190374
20
99.323142022234464
30
0
10
-15.518705012233244
20
99.205885313911807
30
0
10
-15.091125379112247
20
99.03211983257907
30
0
10
-14.660899230457325
20
98.796408430792638
30
0
10
-14.272642509609341
20
98.512083374272251
30
0
10
-13.945638871033344
20
98.215475356258978
30
0
10
-13.676577447426189
20
97.932923697865007
30
0
10
-13.435297109214289
20
97.641765802900068
30
0
10
-13.172738721058785
20
97.268346890939171
30
0
10
-12.839812299883818
20
96.732323066641214
30
0
10
-12.406866840974882
20
95.98578694367724
30
0
10
-11.865761872053607
20
95.019369345022824
30
0
10
-11.223858743314135
20
93.850662289159814
30
0
10
-10.500691356154521
20
92.518611941280042
30
0
10
-9.7234902991557597
20
91.075362803708956
30
0
10
-8.9232624922827277
20
89.579309083802428
30
0
10
-8.1304851081515643
20
88.087365181611418
30
0
10
-7.3713086450353718
20
86.648183702622106
30
0
10
-6.6626887801111812
20
85.293447337196369
30
0
10
-6.0114915952448076
20
84.036248161148634
30
0
10
-5.4170692510458709
20
82.875647061618949
30
0
10
-4.8728603749400365
20
81.799497560236688
30
0
10
-4.3683979376167876
20
80.787993244723168
30
0
10
-3.8911246711516814
20
79.816876832662771
30
0
10
-3.4283326260826668
20
78.860860288851384
30
0
10
-2.9689519309208965
20
77.89679981275458
30
0
10
-2.505660396796574
20
76.907381901718637
30
0
10
-2.034603850697279
20
75.88101931772843
30
0
10
-1.5546497938751316
20
74.811004411582928
30
0
10
-1.0667989999180507
20
73.694919369089945
30
0
10
-0.57353857198993996
20
72.533938409509886
30
0
10
-0.078202224642441323
20
71.332176944818301
30
0
10
0.41563050807703844
20
70.096019442096875
30
0
10
0.90485757924017685
20
68.833459405551366
30
0
10
1.3870244549754247
20
67.553419321109772
30
0
10
1.8601558507594396
20
66.265058447488514
30
0
10
2.3226904944455748
20
64.977090228884677
30
0
10
2.7733727701881206
20
63.697082277027874
30
0
10
3.2111640247606776
20
62.430794819471593
30
0
10
3.6351427081678618
20
61.181430563405399
30
0
10
4.044415648123918
20
59.949090825468247
30
0
10
4.438009005658726
20
58.729729844344767
30
0
10
4.8148256204251627
20
57.515859820476535
30
0
10
5.1736854221806619
20
56.299486274537635
30
0
10
5.513344263039369
20
55.07444707388715
30
0
10
5.832522816749993
20
53.839062461570421
30
0
10
6.129928157595959
20
52.598493819875031
30
0
10
6.4042854804309135
20
51.367595308134987
30
0
10
6.6543490785644259
20
50.172691291207137
30
0
10
6.8789635501235029
20
49.056026002063362
30
0
10
7.0768749823504287
20
48.065522952695765
30
0
10
7.2465214873817398
20
47.240507413541337
30
0
10
7.3857210838096279
20
46.597244270165675
30
0
10
7.4916463734693792
20
46.117939181102372
30
0
10
7.5600951759714761
20
45.730176364027642
30
0
10
7.5868366690382372
20
45.315360482796329
30
0
10
7.5727995357424742
20
44.77511005058102
30
0
10
7.5301941226620865
20
44.1056253456711
30
0
10
7.4818972468684795
20
43.395678055772187
30
0
10
7.4547257432491998
20
42.751266200250633
30
0
10
7.4747428036335979
20
42.24864501866746
30
0
10
7.5610839519680848
20
41.858582802386849
30
0
10
7.7239529272680807
20
41.475439113142826
30
0
10
7.9642595977245243
20
40.987712766896401
30
0
10
8.272592911125523
20
40.338203137729323
30
0
10
8.6323811866012399
20
39.516441814504127
30
0
10
9.0230962742855603
20
38.545399042264776
30
0
10
9.423555630608444
20
37.470203541801972
30
0
10
9.8149371088382615
20
36.346531257818619
30
0
10
10.184522027826368
20
35.2278380638773
30
0
10
10.526738708737092
20
34.15819743335161
30
0
10
10.841484386748039
20
33.170938595121655
30
0
10
11.133181729347353
20
32.285854575668765
30
0
10
11.409538831309046
20
31.506667606609756
30
0
10
11.680428118247191
20
30.819140445983262
30
0
10
11.956733717484568
20
30.187066008453272
30
0
10
12.249149506013211
20
29.555664556431992
30
0
10
12.566915671439213
20
28.865784045059314
30
0
10
12.916496933113535
20
28.066124122062792
30
0
10
13.300445881302274
20
27.124965968376511
30
0
10
13.715780774756205
20
26.045360599393717
30
0
10
14.154746333358197
20
24.861445743008449
30
0
10
14.606655022901267
20
23.626019921780848
30
0
10
15.059407300718222
20
22.400768410879639
30
0
10
15.501095645557756
20
21.245687676934967
30
0
10
15.921687282632062
20
20.208157982243122
30
0
10
16.314405436237131
20
19.313791570028073
30
0
10
16.677897951745852
20
18.552521757060177
30
0
10
17.015596451038874
20
17.881836447833948
30
0
10
17.332105505282271
20
17.248740435540167
30
0
10
17.630043797371101
20
16.607984358304471
30
0
10
17.907408769061529
20
15.939279575703029
30
0
10
18.152901023347418
20
15.271434608569352
30
0
10
18.354156884324787
20
14.661193487688413
30
0
10
18.510997277764329
20
14.155508101282344
30
0
10
18.645695125737568
20
13.761873098529449
30
0
10
18.817937152214007
20
13.408636833326819
30
0
10
19.089573753189871
20
13.000029564839917
30
0
10
19.479028855622587
20
12.488796254112099
30
0
10
19.929544706971583
20
11.92742150829995
30
0
10
20.356603531457779
20
11.401172418159058
30
0
10
20.683258484889301
20
10.979263287759633
30
0
10
20.88784214902298
20
10.647154313722664
30
0
10
21.022465321751152
20
10.283680487595607
30
0
10
21.165699649107552
20
9.7382172757188954
30
0
10
21.380242028381264
20
8.9016737800236552
30
0
10
21.69609858900801
20
7.7328081377407525
30
0
10
22.121195003350678
20
6.2379315784558074
30
0
10
22.643865735298412
20
4.4643614410819019
30
0
10
23.238703360393444
20
2.4881875156648321
30
0
10
23.870951791428261
20
0.40450556712072772
30
0
10
24.501561314265921
20
-1.6834770179997327
30
0
10
25.091876557657674
20
-3.6746954889553858
30
0
10
25.60867305451189
20
-5.4811160396823642
30
0
10
26.02859913945306
20
-7.0375148947865149
30
0
10
26.343954690436743
20
-8.3137678869115419
30
0
10
26.564214141696397
20
-9.3191425969291295
30
0
10
26.709628382749212
20
-10.091758093951961
30
0
10
26.80660062367523
20
-10.691300314645211
30
0
10
26.882275588576938
20
-11.190432236675967
30
0
10
26.959640918397003
20
-11.666763271554201
30
0
10
27.051936504239535
20
-12.194572804947173
30
0
10
27.164328004905414
20
-12.836910901071379
30
0
10
27.296260453795028
20
-13.637787659405101
30
0
10
27.443588637779829
20
-14.614129394584758
30
0
10
27.600750563365338
20
-15.748390516705197
30
0
10
27.761331258634378
20
-16.998630901913398
30
0
10
27.918697297111308
20
-18.307955789781325
30
0
10
28.066608664701921
20
-19.614259214530069
30
0
10
28.199829105453151
20
-20.859692147498258
30
0
10
28.314763075733737
20
-22.000588409079498
30
0
10
28.410020234961578
20
-23.016395184461036
30
0
10
28.487171577776657
20
-23.921131670818934
30
0
10
28.549984022012325
20
-24.754897153645498
30
0
10
28.603384015295987
20
-25.571799465055513
30
0
10
28.652483852069672
20
-26.428772870439218
30
0
10
28.701652256181369
20
-27.374817103557298
30
0
10
28.753394776218588
20
-28.438128771364628
30
0
10
28.807909698786752
20
-29.620821810322692
30
0
10
28.863800810966708
20
-30.90667145959188
30
0
10
28.918523332892391
20
-32.265857426393879
30
0
10
28.968941554544152
20
-33.660954161740527
30
0
10
29.011828702429202
20
-35.052296407865086
30
0
10
29.044414864623356
20
-36.403825525722425
30
0
10
29.06485982630624
20
-37.688231738611165
30
0
10
29.072896577005359
20
-38.893663640291862
30
0
10
29.069667231233055
20
-40.023054885446321
30
0
10
29.057180990508623
20
-41.089998496612083
30
0
10
29.037891676032672
20
-42.115713504277096
30
0
10
29.014225687839982
20
-43.125558202235261
30
0
10
28.988130979743623
20
-44.145737016306811
30
0
10
28.960617583290919
20
-45.199926422684953
30
0
10
28.931300122000589
20
-46.305929142026912
30
0
10
28.898747931989202
20
-47.476010728892419
30
0
10
28.860836609025068
20
-48.717252107023477
30
0
10
28.81510103377693
20
-50.03189325133684
30
0
10
28.759083101205313
20
-51.417686091670369
30
0
10
28.690692524780204
20
-52.868230536603548
30
0
10
28.608536841762682
20
-54.373347596286976
30
0
10
28.512325482233823
20
-55.9193642398834
30
0
10
28.403045376492653
20
-57.489669654729454
30
0
10
28.282560009738226
20
-59.065954849747051
30
0
10
28.153318413780468
20
-60.629323307818254
30
0
10
28.018021468539494
20
-62.161448864054584
30
0
10
27.879304325829921
20
-63.645722404853366
30
0
10
27.739416787391438
20
-65.06838258597395
30
0
10
27.599893200322011
20
-66.419701828870487
30
0
10
27.461253330349038
20
-67.695035875696675
30
0
10
27.322626139565926
20
-68.896203502581997
30
0
10
27.181607950234277
20
-70.031868166642028
30
0
10
27.034821843796006
20
-71.114945361317041
30
0
10
26.878357283092896
20
-72.160509601872491
30
0
10
26.708250244740846
20
-73.183550244905717
30
0
10
26.52096144988251
20
-74.196686927837234
30
0
10
26.313819477566916
20
-75.20814740203862
30
0
10
26.08556886845772
20
-76.219018758597741
30
0
10
25.836474254184839
20
-77.223559016597306
30
0
10
25.568124910580124
20
-78.211668079543372
30
0
10
25.283308423875713
20
-79.170700032214867
30
0
10
24.985898446700968
20
-80.087592350748608
30
0
10
24.680637820051714
20
-80.950754132598419
30
0
10
24.373209196971473
20
-81.752317924328565
30
0
10
24.069255221820068
20
-82.489205309933851
30
0
10
23.772426168415425
20
-83.162901815644247
30
0
10
23.482509549276411
20
-83.779698186213736
30
0
10
23.193917748937501
20
-84.350474356312205
30
0
10
22.893014798577319
20
-84.891368033289751
30
0
10
22.562991108559295
20
-85.419188095842713
30
0
10
22.191153486047845
20
-85.945085565646508
30
0
10
21.775030763631406
20
-86.469227917283931
30
0
10
21.32993857080368
20
-86.973976169695561
30
0
10
20.881341172082024
20
-87.433475309415925
30
0
10
20.45565618848666
20
-87.824669634808004
30
0
10
20.071876128895589
20
-88.138066130196492
30
0
10
19.73228715241903
20
-88.387904468825766
30
0
10
19.420817401039262
20
-88.601781117223567
30
0
10
19.096073549546816
20
-88.81113212762483
30
0
10
18.699539126991898
20
-89.041437339520826
30
0
10
18.190097935310984
20
-89.3055620342368
30
0
10
17.58424666134832
20
-89.593127972880197
30
0
10
16.950930862860904
20
-89.874716836073247
30
0
10
16.36534585185742
20
-90.118510689515162
30
0
10
15.87966981641889
20
-90.301511251633514
30
0
10
15.475003769386175
20
-90.427391401542266
30
0
10
15.087678799795688
20
-90.516851291445803
30
0
10
14.663610963920629
20
-90.587589980516498
30
0
10
14.205224418749019
20
-90.636851824293018
30
0
10
13.74360435550307
20
-90.650350354490271
30
0
10
13.300752102251103
20
-90.613255875327624
30
0
10
12.868930366160916
20
-90.519097899682336
30
0
10
12.435643280218702
20
-90.369925848820017
30
0
10
12.010220412172124
20
-90.181047267630291
30
0
10
11.620945094431924
20
-89.973166357732367
30
0
10
11.282395948923602
20
-89.755312426690082
30
0
10
10.962183596003953
20
-89.504801209721506
30
0
10
10.601408946452386
20
-89.181331137609376
30
0
10
10.155223409455015
20
-88.752966983474678
30
0
10
9.6260245110755278
20
-88.217849088011377
30
0
10
9.0482990640159482
20
-87.59701903691041
30
0
10
8.4723205200626666
20
-86.926836239000934
30
0
10
7.9491841626168682
20
-86.251576539662395
30
0
10
7.5132993849921021
20
-85.615991585752795
30
0
10
7.1722863085503015
20
-85.057503289990862
30
0
10
6.9155874881448751
20
-84.593369423329818
30
0
10
6.7198974329794474
20
-84.212816311367732
30
0
10
6.5551061245025997
20
-83.858382657663157
30
0
10
6.392398400740805
20
-83.442151942728273
30
0
10
6.2140022456910131
20
-82.899444315672469
30
0
10
6.0259013532071402
20
-82.247811138451794
30
0
10
5.8518333648613705
20
-81.56965649959794
30
0
10
5.7181133131597752
20
-80.955132553098963
30
0
10
5.6424560181990504
20
-80.461682310206456
30
0
10
5.6184924187206153
20
-80.057235896167271
30
0
10
5.6256535199237954
20
-79.653945670146584
30
0
10
5.644360527481636
20
-79.160297954461015
30
0
10
5.6681073209195745
20
-78.522987585797907
30
0
10
5.699075529187148
20
-77.718007824995965
30
0
10
5.7445278829830491
20
-76.744242872959646
30
0
10
5.8131352782391819
20
-75.616412333693731
30
0
10
5.910822781733116
20
-74.357696247618009
30
0
10
6.0385523070441751
20
-72.99451354916458
30
0
10
6.1937941649405017
20
-71.555647496075892
30
0
10
6.3711805130988388
20
-70.070393476098815
30
0
10
6.5634848309366109
20
-68.567106423943912
30
0
10
6.7624674287721929
20
-67.071562409213101
30
0
10
6.9597659721365766
20
-65.605434885158516
30
0
10
7.1477959142544281
20
-64.18464073693815
30
0
10
7.320577867670722
20
-62.817931981950395
30
0
10
7.4747740063163786
20
-61.504892099118671
30
0
10
7.6094900872334179
20
-60.237343278248659
30
0
10
7.7256755387146896
20
-59.001857558951009
30
0
10
7.8256567818408485
20
-57.781903351465317
30
0
10
7.9126154939390458
20
-56.560140485024107
30
0
10
7.9900891266041523
20
-55.320660234782736
30
0
10
8.0614651079851605
20
-54.051228658856942
30
0
10
8.1294700423882951
20
-52.745576936874173
30
0
10
8.1956827991647767
20
-51.405535414542065
30
0
10
8.260725799175054
20
-50.038933419783604
30
0
10
8.3244326596185019
20
-48.657643742715429
30
0
10
8.3860245122384534
20
-47.275577681699545
30
0
10
8.4442830842895802
20
-45.906690216575321
30
0
10
8.4977241085030002
20
-44.563006066895163
30
0
10
8.5447730361541137
20
-43.252578076455201
30
0
10
8.5839339809699826
20
-41.977612904790021
30
0
10
8.6139769354000286
20
-40.732157098788122
30
0
10
8.6339444220289323
20
-39.504098251059389
30
0
10
8.6431327016192405
20
-38.277768395763559
30
0
10
8.6410819891165787
20
-37.036343984934604
30
0
10
8.6275628363688028
20
-35.764310723114107
30
0
10
8.6025642681614034
20
-34.44994859233384
30
0
10
8.5662809295192783
20
-33.087696386018408
30
0
10
8.5191012314939325
20
-31.680835555294294
30
0
10
8.4615933723315546
20
-30.243239664294705
30
0
10
8.3944803395525209
20
-28.795954543329771
30
0
10
8.3186162812454825
20
-27.364407707656749
30
0
10
8.2349622623961096
20
-25.975374878160022
30
0
10
8.1445624868330952
20
-24.654048769584147
30
0
10
8.0485198529638531
20
-23.421066616299026
30
0
10
7.9479728841324278
20
-22.289549035941537
30
0
10
7.8440695248849002
20
-21.262148941858072
30
0
10
7.7379486450332351
20
-20.32805449670893
30
0
10
7.6302977658989102
20
-19.465944376124323
30
0
10
7.5209307062236741
20
-18.646988092459097
30
0
10
7.408312185728323
20
-17.837839279248719
30
0
10
7.2892087288289389
20
-17.003609562888208
30
0
10
7.1580280421825373
20
-16.110906249408284
30
0
10
7.0073598780607051
20
-15.130604445718062
30
0
10
6.8295314320921428
20
-14.040355056841713
30
0
10
6.617894011909657
20
-12.827220422120503
30
0
10
6.3681817300191303
20
-11.490142552889553
30
0
10
6.079927432956981
20
-10.042748359501719
30
0
10
5.7576488628403313
20
-8.5153924524670028
30
0
10
5.4126309355135449
20
-6.959024674837595
30
0
10
5.0628003467588902
20
-5.4433059242159221
30
0
10
4.7285907499058286
20
-4.0427075807589787
30
0
10
4.4296084233362283
20
-2.8249651998743603
30
0
10
4.1810493581807933
20
-1.8388970804183937
30
0
10
3.9900599171678914
20
-1.1017961429434162
30
0
10
3.8524993447997646
20
-0.58862588376295555
30
0
10
3.7486342872431311
20
-0.21660187097449252
30
0
10
3.6417829456273272
20
0.15763627423882348
30
0
10
3.4944840882783126
20
0.66988705779089641
30
0
10
3.2861497273952271
20
1.3716022741175273
30
0
10
3.0206714869049112
20
2.2024604098851062
30
0
10
2.7155689091759165
20
3.049467979852734
30
0
10
2.395614584977813
20
3.788719488886982
30
0
10
2.08423061129086
20
4.3283779774650428
30
0
10
1.7968892637737088
20
4.6655421263889982
30
0
10
1.5286082601214213
20
4.8643889737207369
30
0
10
1.2396226762492748
20
4.9941263145303401
30
0
10
0.83971783898531438
20
5.0764442434762227
30
0
10
0.23152020939986095
20
5.103246510048697
30
0
10
-0.63654907517636483
20
5.0634891177942354
30
0
10
-1.7359174278762326
20
4.9608521172313331
30
0
10
-2.9882501300637103
20
4.8077048209148101
30
0
10
-4.2864253914721262
20
4.6223658257304532
30
0
10
-5.5184732008988648
20
4.4251424194110562
30
0
10
-6.5918711775565617
20
4.2347762946080527
30
0
10
-7.4539034762993426
20
4.0649783842710434
30
0
10
-8.1231666768342095
20
3.9202746171503917
30
0
10
-8.6755819313297309
20
3.7947277025915844
30
0
10
-9.1868967929398
20
3.6724123580169827
30
0
10
-9.695531147055922
20
3.528461270096888
30
0
10
-10.137959420520231
20
3.3273189081028547
30
0
10
-10.398828166767938
20
3.0359256725834416
30
0
10
-10.412992810257567
20
2.6438707554914394
30
0
10
-10.248087669422176
20
2.1811032395454713
30
0
10
-10.030260133166525
20
1.6972077881678274
30
0
10
-9.8552675991882506
20
1.2406766651960801
30
0
10
-9.7401895514732431
20
0.83847006381767841
30
0
10
-9.6663443581308748
20
0.48446886152691881
30
0
10
-9.6096648774503457
20
0.11685739136781377
30
0
10
-9.5557462292292428
20
-0.3644218359787561
30
0
10
-9.494399406066341
20
-1.0529629520400046
30
0
10
-9.4205461807387607
20
-1.9934412211632413
30
0
10
-9.3326050059446146
20
-3.1836597817702588
30
0
10
-9.232035674469385
20
-4.5879147118208481
30
0
10
-9.1223899434461231
20
-6.1462859419671299
30
0
10
-9.0085692974434544
20
-7.7857241513594264
30
0
10
-8.89600637337454
20
-9.4301844474723655
30
0
10
-8.7898494731517438
20
-11.011591402147404
30
0
10
-8.6942155739113094
20
-12.47945933808327
30
0
10
-8.6112370751164526
20
-13.813589929224396
30
0
10
-8.541087928947741
20
-15.022860080581237
30
0
10
-8.4825250905547129
20
-16.136762113609581
30
0
10
-8.4332717841652922
20
-17.199157895137812
30
0
10
-8.3904610929524139
20
-18.261205254537
30
0
10
-8.3510658420699073
20
-19.37443134205299
30
0
10
-8.3123059456152202
20
-20.584228838201668
30
0
10
-8.2721352037380207
20
-21.921977656089279
30
0
10
-8.2294365805653271
20
-23.4021574247516
30
0
10
-8.1838386255086455
20
-25.025933663942613
30
0
10
-8.1356272864554278
20
-26.783114814201486
30
0
10
-8.0856190705522799
20
-28.65476863674775
30
0
10
-8.0350506558784609
20
-30.615559629100325
30
0
10
-7.9854616653201704
20
-32.636198568701531
30
0
10
-7.9385798496463336
20
-34.685861790283532
30
0
10
-7.8962064937171164
20
-36.734581424583496
30
0
10
-7.8600988084504753
20
-38.755745825511376
30
0
10
-7.8318604516108952
20
-40.728324088595365
30
0
10
-7.8128115393458213
20
-42.639778367748661
30
0
10
-7.8039393398852708
20
-44.486276492894952
30
0
10
-7.8059149099244616
20
-46.270698986645662
30
0
10
-7.8190909147244998
20
-48.001275337580566
30
0
10
-7.8435071723948822
20
-49.689961856722853
30
0
10
-7.8788928833975138
20
-51.350930359615418
30
0
10
-7.9246702791364454
20
-52.999009162720689
30
0
10
-7.9799576581607203
20
-54.648144721139261
30
0
10
-8.0435726706931217
20
-56.309854163149993
30
0
10
-8.1140355135563897
20
-57.991682192728661
30
0
10
-8.1895721039900664
20
-59.695654899874881
30
0
10
-8.2681174127328081
20
-61.416738021126733
30
0
10
-8.3474904142084405
20
-63.144460769811374
30
0
10
-8.4255686460539572
20
-64.864534870040046
30
0
10
-8.5004632462559044
20
-66.560477025039958
30
0
10
-8.570693040314751
20
-68.215225955883199
30
0
10
-8.6353607814844171
20
-69.812770844601232
30
0
10
-8.6943244379383504
20
-71.339753773770127
30
0
10
-8.7483800010040529
20
-72.787132429040199
30
0
10
-8.7994175073563827
20
-74.15170271026156
30
0
10
-8.8506408901499061
20
-75.437955121799661
30
0
10
-8.9066027939558055
20
-76.658963653017054
30
0
10
-8.9723522832205926
20
-77.832638047525606
30
0
10
-9.0527017159762284
20
-78.97859760325619
30
0
10
-9.1514457452323512
20
-80.114798059855801
30
0
10
-9.2706042673506897
20
-81.254276055348839
30
0
10
-9.4096467491738363
20
-82.401814112243855
30
0
10
-9.5647441769953563
20
-83.550707991588865
30
0
10
-9.7279543774035133
20
-84.679300125321902
30
0
10
-9.8894265508706667
20
-85.757883541325697
30
0
10
-10.03970535188909
20
-86.755933950569059
30
0
10
-10.171948596977249
20
-87.649075749348938
30
0
10
-10.284294101723418
20
-88.426489564776475
30
0
10
-10.381898118648124
20
-89.097357655163719
30
0
10
-10.479819800105876
20
-89.699782801615385
30
0
10
-10.597016855059248
20
-90.283718437307172
30
0
10
-10.749228926790021
20
-90.89063896745941
30
0
10
-10.942219321295713
20
-91.534275489609769
30
0
10
-11.164982239127061
20
-92.181211334944322
30
0
10
-11.399085056338851
20
-92.779461111926963
30
0
10
-11.627102911336451
20
-93.284113162692762
30
0
10
-11.842659310235437
20
-93.688315864347217
30
0
10
-12.056280594021267
20
-94.040244490771002
30
0
10
-12.282906126640727
20
-94.398459266695738
30
0
10
-12.527843173900518
20
-94.782114071215602
30
0
10
-12.784699157265242
20
-95.161319242547805
30
0
10
-13.049421737408249
20
-95.503023316104944
30
0
10
-13.334143528397739
20
-95.81375301063224
30
0
10
-13.662614327554204
20
-96.131996260249579
30
0
10
-14.055845568370543
20
-96.492835252099255
30
0
10
-14.520269058204692
20
-96.899733640195336
30
0
10
-15.048894212290788
20
-97.332875523285551
30
0
10
-15.623996036339047
20
-97.761581299912606
30
0
10
-16.219134642550355
20
-98.155428094524297
30
0
10
-16.801703657523543
20
-98.495112502084069
30
0
10
-17.342605090425355
20
-98.771102120276296
30
0
10
-17.82436699888828
20
-98.982830366422917
30
0
10
-18.252218855320372
20
-99.138341906695914
30
0
10
-18.657072844015239
20
-99.251895691896266
30
0
10
-19.073497252085453
20
-99.336200718473407
30
0
10
-19.516079717990173
20
-99.392730570339069
30
0
10
-19.974588027754795
20
-99.411953328554546
30
0
10
-20.431136772947049
20
-99.383803428992209
30
0
10
-20.785084171741278
20
-99.322825321607553
30
0
10
-21.042521211545605
20
-99.25817653659297
30
0
10
-21.210869697980645
20
-99.207280300732776
30
0
10
-21.2943
20
-99.179900000000004
30
0
0
ENDSEC
0
SECTION
2
OBJECTS
0
DICTIONARY
5
C
100
AcDbDictionary
3
ACAD_GROUP
350
D
3
ACAD_MLINESTYLE
350
17
0
DICTIONARY
5
D
100
AcDbDictionary
0
DICTIONARY
5
1A
330
C
100
AcDbDictionary
0
DICTIONARY
5
17
100
AcDbDictionary
0
ENDSEC
0
EOF
