0
SECTION
2
HEADER
9
$INSUNITS
70
4
9
$ACADVER
1
AC1014
9
$HANDSEED
5
FFFF
0
ENDSEC
0
SECTION
2
TABLES
0
TABLE
2
VPORT
5
8
100
AcDbSymbolTable
0
ENDTAB
0
TABLE
2
LTYPE
5
5
100
AcDbSymbolTable
0
LTYPE
5
14
100
AcDbSymbolTableRecord
100
AcDbLinetypeTableRecord
2
BYBLOCK
70
0
0
LTYPE
5
15
100
AcDbSymbolTableRecord
100
AcDbLinetypeTableRecord
2
BYLAYER
70
0
0
LTYPE
5
16
100
AcDbSymbolTableRecord
100
AcDbLinetypeTableRecord
2
DASHED
70
0
3
Dashed __ __ __ __ __ __ __ __ __ __ __ __ __ _
72
65
73
2
40
0.75
49
0.5
74
0
49
-0.25
74
0
0
ENDTAB
0
TABLE
2
LAYER
5
2
100
AcDbSymbolTable
70
2
0
LAYER
5
50
100
AcDbSymbolTableRecord
100
AcDbLayerTableRecord
2
0
70
0
62
7
6
CONTINUOUS
0
ENDTAB
0
TABLE
2
STYLE
5
3
100
AcDbSymbolTable
70
1
0
STYLE
5
11
100
AcDbSymbolTableRecord
100
AcDbTextStyleTableRecord
2
STANDARD
70
0
0
ENDTAB
0
TABLE
2
VIEW
5
6
100
AcDbSymbolTable
70
0
0
ENDTAB
0
TABLE
2
UCS
5
7
100
AcDbSymbolTable
70
0
0
ENDTAB
0
TABLE
2
APPID
5
9
100
AcDbSymbolTable
70
2
0
APPID
5
12
100
AcDbSymbolTableRecord
100
AcDbRegAppTableRecord
2
ACAD
70
0
0
ENDTAB
0
TABLE
2
DIMSTYLE
5
A
100
AcDbSymbolTable
70
1
0
ENDTAB
0
TABLE
2
BLOCK_RECORD
5
1
100
AcDbSymbolTable
70
1
0
BLOCK_RECORD
5
1F
100
AcDbSymbolTableRecord
100
AcDbBlockTableRecord
2
*MODEL_SPACE
0
BLOCK_RECORD
5
1B
100
AcDbSymbolTableRecord
100
AcDbBlockTableRecord
2
*PAPER_SPACE
0
ENDTAB
0
ENDSEC
0
SECTION
2
BLOCKS
0
BLOCK
5
20
100
AcDbEntity
100
AcDbBlockBegin
2
*MODEL_SPACE
0
ENDBLK
5
21
100
AcDbEntity
100
AcDbBlockEnd
0
BLOCK
5
1C
100
AcDbEntity
100
AcDbBlockBegin
2
*PAPER_SPACE
0
ENDBLK
5
1D
100
AcDbEntity
100
AcDbBlockEnd
0
ENDSEC
0
SECTION
2
ENTITIES
0
SPLINE
5
100
100
AcDbEntity
8
0
100
AcDbSpline
70
6
71
5
72
636
73
630
74
0
42
0.000000001
43
0.0000000001
44
0.0000000001
40
0
40
0
40
0
40
0
40
0
40
0
40
0.0016000000000000001
40
0.0032000000000000002
40
0.0048000000000000004
40
0.0064000000000000003
40
0.0080000000000000002
40
0.0096000000000000009
40
0.011200000000000002
40
0.012800000000000002
40
0.014400000000000003
40
0.016000000000000004
40
0.017600000000000005
40
0.019200000000000005
40
0.020800000000000006
40
0.022400000000000007
40
0.024000000000000007
40
0.025600000000000008
40
0.027200000000000009
40
0.02880000000000001
40
0.03040000000000001
40
0.032000000000000008
40
0.033600000000000005
40
0.035200000000000002
40
0.036799999999999999
40
0.038399999999999997
40
0.039999999999999994
40
0.041599999999999991
40
0.043199999999999988
40
0.044799999999999986
40
0.046399999999999983
40
0.04799999999999998
40
0.049599999999999977
40
0.051199999999999975
40
0.052799999999999972
40
0.054399999999999969
40
0.055999999999999966
40
0.057599999999999964
40
0.059199999999999961
40
0.060799999999999958
40
0.062399999999999956
40
0.06399999999999996
40
0.065599999999999964
40
0.067199999999999968
40
0.068799999999999972
40
0.070399999999999976
40
0.071999999999999981
40
0.073599999999999985
40
0.075199999999999989
40
0.076799999999999993
40
0.078399999999999997
40
0.080000000000000002
40
0.081600000000000006
40
0.08320000000000001
40
0.084800000000000014
40
0.086400000000000018
40
0.088000000000000023
40
0.089600000000000027
40
0.091200000000000031
40
0.092800000000000035
40
0.094400000000000039
40
0.096000000000000044
40
0.097600000000000048
40
0.099200000000000052
40
0.10080000000000006
40
0.10240000000000006
40
0.10400000000000006
40
0.10560000000000007
40
0.10720000000000007
40
0.10880000000000008
40
0.11040000000000008
40
0.11200000000000009
40
0.11360000000000009
40
0.11520000000000009
40
0.1168000000000001
40
0.1184000000000001
40
0.12000000000000011
40
0.12160000000000011
40
0.12320000000000011
40
0.12480000000000012
40
0.12640000000000012
40
0.12800000000000011
40
0.1296000000000001
40
0.13120000000000009
40
0.13280000000000008
40
0.13440000000000007
40
0.13600000000000007
40
0.13760000000000006
40
0.13920000000000005
40
0.14080000000000004
40
0.14240000000000003
40
0.14400000000000002
40
0.14560000000000001
40
0.1472
40
0.14879999999999999
40
0.15039999999999998
40
0.15199999999999997
40
0.15359999999999996
40
0.15519999999999995
40
0.15679999999999994
40
0.15839999999999993
40
0.15999999999999992
40
0.16159999999999991
40
0.1631999999999999
40
0.16479999999999989
40
0.16639999999999988
40
0.16799999999999987
40
0.16959999999999986
40
0.17119999999999985
40
0.17279999999999984
40
0.17439999999999983
40
0.17599999999999982
40
0.17759999999999981
40
0.1791999999999998
40
0.18079999999999979
40
0.18239999999999978
40
0.18399999999999977
40
0.18559999999999977
40
0.18719999999999976
40
0.18879999999999975
40
0.19039999999999974
40
0.19199999999999973
40
0.19359999999999972
40
0.19519999999999971
40
0.1967999999999997
40
0.19839999999999969
40
0.19999999999999968
40
0.20159999999999967
40
0.20319999999999966
40
0.20479999999999965
40
0.20639999999999964
40
0.20799999999999963
40
0.20959999999999962
40
0.21119999999999961
40
0.2127999999999996
40
0.21439999999999959
40
0.21599999999999958
40
0.21759999999999957
40
0.21919999999999956
40
0.22079999999999955
40
0.22239999999999954
40
0.22399999999999953
40
0.22559999999999952
40
0.22719999999999951
40
0.2287999999999995
40
0.23039999999999949
40
0.23199999999999948
40
0.23359999999999947
40
0.23519999999999947
40
0.23679999999999946
40
0.23839999999999945
40
0.23999999999999944
40
0.24159999999999943
40
0.24319999999999942
40
0.24479999999999941
40
0.2463999999999994
40
0.24799999999999939
40
0.24959999999999938
40
0.25119999999999937
40
0.25279999999999936
40
0.25439999999999935
40
0.25599999999999934
40
0.25759999999999933
40
0.25919999999999932
40
0.26079999999999931
40
0.2623999999999993
40
0.26399999999999929
40
0.26559999999999928
40
0.26719999999999927
40
0.26879999999999926
40
0.27039999999999925
40
0.27199999999999924
40
0.27359999999999923
40
0.27519999999999922
40
0.27679999999999921
40
0.2783999999999992
40
0.27999999999999919
40
0.28159999999999918
40
0.28319999999999917
40
0.28479999999999916
40
0.28639999999999916
40
0.28799999999999915
40
0.28959999999999914
40
0.29119999999999913
40
0.29279999999999912
40
0.29439999999999911
40
0.2959999999999991
40
0.29759999999999909
40
0.29919999999999908
40
0.30079999999999907
40
0.30239999999999906
40
0.30399999999999905
40
0.30559999999999904
40
0.30719999999999903
40
0.30879999999999902
40
0.31039999999999901
40
0.311999999999999
40
0.31359999999999899
40
0.31519999999999898
40
0.31679999999999897
40
0.31839999999999896
40
0.31999999999999895
40
0.32159999999999894
40
0.32319999999999893
40
0.32479999999999892
40
0.32639999999999891
40
0.3279999999999989
40
0.32959999999999889
40
0.33119999999999888
40
0.33279999999999887
40
0.33439999999999886
40
0.33599999999999886
40
0.33759999999999885
40
0.33919999999999884
40
0.34079999999999883
40
0.34239999999999882
40
0.34399999999999881
40
0.3455999999999988
40
0.34719999999999879
40
0.34879999999999878
40
0.35039999999999877
40
0.35199999999999876
40
0.35359999999999875
40
0.35519999999999874
40
0.35679999999999873
40
0.35839999999999872
40
0.35999999999999871
40
0.3615999999999987
40
0.36319999999999869
40
0.36479999999999868
40
0.36639999999999867
40
0.36799999999999866
40
0.36959999999999865
40
0.37119999999999864
40
0.37279999999999863
40
0.37439999999999862
40
0.37599999999999861
40
0.3775999999999986
40
0.37919999999999859
40
0.38079999999999858
40
0.38239999999999857
40
0.38399999999999856
40
0.38559999999999856
40
0.38719999999999855
40
0.38879999999999854
40
0.39039999999999853
40
0.39199999999999852
40
0.39359999999999851
40
0.3951999999999985
40
0.39679999999999849
40
0.39839999999999848
40
0.39999999999999847
40
0.40159999999999846
40
0.40319999999999845
40
0.40479999999999844
40
0.40639999999999843
40
0.40799999999999842
40
0.40959999999999841
40
0.4111999999999984
40
0.41279999999999839
40
0.41439999999999838
40
0.41599999999999837
40
0.41759999999999836
40
0.41919999999999835
40
0.42079999999999834
40
0.42239999999999833
40
0.42399999999999832
40
0.42559999999999831
40
0.4271999999999983
40
0.42879999999999829
40
0.43039999999999828
40
0.43199999999999827
40
0.43359999999999826
40
0.43519999999999825
40
0.43679999999999825
40
0.43839999999999824
40
0.43999999999999823
40
0.44159999999999822
40
0.44319999999999821
40
0.4447999999999982
40
0.44639999999999819
40
0.44799999999999818
40
0.44959999999999817
40
0.45119999999999816
40
0.45279999999999815
40
0.45439999999999814
40
0.45599999999999813
40
0.45759999999999812
40
0.45919999999999811
40
0.4607999999999981
40
0.46239999999999809
40
0.46399999999999808
40
0.46559999999999807
40
0.46719999999999806
40
0.46879999999999805
40
0.47039999999999804
40
0.47199999999999803
40
0.47359999999999802
40
0.47519999999999801
40
0.476799999999998
40
0.47839999999999799
40
0.47999999999999798
40
0.48159999999999797
40
0.48319999999999796
40
0.48479999999999795
40
0.48639999999999795
40
0.48799999999999794
40
0.48959999999999793
40
0.49119999999999792
40
0.49279999999999791
40
0.4943999999999979
40
0.49599999999999789
40
0.49759999999999788
40
0.49919999999999787
40
0.50079999999999791
40
0.50239999999999796
40
0.50399999999999801
40
0.50559999999999805
40
0.5071999999999981
40
0.50879999999999814
40
0.51039999999999819
40
0.51199999999999823
40
0.51359999999999828
40
0.51519999999999833
40
0.51679999999999837
40
0.51839999999999842
40
0.51999999999999846
40
0.52159999999999851
40
0.52319999999999856
40
0.5247999999999986
40
0.52639999999999865
40
0.52799999999999869
40
0.52959999999999874
40
0.53119999999999878
40
0.53279999999999883
40
0.53439999999999888
40
0.53599999999999892
40
0.53759999999999897
40
0.53919999999999901
40
0.54079999999999906
40
0.54239999999999911
40
0.54399999999999915
40
0.5455999999999992
40
0.54719999999999924
40
0.54879999999999929
40
0.55039999999999933
40
0.55199999999999938
40
0.55359999999999943
40
0.55519999999999947
40
0.55679999999999952
40
0.55839999999999956
40
0.55999999999999961
40
0.56159999999999966
40
0.5631999999999997
40
0.56479999999999975
40
0.56639999999999979
40
0.56799999999999984
40
0.56959999999999988
40
0.57119999999999993
40
0.57279999999999998
40
0.57440000000000002
40
0.57600000000000007
40
0.57760000000000011
40
0.57920000000000016
40
0.5808000000000002
40
0.58240000000000025
40
0.5840000000000003
40
0.58560000000000034
40
0.58720000000000039
40
0.58880000000000043
40
0.59040000000000048
40
0.59200000000000053
40
0.59360000000000057
40
0.59520000000000062
40
0.59680000000000066
40
0.59840000000000071
40
0.60000000000000075
40
0.6016000000000008
40
0.60320000000000085
40
0.60480000000000089
40
0.60640000000000094
40
0.60800000000000098
40
0.60960000000000103
40
0.61120000000000108
40
0.61280000000000112
40
0.61440000000000117
40
0.61600000000000121
40
0.61760000000000126
40
0.6192000000000013
40
0.62080000000000135
40
0.6224000000000014
40
0.62400000000000144
40
0.62560000000000149
40
0.62720000000000153
40
0.62880000000000158
40
0.63040000000000163
40
0.63200000000000167
40
0.63360000000000172
40
0.63520000000000176
40
0.63680000000000181
40
0.63840000000000185
40
0.6400000000000019
40
0.64160000000000195
40
0.64320000000000199
40
0.64480000000000204
40
0.64640000000000208
40
0.64800000000000213
40
0.64960000000000218
40
0.65120000000000222
40
0.65280000000000227
40
0.65440000000000231
40
0.65600000000000236
40
0.6576000000000024
40
0.65920000000000245
40
0.6608000000000025
40
0.66240000000000254
40
0.66400000000000259
40
0.66560000000000263
40
0.66720000000000268
40
0.66880000000000273
40
0.67040000000000277
40
0.67200000000000282
40
0.67360000000000286
40
0.67520000000000291
40
0.67680000000000295
40
0.678400000000003
40
0.68000000000000305
40
0.68160000000000309
40
0.68320000000000314
40
0.68480000000000318
40
0.68640000000000323
40
0.68800000000000328
40
0.68960000000000332
40
0.69120000000000337
40
0.69280000000000341
40
0.69440000000000346
40
0.6960000000000035
40
0.69760000000000355
40
0.6992000000000036
40
0.70080000000000364
40
0.70240000000000369
40
0.70400000000000373
40
0.70560000000000378
40
0.70720000000000383
40
0.70880000000000387
40
0.71040000000000392
40
0.71200000000000396
40
0.71360000000000401
40
0.71520000000000405
40
0.7168000000000041
40
0.71840000000000415
40
0.72000000000000419
40
0.72160000000000424
40
0.72320000000000428
40
0.72480000000000433
40
0.72640000000000438
40
0.72800000000000442
40
0.72960000000000447
40
0.73120000000000451
40
0.73280000000000456
40
0.7344000000000046
40
0.73600000000000465
40
0.7376000000000047
40
0.73920000000000474
40
0.74080000000000479
40
0.74240000000000483
40
0.74400000000000488
40
0.74560000000000493
40
0.74720000000000497
40
0.74880000000000502
40
0.75040000000000506
40
0.75200000000000511
40
0.75360000000000515
40
0.7552000000000052
40
0.75680000000000525
40
0.75840000000000529
40
0.76000000000000534
40
0.76160000000000538
40
0.76320000000000543
40
0.76480000000000548
40
0.76640000000000552
40
0.76800000000000557
40
0.76960000000000561
40
0.77120000000000566
40
0.7728000000000057
40
0.77440000000000575
40
0.7760000000000058
40
0.77760000000000584
40
0.77920000000000589
40
0.78080000000000593
40
0.78240000000000598
40
0.78400000000000603
40
0.78560000000000607
40
0.78720000000000612
40
0.78880000000000616
40
0.79040000000000621
40
0.79200000000000625
40
0.7936000000000063
40
0.79520000000000635
40
0.79680000000000639
40
0.79840000000000644
40
0.80000000000000648
40
0.80160000000000653
40
0.80320000000000658
40
0.80480000000000662
40
0.80640000000000667
40
0.80800000000000671
40
0.80960000000000676
40
0.8112000000000068
40
0.81280000000000685
40
0.8144000000000069
40
0.81600000000000694
40
0.81760000000000699
40
0.81920000000000703
40
0.82080000000000708
40
0.82240000000000713
40
0.82400000000000717
40
0.82560000000000722
40
0.82720000000000726
40
0.82880000000000731
40
0.83040000000000735
40
0.8320000000000074
40
0.83360000000000745
40
0.83520000000000749
40
0.83680000000000754
40
0.83840000000000758
40
0.84000000000000763
40
0.84160000000000768
40
0.84320000000000772
40
0.84480000000000777
40
0.84640000000000781
40
0.84800000000000786
40
0.8496000000000079
40
0.85120000000000795
40
0.852800000000008
40
0.85440000000000804
40
0.85600000000000809
40
0.85760000000000813
40
0.85920000000000818
40
0.86080000000000823
40
0.86240000000000827
40
0.86400000000000832
40
0.86560000000000836
40
0.86720000000000841
40
0.86880000000000845
40
0.8704000000000085
40
0.87200000000000855
40
0.87360000000000859
40
0.87520000000000864
40
0.87680000000000868
40
0.87840000000000873
40
0.88000000000000878
40
0.88160000000000882
40
0.88320000000000887
40
0.88480000000000891
40
0.88640000000000896
40
0.888000000000009
40
0.88960000000000905
40
0.8912000000000091
40
0.89280000000000914
40
0.89440000000000919
40
0.89600000000000923
40
0.89760000000000928
40
0.89920000000000933
40
0.90080000000000937
40
0.90240000000000942
40
0.90400000000000946
40
0.90560000000000951
40
0.90720000000000955
40
0.9088000000000096
40
0.91040000000000965
40
0.91200000000000969
40
0.91360000000000974
40
0.91520000000000978
40
0.91680000000000983
40
0.91840000000000988
40
0.92000000000000992
40
0.92160000000000997
40
0.92320000000001001
40
0.92480000000001006
40
0.9264000000000101
40
0.92800000000001015
40
0.9296000000000102
40
0.93120000000001024
40
0.93280000000001029
40
0.93440000000001033
40
0.93600000000001038
40
0.93760000000001043
40
0.93920000000001047
40
0.94080000000001052
40
0.94240000000001056
40
0.94400000000001061
40
0.94560000000001065
40
0.9472000000000107
40
0.94880000000001075
40
0.95040000000001079
40
0.95200000000001084
40
0.95360000000001088
40
0.95520000000001093
40
0.95680000000001098
40
0.95840000000001102
40
0.96000000000001107
40
0.96160000000001111
40
0.96320000000001116
40
0.9648000000000112
40
0.96640000000001125
40
0.9680000000000113
40
0.96960000000001134
40
0.97120000000001139
40
0.97280000000001143
40
0.97440000000001148
40
0.97600000000001153
40
0.97760000000001157
40
0.97920000000001162
40
0.98080000000001166
40
0.98240000000001171
40
0.98400000000001175
40
0.9856000000000118
40
0.98720000000001185
40
0.98880000000001189
40
0.99040000000001194
40
0.99200000000001198
40
0.99360000000001203
40
0.99520000000001207
40
0.99680000000001212
40
0.99840000000001217
40
1
40
1
40
1
40
1
40
1
40
1
41
1
41
1
41
1
41
1
41
1
41
1
41
1
41
1
41
1
41
1
41
1
41
1
41
1
41
1
41
1
41
1
41
1
41
1
41
1
41
1
41
1
41
1
41
1
41
1
41
1
41
1
41
1
41
1
41
1
41
1
41
1
41
1
41
1
41
1
41
1
41
1
41
1
41
1
41
1
41
1
41
1
41
1
41
1
41
1
41
1
41
1
41
1
41
1
41
1
41
1
41
1
41
1
41
1
41
1
41
1
41
1
41
1
41
1
41
1
41
1
41
1
41
1
41
1
41
1
41
1
41
1
41
1
41
1
41
1
41
1
41
1
41
1
41
1
41
1
41
1
41
1
41
1
41
1
41
1
41
1
41
1
41
1
41
1
41
1
41
1
41
1
41
1
41
1
41
1
41
1
41
1
41
1
41
1
41
1
41
1
41
1
41
1
41
1
41
1
41
1
41
1
41
1
41
1
41
1
41
1
41
1
41
1
41
1
41
1
41
1
41
1
41
1
41
1
41
1
41
1
41
1
41
1
41
1
41
1
41
1
41
1
41
1
41
1
41
1
41
1
41
1
41
1
41
1
41
1
41
1
41
1
41
1
41
1
41
1
41
1
41
1
41
1
41
1
41
1
41
1
41
1
41
1
41
1
41
1
41
1
41
1
41
1
41
1
41
1
41
1
41
1
41
1
41
1
41
1
41
1
41
1
41
1
41
1
41
1
41
1
41
1
41
1
41
1
41
1
41
1
41
1
41
1
41
1
41
1
41
1
41
1
41
1
41
1
41
1
41
1
41
1
41
1
41
1
41
1
41
1
41
1
41
1
41
1
41
1
41
1
41
1
41
1
41
1
41
1
41
1
41
1
41
1
41
1
41
1
41
1
41
1
41
1
41
1
41
1
41
1
41
1
41
1
41
1
41
1
41
1
41
1
41
1
41
1
41
1
41
1
41
1
41
1
41
1
41
1
41
1
41
1
41
1
41
1
41
1
41
1
41
1
41
1
41
1
41
1
41
1
41
1
41
1
41
1
41
1
41
1
41
1
41
1
41
1
41
1
41
1
41
1
41
1
41
1
41
1
41
1
41
1
41
1
41
1
41
1
41
1
41
1
41
1
41
1
41
1
41
1
41
1
41
1
41
1
41
1
41
1
41
1
41
1
41
1
41
1
41
1
41
1
41
1
41
1
41
1
41
1
41
1
41
1
41
1
41
1
41
1
41
1
41
1
41
1
41
1
41
1
41
1
41
1
41
1
41
1
41
1
41
1
41
1
41
1
41
1
41
1
41
1
41
1
41
1
41
1
41
1
41
1
41
1
41
1
41
1
41
1
41
1
41
1
41
1
41
1
41
1
41
1
41
1
41
1
41
1
41
1
41
1
41
1
41
1
41
1
41
1
41
1
41
1
41
1
41
1
41
1
41
1
41
1
41
1
41
1
41
1
41
1
41
1
41
1
41
1
41
1
41
1
41
1
41
1
41
1
41
1
41
1
41
1
41
1
41
1
41
1
41
1
41
1
41
1
41
1
41
1
41
1
41
1
41
1
41
1
41
1
41
1
41
1
41
1
41
1
41
1
41
1
41
1
41
1
41
1
41
1
41
1
41
1
41
1
41
1
41
1
41
1
41
1
41
1
41
1
41
1
41
1
41
1
41
1
41
1
41
1
41
1
41
1
41
1
41
1
41
1
41
1
41
1
41
1
41
1
41
1
41
1
41
1
41
1
41
1
41
1
41
1
41
1
41
1
41
1
41
1
41
1
41
1
41
1
41
1
41
1
41
1
41
1
41
1
41
1
41
1
41
1
41
1
41
1
41
1
41
1
41
1
41
1
41
1
41
1
41
1
41
1
41
1
41
1
41
1
41
1
41
1
41
1
41
1
41
1
41
1
41
1
41
1
41
1
41
1
41
1
41
1
41
1
41
1
41
1
41
1
41
1
41
1
41
1
41
1
41
1
41
1
41
1
41
1
41
1
41
1
41
1
41
1
41
1
41
1
41
1
41
1
41
1
41
1
41
1
41
1
41
1
41
1
41
1
41
1
41
1
41
1
41
1
41
1
41
1
41
1
41
1
41
1
41
1
41
1
41
1
41
1
41
1
41
1
41
1
41
1
41
1
41
1
41
1
41
1
41
1
41
1
41
1
41
1
41
1
41
1
41
1
41
1
41
1
41
1
41
1
41
1
41
1
41
1
41
1
41
1
41
1
41
1
41
1
41
1
41
1
41
1
41
1
41
1
41
1
41
1
41
1
41
1
41
1
41
1
41
1
41
1
41
1
41
1
41
1
41
1
41
1
41
1
41
1
41
1
41
1
41
1
41
1
41
1
41
1
41
1
41
1
41
1
41
1
41
1
41
1
41
1
41
1
41
1
41
1
41
1
41
1
41
1
41
1
41
1
41
1
41
1
41
1
41
1
41
1
41
1
41
1
41
1
41
1
41
1
41
1
41
1
41
1
41
1
41
1
41
1
41
1
41
1
41
1
41
1
41
1
41
1
41
1
41
1
41
1
41
1
41
1
41
1
41
1
41
1
41
1
41
1
41
1
41
1
41
1
41
1
41
1
41
1
41
1
41
1
41
1
41
1
41
1
41
1
41
1
41
1
41
1
41
1
41
1
41
1
41
1
41
1
41
1
41
1
41
1
41
1
41
1
41
1
41
1
41
1
41
1
41
1
41
1
41
1
41
1
41
1
41
1
41
1
41
1
41
1
41
1
41
1
41
1
41
1
41
1
41
1
41
1
41
1
41
1
41
1
41
1
41
1
41
1
41
1
41
1
41
1
41
1
41
1
41
1
41
1
41
1
41
1
41
1
41
1
41
1
41
1
10
-20.978200000000001
20
-83.477800000000002
30
0
10
-21.065122712839546
20
-83.454292831616613
30
0
10
-21.238743322173072
20
-83.403316465467171
30
0
10
-21.498087786846511
20
-83.315862264499742
30
0
10
-21.83551433024514
20
-83.180748890911275
30
0
10
-22.22415836987965
20
-82.986315819753145
30
0
10
-22.581980273705319
20
-82.765405368639961
30
0
10
-22.942665028371923
20
-82.509526324902751
30
0
10
-23.343742554915806
20
-82.206763360405489
30
0
10
-23.800225561149425
20
-81.844687858500777
30
0
10
-24.29808315838028
20
-81.414777880712734
30
0
10
-24.809174407913382
20
-80.918665233738693
30
0
10
-25.299468765759894
20
-80.372391184566311
30
0
10
-25.741273484093639
20
-79.815079929263959
30
0
10
-26.117318164215447
20
-79.296072684819791
30
0
10
-26.422414930889197
20
-78.850493208739906
30
0
10
-26.665168055108342
20
-78.481192496553561
30
0
10
-26.871345003466821
20
-78.131228139541577
30
0
10
-27.071599802311489
20
-77.720314187277893
30
0
10
-27.285087906942103
20
-77.196469767043808
30
0
10
-27.506296088359953
20
-76.577051274155608
30
0
10
-27.717322054456062
20
-75.913631384517643
30
0
10
-27.897967135346793
20
-75.263273373827232
30
0
10
-28.037933717441618
20
-74.653578858888608
30
0
10
-28.144208676859975
20
-74.062120558529756
30
0
10
-28.231617625142817
20
-73.446916974203418
30
0
10
-28.3166070749947
20
-72.766582628944604
30
0
10
-28.408526323119943
20
-72.009420836072749
30
0
10
-28.506161263491716
20
-71.202151239113846
30
0
10
-28.602269744114363
20
-70.387177387714701
30
0
10
-28.686456027036908
20
-69.605975844968455
30
0
10
-28.748467637063531
20
-68.881939006876934
30
0
10
-28.781919053840603
20
-68.198681541444557
30
0
10
-28.784728420300077
20
-67.50464997738321
30
0
10
-28.757767143393277
20
-66.731482457853033
30
0
10
-28.704069392972841
20
-65.808177397168691
30
0
10
-28.627822481939766
20
-64.676692079211875
30
0
10
-28.533414587609656
20
-63.307766329406896
30
0
10
-28.425286243555796
20
-61.697725762448101
30
0
10
-28.307851517458399
20
-59.863978964609721
30
0
10
-28.185392578100739
20
-57.840997875980484
30
0
10
-28.061965682433403
20
-55.676095982710507
30
0
10
-27.941301987689243
20
-53.425288684219737
30
0
10
-27.826711191422341
20
-51.149130050560828
30
0
10
-27.720982541174841
20
-48.908532935332197
30
0
10
-27.626290232875515
20
-46.760658793839092
30
0
10
-27.54408932237963
20
-44.754632190343017
30
0
10
-27.475033421001278
20
-42.927669771786412
30
0
10
-27.418839736744044
20
-41.300202253390495
30
0
10
-27.374330431424049
20
-39.874373608876816
30
0
10
-27.339738438653853
20
-38.637621619249749
30
0
10
-27.312951405924814
20
-37.5650505703872
30
0
10
-27.291778220040751
20
-36.622285803653789
30
0
10
-27.274211349628214
20
-35.768134659019097
30
0
10
-27.25867824086539
20
-34.957301109336179
30
0
10
-27.244327990993185
20
-34.143147894076655
30
0
10
-27.231209551359612
20
-33.280221347445696
30
0
10
-27.220004993594635
20
-32.325712603947267
30
0
10
-27.211826784182698
20
-31.24109259615134
30
0
10
-27.207993471885416
20
-29.993648101065315
30
0
10
-27.209806807873886
20
-28.558130835349548
30
0
10
-27.218346391536521
20
-26.918192839148514
30
0
10
-27.234211656663561
20
-25.068324849745647
30
0
10
-27.257475335623184
20
-23.013858794650048
30
0
10
-27.287815521563211
20
-20.76934826375874
30
0
10
-27.324597048548654
20
-18.357408645802259
30
0
10
-27.366973693904303
20
-15.807368733205983
30
0
10
-27.413981412755085
20
-13.154003185626223
30
0
10
-27.464635525903045
20
-10.436230412316302
30
0
10
-27.518025980520747
20
-7.6958251621301521
30
0
10
-27.573413962054673
20
-4.9761254489487223
30
0
10
-27.630326717794041
20
-2.3207405342776473
30
0
10
-27.688655962750943
20
0.22773824303812323
30
0
10
-27.748748227269481
20
2.6290355166395152
30
0
10
-27.811513832676631
20
4.8464684003750733
30
0
10
-27.878492575836837
20
6.8482736593451126
30
0
10
-27.952022152366439
20
8.6088148697939761
30
0
10
-28.035116990182622
20
10.110122891919449
30
0
10
-28.12985293743003
20
11.344968249939102
30
0
10
-28.235824332485187
20
12.319991843853913
30
0
10
-28.348786789018007
20
13.058324064049531
30
0
10
-28.458734258603119
20
13.603535943089614
30
0
10
-28.54935322705153
20
14.020421718881341
30
0
10
-28.594102197445451
20
14.403518638300611
30
0
10
-28.564187905929082
20
14.858265194598712
30
0
10
-28.445911787435094
20
15.459958480448359
30
0
10
-28.260003074663601
20
16.209353391999734
30
0
10
-28.051797427571394
20
17.048273437179496
30
0
10
-27.871610601114504
20
17.895589036339274
30
0
10
-27.758630941409592
20
18.675966078637892
30
0
10
-27.72290591961702
20
19.352329963667
30
0
10
-27.729398292496612
20
19.954747811441059
30
0
10
-27.724267519273482
20
20.542568022864849
30
0
10
-27.658364029714807
20
21.170890931524905
30
0
10
-27.514467458206582
20
21.85119163263203
30
0
10
-27.324874525024576
20
22.527251733702805
30
0
10
-27.143357047679789
20
23.129106672749987
30
0
10
-27.025213463033701
20
23.609268698606126
30
0
10
-27.000185978545549
20
24.000923560687589
30
0
10
-27.061367545959595
20
24.418955476227616
30
0
10
-27.182989857190421
20
24.967600025809652
30
0
10
-27.334016578155452
20
25.643400465044607
30
0
10
-27.485954548987849
20
26.343146758480366
30
0
10
-27.614543041647583
20
26.953592696173597
30
0
10
-27.703068118667105
20
27.408144884221834
30
0
10
-27.745847566119501
20
27.776721912879196
30
0
10
-27.746180596287594
20
28.215958397582842
30
0
10
-27.712229293412737
20
28.87718000322068
30
0
10
-27.653628061284113
20
29.829111283832439
30
0
10
-27.580682335004589
20
31.073230413429847
30
0
10
-27.503662785073402
20
32.560617528121419
30
0
10
-27.432059677216326
20
34.208067487456283
30
0
10
-27.373847623690111
20
35.914600761665987
30
0
10
-27.334761690734926
20
37.577617397851604
30
0
10
-27.317531700352248
20
39.109634793810692
30
0
10
-27.321221369552614
20
40.453760776389778
30
0
10
-27.340291824334621
20
41.602397034434588
30
0
10
-27.366143540397573
20
42.587188238071427
30
0
10
-27.389078691642815
20
43.464221418816884
30
0
10
-27.400079906462118
20
44.301083381283881
30
0
10
-27.392747459888554
20
45.16270394758503
30
0
10
-27.364978550444153
20
46.098732811488475
30
0
10
-27.321249854433209
20
47.127633231523205
30
0
10
-27.271235365776192
20
48.24032348555501
30
0
10
-27.227365440142002
20
49.409427748332433
30
0
10
-27.202752620742558
20
50.596614720887516
30
0
10
-27.208938817204668
20
51.760803306045275
30
0
10
-27.253777413735477
20
52.865840838878924
30
0
10
-27.339118562529965
20
53.888777556419697
30
0
10
-27.458982105082764
20
54.826814831714174
30
0
10
-27.60236522158494
20
55.69213517298877
30
0
10
-27.755625771565718
20
56.507761275424386
30
0
10
-27.905122206379978
20
57.302927525004598
30
0
10
-28.039527008745281
20
58.108878293914259
30
0
10
-28.152830679000843
20
58.953927762786158
30
0
10
-28.244209624087944
20
59.861692247941349
30
0
10
-28.316324921925403
20
60.850866279760197
30
0
10
-28.374132499397923
20
61.934540308634055
30
0
10
-28.423437495621787
20
63.119654589909366
30
0
10
-28.469659603378737
20
64.406519892880084
30
0
10
-28.516254794576291
20
65.787996269551627
30
0
10
-28.56439626065638
20
67.25019488810085
30
0
10
-28.613556978022707
20
68.774310893935805
30
0
10
-28.661830155819779
20
70.338126494937896
30
0
10
-28.706356316453618
20
71.917645586998063
30
0
10
-28.743707544735027
20
73.488681824102557
30
0
10
-28.770283450647625
20
75.028443812510062
30
0
10
-28.782717672187573
20
76.517174779836751
30
0
10
-28.778243371760766
20
77.939644320074493
30
0
10
-28.755167277929079
20
79.287014260491787
30
0
10
-28.712909402712047
20
80.557217766544596
30
0
10
-28.651698604980428
20
81.754152538375962
30
0
10
-28.572365103209641
20
82.887222702893524
30
0
10
-28.476097342312595
20
83.970719946584381
30
0
10
-28.364204469737075
20
85.023313929178642
30
0
10
-28.237898952091491
20
86.067401805940193
30
0
10
-28.098015712075508
20
87.128746808224804
30
0
10
-27.94494540552045
20
88.235213821484678
30
0
10
-27.778967816714044
20
89.413838182285815
30
0
10
-27.600495826481747
20
90.688270498738149
30
0
10
-27.410357909328866
20
92.07605009921771
30
0
10
-27.210058076569105
20
93.585998735466688
30
0
10
-27.002059666611519
20
95.215453130811355
30
0
10
-26.790025962902206
20
96.947821270735432
30
0
10
-26.57915827791502
20
98.749389232155394
30
0
10
-26.376252854129156
20
100.56830271384865
30
0
10
-26.18856746990016
20
102.34281968991436
30
0
10
-26.022845940440984
20
104.00828923554165
30
0
10
-25.884305874071028
20
105.50452353340951
30
0
10
-25.775585507681971
20
106.78323795016185
30
0
10
-25.695839179472415
20
107.81491606384945
30
0
10
-25.63946416743217
20
108.59719120022808
30
0
10
-25.595698820873256
20
109.15960665445732
30
0
10
-25.546067935464166
20
109.5773523830884
30
0
10
-25.470589658451885
20
109.94811322364302
30
0
10
-25.358590400382415
20
110.34819270554141
30
0
10
-25.220265062222804
20
110.78838073418939
30
0
10
-25.073982576757391
20
111.23902457088592
30
0
10
-24.927690049347049
20
111.66977617350462
30
0
10
-24.766701077158338
20
112.07783808238543
30
0
10
-24.57004937481571
20
112.47102926485974
30
0
10
-24.328363081730259
20
112.85122981475129
30
0
10
-24.048888676347456
20
113.20807569290805
30
0
10
-23.741091658950253
20
113.53019830960594
30
0
10
-23.402519148062776
20
113.81472977121956
30
0
10
-23.024878729394132
20
114.06590911881166
30
0
10
-22.61153781419403
20
114.28680457779379
30
0
10
-22.19277086149766
20
114.47270936507297
30
0
10
-21.7985525155208
20
114.61779478392455
30
0
10
-21.419875093017232
20
114.7247933872105
30
0
10
-20.992186627781955
20
114.80981121170277
30
0
10
-20.452166167063943
20
114.89105722530806
30
0
10
-19.798568252222836
20
114.97749377836207
30
0
10
-19.103895020857795
20
115.0650431894927
30
0
10
-18.455460478905621
20
115.14358922342835
30
0
10
-17.921472180132451
20
115.20075115907852
30
0
10
-17.491698473281396
20
115.22787425118315
30
0
10
-17.097012743488268
20
115.22099099019192
30
0
10
-16.672857687551087
20
115.17905400567074
30
0
10
-16.21755727496058
20
115.10294500881861
30
0
10
-15.767311344389842
20
114.99190691565698
30
0
10
-15.351798121221446
20
114.83782706041143
30
0
10
-14.965593490712791
20
114.62444819089501
30
0
10
-14.593779614889907
20
114.34363066147618
30
0
10
-14.241168015374424
20
114.01962967218421
30
0
10
-13.934970273260291
20
113.70133309975267
30
0
10
-13.690434651285861
20
113.41494883031359
30
0
10
-13.475881237117671
20
113.11153256808282
30
0
10
-13.224047388236615
20
112.68707826758266
30
0
10
-12.868203183355165
20
112.03969243834919
30
0
10
-12.371969185859445
20
111.11761474675671
30
0
10
-11.72677363201176
20
109.91468215179118
30
0
10
-10.945528367319632
20
108.45988056802534
30
0
10
-10.057773574343567
20
106.80918553529816
30
0
10
-9.1042028976701257
20
105.03643817597663
30
0
10
-8.1314420027582912
20
103.22461452550924
30
0
10
-7.186749023166553
20
101.4569765955309
30
0
10
-6.3126769799655422
20
99.80815621563147
30
0
10
-5.5419194919398667
20
98.335542963518989
30
0
10
-4.8916791673370277
20
97.069884396120614
30
0
10
-4.3594093026612288
20
96.008150428907811
30
0
10
-3.9284906565172695
20
95.122772088053864
30
0
10
-3.5728968182255478
20
94.369214840494664
30
0
10
-3.2622639303232788
20
93.69421474514948
30
0
10
-2.9667517440783664
20
93.043679038889579
30
0
10
-2.6620810055978792
20
92.370857464343743
30
0
10
-2.3342498887906729
20
91.644040469994707
30
0
10
-1.9773580017621288
20
90.844417657472846
30
0
10
-1.5917133856533294
20
89.964299997782874
30
0
10
-1.1817867620709874
20
89.005216701264075
30
0
10
-0.75433765131587549
20
87.976041227069274
30
0
10
-0.31619887250491296
20
86.891165269429877
30
0
10
0.12656237117723135
20
85.768380154868353
30
0
10
0.5685900048067708
20
84.626573932065583
30
0
10
1.0054545173913738
20
83.483454741167634
30
0
10
1.43375032186198
20
82.353327962980686
30
0
10
1.8512590753613203
20
81.244701216724991
30
0
10
2.2570488961934516
20
80.158311017827586
30
0
10
2.651688490305903
20
79.084118552862861
30
0
10
3.0371015931879937
20
78.001767624441939
30
0
10
3.4158824957932565
20
76.886304386213055
30
0
10
3.7907426682749836
20
75.71261133988331
30
0
10
4.1638975520080139
20
74.460433716772926
30
0
10
4.536494850582784
20
73.1189841370403
30
0
10
4.9079879973267762
20
71.692119891358757
30
0
10
5.2756198976798565
20
70.202356613819944
30
0
10
5.6336371136272403
20
68.69772949346428
30
0
10
5.9739104138277241
20
67.243898666262936
30
0
10
6.2871064128471223
20
65.910703743483325
30
0
10
6.5636800036971596
20
64.760127304410304
30
0
10
6.7949422084865407
20
63.834540943055096
30
0
10
6.9740940031256056
20
63.14282114672374
30
0
10
7.097278594572086
20
62.652071824975181
30
0
10
7.1646192568383693
20
62.265379525022226
30
0
10
7.1812178300935052
20
61.85040266558844
30
0
10
7.1577127962190428
20
61.307384517865955
30
0
10
7.1116076683393867
20
60.640808099655537
30
0
10
7.0638756038199855
20
59.931910970442487
30
0
10
7.0342103892274324
20
59.279803312556027
30
0
10
7.0368898933037425
20
58.755078006339936
30
0
10
7.0759541369419665
20
58.343731734459567
30
0
10
7.1506918215268804
20
57.982852429433777
30
0
10
7.2629716422508706
20
57.606398264089833
30
0
10
7.4213400826261102
20
57.178030845506044
30
0
10
7.6337411533548414
20
56.677968795750189
30
0
10
7.9002079056182337
20
56.094209562686224
30
0
10
8.2106947895392608
20
55.417550821473625
30
0
10
8.5501033063249459
20
54.644987642842509
30
0
10
8.901537368174619
20
53.780967785849391
30
0
10
9.250025746813952
20
52.839142558522319
30
0
10
9.5866937806819656
20
51.844887824461246
30
0
10
9.9086876137084587
20
50.831311410394981
30
0
10
10.217524538764945
20
49.83278817847949
30
0
10
10.517979309867156
20
48.879492579537008
30
0
10
10.816722847019522
20
47.991126862902718
30
0
10
11.121121976791127
20
47.171896444647658
30
0
10
11.437831376184578
20
46.402667180504793
30
0
10
11.772177644899173
20
45.645815093705693
30
0
10
12.127948521324969
20
44.856535877153156
30
0
10
12.507042985957362
20
43.992370710991537
30
0
10
12.90920943528825
20
43.022969254555548
30
0
10
13.331673600449527
20
41.940947389813729
30
0
10
13.769034938564406
20
40.768623179947376
30
0
10
14.214221296808621
20
39.547130957182667
30
0
10
14.659289987153841
20
38.328138662657679
30
0
10
15.096287220984593
20
37.164557473010596
30
0
10
15.518086138255454
20
36.101658930995519
30
0
10
15.919226015752388
20
35.168067877471103
30
0
10
16.296769787969538
20
34.366688573270878
30
0
10
16.651107042726178
20
33.665966096672207
30
0
10
16.983966764072118
20
33.017434191572448
30
0
10
17.296264218803557
20
32.373961433536813
30
0
10
17.586377359508887
20
31.705967550771781
30
0
10
17.847367434130117
20
31.022680102446039
30
0
10
18.067676457302078
20
30.377331257934095
30
0
10
18.24389550055551
20
29.824744993694608
30
0
10
18.387955432121469
20
29.394794037152575
30
0
10
18.543741346147765
20
29.044594359983819
30
0
10
18.774711107396996
20
28.67199168965832
30
0
10
19.121805321973067
20
28.193879754496542
30
0
10
19.557016757158269
20
27.628470081874951
30
0
10
20.000986990304405
20
27.069653423596613
30
0
10
20.371525462308245
20
26.607851711577677
30
0
10
20.618993569930911
20
26.273806487447523
30
0
10
20.774751594519497
20
25.959289304467738
30
0
10
20.917741979648582
20
25.484148928621259
30
0
10
21.12609265220161
20
24.690769739211042
30
0
10
21.43889382673332
20
23.518790924719816
30
0
10
21.865454144874683
20
21.981832142269599
30
0
10
22.391009956389798
20
20.151715340703728
30
0
10
22.983761972104638
20
18.139861935242998
30
0
10
23.601325164617784
20
16.07995510385981
30
0
10
24.197486229669213
20
14.10990386184797
30
0
10
24.728699551803196
20
12.35446740627709
30
0
10
25.160995456917309
20
10.906759746606781
30
0
10
25.476012066869217
20
9.8121842881265948
30
0
10
25.679098032689435
20
9.0466018595501385
30
0
10
25.800919613151446
20
8.512600579022175
30
0
10
25.88297656050252
20
8.0806080704347032
30
0
10
25.96727440461369
20
7.6184274803971057
30
0
10
26.082201560441597
20
7.0313315767019962
30
0
10
26.237902276780154
20
6.2757588910000699
30
0
10
26.432440948336307
20
5.3430163256784908
30
0
10
26.655255323099823
20
4.2505171686195844
30
0
10
26.891704902572879
20
3.0299741526761985
30
0
10
27.127159038405082
20
1.7168746016912386
30
0
10
27.351259720514406
20
0.33946264240390372
30
0
10
27.557296061110929
20
-1.0800269478752398
30
0
10
27.741642998433505
20
-2.5243045908757185
30
0
10
27.903175169235407
20
-3.9798982163338836
30
0
10
28.042688782407652
20
-5.436040292670322
30
0
10
28.162326286926003
20
-6.8835777008437402
30
0
10
28.264985459307717
20
-8.3138041407253631
30
0
10
28.353768845592519
20
-9.7174838815574205
30
0
10
28.431333660862759
20
-11.083407171683568
30
0
10
28.499577379849512
20
-12.398521140487837
30
0
10
28.55982277116717
20
-13.650390887906932
30
0
10
28.612883600924302
20
-14.829120691791713
30
0
10
28.659178197524874
20
-15.929455869651697
30
0
10
28.698823275480759
20
-16.952893278350839
30
0
10
28.731734530314629
20
-17.9095884689394
30
0
10
28.757728431145104
20
-18.820829542805811
30
0
10
28.776610911124749
20
-19.71979936941727
30
0
10
28.788206558674659
20
-20.64538929218277
30
0
10
28.792396533703808
20
-21.637081711987129
30
0
10
28.789153747812701
20
-22.729345739159669
30
0
10
28.77857764799699
20
-23.946398651756923
30
0
10
28.760932895115193
20
-25.296433149360475
30
0
10
28.736675494163045
20
-26.767174939136567
30
0
10
28.706380664137509
20
-28.331362703463459
30
0
10
28.67068018863916
20
-29.951277629453767
30
0
10
28.630196217608681
20
-31.583631478784632
30
0
10
28.585476378972871
20
-33.184314430591002
30
0
10
28.536928788555187
20
-34.71317453962812
30
0
10
28.484756027367165
20
-36.138850160007983
30
0
10
28.42889206142334
20
-37.443424793112257
30
0
10
28.368931934842255
20
-38.627527366113398
30
0
10
28.304081796243668
20
-39.714175585482231
30
0
10
28.233297179021083
20
-40.741048657840658
30
0
10
28.155406073565953
20
-41.753661245929223
30
0
10
28.069236839249928
20
-42.798320407704715
30
0
10
27.973746244421918
20
-43.914886733351167
30
0
10
27.868142361521166
20
-45.130290740993082
30
0
10
27.75202215584634
20
-46.450077813064155
30
0
10
27.625457049544806
20
-47.856874299411061
30
0
10
27.489013432872031
20
-49.317800281169504
30
0
10
27.343786478510559
20
-50.78961830859491
30
0
10
27.19143515282407
20
-52.224832813759797
30
0
10
27.03420160806289
20
-53.577308189957513
30
0
10
26.874972382496132
20
-54.80826663339613
30
0
10
26.717239869695621
20
-55.89172009626391
30
0
10
26.565303254221789
20
-56.821117191939663
30
0
10
26.423751497818454
20
-57.612348720590518
30
0
10
26.295275071753906
20
-58.296996436222521
30
0
10
26.178540137990737
20
-58.917450156300298
30
0
10
26.066562044819289
20
-59.521170603140405
30
0
10
25.943580521715717
20
-60.155595778561164
30
0
10
25.788073943033027
20
-60.861639921515902
30
0
10
25.580298726253289
20
-61.666587380098292
30
0
10
25.308841010042688
20
-62.576668713736808
30
0
10
24.976860262604212
20
-63.570839446395269
30
0
10
24.610323458301654
20
-64.591259085710163
30
0
10
24.247968835356907
20
-65.561111533449662
30
0
10
23.928799231753501
20
-66.405881976307342
30
0
10
23.679152241219867
20
-67.075647539347372
30
0
10
23.502849626202796
20
-67.561943690832436
30
0
10
23.363009957814135
20
-67.929044350136152
30
0
10
23.19137943128932
20
-68.297777330152641
30
0
10
22.931641333760609
20
-68.770440642726086
30
0
10
22.585947703607665
20
-69.350690546888487
30
0
10
22.205427674910506
20
-69.957537418011256
30
0
10
21.848020996858139
20
-70.494213691547714
30
0
10
21.549903638553715
20
-70.894501217940586
30
0
10
21.283463226096476
20
-71.190795552646748
30
0
10
20.985321754103694
20
-71.470898765326069
30
0
10
20.600159604499186
20
-71.809772059423565
30
0
10
20.115953467222198
20
-72.215038591446273
30
0
10
19.550100734467613
20
-72.654613892678043
30
0
10
18.938061207117926
20
-73.079427516479271
30
0
10
18.320526550913186
20
-73.450179584050673
30
0
10
17.732841809335639
20
-73.755607552283053
30
0
10
17.199914989038344
20
-74.00064246187786
30
0
10
16.73164671469052
20
-74.199513985011279
30
0
10
16.315293548956362
20
-74.366114935998752
30
0
10
15.918464255486054
20
-74.508322911338453
30
0
10
15.508241281089321
20
-74.628469682307369
30
0
10
15.070841244352881
20
-74.721550474174151
30
0
10
14.612749357715076
20
-74.778473283219299
30
0
10
14.14974310700641
20
-74.791400141054169
30
0
10
13.699425116902619
20
-74.759098513994346
30
0
10
13.273483219039921
20
-74.682801639904255
30
0
10
12.869206759185925
20
-74.560129940006206
30
0
10
12.464880697079499
20
-74.381512703830012
30
0
10
12.034433759077386
20
-74.136164370226851
30
0
10
11.562334051642445
20
-73.818000504849067
30
0
10
11.049851009492659
20
-73.428169879448632
30
0
10
10.507962982575471
20
-72.972173387538447
30
0
10
9.9539054935995619
20
-72.458552270824143
30
0
10
9.4056816352342025
20
-71.896505321480632
30
0
10
8.8798897838671085
20
-71.295838760278357
30
0
10
8.391261665634298
20
-70.668225063034271
30
0
10
7.9517217193733192
20
-70.028231724976436
30
0
10
7.5696659973241909
20
-69.394132850594502
30
0
10
7.2490821778069501
20
-68.789628151359494
30
0
10
6.9894885754081182
20
-68.236654403590464
30
0
10
6.7860146888372199
20
-67.747106734488682
30
0
10
6.6293573655177331
20
-67.314490614615011
30
0
10
6.5059637221401729
20
-66.906653762564673
30
0
10
6.4024376313419769
20
-66.487365137297843
30
0
10
6.3108978785375456
20
-66.043402309173899
30
0
10
6.231409176714708
20
-65.594578448762803
30
0
10
6.1671545637231393
20
-65.163045747936451
30
0
10
6.1199449806019901
20
-64.742527856823287
30
0
10
6.0892353315334944
20
-64.295299231023947
30
0
10
6.0746600246606421
20
-63.775702759081405
30
0
10
6.0778914269377635
20
-63.148338764942828
30
0
10
6.1021993144195052
20
-62.391173585182869
30
0
10
6.1511678218956236
20
-61.492930864472932
30
0
10
6.2277342659588806
20
-60.452554231044545
30
0
10
6.3330529739148931
20
-59.277812573118929
30
0
10
6.4655456672291862
20
-57.984222720098813
30
0
10
6.6215251786301597
20
-56.593082484940041
30
0
10
6.7957226194690197
20
-55.129619494979707
30
0
10
6.9818488692351508
20
-53.621099201904542
30
0
10
7.1731455107884736
20
-52.094935428351185
30
0
10
7.3629309780498664
20
-50.576834629380699
30
0
10
7.5451704006130784
20
-49.088844768039991
30
0
10
7.7149846886974416
20
-47.647634149458526
30
0
10
7.869310525334992
20
-46.262205089369346
30
0
10
8.0070125169516064
20
-44.933655247533089
30
0
10
8.1284046832378447
20
-43.65714608617089
30
0
10
8.2349295469762804
20
-42.423282125107526
30
0
10
8.3287712820282955
20
-41.219737425098927
30
0
10
8.4125010016823438
20
-40.032759983640453
30
0
10
8.4886991877216253
20
-38.848766195851582
30
0
10
8.5596092092827512
20
-37.6558082303048
30
0
10
8.6267220862520446
20
-36.445326256100294
30
0
10
8.690806283033794
20
-35.212051430688376
30
0
10
8.7520489472995973
20
-33.953445564091311
30
0
10
8.8101593732136845
20
-32.669297797304594
30
0
10
8.8644881033933416
20
-31.361256406514006
30
0
10
8.9141397363436354
20
-30.032386437332246
30
0
10
8.9580874430073614
20
-28.686721047767616
30
0
10
8.995289113546681
20
-27.328804157059601
30
0
10
9.0247959667882842
20
-25.963269787961693
30
0
10
9.0457776676658082
20
-24.594822729423957
30
0
10
9.0575540108369026
20
-23.228188089183732
30
0
10
9.0596239871226931
20
-21.868072481846092
30
0
10
9.0516962243830683
20
-20.51912080066479
30
0
10
9.0337182409709786
20
-19.185873661366085
30
0
10
9.0059076099508815
20
-17.872727406630272
30
0
10
8.968779010080258
20
-16.583886273952267
30
0
10
8.9231819689646095
20
-15.323336098731454
30
0
10
8.8701411797695293
20
-14.094421752390769
30
0
10
8.8106856213355798
20
-12.899404101016223
30
0
10
8.7456797456733817
20
-11.739016447305007
30
0
10
8.6756582808533196
20
-10.61203902494402
30
0
10
8.6006490733668883
20
-9.5148243370433168
30
0
10
8.5200254877310382
20
-8.4409407131198826
30
0
10
8.4322831470500841
20
-7.3805146806009638
30
0
10
8.3352468316427117
20
-6.321284618174464
30
0
10
8.2264227882977874
20
-5.2502336316010325
30
0
10
8.1033019484238427
20
-4.1550254483420908
30
0
10
7.9636859131757465
20
-3.0255348255455186
30
0
10
7.8059979393681864
20
-1.8553091486384641
30
0
10
7.6296128182696759
20
-0.64312688155116793
30
0
10
7.4351430984337306
20
0.60567778250878024
30
0
10
7.2241505018743846
20
1.881007171098569
30
0
10
6.9988933830289914
20
3.1695940996821688
30
0
10
6.7620584798604888
20
4.4566870724476555
30
0
10
6.5165040754453898
20
5.7276598241806074
30
0
10
6.2649872944634861
20
6.9697388471118149
30
0
10
6.009923809475092
20
8.173480753547393
30
0
10
5.7530712776818538
20
9.3348430254516614
30
0
10
5.4954620142992061
20
10.45531463080945
30
0
10
5.2377466533268358
20
11.538864919507681
30
0
10
4.9804475595429896
20
12.589568511322105
30
0
10
4.7242399557729238
20
13.609073134287538
30
0
10
4.4702409215474113
20
14.59387084010638
30
0
10
4.2202488529217765
20
15.533271904704854
30
0
10
3.9771213038465083
20
16.405489626881803
30
0
10
3.7444462226990618
20
17.183971008587729
30
0
10
3.5260416935180467
20
17.847718640248249
30
0
10
3.3253445159363966
20
18.390140226974264
30
0
10
3.1452155382732574
20
18.828890813302234
30
0
10
2.9867126144363407
20
19.214422924863751
30
0
10
2.841706077581883
20
19.600587532447602
30
0
10
2.6796322968454871
20
20.00892779175334
30
0
10
2.4509573277207592
20
20.41152089663672
30
0
10
2.1223636509166917
20
20.763381179562796
30
0
10
1.724033934949244
20
21.031290100655443
30
0
10
1.3285663795862432
20
21.204894139248694
30
0
10
0.9749683826980784
20
21.287416310613274
30
0
10
0.59288605275125239
20
21.292264387132359
30
0
10
0.05533947222171029
20
21.237330401612926
30
0
10
-0.7346043469525011
20
21.14013791380588
30
0
10
-1.7775956572939042
20
21.013124962333389
30
0
10
-3.0085217623070006
20
20.865287753927166
30
0
10
-4.3216897430699159
20
20.703316976400636
30
0
10
-5.5972959253645094
20
20.532850323952466
30
0
10
-6.7288198481910406
20
20.359859488661961
30
0
10
-7.646602945272325
20
20.19155014496187
30
0
10
-8.3514685338920618
20
20.038533669776008
30
0
10
-8.9127500929394099
20
19.912319618031898
30
0
10
-9.4127048322838558
20
19.814381830223965
30
0
10
-9.9112227170923344
20
19.730056184702942
30
0
10
-10.386112212302844
20
19.614164374415168
30
0
10
-10.752860247748435
20
19.406804323454953
30
0
10
-10.935613343062965
20
19.067915598304602
30
0
10
-10.931984481806538
20
18.611932134115154
30
0
10
-10.792547983417567
20
18.084259508808994
30
0
10
-10.580492385785918
20
17.523891657651959
30
0
10
-10.345002543717776
20
16.938994134913589
30
0
10
-10.123357857112996
20
16.320286698299697
30
0
10
-9.9398581862229847
20
15.64892368784222
30
0
10
-9.8055256868183545
20
14.907647131579353
30
0
10
-9.7188517399863361
20
14.08672401410948
30
0
10
-9.6698986633537256
20
13.181588951859652
30
0
10
-9.64360835244557
20
12.192198085961083
30
0
10
-9.623478436460541
20
11.121694158255963
30
0
10
-9.594971462083846
20
9.9753856434758603
30
0
10
-9.5493331530544356
20
8.7595375806944862
30
0
10
-9.4829367791867707
20
7.4810197236699132
30
0
10
-9.3961888904293041
20
6.1470119221247472
30
0
10
-9.2925936014411334
20
4.7646918433280891
30
0
10
-9.1777450217047214
20
3.3409275015674558
30
0
10
-9.0583623358578311
20
1.8819736345064726
30
0
10
-8.9412792768834954
20
0.39315267236065093
30
0
10
-8.8325172866372075
20
-1.1214254045637246
30
0
10
-8.7361574994535811
20
-2.6592431795219689
30
0
10
-8.6543518467848486
20
-4.21918253645274
30
0
10
-8.5877104892082237
20
-5.8011414853718488
30
0
10
-8.535564599874645
20
-7.4057139726414913
30
0
10
-8.4962813038932001
20
-9.0338432241776143
30
0
10
-8.4675559852464026
20
-10.686486832828441
30
0
10
-8.4467148443654843
20
-12.364275922770588
30
0
10
-8.4310118208496601
20
-14.067178880415964
30
0
10
-8.4179307616670815
20
-15.794158408788178
30
0
10
-8.4054786659912324
20
-17.542842544747643
30
0
10
-8.3925008838748596
20
-19.309159488124291
30
0
10
-8.3785777049779124
20
-21.08766974891347
30
0
10
-8.3638958467438371
20
-22.871940269645371
30
0
10
-8.349129116363633
20
-24.654903042605962
30
0
10
-8.3353150793253796
20
-26.429220834599846
30
0
10
-8.3237337440811068
20
-28.187648533612482
30
0
10
-8.3157847040977249
20
-29.923399437014353
30
0
10
-8.312866525461569
20
-31.630502318237198
30
0
10
-8.3162515001595221
20
-33.304178975112315
30
0
10
-8.3269709570232759
20
-34.941174460025593
30
0
10
-8.3456750935788424
20
-36.540201843447178
30
0
10
-8.3725784676720121
20
-38.102001826958897
30
0
10
-8.4075321497895388
20
-39.628833534119998
30
0
10
-8.4500654498360479
20
-41.124100998714397
30
0
10
-8.4994400571214239
20
-42.591926297956569
30
0
10
-8.5546985686515633
20
-44.036742232807775
30
0
10
-8.6147161169905146
20
-45.462884235419509
30
0
10
-8.6782490593071131
20
-46.874164882232378
30
0
10
-8.7439886665320348
20
-48.273497268344613
30
0
10
-8.8106035415772723
20
-49.662396413712372
30
0
10
-8.876818905199519
20
-51.040886943299967
30
0
10
-8.9415556960432703
20
-52.408066572767211
30
0
10
-9.0040549056872354
20
-53.762514657921095
30
0
10
-9.0640097228656735
20
-55.102768371790354
30
0
10
-9.1216900893455701
20
-56.427757988191338
30
0
10
-9.1780804055603689
20
-57.737287540675311
30
0
10
-9.2349885757420527
20
-59.032431235738123
30
0
10
-9.2952226996150706
20
-60.316121689588805
30
0
10
-9.3625667996867694
20
-61.593171968670958
30
0
10
-9.4410344107152415
20
-62.868260913587633
30
0
10
-9.5342464356480399
20
-64.144272993275052
30
0
10
-9.6447422761415176
20
-65.420439790669107
30
0
10
-9.7733603992497553
20
-66.690701230132078
30
0
10
-9.9184939068031603
20
-67.941658563957674
30
0
10
-10.075622241235321
20
-69.151436310495171
30
0
10
-10.23617195719738
20
-70.286332362478134
30
0
10
-10.388942624197774
20
-71.305925531313036
30
0
10
-10.523654219850815
20
-72.175171152362523
30
0
10
-10.634016354436008
20
-72.874932566685544
30
0
10
-10.720732866122217
20
-73.412271435810325
30
0
10
-10.795144464477133
20
-73.832908629866893
30
0
10
-10.880946194983991
20
-74.227139401781471
30
0
10
-11.001634410413557
20
-74.685751677368131
30
0
10
-11.166093991562526
20
-75.250373206153299
30
0
10
-11.363591637889845
20
-75.893454772309056
30
0
10
-11.578766601754145
20
-76.560057001406165
30
0
10
-11.800595811315922
20
-77.192699405551821
30
0
10
-12.037421085899734
20
-77.770407735089023
30
0
10
-12.314864160037651
20
-78.312466025795331
30
0
10
-12.655891276728134
20
-78.84804948196907
30
0
10
-13.068215218269327
20
-79.397923155758988
30
0
10
-13.522654874951847
20
-79.94416491933535
30
0
10
-13.966083839891185
20
-80.440646116042757
30
0
10
-14.35437321381354
20
-80.845842504796437
30
0
10
-14.675359121146803
20
-81.145381544718759
30
0
10
-14.98539126014361
20
-81.387297256828163
30
0
10
-15.367719310619112
20
-81.64718053536717
30
0
10
-15.870275088897824
20
-81.975149396515377
30
0
10
-16.454617665591126
20
-82.352380708934618
30
0
10
-17.043136442080066
20
-82.725195344653798
30
0
10
-17.559211250970073
20
-83.034226946387392
30
0
10
-17.976920589546289
20
-83.249772841661311
30
0
10
-18.346703977298777
20
-83.391857271159452
30
0
10
-18.737898612678563
20
-83.496029269799905
30
0
10
-19.179315640429056
20
-83.579501483083746
30
0
10
-19.646237506986179
20
-83.6316812442968
30
0
10
-20.103926720947065
20
-83.635951556703134
30
0
10
-20.455839230472755
20
-83.596155400875034
30
0
10
-20.717207045137108
20
-83.54435947576718
30
0
10
-20.891277287161103
20
-83.501307168383192
30
0
10
-20.978200000000001
20
-83.477800000000002
30
0
0
ENDSEC
0
SECTION
2
OBJECTS
0
DICTIONARY
5
C
100
AcDbDictionary
3
ACAD_GROUP
350
D
3
ACAD_MLINESTYLE
350
17
0
DICTIONARY
5
D
100
AcDbDictionary
0
DICTIONARY
5
1A
330
C
100
AcDbDictionary
0
DICTIONARY
5
17
100
AcDbDictionary
0
ENDSEC
0
EOF
