0
SECTION
2
HEADER
9
$INSUNITS
70
4
9
$ACADVER
1
AC1014
9
$HANDSEED
5
FFFF
0
ENDSEC
0
SECTION
2
TABLES
0
TABLE
2
VPORT
5
8
100
AcDbSymbolTable
0
ENDTAB
0
TABLE
2
LTYPE
5
5
100
AcDbSymbolTable
0
LTYPE
5
14
100
AcDbSymbolTableRecord
100
AcDbLinetypeTableRecord
2
BYBLOCK
70
0
0
LTYPE
5
15
100
AcDbSymbolTableRecord
100
AcDbLinetypeTableRecord
2
BYLAYER
70
0
0
LTYPE
5
16
100
AcDbSymbolTableRecord
100
AcDbLinetypeTableRecord
2
DASHED
70
0
3
Dashed __ __ __ __ __ __ __ __ __ __ __ __ __ _
72
65
73
2
40
0.75
49
0.5
74
0
49
-0.25
74
0
0
ENDTAB
0
TABLE
2
LAYER
5
2
100
AcDbSymbolTable
70
2
0
LAYER
5
50
100
AcDbSymbolTableRecord
100
AcDbLayerTableRecord
2
0
70
0
62
7
6
CONTINUOUS
0
ENDTAB
0
TABLE
2
STYLE
5
3
100
AcDbSymbolTable
70
1
0
STYLE
5
11
100
AcDbSymbolTableRecord
100
AcDbTextStyleTableRecord
2
STANDARD
70
0
0
ENDTAB
0
TABLE
2
VIEW
5
6
100
AcDbSymbolTable
70
0
0
ENDTAB
0
TABLE
2
UCS
5
7
100
AcDbSymbolTable
70
0
0
ENDTAB
0
TABLE
2
APPID
5
9
100
AcDbSymbolTable
70
2
0
APPID
5
12
100
AcDbSymbolTableRecord
100
AcDbRegAppTableRecord
2
ACAD
70
0
0
ENDTAB
0
TABLE
2
DIMSTYLE
5
A
100
AcDbSymbolTable
70
1
0
ENDTAB
0
TABLE
2
BLOCK_RECORD
5
1
100
AcDbSymbolTable
70
1
0
BLOCK_RECORD
5
1F
100
AcDbSymbolTableRecord
100
AcDbBlockTableRecord
2
*MODEL_SPACE
0
BLOCK_RECORD
5
1B
100
AcDbSymbolTableRecord
100
AcDbBlockTableRecord
2
*PAPER_SPACE
0
ENDTAB
0
ENDSEC
0
SECTION
2
BLOCKS
0
BLOCK
5
20
100
AcDbEntity
100
AcDbBlockBegin
2
*MODEL_SPACE
0
ENDBLK
5
21
100
AcDbEntity
100
AcDbBlockEnd
0
BLOCK
5
1C
100
AcDbEntity
100
AcDbBlockBegin
2
*PAPER_SPACE
0
ENDBLK
5
1D
100
AcDbEntity
100
AcDbBlockEnd
0
ENDSEC
0
SECTION
2
ENTITIES
0
SPLINE
5
100
100
AcDbEntity
8
0
100
AcDbSpline
70
6
71
5
72
866
73
860
74
0
42
0.000000001
43
0.0000000001
44
0.0000000001
40
0
40
0
40
0
40
0
40
0
40
0
40
0.0011695906432748538
40
0.0023391812865497076
40
0.0035087719298245615
40
0.0046783625730994153
40
0.0058479532163742687
40
0.0070175438596491221
40
0.0081871345029239755
40
0.0093567251461988288
40
0.010526315789473682
40
0.011695906432748536
40
0.012865497076023389
40
0.014035087719298242
40
0.015204678362573096
40
0.016374269005847951
40
0.017543859649122806
40
0.018713450292397661
40
0.019883040935672516
40
0.021052631578947371
40
0.022222222222222227
40
0.023391812865497082
40
0.024561403508771937
40
0.025730994152046792
40
0.026900584795321647
40
0.028070175438596502
40
0.029239766081871357
40
0.030409356725146212
40
0.031578947368421068
40
0.032748538011695923
40
0.033918128654970778
40
0.035087719298245633
40
0.036257309941520488
40
0.037426900584795343
40
0.038596491228070198
40
0.039766081871345053
40
0.040935672514619909
40
0.042105263157894764
40
0.043274853801169619
40
0.044444444444444474
40
0.045614035087719329
40
0.046783625730994184
40
0.047953216374269039
40
0.049122807017543894
40
0.05029239766081875
40
0.051461988304093605
40
0.05263157894736846
40
0.053801169590643315
40
0.05497076023391817
40
0.056140350877193025
40
0.05730994152046788
40
0.058479532163742735
40
0.059649122807017591
40
0.060818713450292446
40
0.061988304093567301
40
0.063157894736842149
40
0.064327485380116997
40
0.065497076023391845
40
0.066666666666666693
40
0.067836257309941542
40
0.06900584795321639
40
0.070175438596491238
40
0.071345029239766086
40
0.072514619883040934
40
0.073684210526315783
40
0.074853801169590631
40
0.076023391812865479
40
0.077192982456140327
40
0.078362573099415175
40
0.079532163742690024
40
0.080701754385964872
40
0.08187134502923972
40
0.083040935672514568
40
0.084210526315789416
40
0.085380116959064264
40
0.086549707602339113
40
0.087719298245613961
40
0.088888888888888809
40
0.090058479532163657
40
0.091228070175438505
40
0.092397660818713354
40
0.093567251461988202
40
0.09473684210526305
40
0.095906432748537898
40
0.097076023391812746
40
0.098245614035087594
40
0.099415204678362443
40
0.10058479532163729
40
0.10175438596491214
40
0.10292397660818699
40
0.10409356725146184
40
0.10526315789473668
40
0.10643274853801153
40
0.10760233918128638
40
0.10877192982456123
40
0.10994152046783608
40
0.11111111111111092
40
0.11228070175438577
40
0.11345029239766062
40
0.11461988304093547
40
0.11578947368421032
40
0.11695906432748517
40
0.11812865497076001
40
0.11929824561403486
40
0.12046783625730971
40
0.12163742690058456
40
0.12280701754385941
40
0.12397660818713425
40
0.12514619883040912
40
0.12631578947368396
40
0.12748538011695881
40
0.12865497076023366
40
0.12982456140350851
40
0.13099415204678336
40
0.13216374269005821
40
0.13333333333333305
40
0.1345029239766079
40
0.13567251461988275
40
0.1368421052631576
40
0.13801169590643245
40
0.13918128654970729
40
0.14035087719298214
40
0.14152046783625699
40
0.14269005847953184
40
0.14385964912280669
40
0.14502923976608154
40
0.14619883040935638
40
0.14736842105263123
40
0.14853801169590608
40
0.14970760233918093
40
0.15087719298245578
40
0.15204678362573062
40
0.15321637426900547
40
0.15438596491228032
40
0.15555555555555517
40
0.15672514619883002
40
0.15789473684210487
40
0.15906432748537971
40
0.16023391812865456
40
0.16140350877192941
40
0.16257309941520426
40
0.16374269005847911
40
0.16491228070175395
40
0.1660818713450288
40
0.16725146198830365
40
0.1684210526315785
40
0.16959064327485335
40
0.1707602339181282
40
0.17192982456140304
40
0.17309941520467789
40
0.17426900584795274
40
0.17543859649122759
40
0.17660818713450244
40
0.17777777777777728
40
0.17894736842105213
40
0.18011695906432698
40
0.18128654970760183
40
0.18245614035087668
40
0.18362573099415153
40
0.18479532163742637
40
0.18596491228070122
40
0.18713450292397607
40
0.18830409356725092
40
0.18947368421052577
40
0.19064327485380061
40
0.19181286549707546
40
0.19298245614035031
40
0.19415204678362516
40
0.19532163742690001
40
0.19649122807017486
40
0.1976608187134497
40
0.19883040935672455
40
0.1999999999999994
40
0.20116959064327425
40
0.2023391812865491
40
0.20350877192982395
40
0.20467836257309879
40
0.20584795321637364
40
0.20701754385964849
40
0.20818713450292334
40
0.20935672514619819
40
0.21052631578947303
40
0.21169590643274788
40
0.21286549707602273
40
0.21403508771929758
40
0.21520467836257243
40
0.21637426900584728
40
0.21754385964912212
40
0.21871345029239697
40
0.21988304093567182
40
0.22105263157894667
40
0.22222222222222152
40
0.22339181286549636
40
0.22456140350877121
40
0.22573099415204606
40
0.22690058479532091
40
0.22807017543859576
40
0.22923976608187061
40
0.23040935672514545
40
0.2315789473684203
40
0.23274853801169515
40
0.23391812865497
40
0.23508771929824485
40
0.23625730994151969
40
0.23742690058479454
40
0.23859649122806939
40
0.23976608187134424
40
0.24093567251461909
40
0.24210526315789394
40
0.24327485380116878
40
0.24444444444444363
40
0.24561403508771848
40
0.24678362573099333
40
0.24795321637426818
40
0.24912280701754302
40
0.2502923976608179
40
0.25146198830409278
40
0.25263157894736765
40
0.25380116959064253
40
0.2549707602339174
40
0.25614035087719228
40
0.25730994152046716
40
0.25847953216374203
40
0.25964912280701691
40
0.26081871345029178
40
0.26198830409356666
40
0.26315789473684154
40
0.26432748538011641
40
0.26549707602339129
40
0.26666666666666616
40
0.26783625730994104
40
0.26900584795321592
40
0.27017543859649079
40
0.27134502923976567
40
0.27251461988304054
40
0.27368421052631542
40
0.27485380116959029
40
0.27602339181286517
40
0.27719298245614005
40
0.27836257309941492
40
0.2795321637426898
40
0.28070175438596467
40
0.28187134502923955
40
0.28304093567251443
40
0.2842105263157893
40
0.28538011695906418
40
0.28654970760233905
40
0.28771929824561393
40
0.28888888888888881
40
0.29005847953216368
40
0.29122807017543856
40
0.29239766081871343
40
0.29356725146198831
40
0.29473684210526319
40
0.29590643274853806
40
0.29707602339181294
40
0.29824561403508781
40
0.29941520467836269
40
0.30058479532163757
40
0.30175438596491244
40
0.30292397660818732
40
0.30409356725146219
40
0.30526315789473707
40
0.30643274853801195
40
0.30760233918128682
40
0.3087719298245617
40
0.30994152046783657
40
0.31111111111111145
40
0.31228070175438633
40
0.3134502923976612
40
0.31461988304093608
40
0.31578947368421095
40
0.31695906432748583
40
0.3181286549707607
40
0.31929824561403558
40
0.32046783625731046
40
0.32163742690058533
40
0.32280701754386021
40
0.32397660818713508
40
0.32514619883040996
40
0.32631578947368484
40
0.32748538011695971
40
0.32865497076023459
40
0.32982456140350946
40
0.33099415204678434
40
0.33216374269005922
40
0.33333333333333409
40
0.33450292397660897
40
0.33567251461988384
40
0.33684210526315872
40
0.3380116959064336
40
0.33918128654970847
40
0.34035087719298335
40
0.34152046783625822
40
0.3426900584795331
40
0.34385964912280798
40
0.34502923976608285
40
0.34619883040935773
40
0.3473684210526326
40
0.34853801169590748
40
0.34970760233918236
40
0.35087719298245723
40
0.35204678362573211
40
0.35321637426900698
40
0.35438596491228186
40
0.35555555555555673
40
0.35672514619883161
40
0.35789473684210649
40
0.35906432748538136
40
0.36023391812865624
40
0.36140350877193111
40
0.36257309941520599
40
0.36374269005848087
40
0.36491228070175574
40
0.36608187134503062
40
0.36725146198830549
40
0.36842105263158037
40
0.36959064327485525
40
0.37076023391813012
40
0.371929824561405
40
0.37309941520467987
40
0.37426900584795475
40
0.37543859649122963
40
0.3766081871345045
40
0.37777777777777938
40
0.37894736842105425
40
0.38011695906432913
40
0.38128654970760401
40
0.38245614035087888
40
0.38362573099415376
40
0.38479532163742863
40
0.38596491228070351
40
0.38713450292397839
40
0.38830409356725326
40
0.38947368421052814
40
0.39064327485380301
40
0.39181286549707789
40
0.39298245614035276
40
0.39415204678362764
40
0.39532163742690252
40
0.39649122807017739
40
0.39766081871345227
40
0.39883040935672714
40
0.40000000000000202
40
0.4011695906432769
40
0.40233918128655177
40
0.40350877192982665
40
0.40467836257310152
40
0.4058479532163764
40
0.40701754385965128
40
0.40818713450292615
40
0.40935672514620103
40
0.4105263157894759
40
0.41169590643275078
40
0.41286549707602566
40
0.41403508771930053
40
0.41520467836257541
40
0.41637426900585028
40
0.41754385964912516
40
0.41871345029240004
40
0.41988304093567491
40
0.42105263157894979
40
0.42222222222222466
40
0.42339181286549954
40
0.42456140350877442
40
0.42573099415204929
40
0.42690058479532417
40
0.42807017543859904
40
0.42923976608187392
40
0.4304093567251488
40
0.43157894736842367
40
0.43274853801169855
40
0.43391812865497342
40
0.4350877192982483
40
0.43625730994152317
40
0.43742690058479805
40
0.43859649122807293
40
0.4397660818713478
40
0.44093567251462268
40
0.44210526315789755
40
0.44327485380117243
40
0.44444444444444731
40
0.44561403508772218
40
0.44678362573099706
40
0.44795321637427193
40
0.44912280701754681
40
0.45029239766082169
40
0.45146198830409656
40
0.45263157894737144
40
0.45380116959064631
40
0.45497076023392119
40
0.45614035087719607
40
0.45730994152047094
40
0.45847953216374582
40
0.45964912280702069
40
0.46081871345029557
40
0.46198830409357045
40
0.46315789473684532
40
0.4643274853801202
40
0.46549707602339507
40
0.46666666666666995
40
0.46783625730994483
40
0.4690058479532197
40
0.47017543859649458
40
0.47134502923976945
40
0.47251461988304433
40
0.4736842105263192
40
0.47485380116959408
40
0.47602339181286896
40
0.47719298245614383
40
0.47836257309941871
40
0.47953216374269358
40
0.48070175438596846
40
0.48187134502924334
40
0.48304093567251821
40
0.48421052631579309
40
0.48538011695906796
40
0.48654970760234284
40
0.48771929824561772
40
0.48888888888889259
40
0.49005847953216747
40
0.49122807017544234
40
0.49239766081871722
40
0.4935672514619921
40
0.49473684210526697
40
0.49590643274854185
40
0.49707602339181672
40
0.4982456140350916
40
0.49941520467836648
40
0.50058479532164135
40
0.50175438596491617
40
0.50292397660819099
40
0.50409356725146581
40
0.50526315789474063
40
0.50643274853801545
40
0.50760233918129027
40
0.50877192982456509
40
0.50994152046783991
40
0.51111111111111474
40
0.51228070175438956
40
0.51345029239766438
40
0.5146198830409392
40
0.51578947368421402
40
0.51695906432748884
40
0.51812865497076366
40
0.51929824561403848
40
0.5204678362573133
40
0.52163742690058812
40
0.52280701754386294
40
0.52397660818713776
40
0.52514619883041258
40
0.5263157894736874
40
0.52748538011696222
40
0.52865497076023704
40
0.52982456140351186
40
0.53099415204678668
40
0.5321637426900615
40
0.53333333333333632
40
0.53450292397661114
40
0.53567251461988596
40
0.53684210526316078
40
0.53801169590643561
40
0.53918128654971043
40
0.54035087719298525
40
0.54152046783626007
40
0.54269005847953489
40
0.54385964912280971
40
0.54502923976608453
40
0.54619883040935935
40
0.54736842105263417
40
0.54853801169590899
40
0.54970760233918381
40
0.55087719298245863
40
0.55204678362573345
40
0.55321637426900827
40
0.55438596491228309
40
0.55555555555555791
40
0.55672514619883273
40
0.55789473684210755
40
0.55906432748538237
40
0.56023391812865719
40
0.56140350877193201
40
0.56257309941520683
40
0.56374269005848165
40
0.56491228070175648
40
0.5660818713450313
40
0.56725146198830612
40
0.56842105263158094
40
0.56959064327485576
40
0.57076023391813058
40
0.5719298245614054
40
0.57309941520468022
40
0.57426900584795504
40
0.57543859649122986
40
0.57660818713450468
40
0.5777777777777795
40
0.57894736842105432
40
0.58011695906432914
40
0.58128654970760396
40
0.58245614035087878
40
0.5836257309941536
40
0.58479532163742842
40
0.58596491228070324
40
0.58713450292397806
40
0.58830409356725288
40
0.5894736842105277
40
0.59064327485380252
40
0.59181286549707735
40
0.59298245614035217
40
0.59415204678362699
40
0.59532163742690181
40
0.59649122807017663
40
0.59766081871345145
40
0.59883040935672627
40
0.60000000000000109
40
0.60116959064327591
40
0.60233918128655073
40
0.60350877192982555
40
0.60467836257310037
40
0.60584795321637519
40
0.60701754385965001
40
0.60818713450292483
40
0.60935672514619965
40
0.61052631578947447
40
0.61169590643274929
40
0.61286549707602411
40
0.61403508771929893
40
0.61520467836257375
40
0.61637426900584857
40
0.61754385964912339
40
0.61871345029239821
40
0.61988304093567304
40
0.62105263157894786
40
0.62222222222222268
40
0.6233918128654975
40
0.62456140350877232
40
0.62573099415204714
40
0.62690058479532196
40
0.62807017543859678
40
0.6292397660818716
40
0.63040935672514642
40
0.63157894736842124
40
0.63274853801169606
40
0.63391812865497088
40
0.6350877192982457
40
0.63625730994152052
40
0.63742690058479534
40
0.63859649122807016
40
0.63976608187134498
40
0.6409356725146198
40
0.64210526315789462
40
0.64327485380116944
40
0.64444444444444426
40
0.64561403508771908
40
0.64678362573099391
40
0.64795321637426873
40
0.64912280701754355
40
0.65029239766081837
40
0.65146198830409319
40
0.65263157894736801
40
0.65380116959064283
40
0.65497076023391765
40
0.65614035087719247
40
0.65730994152046729
40
0.65847953216374211
40
0.65964912280701693
40
0.66081871345029175
40
0.66198830409356657
40
0.66315789473684139
40
0.66432748538011621
40
0.66549707602339103
40
0.66666666666666585
40
0.66783625730994067
40
0.66900584795321549
40
0.67017543859649031
40
0.67134502923976513
40
0.67251461988303995
40
0.67368421052631478
40
0.6748538011695896
40
0.67602339181286442
40
0.67719298245613924
40
0.67836257309941406
40
0.67953216374268888
40
0.6807017543859637
40
0.68187134502923852
40
0.68304093567251334
40
0.68421052631578816
40
0.68538011695906298
40
0.6865497076023378
40
0.68771929824561262
40
0.68888888888888744
40
0.69005847953216226
40
0.69122807017543708
40
0.6923976608187119
40
0.69356725146198672
40
0.69473684210526154
40
0.69590643274853636
40
0.69707602339181118
40
0.698245614035086
40
0.69941520467836082
40
0.70058479532163564
40
0.70175438596491047
40
0.70292397660818529
40
0.70409356725146011
40
0.70526315789473493
40
0.70643274853800975
40
0.70760233918128457
40
0.70877192982455939
40
0.70994152046783421
40
0.71111111111110903
40
0.71228070175438385
40
0.71345029239765867
40
0.71461988304093349
40
0.71578947368420831
40
0.71695906432748313
40
0.71812865497075795
40
0.71929824561403277
40
0.72046783625730759
40
0.72163742690058241
40
0.72280701754385723
40
0.72397660818713205
40
0.72514619883040687
40
0.72631578947368169
40
0.72748538011695651
40
0.72865497076023134
40
0.72982456140350616
40
0.73099415204678098
40
0.7321637426900558
40
0.73333333333333062
40
0.73450292397660544
40
0.73567251461988026
40
0.73684210526315508
40
0.7380116959064299
40
0.73918128654970472
40
0.74035087719297954
40
0.74152046783625436
40
0.74269005847952918
40
0.743859649122804
40
0.74502923976607882
40
0.74619883040935364
40
0.74736842105262846
40
0.74853801169590328
40
0.7497076023391781
40
0.75087719298245292
40
0.75204678362572774
40
0.75321637426900256
40
0.75438596491227738
40
0.75555555555555221
40
0.75672514619882703
40
0.75789473684210185
40
0.75906432748537667
40
0.76023391812865149
40
0.76140350877192631
40
0.76257309941520113
40
0.76374269005847595
40
0.76491228070175077
40
0.76608187134502559
40
0.76725146198830041
40
0.76842105263157523
40
0.76959064327485005
40
0.77076023391812487
40
0.77192982456139969
40
0.77309941520467451
40
0.77426900584794933
40
0.77543859649122415
40
0.77660818713449897
40
0.77777777777777379
40
0.77894736842104861
40
0.78011695906432343
40
0.78128654970759825
40
0.78245614035087308
40
0.7836257309941479
40
0.78479532163742272
40
0.78596491228069754
40
0.78713450292397236
40
0.78830409356724718
40
0.789473684210522
40
0.79064327485379682
40
0.79181286549707164
40
0.79298245614034646
40
0.79415204678362128
40
0.7953216374268961
40
0.79649122807017092
40
0.79766081871344574
40
0.79883040935672056
40
0.79999999999999538
40
0.8011695906432702
40
0.80233918128654502
40
0.80350877192981984
40
0.80467836257309466
40
0.80584795321636948
40
0.8070175438596443
40
0.80818713450291912
40
0.80935672514619394
40
0.81052631578946877
40
0.81169590643274359
40
0.81286549707601841
40
0.81403508771929323
40
0.81520467836256805
40
0.81637426900584287
40
0.81754385964911769
40
0.81871345029239251
40
0.81988304093566733
40
0.82105263157894215
40
0.82222222222221697
40
0.82339181286549179
40
0.82456140350876661
40
0.82573099415204143
40
0.82690058479531625
40
0.82807017543859107
40
0.82923976608186589
40
0.83040935672514071
40
0.83157894736841553
40
0.83274853801169035
40
0.83391812865496517
40
0.83508771929823999
40
0.83625730994151481
40
0.83742690058478964
40
0.83859649122806446
40
0.83976608187133928
40
0.8409356725146141
40
0.84210526315788892
40
0.84327485380116374
40
0.84444444444443856
40
0.84561403508771338
40
0.8467836257309882
40
0.84795321637426302
40
0.84912280701753784
40
0.85029239766081266
40
0.85146198830408748
40
0.8526315789473623
40
0.85380116959063712
40
0.85497076023391194
40
0.85614035087718676
40
0.85730994152046158
40
0.8584795321637364
40
0.85964912280701122
40
0.86081871345028604
40
0.86198830409356086
40
0.86315789473683568
40
0.86432748538011051
40
0.86549707602338533
40
0.86666666666666015
40
0.86783625730993497
40
0.86900584795320979
40
0.87017543859648461
40
0.87134502923975943
40
0.87251461988303425
40
0.87368421052630907
40
0.87485380116958389
40
0.87602339181285871
40
0.87719298245613353
40
0.87836257309940835
40
0.87953216374268317
40
0.88070175438595799
40
0.88187134502923281
40
0.88304093567250763
40
0.88421052631578245
40
0.88538011695905727
40
0.88654970760233209
40
0.88771929824560691
40
0.88888888888888173
40
0.89005847953215655
40
0.89122807017543137
40
0.8923976608187062
40
0.89356725146198102
40
0.89473684210525584
40
0.89590643274853066
40
0.89707602339180548
40
0.8982456140350803
40
0.89941520467835512
40
0.90058479532162994
40
0.90175438596490476
40
0.90292397660817958
40
0.9040935672514544
40
0.90526315789472922
40
0.90643274853800404
40
0.90760233918127886
40
0.90877192982455368
40
0.9099415204678285
40
0.91111111111110332
40
0.91228070175437814
40
0.91345029239765296
40
0.91461988304092778
40
0.9157894736842026
40
0.91695906432747742
40
0.91812865497075224
40
0.91929824561402707
40
0.92046783625730189
40
0.92163742690057671
40
0.92280701754385153
40
0.92397660818712635
40
0.92514619883040117
40
0.92631578947367599
40
0.92748538011695081
40
0.92865497076022563
40
0.92982456140350045
40
0.93099415204677527
40
0.93216374269005009
40
0.93333333333332491
40
0.93450292397659973
40
0.93567251461987455
40
0.93684210526314937
40
0.93801169590642419
40
0.93918128654969901
40
0.94035087719297383
40
0.94152046783624865
40
0.94269005847952347
40
0.94385964912279829
40
0.94502923976607311
40
0.94619883040934794
40
0.94736842105262276
40
0.94853801169589758
40
0.9497076023391724
40
0.95087719298244722
40
0.95204678362572204
40
0.95321637426899686
40
0.95438596491227168
40
0.9555555555555465
40
0.95672514619882132
40
0.95789473684209614
40
0.95906432748537096
40
0.96023391812864578
40
0.9614035087719206
40
0.96257309941519542
40
0.96374269005847024
40
0.96491228070174506
40
0.96608187134501988
40
0.9672514619882947
40
0.96842105263156952
40
0.96959064327484434
40
0.97076023391811916
40
0.97192982456139398
40
0.97309941520466881
40
0.97426900584794363
40
0.97543859649121845
40
0.97660818713449327
40
0.97777777777776809
40
0.97894736842104291
40
0.98011695906431773
40
0.98128654970759255
40
0.98245614035086737
40
0.98362573099414219
40
0.98479532163741701
40
0.98596491228069183
40
0.98713450292396665
40
0.98830409356724147
40
0.98947368421051629
40
0.99064327485379111
40
0.99181286549706593
40
0.99298245614034075
40
0.99415204678361557
40
0.99532163742689039
40
0.99649122807016521
40
0.99766081871344003
40
0.99883040935671485
40
1
40
1
40
1
40
1
40
1
40
1
41
1
41
1
41
1
41
1
41
1
41
1
41
1
41
1
41
1
41
1
41
1
41
1
41
1
41
1
41
1
41
1
41
1
41
1
41
1
41
1
41
1
41
1
41
1
41
1
41
1
41
1
41
1
41
1
41
1
41
1
41
1
41
1
41
1
41
1
41
1
41
1
41
1
41
1
41
1
41
1
41
1
41
1
41
1
41
1
41
1
41
1
41
1
41
1
41
1
41
1
41
1
41
1
41
1
41
1
41
1
41
1
41
1
41
1
41
1
41
1
41
1
41
1
41
1
41
1
41
1
41
1
41
1
41
1
41
1
41
1
41
1
41
1
41
1
41
1
41
1
41
1
41
1
41
1
41
1
41
1
41
1
41
1
41
1
41
1
41
1
41
1
41
1
41
1
41
1
41
1
41
1
41
1
41
1
41
1
41
1
41
1
41
1
41
1
41
1
41
1
41
1
41
1
41
1
41
1
41
1
41
1
41
1
41
1
41
1
41
1
41
1
41
1
41
1
41
1
41
1
41
1
41
1
41
1
41
1
41
1
41
1
41
1
41
1
41
1
41
1
41
1
41
1
41
1
41
1
41
1
41
1
41
1
41
1
41
1
41
1
41
1
41
1
41
1
41
1
41
1
41
1
41
1
41
1
41
1
41
1
41
1
41
1
41
1
41
1
41
1
41
1
41
1
41
1
41
1
41
1
41
1
41
1
41
1
41
1
41
1
41
1
41
1
41
1
41
1
41
1
41
1
41
1
41
1
41
1
41
1
41
1
41
1
41
1
41
1
41
1
41
1
41
1
41
1
41
1
41
1
41
1
41
1
41
1
41
1
41
1
41
1
41
1
41
1
41
1
41
1
41
1
41
1
41
1
41
1
41
1
41
1
41
1
41
1
41
1
41
1
41
1
41
1
41
1
41
1
41
1
41
1
41
1
41
1
41
1
41
1
41
1
41
1
41
1
41
1
41
1
41
1
41
1
41
1
41
1
41
1
41
1
41
1
41
1
41
1
41
1
41
1
41
1
41
1
41
1
41
1
41
1
41
1
41
1
41
1
41
1
41
1
41
1
41
1
41
1
41
1
41
1
41
1
41
1
41
1
41
1
41
1
41
1
41
1
41
1
41
1
41
1
41
1
41
1
41
1
41
1
41
1
41
1
41
1
41
1
41
1
41
1
41
1
41
1
41
1
41
1
41
1
41
1
41
1
41
1
41
1
41
1
41
1
41
1
41
1
41
1
41
1
41
1
41
1
41
1
41
1
41
1
41
1
41
1
41
1
41
1
41
1
41
1
41
1
41
1
41
1
41
1
41
1
41
1
41
1
41
1
41
1
41
1
41
1
41
1
41
1
41
1
41
1
41
1
41
1
41
1
41
1
41
1
41
1
41
1
41
1
41
1
41
1
41
1
41
1
41
1
41
1
41
1
41
1
41
1
41
1
41
1
41
1
41
1
41
1
41
1
41
1
41
1
41
1
41
1
41
1
41
1
41
1
41
1
41
1
41
1
41
1
41
1
41
1
41
1
41
1
41
1
41
1
41
1
41
1
41
1
41
1
41
1
41
1
41
1
41
1
41
1
41
1
41
1
41
1
41
1
41
1
41
1
41
1
41
1
41
1
41
1
41
1
41
1
41
1
41
1
41
1
41
1
41
1
41
1
41
1
41
1
41
1
41
1
41
1
41
1
41
1
41
1
41
1
41
1
41
1
41
1
41
1
41
1
41
1
41
1
41
1
41
1
41
1
41
1
41
1
41
1
41
1
41
1
41
1
41
1
41
1
41
1
41
1
41
1
41
1
41
1
41
1
41
1
41
1
41
1
41
1
41
1
41
1
41
1
41
1
41
1
41
1
41
1
41
1
41
1
41
1
41
1
41
1
41
1
41
1
41
1
41
1
41
1
41
1
41
1
41
1
41
1
41
1
41
1
41
1
41
1
41
1
41
1
41
1
41
1
41
1
41
1
41
1
41
1
41
1
41
1
41
1
41
1
41
1
41
1
41
1
41
1
41
1
41
1
41
1
41
1
41
1
41
1
41
1
41
1
41
1
41
1
41
1
41
1
41
1
41
1
41
1
41
1
41
1
41
1
41
1
41
1
41
1
41
1
41
1
41
1
41
1
41
1
41
1
41
1
41
1
41
1
41
1
41
1
41
1
41
1
41
1
41
1
41
1
41
1
41
1
41
1
41
1
41
1
41
1
41
1
41
1
41
1
41
1
41
1
41
1
41
1
41
1
41
1
41
1
41
1
41
1
41
1
41
1
41
1
41
1
41
1
41
1
41
1
41
1
41
1
41
1
41
1
41
1
41
1
41
1
41
1
41
1
41
1
41
1
41
1
41
1
41
1
41
1
41
1
41
1
41
1
41
1
41
1
41
1
41
1
41
1
41
1
41
1
41
1
41
1
41
1
41
1
41
1
41
1
41
1
41
1
41
1
41
1
41
1
41
1
41
1
41
1
41
1
41
1
41
1
41
1
41
1
41
1
41
1
41
1
41
1
41
1
41
1
41
1
41
1
41
1
41
1
41
1
41
1
41
1
41
1
41
1
41
1
41
1
41
1
41
1
41
1
41
1
41
1
41
1
41
1
41
1
41
1
41
1
41
1
41
1
41
1
41
1
41
1
41
1
41
1
41
1
41
1
41
1
41
1
41
1
41
1
41
1
41
1
41
1
41
1
41
1
41
1
41
1
41
1
41
1
41
1
41
1
41
1
41
1
41
1
41
1
41
1
41
1
41
1
41
1
41
1
41
1
41
1
41
1
41
1
41
1
41
1
41
1
41
1
41
1
41
1
41
1
41
1
41
1
41
1
41
1
41
1
41
1
41
1
41
1
41
1
41
1
41
1
41
1
41
1
41
1
41
1
41
1
41
1
41
1
41
1
41
1
41
1
41
1
41
1
41
1
41
1
41
1
41
1
41
1
41
1
41
1
41
1
41
1
41
1
41
1
41
1
41
1
41
1
41
1
41
1
41
1
41
1
41
1
41
1
41
1
41
1
41
1
41
1
41
1
41
1
41
1
41
1
41
1
41
1
41
1
41
1
41
1
41
1
41
1
41
1
41
1
41
1
41
1
41
1
41
1
41
1
41
1
41
1
41
1
41
1
41
1
41
1
41
1
41
1
41
1
41
1
41
1
41
1
41
1
41
1
41
1
41
1
41
1
41
1
41
1
41
1
41
1
41
1
41
1
41
1
41
1
41
1
41
1
41
1
41
1
41
1
41
1
41
1
41
1
41
1
41
1
41
1
41
1
41
1
41
1
41
1
41
1
41
1
41
1
41
1
41
1
41
1
41
1
41
1
41
1
41
1
41
1
41
1
41
1
41
1
41
1
41
1
41
1
41
1
41
1
41
1
41
1
41
1
41
1
41
1
41
1
41
1
41
1
41
1
41
1
41
1
41
1
41
1
41
1
41
1
41
1
41
1
41
1
41
1
41
1
41
1
41
1
41
1
41
1
41
1
41
1
41
1
41
1
41
1
41
1
41
1
41
1
41
1
41
1
41
1
41
1
41
1
41
1
41
1
41
1
41
1
41
1
41
1
41
1
41
1
41
1
41
1
41
1
41
1
41
1
41
1
41
1
41
1
41
1
41
1
41
1
41
1
41
1
41
1
41
1
41
1
41
1
41
1
41
1
41
1
41
1
41
1
41
1
41
1
41
1
41
1
41
1
41
1
41
1
41
1
41
1
41
1
41
1
41
1
41
1
41
1
41
1
41
1
41
1
41
1
41
1
41
1
41
1
41
1
41
1
41
1
41
1
41
1
41
1
41
1
41
1
41
1
41
1
41
1
41
1
41
1
41
1
41
1
41
1
41
1
41
1
41
1
41
1
41
1
41
1
41
1
41
1
10
-40.327199999999991
20
-66.771199999999993
30
0
10
-40.381751639763912
20
-66.757687656180678
30
0
10
-40.489246383157763
20
-66.729340641668912
30
0
10
-40.647207913755565
20
-66.682253174655457
30
0
10
-40.861645628311265
20
-66.605726237242905
30
0
10
-41.166110574748032
20
-66.473264237504011
30
0
10
-41.525737778248065
20
-66.295538300097249
30
0
10
-41.928677860361255
20
-66.079347740609506
30
0
10
-42.341512316120202
20
-65.842230061253119
30
0
10
-42.725384927850513
20
-65.604370984600308
30
0
10
-43.048399326583755
20
-65.382355785262646
30
0
10
-43.302593988406926
20
-65.180712330354893
30
0
10
-43.509243817858973
20
-64.989037780535938
30
0
10
-43.698362400768431
20
-64.791524402246608
30
0
10
-43.892269077175683
20
-64.574435463749296
30
0
10
-44.090109622115527
20
-64.333430801830289
30
0
10
-44.280044069987817
20
-64.071064754418941
30
0
10
-44.448364559577399
20
-63.79510002141275
30
0
10
-44.590620339129543
20
-63.51691102361103
30
0
10
-44.708799183971671
20
-63.245379957913812
30
0
10
-44.807829994995181
20
-62.981443679362599
30
0
10
-44.891787586698506
20
-62.710098568718315
30
0
10
-44.963295925703719
20
-62.406446414652599
30
0
10
-45.024183735652876
20
-62.045848793983502
30
0
10
-45.075774564976918
20
-61.614747372595289
30
0
10
-45.11913210755894
20
-61.113296417440715
30
0
10
-45.155033393203787
20
-60.549851224994249
30
0
10
-45.184029563630475
20
-59.937774428856265
30
0
10
-45.206470075052252
20
-59.29130172492782
30
0
10
-45.222542571452834
20
-58.621781821295762
30
0
10
-45.232306087678111
20
-57.933835983880719
30
0
10
-45.235733439958999
20
-57.226955162129229
30
0
10
-45.232752140041029
20
-56.496969233439465
30
0
10
-45.223286157397183
20
-55.737572055730098
30
0
10
-45.207296807526134
20
-54.941808548923781
30
0
10
-45.184825199003797
20
-54.103610969120346
30
0
10
-45.156031254758588
20
-53.219237416018153
30
0
10
-45.12124082987679
20
-52.288936487758527
30
0
10
-45.080968766413953
20
-51.317942576991044
30
0
10
-45.035858790594631
20
-50.315160034079724
30
0
10
-44.986636934688079
20
-49.292222963849653
30
0
10
-44.934059605921341
20
-48.262406755703125
30
0
10
-44.878864037697028
20
-47.239604700665524
30
0
10
-44.821717485846392
20
-46.237272341660727
30
0
10
-44.763167499126126
20
-45.267395648839369
30
0
10
-44.703590484541195
20
-44.339425846613821
30
0
10
-44.64314389801374
20
-43.45928234501951
30
0
10
-44.581709945939075
20
-42.628197577026143
30
0
10
-44.518863882666906
20
-41.842019125867921
30
0
10
-44.453956241078352
20
-41.092628918108588
30
0
10
-44.386179303564361
20
-40.369069966610276
30
0
10
-44.314640135638335
20
-39.658794144980767
30
0
10
-44.238429834189603
20
-38.948841748663313
30
0
10
-44.156696696316061
20
-38.227088967719091
30
0
10
-44.068712349162844
20
-37.483376080948524
30
0
10
-43.973953980079585
20
-36.710906920992393
30
0
10
-43.872133287748653
20
-35.906751671974355
30
0
10
-43.763144709767879
20
-35.070991300414541
30
0
10
-43.647032753838332
20
-34.206183587625802
30
0
10
-43.523951730644079
20
-33.316700924116581
30
0
10
-43.394128486532296
20
-32.40811948489204
30
0
10
-43.257824428586879
20
-31.486594391189932
30
0
10
-43.11529650175018
20
-30.558222136332816
30
0
10
-42.966761776417783
20
-29.628452337482152
30
0
10
-42.812352754285847
20
-28.701371016437292
30
0
10
-42.65210443126562
20
-27.779424426315991
30
0
10
-42.485987053567285
20
-26.863776941729544
30
0
10
-42.313927790639468
20
-25.954515239563673
30
0
10
-42.135836915081548
20
-25.05091476588705
30
0
10
-41.951631993969343
20
-24.151679208881479
30
0
10
-41.761263075894291
20
-23.25519237163164
30
0
10
-41.564737124305601
20
-22.359762866043642
30
0
10
-41.362143532338614
20
-21.46387616771532
30
0
10
-41.153677389090731
20
-20.566433431357567
30
0
10
-40.939668476542437
20
-19.667022900802863
30
0
10
-40.720548319651336
20
-18.765841019192358
30
0
10
-40.49680972399657
20
-17.863570869837865
30
0
10
-40.268968867506921
20
-16.961275579066466
30
0
10
-40.037526574034565
20
-16.060285855637986
30
0
10
-39.802929342013968
20
-15.162089039230294
30
0
10
-39.565531862703857
20
-14.268219852778801
30
0
10
-39.32555567936538
20
-13.380144958013897
30
0
10
-39.083057012393418
20
-12.499162926926779
30
0
10
-38.837872409506588
20
-11.62626661556792
30
0
10
-38.589635636464308
20
-10.762126522468607
30
0
10
-38.337929828096925
20
-9.9073040231234728
30
0
10
-38.082410862979458
20
-9.0624155753926328
30
0
10
-37.822940958912035
20
-8.2283146001922738
30
0
10
-37.559720896071596
20
-7.4062703126470897
30
0
10
-37.293415890403026
20
-6.5981374278512153
30
0
10
-37.025300335120349
20
-5.8065540570344361
30
0
10
-36.757356785633007
20
-5.0350708731349982
30
0
10
-36.492486161914002
20
-4.2884474886727162
30
0
10
-36.234357270499878
20
-3.5724064741075754
30
0
10
-35.986611644603514
20
-2.8924180632178871
30
0
10
-35.752205508237452
20
-2.2526908707240851
30
0
10
-35.532709955106576
20
-1.6551001869889606
30
0
10
-35.327598601836897
20
-1.0980964835200187
30
0
10
-35.1336113092338
20
-0.57573051846067158
30
0
10
-34.94391500777833
20
-0.076368038356198417
30
0
10
-34.747887410466632
20
0.41764288371667541
30
0
10
-34.5328202089214
20
0.92736875433583121
30
0
10
-34.285295093842116
20
1.4751882350585936
30
0
10
-33.992678039065979
20
2.0825081646945751
30
0
10
-33.64458760608052
20
2.7675209111147376
30
0
10
-33.234316836652972
20
3.5430289511658595
30
0
10
-32.760429451419981
20
4.4140127079029927
30
0
10
-32.226166817163886
20
5.3784296767966584
30
0
10
-31.638613825315616
20
6.428369513551023
30
0
10
-31.007951038870264
20
7.5510817610044647
30
0
10
-30.346670372708232
20
8.7300573630569342
30
0
10
-29.66880672811093
20
9.9460867538585589
30
0
10
-28.989162170162327
20
11.178328639926695
30
0
10
-28.322534732936614
20
12.405372678377599
30
0
10
-27.682941965539523
20
13.606308214856295
30
0
10
-27.082854329133585
20
14.761782424405931
30
0
10
-26.532406702630045
20
15.855081588446826
30
0
10
-26.038660383925929
20
16.873159189471842
30
0
10
-25.60474492391895
20
17.807790479174507
30
0
10
-25.229349473402397
20
18.656359501741889
30
0
10
-24.907816000832298
20
19.420968503728325
30
0
10
-24.633009453193978
20
20.107775906969486
30
0
10
-24.396280619763417
20
20.726249544891292
30
0
10
-24.188375975001883
20
21.288446543814526
30
0
10
-24.000401651169195
20
21.808303763641508
30
0
10
-23.824690972865707
20
22.300872373003493
30
0
10
-23.655892183668339
20
22.781702055018265
30
0
10
-23.491326043624483
20
23.265710778074773
30
0
10
-23.330244779369377
20
23.765245310713695
30
0
10
-23.173355875267312
20
24.288375979668185
30
0
10
-23.022232028220856
20
24.837008184982405
30
0
10
-22.878785963965601
20
25.405278491154792
30
0
10
-22.744674220265757
20
25.977280931852142
30
0
10
-22.621310433481419
20
26.532199970087696
30
0
10
-22.509936565527088
20
27.050056693335023
30
0
10
-22.41168241326281
20
27.517609547769904
30
0
10
-22.327610435289117
20
27.933347887670994
30
0
10
-22.258814433218554
20
28.314917619730615
30
0
10
-22.206330391830296
20
28.698417995388326
30
0
10
-22.170740579210882
20
29.124435441777813
30
0
10
-22.15183854386451
20
29.626824093855863
30
0
10
-22.148290666758768
20
30.22103735151093
30
0
10
-22.157243659814718
20
30.890917959808668
30
0
10
-22.174632110759234
20
31.597543544347385
30
0
10
-22.195578648496706
20
32.29120949262893
30
0
10
-22.21475921222801
20
32.921887158064933
30
0
10
-22.226787206041855
20
33.45123243527749
30
0
10
-22.22657979393539
20
33.861816318795526
30
0
10
-22.209756448091088
20
34.172764248420421
30
0
10
-22.172913191969617
20
34.432021415941769
30
0
10
-22.113726686933997
20
34.690061672787252
30
0
10
-22.031192548146926
20
34.974293049084501
30
0
10
-21.925541631130343
20
35.27688518230427
30
0
10
-21.797548725675565
20
35.576369163011179
30
0
10
-21.647916095171507
20
35.853096828364556
30
0
10
-21.476760255075909
20
36.104306588302101
30
0
10
-21.284224345971712
20
36.334881302321925
30
0
10
-21.070940306693402
20
36.55122049006912
30
0
10
-20.838606704409553
20
36.75350503959077
30
0
10
-20.589429208936952
20
36.937943936122664
30
0
10
-20.325613689900432
20
37.099207244797128
30
0
10
-20.048625555364225
20
37.233019615076479
30
0
10
-19.759787690625522
20
37.337111003572964
30
0
10
-19.461036339385771
20
37.411322112940383
30
0
10
-19.156101501479231
20
37.458586270436726
30
0
10
-18.849635447051305
20
37.483244209976171
30
0
10
-18.545248244009407
20
37.488193114045288
30
0
10
-18.243048996445165
20
37.471183565617423
30
0
10
-17.939982229833316
20
37.425246300040257
30
0
10
-17.634552212701074
20
37.345568152832811
30
0
10
-17.331389488804788
20
37.236033655024883
30
0
10
-17.043493343281281
20
37.112690175303314
30
0
10
-16.781353839640939
20
36.989551377989557
30
0
10
-16.544023850939485
20
36.867028819125245
30
0
10
-16.309211696670481
20
36.719049829948872
30
0
10
-16.047324371323704
20
36.511430515002047
30
0
10
-15.734381753955148
20
36.218751598125152
30
0
10
-15.367687146996671
20
35.844879126749035
30
0
10
-14.962324242919093
20
35.418159707994235
30
0
10
-14.54336344624407
20
34.980968475161987
30
0
10
-14.139360703874885
20
34.580922317643534
30
0
10
-13.77571021157288
20
34.261996186484147
30
0
10
-13.467107936751059
20
34.054237323008984
30
0
10
-13.213483452575796
20
33.968710934846442
30
0
10
-13.005032040374848
20
34.005330380083912
30
0
10
-12.825410097762644
20
34.158902539512688
30
0
10
-12.655863576739012
20
34.423923533746965
30
0
10
-12.479785666532484
20
34.790512009927312
30
0
10
-12.28743259225139
20
35.241692188034477
30
0
10
-12.080211265726447
20
35.750484992867506
30
0
10
-11.866604247066237
20
36.285467699707169
30
0
10
-11.658580166619677
20
36.815684504537984
30
0
10
-11.467622253476698
20
37.316126614446191
30
0
10
-11.301373354889222
20
37.772242083032367
30
0
10
-11.158888333646548
20
38.186670062469588
30
0
10
-11.031226244826939
20
38.577419669523422
30
0
10
-10.906484757312047
20
38.968925587170339
30
0
10
-10.7735381277746
20
39.385185395236533
30
0
10
-10.626385589985341
20
39.841911140545172
30
0
10
-10.468017411745635
20
40.339472396643032
30
0
10
-10.306889698064104
20
40.868001866907406
30
0
10
-10.153705683215954
20
41.41203051639188
30
0
10
-10.017900553302743
20
41.955527797235092
30
0
10
-9.9046709347115964
20
42.486240563765051
30
0
10
-9.8107331091067689
20
43.001644371172802
30
0
10
-9.7248896206090834
20
43.508814440006923
30
0
10
-9.6328413223460139
20
44.018930231663482
30
0
10
-9.5208191405390128
20
44.543273340484404
30
0
10
-9.3796849086315053
20
45.088628531752661
30
0
10
-9.2088661448763851
20
45.652904199354374
30
0
10
-9.0202616171642482
20
46.220766117322242
30
0
10
-8.8333849839563658
20
46.769765385187
30
0
10
-8.6707751787544982
20
47.276064589563319
30
0
10
-8.5530811436421672
20
47.720744351292851
30
0
10
-8.4947975678500782
20
48.09488644892064
30
0
10
-8.4984552543040728
20
48.40758825473322
30
0
10
-8.5545343183680274
20
48.68325655516383
30
0
10
-8.6467896767395462
20
48.949619828489332
30
0
10
-8.7561976930695611
20
49.226788702976101
30
0
10
-8.8651156090558487
20
49.520547204836198
30
0
10
-8.9599869134103436
20
49.827638125137923
30
0
10
-9.0348023013805996
20
50.138218412937299
30
0
10
-9.0931943682350393
20
50.440080341825315
30
0
10
-9.1416363644017871
20
50.728169749300648
30
0
10
-9.1837025398400716
20
51.013359367723382
30
0
10
-9.2135257702108273
20
51.332331573438424
30
0
10
-9.2192838878056165
20
51.73598322501487
30
0
10
-9.1873407428201368
20
52.276106845206336
30
0
10
-9.1058556513750641
20
52.993717107601022
30
0
10
-8.9693257780357332
20
53.904254369475296
30
0
10
-8.7801281862852161
20
54.993037204667559
30
0
10
-8.5462319563991667
20
56.223850930499175
30
0
10
-8.2798669541872059
20
57.544253861527714
30
0
10
-7.9958075338279455
20
58.892201949884182
30
0
10
-7.7098147458869972
20
60.202137436336052
30
0
10
-7.4370249538397761
20
61.411242520451815
30
0
10
-7.1903276182226881
20
62.465774255215116
30
0
10
-6.9788264742234887
20
63.327010891741551
30
0
10
-6.806081787526578
20
63.978187411757752
30
0
10
-6.6688740550209014
20
64.42908682497368
30
0
10
-6.554698503770191
20
64.726328477355096
30
0
10
-6.4435699027323645
20
64.944399899385772
30
0
10
-6.3149367232634699
20
65.15453325249797
30
0
10
-6.1540686738006958
20
65.394850257100572
30
0
10
-5.9564944233235675
20
65.65228820563415
30
0
10
-5.7240539482225934
20
65.891581159903666
30
0
10
-5.4623696947499809
20
66.076642419799157
30
0
10
-5.1778736610989302
20
66.193578975796427
30
0
10
-4.8776626834950783
20
66.244894321884118
30
0
10
-4.5691031976377543
20
66.245123934120343
30
0
10
-4.2595815753992063
20
66.216912498807631
30
0
10
-3.9557094291739121
20
66.178506229792163
30
0
10
-3.6625544930896314
20
66.133088619727317
30
0
10
-3.3827234689464709
20
66.05134586819895
30
0
10
-3.1163010311726937
20
65.888893608705743
30
0
10
-2.8612157603610058
20
65.613756907150687
30
0
10
-2.6133303150257552
20
65.23823584431419
30
0
10
-2.3671829198112659
20
64.819107800268029
30
0
10
-2.1172496922052702
20
64.426782142526577
30
0
10
-1.8590646069051626
20
64.123429259535257
30
0
10
-1.5903993088110491
20
63.936970039125747
30
0
10
-1.3123956593021311
20
63.838180065059063
30
0
10
-1.027006216672177
20
63.775886346211628
30
0
10
-0.73507709393742948
20
63.708237443816657
30
0
10
-0.43304156344073003
20
63.640665299802741
30
0
10
-0.11993089367948649
20
63.607151635731185
30
0
10
0.19635574596399341
20
63.645978763615823
30
0
10
0.48809865755469817
20
63.772501806199308
30
0
10
0.71996060456878397
20
63.978102960366158
30
0
10
0.86852980536769753
20
64.242026645162454
30
0
10
0.9462951208681909
20
64.540055667730314
30
0
10
0.99584107696555835
20
64.850288576986046
30
0
10
1.0642475633113022
20
65.154457922603982
30
0
10
1.1787959050970718
20
65.441299562889867
30
0
10
1.3372387186884884
20
65.706975088861327
30
0
10
1.5257530855300341
20
65.95191683772876
30
0
10
1.7315283120086002
20
66.178455653406388
30
0
10
1.9538417798810865
20
66.388147581013015
30
0
10
2.1963205025990913
20
66.579278614702048
30
0
10
2.4622542140110815
20
66.744313333332016
30
0
10
2.7487868082889948
20
66.867372931465482
30
0
10
3.0492481785466325
20
66.932327113579959
30
0
10
3.3551040392090443
20
66.929915879542264
30
0
10
3.6581704864732596
20
66.867040122238194
30
0
10
3.9514759218119218
20
66.75944783763174
30
0
10
4.2297245188832466
20
66.622904677399674
30
0
10
4.4902940617995766
20
66.462234281648605
30
0
10
4.7321608787528522
20
66.274169946169195
30
0
10
4.954342563441859
20
66.055420178122006
30
0
10
5.1536584669067933
20
65.812061117723289
30
0
10
5.3257503015259546
20
65.557630859621781
30
0
10
5.4692465692384822
20
65.299373188645603
30
0
10
5.5898821435459976
20
65.025253523312998
30
0
10
5.7022410106049328
20
64.69797047719004
30
0
10
5.8245843804255317
20
64.270203430932341
30
0
10
5.9749254017059519
20
63.695990125416486
30
0
10
6.166873207021295
20
62.942863813070716
30
0
10
6.4048905336525355
20
62.005684497029719
30
0
10
6.6850625807519872
20
60.904242277597149
30
0
10
6.9972691542378218
20
59.676717714793462
30
0
10
7.3268757797075468
20
58.374564590428506
30
0
10
7.6566233357494955
20
57.056801852659731
30
0
10
7.9684401666477225
20
55.784545124217942
30
0
10
8.2452695205634647
20
54.615468231346959
30
0
10
8.4729322692304212
20
53.598217955677782
30
0
10
8.6418771936693197
20
52.767027453532513
30
0
10
8.7492058518828735
20
52.13582873795194
30
0
10
8.800048600695149
20
51.69355645916076
30
0
10
8.8105799599591563
20
51.396409565005271
30
0
10
8.8010535418486313
20
51.179907993888278
30
0
10
8.7877850785902325
20
50.974953263726917
30
0
10
8.772741063215193
20
50.724310769949881
30
0
10
8.7459401132494659
20
50.390815590824296
30
0
10
8.695673232628593
20
49.95833716047806
30
0
10
8.6180643907389403
20
49.436620126356097
30
0
10
8.5212321637632531
20
48.858904931907936
30
0
10
8.4191145006954535
20
48.27007658386912
30
0
10
8.3279030087921235
20
47.717109947435397
30
0
10
8.2612754175067096
20
47.238345634619769
30
0
10
8.2264754840438865
20
46.853839830107482
30
0
10
8.2191534955713479
20
46.553727326725365
30
0
10
8.2292565173574523
20
46.307065870792414
30
0
10
8.2473911291368083
20
46.072505944527038
30
0
10
8.2725195781208889
20
45.809240209577531
30
0
10
8.3110668586174121
20
45.482578940843894
30
0
10
8.3725699546186885
20
45.066487112440832
30
0
10
8.4659305739238793
20
44.548019237159338
30
0
10
8.5973723039525822
20
43.927543717752535
30
0
10
8.7707924550867418
20
43.215297075517213
30
0
10
8.9874340276007576
20
42.42892142507165
30
0
10
9.2458272538516013
20
41.59057883819797
30
0
10
9.5416392819995313
20
40.724299154068078
30
0
10
9.8675083014293072
20
39.853106003304248
30
0
10
10.213013570990546
20
38.996523114998745
30
0
10
10.564255267924558
20
38.167186118246875
30
0
10
10.905576542788058
20
37.372186408487813
30
0
10
11.222101519469872
20
36.616198538720838
30
0
10
11.50199428992882
20
35.904009723685448
30
0
10
11.738862159799579
20
35.243334435475276
30
0
10
11.934032771229328
20
34.647424212502607
30
0
10
12.0990349443718
20
34.137957311881756
30
0
10
12.257639760999856
20
33.747356170631981
30
0
10
12.44903108764114
20
33.522556018994599
30
0
10
12.712613209006307
20
33.505379720569458
30
0
10
13.072192816347638
20
33.712174241721158
30
0
10
13.519065725106916
20
34.111900726674833
30
0
10
14.021202113969608
20
34.640120832255533
30
0
10
14.534567505391768
20
35.215937102878463
30
0
10
15.013292836160076
20
35.75729537585795
30
0
10
15.421170884144635
20
36.19824634825234
30
0
10
15.740625422260933
20
36.502412979679661
30
0
10
15.987636686427871
20
36.685434154774434
30
0
10
16.203288060543464
20
36.802155915466948
30
0
10
16.43107040154835
20
36.912370704987289
30
0
10
16.693983919584177
20
37.046200146165646
30
0
10
16.985946417172272
20
37.191210307336156
30
0
10
17.289969902878216
20
37.320091705927155
30
0
10
17.591298395154563
20
37.410775129680836
30
0
10
17.889022573683594
20
37.464015177096279
30
0
10
18.187708318129381
20
37.489650130051466
30
0
10
18.492123136894939
20
37.497701519003684
30
0
10
18.800694269714327
20
37.487490370406732
30
0
10
19.10842086497285
20
37.45283130090499
30
0
10
19.409388285523551
20
37.386602586833895
30
0
10
19.699860474279522
20
37.286236437134605
30
0
10
19.977909604155975
20
37.153441724200206
30
0
10
20.242383057473642
20
36.992530295750853
30
0
10
20.491923994879777
20
36.809490726707182
30
0
10
20.724759356731411
20
36.609762976767385
30
0
10
20.939059922432463
20
36.396283226634232
30
0
10
21.133115379087286
20
36.165988070564396
30
0
10
21.305595246508901
20
35.911768106180105
30
0
10
21.455723338140306
20
35.630321506853122
30
0
10
21.583574475725456
20
35.330570235174442
30
0
10
21.690049341607562
20
35.036027371723904
30
0
10
21.775847155814652
20
34.765125482286585
30
0
10
21.840567689024116
20
34.514722863438436
30
0
10
21.881858415801769
20
34.24382107767908
30
0
10
21.897457667966908
20
33.899882265117157
30
0
10
21.886982637725382
20
33.441673975903868
30
0
10
21.854090137537
20
32.866667796532568
30
0
10
21.805644170368179
20
32.203276652659291
30
0
10
21.750422550448377
20
31.497693228699649
30
0
10
21.698003463587099
20
30.802890775863897
30
0
10
21.657534417037326
20
30.166094210360708
30
0
10
21.636649268026567
20
29.618351632938634
30
0
10
21.640080455699927
20
29.159635547159937
30
0
10
21.669353957898668
20
28.759942371871578
30
0
10
21.723567540429521
20
28.376404821004094
30
0
10
21.799875873223158
20
27.966095810461621
30
0
10
21.894096494076855
20
27.500553258959599
30
0
10
22.001261380289584
20
26.979669520978653
30
0
10
22.116270504091059
20
26.422753145515159
30
0
10
22.234520331807506
20
25.859557612926519
30
0
10
22.352573134596945
20
25.320952185610061
30
0
10
22.468738614903575
20
24.830604805003023
30
0
10
22.583866321501365
20
24.394112902046075
30
0
10
22.701375479990205
20
23.997449743260564
30
0
10
22.826474261133111
20
23.615323978781401
30
0
10
22.965594058251604
20
23.216916222119586
30
0
10
23.125737902133725
20
22.772647077538632
30
0
10
23.313860677377551
20
22.260608446299749
30
0
10
23.53656832152193
20
21.665950258449019
30
0
10
23.799829299309238
20
20.980050267058918
30
0
10
24.108682621442064
20
20.199769882583453
30
0
10
24.466943941100048
20
19.326671668383892
30
0
10
24.876920331957461
20
18.36625732073075
30
0
10
25.339103036576766
20
17.327187700770153
30
0
10
25.851912459446034
20
16.220532083738036
30
0
10
26.411313743254059
20
15.058951229221517
30
0
10
27.010957192391146
20
13.856144303772993
30
0
10
27.642704335662511
20
12.62648906647761
30
0
10
28.297041367597767
20
11.384625604648019
30
0
10
28.963538884388456
20
10.145063408516396
30
0
10
29.631291943250776
20
8.9217782413509603
30
0
10
30.289368175509782
20
7.7278138639119955
30
0
10
30.92725337999201
20
6.574880577859167
30
0
10
31.535295999024299
20
5.4729576429696252
30
0
10
32.105157203658138
20
4.4298881682302751
30
0
10
32.630246680524138
20
3.4509907947019149
30
0
10
33.106192232283114
20
2.5386325886649317
30
0
10
33.531230244983171
20
1.6918923053087334
30
0
10
33.906789475348781
20
0.90600304787961872
30
0
10
34.237379051439298
20
0.17258885971755367
30
0
10
34.529708505513675
20
-0.51922193894227531
30
0
10
34.792012551720838
20
-1.1819178184613963
30
0
10
35.033287614458629
20
-1.8286226630077842
30
0
10
35.262577235519643
20
-2.4721741956798784
30
0
10
35.488210706001198
20
-3.1241396716005432
30
0
10
35.717122212156283
20
-3.7939453450768861
30
0
10
35.953981215358596
20
-4.4877354796181557
30
0
10
36.201259512795581
20
-5.2085773459944296
30
0
10
36.459699334823789
20
-5.9572432213097972
30
0
10
36.728652135798384
20
-6.7328056344930767
30
0
10
37.006472727418391
20
-7.5333140740497377
30
0
10
37.290886118569574
20
-8.3564280949866276
30
0
10
37.579374305190534
20
-9.2000892336542801
30
0
10
37.869535327940483
20
-10.063129477700596
30
0
10
38.159500452525265
20
-10.946019833384216
30
0
10
38.448177914054092
20
-11.851196177070115
30
0
10
38.735041131864435
20
-12.782272566881577
30
0
10
39.020002098209432
20
-13.743462507968482
30
0
10
39.303251135222837
20
-14.738918407155619
30
0
10
39.585110768481677
20
-15.772104648709419
30
0
10
39.865884089358595
20
-16.845159214733606
30
0
10
40.145704189985231
20
-17.958253229984646
30
0
10
40.424386155450946
20
-19.108967633390993
30
0
10
40.701270935119041
20
-20.291624697539191
30
0
10
40.975089066900942
20
-21.49672698445724
30
0
10
41.24377638584243
20
-22.710137687991914
30
0
10
41.504436827649201
20
-23.91305252097721
30
0
10
41.753703336928481
20
-25.0841136993775
30
0
10
41.988024799563625
20
-26.201125714694548
30
0
10
42.20398286415724
20
-27.242932372459517
30
0
10
42.398594625625954
20
-28.191216717286821
30
0
10
42.569624596970414
20
-29.032353371560156
30
0
10
42.715885250934427
20
-29.759193721143657
30
0
10
42.837559771114996
20
-30.372983748974018
30
0
10
42.936474987647472
20
-30.884983230340669
30
0
10
43.016492429412445
20
-31.318793545412799
30
0
10
43.083550353263078
20
-31.71059123930517
30
0
10
43.144525961349622
20
-32.102280627186978
30
0
10
43.20625388951769
20
-32.535585653849303
30
0
10
43.274554907013496
20
-33.046199687983588
30
0
10
43.353079549125752
20
-33.656833140870013
30
0
10
43.443334642702595
20
-34.377313381236078
30
0
10
43.545142109461672
20
-35.207262330192862
30
0
10
43.656955388267079
20
-36.13792492292886
30
0
10
43.776234843901619
20
-37.154349549515842
30
0
10
43.89979892739737
20
-38.23742334507071
30
0
10
44.024183255970911
20
-39.365955986981504
30
0
10
44.146002112069318
20
-40.51877493240503
30
0
10
44.262295311295404
20
-41.676740350873587
30
0
10
44.370913930498034
20
-42.824975228129809
30
0
10
44.470790411926664
20
-43.954454311410515
30
0
10
44.561703017290554
20
-45.060788318985047
30
0
10
44.644111901567442
20
-46.143405467130279
30
0
10
44.718967354830319
20
-47.204578516028917
30
0
10
44.787529736503771
20
-48.24851689669832
30
0
10
44.851184780060507
20
-49.280432644618358
30
0
10
44.91125997289619
20
-50.305613493778253
30
0
10
44.968842609274617
20
-51.328502480278779
30
0
10
45.024592158685024
20
-52.351752459991999
30
0
10
45.078566639481316
20
-53.375343314608237
30
0
10
45.130015269562065
20
-54.395547841686962
30
0
10
45.177269472876986
20
-55.404339275078456
30
0
10
45.218075048295596
20
-56.390782682664131
30
0
10
45.249863823428484
20
-57.342152114689632
30
0
10
45.270047263868392
20
-58.245151646043674
30
0
10
45.27630437746172
20
-59.087098670785721
30
0
10
45.266863616783546
20
-59.857108322217208
30
0
10
45.240807013385911
20
-60.547312524768948
30
0
10
45.198318992004232
20
-61.153982373490734
30
0
10
45.14106840514966
20
-61.678888228328589
30
0
10
45.072206038509172
20
-62.129959334140963
30
0
10
44.994944863624667
20
-62.519058044378482
30
0
10
44.911214164830398
20
-62.860169824865473
30
0
10
44.820562858972359
20
-63.167445318399736
30
0
10
44.718265904613041
20
-63.453263195866889
30
0
10
44.597464911301046
20
-63.726732608475146
30
0
10
44.452404629140418
20
-63.992880250758468
30
0
10
44.282318992647674
20
-64.250748835959186
30
0
10
44.091298940592296
20
-64.495138406634211
30
0
10
43.884538408391109
20
-64.721105219455183
30
0
10
43.664812766259743
20
-64.928723312542729
30
0
10
43.431216960477428
20
-65.124636327524797
30
0
10
43.18366525520937
20
-65.315957922349938
30
0
10
42.926661171972341
20
-65.505312752391148
30
0
10
42.672040562165208
20
-65.686638513689161
30
0
10
42.428830947491683
20
-65.852589072986746
30
0
10
42.195076249280028
20
-66.000323920576207
30
0
10
41.947457315903769
20
-66.138801932707892
30
0
10
41.656144788802806
20
-66.280626566398837
30
0
10
41.299597884246204
20
-66.43394133603131
30
0
10
40.88291194168616
20
-66.592176723489985
30
0
10
40.433085815212124
20
-66.737852199201683
30
0
10
39.986023135575927
20
-66.851660143877211
30
0
10
39.57669075772985
20
-66.91910573764973
30
0
10
39.226998185338736
20
-66.939761965884927
30
0
10
38.93763181270981
20
-66.930487016088435
30
0
10
38.691609059700703
20
-66.909642551823993
30
0
10
38.455853850248438
20
-66.884049950298788
30
0
10
38.183873294248237
20
-66.835777598817032
30
0
10
37.833624814805901
20
-66.739562725960511
30
0
10
37.383526345879631
20
-66.577720040727542
30
0
10
36.852298530022111
20
-66.358567090856582
30
0
10
36.286653871907191
20
-66.108465904464239
30
0
10
35.744298139178781
20
-65.860104014373761
30
0
10
35.277683266526324
20
-65.641380617866474
30
0
10
34.919444370946159
20
-65.465624822876848
30
0
10
34.66228870795679
20
-65.317416603013541
30
0
10
34.457337431019695
20
-65.153008175046665
30
0
10
34.247213981129448
20
-64.927898465000197
30
0
10
33.993994463035023
20
-64.620814185210463
30
0
10
33.702994374126533
20
-64.253147096314933
30
0
10
33.40291465966726
20
-63.867044356397514
30
0
10
33.130540447513148
20
-63.507484704589515
30
0
10
32.915410760879965
20
-63.204993571251251
30
0
10
32.760166574059333
20
-62.952655521500567
30
0
10
32.644253524096605
20
-62.712475053189756
30
0
10
32.538911614249614
20
-62.435697420160182
30
0
10
32.420733146462858
20
-62.081588233907553
30
0
10
32.278295307400128
20
-61.626754219026878
30
0
10
32.107925285188259
20
-61.059940404166284
30
0
10
31.912386603667219
20
-60.380717061924187
30
0
10
31.698357968300613
20
-59.59656637520996
30
0
10
31.474458748772829
20
-58.720677817599231
30
0
10
31.248969279185705
20
-57.769383297129181
30
0
10
31.027884616119032
20
-56.759907177065031
30
0
10
30.815291445810477
20
-55.709931591722402
30
0
10
30.613575049140156
20
-54.637036537406239
30
0
10
30.423690040370772
20
-53.558187106026267
30
0
10
30.245404289969187
20
-52.489199442914718
30
0
10
30.077553764319109
20
-51.444218835855359
30
0
10
29.918294049763002
20
-50.435185614612507
30
0
10
29.765350059784197
20
-49.471322426953634
30
0
10
29.616274043713315
20
-48.558574755511692
30
0
10
29.468682413150766
20
-47.699159355809613
30
0
10
29.320545617208413
20
-46.890847061835416
30
0
10
29.17026547324096
20
-46.127306557421818
30
0
10
29.016589166499536
20
-45.399264328325977
30
0
10
28.858570569576074
20
-44.695426052938707
30
0
10
28.695511952897498
20
-44.003501451205295
30
0
10
28.526914429745069
20
-43.311172519712599
30
0
10
28.352423881888882
20
-42.607114614749861
30
0
10
28.17178062423098
20
-41.881927840047226
30
0
10
27.984762804619095
20
-41.129281034783716
30
0
10
27.791165867513712
20
-40.345718224993796
30
0
10
27.590791628942995
20
-39.530103166146617
30
0
10
27.383434081732464
20
-38.683185627809614
30
0
10
27.168866648100671
20
-37.807117711076145
30
0
10
26.946828629372312
20
-36.904989320163324
30
0
10
26.717012421881137
20
-35.980360773110576
30
0
10
26.479049423952649
20
-35.036784154900083
30
0
10
26.232498806848046
20
-34.077358897738122
30
0
10
25.976829055789249
20
-33.104196060338097
30
0
10
25.711447611718508
20
-32.118496373113608
30
0
10
25.435742623071054
20
-31.120783147832569
30
0
10
25.149120591481399
20
-30.111082577490489
30
0
10
24.851045715260579
20
-29.089125964436477
30
0
10
24.541078558512677
20
-28.054542806969664
30
0
10
24.218914885478284
20
-27.00705717422656
30
0
10
23.884424717239025
20
-25.946684164057331
30
0
10
23.537690615256871
20
-24.873922846836841
30
0
10
23.179047878590392
20
-23.789958819825955
30
0
10
22.809120207683222
20
-22.696843602504675
30
0
10
22.428866985583994
20
-21.597733542989271
30
0
10
22.039554302276791
20
-20.496737892180093
30
0
10
21.642706208468844
20
-19.398665609298799
30
0
10
21.240062695196386
20
-18.308806482667134
30
0
10
20.833534815777782
20
-17.232697955409972
30
0
10
20.425161131947082
20
-16.17589790759191
30
0
10
20.017063369972377
20
-15.14375530412034
30
0
10
19.611402931920082
20
-14.141180764153615
30
0
10
19.210335845257287
20
-13.17241947421887
30
0
10
18.815971159107889
20
-12.240817711187379
30
0
10
18.430321384951977
20
-11.348604647596368
30
0
10
18.055272046943497
20
-10.496637172113354
30
0
10
17.692490741546855
20
-9.6842619604984463
30
0
10
17.343210341059986
20
-8.9094223709078406
30
0
10
17.008038172265604
20
-8.1687138907119188
30
0
10
16.686755525372636
20
-7.4574606395227159
30
0
10
16.378119661962781
20
-6.7697816721778405
30
0
10
16.079668506453679
20
-6.0986644234695504
30
0
10
15.787515407087707
20
-5.4360286356476877
30
0
10
15.496168852030792
20
-4.7728095580866023
30
0
10
15.198285514079057
20
-4.0989918129462879
30
0
10
14.885482076189906
20
-3.4044200079117468
30
0
10
14.549227165303931
20
-2.679667889454509
30
0
10
14.181705153121872
20
-1.9168872230838865
30
0
10
13.776690065238986
20
-1.1106633340900116
30
0
10
13.330419267196485
20
-0.25887223136469123
30
0
10
12.842457728913612
20
0.63647319461703489
30
0
10
12.316588565421709
20
1.5683483330114953
30
0
10
11.761639886230702
20
2.5239107529986904
30
0
10
11.192481242387533
20
3.4835113678031804
30
0
10
10.627866869620735
20
4.4231031103287712
30
0
10
10.088083790998326
20
5.3168602679196084
30
0
10
9.5926650520820083
20
6.1397267030295533
30
0
10
9.1580881640836154
20
6.8699821846725122
30
0
10
8.7954504348047013
20
7.4918285750072595
30
0
10
8.5082225735384327
20
7.9979034031973821
30
0
10
8.2898095843410822
20
8.391973844308481
30
0
10
8.121567489512012
20
8.6912029993144309
30
0
10
7.9696692758293999
20
8.9295044854977057
30
0
10
7.7994687425717792
20
9.1430997977650197
30
0
10
7.5882883210802508
20
9.3571718750422672
30
0
10
7.3439154604504351
20
9.5679495848397256
30
0
10
7.089723718272313
20
9.7524930953844748
30
0
10
6.8430228724931901
20
9.8852713327805617
30
0
10
6.5888280610423235
20
9.9559839235531129
30
0
10
6.2839393836435677
20
9.972122243775706
30
0
10
5.8822675860986067
20
9.949656228389955
30
0
10
5.3575439230125479
20
9.9064294165630962
30
0
10
4.7148889758831594
20
9.8572212499407001
30
0
10
3.9791704018019143
20
9.8144905496527741
30
0
10
3.1889808895835281
20
9.7876544867853656
30
0
10
2.3884388749541205
20
9.7829818560060247
30
0
10
1.6196865792617614
20
9.8031857703182741
30
0
10
0.9156339286164823
20
9.847232986615019
30
0
10
0.29127883915611164
20
9.9098490838535831
30
0
10
-0.26011273552727993
20
9.981836324385073
30
0
10
-0.75765737461408311
20
10.052525559918301
30
0
10
-1.2261365924392569
20
10.111770195410191
30
0
10
-1.6879168984537893
20
10.152246460047209
30
0
10
-2.1561895711667134
20
10.171333718505817
30
0
10
-2.6257208478928566
20
10.173929759386972
30
0
10
-3.078630730174003
20
10.169334837412576
30
0
10
-3.4947742655848133
20
10.166228514756879
30
0
10
-3.8596658154597945
20
10.168786258242971
30
0
10
-4.1755286154650832
20
10.171171038441422
30
0
10
-4.4644073534537094
20
10.156332059977
30
0
10
-4.7503819131307825
20
10.10624109098794
30
0
10
-5.0448062725017131
20
10.010485525612669
30
0
10
-5.3322625420120273
20
9.8744213422617459
30
0
10
-5.5896972566134444
20
9.708313134374686
30
0
10
-5.8021788286872535
20
9.5184368808319455
30
0
10
-5.9823637594491181
20
9.2959764056789158
30
0
10
-6.1558926935392302
20
9.026265912979488
30
0
10
-6.3455216143241975
20
8.6986908037339887
30
0
10
-6.5519300837975152
20
8.3188210367599105
30
0
10
-6.757750089216902
20
7.9053324848866149
30
0
10
-6.9411372715963182
20
7.4806931764030393
30
0
10
-7.0854903594839307
20
7.0643742095149324
30
0
10
-7.1924239671724211
20
6.6639111681095322
30
0
10
-7.2883489175004907
20
6.2702144546227423
30
0
10
-7.4097095294131936
20
5.8670832459183782
30
0
10
-7.5907912585274131
20
5.439016149805715
30
0
10
-7.8518581455242522
20
4.9787826987172501
30
0
10
-8.1837995297351078
20
4.4973683898605952
30
0
10
-8.5538896882200497
20
4.0196132955905428
30
0
10
-8.9195542158734185
20
3.5744540684379658
30
0
10
-9.2399147202366905
20
3.1866160451257803
30
0
10
-9.4873774512297047
20
2.8684004660168272
30
0
10
-9.6613070255072504
20
2.6097626106422567
30
0
10
-9.7943797436723976
20
2.3742180972734066
30
0
10
-9.9287189755326484
20
2.1186917710778914
30
0
10
-10.096357323674036
20
1.8099463117762304
30
0
10
-10.298444820700405
20
1.4419886936755626
30
0
10
-10.517308320005201
20
1.0263222934874103
30
0
10
-10.728379711373384
20
0.58231431228049846
30
0
10
-10.91104134277103
20
0.12842104968992155
30
0
10
-11.062702318178651
20
-0.32915661571262073
30
0
10
-11.200410254942458
20
-0.79789804449674984
30
0
10
-11.350436478542631
20
-1.2908168721106108
30
0
10
-11.541156752548392
20
-1.8209356896503857
30
0
10
-11.794591277281333
20
-2.3946988586144462
30
0
10
-12.118501118251848
20
-3.0058159918660317
30
0
10
-12.498290565061762
20
-3.6289800110696318
30
0
10
-12.904684503740778
20
-4.2288080652655564
30
0
10
-13.301459303637124
20
-4.7689477424476125
30
0
10
-13.652902206138172
20
-5.2206719355622937
30
0
10
-13.931960749663423
20
-5.5727129506610531
30
0
10
-14.126752997330058
20
-5.8381772434622947
30
0
10
-14.251160469719885
20
-6.0687098579155494
30
0
10
-14.337346979333045
20
-6.3368961098913825
30
0
10
-14.420225028739919
20
-6.7055046860086875
30
0
10
-14.521577848700131
20
-7.194105323932761
30
0
10
-14.644375512804412
20
-7.770497085401229
30
0
10
-14.781720621779261
20
-8.3763508787421124
30
0
10
-14.921923868023129
20
-8.9438414715180201
30
0
10
-15.055271188642212
20
-9.4162463465831792
30
0
10
-15.179800618609621
20
-9.7661526512081434
30
0
10
-15.308208842813896
20
-10.016541205908707
30
0
10
-15.45933867638359
20
-10.219622709927087
30
0
10
-15.649673002204004
20
-10.435034042164617
30
0
10
-15.883167471597091
20
-10.705074255638777
30
0
10
-16.152370799830329
20
-11.051416265795615
30
0
10
-16.443260611571507
20
-11.478713813635791
30
0
10
-16.738700291131561
20
-11.97607812322045
30
0
10
-17.022788422908725
20
-12.519033335487475
30
0
10
-17.283840117746109
20
-13.072569170386215
30
0
10
-17.513804102213992
20
-13.599517268712988
30
0
10
-17.708260697385676
20
-14.0676927943154
30
0
10
-17.866193089637317
20
-14.458114514253895
30
0
10
-17.98985407625549
20
-14.771405409199186
30
0
10
-18.084597176281171
20
-15.038446060524906
30
0
10
-18.158603631382931
20
-15.308264549539132
30
0
10
-18.222396971251516
20
-15.630089031388412
30
0
10
-18.288732911247479
20
-16.033947446717484
30
0
10
-18.371111598654878
20
-16.525452790509767
30
0
10
-18.481165032240227
20
-17.093665464185669
30
0
10
-18.62635178622304
20
-17.715183919185293
30
0
10
-18.807550782015355
20
-18.359772016051096
30
0
10
-19.016638499529218
20
-18.995364350403818
30
0
10
-19.234251295890708
20
-19.593242859378076
30
0
10
-19.436527193032095
20
-20.130646223627558
30
0
10
-19.601262986555199
20
-20.593298874008635
30
0
10
-19.714934287638222
20
-20.978367420532756
30
0
10
-19.777883258912833
20
-21.296324432035519
30
0
10
-19.813905655300296
20
-21.575527236789146
30
0
10
-19.863603346743862
20
-21.856713234548117
30
0
10
-19.965001857487476
20
-22.179577770867205
30
0
10
-20.134646144919394
20
-22.569645833916034
30
0
10
-20.358021750349341
20
-23.030951984313543
30
0
10
-20.604122054712839
20
-23.553712112582105
30
0
10
-20.834689754145437
20
-24.118736497537512
30
0
10
-21.015951397399732
20
-24.703269721149546
30
0
10
-21.128455831335906
20
-25.285941134249054
30
0
10
-21.179905159558462
20
-25.85283145306191
30
0
10
-21.197714505466575
20
-26.396622704217503
30
0
10
-21.217907272929864
20
-26.914481879468191
30
0
10
-21.274853499076919
20
-27.406317550933657
30
0
10
-21.391597301023605
20
-27.873018967283727
30
0
10
-21.567661187283214
20
-28.314368252196221
30
0
10
-21.775385155945205
20
-28.728189417562362
30
0
10
-21.975150633592293
20
-29.11226781692319
30
0
10
-22.127211264886505
20
-29.46578883226978
30
0
10
-22.203915278955733
20
-29.790787085565171
30
0
10
-22.204234885958513
20
-30.094056162618095
30
0
10
-22.146764283032905
20
-30.385078705719732
30
0
10
-22.058716501459269
20
-30.673317497502076
30
0
10
-21.965048951588699
20
-30.965309439527768
30
0
10
-21.883797270739858
20
-31.263907084359815
30
0
10
-21.826142293002171
20
-31.568996779362791
30
0
10
-21.793762988575441
20
-31.877424864634769
30
0
10
-21.781451451812387
20
-32.184377872713
30
0
10
-21.784360230046801
20
-32.486060264059148
30
0
10
-21.805550920150587
20
-32.78238056526969
30
0
10
-21.85925658991815
20
-33.078684065805326
30
0
10
-21.959562189554308
20
-33.38400157849761
30
0
10
-22.111275284788366
20
-33.709970695807193
30
0
10
-22.30092117911677
20
-34.069364534560009
30
0
10
-22.505284175896747
20
-34.473204190175153
30
0
10
-22.699248783797259
20
-34.927659913367137
30
0
10
-22.863101823308686
20
-35.431531642340154
30
0
10
-22.992043682986193
20
-35.972272817548323
30
0
10
-23.096220818929094
20
-36.52785019032202
30
0
10
-23.193424116976438
20
-37.07305095438165
30
0
10
-23.303874751824154
20
-37.584547057533754
30
0
10
-23.444237838753935
20
-38.046373893856668
30
0
10
-23.621762760908052
20
-38.455459271945983
30
0
10
-23.828939043057161
20
-38.826496497312782
30
0
10
-24.049535571851276
20
-39.184355525867502
30
0
10
-24.264318609413806
20
-39.556783396567823
30
0
10
-24.45638897010371
20
-39.967644603222098
30
0
10
-24.617905064280269
20
-40.428351967027098
30
0
10
-24.750990990567953
20
-40.936812175587661
30
0
10
-24.864011719331359
20
-41.482346283763725
30
0
10
-24.969174733290771
20
-42.048902022205567
30
0
10
-25.079603566511896
20
-42.618941802321146
30
0
10
-25.206596835749121
20
-43.177104017423069
30
0
10
-25.356921254928455
20
-43.713784885645708
30
0
10
-25.532959905489587
20
-44.224048315896106
30
0
10
-25.732771706018596
20
-44.70673260557647
30
0
10
-25.950100642036766
20
-45.163506419333359
30
0
10
-26.174599188101901
20
-45.597890376590335
30
0
10
-26.39148133248549
20
-46.014432279066774
30
0
10
-26.583409683932508
20
-46.417238337090609
30
0
10
-26.73432966774962
20
-46.807933376205511
30
0
10
-26.832725151837494
20
-47.183795629006404
30
0
10
-26.875178069819903
20
-47.53578728142061
30
0
10
-26.869606581515846
20
-47.846785602598402
30
0
10
-26.830295742390497
20
-48.108060231898975
30
0
10
-26.773343398469702
20
-48.333157576258827
30
0
10
-26.711522244624717
20
-48.577324478449746
30
0
10
-26.653813844645342
20
-48.912102470655398
30
0
10
-26.605725011720196
20
-49.396240855532831
30
0
10
-26.569189505128151
20
-50.041247796877421
30
0
10
-26.543344601831297
20
-50.812334477805841
30
0
10
-26.52563323008679
20
-51.647704773460312
30
0
10
-26.512827891610765
20
-52.472292031969126
30
0
10
-26.50204537840969
20
-53.213235903520143
30
0
10
-26.491860913381423
20
-53.815923933702081
30
0
10
-26.483156450802831
20
-54.256726206931219
30
0
10
-26.480636694321152
20
-54.564749754426821
30
0
10
-26.491769159086743
20
-54.808392425643468
30
0
10
-26.523954475638281
20
-55.058127138128583
30
0
10
-26.581733656138063
20
-55.348906151854351
30
0
10
-26.665488322861215
20
-55.665579181295698
30
0
10
-26.773464168084431
20
-55.976177970141883
30
0
10
-26.902991133539675
20
-56.256515776382379
30
0
10
-27.052164413803578
20
-56.512408729272337
30
0
10
-27.222299199326287
20
-56.763260209335151
30
0
10
-27.420294932561305
20
-57.031137396311522
30
0
10
-27.661127906338571
20
-57.327409491138248
30
0
10
-27.9615107307947
20
-57.654388520376607
30
0
10
-28.332862370886826
20
-58.006838383391973
30
0
10
-28.77547830779994
20
-58.373699753401169
30
0
10
-29.2699260081007
20
-58.739379610335433
30
0
10
-29.778287370178973
20
-59.086542310508996
30
0
10
-30.256460683587257
20
-59.400614491866435
30
0
10
-30.663489374837695
20
-59.673777099452259
30
0
10
-30.972258338761204
20
-59.909304406481908
30
0
10
-31.179240712397444
20
-60.125433957190985
30
0
10
-31.315604022985642
20
-60.360262051726288
30
0
10
-31.426968675809306
20
-60.652743622125385
30
0
10
-31.55406653291282
20
-61.025060036553242
30
0
10
-31.709236003221264
20
-61.460025244083965
30
0
10
-31.882277379175989
20
-61.912933457551844
30
0
10
-32.054651006244079
20
-62.333470243748359
30
0
10
-32.209874512663433
20
-62.682516200192289
30
0
10
-32.347755239520161
20
-62.955009040034675
30
0
10
-32.489874012404115
20
-63.187797906989715
30
0
10
-32.663382951204738
20
-63.429542384218351
30
0
10
-32.888154761301742
20
-63.716459731775963
30
0
10
-33.164143423677018
20
-64.048571244802929
30
0
10
-33.479572689790757
20
-64.404284587742481
30
0
10
-33.817818147663409
20
-64.752492710613737
30
0
10
-34.164048833336047
20
-65.064457614860999
30
0
10
-34.513808111644394
20
-65.328680329492911
30
0
10
-34.872551147784165
20
-65.551564842956708
30
0
10
-35.248605875548186
20
-65.747774986902286
30
0
10
-35.648231200262032
20
-65.933789406160486
30
0
10
-36.069473987814774
20
-66.11981282862628
30
0
10
-36.497477449481025
20
-66.303301652483427
30
0
10
-36.911791240784716
20
-66.474496522647854
30
0
10
-37.293441759421157
20
-66.621568200886429
30
0
10
-37.631059542471043
20
-66.735231552172252
30
0
10
-37.92991724319841
20
-66.815224353328745
30
0
10
-38.208846948516715
20
-66.868928989642214
30
0
10
-38.48938001657735
20
-66.90510768036043
30
0
10
-38.785635323069613
20
-66.927799675159022
30
0
10
-39.098988427981467
20
-66.934299314709705
30
0
10
-39.422872559017421
20
-66.920649274408063
30
0
10
-39.744862381419367
20
-66.885972435968895
30
0
10
-39.989498182393547
20
-66.845601219168529
30
0
10
-40.161936544573209
20
-66.810414704585085
30
0
10
-40.272648360235564
20
-66.784712343819422
30
0
10
-40.327199999999991
20
-66.771199999999993
30
0
0
ENDSEC
0
SECTION
2
OBJECTS
0
DICTIONARY
5
C
100
AcDbDictionary
3
ACAD_GROUP
350
D
3
ACAD_MLINESTYLE
350
17
0
DICTIONARY
5
D
100
AcDbDictionary
0
DICTIONARY
5
1A
330
C
100
AcDbDictionary
0
DICTIONARY
5
17
100
AcDbDictionary
0
ENDSEC
0
EOF
