0
SECTION
2
HEADER
9
$INSUNITS
70
4
9
$ACADVER
1
AC1014
9
$HANDSEED
5
FFFF
0
ENDSEC
0
SECTION
2
TABLES
0
TABLE
2
VPORT
5
8
100
AcDbSymbolTable
0
ENDTAB
0
TABLE
2
LTYPE
5
5
100
AcDbSymbolTable
0
LTYPE
5
14
100
AcDbSymbolTableRecord
100
AcDbLinetypeTableRecord
2
BYBLOCK
70
0
0
LTYPE
5
15
100
AcDbSymbolTableRecord
100
AcDbLinetypeTableRecord
2
BYLAYER
70
0
0
LTYPE
5
16
100
AcDbSymbolTableRecord
100
AcDbLinetypeTableRecord
2
DASHED
70
0
3
Dashed __ __ __ __ __ __ __ __ __ __ __ __ __ _
72
65
73
2
40
0.75
49
0.5
74
0
49
-0.25
74
0
0
ENDTAB
0
TABLE
2
LAYER
5
2
100
AcDbSymbolTable
70
2
0
LAYER
5
50
100
AcDbSymbolTableRecord
100
AcDbLayerTableRecord
2
0
70
0
62
7
6
CONTINUOUS
0
ENDTAB
0
TABLE
2
STYLE
5
3
100
AcDbSymbolTable
70
1
0
STYLE
5
11
100
AcDbSymbolTableRecord
100
AcDbTextStyleTableRecord
2
STANDARD
70
0
0
ENDTAB
0
TABLE
2
VIEW
5
6
100
AcDbSymbolTable
70
0
0
ENDTAB
0
TABLE
2
UCS
5
7
100
AcDbSymbolTable
70
0
0
ENDTAB
0
TABLE
2
APPID
5
9
100
AcDbSymbolTable
70
2
0
APPID
5
12
100
AcDbSymbolTableRecord
100
AcDbRegAppTableRecord
2
ACAD
70
0
0
ENDTAB
0
TABLE
2
DIMSTYLE
5
A
100
AcDbSymbolTable
70
1
0
ENDTAB
0
TABLE
2
BLOCK_RECORD
5
1
100
AcDbSymbolTable
70
1
0
BLOCK_RECORD
5
1F
100
AcDbSymbolTableRecord
100
AcDbBlockTableRecord
2
*MODEL_SPACE
0
BLOCK_RECORD
5
1B
100
AcDbSymbolTableRecord
100
AcDbBlockTableRecord
2
*PAPER_SPACE
0
ENDTAB
0
ENDSEC
0
SECTION
2
BLOCKS
0
BLOCK
5
20
100
AcDbEntity
100
AcDbBlockBegin
2
*MODEL_SPACE
0
ENDBLK
5
21
100
AcDbEntity
100
AcDbBlockEnd
0
BLOCK
5
1C
100
AcDbEntity
100
AcDbBlockBegin
2
*PAPER_SPACE
0
ENDBLK
5
1D
100
AcDbEntity
100
AcDbBlockEnd
0
ENDSEC
0
SECTION
2
ENTITIES
0
SPLINE
5
100
100
AcDbEntity
8
0
100
AcDbSpline
70
6
71
5
72
861
73
855
74
0
42
0.000000001
43
0.0000000001
44
0.0000000001
40
0
40
0
40
0
40
0
40
0
40
0
40
0.001176470588235294
40
0.002352941176470588
40
0.003529411764705882
40
0.0047058823529411761
40
0.0058823529411764705
40
0.007058823529411765
40
0.0082352941176470594
40
0.0094117647058823539
40
0.010588235294117648
40
0.011764705882352943
40
0.012941176470588237
40
0.014117647058823532
40
0.015294117647058826
40
0.016470588235294119
40
0.017647058823529412
40
0.018823529411764704
40
0.019999999999999997
40
0.02117647058823529
40
0.022352941176470582
40
0.023529411764705875
40
0.024705882352941168
40
0.025882352941176461
40
0.027058823529411753
40
0.028235294117647046
40
0.029411764705882339
40
0.030588235294117631
40
0.031764705882352924
40
0.032941176470588217
40
0.03411764705882351
40
0.035294117647058802
40
0.036470588235294095
40
0.037647058823529388
40
0.03882352941176468
40
0.039999999999999973
40
0.041176470588235266
40
0.042352941176470559
40
0.043529411764705851
40
0.044705882352941144
40
0.045882352941176437
40
0.047058823529411729
40
0.048235294117647022
40
0.049411764705882315
40
0.050588235294117607
40
0.0517647058823529
40
0.052941176470588193
40
0.054117647058823486
40
0.055294117647058778
40
0.056470588235294071
40
0.057647058823529364
40
0.058823529411764656
40
0.059999999999999949
40
0.061176470588235242
40
0.062352941176470535
40
0.063529411764705834
40
0.064705882352941127
40
0.06588235294117642
40
0.067058823529411712
40
0.068235294117647005
40
0.069411764705882298
40
0.070588235294117591
40
0.071764705882352883
40
0.072941176470588176
40
0.074117647058823469
40
0.075294117647058761
40
0.076470588235294054
40
0.077647058823529347
40
0.07882352941176464
40
0.079999999999999932
40
0.081176470588235225
40
0.082352941176470518
40
0.08352941176470581
40
0.084705882352941103
40
0.085882352941176396
40
0.087058823529411689
40
0.088235294117646981
40
0.089411764705882274
40
0.090588235294117567
40
0.091764705882352859
40
0.092941176470588152
40
0.094117647058823445
40
0.095294117647058738
40
0.09647058823529403
40
0.097647058823529323
40
0.098823529411764616
40
0.099999999999999908
40
0.1011764705882352
40
0.10235294117647049
40
0.10352941176470579
40
0.10470588235294108
40
0.10588235294117637
40
0.10705882352941166
40
0.10823529411764696
40
0.10941176470588225
40
0.11058823529411754
40
0.11176470588235284
40
0.11294117647058813
40
0.11411764705882342
40
0.11529411764705871
40
0.11647058823529401
40
0.1176470588235293
40
0.11882352941176459
40
0.11999999999999988
40
0.12117647058823518
40
0.12235294117647047
40
0.12352941176470576
40
0.12470588235294106
40
0.12588235294117636
40
0.12705882352941167
40
0.12823529411764698
40
0.12941176470588228
40
0.13058823529411759
40
0.13176470588235289
40
0.1329411764705882
40
0.13411764705882351
40
0.13529411764705881
40
0.13647058823529412
40
0.13764705882352943
40
0.13882352941176473
40
0.14000000000000004
40
0.14117647058823535
40
0.14235294117647065
40
0.14352941176470596
40
0.14470588235294127
40
0.14588235294117657
40
0.14705882352941188
40
0.14823529411764719
40
0.14941176470588249
40
0.1505882352941178
40
0.15176470588235311
40
0.15294117647058841
40
0.15411764705882372
40
0.15529411764705903
40
0.15647058823529433
40
0.15764705882352964
40
0.15882352941176495
40
0.16000000000000025
40
0.16117647058823556
40
0.16235294117647087
40
0.16352941176470617
40
0.16470588235294148
40
0.16588235294117679
40
0.16705882352941209
40
0.1682352941176474
40
0.16941176470588271
40
0.17058823529411801
40
0.17176470588235332
40
0.17294117647058863
40
0.17411764705882393
40
0.17529411764705924
40
0.17647058823529455
40
0.17764705882352985
40
0.17882352941176516
40
0.18000000000000047
40
0.18117647058823577
40
0.18235294117647108
40
0.18352941176470638
40
0.18470588235294169
40
0.185882352941177
40
0.1870588235294123
40
0.18823529411764761
40
0.18941176470588292
40
0.19058823529411822
40
0.19176470588235353
40
0.19294117647058884
40
0.19411764705882414
40
0.19529411764705945
40
0.19647058823529476
40
0.19764705882353006
40
0.19882352941176537
40
0.20000000000000068
40
0.20117647058823598
40
0.20235294117647129
40
0.2035294117647066
40
0.2047058823529419
40
0.20588235294117721
40
0.20705882352941252
40
0.20823529411764782
40
0.20941176470588313
40
0.21058823529411844
40
0.21176470588235374
40
0.21294117647058905
40
0.21411764705882436
40
0.21529411764705966
40
0.21647058823529497
40
0.21764705882353028
40
0.21882352941176558
40
0.22000000000000089
40
0.2211764705882362
40
0.2223529411764715
40
0.22352941176470681
40
0.22470588235294212
40
0.22588235294117742
40
0.22705882352941273
40
0.22823529411764804
40
0.22941176470588334
40
0.23058823529411865
40
0.23176470588235396
40
0.23294117647058926
40
0.23411764705882457
40
0.23529411764705987
40
0.23647058823529518
40
0.23764705882353049
40
0.23882352941176579
40
0.2400000000000011
40
0.24117647058823641
40
0.24235294117647171
40
0.24352941176470702
40
0.24470588235294233
40
0.24588235294117763
40
0.24705882352941294
40
0.24823529411764825
40
0.24941176470588355
40
0.25058823529411883
40
0.25176470588235411
40
0.25294117647058939
40
0.25411764705882467
40
0.25529411764705995
40
0.25647058823529523
40
0.25764705882353051
40
0.25882352941176578
40
0.26000000000000106
40
0.26117647058823634
40
0.26235294117647162
40
0.2635294117647069
40
0.26470588235294218
40
0.26588235294117746
40
0.26705882352941274
40
0.26823529411764802
40
0.26941176470588329
40
0.27058823529411857
40
0.27176470588235385
40
0.27294117647058913
40
0.27411764705882441
40
0.27529411764705969
40
0.27647058823529497
40
0.27764705882353025
40
0.27882352941176552
40
0.2800000000000008
40
0.28117647058823608
40
0.28235294117647136
40
0.28352941176470664
40
0.28470588235294192
40
0.2858823529411772
40
0.28705882352941248
40
0.28823529411764776
40
0.28941176470588303
40
0.29058823529411831
40
0.29176470588235359
40
0.29294117647058887
40
0.29411764705882415
40
0.29529411764705943
40
0.29647058823529471
40
0.29764705882352999
40
0.29882352941176527
40
0.30000000000000054
40
0.30117647058823582
40
0.3023529411764711
40
0.30352941176470638
40
0.30470588235294166
40
0.30588235294117694
40
0.30705882352941222
40
0.3082352941176475
40
0.30941176470588277
40
0.31058823529411805
40
0.31176470588235333
40
0.31294117647058861
40
0.31411764705882389
40
0.31529411764705917
40
0.31647058823529445
40
0.31764705882352973
40
0.31882352941176501
40
0.32000000000000028
40
0.32117647058823556
40
0.32235294117647084
40
0.32352941176470612
40
0.3247058823529414
40
0.32588235294117668
40
0.32705882352941196
40
0.32823529411764724
40
0.32941176470588251
40
0.33058823529411779
40
0.33176470588235307
40
0.33294117647058835
40
0.33411764705882363
40
0.33529411764705891
40
0.33647058823529419
40
0.33764705882352947
40
0.33882352941176475
40
0.34000000000000002
40
0.3411764705882353
40
0.34235294117647058
40
0.34352941176470586
40
0.34470588235294114
40
0.34588235294117642
40
0.3470588235294117
40
0.34823529411764698
40
0.34941176470588226
40
0.35058823529411753
40
0.35176470588235281
40
0.35294117647058809
40
0.35411764705882337
40
0.35529411764705865
40
0.35647058823529393
40
0.35764705882352921
40
0.35882352941176449
40
0.35999999999999976
40
0.36117647058823504
40
0.36235294117647032
40
0.3635294117647056
40
0.36470588235294088
40
0.36588235294117616
40
0.36705882352941144
40
0.36823529411764672
40
0.369411764705882
40
0.37058823529411727
40
0.37176470588235255
40
0.37294117647058783
40
0.37411764705882311
40
0.37529411764705839
40
0.37647058823529367
40
0.37764705882352895
40
0.37882352941176423
40
0.3799999999999995
40
0.38117647058823478
40
0.38235294117647006
40
0.38352941176470534
40
0.38470588235294062
40
0.3858823529411759
40
0.38705882352941118
40
0.38823529411764646
40
0.38941176470588174
40
0.39058823529411701
40
0.39176470588235229
40
0.39294117647058757
40
0.39411764705882285
40
0.39529411764705813
40
0.39647058823529341
40
0.39764705882352869
40
0.39882352941176397
40
0.39999999999999925
40
0.40117647058823452
40
0.4023529411764698
40
0.40352941176470508
40
0.40470588235294036
40
0.40588235294117564
40
0.40705882352941092
40
0.4082352941176462
40
0.40941176470588148
40
0.41058823529411675
40
0.41176470588235203
40
0.41294117647058731
40
0.41411764705882259
40
0.41529411764705787
40
0.41647058823529315
40
0.41764705882352843
40
0.41882352941176371
40
0.41999999999999899
40
0.42117647058823426
40
0.42235294117646954
40
0.42352941176470482
40
0.4247058823529401
40
0.42588235294117538
40
0.42705882352941066
40
0.42823529411764594
40
0.42941176470588122
40
0.43058823529411649
40
0.43176470588235177
40
0.43294117647058705
40
0.43411764705882233
40
0.43529411764705761
40
0.43647058823529289
40
0.43764705882352817
40
0.43882352941176345
40
0.43999999999999873
40
0.441176470588234
40
0.44235294117646928
40
0.44352941176470456
40
0.44470588235293984
40
0.44588235294117512
40
0.4470588235294104
40
0.44823529411764568
40
0.44941176470588096
40
0.45058823529411623
40
0.45176470588235151
40
0.45294117647058679
40
0.45411764705882207
40
0.45529411764705735
40
0.45647058823529263
40
0.45764705882352791
40
0.45882352941176319
40
0.45999999999999847
40
0.46117647058823374
40
0.46235294117646902
40
0.4635294117647043
40
0.46470588235293958
40
0.46588235294117486
40
0.46705882352941014
40
0.46823529411764542
40
0.4694117647058807
40
0.47058823529411598
40
0.47176470588235125
40
0.47294117647058653
40
0.47411764705882181
40
0.47529411764705709
40
0.47647058823529237
40
0.47764705882352765
40
0.47882352941176293
40
0.47999999999999821
40
0.48117647058823348
40
0.48235294117646876
40
0.48352941176470404
40
0.48470588235293932
40
0.4858823529411746
40
0.48705882352940988
40
0.48823529411764516
40
0.48941176470588044
40
0.49058823529411572
40
0.49176470588235099
40
0.49294117647058627
40
0.49411764705882155
40
0.49529411764705683
40
0.49647058823529211
40
0.49764705882352739
40
0.49882352941176267
40
0.49999999999999795
40
0.50117647058823322
40
0.50235294117646856
40
0.50352941176470389
40
0.50470588235293923
40
0.50588235294117456
40
0.5070588235294099
40
0.50823529411764523
40
0.50941176470588057
40
0.5105882352941159
40
0.51176470588235123
40
0.51294117647058657
40
0.5141176470588219
40
0.51529411764705724
40
0.51647058823529257
40
0.51764705882352791
40
0.51882352941176324
40
0.51999999999999857
40
0.52117647058823391
40
0.52235294117646924
40
0.52352941176470458
40
0.52470588235293991
40
0.52588235294117525
40
0.52705882352941058
40
0.52823529411764591
40
0.52941176470588125
40
0.53058823529411658
40
0.53176470588235192
40
0.53294117647058725
40
0.53411764705882259
40
0.53529411764705792
40
0.53647058823529326
40
0.53764705882352859
40
0.53882352941176392
40
0.53999999999999926
40
0.54117647058823459
40
0.54235294117646993
40
0.54352941176470526
40
0.5447058823529406
40
0.54588235294117593
40
0.54705882352941126
40
0.5482352941176466
40
0.54941176470588193
40
0.55058823529411727
40
0.5517647058823526
40
0.55294117647058794
40
0.55411764705882327
40
0.5552941176470586
40
0.55647058823529394
40
0.55764705882352927
40
0.55882352941176461
40
0.55999999999999994
40
0.56117647058823528
40
0.56235294117647061
40
0.56352941176470595
40
0.56470588235294128
40
0.56588235294117661
40
0.56705882352941195
40
0.56823529411764728
40
0.56941176470588262
40
0.57058823529411795
40
0.57176470588235329
40
0.57294117647058862
40
0.57411764705882395
40
0.57529411764705929
40
0.57647058823529462
40
0.57764705882352996
40
0.57882352941176529
40
0.58000000000000063
40
0.58117647058823596
40
0.58235294117647129
40
0.58352941176470663
40
0.58470588235294196
40
0.5858823529411773
40
0.58705882352941263
40
0.58823529411764797
40
0.5894117647058833
40
0.59058823529411864
40
0.59176470588235397
40
0.5929411764705893
40
0.59411764705882464
40
0.59529411764705997
40
0.59647058823529531
40
0.59764705882353064
40
0.59882352941176598
40
0.60000000000000131
40
0.60117647058823664
40
0.60235294117647198
40
0.60352941176470731
40
0.60470588235294265
40
0.60588235294117798
40
0.60705882352941332
40
0.60823529411764865
40
0.60941176470588398
40
0.61058823529411932
40
0.61176470588235465
40
0.61294117647058999
40
0.61411764705882532
40
0.61529411764706066
40
0.61647058823529599
40
0.61764705882353133
40
0.61882352941176666
40
0.62000000000000199
40
0.62117647058823733
40
0.62235294117647266
40
0.623529411764708
40
0.62470588235294333
40
0.62588235294117867
40
0.627058823529414
40
0.62823529411764933
40
0.62941176470588467
40
0.63058823529412
40
0.63176470588235534
40
0.63294117647059067
40
0.63411764705882601
40
0.63529411764706134
40
0.63647058823529667
40
0.63764705882353201
40
0.63882352941176734
40
0.64000000000000268
40
0.64117647058823801
40
0.64235294117647335
40
0.64352941176470868
40
0.64470588235294402
40
0.64588235294117935
40
0.64705882352941468
40
0.64823529411765002
40
0.64941176470588535
40
0.65058823529412069
40
0.65176470588235602
40
0.65294117647059136
40
0.65411764705882669
40
0.65529411764706202
40
0.65647058823529736
40
0.65764705882353269
40
0.65882352941176803
40
0.66000000000000336
40
0.6611764705882387
40
0.66235294117647403
40
0.66352941176470936
40
0.6647058823529447
40
0.66588235294118003
40
0.66705882352941537
40
0.6682352941176507
40
0.66941176470588604
40
0.67058823529412137
40
0.67176470588235671
40
0.67294117647059204
40
0.67411764705882737
40
0.67529411764706271
40
0.67647058823529804
40
0.67764705882353338
40
0.67882352941176871
40
0.68000000000000405
40
0.68117647058823938
40
0.68235294117647471
40
0.68352941176471005
40
0.68470588235294538
40
0.68588235294118072
40
0.68705882352941605
40
0.68823529411765139
40
0.68941176470588672
40
0.69058823529412205
40
0.69176470588235739
40
0.69294117647059272
40
0.69411764705882806
40
0.69529411764706339
40
0.69647058823529873
40
0.69764705882353406
40
0.6988235294117694
40
0.70000000000000473
40
0.70117647058824006
40
0.7023529411764754
40
0.70352941176471073
40
0.70470588235294607
40
0.7058823529411814
40
0.70705882352941674
40
0.70823529411765207
40
0.7094117647058874
40
0.71058823529412274
40
0.71176470588235807
40
0.71294117647059341
40
0.71411764705882874
40
0.71529411764706408
40
0.71647058823529941
40
0.71764705882353474
40
0.71882352941177008
40
0.72000000000000541
40
0.72117647058824075
40
0.72235294117647608
40
0.72352941176471142
40
0.72470588235294675
40
0.72588235294118209
40
0.72705882352941742
40
0.72823529411765275
40
0.72941176470588809
40
0.73058823529412342
40
0.73176470588235876
40
0.73294117647059409
40
0.73411764705882943
40
0.73529411764706476
40
0.73647058823530009
40
0.73764705882353543
40
0.73882352941177076
40
0.7400000000000061
40
0.74117647058824143
40
0.74235294117647677
40
0.7435294117647121
40
0.74470588235294743
40
0.74588235294118277
40
0.7470588235294181
40
0.74823529411765344
40
0.74941176470588877
40
0.75058823529412411
40
0.75176470588235944
40
0.75294117647059478
40
0.75411764705883011
40
0.75529411764706544
40
0.75647058823530078
40
0.75764705882353611
40
0.75882352941177145
40
0.76000000000000678
40
0.76117647058824212
40
0.76235294117647745
40
0.76352941176471278
40
0.76470588235294812
40
0.76588235294118345
40
0.76705882352941879
40
0.76823529411765412
40
0.76941176470588946
40
0.77058823529412479
40
0.77176470588236012
40
0.77294117647059546
40
0.77411764705883079
40
0.77529411764706613
40
0.77647058823530146
40
0.7776470588235368
40
0.77882352941177213
40
0.78000000000000747
40
0.7811764705882428
40
0.78235294117647813
40
0.78352941176471347
40
0.7847058823529488
40
0.78588235294118414
40
0.78705882352941947
40
0.78823529411765481
40
0.78941176470589014
40
0.79058823529412547
40
0.79176470588236081
40
0.79294117647059614
40
0.79411764705883148
40
0.79529411764706681
40
0.79647058823530215
40
0.79764705882353748
40
0.79882352941177281
40
0.80000000000000815
40
0.80117647058824348
40
0.80235294117647882
40
0.80352941176471415
40
0.80470588235294949
40
0.80588235294118482
40
0.80705882352942016
40
0.80823529411765549
40
0.80941176470589082
40
0.81058823529412616
40
0.81176470588236149
40
0.81294117647059683
40
0.81411764705883216
40
0.8152941176470675
40
0.81647058823530283
40
0.81764705882353816
40
0.8188235294117735
40
0.82000000000000883
40
0.82117647058824417
40
0.8223529411764795
40
0.82352941176471484
40
0.82470588235295017
40
0.8258823529411855
40
0.82705882352942084
40
0.82823529411765617
40
0.82941176470589151
40
0.83058823529412684
40
0.83176470588236218
40
0.83294117647059751
40
0.83411764705883285
40
0.83529411764706818
40
0.83647058823530351
40
0.83764705882353885
40
0.83882352941177418
40
0.84000000000000952
40
0.84117647058824485
40
0.84235294117648019
40
0.84352941176471552
40
0.84470588235295085
40
0.84588235294118619
40
0.84705882352942152
40
0.84823529411765686
40
0.84941176470589219
40
0.85058823529412753
40
0.85176470588236286
40
0.85294117647059819
40
0.85411764705883353
40
0.85529411764706886
40
0.8564705882353042
40
0.85764705882353953
40
0.85882352941177487
40
0.8600000000000102
40
0.86117647058824554
40
0.86235294117648087
40
0.8635294117647162
40
0.86470588235295154
40
0.86588235294118687
40
0.86705882352942221
40
0.86823529411765754
40
0.86941176470589288
40
0.87058823529412821
40
0.87176470588236354
40
0.87294117647059888
40
0.87411764705883421
40
0.87529411764706955
40
0.87647058823530488
40
0.87764705882354022
40
0.87882352941177555
40
0.88000000000001088
40
0.88117647058824622
40
0.88235294117648155
40
0.88352941176471689
40
0.88470588235295222
40
0.88588235294118756
40
0.88705882352942289
40
0.88823529411765823
40
0.88941176470589356
40
0.89058823529412889
40
0.89176470588236423
40
0.89294117647059956
40
0.8941176470588349
40
0.89529411764707023
40
0.89647058823530557
40
0.8976470588235409
40
0.89882352941177623
40
0.90000000000001157
40
0.9011764705882469
40
0.90235294117648224
40
0.90352941176471757
40
0.90470588235295291
40
0.90588235294118824
40
0.90705882352942357
40
0.90823529411765891
40
0.90941176470589424
40
0.91058823529412958
40
0.91176470588236491
40
0.91294117647060025
40
0.91411764705883558
40
0.91529411764707092
40
0.91647058823530625
40
0.91764705882354158
40
0.91882352941177692
40
0.92000000000001225
40
0.92117647058824759
40
0.92235294117648292
40
0.92352941176471826
40
0.92470588235295359
40
0.92588235294118892
40
0.92705882352942426
40
0.92823529411765959
40
0.92941176470589493
40
0.93058823529413026
40
0.9317647058823656
40
0.93294117647060093
40
0.93411764705883626
40
0.9352941176470716
40
0.93647058823530693
40
0.93764705882354227
40
0.9388235294117776
40
0.94000000000001294
40
0.94117647058824827
40
0.94235294117648361
40
0.94352941176471894
40
0.94470588235295427
40
0.94588235294118961
40
0.94705882352942494
40
0.94823529411766028
40
0.94941176470589561
40
0.95058823529413095
40
0.95176470588236628
40
0.95294117647060161
40
0.95411764705883695
40
0.95529411764707228
40
0.95647058823530762
40
0.95764705882354295
40
0.95882352941177829
40
0.96000000000001362
40
0.96117647058824895
40
0.96235294117648429
40
0.96352941176471962
40
0.96470588235295496
40
0.96588235294119029
40
0.96705882352942563
40
0.96823529411766096
40
0.96941176470589629
40
0.97058823529413163
40
0.97176470588236696
40
0.9729411764706023
40
0.97411764705883763
40
0.97529411764707297
40
0.9764705882353083
40
0.97764705882354364
40
0.97882352941177897
40
0.9800000000000143
40
0.98117647058824964
40
0.98235294117648497
40
0.98352941176472031
40
0.98470588235295564
40
0.98588235294119098
40
0.98705882352942631
40
0.98823529411766164
40
0.98941176470589698
40
0.99058823529413231
40
0.99176470588236765
40
0.99294117647060298
40
0.99411764705883832
40
0.99529411764707365
40
0.99647058823530898
40
0.99764705882354432
40
0.99882352941177965
40
1
40
1
40
1
40
1
40
1
40
1
41
1
41
1
41
1
41
1
41
1
41
1
41
1
41
1
41
1
41
1
41
1
41
1
41
1
41
1
41
1
41
1
41
1
41
1
41
1
41
1
41
1
41
1
41
1
41
1
41
1
41
1
41
1
41
1
41
1
41
1
41
1
41
1
41
1
41
1
41
1
41
1
41
1
41
1
41
1
41
1
41
1
41
1
41
1
41
1
41
1
41
1
41
1
41
1
41
1
41
1
41
1
41
1
41
1
41
1
41
1
41
1
41
1
41
1
41
1
41
1
41
1
41
1
41
1
41
1
41
1
41
1
41
1
41
1
41
1
41
1
41
1
41
1
41
1
41
1
41
1
41
1
41
1
41
1
41
1
41
1
41
1
41
1
41
1
41
1
41
1
41
1
41
1
41
1
41
1
41
1
41
1
41
1
41
1
41
1
41
1
41
1
41
1
41
1
41
1
41
1
41
1
41
1
41
1
41
1
41
1
41
1
41
1
41
1
41
1
41
1
41
1
41
1
41
1
41
1
41
1
41
1
41
1
41
1
41
1
41
1
41
1
41
1
41
1
41
1
41
1
41
1
41
1
41
1
41
1
41
1
41
1
41
1
41
1
41
1
41
1
41
1
41
1
41
1
41
1
41
1
41
1
41
1
41
1
41
1
41
1
41
1
41
1
41
1
41
1
41
1
41
1
41
1
41
1
41
1
41
1
41
1
41
1
41
1
41
1
41
1
41
1
41
1
41
1
41
1
41
1
41
1
41
1
41
1
41
1
41
1
41
1
41
1
41
1
41
1
41
1
41
1
41
1
41
1
41
1
41
1
41
1
41
1
41
1
41
1
41
1
41
1
41
1
41
1
41
1
41
1
41
1
41
1
41
1
41
1
41
1
41
1
41
1
41
1
41
1
41
1
41
1
41
1
41
1
41
1
41
1
41
1
41
1
41
1
41
1
41
1
41
1
41
1
41
1
41
1
41
1
41
1
41
1
41
1
41
1
41
1
41
1
41
1
41
1
41
1
41
1
41
1
41
1
41
1
41
1
41
1
41
1
41
1
41
1
41
1
41
1
41
1
41
1
41
1
41
1
41
1
41
1
41
1
41
1
41
1
41
1
41
1
41
1
41
1
41
1
41
1
41
1
41
1
41
1
41
1
41
1
41
1
41
1
41
1
41
1
41
1
41
1
41
1
41
1
41
1
41
1
41
1
41
1
41
1
41
1
41
1
41
1
41
1
41
1
41
1
41
1
41
1
41
1
41
1
41
1
41
1
41
1
41
1
41
1
41
1
41
1
41
1
41
1
41
1
41
1
41
1
41
1
41
1
41
1
41
1
41
1
41
1
41
1
41
1
41
1
41
1
41
1
41
1
41
1
41
1
41
1
41
1
41
1
41
1
41
1
41
1
41
1
41
1
41
1
41
1
41
1
41
1
41
1
41
1
41
1
41
1
41
1
41
1
41
1
41
1
41
1
41
1
41
1
41
1
41
1
41
1
41
1
41
1
41
1
41
1
41
1
41
1
41
1
41
1
41
1
41
1
41
1
41
1
41
1
41
1
41
1
41
1
41
1
41
1
41
1
41
1
41
1
41
1
41
1
41
1
41
1
41
1
41
1
41
1
41
1
41
1
41
1
41
1
41
1
41
1
41
1
41
1
41
1
41
1
41
1
41
1
41
1
41
1
41
1
41
1
41
1
41
1
41
1
41
1
41
1
41
1
41
1
41
1
41
1
41
1
41
1
41
1
41
1
41
1
41
1
41
1
41
1
41
1
41
1
41
1
41
1
41
1
41
1
41
1
41
1
41
1
41
1
41
1
41
1
41
1
41
1
41
1
41
1
41
1
41
1
41
1
41
1
41
1
41
1
41
1
41
1
41
1
41
1
41
1
41
1
41
1
41
1
41
1
41
1
41
1
41
1
41
1
41
1
41
1
41
1
41
1
41
1
41
1
41
1
41
1
41
1
41
1
41
1
41
1
41
1
41
1
41
1
41
1
41
1
41
1
41
1
41
1
41
1
41
1
41
1
41
1
41
1
41
1
41
1
41
1
41
1
41
1
41
1
41
1
41
1
41
1
41
1
41
1
41
1
41
1
41
1
41
1
41
1
41
1
41
1
41
1
41
1
41
1
41
1
41
1
41
1
41
1
41
1
41
1
41
1
41
1
41
1
41
1
41
1
41
1
41
1
41
1
41
1
41
1
41
1
41
1
41
1
41
1
41
1
41
1
41
1
41
1
41
1
41
1
41
1
41
1
41
1
41
1
41
1
41
1
41
1
41
1
41
1
41
1
41
1
41
1
41
1
41
1
41
1
41
1
41
1
41
1
41
1
41
1
41
1
41
1
41
1
41
1
41
1
41
1
41
1
41
1
41
1
41
1
41
1
41
1
41
1
41
1
41
1
41
1
41
1
41
1
41
1
41
1
41
1
41
1
41
1
41
1
41
1
41
1
41
1
41
1
41
1
41
1
41
1
41
1
41
1
41
1
41
1
41
1
41
1
41
1
41
1
41
1
41
1
41
1
41
1
41
1
41
1
41
1
41
1
41
1
41
1
41
1
41
1
41
1
41
1
41
1
41
1
41
1
41
1
41
1
41
1
41
1
41
1
41
1
41
1
41
1
41
1
41
1
41
1
41
1
41
1
41
1
41
1
41
1
41
1
41
1
41
1
41
1
41
1
41
1
41
1
41
1
41
1
41
1
41
1
41
1
41
1
41
1
41
1
41
1
41
1
41
1
41
1
41
1
41
1
41
1
41
1
41
1
41
1
41
1
41
1
41
1
41
1
41
1
41
1
41
1
41
1
41
1
41
1
41
1
41
1
41
1
41
1
41
1
41
1
41
1
41
1
41
1
41
1
41
1
41
1
41
1
41
1
41
1
41
1
41
1
41
1
41
1
41
1
41
1
41
1
41
1
41
1
41
1
41
1
41
1
41
1
41
1
41
1
41
1
41
1
41
1
41
1
41
1
41
1
41
1
41
1
41
1
41
1
41
1
41
1
41
1
41
1
41
1
41
1
41
1
41
1
41
1
41
1
41
1
41
1
41
1
41
1
41
1
41
1
41
1
41
1
41
1
41
1
41
1
41
1
41
1
41
1
41
1
41
1
41
1
41
1
41
1
41
1
41
1
41
1
41
1
41
1
41
1
41
1
41
1
41
1
41
1
41
1
41
1
41
1
41
1
41
1
41
1
41
1
41
1
41
1
41
1
41
1
41
1
41
1
41
1
41
1
41
1
41
1
41
1
41
1
41
1
41
1
41
1
41
1
41
1
41
1
41
1
41
1
41
1
41
1
41
1
41
1
41
1
41
1
41
1
41
1
41
1
41
1
41
1
41
1
41
1
41
1
41
1
41
1
41
1
41
1
41
1
41
1
41
1
41
1
41
1
41
1
41
1
41
1
41
1
41
1
41
1
41
1
41
1
41
1
41
1
41
1
41
1
41
1
41
1
41
1
41
1
41
1
41
1
41
1
41
1
41
1
41
1
41
1
41
1
41
1
41
1
41
1
41
1
41
1
41
1
41
1
41
1
41
1
41
1
41
1
41
1
41
1
41
1
41
1
41
1
41
1
41
1
41
1
41
1
41
1
41
1
41
1
41
1
41
1
41
1
41
1
41
1
41
1
41
1
41
1
41
1
41
1
41
1
41
1
41
1
41
1
41
1
41
1
41
1
41
1
41
1
41
1
41
1
41
1
41
1
41
1
41
1
41
1
41
1
41
1
41
1
41
1
41
1
41
1
41
1
41
1
41
1
41
1
41
1
41
1
41
1
41
1
41
1
41
1
41
1
41
1
41
1
41
1
41
1
41
1
41
1
41
1
41
1
41
1
41
1
41
1
10
41.093699999999998
20
-66.641999999999996
30
0
10
41.040113754712792
20
-66.66085025721739
30
0
10
40.931258151271372
20
-66.697405989527411
30
0
10
40.761350066998588
20
-66.749430168317801
30
0
10
40.51908795996161
20
-66.81283632045205
30
0
10
40.196942063595316
20
-66.87478526035315
30
0
10
39.869388610557564
20
-66.912346254882451
30
0
10
39.551569198048135
20
-66.927424011571219
30
0
10
39.253282669579782
20
-66.926123482498937
30
0
10
38.974010793595902
20
-66.912559947767932
30
0
10
38.693883853235313
20
-66.880987659944481
30
0
10
38.383203082230438
20
-66.819217041665098
30
0
10
38.018562603869562
20
-66.716766364407178
30
0
10
37.60104970050886
20
-66.573323077601771
30
0
10
37.157907319576729
20
-66.400219343196284
30
0
10
36.726062762938284
20
-66.213869225386802
30
0
10
36.340756182757922
20
-66.031477703595144
30
0
10
36.021850359778298
20
-65.865729531428741
30
0
10
35.761783049554992
20
-65.72014089000055
30
0
10
35.537200008093485
20
-65.588286410948456
30
0
10
35.319699133139736
20
-65.453632476457386
30
0
10
35.087575989717443
20
-65.287686424829246
30
0
10
34.828882797419929
20
-65.062400046964925
30
0
10
34.542688624453376
20
-64.762642643095106
30
0
10
34.242270398659144
20
-64.402603228522324
30
0
10
33.950176387928032
20
-64.018422925492501
30
0
10
33.689824832728632
20
-63.650344827308771
30
0
10
33.478767976690229
20
-63.329341162635693
30
0
10
33.319995278327738
20
-63.059411451348801
30
0
10
33.197991424631184
20
-62.809344724204799
30
0
10
33.08968809233783
20
-62.533368045604938
30
0
10
32.973243469612029
20
-62.187577355415343
30
0
10
32.836980597721862
20
-61.746753299730628
30
0
10
32.676831090886665
20
-61.200100380773094
30
0
10
32.494620006796488
20
-60.548547126634688
30
0
10
32.296043058759778
20
-59.801465171601606
30
0
10
32.088729597987864
20
-58.973573396230236
30
0
10
31.880375050328247
20
-58.081909369480002
30
0
10
31.676567830153438
20
-57.142391181646857
30
0
10
31.480656325226381
20
-56.169191413500918
30
0
10
31.294209845831816
20
-55.174933553859347
30
0
10
31.11727941430312
20
-54.170611302325625
30
0
10
30.948742627514694
20
-53.165623736630756
30
0
10
30.786611764961698
20
-52.167761092657621
30
0
10
30.628359205736004
20
-51.183210915924278
30
0
10
30.471231909497199
20
-50.216557451607251
30
0
10
30.312578689277156
20
-49.270779220764744
30
0
10
30.150152956121012
20
-48.347258439971235
30
0
10
29.982475781592925
20
-47.445756348694708
30
0
10
29.808774812118077
20
-46.564635085151508
30
0
10
29.628826717346321
20
-45.70113589751309
30
0
10
29.442832604316884
20
-44.851638132720225
30
0
10
29.251279804977575
20
-44.011926044464957
30
0
10
29.054809054809837
20
-43.177452786874994
30
0
10
28.854080429819938
20
-42.343604338376352
30
0
10
28.649637313272464
20
-41.505966425161446
30
0
10
28.441777119182436
20
-40.660583146966673
30
0
10
28.230403283960005
20
-39.804237944526619
30
0
10
28.015098801216695
20
-38.934471400730843
30
0
10
27.795224319336469
20
-38.049569686204975
30
0
10
27.570007637840671
20
-37.148563680403456
30
0
10
27.338636461435403
20
-36.231223154015538
30
0
10
27.100350603843452
20
-35.298054108432126
30
0
10
26.854532455024348
20
-34.350292376849922
30
0
10
26.600802783528259
20
-33.389904387394942
30
0
10
26.339103531751572
20
-32.419571897578869
30
0
10
26.069812495861513
20
-31.442715414820984
30
0
10
25.793747291010053
20
-30.463383679451105
30
0
10
25.512026886046264
20
-29.485970834711427
30
0
10
25.225969048340133
20
-28.514977173868871
30
0
10
24.93697300893
20
-27.554751657205621
30
0
10
24.646408944155812
20
-26.60924350028332
30
0
10
24.355503385976878
20
-25.681746907968503
30
0
10
24.065229027313496
20
-24.774655599327446
30
0
10
23.776186490442623
20
-23.889197200987752
30
0
10
23.488503906456941
20
-23.025213472010826
30
0
10
23.201693438971329
20
-22.180829148003486
30
0
10
22.914662512543053
20
-21.352521376283264
30
0
10
22.62589462545218
20
-20.535628289943404
30
0
10
22.333585655619885
20
-19.724742418124922
30
0
10
22.035797757906916
20
-18.914149417050748
30
0
10
21.730606980559163
20
-18.098251088754264
30
0
10
21.416250678434782
20
-17.271986587291735
30
0
10
21.091281767750374
20
-16.431274334694606
30
0
10
20.754704235936117
20
-15.57339840275784
30
0
10
20.406156175169055
20
-14.697535217606493
30
0
10
20.045901095789201
20
-13.80471452013548
30
0
10
19.674673937294017
20
-12.897351589024007
30
0
10
19.293569362489858
20
-11.978904248948441
30
0
10
18.903912422892081
20
-11.05347779934217
30
0
10
18.507137309751318
20
-10.125453951993016
30
0
10
18.104661402532962
20
-9.1991055395175358
30
0
10
17.697764185214773
20
-8.2782264080016681
30
0
10
17.287457457713508
20
-7.3657337148817517
30
0
10
16.874374765984697
20
-6.4633313984292222
30
0
10
16.458613694176229
20
-5.571023486964668
30
0
10
16.039777899027275
20
-4.6872638392526547
30
0
10
15.617147823102806
20
-3.8095160586880148
30
0
10
15.189812720783991
20
-2.9346898398660666
30
0
10
14.756818832084353
20
-2.0596294363020498
30
0
10
14.317310243307833
20
-1.1815772833052536
30
0
10
13.870673798253515
20
-0.29865410785608498
30
0
10
13.416680171354976
20
0.58968150360286875
30
0
10
12.955631468949406
20
1.4821334146414515
30
0
10
12.488494606779954
20
2.3751587702322534
30
0
10
12.017069700677139
20
3.2623346593375659
30
0
10
11.543999609638435
20
4.1347383840396992
30
0
10
11.072690804060024
20
4.981879231556146
30
0
10
10.607265080817136
20
5.7924614697546017
30
0
10
10.15249097300746
20
6.555213362174829
30
0
10
9.7137412231108016
20
7.2596969204791915
30
0
10
9.2968987811535548
20
7.8971049362373975
30
0
10
8.9083785881510522
20
8.4611123661526566
30
0
10
8.5548794290141483
20
8.9485895742879649
30
0
10
8.2438248713456304
20
9.360671298793573
30
0
10
7.9797458597143409
20
9.7018153129439604
30
0
10
7.7587342063893159
20
9.9780703556194119
30
0
10
7.5643836112740326
20
10.195739983477683
30
0
10
7.3611472997955865
20
10.359568401304882
30
0
10
7.094937578154501
20
10.472110420937391
30
0
10
6.7131890345328147
20
10.536220865741793
30
0
10
6.1825059156815856
20
10.55713395463534
30
0
10
5.5044706965850558
20
10.544324706601234
30
0
10
4.7053977852652791
20
10.509809305428139
30
0
10
3.8288024789601232
20
10.466823591908788
30
0
10
2.9267409430866795
20
10.428339030837311
30
0
10
2.0518043020991463
20
10.40568351177297
30
0
10
1.2484297403510134
20
10.4070344824881
30
0
10
0.54544315866618232
20
10.436159736250609
30
0
10
-0.054218896471070095
20
10.490580733878085
30
0
10
-0.57443027983002171
20
10.561658747862593
30
0
10
-1.0526503921482444
20
10.637593804431331
30
0
10
-1.5301387679297411
20
10.705710406294614
30
0
10
-2.0406219517889648
20
10.755074480180969
30
0
10
-2.5999938781445886
20
10.778867776503434
30
0
10
-3.1945738431281336
20
10.777134870831366
30
0
10
-3.7916063686252732
20
10.753882476244279
30
0
10
-4.3506088467233912
20
10.714074418262292
30
0
10
-4.8352046703849334
20
10.660246277680239
30
0
10
-5.2229611038502597
20
10.590226192557605
30
0
10
-5.520462593800338
20
10.492076834390126
30
0
10
-5.7597402855840532
20
10.348635552758356
30
0
10
-5.9766857695048268
20
10.149851859458266
30
0
10
-6.1903224698390158
20
9.9071914140358501
30
0
10
-6.3936126438740022
20
9.6547046268827295
30
0
10
-6.5731039284962245
20
9.4215483242598985
30
0
10
-6.7239649046569561
20
9.2074158055510438
30
0
10
-6.8626737090824399
20
8.9651681225024475
30
0
10
-7.0115707335472308
20
8.6384949796463424
30
0
10
-7.187215697079397
20
8.1924259858155537
30
0
10
-7.3871288615120161
20
7.6469395400733298
30
0
10
-7.5973738650030631
20
7.0561531565552862
30
0
10
-7.799649934277177
20
6.4885011034136175
30
0
10
-7.979188328874999
20
6.0051050385235536
30
0
10
-8.130928563197779
20
5.6421211003000327
30
0
10
-8.2698329888123592
20
5.3834599881768161
30
0
10
-8.4257583595151608
20
5.1696215913293546
30
0
10
-8.6268474386711986
20
4.934137067382327
30
0
10
-8.8831163118421905
20
4.6381683177337054
30
0
10
-9.1796817162125262
20
4.2868859271983215
30
0
10
-9.4902515765091646
20
3.9059967214954616
30
0
10
-9.7861448699245184
20
3.527158181025698
30
0
10
-10.046702943503391
20
3.1705213230515432
30
0
10
-10.270203656606675
20
2.8265906397833529
30
0
10
-10.468020791403985
20
2.4673713566195654
30
0
10
-10.656522627434226
20
2.0616247849546077
30
0
10
-10.850494158913705
20
1.5871871391818269
30
0
10
-11.054246695552369
20
1.0479558798468145
30
0
10
-11.25982198502979
20
0.47634455158315947
30
0
10
-11.454354442308329
20
-0.083074561485408663
30
0
10
-11.625120655507921
20
-0.58518232614827737
30
0
10
-11.76560936139445
20
-0.99800172333132109
30
0
10
-11.880960662845947
20
-1.3151389404222482
30
0
10
-11.994182721941602
20
-1.5697033896426935
30
0
10
-12.133899489487501
20
-1.8122924053916436
30
0
10
-12.322649754502976
20
-2.0897466659236863
30
0
10
-12.562824460205755
20
-2.4200901237519394
30
0
10
-12.84069870619483
20
-2.796945680237406
30
0
10
-13.134855751524427
20
-3.2009943720960981
30
0
10
-13.422627367827719
20
-3.6084659724037174
30
0
10
-13.688473882428125
20
-4.0021536906796973
30
0
10
-13.927840489936699
20
-4.3770787358401835
30
0
10
-14.142600048751614
20
-4.7364197477251393
30
0
10
-14.338196375941939
20
-5.0894711383476388
30
0
10
-14.520243577119132
20
-5.4487917113877469
30
0
10
-14.691004856768002
20
-5.8277097585270994
30
0
10
-14.850013868088705
20
-6.2370209569445123
30
0
10
-14.995311409553821
20
-6.6812638331586243
30
0
10
-15.12448523159202
20
-7.1558844628885367
30
0
10
-15.235734104450234
20
-7.6422696391399212
30
0
10
-15.32912072343102
20
-8.1099300681887101
30
0
10
-15.408087474215446
20
-8.5288992231507539
30
0
10
-15.481021612353302
20
-8.8799597889328723
30
0
10
-15.562549448495904
20
-9.1651263235274367
30
0
10
-15.675590874475738
20
-9.4196347408932262
30
0
10
-15.841007919229074
20
-9.6899218608170017
30
0
10
-16.067823329475846
20
-10.011878776949917
30
0
10
-16.340579828042191
20
-10.384342802520885
30
0
10
-16.627092802800938
20
-10.778100206698436
30
0
10
-16.892337284052903
20
-11.155273575755025
30
0
10
-17.109060038561246
20
-11.483778508764416
30
0
10
-17.272533860135162
20
-11.757103457176592
30
0
10
-17.404551214812937
20
-12.001218674104173
30
0
10
-17.534947798883277
20
-12.254763346032835
30
0
10
-17.686495165678192
20
-12.553599701639037
30
0
10
-17.861450125534706
20
-12.916191383685753
30
0
10
-18.050328380979671
20
-13.348523404425926
30
0
10
-18.238235947697255
20
-13.846607099831536
30
0
10
-18.411585593024313
20
-14.399828655909326
30
0
10
-18.566074079292111
20
-14.994199519223493
30
0
10
-18.706433400197906
20
-15.614247420343403
30
0
10
-18.842225904379792
20
-16.244148958286459
30
0
10
-18.984978285323123
20
-16.869083415822786
30
0
10
-19.14460217113945
20
-17.476557484008673
30
0
10
-19.326482595894589
20
-18.05759558816224
30
0
10
-19.527398671666095
20
-18.608345579840389
30
0
10
-19.734992043358528
20
-19.130269133955714
30
0
10
-19.933290583931765
20
-19.627863378265825
30
0
10
-20.106815406139773
20
-20.106961063217629
30
0
10
-20.24536151014555
20
-20.572758353414184
30
0
10
-20.34824686807195
20
-21.028051959736448
30
0
10
-20.429455763864137
20
-21.471131798879433
30
0
10
-20.51095689067585
20
-21.89824864293098
30
0
10
-20.614496857682401
20
-22.306696226141661
30
0
10
-20.754827421436111
20
-22.697282128409615
30
0
10
-20.930219081526403
20
-23.07798579943784
30
0
10
-21.121918390633443
20
-23.463678979327888
30
0
10
-21.304772353143242
20
-23.870922541479281
30
0
10
-21.455074179684544
20
-24.313989846081579
30
0
10
-21.559453381660987
20
-24.800426656207442
30
0
10
-21.623541240674346
20
-25.326715985313349
30
0
10
-21.665596298070394
20
-25.880953155424681
30
0
10
-21.709939689595224
20
-26.445677431717236
30
0
10
-21.780175562281912
20
-27.000642356510312
30
0
10
-21.893162917153507
20
-27.525614547119183
30
0
10
-22.05103098125949
20
-28.003153652338582
30
0
10
-22.240700555171067
20
-28.421442840786305
30
0
10
-22.440234417941998
20
-28.777240080838734
30
0
10
-22.623271211697453
20
-29.078676364231178
30
0
10
-22.764281581124518
20
-29.348384293607349
30
0
10
-22.84337955682744
20
-29.625704992277463
30
0
10
-22.850567277933504
20
-29.949240202599604
30
0
10
-22.789609989542591
20
-30.341210241886692
30
0
10
-22.682855547069209
20
-30.789157224386937
30
0
10
-22.563073235374674
20
-31.258131462019307
30
0
10
-22.463277401187128
20
-31.706702061601479
30
0
10
-22.408592508177318
20
-32.100081681975382
30
0
10
-22.404131949056993
20
-32.428077350635462
30
0
10
-22.435863085629478
20
-32.707785767103573
30
0
10
-22.486042108215631
20
-32.968083298278586
30
0
10
-22.547477937143579
20
-33.237490672456779
30
0
10
-22.63091543483522
20
-33.534243789711049
30
0
10
-22.749756827293261
20
-33.868386889911953
30
0
10
-22.908284462699356
20
-34.241312705928657
30
0
10
-23.090749726051602
20
-34.646639412233469
30
0
10
-23.272323285034734
20
-35.073468763745723
30
0
10
-23.428356839008483
20
-35.509710220359445
30
0
10
-23.543220233858481
20
-35.94508869083986
30
0
10
-23.622011853802128
20
-36.374987346073979
30
0
10
-23.687322171407036
20
-36.800383015242858
30
0
10
-23.767872541140981
20
-37.225740660826688
30
0
10
-23.890091772520261
20
-37.657570658742046
30
0
10
-24.067575760710589
20
-38.102652285957355
30
0
10
-24.294153435855279
20
-38.566574986248497
30
0
10
-24.551535009714911
20
-39.053127549278109
30
0
10
-24.814914280909029
20
-39.563623352220418
30
0
10
-25.05959149699542
20
-40.096172305083172
30
0
10
-25.266636255456515
20
-40.645153415452867
30
0
10
-25.430310292748501
20
-41.200145698181807
30
0
10
-25.556526124905773
20
-41.747838736207484
30
0
10
-25.658206739608751
20
-42.274935142238647
30
0
10
-25.751569262342947
20
-42.770854350577501
30
0
10
-25.852225976904041
20
-43.230236163659313
30
0
10
-25.970878249219439
20
-43.656207633220568
30
0
10
-26.110720300362168
20
-44.06118974568912
30
0
10
-26.27003956836348
20
-44.460683314374492
30
0
10
-26.443945818345313
20
-44.86806278685669
30
0
10
-26.626314063144513
20
-45.289487466856272
30
0
10
-26.811975233480091
20
-45.717434189981468
30
0
10
-26.99603042276788
20
-46.135290622680138
30
0
10
-27.172230878031783
20
-46.524922676414036
30
0
10
-27.332038729285287
20
-46.872751502816769
30
0
10
-27.462567975813478
20
-47.177554331985185
30
0
10
-27.547718579401828
20
-47.453872743929466
30
0
10
-27.575218224305424
20
-47.726519454996101
30
0
10
-27.543181355356715
20
-48.027087127754172
30
0
10
-27.46483502176995
20
-48.389242940562305
30
0
10
-27.361470054061368
20
-48.842451808793193
30
0
10
-27.256745422220639
20
-49.405413745768712
30
0
10
-27.170942559681649
20
-50.080434277598094
30
0
10
-27.114037557257763
20
-50.845345816482499
30
0
10
-27.086358594848821
20
-51.658518016915316
30
0
10
-27.082193967592929
20
-52.468752700245894
30
0
10
-27.092483271430112
20
-53.22376440127951
30
0
10
-27.107780881982698
20
-53.878857022419766
30
0
10
-27.121357337523037
20
-54.406425759034519
30
0
10
-27.131645025944664
20
-54.802975440565021
30
0
10
-27.146467223833291
20
-55.102566046141419
30
0
10
-27.179057395587197
20
-55.360917827149372
30
0
10
-27.241276167117935
20
-55.629492738735998
30
0
10
-27.335650991722517
20
-55.925425148074865
30
0
10
-27.455521371362337
20
-56.23025661655155
30
0
10
-27.593040001190786
20
-56.516970714264474
30
0
10
-27.746333381123691
20
-56.773376561014956
30
0
10
-27.922875027659519
20
-57.014064671419419
30
0
10
-28.133149556873928
20
-57.261997363642145
30
0
10
-28.386197521301106
20
-57.535802368659333
30
0
10
-28.685150716228286
20
-57.837681907335686
30
0
10
-29.027715848540559
20
-58.159604613837345
30
0
10
-29.405787851095518
20
-58.486833599308483
30
0
10
-29.805657913097004
20
-58.802417774294966
30
0
10
-30.207336650674186
20
-59.091497636954024
30
0
10
-30.58801153446792
20
-59.344534101172364
30
0
10
-30.927294716724557
20
-59.560288539431738
30
0
10
-31.211528562081
20
-59.748316231798626
30
0
10
-31.439317590337996
20
-59.932982744631161
30
0
10
-31.623952080118713
20
-60.152757229134927
30
0
10
-31.786156051995423
20
-60.444569170957003
30
0
10
-31.948296458673489
20
-60.830067990180893
30
0
10
-32.128390849401065
20
-61.302677865608644
30
0
10
-32.339218136822737
20
-61.836928011310064
30
0
10
-32.587116843483145
20
-62.395975704759181
30
0
10
-32.870639724192067
20
-62.940090730776845
30
0
10
-33.179882740080984
20
-63.43412220719248
30
0
10
-33.493977657652032
20
-63.856931235437308
30
0
10
-33.786878140057581
20
-64.202721625100665
30
0
10
-34.038591966878201
20
-64.477654687205387
30
0
10
-34.243987954512477
20
-64.697779660020402
30
0
10
-34.424340306819907
20
-64.886684373349439
30
0
10
-34.632576103478129
20
-65.07248374819595
30
0
10
-34.924051139793676
20
-65.279376836112036
30
0
10
-35.331537889321723
20
-65.519933444169155
30
0
10
-35.838243338296394
20
-65.786983190498233
30
0
10
-36.396231639821202
20
-66.060668239122407
30
0
10
-36.944159931916786
20
-66.315328588124643
30
0
10
-37.42662067409475
20
-66.526870864336033
30
0
10
-37.809767317618743
20
-66.678980118862626
30
0
10
-38.106015250912371
20
-66.77217998161133
30
0
10
-38.364937986672281
20
-66.822120042914406
30
0
10
-38.639153418619927
20
-66.84912592989896
30
0
10
-38.949997351323404
20
-66.869077004101996
30
0
10
-39.276197129520767
20
-66.887378710433424
30
0
10
-39.587979535880685
20
-66.901228070151546
30
0
10
-39.87430095765226
20
-66.899441467653972
30
0
10
-40.163015706837406
20
-66.864627166525821
30
0
10
-40.490696128026833
20
-66.781554234041778
30
0
10
-40.879647196214052
20
-66.644947048546285
30
0
10
-41.313344865777665
20
-66.466982489909526
30
0
10
-41.75384426504025
20
-66.268963675101034
30
0
10
-42.158560829027827
20
-66.072903122200628
30
0
10
-42.495144814680756
20
-65.89431776943124
30
0
10
-42.762434090556425
20
-65.731646736194861
30
0
10
-42.986295322283411
20
-65.569290959038
30
0
10
-43.198924950487537
20
-65.389365262995
30
0
10
-43.419465164621613
20
-65.183173089233321
30
0
10
-43.645783921777138
20
-64.95527630939209
30
0
10
-43.866628988921263
20
-64.714775490207515
30
0
10
-44.069493946815264
20
-64.468988240598406
30
0
10
-44.248067795506984
20
-64.21829705517068
30
0
10
-44.400350097649678
20
-63.959792546647563
30
0
10
-44.528574093143632
20
-63.689425500360471
30
0
10
-44.638315238476977
20
-63.404477058863833
30
0
10
-44.73619706548125
20
-63.100886863578637
30
0
10
-44.827658187183353
20
-62.771131874160289
30
0
10
-44.914497491236311
20
-62.401567569714793
30
0
10
-44.995733807481564
20
-61.975198565818381
30
0
10
-45.068812175281579
20
-61.475042436689051
30
0
10
-45.13061594838323
20
-60.887039502197062
30
0
10
-45.178725929324592
20
-60.203731963652061
30
0
10
-45.211963549344304
20
-59.425478099679069
30
0
10
-45.230065994124395
20
-58.55861053837976
30
0
10
-45.233579398148784
20
-57.614365425981191
30
0
10
-45.223663616003655
20
-56.607498811921189
30
0
10
-45.201934849814421
20
-55.555037035270615
30
0
10
-45.170291962678419
20
-54.474969216081888
30
0
10
-45.130749886944351
20
-53.384965287134271
30
0
10
-45.085269821872586
20
-52.301081631733766
30
0
10
-45.035591186319962
20
-51.23647535510419
30
0
10
-44.983061783471854
20
-50.200105667277278
30
0
10
-44.928673621881465
20
-49.197254108074958
30
0
10
-44.873099866405568
20
-48.230055148684592
30
0
10
-44.816731392502909
20
-47.298023439520392
30
0
10
-44.7597134646836
20
-46.398581338373823
30
0
10
-44.701982453311473
20
-45.527588870729105
30
0
10
-44.643302314083968
20
-44.679866649093
30
0
10
-44.583301676157639
20
-43.849735703879702
30
0
10
-44.52150947799764
20
-43.03151753312158
30
0
10
-44.45739418408855
20
-42.220132092770839
30
0
10
-44.390389091421824
20
-41.411315558259005
30
0
10
-44.319905944368962
20
-40.601518452515741
30
0
10
-44.245351857442046
20
-39.787894329021398
30
0
10
-44.166144888528585
20
-38.968251278683155
30
0
10
-44.081730170814083
20
-38.141019391003546
30
0
10
-43.99159584998138
20
-37.305211311216617
30
0
10
-43.895288999613015
20
-36.460385878214979
30
0
10
-43.792431800763616
20
-35.606610196029436
30
0
10
-43.682736829397996
20
-34.744423125835532
30
0
10
-43.566018458388172
20
-33.874801971655714
30
0
10
-43.442204895765506
20
-32.999128918230753
30
0
10
-43.311349838376984
20
-32.119157261778909
30
0
10
-43.173644603252086
20
-31.236978425028575
30
0
10
-43.029429330196891
20
-30.354987034101487
30
0
10
-42.879206268824873
20
-29.475850559195671
30
0
10
-42.723648245006054
20
-28.602468304310882
30
0
10
-42.563618681260095
20
-27.737955965464302
30
0
10
-42.400156016004296
20
-26.885551380516226
30
0
10
-42.234367869746343
20
-26.04832055630272
30
0
10
-42.067342407346814
20
-25.228901669640244
30
0
10
-41.900052968836683
20
-24.429234362920003
30
0
10
-41.733265364800651
20
-23.650294478808398
30
0
10
-41.567444506655143
20
-22.891828377358596
30
0
10
-41.402660197225494
20
-22.152082930177119
30
0
10
-41.238495934825906
20
-21.427547978433346
30
0
10
-41.073949170533538
20
-20.712664465066165
30
0
10
-40.907550534858117
20
-20.000404187846989
30
0
10
-40.737492672871056
20
-19.282886968487446
30
0
10
-40.561755704785831
20
-18.551986230565056
30
0
10
-40.378233802066546
20
-17.799934792365072
30
0
10
-40.184861998158254
20
-17.019941407394349
30
0
10
-39.979741231959707
20
-16.206777436148336
30
0
10
-39.761268156299018
20
-15.357437056060697
30
0
10
-39.528250474381188
20
-14.471577365498547
30
0
10
-39.279972161156337
20
-13.551194546475113
30
0
10
-39.01626656905075
20
-12.600423596073663
30
0
10
-38.737586955064693
20
-11.625290139752767
30
0
10
-38.445076944627765
20
-10.633481383031853
30
0
10
-38.140643737780564
20
-9.6341118914082209
30
0
10
-37.82702385211919
20
-8.6374845430242342
30
0
10
-37.507866700097217
20
-7.6548699940391352
30
0
10
-37.187776427739017
20
-6.6982398969279542
30
0
10
-36.872453866972222
20
-5.7801123516517663
30
0
10
-36.568533348357768
20
-4.9130542639546091
30
0
10
-36.282550420094367
20
-4.108201823757148
30
0
10
-36.020074509290488
20
-3.3739714470539264
30
0
10
-35.784760553579076
20
-2.7146689334739298
30
0
10
-35.577471335449395
20
-2.1292024949734447
30
0
10
-35.395285532816978
20
-1.6096107601529446
30
0
10
-35.230751056152506
20
-1.1399985296368602
30
0
10
-35.070544136958745
20
-0.69447933520073402
30
0
10
-34.896460680007785
20
-0.23902045128169039
30
0
10
-34.688307240338474
20
0.26353104575436059
30
0
10
-34.42622178119214
20
0.84937994241487225
30
0
10
-34.093287598669335
20
1.5492162871882007
30
0
10
-33.67788573683076
20
2.3841040710305261
30
0
10
-33.176486495168888
20
3.3605929592056993
30
0
10
-32.595230643788675
20
4.4679815781062482
30
0
10
-31.947626356476469
20
5.6824927127933957
30
0
10
-31.252895517351131
20
6.9702927519685325
30
0
10
-30.534064604845319
20
8.2909657685892242
30
0
10
-29.816164872608617
20
9.6007930107187214
30
0
10
-29.124384793193897
20
10.85611749920192
30
0
10
-28.482244794519339
20
12.016668623563223
30
0
10
-27.909758361213196
20
13.048911767546015
30
0
10
-27.42160832799086
20
13.929369136936646
30
0
10
-27.025294867088782
20
14.647995063317261
30
0
10
-26.719346133592659
20
15.211430274315722
30
0
10
-26.491382309973272
20
15.646539503784222
30
0
10
-26.316570797878708
20
16.003193771882039
30
0
10
-26.163858716383963
20
16.342147158557786
30
0
10
-26.002185375611276
20
16.722924456489526
30
0
10
-25.806146383932791
20
17.192824953622296
30
0
10
-25.563246229519464
20
17.772720396374091
30
0
10
-25.274478620412708
20
18.456301495732252
30
0
10
-24.950096055793889
20
19.219020776097299
30
0
10
-24.606801088052464
20
20.02416680182305
30
0
10
-24.264334728670718
20
20.830161903129426
30
0
10
-23.942362375175978
20
21.597240240342103
30
0
10
-23.657140919075019
20
22.294613629703811
30
0
10
-23.41849384524091
20
22.906906819795726
30
0
10
-23.226087816983995
20
23.442284048345833
30
0
10
-23.071921655439663
20
23.925538257598802
30
0
10
-22.943698796093642
20
24.389102716573738
30
0
10
-22.828001923183919
20
24.864403719989152
30
0
10
-22.71329741155791
20
25.37394545318439
30
0
10
-22.593628523989363
20
25.920952844067074
30
0
10
-22.469843033748482
20
26.487564715558484
30
0
10
-22.346901424533229
20
27.046597035993599
30
0
10
-22.232117671231681
20
27.570039831070638
30
0
10
-22.133001978721566
20
28.039032400389701
30
0
10
-22.055324928037226
20
28.452829990479028
30
0
10
-22.000947309446136
20
28.839241304852408
30
0
10
-21.968605175440196
20
29.241656850285072
30
0
10
-21.954911041348488
20
29.703737044148653
30
0
10
-21.955226195585173
20
30.256429369676052
30
0
10
-21.964710274010141
20
30.900459294023829
30
0
10
-21.97883065704055
20
31.604157486370635
30
0
10
-21.99326404046252
20
32.319035911537902
30
0
10
-22.003955309679739
20
32.990613259479275
30
0
10
-22.007111528321154
20
33.571498713155961
30
0
10
-21.999225852609317
20
34.032758627435385
30
0
10
-21.977083420942428
20
34.377813501034765
30
0
10
-21.937790740885227
20
34.649910809641746
30
0
10
-21.878923248922192
20
34.903435920975085
30
0
10
-21.798650063324136
20
35.179694097707007
30
0
10
-21.695887422608735
20
35.480513831043893
30
0
10
-21.569820541186651
20
35.786067913918956
30
0
10
-21.419527872488544
20
36.071541382357736
30
0
10
-21.243339260181845
20
36.326830034703789
30
0
10
-21.039998026466442
20
36.553184942446173
30
0
10
-20.809867826781137
20
36.755988681518261
30
0
10
-20.556731027293608
20
36.937617244061904
30
0
10
-20.286453942192367
20
37.096535070817978
30
0
10
-20.00458910072609
20
37.229812287830853
30
0
10
-19.713449467867989
20
37.334841082803294
30
0
10
-19.412561210109224
20
37.41022104309144
30
0
10
-19.102057450003972
20
37.455197607175478
30
0
10
-18.786228258949048
20
37.469454401384986
30
0
10
-18.4740097144735
20
37.452973592516074
30
0
10
-18.173021064202128
20
37.406299232885978
30
0
10
-17.884368732617318
20
37.330893262917307
30
0
10
-17.59891100891117
20
37.228924099342962
30
0
10
-17.30385555194502
20
37.100107040938092
30
0
10
-16.987971275806512
20
36.938851555076184
30
0
10
-16.647239387273999
20
36.731485026847452
30
0
10
-16.283062975119456
20
36.462814084201952
30
0
10
-15.900643277128983
20
36.122966057095752
30
0
10
-15.507374657344052
20
35.713243593882822
30
0
10
-15.111021619453995
20
35.254541876152437
30
0
10
-14.718881200201913
20
34.785581929165019
30
0
10
-14.337750860924896
20
34.353034554252588
30
0
10
-13.973668280663293
20
34.003881607145388
30
0
10
-13.631736908301335
20
33.777048254111115
30
0
10
-13.31593358599134
20
33.694898549117099
30
0
10
-13.028872723775411
20
33.756073713957086
30
0
10
-12.771111304419788
20
33.944148714697697
30
0
10
-12.540408193870521
20
34.23529543989239
30
0
10
-12.331203842858054
20
34.605789434352985
30
0
10
-12.136257977282076
20
35.033011101949526
30
0
10
-11.948184560052873
20
35.497124352275215
30
0
10
-11.760880950618592
20
35.982310504507289
30
0
10
-11.571360267223397
20
36.478641635052576
30
0
10
-11.37965011279938
20
36.981467894303009
30
0
10
-11.187625422826633
20
37.489493708124762
30
0
10
-10.998154762233071
20
38.003230903560954
30
0
10
-10.814152777777684
20
38.523352687046845
30
0
10
-10.637587186130224
20
39.04895503892898
30
0
10
-10.468763628864643
20
39.576262873728595
30
0
10
-10.307208561362845
20
40.099770979927598
30
0
10
-10.152313315151101
20
40.613067900186422
30
0
10
-10.004133364177983
20
41.10978410993927
30
0
10
-9.8639779314202141
20
41.584484824844296
30
0
10
-9.7354581643907316
20
42.033591004882084
30
0
10
-9.6231485422396155
20
42.456324759376535
30
0
10
-9.5301928798096309
20
42.855810316836831
30
0
10
-9.4564589956609719
20
43.239887685522561
30
0
10
-9.3959913883874773
20
43.622587495951421
30
0
10
-9.336226026096476
20
44.023659526211709
30
0
10
-9.2625975715962277
20
44.46210123523764
30
0
10
-9.1624158662389874
20
44.950351745700168
30
0
10
-9.0286836427814023
20
45.488933265223032
30
0
10
-8.8648215853092491
20
46.059095445976695
30
0
10
-8.6827443451380315
20
46.629004446250178
30
0
10
-8.4991288573934867
20
47.163376691041591
30
0
10
-8.3322047554682701
20
47.632480481299417
30
0
10
-8.198529210025491
20
48.020208782606055
30
0
10
-8.1092797908983343
20
48.335417694202221
30
0
10
-8.0683519408120006
20
48.612578535333355
30
0
10
-8.0746161676092694
20
48.889529244300853
30
0
10
-8.1234370821294029
20
49.187896281530229
30
0
10
-8.208210638234462
20
49.497670283815964
30
0
10
-8.3197648421012147
20
49.799138436977984
30
0
10
-8.446104566794105
20
50.079979264366123
30
0
10
-8.5719110448798315
20
50.354820519966736
30
0
10
-8.6829006244187585
20
50.645449875288392
30
0
10
-8.7696209685554436
20
50.963700304900506
30
0
10
-8.8326943286428712
20
51.287736011437502
30
0
10
-8.8777063951838038
20
51.584798998048093
30
0
10
-8.9089765053518182
20
51.838555542527509
30
0
10
-8.921863407774973
20
52.083953544110116
30
0
10
-8.9046658000338592
20
52.394868742619458
30
0
10
-8.8450109873718326
20
52.850026866189708
30
0
10
-8.7358465815697297
20
53.500344418389297
30
0
10
-8.5777863140618908
20
54.355975349624032
30
0
10
-8.3767276472913039
20
55.398414103415817
30
0
10
-8.1427842779191231
20
56.585649304778784
30
0
10
-7.8886788370955738
20
57.860169739290342
30
0
10
-7.628367673372245
20
59.155742990329223
30
0
10
-7.3755639714828449
20
60.404734151650565
30
0
10
-7.1423088266707326
20
61.545164150131761
30
0
10
-6.9375119448006286
20
62.527944849480839
30
0
10
-6.7655280022555129
20
63.323887776491468
30
0
10
-6.6246640079349746
20
63.931165797217162
30
0
10
-6.5058663058230159
20
64.381613505415345
30
0
10
-6.395468353519604
20
64.724902372186293
30
0
10
-6.2778226803639647
20
65.012462963768456
30
0
10
-6.1379022050641199
20
65.283666861669218
30
0
10
-5.9640996124492318
20
65.545792778376125
30
0
10
-5.7500050981019788
20
65.779296949987099
30
0
10
-5.4949584449033271
20
65.958651290120613
30
0
10
-5.2057508263801751
20
66.072781844231173
30
0
10
-4.8952132535973041
20
66.131450425557532
30
0
10
-4.5773991914644778
20
66.150269978527604
30
0
10
-4.2628156037191847
20
66.139541159662841
30
0
10
-3.955946725607085
20
66.096388977295987
30
0
10
-3.6597797787945967
20
66.012802423175202
30
0
10
-3.3793516981306739
20
65.880674451084559
30
0
10
-3.1247450592056443
20
65.697553324546874
30
0
10
-2.9050938060886962
20
65.467541014879458
30
0
10
-2.7235191066233466
20
65.202697005515134
30
0
10
-2.5716591208685329
20
64.924533942567805
30
0
10
-2.4311342454138187
20
64.656776012941648
30
0
10
-2.2758025001205247
20
64.418620432191773
30
0
10
-2.0722866241844571
20
64.216129550563906
30
0
10
-1.791037382744693
20
64.047029656103362
30
0
10
-1.4178679197354636
20
63.907797100214701
30
0
10
-0.9690709639583307
20
63.801470803098674
30
0
10
-0.48579123914012912
20
63.73742001690762
30
0
10
-0.017964169247516176
20
63.726872380865551
30
0
10
0.38777976141098874
20
63.77991633387019
30
0
10
0.70333501004042898
20
63.901635707412211
30
0
10
0.92851081864683827
20
64.089401323900987
30
0
10
1.0804811997963037
20
64.333865971927125
30
0
10
1.1860201885979733
20
64.619216598877614
30
0
10
1.2730978639245665
20
64.924268872932899
30
0
10
1.3664403707057389
20
65.228685916025682
30
0
10
1.4827458338775714
20
65.51848591873879
30
0
10
1.6255644545988857
20
65.792357886882812
30
0
10
1.7919094223801757
20
66.054083490790362
30
0
10
1.9785374810530327
20
66.305272147137472
30
0
10
2.1901390291710525
20
66.536205210941532
30
0
10
2.4344023035926039
20
66.730057767057204
30
0
10
2.7150407409893691
20
66.869755902121824
30
0
10
3.0230792903261272
20
66.945333923733259
30
0
10
3.3400283366695485
20
66.954584823385005
30
0
10
3.6468078734982741
20
66.899994877018429
30
0
10
3.9330145445191578
20
66.786098879914391
30
0
10
4.1981518338353965
20
66.619291656977268
30
0
10
4.4445310278170851
20
66.409735806778485
30
0
10
4.6711676143003444
20
66.174303578908138
30
0
10
4.871416278078204
20
65.934039329532268
30
0
10
5.0395076555691869
20
65.70193238258787
30
0
10
5.1756940786092551
20
65.471100658177647
30
0
10
5.2901854051944959
20
65.207585032604356
30
0
10
5.3974738608145696
20
64.868403616037568
30
0
10
5.5120465360160997
20
64.416170116984233
30
0
10
5.643667698059641
20
63.834628366801113
30
0
10
5.7980648762079721
20
63.124618513200666
30
0
10
5.977384131054797
20
62.300764330080909
30
0
10
6.1807378036764273
20
61.387884850708318
30
0
10
6.404711963369067
20
60.417504527578991
30
0
10
6.6438929365777515
20
59.424365556287526
30
0
10
6.891381490615859
20
58.442835939759838
30
0
10
7.1393219450905088
20
57.503604902434382
30
0
10
7.3794005127005038
20
56.629636143549021
30
0
10
7.6034840026297088
20
55.835858217431671
30
0
10
7.8043000004489826
20
55.130452965058225
30
0
10
7.9761350727402096
20
54.515655809870765
30
0
10
8.1154562836574868
20
53.988705416626495
30
0
10
8.2217253827275698
20
53.542853318763058
30
0
10
8.2977565332753613
20
53.16805767343017
30
0
10
8.3512033510607395
20
52.852532427853014
30
0
10
8.3912755115620126
20
52.58076611464864
30
0
10
8.4239342099029777
20
52.330884407318592
30
0
10
8.4457121631480288
20
52.070030554518439
30
0
10
8.4446805533989675
20
51.758308877856493
30
0
10
8.4090691253850949
20
51.361389298038091
30
0
10
8.335026969148208
20
50.86262447130521
30
0
10
8.231173910604042
20
50.269891893486971
30
0
10
8.1131364201476366
20
49.607188361949738
30
0
10
8.0001577393354051
20
48.909344424310504
30
0
10
7.9108723415905029
20
48.215494821665594
30
0
10
7.859449576798065
20
47.563073387734576
30
0
10
7.8515503113756786
20
46.981598706911228
30
0
10
7.8804322182067699
20
46.486513690768433
30
0
10
7.9323660879975346
20
46.079613858433973
30
0
10
7.9923784243184501
20
45.749160275042485
30
0
10
8.0492140268448669
20
45.470735313411154
30
0
10
8.1022174003474206
20
45.206275296595926
30
0
10
8.1608998216123361
20
44.909924925304523
30
0
10
8.2386630425156699
20
44.538715160021184
30
0
10
8.3474937251924075
20
44.063489103653552
30
0
10
8.4944387214774402
20
43.47454581000359
30
0
10
8.6827736237709772
20
42.776564351075457
30
0
10
8.9120581800113978
20
41.985998041257474
30
0
10
9.178636260897207
20
41.12745716162793
30
0
10
9.4759600184149999
20
40.230561091918176
30
0
10
9.794956166942077
20
39.3265031695693
30
0
10
10.124452588293277
20
38.444939279904425
30
0
10
10.451380559387113
20
37.610230363124245
30
0
10
10.762063414663878
20
36.840524619984606
30
0
10
11.044060788377447
20
36.148362901860111
30
0
10
11.287878634635305
20
35.540746129468708
30
0
10
11.488649298899247
20
35.019568905888306
30
0
10
11.648022103646525
20
34.581565789039438
30
0
10
11.77550111069233
20
34.219238491847378
30
0
10
11.891179030327827
20
33.919456127761194
30
0
10
12.022618984686277
20
33.670922358410074
30
0
10
12.198105093431213
20
33.474196882085494
30
0
10
12.440618987562653
20
33.356351187249132
30
0
10
12.762892660207001
20
33.365541788424167
30
0
10
13.165654870514947
20
33.54247899515584
30
0
10
13.633675151053804
20
33.891821425564224
30
0
10
14.137483925018673
20
34.374207776793391
30
0
10
14.641416837981538
20
34.92702707215529
30
0
10
15.109952268447904
20
35.477399957258527
30
0
10
15.514944560165397
20
35.958712290610833
30
0
10
15.842006908654707
20
36.324768589235205
30
0
10
16.098375019848998
20
36.567020277598644
30
0
10
16.316815222669899
20
36.724368567443982
30
0
10
16.536526467574781
20
36.850778263600581
30
0
10
16.786906915550507
20
36.988091247920096
30
0
10
17.069815149214222
20
37.136176487159176
30
0
10
17.372164089004947
20
37.273037094375447
30
0
10
17.67772334231217
20
37.373578466745343
30
0
10
17.9812300677644
20
37.432193641353777
30
0
10
18.285055073395622
20
37.456672298655555
30
0
10
18.593086831320104
20
37.457611764018111
30
0
10
18.904194666511167
20
37.436968059574077
30
0
10
19.212600791681044
20
37.388751699976204
30
0
10
19.511670427851811
20
37.305758912409075
30
0
10
19.797423258489367
20
37.185667457900998
30
0
10
20.06913511765584
20
37.032546522340525
30
0
10
20.326628128943195
20
36.852751183547731
30
0
10
20.568017893323173
20
36.652058597339064
30
0
10
20.788745936389056
20
36.433378097663919
30
0
10
20.984044105055574
20
36.197461171730403
30
0
10
21.150811704868868
20
35.94266692295492
30
0
10
21.289239856707439
20
35.665782275119724
30
0
10
21.401503451054168
20
35.366649194129359
30
0
10
21.490863418935465
20
35.052292190935596
30
0
10
21.560634296408971
20
34.741281646572133
30
0
10
21.613227949942303
20
34.449844967978336
30
0
10
21.649336686834431
20
34.17983777973641
30
0
10
21.666692942083184
20
33.902512571454949
30
0
10
21.662288722933056
20
33.575574968926333
30
0
10
21.634860310281233
20
33.163439190856067
30
0
10
21.587912021492819
20
32.661025480952887
30
0
10
21.529223761640132
20
32.091816517356676
30
0
10
21.468719880386086
20
31.493756817635937
30
0
10
21.416826256100698
20
30.908780987889386
30
0
10
21.382707496180295
20
30.371453052187366
30
0
10
21.372356921568976
20
29.896504798748495
30
0
10
21.387358786994128
20
29.471383641829956
30
0
10
21.426360846942298
20
29.068808585517502
30
0
10
21.486156679045813
20
28.656600527681782
30
0
10
21.562858806099399
20
28.207797382522362
30
0
10
21.653190894237831
20
27.712636190194985
30
0
10
21.754691543239662
20
27.176687865591646
30
0
10
21.865558075712137
20
26.614575552404624
30
0
10
21.984607841195974
20
26.04504956576686
30
0
10
22.111198628017178
20
25.485772652114864
30
0
10
22.245146672803262
20
24.947562213801127
30
0
10
22.386710434463396
20
24.431019511224818
30
0
10
22.536776755252994
20
23.929651578977786
30
0
10
22.697002265000865
20
23.431731565660826
30
0
10
22.869983847493206
20
22.922695002930297
30
0
10
23.059390655170453
20
22.387226331728179
30
0
10
23.270181050360552
20
21.81169090933237
30
0
10
23.50818441553292
20
21.184564038596385
30
0
10
23.779555762168258
20
20.496485339020541
30
0
10
24.090276332004159
20
19.740439875391985
30
0
10
24.445630355755096
20
18.911889406741015
30
0
10
24.849702502184247
20
18.008917518208403
30
0
10
25.304842125328481
20
17.03238636325975
30
0
10
25.811198547095437
20
15.98604739190967
30
0
10
26.366085655476791
20
14.87677321416127
30
0
10
26.963965240755464
20
13.714343034573416
30
0
10
27.597083198029097
20
12.510755573198104
30
0
10
28.255931519883951
20
11.279668128260727
30
0
10
28.929781265251791
20
10.03578428682448
30
0
10
29.607185322214562
20
8.7942633998203306
30
0
10
30.276493700016999
20
7.570121245317071
30
0
10
30.926364493968595
20
6.3776332132590525
30
0
10
31.546274228050461
20
5.2297393551261431
30
0
10
32.127034247749343
20
4.1374417540910926
30
0
10
32.661291104091852
20
3.1092211303628114
30
0
10
33.144065023639243
20
2.150408084236501
30
0
10
33.573199121213875
20
1.2626604691545538
30
0
10
33.950027302962418
20
0.44318080609372124
30
0
10
34.279233720759187
20
-0.31510538598847693
30
0
10
34.567906470356014
20
-1.0224137098198662
30
0
10
34.82481184464298
20
-1.6912268928207328
30
0
10
35.059574340671077
20
-2.3353093662943087
30
0
10
35.28190652047688
20
-2.9687797328584207
30
0
10
35.500795400019314
20
-3.6051347436559871
30
0
10
35.723759309078815
20
-4.2563495841048429
30
0
10
35.955939762479623
20
-4.9318011010928995
30
0
10
36.200243988882896
20
-5.6383162449659388
30
0
10
36.457765238298869
20
-6.3805176361958607
30
0
10
36.728108333055616
20
-7.1610682379057353
30
0
10
37.009756611915783
20
-7.9809590874541421
30
0
10
37.300417135290601
20
-8.8397766492326006
30
0
10
37.597384421956576
20
-9.7359832757145259
30
0
10
37.897874755263018
20
-10.667181851882436
30
0
10
38.19942579515358
20
-11.630412178722359
30
0
10
38.500073237220739
20
-12.622341372281189
30
0
10
38.798245394933815
20
-13.639320748711675
30
0
10
39.092728921791682
20
-14.677476367868341
30
0
10
39.382605701386858
20
-15.732785895971816
30
0
10
39.667202004351658
20
-16.801161371037548
30
0
10
39.946032542419005
20
-17.878529311813647
30
0
10
40.21874631937726
20
-18.96091223879516
30
0
10
40.485072643788953
20
-20.044508964478048
30
0
10
40.744764902289923
20
-21.125776863962301
30
0
10
40.997550374135407
20
-22.2015099064905
30
0
10
41.243064837165051
20
-23.268926930490682
30
0
10
41.480845710380692
20
-24.325720812446452
30
0
10
41.710376596832283
20
-25.37007336188519
30
0
10
41.931117408110403
20
-26.400679811745078
30
0
10
42.14254041385459
20
-27.416769414341253
30
0
10
42.344163723863034
20
-28.418127629198054
30
0
10
42.535585942763923
20
-29.405117820613892
30
0
10
42.716520164201278
20
-30.378702731793993
30
0
10
42.886828613541958
20
-31.340467083158249
30
0
10
43.046556167313874
20
-32.292637312718789
30
0
10
43.195966368580009
20
-33.238108213317908
30
0
10
43.335570603373895
20
-34.180450373119072
30
0
10
43.466075140022696
20
-35.123686305431491
30
0
10
43.588333746485091
20
-36.072082313663316
30
0
10
43.703298176018713
20
-37.02993430413224
30
0
10
43.811969595672963
20
-38.001356356624747
30
0
10
43.915349526065597
20
-38.990067677267689
30
0
10
44.014391186593414
20
-39.999181244775173
30
0
10
44.10995021302967
20
-41.030989398991125
30
0
10
44.202736698766536
20
-42.086756148805939
30
0
10
44.293264152065397
20
-43.166493682087975
30
0
10
44.381807112039908
20
-44.268783295719999
30
0
10
44.468427044499748
20
-45.390946687885119
30
0
10
44.552991791411429
20
-46.529184189994339
30
0
10
44.635197493659618
20
-47.678725639478671
30
0
10
44.714589448736689
20
-48.833975903947653
30
0
10
44.790583451807521
20
-49.988662612250117
30
0
10
44.862486864956949
20
-51.135983125327584
30
0
10
44.929519947288298
20
-52.268751371568356
30
0
10
44.990836735183905
20
-53.379545798484358
30
0
10
45.045546898285707
20
-54.460854371367191
30
0
10
45.092735335137277
20
-55.505226645857675
30
0
10
45.131487521654634
20
-56.505407738182143
30
0
10
45.160879206976965
20
-57.45458372969992
30
0
10
45.179954721561238
20
-58.34666126416181
30
0
10
45.187710696528505
20
-59.176533193388615
30
0
10
45.183073970578945
20
-59.940355623169566
30
0
10
45.164890184352814
20
-60.635807251892032
30
0
10
45.131888747838502
20
-61.262386127668755
30
0
10
45.082702394712342
20
-61.821620773179326
30
0
10
45.015754724474249
20
-62.317488361239171
30
0
10
44.929592508522759
20
-62.756128740711901
30
0
10
44.823770746271279
20
-63.144629183698171
30
0
10
44.699671606013787
20
-63.489998160945397
30
0
10
44.561198408149892
20
-63.798149290568887
30
0
10
44.415900433862348
20
-64.072664642714358
30
0
10
44.268483060310771
20
-64.318045847961102
30
0
10
44.115299331466147
20
-64.542439071987005
30
0
10
43.935801709901256
20
-64.762030014982315
30
0
10
43.70395434373188
20
-64.994500096830919
30
0
10
43.402331301698055
20
-65.251100016245573
30
0
10
43.039400794473707
20
-65.526768799786609
30
0
10
42.646155922941958
20
-65.802503255960389
30
0
10
42.259944251836323
20
-66.055309140061212
30
0
10
41.912912878604267
20
-66.265388259370837
30
0
10
41.617068462683591
20
-66.425415604124694
30
0
10
41.407535682080692
20
-66.521977213071935
30
0
10
41.252775622993312
20
-66.584304446223513
30
0
10
41.147286245286537
20
-66.623149742782857
30
0
10
41.093699999999998
20
-66.641999999999996
30
0
0
ENDSEC
0
SECTION
2
OBJECTS
0
DICTIONARY
5
C
100
AcDbDictionary
3
ACAD_GROUP
350
D
3
ACAD_MLINESTYLE
350
17
0
DICTIONARY
5
D
100
AcDbDictionary
0
DICTIONARY
5
1A
330
C
100
AcDbDictionary
0
DICTIONARY
5
17
100
AcDbDictionary
0
ENDSEC
0
EOF
