0
SECTION
2
HEADER
9
$INSUNITS
70
4
9
$ACADVER
1
AC1014
9
$HANDSEED
5
FFFF
0
ENDSEC
0
SECTION
2
TABLES
0
TABLE
2
VPORT
5
8
100
AcDbSymbolTable
0
ENDTAB
0
TABLE
2
LTYPE
5
5
100
AcDbSymbolTable
0
LTYPE
5
14
100
AcDbSymbolTableRecord
100
AcDbLinetypeTableRecord
2
BYBLOCK
70
0
0
LTYPE
5
15
100
AcDbSymbolTableRecord
100
AcDbLinetypeTableRecord
2
BYLAYER
70
0
0
LTYPE
5
16
100
AcDbSymbolTableRecord
100
AcDbLinetypeTableRecord
2
DASHED
70
0
3
Dashed __ __ __ __ __ __ __ __ __ __ __ __ __ _
72
65
73
2
40
0.75
49
0.5
74
0
49
-0.25
74
0
0
ENDTAB
0
TABLE
2
LAYER
5
2
100
AcDbSymbolTable
70
2
0
LAYER
5
50
100
AcDbSymbolTableRecord
100
AcDbLayerTableRecord
2
0
70
0
62
7
6
CONTINUOUS
0
ENDTAB
0
TABLE
2
STYLE
5
3
100
AcDbSymbolTable
70
1
0
STYLE
5
11
100
AcDbSymbolTableRecord
100
AcDbTextStyleTableRecord
2
STANDARD
70
0
0
ENDTAB
0
TABLE
2
VIEW
5
6
100
AcDbSymbolTable
70
0
0
ENDTAB
0
TABLE
2
UCS
5
7
100
AcDbSymbolTable
70
0
0
ENDTAB
0
TABLE
2
APPID
5
9
100
AcDbSymbolTable
70
2
0
APPID
5
12
100
AcDbSymbolTableRecord
100
AcDbRegAppTableRecord
2
ACAD
70
0
0
ENDTAB
0
TABLE
2
DIMSTYLE
5
A
100
AcDbSymbolTable
70
1
0
ENDTAB
0
TABLE
2
BLOCK_RECORD
5
1
100
AcDbSymbolTable
70
1
0
BLOCK_RECORD
5
1F
100
AcDbSymbolTableRecord
100
AcDbBlockTableRecord
2
*MODEL_SPACE
0
BLOCK_RECORD
5
1B
100
AcDbSymbolTableRecord
100
AcDbBlockTableRecord
2
*PAPER_SPACE
0
ENDTAB
0
ENDSEC
0
SECTION
2
BLOCKS
0
BLOCK
5
20
100
AcDbEntity
100
AcDbBlockBegin
2
*MODEL_SPACE
0
ENDBLK
5
21
100
AcDbEntity
100
AcDbBlockEnd
0
BLOCK
5
1C
100
AcDbEntity
100
AcDbBlockBegin
2
*PAPER_SPACE
0
ENDBLK
5
1D
100
AcDbEntity
100
AcDbBlockEnd
0
ENDSEC
0
SECTION
2
ENTITIES
0
SPLINE
5
100
100
AcDbEntity
8
0
100
AcDbSpline
70
6
71
5
72
661
73
655
74
0
42
0.000000001
43
0.0000000001
44
0.0000000001
40
0
40
0
40
0
40
0
40
0
40
0
40
0.0015384615384615385
40
0.0030769230769230769
40
0.0046153846153846149
40
0.0061538461538461538
40
0.0076923076923076927
40
0.0092307692307692316
40
0.010769230769230771
40
0.012307692307692309
40
0.013846153846153848
40
0.015384615384615387
40
0.016923076923076926
40
0.018461538461538463
40
0.02
40
0.021538461538461538
40
0.023076923076923075
40
0.024615384615384612
40
0.026153846153846149
40
0.027692307692307686
40
0.029230769230769223
40
0.030769230769230761
40
0.032307692307692301
40
0.033846153846153838
40
0.035384615384615375
40
0.036923076923076913
40
0.03846153846153845
40
0.039999999999999987
40
0.041538461538461524
40
0.043076923076923061
40
0.044615384615384598
40
0.046153846153846136
40
0.047692307692307673
40
0.04923076923076921
40
0.050769230769230747
40
0.052307692307692284
40
0.053846153846153821
40
0.055384615384615359
40
0.056923076923076896
40
0.058461538461538433
40
0.05999999999999997
40
0.061538461538461507
40
0.063076923076923044
40
0.064615384615384588
40
0.066153846153846133
40
0.067692307692307677
40
0.069230769230769221
40
0.070769230769230765
40
0.072307692307692309
40
0.073846153846153853
40
0.075384615384615397
40
0.076923076923076941
40
0.078461538461538485
40
0.080000000000000029
40
0.081538461538461574
40
0.083076923076923118
40
0.084615384615384662
40
0.086153846153846206
40
0.08769230769230775
40
0.089230769230769294
40
0.090769230769230838
40
0.092307692307692382
40
0.093846153846153926
40
0.09538461538461547
40
0.096923076923077014
40
0.098461538461538559
40
0.1000000000000001
40
0.10153846153846165
40
0.10307692307692319
40
0.10461538461538473
40
0.10615384615384628
40
0.10769230769230782
40
0.10923076923076937
40
0.11076923076923091
40
0.11230769230769246
40
0.113846153846154
40
0.11538461538461554
40
0.11692307692307709
40
0.11846153846153863
40
0.12000000000000018
40
0.12153846153846172
40
0.12307692307692326
40
0.12461538461538481
40
0.12615384615384634
40
0.12769230769230788
40
0.12923076923076943
40
0.13076923076923097
40
0.13230769230769251
40
0.13384615384615406
40
0.1353846153846156
40
0.13692307692307715
40
0.13846153846153869
40
0.14000000000000024
40
0.14153846153846178
40
0.14307692307692332
40
0.14461538461538487
40
0.14615384615384641
40
0.14769230769230796
40
0.1492307692307695
40
0.15076923076923104
40
0.15230769230769259
40
0.15384615384615413
40
0.15538461538461568
40
0.15692307692307722
40
0.15846153846153876
40
0.16000000000000031
40
0.16153846153846185
40
0.1630769230769234
40
0.16461538461538494
40
0.16615384615384649
40
0.16769230769230803
40
0.16923076923076957
40
0.17076923076923112
40
0.17230769230769266
40
0.17384615384615421
40
0.17538461538461575
40
0.17692307692307729
40
0.17846153846153884
40
0.18000000000000038
40
0.18153846153846193
40
0.18307692307692347
40
0.18461538461538501
40
0.18615384615384656
40
0.1876923076923081
40
0.18923076923076965
40
0.19076923076923119
40
0.19230769230769273
40
0.19384615384615428
40
0.19538461538461582
40
0.19692307692307737
40
0.19846153846153891
40
0.20000000000000046
40
0.201538461538462
40
0.20307692307692354
40
0.20461538461538509
40
0.20615384615384663
40
0.20769230769230818
40
0.20923076923076972
40
0.21076923076923126
40
0.21230769230769281
40
0.21384615384615435
40
0.2153846153846159
40
0.21692307692307744
40
0.21846153846153898
40
0.22000000000000053
40
0.22153846153846207
40
0.22307692307692362
40
0.22461538461538516
40
0.2261538461538467
40
0.22769230769230825
40
0.22923076923076979
40
0.23076923076923134
40
0.23230769230769288
40
0.23384615384615443
40
0.23538461538461597
40
0.23692307692307751
40
0.23846153846153906
40
0.2400000000000006
40
0.24153846153846215
40
0.24307692307692369
40
0.24461538461538523
40
0.24615384615384678
40
0.24769230769230832
40
0.24923076923076987
40
0.25076923076923141
40
0.25230769230769295
40
0.2538461538461545
40
0.25538461538461604
40
0.25692307692307759
40
0.25846153846153913
40
0.26000000000000068
40
0.26153846153846222
40
0.26307692307692376
40
0.26461538461538531
40
0.26615384615384685
40
0.2676923076923084
40
0.26923076923076994
40
0.27076923076923148
40
0.27230769230769303
40
0.27384615384615457
40
0.27538461538461612
40
0.27692307692307766
40
0.2784615384615392
40
0.28000000000000075
40
0.28153846153846229
40
0.28307692307692384
40
0.28461538461538538
40
0.28615384615384692
40
0.28769230769230847
40
0.28923076923077001
40
0.29076923076923156
40
0.2923076923076931
40
0.29384615384615465
40
0.29538461538461619
40
0.29692307692307773
40
0.29846153846153928
40
0.30000000000000082
40
0.30153846153846237
40
0.30307692307692391
40
0.30461538461538545
40
0.306153846153847
40
0.30769230769230854
40
0.30923076923077009
40
0.31076923076923163
40
0.31230769230769317
40
0.31384615384615472
40
0.31538461538461626
40
0.31692307692307781
40
0.31846153846153935
40
0.32000000000000089
40
0.32153846153846244
40
0.32307692307692398
40
0.32461538461538553
40
0.32615384615384707
40
0.32769230769230862
40
0.32923076923077016
40
0.3307692307692317
40
0.33230769230769325
40
0.33384615384615479
40
0.33538461538461634
40
0.33692307692307788
40
0.33846153846153942
40
0.34000000000000097
40
0.34153846153846251
40
0.34307692307692406
40
0.3446153846153856
40
0.34615384615384714
40
0.34769230769230869
40
0.34923076923077023
40
0.35076923076923178
40
0.35230769230769332
40
0.35384615384615486
40
0.35538461538461641
40
0.35692307692307795
40
0.3584615384615395
40
0.36000000000000104
40
0.36153846153846259
40
0.36307692307692413
40
0.36461538461538567
40
0.36615384615384722
40
0.36769230769230876
40
0.36923076923077031
40
0.37076923076923185
40
0.37230769230769339
40
0.37384615384615494
40
0.37538461538461648
40
0.37692307692307803
40
0.37846153846153957
40
0.38000000000000111
40
0.38153846153846266
40
0.3830769230769242
40
0.38461538461538575
40
0.38615384615384729
40
0.38769230769230884
40
0.38923076923077038
40
0.39076923076923192
40
0.39230769230769347
40
0.39384615384615501
40
0.39538461538461656
40
0.3969230769230781
40
0.39846153846153964
40
0.40000000000000119
40
0.40153846153846273
40
0.40307692307692428
40
0.40461538461538582
40
0.40615384615384736
40
0.40769230769230891
40
0.40923076923077045
40
0.410769230769232
40
0.41230769230769354
40
0.41384615384615508
40
0.41538461538461663
40
0.41692307692307817
40
0.41846153846153972
40
0.42000000000000126
40
0.42153846153846281
40
0.42307692307692435
40
0.42461538461538589
40
0.42615384615384744
40
0.42769230769230898
40
0.42923076923077053
40
0.43076923076923207
40
0.43230769230769361
40
0.43384615384615516
40
0.4353846153846167
40
0.43692307692307825
40
0.43846153846153979
40
0.44000000000000133
40
0.44153846153846288
40
0.44307692307692442
40
0.44461538461538597
40
0.44615384615384751
40
0.44769230769230905
40
0.4492307692307706
40
0.45076923076923214
40
0.45230769230769369
40
0.45384615384615523
40
0.45538461538461678
40
0.45692307692307832
40
0.45846153846153986
40
0.46000000000000141
40
0.46153846153846295
40
0.4630769230769245
40
0.46461538461538604
40
0.46615384615384758
40
0.46769230769230913
40
0.46923076923077067
40
0.47076923076923222
40
0.47230769230769376
40
0.4738461538461553
40
0.47538461538461685
40
0.47692307692307839
40
0.47846153846153994
40
0.48000000000000148
40
0.48153846153846303
40
0.48307692307692457
40
0.48461538461538611
40
0.48615384615384766
40
0.4876923076923092
40
0.48923076923077075
40
0.49076923076923229
40
0.49230769230769383
40
0.49384615384615538
40
0.49538461538461692
40
0.49692307692307847
40
0.49846153846154001
40
0.50000000000000155
40
0.50153846153846304
40
0.50307692307692453
40
0.50461538461538602
40
0.50615384615384751
40
0.507692307692309
40
0.50923076923077049
40
0.51076923076923197
40
0.51230769230769346
40
0.51384615384615495
40
0.51538461538461644
40
0.51692307692307793
40
0.51846153846153942
40
0.52000000000000091
40
0.52153846153846239
40
0.52307692307692388
40
0.52461538461538537
40
0.52615384615384686
40
0.52769230769230835
40
0.52923076923076984
40
0.53076923076923133
40
0.53230769230769281
40
0.5338461538461543
40
0.53538461538461579
40
0.53692307692307728
40
0.53846153846153877
40
0.54000000000000026
40
0.54153846153846175
40
0.54307692307692323
40
0.54461538461538472
40
0.54615384615384621
40
0.5476923076923077
40
0.54923076923076919
40
0.55076923076923068
40
0.55230769230769217
40
0.55384615384615365
40
0.55538461538461514
40
0.55692307692307663
40
0.55846153846153812
40
0.55999999999999961
40
0.5615384615384611
40
0.56307692307692259
40
0.56461538461538407
40
0.56615384615384556
40
0.56769230769230705
40
0.56923076923076854
40
0.57076923076923003
40
0.57230769230769152
40
0.57384615384615301
40
0.5753846153846145
40
0.57692307692307598
40
0.57846153846153747
40
0.57999999999999896
40
0.58153846153846045
40
0.58307692307692194
40
0.58461538461538343
40
0.58615384615384492
40
0.5876923076923064
40
0.58923076923076789
40
0.59076923076922938
40
0.59230769230769087
40
0.59384615384615236
40
0.59538461538461385
40
0.59692307692307534
40
0.59846153846153682
40
0.59999999999999831
40
0.6015384615384598
40
0.60307692307692129
40
0.60461538461538278
40
0.60615384615384427
40
0.60769230769230576
40
0.60923076923076724
40
0.61076923076922873
40
0.61230769230769022
40
0.61384615384615171
40
0.6153846153846132
40
0.61692307692307469
40
0.61846153846153618
40
0.61999999999999766
40
0.62153846153845915
40
0.62307692307692064
40
0.62461538461538213
40
0.62615384615384362
40
0.62769230769230511
40
0.6292307692307666
40
0.63076923076922808
40
0.63230769230768957
40
0.63384615384615106
40
0.63538461538461255
40
0.63692307692307404
40
0.63846153846153553
40
0.63999999999999702
40
0.6415384615384585
40
0.64307692307691999
40
0.64461538461538148
40
0.64615384615384297
40
0.64769230769230446
40
0.64923076923076595
40
0.65076923076922744
40
0.65230769230768892
40
0.65384615384615041
40
0.6553846153846119
40
0.65692307692307339
40
0.65846153846153488
40
0.65999999999999637
40
0.66153846153845786
40
0.66307692307691934
40
0.66461538461538083
40
0.66615384615384232
40
0.66769230769230381
40
0.6692307692307653
40
0.67076923076922679
40
0.67230769230768828
40
0.67384615384614976
40
0.67538461538461125
40
0.67692307692307274
40
0.67846153846153423
40
0.67999999999999572
40
0.68153846153845721
40
0.6830769230769187
40
0.68461538461538018
40
0.68615384615384167
40
0.68769230769230316
40
0.68923076923076465
40
0.69076923076922614
40
0.69230769230768763
40
0.69384615384614912
40
0.6953846153846106
40
0.69692307692307209
40
0.69846153846153358
40
0.69999999999999507
40
0.70153846153845656
40
0.70307692307691805
40
0.70461538461537954
40
0.70615384615384102
40
0.70769230769230251
40
0.709230769230764
40
0.71076923076922549
40
0.71230769230768698
40
0.71384615384614847
40
0.71538461538460996
40
0.71692307692307145
40
0.71846153846153293
40
0.71999999999999442
40
0.72153846153845591
40
0.7230769230769174
40
0.72461538461537889
40
0.72615384615384038
40
0.72769230769230187
40
0.72923076923076335
40
0.73076923076922484
40
0.73230769230768633
40
0.73384615384614782
40
0.73538461538460931
40
0.7369230769230708
40
0.73846153846153229
40
0.73999999999999377
40
0.74153846153845526
40
0.74307692307691675
40
0.74461538461537824
40
0.74615384615383973
40
0.74769230769230122
40
0.74923076923076271
40
0.75076923076922419
40
0.75230769230768568
40
0.75384615384614717
40
0.75538461538460866
40
0.75692307692307015
40
0.75846153846153164
40
0.75999999999999313
40
0.76153846153845461
40
0.7630769230769161
40
0.76461538461537759
40
0.76615384615383908
40
0.76769230769230057
40
0.76923076923076206
40
0.77076923076922355
40
0.77230769230768503
40
0.77384615384614652
40
0.77538461538460801
40
0.7769230769230695
40
0.77846153846153099
40
0.77999999999999248
40
0.78153846153845397
40
0.78307692307691545
40
0.78461538461537694
40
0.78615384615383843
40
0.78769230769229992
40
0.78923076923076141
40
0.7907692307692229
40
0.79230769230768439
40
0.79384615384614587
40
0.79538461538460736
40
0.79692307692306885
40
0.79846153846153034
40
0.79999999999999183
40
0.80153846153845332
40
0.80307692307691481
40
0.80461538461537629
40
0.80615384615383778
40
0.80769230769229927
40
0.80923076923076076
40
0.81076923076922225
40
0.81230769230768374
40
0.81384615384614523
40
0.81538461538460671
40
0.8169230769230682
40
0.81846153846152969
40
0.81999999999999118
40
0.82153846153845267
40
0.82307692307691416
40
0.82461538461537565
40
0.82615384615383713
40
0.82769230769229862
40
0.82923076923076011
40
0.8307692307692216
40
0.83230769230768309
40
0.83384615384614458
40
0.83538461538460607
40
0.83692307692306755
40
0.83846153846152904
40
0.83999999999999053
40
0.84153846153845202
40
0.84307692307691351
40
0.844615384615375
40
0.84615384615383649
40
0.84769230769229797
40
0.84923076923075946
40
0.85076923076922095
40
0.85230769230768244
40
0.85384615384614393
40
0.85538461538460542
40
0.85692307692306691
40
0.8584615384615284
40
0.85999999999998988
40
0.86153846153845137
40
0.86307692307691286
40
0.86461538461537435
40
0.86615384615383584
40
0.86769230769229733
40
0.86923076923075882
40
0.8707692307692203
40
0.87230769230768179
40
0.87384615384614328
40
0.87538461538460477
40
0.87692307692306626
40
0.87846153846152775
40
0.87999999999998924
40
0.88153846153845072
40
0.88307692307691221
40
0.8846153846153737
40
0.88615384615383519
40
0.88769230769229668
40
0.88923076923075817
40
0.89076923076921966
40
0.89230769230768114
40
0.89384615384614263
40
0.89538461538460412
40
0.89692307692306561
40
0.8984615384615271
40
0.89999999999998859
40
0.90153846153845008
40
0.90307692307691156
40
0.90461538461537305
40
0.90615384615383454
40
0.90769230769229603
40
0.90923076923075752
40
0.91076923076921901
40
0.9123076923076805
40
0.91384615384614198
40
0.91538461538460347
40
0.91692307692306496
40
0.91846153846152645
40
0.91999999999998794
40
0.92153846153844943
40
0.92307692307691092
40
0.9246153846153724
40
0.92615384615383389
40
0.92769230769229538
40
0.92923076923075687
40
0.93076923076921836
40
0.93230769230767985
40
0.93384615384614134
40
0.93538461538460282
40
0.93692307692306431
40
0.9384615384615258
40
0.93999999999998729
40
0.94153846153844878
40
0.94307692307691027
40
0.94461538461537176
40
0.94615384615383324
40
0.94769230769229473
40
0.94923076923075622
40
0.95076923076921771
40
0.9523076923076792
40
0.95384615384614069
40
0.95538461538460218
40
0.95692307692306366
40
0.95846153846152515
40
0.95999999999998664
40
0.96153846153844813
40
0.96307692307690962
40
0.96461538461537111
40
0.9661538461538326
40
0.96769230769229408
40
0.96923076923075557
40
0.97076923076921706
40
0.97230769230767855
40
0.97384615384614004
40
0.97538461538460153
40
0.97692307692306302
40
0.9784615384615245
40
0.97999999999998599
40
0.98153846153844748
40
0.98307692307690897
40
0.98461538461537046
40
0.98615384615383195
40
0.98769230769229344
40
0.98923076923075492
40
0.99076923076921641
40
0.9923076923076779
40
0.99384615384613939
40
0.99538461538460088
40
0.99692307692306237
40
0.99846153846152386
40
1
40
1
40
1
40
1
40
1
40
1
41
1
41
1
41
1
41
1
41
1
41
1
41
1
41
1
41
1
41
1
41
1
41
1
41
1
41
1
41
1
41
1
41
1
41
1
41
1
41
1
41
1
41
1
41
1
41
1
41
1
41
1
41
1
41
1
41
1
41
1
41
1
41
1
41
1
41
1
41
1
41
1
41
1
41
1
41
1
41
1
41
1
41
1
41
1
41
1
41
1
41
1
41
1
41
1
41
1
41
1
41
1
41
1
41
1
41
1
41
1
41
1
41
1
41
1
41
1
41
1
41
1
41
1
41
1
41
1
41
1
41
1
41
1
41
1
41
1
41
1
41
1
41
1
41
1
41
1
41
1
41
1
41
1
41
1
41
1
41
1
41
1
41
1
41
1
41
1
41
1
41
1
41
1
41
1
41
1
41
1
41
1
41
1
41
1
41
1
41
1
41
1
41
1
41
1
41
1
41
1
41
1
41
1
41
1
41
1
41
1
41
1
41
1
41
1
41
1
41
1
41
1
41
1
41
1
41
1
41
1
41
1
41
1
41
1
41
1
41
1
41
1
41
1
41
1
41
1
41
1
41
1
41
1
41
1
41
1
41
1
41
1
41
1
41
1
41
1
41
1
41
1
41
1
41
1
41
1
41
1
41
1
41
1
41
1
41
1
41
1
41
1
41
1
41
1
41
1
41
1
41
1
41
1
41
1
41
1
41
1
41
1
41
1
41
1
41
1
41
1
41
1
41
1
41
1
41
1
41
1
41
1
41
1
41
1
41
1
41
1
41
1
41
1
41
1
41
1
41
1
41
1
41
1
41
1
41
1
41
1
41
1
41
1
41
1
41
1
41
1
41
1
41
1
41
1
41
1
41
1
41
1
41
1
41
1
41
1
41
1
41
1
41
1
41
1
41
1
41
1
41
1
41
1
41
1
41
1
41
1
41
1
41
1
41
1
41
1
41
1
41
1
41
1
41
1
41
1
41
1
41
1
41
1
41
1
41
1
41
1
41
1
41
1
41
1
41
1
41
1
41
1
41
1
41
1
41
1
41
1
41
1
41
1
41
1
41
1
41
1
41
1
41
1
41
1
41
1
41
1
41
1
41
1
41
1
41
1
41
1
41
1
41
1
41
1
41
1
41
1
41
1
41
1
41
1
41
1
41
1
41
1
41
1
41
1
41
1
41
1
41
1
41
1
41
1
41
1
41
1
41
1
41
1
41
1
41
1
41
1
41
1
41
1
41
1
41
1
41
1
41
1
41
1
41
1
41
1
41
1
41
1
41
1
41
1
41
1
41
1
41
1
41
1
41
1
41
1
41
1
41
1
41
1
41
1
41
1
41
1
41
1
41
1
41
1
41
1
41
1
41
1
41
1
41
1
41
1
41
1
41
1
41
1
41
1
41
1
41
1
41
1
41
1
41
1
41
1
41
1
41
1
41
1
41
1
41
1
41
1
41
1
41
1
41
1
41
1
41
1
41
1
41
1
41
1
41
1
41
1
41
1
41
1
41
1
41
1
41
1
41
1
41
1
41
1
41
1
41
1
41
1
41
1
41
1
41
1
41
1
41
1
41
1
41
1
41
1
41
1
41
1
41
1
41
1
41
1
41
1
41
1
41
1
41
1
41
1
41
1
41
1
41
1
41
1
41
1
41
1
41
1
41
1
41
1
41
1
41
1
41
1
41
1
41
1
41
1
41
1
41
1
41
1
41
1
41
1
41
1
41
1
41
1
41
1
41
1
41
1
41
1
41
1
41
1
41
1
41
1
41
1
41
1
41
1
41
1
41
1
41
1
41
1
41
1
41
1
41
1
41
1
41
1
41
1
41
1
41
1
41
1
41
1
41
1
41
1
41
1
41
1
41
1
41
1
41
1
41
1
41
1
41
1
41
1
41
1
41
1
41
1
41
1
41
1
41
1
41
1
41
1
41
1
41
1
41
1
41
1
41
1
41
1
41
1
41
1
41
1
41
1
41
1
41
1
41
1
41
1
41
1
41
1
41
1
41
1
41
1
41
1
41
1
41
1
41
1
41
1
41
1
41
1
41
1
41
1
41
1
41
1
41
1
41
1
41
1
41
1
41
1
41
1
41
1
41
1
41
1
41
1
41
1
41
1
41
1
41
1
41
1
41
1
41
1
41
1
41
1
41
1
41
1
41
1
41
1
41
1
41
1
41
1
41
1
41
1
41
1
41
1
41
1
41
1
41
1
41
1
41
1
41
1
41
1
41
1
41
1
41
1
41
1
41
1
41
1
41
1
41
1
41
1
41
1
41
1
41
1
41
1
41
1
41
1
41
1
41
1
41
1
41
1
41
1
41
1
41
1
41
1
41
1
41
1
41
1
41
1
41
1
41
1
41
1
41
1
41
1
41
1
41
1
41
1
41
1
41
1
41
1
41
1
41
1
41
1
41
1
41
1
41
1
41
1
41
1
41
1
41
1
41
1
41
1
41
1
41
1
41
1
41
1
41
1
41
1
41
1
41
1
41
1
41
1
41
1
41
1
41
1
41
1
41
1
41
1
41
1
41
1
41
1
41
1
41
1
41
1
41
1
41
1
41
1
41
1
41
1
41
1
41
1
41
1
41
1
41
1
41
1
41
1
41
1
41
1
41
1
41
1
41
1
41
1
41
1
41
1
41
1
41
1
41
1
41
1
41
1
41
1
41
1
41
1
41
1
41
1
41
1
41
1
41
1
41
1
41
1
41
1
41
1
41
1
41
1
41
1
41
1
41
1
41
1
41
1
41
1
41
1
41
1
41
1
41
1
41
1
41
1
41
1
41
1
41
1
41
1
41
1
41
1
41
1
41
1
41
1
41
1
41
1
41
1
41
1
41
1
41
1
41
1
41
1
41
1
41
1
41
1
41
1
41
1
41
1
41
1
41
1
41
1
41
1
41
1
41
1
41
1
41
1
41
1
41
1
41
1
41
1
41
1
41
1
41
1
41
1
10
20.068800000000003
20
-109.17470000000002
30
0
10
19.957357354377812
20
-109.18011076022091
30
0
10
19.73414334125949
20
-109.18393187839283
30
0
10
19.399158526723152
20
-109.16869403209986
30
0
10
18.955401620279041
20
-109.10734532683313
30
0
10
18.413149631587359
20
-108.96657160467225
30
0
10
17.890636761059071
20
-108.76566972545015
30
0
10
17.394558309196341
20
-108.50726362904939
30
0
10
16.929949932390819
20
-108.19515025692797
30
0
10
16.498858796723205
20
-107.83751767164875
30
0
10
16.100414600746014
20
-107.4458752845332
30
0
10
15.732600352200453
20
-107.02969847112746
30
0
10
15.393761264136735
20
-106.59012949198041
30
0
10
15.083320595988365
20
-106.1239219892386
30
0
10
14.801868252400583
20
-105.63200600812203
30
0
10
14.551633940015545
20
-105.12790414151334
30
0
10
14.333851452006448
20
-104.62637219410175
30
0
10
14.145440349190963
20
-104.12812719789393
30
0
10
13.976809930248759
20
-103.60918623127634
30
0
10
13.816553098519028
20
-103.03583352942491
30
0
10
13.656243660551354
20
-102.37950977360083
30
0
10
13.493099665640155
20
-101.6255071851522
30
0
10
13.327618470075492
20
-100.76664231275976
30
0
10
13.162388022408702
20
-99.800491504201631
30
0
10
13.000224082526904
20
-98.724512222579619
30
0
10
12.843313536512726
20
-97.5344949519544
30
0
10
12.69345395672142
20
-96.226734739142586
30
0
10
12.552042478627193
20
-94.799367706273557
30
0
10
12.420164711166056
20
-93.253995190874718
30
0
10
12.298641865147193
20
-91.597293723106617
30
0
10
12.188093573004956
20
-89.842376815543489
30
0
10
12.088999708078049
20
-88.010905899612936
30
0
10
12.001734399155289
20
-86.131732126874496
30
0
10
11.926581083678593
20
-84.237589411349404
30
0
10
11.863753623277297
20
-82.36238497091054
30
0
10
11.813414799951815
20
-80.538249596491312
30
0
10
11.775696156689309
20
-78.792674184708034
30
0
10
11.750716744636687
20
-77.145648007028626
30
0
10
11.738603536580266
20
-75.60670558218392
30
0
10
11.739508303073919
20
-74.172226237179501
30
0
10
11.753633550666493
20
-72.822054099638748
30
0
10
11.781158766085959
20
-71.523647501648469
30
0
10
11.822154402160761
20
-70.237146867388645
30
0
10
11.876500682568611
20
-68.920097219769673
30
0
10
11.943803332642467
20
-67.532358189250772
30
0
10
12.023313038305224
20
-66.040836118211473
30
0
10
12.113837554658883
20
-64.424524573628702
30
0
10
12.213673592343685
20
-62.678741328505829
30
0
10
12.320722625425798
20
-60.811945738600812
30
0
10
12.432591399124673
20
-58.843171234163478
30
0
10
12.546698423417968
20
-56.799219807499021
30
0
10
12.660377570126016
20
-54.711965851508594
30
0
10
12.770983721309053
20
-52.615594423468785
30
0
10
12.875995658901484
20
-50.543911096911252
30
0
10
12.973124502266424
20
-48.527520356722071
30
0
10
13.06040956886806
20
-46.591295878751666
30
0
10
13.136344921431274
20
-44.751141678402675
30
0
10
13.19989021505986
20
-43.013424115190581
30
0
10
13.250374458726723
20
-41.376871116537259
30
0
10
13.287429744815283
20
-39.833787419950838
30
0
10
13.310911992486371
20
-38.371552383690748
30
0
10
13.320828911565725
20
-36.973990737429581
30
0
10
13.317261021549832
20
-35.622811720412088
30
0
10
13.300294669386584
20
-34.298986429079072
30
0
10
13.269926903483409
20
-32.984234219707709
30
0
10
13.226109667931432
20
-31.662003721229787
30
0
10
13.168853411088079
20
-30.318236676220355
30
0
10
13.098312247612489
20
-28.942206940034978
30
0
10
13.014875479540674
20
-27.527315701377507
30
0
10
12.91925944421479
20
-26.071934560358919
30
0
10
12.812592030572215
20
-24.58015968593585
30
0
10
12.6965196845871
20
-23.062788140674595
30
0
10
12.573000246452962
20
-21.535295164402189
30
0
10
12.444069073236189
20
-20.015554340857609
30
0
10
12.3116112865589
20
-18.521624433446718
30
0
10
12.177139259483823
20
-17.069565878556006
30
0
10
12.041549730815319
20
-15.671110762493161
30
0
10
11.904932074906274
20
-14.331708793223587
30
0
10
11.766248251749875
20
-13.047626904484295
30
0
10
11.623548108157296
20
-11.806992586721117
30
0
10
11.474564275225125
20
-10.593606363637614
30
0
10
11.317179191200832
20
-9.3898632877433492
30
0
10
11.149978853726113
20
-8.1801980388446012
30
0
10
10.972690738391035
20
-6.9539441781374922
30
0
10
10.786863471418481
20
-5.7093271007082578
30
0
10
10.595763836898575
20
-4.4538534453323537
30
0
10
10.403050806737111
20
-3.1991066353334849
30
0
10
10.211754174101781
20
-1.9569137613943046
30
0
10
10.023093974470587
20
-0.73483823001425475
30
0
10
9.835451671027954
20
0.46776012948003937
30
0
10
9.6430755900905023
20
1.6645776573449846
30
0
10
9.435513028944829
20
2.884784641533646
30
0
10
9.1999938383576332
20
4.1656101268916217
30
0
10
8.9233752830111506
20
5.5463827951905689
30
0
10
8.5942714068222266
20
7.0619680111606122
30
0
10
8.2050734908971119
20
8.7365435086640524
30
0
10
7.754087745971006
20
10.577040390443509
30
0
10
7.2474567961203027
20
12.567173243361484
30
0
10
6.7016174782006921
20
14.660026810862998
30
0
10
6.1399707748646373
20
16.786153169690014
30
0
10
5.5888277465157534
20
18.863589316908701
30
0
10
5.0736417375727418
20
20.807149852567814
30
0
10
4.6150545914276435
20
22.538121073173123
30
0
10
4.2251738410210162
20
23.993560619676483
30
0
10
3.9033994507619365
20
25.136282705517573
30
0
10
3.633260726920815
20
25.963348755007321
30
0
10
3.376887107315818
20
26.518045358756595
30
0
10
3.0757917032053825
20
26.892437328620051
30
0
10
2.6798076471097065
20
27.181961932947107
30
0
10
2.1824934725623053
20
27.434343430776856
30
0
10
1.6268637085839273
20
27.632077785631438
30
0
10
1.0643935908834858
20
27.735293081155348
30
0
10
0.51357163061756683
20
27.715585716258893
30
0
10
-0.035377550274704614
20
27.57283494272556
30
0
10
-0.58554143965538008
20
27.33275994050058
30
0
10
-1.1008690399264955
20
27.055243829799021
30
0
10
-1.5372092243447388
20
26.792006188338654
30
0
10
-1.8905764960392339
20
26.531862529740625
30
0
10
-2.2322210549626544
20
26.16036216670139
30
0
10
-2.6519533266704345
20
25.547491568865478
30
0
10
-3.1968386951565462
20
24.643421041498073
30
0
10
-3.8366288772732862
20
23.530025535654133
30
0
10
-4.5019381483078726
20
22.352104312754641
30
0
10
-5.1075303062144437
20
21.273501241925246
30
0
10
-5.5831087327812288
20
20.420102896401765
30
0
10
-5.8972408289888421
20
19.835892553584038
30
0
10
-6.0936818459213491
20
19.414163900744413
30
0
10
-6.2598991990701247
20
18.966487119813817
30
0
10
-6.4756206708555801
20
18.332278394696317
30
0
10
-6.7668713491378831
20
17.477436436163384
30
0
10
-7.1201879380059099
20
16.456355279217195
30
0
10
-7.4997810636268767
20
15.367323508995218
30
0
10
-7.8630121766721075
20
14.312128699874751
30
0
10
-8.1778058044405029
20
13.350119727896576
30
0
10
-8.4355909412491972
20
12.465845692786129
30
0
10
-8.6431964479517109
20
11.600929183567066
30
0
10
-8.8172894650151452
20
10.678581067892281
30
0
10
-8.9781672606132101
20
9.6290571509629199
30
0
10
-9.1430159164010671
20
8.4192745593087199
30
0
10
-9.3221964458540452
20
7.0648675451677567
30
0
10
-9.5210470567430185
20
5.6114773353868923
30
0
10
-9.7404102615935138
20
4.1229709346324093
30
0
10
-9.9776727904658777
20
2.6671763838273392
30
0
10
-10.227588480984437
20
1.3019779742877384
30
0
10
-10.483189057197652
20
0.062897979695167153
30
0
10
-10.736670732046944
20
-1.0540793366300651
30
0
10
-10.980227472203133
20
-2.0888323378648783
30
0
10
-11.206825588791949
20
-3.0995907265531084
30
0
10
-11.411003595029205
20
-4.1494756504816905
30
0
10
-11.58964678387334
20
-5.2915536473232896
30
0
10
-11.742807558778363
20
-6.5540880980084584
30
0
10
-11.874407536453287
20
-7.9269489543309701
30
0
10
-11.990922848749928
20
-9.3737280068273794
30
0
10
-12.100159852210146
20
-10.842612998031861
30
0
10
-12.210014628683554
20
-12.277573210516092
30
0
10
-12.32719891893359
20
-13.629773975626341
30
0
10
-12.456074522124243
20
-14.868052625807785
30
0
10
-12.597214144516402
20
-15.991825175539077
30
0
10
-12.74680760193058
20
-17.036445383252918
30
0
10
-12.898384570527114
20
-18.057849332508344
30
0
10
-13.044087876383612
20
-19.121232956858691
30
0
10
-13.176168877210596
20
-20.287710117375841
30
0
10
-13.288285952421511
20
-21.602810057343952
30
0
10
-13.377150387742693
20
-23.081668460144069
30
0
10
-13.442359633593329
20
-24.711566238824936
30
0
10
-13.485632331124521
20
-26.460203551597271
30
0
10
-13.510242639415925
20
-28.282056861291576
30
0
10
-13.520366913510033
20
-30.125592053071003
30
0
10
-13.520478281995132
20
-31.939981347337074
30
0
10
-13.514696790166434
20
-33.682332461724592
30
0
10
-13.506214312276008
20
-35.323999763224251
30
0
10
-13.496550799506952
20
-36.859001637017762
30
0
10
-13.485385125101509
20
-38.305238279919145
30
0
10
-13.47113048563196
20
-39.696377238585001
30
0
10
-13.451324169576139
20
-41.0760618688089
30
0
10
-13.423090949556567
20
-42.491207264057323
30
0
10
-13.383578715894824
20
-43.985619587667358
30
0
10
-13.330397321094175
20
-45.593632423091464
30
0
10
-13.262076850793871
20
-47.3333635281572
30
0
10
-13.178457008962262
20
-49.201217837006226
30
0
10
-13.080477845151394
20
-51.1771038637781
30
0
10
-12.970024979726407
20
-53.228672624010429
30
0
10
-12.849753938088053
20
-55.315939816741285
30
0
10
-12.722923452920217
20
-57.395724054680137
30
0
10
-12.593224756188482
20
-59.426212393094538
30
0
10
-12.464612987630204
20
-61.371358972792265
30
0
10
-12.34113680941312
20
-63.205616072838367
30
0
10
-12.226770871378498
20
-64.917913012701447
30
0
10
-12.125241901142916
20
-66.517471764447237
30
0
10
-12.039878547045191
20
-68.032603627405422
30
0
10
-11.973481237836621
20
-69.503293359389843
30
0
10
-11.928187729142284
20
-70.975549327661881
30
0
10
-11.905337595127319
20
-72.494971214094747
30
0
10
-11.905343630095155
20
-74.10078751506596
30
0
10
-11.927545234011562
20
-75.819378276425638
30
0
10
-11.970104791756428
20
-77.658752411121753
30
0
10
-12.029795380309007
20
-79.60073913989882
30
0
10
-12.102348313278704
20
-81.604834240807634
30
0
10
-12.183028823984284
20
-83.616789012419048
30
0
10
-12.267138514685186
20
-85.575672709802376
30
0
10
-12.350547301581589
20
-87.421559817240308
30
0
10
-12.43021504425954
20
-89.102974434833897
30
0
10
-12.504712209785962
20
-90.58438065179773
30
0
10
-12.574753591123471
20
-91.853789845969061
30
0
10
-12.643696546304161
20
-92.929994723805834
30
0
10
-12.71813776528057
20
-93.870860364397529
30
0
10
-12.805849422204281
20
-94.753572250362083
30
0
10
-12.913525659274169
20
-95.653024502223403
30
0
10
-13.044725221514293
20
-96.621955131208566
30
0
10
-13.197437303878718
20
-97.667870025155494
30
0
10
-13.362666703741885
20
-98.738557742498841
30
0
10
-13.528656442650576
20
-99.754868346020828
30
0
10
-13.684703705287175
20
-100.64018090724547
30
0
10
-13.82463700940496
20
-101.34679706003143
30
0
10
-13.951613481752434
20
-101.89395038231963
30
0
10
-14.078453222620517
20
-102.36702855939157
30
0
10
-14.22049467252176
20
-102.85584668966328
30
0
10
-14.388833634737502
20
-103.3903885321931
30
0
10
-14.588446713247993
20
-103.94036217964968
30
0
10
-14.820705447722819
20
-104.46433999986361
30
0
10
-15.084576734155091
20
-104.95114371958411
30
0
10
-15.378304412093611
20
-105.41321829939835
30
0
10
-15.700864830504997
20
-105.86364658211954
30
0
10
-16.053468678640424
20
-106.2994534212819
30
0
10
-16.43817545526462
20
-106.70884986216372
30
0
10
-16.856443709081081
20
-107.08019007414509
30
0
10
-17.308019812450897
20
-107.4076240876914
30
0
10
-17.791077594560068
20
-107.68743849258001
30
0
10
-18.302138022340632
20
-107.91523420381699
30
0
10
-18.836129465991416
20
-108.08495109924847
30
0
10
-19.386562135348868
20
-108.19090252125521
30
0
10
-19.945561221231706
20
-108.22918731240449
30
0
10
-20.504542814460653
20
-108.19833500436219
30
0
10
-21.055141156903112
20
-108.09927885476606
30
0
10
-21.590114964504266
20
-107.9356251070889
30
0
10
-22.103232695074063
20
-107.71254035587297
30
0
10
-22.588987228690446
20
-107.43543399605105
30
0
10
-23.042509672581787
20
-107.10901032675562
30
0
10
-23.460198471003476
20
-106.73811217016271
30
0
10
-23.840470658846037
20
-106.32867500316094
30
0
10
-24.183888342475317
20
-105.88777351922823
30
0
10
-24.492086458460832
20
-105.42214152036145
30
0
10
-24.766983776478945
20
-104.93669468999884
30
0
10
-25.009886545320725
20
-104.43445277598462
30
0
10
-25.220882324678303
20
-103.91755394847098
30
0
10
-25.397711264810216
20
-103.38801439186651
30
0
10
-25.538265405122115
20
-102.848324280141
30
0
10
-25.644038847497882
20
-102.30231533367031
30
0
10
-25.722948092372437
20
-101.75516109311036
30
0
10
-25.784457965891615
20
-101.20082590668326
30
0
10
-25.834139384595147
20
-100.60691719528475
30
0
10
-25.870357607073935
20
-99.908354811254085
30
0
10
-25.888077654820236
20
-99.030794040731081
30
0
10
-25.881279076226903
20
-97.907665889413721
30
0
10
-25.846288451817287
20
-96.502536249660693
30
0
10
-25.783511671654669
20
-94.82002837017447
30
0
10
-25.696295247991063
20
-92.894666390877035
30
0
10
-25.590365080587453
20
-90.784231273519268
30
0
10
-25.473034923306447
20
-88.561308254243002
30
0
10
-25.352515507494754
20
-86.305635411456265
30
0
10
-25.237175045022848
20
-84.096041655232312
30
0
10
-25.134833060484087
20
-82.002714968938363
30
0
10
-25.05201106020904
20
-80.078971556700381
30
0
10
-24.993269420433613
20
-78.354077559168388
30
0
10
-24.960332635409969
20
-76.823456090282079
30
0
10
-24.952422435625792
20
-75.453850821532313
30
0
10
-24.966986726620011
20
-74.19339174031694
30
0
10
-25.000298078716526
20
-72.980047473856629
30
0
10
-25.04810506671059
20
-71.750726369633014
30
0
10
-25.106264705114256
20
-70.450157472206769
30
0
10
-25.171374052011718
20
-69.039728185229009
30
0
10
-25.241426738491203
20
-67.506719181049505
30
0
10
-25.315553342994658
20
-65.859410917365437
30
0
10
-25.393728273208509
20
-64.121674824813411
30
0
10
-25.476490009100598
20
-62.327772930563341
30
0
10
-25.564653376681203
20
-60.517027005424815
30
0
10
-25.659030635401368
20
-58.728642200445684
30
0
10
-25.760136265286011
20
-56.996235774637746
30
0
10
-25.867928086421976
20
-55.343028167981132
30
0
10
-25.981458360506192
20
-53.775390582830397
30
0
10
-26.09894760546911
20
-52.284111899542545
30
0
10
-26.218067721793901
20
-50.849486782435172
30
0
10
-26.336160713147734
20
-49.445230200426963
30
0
10
-26.450481257729905
20
-48.042821542685125
30
0
10
-26.558435700965212
20
-46.615797193506275
30
0
10
-26.657807075409991
20
-45.143755723198169
30
0
10
-26.747023769279114
20
-43.617237750196487
30
0
10
-26.825283337322233
20
-42.03971301084708
30
0
10
-26.892380312165983
20
-40.423653671055455
30
0
10
-26.94859696710774
20
-38.787872619337975
30
0
10
-26.994568527284155
20
-37.154332509985522
30
0
10
-27.031160193216838
20
-35.545234933580041
30
0
10
-27.059337024814248
20
-33.979863946183727
30
0
10
-27.08004172137462
20
-32.471827838205549
30
0
10
-27.094057062897441
20
-31.025405194627524
30
0
10
-27.101922944564336
20
-29.635176485199626
30
0
10
-27.103906185721645
20
-28.288792582469444
30
0
10
-27.099954612448585
20
-26.968893349100675
30
0
10
-27.089660363441503
20
-25.655354066183719
30
0
10
-27.072212804182506
20
-24.327436833550564
30
0
10
-27.046370999477745
20
-22.965876267508044
30
0
10
-27.010388945894185
20
-21.555267513336549
30
0
10
-26.962199465030121
20
-20.08464363769675
30
0
10
-26.899690021664924
20
-18.547403185949346
30
0
10
-26.820947635996227
20
-16.941449642454561
30
0
10
-26.72451826419525
20
-15.269247437868367
30
0
10
-26.6096563635923
20
-13.537902389077674
30
0
10
-26.476587089073455
20
-11.759258348374093
30
0
10
-26.326743256846843
20
-9.9499240716003996
30
0
10
-26.163066415829888
20
-8.1314992347986479
30
0
10
-25.989499045911639
20
-6.3282279263340762
30
0
10
-25.810393468481063
20
-4.564383030246387
30
0
10
-25.629954322557374
20
-2.8617649423187999
30
0
10
-25.451658450492133
20
-1.237111666209213
30
0
10
-25.277703985036567
20
0.30035972677829292
30
0
10
-25.108401532398631
20
1.7516852019822327
30
0
10
-24.941696354691288
20
3.1302604004916876
30
0
10
-24.772367796751062
20
4.4654914993022068
30
0
10
-24.592589844610661
20
5.7999314528567378
30
0
10
-24.393387539390069
20
7.1821288443464084
30
0
10
-24.165819510357323
20
8.6607864860631665
30
0
10
-23.902286706274442
20
10.278318700443791
30
0
10
-23.597756839557125
20
12.064805724862584
30
0
10
-23.251095297809307
20
14.031453193998018
30
0
10
-22.866185421656411
20
16.165025382358451
30
0
10
-22.453567275497427
20
18.419884397957166
30
0
10
-22.028852788879352
20
20.724912016564204
30
0
10
-21.610247286932424
20
22.994559833938652
30
0
10
-21.216356966349625
20
25.138573071758479
30
0
10
-20.863909991360224
20
27.072127442477679
30
0
10
-20.565437692042885
20
28.726116990303389
30
0
10
-20.327151538309973
20
30.056615108073355
30
0
10
-20.146320507986211
20
31.056462958455846
30
0
10
-20.009834969130232
20
31.761798900105461
30
0
10
-19.889835991545613
20
32.271095137690239
30
0
10
-19.751267370799731
20
32.713606220393331
30
0
10
-19.566040398639181
20
33.190650803332922
30
0
10
-19.327677177421165
20
33.713015837217071
30
0
10
-19.046266655622837
20
34.235344059437395
30
0
10
-18.738364746769108
20
34.715101799809133
30
0
10
-18.419161823323684
20
35.160196816644799
30
0
10
-18.104171274183823
20
35.603270074574873
30
0
10
-17.811999041326608
20
36.07430453320741
30
0
10
-17.56387848572966
20
36.581116542262592
30
0
10
-17.375495967425
20
37.118138442169375
30
0
10
-17.248049472538259
20
37.667086394575591
30
0
10
-17.166838251501733
20
38.211061583840113
30
0
10
-17.108696103236262
20
38.75599568081001
30
0
10
-17.047501208262627
20
39.357264566337705
30
0
10
-16.958127450830634
20
40.106918621240979
30
0
10
-16.819053088004679
20
41.102880178915811
30
0
10
-16.615223981048892
20
42.425684878584832
30
0
10
-16.341364644505994
20
44.10792612455716
30
0
10
-16.001106542647531
20
46.136612488101115
30
0
10
-15.60493051951514
20
48.463646194483481
30
0
10
-15.168513015881494
20
51.013598431347219
30
0
10
-14.710905255050804
20
53.692606839536083
30
0
10
-14.252779077686423
20
56.396808349188312
30
0
10
-13.814656061865936
20
59.020931346784941
30
0
10
-13.415116118444141
20
61.466913161254524
30
0
10
-13.069079304029716
20
63.65228842076106
30
0
10
-12.785906326158083
20
65.519183816150161
30
0
10
-12.567928373492016
20
67.041861134271585
30
0
10
-12.407892543393721
20
68.237936307379186
30
0
10
-12.292108521012331
20
69.160212345374163
30
0
10
-12.205736077880831
20
69.881119668198735
30
0
10
-12.137487846257747
20
70.479375390486453
30
0
10
-12.084323074183661
20
71.026131892416785
30
0
10
-12.056865424788244
20
71.57030252561745
30
0
10
-12.068867635756762
20
72.135443618758316
30
0
10
-12.123366650511791
20
72.714814587719118
30
0
10
-12.204345950710611
20
73.273603362791064
30
0
10
-12.294387271426579
20
73.78387973325313
30
0
10
-12.394539861005731
20
74.267554752009374
30
0
10
-12.529320220080022
20
74.803176734587197
30
0
10
-12.72484327977171
20
75.470687681985908
30
0
10
-12.988592792284535
20
76.298414488647978
30
0
10
-13.30592711066884
20
77.255180096762629
30
0
10
-13.65158650577966
20
78.281689460567975
30
0
10
-13.996933173893884
20
79.310869416607702
30
0
10
-14.318353888851778
20
80.291020711743002
30
0
10
-14.606719077502419
20
81.212291399036033
30
0
10
-14.86531239099974
20
82.099480814587366
30
0
10
-15.104370321438701
20
82.995024951363206
30
0
10
-15.336763288950408
20
83.945275702937764
30
0
10
-15.573236123434345
20
84.985527884322607
30
0
10
-15.817733149261793
20
86.1252293742196
30
0
10
-16.068812496951765
20
87.354015421179426
30
0
10
-16.321240758735357
20
88.64835500608973
30
0
10
-16.567502725844236
20
89.977877359698297
30
0
10
-16.799383471835373
20
91.312031583000561
30
0
10
-17.009434202950469
20
92.626140235512395
30
0
10
-17.192709715910407
20
93.908919492471824
30
0
10
-17.346745737506634
20
95.160391823449487
30
0
10
-17.471086427343291
20
96.387289462401725
30
0
10
-17.566963837154074
20
97.599395802897845
30
0
10
-17.63691520877477
20
98.805300946496658
30
0
10
-17.684423517565019
20
100.00885785540314
30
0
10
-17.713556719274145
20
101.20421122282309
30
0
10
-17.728568123162677
20
102.37656825908232
30
0
10
-17.733465916873708
20
103.50675603511533
30
0
10
-17.731591189108759
20
104.57466202814845
30
0
10
-17.725194580359222
20
105.56311260450681
30
0
10
-17.715008515233858
20
106.46161739822679
30
0
10
-17.699833201734616
20
107.27002916766629
30
0
10
-17.676129997266269
20
108.00017107617253
30
0
10
-17.637680587777279
20
108.677294186296
30
0
10
-17.575085655509177
20
109.34217495636659
30
0
10
-17.475728790379307
20
110.05125567741543
30
0
10
-17.327255772714203
20
110.86195344393131
30
0
10
-17.120497359452827
20
111.82026815008136
30
0
10
-16.853000168128375
20
112.94595121718268
30
0
10
-16.531115404636108
20
114.22338321882924
30
0
10
-16.166801233471254
20
115.61334247354344
30
0
10
-15.775193728387691
20
117.0617106915106
30
0
10
-15.371938075705518
20
118.50919296280327
30
0
10
-14.970484077490543
20
119.90102016489026
30
0
10
-14.579718376984079
20
121.19569212991163
30
0
10
-14.200663662130278
20
122.3765042633616
30
0
10
-13.826474555995297
20
123.45317234913567
30
0
10
-13.446827740633893
20
124.45027800696479
30
0
10
-13.051167593236421
20
125.3990994954996
30
0
10
-12.632518012269259
20
126.32786702363049
30
0
10
-12.190813653838061
20
127.25316577542151
30
0
10
-11.737078640030125
20
128.16957359655362
30
0
10
-11.28811566055786
20
129.05806697349379
30
0
10
-10.860093777970066
20
129.89652622444115
30
0
10
-10.462734602555246
20
130.66919867406935
30
0
10
-10.092770430890534
20
131.37728280593046
30
0
10
-9.7291100618531505
20
132.04703737736378
30
0
10
-9.3461560711271225
20
132.71229236756713
30
0
10
-8.9249794685898056
20
133.39984711695175
30
0
10
-8.4668166890698782
20
134.11191329611171
30
0
10
-8.0010680476749414
20
134.81536584474372
30
0
10
-7.5643134327080954
20
135.46644621339684
30
0
10
-7.1849693140856044
20
136.02869820148965
30
0
10
-6.8617271784318561
20
136.49818793618891
30
0
10
-6.5567120722472332
20
136.91167331523005
30
0
10
-6.2248851495140514
20
137.31306203656428
30
0
10
-5.8441010613726299
20
137.71892997516625
30
0
10
-5.4217119833471452
20
138.11171291173994
30
0
10
-4.9733248855428851
20
138.46561911812864
30
0
10
-4.5054576231236263
20
138.768018513398
30
0
10
-4.0153094821154385
20
139.02039060024811
30
0
10
-3.5001440313222023
20
139.2277714714659
30
0
10
-2.964034167035738
20
139.39149860768254
30
0
10
-2.4150631419493314
20
139.51087366730323
30
0
10
-1.8607737154610049
20
139.58669649106528
30
0
10
-1.3049286176288224
20
139.6233669768888
30
0
10
-0.74901323168112999
20
139.62631694856742
30
0
10
-0.19321619151769331
20
139.59959221791217
30
0
10
0.36217143419097009
20
139.54420083023558
30
0
10
0.91554672073424292
20
139.45848898745271
30
0
10
1.4619795204180206
20
139.33770239431686
30
0
10
1.9944729413552296
20
139.17529756603781
30
0
10
2.5071179659549814
20
138.96525491606667
30
0
10
2.9984331497920498
20
138.70416337130874
30
0
10
3.4687493549074282
20
138.3932367205602
30
0
10
3.9157454422315352
20
138.04057490030931
30
0
10
4.3312578480380246
20
137.6626818847198
30
0
10
4.709693040635818
20
137.27405160838441
30
0
10
5.0583475905930317
20
136.8747570170498
30
0
10
5.4015249685159974
20
136.44479360333065
30
0
10
5.7671963475351182
20
135.95788893146494
30
0
10
6.174358004568262
20
135.39416293088402
30
0
10
6.6279760336936331
20
134.745737878922
30
0
10
7.124619098596062
20
134.01207803469165
30
0
10
7.6550103816446393
20
133.19828439846188
30
0
10
8.208294473056899
20
132.31178561373201
30
0
10
8.7736648471172316
20
131.36136757052466
30
0
10
9.3404658729369867
20
130.35750392928347
30
0
10
9.8986993150793534
20
129.31234568488628
30
0
10
10.439365721001014
20
128.23984886866816
30
0
10
10.954878277788536
20
127.15584379283581
30
0
10
11.43944091679481
20
126.07812431172108
30
0
10
11.889113556288189
20
125.02372151781181
30
0
10
12.301862337779127
20
124.00632225240255
30
0
10
12.677640283785612
20
123.03341067650706
30
0
10
13.01839940259217
20
122.10403374180886
30
0
10
13.32826886082213
20
121.20505590343302
30
0
10
13.613143216235763
20
120.3127762331155
30
0
10
13.879630687065836
20
119.40033091274159
30
0
10
14.134137063583356
20
118.44391518508787
30
0
10
14.381964312417747
20
117.42875448800112
30
0
10
14.626226940384555
20
116.35702278592497
30
0
10
14.867781711116789
20
115.2451745442842
30
0
10
15.105644423571347
20
114.11627821809012
30
0
10
15.337249534938
20
112.99383854338862
30
0
10
15.558779935786086
20
111.89522278245845
30
0
10
15.765455155456426
20
110.82472805782935
30
0
10
15.951871778757722
20
109.76836206572614
30
0
10
16.112648263577391
20
108.70164267501016
30
0
10
16.243022719674773
20
107.59587751815474
30
0
10
16.339503332780552
20
106.42533204521931
30
0
10
16.400416996277972
20
105.17332497674404
30
0
10
16.426700481088492
20
103.84052330627263
30
0
10
16.421680691663411
20
102.44436164083224
30
0
10
16.390187975132417
20
101.01264142914513
30
0
10
16.337865028302865
20
99.578836941403338
30
0
10
16.270402481166126
20
98.176757507916591
30
0
10
16.192788839387028
20
96.835345985820638
30
0
10
16.108594401044105
20
95.573747173505112
30
0
10
16.019135035513777
20
94.395397556276777
30
0
10
15.923583673827427
20
93.289818646210975
30
0
10
15.819290943583731
20
92.236062372857219
30
0
10
15.702019599329519
20
91.205561364713276
30
0
10
15.56624647637689
20
90.165284088617113
30
0
10
15.405360240087766
20
89.080627190657509
30
0
10
15.212143538323877
20
87.918834357477635
30
0
10
14.979995121902302
20
86.653574046622111
30
0
10
14.704031602570442
20
85.26943970835805
30
0
10
14.382204081009075
20
83.766204940885203
30
0
10
14.016483382233414
20
82.16381372624636
30
0
10
13.613841046657168
20
80.505584015046239
30
0
10
13.187750282781201
20
78.865819441199974
30
0
10
12.757759507369563
20
77.341071743152355
30
0
10
12.347114261099772
20
76.024274023301089
30
0
10
11.98090854819424
20
74.98436643634038
30
0
10
11.684015757145227
20
74.241805626567839
30
0
10
11.47912366141032
20
73.750155606218769
30
0
10
11.384699839974671
20
73.364666315465314
30
0
10
11.41309979314163
20
72.84953683387856
30
0
10
11.569407583231177
20
71.962111775608292
30
0
10
11.849628571477426
20
70.536513905690555
30
0
10
12.2410242784005
20
68.512516573751498
30
0
10
12.724269259798149
20
65.907947511294523
30
0
10
13.275099477905886
20
62.807354528428561
30
0
10
13.866168428364178
20
59.343984904657262
30
0
10
14.468815465511822
20
55.684616744741163
30
0
10
15.054868961158409
20
52.013197474259456
30
0
10
15.598441250136752
20
48.514917506630056
30
0
10
16.077711382413131
20
45.360279614910567
30
0
10
16.476749783131293
20
42.688745024804788
30
0
10
16.787239948892964
20
40.59354836663428
30
0
10
17.010442176994623
20
39.103714686967052
30
0
10
17.158590777664287
20
38.172645038956148
30
0
10
17.257692341064242
20
37.65055103808966
30
0
10
17.344660489699777
20
37.31945144831316
30
0
10
17.459479125991713
20
36.971149931199875
30
0
10
17.639654627811499
20
36.483582690727481
30
0
10
17.908003227353696
20
35.825477424808476
30
0
10
18.259099701976204
20
35.037399736721945
30
0
10
18.645984798959738
20
34.221347748254615
30
0
10
19.005299926034112
20
33.48893560916153
30
0
10
19.281826068011373
20
32.912856137393327
30
0
10
19.454711240224608
20
32.473320652600705
30
0
10
19.559006800689978
20
32.016620046712106
30
0
10
19.655546843095408
20
31.33904730809553
30
0
10
19.800613472552381
20
30.273251328306621
30
0
10
20.025446953562714
20
28.744778233898401
30
0
10
20.343538666582305
20
26.746701670990767
30
0
10
20.752397499566896
20
24.33048031772735
30
0
10
21.23751965196832
20
21.590348909080298
30
0
10
21.775415772168497
20
18.650477937168958
30
0
10
22.33704655498617
20
15.650928630039926
30
0
10
22.891075259030455
20
12.734159754079863
30
0
10
23.407215517853711
20
10.031220724146179
30
0
10
23.859499750384138
20
7.6482566594404391
30
0
10
24.229671064095829
20
5.6524670824292791
30
0
10
24.510311669100805
20
4.0592699204721159
30
0
10
24.708646642427166
20
2.8163555780968732
30
0
10
24.842647387822172
20
1.8231775763385196
30
0
10
24.936341975175861
20
0.95405095511980487
30
0
10
25.015276221062503
20
0.080652975543025807
30
0
10
25.102209205398097
20
-0.90677818739987348
30
0
10
25.211987343207369
20
-2.0739265253515589
30
0
10
25.349215682731071
20
-3.4314841325110583
30
0
10
25.511273052871772
20
-4.9520992617168611
30
0
10
25.690161017644591
20
-6.5812464750997011
30
0
10
25.874817786601842
20
-8.2505175398343358
30
0
10
26.053238798259652
20
-9.8899113820354749
30
0
10
26.214667801739601
20
-11.440475795322458
30
0
10
26.351787596060547
20
-12.866984658002785
30
0
10
26.462827047727476
20
-14.170077755275878
30
0
10
26.550122057265718
20
-15.376366984364559
30
0
10
26.618763877544257
20
-16.529077255618986
30
0
10
26.675228577000432
20
-17.678583849582278
30
0
10
26.725982964034177
20
-18.872774075884792
30
0
10
26.776174743173776
20
-20.148000419816746
30
0
10
26.828091003656915
20
-21.518418404970944
30
0
10
26.88155314888672
20
-22.9788155984096
30
0
10
26.934656865190693
20
-24.509850767422051
30
0
10
26.984397569073167
20
-26.082480398875116
30
0
10
27.027331109238844
20
-27.662665173337331
30
0
10
27.060249095818211
20
-29.216098428714407
30
0
10
27.080778333731498
20
-30.712592470130279
30
0
10
27.088185445720896
20
-32.13143645793042
30
0
10
27.083395450889192
20
-33.463009389794792
30
0
10
27.068265012182593
20
-34.706874809334174
30
0
10
27.045071373097787
20
-35.870839131386674
30
0
10
27.015891205590279
20
-36.969631834368869
30
0
10
26.982076946879964
20
-38.023710210894741
30
0
10
26.943569347945093
20
-39.058101522415157
30
0
10
26.898685056761412
20
-40.100925931605786
30
0
10
26.84491901745622
20
-41.18112651567963
30
0
10
26.779528721613815
20
-42.326391714370857
30
0
10
26.700225722819017
20
-43.560946022512951
30
0
10
26.605774365847523
20
-44.903523839694621
30
0
10
26.496752570793088
20
-46.364934488551086
30
0
10
26.37533807144397
20
-47.948247495206637
30
0
10
26.244848534994347
20
-49.649647761429854
30
0
10
26.109365090056915
20
-51.459063802572047
30
0
10
25.973320651743364
20
-53.360890294081159
30
0
10
25.841104005579616
20
-55.334671602584478
30
0
10
25.716655633470332
20
-57.355798371543926
30
0
10
25.603070524278269
20
-59.396206922461801
30
0
10
25.502189818733534
20
-61.425057212412362
30
0
10
25.414220105202791
20
-63.409476331778478
30
0
10
25.338168775884856
20
-65.317268332354502
30
0
10
25.272255788346403
20
-67.119574673110066
30
0
10
25.214332172731734
20
-68.793532665540965
30
0
10
25.162300362736513
20
-70.324981377989445
30
0
10
25.114522874552474
20
-71.711039529995702
30
0
10
25.070261265352165
20
-72.962989085270905
30
0
10
25.030042761204228
20
-74.108439445195827
30
0
10
24.996210805863868
20
-75.19531646712872
30
0
10
24.972444109414479
20
-76.285612616269162
30
0
10
24.962907783086045
20
-77.445466504952464
30
0
10
24.97154205639017
20
-78.736647098874343
30
0
10
25.001257130372842
20
-80.20701685152666
30
0
10
25.053252955964762
20
-81.882442996313927
30
0
10
25.126074810668118
20
-83.755574507480063
30
0
10
25.21566325273173
20
-85.786477588162626
30
0
10
25.316231140715733
20
-87.91314883893034
30
0
10
25.420908607839664
20
-90.059249805330722
30
0
10
25.522478521290957
20
-92.142939938845359
30
0
10
25.614084080803082
20
-94.085335260648634
30
0
10
25.689923076254729
20
-95.818904275689931
30
0
10
25.746006764791897
20
-97.296411120250625
30
0
10
25.780753534912964
20
-98.498409517839022
30
0
10
25.795989430135275
20
-99.444320019241246
30
0
10
25.79658875220678
20
-100.19167072923258
30
0
10
25.787314575715499
20
-100.81250362354223
30
0
10
25.770716082968967
20
-101.37680093388136
30
0
10
25.743634441191649
20
-101.9287697062046
30
0
10
25.697736879547669
20
-102.4817755774873
30
0
10
25.624279399259414
20
-103.03417441746753
30
0
10
25.518867852590951
20
-103.58197469672938
30
0
10
25.381187652256049
20
-104.12300027035457
30
0
10
25.211954186270965
20
-104.65487106399591
30
0
10
25.010494256742398
20
-105.1749742734512
30
0
10
24.775406896063238
20
-105.68042151797155
30
0
10
24.50592422932926
20
-106.16853146958843
30
0
10
24.202764090188605
20
-106.6369819643823
30
0
10
23.867048356412006
20
-107.08310306593782
30
0
10
23.499073627215992
20
-107.50307794080442
30
0
10
23.097925998620639
20
-107.8915685662449
30
0
10
22.662876165964157
20
-108.24227866399431
30
0
10
22.194568096072572
20
-108.54832748248765
30
0
10
21.695628768931229
20
-108.80268373170136
30
0
10
21.170548324624011
20
-108.99860191273235
30
0
10
20.734825529220238
20
-109.10370152428652
30
0
10
20.40279921499474
20
-109.15146731706716
30
0
10
20.180242645623252
20
-109.16928923977909
30
0
10
20.068800000000003
20
-109.17470000000002
30
0
0
ENDSEC
0
SECTION
2
OBJECTS
0
DICTIONARY
5
C
100
AcDbDictionary
3
ACAD_GROUP
350
D
3
ACAD_MLINESTYLE
350
17
0
DICTIONARY
5
D
100
AcDbDictionary
0
DICTIONARY
5
1A
330
C
100
AcDbDictionary
0
DICTIONARY
5
17
100
AcDbDictionary
0
ENDSEC
0
EOF
