0
SECTION
2
HEADER
9
$INSUNITS
70
4
9
$ACADVER
1
AC1014
9
$HANDSEED
5
FFFF
0
ENDSEC
0
SECTION
2
TABLES
0
TABLE
2
VPORT
5
8
100
AcDbSymbolTable
0
ENDTAB
0
TABLE
2
LTYPE
5
5
100
AcDbSymbolTable
0
LTYPE
5
14
100
AcDbSymbolTableRecord
100
AcDbLinetypeTableRecord
2
BYBLOCK
70
0
0
LTYPE
5
15
100
AcDbSymbolTableRecord
100
AcDbLinetypeTableRecord
2
BYLAYER
70
0
0
LTYPE
5
16
100
AcDbSymbolTableRecord
100
AcDbLinetypeTableRecord
2
DASHED
70
0
3
Dashed __ __ __ __ __ __ __ __ __ __ __ __ __ _
72
65
73
2
40
0.75
49
0.5
74
0
49
-0.25
74
0
0
ENDTAB
0
TABLE
2
LAYER
5
2
100
AcDbSymbolTable
70
2
0
LAYER
5
50
100
AcDbSymbolTableRecord
100
AcDbLayerTableRecord
2
0
70
0
62
7
6
CONTINUOUS
0
ENDTAB
0
TABLE
2
STYLE
5
3
100
AcDbSymbolTable
70
1
0
STYLE
5
11
100
AcDbSymbolTableRecord
100
AcDbTextStyleTableRecord
2
STANDARD
70
0
0
ENDTAB
0
TABLE
2
VIEW
5
6
100
AcDbSymbolTable
70
0
0
ENDTAB
0
TABLE
2
UCS
5
7
100
AcDbSymbolTable
70
0
0
ENDTAB
0
TABLE
2
APPID
5
9
100
AcDbSymbolTable
70
2
0
APPID
5
12
100
AcDbSymbolTableRecord
100
AcDbRegAppTableRecord
2
ACAD
70
0
0
ENDTAB
0
TABLE
2
DIMSTYLE
5
A
100
AcDbSymbolTable
70
1
0
ENDTAB
0
TABLE
2
BLOCK_RECORD
5
1
100
AcDbSymbolTable
70
1
0
BLOCK_RECORD
5
1F
100
AcDbSymbolTableRecord
100
AcDbBlockTableRecord
2
*MODEL_SPACE
0
BLOCK_RECORD
5
1B
100
AcDbSymbolTableRecord
100
AcDbBlockTableRecord
2
*PAPER_SPACE
0
ENDTAB
0
ENDSEC
0
SECTION
2
BLOCKS
0
BLOCK
5
20
100
AcDbEntity
100
AcDbBlockBegin
2
*MODEL_SPACE
0
ENDBLK
5
21
100
AcDbEntity
100
AcDbBlockEnd
0
BLOCK
5
1C
100
AcDbEntity
100
AcDbBlockBegin
2
*PAPER_SPACE
0
ENDBLK
5
1D
100
AcDbEntity
100
AcDbBlockEnd
0
ENDSEC
0
SECTION
2
ENTITIES
0
SPLINE
5
100
100
AcDbEntity
8
0
100
AcDbSpline
70
6
71
5
72
676
73
670
74
0
42
0.000000001
43
0.0000000001
44
0.0000000001
40
0
40
0
40
0
40
0
40
0
40
0
40
0.0015037593984962407
40
0.0030075187969924814
40
0.0045112781954887221
40
0.0060150375939849628
40
0.0075187969924812035
40
0.0090225563909774441
40
0.010526315789473686
40
0.012030075187969926
40
0.013533834586466165
40
0.015037593984962405
40
0.016541353383458645
40
0.018045112781954885
40
0.019548872180451125
40
0.021052631578947364
40
0.022556390977443604
40
0.024060150375939844
40
0.025563909774436084
40
0.027067669172932324
40
0.028571428571428564
40
0.030075187969924803
40
0.031578947368421047
40
0.03308270676691729
40
0.034586466165413533
40
0.036090225563909777
40
0.03759398496240602
40
0.039097744360902263
40
0.040601503759398506
40
0.04210526315789475
40
0.043609022556390993
40
0.045112781954887236
40
0.04661654135338348
40
0.048120300751879723
40
0.049624060150375966
40
0.05112781954887221
40
0.052631578947368453
40
0.054135338345864696
40
0.055639097744360939
40
0.057142857142857183
40
0.058646616541353426
40
0.060150375939849669
40
0.061654135338345913
40
0.063157894736842149
40
0.064661654135338392
40
0.066165413533834636
40
0.067669172932330879
40
0.069172932330827122
40
0.070676691729323365
40
0.072180451127819609
40
0.073684210526315852
40
0.075187969924812095
40
0.076691729323308339
40
0.078195488721804582
40
0.079699248120300825
40
0.081203007518797068
40
0.082706766917293312
40
0.084210526315789555
40
0.085714285714285798
40
0.087218045112782042
40
0.088721804511278285
40
0.090225563909774528
40
0.091729323308270772
40
0.093233082706767015
40
0.094736842105263258
40
0.096240601503759501
40
0.097744360902255745
40
0.099248120300751988
40
0.10075187969924823
40
0.10225563909774447
40
0.10375939849624072
40
0.10526315789473696
40
0.1067669172932332
40
0.10827067669172945
40
0.10977443609022569
40
0.11127819548872193
40
0.11278195488721818
40
0.11428571428571442
40
0.11578947368421066
40
0.11729323308270691
40
0.11879699248120315
40
0.12030075187969939
40
0.12180451127819564
40
0.12330827067669188
40
0.12481203007518812
40
0.12631578947368435
40
0.12781954887218058
40
0.12932330827067681
40
0.13082706766917304
40
0.13233082706766927
40
0.1338345864661655
40
0.13533834586466173
40
0.13684210526315796
40
0.13834586466165419
40
0.13984962406015042
40
0.14135338345864665
40
0.14285714285714288
40
0.14436090225563911
40
0.14586466165413534
40
0.14736842105263157
40
0.14887218045112779
40
0.15037593984962402
40
0.15187969924812025
40
0.15338345864661648
40
0.15488721804511271
40
0.15639097744360894
40
0.15789473684210517
40
0.1593984962406014
40
0.16090225563909763
40
0.16240601503759386
40
0.16390977443609009
40
0.16541353383458632
40
0.16691729323308255
40
0.16842105263157878
40
0.16992481203007501
40
0.17142857142857124
40
0.17293233082706747
40
0.17443609022556369
40
0.17593984962405992
40
0.17744360902255615
40
0.17894736842105238
40
0.18045112781954861
40
0.18195488721804484
40
0.18345864661654107
40
0.1849624060150373
40
0.18646616541353353
40
0.18796992481202976
40
0.18947368421052599
40
0.19097744360902222
40
0.19248120300751845
40
0.19398496240601468
40
0.19548872180451091
40
0.19699248120300714
40
0.19849624060150337
40
0.19999999999999959
40
0.20150375939849582
40
0.20300751879699205
40
0.20451127819548828
40
0.20601503759398451
40
0.20751879699248074
40
0.20902255639097697
40
0.2105263157894732
40
0.21203007518796943
40
0.21353383458646566
40
0.21503759398496189
40
0.21654135338345812
40
0.21804511278195435
40
0.21954887218045058
40
0.22105263157894681
40
0.22255639097744304
40
0.22406015037593927
40
0.22556390977443549
40
0.22706766917293172
40
0.22857142857142795
40
0.23007518796992418
40
0.23157894736842041
40
0.23308270676691664
40
0.23458646616541287
40
0.2360902255639091
40
0.23759398496240533
40
0.23909774436090156
40
0.24060150375939779
40
0.24210526315789402
40
0.24360902255639025
40
0.24511278195488648
40
0.24661654135338271
40
0.24812030075187894
40
0.24962406015037517
40
0.25112781954887142
40
0.25263157894736765
40
0.25413533834586388
40
0.25563909774436011
40
0.25714285714285634
40
0.25864661654135257
40
0.2601503759398488
40
0.26165413533834503
40
0.26315789473684126
40
0.26466165413533749
40
0.26616541353383372
40
0.26766917293232995
40
0.26917293233082618
40
0.27067669172932241
40
0.27218045112781863
40
0.27368421052631486
40
0.27518796992481109
40
0.27669172932330732
40
0.27819548872180355
40
0.27969924812029978
40
0.28120300751879601
40
0.28270676691729224
40
0.28421052631578847
40
0.2857142857142847
40
0.28721804511278093
40
0.28872180451127716
40
0.29022556390977339
40
0.29172932330826962
40
0.29323308270676585
40
0.29473684210526208
40
0.29624060150375831
40
0.29774436090225453
40
0.29924812030075076
40
0.30075187969924699
40
0.30225563909774322
40
0.30375939849623945
40
0.30526315789473568
40
0.30676691729323191
40
0.30827067669172814
40
0.30977443609022437
40
0.3112781954887206
40
0.31278195488721683
40
0.31428571428571306
40
0.31578947368420929
40
0.31729323308270552
40
0.31879699248120175
40
0.32030075187969798
40
0.32180451127819421
40
0.32330827067669043
40
0.32481203007518666
40
0.32631578947368289
40
0.32781954887217912
40
0.32932330827067535
40
0.33082706766917158
40
0.33233082706766781
40
0.33383458646616404
40
0.33533834586466027
40
0.3368421052631565
40
0.33834586466165273
40
0.33984962406014896
40
0.34135338345864519
40
0.34285714285714142
40
0.34436090225563765
40
0.34586466165413388
40
0.34736842105263011
40
0.34887218045112633
40
0.35037593984962256
40
0.35187969924811879
40
0.35338345864661502
40
0.35488721804511125
40
0.35639097744360748
40
0.35789473684210371
40
0.35939849624059994
40
0.36090225563909617
40
0.3624060150375924
40
0.36390977443608863
40
0.36541353383458486
40
0.36691729323308109
40
0.36842105263157732
40
0.36992481203007355
40
0.37142857142856978
40
0.37293233082706601
40
0.37443609022556223
40
0.37593984962405846
40
0.37744360902255469
40
0.37894736842105092
40
0.38045112781954715
40
0.38195488721804338
40
0.38345864661653961
40
0.38496240601503584
40
0.38646616541353207
40
0.3879699248120283
40
0.38947368421052453
40
0.39097744360902076
40
0.39248120300751699
40
0.39398496240601322
40
0.39548872180450945
40
0.39699248120300568
40
0.39849624060150191
40
0.39999999999999813
40
0.40150375939849436
40
0.40300751879699059
40
0.40451127819548682
40
0.40601503759398305
40
0.40751879699247928
40
0.40902255639097551
40
0.41052631578947174
40
0.41203007518796797
40
0.4135338345864642
40
0.41503759398496043
40
0.41654135338345666
40
0.41804511278195289
40
0.41954887218044912
40
0.42105263157894535
40
0.42255639097744158
40
0.42406015037593781
40
0.42556390977443403
40
0.42706766917293026
40
0.42857142857142649
40
0.43007518796992272
40
0.43157894736841895
40
0.43308270676691518
40
0.43458646616541141
40
0.43609022556390764
40
0.43759398496240387
40
0.4390977443609001
40
0.44060150375939633
40
0.44210526315789256
40
0.44360902255638879
40
0.44511278195488502
40
0.44661654135338125
40
0.44812030075187748
40
0.44962406015037371
40
0.45112781954886993
40
0.45263157894736616
40
0.45413533834586239
40
0.45563909774435862
40
0.45714285714285485
40
0.45864661654135108
40
0.46015037593984731
40
0.46165413533834354
40
0.46315789473683977
40
0.464661654135336
40
0.46616541353383223
40
0.46766917293232846
40
0.46917293233082469
40
0.47067669172932092
40
0.47218045112781715
40
0.47368421052631338
40
0.47518796992480961
40
0.47669172932330584
40
0.47819548872180206
40
0.47969924812029829
40
0.48120300751879452
40
0.48270676691729075
40
0.48421052631578698
40
0.48571428571428321
40
0.48721804511277944
40
0.48872180451127567
40
0.4902255639097719
40
0.49172932330826813
40
0.49323308270676436
40
0.49473684210526059
40
0.49624060150375682
40
0.49774436090225305
40
0.49924812030074928
40
0.50075187969924551
40
0.50225563909774174
40
0.50375939849623796
40
0.50526315789473419
40
0.50676691729323042
40
0.50827067669172665
40
0.50977443609022288
40
0.51127819548871911
40
0.51278195488721534
40
0.51428571428571157
40
0.5157894736842078
40
0.51729323308270403
40
0.51879699248120026
40
0.52030075187969649
40
0.52180451127819272
40
0.52330827067668895
40
0.52481203007518518
40
0.52631578947368141
40
0.52781954887217764
40
0.52932330827067386
40
0.53082706766917009
40
0.53233082706766632
40
0.53383458646616255
40
0.53533834586465878
40
0.53684210526315501
40
0.53834586466165124
40
0.53984962406014747
40
0.5413533834586437
40
0.54285714285713993
40
0.54436090225563616
40
0.54586466165413239
40
0.54736842105262862
40
0.54887218045112485
40
0.55037593984962108
40
0.55187969924811731
40
0.55338345864661354
40
0.55488721804510976
40
0.55639097744360599
40
0.55789473684210222
40
0.55939849624059845
40
0.56090225563909468
40
0.56240601503759091
40
0.56390977443608714
40
0.56541353383458337
40
0.5669172932330796
40
0.56842105263157583
40
0.56992481203007206
40
0.57142857142856829
40
0.57293233082706452
40
0.57443609022556075
40
0.57593984962405698
40
0.57744360902255321
40
0.57894736842104944
40
0.58045112781954566
40
0.58195488721804189
40
0.58345864661653812
40
0.58496240601503435
40
0.58646616541353058
40
0.58796992481202681
40
0.58947368421052304
40
0.59097744360901927
40
0.5924812030075155
40
0.59398496240601173
40
0.59548872180450796
40
0.59699248120300419
40
0.59849624060150042
40
0.59999999999999665
40
0.60150375939849288
40
0.60300751879698911
40
0.60451127819548534
40
0.60601503759398156
40
0.60751879699247779
40
0.60902255639097402
40
0.61052631578947025
40
0.61203007518796648
40
0.61353383458646271
40
0.61503759398495894
40
0.61654135338345517
40
0.6180451127819514
40
0.61954887218044763
40
0.62105263157894386
40
0.62255639097744009
40
0.62406015037593632
40
0.62556390977443255
40
0.62706766917292878
40
0.62857142857142501
40
0.63007518796992124
40
0.63157894736841746
40
0.63308270676691369
40
0.63458646616540992
40
0.63609022556390615
40
0.63759398496240238
40
0.63909774436089861
40
0.64060150375939484
40
0.64210526315789107
40
0.6436090225563873
40
0.64511278195488353
40
0.64661654135337976
40
0.64812030075187599
40
0.64962406015037222
40
0.65112781954886845
40
0.65263157894736468
40
0.65413533834586091
40
0.65563909774435714
40
0.65714285714285336
40
0.65864661654134959
40
0.66015037593984582
40
0.66165413533834205
40
0.66315789473683828
40
0.66466165413533451
40
0.66616541353383074
40
0.66766917293232697
40
0.6691729323308232
40
0.67067669172931943
40
0.67218045112781566
40
0.67368421052631189
40
0.67518796992480812
40
0.67669172932330435
40
0.67819548872180058
40
0.67969924812029681
40
0.68120300751879304
40
0.68270676691728926
40
0.68421052631578549
40
0.68571428571428172
40
0.68721804511277795
40
0.68872180451127418
40
0.69022556390977041
40
0.69172932330826664
40
0.69323308270676287
40
0.6947368421052591
40
0.69624060150375533
40
0.69774436090225156
40
0.69924812030074779
40
0.70075187969924402
40
0.70225563909774025
40
0.70375939849623648
40
0.70526315789473271
40
0.70676691729322894
40
0.70827067669172517
40
0.70977443609022139
40
0.71127819548871762
40
0.71278195488721385
40
0.71428571428571008
40
0.71578947368420631
40
0.71729323308270254
40
0.71879699248119877
40
0.720300751879695
40
0.72180451127819123
40
0.72330827067668746
40
0.72481203007518369
40
0.72631578947367992
40
0.72781954887217615
40
0.72932330827067238
40
0.73082706766916861
40
0.73233082706766484
40
0.73383458646616107
40
0.73533834586465729
40
0.73684210526315352
40
0.73834586466164975
40
0.73984962406014598
40
0.74135338345864221
40
0.74285714285713844
40
0.74436090225563467
40
0.7458646616541309
40
0.74736842105262713
40
0.74887218045112336
40
0.75037593984961959
40
0.75187969924811582
40
0.75338345864661205
40
0.75488721804510828
40
0.75639097744360451
40
0.75789473684210074
40
0.75939849624059697
40
0.76090225563909319
40
0.76240601503758942
40
0.76390977443608565
40
0.76541353383458188
40
0.76691729323307811
40
0.76842105263157434
40
0.76992481203007057
40
0.7714285714285668
40
0.77293233082706303
40
0.77443609022555926
40
0.77593984962405549
40
0.77744360902255172
40
0.77894736842104795
40
0.78045112781954418
40
0.78195488721804041
40
0.78345864661653664
40
0.78496240601503287
40
0.78646616541352909
40
0.78796992481202532
40
0.78947368421052155
40
0.79097744360901778
40
0.79248120300751401
40
0.79398496240601024
40
0.79548872180450647
40
0.7969924812030027
40
0.79849624060149893
40
0.79999999999999516
40
0.80150375939849139
40
0.80300751879698762
40
0.80451127819548385
40
0.80601503759398008
40
0.80751879699247631
40
0.80902255639097254
40
0.81052631578946877
40
0.81203007518796499
40
0.81353383458646122
40
0.81503759398495745
40
0.81654135338345368
40
0.81804511278194991
40
0.81954887218044614
40
0.82105263157894237
40
0.8225563909774386
40
0.82406015037593483
40
0.82556390977443106
40
0.82706766917292729
40
0.82857142857142352
40
0.83007518796991975
40
0.83157894736841598
40
0.83308270676691221
40
0.83458646616540844
40
0.83609022556390467
40
0.83759398496240089
40
0.83909774436089712
40
0.84060150375939335
40
0.84210526315788958
40
0.84360902255638581
40
0.84511278195488204
40
0.84661654135337827
40
0.8481203007518745
40
0.84962406015037073
40
0.85112781954886696
40
0.85263157894736319
40
0.85413533834585942
40
0.85563909774435565
40
0.85714285714285188
40
0.85864661654134811
40
0.86015037593984434
40
0.86165413533834057
40
0.86315789473683679
40
0.86466165413533302
40
0.86616541353382925
40
0.86766917293232548
40
0.86917293233082171
40
0.87067669172931794
40
0.87218045112781417
40
0.8736842105263104
40
0.87518796992480663
40
0.87669172932330286
40
0.87819548872179909
40
0.87969924812029532
40
0.88120300751879155
40
0.88270676691728778
40
0.88421052631578401
40
0.88571428571428024
40
0.88721804511277647
40
0.88872180451127269
40
0.89022556390976892
40
0.89172932330826515
40
0.89323308270676138
40
0.89473684210525761
40
0.89624060150375384
40
0.89774436090225007
40
0.8992481203007463
40
0.90075187969924253
40
0.90225563909773876
40
0.90375939849623499
40
0.90526315789473122
40
0.90676691729322745
40
0.90827067669172368
40
0.90977443609021991
40
0.91127819548871614
40
0.91278195488721237
40
0.9142857142857086
40
0.91578947368420482
40
0.91729323308270105
40
0.91879699248119728
40
0.92030075187969351
40
0.92180451127818974
40
0.92330827067668597
40
0.9248120300751822
40
0.92631578947367843
40
0.92781954887217466
40
0.92932330827067089
40
0.93082706766916712
40
0.93233082706766335
40
0.93383458646615958
40
0.93533834586465581
40
0.93684210526315204
40
0.93834586466164827
40
0.9398496240601445
40
0.94135338345864072
40
0.94285714285713695
40
0.94436090225563318
40
0.94586466165412941
40
0.94736842105262564
40
0.94887218045112187
40
0.9503759398496181
40
0.95187969924811433
40
0.95338345864661056
40
0.95488721804510679
40
0.95639097744360302
40
0.95789473684209925
40
0.95939849624059548
40
0.96090225563909171
40
0.96240601503758794
40
0.96390977443608417
40
0.9654135338345804
40
0.96691729323307662
40
0.96842105263157285
40
0.96992481203006908
40
0.97142857142856531
40
0.97293233082706154
40
0.97443609022555777
40
0.975939849624054
40
0.97744360902255023
40
0.97894736842104646
40
0.98045112781954269
40
0.98195488721803892
40
0.98345864661653515
40
0.98496240601503138
40
0.98646616541352761
40
0.98796992481202384
40
0.98947368421052007
40
0.9909774436090163
40
0.99248120300751252
40
0.99398496240600875
40
0.99548872180450498
40
0.99699248120300121
40
0.99849624060149744
40
1
40
1
40
1
40
1
40
1
40
1
41
1
41
1
41
1
41
1
41
1
41
1
41
1
41
1
41
1
41
1
41
1
41
1
41
1
41
1
41
1
41
1
41
1
41
1
41
1
41
1
41
1
41
1
41
1
41
1
41
1
41
1
41
1
41
1
41
1
41
1
41
1
41
1
41
1
41
1
41
1
41
1
41
1
41
1
41
1
41
1
41
1
41
1
41
1
41
1
41
1
41
1
41
1
41
1
41
1
41
1
41
1
41
1
41
1
41
1
41
1
41
1
41
1
41
1
41
1
41
1
41
1
41
1
41
1
41
1
41
1
41
1
41
1
41
1
41
1
41
1
41
1
41
1
41
1
41
1
41
1
41
1
41
1
41
1
41
1
41
1
41
1
41
1
41
1
41
1
41
1
41
1
41
1
41
1
41
1
41
1
41
1
41
1
41
1
41
1
41
1
41
1
41
1
41
1
41
1
41
1
41
1
41
1
41
1
41
1
41
1
41
1
41
1
41
1
41
1
41
1
41
1
41
1
41
1
41
1
41
1
41
1
41
1
41
1
41
1
41
1
41
1
41
1
41
1
41
1
41
1
41
1
41
1
41
1
41
1
41
1
41
1
41
1
41
1
41
1
41
1
41
1
41
1
41
1
41
1
41
1
41
1
41
1
41
1
41
1
41
1
41
1
41
1
41
1
41
1
41
1
41
1
41
1
41
1
41
1
41
1
41
1
41
1
41
1
41
1
41
1
41
1
41
1
41
1
41
1
41
1
41
1
41
1
41
1
41
1
41
1
41
1
41
1
41
1
41
1
41
1
41
1
41
1
41
1
41
1
41
1
41
1
41
1
41
1
41
1
41
1
41
1
41
1
41
1
41
1
41
1
41
1
41
1
41
1
41
1
41
1
41
1
41
1
41
1
41
1
41
1
41
1
41
1
41
1
41
1
41
1
41
1
41
1
41
1
41
1
41
1
41
1
41
1
41
1
41
1
41
1
41
1
41
1
41
1
41
1
41
1
41
1
41
1
41
1
41
1
41
1
41
1
41
1
41
1
41
1
41
1
41
1
41
1
41
1
41
1
41
1
41
1
41
1
41
1
41
1
41
1
41
1
41
1
41
1
41
1
41
1
41
1
41
1
41
1
41
1
41
1
41
1
41
1
41
1
41
1
41
1
41
1
41
1
41
1
41
1
41
1
41
1
41
1
41
1
41
1
41
1
41
1
41
1
41
1
41
1
41
1
41
1
41
1
41
1
41
1
41
1
41
1
41
1
41
1
41
1
41
1
41
1
41
1
41
1
41
1
41
1
41
1
41
1
41
1
41
1
41
1
41
1
41
1
41
1
41
1
41
1
41
1
41
1
41
1
41
1
41
1
41
1
41
1
41
1
41
1
41
1
41
1
41
1
41
1
41
1
41
1
41
1
41
1
41
1
41
1
41
1
41
1
41
1
41
1
41
1
41
1
41
1
41
1
41
1
41
1
41
1
41
1
41
1
41
1
41
1
41
1
41
1
41
1
41
1
41
1
41
1
41
1
41
1
41
1
41
1
41
1
41
1
41
1
41
1
41
1
41
1
41
1
41
1
41
1
41
1
41
1
41
1
41
1
41
1
41
1
41
1
41
1
41
1
41
1
41
1
41
1
41
1
41
1
41
1
41
1
41
1
41
1
41
1
41
1
41
1
41
1
41
1
41
1
41
1
41
1
41
1
41
1
41
1
41
1
41
1
41
1
41
1
41
1
41
1
41
1
41
1
41
1
41
1
41
1
41
1
41
1
41
1
41
1
41
1
41
1
41
1
41
1
41
1
41
1
41
1
41
1
41
1
41
1
41
1
41
1
41
1
41
1
41
1
41
1
41
1
41
1
41
1
41
1
41
1
41
1
41
1
41
1
41
1
41
1
41
1
41
1
41
1
41
1
41
1
41
1
41
1
41
1
41
1
41
1
41
1
41
1
41
1
41
1
41
1
41
1
41
1
41
1
41
1
41
1
41
1
41
1
41
1
41
1
41
1
41
1
41
1
41
1
41
1
41
1
41
1
41
1
41
1
41
1
41
1
41
1
41
1
41
1
41
1
41
1
41
1
41
1
41
1
41
1
41
1
41
1
41
1
41
1
41
1
41
1
41
1
41
1
41
1
41
1
41
1
41
1
41
1
41
1
41
1
41
1
41
1
41
1
41
1
41
1
41
1
41
1
41
1
41
1
41
1
41
1
41
1
41
1
41
1
41
1
41
1
41
1
41
1
41
1
41
1
41
1
41
1
41
1
41
1
41
1
41
1
41
1
41
1
41
1
41
1
41
1
41
1
41
1
41
1
41
1
41
1
41
1
41
1
41
1
41
1
41
1
41
1
41
1
41
1
41
1
41
1
41
1
41
1
41
1
41
1
41
1
41
1
41
1
41
1
41
1
41
1
41
1
41
1
41
1
41
1
41
1
41
1
41
1
41
1
41
1
41
1
41
1
41
1
41
1
41
1
41
1
41
1
41
1
41
1
41
1
41
1
41
1
41
1
41
1
41
1
41
1
41
1
41
1
41
1
41
1
41
1
41
1
41
1
41
1
41
1
41
1
41
1
41
1
41
1
41
1
41
1
41
1
41
1
41
1
41
1
41
1
41
1
41
1
41
1
41
1
41
1
41
1
41
1
41
1
41
1
41
1
41
1
41
1
41
1
41
1
41
1
41
1
41
1
41
1
41
1
41
1
41
1
41
1
41
1
41
1
41
1
41
1
41
1
41
1
41
1
41
1
41
1
41
1
41
1
41
1
41
1
41
1
41
1
41
1
41
1
41
1
41
1
41
1
41
1
41
1
41
1
41
1
41
1
41
1
41
1
41
1
41
1
41
1
41
1
41
1
41
1
41
1
41
1
41
1
41
1
41
1
41
1
41
1
41
1
41
1
41
1
41
1
41
1
41
1
41
1
41
1
41
1
41
1
41
1
41
1
41
1
41
1
41
1
41
1
41
1
41
1
41
1
41
1
41
1
41
1
41
1
41
1
41
1
41
1
41
1
41
1
41
1
41
1
10
-49.379500000000007
20
-77.310600000000008
30
0
10
-49.460296720273114
20
-77.275846379413736
30
0
10
-49.615052974331498
20
-77.20668273938503
30
0
10
-49.827281772383586
20
-77.103299278142927
30
0
10
-50.078678987001851
20
-76.961177280659129
30
0
10
-50.371386595098109
20
-76.760926839070464
30
0
10
-50.664619234234962
20
-76.528832956878588
30
0
10
-50.954286056159063
20
-76.269703330271582
30
0
10
-51.225287926776403
20
-75.993110823521675
30
0
10
-51.466121863081334
20
-75.703899796159391
30
0
10
-51.680662873633814
20
-75.395539503348999
30
0
10
-51.87744632435632
20
-75.061562530841513
30
0
10
-52.059960146793145
20
-74.707752588102963
30
0
10
-52.220161621906669
20
-74.357243895128079
30
0
10
-52.34833295797155
20
-74.027850752998887
30
0
10
-52.441993056598349
20
-73.708576390504589
30
0
10
-52.510978165343197
20
-73.349961485537264
30
0
10
-52.569107430380555
20
-72.895700572941251
30
0
10
-52.627400190224421
20
-72.311017186875787
30
0
10
-52.689546626681725
20
-71.599329525486453
30
0
10
-52.75463880163268
20
-70.786622903406084
30
0
10
-52.818261883815786
20
-69.913077209625058
30
0
10
-52.874290292646592
20
-69.021378692942136
30
0
10
-52.916280902348007
20
-68.147370295097787
30
0
10
-52.93928987489619
20
-67.307424117106237
30
0
10
-52.940525614282535
20
-66.496132913739217
30
0
10
-52.918879588533471
20
-65.694285979524238
30
0
10
-52.874755282594691
20
-64.874102775081099
30
0
10
-52.809775612899024
20
-64.005569472898429
30
0
10
-52.726542497503459
20
-63.062339370569944
30
0
10
-52.628373765929396
20
-62.027735525806449
30
0
10
-52.519050467052146
20
-60.900943643144778
30
0
10
-52.40253653791035
20
-59.693848026455314
30
0
10
-52.282699824810528
20
-58.42755064095649
30
0
10
-52.163031874189699
20
-57.129002562895579
30
0
10
-52.046369643011346
20
-55.827599132862453
30
0
10
-51.934613139823831
20
-54.551764861116318
30
0
10
-51.828452315605176
20
-53.325602895248082
30
0
10
-51.727072490323849
20
-52.16537679018689
30
0
10
-51.627910009261953
20
-51.076392779785536
30
0
10
-51.526280533266515
20
-50.048862903852289
30
0
10
-51.415733332135218
20
-49.059582282006325
30
0
10
-51.288646925984544
20
-48.07554064161846
30
0
10
-51.136745607499819
20
-47.056897674581137
30
0
10
-50.95164730424613
20
-45.960215001058756
30
0
10
-50.725401919360408
20
-44.7415988664754
30
0
10
-50.451024639677001
20
-43.359832597192316
30
0
10
-50.123052653108203
20
-41.779626535734742
30
0
10
-49.738042170338012
20
-39.974553162728846
30
0
10
-49.295214180766038
20
-37.930772845394685
30
0
10
-48.796539406064312
20
-35.647774010599029
30
0
10
-48.246298479935142
20
-33.136318773104897
30
0
10
-47.650786926799036
20
-30.417159674902003
30
0
10
-47.017960893968905
20
-27.519440898753295
30
0
10
-46.357108289894867
20
-24.479234776457808
30
0
10
-45.67850901104427
20
-21.338020188148541
30
0
10
-44.993099885096697
20
-18.141186076309083
30
0
10
-44.312137592894189
20
-14.936524208177644
30
0
10
-43.646862473195256
20
-11.772726628659594
30
0
10
-43.008161935086243
20
-8.6978810779661071
30
0
10
-42.406234066851674
20
-5.7579673692014444
30
0
10
-41.85025107776017
20
-2.9953531266109978
30
0
10
-41.348022967127278
20
-0.44729021311694317
30
0
10
-40.905660680816034
20
1.855590290414681
30
0
10
-40.527240379936245
20
3.8907800770640795
30
0
10
-40.214465070818207
20
5.645402844203538
30
0
10
-39.96633228117345
20
7.1177070495793151
30
0
10
-39.778787585338591
20
8.3185973449787856
30
0
10
-39.644411352222754
20
9.2730753007342805
30
0
10
-39.552017507586143
20
10.021921712685558
30
0
10
-39.488584112038524
20
10.616773422893253
30
0
10
-39.441252537643607
20
11.114959695976673
30
0
10
-39.399348441889146
20
11.574382778749685
30
0
10
-39.356286238604234
20
12.048480177153728
30
0
10
-39.311809702772429
20
12.580882549583105
30
0
10
-39.270128451604279
20
13.204059094058895
30
0
10
-39.237647673535292
20
13.938438254931889
30
0
10
-39.220788068278289
20
14.791265925884634
30
0
10
-39.22389350850176
20
15.755784278908582
30
0
10
-39.246770902080584
20
16.809721205488735
30
0
10
-39.285440854512565
20
17.919172212610778
30
0
10
-39.333483122599667
20
19.043457962369889
30
0
10
-39.383179680389418
20
20.139657309998906
30
0
10
-39.426731696549915
20
21.167244055919966
30
0
10
-39.457470562908036
20
22.092754570979061
30
0
10
-39.471011436392899
20
22.894266729031205
30
0
10
-39.46657463723102
20
23.566378339478828
30
0
10
-39.447819054873953
20
24.123754939008929
30
0
10
-39.419632902902279
20
24.592815739993252
30
0
10
-39.385274826954685
20
25.004468433471061
30
0
10
-39.343416771592508
20
25.386502942039524
30
0
10
-39.28512393752456
20
25.755969478547005
30
0
10
-39.199960660232279
20
26.121027177701166
30
0
10
-39.082585405203609
20
26.482959174847323
30
0
10
-38.938504087241881
20
26.838244422002148
30
0
10
-38.776034914850285
20
27.181970965708004
30
0
10
-38.597822679217849
20
27.511612193001248
30
0
10
-38.394781412270738
20
27.829656978343724
30
0
10
-38.157821781087065
20
28.138339380302305
30
0
10
-37.89051296347823
20
28.43391990296324
30
0
10
-37.615093282985583
20
28.70400424399056
30
0
10
-37.349642439904208
20
28.938214558512968
30
0
10
-37.083585445803969
20
29.139424610089808
30
0
10
-36.768644739689492
20
29.328489402235927
30
0
10
-36.358799081089472
20
29.528145321213692
30
0
10
-35.848821131925895
20
29.747511548670037
30
0
10
-35.292850054871217
20
29.975123597038433
30
0
10
-34.765815860745221
20
30.196627863041819
30
0
10
-34.33813737265514
20
30.40648727804399
30
0
10
-34.041835789830436
20
30.624063686471629
30
0
10
-33.849907817936213
20
30.902050614996334
30
0
10
-33.706818245503861
20
31.304600494070215
30
0
10
-33.555208460372555
20
31.88722902223731
30
0
10
-33.356655025425567
20
32.681842840367459
30
0
10
-33.086186253192345
20
33.70215535859171
30
0
10
-32.731707322040855
20
34.94533597003656
30
0
10
-32.29147120567761
20
36.39515627625714
30
0
10
-31.772385313495981
20
38.024495533519918
30
0
10
-31.187956446520843
20
39.798124763523049
30
0
10
-30.55639690308827
20
41.675363367637665
30
0
10
-29.898648935009334
20
43.612807676222886
30
0
10
-29.236473088909875
20
45.566988663708862
30
0
10
-28.590442408184963
20
47.497152669641636
30
0
10
-27.97813321425221
20
49.367772572191228
30
0
10
-27.41183971926899
20
51.151718503522197
30
0
10
-26.898280293389778
20
52.830664640652991
30
0
10
-26.439623965449268
20
54.393663169484185
30
0
10
-26.034123001577921
20
55.836265169479645
30
0
10
-25.676908152272787
20
57.159415654797542
30
0
10
-25.360713843214725
20
58.36844591807705
30
0
10
-25.076634088122759
20
59.472023169783057
30
0
10
-24.814863723393543
20
60.481120713529997
30
0
10
-24.56544924621339
20
61.407974461992303
30
0
10
-24.319027826965005
20
62.265056670399261
30
0
10
-24.067589681402318
20
63.064015362602902
30
0
10
-23.805178369170989
20
63.814705687488825
30
0
10
-23.527841831233477
20
64.525371580115475
30
0
10
-23.233625104925402
20
65.202748797000766
30
0
10
-22.922562324834956
20
65.852203925796459
30
0
10
-22.596634781386499
20
66.477844030489905
30
0
10
-22.259825743235552
20
67.082672505679881
30
0
10
-21.917878260378913
20
67.668622695165283
30
0
10
-21.577071043821825
20
68.236241903811376
30
0
10
-21.243142770190833
20
68.784388485959539
30
0
10
-20.920187702769653
20
69.31001652182016
30
0
10
-20.609493797060455
20
69.807704873983155
30
0
10
-20.308613762785082
20
70.269955287292433
30
0
10
-20.011601394148279
20
70.6913780932191
30
0
10
-19.709117032630537
20
71.072286074138958
30
0
10
-19.388533051584254
20
71.422683003614949
30
0
10
-19.03417704269669
20
71.765634384711376
30
0
10
-18.63107249579739
20
72.128779653538629
30
0
10
-18.16863023738901
20
72.53609991343211
30
0
10
-17.644184722054785
20
72.999943957441346
30
0
10
-17.06705236012548
20
73.51201816265457
30
0
10
-16.455269184690305
20
74.049207111351322
30
0
10
-15.831651839117511
20
74.580756584268059
30
0
10
-15.220089408578605
20
75.075018040648871
30
0
10
-14.641765794639808
20
75.506262114950943
30
0
10
-14.111345670278315
20
75.86173701944621
30
0
10
-13.633367596155203
20
76.147842177471972
30
0
10
-13.2022676978902
20
76.382815931563044
30
0
10
-12.802111278698479
20
76.590128839238474
30
0
10
-12.406601628074172
20
76.791751521551532
30
0
10
-11.978509674381
20
77.001102720843761
30
0
10
-11.481081459371387
20
77.223650626716832
30
0
10
-10.891061783797387
20
77.457986161147176
30
0
10
-10.20954058256425
20
77.696847358202973
30
0
10
-9.4777298257452909
20
77.927854462907447
30
0
10
-8.7606576618828349
20
78.136615111542824
30
0
10
-8.1241789421018638
20
78.310251243344055
30
0
10
-7.6123695297765241
20
78.441097682507404
30
0
10
-7.2290265399276681
20
78.529614860529378
30
0
10
-6.9065587580532988
20
78.589454908922505
30
0
10
-6.5449581928884006
20
78.640744737640176
30
0
10
-6.0693382302618728
20
78.700194080709196
30
0
10
-5.4925595546163901
20
78.77050050884192
30
0
10
-4.889473560285813
20
78.843374533265262
30
0
10
-4.3447628416362241
20
78.906492732041457
30
0
10
-3.9159069626862704
20
78.948475137759388
30
0
10
-3.5752838020285078
20
78.966181825054292
30
0
10
-3.234003236364706
20
78.963479598236333
30
0
10
-2.7994718617350598
20
78.946360297169363
30
0
10
-2.2323922325942056
20
78.918513522534852
30
0
10
-1.5468389679811934
20
78.88062919247082
30
0
10
-0.78621110473657929
20
78.831454447415069
30
0
10
-0.0066082361961614794
20
78.768253264143894
30
0
10
0.74133134313348048
20
78.687515947755671
30
0
10
1.4338960799671145
20
78.585563363309106
30
0
10
2.0737372808813785
20
78.45917008213749
30
0
10
2.6782574870841751
20
78.306111118650605
30
0
10
3.2711152609158791
20
78.125806744973602
30
0
10
3.8733150916026493
20
77.919767031313484
30
0
10
4.4922786848335692
20
77.692518944360131
30
0
10
5.1219175906235321
20
77.450518014740609
30
0
10
5.749789043336234
20
77.199895432997351
30
0
10
6.3624325031720472
20
76.944371379092431
30
0
10
6.9507369873432818
20
76.683506045801465
30
0
10
7.5170746585260559
20
76.409804525000368
30
0
10
8.0742468882221683
20
76.110477698021754
30
0
10
8.6377791912666115
20
75.772825183229486
30
0
10
9.2196684275853436
20
75.388958001108065
30
0
10
9.8225230913561035
20
74.959975726476955
30
0
10
10.431118184829289
20
74.502371068120652
30
0
10
11.014346596795024
20
74.045823524142563
30
0
10
11.537814745155345
20
73.622269795723838
30
0
10
11.974460762332175
20
73.256540227648884
30
0
10
12.314089855719612
20
72.958017492222638
30
0
10
12.577935627325452
20
72.707846767234415
30
0
10
12.81494167119485
20
72.462240320951878
30
0
10
13.076094333059824
20
72.175181028406101
30
0
10
13.389312053763833
20
71.820482016832855
30
0
10
13.751689356070573
20
71.39914314773668
30
0
10
14.143767309195763
20
70.928047761935062
30
0
10
14.537281597086052
20
70.434018594877998
30
0
10
14.906620002192547
20
69.945188186363993
30
0
10
15.235224708108106
20
69.485142497850219
30
0
10
15.51508599278719
20
69.069982878980255
30
0
10
15.747416583680039
20
68.705110877629551
30
0
10
15.943360496065861
20
68.38151183615804
30
0
10
16.123204610899705
20
68.074086115229932
30
0
10
16.309639920539293
20
67.748169705911735
30
0
10
16.521214988492584
20
67.364918127171194
30
0
10
16.767828539309345
20
66.886779165010054
30
0
10
17.052929240110796
20
66.281509946013188
30
0
10
17.374435863080684
20
65.526659071556452
30
0
10
17.726158894125469
20
64.613560194976984
30
0
10
18.099025789350698
20
63.55224623103544
30
0
10
18.482335569669871
20
62.373780143504248
30
0
10
18.864726082473446
20
61.122976495256474
30
0
10
19.235200424204535
20
59.85258990589287
30
0
10
19.584122078274877
20
58.616963254795451
30
0
10
19.904240413228941
20
57.465829167358898
30
0
10
20.191663806281159
20
56.438224148355225
30
0
10
20.446946783168201
20
55.55593906175632
30
0
10
20.675914525007947
20
54.81813870547856
30
0
10
20.891126621997877
20
54.193089630638198
30
0
10
21.111059389231812
20
53.62023460572054
30
0
10
21.356628933196959
20
53.024299725963715
30
0
10
21.648463803712016
20
52.326056031135472
30
0
10
22.003749712837308
20
51.454897910084192
30
0
10
22.43354196750316
20
50.359589448436211
30
0
10
22.939159833672651
20
49.022455091405355
30
0
10
23.512433301170237
20
47.45927704484221
30
0
10
24.13816099674824
20
45.711005879175268
30
0
10
24.795892460237301
20
43.837973881510138
30
0
10
25.461990274325217
20
41.913066971414345
30
0
10
26.111571438658103
20
40.015357119553002
30
0
10
26.720502274147616
20
38.223504980826959
30
0
10
27.267366599207151
20
36.609335134298213
30
0
10
27.735454000734205
20
35.231165885055454
30
0
10
28.114719651020309
20
34.127641830899783
30
0
10
28.403802686362628
20
33.31042632785271
30
0
10
28.611910446222041
20
32.75954512801912
30
0
10
28.761053831514829
20
32.412193351585408
30
0
10
28.886233444496106
20
32.178362439734286
30
0
10
29.032273812233758
20
31.970501203652503
30
0
10
29.255128120600151
20
31.734639244253234
30
0
10
29.60529938796698
20
31.452651544144807
30
0
10
30.106361194772294
20
31.129120847462342
30
0
10
30.728783720731006
20
30.78291096400854
30
0
10
31.403584412505992
20
30.43864627051709
30
0
10
32.048574537610442
20
30.120200601609252
30
0
10
32.592075374953467
20
29.842603151659123
30
0
10
32.993890164360053
20
29.606465756636169
30
0
10
33.277033629876435
20
29.386678452318193
30
0
10
33.504353765559181
20
29.147361581351888
30
0
10
33.735702636064126
20
28.864075507712492
30
0
10
33.981900410539453
20
28.551571811846376
30
0
10
34.218069953669101
20
28.242264527761701
30
0
10
34.415347607727725
20
27.952674181493869
30
0
10
34.571128141645694
20
27.645355425629553
30
0
10
34.701218568861833
20
27.26086573881879
30
0
10
34.823014057599551
20
26.762884952306521
30
0
10
34.940376040425612
20
26.184372963974983
30
0
10
35.046984685474229
20
25.599093850684685
30
0
10
35.132877889602774
20
25.080983331281065
30
0
10
35.189355212197775
20
24.672064118286286
30
0
10
35.215706181713323
20
24.336434690076633
30
0
10
35.217802246348953
20
23.986517538499662
30
0
10
35.204472093116792
20
23.528530859314834
30
0
10
35.184275438583185
20
22.907077934034049
30
0
10
35.164804598466795
20
22.105542886293797
30
0
10
35.152725398196218
20
21.135329664118224
30
0
10
35.153548023737272
20
20.029015815318687
30
0
10
35.171518887882627
20
18.831953994044326
30
0
10
35.209444307916435
20
17.594315890599809
30
0
10
35.268581399325882
20
16.363472468887977
30
0
10
35.348403764075798
20
15.174891532081151
30
0
10
35.446926708198845
20
14.050701025433273
30
0
10
35.561297881304633
20
13.001984675949785
30
0
10
35.688303783348857
20
12.029896519153649
30
0
10
35.824912390752644
20
11.12726637217094
30
0
10
35.968797560346324
20
10.279994042431477
30
0
10
36.118877625867675
20
9.4685355088460881
30
0
10
36.275832915415691
20
8.6693466802368508
30
0
10
36.442673211276578
20
7.8563527288597204
30
0
10
36.624191849862356
20
7.0022176962923748
30
0
10
36.826363689977413
20
6.0796098379349495
30
0
10
37.055765232784964
20
5.0624640266925267
30
0
10
37.318981561518086
20
3.9272550713575094
30
0
10
37.622027809168053
20
2.6542440538535805
30
0
10
37.969743774381641
20
1.2287882150930967
30
0
10
38.365248385896862
20
-0.35749814462677054
30
0
10
38.809245010524116
20
-2.1052077127343765
30
0
10
39.300082545879953
20
-4.0075080487035288
30
0
10
39.834134137854484
20
-6.0513098437569326
30
0
10
40.406073702262489
20
-8.2181776242646407
30
0
10
41.00919497549625
20
-10.485347621994425
30
0
10
41.635712287553403
20
-12.826699570520317
30
0
10
42.277069194730359
20
-15.213748308613264
30
0
10
42.924243689116025
20
-17.616626736213735
30
0
10
43.568054932360603
20
-20.005072646418718
30
0
10
44.199469191767804
20
-22.34941346138255
30
0
10
44.809906439793473
20
-24.621552842025768
30
0
10
45.391545932568214
20
-26.795954266153306
30
0
10
45.93763395965226
20
-28.850631161718113
30
0
10
46.442786677064475
20
-30.768122159280207
30
0
10
46.90330436408189
20
-32.536500952378944
30
0
10
47.31745914943648
20
-34.150305789769966
30
0
10
47.68584604906772
20
-35.61166077761839
30
0
10
48.011548768426366
20
-36.930835966159236
30
0
10
48.299527975914565
20
-38.124450646278618
30
0
10
48.556121436847882
20
-39.214016539220076
30
0
10
48.788502073022443
20
-40.224351448254296
30
0
10
49.004150443634117
20
-41.182041346842226
30
0
10
49.210329195247752
20
-42.113897476727864
30
0
10
49.41353769403834
20
-43.045378877522779
30
0
10
49.61901949093992
20
-43.999115578737019
30
0
10
49.830138191382503
20
-44.993177687582588
30
0
10
50.048215467855812
20
-46.040239192950132
30
0
10
50.272941334825916
20
-47.147851580362115
30
0
10
50.502638851890929
20
-48.318433196796235
30
0
10
50.734587705404657
20
-49.549377616988536
30
0
10
50.965323086440712
20
-50.833102663119149
30
0
10
51.190943995051327
20
-52.157144220378136
30
0
10
51.407420244031442
20
-53.504185768465106
30
0
10
51.610893572931367
20
-54.852220197049604
30
0
10
51.797996770066163
20
-56.174403149405912
30
0
10
51.966117398202584
20
-57.439818186966988
30
0
10
52.113461080539153
20
-58.617617205425702
30
0
10
52.239143520219315
20
-59.680589216635639
30
0
10
52.343277200102342
20
-60.609037185187461
30
0
10
52.427046835917906
20
-61.39433206028103
30
0
10
52.492821065209434
20
-62.043050149776811
30
0
10
52.544175181230443
20
-62.579820791468904
30
0
10
52.586134300526297
20
-63.053305424291437
30
0
10
52.62458214917379
20
-63.530431495331769
30
0
10
52.664761698121694
20
-64.078199242692705
30
0
10
52.710149547707594
20
-64.75014795942117
30
0
10
52.760890237537829
20
-65.568018300771541
30
0
10
52.813394845631436
20
-66.515324315172933
30
0
10
52.861904101414353
20
-67.550739496299471
30
0
10
52.899626411811418
20
-68.617152810481286
30
0
10
52.920022676586321
20
-69.652341389041339
30
0
10
52.918082624292708
20
-70.599224500891438
30
0
10
52.89147854752791
20
-71.415664020540149
30
0
10
52.842075195364146
20
-72.085981358311798
30
0
10
52.776344580558202
20
-72.627043111239914
30
0
10
52.701406567254587
20
-73.073203178530861
30
0
10
52.621900849346247
20
-73.464726964287834
30
0
10
52.536201225540296
20
-73.834383342793927
30
0
10
52.433809179633329
20
-74.196131753794816
30
0
10
52.302939384175097
20
-74.551987616909557
30
0
10
52.138450474178853
20
-74.897919868315938
30
0
10
51.947148456580493
20
-75.229645488283978
30
0
10
51.738272434597917
20
-75.543861558796465
30
0
10
51.513688478212423
20
-75.840714316723677
30
0
10
51.263323194642865
20
-76.124088230229489
30
0
10
50.978760650732802
20
-76.39650818429655
30
0
10
50.668336073312233
20
-76.653016691876388
30
0
10
50.359733791593939
20
-76.8804458540247
30
0
10
50.072766921064854
20
-77.069082251303072
30
0
10
49.790313519049704
20
-77.225174114342664
30
0
10
49.452432584976108
20
-77.373592818375144
30
0
10
48.995811237472545
20
-77.541279098626489
30
0
10
48.389700068331877
20
-77.742203174448392
30
0
10
47.651923913208449
20
-77.970671789050527
30
0
10
46.827955793073393
20
-78.210160522177603
30
0
10
45.979557106329793
20
-78.43810415310945
30
0
10
45.16891521194141
20
-78.632631068755614
30
0
10
44.44613006584806
20
-78.777768634299875
30
0
10
43.831706279030143
20
-78.871051066394415
30
0
10
43.316921016470033
20
-78.922299172594933
30
0
10
42.87731746660792
20
-78.945585591363837
30
0
10
42.481731594290423
20
-78.953980437717362
30
0
10
42.104650116153593
20
-78.951325500478347
30
0
10
41.731632795237985
20
-78.931756705026643
30
0
10
41.356396326618935
20
-78.887262105514893
30
0
10
40.980592518742128
20
-78.815291989157117
30
0
10
40.610305276252816
20
-78.719159058042493
30
0
10
40.251678453707811
20
-78.601841894702986
30
0
10
39.904823982859249
20
-78.458929686499189
30
0
10
39.565740595376319
20
-78.282229378024809
30
0
10
39.232515490455214
20
-78.06923234781577
30
0
10
38.913397402797358
20
-77.836036038815806
30
0
10
38.62055818811961
20
-77.606279301950252
30
0
10
38.357989252476173
20
-77.390379988263774
30
0
10
38.106253883720456
20
-77.159468196370099
30
0
10
37.834329871103705
20
-76.864694293758859
30
0
10
37.520998023216492
20
-76.472572075469174
30
0
10
37.177747434381551
20
-76.002730255705487
30
0
10
36.839596776784916
20
-75.512702351836197
30
0
10
36.544110028567516
20
-75.063079344025994
30
0
10
36.316938422108286
20
-74.693705906408198
30
0
10
36.148614876052278
20
-74.384800832499224
30
0
10
36.003382602372426
20
-74.073563774881023
30
0
10
35.843157247505289
20
-73.696621225606066
30
0
10
35.65132073486317
20
-73.233049066198063
30
0
10
35.432855248829533
20
-72.701924974326914
30
0
10
35.202236473604096
20
-72.136503639411103
30
0
10
34.976089830821188
20
-71.567826724682163
30
0
10
34.762133700798401
20
-71.000254815266899
30
0
10
34.557059665669605
20
-70.408101519354091
30
0
10
34.350595267106414
20
-69.747286103027307
30
0
10
34.12779672841134
20
-68.962638541907467
30
0
10
33.872140264944747
20
-67.997219028769081
30
0
10
33.568100702580281
20
-66.800235630190613
30
0
10
33.20438778958227
20
-65.336945913518548
30
0
10
32.774304416476276
20
-63.589507223919995
30
0
10
32.275066826557847
20
-61.554530615813562
30
0
10
31.707461023438523
20
-59.241704310054374
30
0
10
31.075359145394366
20
-56.671971595353526
30
0
10
30.385295984709288
20
-53.875900127096415
30
0
10
29.646019662498123
20
-50.891969000973859
30
0
10
28.868053469159136
20
-47.764891366524971
30
0
10
28.063252925427623
20
-44.543921836338853
30
0
10
27.244364929012125
20
-41.281170541315944
30
0
10
26.424586008973634
20
-38.029914332181491
30
0
10
25.617120997800583
20
-34.842909341557601
30
0
10
24.834741469448126
20
-31.77070271546885
30
0
10
24.089344404429703
20
-28.859945243509443
30
0
10
23.391510441086591
20
-26.15170222940673
30
0
10
22.750062993099224
20
-23.679768102355787
30
0
10
22.171625326802953
20
-21.468972195737749
30
0
10
21.660182297297741
20
-19.533504722264848
30
0
10
21.216631167897432
20
-17.875195442661326
30
0
10
20.838358043165304
20
-16.481903354980048
30
0
10
20.518746256097753
20
-15.325611669581139
30
0
10
20.248109596027547
20
-14.366670058479594
30
0
10
20.014701504362495
20
-13.558357512473695
30
0
10
19.8056999362461
20
-12.851356543787009
30
0
10
19.608194987590913
20
-12.198201569507335
30
0
10
19.410192697396457
20
-11.557884875496043
30
0
10
19.201571070060641
20
-10.900050508608452
30
0
10
18.975163129870801
20
-10.210264167073246
30
0
10
18.726973278588343
20
-9.4879310977875218
30
0
10
18.456187692498435
20
-8.742420591444489
30
0
10
18.16524525636488
20
-7.989804349853169
30
0
10
17.859904917581126
20
-7.2493324696486336
30
0
10
17.549263558877833
20
-6.5400342021641302
30
0
10
17.24593262483242
20
-5.8772304738443175
30
0
10
16.962330814879014
20
-5.2703888015881954
30
0
10
16.706878983149171
20
-4.7210930776894671
30
0
10
16.48008944369224
20
-4.2208452516207915
30
0
10
16.271023142608453
20
-3.7492276287371347
30
0
10
16.052728905119508
20
-3.2711403929204019
30
0
10
15.789519579272596
20
-2.7445921694307529
30
0
10
15.445429360444018
20
-2.1295092339248467
30
0
10
14.992501901104403
20
-1.3964652185413515
30
0
10
14.418575691303761
20
-0.53479854395296378
30
0
10
13.736792029198448
20
0.43731193004681523
30
0
10
12.980649833312912
20
1.4790560990825783
30
0
10
12.196278526125916
20
2.5363460131798723
30
0
10
11.435734578761203
20
3.5499852396959524
30
0
10
10.749742489009243
20
4.464538803877768
30
0
10
10.180964247313749
20
5.2364330018478178
30
0
10
9.7563679018090799
20
5.8434768807224238
30
0
10
9.4815588013491059
20
6.2912225744624042
30
0
10
9.3303446037713016
20
6.627024234394713
30
0
10
9.2532216400732992
20
6.9237729298396067
30
0
10
9.1970683804063427
20
7.2467491380234383
30
0
10
9.1253346254762828
20
7.6175422671846782
30
0
10
9.0201600589539996
20
8.0162928565068423
30
0
10
8.8738047535812719
20
8.4055040928111708
30
0
10
8.6828892032371137
20
8.7488111770048445
30
0
10
8.4449313976064211
20
9.0214238785959839
30
0
10
8.157327414899596
20
9.2138777959623006
30
0
10
7.8147732310706308
20
9.340107095215215
30
0
10
7.4124691830632319
20
9.4287107003859969
30
0
10
6.9501817093654603
20
9.5113768872039408
30
0
10
6.436552383033801
20
9.6113282791770622
30
0
10
5.8870734195852412
20
9.742429020383728
30
0
10
5.3211575188181071
20
9.9098001393806605
30
0
10
4.7595712152566456
20
10.110060541561399
30
0
10
4.2216256839666784
20
10.331286878369571
30
0
10
3.7229031296851955
20
10.555977847329522
30
0
10
3.2728633267360889
20
10.765253717461899
30
0
10
2.8729357345261071
20
10.942353244495184
30
0
10
2.5133450612341552
20
11.077121772135644
30
0
10
2.1753203765696392
20
11.16676784781972
30
0
10
1.8364964130582222
20
11.213988244196887
30
0
10
1.4757731419079676
20
11.226439058311215
30
0
10
1.0762363702107558
20
11.213095093964805
30
0
10
0.62663637618042156
20
11.180076345011038
30
0
10
0.12363020849314546
20
11.125400664846376
30
0
10
-0.42784811484820434
20
11.041898660698573
30
0
10
-1.0143521544662943
20
10.923380163683685
30
0
10
-1.6142557294460622
20
10.768911718845239
30
0
10
-2.1963793105190845
20
10.589829604060753
30
0
10
-2.7265230606821227
20
10.406345156194732
30
0
10
-3.1804762752291276
20
10.236821481715852
30
0
10
-3.5527943905586952
20
10.090685252445297
30
0
10
-3.8726102290013422
20
9.9565015594907731
30
0
10
-4.1969958927013389
20
9.8044414877111148
30
0
10
-4.5830268475322757
20
9.6025415031878154
30
0
10
-5.0598862497881383
20
9.3323226580657863
30
0
10
-5.6221085882666433
20
8.993365104237478
30
0
10
-6.2441358589999805
20
8.5963349838004106
30
0
10
-6.8890506160362133
20
8.159263400976581
30
0
10
-7.5189745822733123
20
7.702702269911688
30
0
10
-8.1065403230549808
20
7.2448320642021056
30
0
10
-8.6390699140332732
20
6.7986298149151576
30
0
10
-9.1139350566066604
20
6.371815458777129
30
0
10
-9.5361924818418409
20
5.9659354988325441
30
0
10
-9.9154529514893017
20
5.5760476877919318
30
0
10
-10.262685327503927
20
5.1895458333145577
30
0
10
-10.588468303084206
20
4.7875408981791949
30
0
10
-10.90371604942886
20
4.3500037195549348
30
0
10
-11.219702204847909
20
3.8597419469768601
30
0
10
-11.548563910997068
20
3.3074234758503245
30
0
10
-11.902976182129175
20
2.6943300918133595
30
0
10
-12.293834051654734
20
2.0294679300889982
30
0
10
-12.728378202824027
20
1.3277144107837562
30
0
10
-13.207967424731709
20
0.60754386796319249
30
0
10
-13.726411274160156
20
-0.11103946732021416
30
0
10
-14.267057749105865
20
-0.80872456217094202
30
0
10
-14.804139216731665
20
-1.4688141815666111
30
0
10
-15.309755755174852
20
-2.0788964279012228
30
0
10
-15.75922485271567
20
-2.6324622106143334
30
0
10
-16.137564330882281
20
-3.1307904997515572
30
0
10
-16.444401046196887
20
-3.5841504112797882
30
0
10
-16.702297527222949
20
-4.0147294846556614
30
0
10
-16.950769932692104
20
-4.4520653165442106
30
0
10
-17.230009892029521
20
-4.9228882488563004
30
0
10
-17.569246240862274
20
-5.4437191947936423
30
0
10
-17.969567074674462
20
-6.0098168057289625
30
0
10
-18.40262749935874
20
-6.5950735465727899
30
0
10
-18.82668846951039
20
-7.1640846659506598
30
0
10
-19.198888338711289
20
-7.6814185194650841
30
0
10
-19.487571244016749
20
-8.1213056336550178
30
0
10
-19.688141883705686
20
-8.4788902878735186
30
0
10
-19.825005950364641
20
-8.7744867132026254
30
0
10
-19.933544583081726
20
-9.0454817955828943
30
0
10
-20.044546138628249
20
-9.3429313391423534
30
0
10
-20.175791432595105
20
-9.7205988960663863
30
0
10
-20.335285552744725
20
-10.219831631961203
30
0
10
-20.520950308925933
20
-10.851393800019673
30
0
10
-20.723147822201575
20
-11.594094430050649
30
0
10
-20.928044825456361
20
-12.408988678950763
30
0
10
-21.120758270102286
20
-13.248963243762319
30
0
10
-21.288727521805079
20
-14.070664865523648
30
0
10
-21.424660341807776
20
-14.844384318870036
30
0
10
-21.530502258311373
20
-15.56747382976814
30
0
10
-21.616296280051479
20
-16.261494819035981
30
0
10
-21.696841184194998
20
-16.962471952674605
30
0
10
-21.789081895870513
20
-17.713426765135523
30
0
10
-21.909137751895535
20
-18.555798172678177
30
0
10
-22.069620481331253
20
-19.5217259281435
30
0
10
-22.276472091859617
20
-20.62494327634149
30
0
10
-22.529601765206657
20
-21.862572439129458
30
0
10
-22.824126545534575
20
-23.218649569100091
30
0
10
-23.15140057556799
20
-24.667044032298499
30
0
10
-23.500134566066492
20
-26.174636634260008
30
0
10
-23.857473283560111
20
-27.704376275143694
30
0
10
-24.210098450998029
20
-29.218412579793046
30
0
10
-24.545303575471639
20
-30.681140702224951
30
0
10
-24.852120642487442
20
-32.062411957926813
30
0
10
-25.122331716715966
20
-33.340374557493305
30
0
10
-25.351755091202296
20
-34.505197584533903
30
0
10
-25.540661945888466
20
-35.55999772456169
30
0
10
-25.692417294193028
20
-36.516059660857955
30
0
10
-25.81248592040432
20
-37.38922200828209
30
0
10
-25.90731142404627
20
-38.19587395455121
30
0
10
-25.983206169765296
20
-38.948943361159863
30
0
10
-26.045337343190653
20
-39.654295335004207
30
0
10
-26.09643001743493
20
-40.30597902657685
30
0
10
-26.136329175658286
20
-40.884940447542235
30
0
10
-26.165741139964172
20
-41.374454085250974
30
0
10
-26.189262005661369
20
-41.772789366926482
30
0
10
-26.218978289514183
20
-42.107951732107622
30
0
10
-26.277039989092906
20
-42.448878349018187
30
0
10
-26.38319753639443
20
-42.864791195094924
30
0
10
-26.541933852456339
20
-43.38339445711658
30
0
10
-26.732296732024935
20
-43.957674352807118
30
0
10
-26.922195432682191
20
-44.511074504808789
30
0
10
-27.080517177901932
20
-44.97570895437832
30
0
10
-27.189934680172815
20
-45.332719696758694
30
0
10
-27.2598202368589
20
-45.653187303832993
30
0
10
-27.312192235900259
20
-46.03638977292605
30
0
10
-27.366683367028838
20
-46.543969854272859
30
0
10
-27.426678798798516
20
-47.139638935777704
30
0
10
-27.487511749400369
20
-47.738616671774956
30
0
10
-27.544141013134677
20
-48.25452235618252
30
0
10
-27.598546337264452
20
-48.644696959050989
30
0
10
-27.668481947040991
20
-48.962767490727124
30
0
10
-27.777384709011017
20
-49.310836038693708
30
0
10
-27.942598332871324
20
-49.782546835558364
30
0
10
-28.163818924306433
20
-50.407742200043906
30
0
10
-28.427609054526791
20
-51.167655127512475
30
0
10
-28.712478106453027
20
-52.01272222846778
30
0
10
-28.993799220068141
20
-52.879595608274045
30
0
10
-29.248677658260487
20
-53.708039138192561
30
0
10
-29.461120525820533
20
-54.458958558448536
30
0
10
-29.626255265682456
20
-55.128769987791706
30
0
10
-29.747511546635451
20
-55.736676298357388
30
0
10
-29.834507712497459
20
-56.314604652165563
30
0
10
-29.900674609534803
20
-56.896260741466222
30
0
10
-29.960972655629263
20
-57.50623551339784
30
0
10
-30.029621600144608
20
-58.150008039031704
30
0
10
-30.118792741704308
20
-58.820319563611108
30
0
10
-30.237237075340598
20
-59.502594459725586
30
0
10
-30.38894132436376
20
-60.180716137154391
30
0
10
-30.571764566512005
20
-60.842668617391965
30
0
10
-30.776104310222792
20
-61.486189034111078
30
0
10
-30.988011727346681
20
-62.114522202838984
30
0
10
-31.19226411646645
20
-62.732284885061425
30
0
10
-31.375484334076404
20
-63.341217954131075
30
0
10
-31.529168611404184
20
-63.936149352001209
30
0
10
-31.652949898100108
20
-64.5004057828817
30
0
10
-31.752318984799743
20
-65.016239256055556
30
0
10
-31.836020305805665
20
-65.476669032269513
30
0
10
-31.913665694325559
20
-65.89550091738262
30
0
10
-31.993004418322748
20
-66.32146095227823
30
0
10
-32.079353789843509
20
-66.822211720934362
30
0
10
-32.175435046200363
20
-67.460579987148719
30
0
10
-32.281173687661223
20
-68.275684518741159
30
0
10
-32.393262947398796
20
-69.256568122154675
30
0
10
-32.506149329518713
20
-70.347802890134744
30
0
10
-32.613668772446523
20
-71.469411399727136
30
0
10
-32.710537441242394
20
-72.532624272446213
30
0
10
-32.793765479554246
20
-73.456582778711436
30
0
10
-32.864421253106158
20
-74.186446253230599
30
0
10
-32.928504015104025
20
-74.706668359337215
30
0
10
-33.000016722740405
20
-75.066769137656152
30
0
10
-33.096223897735953
20
-75.360982525816652
30
0
10
-33.22883744932281
20
-75.6762158239587
30
0
10
-33.39169830764461
20
-76.033351513024542
30
0
10
-33.568474456820596
20
-76.395017704457842
30
0
10
-33.750699514616322
20
-76.716462608859757
30
0
10
-33.959590330097569
20
-76.99531124941214
30
0
10
-34.23411695407556
20
-77.265366211261323
30
0
10
-34.60366394587578
20
-77.560062818388218
30
0
10
-35.059726304904054
20
-77.879118261873757
30
0
10
-35.562124397392708
20
-78.192529075419912
30
0
10
-36.060288873324559
20
-78.462967100091248
30
0
10
-36.508354298510923
20
-78.659675860024521
30
0
10
-36.885606294400823
20
-78.781343421634574
30
0
10
-37.201700369426234
20
-78.85134454317037
30
0
10
-37.490606878171768
20
-78.897793012715113
30
0
10
-37.811119548244875
20
-78.934033341118848
30
0
10
-38.229725339300103
20
-78.958183346154911
30
0
10
-38.798323470595328
20
-78.963415171900394
30
0
10
-39.528757216843509
20
-78.9460935943397
30
0
10
-40.395913373875018
20
-78.907192211766855
30
0
10
-41.352045464058534
20
-78.850036373489758
30
0
10
-42.337264530710229
20
-78.779333126136422
30
0
10
-43.291887892224551
20
-78.699623385273554
30
0
10
-44.167396009223523
20
-78.614067915297284
30
0
10
-44.939411038240223
20
-78.522884636646296
30
0
10
-45.615494557660767
20
-78.422556057411271
30
0
10
-46.22126789289819
20
-78.308115377038689
30
0
10
-46.789376746376817
20
-78.175054584560229
30
0
10
-47.347788002958133
20
-78.021269995194004
30
0
10
-47.907341853899162
20
-77.849248390186204
30
0
10
-48.452644943346179
20
-77.667396387500446
30
0
10
-48.856509172521726
20
-77.521680328592069
30
0
10
-49.130272652691964
20
-77.415204462902778
30
0
10
-49.298703279726553
20
-77.345353620586422
30
0
10
-49.379500000000007
20
-77.310600000000008
30
0
0
ENDSEC
0
SECTION
2
OBJECTS
0
DICTIONARY
5
C
100
AcDbDictionary
3
ACAD_GROUP
350
D
3
ACAD_MLINESTYLE
350
17
0
DICTIONARY
5
D
100
AcDbDictionary
0
DICTIONARY
5
1A
330
C
100
AcDbDictionary
0
DICTIONARY
5
17
100
AcDbDictionary
0
ENDSEC
0
EOF
