0
SECTION
2
HEADER
9
$INSUNITS
70
4
9
$ACADVER
1
AC1014
9
$HANDSEED
5
FFFF
0
ENDSEC
0
SECTION
2
TABLES
0
TABLE
2
VPORT
5
8
100
AcDbSymbolTable
0
ENDTAB
0
TABLE
2
LTYPE
5
5
100
AcDbSymbolTable
0
LTYPE
5
14
100
AcDbSymbolTableRecord
100
AcDbLinetypeTableRecord
2
BYBLOCK
70
0
0
LTYPE
5
15
100
AcDbSymbolTableRecord
100
AcDbLinetypeTableRecord
2
BYLAYER
70
0
0
LTYPE
5
16
100
AcDbSymbolTableRecord
100
AcDbLinetypeTableRecord
2
DASHED
70
0
3
Dashed __ __ __ __ __ __ __ __ __ __ __ __ __ _
72
65
73
2
40
0.75
49
0.5
74
0
49
-0.25
74
0
0
ENDTAB
0
TABLE
2
LAYER
5
2
100
AcDbSymbolTable
70
2
0
LAYER
5
50
100
AcDbSymbolTableRecord
100
AcDbLayerTableRecord
2
0
70
0
62
7
6
CONTINUOUS
0
ENDTAB
0
TABLE
2
STYLE
5
3
100
AcDbSymbolTable
70
1
0
STYLE
5
11
100
AcDbSymbolTableRecord
100
AcDbTextStyleTableRecord
2
STANDARD
70
0
0
ENDTAB
0
TABLE
2
VIEW
5
6
100
AcDbSymbolTable
70
0
0
ENDTAB
0
TABLE
2
UCS
5
7
100
AcDbSymbolTable
70
0
0
ENDTAB
0
TABLE
2
APPID
5
9
100
AcDbSymbolTable
70
2
0
APPID
5
12
100
AcDbSymbolTableRecord
100
AcDbRegAppTableRecord
2
ACAD
70
0
0
ENDTAB
0
TABLE
2
DIMSTYLE
5
A
100
AcDbSymbolTable
70
1
0
ENDTAB
0
TABLE
2
BLOCK_RECORD
5
1
100
AcDbSymbolTable
70
1
0
BLOCK_RECORD
5
1F
100
AcDbSymbolTableRecord
100
AcDbBlockTableRecord
2
*MODEL_SPACE
0
BLOCK_RECORD
5
1B
100
AcDbSymbolTableRecord
100
AcDbBlockTableRecord
2
*PAPER_SPACE
0
ENDTAB
0
ENDSEC
0
SECTION
2
BLOCKS
0
BLOCK
5
20
100
AcDbEntity
100
AcDbBlockBegin
2
*MODEL_SPACE
0
ENDBLK
5
21
100
AcDbEntity
100
AcDbBlockEnd
0
BLOCK
5
1C
100
AcDbEntity
100
AcDbBlockBegin
2
*PAPER_SPACE
0
ENDBLK
5
1D
100
AcDbEntity
100
AcDbBlockEnd
0
ENDSEC
0
SECTION
2
ENTITIES
0
SPLINE
5
100
100
AcDbEntity
8
0
100
AcDbSpline
70
6
71
5
72
671
73
665
74
0
42
0.000000001
43
0.0000000001
44
0.0000000001
40
0
40
0
40
0
40
0
40
0
40
0
40
0.0015151515151515152
40
0.0030303030303030303
40
0.0045454545454545452
40
0.0060606060606060606
40
0.007575757575757576
40
0.0090909090909090905
40
0.010606060606060605
40
0.012121212121212119
40
0.013636363636363634
40
0.015151515151515148
40
0.016666666666666663
40
0.018181818181818177
40
0.019696969696969692
40
0.021212121212121206
40
0.022727272727272721
40
0.024242424242424235
40
0.02575757575757575
40
0.027272727272727264
40
0.028787878787878779
40
0.030303030303030293
40
0.031818181818181808
40
0.033333333333333326
40
0.034848484848484844
40
0.036363636363636362
40
0.03787878787878788
40
0.039393939393939398
40
0.040909090909090916
40
0.042424242424242434
40
0.043939393939393952
40
0.04545454545454547
40
0.046969696969696988
40
0.048484848484848506
40
0.050000000000000024
40
0.051515151515151542
40
0.05303030303030306
40
0.054545454545454577
40
0.056060606060606095
40
0.057575757575757613
40
0.059090909090909131
40
0.060606060606060649
40
0.062121212121212167
40
0.063636363636363685
40
0.065151515151515196
40
0.066666666666666707
40
0.068181818181818218
40
0.069696969696969729
40
0.07121212121212124
40
0.072727272727272751
40
0.074242424242424263
40
0.075757575757575774
40
0.077272727272727285
40
0.078787878787878796
40
0.080303030303030307
40
0.081818181818181818
40
0.083333333333333329
40
0.08484848484848484
40
0.086363636363636351
40
0.087878787878787862
40
0.089393939393939373
40
0.090909090909090884
40
0.092424242424242395
40
0.093939393939393906
40
0.095454545454545417
40
0.096969696969696928
40
0.098484848484848439
40
0.09999999999999995
40
0.10151515151515146
40
0.10303030303030297
40
0.10454545454545448
40
0.10606060606060599
40
0.10757575757575751
40
0.10909090909090902
40
0.11060606060606053
40
0.11212121212121204
40
0.11363636363636355
40
0.11515151515151506
40
0.11666666666666657
40
0.11818181818181808
40
0.11969696969696959
40
0.1212121212121211
40
0.12272727272727262
40
0.12424242424242413
40
0.12575757575757565
40
0.12727272727272718
40
0.1287878787878787
40
0.13030303030303023
40
0.13181818181818175
40
0.13333333333333328
40
0.1348484848484848
40
0.13636363636363633
40
0.13787878787878785
40
0.13939393939393938
40
0.1409090909090909
40
0.14242424242424243
40
0.14393939393939395
40
0.14545454545454548
40
0.146969696969697
40
0.14848484848484853
40
0.15000000000000005
40
0.15151515151515157
40
0.1530303030303031
40
0.15454545454545462
40
0.15606060606060615
40
0.15757575757575767
40
0.1590909090909092
40
0.16060606060606072
40
0.16212121212121225
40
0.16363636363636377
40
0.1651515151515153
40
0.16666666666666682
40
0.16818181818181835
40
0.16969696969696987
40
0.1712121212121214
40
0.17272727272727292
40
0.17424242424242445
40
0.17575757575757597
40
0.1772727272727275
40
0.17878787878787902
40
0.18030303030303055
40
0.18181818181818207
40
0.1833333333333336
40
0.18484848484848512
40
0.18636363636363665
40
0.18787878787878817
40
0.1893939393939397
40
0.19090909090909122
40
0.19242424242424275
40
0.19393939393939427
40
0.1954545454545458
40
0.19696969696969732
40
0.19848484848484885
40
0.20000000000000037
40
0.2015151515151519
40
0.20303030303030342
40
0.20454545454545495
40
0.20606060606060647
40
0.207575757575758
40
0.20909090909090952
40
0.21060606060606105
40
0.21212121212121257
40
0.2136363636363641
40
0.21515151515151562
40
0.21666666666666715
40
0.21818181818181867
40
0.2196969696969702
40
0.22121212121212172
40
0.22272727272727325
40
0.22424242424242477
40
0.2257575757575763
40
0.22727272727272782
40
0.22878787878787935
40
0.23030303030303087
40
0.23181818181818239
40
0.23333333333333392
40
0.23484848484848544
40
0.23636363636363697
40
0.23787878787878849
40
0.23939393939394002
40
0.24090909090909154
40
0.24242424242424307
40
0.24393939393939459
40
0.24545454545454612
40
0.24696969696969764
40
0.24848484848484917
40
0.25000000000000067
40
0.25151515151515219
40
0.25303030303030372
40
0.25454545454545524
40
0.25606060606060677
40
0.25757575757575829
40
0.25909090909090982
40
0.26060606060606134
40
0.26212121212121287
40
0.26363636363636439
40
0.26515151515151592
40
0.26666666666666744
40
0.26818181818181897
40
0.26969696969697049
40
0.27121212121212201
40
0.27272727272727354
40
0.27424242424242506
40
0.27575757575757659
40
0.27727272727272811
40
0.27878787878787964
40
0.28030303030303116
40
0.28181818181818269
40
0.28333333333333421
40
0.28484848484848574
40
0.28636363636363726
40
0.28787878787878879
40
0.28939393939394031
40
0.29090909090909184
40
0.29242424242424336
40
0.29393939393939489
40
0.29545454545454641
40
0.29696969696969794
40
0.29848484848484946
40
0.30000000000000099
40
0.30151515151515251
40
0.30303030303030404
40
0.30454545454545556
40
0.30606060606060709
40
0.30757575757575861
40
0.30909090909091014
40
0.31060606060606166
40
0.31212121212121319
40
0.31363636363636471
40
0.31515151515151624
40
0.31666666666666776
40
0.31818181818181929
40
0.31969696969697081
40
0.32121212121212234
40
0.32272727272727386
40
0.32424242424242539
40
0.32575757575757691
40
0.32727272727272844
40
0.32878787878787996
40
0.33030303030303149
40
0.33181818181818301
40
0.33333333333333454
40
0.33484848484848606
40
0.33636363636363759
40
0.33787878787878911
40
0.33939393939394064
40
0.34090909090909216
40
0.34242424242424369
40
0.34393939393939521
40
0.34545454545454674
40
0.34696969696969826
40
0.34848484848484979
40
0.35000000000000131
40
0.35151515151515283
40
0.35303030303030436
40
0.35454545454545588
40
0.35606060606060741
40
0.35757575757575893
40
0.35909090909091046
40
0.36060606060606198
40
0.36212121212121351
40
0.36363636363636503
40
0.36515151515151656
40
0.36666666666666808
40
0.36818181818181961
40
0.36969696969697113
40
0.37121212121212266
40
0.37272727272727418
40
0.37424242424242571
40
0.37575757575757723
40
0.37727272727272876
40
0.37878787878788028
40
0.38030303030303181
40
0.38181818181818333
40
0.38333333333333486
40
0.38484848484848638
40
0.38636363636363791
40
0.38787878787878943
40
0.38939393939394096
40
0.39090909090909248
40
0.39242424242424401
40
0.39393939393939553
40
0.39545454545454706
40
0.39696969696969858
40
0.39848484848485011
40
0.40000000000000163
40
0.40151515151515316
40
0.40303030303030468
40
0.40454545454545621
40
0.40606060606060773
40
0.40757575757575926
40
0.40909090909091078
40
0.41060606060606231
40
0.41212121212121383
40
0.41363636363636536
40
0.41515151515151688
40
0.41666666666666841
40
0.41818181818181993
40
0.41969696969697146
40
0.42121212121212298
40
0.42272727272727451
40
0.42424242424242603
40
0.42575757575757756
40
0.42727272727272908
40
0.42878787878788061
40
0.43030303030303213
40
0.43181818181818366
40
0.43333333333333518
40
0.4348484848484867
40
0.43636363636363823
40
0.43787878787878975
40
0.43939393939394128
40
0.4409090909090928
40
0.44242424242424433
40
0.44393939393939585
40
0.44545454545454738
40
0.4469696969696989
40
0.44848484848485043
40
0.45000000000000195
40
0.45151515151515348
40
0.453030303030305
40
0.45454545454545653
40
0.45606060606060805
40
0.45757575757575958
40
0.4590909090909111
40
0.46060606060606263
40
0.46212121212121415
40
0.46363636363636568
40
0.4651515151515172
40
0.46666666666666873
40
0.46818181818182025
40
0.46969696969697178
40
0.4712121212121233
40
0.47272727272727483
40
0.47424242424242635
40
0.47575757575757788
40
0.4772727272727294
40
0.47878787878788093
40
0.48030303030303245
40
0.48181818181818398
40
0.4833333333333355
40
0.48484848484848703
40
0.48636363636363855
40
0.48787878787879008
40
0.4893939393939416
40
0.49090909090909313
40
0.49242424242424465
40
0.49393939393939618
40
0.4954545454545477
40
0.49696969696969923
40
0.49848484848485075
40
0.50000000000000222
40
0.50151515151515369
40
0.50303030303030516
40
0.50454545454545663
40
0.5060606060606081
40
0.50757575757575957
40
0.50909090909091104
40
0.51060606060606251
40
0.51212121212121398
40
0.51363636363636545
40
0.51515151515151691
40
0.51666666666666838
40
0.51818181818181985
40
0.51969696969697132
40
0.52121212121212279
40
0.52272727272727426
40
0.52424242424242573
40
0.5257575757575772
40
0.52727272727272867
40
0.52878787878788014
40
0.53030303030303161
40
0.53181818181818308
40
0.53333333333333455
40
0.53484848484848602
40
0.53636363636363749
40
0.53787878787878896
40
0.53939393939394042
40
0.54090909090909189
40
0.54242424242424336
40
0.54393939393939483
40
0.5454545454545463
40
0.54696969696969777
40
0.54848484848484924
40
0.55000000000000071
40
0.55151515151515218
40
0.55303030303030365
40
0.55454545454545512
40
0.55606060606060659
40
0.55757575757575806
40
0.55909090909090953
40
0.560606060606061
40
0.56212121212121247
40
0.56363636363636394
40
0.5651515151515154
40
0.56666666666666687
40
0.56818181818181834
40
0.56969696969696981
40
0.57121212121212128
40
0.57272727272727275
40
0.57424242424242422
40
0.57575757575757569
40
0.57727272727272716
40
0.57878787878787863
40
0.5803030303030301
40
0.58181818181818157
40
0.58333333333333304
40
0.58484848484848451
40
0.58636363636363598
40
0.58787878787878745
40
0.58939393939393891
40
0.59090909090909038
40
0.59242424242424185
40
0.59393939393939332
40
0.59545454545454479
40
0.59696969696969626
40
0.59848484848484773
40
0.5999999999999992
40
0.60151515151515067
40
0.60303030303030214
40
0.60454545454545361
40
0.60606060606060508
40
0.60757575757575655
40
0.60909090909090802
40
0.61060606060605949
40
0.61212121212121096
40
0.61363636363636243
40
0.61515151515151389
40
0.61666666666666536
40
0.61818181818181683
40
0.6196969696969683
40
0.62121212121211977
40
0.62272727272727124
40
0.62424242424242271
40
0.62575757575757418
40
0.62727272727272565
40
0.62878787878787712
40
0.63030303030302859
40
0.63181818181818006
40
0.63333333333333153
40
0.634848484848483
40
0.63636363636363447
40
0.63787878787878594
40
0.6393939393939374
40
0.64090909090908887
40
0.64242424242424034
40
0.64393939393939181
40
0.64545454545454328
40
0.64696969696969475
40
0.64848484848484622
40
0.64999999999999769
40
0.65151515151514916
40
0.65303030303030063
40
0.6545454545454521
40
0.65606060606060357
40
0.65757575757575504
40
0.65909090909090651
40
0.66060606060605798
40
0.66212121212120945
40
0.66363636363636092
40
0.66515151515151238
40
0.66666666666666385
40
0.66818181818181532
40
0.66969696969696679
40
0.67121212121211826
40
0.67272727272726973
40
0.6742424242424212
40
0.67575757575757267
40
0.67727272727272414
40
0.67878787878787561
40
0.68030303030302708
40
0.68181818181817855
40
0.68333333333333002
40
0.68484848484848149
40
0.68636363636363296
40
0.68787878787878443
40
0.6893939393939359
40
0.69090909090908736
40
0.69242424242423883
40
0.6939393939393903
40
0.69545454545454177
40
0.69696969696969324
40
0.69848484848484471
40
0.69999999999999618
40
0.70151515151514765
40
0.70303030303029912
40
0.70454545454545059
40
0.70606060606060206
40
0.70757575757575353
40
0.709090909090905
40
0.71060606060605647
40
0.71212121212120794
40
0.71363636363635941
40
0.71515151515151087
40
0.71666666666666234
40
0.71818181818181381
40
0.71969696969696528
40
0.72121212121211675
40
0.72272727272726822
40
0.72424242424241969
40
0.72575757575757116
40
0.72727272727272263
40
0.7287878787878741
40
0.73030303030302557
40
0.73181818181817704
40
0.73333333333332851
40
0.73484848484847998
40
0.73636363636363145
40
0.73787878787878292
40
0.73939393939393439
40
0.74090909090908585
40
0.74242424242423732
40
0.74393939393938879
40
0.74545454545454026
40
0.74696969696969173
40
0.7484848484848432
40
0.74999999999999467
40
0.75151515151514614
40
0.75303030303029761
40
0.75454545454544908
40
0.75606060606060055
40
0.75757575757575202
40
0.75909090909090349
40
0.76060606060605496
40
0.76212121212120643
40
0.7636363636363579
40
0.76515151515150936
40
0.76666666666666083
40
0.7681818181818123
40
0.76969696969696377
40
0.77121212121211524
40
0.77272727272726671
40
0.77424242424241818
40
0.77575757575756965
40
0.77727272727272112
40
0.77878787878787259
40
0.78030303030302406
40
0.78181818181817553
40
0.783333333333327
40
0.78484848484847847
40
0.78636363636362994
40
0.78787878787878141
40
0.78939393939393288
40
0.79090909090908434
40
0.79242424242423581
40
0.79393939393938728
40
0.79545454545453875
40
0.79696969696969022
40
0.79848484848484169
40
0.79999999999999316
40
0.80151515151514463
40
0.8030303030302961
40
0.80454545454544757
40
0.80606060606059904
40
0.80757575757575051
40
0.80909090909090198
40
0.81060606060605345
40
0.81212121212120492
40
0.81363636363635639
40
0.81515151515150785
40
0.81666666666665932
40
0.81818181818181079
40
0.81969696969696226
40
0.82121212121211373
40
0.8227272727272652
40
0.82424242424241667
40
0.82575757575756814
40
0.82727272727271961
40
0.82878787878787108
40
0.83030303030302255
40
0.83181818181817402
40
0.83333333333332549
40
0.83484848484847696
40
0.83636363636362843
40
0.8378787878787799
40
0.83939393939393137
40
0.84090909090908283
40
0.8424242424242343
40
0.84393939393938577
40
0.84545454545453724
40
0.84696969696968871
40
0.84848484848484018
40
0.84999999999999165
40
0.85151515151514312
40
0.85303030303029459
40
0.85454545454544606
40
0.85606060606059753
40
0.857575757575749
40
0.85909090909090047
40
0.86060606060605194
40
0.86212121212120341
40
0.86363636363635488
40
0.86515151515150635
40
0.86666666666665781
40
0.86818181818180928
40
0.86969696969696075
40
0.87121212121211222
40
0.87272727272726369
40
0.87424242424241516
40
0.87575757575756663
40
0.8772727272727181
40
0.87878787878786957
40
0.88030303030302104
40
0.88181818181817251
40
0.88333333333332398
40
0.88484848484847545
40
0.88636363636362692
40
0.88787878787877839
40
0.88939393939392986
40
0.89090909090908132
40
0.89242424242423279
40
0.89393939393938426
40
0.89545454545453573
40
0.8969696969696872
40
0.89848484848483867
40
0.89999999999999014
40
0.90151515151514161
40
0.90303030303029308
40
0.90454545454544455
40
0.90606060606059602
40
0.90757575757574749
40
0.90909090909089896
40
0.91060606060605043
40
0.9121212121212019
40
0.91363636363635337
40
0.91515151515150484
40
0.9166666666666563
40
0.91818181818180777
40
0.91969696969695924
40
0.92121212121211071
40
0.92272727272726218
40
0.92424242424241365
40
0.92575757575756512
40
0.92727272727271659
40
0.92878787878786806
40
0.93030303030301953
40
0.931818181818171
40
0.93333333333332247
40
0.93484848484847394
40
0.93636363636362541
40
0.93787878787877688
40
0.93939393939392835
40
0.94090909090907981
40
0.94242424242423128
40
0.94393939393938275
40
0.94545454545453422
40
0.94696969696968569
40
0.94848484848483716
40
0.94999999999998863
40
0.9515151515151401
40
0.95303030303029157
40
0.95454545454544304
40
0.95606060606059451
40
0.95757575757574598
40
0.95909090909089745
40
0.96060606060604892
40
0.96212121212120039
40
0.96363636363635186
40
0.96515151515150333
40
0.96666666666665479
40
0.96818181818180626
40
0.96969696969695773
40
0.9712121212121092
40
0.97272727272726067
40
0.97424242424241214
40
0.97575757575756361
40
0.97727272727271508
40
0.97878787878786655
40
0.98030303030301802
40
0.98181818181816949
40
0.98333333333332096
40
0.98484848484847243
40
0.9863636363636239
40
0.98787878787877537
40
0.98939393939392684
40
0.99090909090907831
40
0.99242424242422977
40
0.99393939393938124
40
0.99545454545453271
40
0.99696969696968418
40
0.99848484848483565
40
1
40
1
40
1
40
1
40
1
40
1
41
1
41
1
41
1
41
1
41
1
41
1
41
1
41
1
41
1
41
1
41
1
41
1
41
1
41
1
41
1
41
1
41
1
41
1
41
1
41
1
41
1
41
1
41
1
41
1
41
1
41
1
41
1
41
1
41
1
41
1
41
1
41
1
41
1
41
1
41
1
41
1
41
1
41
1
41
1
41
1
41
1
41
1
41
1
41
1
41
1
41
1
41
1
41
1
41
1
41
1
41
1
41
1
41
1
41
1
41
1
41
1
41
1
41
1
41
1
41
1
41
1
41
1
41
1
41
1
41
1
41
1
41
1
41
1
41
1
41
1
41
1
41
1
41
1
41
1
41
1
41
1
41
1
41
1
41
1
41
1
41
1
41
1
41
1
41
1
41
1
41
1
41
1
41
1
41
1
41
1
41
1
41
1
41
1
41
1
41
1
41
1
41
1
41
1
41
1
41
1
41
1
41
1
41
1
41
1
41
1
41
1
41
1
41
1
41
1
41
1
41
1
41
1
41
1
41
1
41
1
41
1
41
1
41
1
41
1
41
1
41
1
41
1
41
1
41
1
41
1
41
1
41
1
41
1
41
1
41
1
41
1
41
1
41
1
41
1
41
1
41
1
41
1
41
1
41
1
41
1
41
1
41
1
41
1
41
1
41
1
41
1
41
1
41
1
41
1
41
1
41
1
41
1
41
1
41
1
41
1
41
1
41
1
41
1
41
1
41
1
41
1
41
1
41
1
41
1
41
1
41
1
41
1
41
1
41
1
41
1
41
1
41
1
41
1
41
1
41
1
41
1
41
1
41
1
41
1
41
1
41
1
41
1
41
1
41
1
41
1
41
1
41
1
41
1
41
1
41
1
41
1
41
1
41
1
41
1
41
1
41
1
41
1
41
1
41
1
41
1
41
1
41
1
41
1
41
1
41
1
41
1
41
1
41
1
41
1
41
1
41
1
41
1
41
1
41
1
41
1
41
1
41
1
41
1
41
1
41
1
41
1
41
1
41
1
41
1
41
1
41
1
41
1
41
1
41
1
41
1
41
1
41
1
41
1
41
1
41
1
41
1
41
1
41
1
41
1
41
1
41
1
41
1
41
1
41
1
41
1
41
1
41
1
41
1
41
1
41
1
41
1
41
1
41
1
41
1
41
1
41
1
41
1
41
1
41
1
41
1
41
1
41
1
41
1
41
1
41
1
41
1
41
1
41
1
41
1
41
1
41
1
41
1
41
1
41
1
41
1
41
1
41
1
41
1
41
1
41
1
41
1
41
1
41
1
41
1
41
1
41
1
41
1
41
1
41
1
41
1
41
1
41
1
41
1
41
1
41
1
41
1
41
1
41
1
41
1
41
1
41
1
41
1
41
1
41
1
41
1
41
1
41
1
41
1
41
1
41
1
41
1
41
1
41
1
41
1
41
1
41
1
41
1
41
1
41
1
41
1
41
1
41
1
41
1
41
1
41
1
41
1
41
1
41
1
41
1
41
1
41
1
41
1
41
1
41
1
41
1
41
1
41
1
41
1
41
1
41
1
41
1
41
1
41
1
41
1
41
1
41
1
41
1
41
1
41
1
41
1
41
1
41
1
41
1
41
1
41
1
41
1
41
1
41
1
41
1
41
1
41
1
41
1
41
1
41
1
41
1
41
1
41
1
41
1
41
1
41
1
41
1
41
1
41
1
41
1
41
1
41
1
41
1
41
1
41
1
41
1
41
1
41
1
41
1
41
1
41
1
41
1
41
1
41
1
41
1
41
1
41
1
41
1
41
1
41
1
41
1
41
1
41
1
41
1
41
1
41
1
41
1
41
1
41
1
41
1
41
1
41
1
41
1
41
1
41
1
41
1
41
1
41
1
41
1
41
1
41
1
41
1
41
1
41
1
41
1
41
1
41
1
41
1
41
1
41
1
41
1
41
1
41
1
41
1
41
1
41
1
41
1
41
1
41
1
41
1
41
1
41
1
41
1
41
1
41
1
41
1
41
1
41
1
41
1
41
1
41
1
41
1
41
1
41
1
41
1
41
1
41
1
41
1
41
1
41
1
41
1
41
1
41
1
41
1
41
1
41
1
41
1
41
1
41
1
41
1
41
1
41
1
41
1
41
1
41
1
41
1
41
1
41
1
41
1
41
1
41
1
41
1
41
1
41
1
41
1
41
1
41
1
41
1
41
1
41
1
41
1
41
1
41
1
41
1
41
1
41
1
41
1
41
1
41
1
41
1
41
1
41
1
41
1
41
1
41
1
41
1
41
1
41
1
41
1
41
1
41
1
41
1
41
1
41
1
41
1
41
1
41
1
41
1
41
1
41
1
41
1
41
1
41
1
41
1
41
1
41
1
41
1
41
1
41
1
41
1
41
1
41
1
41
1
41
1
41
1
41
1
41
1
41
1
41
1
41
1
41
1
41
1
41
1
41
1
41
1
41
1
41
1
41
1
41
1
41
1
41
1
41
1
41
1
41
1
41
1
41
1
41
1
41
1
41
1
41
1
41
1
41
1
41
1
41
1
41
1
41
1
41
1
41
1
41
1
41
1
41
1
41
1
41
1
41
1
41
1
41
1
41
1
41
1
41
1
41
1
41
1
41
1
41
1
41
1
41
1
41
1
41
1
41
1
41
1
41
1
41
1
41
1
41
1
41
1
41
1
41
1
41
1
41
1
41
1
41
1
41
1
41
1
41
1
41
1
41
1
41
1
41
1
41
1
41
1
41
1
41
1
41
1
41
1
41
1
41
1
41
1
41
1
41
1
41
1
41
1
41
1
41
1
41
1
41
1
41
1
41
1
41
1
41
1
41
1
41
1
41
1
41
1
41
1
41
1
41
1
41
1
41
1
41
1
41
1
41
1
41
1
41
1
41
1
41
1
41
1
41
1
41
1
41
1
41
1
41
1
41
1
41
1
41
1
41
1
41
1
41
1
41
1
41
1
41
1
41
1
41
1
41
1
41
1
41
1
41
1
41
1
41
1
41
1
41
1
41
1
41
1
10
-48.143500000000003
20
-77.832300000000004
30
0
10
-48.234000357308027
20
-77.808233622287418
30
0
10
-48.406676916802127
20
-77.760670616839306
30
0
10
-48.640694172915424
20
-77.690640594336116
30
0
10
-48.913181084518641
20
-77.596243713035946
30
0
10
-49.235445762803721
20
-77.463177113401215
30
0
10
-49.574431847740463
20
-77.303937176943208
30
0
10
-49.92555807452046
20
-77.11517907390737
30
0
10
-50.26699922725409
20
-76.898433023781806
30
0
10
-50.579909357512065
20
-76.658151428993179
30
0
10
-50.863040949016032
20
-76.399068301471985
30
0
10
-51.122452950869565
20
-76.124190860571375
30
0
10
-51.364658808677149
20
-75.830981867321199
30
0
10
-51.591068902219853
20
-75.512991571933156
30
0
10
-51.799544843520458
20
-75.16778610481829
30
0
10
-51.983277895417935
20
-74.808156785577495
30
0
10
-52.133897520774283
20
-74.456397288394797
30
0
10
-52.246841197978959
20
-74.123671754704645
30
0
10
-52.328259025635148
20
-73.786054010490346
30
0
10
-52.392628447104983
20
-73.392324074723547
30
0
10
-52.454671290678469
20
-72.892167245084494
30
0
10
-52.521639088379658
20
-72.262845085340132
30
0
10
-52.593019544661963
20
-71.51029295203918
30
0
10
-52.663674802513576
20
-70.658296068338643
30
0
10
-52.725822296786063
20
-69.741689561102916
30
0
10
-52.771506253743816
20
-68.797854851850119
30
0
10
-52.794844424563166
20
-67.858990957069011
30
0
10
-52.794410683361079
20
-66.943932477149374
30
0
10
-52.77215714849676
20
-66.060339123917572
30
0
10
-52.732293044622253
20
-65.206987610721072
30
0
10
-52.680197389308596
20
-64.376009661293324
30
0
10
-52.62127483129278
20
-63.555196703277929
30
0
10
-52.559935295989916
20
-62.730172801986022
30
0
10
-52.498272013617409
20
-61.886881788765528
30
0
10
-52.43596217035909
20
-61.012803709780115
30
0
10
-52.371054065666158
20
-60.097241992210911
30
0
10
-52.300499400799971
20
-59.131891156857613
30
0
10
-52.220780508952195
20
-58.111270178942675
30
0
10
-52.128519994677383
20
-57.033256831719711
30
0
10
-52.021043914467853
20
-55.899477285487833
30
0
10
-51.897099624626854
20
-54.716010634009891
30
0
10
-51.756931543498069
20
-53.492878720187818
30
0
10
-51.601845568984103
20
-52.242582643019034
30
0
10
-51.433920159809659
20
-50.978910616066514
30
0
10
-51.25565831375711
20
-49.715639655892609
30
0
10
-51.069662125998747
20
-48.465270444263304
30
0
10
-50.878304029992009
20
-47.23777650872605
30
0
10
-50.683384599012882
20
-46.039280721772798
30
0
10
-50.485830875701431
20
-44.870918443474665
30
0
10
-50.285291332214122
20
-43.727236034151844
30
0
10
-50.080114827749483
20
-42.596307674737446
30
0
10
-49.867715387221153
20
-41.461577218741567
30
0
10
-49.644832490535208
20
-40.303232927635747
30
0
10
-49.407834045391382
20
-39.099773011758757
30
0
10
-49.153001075473014
20
-37.82948943557998
30
0
10
-48.876820268910166
20
-36.471986856526989
30
0
10
-48.5762731574345
20
-35.00968652117222
30
0
10
-48.24912672246505
20
-33.429336512501798
30
0
10
-47.894223469915744
20
-31.723519712866029
30
0
10
-47.511771550152716
20
-29.892161760153002
30
0
10
-47.103187772052976
20
-27.941624741037415
30
0
10
-46.670940918702833
20
-25.883802468280489
30
0
10
-46.218394963792669
20
-23.735215233611285
30
0
10
-45.749652348262416
20
-21.516104890209448
30
0
10
-45.26939723675067
20
-19.249529791487934
30
0
10
-44.782738808861431
20
-16.960459994767831
30
0
10
-44.295054505814235
20
-14.67487202965868
30
0
10
-43.811833387785072
20
-12.418844701927728
30
0
10
-43.338519245443045
20
-10.217652535615578
30
0
10
-42.880354283453883
20
-8.0948646871024081
30
0
10
-42.442221472709363
20
-6.0714311134164713
30
0
10
-42.028489985062045
20
-4.1647982690109355
30
0
10
-41.64285344929003
20
-2.3879560714372459
30
0
10
-41.288184967385234
20
-0.74864539398916019
30
0
10
-40.966350652555377
20
0.75183162511107549
30
0
10
-40.678194143138683
20
2.1181639559911414
30
0
10
-40.423640700505132
20
3.3594390660079303
30
0
10
-40.201765982510942
20
4.4878881479103914
30
0
10
-40.01087940429538
20
5.5174924614450767
30
0
10
-39.848601151408417
20
6.4626484133221931
30
0
10
-39.711942103316296
20
7.3368093033431343
30
0
10
-39.597382051650364
20
8.1511326099806922
30
0
10
-39.500949693583138
20
8.9131355320812027
30
0
10
-39.418298874353624
20
9.625316948746903
30
0
10
-39.345308257966174
20
10.288806281038879
30
0
10
-39.278687736800599
20
10.907068636968331
30
0
10
-39.216577147806092
20
11.489556952153757
30
0
10
-39.159160279862462
20
12.055460821814524
30
0
10
-39.109239087068836
20
12.637208687241204
30
0
10
-39.070957973959281
20
13.272570323272317
30
0
10
-39.048556655998787
20
13.996933242262299
30
0
10
-39.045127062454284
20
14.835608645549121
30
0
10
-39.061334512995963
20
15.795906292424446
30
0
10
-39.094250438863767
20
16.859926152091351
30
0
10
-39.138459132810524
20
17.991893696956595
30
0
10
-39.187054420903188
20
19.144804617799288
30
0
10
-39.232693495184321
20
20.267403520700533
30
0
10
-39.268590865463835
20
21.310853078977043
30
0
10
-39.289620575414787
20
22.235924859786472
30
0
10
-39.293178974690179
20
23.019057820516451
30
0
10
-39.280628113908975
20
23.661144459081157
30
0
10
-39.256602219190228
20
24.186485306340714
30
0
10
-39.225537438069168
20
24.630201006866429
30
0
10
-39.189468101017042
20
25.02942934503125
30
0
10
-39.144092652215505
20
25.411261983453333
30
0
10
-39.079692966659444
20
25.788170257988902
30
0
10
-38.987280339011726
20
26.163419722108308
30
0
10
-38.865693143724272
20
26.534064525780529
30
0
10
-38.720346800885437
20
26.89494268815362
30
0
10
-38.555735782365538
20
27.241384032397665
30
0
10
-38.366649551382189
20
27.573814476464719
30
0
10
-38.14356075611019
20
27.895006370800424
30
0
10
-37.88378301556348
20
28.204710497916736
30
0
10
-37.605381151463703
20
28.493006960671124
30
0
10
-37.330895012862342
20
28.747493508885459
30
0
10
-37.063973693431549
20
28.963854620440863
30
0
10
-36.763944727028083
20
29.157042859717102
30
0
10
-36.378360140107105
20
29.349722693523415
30
0
10
-35.883159132973873
20
29.55767941934203
30
0
10
-35.319507825248373
20
29.776552224537131
30
0
10
-34.762415763368601
20
29.994590492676274
30
0
10
-34.289090677832128
20
30.205562741149372
30
0
10
-33.948126624345477
20
30.421239436644406
30
0
10
-33.726436558228507
20
30.685023231442624
30
0
10
-33.573866490453064
20
31.055657919760655
30
0
10
-33.431442849827341
20
31.588901254480728
30
0
10
-33.256106924146167
20
32.321435164411803
30
0
10
-33.017816279930898
20
33.273725989356066
30
0
10
-32.698490916210289
20
34.451594546897255
30
0
10
-32.290267201021678
20
35.848271888630549
30
0
10
-31.79404605078583
20
37.446248357901133
30
0
10
-31.217913783968431
20
39.219212186116692
30
0
10
-30.575620163640696
20
41.133947416332788
30
0
10
-29.885026687000792
20
43.152253804984333
30
0
10
-29.166579901089168
20
45.232846519811275
30
0
10
-28.441745767759951
20
47.333289237403505
30
0
10
-27.731526952563978
20
49.411854821160702
30
0
10
-27.05477738257844
20
51.429563707018772
30
0
10
-26.427424544513833
20
53.351425988576878
30
0
10
-25.86219657101941
20
55.14724045697897
30
0
10
-25.368193276805609
20
56.792530924164161
30
0
10
-24.950522765037469
20
58.269424262731462
30
0
10
-24.609907617357539
20
59.567556974068992
30
0
10
-24.34230928620962
20
60.68496163511152
30
0
10
-24.138532547138833
20
61.628980622026617
30
0
10
-23.983866395536229
20
62.417125301340093
30
0
10
-23.857644169899316
20
63.078058733614178
30
0
10
-23.732991759357027
20
63.652289641809119
30
0
10
-23.57608160680936
20
64.193625967317843
30
0
10
-23.352973722429148
20
64.758942532499773
30
0
10
-23.036991100734753
20
65.397115607284817
30
0
10
-22.616003893576032
20
66.138120664272549
30
0
10
-22.099519468099015
20
66.982375868829948
30
0
10
-21.526499758962242
20
67.889112550532985
30
0
10
-20.952211709872678
20
68.792476428174766
30
0
10
-20.433722012830458
20
69.619306544151996
30
0
10
-20.016682963852976
20
70.305473251267216
30
0
10
-19.719777472949268
20
70.814692466422159
30
0
10
-19.524350198429349
20
71.151927379011966
30
0
10
-19.351465890565038
20
71.389882538844702
30
0
10
-19.0863146199775
20
71.646056288060137
30
0
10
-18.634075714692184
20
72.02615670424909
30
0
10
-17.979314441749672
20
72.565349274503731
30
0
10
-17.182735461702343
20
73.227895818839585
30
0
10
-16.342884387961192
20
73.939829144671322
30
0
10
-15.569882053204136
20
74.610444754090423
30
0
10
-14.952419353428162
20
75.159681359982756
30
0
10
-14.531645123865616
20
75.54012548028615
30
0
10
-14.262501364715046
20
75.768158184072888
30
0
10
-14.009769640501961
20
75.930218943270219
30
0
10
-13.632475357268794
20
76.124639295537492
30
0
10
-13.069201656648859
20
76.404345933893126
30
0
10
-12.373120798076611
20
76.750906164333927
30
0
10
-11.64896430964053
20
77.111363594166249
30
0
10
-11.009814114591387
20
77.421931334713761
30
0
10
-10.532208120719908
20
77.633814030627008
30
0
10
-10.196793812600038
20
77.745758013538591
30
0
10
-9.8879338806976609
20
77.807084342114464
30
0
10
-9.4738381865637304
20
77.879322477977411
30
0
10
-8.8818681140097997
20
78.001375166378878
30
0
10
-8.121078622484152
20
78.177496277903714
30
0
10
-7.2454039512699167
20
78.391762078869206
30
0
10
-6.3343129771551387
20
78.614781492891666
30
0
10
-5.4653828639991069
20
78.81384520972135
30
0
10
-4.6924125970303248
20
78.961035911801872
30
0
10
-4.0157546250014402
20
79.043686362972863
30
0
10
-3.3961920364053855
20
79.062797694702965
30
0
10
-2.778914890972394
20
79.028617039895167
30
0
10
-2.1149423681115134
20
78.95713815002479
30
0
10
-1.3816765477627819
20
78.866290848006486
30
0
10
-0.60887987723047665
20
78.772065691085842
30
0
10
0.14075066007967019
20
78.686489133192239
30
0
10
0.79964845738291945
20
78.616139993567401
30
0
10
1.3217752959078031
20
78.56025849243531
30
0
10
1.7067072382310595
20
78.509519390813139
30
0
10
2.0326365970598035
20
78.443225059289034
30
0
10
2.4053624674891392
20
78.340201562989975
30
0
10
2.8947355617956241
20
78.191637586463543
30
0
10
3.4733540697377547
20
78.013757780822729
30
0
10
4.0605224285823311
20
77.834415606809486
30
0
10
4.571123139454655
20
77.678442387914288
30
0
10
4.9603108649621666
20
77.55424506696356
30
0
10
5.2760549973788535
20
77.437821559285283
30
0
10
5.6118037300315926
20
77.290555416452833
30
0
10
6.0493860662610945
20
77.080360758567451
30
0
10
6.6070012837466727
20
76.801013511455878
30
0
10
7.2592305014710989
20
76.463760997587372
30
0
10
7.9560535678552444
20
76.089328927681692
30
0
10
8.6419797851026594
20
75.699897990114778
30
0
10
9.2756495880071803
20
75.310846568609378
30
0
10
9.8477744781110133
20
74.923286769806239
30
0
10
10.368932965236827
20
74.530767633716138
30
0
10
10.858705181178959
20
74.125389038673319
30
0
10
11.334596784079187
20
73.703921515421982
30
0
10
11.800368208385327
20
73.274426591757319
30
0
10
12.236590918486101
20
72.861210765526579
30
0
10
12.617515660983141
20
72.490302194590413
30
0
10
12.925761538590105
20
72.176583538121136
30
0
10
13.168333216205514
20
71.909829165725967
30
0
10
13.390776552651415
20
71.642418892014788
30
0
10
13.649322787195716
20
71.31631786563571
30
0
10
13.981831201426761
20
70.89116365351201
30
0
10
14.384661133667827
20
70.366826770626403
30
0
10
14.829079270811327
20
69.768937381634373
30
0
10
15.273459269735422
20
69.138442267973986
30
0
10
15.676636608693952
20
68.519865329409498
30
0
10
16.011871835113013
20
67.949512177089957
30
0
10
16.277247784914689
20
67.445510118213591
30
0
10
16.486621583997572
20
67.008139635693837
30
0
10
16.663268380787258
20
66.619026771087462
30
0
10
16.832254103192792
20
66.240262528563719
30
0
10
17.013987627318919
20
65.815037611154651
30
0
10
17.223712075690568
20
65.283115398454356
30
0
10
17.470538927711875
20
64.594720785438639
30
0
10
17.756602620836112
20
63.725432105433697
30
0
10
18.076304318963185
20
62.689553549847844
30
0
10
18.418713347674668
20
61.529219371987637
30
0
10
18.769810900666528
20
60.304580769478477
30
0
10
19.114791037763247
20
59.083598423893534
30
0
10
19.44034373306927
20
57.931977654805308
30
0
10
19.736930770263264
20
56.903099742858871
30
0
10
20.001099386040956
20
56.027821091777625
30
0
10
20.237697965622104
20
55.304644755370028
30
0
10
20.46235601703604
20
54.688873474759284
30
0
10
20.697578451230459
20
54.106522187637687
30
0
10
20.968592607092134
20
53.469212500796388
30
0
10
21.299203694712631
20
52.688982174435104
30
0
10
21.707831774557341
20
51.692511771267377
30
0
10
22.203028056806179
20
50.437081366191251
30
0
10
22.780577312050767
20
48.921229941415262
30
0
10
23.426635570866743
20
47.175239048130635
30
0
10
24.119936036873181
20
45.254732135513208
30
0
10
24.834359981334174
20
43.23305298565819
30
0
10
25.541351347841257
20
41.194168012083885
30
0
10
26.212399960324166
20
39.225336242682388
30
0
10
26.821491869606284
20
37.409896093285234
30
0
10
27.347581574570036
20
35.81996308107972
30
0
10
27.777037015524833
20
34.509255726797001
30
0
10
28.106137927497528
20
33.505656972857977
30
0
10
28.343454671690857
20
32.804375430744734
30
0
10
28.512508921824914
20
32.359698325888779
30
0
10
28.653647717163185
20
32.080485455437831
30
0
10
28.813926546156537
20
31.866104295499376
30
0
10
29.037945682712667
20
31.644179741224434
30
0
10
29.357844898947569
20
31.396846407165985
30
0
10
29.785110535882026
20
31.134817993058093
30
0
10
30.298765666946636
20
30.876485650784108
30
0
10
30.84488742110738
20
30.6321331815499
30
0
10
31.362483182857012
20
30.406691693516844
30
0
10
31.801806345290021
20
30.198627442378978
30
0
10
32.150354868354029
20
29.999885233809156
30
0
10
32.441394795765362
20
29.79689384023931
30
0
10
32.720255349244937
20
29.576081039096298
30
0
10
33.011581669114001
20
29.329544660625402
30
0
10
33.305931950793514
20
29.057450426129204
30
0
10
33.582493415804429
20
28.764156325101421
30
0
10
33.826687897584634
20
28.455818862024309
30
0
10
34.037475196711007
20
28.13743227655868
30
0
10
34.219509340881721
20
27.810564747785563
30
0
10
34.379083522595742
20
27.470218348095074
30
0
10
34.521035890082985
20
27.104938611662639
30
0
10
34.64833243536404
20
26.698912795856018
30
0
10
34.760346026356807
20
26.233301880245243
30
0
10
34.854069978000339
20
25.688964259104353
30
0
10
34.926132510424111
20
25.049625945833021
30
0
10
34.974404782180947
20
24.304630721357547
30
0
10
35.000160444140477
20
23.452553465358616
30
0
10
35.007949323617332
20
22.500756630604876
30
0
10
35.004466716487961
20
21.463115303378824
30
0
10
34.99773858974801
20
20.358322393210639
30
0
10
34.99617934301866
20
19.207956682048138
30
0
10
35.007695484164117
20
18.034643476280579
30
0
10
35.03878994476824
20
16.860196821865486
30
0
10
35.093617521053176
20
15.703718730096693
30
0
10
35.173201829822169
20
14.579863851168614
30
0
10
35.276287387167649
20
13.498797919408815
30
0
10
35.400056941357079
20
12.46602405937991
30
0
10
35.540906643547878
20
11.482250056476992
30
0
10
35.695181965301991
20
10.543259512712531
30
0
10
35.859964457858304
20
9.6397317088852876
30
0
10
36.033757227904502
20
8.7571992877734246
30
0
10
36.217410919164564
20
7.875659347569318
30
0
10
36.414146281844943
20
6.9705003318382364
30
0
10
36.628748651330014
20
6.0146370921463745
30
0
10
36.866991605320017
20
4.9803120327890387
30
0
10
37.134967458883622
20
3.8410307553471394
30
0
10
37.438456099418211
20
2.5734452790538906
30
0
10
37.782280976516191
20
1.1592478431615592
30
0
10
38.169662104308131
20
-0.41291181390872334
30
0
10
38.60159041370855
20
-2.1455852110307259
30
0
10
39.076138526086517
20
-4.0304723337749877
30
0
10
39.588854315746715
20
-6.0499293913990302
30
0
10
40.133232237988487
20
-8.1787317360490004
30
0
10
40.701156477016525
20
-10.385744332231043
30
0
10
41.283356001395703
20
-12.635631288034251
30
0
10
41.869854406100487
20
-14.890548254068438
30
0
10
42.450422160757924
20
-17.111842776899408
30
0
10
43.015027408352047
20
-19.261749748753225
30
0
10
43.554288334910176
20
-21.305092359947245
30
0
10
44.059922674303102
20
-23.210972853208901
30
0
10
44.525203563907297
20
-24.954485989255978
30
0
10
44.945400839134663
20
-26.518380411988787
30
0
10
45.318256159463246
20
-27.894841099559041
30
0
10
45.644379383231609
20
-29.086989969640822
30
0
10
45.927834533032595
20
-30.111065050090147
30
0
10
46.176126234110328
20
-30.996453783412367
30
0
10
46.398928341818831
20
-31.78122276834392
30
0
10
46.607072070029183
20
-32.508578334773418
30
0
10
46.811436082811042
20
-33.222971879957946
30
0
10
47.021865736769108
20
-33.966319555759689
30
0
10
47.246109792687776
20
-34.774261001056637
30
0
10
47.488668509438831
20
-35.672162818169241
30
0
10
47.751136611200764
20
-36.675517350481698
30
0
10
48.032665175938732
20
-37.790693247307196
30
0
10
48.330380552791148
20
-39.015556956788998
30
0
10
48.639821241829111
20
-40.340152339278518
30
0
10
48.955367379642269
20
-41.747346519323621
30
0
10
49.270672568971385
20
-43.213510251643434
30
0
10
49.579096588713831
20
-44.709136574044742
30
0
10
49.874133234984356
20
-46.199596101304934
30
0
10
50.14985212159462
20
-47.645540350582429
30
0
10
50.401207468145444
20
-49.006686223313743
30
0
10
50.624329601564071
20
-50.246115169547217
30
0
10
50.816818492465657
20
-51.334352093148752
30
0
10
50.978045595418166
20
-52.253624394648739
30
0
10
51.109431017319487
20
-53.001841922977341
30
0
10
51.214780453476251
20
-53.597166504457022
30
0
10
51.300480949711371
20
-54.081224827748137
30
0
10
51.37605846025636
20
-54.525779487343542
30
0
10
51.452461274585282
20
-55.017737419330281
30
0
10
51.539543011395601
20
-55.636619730182886
30
0
10
51.644036990055078
20
-56.436532187240601
30
0
10
51.766778298733335
20
-57.421415028397
30
0
10
51.903322933208798
20
-58.550379862334864
30
0
10
52.045931181359187
20
-59.755107189850669
30
0
10
52.185119058432797
20
-60.953425622697495
30
0
10
52.311376086314937
20
-62.064363624206884
30
0
10
52.416842683072851
20
-63.02283841423629
30
0
10
52.49693282516251
20
-63.793875100349162
30
0
10
52.552152300183039
20
-64.388521325304936
30
0
10
52.5893294854218
20
-64.874664977715625
30
0
10
52.618004873521542
20
-65.345911614169736
30
0
10
52.647319098792551
20
-65.894745467011163
30
0
10
52.682616411249157
20
-66.58331122232768
30
0
10
52.722427573525295
20
-67.417249667220148
30
0
10
52.760795703624417
20
-68.362117193941913
30
0
10
52.78938874894444
20
-69.358007277623258
30
0
10
52.799626383996937
20
-70.334533328930377
30
0
10
52.784948770782599
20
-71.226360559305689
30
0
10
52.742678329780226
20
-71.98686023802351
30
0
10
52.676938360911166
20
-72.606735270632015
30
0
10
52.596496632517677
20
-73.109278268400089
30
0
10
52.509398948423112
20
-73.53253670947781
30
0
10
52.419491984048307
20
-73.916850842753732
30
0
10
52.320062263869964
20
-74.287083132489258
30
0
10
52.197677705182883
20
-74.650811826679885
30
0
10
52.04122105436781
20
-75.006445519728501
30
0
10
51.852218009789425
20
-75.348938165464801
30
0
10
51.639866156021498
20
-75.673586303827079
30
0
10
51.410680705772833
20
-75.977628045555036
30
0
10
51.157331262763876
20
-76.263430426255866
30
0
10
50.869213630101335
20
-76.534263836640164
30
0
10
50.547235886067213
20
-76.789023818098926
30
0
10
50.218427555780139
20
-77.016809781997637
30
0
10
49.910178241833393
20
-77.206953720401472
30
0
10
49.620211301464671
20
-77.360651920885303
30
0
10
49.292474918393353
20
-77.500311185296937
30
0
10
48.856486850607538
20
-77.654144851529324
30
0
10
48.266860540874703
20
-77.840686149934243
30
0
10
47.53336906164521
20
-78.057038827839605
30
0
10
46.699800316734397
20
-78.28735401730151
30
0
10
45.830251777702806
20
-78.508352009482508
30
0
10
44.991873480234247
20
-78.696288738179618
30
0
10
44.240611241394973
20
-78.832638279711105
30
0
10
43.602009659370793
20
-78.91196882258518
30
0
10
43.067902624235444
20
-78.942676566941515
30
0
10
42.612786016952889
20
-78.938781158417967
30
0
10
42.204182184032859
20
-78.914542762715101
30
0
10
41.817673300664779
20
-78.876708565284929
30
0
10
41.442316510708892
20
-78.822066465189252
30
0
10
41.073844641340933
20
-78.742899912166834
30
0
10
40.709028253040287
20
-78.630239308316817
30
0
10
40.345226203755615
20
-78.478943429754807
30
0
10
39.984520483888744
20
-78.290908696469046
30
0
10
39.639579135918275
20
-78.082934158779324
30
0
10
39.325754928626978
20
-77.875313020277673
30
0
10
39.047578779306193
20
-77.673611515302412
30
0
10
38.781814315435355
20
-77.445220115682559
30
0
10
38.49324618912275
20
-77.142103259173368
30
0
10
38.159774575909367
20
-76.736468640778696
30
0
10
37.797930267856046
20
-76.257295240568439
30
0
10
37.44768706869398
20
-75.766977673285467
30
0
10
37.149766186775452
20
-75.326842516525474
30
0
10
36.927641198406185
20
-74.969880916016479
30
0
10
36.762526432702295
20
-74.662339631387781
30
0
10
36.61186248617134
20
-74.335103970145568
30
0
10
36.436206593008464
20
-73.928453091596126
30
0
10
36.225046928871024
20
-73.435451760426062
30
0
10
35.988371345713837
20
-72.883628815257381
30
0
10
35.74492821965633
20
-72.310703705824565
30
0
10
35.512185586180685
20
-71.743591202838971
30
0
10
35.294379489225861
20
-71.17328260182731
30
0
10
35.084519584056764
20
-70.561643317857133
30
0
10
34.86826031208728
20
-69.852528279925835
30
0
10
34.627150621504171
20
-68.981476810216719
30
0
10
34.342078398739055
20
-67.885801921879548
30
0
10
33.996789196571548
20
-66.514991994093123
30
0
10
33.580909555214291
20
-64.839564453572379
30
0
10
33.089092877821827
20
-62.848108020537332
30
0
10
32.52056974973879
20
-60.545551818751669
30
0
10
31.878542473092729
20
-57.950962267643192
30
0
10
31.169645958111744
20
-55.095541137752889
30
0
10
30.403380132337876
20
-52.020537289601485
30
0
10
29.591554665929891
20
-48.775195765573955
30
0
10
28.747728421929281
20
-45.414690890054707
30
0
10
27.886651236192357
20
-41.998066469574269
30
0
10
27.023704652030467
20
-38.586172754520128
30
0
10
26.174343266464906
20
-35.239605422888836
30
0
10
25.353535471685625
20
-32.016642332137351
30
0
10
24.575205253819412
20
-28.97118437992139
30
0
10
23.851671659734759
20
-26.150687161120132
30
0
10
23.193093570788914
20
-23.594113620572188
30
0
10
22.606902112619998
20
-21.329837763333689
30
0
10
22.097261682721999
20
-19.373661662684285
30
0
10
21.664464374545062
20
-17.726568789823872
30
0
10
21.304479808358021
20
-16.373092606325663
30
0
10
21.008124097830713
20
-15.278177283227519
30
0
10
20.761648985734947
20
-14.389661901243354
30
0
10
20.548705132323359
20
-13.646210679107798
30
0
10
20.351923338501337
20
-12.983722154629206
30
0
10
20.154665156942766
20
-12.342427399367178
30
0
10
19.942670692477673
20
-11.673538882406602
30
0
10
19.705822666507554
20
-10.946459661010937
30
0
10
19.439652030477198
20
-10.154692972236276
30
0
10
19.144400813694386
20
-9.3095478822572275
30
0
10
18.824290583524149
20
-8.4347833197851649
30
0
10
18.486687701078058
20
-7.5609524695961845
30
0
10
18.141369293943644
20
-6.7197441513146972
30
0
10
17.799613155062975
20
-5.9386308461425479
30
0
10
17.473700203462712
20
-5.2346042435174738
30
0
10
17.174439968487672
20
-4.612681442610949
30
0
10
16.908011713275329
20
-4.0665999341526131
30
0
10
16.672748312720302
20
-3.5785953271086859
30
0
10
16.456561828281465
20
-3.1200401932949
30
0
10
16.232520621010046
20
-2.6504942486600274
30
0
10
15.964558423562087
20
-2.1246249293444195
30
0
10
15.616717893461111
20
-1.5017188514694246
30
0
10
15.161610039919402
20
-0.75481201543596599
30
0
10
14.588364546005554
20
0.12106127200609386
30
0
10
13.912946454971493
20
1.0975699941054617
30
0
10
13.173322429657979
20
2.1206575618162797
30
0
10
12.419871675378424
20
3.123969514769608
30
0
10
11.707316755283214
20
4.040468330900417
30
0
10
11.086171961244043
20
4.8144908356091793
30
0
10
10.594044872606291
20
5.4143445885504091
30
0
10
10.247824522276934
20
5.8429765732557604
30
0
10
10.033525329799398
20
6.1535102583021564
30
0
10
9.9028525727919732
20
6.4509984582359268
30
0
10
9.7986632456997462
20
6.8371523737401487
30
0
10
9.6805743131602711
20
7.3529591043765574
30
0
10
9.5394332276500045
20
7.9491645013345424
30
0
10
9.3779885580163924
20
8.5384023515446188
30
0
10
9.1994251872650743
20
9.0289558859969503
30
0
10
8.9900933227154951
20
9.3710742237877795
30
0
10
8.7127191557787569
20
9.5820721728874663
30
0
10
8.3279518639171428
20
9.7120636144361416
30
0
10
7.8148901401853283
20
9.815374587540548
30
0
10
7.1813051741009897
20
9.9310298876333274
30
0
10
6.4532376064718715
20
10.086000961769672
30
0
10
5.6694511513419226
20
10.292647642154876
30
0
10
4.8740507385258107
20
10.549021540404729
30
0
10
4.1095720588615015
20
10.836727382257234
30
0
10
3.4110577246738321
20
11.124151304824048
30
0
10
2.8026969879083383
20
11.375967787401036
30
0
10
2.2931763731967498
20
11.561860897380051
30
0
10
1.8729217684019528
20
11.664033290993238
30
0
10
1.5072251173468574
20
11.688926078130963
30
0
10
1.1431020619541501
20
11.663754136744842
30
0
10
0.73006218412469626
20
11.617303372793605
30
0
10
0.2413576753232467
20
11.560407692267971
30
0
10
-0.32137916735908478
20
11.484543467269857
30
0
10
-0.93732302187472682
20
11.376672486334217
30
0
10
-1.5717528262853948
20
11.227786135038787
30
0
10
-2.1823515239571107
20
11.047410224016328
30
0
10
-2.7279332252103679
20
10.861796643091154
30
0
10
-3.1828900709741759
20
10.695946958651938
30
0
10
-3.5464923532278418
20
10.562801382343817
30
0
10
-3.8623390373414628
20
10.443167221895971
30
0
10
-4.2048797478208328
20
10.292241504144013
30
0
10
-4.6343955391275493
20
10.071776362714806
30
0
10
-5.1477565680894202
20
9.7841067194754352
30
0
10
-5.6814389143582975
20
9.4709711873754561
30
0
10
-6.1616780228992312
20
9.1800370824223823
30
0
10
-6.534860983166535
20
8.9449589732125094
30
0
10
-6.8195264317581836
20
8.7507036492993429
30
0
10
-7.0970726137621964
20
8.5405289210953761
30
0
10
-7.4536693223479036
20
8.2558713189824555
30
0
10
-7.9240083668194075
20
7.8754094773396819
30
0
10
-8.4850876282576042
20
7.4183831342615409
30
0
10
-9.0847692178901909
20
6.9233543902035102
30
0
10
-9.6602322528699602
20
6.4339861943975851
30
0
10
-10.158768894201851
20
5.9834603753854125
30
0
10
-10.562251739787982
20
5.5755592606895394
30
0
10
-10.88595578810374
20
5.1874078906806051
30
0
10
-11.163114405224645
20
4.784305785674519
30
0
10
-11.43472283800098
20
4.3298704525742249
30
0
10
-11.735398169319458
20
3.8002118689092357
30
0
10
-12.088926382284429
20
3.1869252349170458
30
0
10
-12.509337055237129
20
2.4934122740915456
30
0
10
-13.000406233434834
20
1.7331491521634614
30
0
10
-13.555730923221613
20
0.92717047454629931
30
0
10
-14.158732859443521
20
0.10184857545543549
30
0
10
-14.782227430586637
20
-0.71334372836185811
30
0
10
-15.393394213757009
20
-1.4893938547419534
30
0
10
-15.959684385385518
20
-2.2016440046130601
30
0
10
-16.454182562164704
20
-2.8333750083471836
30
0
10
-16.861677800662424
20
-3.3799495619756841
30
0
10
-17.183315096140262
20
-3.8517187587818587
30
0
10
-17.444605425196482
20
-4.2799185522267233
30
0
10
-17.691492583264939
20
-4.7118426472831141
30
0
10
-17.970699733804548
20
-5.1915657920633276
30
0
10
-18.315940928297799
20
-5.7464632791901105
30
0
10
-18.727608194342288
20
-6.3666549791853413
30
0
10
-19.169559306991871
20
-7.0037496691790651
30
0
10
-19.590557602024099
20
-7.597356858760862
30
0
10
-19.941162779887659
20
-8.0969019103007227
30
0
10
-20.189940113766465
20
-8.4815594145655293
30
0
10
-20.346013171151711
20
-8.7900746569257411
30
0
10
-20.457453662756198
20
-9.1142721643044986
30
0
10
-20.579732150603665
20
-9.5487466616943237
30
0
10
-20.745900558599146
20
-10.141613391569775
30
0
10
-20.958058722097409
20
-10.882696646089824
30
0
10
-21.200639980868552
20
-11.728993432442163
30
0
10
-21.447184826479528
20
-12.619011789900039
30
0
10
-21.670036814091851
20
-13.492200196859592
30
0
10
-21.848234767658955
20
-14.30501740587459
30
0
10
-21.977622798454792
20
-15.051528291743011
30
0
10
-22.068202644303053
20
-15.756835863443179
30
0
10
-22.138832246164796
20
-16.464808688299065
30
0
10
-22.212802984783359
20
-17.22769319706315
30
0
10
-22.313105923812383
20
-18.095075552032689
30
0
10
-22.457696079288741
20
-19.102792116010392
30
0
10
-22.65514477612658
20
-20.262806909561476
30
0
10
-22.906385541592556
20
-21.567947955043568
30
0
10
-23.2060668000343
20
-22.995688376855238
30
0
10
-23.544053233045453
20
-24.512287658819616
30
0
10
-23.906865908529863
20
-26.076786460153599
30
0
10
-24.279143992107993
20
-27.645048547338614
30
0
10
-24.645108011260199
20
-29.173818868021193
30
0
10
-24.989997162755703
20
-30.624689899109576
30
0
10
-25.301576571395074
20
-31.968304647541576
30
0
10
-25.571476432734762
20
-33.187994933943123
30
0
10
-25.796960098702833
20
-34.284858566814492
30
0
10
-25.980172478864681
20
-35.27439142025608
30
0
10
-26.126605101684785
20
-36.180503074028408
30
0
10
-26.243806367215164
20
-37.030335525286461
30
0
10
-26.340024205429366
20
-37.848897956330291
30
0
10
-26.422797132034368
20
-38.653429672503727
30
0
10
-26.497756639082525
20
-39.448702845974253
30
0
10
-26.5668538371186
20
-40.219807604475022
30
0
10
-26.629768087271653
20
-40.938945577647402
30
0
10
-26.686291558125067
20
-41.576789025390603
30
0
10
-26.738626805276947
20
-42.112896179863128
30
0
10
-26.793194404975683
20
-42.545263225240426
30
0
10
-26.863997655973748
20
-42.90347856483065
30
0
10
-26.966446210404825
20
-43.238508496418348
30
0
10
-27.108918706373952
20
-43.605985774772464
30
0
10
-27.283953933326419
20
-44.050795934978204
30
0
10
-27.473333867625801
20
-44.600833454286366
30
0
10
-27.655262407274165
20
-45.261837502490209
30
0
10
-27.810467644907156
20
-46.012922595456594
30
0
10
-27.929571020303246
20
-46.799010108524932
30
0
10
-28.012811366860948
20
-47.548428473536724
30
0
10
-28.068263187879772
20
-48.19503029755041
30
0
10
-28.110667234931668
20
-48.699838819701171
30
0
10
-28.159786731018027
20
-49.070408991191073
30
0
10
-28.239538121775794
20
-49.38770372710448
30
0
10
-28.371066334934845
20
-49.763320743347961
30
0
10
-28.565018746792802
20
-50.286329659275502
30
0
10
-28.813805515385155
20
-50.9721811155827
30
0
10
-29.097113640520575
20
-51.782666705030564
30
0
10
-29.387760860273382
20
-52.648206397825007
30
0
10
-29.657552113924996
20
-53.489759961541111
30
0
10
-29.882837974111347
20
-54.239713364532243
30
0
10
-30.05091298669614
20
-54.86604809894046
30
0
10
-30.163830863449871
20
-55.386210900172273
30
0
10
-30.23343973459793
20
-55.845561638329748
30
0
10
-30.277923305954005
20
-56.302161341209512
30
0
10
-30.317631824598781
20
-56.80803176846279
30
0
10
-30.371568369430555
20
-57.394982019332048
30
0
10
-30.455918402355735
20
-58.077997830411007
30
0
10
-30.582281902025908
20
-58.856413070279892
30
0
10
-30.756148371565718
20
-59.716055929415973
30
0
10
-30.974964206209648
20
-60.630693772485898
30
0
10
-31.227302229839722
20
-61.564649098790156
30
0
10
-31.496390035847938
20
-62.479374036925662
30
0
10
-31.763020578460484
20
-63.339540111048635
30
0
10
-32.008650505295705
20
-64.119144755097935
30
0
10
-32.218540363276283
20
-64.808002321962221
30
0
10
-32.384590818167503
20
-65.417151367110023
30
0
10
-32.509056261150384
20
-65.98712407290104
30
0
10
-32.602044181218567
20
-66.576338067678776
30
0
10
-32.677609642565031
20
-67.245118189218289
30
0
10
-32.750234914040639
20
-68.04070750123708
30
0
10
-32.831364147389934
20
-68.983007236339034
30
0
10
-32.925347060714252
20
-70.047007659919046
30
0
10
-33.030791837548207
20
-71.173826836635712
30
0
10
-33.142944373379848
20
-72.287089607328937
30
0
10
-33.255735647366407
20
-73.307653411180937
30
0
10
-33.363910272067343
20
-74.168566944116947
30
0
10
-33.465255201946349
20
-74.830998250731227
30
0
10
-33.562467971643592
20
-75.297232491422506
30
0
10
-33.66600905158333
20
-75.631491644474423
30
0
10
-33.789769882269681
20
-75.924061267542356
30
0
10
-33.945386157771658
20
-76.244962258711212
30
0
10
-34.136628593009149
20
-76.597612363841407
30
0
10
-34.36112006795517
20
-76.948234751879042
30
0
10
-34.612454451337619
20
-77.262073947582309
30
0
10
-34.882537850665173
20
-77.534817348749556
30
0
10
-35.165793495055595
20
-77.777623742636507
30
0
10
-35.46494145063442
20
-78.002681248179499
30
0
10
-35.792141203310159
20
-78.211573577950148
30
0
10
-36.154775135849874
20
-78.400842477151912
30
0
10
-36.537043145082528
20
-78.565754462376219
30
0
10
-36.8999522002592
20
-78.703409080422674
30
0
10
-37.218529442467258
20
-78.811743771242121
30
0
10
-37.524260516761011
20
-78.889213767508593
30
0
10
-37.906086327212741
20
-78.934829972880593
30
0
10
-38.453039823075287
20
-78.949163382677511
30
0
10
-39.200245524455646
20
-78.93540485205807
30
0
10
-40.115315926712782
20
-78.899194788240706
30
0
10
-41.12844481585838
20
-78.847208518788406
30
0
10
-42.149687663966098
20
-78.786110420686057
30
0
10
-43.091854225087474
20
-78.721330373185793
30
0
10
-43.890224207408444
20
-78.655976300097123
30
0
10
-44.525468450349315
20
-78.589545200843901
30
0
10
-45.039800973522148
20
-78.517140885166853
30
0
10
-45.503440085349951
20
-78.432615585540532
30
0
10
-45.986280842659426
20
-78.331274758705234
30
0
10
-46.526550993722083
20
-78.212876070597218
30
0
10
-47.103592506707777
20
-78.084150572811495
30
0
10
-47.554740113418752
20
-77.980226643551049
30
0
10
-47.863674772952287
20
-77.90506888311549
30
0
10
-48.052999642691212
20
-77.856366377712845
30
0
10
-48.143500000000003
20
-77.832300000000004
30
0
0
ENDSEC
0
SECTION
2
OBJECTS
0
DICTIONARY
5
C
100
AcDbDictionary
3
ACAD_GROUP
350
D
3
ACAD_MLINESTYLE
350
17
0
DICTIONARY
5
D
100
AcDbDictionary
0
DICTIONARY
5
1A
330
C
100
AcDbDictionary
0
DICTIONARY
5
17
100
AcDbDictionary
0
ENDSEC
0
EOF
