0
SECTION
2
HEADER
9
$INSUNITS
70
4
9
$ACADVER
1
AC1014
9
$HANDSEED
5
FFFF
0
ENDSEC
0
SECTION
2
TABLES
0
TABLE
2
VPORT
5
8
100
AcDbSymbolTable
0
ENDTAB
0
TABLE
2
LTYPE
5
5
100
AcDbSymbolTable
0
LTYPE
5
14
100
AcDbSymbolTableRecord
100
AcDbLinetypeTableRecord
2
BYBLOCK
70
0
0
LTYPE
5
15
100
AcDbSymbolTableRecord
100
AcDbLinetypeTableRecord
2
BYLAYER
70
0
0
LTYPE
5
16
100
AcDbSymbolTableRecord
100
AcDbLinetypeTableRecord
2
DASHED
70
0
3
Dashed __ __ __ __ __ __ __ __ __ __ __ __ __ _
72
65
73
2
40
0.75
49
0.5
74
0
49
-0.25
74
0
0
ENDTAB
0
TABLE
2
LAYER
5
2
100
AcDbSymbolTable
70
2
0
LAYER
5
50
100
AcDbSymbolTableRecord
100
AcDbLayerTableRecord
2
0
70
0
62
7
6
CONTINUOUS
0
ENDTAB
0
TABLE
2
STYLE
5
3
100
AcDbSymbolTable
70
1
0
STYLE
5
11
100
AcDbSymbolTableRecord
100
AcDbTextStyleTableRecord
2
STANDARD
70
0
0
ENDTAB
0
TABLE
2
VIEW
5
6
100
AcDbSymbolTable
70
0
0
ENDTAB
0
TABLE
2
UCS
5
7
100
AcDbSymbolTable
70
0
0
ENDTAB
0
TABLE
2
APPID
5
9
100
AcDbSymbolTable
70
2
0
APPID
5
12
100
AcDbSymbolTableRecord
100
AcDbRegAppTableRecord
2
ACAD
70
0
0
ENDTAB
0
TABLE
2
DIMSTYLE
5
A
100
AcDbSymbolTable
70
1
0
ENDTAB
0
TABLE
2
BLOCK_RECORD
5
1
100
AcDbSymbolTable
70
1
0
BLOCK_RECORD
5
1F
100
AcDbSymbolTableRecord
100
AcDbBlockTableRecord
2
*MODEL_SPACE
0
BLOCK_RECORD
5
1B
100
AcDbSymbolTableRecord
100
AcDbBlockTableRecord
2
*PAPER_SPACE
0
ENDTAB
0
ENDSEC
0
SECTION
2
BLOCKS
0
BLOCK
5
20
100
AcDbEntity
100
AcDbBlockBegin
2
*MODEL_SPACE
0
ENDBLK
5
21
100
AcDbEntity
100
AcDbBlockEnd
0
BLOCK
5
1C
100
AcDbEntity
100
AcDbBlockBegin
2
*PAPER_SPACE
0
ENDBLK
5
1D
100
AcDbEntity
100
AcDbBlockEnd
0
ENDSEC
0
SECTION
2
ENTITIES
0
SPLINE
5
100
100
AcDbEntity
8
0
100
AcDbSpline
70
6
71
5
72
656
73
650
74
0
42
0.000000001
43
0.0000000001
44
0.0000000001
40
0
40
0
40
0
40
0
40
0
40
0
40
0.0015503875968992248
40
0.0031007751937984496
40
0.0046511627906976744
40
0.0062015503875968991
40
0.0077519379844961239
40
0.0093023255813953487
40
0.010852713178294573
40
0.012403100775193798
40
0.013953488372093023
40
0.015503875968992248
40
0.017054263565891473
40
0.018604651162790697
40
0.020155038759689922
40
0.021705426356589147
40
0.023255813953488372
40
0.024806201550387597
40
0.026356589147286821
40
0.027906976744186046
40
0.029457364341085271
40
0.031007751937984496
40
0.03255813953488372
40
0.034108527131782945
40
0.03565891472868217
40
0.037209302325581395
40
0.03875968992248062
40
0.040310077519379844
40
0.041860465116279069
40
0.043410852713178294
40
0.044961240310077519
40
0.046511627906976744
40
0.048062015503875968
40
0.049612403100775193
40
0.051162790697674418
40
0.052713178294573643
40
0.054263565891472867
40
0.055813953488372092
40
0.057364341085271317
40
0.058914728682170542
40
0.060465116279069767
40
0.062015503875968991
40
0.063565891472868216
40
0.065116279069767441
40
0.066666666666666666
40
0.068217054263565891
40
0.069767441860465115
40
0.07131782945736434
40
0.072868217054263565
40
0.07441860465116279
40
0.075968992248062014
40
0.077519379844961239
40
0.079069767441860464
40
0.080620155038759689
40
0.082170542635658914
40
0.083720930232558138
40
0.085271317829457363
40
0.086821705426356588
40
0.088372093023255813
40
0.089922480620155038
40
0.091472868217054262
40
0.093023255813953487
40
0.094573643410852712
40
0.096124031007751937
40
0.097674418604651161
40
0.099224806201550386
40
0.10077519379844961
40
0.10232558139534884
40
0.10387596899224806
40
0.10542635658914729
40
0.10697674418604651
40
0.10852713178294573
40
0.11007751937984496
40
0.11162790697674418
40
0.11317829457364341
40
0.11472868217054263
40
0.11627906976744186
40
0.11782945736434108
40
0.11937984496124031
40
0.12093023255813953
40
0.12248062015503876
40
0.12403100775193798
40
0.12558139534883722
40
0.12713178294573646
40
0.1286821705426357
40
0.13023255813953494
40
0.13178294573643418
40
0.13333333333333341
40
0.13488372093023265
40
0.13643410852713189
40
0.13798449612403113
40
0.13953488372093037
40
0.14108527131782961
40
0.14263565891472885
40
0.14418604651162809
40
0.14573643410852732
40
0.14728682170542656
40
0.1488372093023258
40
0.15038759689922504
40
0.15193798449612428
40
0.15348837209302352
40
0.15503875968992276
40
0.15658914728682199
40
0.15813953488372123
40
0.15968992248062047
40
0.16124031007751971
40
0.16279069767441895
40
0.16434108527131819
40
0.16589147286821743
40
0.16744186046511667
40
0.1689922480620159
40
0.17054263565891514
40
0.17209302325581438
40
0.17364341085271362
40
0.17519379844961286
40
0.1767441860465121
40
0.17829457364341134
40
0.17984496124031057
40
0.18139534883720981
40
0.18294573643410905
40
0.18449612403100829
40
0.18604651162790753
40
0.18759689922480677
40
0.18914728682170601
40
0.19069767441860525
40
0.19224806201550448
40
0.19379844961240372
40
0.19534883720930296
40
0.1968992248062022
40
0.19844961240310144
40
0.20000000000000068
40
0.20155038759689992
40
0.20310077519379915
40
0.20465116279069839
40
0.20620155038759763
40
0.20775193798449687
40
0.20930232558139611
40
0.21085271317829535
40
0.21240310077519459
40
0.21395348837209383
40
0.21550387596899306
40
0.2170542635658923
40
0.21860465116279154
40
0.22015503875969078
40
0.22170542635659002
40
0.22325581395348926
40
0.2248062015503885
40
0.22635658914728773
40
0.22790697674418697
40
0.22945736434108621
40
0.23100775193798545
40
0.23255813953488469
40
0.23410852713178393
40
0.23565891472868317
40
0.23720930232558241
40
0.23875968992248164
40
0.24031007751938088
40
0.24186046511628012
40
0.24341085271317936
40
0.2449612403100786
40
0.24651162790697784
40
0.24806201550387708
40
0.24961240310077631
40
0.25116279069767555
40
0.25271317829457479
40
0.25426356589147403
40
0.25581395348837327
40
0.25736434108527251
40
0.25891472868217175
40
0.26046511627907099
40
0.26201550387597022
40
0.26356589147286946
40
0.2651162790697687
40
0.26666666666666794
40
0.26821705426356718
40
0.26976744186046642
40
0.27131782945736566
40
0.27286821705426489
40
0.27441860465116413
40
0.27596899224806337
40
0.27751937984496261
40
0.27906976744186185
40
0.28062015503876109
40
0.28217054263566033
40
0.28372093023255957
40
0.2852713178294588
40
0.28682170542635804
40
0.28837209302325728
40
0.28992248062015652
40
0.29147286821705576
40
0.293023255813955
40
0.29457364341085424
40
0.29612403100775347
40
0.29767441860465271
40
0.29922480620155195
40
0.30077519379845119
40
0.30232558139535043
40
0.30387596899224967
40
0.30542635658914891
40
0.30697674418604814
40
0.30852713178294738
40
0.31007751937984662
40
0.31162790697674586
40
0.3131782945736451
40
0.31472868217054434
40
0.31627906976744358
40
0.31782945736434282
40
0.31937984496124205
40
0.32093023255814129
40
0.32248062015504053
40
0.32403100775193977
40
0.32558139534883901
40
0.32713178294573825
40
0.32868217054263749
40
0.33023255813953672
40
0.33178294573643596
40
0.3333333333333352
40
0.33488372093023444
40
0.33643410852713368
40
0.33798449612403292
40
0.33953488372093216
40
0.3410852713178314
40
0.34263565891473063
40
0.34418604651162987
40
0.34573643410852911
40
0.34728682170542835
40
0.34883720930232759
40
0.35038759689922683
40
0.35193798449612607
40
0.3534883720930253
40
0.35503875968992454
40
0.35658914728682378
40
0.35813953488372302
40
0.35968992248062226
40
0.3612403100775215
40
0.36279069767442074
40
0.36434108527131998
40
0.36589147286821921
40
0.36744186046511845
40
0.36899224806201769
40
0.37054263565891693
40
0.37209302325581617
40
0.37364341085271541
40
0.37519379844961465
40
0.37674418604651388
40
0.37829457364341312
40
0.37984496124031236
40
0.3813953488372116
40
0.38294573643411084
40
0.38449612403101008
40
0.38604651162790932
40
0.38759689922480856
40
0.38914728682170779
40
0.39069767441860703
40
0.39224806201550627
40
0.39379844961240551
40
0.39534883720930475
40
0.39689922480620399
40
0.39844961240310323
40
0.40000000000000246
40
0.4015503875969017
40
0.40310077519380094
40
0.40465116279070018
40
0.40620155038759942
40
0.40775193798449866
40
0.4093023255813979
40
0.41085271317829714
40
0.41240310077519637
40
0.41395348837209561
40
0.41550387596899485
40
0.41705426356589409
40
0.41860465116279333
40
0.42015503875969257
40
0.42170542635659181
40
0.42325581395349104
40
0.42480620155039028
40
0.42635658914728952
40
0.42790697674418876
40
0.429457364341088
40
0.43100775193798724
40
0.43255813953488648
40
0.43410852713178572
40
0.43565891472868495
40
0.43720930232558419
40
0.43875968992248343
40
0.44031007751938267
40
0.44186046511628191
40
0.44341085271318115
40
0.44496124031008039
40
0.44651162790697962
40
0.44806201550387886
40
0.4496124031007781
40
0.45116279069767734
40
0.45271317829457658
40
0.45426356589147582
40
0.45581395348837506
40
0.4573643410852743
40
0.45891472868217353
40
0.46046511627907277
40
0.46201550387597201
40
0.46356589147287125
40
0.46511627906977049
40
0.46666666666666973
40
0.46821705426356897
40
0.4697674418604682
40
0.47131782945736744
40
0.47286821705426668
40
0.47441860465116592
40
0.47596899224806516
40
0.4775193798449644
40
0.47906976744186364
40
0.48062015503876288
40
0.48217054263566211
40
0.48372093023256135
40
0.48527131782946059
40
0.48682170542635983
40
0.48837209302325907
40
0.48992248062015831
40
0.49147286821705755
40
0.49302325581395678
40
0.49457364341085602
40
0.49612403100775526
40
0.4976744186046545
40
0.49922480620155374
40
0.50077519379845292
40
0.50232558139535211
40
0.50387596899225129
40
0.50542635658915047
40
0.50697674418604965
40
0.50852713178294884
40
0.51007751937984802
40
0.5116279069767472
40
0.51317829457364639
40
0.51472868217054557
40
0.51627906976744475
40
0.51782945736434394
40
0.51937984496124312
40
0.5209302325581423
40
0.52248062015504149
40
0.52403100775194067
40
0.52558139534883985
40
0.52713178294573904
40
0.52868217054263822
40
0.5302325581395374
40
0.53178294573643659
40
0.53333333333333577
40
0.53488372093023495
40
0.53643410852713413
40
0.53798449612403332
40
0.5395348837209325
40
0.54108527131783168
40
0.54263565891473087
40
0.54418604651163005
40
0.54573643410852923
40
0.54728682170542842
40
0.5488372093023276
40
0.55038759689922678
40
0.55193798449612597
40
0.55348837209302515
40
0.55503875968992433
40
0.55658914728682352
40
0.5581395348837227
40
0.55968992248062188
40
0.56124031007752107
40
0.56279069767442025
40
0.56434108527131943
40
0.56589147286821861
40
0.5674418604651178
40
0.56899224806201698
40
0.57054263565891616
40
0.57209302325581535
40
0.57364341085271453
40
0.57519379844961371
40
0.5767441860465129
40
0.57829457364341208
40
0.57984496124031126
40
0.58139534883721045
40
0.58294573643410963
40
0.58449612403100881
40
0.586046511627908
40
0.58759689922480718
40
0.58914728682170636
40
0.59069767441860555
40
0.59224806201550473
40
0.59379844961240391
40
0.59534883720930309
40
0.59689922480620228
40
0.59844961240310146
40
0.60000000000000064
40
0.60155038759689983
40
0.60310077519379901
40
0.60465116279069819
40
0.60620155038759738
40
0.60775193798449656
40
0.60930232558139574
40
0.61085271317829493
40
0.61240310077519411
40
0.61395348837209329
40
0.61550387596899248
40
0.61705426356589166
40
0.61860465116279084
40
0.62015503875969002
40
0.62170542635658921
40
0.62325581395348839
40
0.62480620155038757
40
0.62635658914728676
40
0.62790697674418594
40
0.62945736434108512
40
0.63100775193798431
40
0.63255813953488349
40
0.63410852713178267
40
0.63565891472868186
40
0.63720930232558104
40
0.63875968992248022
40
0.64031007751937941
40
0.64186046511627859
40
0.64341085271317777
40
0.64496124031007696
40
0.64651162790697614
40
0.64806201550387532
40
0.6496124031007745
40
0.65116279069767369
40
0.65271317829457287
40
0.65426356589147205
40
0.65581395348837124
40
0.65736434108527042
40
0.6589147286821696
40
0.66046511627906879
40
0.66201550387596797
40
0.66356589147286715
40
0.66511627906976634
40
0.66666666666666552
40
0.6682170542635647
40
0.66976744186046389
40
0.67131782945736307
40
0.67286821705426225
40
0.67441860465116144
40
0.67596899224806062
40
0.6775193798449598
40
0.67906976744185898
40
0.68062015503875817
40
0.68217054263565735
40
0.68372093023255653
40
0.68527131782945572
40
0.6868217054263549
40
0.68837209302325408
40
0.68992248062015327
40
0.69147286821705245
40
0.69302325581395163
40
0.69457364341085082
40
0.69612403100775
40
0.69767441860464918
40
0.69922480620154837
40
0.70077519379844755
40
0.70232558139534673
40
0.70387596899224592
40
0.7054263565891451
40
0.70697674418604428
40
0.70852713178294346
40
0.71007751937984265
40
0.71162790697674183
40
0.71317829457364101
40
0.7147286821705402
40
0.71627906976743938
40
0.71782945736433856
40
0.71937984496123775
40
0.72093023255813693
40
0.72248062015503611
40
0.7240310077519353
40
0.72558139534883448
40
0.72713178294573366
40
0.72868217054263285
40
0.73023255813953203
40
0.73178294573643121
40
0.73333333333333039
40
0.73488372093022958
40
0.73643410852712876
40
0.73798449612402794
40
0.73953488372092713
40
0.74108527131782631
40
0.74263565891472549
40
0.74418604651162468
40
0.74573643410852386
40
0.74728682170542304
40
0.74883720930232223
40
0.75038759689922141
40
0.75193798449612059
40
0.75348837209301978
40
0.75503875968991896
40
0.75658914728681814
40
0.75813953488371733
40
0.75968992248061651
40
0.76124031007751569
40
0.76279069767441487
40
0.76434108527131406
40
0.76589147286821324
40
0.76744186046511242
40
0.76899224806201161
40
0.77054263565891079
40
0.77209302325580997
40
0.77364341085270916
40
0.77519379844960834
40
0.77674418604650752
40
0.77829457364340671
40
0.77984496124030589
40
0.78139534883720507
40
0.78294573643410426
40
0.78449612403100344
40
0.78604651162790262
40
0.78759689922480181
40
0.78914728682170099
40
0.79069767441860017
40
0.79224806201549935
40
0.79379844961239854
40
0.79534883720929772
40
0.7968992248061969
40
0.79844961240309609
40
0.79999999999999527
40
0.80155038759689445
40
0.80310077519379364
40
0.80465116279069282
40
0.806201550387592
40
0.80775193798449119
40
0.80930232558139037
40
0.81085271317828955
40
0.81240310077518874
40
0.81395348837208792
40
0.8155038759689871
40
0.81705426356588629
40
0.81860465116278547
40
0.82015503875968465
40
0.82170542635658383
40
0.82325581395348302
40
0.8248062015503822
40
0.82635658914728138
40
0.82790697674418057
40
0.82945736434107975
40
0.83100775193797893
40
0.83255813953487812
40
0.8341085271317773
40
0.83565891472867648
40
0.83720930232557567
40
0.83875968992247485
40
0.84031007751937403
40
0.84186046511627322
40
0.8434108527131724
40
0.84496124031007158
40
0.84651162790697076
40
0.84806201550386995
40
0.84961240310076913
40
0.85116279069766831
40
0.8527131782945675
40
0.85426356589146668
40
0.85581395348836586
40
0.85736434108526505
40
0.85891472868216423
40
0.86046511627906341
40
0.8620155038759626
40
0.86356589147286178
40
0.86511627906976096
40
0.86666666666666015
40
0.86821705426355933
40
0.86976744186045851
40
0.8713178294573577
40
0.87286821705425688
40
0.87441860465115606
40
0.87596899224805524
40
0.87751937984495443
40
0.87906976744185361
40
0.88062015503875279
40
0.88217054263565198
40
0.88372093023255116
40
0.88527131782945034
40
0.88682170542634953
40
0.88837209302324871
40
0.88992248062014789
40
0.89147286821704708
40
0.89302325581394626
40
0.89457364341084544
40
0.89612403100774463
40
0.89767441860464381
40
0.89922480620154299
40
0.90077519379844218
40
0.90232558139534136
40
0.90387596899224054
40
0.90542635658913972
40
0.90697674418603891
40
0.90852713178293809
40
0.91007751937983727
40
0.91162790697673646
40
0.91317829457363564
40
0.91472868217053482
40
0.91627906976743401
40
0.91782945736433319
40
0.91937984496123237
40
0.92093023255813156
40
0.92248062015503074
40
0.92403100775192992
40
0.92558139534882911
40
0.92713178294572829
40
0.92868217054262747
40
0.93023255813952666
40
0.93178294573642584
40
0.93333333333332502
40
0.9348837209302242
40
0.93643410852712339
40
0.93798449612402257
40
0.93953488372092175
40
0.94108527131782094
40
0.94263565891472012
40
0.9441860465116193
40
0.94573643410851849
40
0.94728682170541767
40
0.94883720930231685
40
0.95038759689921604
40
0.95193798449611522
40
0.9534883720930144
40
0.95503875968991359
40
0.95658914728681277
40
0.95813953488371195
40
0.95968992248061114
40
0.96124031007751032
40
0.9627906976744095
40
0.96434108527130868
40
0.96589147286820787
40
0.96744186046510705
40
0.96899224806200623
40
0.97054263565890542
40
0.9720930232558046
40
0.97364341085270378
40
0.97519379844960297
40
0.97674418604650215
40
0.97829457364340133
40
0.97984496124030052
40
0.9813953488371997
40
0.98294573643409888
40
0.98449612403099807
40
0.98604651162789725
40
0.98759689922479643
40
0.98914728682169561
40
0.9906976744185948
40
0.99224806201549398
40
0.99379844961239316
40
0.99534883720929235
40
0.99689922480619153
40
0.99844961240309071
40
1
40
1
40
1
40
1
40
1
40
1
41
1
41
1
41
1
41
1
41
1
41
1
41
1
41
1
41
1
41
1
41
1
41
1
41
1
41
1
41
1
41
1
41
1
41
1
41
1
41
1
41
1
41
1
41
1
41
1
41
1
41
1
41
1
41
1
41
1
41
1
41
1
41
1
41
1
41
1
41
1
41
1
41
1
41
1
41
1
41
1
41
1
41
1
41
1
41
1
41
1
41
1
41
1
41
1
41
1
41
1
41
1
41
1
41
1
41
1
41
1
41
1
41
1
41
1
41
1
41
1
41
1
41
1
41
1
41
1
41
1
41
1
41
1
41
1
41
1
41
1
41
1
41
1
41
1
41
1
41
1
41
1
41
1
41
1
41
1
41
1
41
1
41
1
41
1
41
1
41
1
41
1
41
1
41
1
41
1
41
1
41
1
41
1
41
1
41
1
41
1
41
1
41
1
41
1
41
1
41
1
41
1
41
1
41
1
41
1
41
1
41
1
41
1
41
1
41
1
41
1
41
1
41
1
41
1
41
1
41
1
41
1
41
1
41
1
41
1
41
1
41
1
41
1
41
1
41
1
41
1
41
1
41
1
41
1
41
1
41
1
41
1
41
1
41
1
41
1
41
1
41
1
41
1
41
1
41
1
41
1
41
1
41
1
41
1
41
1
41
1
41
1
41
1
41
1
41
1
41
1
41
1
41
1
41
1
41
1
41
1
41
1
41
1
41
1
41
1
41
1
41
1
41
1
41
1
41
1
41
1
41
1
41
1
41
1
41
1
41
1
41
1
41
1
41
1
41
1
41
1
41
1
41
1
41
1
41
1
41
1
41
1
41
1
41
1
41
1
41
1
41
1
41
1
41
1
41
1
41
1
41
1
41
1
41
1
41
1
41
1
41
1
41
1
41
1
41
1
41
1
41
1
41
1
41
1
41
1
41
1
41
1
41
1
41
1
41
1
41
1
41
1
41
1
41
1
41
1
41
1
41
1
41
1
41
1
41
1
41
1
41
1
41
1
41
1
41
1
41
1
41
1
41
1
41
1
41
1
41
1
41
1
41
1
41
1
41
1
41
1
41
1
41
1
41
1
41
1
41
1
41
1
41
1
41
1
41
1
41
1
41
1
41
1
41
1
41
1
41
1
41
1
41
1
41
1
41
1
41
1
41
1
41
1
41
1
41
1
41
1
41
1
41
1
41
1
41
1
41
1
41
1
41
1
41
1
41
1
41
1
41
1
41
1
41
1
41
1
41
1
41
1
41
1
41
1
41
1
41
1
41
1
41
1
41
1
41
1
41
1
41
1
41
1
41
1
41
1
41
1
41
1
41
1
41
1
41
1
41
1
41
1
41
1
41
1
41
1
41
1
41
1
41
1
41
1
41
1
41
1
41
1
41
1
41
1
41
1
41
1
41
1
41
1
41
1
41
1
41
1
41
1
41
1
41
1
41
1
41
1
41
1
41
1
41
1
41
1
41
1
41
1
41
1
41
1
41
1
41
1
41
1
41
1
41
1
41
1
41
1
41
1
41
1
41
1
41
1
41
1
41
1
41
1
41
1
41
1
41
1
41
1
41
1
41
1
41
1
41
1
41
1
41
1
41
1
41
1
41
1
41
1
41
1
41
1
41
1
41
1
41
1
41
1
41
1
41
1
41
1
41
1
41
1
41
1
41
1
41
1
41
1
41
1
41
1
41
1
41
1
41
1
41
1
41
1
41
1
41
1
41
1
41
1
41
1
41
1
41
1
41
1
41
1
41
1
41
1
41
1
41
1
41
1
41
1
41
1
41
1
41
1
41
1
41
1
41
1
41
1
41
1
41
1
41
1
41
1
41
1
41
1
41
1
41
1
41
1
41
1
41
1
41
1
41
1
41
1
41
1
41
1
41
1
41
1
41
1
41
1
41
1
41
1
41
1
41
1
41
1
41
1
41
1
41
1
41
1
41
1
41
1
41
1
41
1
41
1
41
1
41
1
41
1
41
1
41
1
41
1
41
1
41
1
41
1
41
1
41
1
41
1
41
1
41
1
41
1
41
1
41
1
41
1
41
1
41
1
41
1
41
1
41
1
41
1
41
1
41
1
41
1
41
1
41
1
41
1
41
1
41
1
41
1
41
1
41
1
41
1
41
1
41
1
41
1
41
1
41
1
41
1
41
1
41
1
41
1
41
1
41
1
41
1
41
1
41
1
41
1
41
1
41
1
41
1
41
1
41
1
41
1
41
1
41
1
41
1
41
1
41
1
41
1
41
1
41
1
41
1
41
1
41
1
41
1
41
1
41
1
41
1
41
1
41
1
41
1
41
1
41
1
41
1
41
1
41
1
41
1
41
1
41
1
41
1
41
1
41
1
41
1
41
1
41
1
41
1
41
1
41
1
41
1
41
1
41
1
41
1
41
1
41
1
41
1
41
1
41
1
41
1
41
1
41
1
41
1
41
1
41
1
41
1
41
1
41
1
41
1
41
1
41
1
41
1
41
1
41
1
41
1
41
1
41
1
41
1
41
1
41
1
41
1
41
1
41
1
41
1
41
1
41
1
41
1
41
1
41
1
41
1
41
1
41
1
41
1
41
1
41
1
41
1
41
1
41
1
41
1
41
1
41
1
41
1
41
1
41
1
41
1
41
1
41
1
41
1
41
1
41
1
41
1
41
1
41
1
41
1
41
1
41
1
41
1
41
1
41
1
41
1
41
1
41
1
41
1
41
1
41
1
41
1
41
1
41
1
41
1
41
1
41
1
41
1
41
1
41
1
41
1
41
1
41
1
41
1
41
1
41
1
41
1
41
1
41
1
41
1
41
1
41
1
41
1
41
1
41
1
41
1
41
1
41
1
41
1
41
1
41
1
41
1
41
1
41
1
41
1
41
1
41
1
41
1
41
1
41
1
41
1
41
1
41
1
41
1
41
1
41
1
41
1
41
1
41
1
41
1
10
47.988600000000005
20
-77.941000000000017
30
0
10
47.907499744760322
20
-77.966739899056734
30
0
10
47.739537598604997
20
-78.018778772088183
30
0
10
47.469100456854562
20
-78.099016096393953
30
0
10
47.070330629657853
20
-78.21049030734153
30
0
10
46.519313269383304
20
-78.35156895266033
30
0
10
45.93665680918572
20
-78.486024864943644
30
0
10
45.348912294729338
20
-78.60620438450519
30
0
10
44.784054562795347
20
-78.708757316338648
30
0
10
44.266060104177711
20
-78.793223915594524
30
0
10
43.809052569661247
20
-78.860250968282216
30
0
10
43.412283091134938
20
-78.910063844469903
30
0
10
43.053008380698572
20
-78.940515221669827
30
0
10
42.700495175662837
20
-78.94901761222394
30
0
10
42.332854884390258
20
-78.935028921421861
30
0
10
41.952945795809228
20
-78.902276694535914
30
0
10
41.574951509129299
20
-78.854256507918436
30
0
10
41.20922686400408
20
-78.788798207210704
30
0
10
40.850703567437883
20
-78.694870247229389
30
0
10
40.491572675872249
20
-78.562801787359462
30
0
10
40.134924391219116
20
-78.396463224268075
30
0
10
39.800380488085111
20
-78.216830789205687
30
0
10
39.503978346396117
20
-78.040196664367926
30
0
10
39.235981639498249
20
-77.853124884021582
30
0
10
38.95748175626197
20
-77.609756456224389
30
0
10
38.632775177655972
20
-77.270423087696912
30
0
10
38.261514063859408
20
-76.840754076881396
30
0
10
37.884765791820975
20
-76.377761877706106
30
0
10
37.551679709065183
20
-75.946255969289808
30
0
10
37.300040185281688
20
-75.59331164458824
30
0
10
37.123245549552315
20
-75.304119389916181
30
0
10
36.969979657091557
20
-75.003961871418198
30
0
10
36.785023353645066
20
-74.617808312427655
30
0
10
36.549187875798864
20
-74.130057195748577
30
0
10
36.287415476398408
20
-73.593853351325507
30
0
10
36.039104727217605
20
-73.08116170168482
30
0
10
35.841455727267821
20
-72.653798049060867
30
0
10
35.702042377660057
20
-72.31602083183941
30
0
10
35.595668422866289
20
-72.010641365012262
30
0
10
35.486205828425661
20
-71.660349382556234
30
0
10
35.345542794241894
20
-71.204110688983036
30
0
10
35.160448265656768
20
-70.610219172599898
30
0
10
34.926965057730506
20
-69.865604300024714
30
0
10
34.648595920837309
20
-68.972347272088243
30
0
10
34.332867275131889
20
-67.941113692702444
30
0
10
33.988711233390973
20
-66.786143641467334
30
0
10
33.623173583591786
20
-65.518954111742985
30
0
10
33.241263526311023
20
-64.148065455626423
30
0
10
32.846341159840293
20
-62.679760273404092
30
0
10
32.440323133604402
20
-61.11849312415216
30
0
10
32.023964427074176
20
-59.467446437658651
30
0
10
31.597107438889189
20
-57.729023674826962
30
0
10
31.158945091572036
20
-55.905369375488789
30
0
10
30.708277980684947
20
-53.998877875233632
30
0
10
30.243773868457524
20
-52.012706316045538
30
0
10
29.764226656693666
20
-49.95128718111193
30
0
10
29.268814441376421
20
-47.820837888560412
30
0
10
28.757360623857487
20
-45.629879031144682
30
0
10
28.230587531660039
20
-43.389731811913279
30
0
10
27.690387994656987
20
-41.115065218407779
30
0
10
27.140046798120046
20
-38.824304439185497
30
0
10
26.583936237365133
20
-36.538583591429081
30
0
10
26.027251538306217
20
-34.280808777420006
30
0
10
25.475731129174804
20
-32.074679238270697
30
0
10
24.935383332388163
20
-29.94372618994403
30
0
10
24.41221036521447
20
-27.910344385205363
30
0
10
23.911933352731744
20
-25.99482603282668
30
0
10
23.439717244368058
20
-24.214395436595272
30
0
10
22.999894967868396
20
-22.582239177840385
30
0
10
22.59569374796866
20
-21.106547675483132
30
0
10
22.228956181562879
20
-19.789529653851268
30
0
10
21.899873523150568
20
-18.626489545968415
30
0
10
21.606690492918833
20
-17.604758245114752
30
0
10
21.345476834889876
20
-16.702967662034037
30
0
10
21.109728317996765
20
-15.889446336484012
30
0
10
20.891061331482916
20
-15.126274572178023
30
0
10
20.680210724168191
20
-14.374943788276472
30
0
10
20.467913712384245
20
-13.601352601292376
30
0
10
20.245867120889692
20
-12.781351372174113
30
0
10
20.007593700377516
20
-11.90542342217482
30
0
10
19.749492134883571
20
-10.985264760196694
30
0
10
19.47131211047369
20
-10.054309083295268
30
0
10
19.175614742442967
20
-9.1575347191274155
30
0
10
18.867458425326227
20
-8.3436461893212499
30
0
10
18.553996512448535
20
-7.6563436008903762
30
0
10
18.244107638103547
20
-7.1258876040628847
30
0
10
17.948020612600018
20
-6.7607603069555964
30
0
10
17.676995980065254
20
-6.5386588145950721
30
0
10
17.428275265460439
20
-6.420261299210904
30
0
10
17.166389395470535
20
-6.3645666401461165
30
0
10
16.812850236013738
20
-6.3421539732201033
30
0
10
16.29186944263256
20
-6.3334825748214154
30
0
10
15.577336579526939
20
-6.3287535676293842
30
0
10
14.722347949818426
20
-6.3264322245228808
30
0
10
13.820470459598702
20
-6.3287625942014589
30
0
10
12.979610918780978
20
-6.3380005145653184
30
0
10
12.288459372205393
20
-6.3517857244483746
30
0
10
11.791747828159313
20
-6.3602168392811533
30
0
10
11.447842285385576
20
-6.3389185184781702
30
0
10
11.147224747516891
20
-6.256249917433073
30
0
10
10.781542664108647
20
-6.0913715948223093
30
0
10
10.313893973756405
20
-5.8543710402231124
30
0
10
9.7817272886830207
20
-5.5829797110471873
30
0
10
9.2511404182722696
20
-5.322681840287661
30
0
10
8.7892583095228858
20
-5.1137770107447666
30
0
10
8.4221627042137879
20
-4.9712779605483792
30
0
10
8.1286212155120943
20
-4.885828645051717
30
0
10
7.8587018784007778
20
-4.8386939981103634
30
0
10
7.5452615150369207
20
-4.8149247126620915
30
0
10
7.1185279399549453
20
-4.8062998344440198
30
0
10
6.5184862808612909
20
-4.8081315682344847
30
0
10
5.7101149012802885
20
-4.8179373293294283
30
0
10
4.682596771877324
20
-4.8345755561967234
30
0
10
3.4448420379987561
20
-4.8580691998098811
30
0
10
2.022261642550081
20
-4.8891621714154585
30
0
10
0.45301518159581933
20
-4.9289882107235981
30
0
10
-1.2155109239562836
20
-4.9786945645189364
30
0
10
-2.9303342682216558
20
-5.0390777946426857
30
0
10
-4.6364369254975841
20
-5.1102313795374679
30
0
10
-6.2804103723747362
20
-5.1911486753103393
30
0
10
-7.8139373639537428
20
-5.2794374890064191
30
0
10
-9.1976567305074273
20
-5.3707592393290993
30
0
10
-10.403654665615111
20
-5.4592479853670985
30
0
10
-11.416286045894019
20
-5.5390079406713655
30
0
10
-12.233586432233508
20
-5.6053782581240146
30
0
10
-12.868110729607732
20
-5.6561867230339846
30
0
10
-13.348782984587935
20
-5.6932515405833684
30
0
10
-13.720526844276854
20
-5.7232091414934869
30
0
10
-14.049200702882754
20
-5.7600159847153805
30
0
10
-14.408865371685526
20
-5.8218041881885965
30
0
10
-14.853042387531858
20
-5.9223790367170466
30
0
10
-15.38148944897512
20
-6.0616834452119388
30
0
10
-15.943672759798487
20
-6.2264140757213804
30
0
10
-16.474930931900822
20
-6.3996458444479796
30
0
10
-16.91944480229056
20
-6.5670436088220967
30
0
10
-17.266973134639155
20
-6.7262506890159637
30
0
10
-17.55163262118603
20
-6.8879688636545282
30
0
10
-17.819168990936443
20
-7.069476842123894
30
0
10
-18.096623500840142
20
-7.2900869610309069
30
0
10
-18.387598277309465
20
-7.5663699841360916
30
0
10
-18.685996438676288
20
-7.9087342495555593
30
0
10
-18.98535773342693
20
-8.3164091339847275
30
0
10
-19.281592038153658
20
-8.7799810670519722
30
0
10
-19.571546027125617
20
-9.2865717565743662
30
0
10
-19.853088744322555
20
-9.8238191852863181
30
0
10
-20.124471779962782
20
-10.385160345150641
30
0
10
-20.384449537264061
20
-10.970288348919624
30
0
10
-20.632501336622667
20
-11.583513329047857
30
0
10
-20.869051076223464
20
-12.232779955787475
30
0
10
-21.095649617696594
20
-12.928416583662214
30
0
10
-21.31526872887315
20
-13.681988952319688
30
0
10
-21.531994827622643
20
-14.505171382694165
30
0
10
-21.750485103483015
20
-15.408668929096914
30
0
10
-21.975499529359009
20
-16.401116650720038
30
0
10
-22.211404019812772
20
-17.487997454709433
30
0
10
-22.461679555291848
20
-18.670531293631459
30
0
10
-22.728443648993334
20
-19.944624617721033
30
0
10
-23.011930898105341
20
-21.299679376605177
30
0
10
-23.310095253457469
20
-22.71779723833934
30
0
10
-23.61912729675165
20
-24.175923525787525
30
0
10
-23.933881380154467
20
-25.6477026483558
30
0
10
-24.248337036541514
20
-27.105442114721217
30
0
10
-24.556046488654527
20
-28.522035025283905
30
0
10
-24.850586523394771
20
-29.872889548078131
30
0
10
-25.126012208174956
20
-31.137880664865222
30
0
10
-25.377301171923655
20
-32.303233758442943
30
0
10
-25.600822072578669
20
-33.363573999263025
30
0
10
-25.794745361980041
20
-34.323583697261711
30
0
10
-25.959602795436322
20
-35.200668664193437
30
0
10
-26.097801398342323
20
-36.020527060019674
30
0
10
-26.212874619926126
20
-36.81092525195784
30
0
10
-26.308852289974812
20
-37.596299246540646
30
0
10
-26.389516109039338
20
-38.391534934458413
30
0
10
-26.457854331044683
20
-39.197203185379934
30
0
10
-26.515066468537011
20
-39.991487858882081
30
0
10
-26.561003454817751
20
-40.732786520844179
30
0
10
-26.596562665210598
20
-41.377914517436324
30
0
10
-26.626043821926899
20
-41.898450614565199
30
0
10
-26.658629333739967
20
-42.294029545102305
30
0
10
-26.712377573794662
20
-42.616073865163948
30
0
10
-26.809779089172142
20
-42.955325467628036
30
0
10
-26.964377220869245
20
-43.388333308243674
30
0
10
-27.165458945791666
20
-43.919765177637125
30
0
10
-27.379609214319625
20
-44.482042287300558
30
0
10
-27.569347916876346
20
-44.994728229796067
30
0
10
-27.704862098091031
20
-45.399428843606898
30
0
10
-27.783209962063697
20
-45.721587786510256
30
0
10
-27.827128598989688
20
-46.058709061416351
30
0
10
-27.865018476995203
20
-46.503166537744278
30
0
10
-27.911850655403917
20
-47.063761741318942
30
0
10
-27.966597070249406
20
-47.665691166906107
30
0
10
-28.024088938341141
20
-48.216756585152936
30
0
10
-28.08118529507076
20
-48.646432635650996
30
0
10
-28.148280606289799
20
-48.972539276341237
30
0
10
-28.246673126359163
20
-49.290838172057654
30
0
10
-28.395878106039319
20
-49.707926437448805
30
0
10
-28.601237561551045
20
-50.277869403462184
30
0
10
-28.852934145169545
20
-50.992883779958376
30
0
10
-29.1323467517384
20
-51.809831433973692
30
0
10
-29.416036279864237
20
-52.665113000112534
30
0
10
-29.680779506306617
20
-53.49468400545598
30
0
10
-29.908008242908171
20
-54.251187824286681
30
0
10
-30.0888942654678
20
-54.92416954484203
30
0
10
-30.223071373468638
20
-55.530386684813479
30
0
10
-30.316805076072676
20
-56.101607925768427
30
0
10
-30.381362241021918
20
-56.673177023802452
30
0
10
-30.431287438442837
20
-57.272540131137042
30
0
10
-30.482743873918064
20
-57.907017010142596
30
0
10
-30.551308015449372
20
-58.569285374591765
30
0
10
-30.649750309246855
20
-59.243941272280935
30
0
10
-30.7857986247475
20
-59.913707688465081
30
0
10
-30.959959038030853
20
-60.565697733058599
30
0
10
-31.163175029236388
20
-61.197911566236847
30
0
10
-31.380385489636595
20
-61.814656272553385
30
0
10
-31.594259019931496
20
-62.421617290782564
30
0
10
-31.788863803213438
20
-63.021064736025025
30
0
10
-31.953364007737729
20
-63.606988737879377
30
0
10
-32.085707342020875
20
-64.16029490756577
30
0
10
-32.190224418241286
20
-64.661533189008424
30
0
10
-32.275204379676076
20
-65.103938563101536
30
0
10
-32.350510884792236
20
-65.50577831382607
30
0
10
-32.42509912512643
20
-65.924534153531283
30
0
10
-32.506242565081898
20
-66.435280330826345
30
0
10
-32.598833548423471
20
-67.106147148743744
30
0
10
-32.704722918428025
20
-67.97609994751086
30
0
10
-32.821873536120101
20
-69.028493495052714
30
0
10
-32.945529839178398
20
-70.203674876670291
30
0
10
-33.069651199854619
20
-71.41666725613176
30
0
10
-33.188276796434067
20
-72.573298436678314
30
0
10
-33.296863128581357
20
-73.586452254021111
30
0
10
-33.393763315856447
20
-74.393497175894069
30
0
10
-33.481342560652784
20
-74.970343390971308
30
0
10
-33.567977432637889
20
-75.353835415198944
30
0
10
-33.667419455301555
20
-75.639104811920561
30
0
10
-33.792891322823081
20
-75.925231186632487
30
0
10
-33.950655204895241
20
-76.257904660648833
30
0
10
-34.138602853141464
20
-76.613982037843485
30
0
10
-34.351993111374306
20
-76.949511207570239
30
0
10
-34.588937760099434
20
-77.241053031222904
30
0
10
-34.850560851277869
20
-77.496581305930604
30
0
10
-35.136612511425973
20
-77.732562414184059
30
0
10
-35.440462508255209
20
-77.957526865647708
30
0
10
-35.752875639240067
20
-78.168749588180617
30
0
10
-36.069340154853137
20
-78.359663264343823
30
0
10
-36.399388938439103
20
-78.524291092737187
30
0
10
-36.755824503538975
20
-78.659159809051488
30
0
10
-37.139356391047691
20
-78.763289381266674
30
0
10
-37.521229152331728
20
-78.839073117825777
30
0
10
-37.869861209487439
20
-78.890574625610782
30
0
10
-38.183585029168249
20
-78.921660809698821
30
0
10
-38.520764804951774
20
-78.934196238450738
30
0
10
-38.96087576480123
20
-78.929032226645987
30
0
10
-39.562968625758963
20
-78.907063012607225
30
0
10
-40.330775734335418
20
-78.870104890770136
30
0
10
-41.230549752991472
20
-78.82036874792712
30
0
10
-42.204208134877817
20
-78.760053034620228
30
0
10
-43.18398990574255
20
-78.690908218125543
30
0
10
-44.107113413260926
20
-78.6137734021722
30
0
10
-44.928926167297725
20
-78.52821838045034
30
0
10
-45.640557054545113
20
-78.431901811945735
30
0
10
-46.262561092648284
20
-78.321402389410721
30
0
10
-46.829334227610417
20
-78.19358029997008
30
0
10
-47.375899261218642
20
-78.046863467128802
30
0
10
-47.92509925575844
20
-77.882348387216084
30
0
10
-48.471025892897202
20
-77.705541099349603
30
0
10
-48.987245750911903
20
-77.524097162992661
30
0
10
-49.444923724184939
20
-77.343784890344352
30
0
10
-49.825433013276125
20
-77.16574411652536
30
0
10
-50.14067650252386
20
-76.981493556540912
30
0
10
-50.422323262257976
20
-76.777583836959309
30
0
10
-50.699409746307538
20
-76.54363839963284
30
0
10
-50.97519312714563
20
-76.281236213883176
30
0
10
-51.235748603530915
20
-75.998918778166853
30
0
10
-51.466859427739074
20
-75.7038525587528
30
0
10
-51.669536413103344
20
-75.393709014802909
30
0
10
-51.852369145369288
20
-75.063602482299231
30
0
10
-52.02082666027966
20
-74.71506858613877
30
0
10
-52.16825681154323
20
-74.363475299276004
30
0
10
-52.28485917334595
20
-74.023164889364224
30
0
10
-52.367380313518701
20
-73.69104675800746
30
0
10
-52.426148695843452
20
-73.335600197898899
30
0
10
-52.476258740754659
20
-72.917248539824712
30
0
10
-52.52957151872225
20
-72.407644085295289
30
0
10
-52.589028088778036
20
-71.802720731606584
30
0
10
-52.652105703570811
20
-71.112823416428554
30
0
10
-52.712627819464764
20
-70.356863724683677
30
0
10
-52.763131237075356
20
-69.555251785721381
30
0
10
-52.797226016116731
20
-68.722461657288292
30
0
10
-52.811214193921572
20
-67.862621053018771
30
0
10
-52.803458671801863
20
-66.973671518217742
30
0
10
-52.774194819986143
20
-66.049881981353664
30
0
10
-52.725164900007819
20
-65.08497242260718
30
0
10
-52.659330002881717
20
-64.075079936089224
30
0
10
-52.580544440006392
20
-63.02155299134423
30
0
10
-52.493256496849057
20
-61.934397293475456
30
0
10
-52.402165170407059
20
-60.833599814549956
30
0
10
-52.311768231126557
20
-59.744376444181668
30
0
10
-52.22593336598986
20
-58.693548332065681
30
0
10
-52.147451804909686
20
-57.705420066431692
30
0
10
-52.077618648915298
20
-56.79798886112826
30
0
10
-52.015757030845471
20
-55.978736415330076
30
0
10
-51.958871157231428
20
-55.241244843903075
30
0
10
-51.900976638821
20
-54.559813300076712
30
0
10
-51.83404551371212
20
-53.894014775282429
30
0
10
-51.749656132913444
20
-53.197580797617391
30
0
10
-51.640410241697658
20
-52.425867478385797
30
0
10
-51.501462574421566
20
-51.543984439254764
30
0
10
-51.331965548206384
20
-50.534469263848045
30
0
10
-51.136650604310773
20
-49.405622077303562
30
0
10
-50.924402878630744
20
-48.185898683212613
30
0
10
-50.706700671257622
20
-46.917687690577424
30
0
10
-50.496111551518865
20
-45.651335326455595
30
0
10
-50.304747732564799
20
-44.439011776959035
30
0
10
-50.14277787423589
20
-43.328770594804588
30
0
10
-50.016824160366383
20
-42.358234846829589
30
0
10
-49.928619706070769
20
-41.549120835322128
30
0
10
-49.87304009354331
20
-40.899752886224867
30
0
10
-49.838176106943159
20
-40.384119813923547
30
0
10
-49.809399792204012
20
-39.963649477232835
30
0
10
-49.772281160932209
20
-39.595410189695613
30
0
10
-49.716559972834418
20
-39.243444076549572
30
0
10
-49.637796965676188
20
-38.883431881097238
30
0
10
-49.534093478705081
20
-38.493566936435023
30
0
10
-49.403275974523275
20
-38.046424267671512
30
0
10
-49.241415628840628
20
-37.505654015998758
30
0
10
-49.044034406203579
20
-36.831820841612959
30
0
10
-48.806621610490922
20
-35.985887262119512
30
0
10
-48.525455579588773
20
-34.933795992160974
30
0
10
-48.19823769814532
20
-33.650253871524761
30
0
10
-47.824952197056348
20
-32.12369306528521
30
0
10
-47.4078550220691
20
-30.356277540351797
30
0
10
-46.951077776907184
20
-28.361674358824722
30
0
10
-46.460352724993463
20
-26.16353054239497
30
0
10
-45.942687552843573
20
-23.793656992616775
30
0
10
-45.40606170728239
20
-21.290338229401485
30
0
10
-44.859113466211582
20
-18.696588098336871
30
0
10
-44.310831008597958
20
-16.058428816536889
30
0
10
-43.770241777388421
20
-13.423160060162671
30
0
10
-43.246102562409433
20
-10.837632297275537
30
0
10
-42.74658931038941
20
-8.3465184628749345
30
0
10
-42.278986951113147
20
-5.9905859275621411
30
0
10
-41.849379419582611
20
-3.804969194014054
30
0
10
-41.462339072634229
20
-1.817440077908965
30
0
10
-41.120617509749678
20
-0.046683772679367706
30
0
10
-40.824833044061599
20
1.4994392014700941
30
0
10
-40.57316600795761
20
2.8255980780143202
30
0
10
-40.361032973733458
20
3.9507858027223604
30
0
10
-40.181956932332653
20
4.9050541238849696
30
0
10
-40.028458546038877
20
5.7261576726379193
30
0
10
-39.892941269444499
20
6.4562284110875803
30
0
10
-39.768575335985631
20
7.1384447382409411
30
0
10
-39.650190873979497
20
7.8136857169098999
30
0
10
-39.535146711407108
20
8.5172323621597048
30
0
10
-39.424265434384239
20
9.2753373517285969
30
0
10
-39.32087164362764
20
10.105596804366455
30
0
10
-39.229758293126658
20
11.017470082130314
30
0
10
-39.156176833470447
20
12.012743090052247
30
0
10
-39.104822996873658
20
13.086020359223427
30
0
10
-39.078811245188966
20
14.225193006597676
30
0
10
-39.078685268092357
20
15.411944434011954
30
0
10
-39.101328143171514
20
16.622164949077138
30
0
10
-39.140872658732725
20
17.82813765380218
30
0
10
-39.189731949862825
20
19.0008326917627
30
0
10
-39.239581859116889
20
20.112153575766165
30
0
10
-39.282373912686282
20
21.137223054282309
30
0
10
-39.311311460728994
20
22.056607400150064
30
0
10
-39.321896746167276
20
22.858671041212236
30
0
10
-39.312817648352734
20
23.541630862489647
30
0
10
-39.287250503105234
20
24.116385677337554
30
0
10
-39.250522894482572
20
24.60294536588572
30
0
10
-39.206856214801448
20
25.025600553395769
30
0
10
-39.156895107458197
20
25.408687898124938
30
0
10
-39.093746648756699
20
25.771708050959546
30
0
10
-39.00748648919177
20
26.127644821434899
30
0
10
-38.891507681900485
20
26.482344314674158
30
0
10
-38.74924900709145
20
26.83308956902609
30
0
10
-38.587900542968981
20
27.173321715992689
30
0
10
-38.410224133393719
20
27.498104476464
30
0
10
-38.207454838929294
20
27.809134637190422
30
0
10
-37.970228560854629
20
28.109223155502974
30
0
10
-37.701550954639536
20
28.395862348614237
30
0
10
-37.424266457813744
20
28.657314576991357
30
0
10
-37.157791119570888
20
28.883326267437489
30
0
10
-36.891895256969541
20
29.076892451414025
30
0
10
-36.577276472939054
20
29.259098148307334
30
0
10
-36.167182674880024
20
29.452680854545363
30
0
10
-35.658660000090862
20
29.665751973626641
30
0
10
-35.108484850748319
20
29.886120106232941
30
0
10
-34.592351497183664
20
30.099745302758926
30
0
10
-34.179530412526006
20
30.302190668082897
30
0
10
-33.895562398979891
20
30.516269139069486
30
0
10
-33.708200176759256
20
30.796412406617986
30
0
10
-33.560145173758741
20
31.206087028629842
30
0
10
-33.397095771776598
20
31.797192304212366
30
0
10
-33.183734262541059
20
32.599189119201839
30
0
10
-32.897599612202363
20
33.624678705316612
30
0
10
-32.528769956491757
20
34.870703637828939
30
0
10
-32.077172776101555
20
36.321792996548922
30
0
10
-31.550911243129491
20
37.952260405259175
30
0
10
-30.964153205178739
20
39.728823641167203
30
0
10
-30.33520907569358
20
41.613085088393234
30
0
10
-29.684527335808831
20
43.564073316416966
30
0
10
-29.032728181318813
20
45.540755248015827
30
0
10
-28.398614650990439
20
47.504568039956823
30
0
10
-27.797207883088348
20
49.421925789424222
30
0
10
-27.237732121816794
20
51.266783191353852
30
0
10
-26.724475513971054
20
53.019872984347664
30
0
10
-26.257699762610866
20
54.667886611594845
30
0
10
-25.834532081037231
20
56.202675608428834
30
0
10
-25.449863820434008
20
57.620444916848683
30
0
10
-25.0972479464861
20
58.920948337337663
30
0
10
-24.769792899312822
20
60.106686397807032
30
0
10
-24.461067486078093
20
61.182095629717843
30
0
10
-24.165978988731101
20
62.152759239657698
30
0
10
-23.881714081064878
20
63.02456751877753
30
0
10
-23.608531909932076
20
63.802996707301091
30
0
10
-23.350942770116411
20
64.492079248442906
30
0
10
-23.114589539160107
20
65.096792164182972
30
0
10
-22.902694542239669
20
65.625777364898241
30
0
10
-22.712548317445812
20
66.09405936730289
30
0
10
-22.532238654779022
20
66.525499845814551
30
0
10
-22.336571492462063
20
66.95608933244516
30
0
10
-22.096678028911079
20
67.423005540875266
30
0
10
-21.791227596296107
20
67.951931528693862
30
0
10
-21.416128537676379
20
68.54610961229767
30
0
10
-20.997255866755886
20
69.1718249585834
30
0
10
-20.577603053394299
20
69.77425600543809
30
0
10
-20.200774759495765
20
70.297669819678788
30
0
10
-19.895173667711617
20
70.70480381596191
30
0
10
-19.659232255355008
20
70.994977351715548
30
0
10
-19.442638482301209
20
71.227039075177728
30
0
10
-19.174607100151352
20
71.485578058226153
30
0
10
-18.797848011946584
20
71.840268446142474
30
0
10
-18.300470318881352
20
72.307696381034759
30
0
10
-17.70414371340086
20
72.865652224417119
30
0
10
-17.05207051764215
20
73.467617043605586
30
0
10
-16.396824062287195
20
74.057490215076115
30
0
10
-15.788755694164704
20
74.583444831417808
30
0
10
-15.262927169574585
20
75.014009879813315
30
0
10
-14.830550553254904
20
75.347314488542906
30
0
10
-14.48303888305545
20
75.600335664051883
30
0
10
-14.194298545115887
20
75.801805114611639
30
0
10
-13.922659804430594
20
75.983476052290811
30
0
10
-13.615980347158771
20
76.172722825866387
30
0
10
-13.228108963618407
20
76.389200155463783
30
0
10
-12.736692120038688
20
76.639990403131847
30
0
10
-12.151613391296618
20
76.918242318170741
30
0
10
-11.500961579172117
20
77.208985066874746
30
0
10
-10.821264083218889
20
77.493657270120394
30
0
10
-10.146800593826288
20
77.754816906616981
30
0
10
-9.4974348540500078
20
77.98156345235553
30
0
10
-8.8733891241071188
20
78.171995490814638
30
0
10
-8.2639957543353955
20
78.32975487088153
30
0
10
-7.6536678240150398
20
78.461788561854632
30
0
10
-7.0284064133385735
20
78.575772070922312
30
0
10
-6.3834672416494804
20
78.677317987827422
30
0
10
-5.725744343833048
20
78.768523611344222
30
0
10
-5.0670288668955177
20
78.848990195289701
30
0
10
-4.4190526567490371
20
78.916254893363472
30
0
10
-3.7884935680615754
20
78.966490932288522
30
0
10
-3.1703574309403271
20
78.995017430933771
30
0
10
-2.5478511634424956
20
78.997150345911507
30
0
10
-1.9017105671584678
20
78.969387419123692
30
0
10
-1.217810067755851
20
78.910630332055177
30
0
10
-0.4942594841372232
20
78.823146920899006
30
0
10
0.248359063354054
20
78.714236323996786
30
0
10
0.9687212372891707
20
78.595443976228268
30
0
10
1.621406216178864
20
78.478793642711736
30
0
10
2.1710106696027602
20
78.373490338591338
30
0
10
2.6046547328623344
20
78.283031167176262
30
0
10
2.951562649744746
20
78.20068992785211
30
0
10
3.2759897151509998
20
78.111075975424043
30
0
10
3.6437684871573763
20
77.997749442591044
30
0
10
4.0890481918771631
20
77.850696502217701
30
0
10
4.6089636914658536
20
77.667840157104095
30
0
10
5.1820489753895282
20
77.451455686189078
30
0
10
5.7784792443893309
20
77.206299390142718
30
0
10
6.3759924365311385
20
76.936634611050025
30
0
10
6.9641145408588834
20
76.645317275417781
30
0
10
7.5394413999184362
20
76.334391503435185
30
0
10
8.103205475156452
20
76.005300963782958
30
0
10
8.6581600999981774
20
75.659219713526255
30
0
10
9.2051434006493658
20
75.2974226041012
30
0
10
9.7423664697729766
20
74.92125905530186
30
0
10
10.267070805935743
20
74.531793107275007
30
0
10
10.776572799253243
20
74.129505543826809
30
0
10
11.269393386919905
20
73.714047897793932
30
0
10
11.746765593350617
20
73.283782412640335
30
0
10
12.212154427595348
20
72.836256351256694
30
0
10
12.669380688677901
20
72.369303437386847
30
0
10
13.121048100779497
20
71.882027145488621
30
0
10
13.567089633631879
20
71.37568509709925
30
0
10
14.00265415314604
20
70.854983724555936
30
0
10
14.4191017452917
20
70.327481773686458
30
0
10
14.806878170922424
20
69.801830330139808
30
0
10
15.157958138381247
20
69.286321989516793
30
0
10
15.468160422270669
20
68.787407873957534
30
0
10
15.740288679852871
20
68.307988604325914
30
0
10
15.983034054029623
20
67.846987003476443
30
0
10
16.207350444415887
20
67.399626750489318
30
0
10
16.423916099051219
20
66.957517768171158
30
0
10
16.639428445156138
20
66.508758702543133
30
0
10
16.856579861345075
20
66.038301738111826
30
0
10
17.076629833892209
20
65.528518920488835
30
0
10
17.301042519599587
20
64.959756421175371
30
0
10
17.533927925449898
20
64.310778313579362
30
0
10
17.782458798900542
20
63.559720747263313
30
0
10
18.055579451718092
20
62.685535676791858
30
0
10
18.363176047259355
20
61.669301757364714
30
0
10
18.715062249187397
20
60.495582820357079
30
0
10
19.120035254966151
20
59.153781846192082
30
0
10
19.584921681197748
20
57.639460224699697
30
0
10
20.113580961492286
20
55.955757391921843
30
0
10
20.70603639265823
20
54.114568013057145
30
0
10
21.357282171694983
20
52.138313867228838
30
0
10
22.057241688500735
20
50.059616031991432
30
0
10
22.792102108653435
20
47.918459971369771
30
0
10
23.545294574802405
20
45.760005965773622
30
0
10
24.29861850446208
20
43.632137331152563
30
0
10
25.033304045776127
20
41.583120752177159
30
0
10
25.731101433821312
20
39.659218803172067
30
0
10
26.375358063035563
20
37.902322070733959
30
0
10
26.952102507696011
20
36.347575009542787
30
0
10
27.451121787191926
20
35.020999205032666
30
0
10
27.867050430327147
20
33.937129665163731
30
0
10
28.200434021663835
20
33.096617321698588
30
0
10
28.458851468964145
20
32.483910990153767
30
0
10
28.657901513815148
20
32.064751205713556
30
0
10
28.82250334526578
20
31.784156984830211
30
0
10
28.987062456751282
20
31.579598706851812
30
0
10
29.197425431194624
20
31.394413861703597
30
0
10
29.507957742796492
20
31.189587864319467
30
0
10
29.957501999876634
20
30.943414557646495
30
0
10
30.542798967577227
20
30.653596424311509
30
0
10
31.206793205614606
20
30.335581223399259
30
0
10
31.868930791178517
20
30.012957177963415
30
0
10
32.449023542094345
20
29.708704777539161
30
0
10
32.890617340695506
20
29.437286827141357
30
0
10
33.191800603824547
20
29.19359911558476
30
0
10
33.409841219374243
20
28.952075775325426
30
0
10
33.6134350808411
20
28.685344760643837
30
0
10
33.834808247949525
20
28.383606759546556
30
0
10
34.056527761722471
20
28.058656369830533
30
0
10
34.248162441795678
20
27.726310069607649
30
0
10
34.397218046390698
20
27.391316068058977
30
0
10
34.515586488800587
20
27.042913798750241
30
0
10
34.620742308882051
20
26.661953904970073
30
0
10
34.721705450745304
20
26.224788901459636
30
0
10
34.816653346758855
20
25.707539201691279
30
0
10
34.89940235821652
20
25.089436856109671
30
0
10
34.962601341545806
20
24.356182573127256
30
0
10
35.003095636169157
20
23.504123796400812
30
0
10
35.022710879086631
20
22.540272247266039
30
0
10
35.026643258688289
20
21.479555734388995
30
0
10
35.02254281151356
20
20.342908967878586
30
0
10
35.01930308019962
20
19.155007133401167
30
0
10
35.025997551434557
20
17.942176952312437
30
0
10
35.050704331405036
20
16.73017512109568
30
0
10
35.099492529475292
20
15.542155376474923
30
0
10
35.175058130826955
20
14.396229151872459
30
0
10
35.276621249850926
20
13.304486538390222
30
0
10
35.401082308965954
20
12.273472603090443
30
0
10
35.543836313955609
20
11.304270902563758
30
0
10
35.699729442765687
20
10.392745109903785
30
0
10
35.863948578765694
20
9.5297180874478276
30
0
10
36.032953865679531
20
8.7011656003558553
30
0
10
36.205359322790585
20
7.8884324277439237
30
0
10
36.382926085297342
20
7.068361038904623
30
0
10
36.569938560732616
20
6.2148117673178769
30
0
10
36.772448875559391
20
5.3002997506175555
30
0
10
36.99757021581005
20
4.2975859275451302
30
0
10
37.252746236986425
20
3.1812959224677506
30
0
10
37.545038432720858
20
1.9295073226700832
30
0
10
37.880387948858925
20
0.52539628186828402
30
0
10
38.262930312522855
20
-1.0412487906915839
30
0
10
38.694177428123048
20
-2.7721745068762398
30
0
10
39.173172898305019
20
-4.6613036308968407
30
0
10
39.696855759189766
20
-6.6959105161854566
30
0
10
40.260352438474818
20
-8.8576124887213474
30
0
10
40.857298819011291
20
-11.123438414038525
30
0
10
41.480149338368037
20
-13.466864005891404
30
0
10
42.120491665820332
20
-15.858861450485186
30
0
10
42.769358919208507
20
-18.268942670831752
30
0
10
43.417543028900269
20
-20.666205644946661
30
0
10
44.055907372862578
20
-23.020378594941072
30
0
10
44.6757002578087
20
-25.302866960624645
30
0
10
45.268866803947354
20
-27.48779487155192
30
0
10
45.82836440011895
20
-29.553059074304684
30
0
10
46.348469964539532
20
-31.481354222397346
30
0
10
46.825106258581854
20
-33.261264787360972
30
0
10
47.256123843288968
20
-34.888201864412459
30
0
10
47.641690175381996
20
-36.365714625894448
30
0
10
47.984330567796732
20
-37.705584412825118
30
0
10
48.288350509007557
20
-38.925755613347391
30
0
10
48.559395807857896
20
-40.048748409844066
30
0
10
48.803958463758306
20
-41.099881911962498
30
0
10
49.028903369115469
20
-42.105569731308819
30
0
10
49.240991587158533
20
-43.091604512138318
30
0
10
49.446392258174868
20
-44.081400526374352
30
0
10
49.650229353925475
20
-45.09436317532311
30
0
10
49.856040963766205
20
-46.143940490518453
30
0
10
50.065513130914908
20
-47.236672474052455
30
0
10
50.278858517433036
20
-48.373583842462324
30
0
10
50.495067374337445
20
-49.551112779583242
30
0
10
50.712208863738141
20
-50.762222500663242
30
0
10
50.927711838512757
20
-51.997438565166988
30
0
10
51.138652184131814
20
-53.245909096056543
30
0
10
51.342042585539566
20
-54.49647599497267
30
0
10
51.535108992810351
20
-55.738692730372186
30
0
10
51.7156022952705
20
-56.963982243644281
30
0
10
51.882002388932584
20
-58.166367289701242
30
0
10
52.033377897494255
20
-59.341833283451784
30
0
10
52.169304242622374
20
-60.487922544852296
30
0
10
52.289759039280881
20
-61.603239251230733
30
0
10
52.395026507739573
20
-62.686988416266971
30
0
10
52.485599548200518
20
-63.73850970436024
30
0
10
52.562079256616158
20
-64.756791486461566
30
0
10
52.62508391045322
20
-65.740044929241023
30
0
10
52.675132666902201
20
-66.685121720492532
30
0
10
52.712648515882307
20
-67.58766150050468
30
0
10
52.738024188979303
20
-68.44261151313691
30
0
10
52.751666014530123
20
-69.244636283186921
30
0
10
52.754052192535063
20
-69.988559069892403
30
0
10
52.74577269637809
20
-70.669821779680746
30
0
10
52.727606386166713
20
-71.284858975380359
30
0
10
52.700490151943811
20
-71.831772243636436
30
0
10
52.665127465797077
20
-72.312400418685684
30
0
10
52.621663873426257
20
-72.733805148356566
30
0
10
52.569321176678244
20
-73.110734568412155
30
0
10
52.506100969278712
20
-73.465551431975399
30
0
10
52.42898793558836
20
-73.818974560146927
30
0
10
52.333927783037232
20
-74.179944855885211
30
0
10
52.216325541609848
20
-74.541682323325318
30
0
10
52.072388013257509
20
-74.892423773604463
30
0
10
51.90071192141626
20
-75.225521714387028
30
0
10
51.702484104539401
20
-75.542665613791115
30
0
10
51.479795539786977
20
-75.846492669132232
30
0
10
51.234065871884738
20
-76.133706849077484
30
0
10
50.965773639678467
20
-76.395892240917306
30
0
10
50.675647732850862
20
-76.627066167566625
30
0
10
50.365356746428688
20
-76.831724714604789
30
0
10
50.038557991315848
20
-77.021452038885258
30
0
10
49.701315232338381
20
-77.205894581868918
30
0
10
49.363912604337735
20
-77.383327794841804
30
0
10
49.034704872482308
20
-77.545620957179551
30
0
10
48.712485945850446
20
-77.687329083669127
30
0
10
48.444721545099782
20
-77.789133718608369
30
0
10
48.226139130044039
20
-77.864339377747484
30
0
10
48.069700255240207
20
-77.915260100943115
30
0
10
47.988600000000005
20
-77.941000000000017
30
0
0
ENDSEC
0
SECTION
2
OBJECTS
0
DICTIONARY
5
C
100
AcDbDictionary
3
ACAD_GROUP
350
D
3
ACAD_MLINESTYLE
350
17
0
DICTIONARY
5
D
100
AcDbDictionary
0
DICTIONARY
5
1A
330
C
100
AcDbDictionary
0
DICTIONARY
5
17
100
AcDbDictionary
0
ENDSEC
0
EOF
