0
SECTION
2
HEADER
9
$INSUNITS
70
4
9
$ACADVER
1
AC1014
9
$HANDSEED
5
FFFF
0
ENDSEC
0
SECTION
2
TABLES
0
TABLE
2
VPORT
5
8
100
AcDbSymbolTable
0
ENDTAB
0
TABLE
2
LTYPE
5
5
100
AcDbSymbolTable
0
LTYPE
5
14
100
AcDbSymbolTableRecord
100
AcDbLinetypeTableRecord
2
BYBLOCK
70
0
0
LTYPE
5
15
100
AcDbSymbolTableRecord
100
AcDbLinetypeTableRecord
2
BYLAYER
70
0
0
LTYPE
5
16
100
AcDbSymbolTableRecord
100
AcDbLinetypeTableRecord
2
DASHED
70
0
3
Dashed __ __ __ __ __ __ __ __ __ __ __ __ __ _
72
65
73
2
40
0.75
49
0.5
74
0
49
-0.25
74
0
0
ENDTAB
0
TABLE
2
LAYER
5
2
100
AcDbSymbolTable
70
2
0
LAYER
5
50
100
AcDbSymbolTableRecord
100
AcDbLayerTableRecord
2
0
70
0
62
7
6
CONTINUOUS
0
ENDTAB
0
TABLE
2
STYLE
5
3
100
AcDbSymbolTable
70
1
0
STYLE
5
11
100
AcDbSymbolTableRecord
100
AcDbTextStyleTableRecord
2
STANDARD
70
0
0
ENDTAB
0
TABLE
2
VIEW
5
6
100
AcDbSymbolTable
70
0
0
ENDTAB
0
TABLE
2
UCS
5
7
100
AcDbSymbolTable
70
0
0
ENDTAB
0
TABLE
2
APPID
5
9
100
AcDbSymbolTable
70
2
0
APPID
5
12
100
AcDbSymbolTableRecord
100
AcDbRegAppTableRecord
2
ACAD
70
0
0
ENDTAB
0
TABLE
2
DIMSTYLE
5
A
100
AcDbSymbolTable
70
1
0
ENDTAB
0
TABLE
2
BLOCK_RECORD
5
1
100
AcDbSymbolTable
70
1
0
BLOCK_RECORD
5
1F
100
AcDbSymbolTableRecord
100
AcDbBlockTableRecord
2
*MODEL_SPACE
0
BLOCK_RECORD
5
1B
100
AcDbSymbolTableRecord
100
AcDbBlockTableRecord
2
*PAPER_SPACE
0
ENDTAB
0
ENDSEC
0
SECTION
2
BLOCKS
0
BLOCK
5
20
100
AcDbEntity
100
AcDbBlockBegin
2
*MODEL_SPACE
0
ENDBLK
5
21
100
AcDbEntity
100
AcDbBlockEnd
0
BLOCK
5
1C
100
AcDbEntity
100
AcDbBlockBegin
2
*PAPER_SPACE
0
ENDBLK
5
1D
100
AcDbEntity
100
AcDbBlockEnd
0
ENDSEC
0
SECTION
2
ENTITIES
0
SPLINE
5
100
100
AcDbEntity
8
0
100
AcDbSpline
70
6
71
5
72
736
73
730
74
0
42
0.000000001
43
0.0000000001
44
0.0000000001
40
0
40
0
40
0
40
0
40
0
40
0
40
0.0013793103448275861
40
0.0027586206896551722
40
0.0041379310344827579
40
0.0055172413793103444
40
0.0068965517241379309
40
0.0082758620689655175
40
0.009655172413793104
40
0.011034482758620691
40
0.012413793103448277
40
0.013793103448275864
40
0.01517241379310345
40
0.016551724137931035
40
0.01793103448275862
40
0.019310344827586205
40
0.020689655172413789
40
0.022068965517241374
40
0.023448275862068959
40
0.024827586206896544
40
0.026206896551724129
40
0.027586206896551713
40
0.028965517241379298
40
0.030344827586206883
40
0.031724137931034471
40
0.033103448275862056
40
0.034482758620689641
40
0.035862068965517226
40
0.03724137931034481
40
0.038620689655172395
40
0.03999999999999998
40
0.041379310344827565
40
0.04275862068965515
40
0.044137931034482734
40
0.045517241379310319
40
0.046896551724137904
40
0.048275862068965489
40
0.049655172413793074
40
0.051034482758620658
40
0.052413793103448243
40
0.053793103448275828
40
0.055172413793103413
40
0.056551724137930998
40
0.057931034482758582
40
0.059310344827586167
40
0.060689655172413752
40
0.062068965517241337
40
0.063448275862068929
40
0.06482758620689652
40
0.066206896551724112
40
0.067586206896551704
40
0.068965517241379296
40
0.070344827586206887
40
0.071724137931034479
40
0.073103448275862071
40
0.074482758620689662
40
0.075862068965517254
40
0.077241379310344846
40
0.078620689655172438
40
0.080000000000000029
40
0.081379310344827621
40
0.082758620689655213
40
0.084137931034482805
40
0.085517241379310396
40
0.086896551724137988
40
0.08827586206896558
40
0.089655172413793172
40
0.091034482758620763
40
0.092413793103448355
40
0.093793103448275947
40
0.095172413793103539
40
0.09655172413793113
40
0.097931034482758722
40
0.099310344827586314
40
0.10068965517241391
40
0.1020689655172415
40
0.10344827586206909
40
0.10482758620689668
40
0.10620689655172427
40
0.10758620689655186
40
0.10896551724137946
40
0.11034482758620705
40
0.11172413793103464
40
0.11310344827586223
40
0.11448275862068982
40
0.11586206896551741
40
0.11724137931034501
40
0.1186206896551726
40
0.12000000000000019
40
0.12137931034482778
40
0.12275862068965537
40
0.12413793103448297
40
0.12551724137931056
40
0.12689655172413813
40
0.12827586206896571
40
0.12965517241379329
40
0.13103448275862087
40
0.13241379310344845
40
0.13379310344827602
40
0.1351724137931036
40
0.13655172413793118
40
0.13793103448275876
40
0.13931034482758634
40
0.14068965517241391
40
0.14206896551724149
40
0.14344827586206907
40
0.14482758620689665
40
0.14620689655172422
40
0.1475862068965518
40
0.14896551724137938
40
0.15034482758620696
40
0.15172413793103454
40
0.15310344827586211
40
0.15448275862068969
40
0.15586206896551727
40
0.15724137931034485
40
0.15862068965517243
40
0.16
40
0.16137931034482758
40
0.16275862068965516
40
0.16413793103448274
40
0.16551724137931031
40
0.16689655172413789
40
0.16827586206896547
40
0.16965517241379305
40
0.17103448275862063
40
0.1724137931034482
40
0.17379310344827578
40
0.17517241379310336
40
0.17655172413793094
40
0.17793103448275852
40
0.17931034482758609
40
0.18068965517241367
40
0.18206896551724125
40
0.18344827586206883
40
0.1848275862068964
40
0.18620689655172398
40
0.18758620689655156
40
0.18896551724137914
40
0.19034482758620672
40
0.19172413793103429
40
0.19310344827586187
40
0.19448275862068945
40
0.19586206896551703
40
0.19724137931034461
40
0.19862068965517218
40
0.19999999999999976
40
0.20137931034482734
40
0.20275862068965492
40
0.20413793103448249
40
0.20551724137931007
40
0.20689655172413765
40
0.20827586206896523
40
0.20965517241379281
40
0.21103448275862038
40
0.21241379310344796
40
0.21379310344827554
40
0.21517241379310312
40
0.2165517241379307
40
0.21793103448275827
40
0.21931034482758585
40
0.22068965517241343
40
0.22206896551724101
40
0.22344827586206858
40
0.22482758620689616
40
0.22620689655172374
40
0.22758620689655132
40
0.2289655172413789
40
0.23034482758620647
40
0.23172413793103405
40
0.23310344827586163
40
0.23448275862068921
40
0.23586206896551679
40
0.23724137931034436
40
0.23862068965517194
40
0.23999999999999952
40
0.2413793103448271
40
0.24275862068965467
40
0.24413793103448225
40
0.24551724137930983
40
0.24689655172413741
40
0.24827586206896499
40
0.24965517241379256
40
0.25103448275862017
40
0.25241379310344775
40
0.25379310344827533
40
0.2551724137931029
40
0.25655172413793048
40
0.25793103448275806
40
0.25931034482758564
40
0.26068965517241321
40
0.26206896551724079
40
0.26344827586206837
40
0.26482758620689595
40
0.26620689655172353
40
0.2675862068965511
40
0.26896551724137868
40
0.27034482758620626
40
0.27172413793103384
40
0.27310344827586142
40
0.27448275862068899
40
0.27586206896551657
40
0.27724137931034415
40
0.27862068965517173
40
0.27999999999999931
40
0.28137931034482688
40
0.28275862068965446
40
0.28413793103448204
40
0.28551724137930962
40
0.28689655172413719
40
0.28827586206896477
40
0.28965517241379235
40
0.29103448275861993
40
0.29241379310344751
40
0.29379310344827508
40
0.29517241379310266
40
0.29655172413793024
40
0.29793103448275782
40
0.2993103448275854
40
0.30068965517241297
40
0.30206896551724055
40
0.30344827586206813
40
0.30482758620689571
40
0.30620689655172328
40
0.30758620689655086
40
0.30896551724137844
40
0.31034482758620602
40
0.3117241379310336
40
0.31310344827586117
40
0.31448275862068875
40
0.31586206896551633
40
0.31724137931034391
40
0.31862068965517149
40
0.31999999999999906
40
0.32137931034482664
40
0.32275862068965422
40
0.3241379310344818
40
0.32551724137930937
40
0.32689655172413695
40
0.32827586206896453
40
0.32965517241379211
40
0.33103448275861969
40
0.33241379310344726
40
0.33379310344827484
40
0.33517241379310242
40
0.33655172413793
40
0.33793103448275758
40
0.33931034482758515
40
0.34068965517241273
40
0.34206896551724031
40
0.34344827586206789
40
0.34482758620689546
40
0.34620689655172304
40
0.34758620689655062
40
0.3489655172413782
40
0.35034482758620578
40
0.35172413793103335
40
0.35310344827586093
40
0.35448275862068851
40
0.35586206896551609
40
0.35724137931034367
40
0.35862068965517124
40
0.35999999999999882
40
0.3613793103448264
40
0.36275862068965398
40
0.36413793103448155
40
0.36551724137930913
40
0.36689655172413671
40
0.36827586206896429
40
0.36965517241379187
40
0.37103448275861944
40
0.37241379310344702
40
0.3737931034482746
40
0.37517241379310218
40
0.37655172413792976
40
0.37793103448275733
40
0.37931034482758491
40
0.38068965517241249
40
0.38206896551724007
40
0.38344827586206764
40
0.38482758620689522
40
0.3862068965517228
40
0.38758620689655038
40
0.38896551724137796
40
0.39034482758620553
40
0.39172413793103311
40
0.39310344827586069
40
0.39448275862068827
40
0.39586206896551585
40
0.39724137931034342
40
0.398620689655171
40
0.39999999999999858
40
0.40137931034482616
40
0.40275862068965373
40
0.40413793103448131
40
0.40551724137930889
40
0.40689655172413647
40
0.40827586206896405
40
0.40965517241379162
40
0.4110344827586192
40
0.41241379310344678
40
0.41379310344827436
40
0.41517241379310194
40
0.41655172413792951
40
0.41793103448275709
40
0.41931034482758467
40
0.42068965517241225
40
0.42206896551723982
40
0.4234482758620674
40
0.42482758620689498
40
0.42620689655172256
40
0.42758620689655014
40
0.42896551724137771
40
0.43034482758620529
40
0.43172413793103287
40
0.43310344827586045
40
0.43448275862068803
40
0.4358620689655156
40
0.43724137931034318
40
0.43862068965517076
40
0.43999999999999834
40
0.44137931034482591
40
0.44275862068965349
40
0.44413793103448107
40
0.44551724137930865
40
0.44689655172413623
40
0.4482758620689638
40
0.44965517241379138
40
0.45103448275861896
40
0.45241379310344654
40
0.45379310344827412
40
0.45517241379310169
40
0.45655172413792927
40
0.45793103448275685
40
0.45931034482758443
40
0.460689655172412
40
0.46206896551723958
40
0.46344827586206716
40
0.46482758620689474
40
0.46620689655172232
40
0.46758620689654989
40
0.46896551724137747
40
0.47034482758620505
40
0.47172413793103263
40
0.47310344827586021
40
0.47448275862068778
40
0.47586206896551536
40
0.47724137931034294
40
0.47862068965517052
40
0.47999999999999809
40
0.48137931034482567
40
0.48275862068965325
40
0.48413793103448083
40
0.48551724137930841
40
0.48689655172413598
40
0.48827586206896356
40
0.48965517241379114
40
0.49103448275861872
40
0.4924137931034463
40
0.49379310344827387
40
0.49517241379310145
40
0.49655172413792903
40
0.49793103448275661
40
0.49931034482758418
40
0.50068965517241182
40
0.50206896551723945
40
0.50344827586206709
40
0.50482758620689472
40
0.50620689655172235
40
0.50758620689654999
40
0.50896551724137762
40
0.51034482758620525
40
0.51172413793103289
40
0.51310344827586052
40
0.51448275862068815
40
0.51586206896551579
40
0.51724137931034342
40
0.51862068965517105
40
0.51999999999999869
40
0.52137931034482632
40
0.52275862068965395
40
0.52413793103448159
40
0.52551724137930922
40
0.52689655172413685
40
0.52827586206896449
40
0.52965517241379212
40
0.53103448275861975
40
0.53241379310344739
40
0.53379310344827502
40
0.53517241379310265
40
0.53655172413793029
40
0.53793103448275792
40
0.53931034482758555
40
0.54068965517241319
40
0.54206896551724082
40
0.54344827586206845
40
0.54482758620689609
40
0.54620689655172372
40
0.54758620689655135
40
0.54896551724137899
40
0.55034482758620662
40
0.55172413793103425
40
0.55310344827586189
40
0.55448275862068952
40
0.55586206896551715
40
0.55724137931034479
40
0.55862068965517242
40
0.56000000000000005
40
0.56137931034482769
40
0.56275862068965532
40
0.56413793103448295
40
0.56551724137931059
40
0.56689655172413822
40
0.56827586206896585
40
0.56965517241379349
40
0.57103448275862112
40
0.57241379310344875
40
0.57379310344827639
40
0.57517241379310402
40
0.57655172413793165
40
0.57793103448275929
40
0.57931034482758692
40
0.58068965517241455
40
0.58206896551724219
40
0.58344827586206982
40
0.58482758620689745
40
0.58620689655172509
40
0.58758620689655272
40
0.58896551724138035
40
0.59034482758620799
40
0.59172413793103562
40
0.59310344827586325
40
0.59448275862069089
40
0.59586206896551852
40
0.59724137931034615
40
0.59862068965517379
40
0.60000000000000142
40
0.60137931034482905
40
0.60275862068965669
40
0.60413793103448432
40
0.60551724137931195
40
0.60689655172413959
40
0.60827586206896722
40
0.60965517241379485
40
0.61103448275862249
40
0.61241379310345012
40
0.61379310344827775
40
0.61517241379310539
40
0.61655172413793302
40
0.61793103448276065
40
0.61931034482758829
40
0.62068965517241592
40
0.62206896551724356
40
0.62344827586207119
40
0.62482758620689882
40
0.62620689655172646
40
0.62758620689655409
40
0.62896551724138172
40
0.63034482758620936
40
0.63172413793103699
40
0.63310344827586462
40
0.63448275862069226
40
0.63586206896551989
40
0.63724137931034752
40
0.63862068965517516
40
0.64000000000000279
40
0.64137931034483042
40
0.64275862068965806
40
0.64413793103448569
40
0.64551724137931332
40
0.64689655172414096
40
0.64827586206896859
40
0.64965517241379622
40
0.65103448275862386
40
0.65241379310345149
40
0.65379310344827912
40
0.65517241379310676
40
0.65655172413793439
40
0.65793103448276202
40
0.65931034482758966
40
0.66068965517241729
40
0.66206896551724492
40
0.66344827586207256
40
0.66482758620690019
40
0.66620689655172782
40
0.66758620689655546
40
0.66896551724138309
40
0.67034482758621072
40
0.67172413793103836
40
0.67310344827586599
40
0.67448275862069362
40
0.67586206896552126
40
0.67724137931034889
40
0.67862068965517652
40
0.68000000000000416
40
0.68137931034483179
40
0.68275862068965942
40
0.68413793103448706
40
0.68551724137931469
40
0.68689655172414232
40
0.68827586206896996
40
0.68965517241379759
40
0.69103448275862522
40
0.69241379310345286
40
0.69379310344828049
40
0.69517241379310812
40
0.69655172413793576
40
0.69793103448276339
40
0.69931034482759102
40
0.70068965517241866
40
0.70206896551724629
40
0.70344827586207392
40
0.70482758620690156
40
0.70620689655172919
40
0.70758620689655682
40
0.70896551724138446
40
0.71034482758621209
40
0.71172413793103972
40
0.71310344827586736
40
0.71448275862069499
40
0.71586206896552262
40
0.71724137931035026
40
0.71862068965517789
40
0.72000000000000552
40
0.72137931034483316
40
0.72275862068966079
40
0.72413793103448842
40
0.72551724137931606
40
0.72689655172414369
40
0.72827586206897132
40
0.72965517241379896
40
0.73103448275862659
40
0.73241379310345422
40
0.73379310344828186
40
0.73517241379310949
40
0.73655172413793712
40
0.73793103448276476
40
0.73931034482759239
40
0.74068965517242003
40
0.74206896551724766
40
0.74344827586207529
40
0.74482758620690293
40
0.74620689655173056
40
0.74758620689655819
40
0.74896551724138583
40
0.75034482758621346
40
0.75172413793104109
40
0.75310344827586873
40
0.75448275862069636
40
0.75586206896552399
40
0.75724137931035163
40
0.75862068965517926
40
0.76000000000000689
40
0.76137931034483453
40
0.76275862068966216
40
0.76413793103448979
40
0.76551724137931743
40
0.76689655172414506
40
0.76827586206897269
40
0.76965517241380033
40
0.77103448275862796
40
0.77241379310345559
40
0.77379310344828323
40
0.77517241379311086
40
0.77655172413793849
40
0.77793103448276613
40
0.77931034482759376
40
0.78068965517242139
40
0.78206896551724903
40
0.78344827586207666
40
0.78482758620690429
40
0.78620689655173193
40
0.78758620689655956
40
0.78896551724138719
40
0.79034482758621483
40
0.79172413793104246
40
0.79310344827587009
40
0.79448275862069773
40
0.79586206896552536
40
0.79724137931035299
40
0.79862068965518063
40
0.80000000000000826
40
0.80137931034483589
40
0.80275862068966353
40
0.80413793103449116
40
0.80551724137931879
40
0.80689655172414643
40
0.80827586206897406
40
0.80965517241380169
40
0.81103448275862933
40
0.81241379310345696
40
0.81379310344828459
40
0.81517241379311223
40
0.81655172413793986
40
0.81793103448276749
40
0.81931034482759513
40
0.82068965517242276
40
0.82206896551725039
40
0.82344827586207803
40
0.82482758620690566
40
0.82620689655173329
40
0.82758620689656093
40
0.82896551724138856
40
0.83034482758621619
40
0.83172413793104383
40
0.83310344827587146
40
0.83448275862069909
40
0.83586206896552673
40
0.83724137931035436
40
0.83862068965518199
40
0.84000000000000963
40
0.84137931034483726
40
0.84275862068966489
40
0.84413793103449253
40
0.84551724137932016
40
0.84689655172414779
40
0.84827586206897543
40
0.84965517241380306
40
0.85103448275863069
40
0.85241379310345833
40
0.85379310344828596
40
0.85517241379311359
40
0.85655172413794123
40
0.85793103448276886
40
0.8593103448275965
40
0.86068965517242413
40
0.86206896551725176
40
0.8634482758620794
40
0.86482758620690703
40
0.86620689655173466
40
0.8675862068965623
40
0.86896551724138993
40
0.87034482758621756
40
0.8717241379310452
40
0.87310344827587283
40
0.87448275862070046
40
0.8758620689655281
40
0.87724137931035573
40
0.87862068965518336
40
0.880000000000011
40
0.88137931034483863
40
0.88275862068966626
40
0.8841379310344939
40
0.88551724137932153
40
0.88689655172414916
40
0.8882758620689768
40
0.88965517241380443
40
0.89103448275863206
40
0.8924137931034597
40
0.89379310344828733
40
0.89517241379311496
40
0.8965517241379426
40
0.89793103448277023
40
0.89931034482759786
40
0.9006896551724255
40
0.90206896551725313
40
0.90344827586208076
40
0.9048275862069084
40
0.90620689655173603
40
0.90758620689656366
40
0.9089655172413913
40
0.91034482758621893
40
0.91172413793104656
40
0.9131034482758742
40
0.91448275862070183
40
0.91586206896552946
40
0.9172413793103571
40
0.91862068965518473
40
0.92000000000001236
40
0.92137931034484
40
0.92275862068966763
40
0.92413793103449526
40
0.9255172413793229
40
0.92689655172415053
40
0.92827586206897816
40
0.9296551724138058
40
0.93103448275863343
40
0.93241379310346106
40
0.9337931034482887
40
0.93517241379311633
40
0.93655172413794396
40
0.9379310344827716
40
0.93931034482759923
40
0.94068965517242686
40
0.9420689655172545
40
0.94344827586208213
40
0.94482758620690976
40
0.9462068965517374
40
0.94758620689656503
40
0.94896551724139266
40
0.9503448275862203
40
0.95172413793104793
40
0.95310344827587556
40
0.9544827586207032
40
0.95586206896553083
40
0.95724137931035846
40
0.9586206896551861
40
0.96000000000001373
40
0.96137931034484136
40
0.962758620689669
40
0.96413793103449663
40
0.96551724137932426
40
0.9668965517241519
40
0.96827586206897953
40
0.96965517241380716
40
0.9710344827586348
40
0.97241379310346243
40
0.97379310344829006
40
0.9751724137931177
40
0.97655172413794533
40
0.97793103448277297
40
0.9793103448276006
40
0.98068965517242823
40
0.98206896551725587
40
0.9834482758620835
40
0.98482758620691113
40
0.98620689655173877
40
0.9875862068965664
40
0.98896551724139403
40
0.99034482758622167
40
0.9917241379310493
40
0.99310344827587693
40
0.99448275862070457
40
0.9958620689655322
40
0.99724137931035983
40
0.99862068965518747
40
1
40
1
40
1
40
1
40
1
40
1
41
1
41
1
41
1
41
1
41
1
41
1
41
1
41
1
41
1
41
1
41
1
41
1
41
1
41
1
41
1
41
1
41
1
41
1
41
1
41
1
41
1
41
1
41
1
41
1
41
1
41
1
41
1
41
1
41
1
41
1
41
1
41
1
41
1
41
1
41
1
41
1
41
1
41
1
41
1
41
1
41
1
41
1
41
1
41
1
41
1
41
1
41
1
41
1
41
1
41
1
41
1
41
1
41
1
41
1
41
1
41
1
41
1
41
1
41
1
41
1
41
1
41
1
41
1
41
1
41
1
41
1
41
1
41
1
41
1
41
1
41
1
41
1
41
1
41
1
41
1
41
1
41
1
41
1
41
1
41
1
41
1
41
1
41
1
41
1
41
1
41
1
41
1
41
1
41
1
41
1
41
1
41
1
41
1
41
1
41
1
41
1
41
1
41
1
41
1
41
1
41
1
41
1
41
1
41
1
41
1
41
1
41
1
41
1
41
1
41
1
41
1
41
1
41
1
41
1
41
1
41
1
41
1
41
1
41
1
41
1
41
1
41
1
41
1
41
1
41
1
41
1
41
1
41
1
41
1
41
1
41
1
41
1
41
1
41
1
41
1
41
1
41
1
41
1
41
1
41
1
41
1
41
1
41
1
41
1
41
1
41
1
41
1
41
1
41
1
41
1
41
1
41
1
41
1
41
1
41
1
41
1
41
1
41
1
41
1
41
1
41
1
41
1
41
1
41
1
41
1
41
1
41
1
41
1
41
1
41
1
41
1
41
1
41
1
41
1
41
1
41
1
41
1
41
1
41
1
41
1
41
1
41
1
41
1
41
1
41
1
41
1
41
1
41
1
41
1
41
1
41
1
41
1
41
1
41
1
41
1
41
1
41
1
41
1
41
1
41
1
41
1
41
1
41
1
41
1
41
1
41
1
41
1
41
1
41
1
41
1
41
1
41
1
41
1
41
1
41
1
41
1
41
1
41
1
41
1
41
1
41
1
41
1
41
1
41
1
41
1
41
1
41
1
41
1
41
1
41
1
41
1
41
1
41
1
41
1
41
1
41
1
41
1
41
1
41
1
41
1
41
1
41
1
41
1
41
1
41
1
41
1
41
1
41
1
41
1
41
1
41
1
41
1
41
1
41
1
41
1
41
1
41
1
41
1
41
1
41
1
41
1
41
1
41
1
41
1
41
1
41
1
41
1
41
1
41
1
41
1
41
1
41
1
41
1
41
1
41
1
41
1
41
1
41
1
41
1
41
1
41
1
41
1
41
1
41
1
41
1
41
1
41
1
41
1
41
1
41
1
41
1
41
1
41
1
41
1
41
1
41
1
41
1
41
1
41
1
41
1
41
1
41
1
41
1
41
1
41
1
41
1
41
1
41
1
41
1
41
1
41
1
41
1
41
1
41
1
41
1
41
1
41
1
41
1
41
1
41
1
41
1
41
1
41
1
41
1
41
1
41
1
41
1
41
1
41
1
41
1
41
1
41
1
41
1
41
1
41
1
41
1
41
1
41
1
41
1
41
1
41
1
41
1
41
1
41
1
41
1
41
1
41
1
41
1
41
1
41
1
41
1
41
1
41
1
41
1
41
1
41
1
41
1
41
1
41
1
41
1
41
1
41
1
41
1
41
1
41
1
41
1
41
1
41
1
41
1
41
1
41
1
41
1
41
1
41
1
41
1
41
1
41
1
41
1
41
1
41
1
41
1
41
1
41
1
41
1
41
1
41
1
41
1
41
1
41
1
41
1
41
1
41
1
41
1
41
1
41
1
41
1
41
1
41
1
41
1
41
1
41
1
41
1
41
1
41
1
41
1
41
1
41
1
41
1
41
1
41
1
41
1
41
1
41
1
41
1
41
1
41
1
41
1
41
1
41
1
41
1
41
1
41
1
41
1
41
1
41
1
41
1
41
1
41
1
41
1
41
1
41
1
41
1
41
1
41
1
41
1
41
1
41
1
41
1
41
1
41
1
41
1
41
1
41
1
41
1
41
1
41
1
41
1
41
1
41
1
41
1
41
1
41
1
41
1
41
1
41
1
41
1
41
1
41
1
41
1
41
1
41
1
41
1
41
1
41
1
41
1
41
1
41
1
41
1
41
1
41
1
41
1
41
1
41
1
41
1
41
1
41
1
41
1
41
1
41
1
41
1
41
1
41
1
41
1
41
1
41
1
41
1
41
1
41
1
41
1
41
1
41
1
41
1
41
1
41
1
41
1
41
1
41
1
41
1
41
1
41
1
41
1
41
1
41
1
41
1
41
1
41
1
41
1
41
1
41
1
41
1
41
1
41
1
41
1
41
1
41
1
41
1
41
1
41
1
41
1
41
1
41
1
41
1
41
1
41
1
41
1
41
1
41
1
41
1
41
1
41
1
41
1
41
1
41
1
41
1
41
1
41
1
41
1
41
1
41
1
41
1
41
1
41
1
41
1
41
1
41
1
41
1
41
1
41
1
41
1
41
1
41
1
41
1
41
1
41
1
41
1
41
1
41
1
41
1
41
1
41
1
41
1
41
1
41
1
41
1
41
1
41
1
41
1
41
1
41
1
41
1
41
1
41
1
41
1
41
1
41
1
41
1
41
1
41
1
41
1
41
1
41
1
41
1
41
1
41
1
41
1
41
1
41
1
41
1
41
1
41
1
41
1
41
1
41
1
41
1
41
1
41
1
41
1
41
1
41
1
41
1
41
1
41
1
41
1
41
1
41
1
41
1
41
1
41
1
41
1
41
1
41
1
41
1
41
1
41
1
41
1
41
1
41
1
41
1
41
1
41
1
41
1
41
1
41
1
41
1
41
1
41
1
41
1
41
1
41
1
41
1
41
1
41
1
41
1
41
1
41
1
41
1
41
1
41
1
41
1
41
1
41
1
41
1
41
1
41
1
41
1
41
1
41
1
41
1
41
1
41
1
41
1
41
1
41
1
41
1
41
1
41
1
41
1
41
1
41
1
41
1
41
1
41
1
41
1
41
1
41
1
41
1
41
1
41
1
41
1
41
1
41
1
41
1
41
1
41
1
41
1
41
1
41
1
41
1
41
1
41
1
41
1
41
1
41
1
41
1
41
1
41
1
41
1
41
1
41
1
41
1
41
1
41
1
41
1
41
1
41
1
41
1
41
1
41
1
41
1
41
1
41
1
41
1
41
1
41
1
41
1
41
1
41
1
41
1
41
1
41
1
41
1
41
1
41
1
41
1
41
1
41
1
41
1
41
1
41
1
41
1
41
1
41
1
41
1
41
1
41
1
41
1
41
1
41
1
41
1
41
1
10
-27.988600000000005
20
-122.66840000000001
30
0
10
-28.064263150045395
20
-122.64366581887627
30
0
10
-28.215839226978861
20
-122.5914641528768
30
0
10
-28.443911083848533
20
-122.50591672798059
30
0
10
-28.744294261538709
20
-122.38250957825736
30
0
10
-29.095519396894112
20
-122.22443161509092
30
0
10
-29.4188816063701
20
-122.0654021481399
30
0
10
-29.744642645129986
20
-121.89173732653445
30
0
10
-30.117555235488197
20
-121.68186909328783
30
0
10
-30.577625978831794
20
-121.41494826471678
30
0
10
-31.141068390441365
20
-121.07937433873377
30
0
10
-31.804984605979818
20
-120.67194056745821
30
0
10
-32.55175321442772
20
-120.19708957029727
30
0
10
-33.353534301628024
20
-119.66613694499299
30
0
10
-34.176708581523187
20
-119.0964871316114
30
0
10
-34.98638265692378
20
-118.51090351052095
30
0
10
-35.750760110106505
20
-117.93660889648125
30
0
10
-36.443295372792541
20
-117.40076421818721
30
0
10
-37.044899891838689
20
-116.92618512185018
30
0
10
-37.546222949071179
20
-116.52682553909015
30
0
10
-37.949687100619734
20
-116.20368550251757
30
0
10
-38.272135052651549
20
-115.93976691467263
30
0
10
-38.545791677605678
20
-115.69759359041855
30
0
10
-38.804083190674824
20
-115.43913188169321
30
0
10
-39.067636555522746
20
-115.14571542368053
30
0
10
-39.332633866083043
20
-114.83375076864695
30
0
10
-39.584954997825534
20
-114.5275495750362
30
0
10
-39.812764191684195
20
-114.23379460405557
30
0
10
-40.018167269694764
20
-113.92022559894961
30
0
10
-40.212820514820429
20
-113.54186647377648
30
0
10
-40.41509853934685
20
-113.06419769448014
30
0
10
-40.646542622980668
20
-112.48429917766188
30
0
10
-40.927377880434634
20
-111.820906313245
30
0
10
-41.272071729150568
20
-111.10757720700299
30
0
10
-41.684800758444112
20
-110.38463074463141
30
0
10
-42.155142777266541
20
-109.69166291298707
30
0
10
-42.653171190692561
20
-109.05966051668527
30
0
10
-43.138956995980173
20
-108.50877879464876
30
0
10
-43.572397773157419
20
-108.04649834932697
30
0
10
-43.923480795851276
20
-107.66529465834645
30
0
10
-44.181100220617026
20
-107.34131450406718
30
0
10
-44.36575637565916
20
-107.0305565142457
30
0
10
-44.516566887802568
20
-106.68105572497943
30
0
10
-44.673268653960704
20
-106.24779587566125
30
0
10
-44.857350496216455
20
-105.70906716777039
30
0
10
-45.073148929633106
20
-105.06416401988679
30
0
10
-45.314049978794053
20
-104.32650241756889
30
0
10
-45.567061865273367
20
-103.51817245245087
30
0
10
-45.817729453365445
20
-102.6642338485813
30
0
10
-46.055765407281363
20
-101.78625169712525
30
0
10
-46.276094774158082
20
-100.90047060748161
30
0
10
-46.47726376315088
20
-100.01863880022054
30
0
10
-46.660670624950377
20
-99.148005521051687
30
0
10
-46.829456553250388
20
-98.291662435060161
30
0
10
-46.987539750092381
20
-97.448735106294549
30
0
10
-47.138594273627106
20
-96.614644418922623
30
0
10
-47.285035034854708
20
-95.78132240467292
30
0
10
-47.428224324989841
20
-94.938639138851713
30
0
10
-47.568706935740714
20
-94.07585940958819
30
0
10
-47.706431881847763
20
-93.183063134106277
30
0
10
-47.840985541833028
20
-92.252638892117673
30
0
10
-47.97180654239574
20
-91.280611748639217
30
0
10
-48.09844079329055
20
-90.268367553392636
30
0
10
-48.220672545814239
20
-89.223132421715235
30
0
10
-48.338382206867237
20
-88.155697709979606
30
0
10
-48.451460534963367
20
-87.078715956640792
30
0
10
-48.559698896467573
20
-86.004749746862714
30
0
10
-48.662693101940604
20
-84.944470740776111
30
0
10
-48.759733612152573
20
-83.904690549139914
30
0
10
-48.849719790511308
20
-82.886705735096754
30
0
10
-48.931019186499327
20
-81.8839142818494
30
0
10
-49.001515227558919
20
-80.881936374060231
30
0
10
-49.058895862404498
20
-79.861939511924248
30
0
10
-49.100881530609627
20
-78.803156862118087
30
0
10
-49.125477882577911
20
-77.685734216815931
30
0
10
-49.131217598612935
20
-76.493433252641736
30
0
10
-49.11740762913152
20
-75.216403805184029
30
0
10
-49.084372424519614
20
-73.853909880878518
30
0
10
-49.033702901585052
20
-72.417115114506117
30
0
10
-48.968491756456487
20
-70.931732383668276
30
0
10
-48.892832094644554
20
-69.433425292364333
30
0
10
-48.811329876532596
20
-67.963344122229401
30
0
10
-48.728609237076704
20
-66.563594670351677
30
0
10
-48.648825319695554
20
-65.272774251564158
30
0
10
-48.575163477012055
20
-64.121389232674758
30
0
10
-48.509368474400112
20
-63.127531442172341
30
0
10
-48.451204639234916
20
-62.291959603124347
30
0
10
-48.398077110525641
20
-61.594568424994321
30
0
10
-48.344253999290103
20
-60.987420747099407
30
0
10
-48.281778119429816
20
-60.402315792766103
30
0
10
-48.20240501199482
20
-59.767136257674764
30
0
10
-48.099307513181174
20
-59.020282810388913
30
0
10
-47.968710698541443
20
-58.124292010986338
30
0
10
-47.811961013838484
20
-57.083715471666274
30
0
10
-47.635914768762177
20
-55.946729287279894
30
0
10
-47.451139815134916
20
-54.785721645881523
30
0
10
-47.270672581543785
20
-53.683079787710348
30
0
10
-47.108544769789056
20
-52.715114268411618
30
0
10
-46.978419926443031
20
-51.936211256144851
30
0
10
-46.892156536411001
20
-51.364209956445386
30
0
10
-46.858464359556393
20
-50.962100498683398
30
0
10
-46.881359105936838
20
-50.630445574757587
30
0
10
-46.95821420542805
20
-50.259859360055458
30
0
10
-47.077364069402947
20
-49.781052701401258
30
0
10
-47.217154539792467
20
-49.204595934398014
30
0
10
-47.35319038473353
20
-48.585459424901813
30
0
10
-47.464779969794449
20
-47.996609303435278
30
0
10
-47.541335222842811
20
-47.499518724530759
30
0
10
-47.5897229728075
20
-47.11481241096071
30
0
10
-47.621983984804366
20
-46.821390202204526
30
0
10
-47.642324322680494
20
-46.558424754964634
30
0
10
-47.633246368664778
20
-46.224518739396878
30
0
10
-47.568923515685938
20
-45.71861333896311
30
0
10
-47.429801544244839
20
-44.981910008294292
30
0
10
-47.217406473384429
20
-44.041730168949201
30
0
10
-46.949415287470224
20
-42.984847775868914
30
0
10
-46.653724650909197
20
-41.927226070484792
30
0
10
-46.36297305092058
20
-40.985881801743446
30
0
10
-46.108688758199882
20
-40.248033273059789
30
0
10
-45.916021880377833
20
-39.74563393231729
30
0
10
-45.797204096883789
20
-39.417431477506859
30
0
10
-45.748837130857041
20
-39.108609788567136
30
0
10
-45.758263197949738
20
-38.653337203414154
30
0
10
-45.808625115288429
20
-37.952559539740427
30
0
10
-45.883148876175255
20
-37.020620683108739
30
0
10
-45.965557422058943
20
-35.939394397932716
30
0
10
-46.041350088372454
20
-34.830814224194611
30
0
10
-46.098664768942285
20
-33.823093183349556
30
0
10
-46.129475948360593
20
-33.01724693544449
30
0
10
-46.130280293298426
20
-32.459081546591221
30
0
10
-46.103925092613729
20
-32.094747557766411
30
0
10
-46.056586620238491
20
-31.801675494029368
30
0
10
-45.992983957196202
20
-31.452958846642328
30
0
10
-45.910703740430904
20
-30.983592260549628
30
0
10
-45.801989971978081
20
-30.396627871544585
30
0
10
-45.66016638917776
20
-29.733006939814146
30
0
10
-45.483782032526925
20
-29.054003470427542
30
0
10
-45.283601669691897
20
-28.41605902629798
30
0
10
-45.081376931591151
20
-27.857376945338146
30
0
10
-44.897433206587294
20
-27.395790647948512
30
0
10
-44.741975550006821
20
-27.024927185144367
30
0
10
-44.602778841826193
20
-26.708967545561045
30
0
10
-44.440720872604402
20
-26.384190848506321
30
0
10
-44.211426020590743
20
-25.985671637113867
30
0
10
-43.885060236405728
20
-25.47288979345176
30
0
10
-43.461216437167096
20
-24.848140572882595
30
0
10
-42.958896064912572
20
-24.141365887855798
30
0
10
-42.410589631480377
20
-23.400503230519995
30
0
10
-41.854654868971451
20
-22.679435958954951
30
0
10
-41.328617900760008
20
-22.027485252209921
30
0
10
-40.861605143715053
20
-21.476992906415333
30
0
10
-40.468633917682581
20
-21.03566500779295
30
0
10
-40.149774099707081
20
-20.692298768593528
30
0
10
-39.888638733372098
20
-20.42025360212206
30
0
10
-39.650762083990216
20
-20.181611845008163
30
0
10
-39.383038273469325
20
-19.931572759481227
30
0
10
-39.03826161071725
20
-19.634672718340063
30
0
10
-38.599680924760435
20
-19.281289796783543
30
0
10
-38.103300652463531
20
-18.902210871021939
30
0
10
-37.610175474561807
20
-18.543947352726626
30
0
10
-37.179604186717995
20
-18.244357976925603
30
0
10
-36.844493712594421
20
-18.010897082605524
30
0
10
-36.579399861762731
20
-17.790766418542855
30
0
10
-36.32662302696864
20
-17.503969491973017
30
0
10
-36.031237148286593
20
-17.08549829674115
30
0
10
-35.677932578010491
20
-16.530746944435105
30
0
10
-35.283075345820848
20
-15.882309809708193
30
0
10
-34.878111552656996
20
-15.205697374581998
30
0
10
-34.495274085218036
20
-14.56793767700862
30
0
10
-34.154057369473804
20
-14.017302693043066
30
0
10
-33.842938242449875
20
-13.556601786621499
30
0
10
-33.527537146506624
20
-13.151841356239462
30
0
10
-33.17257180814417
20
-12.758788591835113
30
0
10
-32.756859587153457
20
-12.341307060759778
30
0
10
-32.29719388470577
20
-11.899013581109724
30
0
10
-31.845738377125098
20
-11.468661652786976
30
0
10
-31.454857130742568
20
-11.09419656832074
30
0
10
-31.153249061867996
20
-10.806949577787176
30
0
10
-30.910878453060132
20
-10.596947515361986
30
0
10
-30.628730363296384
20
-10.402493261892577
30
0
10
-30.198729148331708
20
-10.150825407129007
30
0
10
-29.559010210666465
20
-9.7948815850047986
30
0
10
-28.731942552660612
20
-9.3392462173020423
30
0
10
-27.790215973781596
20
-8.8193864336646435
30
0
10
-26.835161114007668
20
-8.288883273695518
30
0
10
-25.971179005238053
20
-7.8040837914848336
30
0
10
-25.27964806265253
20
-7.4085052533746589
30
0
10
-24.79815350279145
20
-7.120495218663569
30
0
10
-24.484745871517973
20
-6.9116647881716755
30
0
10
-24.243127401177503
20
-6.7226950693067735
30
0
10
-23.980829971915668
20
-6.4984608444097631
30
0
10
-23.673526674510601
20
-6.2287235103950049
30
0
10
-23.360413400568611
20
-5.9398805051251644
30
0
10
-23.093679758966346
20
-5.6565777741035363
30
0
10
-22.891802713705211
20
-5.3620620293864096
30
0
10
-22.734551883798776
20
-5.0031784588913188
30
0
10
-22.589732774749606
20
-4.5254207793020349
30
0
10
-22.433809588450579
20
-3.904984558119005
30
0
10
-22.258305476948973
20
-3.1540488595573315
30
0
10
-22.063129024257485
20
-2.3054523736340995
30
0
10
-21.854167858574478
20
-1.4040416848013662
30
0
10
-21.638967574782605
20
-0.49483876799105436
30
0
10
-21.423549088203544
20
0.38647833482182214
30
0
10
-21.207933327420264
20
1.2264943075350077
30
0
10
-20.986355298247403
20
2.0331348271312613
30
0
10
-20.74969710660028
20
2.8280120495826875
30
0
10
-20.487232295960315
20
3.6408702915583153
30
0
10
-20.188655350310189
20
4.5031614567514175
30
0
10
-19.845989641571109
20
5.4419916368584271
30
0
10
-19.455545926057056
20
6.4739130405147396
30
0
10
-19.019864053498253
20
7.5987683055326443
30
0
10
-18.546376770750776
20
8.8030030053291632
30
0
10
-18.046065106034089
20
10.063004098435904
30
0
10
-17.532114473246377
20
11.348433852281669
30
0
10
-17.01857659674581
20
12.625552073402851
30
0
10
-16.519014822686579
20
13.860574663174942
30
0
10
-16.045189386806324
20
15.022943709616383
30
0
10
-15.605649212056836
20
16.088804930199917
30
0
10
-15.204542398966137
20
17.043999767586627
30
0
10
-14.839885447534712
20
17.888258728657821
30
0
10
-14.504069640122809
20
18.634431817171187
30
0
10
-14.185947267951018
20
19.304222473868236
30
0
10
-13.872424296333079
20
19.925001187080717
30
0
10
-13.550315866032456
20
20.526070423851554
30
0
10
-13.207951283527812
20
21.13540532635135
30
0
10
-12.837233960821816
20
21.77558390197796
30
0
10
-12.433837856129269
20
22.462976395014991
30
0
10
-11.996329056498285
20
23.208807772688967
30
0
10
-11.525614405350224
20
24.01964996553604
30
0
10
-11.024255973112087
20
24.898149548970547
30
0
10
-10.495840462307243
20
25.843655400509409
30
0
10
-9.9443311766016311
20
26.852887014380215
30
0
10
-9.3734105477936893
20
27.920591701682746
30
0
10
-8.7864815318720595
20
29.039957939651515
30
0
10
-8.1866930299345935
20
30.203016798207678
30
0
10
-7.5769563881301742
20
31.401048066639984
30
0
10
-6.9599656459975057
20
32.624984087732734
30
0
10
-6.3382162368651649
20
33.865815222762244
30
0
10
-5.7140241978032691
20
35.114993101469558
30
0
10
-5.0895455157769076
20
36.364838342680287
30
0
10
-4.4667945793267485
20
37.608938182300214
30
0
10
-3.8476649971382053
20
38.842567920918782
30
0
10
-3.2339436829259882
20
40.063046114026839
30
0
10
-2.6272518929635753
20
41.269374695140229
30
0
10
-2.0289917365310997
20
42.461932209797581
30
0
10
-1.440290483864342
20
43.642146632741074
30
0
10
-0.86194607335896745
20
44.812177398793253
30
0
10
-0.29437148087539899
20
45.97459227027479
30
0
10
0.26245899089701846
20
47.132049249599994
30
0
10
0.80906758936217416
20
48.286969781132008
30
0
10
1.3465214325001167
20
49.441230943759457
30
0
10
1.8765035961224847
20
50.595812881362789
30
0
10
2.4013170001583886
20
51.75057810690096
30
0
10
2.9236335859185654
20
52.904550143476278
30
0
10
3.4462829394226064
20
54.05611508922307
30
0
10
3.9720250734277176
20
55.203253616293523
30
0
10
4.5033308795319531
20
56.343759373298489
30
0
10
5.0421571517309154
20
57.475464663168438
30
0
10
5.5897288792632445
20
58.596459666629869
30
0
10
6.1463069176770171
20
59.705322171598354
30
0
10
6.7109889536155345
20
60.801324615627337
30
0
10
7.281425477568332
20
61.884698427383057
30
0
10
7.8541365806948651
20
62.956493998266545
30
0
10
8.4249656881662816
20
64.018348360854404
30
0
10
8.9894869213878223
20
65.072284422376583
30
0
10
9.5434306693013742
20
66.120497126907253
30
0
10
10.083104210830962
20
67.165144858061993
30
0
10
10.605807809322572
20
68.20813945924391
30
0
10
11.110268268123541
20
69.250934816255324
30
0
10
11.59702844865129
20
70.294320837519862
30
0
10
12.068953117489386
20
71.338202408567156
30
0
10
12.530551435764409
20
72.381529290262804
30
0
10
12.987136658649352
20
73.422244334195625
30
0
10
13.444048974242035
20
74.457229111329582
30
0
10
13.905839318767349
20
75.482241852837021
30
0
10
14.375498694965763
20
76.491878943976758
30
0
10
14.853601116552086
20
77.479479193123169
30
0
10
15.337639672048278
20
78.43716266981852
30
0
10
15.82089634486878
20
79.35554158837796
30
0
10
16.292940558615086
20
80.224577815364384
30
0
10
16.742113004707143
20
81.035830506681293
30
0
10
17.157523012047754
20
81.784374013720068
30
0
10
17.531200606814018
20
82.470796272906171
30
0
10
17.860281084208609
20
83.103285817999506
30
0
10
18.148943869964388
20
83.699391858319132
30
0
10
18.411061839099141
20
84.288678874747461
30
0
10
18.66795274790697
20
84.909268302134407
30
0
10
18.944892243409761
20
85.602832133483247
30
0
10
19.26808026680461
20
86.410162089927866
30
0
10
19.661346939962726
20
87.366389394789778
30
0
10
20.143135242318245
20
88.49660761050626
30
0
10
20.722930306608593
20
89.810655656357
30
0
10
21.401876491729727
20
91.304322566404181
30
0
10
22.174175208956459
20
92.961751959820461
30
0
10
23.028211976275472
20
94.75743027726287
30
0
10
23.947797213160001
20
96.658349870305813
30
0
10
24.913358006916397
20
98.626096682999616
30
0
10
25.903151189916031
20
100.61897077400951
30
0
10
26.894466614114023
20
102.59409157800711
30
0
10
27.864836006530599
20
104.50951219548593
30
0
10
28.793236220060699
20
106.32632403548891
30
0
10
29.661302343992894
20
108.0107790301891
30
0
10
30.454519336282331
20
109.536373250154
30
0
10
31.163463104411132
20
110.88601954992824
30
0
10
31.784925699662935
20
112.05401150764411
30
0
10
32.323342837402279
20
113.04853183336169
30
0
10
32.789131441599174
20
113.88859886469041
30
0
10
33.196600764237061
20
114.60024765035831
30
0
10
33.562037303114984
20
115.21301911069199
30
0
10
33.901665242405727
20
115.75623611585227
30
0
10
34.229779388453892
20
116.25556452384288
30
0
10
34.55651846819552
20
116.72898778268822
30
0
10
34.886668804878049
20
117.18445650788314
30
0
10
35.222491653495567
20
117.62406807072509
30
0
10
35.565939872240712
20
118.04726095622776
30
0
10
35.921120983930706
20
118.4543949952254
30
0
10
36.296643203120439
20
118.85017068431773
30
0
10
36.701286705720626
20
119.240584450303
30
0
10
37.139312985195915
20
119.62962237479786
30
0
10
37.60650753539332
20
120.01643188544335
30
0
10
38.08438503087234
20
120.39132493433425
30
0
10
38.54662735163123
20
120.73943845632286
30
0
10
38.969830706343139
20
121.04696605955493
30
0
10
39.341096764579063
20
121.30567889504488
30
0
10
39.670990439972392
20
121.52017152357192
30
0
10
39.98763892831731
20
121.70560515075444
30
0
10
40.319072107106884
20
121.87902067870424
30
0
10
40.674224353281865
20
122.05098312348873
30
0
10
41.043114349456424
20
122.22321792759311
30
0
10
41.411746087189229
20
122.39190451412261
30
0
10
41.775888292064316
20
122.54920438722789
30
0
10
42.142321985096785
20
122.68576124469952
30
0
10
42.519528447962365
20
122.79277402075533
30
0
10
42.909707086767874
20
122.86479494649123
30
0
10
43.307829488679452
20
122.89991845617183
30
0
10
43.706823370427621
20
122.89819829262539
30
0
10
44.101854240948228
20
122.86046855660274
30
0
10
44.490943160471865
20
122.78753890277706
30
0
10
44.872551415398057
20
122.68013045671766
30
0
10
45.24341191311013
20
122.53818259015651
30
0
10
45.599156427483656
20
122.36198076922891
30
0
10
45.936782059091009
20
122.1538154972788
30
0
10
46.257331529926368
20
121.92047302645177
30
0
10
46.565076795439175
20
121.67124151167236
30
0
10
46.864504712820462
20
121.41379330611582
30
0
10
47.157511406355617
20
121.14936460924669
30
0
10
47.442677152641764
20
120.8740589993599
30
0
10
47.71626535043665
20
120.58333006384822
30
0
10
47.972401166268448
20
120.27692048081768
30
0
10
48.204737215387937
20
119.9574665595611
30
0
10
48.408358772287912
20
119.62634373781702
30
0
10
48.582347493504187
20
119.27792889649118
30
0
10
48.728849197235377
20
118.90491571728063
30
0
10
48.850525284502808
20
118.50712069112271
30
0
10
48.94780654464455
20
118.10472620434693
30
0
10
49.019443081685509
20
117.72502777133214
30
0
10
49.064738161469272
20
117.3792216332039
30
0
10
49.085799994416199
20
117.03361551475085
30
0
10
49.087150660229995
20
116.62411173495991
30
0
10
49.073891602578342
20
116.09070898956377
30
0
10
49.050080935852485
20
115.4122975039428
30
0
10
49.018266369525207
20
114.60851320068963
30
0
10
48.979775372367051
20
113.72244603679985
30
0
10
48.934762423094249
20
112.80975463961369
30
0
10
48.882345386817569
20
111.92459384817001
30
0
10
48.820732322346714
20
111.10811693432427
30
0
10
48.747279306621785
20
110.37278685577924
30
0
10
48.658986847199969
20
109.7060504415404
30
0
10
48.553157717706952
20
109.0814229860414
30
0
10
48.42804016502172
20
108.4675684522949
30
0
10
48.283392579274455
20
107.83735915688631
30
0
10
48.121291034987038
20
107.17905646898531
30
0
10
47.945959141308208
20
106.49776658666072
30
0
10
47.762773353036508
20
105.80854155082602
30
0
10
47.577496095001052
20
105.13175496743089
30
0
10
47.395428473429732
20
104.48776963362707
30
0
10
47.220565976237367
20
103.89136296382046
30
0
10
47.054857666957858
20
103.34813863974956
30
0
10
46.897634664286713
20
102.85457203683949
30
0
10
46.745050185037002
20
102.39732447532654
30
0
10
46.589401551318055
20
101.95260153170034
30
0
10
46.418834753619116
20
101.4862265461832
30
0
10
46.219270326270028
20
100.95866925789836
30
0
10
45.976080777522014
20
100.3295097933983
30
0
10
45.675831772310922
20
99.562035284309729
30
0
10
45.308082125901812
20
98.628010767310016
30
0
10
44.865251799866925
20
97.507255411978804
30
0
10
44.342362473730184
20
96.186879631724679
30
0
10
43.736824930653633
20
94.66064659438031
30
0
10
43.048206667970767
20
92.928281198475062
30
0
10
42.278008035450078
20
90.994801705956561
30
0
10
41.429434732703456
20
88.869841706888934
30
0
10
40.507171889278993
20
86.566976282273203
30
0
10
39.517157503823235
20
84.103046481337003
30
0
10
38.466356130558054
20
81.497484415480443
30
0
10
37.362532581297373
20
78.771638484657828
30
0
10
36.214025382838635
20
75.948097737248403
30
0
10
35.029520927741899
20
73.05001856794506
30
0
10
33.817825986247144
20
70.10044590050407
30
0
10
32.587644052357383
20
67.121647241960318
30
0
10
31.347342772819378
20
64.134416792269178
30
0
10
30.104742219936945
20
61.157449534635752
30
0
10
28.866851588208551
20
58.206542155703957
30
0
10
27.63981909852847
20
55.294509810464561
30
0
10
26.429029862799979
20
52.431599664563009
30
0
10
25.239159999588946
20
49.625757549210604
30
0
10
24.074248782595674
20
46.882955161823681
30
0
10
22.937763050554103
20
44.207491286672386
30
0
10
21.832664938798384
20
41.602304168519922
30
0
10
20.761478176029279
20
39.069279076336279
30
0
10
19.726354987275062
20
36.609557896203441
30
0
10
18.729142743345541
20
34.223847901037693
30
0
10
17.771450685530297
20
31.912730724398063
30
0
10
16.854716683115949
20
29.676971576274241
30
0
10
15.980273814711445
20
27.517827582903855
30
0
10
15.149417394166401
20
25.437358304138975
30
0
10
14.363470943983341
20
23.438731153460424
30
0
10
13.623854619977747
20
21.526538708961368
30
0
10
12.9321479410208
20
19.707088433183117
30
0
10
12.29016575451741
20
17.988756545951343
30
0
10
11.700003361282949
20
16.382192444600804
30
0
10
11.164155732493214
20
14.900882195581191
30
0
10
10.685405962991757
20
13.560593843344964
30
0
10
10.266149072109936
20
12.376088438676774
30
0
10
9.9078373710713858
20
11.358417907562782
30
0
10
9.6103546644525863
20
10.511882924639306
30
0
10
9.371473042475948
20
9.8313798936275418
30
0
10
9.1861529782845821
20
9.2990143944024375
30
0
10
9.0461935170627754
20
8.8823510369782266
30
0
10
8.9390433571616015
20
8.5287424801909406
30
0
10
8.8493788432925022
20
8.1725823605511181
30
0
10
8.763768660110788
20
7.7569420618560354
30
0
10
8.675586373484002
20
7.2564194244411508
30
0
10
8.5864221917458394
20
6.6834600213071882
30
0
10
8.5020682602710345
20
6.0691073629026597
30
0
10
8.4300077669099434
20
5.4508208021738884
30
0
10
8.3760012435969298
20
4.8560854765396471
30
0
10
8.3419432843674777
20
4.2918710455617939
30
0
10
8.3277232668264674
20
3.7523920789443919
30
0
10
8.3325136173256737
20
3.2242712066305823
30
0
10
8.356281398390454
20
2.6926838944472746
30
0
10
8.4012051259537639
20
2.1471477799304131
30
0
10
8.4699623895153469
20
1.5825930375030106
30
0
10
8.5638400435286659
20
1.0005251876545496
30
0
10
8.6811777240131356
20
0.40974382429223521
30
0
10
8.8149903722152043
20
-0.17169001482931051
30
0
10
8.9559813344803878
20
-0.72301615478720549
30
0
10
9.0974691084975454
20
-1.2305733124131562
30
0
10
9.2389330036626358
20
-1.6949878643879548
30
0
10
9.3919008728133839
20
-2.1430916504218471
30
0
10
9.5772478276778852
20
-2.6221962465017334
30
0
10
9.8152020908625826
20
-3.1794307523523835
30
0
10
10.118257328411403
20
-3.8468933230595672
30
0
10
10.481018368223211
20
-4.6209026435311991
30
0
10
10.877588655595984
20
-5.45542981212117
30
0
10
11.274117687495458
20
-6.283556854050496
30
0
10
11.637725261811635
20
-7.032589317672465
30
0
10
11.947875513900604
20
-7.6428259518426032
30
0
10
12.204395593223827
20
-8.0821769509587611
30
0
10
12.442524689843957
20
-8.3688421251450187
30
0
10
12.726240567016873
20
-8.5693198274832056
30
0
10
13.11100149011593
20
-8.7596766427591763
30
0
10
13.605383207068574
20
-8.9887447718362772
30
0
10
14.159169653782513
20
-9.2611811204902192
30
0
10
14.700819563062776
20
-9.5596546149103432
30
0
10
15.161681260945983
20
-9.85711348144123
30
0
10
15.508747409636335
20
-10.13410729373385
30
0
10
15.764439807295403
20
-10.390866054713921
30
0
10
15.975212054900162
20
-10.641632018735844
30
0
10
16.184024609844364
20
-10.911157200363652
30
0
10
16.407814842130534
20
-11.230144197477729
30
0
10
16.650574880016482
20
-11.630271935445871
30
0
10
16.912062752099974
20
-12.1387924136897
30
0
10
17.196284650158468
20
-12.774332337014883
30
0
10
17.509139608667983
20
-13.547981214733454
30
0
10
17.857831346571476
20
-14.463642388162782
30
0
10
18.249573079119855
20
-15.518669602684341
30
0
10
18.690602515015506
20
-16.704384842924739
30
0
10
19.185044263862025
20
-18.006640200053788
30
0
10
19.73388304580239
20
-19.406377113420213
30
0
10
20.333768049123449
20
-20.880142653367713
30
0
10
20.977637428514051
20
-22.401259071195312
30
0
10
21.655523334342583
20
-23.941062121439565
30
0
10
22.355292653687087
20
-25.470115030431749
30
0
10
23.063414804144323
20
-26.959431811716598
30
0
10
23.765717919537966
20
-28.381698688087305
30
0
10
24.44814993568739
20
-29.71249141995699
30
0
10
25.097537763433614
20
-30.931505870292021
30
0
10
25.702346832712358
20
-32.02375634707127
30
0
10
26.25344157034613
20
-32.980849673502703
30
0
10
26.744842924279713
20
-33.802081552767888
30
0
10
27.17449514886151
20
-34.495985743904605
30
0
10
27.544924912283779
20
-35.079114951055153
30
0
10
27.86378707071546
20
-35.574004014983331
30
0
10
28.144592798394935
20
-36.007415969980286
30
0
10
28.407037673647512
20
-36.408450340816849
30
0
10
28.678312081181367
20
-36.80676040627668
30
0
10
28.990205497271386
20
-37.230460397080989
30
0
10
29.373207747912581
20
-37.703721822509188
30
0
10
29.851906159818164
20
-38.244668942228003
30
0
10
30.438933198407881
20
-38.862673912648901
30
0
10
31.132687468410843
20
-39.557552891417352
30
0
10
31.921043510846921
20
-40.32191369275899
30
0
10
32.783703032864892
20
-41.14278276635693
30
0
10
33.695090303868895
20
-42.003520922951409
30
0
10
34.627018407013601
20
-42.885618023800156
30
0
10
35.551445779862561
20
-43.770533983175781
30
0
10
36.443213083330612
20
-44.641533160006325
30
0
10
37.282743153254117
20
-45.485490087772305
30
0
10
38.058880919365031
20
-46.294793587310608
30
0
10
38.767520549233026
20
-47.066342823918518
30
0
10
39.410074926676486
20
-47.800437830201261
30
0
10
39.99199139888502
20
-48.499694874912329
30
0
10
40.521274079736934
20
-49.167982577139142
30
0
10
41.006942990629568
20
-49.80927681084929
30
0
10
41.457661898201721
20
-50.426719994455389
30
0
10
41.879934865213244
20
-51.021163359249904
30
0
10
42.278341026057447
20
-51.592133926946843
30
0
10
42.65671956876038
20
-52.139892733437193
30
0
10
43.019131369987676
20
-52.667304028467839
30
0
10
43.370744997279552
20
-53.18143988407985
30
0
10
43.719168230313642
20
-53.696140060171452
30
0
10
44.073962581117769
20
-54.230847469215284
30
0
10
44.444376536785541
20
-54.805812596204213
30
0
10
44.837478045673492
20
-55.438122850244781
30
0
10
45.256310424395643
20
-56.137748071484317
30
0
10
45.697590019792599
20
-56.902730577571973
30
0
10
46.151099618508155
20
-57.717581897813652
30
0
10
46.60257493400853
20
-58.558316365093958
30
0
10
47.035874598641158
20
-59.396101786055048
30
0
10
47.435378373159395
20
-60.201397028803413
30
0
10
47.788421739273296
20
-60.948033571912561
30
0
10
48.087401202537457
20
-61.616965440278086
30
0
10
48.332823278362312
20
-62.20106189955559
30
0
10
48.531527413882955
20
-62.704792437828047
30
0
10
48.692372387747078
20
-63.141986216722174
30
0
10
48.823249983515744
20
-63.533466752471675
30
0
10
48.92633615620322
20
-63.906436579226721
30
0
10
48.99843906770964
20
-64.287412806931712
30
0
10
49.035951319067394
20
-64.691760891058848
30
0
10
49.040447433128627
20
-65.107655785522411
30
0
10
49.017909801960215
20
-65.503944327807176
30
0
10
48.971807832194109
20
-65.85899410462487
30
0
10
48.894819744174995
20
-66.194976980854548
30
0
10
48.77146710233027
20
-66.572003780996894
30
0
10
48.591659596468162
20
-67.041702725537277
30
0
10
48.364719470268412
20
-67.600249433618302
30
0
10
48.120725370370401
20
-68.183586521521335
30
0
10
47.895939600903588
20
-68.71709040001609
30
0
10
47.723389449536185
20
-69.146516439600418
30
0
10
47.619536747431319
20
-69.485155806015058
30
0
10
47.578239321549532
20
-69.827603062185673
30
0
10
47.582099684832983
20
-70.284505329296138
30
0
10
47.611738822417223
20
-70.923318132160432
30
0
10
47.653074649915411
20
-71.729628000457978
30
0
10
47.69537119068309
20
-72.642319867670992
30
0
10
47.731133184218749
20
-73.574007851960218
30
0
10
47.755249593387106
20
-74.438274109855854
30
0
10
47.764487120381517
20
-75.171849183943294
30
0
10
47.75676295952205
20
-75.764169677165285
30
0
10
47.730745193156075
20
-76.266533139052285
30
0
10
47.686027986983753
20
-76.757054716899248
30
0
10
47.623186128754142
20
-77.315224452930991
30
0
10
47.543896577363057
20
-77.991313750473495
30
0
10
47.45097645948028
20
-78.781761806846902
30
0
10
47.347785164606002
20
-79.647746105629764
30
0
10
47.237679417685584
20
-80.530390543502293
30
0
10
47.123438682216857
20
-81.367498067013599
30
0
10
47.006725114375243
20
-82.109051428135956
30
0
10
46.887476384736004
20
-82.734634708651882
30
0
10
46.76348143914354
20
-83.265938307980889
30
0
10
46.63114713367105
20
-83.748078752588398
30
0
10
46.486135737213026
20
-84.234049777527332
30
0
10
46.324053653127741
20
-84.768427588468285
30
0
10
46.141115273981285
20
-85.370181359095838
30
0
10
45.934781463817316
20
-86.03733229281255
30
0
10
45.704351419474882
20
-86.753410397271566
30
0
10
45.451647651029958
20
-87.493350356095249
30
0
10
45.181488778008415
20
-88.229408923800193
30
0
10
44.902697159128039
20
-88.93763023552151
30
0
10
44.625984147903566
20
-89.60028074491477
30
0
10
44.361004783501237
20
-90.206891312316088
30
0
10
44.113476159850286
20
-90.755986713910374
30
0
10
43.882748365944913
20
-91.256034369523107
30
0
10
43.657983449129532
20
-91.72796182042417
30
0
10
43.420447149668149
20
-92.201296726467575
30
0
10
43.150256616824699
20
-92.705635074605624
30
0
10
42.831303341656692
20
-93.264154594198573
30
0
10
42.458072418559631
20
-93.884774735680367
30
0
10
42.037726845762876
20
-94.557503802218861
30
0
10
41.584413520605317
20
-95.262078748081649
30
0
10
41.115408264590741
20
-95.973172036592445
30
0
10
40.646311627520703
20
-96.666841237953051
30
0
10
40.187137306051554
20
-97.325834073984012
30
0
10
39.73682697137739
20
-97.946884406393167
30
0
10
39.282723242804991
20
-98.541758143359317
30
0
10
38.807205920982902
20
-99.129272711455357
30
0
10
38.292458245936245
20
-99.729677217710631
30
0
10
37.726294381655904
20
-100.35768373068171
30
0
10
37.106827772574945
20
-101.01698708635224
30
0
10
36.449370606475611
20
-101.69190391712766
30
0
10
35.785851142351255
20
-102.3487125394829
30
0
10
35.155051964524098
20
-102.94908518165344
30
0
10
34.595487243800633
20
-103.45979409271806
30
0
10
34.136581304516511
20
-103.86529429731783
30
0
10
33.792021261340963
20
-104.17592830545773
30
0
10
33.548617097561831
20
-104.44573518392008
30
0
10
33.370720163667315
20
-104.75693069417576
30
0
10
33.21817070847964
20
-105.17761979095579
30
0
10
33.063941509087783
20
-105.71605754970005
30
0
10
32.899412702441133
20
-106.31643970479175
30
0
10
32.725203164247894
20
-106.90151992053742
30
0
10
32.546369111031559
20
-107.39937999513097
30
0
10
32.36512411860614
20
-107.78299503429524
30
0
10
32.176827357255668
20
-108.08449534410173
30
0
10
31.972396791076267
20
-108.35651246399173
30
0
10
31.73935427007634
20
-108.63819589146817
30
0
10
31.464006741124887
20
-108.93448660640303
30
0
10
31.134559749069652
20
-109.2371019360187
30
0
10
30.744690594462387
20
-109.53910699307825
30
0
10
30.295161385191808
20
-109.84569972876757
30
0
10
29.790655698657616
20
-110.16660484913119
30
0
10
29.237633217978903
20
-110.51257009270768
30
0
10
28.641656524161426
20
-110.89002804324083
30
0
10
28.005291324558268
20
-111.29705489073993
30
0
10
27.330468287770941
20
-111.72558970505708
30
0
10
26.620503621361348
20
-112.16329124872314
30
0
10
25.882320617228139
20
-112.59553714038744
30
0
10
25.128420603101866
20
-113.00733788548136
30
0
10
24.379355131184795
20
-113.38534675699024
30
0
10
23.664824842855566
20
-113.71965505699124
30
0
10
23.015046376785662
20
-114.00417711591955
30
0
10
22.453187440095931
20
-114.23716457601722
30
0
10
21.98724704768507
20
-114.42169956120345
30
0
10
21.602505092088688
20
-114.56613120696755
30
0
10
21.252830470133315
20
-114.68471313294954
30
0
10
20.888897104614838
20
-114.79098629886806
30
0
10
20.486811005931433
20
-114.89107717880637
30
0
10
20.077984177826053
20
-114.97674963928725
30
0
10
19.705819433459769
20
-115.033288336102
30
0
10
19.381132415769748
20
-115.04767672276762
30
0
10
19.03702752179673
20
-115.01678278107894
30
0
10
18.580175025753263
20
-114.94434710737785
30
0
10
17.94330070945049
20
-114.8378122464252
30
0
10
17.137449018364897
20
-114.70520349546645
30
0
10
16.227405646922275
20
-114.5546396229808
30
0
10
15.306829562667424
20
-114.39385690193717
30
0
10
14.4733912760077
20
-114.22974068217908
30
0
10
13.804150961379108
20
-114.0678240461461
30
0
10
13.330260090038887
20
-113.91187053452519
30
0
10
13.013554277277162
20
-113.76323326528851
30
0
10
12.77535406272497
20
-113.61548282452378
30
0
10
12.523951992821535
20
-113.44889439820187
30
0
10
12.181720251999895
20
-113.22567685818287
30
0
10
11.688409820150707
20
-112.90146874275018
30
0
10
11.005737924537423
20
-112.43651652328936
30
0
10
10.121021024620013
20
-111.80628452754974
30
0
10
9.05240415249013
20
-111.01407181554927
30
0
10
7.8428674866638239
20
-110.08714372037898
30
0
10
6.5520833934805243
20
-109.06961128361225
30
0
10
5.2490197367705607
20
-108.01644199592657
30
0
10
4.0042211724231001
20
-106.9869894455944
30
0
10
2.8822490320635312
20
-106.03874318536893
30
0
10
1.9340059160737422
20
-105.22095246935301
30
0
10
1.1892188838514164
20
-104.56837699133769
30
0
10
0.64860029642449624
20
-104.09481346992534
30
0
10
0.27674605437431454
20
-103.78711812314353
30
0
10
-0.0068954280508960516
20
-103.59793800686407
30
0
10
-0.29165578847395945
20
-103.46914871645811
30
0
10
-0.63820630353917673
20
-103.35611218638596
30
0
10
-1.0394497446872459
20
-103.25281652298337
30
0
10
-1.4557579797271947
20
-103.17408109821338
30
0
10
-1.8524320886228174
20
-103.13640216658357
30
0
10
-2.2373274502254881
20
-103.13887172632577
30
0
10
-2.6333506339224355
20
-103.17271753972763
30
0
10
-3.0498189278155374
20
-103.23140013679898
30
0
10
-3.453770738460828
20
-103.32062821361447
30
0
10
-3.7977342281286712
20
-103.45801984437085
30
0
10
-4.0485963759524921
20
-103.67281447053446
30
0
10
-4.2152104454463872
20
-104.00510548557409
30
0
10
-4.3292998202160788
20
-104.4860465244947
30
0
10
-4.4266474406575727
20
-105.11746739958861
30
0
10
-4.5294063750096294
20
-105.85399188577443
30
0
10
-4.6489463669217894
20
-106.62430778704635
30
0
10
-4.7875301811318876
20
-107.34993423841046
30
0
10
-4.9403047354102574
20
-107.965364665005
30
0
10
-5.0974578421598062
20
-108.43664051451685
30
0
10
-5.2455272935243249
20
-108.78323332148547
30
0
10
-5.3788710498520809
20
-109.05839387243576
30
0
10
-5.5109169519242798
20
-109.32605067557185
30
0
10
-5.6880634066899951
20
-109.63806678503209
30
0
10
-5.9629733173713841
20
-110.02683193467325
30
0
10
-6.3656633502941204
20
-110.4999576870338
30
0
10
-6.8725751003146529
20
-111.0330729665033
30
0
10
-7.4265868701290945
20
-111.58311498331692
30
0
10
-7.960509071751166
20
-112.10265976166043
30
0
10
-8.4203647316492116
20
-112.55455475511252
30
0
10
-8.7863492961050085
20
-112.92489733572023
30
0
10
-9.101035549803683
20
-113.24067696664029
30
0
10
-9.4509658309492615
20
-113.55789708577673
30
0
10
-9.9329504689072969
20
-113.94004449960357
30
0
10
-10.628134824207036
20
-114.44145159678662
30
0
10
-11.566526902034775
20
-115.08466332672884
30
0
10
-12.721918299169513
20
-115.85688770899772
30
0
10
-14.030876758904714
20
-116.72155836199781
30
0
10
-15.404967645235564
20
-117.62564451119067
30
0
10
-16.745706670806165
20
-118.50868035383671
30
0
10
-17.95844819642986
20
-119.31111490397669
30
0
10
-18.966485822514766
20
-119.98282142088374
30
0
10
-19.725632684442015
20
-120.49184676653788
30
0
10
-20.237266397424829
20
-120.83233931660438
30
0
10
-20.565197614135325
20
-121.0345400826331
30
0
10
-20.841806278433651
20
-121.16896661374204
30
0
10
-21.205422449258641
20
-121.31304496139006
30
0
10
-21.740045398380083
20
-121.51923025868132
30
0
10
-22.426041323897724
20
-121.78849926191103
30
0
10
-23.184853318690518
20
-122.09091667592051
30
0
10
-23.913240087838972
20
-122.38095720640064
30
0
10
-24.521852983948975
20
-122.61496941202614
30
0
10
-24.971302345512377
20
-122.76746900497693
30
0
10
-25.311109572125208
20
-122.8486404359048
30
0
10
-25.627938023726848
20
-122.88606562307122
30
0
10
-25.992292097446029
20
-122.9058169192262
30
0
10
-26.404557236048795
20
-122.91340828323817
30
0
10
-26.829423231727866
20
-122.90203320949226
30
0
10
-27.231724365696955
20
-122.86127657743094
30
0
10
-27.536036455913798
20
-122.80081690666822
30
0
10
-27.761860326708174
20
-122.7398692396186
30
0
10
-27.91293684995545
20
-122.69313418112347
30
0
10
-27.988600000000005
20
-122.66840000000001
30
0
0
ENDSEC
0
SECTION
2
OBJECTS
0
DICTIONARY
5
C
100
AcDbDictionary
3
ACAD_GROUP
350
D
3
ACAD_MLINESTYLE
350
17
0
DICTIONARY
5
D
100
AcDbDictionary
0
DICTIONARY
5
1A
330
C
100
AcDbDictionary
0
DICTIONARY
5
17
100
AcDbDictionary
0
ENDSEC
0
EOF
