0
SECTION
2
HEADER
9
$INSUNITS
70
4
9
$ACADVER
1
AC1014
9
$HANDSEED
5
FFFF
0
ENDSEC
0
SECTION
2
TABLES
0
TABLE
2
VPORT
5
8
100
AcDbSymbolTable
0
ENDTAB
0
TABLE
2
LTYPE
5
5
100
AcDbSymbolTable
0
LTYPE
5
14
100
AcDbSymbolTableRecord
100
AcDbLinetypeTableRecord
2
BYBLOCK
70
0
0
LTYPE
5
15
100
AcDbSymbolTableRecord
100
AcDbLinetypeTableRecord
2
BYLAYER
70
0
0
LTYPE
5
16
100
AcDbSymbolTableRecord
100
AcDbLinetypeTableRecord
2
DASHED
70
0
3
Dashed __ __ __ __ __ __ __ __ __ __ __ __ __ _
72
65
73
2
40
0.75
49
0.5
74
0
49
-0.25
74
0
0
ENDTAB
0
TABLE
2
LAYER
5
2
100
AcDbSymbolTable
70
2
0
LAYER
5
50
100
AcDbSymbolTableRecord
100
AcDbLayerTableRecord
2
0
70
0
62
7
6
CONTINUOUS
0
ENDTAB
0
TABLE
2
STYLE
5
3
100
AcDbSymbolTable
70
1
0
STYLE
5
11
100
AcDbSymbolTableRecord
100
AcDbTextStyleTableRecord
2
STANDARD
70
0
0
ENDTAB
0
TABLE
2
VIEW
5
6
100
AcDbSymbolTable
70
0
0
ENDTAB
0
TABLE
2
UCS
5
7
100
AcDbSymbolTable
70
0
0
ENDTAB
0
TABLE
2
APPID
5
9
100
AcDbSymbolTable
70
2
0
APPID
5
12
100
AcDbSymbolTableRecord
100
AcDbRegAppTableRecord
2
ACAD
70
0
0
ENDTAB
0
TABLE
2
DIMSTYLE
5
A
100
AcDbSymbolTable
70
1
0
ENDTAB
0
TABLE
2
BLOCK_RECORD
5
1
100
AcDbSymbolTable
70
1
0
BLOCK_RECORD
5
1F
100
AcDbSymbolTableRecord
100
AcDbBlockTableRecord
2
*MODEL_SPACE
0
BLOCK_RECORD
5
1B
100
AcDbSymbolTableRecord
100
AcDbBlockTableRecord
2
*PAPER_SPACE
0
ENDTAB
0
ENDSEC
0
SECTION
2
BLOCKS
0
BLOCK
5
20
100
AcDbEntity
100
AcDbBlockBegin
2
*MODEL_SPACE
0
ENDBLK
5
21
100
AcDbEntity
100
AcDbBlockEnd
0
BLOCK
5
1C
100
AcDbEntity
100
AcDbBlockBegin
2
*PAPER_SPACE
0
ENDBLK
5
1D
100
AcDbEntity
100
AcDbBlockEnd
0
ENDSEC
0
SECTION
2
ENTITIES
0
SPLINE
5
100
100
AcDbEntity
8
0
100
AcDbSpline
70
6
71
5
72
846
73
840
74
0
42
0.000000001
43
0.0000000001
44
0.0000000001
40
0
40
0
40
0
40
0
40
0
40
0
40
0.0011976047904191617
40
0.0023952095808383233
40
0.003592814371257485
40
0.0047904191616766467
40
0.0059880239520958087
40
0.0071856287425149708
40
0.0083832335329341329
40
0.009580838323353295
40
0.010778443113772457
40
0.011976047904191619
40
0.013173652694610781
40
0.014371257485029943
40
0.015568862275449106
40
0.016766467065868266
40
0.017964071856287428
40
0.01916167664670659
40
0.020359281437125752
40
0.021556886227544914
40
0.022754491017964076
40
0.023952095808383238
40
0.025149700598802401
40
0.026347305389221563
40
0.027544910179640725
40
0.028742514970059887
40
0.029940119760479049
40
0.031137724550898211
40
0.032335329341317373
40
0.033532934131736532
40
0.03473053892215569
40
0.035928143712574849
40
0.037125748502994008
40
0.038323353293413166
40
0.039520958083832325
40
0.040718562874251484
40
0.041916167664670642
40
0.043113772455089801
40
0.044311377245508959
40
0.045508982035928118
40
0.046706586826347277
40
0.047904191616766435
40
0.049101796407185594
40
0.050299401197604753
40
0.051497005988023911
40
0.05269461077844307
40
0.053892215568862228
40
0.055089820359281387
40
0.056287425149700546
40
0.057485029940119704
40
0.058682634730538863
40
0.059880239520958022
40
0.06107784431137718
40
0.062275449101796339
40
0.063473053892215497
40
0.064670658682634663
40
0.065868263473053829
40
0.067065868263472994
40
0.06826347305389216
40
0.069461077844311325
40
0.070658682634730491
40
0.071856287425149656
40
0.073053892215568822
40
0.074251497005987988
40
0.075449101796407153
40
0.076646706586826319
40
0.077844311377245484
40
0.07904191616766465
40
0.080239520958083815
40
0.081437125748502981
40
0.082634730538922146
40
0.083832335329341312
40
0.085029940119760478
40
0.086227544910179643
40
0.087425149700598809
40
0.088622754491017974
40
0.08982035928143714
40
0.091017964071856305
40
0.092215568862275471
40
0.093413173652694637
40
0.094610778443113802
40
0.095808383233532968
40
0.097005988023952133
40
0.098203592814371299
40
0.099401197604790464
40
0.10059880239520963
40
0.1017964071856288
40
0.10299401197604796
40
0.10419161676646713
40
0.10538922155688629
40
0.10658682634730546
40
0.10778443113772462
40
0.10898203592814379
40
0.11017964071856295
40
0.11137724550898212
40
0.11257485029940129
40
0.11377245508982045
40
0.11497005988023962
40
0.11616766467065878
40
0.11736526946107795
40
0.11856287425149711
40
0.11976047904191628
40
0.12095808383233544
40
0.12215568862275461
40
0.12335329341317378
40
0.12455089820359294
40
0.12574850299401211
40
0.12694610778443127
40
0.12814371257485044
40
0.1293413173652696
40
0.13053892215568877
40
0.13173652694610793
40
0.1329341317365271
40
0.13413173652694627
40
0.13532934131736543
40
0.1365269461077846
40
0.13772455089820376
40
0.13892215568862293
40
0.14011976047904209
40
0.14131736526946126
40
0.14251497005988042
40
0.14371257485029959
40
0.14491017964071876
40
0.14610778443113792
40
0.14730538922155709
40
0.14850299401197625
40
0.14970059880239542
40
0.15089820359281458
40
0.15209580838323375
40
0.15329341317365291
40
0.15449101796407208
40
0.15568862275449125
40
0.15688622754491041
40
0.15808383233532958
40
0.15928143712574874
40
0.16047904191616791
40
0.16167664670658707
40
0.16287425149700624
40
0.1640718562874254
40
0.16526946107784457
40
0.16646706586826374
40
0.1676646706586829
40
0.16886227544910207
40
0.17005988023952123
40
0.1712574850299404
40
0.17245508982035956
40
0.17365269461077873
40
0.1748502994011979
40
0.17604790419161706
40
0.17724550898203623
40
0.17844311377245539
40
0.17964071856287456
40
0.18083832335329372
40
0.18203592814371289
40
0.18323353293413205
40
0.18443113772455122
40
0.18562874251497039
40
0.18682634730538955
40
0.18802395209580872
40
0.18922155688622788
40
0.19041916167664705
40
0.19161676646706621
40
0.19281437125748538
40
0.19401197604790454
40
0.19520958083832371
40
0.19640718562874288
40
0.19760479041916204
40
0.19880239520958121
40
0.20000000000000037
40
0.20119760479041954
40
0.2023952095808387
40
0.20359281437125787
40
0.20479041916167703
40
0.2059880239520962
40
0.20718562874251537
40
0.20838323353293453
40
0.2095808383233537
40
0.21077844311377286
40
0.21197604790419203
40
0.21317365269461119
40
0.21437125748503036
40
0.21556886227544952
40
0.21676646706586869
40
0.21796407185628786
40
0.21916167664670702
40
0.22035928143712619
40
0.22155688622754535
40
0.22275449101796452
40
0.22395209580838368
40
0.22514970059880285
40
0.22634730538922201
40
0.22754491017964118
40
0.22874251497006035
40
0.22994011976047951
40
0.23113772455089868
40
0.23233532934131784
40
0.23353293413173701
40
0.23473053892215617
40
0.23592814371257534
40
0.2371257485029945
40
0.23832335329341367
40
0.23952095808383284
40
0.240718562874252
40
0.24191616766467117
40
0.24311377245509033
40
0.2443113772455095
40
0.24550898203592866
40
0.24670658682634783
40
0.24790419161676699
40
0.24910179640718616
40
0.2502994011976053
40
0.25149700598802444
40
0.25269461077844357
40
0.25389221556886271
40
0.25508982035928185
40
0.25628742514970099
40
0.25748502994012012
40
0.25868263473053926
40
0.2598802395209584
40
0.26107784431137754
40
0.26227544910179668
40
0.26347305389221581
40
0.26467065868263495
40
0.26586826347305409
40
0.26706586826347323
40
0.26826347305389237
40
0.2694610778443115
40
0.27065868263473064
40
0.27185628742514978
40
0.27305389221556892
40
0.27425149700598805
40
0.27544910179640719
40
0.27664670658682633
40
0.27784431137724547
40
0.27904191616766461
40
0.28023952095808374
40
0.28143712574850288
40
0.28263473053892202
40
0.28383233532934116
40
0.28502994011976029
40
0.28622754491017943
40
0.28742514970059857
40
0.28862275449101771
40
0.28982035928143685
40
0.29101796407185598
40
0.29221556886227512
40
0.29341317365269426
40
0.2946107784431134
40
0.29580838323353253
40
0.29700598802395167
40
0.29820359281437081
40
0.29940119760478995
40
0.30059880239520909
40
0.30179640718562822
40
0.30299401197604736
40
0.3041916167664665
40
0.30538922155688564
40
0.30658682634730478
40
0.30778443113772391
40
0.30898203592814305
40
0.31017964071856219
40
0.31137724550898133
40
0.31257485029940046
40
0.3137724550898196
40
0.31497005988023874
40
0.31616766467065788
40
0.31736526946107702
40
0.31856287425149615
40
0.31976047904191529
40
0.32095808383233443
40
0.32215568862275357
40
0.3233532934131727
40
0.32455089820359184
40
0.32574850299401098
40
0.32694610778443012
40
0.32814371257484926
40
0.32934131736526839
40
0.33053892215568753
40
0.33173652694610667
40
0.33293413173652581
40
0.33413173652694494
40
0.33532934131736408
40
0.33652694610778322
40
0.33772455089820236
40
0.3389221556886215
40
0.34011976047904063
40
0.34131736526945977
40
0.34251497005987891
40
0.34371257485029805
40
0.34491017964071718
40
0.34610778443113632
40
0.34730538922155546
40
0.3485029940119746
40
0.34970059880239374
40
0.35089820359281287
40
0.35209580838323201
40
0.35329341317365115
40
0.35449101796407029
40
0.35568862275448943
40
0.35688622754490856
40
0.3580838323353277
40
0.35928143712574684
40
0.36047904191616598
40
0.36167664670658511
40
0.36287425149700425
40
0.36407185628742339
40
0.36526946107784253
40
0.36646706586826167
40
0.3676646706586808
40
0.36886227544909994
40
0.37005988023951908
40
0.37125748502993822
40
0.37245508982035735
40
0.37365269461077649
40
0.37485029940119563
40
0.37604790419161477
40
0.37724550898203391
40
0.37844311377245304
40
0.37964071856287218
40
0.38083832335329132
40
0.38203592814371046
40
0.38323353293412959
40
0.38443113772454873
40
0.38562874251496787
40
0.38682634730538701
40
0.38802395209580615
40
0.38922155688622528
40
0.39041916167664442
40
0.39161676646706356
40
0.3928143712574827
40
0.39401197604790184
40
0.39520958083832097
40
0.39640718562874011
40
0.39760479041915925
40
0.39880239520957839
40
0.39999999999999752
40
0.40119760479041666
40
0.4023952095808358
40
0.40359281437125494
40
0.40479041916167408
40
0.40598802395209321
40
0.40718562874251235
40
0.40838323353293149
40
0.40958083832335063
40
0.41077844311376976
40
0.4119760479041889
40
0.41317365269460804
40
0.41437125748502718
40
0.41556886227544632
40
0.41676646706586545
40
0.41796407185628459
40
0.41916167664670373
40
0.42035928143712287
40
0.421556886227542
40
0.42275449101796114
40
0.42395209580838028
40
0.42514970059879942
40
0.42634730538921856
40
0.42754491017963769
40
0.42874251497005683
40
0.42994011976047597
40
0.43113772455089511
40
0.43233532934131425
40
0.43353293413173338
40
0.43473053892215252
40
0.43592814371257166
40
0.4371257485029908
40
0.43832335329340993
40
0.43952095808382907
40
0.44071856287424821
40
0.44191616766466735
40
0.44311377245508649
40
0.44431137724550562
40
0.44550898203592476
40
0.4467065868263439
40
0.44790419161676304
40
0.44910179640718217
40
0.45029940119760131
40
0.45149700598802045
40
0.45269461077843959
40
0.45389221556885873
40
0.45508982035927786
40
0.456287425149697
40
0.45748502994011614
40
0.45868263473053528
40
0.45988023952095441
40
0.46107784431137355
40
0.46227544910179269
40
0.46347305389221183
40
0.46467065868263097
40
0.4658682634730501
40
0.46706586826346924
40
0.46826347305388838
40
0.46946107784430752
40
0.47065868263472666
40
0.47185628742514579
40
0.47305389221556493
40
0.47425149700598407
40
0.47544910179640321
40
0.47664670658682234
40
0.47784431137724148
40
0.47904191616766062
40
0.48023952095807976
40
0.4814371257484989
40
0.48263473053891803
40
0.48383233532933717
40
0.48502994011975631
40
0.48622754491017545
40
0.48742514970059458
40
0.48862275449101372
40
0.48982035928143286
40
0.491017964071852
40
0.49221556886227114
40
0.49341317365269027
40
0.49461077844310941
40
0.49580838323352855
40
0.49700598802394769
40
0.49820359281436682
40
0.49940119760478596
40
0.50059880239520516
40
0.50179640718562435
40
0.50299401197604354
40
0.50419161676646274
40
0.50538922155688193
40
0.50658682634730112
40
0.50778443113772032
40
0.50898203592813951
40
0.5101796407185587
40
0.5113772455089779
40
0.51257485029939709
40
0.51377245508981628
40
0.51497005988023548
40
0.51616766467065467
40
0.51736526946107386
40
0.51856287425149306
40
0.51976047904191225
40
0.52095808383233144
40
0.52215568862275064
40
0.52335329341316983
40
0.52455089820358902
40
0.52574850299400822
40
0.52694610778442741
40
0.5281437125748466
40
0.5293413173652658
40
0.53053892215568499
40
0.53173652694610418
40
0.53293413173652338
40
0.53413173652694257
40
0.53532934131736176
40
0.53652694610778096
40
0.53772455089820015
40
0.53892215568861934
40
0.54011976047903854
40
0.54131736526945773
40
0.54251497005987692
40
0.54371257485029612
40
0.54491017964071531
40
0.5461077844311345
40
0.5473053892215537
40
0.54850299401197289
40
0.54970059880239208
40
0.55089820359281128
40
0.55209580838323047
40
0.55329341317364966
40
0.55449101796406886
40
0.55568862275448805
40
0.55688622754490724
40
0.55808383233532644
40
0.55928143712574563
40
0.56047904191616482
40
0.56167664670658402
40
0.56287425149700321
40
0.5640718562874224
40
0.5652694610778416
40
0.56646706586826079
40
0.56766467065867998
40
0.56886227544909918
40
0.57005988023951837
40
0.57125748502993756
40
0.57245508982035676
40
0.57365269461077595
40
0.57485029940119514
40
0.57604790419161434
40
0.57724550898203353
40
0.57844311377245272
40
0.57964071856287191
40
0.58083832335329111
40
0.5820359281437103
40
0.58323353293412949
40
0.58443113772454869
40
0.58562874251496788
40
0.58682634730538707
40
0.58802395209580627
40
0.58922155688622546
40
0.59041916167664465
40
0.59161676646706385
40
0.59281437125748304
40
0.59401197604790223
40
0.59520958083832143
40
0.59640718562874062
40
0.59760479041915981
40
0.59880239520957901
40
0.5999999999999982
40
0.60119760479041739
40
0.60239520958083659
40
0.60359281437125578
40
0.60479041916167497
40
0.60598802395209417
40
0.60718562874251336
40
0.60838323353293255
40
0.60958083832335175
40
0.61077844311377094
40
0.61197604790419013
40
0.61317365269460933
40
0.61437125748502852
40
0.61556886227544771
40
0.61676646706586691
40
0.6179640718562861
40
0.61916167664670529
40
0.62035928143712449
40
0.62155688622754368
40
0.62275449101796287
40
0.62395209580838207
40
0.62514970059880126
40
0.62634730538922045
40
0.62754491017963965
40
0.62874251497005884
40
0.62994011976047803
40
0.63113772455089723
40
0.63233532934131642
40
0.63353293413173561
40
0.63473053892215481
40
0.635928143712574
40
0.63712574850299319
40
0.63832335329341239
40
0.63952095808383158
40
0.64071856287425077
40
0.64191616766466997
40
0.64311377245508916
40
0.64431137724550835
40
0.64550898203592755
40
0.64670658682634674
40
0.64790419161676593
40
0.64910179640718513
40
0.65029940119760432
40
0.65149700598802351
40
0.65269461077844271
40
0.6538922155688619
40
0.65508982035928109
40
0.65628742514970029
40
0.65748502994011948
40
0.65868263473053867
40
0.65988023952095787
40
0.66107784431137706
40
0.66227544910179625
40
0.66347305389221545
40
0.66467065868263464
40
0.66586826347305383
40
0.66706586826347303
40
0.66826347305389222
40
0.66946107784431141
40
0.67065868263473061
40
0.6718562874251498
40
0.67305389221556899
40
0.67425149700598819
40
0.67544910179640738
40
0.67664670658682657
40
0.67784431137724577
40
0.67904191616766496
40
0.68023952095808415
40
0.68143712574850335
40
0.68263473053892254
40
0.68383233532934173
40
0.68502994011976093
40
0.68622754491018012
40
0.68742514970059931
40
0.68862275449101851
40
0.6898203592814377
40
0.69101796407185689
40
0.69221556886227609
40
0.69341317365269528
40
0.69461077844311447
40
0.69580838323353367
40
0.69700598802395286
40
0.69820359281437205
40
0.69940119760479125
40
0.70059880239521044
40
0.70179640718562963
40
0.70299401197604883
40
0.70419161676646802
40
0.70538922155688721
40
0.70658682634730641
40
0.7077844311377256
40
0.70898203592814479
40
0.71017964071856399
40
0.71137724550898318
40
0.71257485029940237
40
0.71377245508982157
40
0.71497005988024076
40
0.71616766467065995
40
0.71736526946107915
40
0.71856287425149834
40
0.71976047904191753
40
0.72095808383233673
40
0.72215568862275592
40
0.72335329341317511
40
0.72455089820359431
40
0.7257485029940135
40
0.72694610778443269
40
0.72814371257485189
40
0.72934131736527108
40
0.73053892215569027
40
0.73173652694610947
40
0.73293413173652866
40
0.73413173652694785
40
0.73532934131736705
40
0.73652694610778624
40
0.73772455089820543
40
0.73892215568862463
40
0.74011976047904382
40
0.74131736526946301
40
0.74251497005988221
40
0.7437125748503014
40
0.74491017964072059
40
0.74610778443113979
40
0.74730538922155898
40
0.74850299401197817
40
0.74970059880239737
40
0.75089820359281656
40
0.75209580838323575
40
0.75329341317365495
40
0.75449101796407414
40
0.75568862275449333
40
0.75688622754491253
40
0.75808383233533172
40
0.75928143712575091
40
0.76047904191617011
40
0.7616766467065893
40
0.76287425149700849
40
0.76407185628742769
40
0.76526946107784688
40
0.76646706586826607
40
0.76766467065868527
40
0.76886227544910446
40
0.77005988023952365
40
0.77125748502994285
40
0.77245508982036204
40
0.77365269461078123
40
0.77485029940120043
40
0.77604790419161962
40
0.77724550898203881
40
0.77844311377245801
40
0.7796407185628772
40
0.78083832335329639
40
0.78203592814371559
40
0.78323353293413478
40
0.78443113772455397
40
0.78562874251497317
40
0.78682634730539236
40
0.78802395209581155
40
0.78922155688623075
40
0.79041916167664994
40
0.79161676646706913
40
0.79281437125748833
40
0.79401197604790752
40
0.79520958083832671
40
0.79640718562874591
40
0.7976047904191651
40
0.79880239520958429
40
0.80000000000000349
40
0.80119760479042268
40
0.80239520958084187
40
0.80359281437126107
40
0.80479041916168026
40
0.80598802395209945
40
0.80718562874251865
40
0.80838323353293784
40
0.80958083832335703
40
0.81077844311377623
40
0.81197604790419542
40
0.81317365269461461
40
0.81437125748503381
40
0.815568862275453
40
0.81676646706587219
40
0.81796407185629139
40
0.81916167664671058
40
0.82035928143712977
40
0.82155688622754897
40
0.82275449101796816
40
0.82395209580838735
40
0.82514970059880655
40
0.82634730538922574
40
0.82754491017964493
40
0.82874251497006413
40
0.82994011976048332
40
0.83113772455090251
40
0.83233532934132171
40
0.8335329341317409
40
0.83473053892216009
40
0.83592814371257929
40
0.83712574850299848
40
0.83832335329341767
40
0.83952095808383687
40
0.84071856287425606
40
0.84191616766467525
40
0.84311377245509445
40
0.84431137724551364
40
0.84550898203593283
40
0.84670658682635203
40
0.84790419161677122
40
0.84910179640719041
40
0.85029940119760961
40
0.8514970059880288
40
0.85269461077844799
40
0.85389221556886719
40
0.85508982035928638
40
0.85628742514970557
40
0.85748502994012477
40
0.85868263473054396
40
0.85988023952096315
40
0.86107784431138235
40
0.86227544910180154
40
0.86347305389222073
40
0.86467065868263993
40
0.86586826347305912
40
0.86706586826347831
40
0.86826347305389751
40
0.8694610778443167
40
0.87065868263473589
40
0.87185628742515509
40
0.87305389221557428
40
0.87425149700599347
40
0.87544910179641267
40
0.87664670658683186
40
0.87784431137725105
40
0.87904191616767025
40
0.88023952095808944
40
0.88143712574850863
40
0.88263473053892783
40
0.88383233532934702
40
0.88502994011976621
40
0.88622754491018541
40
0.8874251497006046
40
0.88862275449102379
40
0.88982035928144299
40
0.89101796407186218
40
0.89221556886228137
40
0.89341317365270057
40
0.89461077844311976
40
0.89580838323353895
40
0.89700598802395815
40
0.89820359281437734
40
0.89940119760479653
40
0.90059880239521573
40
0.90179640718563492
40
0.90299401197605411
40
0.90419161676647331
40
0.9053892215568925
40
0.90658682634731169
40
0.90778443113773089
40
0.90898203592815008
40
0.91017964071856927
40
0.91137724550898846
40
0.91257485029940766
40
0.91377245508982685
40
0.91497005988024604
40
0.91616766467066524
40
0.91736526946108443
40
0.91856287425150362
40
0.91976047904192282
40
0.92095808383234201
40
0.9221556886227612
40
0.9233532934131804
40
0.92455089820359959
40
0.92574850299401878
40
0.92694610778443798
40
0.92814371257485717
40
0.92934131736527636
40
0.93053892215569556
40
0.93173652694611475
40
0.93293413173653394
40
0.93413173652695314
40
0.93532934131737233
40
0.93652694610779152
40
0.93772455089821072
40
0.93892215568862991
40
0.9401197604790491
40
0.9413173652694683
40
0.94251497005988749
40
0.94371257485030668
40
0.94491017964072588
40
0.94610778443114507
40
0.94730538922156426
40
0.94850299401198346
40
0.94970059880240265
40
0.95089820359282184
40
0.95209580838324104
40
0.95329341317366023
40
0.95449101796407942
40
0.95568862275449862
40
0.95688622754491781
40
0.958083832335337
40
0.9592814371257562
40
0.96047904191617539
40
0.96167664670659458
40
0.96287425149701378
40
0.96407185628743297
40
0.96526946107785216
40
0.96646706586827136
40
0.96766467065869055
40
0.96886227544910974
40
0.97005988023952894
40
0.97125748502994813
40
0.97245508982036732
40
0.97365269461078652
40
0.97485029940120571
40
0.9760479041916249
40
0.9772455089820441
40
0.97844311377246329
40
0.97964071856288248
40
0.98083832335330168
40
0.98203592814372087
40
0.98323353293414006
40
0.98443113772455926
40
0.98562874251497845
40
0.98682634730539764
40
0.98802395209581684
40
0.98922155688623603
40
0.99041916167665522
40
0.99161676646707442
40
0.99281437125749361
40
0.9940119760479128
40
0.995209580838332
40
0.99640718562875119
40
0.99760479041917038
40
0.99880239520958958
40
1
40
1
40
1
40
1
40
1
40
1
41
1
41
1
41
1
41
1
41
1
41
1
41
1
41
1
41
1
41
1
41
1
41
1
41
1
41
1
41
1
41
1
41
1
41
1
41
1
41
1
41
1
41
1
41
1
41
1
41
1
41
1
41
1
41
1
41
1
41
1
41
1
41
1
41
1
41
1
41
1
41
1
41
1
41
1
41
1
41
1
41
1
41
1
41
1
41
1
41
1
41
1
41
1
41
1
41
1
41
1
41
1
41
1
41
1
41
1
41
1
41
1
41
1
41
1
41
1
41
1
41
1
41
1
41
1
41
1
41
1
41
1
41
1
41
1
41
1
41
1
41
1
41
1
41
1
41
1
41
1
41
1
41
1
41
1
41
1
41
1
41
1
41
1
41
1
41
1
41
1
41
1
41
1
41
1
41
1
41
1
41
1
41
1
41
1
41
1
41
1
41
1
41
1
41
1
41
1
41
1
41
1
41
1
41
1
41
1
41
1
41
1
41
1
41
1
41
1
41
1
41
1
41
1
41
1
41
1
41
1
41
1
41
1
41
1
41
1
41
1
41
1
41
1
41
1
41
1
41
1
41
1
41
1
41
1
41
1
41
1
41
1
41
1
41
1
41
1
41
1
41
1
41
1
41
1
41
1
41
1
41
1
41
1
41
1
41
1
41
1
41
1
41
1
41
1
41
1
41
1
41
1
41
1
41
1
41
1
41
1
41
1
41
1
41
1
41
1
41
1
41
1
41
1
41
1
41
1
41
1
41
1
41
1
41
1
41
1
41
1
41
1
41
1
41
1
41
1
41
1
41
1
41
1
41
1
41
1
41
1
41
1
41
1
41
1
41
1
41
1
41
1
41
1
41
1
41
1
41
1
41
1
41
1
41
1
41
1
41
1
41
1
41
1
41
1
41
1
41
1
41
1
41
1
41
1
41
1
41
1
41
1
41
1
41
1
41
1
41
1
41
1
41
1
41
1
41
1
41
1
41
1
41
1
41
1
41
1
41
1
41
1
41
1
41
1
41
1
41
1
41
1
41
1
41
1
41
1
41
1
41
1
41
1
41
1
41
1
41
1
41
1
41
1
41
1
41
1
41
1
41
1
41
1
41
1
41
1
41
1
41
1
41
1
41
1
41
1
41
1
41
1
41
1
41
1
41
1
41
1
41
1
41
1
41
1
41
1
41
1
41
1
41
1
41
1
41
1
41
1
41
1
41
1
41
1
41
1
41
1
41
1
41
1
41
1
41
1
41
1
41
1
41
1
41
1
41
1
41
1
41
1
41
1
41
1
41
1
41
1
41
1
41
1
41
1
41
1
41
1
41
1
41
1
41
1
41
1
41
1
41
1
41
1
41
1
41
1
41
1
41
1
41
1
41
1
41
1
41
1
41
1
41
1
41
1
41
1
41
1
41
1
41
1
41
1
41
1
41
1
41
1
41
1
41
1
41
1
41
1
41
1
41
1
41
1
41
1
41
1
41
1
41
1
41
1
41
1
41
1
41
1
41
1
41
1
41
1
41
1
41
1
41
1
41
1
41
1
41
1
41
1
41
1
41
1
41
1
41
1
41
1
41
1
41
1
41
1
41
1
41
1
41
1
41
1
41
1
41
1
41
1
41
1
41
1
41
1
41
1
41
1
41
1
41
1
41
1
41
1
41
1
41
1
41
1
41
1
41
1
41
1
41
1
41
1
41
1
41
1
41
1
41
1
41
1
41
1
41
1
41
1
41
1
41
1
41
1
41
1
41
1
41
1
41
1
41
1
41
1
41
1
41
1
41
1
41
1
41
1
41
1
41
1
41
1
41
1
41
1
41
1
41
1
41
1
41
1
41
1
41
1
41
1
41
1
41
1
41
1
41
1
41
1
41
1
41
1
41
1
41
1
41
1
41
1
41
1
41
1
41
1
41
1
41
1
41
1
41
1
41
1
41
1
41
1
41
1
41
1
41
1
41
1
41
1
41
1
41
1
41
1
41
1
41
1
41
1
41
1
41
1
41
1
41
1
41
1
41
1
41
1
41
1
41
1
41
1
41
1
41
1
41
1
41
1
41
1
41
1
41
1
41
1
41
1
41
1
41
1
41
1
41
1
41
1
41
1
41
1
41
1
41
1
41
1
41
1
41
1
41
1
41
1
41
1
41
1
41
1
41
1
41
1
41
1
41
1
41
1
41
1
41
1
41
1
41
1
41
1
41
1
41
1
41
1
41
1
41
1
41
1
41
1
41
1
41
1
41
1
41
1
41
1
41
1
41
1
41
1
41
1
41
1
41
1
41
1
41
1
41
1
41
1
41
1
41
1
41
1
41
1
41
1
41
1
41
1
41
1
41
1
41
1
41
1
41
1
41
1
41
1
41
1
41
1
41
1
41
1
41
1
41
1
41
1
41
1
41
1
41
1
41
1
41
1
41
1
41
1
41
1
41
1
41
1
41
1
41
1
41
1
41
1
41
1
41
1
41
1
41
1
41
1
41
1
41
1
41
1
41
1
41
1
41
1
41
1
41
1
41
1
41
1
41
1
41
1
41
1
41
1
41
1
41
1
41
1
41
1
41
1
41
1
41
1
41
1
41
1
41
1
41
1
41
1
41
1
41
1
41
1
41
1
41
1
41
1
41
1
41
1
41
1
41
1
41
1
41
1
41
1
41
1
41
1
41
1
41
1
41
1
41
1
41
1
41
1
41
1
41
1
41
1
41
1
41
1
41
1
41
1
41
1
41
1
41
1
41
1
41
1
41
1
41
1
41
1
41
1
41
1
41
1
41
1
41
1
41
1
41
1
41
1
41
1
41
1
41
1
41
1
41
1
41
1
41
1
41
1
41
1
41
1
41
1
41
1
41
1
41
1
41
1
41
1
41
1
41
1
41
1
41
1
41
1
41
1
41
1
41
1
41
1
41
1
41
1
41
1
41
1
41
1
41
1
41
1
41
1
41
1
41
1
41
1
41
1
41
1
41
1
41
1
41
1
41
1
41
1
41
1
41
1
41
1
41
1
41
1
41
1
41
1
41
1
41
1
41
1
41
1
41
1
41
1
41
1
41
1
41
1
41
1
41
1
41
1
41
1
41
1
41
1
41
1
41
1
41
1
41
1
41
1
41
1
41
1
41
1
41
1
41
1
41
1
41
1
41
1
41
1
41
1
41
1
41
1
41
1
41
1
41
1
41
1
41
1
41
1
41
1
41
1
41
1
41
1
41
1
41
1
41
1
41
1
41
1
41
1
41
1
41
1
41
1
41
1
41
1
41
1
41
1
41
1
41
1
41
1
41
1
41
1
41
1
41
1
41
1
41
1
41
1
41
1
41
1
41
1
41
1
41
1
41
1
41
1
41
1
41
1
41
1
41
1
41
1
41
1
41
1
41
1
41
1
41
1
41
1
41
1
41
1
41
1
41
1
41
1
41
1
41
1
41
1
41
1
41
1
41
1
41
1
41
1
41
1
41
1
41
1
41
1
41
1
41
1
41
1
41
1
41
1
41
1
41
1
41
1
41
1
41
1
41
1
41
1
41
1
41
1
41
1
41
1
41
1
41
1
41
1
41
1
41
1
41
1
41
1
41
1
41
1
41
1
41
1
41
1
41
1
41
1
41
1
41
1
41
1
41
1
41
1
41
1
41
1
41
1
41
1
41
1
41
1
41
1
41
1
41
1
41
1
41
1
41
1
41
1
41
1
41
1
41
1
41
1
41
1
41
1
41
1
41
1
41
1
41
1
41
1
41
1
41
1
41
1
41
1
41
1
41
1
41
1
41
1
41
1
41
1
41
1
41
1
41
1
41
1
10
-27.736000000000001
20
-122.68640000000002
30
0
10
-27.808898010021469
20
-122.66638052424017
30
0
10
-27.954745217150126
20
-122.62348091836175
30
0
10
-28.173280329557741
20
-122.55127982517655
30
0
10
-28.459568654783077
20
-122.44373252203744
30
0
10
-28.79535265470361
20
-122.30200640066288
30
0
10
-29.104976139943833
20
-122.15862842719466
30
0
10
-29.409228448322303
20
-122.00510187242844
30
0
10
-29.743806620534517
20
-121.82396935803597
30
0
10
-30.144995413611269
20
-121.59636877677045
30
0
10
-30.634216658474962
20
-121.31006964855976
30
0
10
-31.214839777135023
20
-120.96148030067687
30
0
10
-31.877515614967532
20
-120.55343105187923
30
0
10
-32.602878750181084
20
-120.0942561861365
30
0
10
-33.365373088733442
20
-119.59633700072784
30
0
10
-34.136519119603861
20
-119.07487779002166
30
0
10
-34.888605352236873
20
-118.54657741198132
30
0
10
-35.597620049964661
20
-118.02835871680253
30
0
10
-36.244014089496289
20
-117.53612371060463
30
0
10
-36.813841705077557
20
-117.08351344006482
30
0
10
-37.299706601862468
20
-116.6806569036971
30
0
10
-37.701897570764473
20
-116.33294471502195
30
0
10
-38.029192870349007
20
-116.03974564261551
30
0
10
-38.300457625024109
20
-115.79325236470257
30
0
10
-38.538976497704354
20
-115.57727057330153
30
0
10
-38.766645294017074
20
-115.3669075664933
30
0
10
-38.996655949188302
20
-115.126102388661
30
0
10
-39.234840109863939
20
-114.81527215448941
30
0
10
-39.484427035629203
20
-114.40211891396076
30
0
10
-39.750637145497805
20
-113.8737532332094
30
0
10
-40.041860382299568
20
-113.23958652362428
30
0
10
-40.366544517279166
20
-112.52386888020735
30
0
10
-40.731296777731359
20
-111.76106691009841
30
0
10
-41.138434213655366
20
-110.9900401170014
30
0
10
-41.583894033480945
20
-110.24882334914324
30
0
10
-42.054693510102268
20
-109.56893094044233
30
0
10
-42.527459324631053
20
-108.97049819778934
30
0
10
-42.974753760450746
20
-108.46246028341983
30
0
10
-43.370395093019347
20
-108.04238618014492
30
0
10
-43.695615800728611
20
-107.69613676821245
30
0
10
-43.943829256599791
20
-107.39830188605524
30
0
10
-44.128583090713249
20
-107.11054688143125
30
0
10
-44.278210646511774
20
-106.78879756223508
30
0
10
-44.423636458923198
20
-106.3944591408513
30
0
10
-44.586291321311862
20
-105.90663913688182
30
0
10
-44.772740692782662
20
-105.32629740298373
30
0
10
-44.980311061895193
20
-104.66812712346041
30
0
10
-45.199914213448515
20
-103.95553744145082
30
0
10
-45.420054499070872
20
-103.21430425053288
30
0
10
-45.630227092324546
20
-102.4669616879348
30
0
10
-45.824854525516734
20
-101.726415487381
30
0
10
-46.002508339712477
20
-100.99734499988854
30
0
10
-46.164750137063592
20
-100.2782583872698
30
0
10
-46.31512184303535
20
-99.563293314753537
30
0
10
-46.45803907188607
20
-98.844175989729109
30
0
10
-46.597805555490382
20
-98.111992984012915
30
0
10
-46.737377872583835
20
-97.35934008832993
30
0
10
-46.878070105743497
20
-96.581059349011312
30
0
10
-47.020024839752146
20
-95.773823707069141
30
0
10
-47.162468138272374
20
-94.936050340142103
30
0
10
-47.304049038033895
20
-94.067676788660549
30
0
10
-47.443152458806004
20
-93.170001069796029
30
0
10
-47.57820106647241
20
-92.245482189195087
30
0
10
-47.708016990102628
20
-91.297587314217154
30
0
10
-47.831956355564039
20
-90.330510659883757
30
0
10
-47.949735129157446
20
-89.348729165737453
30
0
10
-48.061331866509754
20
-88.356598431212262
30
0
10
-48.166859247429066
20
-87.357932157845028
30
0
10
-48.266449059837548
20
-86.355589105920686
30
0
10
-48.3601311861512
20
-85.351055736304971
30
0
10
-48.447715661956835
20
-84.344033194545887
30
0
10
-48.528672246663731
20
-83.332016488479027
30
0
10
-48.602014313652646
20
-82.30989356344881
30
0
10
-48.666446563639028
20
-81.270893567789386
30
0
10
-48.720508885940326
20
-80.207514668966567
30
0
10
-48.762722011446307
20
-79.112462064761857
30
0
10
-48.791731583332975
20
-77.979575816311623
30
0
10
-48.806454812864139
20
-76.80477662324526
30
0
10
-48.806221603574485
20
-75.586972412780923
30
0
10
-48.790928334565216
20
-74.329054982086816
30
0
10
-48.761162191319436
20
-73.038686960572278
30
0
10
-48.718397346105995
20
-71.729600361644998
30
0
10
-48.664933113563997
20
-70.421057863752708
30
0
10
-48.603545885031814
20
-69.135276007876683
30
0
10
-48.537216515639315
20
-67.895385704650778
30
0
10
-48.468826689082796
20
-66.723171736738166
30
0
10
-48.40086921073916
20
-65.636911675613916
30
0
10
-48.335150803446723
20
-64.649160848189652
30
0
10
-48.272501610467835
20
-63.764586356367523
30
0
10
-48.212473693117929
20
-62.977719701853701
30
0
10
-48.153063420068413
20
-62.270886668207417
30
0
10
-48.090371312963029
20
-61.61167249463837
30
0
10
-48.019439227806387
20
-60.959177826185424
30
0
10
-47.935173222348354
20
-60.270928566994748
30
0
10
-47.833215046410722
20
-59.509370089418439
30
0
10
-47.71088111278474
20
-58.648939447513406
30
0
10
-47.567965783593387
20
-57.68195125800883
30
0
10
-47.407869486901816
20
-56.627337034411902
30
0
10
-47.237424550125823
20
-55.527918375806671
30
0
10
-47.065752626418643
20
-54.439085282457491
30
0
10
-46.903401911467967
20
-53.420060769619504
30
0
10
-46.761373854637668
20
-52.52391700470718
30
0
10
-46.650186485542761
20
-51.78854946236455
30
0
10
-46.578946949198539
20
-51.226256231501772
30
0
10
-46.55436174359874
20
-50.816223289236362
30
0
10
-46.579917027478146
20
-50.489841602595206
30
0
10
-46.654294919812436
20
-50.158588421393198
30
0
10
-46.770103272969983
20
-49.748557475549681
30
0
10
-46.911502112921582
20
-49.241925940420302
30
0
10
-47.056613318872834
20
-48.675846686266901
30
0
10
-47.18334195630419
20
-48.109891696145162
30
0
10
-47.274056501658102
20
-47.603366600193091
30
0
10
-47.321032620607099
20
-47.187481682665592
30
0
10
-47.330722225218686
20
-46.842783323090288
30
0
10
-47.314614228739025
20
-46.522078858521319
30
0
10
-47.281394061957457
20
-46.169932187772211
30
0
10
-47.227609818703755
20
-45.744951030579102
30
0
10
-47.142220602384683
20
-45.221983800642896
30
0
10
-47.012937738615754
20
-44.592482982820187
30
0
10
-46.83143228777206
20
-43.865042614969518
30
0
10
-46.600197507837265
20
-43.066958936645179
30
0
10
-46.334608826206825
20
-42.24154315284806
30
0
10
-46.057320001342205
20
-41.43820186852885
30
0
10
-45.794423200030899
20
-40.704205303376362
30
0
10
-45.570892458563463
20
-40.075760261081939
30
0
10
-45.406349665287422
20
-39.56941501444328
30
0
10
-45.310653236608132
20
-39.173237181097193
30
0
10
-45.27967757427102
20
-38.838366762365368
30
0
10
-45.300586349062506
20
-38.502096618733525
30
0
10
-45.356717628414643
20
-38.108992740010578
30
0
10
-45.433120929104291
20
-37.635875657480604
30
0
10
-45.517362092810245
20
-37.087490003282454
30
0
10
-45.599459241716708
20
-36.486531704312213
30
0
10
-45.672088608146339
20
-35.865840151195407
30
0
10
-45.730749100340518
20
-35.259191062683492
30
0
10
-45.773703847152575
20
-34.694330719146002
30
0
10
-45.80125994748407
20
-34.190260849590395
30
0
10
-45.815232016099344
20
-33.753334540367668
30
0
10
-45.818242540599314
20
-33.374564131847457
30
0
10
-45.813314578630944
20
-33.024521923849136
30
0
10
-45.801873307874246
20
-32.664216277817744
30
0
10
-45.781927236568151
20
-32.257903818850401
30
0
10
-45.745195788858936
20
-31.787866929274564
30
0
10
-45.679299296948493
20
-31.256235081376815
30
0
10
-45.57312490482289
20
-30.678748151801067
30
0
10
-45.420971918431469
20
-30.080948090172548
30
0
10
-45.227762701019323
20
-29.493487500000771
30
0
10
-45.012214324735716
20
-28.947495552848949
30
0
10
-44.797003740464618
20
-28.468407100233364
30
0
10
-44.599166456257905
20
-28.069126927249645
30
0
10
-44.422356503288434
20
-27.745221432322019
30
0
10
-44.243546239282011
20
-27.464904094932194
30
0
10
-44.0237133677591
20
-27.180867479489255
30
0
10
-43.730115565153682
20
-26.852373518480725
30
0
10
-43.360262768334053
20
-26.46937442628316
30
0
10
-42.947338265102921
20
-26.058197076537482
30
0
10
-42.537155838585306
20
-25.659226098127998
30
0
10
-42.171840369252529
20
-25.311193647737721
30
0
10
-41.87166235378789
20
-25.033648189794246
30
0
10
-41.615341546916902
20
-24.807944808669763
30
0
10
-41.357560826462219
20
-24.594176231321534
30
0
10
-41.048344535706619
20
-24.349781023377055
30
0
10
-40.654875452676663
20
-24.050818938143109
30
0
10
-40.164082253481126
20
-23.693004268788719
30
0
10
-39.577734802484031
20
-23.284928904728559
30
0
10
-38.910012970508951
20
-22.843791373563057
30
0
10
-38.184042568008593
20
-22.39023702427103
30
0
10
-37.428873938982427
20
-21.943203794383805
30
0
10
-36.676274695750564
20
-21.515911757438854
30
0
10
-35.95767838897622
20
-21.117345545957605
30
0
10
-35.301044819854894
20
-20.752949802511726
30
0
10
-34.727843071024886
20
-20.425533663781831
30
0
10
-34.24978395298487
20
-20.13631372141521
30
0
10
-33.866125096325
20
-19.885364834802015
30
0
10
-33.559517997827527
20
-19.673677248921468
30
0
10
-33.303275976097353
20
-19.494435441276355
30
0
10
-33.069774346465593
20
-19.325285119500016
30
0
10
-32.840159173900354
20
-19.114559868689561
30
0
10
-32.605292775077174
20
-18.796564199525537
30
0
10
-32.362023581799647
20
-18.31889018089819
30
0
10
-32.11058450003793
20
-17.671984331453832
30
0
10
-31.852746610208431
20
-16.896232595849895
30
0
10
-31.591879014355445
20
-16.059520925590366
30
0
10
-31.332456291902933
20
-15.242677692976303
30
0
10
-31.079820826514769
20
-14.521485644808196
30
0
10
-30.839772801184949
20
-13.950659892599147
30
0
10
-30.618386090900419
20
-13.545796171972926
30
0
10
-30.421251079630977
20
-13.26964037620626
30
0
10
-30.245083102717064
20
-13.059376486035063
30
0
10
-30.070929399241223
20
-12.849933019956028
30
0
10
-29.854532085788851
20
-12.600476874717151
30
0
10
-29.547098701626972
20
-12.293277693730548
30
0
10
-29.116227121064906
20
-11.929942248487562
30
0
10
-28.572207323935928
20
-11.529299743346503
30
0
10
-27.96118934270411
20
-11.120544580753748
30
0
10
-27.345631703697077
20
-10.735013397356198
30
0
10
-26.788460921412938
20
-10.39810042534106
30
0
10
-26.336682535418475
20
-10.121763437567342
30
0
10
-26.002845864136084
20
-9.8952342746595843
30
0
10
-25.754682541938564
20
-9.6811949309472727
30
0
10
-25.540530845015809
20
-9.4350238708529783
30
0
10
-25.309603953188496
20
-9.1207546931646313
30
0
10
-25.034107720783393
20
-8.7281737514077626
30
0
10
-24.705233876411995
20
-8.2669068664240406
30
0
10
-24.329835617624486
20
-7.7610338820019695
30
0
10
-23.926627291100331
20
-7.2432867522625708
30
0
10
-23.523069330455403
20
-6.7499212698102093
30
0
10
-23.150051610516826
20
-6.3133431540121894
30
0
10
-22.834498062280865
20
-5.9526313415467422
30
0
10
-22.592496995939008
20
-5.6645414212734169
30
0
10
-22.422296958491025
20
-5.4145078088997298
30
0
10
-22.297172109931978
20
-5.1271915424194052
30
0
10
-22.180845057917544
20
-4.72099086283849
30
0
10
-22.041822756568617
20
-4.1398228169277669
30
0
10
-21.870617240608791
20
-3.392060992970249
30
0
10
-21.675891338518337
20
-2.5372888706849417
30
0
10
-21.47578086944403
20
-1.6610937749819457
30
0
10
-21.291152965444397
20
-0.85469677490766627
30
0
10
-21.137428359012119
20
-0.19092729759706351
30
0
10
-21.018468647991845
20
0.2944559308367401
30
0
10
-20.916033025245994
20
0.63298487438150253
30
0
10
-20.793983465825651
20
0.91513418635254318
30
0
10
-20.619035436975967
20
1.2379400278827952
30
0
10
-20.380166927507961
20
1.6573640341770655
30
0
10
-20.100377693169094
20
2.1571518539909311
30
0
10
-19.818521938852619
20
2.6853862561992718
30
0
10
-19.575733329124304
20
3.1804529536168391
30
0
10
-19.401542189875116
20
3.5980479703715371
30
0
10
-19.296309760942204
20
3.9456922992418053
30
0
10
-19.238821483516261
20
4.2654208787617947
30
0
10
-19.200949708515914
20
4.6029111889067567
30
0
10
-19.162739723929334
20
4.9734304067130779
30
0
10
-19.116090483161592
20
5.3599962321314445
30
0
10
-19.05825590639687
20
5.7381068622550648
30
0
10
-18.987677195068677
20
6.0962625012328697
30
0
10
-18.90094158688904
20
6.4469362398874628
30
0
10
-18.794649396424695
20
6.812539877919467
30
0
10
-18.66619302546335
20
7.216573995927261
30
0
10
-18.514698119479771
20
7.6743451964123874
30
0
10
-18.34001925244673
20
8.1954090183956776
30
0
10
-18.141979449180209
20
8.7843268540815842
30
0
10
-17.919626828668452
20
9.4420035054367819
30
0
10
-17.67019757911687
20
10.167001452727293
30
0
10
-17.389665620485122
20
10.955719174161613
30
0
10
-17.074128239902599
20
11.801866176724559
30
0
10
-16.720922092006649
20
12.696170410730275
30
0
10
-16.329867029171588
20
13.625975311975489
30
0
10
-15.904418559066869
20
14.574915384411231
30
0
10
-15.452944632173967
20
15.52248539523279
30
0
10
-14.989748575740956
20
16.443826440295844
30
0
10
-14.536737381874342
20
17.30896014301355
30
0
10
-14.118744100567906
20
18.087493861740903
30
0
10
-13.757728732738428
20
18.754327080714791
30
0
10
-13.467727045162521
20
19.294637389470573
30
0
10
-13.248692921589507
20
19.709994760786859
30
0
10
-13.082656862064512
20
20.022072674825935
30
0
10
-12.924359591059778
20
20.282112176949273
30
0
10
-12.711608133224942
20
20.55984561244582
30
0
10
-12.392454147739521
20
20.914960046361472
30
0
10
-11.952371159319613
20
21.368452844366065
30
0
10
-11.427557044880647
20
21.888770858434626
30
0
10
-10.87898271615966
20
22.419697293822939
30
0
10
-10.374936683556484
20
22.899135006793795
30
0
10
-9.9690376292805212
20
23.282889581533613
30
0
10
-9.6828213591761081
20
23.563156839242083
30
0
10
-9.4795607072215233
20
23.797423415472046
30
0
10
-9.2902264957282412
20
24.07535273957777
30
0
10
-9.0481996263613045
20
24.475747655503305
30
0
10
-8.7289526351155917
20
25.016460936024284
30
0
10
-8.3528805810115809
20
25.652893807041348
30
0
10
-7.9618812643802919
20
26.310843321023537
30
0
10
-7.6036733385218991
20
26.909253270525166
30
0
10
-7.3133421915769103
20
27.386544104105276
30
0
10
-7.0950630455995736
20
27.726816477525873
30
0
10
-6.9066964488147784
20
27.982011073242155
30
0
10
-6.6913038259636268
20
28.229395756345546
30
0
10
-6.4039674442929648
20
28.535340399225689
30
0
10
-6.043787472177824
20
28.912444855969383
30
0
10
-5.6395433560405861
20
29.334391015364524
30
0
10
-5.2292397138379165
20
29.758066342521555
30
0
10
-4.8435780020130901
20
30.141504995703432
30
0
10
-4.4836152008523298
20
30.4674004975973
30
0
10
-4.1153118832723319
20
30.75103286401907
30
0
10
-3.690984696445057
20
31.023501188018177
30
0
10
-3.164995335451704
20
31.32033733729083
30
0
10
-2.5109015288724197
20
31.668525273883233
30
0
10
-1.7402330518032012
20
32.072705255661788
30
0
10
-0.89388242545448693
20
32.519511964966888
30
0
10
-0.029755956167678461
20
32.984476302772379
30
0
10
0.7883891201439498
20
33.438065198887287
30
0
10
1.5022621931891076
20
33.851950160283629
30
0
10
2.0710905939193043
20
34.205490196755967
30
0
10
2.4814779699434322
20
34.49138846651033
30
0
10
2.7630195632020849
20
34.723599144331764
30
0
10
2.9706048741396271
20
34.93163635705352
30
0
10
3.1600844101696266
20
35.151299926835541
30
0
10
3.3600701121637644
20
35.415755270058355
30
0
10
3.5705486365689048
20
35.750136369320956
30
0
10
3.7813595843518346
20
36.169903523975727
30
0
10
3.9872592542813319
20
36.677270819252065
30
0
10
4.1963383371999603
20
37.261058473242414
30
0
10
4.4219965996384927
20
37.901378586756891
30
0
10
4.6789872127958141
20
38.573212487054974
30
0
10
4.9776540484545375
20
39.250505815462184
30
0
10
5.3193049268210828
20
39.90987046157435
30
0
10
5.690136338417445
20
40.534909494586053
30
0
10
6.0663227154206183
20
41.115341107670289
30
0
10
6.4204406757585977
20
41.645528233051643
30
0
10
6.7277403827642424
20
42.122991891528009
30
0
10
6.9717737809699152
20
42.547437913487904
30
0
10
7.1520077884327415
20
42.918344097135233
30
0
10
7.2848318835293311
20
43.237169423217317
30
0
10
7.3925886943489836
20
43.516784888883905
30
0
10
7.4945812992010694
20
43.791135794048735
30
0
10
7.5990376649534896
20
44.119867995654701
30
0
10
7.7070828325459591
20
44.559211425356168
30
0
10
7.8151331713199665
20
45.137531393649084
30
0
10
7.917917686839699
20
45.827768251116453
30
0
10
8.0103030809348432
20
46.567832249465525
30
0
10
8.089092241670583
20
47.281602305894381
30
0
10
8.1550365499984601
20
47.9009664206759
30
0
10
8.2142789179300753
20
48.384598001981885
30
0
10
8.2812110580601281
20
48.74503111182279
30
0
10
8.3764450021957035
20
49.046763033686773
30
0
10
8.5193743445128725
20
49.37091005900637
30
0
10
8.7212593313384019
20
49.785188284473762
30
0
10
8.9805992067873159
20
50.321093289679439
30
0
10
9.2875077468428007
20
50.985401939578125
30
0
10
9.6264638663528661
20
51.765311338685521
30
0
10
9.9796828041124428
20
52.63606714306043
30
0
10
10.330277654324863
20
53.567628881521436
30
0
10
10.665380858900575
20
54.531513390118285
30
0
10
10.979631811926014
20
55.508194014098329
30
0
10
11.273767742939814
20
56.485668545992539
30
0
10
11.552655022562089
20
57.456992687408651
30
0
10
11.823532982215344
20
58.418207233970271
30
0
10
12.094140794923478
20
59.366049910255526
30
0
10
12.370957807007377
20
60.295873606597034
30
0
10
12.657248229192499
20
61.199211283439247
30
0
10
12.951533062878148
20
62.062110997169754
30
0
10
13.245032311973858
20
62.86161538213625
30
0
10
13.522808434977653
20
63.568915403180164
30
0
10
13.76901160910538
20
64.159931963575616
30
0
10
13.971000559683906
20
64.623817893017261
30
0
10
14.124014042338128
20
64.97256887411784
30
0
10
14.23539161781852
20
65.249551999538269
30
0
10
14.329551495988124
20
65.540082830340609
30
0
10
14.436802042820084
20
65.938409368155419
30
0
10
14.582546516162246
20
66.51620855068056
30
0
10
14.77431096392298
20
67.284046520256226
30
0
10
15.003353533286985
20
68.199340103692691
30
0
10
15.250486661421336
20
69.187653424282047
30
0
10
15.490532917994337
20
70.159799504434005
30
0
10
15.697235614486821
20
71.03004107492464
30
0
10
15.848245216702633
20
71.735338123747098
30
0
10
15.92943845563534
20
72.250590425145901
30
0
10
15.941125788641381
20
72.614544499390064
30
0
10
15.895516466849255
20
72.907641979995404
30
0
10
15.810272208551723
20
73.210850429133416
30
0
10
15.702219077120658
20
73.560346275827058
30
0
10
15.584770956264787
20
73.939761682628642
30
0
10
15.470164640070118
20
74.317258855873277
30
0
10
15.370935633682336
20
74.675533806533949
30
0
10
15.300145246505227
20
75.030538279327828
30
0
10
15.266636294133065
20
75.403250038322568
30
0
10
15.270920528163865
20
75.799325421786534
30
0
10
15.301690135268744
20
76.188723040457361
30
0
10
15.347472919309023
20
76.538045698504334
30
0
10
15.406476947756243
20
76.836934779309317
30
0
10
15.498854601284817
20
77.131159135318612
30
0
10
15.656960062553058
20
77.499185748116247
30
0
10
15.91409827797608
20
78.02483011843097
30
0
10
16.291945014836642
20
78.76684838223315
30
0
10
16.798686783794391
20
79.754026004176538
30
0
10
17.431909489525257
20
80.991600393670041
30
0
10
18.179940349719903
20
82.463989900396626
30
0
10
19.023834973811024
20
84.139063546739038
30
0
10
19.939087162127159
20
85.971748676371803
30
0
10
20.89745871468763
20
87.907924942036487
30
0
10
21.868755854439069
20
89.8881914319348
30
0
10
22.822632493024855
20
91.85169641935363
30
0
10
23.73037291817834
20
93.73992139298592
30
0
10
24.566704286768086
20
95.500528283122094
30
0
10
25.311547691276985
20
97.09107849766626
30
0
10
25.951908715384295
20
98.483042026855514
30
0
10
26.483443941125479
20
99.665133112653137
30
0
10
26.912818112021554
20
100.64828882742211
30
0
10
27.257209551863134
20
101.46472220792444
30
0
10
27.540729877846065
20
102.16056444519251
30
0
10
27.791642726678731
20
102.79016626984011
30
0
10
28.039295429786655
20
103.40980513289276
30
0
10
28.311084760576346
20
104.07145801904471
30
0
10
28.629615112113534
20
104.81698611057266
30
0
10
29.009269956633727
20
105.67107134851817
30
0
10
29.454767505400309
20
106.63837027074396
30
0
10
29.96324602894035
20
107.70816935438098
30
0
10
30.525556511529331
20
108.85735499588787
30
0
10
31.127874560368198
20
110.05406395802822
30
0
10
31.753173688384734
20
111.26103455751293
30
0
10
32.382763078844256
20
112.43910574538435
30
0
10
32.997786251239006
20
113.55060790431716
30
0
10
33.580762845252877
20
114.56290384997153
30
0
10
34.117050543160659
20
115.45162364211205
30
0
10
34.596489553478889
20
116.2046156237291
30
0
10
35.014486127255907
20
116.8236734318514
30
0
10
35.37186148021101
20
117.32118266484554
30
0
10
35.674893376896762
20
117.71776215193771
30
0
10
35.935395996938986
20
118.03955697906225
30
0
10
36.170517742697463
20
118.31557052055913
30
0
10
36.403343370930195
20
118.57525465289629
30
0
10
36.658285528974361
20
118.84434833686089
30
0
10
36.955808358318947
20
119.14094095376691
30
0
10
37.306246884771568
20
119.47016926422558
30
0
10
37.709016856185272
20
119.82521717117145
30
0
10
38.155472236342128
20
120.19249103403561
30
0
10
38.630697414462162
20
120.55547740758998
30
0
10
39.115655232593404
20
120.89928579484953
30
0
10
39.589407891845873
20
121.21449304340301
30
0
10
40.033068175065758
20
121.49616887083555
30
0
10
40.434031889703917
20
121.74329759156308
30
0
10
40.789200675908333
20
121.95794700863361
30
0
10
41.110836338843242
20
122.14479601991459
30
0
10
41.421709976433036
20
122.30946576776107
30
0
10
41.744323580204856
20
122.45641596353296
30
0
10
42.089634980896982
20
122.58638851759143
30
0
10
42.453428763539982
20
122.69594768238341
30
0
10
42.825735366937479
20
122.78027447587976
30
0
10
43.197846151363002
20
122.83542645482569
30
0
10
43.568238836335127
20
122.8601465684129
30
0
10
43.938067649458397
20
122.85433625997628
30
0
10
44.308323776526279
20
122.81805494936836
30
0
10
44.676371763781326
20
122.75031669022555
30
0
10
45.037847328051484
20
122.65021016846154
30
0
10
45.388257682501141
20
122.51783070139284
30
0
10
45.724948359488565
20
122.3555518740517
30
0
10
46.046825428287264
20
122.16705187366729
30
0
10
46.353677716653074
20
121.95609233614478
30
0
10
46.645578896470013
20
121.72500054246997
30
0
10
46.922534460758328
20
121.47498204349226
30
0
10
47.184358065813583
20
121.20725082267255
30
0
10
47.430423523423705
20
120.9243806039065
30
0
10
47.659643623875276
20
120.62996338113493
30
0
10
47.870678537755978
20
120.32632967373452
30
0
10
48.06210767718823
20
120.01213003334597
30
0
10
48.23256131072884
20
119.68180757309162
30
0
10
48.380648479625535
20
119.33171349940345
30
0
10
48.504913250136561
20
118.96528947183944
30
0
10
48.603807171076525
20
118.59802150588494
30
0
10
48.676857419547673
20
118.24454861518691
30
0
10
48.725626713173959
20
117.90782520891344
30
0
10
48.755087504452383
20
117.5649218351019
30
0
10
48.771593232823072
20
117.17977614640313
30
0
10
48.780621013246943
20
116.71834320477161
30
0
10
48.784049411667645
20
116.16594625339437
30
0
10
48.780395951389544
20
115.52826291199398
30
0
10
48.766520215176861
20
114.8240010360844
30
0
10
48.738885734127628
20
114.08017734940307
30
0
10
48.694949748966074
20
113.32642250469411
30
0
10
48.634630173912441
20
112.58944462471806
30
0
10
48.561345801199366
20
111.88819141556907
30
0
10
48.480240668720896
20
111.23434826955922
30
0
10
48.396783898141408
20
110.63223776985654
30
0
10
48.315135805719393
20
110.07885160378126
30
0
10
48.236816519503243
20
109.56405638149796
30
0
10
48.158732252911101
20
109.07014282880043
30
0
10
48.074019345152749
20
108.57455664729677
30
0
10
47.974461473291889
20
108.05447652823298
30
0
10
47.85236255218112
20
107.49068850135623
30
0
10
47.702778239457757
20
106.87205036119755
30
0
10
47.525206458401925
20
106.19883489335423
30
0
10
47.322101732427264
20
105.47891733060578
30
0
10
47.097694015387468
20
104.72465895872051
30
0
10
46.856708103350059
20
103.94956807639039
30
0
10
46.603086989981719
20
103.1649556010597
30
0
10
46.338803350792304
20
102.37682747936667
30
0
10
46.062400202004781
20
101.58206715561981
30
0
10
45.76926163277173
20
100.76913599822959
30
0
10
45.45238239259816
20
99.920075559239024
30
0
10
45.102970049890132
20
99.012072941089912
30
0
10
44.711116369275707
20
98.019206807113193
30
0
10
44.266440931481256
20
96.914120886458392
30
0
10
43.758742111306262
20
95.669716855924207
30
0
10
43.178655535386937
20
94.260866321522684
30
0
10
42.518284511595553
20
92.666050632725984
30
0
10
41.771902129964253
20
90.869185394506218
30
0
10
40.936438131345064
20
88.860890235415127
30
0
10
40.011188710254245
20
86.637755696261237
30
0
10
38.997649649737191
20
84.201928006440369
30
0
10
37.899301115223807
20
81.560569260303723
30
0
10
36.721413079113468
20
78.725370768630626
30
0
10
35.47084188962836
20
75.712043583819593
30
0
10
34.155830668884903
20
72.539818894419057
30
0
10
32.785808076736139
20
69.230944207041659
30
0
10
31.371187790782315
20
65.810181373929495
30
0
10
29.923167688507149
20
62.304303852571877
30
0
10
28.453529166162426
20
58.741594317723212
30
0
10
26.974436405210234
20
55.151342138291149
30
0
10
25.498235665857006
20
51.563340924180167
30
0
10
24.037254571213069
20
48.007386049252297
30
0
10
22.603601396241192
20
44.512772186901202
30
0
10
21.208964352271266
20
41.107790834838923
30
0
10
19.864410871612566
20
37.819227840259764
30
0
10
18.580186882315548
20
34.671860901286365
30
0
10
17.365516089243716
20
31.687957083106568
30
0
10
16.228399220217696
20
28.886770250398502
30
0
10
15.17541332790773
20
26.284038631786576
30
0
10
14.211510932382641
20
23.891482004024439
30
0
10
13.339819499111567
20
21.716299673820775
30
0
10
12.561440098480796
20
19.760666509668496
30
0
10
11.875247925457042
20
18.021233401187637
30
0
10
11.277688376390831
20
16.488617138678233
30
0
10
10.762585110238804
20
15.146918825288942
30
0
10
10.321804020089653
20
13.975280203025049
30
0
10
9.9459056950415796
20
12.949412569948805
30
0
10
9.6248020438514086
20
12.043135609727544
30
0
10
9.3484113953108707
20
11.2299125791649
30
0
10
9.1073136748148897
20
10.484385704022808
30
0
10
8.8934068921166869
20
9.7839146253306062
30
0
10
8.7005599566114498
20
9.1101062627778653
30
0
10
8.5252745356982143
20
8.4503657167443489
30
0
10
8.3673211150831364
20
7.7993893972365766
30
0
10
8.2285552828335966
20
7.1573178510424738
30
0
10
8.1118021473183006
20
6.527960024043173
30
0
10
8.0196432733511926
20
5.9169640385766034
30
0
10
7.9534090602509169
20
5.3300718724710938
30
0
10
7.911677884333673
20
4.7711871072955478
30
0
10
7.8906033842529189
20
4.2411217310065528
30
0
10
7.8860282246532529
20
3.7369850986799928
30
0
10
7.8950990907952567
20
3.251421727766846
30
0
10
7.9181100896896268
20
2.771858732772714
30
0
10
7.9601911997688104
20
2.2798703376888012
30
0
10
8.0279298358907294
20
1.7578207330485984
30
0
10
8.1256451563067227
20
1.196236060760165
30
0
10
8.252457072482386
20
0.5994428993194939
30
0
10
8.397419911311804
20
-0.0045405630289977383
30
0
10
8.5417567101237939
20
-0.56973885757671172
30
0
10
8.668234592670931
20
-1.0536791933832115
30
0
10
8.7686910243548031
20
-1.434769125972974
30
0
10
8.8521437641931691
20
-1.7309856584888124
30
0
10
8.9530773541939954
20
-2.0188913832412769
30
0
10
9.1129985450886171
20
-2.3942348593196665
30
0
10
9.3632118404553069
20
-2.9349183937015555
30
0
10
9.7038077871721509
20
-3.6564485433017047
30
0
10
10.1091570004919
20
-4.5202217070980648
30
0
10
10.539750235454598
20
-5.4545585902900084
30
0
10
10.952083068541189
20
-6.3716409659228841
30
0
10
11.308890416583502
20
-7.1855993286804809
30
0
10
11.590318007840004
20
-7.8314184335337931
30
0
10
11.802144945064336
20
-8.2804175623458871
30
0
10
11.991704070966733
20
-8.5649837576511185
30
0
10
12.22746655383003
20
-8.7587925315567947
30
0
10
12.566719608084808
20
-8.9408796890600186
30
0
10
13.018971227529264
20
-9.1577246646006838
30
0
10
13.541322221342291
20
-9.4128695097345076
30
0
10
14.069361840692141
20
-9.6883164076923247
30
0
10
14.538416726836999
20
-9.9571980581348534
30
0
10
14.90858679771156
20
-10.199981776793873
30
0
10
15.188559712954376
20
-10.419269097725403
30
0
10
15.413673837284794
20
-10.632306854545657
30
0
10
15.624911004855857
20
-10.863229766576799
30
0
10
15.844353986831948
20
-11.135129444386077
30
0
10
16.076806649338401
20
-11.465138368676191
30
0
10
16.317179778527301
20
-11.861145262149558
30
0
10
16.556484094231681
20
-12.316206797423785
30
0
10
16.78577896304504
20
-12.811819486559768
30
0
10
16.997989253131617
20
-13.326675291535462
30
0
10
17.1903396627639
20
-13.843575301616383
30
0
10
17.366699609254216
20
-14.357533960094637
30
0
10
17.539479671466548
20
-14.88213384786167
30
0
10
17.726124452945349
20
-15.442470834416511
30
0
10
17.94614052191254
20
-16.069305059204769
30
0
10
18.217801522514467
20
-16.792528675368192
30
0
10
18.555259260348059
20
-17.635439900965977
30
0
10
18.964808380314054
20
-18.607380198164627
30
0
10
19.44455638022367
20
-19.70291594683772
30
0
10
19.986382219718816
20
-20.905413086991569
30
0
10
20.577216335427238
20
-22.189309326565162
30
0
10
21.200599156472776
20
-23.522921223846591
30
0
10
21.838123449904373
20
-24.871027342230892
30
0
10
22.470919075311112
20
-26.197535115788419
30
0
10
23.081137038746334
20
-27.468140966102514
30
0
10
23.653393050118325
20
-28.652925257802032
30
0
10
24.176323377696683
20
-29.72913357707845
30
0
10
24.643870408426267
20
-30.683507507019385
30
0
10
25.057239950756419
20
-31.51573583155885
30
0
10
25.424111231829315
20
-32.237325510240126
30
0
10
25.755836056084014
20
-32.867131407707845
30
0
10
26.065266093383425
20
-33.427912537202637
30
0
10
26.364236827334881
20
-33.942362549584082
30
0
10
26.661393950400253
20
-34.429603136355766
30
0
10
26.959404958887223
20
-34.90090944056098
30
0
10
27.253854940715165
20
-35.357497716719152
30
0
10
27.538361772776547
20
-35.795997566726605
30
0
10
27.809020424151704
20
-36.213007846576588
30
0
10
28.068559451371641
20
-36.609515443385362
30
0
10
28.332003460086025
20
-36.996617619735197
30
0
10
28.62370629274303
20
-37.393507436246324
30
0
10
28.970737450770486
20
-37.822188662173389
30
0
10
29.397668639932281
20
-38.303416646980637
30
0
10
29.920281684593757
20
-38.851754422466129
30
0
10
30.541235674116571
20
-39.472138135730916
30
0
10
31.25314165179477
20
-40.162022042801091
30
0
10
32.040602865886761
20
-40.912747778891408
30
0
10
32.882653447008444
20
-41.711212865476654
30
0
10
33.755034891574638
20
-42.541415821446492
30
0
10
34.632524746840168
20
-43.386044839987989
30
0
10
35.491283495441401
20
-44.228069694171062
30
0
10
36.311098804598835
20
-45.052280985545892
30
0
10
37.077901271788079
20
-45.846974965494653
30
0
10
37.785469666291995
20
-46.605200848592787
30
0
10
38.433761255703864
20
-47.324188982956088
30
0
10
39.027737755874028
20
-48.005042295256814
30
0
10
39.575992671007789
20
-48.652330339275395
30
0
10
40.089475134413462
20
-49.27371270639653
30
0
10
40.580144848272539
20
-49.879578078119771
30
0
10
41.059720710007525
20
-50.482610651117163
30
0
10
41.538232612935644
20
-51.097549089692492
30
0
10
42.02321833971466
20
-51.740283675982909
30
0
10
42.519850618238245
20
-52.425977367938223
30
0
10
43.030842856104854
20
-53.167436819899756
30
0
10
43.556438355281408
20
-53.97335138851814
30
0
10
44.094377390242116
20
-54.846659618124164
30
0
10
44.639842223533321
20
-55.782695899616797
30
0
10
45.185485514965961
20
-56.76781795427182
30
0
10
45.721236587830845
20
-57.776854091126999
30
0
10
46.235090885547066
20
-58.775700216773913
30
0
10
46.714492973503887
20
-59.727028591497756
30
0
10
47.147532558343116
20
-60.594998353638971
30
0
10
47.524231742661271
20
-61.350492169386477
30
0
10
47.837761216001368
20
-61.975866642007404
30
0
10
48.085761317471814
20
-62.470517660005704
30
0
10
48.271443114898261
20
-62.85467374429625
30
0
10
48.405246614782556
20
-63.177601376442858
30
0
10
48.5020234386187
20
-63.495872134220797
30
0
10
48.577230505713295
20
-63.850762431635928
30
0
10
48.643690976887328
20
-64.236249711440166
30
0
10
48.707532221738568
20
-64.614684825931391
30
0
10
48.765297771663768
20
-64.953918100818157
30
0
10
48.798115332079988
20
-65.268356209402299
30
0
10
48.775882341180775
20
-65.622021164664346
30
0
10
48.672923681680309
20
-66.08068217785943
30
0
10
48.482790374933771
20
-66.671568630591537
30
0
10
48.227526755540275
20
-67.355898219178385
30
0
10
47.944538164391531
20
-68.063087021531516
30
0
10
47.677650858942968
20
-68.713035672916931
30
0
10
47.46601065942572
20
-69.244837830017985
30
0
10
47.335062209225754
20
-69.638850472134877
30
0
10
47.283669369359977
20
-69.951568625547495
30
0
10
47.291058701741903
20
-70.284850460350413
30
0
10
47.329235801125918
20
-70.73859790493816
30
0
10
47.375627500321997
20
-71.359137338293436
30
0
10
47.417421521085359
20
-72.128855423227364
30
0
10
47.448015947822398
20
-72.99327056543207
30
0
10
47.46578887932025
20
-73.877049242285651
30
0
10
47.471880446085144
20
-74.704999813332634
30
0
10
47.468470408488685
20
-75.419951057698057
30
0
10
47.456669959898619
20
-76.004317472174591
30
0
10
47.435097219366575
20
-76.493048534023188
30
0
10
47.401238018190199
20
-76.948719037066851
30
0
10
47.352496602334412
20
-77.440732093567689
30
0
10
47.287255076766371
20
-78.024827196440725
30
0
10
47.206206731475746
20
-78.717713978152545
30
0
10
47.112084748197553
20
-79.499193485245996
30
0
10
47.008617219585062
20
-80.327401783002855
30
0
10
46.899746176005777
20
-81.149670688182155
30
0
10
46.788699029088285
20
-81.915650683352027
30
0
10
46.677210755751879
20
-82.588446391731992
30
0
10
46.564469968826955
20
-83.159064592336946
30
0
10
46.446874023031192
20
-83.651400546337626
30
0
10
46.319578226575963
20
-84.106257353233303
30
0
10
46.177729293125992
20
-84.56915957701392
30
0
10
46.017733118118294
20
-85.077493515705896
30
0
10
45.838743023733045
20
-85.645781747538308
30
0
10
45.642182258258913
20
-86.268910392701912
30
0
10
45.430813141322197
20
-86.929561085403179
30
0
10
45.207941547197528
20
-87.6043454175189
30
0
10
44.97661174547811
20
-88.270136204241624
30
0
10
44.738692021229873
20
-88.911150575237485
30
0
10
44.494373466979582
20
-89.523007591061926
30
0
10
44.242765158689146
20
-90.108680765452846
30
0
10
43.982274787781975
20
-90.67604414919613
30
0
10
43.711083922586269
20
-91.234704904730123
30
0
10
43.427560982655422
20
-91.793327294367145
30
0
10
43.130757866573539
20
-92.356261079557015
30
0
10
42.820460980763038
20
-92.923914392574844
30
0
10
42.497118214203844
20
-93.494108333377298
30
0
10
42.16181946676685
20
-94.063117934322975
30
0
10
41.816228061589428
20
-94.626809129844531
30
0
10
41.462597305710702
20
-95.181818804753505
30
0
10
41.103545767665778
20
-95.726450964276381
30
0
10
40.741087427161418
20
-96.260662808958827
30
0
10
40.375828543863641
20
-96.786193714045396
30
0
10
40.006024084131873
20
-97.306680065358094
30
0
10
39.626866508302598
20
-97.827678192722672
30
0
10
39.229229659117031
20
-98.356979840187719
30
0
10
38.801543275224105
20
-98.903145302543294
30
0
10
38.332721562929926
20
-99.473413244247553
30
0
10
37.814665162651373
20
-100.07189218164919
30
0
10
37.245112348745778
20
-100.69746848115727
30
0
10
36.629943833503219
20
-101.34222048744057
30
0
10
35.986688433737832
20
-101.98867847297903
30
0
10
35.344152085484147
20
-102.6108389030243
30
0
10
34.735626393827317
20
-103.18140406682727
30
0
10
34.193572578170716
20
-103.67759278784817
30
0
10
33.743706372416739
20
-104.08752712237091
30
0
10
33.399351447118242
20
-104.41637049763024
30
0
10
33.155646481157262
20
-104.69258155941289
30
0
10
32.983929051041308
20
-104.97402690735851
30
0
10
32.846050125441629
20
-105.32038196150413
30
0
10
32.707465091599317
20
-105.7682569815795
30
0
10
32.552867490378212
20
-106.30032149416166
30
0
10
32.381989979839695
20
-106.86210787048425
30
0
10
32.201256965893521
20
-107.38915266769914
30
0
10
32.01760825580336
20
-107.82815717170726
30
0
10
31.829703685629109
20
-108.16624322667874
30
0
10
31.625832107771075
20
-108.43842767226778
30
0
10
31.394585749132528
20
-108.69241988905273
30
0
10
31.133868309786479
20
-108.9599004361373
30
0
10
30.857977319312532
20
-109.23145644438969
30
0
10
30.582816336429563
20
-109.48383989624624
30
0
10
30.314055723761449
20
-109.70049459957501
30
0
10
30.032981179786624
20
-109.89642728649592
30
0
10
29.708501022300837
20
-110.10342676434492
30
0
10
29.309427742631634
20
-110.35481327444836
30
0
10
28.818694970180747
20
-110.66777064946834
30
0
10
28.233966607473636
20
-111.04288389093566
30
0
10
27.563757865443392
20
-111.46937071554638
30
0
10
26.825074729669858
20
-111.92836871984011
30
0
10
26.040376679455882
20
-112.39712763132927
30
0
10
25.234926625251504
20
-112.85260000834248
30
0
10
24.433738902284496
20
-113.27580949623241
30
0
10
23.659519843256639
20
-113.6540766440821
30
0
10
22.932134886666496
20
-113.97984421396384
30
0
10
22.267735246795439
20
-114.25028163375248
30
0
10
21.678006792664213
20
-114.46657306091188
30
0
10
21.169399930014215
20
-114.63334794618818
30
0
10
20.742290892892218
20
-114.75803395532681
30
0
10
20.390339433027933
20
-114.85027396129509
30
0
10
20.094748140802977
20
-114.91819994772985
30
0
10
19.820158314019896
20
-114.96525995558052
30
0
10
19.506543579964081
20
-114.98575141704166
30
0
10
19.089403622038329
20
-114.96966924035644
30
0
10
18.52249911328482
20
-114.90867737213401
30
0
10
17.805620334545459
20
-114.80306330570997
30
0
10
16.982281784960993
20
-114.66179752646761
30
0
10
16.119655428091516
20
-114.49845448808676
30
0
10
15.294291571016389
20
-114.32846477556764
30
0
10
14.574827659779164
20
-114.16571946853063
30
0
10
14.007404997322174
20
-114.01967341138533
30
0
10
13.596511372027098
20
-113.89170145570729
30
0
10
13.298606432480691
20
-113.77346926450522
30
0
10
13.050303218074648
20
-113.65077969157636
30
0
10
12.791082270285424
20
-113.50647975380399
30
0
10
12.486138568379207
20
-113.32361253469497
30
0
10
12.117103276004409
20
-113.08664950965351
30
0
10
11.675497812304165
20
-112.78285953335015
30
0
10
11.154501406280897
20
-112.40373314487114
30
0
10
10.549145942439429
20
-111.94501960872613
30
0
10
9.8573083806482096
20
-111.40657713254477
30
0
10
9.0804374574440914
20
-110.79229200757257
30
0
10
8.2243815114141032
20
-110.10996539138397
30
0
10
7.3001965604659755
20
-109.37122165921819
30
0
10
6.3249079461820878
20
-108.5913897660587
30
0
10
5.3224227981992192
20
-107.78943847610803
30
0
10
4.3240024169431637
20
-106.98776710458098
30
0
10
3.3640084542942912
20
-106.21045432287127
30
0
10
2.4759667268759395
20
-105.48161632672412
30
0
10
1.6885748471212971
20
-104.82373233512398
30
0
10
1.0215869126093804
20
-104.25596371826165
30
0
10
0.48209098374826387
20
-103.79252272207184
30
0
10
0.059827241438790646
20
-103.44091082276583
30
0
10
-0.27523034516744915
20
-103.20046885979281
30
0
10
-0.58092887157954842
20
-103.06013802422045
30
0
10
-0.92510028377649878
20
-103.00019922289336
30
0
10
-1.3597162633913844
20
-102.99619712821722
30
0
10
-1.8905902875931166
20
-103.02155024255322
30
0
10
-2.475144511645798
20
-103.05302101119777
30
0
10
-3.0507139253839126
20
-103.07865768162374
30
0
10
-3.5545663374841436
20
-103.10517946246109
30
0
10
-3.9471727912141965
20
-103.16538463558422
30
0
10
-4.2344407025267374
20
-103.3260480880685
30
0
10
-4.4479209595918139
20
-103.65638179460299
30
0
10
-4.6254536416191607
20
-104.19829330919676
30
0
10
-4.7895168597779962
20
-104.93139982230794
30
0
10
-4.9489654991669907
20
-105.78821771648606
30
0
10
-5.1044665846741131
20
-106.67737774967122
30
0
10
-5.2524406515543207
20
-107.50326472075162
30
0
10
-5.3900595823451098
20
-108.18884624204739
30
0
10
-5.5187964976556545
20
-108.69321450948979
30
0
10
-5.6510406652410747
20
-109.04104674958558
30
0
10
-5.8061061058277321
20
-109.30971956486324
30
0
10
-5.9980993207781017
20
-109.58059228294671
30
0
10
-6.2225547009380655
20
-109.89107424452075
30
0
10
-6.453974469607485
20
-110.21353113041448
30
0
10
-6.6698618251426911
20
-110.50575237382203
30
0
10
-6.8711825918481031
20
-110.74956518130078
30
0
10
-7.0993935192491895
20
-110.98655973056702
30
0
10
-7.4042519891677614
20
-111.27639791804151
30
0
10
-7.8176263490859235
20
-111.66443529621287
30
0
10
-8.322325739760025
20
-112.14266769954129
30
0
10
-8.8690547916510614
20
-112.66660842111312
30
0
10
-9.3961032274938496
20
-113.1752736597019
30
0
10
-9.8491877734123658
20
-113.61113192412824
30
0
10
-10.198706323497591
20
-113.93770126572238
30
0
10
-10.46423405409395
20
-114.16390646207842
30
0
10
-10.714282643308344
20
-114.3452369495529
30
0
10
-11.031178282860177
20
-114.55205355491884
30
0
10
-11.48168081896943
20
-114.84346034637547
30
0
10
-12.09266836102781
20
-115.24544013737282
30
0
10
-12.862076530750553
20
-115.76016348245376
30
0
10
-13.764122867045185
20
-116.37022177935542
30
0
10
-14.75677761266223
20
-117.04485560479881
30
0
10
-15.788305426138473
20
-117.74536081383296
30
0
10
-16.804137713995026
20
-118.43078003690772
30
0
10
-17.753762856407235
20
-119.06362988554433
30
0
10
-18.597231728133664
20
-119.61523977233455
30
0
10
-19.312815142679064
20
-120.07223199850768
30
0
10
-19.896466423849052
20
-120.43498447104079
30
0
10
-20.35917822372798
20
-120.7141379944573
30
0
10
-20.725274165688951
20
-120.92779579629806
30
0
10
-21.029825647432972
20
-121.09837800561003
30
0
10
-21.317600627876381
20
-121.24975500595491
30
0
10
-21.637706351726212
20
-121.40386145208056
30
0
10
-22.027926304865041
20
-121.57640392609983
30
0
10
-22.499955228530858
20
-121.7724091237185
30
0
10
-23.026864887880819
20
-121.98265713540937
30
0
10
-23.562308672405294
20
-122.19018386151237
30
0
10
-24.058654949311453
20
-122.37644749795082
30
0
10
-24.482944837704672
20
-122.52684825621515
30
0
10
-24.840076256506588
20
-122.63841094404131
30
0
10
-25.165745485713703
20
-122.71835185504331
30
0
10
-25.500594985223856
20
-122.77674361236832
30
0
10
-25.864989863138298
20
-122.81982251229007
30
0
10
-26.249510866733168
20
-122.84662586793664
30
0
10
-26.635151505656065
20
-122.85266805093565
30
0
10
-27.008096082979037
20
-122.8319505912409
30
0
10
-27.299282724736447
20
-122.79005296077473
30
0
10
-27.517357157022371
20
-122.74359777292048
30
0
10
-27.663101989979054
20
-122.7064194757597
30
0
10
-27.736000000000001
20
-122.68640000000002
30
0
0
ENDSEC
0
SECTION
2
OBJECTS
0
DICTIONARY
5
C
100
AcDbDictionary
3
ACAD_GROUP
350
D
3
ACAD_MLINESTYLE
350
17
0
DICTIONARY
5
D
100
AcDbDictionary
0
DICTIONARY
5
1A
330
C
100
AcDbDictionary
0
DICTIONARY
5
17
100
AcDbDictionary
0
ENDSEC
0
EOF
