0
SECTION
2
HEADER
9
$INSUNITS
70
4
9
$ACADVER
1
AC1014
9
$HANDSEED
5
FFFF
0
ENDSEC
0
SECTION
2
TABLES
0
TABLE
2
VPORT
5
8
100
AcDbSymbolTable
0
ENDTAB
0
TABLE
2
LTYPE
5
5
100
AcDbSymbolTable
0
LTYPE
5
14
100
AcDbSymbolTableRecord
100
AcDbLinetypeTableRecord
2
BYBLOCK
70
0
0
LTYPE
5
15
100
AcDbSymbolTableRecord
100
AcDbLinetypeTableRecord
2
BYLAYER
70
0
0
LTYPE
5
16
100
AcDbSymbolTableRecord
100
AcDbLinetypeTableRecord
2
DASHED
70
0
3
Dashed __ __ __ __ __ __ __ __ __ __ __ __ __ _
72
65
73
2
40
0.75
49
0.5
74
0
49
-0.25
74
0
0
ENDTAB
0
TABLE
2
LAYER
5
2
100
AcDbSymbolTable
70
2
0
LAYER
5
50
100
AcDbSymbolTableRecord
100
AcDbLayerTableRecord
2
0
70
0
62
7
6
CONTINUOUS
0
ENDTAB
0
TABLE
2
STYLE
5
3
100
AcDbSymbolTable
70
1
0
STYLE
5
11
100
AcDbSymbolTableRecord
100
AcDbTextStyleTableRecord
2
STANDARD
70
0
0
ENDTAB
0
TABLE
2
VIEW
5
6
100
AcDbSymbolTable
70
0
0
ENDTAB
0
TABLE
2
UCS
5
7
100
AcDbSymbolTable
70
0
0
ENDTAB
0
TABLE
2
APPID
5
9
100
AcDbSymbolTable
70
2
0
APPID
5
12
100
AcDbSymbolTableRecord
100
AcDbRegAppTableRecord
2
ACAD
70
0
0
ENDTAB
0
TABLE
2
DIMSTYLE
5
A
100
AcDbSymbolTable
70
1
0
ENDTAB
0
TABLE
2
BLOCK_RECORD
5
1
100
AcDbSymbolTable
70
1
0
BLOCK_RECORD
5
1F
100
AcDbSymbolTableRecord
100
AcDbBlockTableRecord
2
*MODEL_SPACE
0
BLOCK_RECORD
5
1B
100
AcDbSymbolTableRecord
100
AcDbBlockTableRecord
2
*PAPER_SPACE
0
ENDTAB
0
ENDSEC
0
SECTION
2
BLOCKS
0
BLOCK
5
20
100
AcDbEntity
100
AcDbBlockBegin
2
*MODEL_SPACE
0
ENDBLK
5
21
100
AcDbEntity
100
AcDbBlockEnd
0
BLOCK
5
1C
100
AcDbEntity
100
AcDbBlockBegin
2
*PAPER_SPACE
0
ENDBLK
5
1D
100
AcDbEntity
100
AcDbBlockEnd
0
ENDSEC
0
SECTION
2
ENTITIES
0
SPLINE
5
100
100
AcDbEntity
8
0
100
AcDbSpline
70
6
71
5
72
751
73
745
74
0
42
0.000000001
43
0.0000000001
44
0.0000000001
40
0
40
0
40
0
40
0
40
0
40
0
40
0.0013513513513513514
40
0.0027027027027027029
40
0.0040540540540540543
40
0.0054054054054054057
40
0.0067567567567567571
40
0.0081081081081081086
40
0.00945945945945946
40
0.010810810810810811
40
0.012162162162162163
40
0.013513513513513514
40
0.014864864864864866
40
0.016216216216216217
40
0.017567567567567569
40
0.01891891891891892
40
0.020270270270270271
40
0.021621621621621623
40
0.022972972972972974
40
0.024324324324324326
40
0.025675675675675677
40
0.027027027027027029
40
0.02837837837837838
40
0.029729729729729731
40
0.031081081081081083
40
0.032432432432432434
40
0.033783783783783786
40
0.035135135135135137
40
0.036486486486486489
40
0.03783783783783784
40
0.039189189189189191
40
0.040540540540540543
40
0.041891891891891894
40
0.043243243243243246
40
0.044594594594594597
40
0.045945945945945948
40
0.0472972972972973
40
0.048648648648648651
40
0.050000000000000003
40
0.051351351351351354
40
0.052702702702702706
40
0.054054054054054057
40
0.055405405405405408
40
0.05675675675675676
40
0.058108108108108111
40
0.059459459459459463
40
0.060810810810810814
40
0.062162162162162166
40
0.063513513513513517
40
0.064864864864864868
40
0.06621621621621622
40
0.067567567567567571
40
0.068918918918918923
40
0.070270270270270274
40
0.071621621621621626
40
0.072972972972972977
40
0.074324324324324328
40
0.07567567567567568
40
0.077027027027027031
40
0.078378378378378383
40
0.079729729729729734
40
0.081081081081081086
40
0.082432432432432437
40
0.083783783783783788
40
0.08513513513513514
40
0.086486486486486491
40
0.087837837837837843
40
0.089189189189189194
40
0.090540540540540546
40
0.091891891891891897
40
0.093243243243243248
40
0.0945945945945946
40
0.095945945945945951
40
0.097297297297297303
40
0.098648648648648654
40
0.10000000000000001
40
0.10135135135135136
40
0.10270270270270271
40
0.10405405405405406
40
0.10540540540540541
40
0.10675675675675676
40
0.10810810810810811
40
0.10945945945945947
40
0.11081081081081082
40
0.11216216216216217
40
0.11351351351351352
40
0.11486486486486487
40
0.11621621621621622
40
0.11756756756756757
40
0.11891891891891893
40
0.12027027027027028
40
0.12162162162162163
40
0.12297297297297298
40
0.12432432432432433
40
0.12567567567567567
40
0.12702702702702701
40
0.12837837837837834
40
0.12972972972972968
40
0.13108108108108102
40
0.13243243243243236
40
0.13378378378378369
40
0.13513513513513503
40
0.13648648648648637
40
0.13783783783783771
40
0.13918918918918904
40
0.14054054054054038
40
0.14189189189189172
40
0.14324324324324306
40
0.14459459459459439
40
0.14594594594594573
40
0.14729729729729707
40
0.14864864864864841
40
0.14999999999999974
40
0.15135135135135108
40
0.15270270270270242
40
0.15405405405405376
40
0.15540540540540509
40
0.15675675675675643
40
0.15810810810810777
40
0.15945945945945911
40
0.16081081081081045
40
0.16216216216216178
40
0.16351351351351312
40
0.16486486486486446
40
0.1662162162162158
40
0.16756756756756713
40
0.16891891891891847
40
0.17027027027026981
40
0.17162162162162115
40
0.17297297297297248
40
0.17432432432432382
40
0.17567567567567516
40
0.1770270270270265
40
0.17837837837837783
40
0.17972972972972917
40
0.18108108108108051
40
0.18243243243243185
40
0.18378378378378318
40
0.18513513513513452
40
0.18648648648648586
40
0.1878378378378372
40
0.18918918918918853
40
0.19054054054053987
40
0.19189189189189121
40
0.19324324324324255
40
0.19459459459459388
40
0.19594594594594522
40
0.19729729729729656
40
0.1986486486486479
40
0.19999999999999923
40
0.20135135135135057
40
0.20270270270270191
40
0.20405405405405325
40
0.20540540540540458
40
0.20675675675675592
40
0.20810810810810726
40
0.2094594594594586
40
0.21081081081080993
40
0.21216216216216127
40
0.21351351351351261
40
0.21486486486486395
40
0.21621621621621528
40
0.21756756756756662
40
0.21891891891891796
40
0.2202702702702693
40
0.22162162162162063
40
0.22297297297297197
40
0.22432432432432331
40
0.22567567567567465
40
0.22702702702702598
40
0.22837837837837732
40
0.22972972972972866
40
0.23108108108108
40
0.23243243243243134
40
0.23378378378378267
40
0.23513513513513401
40
0.23648648648648535
40
0.23783783783783669
40
0.23918918918918802
40
0.24054054054053936
40
0.2418918918918907
40
0.24324324324324204
40
0.24459459459459337
40
0.24594594594594471
40
0.24729729729729605
40
0.24864864864864739
40
0.24999999999999872
40
0.25135135135135006
40
0.2527027027027014
40
0.25405405405405274
40
0.25540540540540407
40
0.25675675675675541
40
0.25810810810810675
40
0.25945945945945809
40
0.26081081081080942
40
0.26216216216216076
40
0.2635135135135121
40
0.26486486486486344
40
0.26621621621621477
40
0.26756756756756611
40
0.26891891891891745
40
0.27027027027026879
40
0.27162162162162012
40
0.27297297297297146
40
0.2743243243243228
40
0.27567567567567414
40
0.27702702702702547
40
0.27837837837837681
40
0.27972972972972815
40
0.28108108108107949
40
0.28243243243243082
40
0.28378378378378216
40
0.2851351351351335
40
0.28648648648648484
40
0.28783783783783617
40
0.28918918918918751
40
0.29054054054053885
40
0.29189189189189019
40
0.29324324324324152
40
0.29459459459459286
40
0.2959459459459442
40
0.29729729729729554
40
0.29864864864864687
40
0.29999999999999821
40
0.30135135135134955
40
0.30270270270270089
40
0.30405405405405223
40
0.30540540540540356
40
0.3067567567567549
40
0.30810810810810624
40
0.30945945945945758
40
0.31081081081080891
40
0.31216216216216025
40
0.31351351351351159
40
0.31486486486486293
40
0.31621621621621426
40
0.3175675675675656
40
0.31891891891891694
40
0.32027027027026828
40
0.32162162162161961
40
0.32297297297297095
40
0.32432432432432229
40
0.32567567567567363
40
0.32702702702702496
40
0.3283783783783763
40
0.32972972972972764
40
0.33108108108107898
40
0.33243243243243031
40
0.33378378378378165
40
0.33513513513513299
40
0.33648648648648433
40
0.33783783783783566
40
0.339189189189187
40
0.34054054054053834
40
0.34189189189188968
40
0.34324324324324101
40
0.34459459459459235
40
0.34594594594594369
40
0.34729729729729503
40
0.34864864864864636
40
0.3499999999999977
40
0.35135135135134904
40
0.35270270270270038
40
0.35405405405405171
40
0.35540540540540305
40
0.35675675675675439
40
0.35810810810810573
40
0.35945945945945706
40
0.3608108108108084
40
0.36216216216215974
40
0.36351351351351108
40
0.36486486486486241
40
0.36621621621621375
40
0.36756756756756509
40
0.36891891891891643
40
0.37027027027026777
40
0.3716216216216191
40
0.37297297297297044
40
0.37432432432432178
40
0.37567567567567312
40
0.37702702702702445
40
0.37837837837837579
40
0.37972972972972713
40
0.38108108108107847
40
0.3824324324324298
40
0.38378378378378114
40
0.38513513513513248
40
0.38648648648648382
40
0.38783783783783515
40
0.38918918918918649
40
0.39054054054053783
40
0.39189189189188917
40
0.3932432432432405
40
0.39459459459459184
40
0.39594594594594318
40
0.39729729729729452
40
0.39864864864864585
40
0.39999999999999719
40
0.40135135135134853
40
0.40270270270269987
40
0.4040540540540512
40
0.40540540540540254
40
0.40675675675675388
40
0.40810810810810522
40
0.40945945945945655
40
0.41081081081080789
40
0.41216216216215923
40
0.41351351351351057
40
0.4148648648648619
40
0.41621621621621324
40
0.41756756756756458
40
0.41891891891891592
40
0.42027027027026725
40
0.42162162162161859
40
0.42297297297296993
40
0.42432432432432127
40
0.4256756756756726
40
0.42702702702702394
40
0.42837837837837528
40
0.42972972972972662
40
0.43108108108107795
40
0.43243243243242929
40
0.43378378378378063
40
0.43513513513513197
40
0.4364864864864833
40
0.43783783783783464
40
0.43918918918918598
40
0.44054054054053732
40
0.44189189189188866
40
0.44324324324323999
40
0.44459459459459133
40
0.44594594594594267
40
0.44729729729729401
40
0.44864864864864534
40
0.44999999999999668
40
0.45135135135134802
40
0.45270270270269936
40
0.45405405405405069
40
0.45540540540540203
40
0.45675675675675337
40
0.45810810810810471
40
0.45945945945945604
40
0.46081081081080738
40
0.46216216216215872
40
0.46351351351351006
40
0.46486486486486139
40
0.46621621621621273
40
0.46756756756756407
40
0.46891891891891541
40
0.47027027027026674
40
0.47162162162161808
40
0.47297297297296942
40
0.47432432432432076
40
0.47567567567567209
40
0.47702702702702343
40
0.47837837837837477
40
0.47972972972972611
40
0.48108108108107744
40
0.48243243243242878
40
0.48378378378378012
40
0.48513513513513146
40
0.48648648648648279
40
0.48783783783783413
40
0.48918918918918547
40
0.49054054054053681
40
0.49189189189188814
40
0.49324324324323948
40
0.49459459459459082
40
0.49594594594594216
40
0.49729729729729349
40
0.49864864864864483
40
0.49999999999999617
40
0.50135135135134756
40
0.5027027027026989
40
0.50405405405405024
40
0.50540540540540158
40
0.50675675675675291
40
0.50810810810810425
40
0.50945945945945559
40
0.51081081081080693
40
0.51216216216215826
40
0.5135135135135096
40
0.51486486486486094
40
0.51621621621621228
40
0.51756756756756361
40
0.51891891891891495
40
0.52027027027026629
40
0.52162162162161763
40
0.52297297297296896
40
0.5243243243243203
40
0.52567567567567164
40
0.52702702702702298
40
0.52837837837837431
40
0.52972972972972565
40
0.53108108108107699
40
0.53243243243242833
40
0.53378378378377966
40
0.535135135135131
40
0.53648648648648234
40
0.53783783783783368
40
0.53918918918918501
40
0.54054054054053635
40
0.54189189189188769
40
0.54324324324323903
40
0.54459459459459036
40
0.5459459459459417
40
0.54729729729729304
40
0.54864864864864438
40
0.54999999999999571
40
0.55135135135134705
40
0.55270270270269839
40
0.55405405405404973
40
0.55540540540540106
40
0.5567567567567524
40
0.55810810810810374
40
0.55945945945945508
40
0.56081081081080641
40
0.56216216216215775
40
0.56351351351350909
40
0.56486486486486043
40
0.56621621621621177
40
0.5675675675675631
40
0.56891891891891444
40
0.57027027027026578
40
0.57162162162161712
40
0.57297297297296845
40
0.57432432432431979
40
0.57567567567567113
40
0.57702702702702247
40
0.5783783783783738
40
0.57972972972972514
40
0.58108108108107648
40
0.58243243243242782
40
0.58378378378377915
40
0.58513513513513049
40
0.58648648648648183
40
0.58783783783783317
40
0.5891891891891845
40
0.59054054054053584
40
0.59189189189188718
40
0.59324324324323852
40
0.59459459459458985
40
0.59594594594594119
40
0.59729729729729253
40
0.59864864864864387
40
0.5999999999999952
40
0.60135135135134654
40
0.60270270270269788
40
0.60405405405404922
40
0.60540540540540055
40
0.60675675675675189
40
0.60810810810810323
40
0.60945945945945457
40
0.6108108108108059
40
0.61216216216215724
40
0.61351351351350858
40
0.61486486486485992
40
0.61621621621621125
40
0.61756756756756259
40
0.61891891891891393
40
0.62027027027026527
40
0.6216216216216166
40
0.62297297297296794
40
0.62432432432431928
40
0.62567567567567062
40
0.62702702702702195
40
0.62837837837837329
40
0.62972972972972463
40
0.63108108108107597
40
0.63243243243242731
40
0.63378378378377864
40
0.63513513513512998
40
0.63648648648648132
40
0.63783783783783266
40
0.63918918918918399
40
0.64054054054053533
40
0.64189189189188667
40
0.64324324324323801
40
0.64459459459458934
40
0.64594594594594068
40
0.64729729729729202
40
0.64864864864864336
40
0.64999999999999469
40
0.65135135135134603
40
0.65270270270269737
40
0.65405405405404871
40
0.65540540540540004
40
0.65675675675675138
40
0.65810810810810272
40
0.65945945945945406
40
0.66081081081080539
40
0.66216216216215673
40
0.66351351351350807
40
0.66486486486485941
40
0.66621621621621074
40
0.66756756756756208
40
0.66891891891891342
40
0.67027027027026476
40
0.67162162162161609
40
0.67297297297296743
40
0.67432432432431877
40
0.67567567567567011
40
0.67702702702702144
40
0.67837837837837278
40
0.67972972972972412
40
0.68108108108107546
40
0.68243243243242679
40
0.68378378378377813
40
0.68513513513512947
40
0.68648648648648081
40
0.68783783783783214
40
0.68918918918918348
40
0.69054054054053482
40
0.69189189189188616
40
0.69324324324323749
40
0.69459459459458883
40
0.69594594594594017
40
0.69729729729729151
40
0.69864864864864284
40
0.69999999999999418
40
0.70135135135134552
40
0.70270270270269686
40
0.7040540540540482
40
0.70540540540539953
40
0.70675675675675087
40
0.70810810810810221
40
0.70945945945945355
40
0.71081081081080488
40
0.71216216216215622
40
0.71351351351350756
40
0.7148648648648589
40
0.71621621621621023
40
0.71756756756756157
40
0.71891891891891291
40
0.72027027027026425
40
0.72162162162161558
40
0.72297297297296692
40
0.72432432432431826
40
0.7256756756756696
40
0.72702702702702093
40
0.72837837837837227
40
0.72972972972972361
40
0.73108108108107495
40
0.73243243243242628
40
0.73378378378377762
40
0.73513513513512896
40
0.7364864864864803
40
0.73783783783783163
40
0.73918918918918297
40
0.74054054054053431
40
0.74189189189188565
40
0.74324324324323698
40
0.74459459459458832
40
0.74594594594593966
40
0.747297297297291
40
0.74864864864864233
40
0.74999999999999367
40
0.75135135135134501
40
0.75270270270269635
40
0.75405405405404768
40
0.75540540540539902
40
0.75675675675675036
40
0.7581081081081017
40
0.75945945945945303
40
0.76081081081080437
40
0.76216216216215571
40
0.76351351351350705
40
0.76486486486485838
40
0.76621621621620972
40
0.76756756756756106
40
0.7689189189189124
40
0.77027027027026373
40
0.77162162162161507
40
0.77297297297296641
40
0.77432432432431775
40
0.77567567567566909
40
0.77702702702702042
40
0.77837837837837176
40
0.7797297297297231
40
0.78108108108107444
40
0.78243243243242577
40
0.78378378378377711
40
0.78513513513512845
40
0.78648648648647979
40
0.78783783783783112
40
0.78918918918918246
40
0.7905405405405338
40
0.79189189189188514
40
0.79324324324323647
40
0.79459459459458781
40
0.79594594594593915
40
0.79729729729729049
40
0.79864864864864182
40
0.79999999999999316
40
0.8013513513513445
40
0.80270270270269584
40
0.80405405405404717
40
0.80540540540539851
40
0.80675675675674985
40
0.80810810810810119
40
0.80945945945945252
40
0.81081081081080386
40
0.8121621621621552
40
0.81351351351350654
40
0.81486486486485787
40
0.81621621621620921
40
0.81756756756756055
40
0.81891891891891189
40
0.82027027027026322
40
0.82162162162161456
40
0.8229729729729659
40
0.82432432432431724
40
0.82567567567566857
40
0.82702702702701991
40
0.82837837837837125
40
0.82972972972972259
40
0.83108108108107392
40
0.83243243243242526
40
0.8337837837837766
40
0.83513513513512794
40
0.83648648648647927
40
0.83783783783783061
40
0.83918918918918195
40
0.84054054054053329
40
0.84189189189188463
40
0.84324324324323596
40
0.8445945945945873
40
0.84594594594593864
40
0.84729729729728998
40
0.84864864864864131
40
0.84999999999999265
40
0.85135135135134399
40
0.85270270270269533
40
0.85405405405404666
40
0.855405405405398
40
0.85675675675674934
40
0.85810810810810068
40
0.85945945945945201
40
0.86081081081080335
40
0.86216216216215469
40
0.86351351351350603
40
0.86486486486485736
40
0.8662162162162087
40
0.86756756756756004
40
0.86891891891891138
40
0.87027027027026271
40
0.87162162162161405
40
0.87297297297296539
40
0.87432432432431673
40
0.87567567567566806
40
0.8770270270270194
40
0.87837837837837074
40
0.87972972972972208
40
0.88108108108107341
40
0.88243243243242475
40
0.88378378378377609
40
0.88513513513512743
40
0.88648648648647876
40
0.8878378378378301
40
0.88918918918918144
40
0.89054054054053278
40
0.89189189189188411
40
0.89324324324323545
40
0.89459459459458679
40
0.89594594594593813
40
0.89729729729728946
40
0.8986486486486408
40
0.89999999999999214
40
0.90135135135134348
40
0.90270270270269481
40
0.90405405405404615
40
0.90540540540539749
40
0.90675675675674883
40
0.90810810810810016
40
0.9094594594594515
40
0.91081081081080284
40
0.91216216216215418
40
0.91351351351350552
40
0.91486486486485685
40
0.91621621621620819
40
0.91756756756755953
40
0.91891891891891087
40
0.9202702702702622
40
0.92162162162161354
40
0.92297297297296488
40
0.92432432432431622
40
0.92567567567566755
40
0.92702702702701889
40
0.92837837837837023
40
0.92972972972972157
40
0.9310810810810729
40
0.93243243243242424
40
0.93378378378377558
40
0.93513513513512692
40
0.93648648648647825
40
0.93783783783782959
40
0.93918918918918093
40
0.94054054054053227
40
0.9418918918918836
40
0.94324324324323494
40
0.94459459459458628
40
0.94594594594593762
40
0.94729729729728895
40
0.94864864864864029
40
0.94999999999999163
40
0.95135135135134297
40
0.9527027027026943
40
0.95405405405404564
40
0.95540540540539698
40
0.95675675675674832
40
0.95810810810809965
40
0.95945945945945099
40
0.96081081081080233
40
0.96216216216215367
40
0.963513513513505
40
0.96486486486485634
40
0.96621621621620768
40
0.96756756756755902
40
0.96891891891891035
40
0.97027027027026169
40
0.97162162162161303
40
0.97297297297296437
40
0.9743243243243157
40
0.97567567567566704
40
0.97702702702701838
40
0.97837837837836972
40
0.97972972972972105
40
0.98108108108107239
40
0.98243243243242373
40
0.98378378378377507
40
0.98513513513512641
40
0.98648648648647774
40
0.98783783783782908
40
0.98918918918918042
40
0.99054054054053176
40
0.99189189189188309
40
0.99324324324323443
40
0.99459459459458577
40
0.99594594594593711
40
0.99729729729728844
40
0.99864864864863978
40
1
40
1
40
1
40
1
40
1
40
1
41
1
41
1
41
1
41
1
41
1
41
1
41
1
41
1
41
1
41
1
41
1
41
1
41
1
41
1
41
1
41
1
41
1
41
1
41
1
41
1
41
1
41
1
41
1
41
1
41
1
41
1
41
1
41
1
41
1
41
1
41
1
41
1
41
1
41
1
41
1
41
1
41
1
41
1
41
1
41
1
41
1
41
1
41
1
41
1
41
1
41
1
41
1
41
1
41
1
41
1
41
1
41
1
41
1
41
1
41
1
41
1
41
1
41
1
41
1
41
1
41
1
41
1
41
1
41
1
41
1
41
1
41
1
41
1
41
1
41
1
41
1
41
1
41
1
41
1
41
1
41
1
41
1
41
1
41
1
41
1
41
1
41
1
41
1
41
1
41
1
41
1
41
1
41
1
41
1
41
1
41
1
41
1
41
1
41
1
41
1
41
1
41
1
41
1
41
1
41
1
41
1
41
1
41
1
41
1
41
1
41
1
41
1
41
1
41
1
41
1
41
1
41
1
41
1
41
1
41
1
41
1
41
1
41
1
41
1
41
1
41
1
41
1
41
1
41
1
41
1
41
1
41
1
41
1
41
1
41
1
41
1
41
1
41
1
41
1
41
1
41
1
41
1
41
1
41
1
41
1
41
1
41
1
41
1
41
1
41
1
41
1
41
1
41
1
41
1
41
1
41
1
41
1
41
1
41
1
41
1
41
1
41
1
41
1
41
1
41
1
41
1
41
1
41
1
41
1
41
1
41
1
41
1
41
1
41
1
41
1
41
1
41
1
41
1
41
1
41
1
41
1
41
1
41
1
41
1
41
1
41
1
41
1
41
1
41
1
41
1
41
1
41
1
41
1
41
1
41
1
41
1
41
1
41
1
41
1
41
1
41
1
41
1
41
1
41
1
41
1
41
1
41
1
41
1
41
1
41
1
41
1
41
1
41
1
41
1
41
1
41
1
41
1
41
1
41
1
41
1
41
1
41
1
41
1
41
1
41
1
41
1
41
1
41
1
41
1
41
1
41
1
41
1
41
1
41
1
41
1
41
1
41
1
41
1
41
1
41
1
41
1
41
1
41
1
41
1
41
1
41
1
41
1
41
1
41
1
41
1
41
1
41
1
41
1
41
1
41
1
41
1
41
1
41
1
41
1
41
1
41
1
41
1
41
1
41
1
41
1
41
1
41
1
41
1
41
1
41
1
41
1
41
1
41
1
41
1
41
1
41
1
41
1
41
1
41
1
41
1
41
1
41
1
41
1
41
1
41
1
41
1
41
1
41
1
41
1
41
1
41
1
41
1
41
1
41
1
41
1
41
1
41
1
41
1
41
1
41
1
41
1
41
1
41
1
41
1
41
1
41
1
41
1
41
1
41
1
41
1
41
1
41
1
41
1
41
1
41
1
41
1
41
1
41
1
41
1
41
1
41
1
41
1
41
1
41
1
41
1
41
1
41
1
41
1
41
1
41
1
41
1
41
1
41
1
41
1
41
1
41
1
41
1
41
1
41
1
41
1
41
1
41
1
41
1
41
1
41
1
41
1
41
1
41
1
41
1
41
1
41
1
41
1
41
1
41
1
41
1
41
1
41
1
41
1
41
1
41
1
41
1
41
1
41
1
41
1
41
1
41
1
41
1
41
1
41
1
41
1
41
1
41
1
41
1
41
1
41
1
41
1
41
1
41
1
41
1
41
1
41
1
41
1
41
1
41
1
41
1
41
1
41
1
41
1
41
1
41
1
41
1
41
1
41
1
41
1
41
1
41
1
41
1
41
1
41
1
41
1
41
1
41
1
41
1
41
1
41
1
41
1
41
1
41
1
41
1
41
1
41
1
41
1
41
1
41
1
41
1
41
1
41
1
41
1
41
1
41
1
41
1
41
1
41
1
41
1
41
1
41
1
41
1
41
1
41
1
41
1
41
1
41
1
41
1
41
1
41
1
41
1
41
1
41
1
41
1
41
1
41
1
41
1
41
1
41
1
41
1
41
1
41
1
41
1
41
1
41
1
41
1
41
1
41
1
41
1
41
1
41
1
41
1
41
1
41
1
41
1
41
1
41
1
41
1
41
1
41
1
41
1
41
1
41
1
41
1
41
1
41
1
41
1
41
1
41
1
41
1
41
1
41
1
41
1
41
1
41
1
41
1
41
1
41
1
41
1
41
1
41
1
41
1
41
1
41
1
41
1
41
1
41
1
41
1
41
1
41
1
41
1
41
1
41
1
41
1
41
1
41
1
41
1
41
1
41
1
41
1
41
1
41
1
41
1
41
1
41
1
41
1
41
1
41
1
41
1
41
1
41
1
41
1
41
1
41
1
41
1
41
1
41
1
41
1
41
1
41
1
41
1
41
1
41
1
41
1
41
1
41
1
41
1
41
1
41
1
41
1
41
1
41
1
41
1
41
1
41
1
41
1
41
1
41
1
41
1
41
1
41
1
41
1
41
1
41
1
41
1
41
1
41
1
41
1
41
1
41
1
41
1
41
1
41
1
41
1
41
1
41
1
41
1
41
1
41
1
41
1
41
1
41
1
41
1
41
1
41
1
41
1
41
1
41
1
41
1
41
1
41
1
41
1
41
1
41
1
41
1
41
1
41
1
41
1
41
1
41
1
41
1
41
1
41
1
41
1
41
1
41
1
41
1
41
1
41
1
41
1
41
1
41
1
41
1
41
1
41
1
41
1
41
1
41
1
41
1
41
1
41
1
41
1
41
1
41
1
41
1
41
1
41
1
41
1
41
1
41
1
41
1
41
1
41
1
41
1
41
1
41
1
41
1
41
1
41
1
41
1
41
1
41
1
41
1
41
1
41
1
41
1
41
1
41
1
41
1
41
1
41
1
41
1
41
1
41
1
41
1
41
1
41
1
41
1
41
1
41
1
41
1
41
1
41
1
41
1
41
1
41
1
41
1
41
1
41
1
41
1
41
1
41
1
41
1
41
1
41
1
41
1
41
1
41
1
41
1
41
1
41
1
41
1
41
1
41
1
41
1
41
1
41
1
41
1
41
1
41
1
41
1
41
1
41
1
41
1
41
1
41
1
41
1
41
1
41
1
41
1
41
1
41
1
41
1
41
1
41
1
41
1
41
1
41
1
41
1
41
1
41
1
41
1
41
1
41
1
41
1
41
1
41
1
41
1
41
1
41
1
41
1
41
1
41
1
41
1
41
1
41
1
41
1
41
1
41
1
41
1
41
1
41
1
41
1
41
1
41
1
41
1
41
1
41
1
41
1
41
1
41
1
41
1
41
1
41
1
41
1
41
1
41
1
41
1
41
1
41
1
41
1
41
1
41
1
41
1
41
1
41
1
41
1
41
1
41
1
41
1
41
1
41
1
41
1
41
1
41
1
10
-27.861000000000004
20
-122.67310000000001
30
0
10
-27.933019574542215
20
-122.65295984752132
30
0
10
-28.075926142469804
20
-122.61027926941478
30
0
10
-28.287887199420723
20
-122.53906439255616
30
0
10
-28.570907573191306
20
-122.42877609423604
30
0
10
-28.941157200798862
20
-122.26047577050133
30
0
10
-29.343209486027732
20
-122.05664501497317
30
0
10
-29.788584917101424
20
-121.81437935693211
30
0
10
-30.284488430356937
20
-121.53272493137965
30
0
10
-30.833335066145043
20
-121.21234255170918
30
0
10
-31.432396076666521
20
-120.85523250441371
30
0
10
-32.073065071096998
20
-120.46437406251231
30
0
10
-32.742069279075146
20
-120.04373124884114
30
0
10
-33.423587991194125
20
-119.59843997565156
30
0
10
-34.101044061090143
20
-119.13490236113005
30
0
10
-34.759114702521153
20
-118.66099784133172
30
0
10
-35.385454376297886
20
-118.18606233276334
30
0
10
-35.973030133845882
20
-117.7214244522189
30
0
10
-36.519820893625848
20
-117.27851476149787
30
0
10
-37.027083912647996
20
-116.86575645986508
30
0
10
-37.49799168489217
20
-116.48559207658371
30
0
10
-37.936269656394678
20
-116.13198131451205
30
0
10
-38.344459937571322
20
-115.78641859149133
30
0
10
-38.723667252077625
20
-115.41910239878349
30
0
10
-39.075767642523218
20
-114.99844091119027
30
0
10
-39.404957578504302
20
-114.49838312792737
30
0
10
-39.719743129797195
20
-113.90710373936712
30
0
10
-40.034240676172715
20
-113.23373885762803
30
0
10
-40.364517106732912
20
-112.50162598951073
30
0
10
-40.725379543963989
20
-111.74272607240064
30
0
10
-41.126957486094653
20
-110.99156068264253
30
0
10
-41.571456184574316
20
-110.27943657371635
30
0
10
-42.049639163138451
20
-109.62835372008747
30
0
10
-42.537994187704051
20
-109.04560472461726
30
0
10
-43.006075394707921
20
-108.52835987429876
30
0
10
-43.423115253379301
20
-108.06752974161414
30
0
10
-43.765194405319022
20
-107.65219606583891
30
0
10
-44.021527507233401
20
-107.27312402573804
30
0
10
-44.202819321123897
20
-106.9284126040783
30
0
10
-44.333847284107563
20
-106.61417229238407
30
0
10
-44.443609344659592
20
-106.31431925930301
30
0
10
-44.555235132272124
20
-105.98675766257692
30
0
10
-44.684184107431378
20
-105.57892795570588
30
0
10
-44.8388438099295
20
-105.04868492136009
30
0
10
-45.020026204475812
20
-104.38724941497144
30
0
10
-45.222669593884817
20
-103.6158117674149
30
0
10
-45.437974966087353
20
-102.77342990251464
30
0
10
-45.655376587552901
20
-101.90805005160107
30
0
10
-45.86465696139296
20
-101.06584812474289
30
0
10
-46.057822995700093
20
-100.28215708817889
30
0
10
-46.231537576710444
20
-99.569497833833637
30
0
10
-46.38667169030817
20
-98.9197745022406
30
0
10
-46.52677119568628
20
-98.311753390499007
30
0
10
-46.656836347696114
20
-97.717011565362441
30
0
10
-46.782060331270173
20
-97.106113305136631
30
0
10
-46.906366596101378
20
-96.455692005600255
30
0
10
-47.031870058058388
20
-95.751305068284225
30
0
10
-47.159419555610924
20
-94.98534207760342
30
0
10
-47.288850408640918
20
-94.156242760301581
30
0
10
-47.419364298310562
20
-93.267176001248544
30
0
10
-47.549833532699154
20
-92.324961063039467
30
0
10
-47.679189435679781
20
-91.338856810978115
30
0
10
-47.806587209841467
20
-90.319508254870584
30
0
10
-47.931279988891873
20
-89.278028705313716
30
0
10
-48.05256416442235
20
-88.225057416508363
30
0
10
-48.169694835690038
20
-87.16981523053181
30
0
10
-48.281816486074909
20
-86.11918796313671
30
0
10
-48.387881428979895
20
-85.076735417131232
30
0
10
-48.486586774374302
20
-84.041878102785176
30
0
10
-48.57627093779562
20
-83.008650358327941
30
0
10
-48.654946019035506
20
-81.965942267992574
30
0
10
-48.720511952132746
20
-80.899742378551181
30
0
10
-48.770926122930462
20
-79.794889114666347
30
0
10
-48.804390071269651
20
-78.63701226184196
30
0
10
-48.819531075168534
20
-77.414413653274906
30
0
10
-48.81558086343118
20
-76.119926435057877
30
0
10
-48.792567370670106
20
-74.752894214836317
30
0
10
-48.751473352750565
20
-73.320840557230412
30
0
10
-48.694476261497648
20
-71.84189979420762
30
0
10
-48.624923242738305
20
-70.34476496953485
30
0
10
-48.546834024214178
20
-68.864210228309489
30
0
10
-48.46450988230125
20
-67.437607290891521
30
0
10
-48.382098827972548
20
-66.101032304907989
30
0
10
-48.303182241386118
20
-64.885571909595953
30
0
10
-48.230345930698
20
-63.813487604844319
30
0
10
-48.164772613812154
20
-62.894570927109541
30
0
10
-48.105790911522845
20
-62.122114261162494
30
0
10
-48.050523591750903
20
-61.469757328000313
30
0
10
-47.993282601100866
20
-60.886101404290763
30
0
10
-47.926788301958688
20
-60.305354513545801
30
0
10
-47.843744033335767
20
-59.661039578025992
30
0
10
-47.738357424266063
20
-58.899363017324085
30
0
10
-47.607728715833424
20
-57.991117964145324
30
0
10
-47.45368252720543
20
-56.948214571608922
30
0
10
-47.282714481196429
20
-55.820709948759102
30
0
10
-47.104536745989797
20
-54.679465468072962
30
0
10
-46.931037000031715
20
-53.602887781725798
30
0
10
-46.775059196146323
20
-52.662247881414089
30
0
10
-46.649278970266636
20
-51.907010614540177
30
0
10
-46.564995895797956
20
-51.351553174979159
30
0
10
-46.531062049141205
20
-50.957959657709466
30
0
10
-46.552471723380719
20
-50.630301162762343
30
0
10
-46.627877560664068
20
-50.264323187415215
30
0
10
-46.746780277675803
20
-49.793623355631418
30
0
10
-46.888020339556221
20
-49.228214720369408
30
0
10
-47.027018170144089
20
-48.621091228002264
30
0
10
-47.142480966294002
20
-48.042150035365445
30
0
10
-47.222522526042745
20
-47.55034218231814
30
0
10
-47.273055957159514
20
-47.163749125761626
30
0
10
-47.306417368342096
20
-46.860898033940202
30
0
10
-47.328370417154339
20
-46.588900673459364
30
0
10
-47.322375394763945
20
-46.266185323105361
30
0
10
-47.26085117283386
20
-45.809449603029648
30
0
10
-47.121073308659348
20
-45.16223678254191
30
0
10
-46.902148011223524
20
-44.328950998692925
30
0
10
-46.622621444701274
20
-43.364638704519351
30
0
10
-46.312388417471261
20
-42.352674572875785
30
0
10
-46.006575070672739
20
-41.386597784366579
30
0
10
-45.738571220531774
20
-40.550141676901241
30
0
10
-45.533477736317366
20
-39.898193243238971
30
0
10
-45.401256982978794
20
-39.436986581401207
30
0
10
-45.330344472220048
20
-39.10565554059518
30
0
10
-45.300225216219673
20
-38.815978728883685
30
0
10
-45.293538765581822
20
-38.490711143687413
30
0
10
-45.308570883110647
20
-38.102994419513337
30
0
10
-45.350262204738591
20
-37.656880106253105
30
0
10
-45.421207850399064
20
-37.167657187121414
30
0
10
-45.512228940688018
20
-36.641490096208919
30
0
10
-45.607298035413912
20
-36.080120068371471
30
0
10
-45.689381696376373
20
-35.48714047843368
30
0
10
-45.745374791372342
20
-34.87277387630283
30
0
10
-45.772834905373017
20
-34.261569234551828
30
0
10
-45.77833693706598
20
-33.686318135486587
30
0
10
-45.771709500012498
20
-33.174564847246288
30
0
10
-45.761987516716552
20
-32.739209724550037
30
0
10
-45.751694747597853
20
-32.363365717696006
30
0
10
-45.735166246480361
20
-32.001516324912231
30
0
10
-45.702741467756155
20
-31.60336276810758
30
0
10
-45.643756213687546
20
-31.135675093915872
30
0
10
-45.549560324077149
20
-30.594765751044473
30
0
10
-45.415418613944176
20
-29.996128446907647
30
0
10
-45.242584199962081
20
-29.369231949076759
30
0
10
-45.040562241097142
20
-28.750316582813568
30
0
10
-44.82857632225052
20
-28.175845411099441
30
0
10
-44.627083368687927
20
-27.674628107744791
30
0
10
-44.44925766611766
20
-27.259382839059914
30
0
10
-44.293769137214902
20
-26.920084643785572
30
0
10
-44.133775774639716
20
-26.61256683096844
30
0
10
-43.930662878025053
20
-26.277538301297273
30
0
10
-43.652183487628911
20
-25.864812131341722
30
0
10
-43.292667407165446
20
-25.360493327006246
30
0
10
-42.869808296170746
20
-24.78298619788605
30
0
10
-42.41378451113151
20
-24.168832382184057
30
0
10
-41.958566288954124
20
-23.561502000745186
30
0
10
-41.533215467196804
20
-23.000026078305588
30
0
10
-41.150946823644063
20
-22.505038246133378
30
0
10
-40.808267099064238
20
-22.076704035162948
30
0
10
-40.494400198468128
20
-21.70461683240012
30
0
10
-40.197144371342944
20
-21.373831142556394
30
0
10
-39.911807976827234
20
-21.073710817714357
30
0
10
-39.643996094591351
20
-20.801871028751417
30
0
10
-39.395755297427982
20
-20.555072336744125
30
0
10
-39.151704407138922
20
-20.32048031091804
30
0
10
-38.872202969585992
20
-20.071229585508554
30
0
10
-38.519800802955629
20
-19.782919249428002
30
0
10
-38.083371694512138
20
-19.448777618395503
30
0
10
-37.596646710130081
20
-19.090886411348325
30
0
10
-37.113377192106462
20
-18.741954355070206
30
0
10
-36.687185887322691
20
-18.43009465809439
30
0
10
-36.350994313826163
20
-18.163732312900759
30
0
10
-36.09299673697285
20
-17.913095632585989
30
0
10
-35.8746987364201
20
-17.630241906669696
30
0
10
-35.653492526766222
20
-17.27282695749841
30
0
10
-35.406401678100607
20
-16.829858961226158
30
0
10
-35.12733059641203
20
-16.315625900139448
30
0
10
-34.818703096640689
20
-15.757002975733377
30
0
10
-34.48580973642769
20
-15.184032578123627
30
0
10
-34.12828223032065
20
-14.616877261698953
30
0
10
-33.740148963744204
20
-14.063911218032848
30
0
10
-33.315887782446637
20
-13.527829331969679
30
0
10
-32.855192064434021
20
-13.009742519057539
30
0
10
-32.367339832001576
20
-12.513498696611375
30
0
10
-31.877953800180627
20
-12.051350236480683
30
0
10
-31.427377176997972
20
-11.644264067646908
30
0
10
-31.049983809398828
20
-11.309834026590933
30
0
10
-30.757730530674078
20
-11.052931798547924
30
0
10
-30.52130000849921
20
-10.854860236160187
30
0
10
-30.254259568371932
20
-10.664267290025
30
0
10
-29.858198157983718
20
-10.422437874934944
30
0
10
-29.265951874166426
20
-10.087518058186884
30
0
10
-28.485345577301967
20
-9.6590263434856034
30
0
10
-27.576831610310521
20
-9.1655329456754053
30
0
10
-26.631207097392743
20
-8.6523778499486532
30
0
10
-25.747760187361678
20
-8.1696396302349843
30
0
10
-25.011182415169507
20
-7.7593893873128792
30
0
10
-24.471456312346533
20
-7.4446661795882738
30
0
10
-24.116600403942435
20
-7.214322123501665
30
0
10
-23.866454343845355
20
-7.0200006639140602
30
0
10
-23.628123589808112
20
-6.8080180180176626
30
0
10
-23.347755568104457
20
-6.549838001153228
30
0
10
-23.045750586259661
20
-6.261142600630615
30
0
10
-22.769560653190716
20
-5.9675537299259567
30
0
10
-22.555664549415269
20
-5.6751967806495021
30
0
10
-22.397159416005671
20
-5.348103882109374
30
0
10
-22.267362134998031
20
-4.9372056611790827
30
0
10
-22.136694290747499
20
-4.4039490659483418
30
0
10
-21.989502147179145
20
-3.7418823869483693
30
0
10
-21.819225916890499
20
-2.9659304346007556
30
0
10
-21.626356057818636
20
-2.1055942918703261
30
0
10
-21.415270164320749
20
-1.1965557930845865
30
0
10
-21.191594190106159
20
-0.27310089250585379
30
0
10
-20.959227167409434
20
0.64013897666915609
30
0
10
-20.71783095383276
20
1.5352005709894443
30
0
10
-20.464194099418542
20
2.416229329814334
30
0
10
-20.193306077979777
20
3.2958067057682561
30
0
10
-19.89955103165396
20
4.1909099740505384
30
0
10
-19.577827959639919
20
5.1190986808700467
30
0
10
-19.224755392250991
20
6.0944403229132424
30
0
10
-18.839715758581931
20
7.1239313066944563
30
0
10
-18.426285199147841
20
8.2027268479452324
30
0
10
-17.991735977116083
20
9.315326982945157
30
0
10
-17.545717233532191
20
10.439301571988839
30
0
10
-17.099201329033459
20
11.548194850551418
30
0
10
-16.663315582285062
20
12.614783512314546
30
0
10
-16.248232559187976
20
13.614155291847181
30
0
10
-15.862013403680006
20
14.526929314616178
30
0
10
-15.509522014449528
20
15.342265280613281
30
0
10
-15.191187732838616
20
16.06132231547755
30
0
10
-14.902191219250119
20
16.699462319176885
30
0
10
-14.634312810116306
20
17.280539987383143
30
0
10
-14.377473076324875
20
17.832116971368077
30
0
10
-14.121415290154696
20
18.380231595558723
30
0
10
-13.857273680508534
20
18.944561649068199
30
0
10
-13.579334973574824
20
19.532872576002404
30
0
10
-13.284529838977562
20
20.143981411892717
30
0
10
-12.971720510137171
20
20.771453017127151
30
0
10
-12.641046572254197
20
21.407157485690561
30
0
10
-12.29327951387889
20
22.044606972417245
30
0
10
-11.9290893978049
20
22.683093280092418
30
0
10
-11.548788437912679
20
23.327784686412144
30
0
10
-11.152308105866256
20
23.987837777716805
30
0
10
-10.739106726521378
20
24.675151507444664
30
0
10
-10.308096236890963
20
25.402820591191251
30
0
10
-9.8575833299149114
20
26.183796620548861
30
0
10
-9.3851474972258107
20
27.029261729225066
30
0
10
-8.887816563259566
20
27.948066581434556
30
0
10
-8.3624239031378362
20
28.946786908075385
30
0
10
-7.8059099285612259
20
30.02959349640722
30
0
10
-7.2156474466638425
20
31.198198436742931
30
0
10
-6.5897549214727036
20
32.451770533151695
30
0
10
-5.9274192764067637
20
33.786859561852957
30
0
10
-5.2292045542353289
20
35.197326886797029
30
0
10
-4.497390035530346
20
36.674249596062218
30
0
10
-3.7362410160418955
20
38.205891513563103
30
0
10
-2.9524458386812187
20
39.777506057441066
30
0
10
-2.1548518233070926
20
41.371850598802283
30
0
10
-1.3537419714995604
20
42.970167198844223
30
0
10
-0.56024919477074342
20
44.553023594027977
30
0
10
0.21428659000979894
20
46.101212394195755
30
0
10
0.95893604384711184
20
47.596624137399779
30
0
10
1.6638107958632367
20
49.023134356378691
30
0
10
2.3206839038552478
20
50.367478249888926
30
0
10
2.9236248893471224
20
51.620145551496002
30
0
10
3.4696046470168751
20
52.776232308075812
30
0
10
3.9591688516867203
20
53.836391303642223
30
0
10
4.3969521652696377
20
54.807552936296496
30
0
10
4.7925826205824373
20
55.70420882888336
30
0
10
5.1601166224646633
20
56.547576113207505
30
0
10
5.5161125458697748
20
57.362797976427309
30
0
10
5.8780767955357449
20
58.176681664161933
30
0
10
6.2627656585344198
20
59.01522795982396
30
0
10
6.6845298685766572
20
59.901223495438963
30
0
10
7.1536850922131014
20
60.851867607464179
30
0
10
7.6747656004766771
20
61.876237457731207
30
0
10
8.2451354677896465
20
62.973249849448301
30
0
10
8.856638878807404
20
64.133847471863575
30
0
10
9.496974903103915
20
65.342802165920318
30
0
10
10.15117831961148
20
66.580665471272425
30
0
10
10.803053869387384
20
67.82565476267601
30
0
10
11.436633850883274
20
69.055571046336766
30
0
10
12.037617916031971
20
70.249693829173012
30
0
10
12.594838542249319
20
71.390707438378456
30
0
10
13.101673582737643
20
72.466563621301773
30
0
10
13.557581397772067
20
73.472491171604574
30
0
10
13.969295251114563
20
74.412597186868311
30
0
10
14.348474097785278
20
75.297223342597661
30
0
10
14.709636254993136
20
76.140640455798476
30
0
10
15.0679631603779
20
76.958588812685193
30
0
10
15.437208835785031
20
77.76594190442124
30
0
10
15.82744683562148
20
78.57418298923281
30
0
10
16.243161612908455
20
79.38927668505066
30
0
10
16.680491046468816
20
80.208567884845053
30
0
10
17.128725992897522
20
81.022557648443836
30
0
10
17.573623671420343
20
81.818756257140905
30
0
10
18.000147445171699
20
82.584880688734174
30
0
10
18.39542656889811
20
83.31230062805453
30
0
10
18.751665005171944
20
83.99943416950039
30
0
10
19.068969672977239
20
84.655032334718868
30
0
10
19.358491715902083
20
85.301872278895189
30
0
10
19.639549833372755
20
85.972642772121631
30
0
10
19.936346595570352
20
86.705300388921373
30
0
10
20.274852723453325
20
87.538647531117775
30
0
10
20.679574995000539
20
88.507749873664579
30
0
10
21.170479594345814
20
89.639577971904103
30
0
10
21.759596394739795
20
90.948181235421558
30
0
10
22.448516709366775
20
92.431176049159518
30
0
10
23.230402984212326
20
94.072874958494396
30
0
10
24.09141936598963
20
95.846563329208237
30
0
10
25.012386914848403
20
97.717106700122102
30
0
10
25.970342746237641
20
99.643416709961087
30
0
10
26.940141220736095
20
101.58097890538164
30
0
10
27.896035179682613
20
103.48435120664897
30
0
10
28.813269979483525
20
105.3096811341438
30
0
10
29.669662219135763
20
107.01720068827609
30
0
10
30.44720785146238
20
108.57376405723109
30
0
10
31.133624813280242
20
109.95528993438997
30
0
10
31.724046776086094
20
111.14942398216641
30
0
10
32.222365303516533
20
112.1576891426221
30
0
10
32.643418764357627
20
112.99886934710261
30
0
10
33.012486470943152
20
113.70846954845975
30
0
10
33.359117998872968
20
114.32994589229378
30
0
10
33.712268356968458
20
114.90781294771949
30
0
10
34.094666389265655
20
115.47968753626533
30
0
10
34.518073826918176
20
116.06950723020448
30
0
10
34.976804266497147
20
116.67850756036769
30
0
10
35.446354197677024
20
117.28274646714992
30
0
10
35.895144146537078
20
117.84741070390925
30
0
10
36.29387539425548
20
118.33805979211039
30
0
10
36.625654521086254
20
118.73287964373647
30
0
10
36.896204004739779
20
119.0349815638678
30
0
10
37.142873115015526
20
119.28334348807769
30
0
10
37.413783728224047
20
119.5294052090283
30
0
10
37.748107552897288
20
119.81495999573504
30
0
10
38.156172502699462
20
120.14986861496878
30
0
10
38.62752867169781
20
120.52196480320005
30
0
10
39.138840747794383
20
120.90686730751952
30
0
10
39.661510536278584
20
121.27723039852464
30
0
10
40.170256659772448
20
121.61373753854571
30
0
10
40.646347318474156
20
121.90618508850443
30
0
10
41.07932792738918
20
122.1510622027532
30
0
10
41.468517463073916
20
122.35020028072428
30
0
10
41.826296416623741
20
122.50916667134567
30
0
10
42.174602459004561
20
122.63513327231018
30
0
10
42.534454384786173
20
122.73424418070393
30
0
10
42.914825698573217
20
122.80840940023106
30
0
10
43.309713334812862
20
122.85468341683455
30
0
10
43.707676354031896
20
122.86835390181152
30
0
10
44.099645211122692
20
122.84542225024484
30
0
10
44.483166878378498
20
122.78437064670193
30
0
10
44.858250852596242
20
122.68574371713292
30
0
10
45.224785621533393
20
122.55249473815495
30
0
10
45.580727149451832
20
122.3893352457853
30
0
10
45.923647010465004
20
122.20100192219972
30
0
10
46.251663484683831
20
121.99029579113025
30
0
10
46.564081309763367
20
121.75749615228105
30
0
10
46.860551493946083
20
121.50263865876907
30
0
10
47.140469331708431
20
121.22780759594204
30
0
10
47.402539948519468
20
120.9377479516148
30
0
10
47.645189850020103
20
120.63618793944025
30
0
10
47.866844881087601
20
120.32190224543044
30
0
10
48.06616064401473
20
119.98780574509314
30
0
10
48.241905019680672
20
119.62921613105397
30
0
10
48.392844961872385
20
119.25250422853793
30
0
10
48.517794497446317
20
118.87836172496229
30
0
10
48.616314317242278
20
118.52326939493128
30
0
10
48.689416115040622
20
118.18178004711112
30
0
10
48.739989619334011
20
117.81504159505678
30
0
10
48.771664543800412
20
117.37648548644356
30
0
10
48.787821107126739
20
116.83412643570648
30
0
10
48.790691197091746
20
116.19017303480103
30
0
10
48.781657153165163
20
115.46829366550119
30
0
10
48.761411602818036
20
114.704656739058
30
0
10
48.730173492924408
20
113.93733521353512
30
0
10
48.687875410420418
20
113.19679424813046
30
0
10
48.634375960413209
20
112.49488140839861
30
0
10
48.569483637531675
20
111.82890475508054
30
0
10
48.492964621854512
20
111.18713061454821
30
0
10
48.404553607576702
20
110.55396086169978
30
0
10
48.303969200817349
20
109.914829072751
30
0
10
48.190912729449877
20
109.26226782863475
30
0
10
48.065145423630042
20
108.59608288820736
30
0
10
47.926594250474949
20
107.92054864554012
30
0
10
47.77546723427087
20
107.24250115362233
30
0
10
47.612323864251955
20
106.56914287479418
30
0
10
47.438264269678839
20
105.90576593297151
30
0
10
47.254709815456025
20
105.25425248645806
30
0
10
47.062619043580142
20
104.61281715800166
30
0
10
46.861826140537495
20
103.97541968207044
30
0
10
46.650362634657512
20
103.33135639235434
30
0
10
46.423708682184738
20
102.66466845626182
30
0
10
46.17430759744353
20
101.95394926527283
30
0
10
45.892423768591016
20
101.17398222397119
30
0
10
45.566823465542853
20
100.29714263745605
30
0
10
45.185522521236329
20
99.29488698094012
30
0
10
44.736509976233577
20
98.139214065967323
30
0
10
44.208471722851598
20
96.804117159279016
30
0
10
43.591538175801134
20
95.267089135822388
30
0
10
42.877965338747671
20
93.510489759434989
30
0
10
42.062986630956694
20
91.523262879399994
30
0
10
41.144897640223292
20
89.301084724837295
30
0
10
40.124707915614117
20
86.845626973310516
30
0
10
39.00592594376387
20
84.16409211391597
30
0
10
37.794288987304022
20
81.268636087075961
30
0
10
36.497516600091785
20
78.175839334068087
30
0
10
35.12505397813473
20
74.906157069397565
30
0
10
33.687819709854153
20
71.483378550543804
30
0
10
32.197951652004242
20
67.934082518530516
30
0
10
30.668553629006404
20
64.287094324677966
30
0
10
29.113441791534914
20
60.572942362932167
30
0
10
27.546891130826832
20
56.823314823258492
30
0
10
25.983381935294037
20
53.070516327929617
30
0
10
24.437346269752538
20
49.346924618428815
30
0
10
22.922914458807739
20
45.684447246309787
30
0
10
21.453661534131633
20
42.113978205656473
30
0
10
20.042353764168396
20
38.66485470237977
30
0
10
18.700694969422781
20
35.364313562118824
30
0
10
17.439073311253669
20
32.236948430079863
30
0
10
16.266306946363798
20
29.304165062778338
30
0
10
15.189392274672144
20
26.583640968598043
30
0
10
14.213246115070151
20
24.088774848470198
30
0
10
13.340461928028359
20
21.828159611430049
30
0
10
12.571033330979821
20
19.805000473020549
30
0
10
11.902153964408569
20
18.016661222483453
30
0
10
11.327829271666598
20
16.453894720344042
30
0
10
10.839227868784162
20
15.101314989289413
30
0
10
10.42562911257377
20
13.938870085557994
30
0
10
10.075199967809702
20
12.943028549510283
30
0
10
9.7758422441174879
20
12.088083615731195
30
0
10
9.5160091264096316
20
11.347406691568178
30
0
10
9.2855361892518058
20
10.694723201685722
30
0
10
9.0764632493791453
20
10.105377524657545
30
0
10
8.8838670757778164
20
9.5576056524566582
30
0
10
8.7066720844648433
20
9.0337965657880197
30
0
10
8.5462343786863997
20
8.5201278913106364
30
0
10
8.4048760530054984
20
8.0061958273208553
30
0
10
8.2845552207150703
20
7.4846721889212287
30
0
10
8.1851854040679246
20
6.950885924783254
30
0
10
8.1048728330929052
20
6.402884262262587
30
0
10
8.0408683818279876
20
5.8417982622280826
30
0
10
7.990264794225701
20
5.271886091122866
30
0
10
7.9508483310383564
20
4.7012339645535688
30
0
10
7.9217172243482636
20
4.1402171497077314
30
0
10
7.9037483800205974
20
3.5968716726574619
30
0
10
7.8999989226508918
20
3.0733882977663129
30
0
10
7.9163558790861259
20
2.561390674278337
30
0
10
7.9614352982554433
20
2.0399528608346835
30
0
10
8.0424774545286368
20
1.4875683964656969
30
0
10
8.1615568630775286
20
0.89288352402412041
30
0
10
8.3120185774509654
20
0.26502673087958822
30
0
10
8.4738819902146503
20
-0.35353195814135741
30
0
10
8.6227911626604552
20
-0.90754990848584627
30
0
10
8.7419203504591998
20
-1.3564862604517582
30
0
10
8.8305364989588284
20
-1.6946246502059585
30
0
10
8.9194969221721738
20
-1.9861023908937523
30
0
10
9.0595580254948658
20
-2.341633100551844
30
0
10
9.2952674949275842
20
-2.8636640497429537
30
0
10
9.6372773439733699
20
-3.5895021781042868
30
0
10
10.059090456273969
20
-4.4815910798601504
30
0
10
10.515236387566747
20
-5.4598045181300003
30
0
10
10.953361467398548
20
-6.4216219153628042
30
0
10
11.328345109581599
20
-7.2667064490299893
30
0
10
11.616663067935635
20
-7.9209717268922191
30
0
10
11.82802669573439
20
-8.3576385796105814
30
0
10
12.024959790627133
20
-8.6279550549328317
30
0
10
12.289214209937933
20
-8.8253221676499081
30
0
10
12.680079585241636
20
-9.0379431003905921
30
0
10
13.186506383593319
20
-9.296765023585392
30
0
10
13.744085846694507
20
-9.5851373229882846
30
0
10
14.273694257217173
20
-9.8690773007649852
30
0
10
14.70857332936278
20
-10.117220052984948
30
0
10
15.036154955321502
20
-10.332834791261156
30
0
10
15.295798554294432
20
-10.551309782256876
30
0
10
15.538737861450397
20
-10.809442740602135
30
0
10
15.789796389684978
20
-11.114115577513564
30
0
10
16.037285486479856
20
-11.439217546555643
30
0
10
16.260252843369386
20
-11.756867364336241
30
0
10
16.450010304236578
20
-12.06583446409943
30
0
10
16.619673054192003
20
-12.399979997205097
30
0
10
16.790693472814791
20
-12.804354160969387
30
0
10
16.984110454794997
20
-13.3168473266392
30
0
10
17.214091560204558
20
-13.956489410773239
30
0
10
17.490179112545952
20
-14.729345939848191
30
0
10
17.817292085402205
20
-15.630020289999662
30
0
10
18.19664216232368
20
-16.644916795916988
30
0
10
18.626265113187792
20
-17.754813186941256
30
0
10
19.101701573513651
20
-18.937582151073546
30
0
10
19.616654107626626
20
-20.17122226381035
30
0
10
20.163455744834103
20
-21.434929011463456
30
0
10
20.73340141389124
20
-22.709003244544355
30
0
10
21.317123200903399
20
-23.975120707280801
30
0
10
21.90494735486217
20
-25.216451483173714
30
0
10
22.487259105265096
20
-26.417844609923947
30
0
10
23.054864151188102
20
-27.565982867518841
30
0
10
23.599351507039742
20
-28.649554607173478
30
0
10
24.113455959025003
20
-29.659408560576619
30
0
10
24.591420282816856
20
-30.588738761406034
30
0
10
25.029358256622167
20
-31.433198757000365
30
0
10
25.425625095062706
20
-32.191333199896306
30
0
10
25.781230637606789
20
-32.865254988927973
30
0
10
26.100178503150598
20
-33.461165988986195
30
0
10
26.389970170707549
20
-33.990122879247174
30
0
10
26.66172650482839
20
-34.468278969675154
30
0
10
26.931256192664456
20
-34.918401950829754
30
0
10
27.216202378131136
20
-35.366137348595338
30
0
10
27.529761911202556
20
-35.831739907683342
30
0
10
27.87613806396304
20
-36.324021167925046
30
0
10
28.243606164245584
20
-36.831344056497571
30
0
10
28.60393570487437
20
-37.320386764281565
30
0
10
28.928050200695623
20
-37.754700387238266
30
0
10
29.198657815813736
20
-38.109574960708279
30
0
10
29.42407976383749
20
-38.388366781921256
30
0
10
29.651562902145898
20
-38.638193443471415
30
0
10
29.944208406100721
20
-38.925613992086106
30
0
10
30.358197878561484
20
-39.312601521010826
30
0
10
30.919159477392611
20
-39.831637670381767
30
0
10
31.62705081428793
20
-40.490113161620442
30
0
10
32.462011722997829
20
-41.275724451520617
30
0
10
33.389845420811511
20
-42.161492160395035
30
0
10
34.367692407143373
20
-43.110968109941439
30
0
10
35.349538693044863
20
-44.083294492717599
30
0
10
36.291987384035586
20
-45.038481469438487
30
0
10
37.159468365113923
20
-45.942229158746798
30
0
10
37.9307873527559
20
-46.771830484560361
30
0
10
38.601144784900022
20
-47.518420160963203
30
0
10
39.177756271674433
20
-48.18405241803606
30
0
10
39.677014290628897
20
-48.78003912551798
30
0
10
40.121060483406822
20
-49.324773944120281
30
0
10
40.534532436655908
20
-49.841786347638333
30
0
10
40.941417420614606
20
-50.357673639108882
30
0
10
41.361398582679058
20
-50.900144167062905
30
0
10
41.808794741740101
20
-51.495714734732616
30
0
10
42.29282497453476
20
-52.167260964127458
30
0
10
42.817451905162429
20
-52.931595744486664
30
0
10
43.381410654111576
20
-53.797073707452057
30
0
10
43.978133220924434
20
-54.761097366767224
30
0
10
44.595776402878954
20
-55.807870721676458
30
0
10
45.217047686796725
20
-56.905495088435444
30
0
10
45.821394111198124
20
-58.011297571137028
30
0
10
46.387437773963136
20
-59.078018907444196
30
0
10
46.89530959908096
20
-60.059667377722327
30
0
10
47.329056779615897
20
-60.917573034200018
30
0
10
47.678947448558084
20
-61.626218358543966
30
0
10
47.943985070582784
20
-62.179485125698761
30
0
10
48.133943378275028
20
-62.595969031492544
30
0
10
48.272630680101656
20
-62.926689566558679
30
0
10
48.387039435383443
20
-63.23409279225384
30
0
10
48.496176400212278
20
-63.569667966905641
30
0
10
48.597794178381307
20
-63.949090776082038
30
0
10
48.678468894526432
20
-64.360929609902172
30
0
10
48.725784200677573
20
-64.780450542364619
30
0
10
48.742452934685517
20
-65.181364777314116
30
0
10
48.737615766674125
20
-65.548057384452861
30
0
10
48.715237635738269
20
-65.88476336010703
30
0
10
48.660052178186845
20
-66.231267134484838
30
0
10
48.549313706075907
20
-66.63790216941355
30
0
10
48.369340515274061
20
-67.134774229536319
30
0
10
48.133982566534669
20
-67.695232942582379
30
0
10
47.878128354093683
20
-68.254530669891352
30
0
10
47.642513841259458
20
-68.748393746064224
30
0
10
47.462843963318164
20
-69.13971212085265
30
0
10
47.353908322250263
20
-69.462324684595188
30
0
10
47.308017773781231
20
-69.811847962841412
30
0
10
47.307052799912825
20
-70.288241776026936
30
0
10
47.332402972279191
20
-70.940898251633101
30
0
10
47.370632284417539
20
-71.748358614832682
30
0
10
47.411392968145016
20
-72.65005777327714
30
0
10
47.44744069028711
20
-73.563898005547628
30
0
10
47.473776850219181
20
-74.410569185040686
30
0
10
47.487193184018665
20
-75.132755883949258
30
0
10
47.485574030628555
20
-75.721975305235929
30
0
10
47.467549977203078
20
-76.22274502618987
30
0
10
47.432550018751407
20
-76.703290363921369
30
0
10
47.380757974228558
20
-77.23479398505205
30
0
10
47.313120832853329
20
-77.865910493771921
30
0
10
47.231295602438081
20
-78.603023318570266
30
0
10
47.137240878109338
20
-79.423836948114001
30
0
10
47.032842325834693
20
-80.287931415184985
30
0
10
46.919521158706175
20
-81.148546922005679
30
0
10
46.797859261152716
20
-81.963668809842517
30
0
10
46.667194775851677
20
-82.707833199461959
30
0
10
46.525294680695488
20
-83.382419546069315
30
0
10
46.369075259899823
20
-84.006647367982836
30
0
10
46.195247272500445
20
-84.609854022675094
30
0
10
46.001010251496446
20
-85.223096866273352
30
0
10
45.784678540341652
20
-85.87148219027145
30
0
10
45.546461458294701
20
-86.565024768416833
30
0
10
45.288012522764234
20
-87.300894349139568
30
0
10
45.011746437459898
20
-88.067754843787455
30
0
10
44.720251056726063
20
-88.849327194473133
30
0
10
44.41562754359137
20
-89.628389044472215
30
0
10
44.098936002279679
20
-90.390327953400359
30
0
10
43.769400858206041
20
-91.127561346417409
30
0
10
43.425197611209121
20
-91.838513378951362
30
0
10
43.064665657223742
20
-92.52520140793898
30
0
10
42.68732669980416
20
-93.191347467080931
30
0
10
42.295095629465891
20
-93.840150578890302
30
0
10
41.893149697563203
20
-94.472482978414391
30
0
10
41.491609792134156
20
-95.084188947410539
30
0
10
41.102739999329287
20
-95.668236770525709
30
0
10
40.736837065150382
20
-96.21832870553213
30
0
10
40.398244485791508
20
-96.732280847014152
30
0
10
40.082004719157609
20
-97.214936262458892
30
0
10
39.768541963783484
20
-97.682661115830058
30
0
10
39.425874472859533
20
-98.16171050679641
30
0
10
39.019184752755713
20
-98.680589518852088
30
0
10
38.518655462546661
20
-99.263830915457319
30
0
10
37.907437994468758
20
-99.925662677213012
30
0
10
37.190938246676595
20
-100.66260449770049
30
0
10
36.401189765601963
20
-101.45006239988348
30
0
10
35.586090359870227
20
-102.2512514243691
30
0
10
34.801374399481119
20
-103.02388274296881
30
0
10
34.101406335316845
20
-103.72782933841968
30
0
10
33.53070155659654
20
-104.33215592664469
30
0
10
33.114613546267705
20
-104.82292893907993
30
0
10
32.851604274728786
20
-105.20949995602835
30
0
10
32.701631988476819
20
-105.53455659763243
30
0
10
32.607535028507627
20
-105.85228327857831
30
0
10
32.518952241922115
20
-106.20422597231135
30
0
10
32.420385669489804
20
-106.59076384348845
30
0
10
32.316521885837652
20
-106.9872632299917
30
0
10
32.211766588846523
20
-107.36680051081075
30
0
10
32.086022913278093
20
-107.72553131496302
30
0
10
31.9110347979924
20
-108.07286102713437
30
0
10
31.673021193037535
20
-108.41489573983985
30
0
10
31.402201722122165
20
-108.73453739780848
30
0
10
31.144804436733548
20
-109.00731691240745
30
0
10
30.923517217369433
20
-109.22481052273712
30
0
10
30.688537047451213
20
-109.42355214145897
30
0
10
30.347279877707702
20
-109.66632897764288
30
0
10
29.818658286724279
20
-110.00858949457238
30
0
10
29.090199396082209
20
-110.46303318052364
30
0
10
28.215959691290916
20
-111.00064999589291
30
0
10
27.285304963065727
20
-111.56967194804821
30
0
10
26.401079672340046
20
-112.10875040036623
30
0
10
25.654161315055873
20
-112.56236301771378
30
0
10
25.098865175887379
20
-112.89567971074653
30
0
10
24.729634437362876
20
-113.10868176100847
30
0
10
24.452773353733676
20
-113.25321415019565
30
0
10
24.140967412640983
20
-113.40101386518015
30
0
10
23.690686510012554
20
-113.61006036872416
30
0
10
23.084896691315411
20
-113.88770928522938
30
0
10
22.371667617408608
20
-114.20411214224016
30
0
10
21.633517162317002
20
-114.51094812555877
30
0
10
20.9589414800718
20
-114.75934977298863
30
0
10
20.41561843283479
20
-114.91566770411202
30
0
10
20.016334598388809
20
-114.98443639837259
30
0
10
19.721634175684276
20
-114.99751454887556
30
0
10
19.462275812198833
20
-114.98917251733829
30
0
10
19.15431768085433
20
-114.96939327834797
30
0
10
18.721424196719866
20
-114.92529308855516
30
0
10
18.115071056668221
20
-114.83970490231913
30
0
10
17.342183772254639
20
-114.70773760019503
30
0
10
16.46140566351789
20
-114.54011185778226
30
0
10
15.55698821112953
20
-114.35443029781054
30
0
10
14.719936411403795
20
-114.17033662167603
30
0
10
14.024751783268457
20
-114.00265410865461
30
0
10
13.511332517291454
20
-113.85633861122811
30
0
10
13.15655980833011
20
-113.71830380555474
30
0
10
12.883280866903036
20
-113.56015666302005
30
0
10
12.597494516517497
20
-113.34913365039563
30
0
10
12.223137209897729
20
-113.05827156068978
30
0
10
11.717184947583998
20
-112.67114723088125
30
0
10
11.060420242411022
20
-112.17983001541695
30
0
10
10.255060371779752
20
-111.58475948333611
30
0
10
9.3195804426228541
20
-110.8938162620489
30
0
10
8.2847065722733273
20
-110.12177491333667
30
0
10
7.1889811368351548
20
-109.28950759342663
30
0
10
6.0743178741388046
20
-108.42351422037594
30
0
10
4.9828046824749368
20
-107.55389849132155
30
0
10
3.9539717289378928
20
-106.71184994578331
30
0
10
3.0219257925230103
20
-105.927302742275
30
0
10
2.2124857699659741
20
-105.22648955436112
30
0
10
1.540444352162361
20
-104.62961220574968
30
0
10
1.006480930146449
20
-104.148295388702
30
0
10
0.5949099649658155
20
-103.78352168487616
30
0
10
0.26943266178736347
20
-103.52243238163251
30
0
10
-0.025403522518826254
20
-103.33836992436872
30
0
10
-0.3417171908275613
20
-103.20307100267371
30
0
10
-0.70611179592318529
20
-103.09848670612058
30
0
10
-1.1044316883638006
20
-103.02518107419537
30
0
10
-1.508057062147701
20
-102.9896570473076
30
0
10
-1.8969489386516747
20
-102.99337269122901
30
0
10
-2.2787084413224066
20
-103.02369865859114
30
0
10
-2.6683559510168102
20
-103.06493576643732
30
0
10
-3.0714386320448384
20
-103.1072553307709
30
0
10
-3.4687702437535655
20
-103.15586372730195
30
0
10
-3.8330501008120645
20
-103.23157041080466
30
0
10
-4.1432063352509712
20
-103.3729960196704
30
0
10
-4.3981774603917181
20
-103.63621694468712
30
0
10
-4.6073500510428449
20
-104.06744374099108
30
0
10
-4.7822053336197641
20
-104.67563702312265
30
0
10
-4.9283517089254127
20
-105.40912850975687
30
0
10
-5.0489091676180298
20
-106.18428919710271
30
0
10
-5.1468443081887756
20
-106.90966555760033
30
0
10
-5.2279607579999698
20
-107.51309282867652
30
0
10
-5.3030354526956884
20
-107.96467545994633
30
0
10
-5.3918030866500013
20
-108.30900968969515
30
0
10
-5.5132542749679025
20
-108.62359120602754
30
0
10
-5.6757224021595629
20
-108.97094501049592
30
0
10
-5.862996772405296
20
-109.34153474437281
30
0
10
-6.0520291993459754
20
-109.68822617169795
30
0
10
-6.2340300989234674
20
-109.97523398406611
30
0
10
-6.441396031258444
20
-110.2340305811704
30
0
10
-6.7252924597209773
20
-110.53492607976871
30
0
10
-7.1233018429880985
20
-110.93927508433133
30
0
10
-7.623216619816553
20
-111.44893539843464
30
0
10
-8.1730386366655985
20
-112.01490505992986
30
0
10
-8.7064785585381603
20
-112.56675727782107
30
0
10
-9.1647056124124475
20
-113.03655608485079
30
0
10
-9.5163657141407416
20
-113.38166342323957
30
0
10
-9.7864433993123328
20
-113.61641831299087
30
0
10
-10.049684471331986
20
-113.80717146829964
30
0
10
-10.392667342585685
20
-114.03452028408478
30
0
10
-10.878751676344685
20
-114.35894168537959
30
0
10
-11.532160713631402
20
-114.8049345835806
30
0
10
-12.349813788205404
20
-115.37245613429781
30
0
10
-13.305624281863011
20
-116.04092700088133
30
0
10
-14.357907412360193
20
-116.77631368477167
30
0
10
-15.45539594531771
20
-117.53681287063577
30
0
10
-16.543993629831078
20
-118.27932233366101
30
0
10
-17.572886723726093
20
-118.96514078357484
30
0
10
-18.501729482208283
20
-119.56706466740187
30
0
10
-19.304342713132726
20
-120.07181177687028
30
0
10
-19.968792809806072
20
-120.47735215990903
30
0
10
-20.498136978020117
20
-120.79149832057981
30
0
10
-20.911505239138322
20
-121.03014516278694
30
0
10
-21.243635478672207
20
-121.2152851258419
30
0
10
-21.548483774743161
20
-121.37402929123152
30
0
10
-21.889235496243757
20
-121.53408086447918
30
0
10
-22.314069292440752
20
-121.71580810860229
30
0
10
-22.82941015105504
20
-121.92306739332255
30
0
10
-23.393755428676748
20
-122.14132038891385
30
0
10
-23.948663015949897
20
-122.34857606791618
30
0
10
-24.44014607243993
20
-122.52304468386524
30
0
10
-24.845709022685366
20
-122.65270662347378
30
0
10
-25.193955024882943
20
-122.74239371708298
30
0
10
-25.532778420724334
20
-122.80376857008029
30
0
10
-25.900591646084163
20
-122.84631318781419
30
0
10
-26.299038449503882
20
-122.86880487618971
30
0
10
-26.710648952229334
20
-122.86549470122191
30
0
10
-27.113866912833501
20
-122.83146552726237
30
0
10
-27.421654404571463
20
-122.78073258831513
30
0
10
-27.643808695215633
20
-122.73112018428716
30
0
10
-27.788980425457332
20
-122.69324015247882
30
0
10
-27.861000000000004
20
-122.67310000000001
30
0
0
ENDSEC
0
SECTION
2
OBJECTS
0
DICTIONARY
5
C
100
AcDbDictionary
3
ACAD_GROUP
350
D
3
ACAD_MLINESTYLE
350
17
0
DICTIONARY
5
D
100
AcDbDictionary
0
DICTIONARY
5
1A
330
C
100
AcDbDictionary
0
DICTIONARY
5
17
100
AcDbDictionary
0
ENDSEC
0
EOF
