  0
SECTION
  2
HEADER
  9
$ACADVER
  1
AC1027
  9
$ACADMAINTVER
 70
105
  9
$DWGCODEPAGE
  3
ANSI_1252
  9
$LASTSAVEDBY
  1
ezdxf
  9
$REQUIREDVERSIONS
160
0
  9
$INSBASE
 10
0.0
 20
0.0
 30
0.0
  9
$EXTMIN
 10
1e+20
 20
1e+20
 30
1e+20
  9
$EXTMAX
 10
-1e+20
 20
-1e+20
 30
-1e+20
  9
$LIMMIN
 10
0.0
 20
0.0
  9
$LIMMAX
 10
420.0
 20
297.0
  9
$ORTHOMODE
 70
0
  9
$REGENMODE
 70
1
  9
$FILLMODE
 70
1
  9
$QTEXTMODE
 70
0
  9
$MIRRTEXT
 70
1
  9
$LTSCALE
 40
1.0
  9
$ATTMODE
 70
1
  9
$TEXTSIZE
 40
2.5
  9
$TRACEWID
 40
1.0
  9
$TEXTSTYLE
  7
Standard
  9
$CLAYER
  8
0
  9
$CELTYPE
  6
ByLayer
  9
$CECOLOR
 62
256
  9
$CELTSCALE
 40
1.0
  9
$DISPSILH
 70
0
  9
$DIMSCALE
 40
1.0
  9
$DIMASZ
 40
2.5
  9
$DIMEXO
 40
0.625
  9
$DIMDLI
 40
3.75
  9
$DIMRND
 40
0.0
  9
$DIMDLE
 40
0.0
  9
$DIMEXE
 40
1.25
  9
$DIMTP
 40
0.0
  9
$DIMTM
 40
0.0
  9
$DIMTXT
 40
2.5
  9
$DIMCEN
 40
2.5
  9
$DIMTSZ
 40
0.0
  9
$DIMTOL
 70
0
  9
$DIMLIM
 70
0
  9
$DIMTIH
 70
0
  9
$DIMTOH
 70
0
  9
$DIMSE1
 70
0
  9
$DIMSE2
 70
0
  9
$DIMTAD
 70
1
  9
$DIMZIN
 70
8
  9
$DIMBLK
  1

  9
$DIMASO
 70
1
  9
$DIMSHO
 70
1
  9
$DIMPOST
  1

  9
$DIMAPOST
  1

  9
$DIMALT
 70
0
  9
$DIMALTD
 70
3
  9
$DIMALTF
 40
0.03937007874
  9
$DIMLFAC
 40
1.0
  9
$DIMTOFL
 70
1
  9
$DIMTVP
 40
0.0
  9
$DIMTIX
 70
0
  9
$DIMSOXD
 70
0
  9
$DIMSAH
 70
0
  9
$DIMBLK1
  1

  9
$DIMBLK2
  1

  9
$DIMSTYLE
  2
ISO-25
  9
$DIMCLRD
 70
0
  9
$DIMCLRE
 70
0
  9
$DIMCLRT
 70
0
  9
$DIMTFAC
 40
1.0
  9
$DIMGAP
 40
0.625
  9
$DIMJUST
 70
0
  9
$DIMSD1
 70
0
  9
$DIMSD2
 70
0
  9
$DIMTOLJ
 70
0
  9
$DIMTZIN
 70
8
  9
$DIMALTZ
 70
0
  9
$DIMALTTZ
 70
0
  9
$DIMUPT
 70
0
  9
$DIMDEC
 70
2
  9
$DIMTDEC
 70
2
  9
$DIMALTU
 70
2
  9
$DIMALTTD
 70
3
  9
$DIMTXSTY
  7
Standard
  9
$DIMAUNIT
 70
0
  9
$DIMADEC
 70
0
  9
$DIMALTRND
 40
0.0
  9
$DIMAZIN
 70
0
  9
$DIMDSEP
 70
44
  9
$DIMATFIT
 70
3
  9
$DIMFRAC
 70
0
  9
$DIMLDRBLK
  1

  9
$DIMLUNIT
 70
2
  9
$DIMLWD
 70
-2
  9
$DIMLWE
 70
-2
  9
$DIMTMOVE
 70
0
  9
$DIMFXL
 40
1.0
  9
$DIMFXLON
 70
0
  9
$DIMJOGANG
 40
0.785398163397
  9
$DIMTFILL
 70
0
  9
$DIMTFILLCLR
 70
0
  9
$DIMARCSYM
 70
0
  9
$DIMLTYPE
  6

  9
$DIMLTEX1
  6

  9
$DIMLTEX2
  6

  9
$DIMTXTDIRECTION
 70
0
  9
$LUNITS
 70
2
  9
$LUPREC
 70
4
  9
$SKETCHINC
 40
1.0
  9
$FILLETRAD
 40
10.0
  9
$AUNITS
 70
0
  9
$AUPREC
 70
2
  9
$MENU
  1
.
  9
$ELEVATION
 40
0.0
  9
$PELEVATION
 40
0.0
  9
$THICKNESS
 40
0.0
  9
$LIMCHECK
 70
0
  9
$CHAMFERA
 40
0.0
  9
$CHAMFERB
 40
0.0
  9
$CHAMFERC
 40
0.0
  9
$CHAMFERD
 40
0.0
  9
$SKPOLY
 70
0
  9
$TDCREATE
 40
2461290.5282986113
  9
$TDUCREATE
 40
2458532.153996898
  9
$TDUPDATE
 40
2461290.5282986113
  9
$TDUUPDATE
 40
2458532.1544311
  9
$TDINDWG
 40
0.0
  9
$TDUSRTIMER
 40
0.0
  9
$USRTIMER
 70
1
  9
$ANGBASE
 50
0.0
  9
$ANGDIR
 70
0
  9
$PDMODE
 70
0
  9
$PDSIZE
 40
0.0
  9
$PLINEWID
 40
0.0
  9
$SPLFRAME
 70
0
  9
$SPLINETYPE
 70
6
  9
$SPLINESEGS
 70
8
  9
$HANDSEED
  5
EA
  9
$SURFTAB1
 70
6
  9
$SURFTAB2
 70
6
  9
$SURFTYPE
 70
6
  9
$SURFU
 70
6
  9
$SURFV
 70
6
  9
$UCSBASE
  2

  9
$UCSNAME
  2

  9
$UCSORG
 10
0.0
 20
0.0
 30
0.0
  9
$UCSXDIR
 10
1.0
 20
0.0
 30
0.0
  9
$UCSYDIR
 10
0.0
 20
1.0
 30
0.0
  9
$UCSORTHOREF
  2

  9
$UCSORTHOVIEW
 70
0
  9
$UCSORGTOP
 10
0.0
 20
0.0
 30
0.0
  9
$UCSORGBOTTOM
 10
0.0
 20
0.0
 30
0.0
  9
$UCSORGLEFT
 10
0.0
 20
0.0
 30
0.0
  9
$UCSORGRIGHT
 10
0.0
 20
0.0
 30
0.0
  9
$UCSORGFRONT
 10
0.0
 20
0.0
 30
0.0
  9
$UCSORGBACK
 10
0.0
 20
0.0
 30
0.0
  9
$PUCSBASE
  2

  9
$PUCSNAME
  2

  9
$PUCSORG
 10
0.0
 20
0.0
 30
0.0
  9
$PUCSXDIR
 10
1.0
 20
0.0
 30
0.0
  9
$PUCSYDIR
 10
0.0
 20
1.0
 30
0.0
  9
$PUCSORTHOREF
  2

  9
$PUCSORTHOVIEW
 70
0
  9
$PUCSORGTOP
 10
0.0
 20
0.0
 30
0.0
  9
$PUCSORGBOTTOM
 10
0.0
 20
0.0
 30
0.0
  9
$PUCSORGLEFT
 10
0.0
 20
0.0
 30
0.0
  9
$PUCSORGRIGHT
 10
0.0
 20
0.0
 30
0.0
  9
$PUCSORGFRONT
 10
0.0
 20
0.0
 30
0.0
  9
$PUCSORGBACK
 10
0.0
 20
0.0
 30
0.0
  9
$USERI1
 70
0
  9
$USERI2
 70
0
  9
$USERI3
 70
0
  9
$USERI4
 70
0
  9
$USERI5
 70
0
  9
$USERR1
 40
0.0
  9
$USERR2
 40
0.0
  9
$USERR3
 40
0.0
  9
$USERR4
 40
0.0
  9
$USERR5
 40
0.0
  9
$WORLDVIEW
 70
1
  9
$SHADEDGE
 70
3
  9
$SHADEDIF
 70
70
  9
$TILEMODE
 70
1
  9
$MAXACTVP
 70
64
  9
$PINSBASE
 10
0.0
 20
0.0
 30
0.0
  9
$PLIMCHECK
 70
0
  9
$PEXTMIN
 10
1e+20
 20
1e+20
 30
1e+20
  9
$PEXTMAX
 10
-1e+20
 20
-1e+20
 30
-1e+20
  9
$PLIMMIN
 10
0.0
 20
0.0
  9
$PLIMMAX
 10
420.0
 20
297.0
  9
$UNITMODE
 70
0
  9
$VISRETAIN
 70
1
  9
$PLINEGEN
 70
0
  9
$PSLTSCALE
 70
1
  9
$TREEDEPTH
 70
3020
  9
$CMLSTYLE
  2
Standard
  9
$CMLJUST
 70
0
  9
$CMLSCALE
 40
20.0
  9
$PROXYGRAPHICS
 70
1
  9
$MEASUREMENT
 70
1
  9
$CELWEIGHT
370
-1
  9
$ENDCAPS
280
0
  9
$JOINSTYLE
280
0
  9
$LWDISPLAY
290
0
  9
$INSUNITS
 70
4
  9
$HYPERLINKBASE
  1

  9
$STYLESHEET
  1

  9
$XEDIT
290
1
  9
$CEPSNTYPE
380
0
  9
$PSTYLEMODE
290
1
  9
$FINGERPRINTGUID
  2
{BDFF64EE-179E-4792-ACC5-2A606C1B1123}
  9
$VERSIONGUID
  2
{E7AADE32-92ED-4887-8AE8-070CF7F60852}
  9
$EXTNAMES
290
1
  9
$PSVPSCALE
 40
0.0
  9
$OLESTARTUP
290
0
  9
$SORTENTS
280
127
  9
$INDEXCTL
280
0
  9
$HIDETEXT
280
1
  9
$XCLIPFRAME
280
1
  9
$HALOGAP
280
0
  9
$OBSCOLOR
 70
257
  9
$OBSLTYPE
280
0
  9
$INTERSECTIONDISPLAY
280
0
  9
$INTERSECTIONCOLOR
 70
257
  9
$DIMASSOC
280
2
  9
$PROJECTNAME
  1

  9
$CAMERADISPLAY
290
0
  9
$LENSLENGTH
 40
50.0
  9
$CAMERAHEIGHT
 40
0.0
  9
$STEPSPERSEC
 40
24.0
  9
$STEPSIZE
 40
100.0
  9
$3DDWFPREC
 40
2.0
  9
$PSOLWIDTH
 40
0.005
  9
$PSOLHEIGHT
 40
0.08
  9
$LOFTANG1
 40
1.570796326795
  9
$LOFTANG2
 40
1.570796326795
  9
$LOFTMAG1
 40
0.0
  9
$LOFTMAG2
 40
0.0
  9
$LOFTPARAM
 70
7
  9
$LOFTNORMALS
280
1
  9
$LATITUDE
 40
37.795
  9
$LONGITUDE
 40
-122.394
  9
$NORTHDIRECTION
 40
0.0
  9
$TIMEZONE
 70
-8000
  9
$LIGHTGLYPHDISPLAY
280
1
  9
$TILEMODELIGHTSYNCH
280
1
  9
$CMATERIAL
347
20
  9
$SOLIDHIST
280
0
  9
$SHOWHIST
280
1
  9
$DWFFRAME
280
2
  9
$DGNFRAME
280
2
  9
$REALWORLDSCALE
290
1
  9
$INTERFERECOLOR
 62
256
  9
$CSHADOW
280
0
  9
$SHADOWPLANELOCATION
 40
0.0
  0
ENDSEC
  0
SECTION
  2
CLASSES
  0
CLASS
  1
ACDBDICTIONARYWDFLT
  2
AcDbDictionaryWithDefault
  3
ObjectDBX Classes
 90
0
 91
0
280
0
281
0
  0
CLASS
  1
SUN
  2
AcDbSun
  3
SCENEOE
 90
1153
 91
0
280
0
281
0
  0
CLASS
  1
VISUALSTYLE
  2
AcDbVisualStyle
  3
ObjectDBX Classes
 90
4095
 91
0
280
0
281
0
  0
CLASS
  1
MATERIAL
  2
AcDbMaterial
  3
ObjectDBX Classes
 90
1153
 91
0
280
0
281
0
  0
CLASS
  1
SCALE
  2
AcDbScale
  3
ObjectDBX Classes
 90
1153
 91
0
280
0
281
0
  0
CLASS
  1
TABLESTYLE
  2
AcDbTableStyle
  3
ObjectDBX Classes
 90
4095
 91
0
280
0
281
0
  0
CLASS
  1
MLEADERSTYLE
  2
AcDbMLeaderStyle
  3
ACDB_MLEADERSTYLE_CLASS
 90
4095
 91
0
280
0
281
0
  0
CLASS
  1
DICTIONARYVAR
  2
AcDbDictionaryVar
  3
ObjectDBX Classes
 90
0
 91
0
280
0
281
0
  0
CLASS
  1
CELLSTYLEMAP
  2
AcDbCellStyleMap
  3
ObjectDBX Classes
 90
1152
 91
0
280
0
281
0
  0
CLASS
  1
MENTALRAYRENDERSETTINGS
  2
AcDbMentalRayRenderSettings
  3
SCENEOE
 90
1024
 91
0
280
0
281
0
  0
CLASS
  1
ACDBDETAILVIEWSTYLE
  2
AcDbDetailViewStyle
  3
ObjectDBX Classes
 90
1025
 91
0
280
0
281
0
  0
CLASS
  1
ACDBSECTIONVIEWSTYLE
  2
AcDbSectionViewStyle
  3
ObjectDBX Classes
 90
1025
 91
0
280
0
281
0
  0
CLASS
  1
RASTERVARIABLES
  2
AcDbRasterVariables
  3
ISM
 90
0
 91
0
280
0
281
0
  0
CLASS
  1
LAYOUT
  2
AcDbLayout
  3
ObjectDBX Classes
 90
0
 91
0
280
0
281
0
  0
CLASS
  1
ACDBPLACEHOLDER
  2
AcDbPlaceHolder
  3
ObjectDBX Classes
 90
0
 91
0
280
0
281
0
  0
ENDSEC
  0
SECTION
  2
TABLES
  0
TABLE
  2
VPORT
  5
8
330
0
100
AcDbSymbolTable
 70
1
  0
VPORT
  5
E6
330
8
100
AcDbSymbolTableRecord
100
AcDbViewportTableRecord
  2
*Active
 70
0
 10
0.0
 20
0.0
 11
1.0
 21
1.0
 12
0.0
 22
0.0
 13
0.0
 23
0.0
 14
0.5
 24
0.5
 15
0.5
 25
0.5
 16
0.0
 26
0.0
 36
1.0
 17
0.0
 27
0.0
 37
0.0
 40
243.82290649414062
 41
1.34
 42
50.0
 43
0.0
 44
0.0
 50
0.0
 51
0.0
 71
0
 72
1000
 73
1
 74
3
 75
0
 76
0
 77
0
 78
0
281
0
 65
1
110
0.0
120
0.0
130
0.0
111
1.0
121
0.0
131
0.0
112
0.0
122
1.0
132
0.0
 79
0
146
0.0
  0
ENDTAB
  0
TABLE
  2
LTYPE
  5
2
330
0
100
AcDbSymbolTable
 70
3
  0
LTYPE
  5
24
330
2
100
AcDbSymbolTableRecord
100
AcDbLinetypeTableRecord
  2
ByBlock
 70
0
  3

 72
65
 73
0
 40
0.0
  0
LTYPE
  5
25
330
2
100
AcDbSymbolTableRecord
100
AcDbLinetypeTableRecord
  2
ByLayer
 70
0
  3

 72
65
 73
0
 40
0.0
  0
LTYPE
  5
26
330
2
100
AcDbSymbolTableRecord
100
AcDbLinetypeTableRecord
  2
Continuous
 70
0
  3

 72
65
 73
0
 40
0.0
  0
ENDTAB
  0
TABLE
  2
LAYER
  5
1
330
0
100
AcDbSymbolTable
 70
2
  0
LAYER
  5
27
330
1
100
AcDbSymbolTableRecord
100
AcDbLayerTableRecord
  2
0
 70
0
 62
7
  6
Continuous
370
-3
390
13
347
21
  0
LAYER
  5
28
330
1
100
AcDbSymbolTableRecord
100
AcDbLayerTableRecord
  2
Defpoints
 70
0
 62
7
  6
Continuous
290
0
370
-3
390
13
347
21
  0
ENDTAB
  0
TABLE
  2
STYLE
  5
5
330
0
100
AcDbSymbolTable
 70
1
  0
STYLE
  5
29
330
5
100
AcDbSymbolTableRecord
100
AcDbTextStyleTableRecord
  2
Standard
 70
0
 40
0.0
 41
1.0
 50
0.0
 71
0
 42
2.5
  3
txt
  4

  0
ENDTAB
  0
TABLE
  2
VIEW
  5
7
330
0
100
AcDbSymbolTable
 70
0
  0
ENDTAB
  0
TABLE
  2
UCS
  5
6
330
0
100
AcDbSymbolTable
 70
0
  0
ENDTAB
  0
TABLE
  2
APPID
  5
3
330
0
100
AcDbSymbolTable
 70
3
  0
APPID
  5
2A
330
3
100
AcDbSymbolTableRecord
100
AcDbRegAppTableRecord
  2
ACAD
 70
0
  0
APPID
  5
E7
330
3
100
AcDbSymbolTableRecord
100
AcDbRegAppTableRecord
  2
HATCHBACKGROUNDCOLOR
 70
0
  0
APPID
  5
E8
330
3
100
AcDbSymbolTableRecord
100
AcDbRegAppTableRecord
  2
EZDXF
 70
0
  0
ENDTAB
  0
TABLE
  2
DIMSTYLE
  5
4
330
0
100
AcDbSymbolTable
 70
1
100
AcDbDimStyleTable
  0
DIMSTYLE
105
2B
330
4
100
AcDbSymbolTableRecord
100
AcDbDimStyleTableRecord
  2
Standard
 70
0
 40
1.0
 41
2.5
 42
0.625
 43
3.75
 44
1.25
 45
0.0
 46
0.0
 47
0.0
 48
0.0
 49
2.5
140
2.5
141
2.5
142
0.0
143
0.03937007874
144
1.0
145
0.0
146
1.0
147
0.625
148
0.0
 69
0
 70
0
 71
0
 72
0
 73
0
 74
0
 75
0
 76
0
 77
1
 78
8
 79
3
170
0
171
3
172
1
173
0
174
0
175
0
176
0
177
0
178
0
179
2
271
2
272
2
273
2
274
3
275
0
276
0
277
2
278
44
279
0
280
0
281
0
282
0
283
0
284
8
285
0
286
0
288
0
289
3
290
0
371
-2
372
-2
  0
ENDTAB
  0
TABLE
  2
BLOCK_RECORD
  5
9
330
0
100
AcDbSymbolTable
 70
2
  0
BLOCK_RECORD
  5
17
330
9
100
AcDbSymbolTableRecord
100
AcDbBlockTableRecord
  2
*Model_Space
340
1A
 70
0
280
1
281
0
  0
BLOCK_RECORD
  5
1B
330
9
100
AcDbSymbolTableRecord
100
AcDbBlockTableRecord
  2
*Paper_Space
340
1E
 70
0
280
1
281
0
  0
ENDTAB
  0
ENDSEC
  0
SECTION
  2
BLOCKS
  0
BLOCK
  5
18
330
17
100
AcDbEntity
  8
0
100
AcDbBlockBegin
  2
*Model_Space
 70
0
 10
0.0
 20
0.0
 30
0.0
  3
*Model_Space
  1

  0
ENDBLK
  5
19
330
17
100
AcDbEntity
  8
0
100
AcDbBlockEnd
  0
BLOCK
  5
1C
330
1B
100
AcDbEntity
  8
0
100
AcDbBlockBegin
  2
*Paper_Space
 70
0
 10
0.0
 20
0.0
 30
0.0
  3
*Paper_Space
  1

  0
ENDBLK
  5
1D
330
1B
100
AcDbEntity
  8
0
100
AcDbBlockEnd
  0
ENDSEC
  0
SECTION
  2
ENTITIES
  0
LINE
  5
2F
330
17
100
AcDbEntity
  8
0
100
AcDbLine
 10
-15.705867767333984
 20
-121.91145324707031
 30
0.0
 11
-17.266132354736328
 21
-121.50614929199219
 31
0.0
  0
LINE
  5
30
330
17
100
AcDbEntity
  8
0
100
AcDbLine
 10
-17.266132354736328
 20
-121.50614929199219
 30
0.0
 11
-18.61069679260254
 21
-120.60326385498047
 31
0.0
  0
LINE
  5
31
330
17
100
AcDbEntity
  8
0
100
AcDbLine
 10
-18.61069679260254
 20
-120.60326385498047
 30
0.0
 11
-19.697574615478516
 21
-119.39967346191406
 31
0.0
  0
LINE
  5
32
330
17
100
AcDbEntity
  8
0
100
AcDbLine
 10
-19.697574615478516
 20
-119.39967346191406
 30
0.0
 11
-20.619571685791016
 21
-118.06294250488281
 31
0.0
  0
LINE
  5
33
330
17
100
AcDbEntity
  8
0
100
AcDbLine
 10
-20.619571685791016
 20
-118.06294250488281
 30
0.0
 11
-21.413414001464844
 21
-116.648681640625
 31
0.0
  0
LINE
  5
34
330
17
100
AcDbEntity
  8
0
100
AcDbLine
 10
-21.413414001464844
 20
-116.648681640625
 30
0.0
 11
-21.890169143676758
 21
-115.101318359375
 31
0.0
  0
LINE
  5
35
330
17
100
AcDbEntity
  8
0
100
AcDbLine
 10
-21.890169143676758
 20
-115.101318359375
 30
0.0
 11
-22.176610946655273
 21
-111.86851501464844
 31
0.0
  0
LINE
  5
36
330
17
100
AcDbEntity
  8
0
100
AcDbLine
 10
-22.176610946655273
 20
-111.86851501464844
 30
0.0
 11
-21.968318939208984
 21
-98.87662506103516
 31
0.0
  0
LINE
  5
37
330
17
100
AcDbEntity
  8
0
100
AcDbLine
 10
-21.968318939208984
 20
-98.87662506103516
 30
0.0
 11
-22.113739013671875
 21
-97.2593994140625
 31
0.0
  0
LINE
  5
38
330
17
100
AcDbEntity
  8
0
100
AcDbLine
 10
-22.113739013671875
 20
-97.2593994140625
 30
0.0
 11
-22.59579086303711
 21
-94.04661560058594
 31
0.0
  0
LINE
  5
39
330
17
100
AcDbEntity
  8
0
100
AcDbLine
 10
-22.59579086303711
 20
-94.04661560058594
 30
0.0
 11
-22.946306228637695
 21
-92.46327209472656
 31
0.0
  0
LINE
  5
3A
330
17
100
AcDbEntity
  8
0
100
AcDbLine
 10
-22.946306228637695
 20
-92.46327209472656
 30
0.0
 11
-23.65483283996582
 21
-91.00678253173828
 31
0.0
  0
LINE
  5
3B
330
17
100
AcDbEntity
  8
0
100
AcDbLine
 10
-23.65483283996582
 20
-91.00678253173828
 30
0.0
 11
-24.544797897338867
 21
-89.64816284179688
 31
0.0
  0
LINE
  5
3C
330
17
100
AcDbEntity
  8
0
100
AcDbLine
 10
-24.544797897338867
 20
-89.64816284179688
 30
0.0
 11
-25.29132652282715
 21
-88.20993041992188
 31
0.0
  0
LINE
  5
3D
330
17
100
AcDbEntity
  8
0
100
AcDbLine
 10
-25.29132652282715
 20
-88.20993041992188
 30
0.0
 11
-25.65999412536621
 21
-86.63346862792969
 31
0.0
  0
LINE
  5
3E
330
17
100
AcDbEntity
  8
0
100
AcDbLine
 10
-25.65999412536621
 20
-86.63346862792969
 30
0.0
 11
-25.756452560424805
 21
-85.01321411132812
 31
0.0
  0
LINE
  5
3F
330
17
100
AcDbEntity
  8
0
100
AcDbLine
 10
-25.756452560424805
 20
-85.01321411132812
 30
0.0
 11
-25.998971939086914
 21
-65.52291107177734
 31
0.0
  0
LINE
  5
40
330
17
100
AcDbEntity
  8
0
100
AcDbLine
 10
-25.998971939086914
 20
-65.52291107177734
 30
0.0
 11
-26.408523559570312
 21
-60.66752624511719
 31
0.0
  0
LINE
  5
41
330
17
100
AcDbEntity
  8
0
100
AcDbLine
 10
-26.408523559570312
 20
-60.66752624511719
 30
0.0
 11
-26.61864471435547
 21
-49.300201416015625
 31
0.0
  0
LINE
  5
42
330
17
100
AcDbEntity
  8
0
100
AcDbLine
 10
-26.61864471435547
 20
-49.300201416015625
 30
0.0
 11
-26.86466407775879
 21
-47.69602966308594
 31
0.0
  0
LINE
  5
43
330
17
100
AcDbEntity
  8
0
100
AcDbLine
 10
-26.86466407775879
 20
-47.69602966308594
 30
0.0
 11
-27.62703514099121
 21
-44.539772033691406
 31
0.0
  0
LINE
  5
44
330
17
100
AcDbEntity
  8
0
100
AcDbLine
 10
-27.62703514099121
 20
-44.539772033691406
 30
0.0
 11
-27.909605026245117
 21
-41.30561447143555
 31
0.0
  0
LINE
  5
45
330
17
100
AcDbEntity
  8
0
100
AcDbLine
 10
-27.909605026245117
 20
-41.30561447143555
 30
0.0
 11
-27.77829933166504
 21
-34.81035614013672
 31
0.0
  0
LINE
  5
46
330
17
100
AcDbEntity
  8
0
100
AcDbLine
 10
-27.77829933166504
 20
-34.81035614013672
 30
0.0
 11
-27.931835174560547
 21
-12.069740295410156
 31
0.0
  0
LINE
  5
47
330
17
100
AcDbEntity
  8
0
100
AcDbLine
 10
-27.931835174560547
 20
-12.069740295410156
 30
0.0
 11
-27.746280670166016
 21
-5.5756330490112305
 31
0.0
  0
LINE
  5
48
330
17
100
AcDbEntity
  8
0
100
AcDbLine
 10
-27.746280670166016
 20
-5.5756330490112305
 30
0.0
 11
-27.63926887512207
 21
-3.9551944732666016
 31
0.0
  0
LINE
  5
49
330
17
100
AcDbEntity
  8
0
100
AcDbLine
 10
-27.63926887512207
 20
-3.9551944732666016
 30
0.0
 11
-26.722009658813477
 21
2.476350784301758
 31
0.0
  0
LINE
  5
4A
330
17
100
AcDbEntity
  8
0
100
AcDbLine
 10
-26.722009658813477
 20
2.476350784301758
 30
0.0
 11
-26.189786911010742
 21
8.950934171676636
 31
0.0
  0
LINE
  5
4B
330
17
100
AcDbEntity
  8
0
100
AcDbLine
 10
-26.189786911010742
 20
8.950934171676636
 30
0.0
 11
-24.726255416870117
 21
16.937389373779297
 31
0.0
  0
LINE
  5
4C
330
17
100
AcDbEntity
  8
0
100
AcDbLine
 10
-24.726255416870117
 20
16.937389373779297
 30
0.0
 11
-24.395336151123047
 21
21.79860210418701
 31
0.0
  0
LINE
  5
4D
330
17
100
AcDbEntity
  8
0
100
AcDbLine
 10
-24.395336151123047
 20
21.79860210418701
 30
0.0
 11
-23.812538146972656
 21
26.63591957092285
 31
0.0
  0
LINE
  5
4E
330
17
100
AcDbEntity
  8
0
100
AcDbLine
 10
-23.812538146972656
 20
26.63591957092285
 30
0.0
 11
-23.587574005126953
 21
31.503379821777344
 31
0.0
  0
LINE
  5
4F
330
17
100
AcDbEntity
  8
0
100
AcDbLine
 10
-23.587574005126953
 20
31.503379821777344
 30
0.0
 11
-22.63079833984375
 21
41.20197677612305
 31
0.0
  0
LINE
  5
50
330
17
100
AcDbEntity
  8
0
100
AcDbLine
 10
-22.63079833984375
 20
41.20197677612305
 30
0.0
 11
-22.50617027282715
 21
46.07235336303711
 31
0.0
  0
LINE
  5
51
330
17
100
AcDbEntity
  8
0
100
AcDbLine
 10
-22.50617027282715
 20
46.07235336303711
 30
0.0
 11
-22.74135398864746
 21
52.565311431884766
 31
0.0
  0
LINE
  5
52
330
17
100
AcDbEntity
  8
0
100
AcDbLine
 10
-22.74135398864746
 20
52.565311431884766
 30
0.0
 11
-22.833171844482422
 21
65.55989074707031
 31
0.0
  0
LINE
  5
53
330
17
100
AcDbEntity
  8
0
100
AcDbLine
 10
-22.833171844482422
 20
65.55989074707031
 30
0.0
 11
-22.766063690185547
 21
67.18240356445312
 31
0.0
  0
LINE
  5
54
330
17
100
AcDbEntity
  8
0
100
AcDbLine
 10
-22.766063690185547
 20
67.18240356445312
 30
0.0
 11
-22.519866943359375
 21
68.78670501708984
 31
0.0
  0
LINE
  5
55
330
17
100
AcDbEntity
  8
0
100
AcDbLine
 10
-22.519866943359375
 20
68.78670501708984
 30
0.0
 11
-21.734594345092773
 21
71.93885803222656
 31
0.0
  0
LINE
  5
56
330
17
100
AcDbEntity
  8
0
100
AcDbLine
 10
-21.734594345092773
 20
71.93885803222656
 30
0.0
 11
-21.442522048950195
 21
73.5357666015625
 31
0.0
  0
LINE
  5
57
330
17
100
AcDbEntity
  8
0
100
AcDbLine
 10
-21.442522048950195
 20
73.5357666015625
 30
0.0
 11
-21.34714698791504
 21
75.15663146972656
 31
0.0
  0
LINE
  5
58
330
17
100
AcDbEntity
  8
0
100
AcDbLine
 10
-21.34714698791504
 20
75.15663146972656
 30
0.0
 11
-21.38813591003418
 21
86.52698516845703
 31
0.0
  0
LINE
  5
59
330
17
100
AcDbEntity
  8
0
100
AcDbLine
 10
-21.38813591003418
 20
86.52698516845703
 30
0.0
 11
-21.127891540527344
 21
96.26948547363281
 31
0.0
  0
LINE
  5
5A
330
17
100
AcDbEntity
  8
0
100
AcDbLine
 10
-21.127891540527344
 20
96.26948547363281
 30
0.0
 11
-20.5678653717041
 21
101.1082992553711
 31
0.0
  0
LINE
  5
5B
330
17
100
AcDbEntity
  8
0
100
AcDbLine
 10
-20.5678653717041
 20
101.1082992553711
 30
0.0
 11
-20.08333969116211
 21
102.65382385253906
 31
0.0
  0
LINE
  5
5C
330
17
100
AcDbEntity
  8
0
100
AcDbLine
 10
-20.08333969116211
 20
102.65382385253906
 30
0.0
 11
-18.526020050048828
 21
105.50331115722656
 31
0.0
  0
LINE
  5
5D
330
17
100
AcDbEntity
  8
0
100
AcDbLine
 10
-18.526020050048828
 20
105.50331115722656
 30
0.0
 11
-17.949384689331055
 21
107.02061462402344
 31
0.0
  0
LINE
  5
5E
330
17
100
AcDbEntity
  8
0
100
AcDbLine
 10
-17.949384689331055
 20
107.02061462402344
 30
0.0
 11
-17.50357437133789
 21
108.5824203491211
 31
0.0
  0
LINE
  5
5F
330
17
100
AcDbEntity
  8
0
100
AcDbLine
 10
-17.50357437133789
 20
108.5824203491211
 30
0.0
 11
-16.897262573242188
 21
110.08677673339844
 31
0.0
  0
LINE
  5
60
330
17
100
AcDbEntity
  8
0
100
AcDbLine
 10
-16.897262573242188
 20
110.08677673339844
 30
0.0
 11
-15.99763011932373
 21
111.4353256225586
 31
0.0
  0
LINE
  5
61
330
17
100
AcDbEntity
  8
0
100
AcDbLine
 10
-15.99763011932373
 20
111.4353256225586
 30
0.0
 11
-11.588988304138184
 21
116.20658111572266
 31
0.0
  0
LINE
  5
62
330
17
100
AcDbEntity
  8
0
100
AcDbLine
 10
-11.588988304138184
 20
116.20658111572266
 30
0.0
 11
-10.431593894958496
 21
117.34523010253906
 31
0.0
  0
LINE
  5
63
330
17
100
AcDbEntity
  8
0
100
AcDbLine
 10
-10.431593894958496
 20
117.34523010253906
 30
0.0
 11
-7.834721088409424
 21
119.29173278808594
 31
0.0
  0
LINE
  5
64
330
17
100
AcDbEntity
  8
0
100
AcDbLine
 10
-7.834721088409424
 20
119.29173278808594
 30
0.0
 11
-6.401255130767822
 21
120.0530776977539
 31
0.0
  0
LINE
  5
65
330
17
100
AcDbEntity
  8
0
100
AcDbLine
 10
-6.401255130767822
 20
120.0530776977539
 30
0.0
 11
-4.912954807281494
 21
120.70320129394531
 31
0.0
  0
LINE
  5
66
330
17
100
AcDbEntity
  8
0
100
AcDbLine
 10
-4.912954807281494
 20
120.70320129394531
 30
0.0
 11
-3.3749241828918457
 21
121.22237396240234
 31
0.0
  0
LINE
  5
67
330
17
100
AcDbEntity
  8
0
100
AcDbLine
 10
-3.3749241828918457
 20
121.22237396240234
 30
0.0
 11
-0.17906469106674194
 21
121.79338836669922
 31
0.0
  0
LINE
  5
68
330
17
100
AcDbEntity
  8
0
100
AcDbLine
 10
-0.17906469106674194
 20
121.79338836669922
 30
0.0
 11
1.4403204917907715
 21
121.91145324707031
 31
0.0
  0
LINE
  5
69
330
17
100
AcDbEntity
  8
0
100
AcDbLine
 10
1.4403204917907715
 20
121.91145324707031
 30
0.0
 11
3.0589704513549805
 21
121.7914810180664
 31
0.0
  0
LINE
  5
6A
330
17
100
AcDbEntity
  8
0
100
AcDbLine
 10
3.0589704513549805
 20
121.7914810180664
 30
0.0
 11
6.256543159484863
 21
121.21834564208984
 31
0.0
  0
LINE
  5
6B
330
17
100
AcDbEntity
  8
0
100
AcDbLine
 10
6.256543159484863
 20
121.21834564208984
 30
0.0
 11
9.391234397888184
 21
120.37386322021484
 31
0.0
  0
LINE
  5
6C
330
17
100
AcDbEntity
  8
0
100
AcDbLine
 10
9.391234397888184
 20
120.37386322021484
 30
0.0
 11
10.900346755981445
 21
119.77849578857422
 31
0.0
  0
LINE
  5
6D
330
17
100
AcDbEntity
  8
0
100
AcDbLine
 10
10.900346755981445
 20
119.77849578857422
 30
0.0
 11
12.29140853881836
 21
118.94268035888672
 31
0.0
  0
LINE
  5
6E
330
17
100
AcDbEntity
  8
0
100
AcDbLine
 10
12.29140853881836
 20
118.94268035888672
 30
0.0
 11
14.958001136779785
 21
117.088623046875
 31
0.0
  0
LINE
  5
6F
330
17
100
AcDbEntity
  8
0
100
AcDbLine
 10
14.958001136779785
 20
117.088623046875
 30
0.0
 11
17.319190979003906
 21
114.8623275756836
 31
0.0
  0
LINE
  5
70
330
17
100
AcDbEntity
  8
0
100
AcDbLine
 10
17.319190979003906
 20
114.8623275756836
 30
0.0
 11
18.302791595458984
 21
113.57200622558594
 31
0.0
  0
LINE
  5
71
330
17
100
AcDbEntity
  8
0
100
AcDbLine
 10
18.302791595458984
 20
113.57200622558594
 30
0.0
 11
20.024028778076172
 21
110.81690979003906
 31
0.0
  0
LINE
  5
72
330
17
100
AcDbEntity
  8
0
100
AcDbLine
 10
20.024028778076172
 20
110.81690979003906
 30
0.0
 11
20.758922576904297
 21
109.36923217773438
 31
0.0
  0
LINE
  5
73
330
17
100
AcDbEntity
  8
0
100
AcDbLine
 10
20.758922576904297
 20
109.36923217773438
 30
0.0
 11
21.37205696105957
 21
107.86509704589844
 31
0.0
  0
LINE
  5
74
330
17
100
AcDbEntity
  8
0
100
AcDbLine
 10
21.37205696105957
 20
107.86509704589844
 30
0.0
 11
21.901155471801758
 21
106.32962036132812
 31
0.0
  0
LINE
  5
75
330
17
100
AcDbEntity
  8
0
100
AcDbLine
 10
21.901155471801758
 20
106.32962036132812
 30
0.0
 11
23.2320499420166
 21
101.64186096191406
 31
0.0
  0
LINE
  5
76
330
17
100
AcDbEntity
  8
0
100
AcDbLine
 10
23.2320499420166
 20
101.64186096191406
 30
0.0
 11
23.57254409790039
 21
100.05440521240234
 31
0.0
  0
LINE
  5
77
330
17
100
AcDbEntity
  8
0
100
AcDbLine
 10
23.57254409790039
 20
100.05440521240234
 30
0.0
 11
24.154163360595703
 21
95.21643829345703
 31
0.0
  0
LINE
  5
78
330
17
100
AcDbEntity
  8
0
100
AcDbLine
 10
24.154163360595703
 20
95.21643829345703
 30
0.0
 11
24.28631591796875
 21
91.97235870361328
 31
0.0
  0
LINE
  5
79
330
17
100
AcDbEntity
  8
0
100
AcDbLine
 10
24.28631591796875
 20
91.97235870361328
 30
0.0
 11
24.223281860351562
 21
87.10000610351562
 31
0.0
  0
LINE
  5
7A
330
17
100
AcDbEntity
  8
0
100
AcDbLine
 10
24.223281860351562
 20
87.10000610351562
 30
0.0
 11
23.90584945678711
 21
83.86788940429688
 31
0.0
  0
LINE
  5
7B
330
17
100
AcDbEntity
  8
0
100
AcDbLine
 10
23.90584945678711
 20
83.86788940429688
 30
0.0
 11
23.314056396484375
 21
80.67436981201172
 31
0.0
  0
LINE
  5
7C
330
17
100
AcDbEntity
  8
0
100
AcDbLine
 10
23.314056396484375
 20
80.67436981201172
 30
0.0
 11
22.399024963378906
 21
77.5583267211914
 31
0.0
  0
LINE
  5
7D
330
17
100
AcDbEntity
  8
0
100
AcDbLine
 10
22.399024963378906
 20
77.5583267211914
 30
0.0
 11
21.729753494262695
 21
76.08291625976562
 31
0.0
  0
LINE
  5
7E
330
17
100
AcDbEntity
  8
0
100
AcDbLine
 10
21.729753494262695
 20
76.08291625976562
 30
0.0
 11
20.5551815032959
 21
74.98367309570312
 31
0.0
  0
LINE
  5
7F
330
17
100
AcDbEntity
  8
0
100
AcDbLine
 10
20.5551815032959
 20
74.98367309570312
 30
0.0
 11
19.00189208984375
 21
74.58231353759766
 31
0.0
  0
LINE
  5
80
330
17
100
AcDbEntity
  8
0
100
AcDbLine
 10
19.00189208984375
 20
74.58231353759766
 30
0.0
 11
17.524059295654297
 21
75.18585205078125
 31
0.0
  0
LINE
  5
81
330
17
100
AcDbEntity
  8
0
100
AcDbLine
 10
17.524059295654297
 20
75.18585205078125
 30
0.0
 11
16.34825897216797
 21
76.30309295654297
 31
0.0
  0
LINE
  5
82
330
17
100
AcDbEntity
  8
0
100
AcDbLine
 10
16.34825897216797
 20
76.30309295654297
 30
0.0
 11
10.1240873336792
 21
83.8006820678711
 31
0.0
  0
LINE
  5
83
330
17
100
AcDbEntity
  8
0
100
AcDbLine
 10
10.1240873336792
 20
83.8006820678711
 30
0.0
 11
8.732093811035156
 21
84.58358001708984
 31
0.0
  0
LINE
  5
84
330
17
100
AcDbEntity
  8
0
100
AcDbLine
 10
8.732093811035156
 20
84.58358001708984
 30
0.0
 11
7.114369869232178
 21
84.61336517333984
 31
0.0
  0
LINE
  5
85
330
17
100
AcDbEntity
  8
0
100
AcDbLine
 10
7.114369869232178
 20
84.61336517333984
 30
0.0
 11
3.8701438903808594
 21
84.4756088256836
 31
0.0
  0
LINE
  5
86
330
17
100
AcDbEntity
  8
0
100
AcDbLine
 10
3.8701438903808594
 20
84.4756088256836
 30
0.0
 11
2.2487738132476807
 21
84.5700454711914
 31
0.0
  0
LINE
  5
87
330
17
100
AcDbEntity
  8
0
100
AcDbLine
 10
2.2487738132476807
 20
84.5700454711914
 30
0.0
 11
0.6373043060302734
 21
84.76763916015625
 31
0.0
  0
LINE
  5
88
330
17
100
AcDbEntity
  8
0
100
AcDbLine
 10
0.6373043060302734
 20
84.76763916015625
 30
0.0
 11
-0.9267668426036835
 21
85.19468688964844
 31
0.0
  0
LINE
  5
89
330
17
100
AcDbEntity
  8
0
100
AcDbLine
 10
-0.9267668426036835
 20
85.19468688964844
 30
0.0
 11
-2.376887321472168
 21
85.91650390625
 31
0.0
  0
LINE
  5
8A
330
17
100
AcDbEntity
  8
0
100
AcDbLine
 10
-2.376887321472168
 20
85.91650390625
 30
0.0
 11
-3.5781197547912598
 21
87.00337982177734
 31
0.0
  0
LINE
  5
8B
330
17
100
AcDbEntity
  8
0
100
AcDbLine
 10
-3.5781197547912598
 20
87.00337982177734
 30
0.0
 11
-4.442606449127197
 21
88.3755111694336
 31
0.0
  0
LINE
  5
8C
330
17
100
AcDbEntity
  8
0
100
AcDbLine
 10
-4.442606449127197
 20
88.3755111694336
 30
0.0
 11
-4.996004581451416
 21
89.90005493164062
 31
0.0
  0
LINE
  5
8D
330
17
100
AcDbEntity
  8
0
100
AcDbLine
 10
-4.996004581451416
 20
89.90005493164062
 30
0.0
 11
-5.727914333343506
 21
93.06459045410156
 31
0.0
  0
LINE
  5
8E
330
17
100
AcDbEntity
  8
0
100
AcDbLine
 10
-5.727914333343506
 20
93.06459045410156
 30
0.0
 11
-6.469352722167969
 21
94.47708892822266
 31
0.0
  0
LINE
  5
8F
330
17
100
AcDbEntity
  8
0
100
AcDbLine
 10
-6.469352722167969
 20
94.47708892822266
 30
0.0
 11
-7.979889869689941
 21
94.97008514404297
 31
0.0
  0
LINE
  5
90
330
17
100
AcDbEntity
  8
0
100
AcDbLine
 10
-7.979889869689941
 20
94.97008514404297
 30
0.0
 11
-9.57419204711914
 21
94.77104949951172
 31
0.0
  0
LINE
  5
91
330
17
100
AcDbEntity
  8
0
100
AcDbLine
 10
-9.57419204711914
 20
94.77104949951172
 30
0.0
 11
-10.382988929748535
 21
93.45100402832031
 31
0.0
  0
LINE
  5
92
330
17
100
AcDbEntity
  8
0
100
AcDbLine
 10
-10.382988929748535
 20
93.45100402832031
 30
0.0
 11
-10.397732734680176
 21
91.8291015625
 31
0.0
  0
LINE
  5
93
330
17
100
AcDbEntity
  8
0
100
AcDbLine
 10
-10.397732734680176
 20
91.8291015625
 30
0.0
 11
-10.036083221435547
 21
86.96966552734375
 31
0.0
  0
LINE
  5
94
330
17
100
AcDbEntity
  8
0
100
AcDbLine
 10
-10.036083221435547
 20
86.96966552734375
 30
0.0
 11
-9.792268753051758
 21
85.36431884765625
 31
0.0
  0
LINE
  5
95
330
17
100
AcDbEntity
  8
0
100
AcDbLine
 10
-9.792268753051758
 20
85.36431884765625
 30
0.0
 11
-9.081330299377441
 21
82.19463348388672
 31
0.0
  0
LINE
  5
96
330
17
100
AcDbEntity
  8
0
100
AcDbLine
 10
-9.081330299377441
 20
82.19463348388672
 30
0.0
 11
-7.017079830169678
 21
76.03585815429688
 31
0.0
  0
LINE
  5
97
330
17
100
AcDbEntity
  8
0
100
AcDbLine
 10
-7.017079830169678
 20
76.03585815429688
 30
0.0
 11
-4.935820579528809
 21
71.6314926147461
 31
0.0
  0
LINE
  5
98
330
17
100
AcDbEntity
  8
0
100
AcDbLine
 10
-4.935820579528809
 20
71.6314926147461
 30
0.0
 11
-1.5359126925468445
 21
66.09638977050781
 31
0.0
  0
LINE
  5
99
330
17
100
AcDbEntity
  8
0
100
AcDbLine
 10
-1.5359126925468445
 20
66.09638977050781
 30
0.0
 11
0.47805166244506836
 21
63.54902648925781
 31
0.0
  0
LINE
  5
9A
330
17
100
AcDbEntity
  8
0
100
AcDbLine
 10
0.47805166244506836
 20
63.54902648925781
 30
0.0
 11
2.6940882205963135
 21
61.173580169677734
 31
0.0
  0
LINE
  5
9B
330
17
100
AcDbEntity
  8
0
100
AcDbLine
 10
2.6940882205963135
 20
61.173580169677734
 30
0.0
 11
3.8673181533813477
 21
60.05075454711914
 31
0.0
  0
LINE
  5
9C
330
17
100
AcDbEntity
  8
0
100
AcDbLine
 10
3.8673181533813477
 20
60.05075454711914
 30
0.0
 11
8.837039947509766
 21
55.866878509521484
 31
0.0
  0
LINE
  5
9D
330
17
100
AcDbEntity
  8
0
100
AcDbLine
 10
8.837039947509766
 20
55.866878509521484
 30
0.0
 11
9.921782493591309
 21
54.66004180908203
 31
0.0
  0
LINE
  5
9E
330
17
100
AcDbEntity
  8
0
100
AcDbLine
 10
9.921782493591309
 20
54.66004180908203
 30
0.0
 11
10.766855239868164
 21
53.277381896972656
 31
0.0
  0
LINE
  5
9F
330
17
100
AcDbEntity
  8
0
100
AcDbLine
 10
10.766855239868164
 20
53.277381896972656
 30
0.0
 11
11.31137466430664
 21
51.75048828125
 31
0.0
  0
LINE
  5
A0
330
17
100
AcDbEntity
  8
0
100
AcDbLine
 10
11.31137466430664
 20
51.75048828125
 30
0.0
 11
11.594669342041016
 21
50.15235900878906
 31
0.0
  0
LINE
  5
A1
330
17
100
AcDbEntity
  8
0
100
AcDbLine
 10
11.594669342041016
 20
50.15235900878906
 30
0.0
 11
12.160781860351562
 21
40.4263801574707
 31
0.0
  0
LINE
  5
A2
330
17
100
AcDbEntity
  8
0
100
AcDbLine
 10
12.160781860351562
 20
40.4263801574707
 30
0.0
 11
13.097661018371582
 21
39.181297302246094
 31
0.0
  0
LINE
  5
A3
330
17
100
AcDbEntity
  8
0
100
AcDbLine
 10
13.097661018371582
 20
39.181297302246094
 30
0.0
 11
14.683801651000977
 21
38.88672637939453
 31
0.0
  0
LINE
  5
A4
330
17
100
AcDbEntity
  8
0
100
AcDbLine
 10
14.683801651000977
 20
38.88672637939453
 30
0.0
 11
19.547203063964844
 21
38.57980155944824
 31
0.0
  0
LINE
  5
A5
330
17
100
AcDbEntity
  8
0
100
AcDbLine
 10
19.547203063964844
 20
38.57980155944824
 30
0.0
 11
21.140674591064453
 21
38.28835678100586
 31
0.0
  0
LINE
  5
A6
330
17
100
AcDbEntity
  8
0
100
AcDbLine
 10
21.140674591064453
 20
38.28835678100586
 30
0.0
 11
22.572132110595703
 21
37.54673767089844
 31
0.0
  0
LINE
  5
A7
330
17
100
AcDbEntity
  8
0
100
AcDbLine
 10
22.572132110595703
 20
37.54673767089844
 30
0.0
 11
23.56587028503418
 21
36.28171730041504
 31
0.0
  0
LINE
  5
A8
330
17
100
AcDbEntity
  8
0
100
AcDbLine
 10
23.56587028503418
 20
36.28171730041504
 30
0.0
 11
24.005544662475586
 21
34.72517967224121
 31
0.0
  0
LINE
  5
A9
330
17
100
AcDbEntity
  8
0
100
AcDbLine
 10
24.005544662475586
 20
34.72517967224121
 30
0.0
 11
24.3593807220459
 21
21.738083839416504
 31
0.0
  0
LINE
  5
AA
330
17
100
AcDbEntity
  8
0
100
AcDbLine
 10
24.3593807220459
 20
21.738083839416504
 30
0.0
 11
24.790624618530273
 21
16.884361267089844
 31
0.0
  0
LINE
  5
AB
330
17
100
AcDbEntity
  8
0
100
AcDbLine
 10
24.790624618530273
 20
16.884361267089844
 30
0.0
 11
26.337509155273438
 21
3.982149362564087
 31
0.0
  0
LINE
  5
AC
330
17
100
AcDbEntity
  8
0
100
AcDbLine
 10
26.337509155273438
 20
3.982149362564087
 30
0.0
 11
27.898481369018555
 21
-20.333391189575195
 31
0.0
  0
LINE
  5
AD
330
17
100
AcDbEntity
  8
0
100
AcDbLine
 10
27.898481369018555
 20
-20.333391189575195
 30
0.0
 11
27.931835174560547
 21
-21.957212448120117
 31
0.0
  0
LINE
  5
AE
330
17
100
AcDbEntity
  8
0
100
AcDbLine
 10
27.931835174560547
 20
-21.957212448120117
 30
0.0
 11
27.063716888427734
 21
-43.055633544921875
 31
0.0
  0
LINE
  5
AF
330
17
100
AcDbEntity
  8
0
100
AcDbLine
 10
27.063716888427734
 20
-43.055633544921875
 30
0.0
 11
26.367368698120117
 21
-51.14733123779297
 31
0.0
  0
LINE
  5
B0
330
17
100
AcDbEntity
  8
0
100
AcDbLine
 10
26.367368698120117
 20
-51.14733123779297
 30
0.0
 11
25.03972816467285
 21
-62.439361572265625
 31
0.0
  0
LINE
  5
B1
330
17
100
AcDbEntity
  8
0
100
AcDbLine
 10
25.03972816467285
 20
-62.439361572265625
 30
0.0
 11
24.337141036987305
 21
-75.41529846191406
 31
0.0
  0
LINE
  5
B2
330
17
100
AcDbEntity
  8
0
100
AcDbLine
 10
24.337141036987305
 20
-75.41529846191406
 30
0.0
 11
24.37029457092285
 21
-88.4093017578125
 31
0.0
  0
LINE
  5
B3
330
17
100
AcDbEntity
  8
0
100
AcDbLine
 10
24.37029457092285
 20
-88.4093017578125
 30
0.0
 11
25.523269653320312
 21
-106.23937225341797
 31
0.0
  0
LINE
  5
B4
330
17
100
AcDbEntity
  8
0
100
AcDbLine
 10
25.523269653320312
 20
-106.23937225341797
 30
0.0
 11
25.528406143188477
 21
-109.48719787597656
 31
0.0
  0
LINE
  5
B5
330
17
100
AcDbEntity
  8
0
100
AcDbLine
 10
25.528406143188477
 20
-109.48719787597656
 30
0.0
 11
25.3581485748291
 21
-111.10151672363281
 31
0.0
  0
LINE
  5
B6
330
17
100
AcDbEntity
  8
0
100
AcDbLine
 10
25.3581485748291
 20
-111.10151672363281
 30
0.0
 11
24.895341873168945
 21
-112.65625762939453
 31
0.0
  0
LINE
  5
B7
330
17
100
AcDbEntity
  8
0
100
AcDbLine
 10
24.895341873168945
 20
-112.65625762939453
 30
0.0
 11
24.140878677368164
 21
-114.09254455566406
 31
0.0
  0
LINE
  5
B8
330
17
100
AcDbEntity
  8
0
100
AcDbLine
 10
24.140878677368164
 20
-114.09254455566406
 30
0.0
 11
23.15463638305664
 21
-115.38031005859375
 31
0.0
  0
LINE
  5
B9
330
17
100
AcDbEntity
  8
0
100
AcDbLine
 10
23.15463638305664
 20
-115.38031005859375
 30
0.0
 11
21.964406967163086
 21
-116.4806137084961
 31
0.0
  0
LINE
  5
BA
330
17
100
AcDbEntity
  8
0
100
AcDbLine
 10
21.964406967163086
 20
-116.4806137084961
 30
0.0
 11
20.56285285949707
 21
-117.29161071777344
 31
0.0
  0
LINE
  5
BB
330
17
100
AcDbEntity
  8
0
100
AcDbLine
 10
20.56285285949707
 20
-117.29161071777344
 30
0.0
 11
18.972265243530273
 21
-117.55015563964844
 31
0.0
  0
LINE
  5
BC
330
17
100
AcDbEntity
  8
0
100
AcDbLine
 10
18.972265243530273
 20
-117.55015563964844
 30
0.0
 11
17.408708572387695
 21
-117.16010284423828
 31
0.0
  0
LINE
  5
BD
330
17
100
AcDbEntity
  8
0
100
AcDbLine
 10
17.408708572387695
 20
-117.16010284423828
 30
0.0
 11
16.08568000793457
 21
-116.23585510253906
 31
0.0
  0
LINE
  5
BE
330
17
100
AcDbEntity
  8
0
100
AcDbLine
 10
16.08568000793457
 20
-116.23585510253906
 30
0.0
 11
15.05417537689209
 21
-114.9846420288086
 31
0.0
  0
LINE
  5
BF
330
17
100
AcDbEntity
  8
0
100
AcDbLine
 10
15.05417537689209
 20
-114.9846420288086
 30
0.0
 11
14.197941780090332
 21
-113.60462951660156
 31
0.0
  0
LINE
  5
C0
330
17
100
AcDbEntity
  8
0
100
AcDbLine
 10
14.197941780090332
 20
-113.60462951660156
 30
0.0
 11
13.47716999053955
 21
-112.15027618408203
 31
0.0
  0
LINE
  5
C1
330
17
100
AcDbEntity
  8
0
100
AcDbLine
 10
13.47716999053955
 20
-112.15027618408203
 30
0.0
 11
12.459948539733887
 21
-109.06819152832031
 31
0.0
  0
LINE
  5
C2
330
17
100
AcDbEntity
  8
0
100
AcDbLine
 10
12.459948539733887
 20
-109.06819152832031
 30
0.0
 11
11.370834350585938
 21
-102.66337585449219
 31
0.0
  0
LINE
  5
C3
330
17
100
AcDbEntity
  8
0
100
AcDbLine
 10
11.370834350585938
 20
-102.66337585449219
 30
0.0
 11
10.615976333618164
 21
-96.21045684814453
 31
0.0
  0
LINE
  5
C4
330
17
100
AcDbEntity
  8
0
100
AcDbLine
 10
10.615976333618164
 20
-96.21045684814453
 30
0.0
 11
9.916316986083984
 21
-81.60824584960938
 31
0.0
  0
LINE
  5
C5
330
17
100
AcDbEntity
  8
0
100
AcDbLine
 10
9.916316986083984
 20
-81.60824584960938
 30
0.0
 11
9.993962287902832
 21
-71.86234283447266
 31
0.0
  0
LINE
  5
C6
330
17
100
AcDbEntity
  8
0
100
AcDbLine
 10
9.993962287902832
 20
-71.86234283447266
 30
0.0
 11
9.886834144592285
 21
-70.24286651611328
 31
0.0
  0
LINE
  5
C7
330
17
100
AcDbEntity
  8
0
100
AcDbLine
 10
9.886834144592285
 20
-70.24286651611328
 30
0.0
 11
9.255424499511719
 21
-67.0567398071289
 31
0.0
  0
LINE
  5
C8
330
17
100
AcDbEntity
  8
0
100
AcDbLine
 10
9.255424499511719
 20
-67.0567398071289
 30
0.0
 11
8.829410552978516
 21
-65.49005126953125
 31
0.0
  0
LINE
  5
C9
330
17
100
AcDbEntity
  8
0
100
AcDbLine
 10
8.829410552978516
 20
-65.49005126953125
 30
0.0
 11
7.535517692565918
 21
-62.51203155517578
 31
0.0
  0
LINE
  5
CA
330
17
100
AcDbEntity
  8
0
100
AcDbLine
 10
7.535517692565918
 20
-62.51203155517578
 30
0.0
 11
7.042057037353516
 21
-60.96656036376953
 31
0.0
  0
LINE
  5
CB
330
17
100
AcDbEntity
  8
0
100
AcDbLine
 10
7.042057037353516
 20
-60.96656036376953
 30
0.0
 11
6.851099967956543
 21
-59.35484313964844
 31
0.0
  0
LINE
  5
CC
330
17
100
AcDbEntity
  8
0
100
AcDbLine
 10
6.851099967956543
 20
-59.35484313964844
 30
0.0
 11
6.404809951782227
 21
-13.875011444091797
 31
0.0
  0
LINE
  5
CD
330
17
100
AcDbEntity
  8
0
100
AcDbLine
 10
6.404809951782227
 20
-13.875011444091797
 30
0.0
 11
6.191648006439209
 21
-12.267356872558594
 31
0.0
  0
LINE
  5
CE
330
17
100
AcDbEntity
  8
0
100
AcDbLine
 10
6.191648006439209
 20
-12.267356872558594
 30
0.0
 11
5.010217666625977
 21
-9.245428085327148
 31
0.0
  0
LINE
  5
CF
330
17
100
AcDbEntity
  8
0
100
AcDbLine
 10
5.010217666625977
 20
-9.245428085327148
 30
0.0
 11
4.15927267074585
 21
-6.11260986328125
 31
0.0
  0
LINE
  5
D0
330
17
100
AcDbEntity
  8
0
100
AcDbLine
 10
4.15927267074585
 20
-6.11260986328125
 30
0.0
 11
3.506410598754883
 21
-4.631148338317871
 31
0.0
  0
LINE
  5
D1
330
17
100
AcDbEntity
  8
0
100
AcDbLine
 10
3.506410598754883
 20
-4.631148338317871
 30
0.0
 11
2.5139174461364746
 21
-3.349249839782715
 31
0.0
  0
LINE
  5
D2
330
17
100
AcDbEntity
  8
0
100
AcDbLine
 10
2.5139174461364746
 20
-3.349249839782715
 30
0.0
 11
-0.9912805408239365
 21
0.03218984603881836
 31
0.0
  0
LINE
  5
D3
330
17
100
AcDbEntity
  8
0
100
AcDbLine
 10
-0.9912805408239365
 20
0.03218984603881836
 30
0.0
 11
-2.4601478576660156
 21
0.5646271705627441
 31
0.0
  0
LINE
  5
D4
330
17
100
AcDbEntity
  8
0
100
AcDbLine
 10
-2.4601478576660156
 20
0.5646271705627441
 30
0.0
 11
-3.373821973800659
 21
-0.6650357246398926
 31
0.0
  0
LINE
  5
D5
330
17
100
AcDbEntity
  8
0
100
AcDbLine
 10
-3.373821973800659
 20
-0.6650357246398926
 30
0.0
 11
-4.567950010299683
 21
-7.051453590393066
 31
0.0
  0
LINE
  5
D6
330
17
100
AcDbEntity
  8
0
100
AcDbLine
 10
-4.567950010299683
 20
-7.051453590393066
 30
0.0
 11
-5.740686893463135
 21
-16.726030349731445
 31
0.0
  0
LINE
  5
D7
330
17
100
AcDbEntity
  8
0
100
AcDbLine
 10
-5.740686893463135
 20
-16.726030349731445
 30
0.0
 11
-6.875242233276367
 21
-29.6710205078125
 31
0.0
  0
LINE
  5
D8
330
17
100
AcDbEntity
  8
0
100
AcDbLine
 10
-6.875242233276367
 20
-29.6710205078125
 30
0.0
 11
-7.123683452606201
 21
-42.66312026977539
 31
0.0
  0
LINE
  5
D9
330
17
100
AcDbEntity
  8
0
100
AcDbLine
 10
-7.123683452606201
 20
-42.66312026977539
 30
0.0
 11
-6.825833320617676
 21
-55.6542854309082
 31
0.0
  0
LINE
  5
DA
330
17
100
AcDbEntity
  8
0
100
AcDbLine
 10
-6.825833320617676
 20
-55.6542854309082
 30
0.0
 11
-5.847862720489502
 21
-70.24014282226562
 31
0.0
  0
LINE
  5
DB
330
17
100
AcDbEntity
  8
0
100
AcDbLine
 10
-5.847862720489502
 20
-70.24014282226562
 30
0.0
 11
-5.771141529083252
 21
-79.9859390258789
 31
0.0
  0
LINE
  5
DC
330
17
100
AcDbEntity
  8
0
100
AcDbLine
 10
-5.771141529083252
 20
-79.9859390258789
 30
0.0
 11
-6.082800388336182
 21
-89.72638702392578
 31
0.0
  0
LINE
  5
DD
330
17
100
AcDbEntity
  8
0
100
AcDbLine
 10
-6.082800388336182
 20
-89.72638702392578
 30
0.0
 11
-7.015163421630859
 21
-102.68736267089844
 31
0.0
  0
LINE
  5
DE
330
17
100
AcDbEntity
  8
0
100
AcDbLine
 10
-7.015163421630859
 20
-102.68736267089844
 30
0.0
 11
-8.052614688873291
 21
-110.74260711669922
 31
0.0
  0
LINE
  5
DF
330
17
100
AcDbEntity
  8
0
100
AcDbLine
 10
-8.052614688873291
 20
-110.74260711669922
 30
0.0
 11
-8.338955402374268
 21
-112.34078216552734
 31
0.0
  0
LINE
  5
E0
330
17
100
AcDbEntity
  8
0
100
AcDbLine
 10
-8.338955402374268
 20
-112.34078216552734
 30
0.0
 11
-9.787604331970215
 21
-116.99006652832031
 31
0.0
  0
LINE
  5
E1
330
17
100
AcDbEntity
  8
0
100
AcDbLine
 10
-9.787604331970215
 20
-116.99006652832031
 30
0.0
 11
-10.552806854248047
 21
-118.41969299316406
 31
0.0
  0
LINE
  5
E2
330
17
100
AcDbEntity
  8
0
100
AcDbLine
 10
-10.552806854248047
 20
-118.41969299316406
 30
0.0
 11
-11.530757904052734
 21
-119.71435546875
 31
0.0
  0
LINE
  5
E3
330
17
100
AcDbEntity
  8
0
100
AcDbLine
 10
-11.530757904052734
 20
-119.71435546875
 30
0.0
 11
-12.706466674804688
 21
-120.83185577392578
 31
0.0
  0
LINE
  5
E4
330
17
100
AcDbEntity
  8
0
100
AcDbLine
 10
-12.706466674804688
 20
-120.83185577392578
 30
0.0
 11
-14.119362831115723
 21
-121.62240600585938
 31
0.0
  0
LINE
  5
E5
330
17
100
AcDbEntity
  8
0
100
AcDbLine
 10
-14.119362831115723
 20
-121.62240600585938
 30
0.0
 11
-15.705867767333984
 21
-121.91145324707031
 31
0.0
  0
ENDSEC
  0
SECTION
  2
OBJECTS
  0
DICTIONARY
  5
A
330
0
100
AcDbDictionary
281
1
  3
ACAD_COLOR
350
B
  3
ACAD_GROUP
350
C
  3
ACAD_LAYOUT
350
D
  3
ACAD_MATERIAL
350
E
  3
ACAD_MLEADERSTYLE
350
F
  3
ACAD_MLINESTYLE
350
10
  3
ACAD_PLOTSETTINGS
350
11
  3
ACAD_PLOTSTYLENAME
350
12
  3
ACAD_SCALELIST
350
14
  3
ACAD_TABLESTYLE
350
15
  3
ACAD_VISUALSTYLE
350
16
  3
EZDXF_META
350
2D
  0
DICTIONARY
  5
B
330
A
100
AcDbDictionary
281
1
  0
DICTIONARY
  5
C
330
A
100
AcDbDictionary
281
1
  0
DICTIONARY
  5
D
330
A
100
AcDbDictionary
281
1
  3
Model
350
1A
  3
Layout1
350
1E
  0
DICTIONARY
  5
E
330
A
100
AcDbDictionary
281
1
  3
ByBlock
350
1F
  3
ByLayer
350
20
  3
Global
350
21
  0
DICTIONARY
  5
F
330
A
100
AcDbDictionary
281
1
  3
Standard
350
2C
  0
DICTIONARY
  5
10
330
A
100
AcDbDictionary
281
1
  3
Standard
350
22
  0
DICTIONARY
  5
11
330
A
100
AcDbDictionary
281
1
  0
ACDBDICTIONARYWDFLT
  5
12
330
A
100
AcDbDictionary
281
1
  3
Normal
350
13
100
AcDbDictionaryWithDefault
340
13
  0
ACDBPLACEHOLDER
  5
13
330
12
  0
DICTIONARY
  5
14
330
A
100
AcDbDictionary
281
1
  0
DICTIONARY
  5
15
330
A
100
AcDbDictionary
281
1
  0
DICTIONARY
  5
16
330
A
100
AcDbDictionary
281
1
  0
LAYOUT
  5
1A
330
D
100
AcDbPlotSettings
  1

  4
A3
  6

 40
7.5
 41
20.0
 42
7.5
 43
20.0
 44
420.0
 45
297.0
 46
0.0
 47
0.0
 48
0.0
 49
0.0
140
0.0
141
0.0
142
1.0
143
1.0
 70
1024
 72
1
 73
0
 74
5
  7

 75
16
 76
0
 77
2
 78
300
147
1.0
148
0.0
149
0.0
100
AcDbLayout
  1
Model
 70
1
 71
0
 10
0.0
 20
0.0
 11
420.0
 21
297.0
 12
0.0
 22
0.0
 32
0.0
 14
1e+20
 24
1e+20
 34
1e+20
 15
-1e+20
 25
-1e+20
 35
-1e+20
146
0.0
 13
0.0
 23
0.0
 33
0.0
 16
1.0
 26
0.0
 36
0.0
 17
0.0
 27
1.0
 37
0.0
 76
1
330
17
  0
LAYOUT
  5
1E
330
D
100
AcDbPlotSettings
  1

  4
A3
  6

 40
7.5
 41
20.0
 42
7.5
 43
20.0
 44
420.0
 45
297.0
 46
0.0
 47
0.0
 48
0.0
 49
0.0
140
0.0
141
0.0
142
1.0
143
1.0
 70
0
 72
1
 73
0
 74
5
  7

 75
16
 76
0
 77
2
 78
300
147
1.0
148
0.0
149
0.0
100
AcDbLayout
  1
Layout1
 70
1
 71
1
 10
0.0
 20
0.0
 11
420.0
 21
297.0
 12
0.0
 22
0.0
 32
0.0
 14
1e+20
 24
1e+20
 34
1e+20
 15
-1e+20
 25
-1e+20
 35
-1e+20
146
0.0
 13
0.0
 23
0.0
 33
0.0
 16
1.0
 26
0.0
 36
0.0
 17
0.0
 27
1.0
 37
0.0
 76
1
330
1B
  0
MATERIAL
  5
1F
102
{ACAD_REACTORS
330
E
102
}
330
E
100
AcDbMaterial
  1
ByBlock
  2

 70
0
 40
1.0
 71
1
 41
1.0
 91
-1023410177
 42
1.0
 72
1
  3

 73
1
 74
1
 75
1
 44
0.5
 73
0
 45
1.0
 46
1.0
 77
1
  4

 78
1
 79
1
170
1
 48
1.0
171
1
  6

172
1
173
1
174
1
140
1.0
141
1.0
175
1
  7

176
1
177
1
178
1
143
1.0
179
1
  8

270
1
271
1
272
1
145
1.0
146
1.0
273
1
  9

274
1
275
1
276
1
 42
1.0
 72
1
  3

 73
1
 74
1
 75
1
 94
63
  0
MATERIAL
  5
20
102
{ACAD_REACTORS
330
E
102
}
330
E
100
AcDbMaterial
  1
ByLayer
  2

 70
0
 40
1.0
 71
1
 41
1.0
 91
-1023410177
 42
1.0
 72
1
  3

 73
1
 74
1
 75
1
 44
0.5
 73
0
 45
1.0
 46
1.0
 77
1
  4

 78
1
 79
1
170
1
 48
1.0
171
1
  6

172
1
173
1
174
1
140
1.0
141
1.0
175
1
  7

176
1
177
1
178
1
143
1.0
179
1
  8

270
1
271
1
272
1
145
1.0
146
1.0
273
1
  9

274
1
275
1
276
1
 42
1.0
 72
1
  3

 73
1
 74
1
 75
1
 94
63
  0
MATERIAL
  5
21
102
{ACAD_REACTORS
330
E
102
}
330
E
100
AcDbMaterial
  1
Global
  2

 70
0
 40
1.0
 71
1
 41
1.0
 91
-1023410177
 42
1.0
 72
1
  3

 73
1
 74
1
 75
1
 44
0.5
 73
0
 45
1.0
 46
1.0
 77
1
  4

 78
1
 79
1
170
1
 48
1.0
171
1
  6

172
1
173
1
174
1
140
1.0
141
1.0
175
1
  7

176
1
177
1
178
1
143
1.0
179
1
  8

270
1
271
1
272
1
145
1.0
146
1.0
273
1
  9

274
1
275
1
276
1
 42
1.0
 72
1
  3

 73
1
 74
1
 75
1
 94
63
  0
MLINESTYLE
  5
22
102
{ACAD_REACTORS
330
10
102
}
330
10
100
AcDbMlineStyle
  2
Standard
 70
0
  3

 62
256
 51
90.0
 52
90.0
 71
2
 49
0.5
 62
256
  6
BYLAYER
 49
-0.5
 62
256
  6
BYLAYER
  0
MLEADERSTYLE
  5
2C
102
{ACAD_REACTORS
330
F
102
}
330
F
100
AcDbMLeaderStyle
179
2
170
2
171
1
172
0
 90
2
 40
0.0
 41
0.0
173
1
 91
-1056964608
 92
-2
290
1
 42
2.0
291
1
 43
8.0
  3
Standard
 44
4.0
300

342
29
174
1
175
1
176
0
178
1
 93
-1056964608
 45
4.0
292
0
297
0
 46
4.0
 94
-1056964608
 47
1.0
 49
1.0
140
1.0
294
1
141
0.0
177
0
142
1.0
295
0
296
0
143
3.75
271
0
272
9
273
9
  0
DICTIONARY
  5
2D
330
A
100
AcDbDictionary
280
1
281
1
  3
CREATED_BY_EZDXF
350
2E
  3
WRITTEN_BY_EZDXF
350
E9
  0
DICTIONARYVAR
  5
2E
330
2D
100
DictionaryVariables
280
0
  1
1.4.4 @ 2026-09-06T19:40:45.835723+00:00
  0
DICTIONARYVAR
  5
E9
330
2D
100
DictionaryVariables
280
0
  1
1.4.4 @ 2026-09-06T19:40:45.853851+00:00
  0
ENDSEC
  0
EOF
