0
SECTION
2
HEADER
9
$INSUNITS
70
4
9
$ACADVER
1
AC1014
9
$HANDSEED
5
FFFF
0
ENDSEC
0
SECTION
2
TABLES
0
TABLE
2
VPORT
5
8
100
AcDbSymbolTable
0
ENDTAB
0
TABLE
2
LTYPE
5
5
100
AcDbSymbolTable
0
LTYPE
5
14
100
AcDbSymbolTableRecord
100
AcDbLinetypeTableRecord
2
BYBLOCK
70
0
0
LTYPE
5
15
100
AcDbSymbolTableRecord
100
AcDbLinetypeTableRecord
2
BYLAYER
70
0
0
LTYPE
5
16
100
AcDbSymbolTableRecord
100
AcDbLinetypeTableRecord
2
DASHED
70
0
3
Dashed __ __ __ __ __ __ __ __ __ __ __ __ __ _
72
65
73
2
40
0.75
49
0.5
74
0
49
-0.25
74
0
0
ENDTAB
0
TABLE
2
LAYER
5
2
100
AcDbSymbolTable
70
2
0
LAYER
5
50
100
AcDbSymbolTableRecord
100
AcDbLayerTableRecord
2
0
70
0
62
7
6
CONTINUOUS
0
ENDTAB
0
TABLE
2
STYLE
5
3
100
AcDbSymbolTable
70
1
0
STYLE
5
11
100
AcDbSymbolTableRecord
100
AcDbTextStyleTableRecord
2
STANDARD
70
0
0
ENDTAB
0
TABLE
2
VIEW
5
6
100
AcDbSymbolTable
70
0
0
ENDTAB
0
TABLE
2
UCS
5
7
100
AcDbSymbolTable
70
0
0
ENDTAB
0
TABLE
2
APPID
5
9
100
AcDbSymbolTable
70
2
0
APPID
5
12
100
AcDbSymbolTableRecord
100
AcDbRegAppTableRecord
2
ACAD
70
0
0
ENDTAB
0
TABLE
2
DIMSTYLE
5
A
100
AcDbSymbolTable
70
1
0
ENDTAB
0
TABLE
2
BLOCK_RECORD
5
1
100
AcDbSymbolTable
70
1
0
BLOCK_RECORD
5
1F
100
AcDbSymbolTableRecord
100
AcDbBlockTableRecord
2
*MODEL_SPACE
0
BLOCK_RECORD
5
1B
100
AcDbSymbolTableRecord
100
AcDbBlockTableRecord
2
*PAPER_SPACE
0
ENDTAB
0
ENDSEC
0
SECTION
2
BLOCKS
0
BLOCK
5
20
100
AcDbEntity
100
AcDbBlockBegin
2
*MODEL_SPACE
0
ENDBLK
5
21
100
AcDbEntity
100
AcDbBlockEnd
0
BLOCK
5
1C
100
AcDbEntity
100
AcDbBlockBegin
2
*PAPER_SPACE
0
ENDBLK
5
1D
100
AcDbEntity
100
AcDbBlockEnd
0
ENDSEC
0
SECTION
2
ENTITIES
0
SPLINE
5
100
100
AcDbEntity
8
0
100
AcDbSpline
70
6
71
5
72
821
73
815
74
0
42
0.000000001
43
0.0000000001
44
0.0000000001
40
0
40
0
40
0
40
0
40
0
40
0
40
0.0012345679012345679
40
0.0024691358024691358
40
0.0037037037037037038
40
0.0049382716049382715
40
0.0061728395061728392
40
0.0074074074074074068
40
0.0086419753086419745
40
0.009876543209876543
40
0.011111111111111112
40
0.01234567901234568
40
0.013580246913580249
40
0.014814814814814817
40
0.016049382716049384
40
0.017283950617283952
40
0.018518518518518521
40
0.019753086419753089
40
0.020987654320987658
40
0.022222222222222227
40
0.023456790123456795
40
0.024691358024691364
40
0.025925925925925932
40
0.027160493827160501
40
0.028395061728395069
40
0.029629629629629638
40
0.030864197530864206
40
0.032098765432098775
40
0.03333333333333334
40
0.034567901234567905
40
0.03580246913580247
40
0.037037037037037035
40
0.0382716049382716
40
0.039506172839506165
40
0.04074074074074073
40
0.041975308641975295
40
0.04320987654320986
40
0.044444444444444425
40
0.04567901234567899
40
0.046913580246913555
40
0.04814814814814812
40
0.049382716049382686
40
0.050617283950617251
40
0.051851851851851816
40
0.053086419753086381
40
0.054320987654320946
40
0.055555555555555511
40
0.056790123456790076
40
0.058024691358024641
40
0.059259259259259206
40
0.060493827160493771
40
0.061728395061728336
40
0.062962962962962901
40
0.064197530864197466
40
0.065432098765432031
40
0.066666666666666596
40
0.067901234567901161
40
0.069135802469135726
40
0.070370370370370292
40
0.071604938271604857
40
0.072839506172839422
40
0.074074074074073987
40
0.075308641975308552
40
0.076543209876543117
40
0.077777777777777682
40
0.079012345679012247
40
0.080246913580246812
40
0.081481481481481377
40
0.082716049382715942
40
0.083950617283950507
40
0.085185185185185072
40
0.086419753086419637
40
0.087654320987654202
40
0.088888888888888767
40
0.090123456790123332
40
0.091358024691357897
40
0.092592592592592463
40
0.093827160493827028
40
0.095061728395061593
40
0.096296296296296158
40
0.097530864197530723
40
0.098765432098765288
40
0.099999999999999853
40
0.10123456790123442
40
0.10246913580246898
40
0.10370370370370355
40
0.10493827160493811
40
0.10617283950617268
40
0.10740740740740724
40
0.10864197530864181
40
0.10987654320987637
40
0.11111111111111094
40
0.1123456790123455
40
0.11358024691358007
40
0.11481481481481463
40
0.1160493827160492
40
0.11728395061728376
40
0.11851851851851833
40
0.11975308641975289
40
0.12098765432098746
40
0.12222222222222202
40
0.12345679012345659
40
0.12469135802469115
40
0.12592592592592572
40
0.1271604938271603
40
0.12839506172839488
40
0.12962962962962946
40
0.13086419753086403
40
0.13209876543209861
40
0.13333333333333319
40
0.13456790123456777
40
0.13580246913580235
40
0.13703703703703693
40
0.13827160493827151
40
0.13950617283950609
40
0.14074074074074067
40
0.14197530864197525
40
0.14320987654320982
40
0.1444444444444444
40
0.14567901234567898
40
0.14691358024691356
40
0.14814814814814814
40
0.14938271604938272
40
0.1506172839506173
40
0.15185185185185188
40
0.15308641975308646
40
0.15432098765432103
40
0.15555555555555561
40
0.15679012345679019
40
0.15802469135802477
40
0.15925925925925935
40
0.16049382716049393
40
0.16172839506172851
40
0.16296296296296309
40
0.16419753086419767
40
0.16543209876543225
40
0.16666666666666682
40
0.1679012345679014
40
0.16913580246913598
40
0.17037037037037056
40
0.17160493827160514
40
0.17283950617283972
40
0.1740740740740743
40
0.17530864197530888
40
0.17654320987654346
40
0.17777777777777803
40
0.17901234567901261
40
0.18024691358024719
40
0.18148148148148177
40
0.18271604938271635
40
0.18395061728395093
40
0.18518518518518551
40
0.18641975308642009
40
0.18765432098765467
40
0.18888888888888924
40
0.19012345679012382
40
0.1913580246913584
40
0.19259259259259298
40
0.19382716049382756
40
0.19506172839506214
40
0.19629629629629672
40
0.1975308641975313
40
0.19876543209876588
40
0.20000000000000046
40
0.20123456790123503
40
0.20246913580246961
40
0.20370370370370419
40
0.20493827160493877
40
0.20617283950617335
40
0.20740740740740793
40
0.20864197530864251
40
0.20987654320987709
40
0.21111111111111167
40
0.21234567901234624
40
0.21358024691358082
40
0.2148148148148154
40
0.21604938271604998
40
0.21728395061728456
40
0.21851851851851914
40
0.21975308641975372
40
0.2209876543209883
40
0.22222222222222288
40
0.22345679012345745
40
0.22469135802469203
40
0.22592592592592661
40
0.22716049382716119
40
0.22839506172839577
40
0.22962962962963035
40
0.23086419753086493
40
0.23209876543209951
40
0.23333333333333409
40
0.23456790123456867
40
0.23580246913580324
40
0.23703703703703782
40
0.2382716049382724
40
0.23950617283950698
40
0.24074074074074156
40
0.24197530864197614
40
0.24320987654321072
40
0.2444444444444453
40
0.24567901234567988
40
0.24691358024691445
40
0.24814814814814903
40
0.24938271604938361
40
0.25061728395061816
40
0.25185185185185271
40
0.25308641975308727
40
0.25432098765432182
40
0.25555555555555637
40
0.25679012345679092
40
0.25802469135802547
40
0.25925925925926002
40
0.26049382716049457
40
0.26172839506172912
40
0.26296296296296368
40
0.26419753086419823
40
0.26543209876543278
40
0.26666666666666733
40
0.26790123456790188
40
0.26913580246913643
40
0.27037037037037098
40
0.27160493827160553
40
0.27283950617284008
40
0.27407407407407464
40
0.27530864197530919
40
0.27654320987654374
40
0.27777777777777829
40
0.27901234567901284
40
0.28024691358024739
40
0.28148148148148194
40
0.28271604938271649
40
0.28395061728395105
40
0.2851851851851856
40
0.28641975308642015
40
0.2876543209876547
40
0.28888888888888925
40
0.2901234567901238
40
0.29135802469135835
40
0.2925925925925929
40
0.29382716049382746
40
0.29506172839506201
40
0.29629629629629656
40
0.29753086419753111
40
0.29876543209876566
40
0.30000000000000021
40
0.30123456790123476
40
0.30246913580246931
40
0.30370370370370386
40
0.30493827160493842
40
0.30617283950617297
40
0.30740740740740752
40
0.30864197530864207
40
0.30987654320987662
40
0.31111111111111117
40
0.31234567901234572
40
0.31358024691358027
40
0.31481481481481483
40
0.31604938271604938
40
0.31728395061728393
40
0.31851851851851848
40
0.31975308641975303
40
0.32098765432098758
40
0.32222222222222213
40
0.32345679012345668
40
0.32469135802469123
40
0.32592592592592579
40
0.32716049382716034
40
0.32839506172839489
40
0.32962962962962944
40
0.33086419753086399
40
0.33209876543209854
40
0.33333333333333309
40
0.33456790123456764
40
0.3358024691358022
40
0.33703703703703675
40
0.3382716049382713
40
0.33950617283950585
40
0.3407407407407404
40
0.34197530864197495
40
0.3432098765432095
40
0.34444444444444405
40
0.3456790123456786
40
0.34691358024691316
40
0.34814814814814771
40
0.34938271604938226
40
0.35061728395061681
40
0.35185185185185136
40
0.35308641975308591
40
0.35432098765432046
40
0.35555555555555501
40
0.35679012345678957
40
0.35802469135802412
40
0.35925925925925867
40
0.36049382716049322
40
0.36172839506172777
40
0.36296296296296232
40
0.36419753086419687
40
0.36543209876543142
40
0.36666666666666597
40
0.36790123456790053
40
0.36913580246913508
40
0.37037037037036963
40
0.37160493827160418
40
0.37283950617283873
40
0.37407407407407328
40
0.37530864197530783
40
0.37654320987654238
40
0.37777777777777694
40
0.37901234567901149
40
0.38024691358024604
40
0.38148148148148059
40
0.38271604938271514
40
0.38395061728394969
40
0.38518518518518424
40
0.38641975308641879
40
0.38765432098765334
40
0.3888888888888879
40
0.39012345679012245
40
0.391358024691357
40
0.39259259259259155
40
0.3938271604938261
40
0.39506172839506065
40
0.3962962962962952
40
0.39753086419752975
40
0.39876543209876431
40
0.39999999999999886
40
0.40123456790123341
40
0.40246913580246796
40
0.40370370370370251
40
0.40493827160493706
40
0.40617283950617161
40
0.40740740740740616
40
0.40864197530864071
40
0.40987654320987527
40
0.41111111111110982
40
0.41234567901234437
40
0.41358024691357892
40
0.41481481481481347
40
0.41604938271604802
40
0.41728395061728257
40
0.41851851851851712
40
0.41975308641975168
40
0.42098765432098623
40
0.42222222222222078
40
0.42345679012345533
40
0.42469135802468988
40
0.42592592592592443
40
0.42716049382715898
40
0.42839506172839353
40
0.42962962962962808
40
0.43086419753086264
40
0.43209876543209719
40
0.43333333333333174
40
0.43456790123456629
40
0.43580246913580084
40
0.43703703703703539
40
0.43827160493826994
40
0.43950617283950449
40
0.44074074074073905
40
0.4419753086419736
40
0.44320987654320815
40
0.4444444444444427
40
0.44567901234567725
40
0.4469135802469118
40
0.44814814814814635
40
0.4493827160493809
40
0.45061728395061545
40
0.45185185185185001
40
0.45308641975308456
40
0.45432098765431911
40
0.45555555555555366
40
0.45679012345678821
40
0.45802469135802276
40
0.45925925925925731
40
0.46049382716049186
40
0.46172839506172642
40
0.46296296296296097
40
0.46419753086419552
40
0.46543209876543007
40
0.46666666666666462
40
0.46790123456789917
40
0.46913580246913372
40
0.47037037037036827
40
0.47160493827160282
40
0.47283950617283738
40
0.47407407407407193
40
0.47530864197530648
40
0.47654320987654103
40
0.47777777777777558
40
0.47901234567901013
40
0.48024691358024468
40
0.48148148148147923
40
0.48271604938271379
40
0.48395061728394834
40
0.48518518518518289
40
0.48641975308641744
40
0.48765432098765199
40
0.48888888888888654
40
0.49012345679012109
40
0.49135802469135564
40
0.49259259259259019
40
0.49382716049382475
40
0.4950617283950593
40
0.49629629629629385
40
0.4975308641975284
40
0.49876543209876295
40
0.4999999999999975
40
0.50123456790123211
40
0.50246913580246666
40
0.50370370370370121
40
0.50493827160493576
40
0.50617283950617031
40
0.50740740740740486
40
0.50864197530863942
40
0.50987654320987397
40
0.51111111111110852
40
0.51234567901234307
40
0.51358024691357762
40
0.51481481481481217
40
0.51604938271604672
40
0.51728395061728127
40
0.51851851851851583
40
0.51975308641975038
40
0.52098765432098493
40
0.52222222222221948
40
0.52345679012345403
40
0.52469135802468858
40
0.52592592592592313
40
0.52716049382715768
40
0.52839506172839223
40
0.52962962962962679
40
0.53086419753086134
40
0.53209876543209589
40
0.53333333333333044
40
0.53456790123456499
40
0.53580246913579954
40
0.53703703703703409
40
0.53827160493826864
40
0.5395061728395032
40
0.54074074074073775
40
0.5419753086419723
40
0.54320987654320685
40
0.5444444444444414
40
0.54567901234567595
40
0.5469135802469105
40
0.54814814814814505
40
0.5493827160493796
40
0.55061728395061416
40
0.55185185185184871
40
0.55308641975308326
40
0.55432098765431781
40
0.55555555555555236
40
0.55679012345678691
40
0.55802469135802146
40
0.55925925925925601
40
0.56049382716049057
40
0.56172839506172512
40
0.56296296296295967
40
0.56419753086419422
40
0.56543209876542877
40
0.56666666666666332
40
0.56790123456789787
40
0.56913580246913242
40
0.57037037037036697
40
0.57160493827160153
40
0.57283950617283608
40
0.57407407407407063
40
0.57530864197530518
40
0.57654320987653973
40
0.57777777777777428
40
0.57901234567900883
40
0.58024691358024338
40
0.58148148148147794
40
0.58271604938271249
40
0.58395061728394704
40
0.58518518518518159
40
0.58641975308641614
40
0.58765432098765069
40
0.58888888888888524
40
0.59012345679011979
40
0.59135802469135434
40
0.5925925925925889
40
0.59382716049382345
40
0.595061728395058
40
0.59629629629629255
40
0.5975308641975271
40
0.59876543209876165
40
0.5999999999999962
40
0.60123456790123075
40
0.60246913580246531
40
0.60370370370369986
40
0.60493827160493441
40
0.60617283950616896
40
0.60740740740740351
40
0.60864197530863806
40
0.60987654320987261
40
0.61111111111110716
40
0.61234567901234171
40
0.61358024691357627
40
0.61481481481481082
40
0.61604938271604537
40
0.61728395061727992
40
0.61851851851851447
40
0.61975308641974902
40
0.62098765432098357
40
0.62222222222221812
40
0.62345679012345268
40
0.62469135802468723
40
0.62592592592592178
40
0.62716049382715633
40
0.62839506172839088
40
0.62962962962962543
40
0.63086419753085998
40
0.63209876543209453
40
0.63333333333332908
40
0.63456790123456364
40
0.63580246913579819
40
0.63703703703703274
40
0.63827160493826729
40
0.63950617283950184
40
0.64074074074073639
40
0.64197530864197094
40
0.64320987654320549
40
0.64444444444444005
40
0.6456790123456746
40
0.64691358024690915
40
0.6481481481481437
40
0.64938271604937825
40
0.6506172839506128
40
0.65185185185184735
40
0.6530864197530819
40
0.65432098765431645
40
0.65555555555555101
40
0.65679012345678556
40
0.65802469135802011
40
0.65925925925925466
40
0.66049382716048921
40
0.66172839506172376
40
0.66296296296295831
40
0.66419753086419286
40
0.66543209876542742
40
0.66666666666666197
40
0.66790123456789652
40
0.66913580246913107
40
0.67037037037036562
40
0.67160493827160017
40
0.67283950617283472
40
0.67407407407406927
40
0.67530864197530382
40
0.67654320987653838
40
0.67777777777777293
40
0.67901234567900748
40
0.68024691358024203
40
0.68148148148147658
40
0.68271604938271113
40
0.68395061728394568
40
0.68518518518518023
40
0.68641975308641479
40
0.68765432098764934
40
0.68888888888888389
40
0.69012345679011844
40
0.69135802469135299
40
0.69259259259258754
40
0.69382716049382209
40
0.69506172839505664
40
0.6962962962962912
40
0.69753086419752575
40
0.6987654320987603
40
0.69999999999999485
40
0.7012345679012294
40
0.70246913580246395
40
0.7037037037036985
40
0.70493827160493305
40
0.7061728395061676
40
0.70740740740740216
40
0.70864197530863671
40
0.70987654320987126
40
0.71111111111110581
40
0.71234567901234036
40
0.71358024691357491
40
0.71481481481480946
40
0.71604938271604401
40
0.71728395061727857
40
0.71851851851851312
40
0.71975308641974767
40
0.72098765432098222
40
0.72222222222221677
40
0.72345679012345132
40
0.72469135802468587
40
0.72592592592592042
40
0.72716049382715497
40
0.72839506172838953
40
0.72962962962962408
40
0.73086419753085863
40
0.73209876543209318
40
0.73333333333332773
40
0.73456790123456228
40
0.73580246913579683
40
0.73703703703703138
40
0.73827160493826594
40
0.73950617283950049
40
0.74074074074073504
40
0.74197530864196959
40
0.74320987654320414
40
0.74444444444443869
40
0.74567901234567324
40
0.74691358024690779
40
0.74814814814814234
40
0.7493827160493769
40
0.75061728395061145
40
0.751851851851846
40
0.75308641975308055
40
0.7543209876543151
40
0.75555555555554965
40
0.7567901234567842
40
0.75802469135801875
40
0.75925925925925331
40
0.76049382716048786
40
0.76172839506172241
40
0.76296296296295696
40
0.76419753086419151
40
0.76543209876542606
40
0.76666666666666061
40
0.76790123456789516
40
0.76913580246912971
40
0.77037037037036427
40
0.77160493827159882
40
0.77283950617283337
40
0.77407407407406792
40
0.77530864197530247
40
0.77654320987653702
40
0.77777777777777157
40
0.77901234567900612
40
0.78024691358024068
40
0.78148148148147523
40
0.78271604938270978
40
0.78395061728394433
40
0.78518518518517888
40
0.78641975308641343
40
0.78765432098764798
40
0.78888888888888253
40
0.79012345679011708
40
0.79135802469135164
40
0.79259259259258619
40
0.79382716049382074
40
0.79506172839505529
40
0.79629629629628984
40
0.79753086419752439
40
0.79876543209875894
40
0.79999999999999349
40
0.80123456790122805
40
0.8024691358024626
40
0.80370370370369715
40
0.8049382716049317
40
0.80617283950616625
40
0.8074074074074008
40
0.80864197530863535
40
0.8098765432098699
40
0.81111111111110445
40
0.81234567901233901
40
0.81358024691357356
40
0.81481481481480811
40
0.81604938271604266
40
0.81728395061727721
40
0.81851851851851176
40
0.81975308641974631
40
0.82098765432098086
40
0.82222222222221542
40
0.82345679012344997
40
0.82469135802468452
40
0.82592592592591907
40
0.82716049382715362
40
0.82839506172838817
40
0.82962962962962272
40
0.83086419753085727
40
0.83209876543209182
40
0.83333333333332638
40
0.83456790123456093
40
0.83580246913579548
40
0.83703703703703003
40
0.83827160493826458
40
0.83950617283949913
40
0.84074074074073368
40
0.84197530864196823
40
0.84320987654320279
40
0.84444444444443734
40
0.84567901234567189
40
0.84691358024690644
40
0.84814814814814099
40
0.84938271604937554
40
0.85061728395061009
40
0.85185185185184464
40
0.85308641975307919
40
0.85432098765431375
40
0.8555555555555483
40
0.85679012345678285
40
0.8580246913580174
40
0.85925925925925195
40
0.8604938271604865
40
0.86172839506172105
40
0.8629629629629556
40
0.86419753086419016
40
0.86543209876542471
40
0.86666666666665926
40
0.86790123456789381
40
0.86913580246912836
40
0.87037037037036291
40
0.87160493827159746
40
0.87283950617283201
40
0.87407407407406656
40
0.87530864197530112
40
0.87654320987653567
40
0.87777777777777022
40
0.87901234567900477
40
0.88024691358023932
40
0.88148148148147387
40
0.88271604938270842
40
0.88395061728394297
40
0.88518518518517753
40
0.88641975308641208
40
0.88765432098764663
40
0.88888888888888118
40
0.89012345679011573
40
0.89135802469135028
40
0.89259259259258483
40
0.89382716049381938
40
0.89506172839505393
40
0.89629629629628849
40
0.89753086419752304
40
0.89876543209875759
40
0.89999999999999214
40
0.90123456790122669
40
0.90246913580246124
40
0.90370370370369579
40
0.90493827160493034
40
0.9061728395061649
40
0.90740740740739945
40
0.908641975308634
40
0.90987654320986855
40
0.9111111111111031
40
0.91234567901233765
40
0.9135802469135722
40
0.91481481481480675
40
0.9160493827160413
40
0.91728395061727586
40
0.91851851851851041
40
0.91975308641974496
40
0.92098765432097951
40
0.92222222222221406
40
0.92345679012344861
40
0.92469135802468316
40
0.92592592592591771
40
0.92716049382715227
40
0.92839506172838682
40
0.92962962962962137
40
0.93086419753085592
40
0.93209876543209047
40
0.93333333333332502
40
0.93456790123455957
40
0.93580246913579412
40
0.93703703703702868
40
0.93827160493826323
40
0.93950617283949778
40
0.94074074074073233
40
0.94197530864196688
40
0.94320987654320143
40
0.94444444444443598
40
0.94567901234567053
40
0.94691358024690508
40
0.94814814814813964
40
0.94938271604937419
40
0.95061728395060874
40
0.95185185185184329
40
0.95308641975307784
40
0.95432098765431239
40
0.95555555555554694
40
0.95679012345678149
40
0.95802469135801605
40
0.9592592592592506
40
0.96049382716048515
40
0.9617283950617197
40
0.96296296296295425
40
0.9641975308641888
40
0.96543209876542335
40
0.9666666666666579
40
0.96790123456789245
40
0.96913580246912701
40
0.97037037037036156
40
0.97160493827159611
40
0.97283950617283066
40
0.97407407407406521
40
0.97530864197529976
40
0.97654320987653431
40
0.97777777777776886
40
0.97901234567900342
40
0.98024691358023797
40
0.98148148148147252
40
0.98271604938270707
40
0.98395061728394162
40
0.98518518518517617
40
0.98641975308641072
40
0.98765432098764527
40
0.98888888888887982
40
0.99012345679011438
40
0.99135802469134893
40
0.99259259259258348
40
0.99382716049381803
40
0.99506172839505258
40
0.99629629629628713
40
0.99753086419752168
40
0.99876543209875623
40
1
40
1
40
1
40
1
40
1
40
1
41
1
41
1
41
1
41
1
41
1
41
1
41
1
41
1
41
1
41
1
41
1
41
1
41
1
41
1
41
1
41
1
41
1
41
1
41
1
41
1
41
1
41
1
41
1
41
1
41
1
41
1
41
1
41
1
41
1
41
1
41
1
41
1
41
1
41
1
41
1
41
1
41
1
41
1
41
1
41
1
41
1
41
1
41
1
41
1
41
1
41
1
41
1
41
1
41
1
41
1
41
1
41
1
41
1
41
1
41
1
41
1
41
1
41
1
41
1
41
1
41
1
41
1
41
1
41
1
41
1
41
1
41
1
41
1
41
1
41
1
41
1
41
1
41
1
41
1
41
1
41
1
41
1
41
1
41
1
41
1
41
1
41
1
41
1
41
1
41
1
41
1
41
1
41
1
41
1
41
1
41
1
41
1
41
1
41
1
41
1
41
1
41
1
41
1
41
1
41
1
41
1
41
1
41
1
41
1
41
1
41
1
41
1
41
1
41
1
41
1
41
1
41
1
41
1
41
1
41
1
41
1
41
1
41
1
41
1
41
1
41
1
41
1
41
1
41
1
41
1
41
1
41
1
41
1
41
1
41
1
41
1
41
1
41
1
41
1
41
1
41
1
41
1
41
1
41
1
41
1
41
1
41
1
41
1
41
1
41
1
41
1
41
1
41
1
41
1
41
1
41
1
41
1
41
1
41
1
41
1
41
1
41
1
41
1
41
1
41
1
41
1
41
1
41
1
41
1
41
1
41
1
41
1
41
1
41
1
41
1
41
1
41
1
41
1
41
1
41
1
41
1
41
1
41
1
41
1
41
1
41
1
41
1
41
1
41
1
41
1
41
1
41
1
41
1
41
1
41
1
41
1
41
1
41
1
41
1
41
1
41
1
41
1
41
1
41
1
41
1
41
1
41
1
41
1
41
1
41
1
41
1
41
1
41
1
41
1
41
1
41
1
41
1
41
1
41
1
41
1
41
1
41
1
41
1
41
1
41
1
41
1
41
1
41
1
41
1
41
1
41
1
41
1
41
1
41
1
41
1
41
1
41
1
41
1
41
1
41
1
41
1
41
1
41
1
41
1
41
1
41
1
41
1
41
1
41
1
41
1
41
1
41
1
41
1
41
1
41
1
41
1
41
1
41
1
41
1
41
1
41
1
41
1
41
1
41
1
41
1
41
1
41
1
41
1
41
1
41
1
41
1
41
1
41
1
41
1
41
1
41
1
41
1
41
1
41
1
41
1
41
1
41
1
41
1
41
1
41
1
41
1
41
1
41
1
41
1
41
1
41
1
41
1
41
1
41
1
41
1
41
1
41
1
41
1
41
1
41
1
41
1
41
1
41
1
41
1
41
1
41
1
41
1
41
1
41
1
41
1
41
1
41
1
41
1
41
1
41
1
41
1
41
1
41
1
41
1
41
1
41
1
41
1
41
1
41
1
41
1
41
1
41
1
41
1
41
1
41
1
41
1
41
1
41
1
41
1
41
1
41
1
41
1
41
1
41
1
41
1
41
1
41
1
41
1
41
1
41
1
41
1
41
1
41
1
41
1
41
1
41
1
41
1
41
1
41
1
41
1
41
1
41
1
41
1
41
1
41
1
41
1
41
1
41
1
41
1
41
1
41
1
41
1
41
1
41
1
41
1
41
1
41
1
41
1
41
1
41
1
41
1
41
1
41
1
41
1
41
1
41
1
41
1
41
1
41
1
41
1
41
1
41
1
41
1
41
1
41
1
41
1
41
1
41
1
41
1
41
1
41
1
41
1
41
1
41
1
41
1
41
1
41
1
41
1
41
1
41
1
41
1
41
1
41
1
41
1
41
1
41
1
41
1
41
1
41
1
41
1
41
1
41
1
41
1
41
1
41
1
41
1
41
1
41
1
41
1
41
1
41
1
41
1
41
1
41
1
41
1
41
1
41
1
41
1
41
1
41
1
41
1
41
1
41
1
41
1
41
1
41
1
41
1
41
1
41
1
41
1
41
1
41
1
41
1
41
1
41
1
41
1
41
1
41
1
41
1
41
1
41
1
41
1
41
1
41
1
41
1
41
1
41
1
41
1
41
1
41
1
41
1
41
1
41
1
41
1
41
1
41
1
41
1
41
1
41
1
41
1
41
1
41
1
41
1
41
1
41
1
41
1
41
1
41
1
41
1
41
1
41
1
41
1
41
1
41
1
41
1
41
1
41
1
41
1
41
1
41
1
41
1
41
1
41
1
41
1
41
1
41
1
41
1
41
1
41
1
41
1
41
1
41
1
41
1
41
1
41
1
41
1
41
1
41
1
41
1
41
1
41
1
41
1
41
1
41
1
41
1
41
1
41
1
41
1
41
1
41
1
41
1
41
1
41
1
41
1
41
1
41
1
41
1
41
1
41
1
41
1
41
1
41
1
41
1
41
1
41
1
41
1
41
1
41
1
41
1
41
1
41
1
41
1
41
1
41
1
41
1
41
1
41
1
41
1
41
1
41
1
41
1
41
1
41
1
41
1
41
1
41
1
41
1
41
1
41
1
41
1
41
1
41
1
41
1
41
1
41
1
41
1
41
1
41
1
41
1
41
1
41
1
41
1
41
1
41
1
41
1
41
1
41
1
41
1
41
1
41
1
41
1
41
1
41
1
41
1
41
1
41
1
41
1
41
1
41
1
41
1
41
1
41
1
41
1
41
1
41
1
41
1
41
1
41
1
41
1
41
1
41
1
41
1
41
1
41
1
41
1
41
1
41
1
41
1
41
1
41
1
41
1
41
1
41
1
41
1
41
1
41
1
41
1
41
1
41
1
41
1
41
1
41
1
41
1
41
1
41
1
41
1
41
1
41
1
41
1
41
1
41
1
41
1
41
1
41
1
41
1
41
1
41
1
41
1
41
1
41
1
41
1
41
1
41
1
41
1
41
1
41
1
41
1
41
1
41
1
41
1
41
1
41
1
41
1
41
1
41
1
41
1
41
1
41
1
41
1
41
1
41
1
41
1
41
1
41
1
41
1
41
1
41
1
41
1
41
1
41
1
41
1
41
1
41
1
41
1
41
1
41
1
41
1
41
1
41
1
41
1
41
1
41
1
41
1
41
1
41
1
41
1
41
1
41
1
41
1
41
1
41
1
41
1
41
1
41
1
41
1
41
1
41
1
41
1
41
1
41
1
41
1
41
1
41
1
41
1
41
1
41
1
41
1
41
1
41
1
41
1
41
1
41
1
41
1
41
1
41
1
41
1
41
1
41
1
41
1
41
1
41
1
41
1
41
1
41
1
41
1
41
1
41
1
41
1
41
1
41
1
41
1
41
1
41
1
41
1
41
1
41
1
41
1
41
1
41
1
41
1
41
1
41
1
41
1
41
1
41
1
41
1
41
1
41
1
41
1
41
1
41
1
41
1
41
1
41
1
41
1
41
1
41
1
41
1
41
1
41
1
41
1
41
1
41
1
41
1
41
1
41
1
41
1
41
1
41
1
41
1
41
1
41
1
41
1
41
1
41
1
41
1
41
1
41
1
41
1
41
1
41
1
41
1
41
1
41
1
41
1
41
1
41
1
41
1
41
1
41
1
41
1
41
1
41
1
41
1
41
1
41
1
41
1
41
1
41
1
41
1
41
1
41
1
41
1
41
1
41
1
41
1
41
1
41
1
41
1
41
1
41
1
41
1
41
1
41
1
41
1
10
20.880700000000001
20
-121.28479999999999
30
0
10
20.778543097958391
20
-121.30662652617931
30
0
10
20.572463649034635
20
-121.34175495471351
30
0
10
20.258966670914806
20
-121.36844586672943
30
0
10
19.836275135256596
20
-121.35282206557937
30
0
10
19.312040934562432
20
-121.25605112406302
30
0
10
18.805540198581792
20
-121.09000244057341
30
0
10
18.331979016950989
20
-120.85596135681776
30
0
10
17.902943637395687
20
-120.55513165836403
30
0
10
17.521292178018086
20
-120.19518030292744
30
0
10
17.175564305228544
20
-119.79737864278178
30
0
10
16.848920014209
20
-119.38551390075278
30
0
10
16.5282359987823
20
-118.97477324219255
30
0
10
16.213911687416992
20
-118.55929547701047
30
0
10
15.913826969725767
20
-118.1255373374517
30
0
10
15.63651071177186
20
-117.66619473189257
30
0
10
15.384060178444486
20
-117.19633396977184
30
0
10
15.153099206060556
20
-116.73660942545608
30
0
10
14.936670707309684
20
-116.29483971337083
30
0
10
14.725652662744746
20
-115.84453366055706
30
0
10
14.511577029407576
20
-115.34357711791914
30
0
10
14.28930636371949
20
-114.7570021658012
30
0
10
14.060308537778464
20
-114.08172236532096
30
0
10
13.830521549473518
20
-113.33822222527779
30
0
10
13.607097675088477
20
-112.55521087490699
30
0
10
13.395828360325124
20
-111.75802070238194
30
0
10
13.197587058027885
20
-110.95239690795346
30
0
10
13.008177832919628
20
-110.12327667770349
30
0
10
12.820691087718766
20
-109.24445248906146
30
0
10
12.627187433093868
20
-108.28530640913377
30
0
10
12.42054862178578
20
-107.21832013890983
30
0
10
12.19651889931011
20
-106.02727986213269
30
0
10
11.954796209607281
20
-104.71177817785761
30
0
10
11.697941605247628
20
-103.28315118065393
30
0
10
11.430743440914373
20
-101.76220433653785
30
0
10
11.159401783072733
20
-100.17622818222266
30
0
10
10.890785135725501
20
-98.556306446578816
30
0
10
10.631666529996478
20
-96.934524112172866
30
0
10
10.387944163559347
20
-95.341158818704045
30
0
10
10.163925890105894
20
-93.802019901357482
30
0
10
9.9614374540135433
20
-92.335358383927286
30
0
10
9.7800850787008677
20
-90.951618194960901
30
0
10
9.6178243706712045
20
-89.653952920251868
30
0
10
9.4714280047453343
20
-88.438470825422669
30
0
10
9.3369902514561254
20
-87.294621384422072
30
0
10
9.2104285052840478
20
-86.205456892338248
30
0
10
9.0879561759765579
20
-85.148097258349438
30
0
10
8.966640799812799
20
-84.093743152725665
30
0
10
8.8446724803332639
20
-83.009147475108094
30
0
10
8.7211420114018523
20
-81.860533442459086
30
0
10
8.5959311850734164
20
-80.616951678486103
30
0
10
8.4695579424600371
20
-79.253867834769821
30
0
10
8.3430409098061737
20
-77.756640548570218
30
0
10
8.2177554341921795
20
-76.124072607835132
30
0
10
8.095293674300164
20
-74.37186939327421
30
0
10
7.9773218711474225
20
-72.53630600943066
30
0
10
7.8655020199694317
20
-70.668006860945226
30
0
10
7.7614146724604005
20
-68.825518509540984
30
0
10
7.6664812449690887
20
-67.068951512701688
30
0
10
7.5818867488940578
20
-65.453609077370317
30
0
10
7.508501838725655
20
-64.023584390102343
30
0
10
7.4468063086258987
20
-62.805457156420246
30
0
10
7.3968092676544517
20
-61.801747580296535
30
0
10
7.3579771048502272
20
-60.984946693395273
30
0
10
7.329140797722518
20
-60.290006732308598
30
0
10
7.308711023835933
20
-59.630545889281507
30
0
10
7.2949262441447784
20
-58.917933212224654
30
0
10
7.286076874301405
20
-58.077760842842906
30
0
10
7.2807690136598016
20
-57.071273239683684
30
0
10
7.2780273590712437
20
-55.895881772999786
30
0
10
7.2773092035065003
20
-54.574110599637947
30
0
10
7.2785465236192533
20
-53.146061359569671
30
0
10
7.2821746588064782
20
-51.660497762364848
30
0
10
7.2891708543158575
20
-50.166344544727224
30
0
10
7.3010789974413379
20
-48.704421755451541
30
0
10
7.3200632898572016
20
-47.29808389752133
30
0
10
7.3488780420623767
20
-45.947417281348123
30
0
10
7.3905460450790788
20
-44.636036544580918
30
0
10
7.4480847887662236
20
-43.335826472603728
30
0
10
7.5242123214101326
20
-42.012513975862113
30
0
10
7.6210653932370729
20
-40.630832670690147
30
0
10
7.739903951018789
20
-39.159986302971269
30
0
10
7.8808409800292258
20
-37.578695469595182
30
0
10
8.0425145970739838
20
-35.881116294586931
30
0
10
8.2219309932302878
20
-34.08022472033884
30
0
10
8.414880637524039
20
-32.202726691021589
30
0
10
8.616259765056169
20
-30.285367354520311
30
0
10
8.8204294252302606
20
-28.370685840094968
30
0
10
9.0215577116282102
20
-26.503017476504077
30
0
10
9.2139710634510728
20
-24.724364264662889
30
0
10
9.3924973889030277
20
-23.070380898493433
30
0
10
9.5528226411483015
20
-21.566174283866147
30
0
10
9.6918184767085069
20
-20.222501805344642
30
0
10
9.8079379092636092
20
-19.031033060441139
30
0
10
9.9014103886926144
20
-17.962374101896131
30
0
10
9.9736805072788819
20
-16.974518153628068
30
0
10
10.026967635775321
20
-16.019621584294658
30
0
10
10.063770505525124
20
-15.051557994297344
30
0
10
10.086412898455199
20
-14.032860621590771
30
0
10
10.096529564030321
20
-12.94259622781273
30
0
10
10.094703974473473
20
-11.781834623596716
30
0
10
10.080847541893029
20
-10.567301109429774
30
0
10
10.054487440162443
20
-9.3265112612620165
30
0
10
10.015082152889288
20
-8.0924032952690386
30
0
10
9.9623427483899967
20
-6.8980201284616269
30
0
10
9.8965108447886596
20
-5.7715528817634842
30
0
10
9.8187551066545691
20
-4.7302924034982174
30
0
10
9.7311577924539101
20
-3.7784235300248681
30
0
10
9.6361242094981119
20
-2.910310279489337
30
0
10
9.5359233704145847
20
-2.1124451876490951
30
0
10
9.4321953964047314
20
-1.3659368768846734
30
0
10
9.325426290517596
20
-0.64877223216698654
30
0
10
9.2145777472289172
20
0.061841122208858332
30
0
10
9.0975337174208164
20
0.78732356789917057
30
0
10
8.9714336441307179
20
1.545495404770868
30
0
10
8.8330583725651621
20
2.3484601753136869
30
0
10
8.6791719356810137
20
3.2002267395853852
30
0
10
8.5071252359720972
20
4.0976254331035875
30
0
10
8.3154412720896111
20
5.0315975875545229
30
0
10
8.1044840784948331
20
5.9882720853989122
30
0
10
7.8769181087004823
20
6.9503115948148819
30
0
10
7.6386969138588405
20
7.8976906136054001
30
0
10
7.3975785799056908
20
8.8109925349393041
30
0
10
7.1605375120966075
20
9.6757157315777889
30
0
10
6.9313436398567312
20
10.486621714863329
30
0
10
6.7084710074330056
20
11.251269486594712
30
0
10
6.481895442294288
20
11.995834653935784
30
0
10
6.2338798705149507
20
12.762938174523264
30
0
10
5.945132251126596
20
13.598751981503108
30
0
10
5.5997857152593546
20
14.542464603520433
30
0
10
5.1905348336500934
20
15.615406747440943
30
0
10
4.724464200952224
20
16.808865803258477
30
0
10
4.2262944745633781
20
18.076850853267526
30
0
10
3.7295903180688788
20
19.352047817051524
30
0
10
3.2694550160539881
20
20.558851989397038
30
0
10
2.8750208243029345
20
21.626935728103568
30
0
10
2.5611715658647007
20
22.505963896871343
30
0
10
2.3225860603485673
20
23.176611794861678
30
0
10
2.1219303868319885
20
23.670980246786595
30
0
10
1.8976772462730542
20
24.061535330888443
30
0
10
1.5932642530017782
20
24.4165594321905
30
0
10
1.1877327579770831
20
24.752032915731284
30
0
10
0.70380754477210616
20
25.02315911767738
30
0
10
0.18044415030490576
20
25.174924064509888
30
0
10
-0.34986477444237618
20
25.188619833231549
30
0
10
-0.87287401914571061
20
25.09645857453572
30
0
10
-1.382123565807335
20
24.942841410780879
30
0
10
-1.8732192623960247
20
24.75202005012882
30
0
10
-2.3391693185560505
20
24.515220178824148
30
0
10
-2.7726247664445323
20
24.216836909386878
30
0
10
-3.1657218326900156
20
23.855825010495352
30
0
10
-3.5126312249655358
20
23.45425072734621
30
0
10
-3.8139086151034309
20
23.036572774775692
30
0
10
-4.0822863472762823
20
22.612577181077288
30
0
10
-4.3425273451009545
20
22.168711907477178
30
0
10
-4.6202235307757542
20
21.682278408255037
30
0
10
-4.9314024292771865
20
21.131739725839665
30
0
10
-5.2764754466410952
20
20.504858192745768
30
0
10
-5.6471034975625445
20
19.795937213047242
30
0
10
-6.0303678313579834
20
19.005440797939965
30
0
10
-6.4140727300213403
20
18.138653764778244
30
0
10
-6.7914165499164305
20
17.204753767657841
30
0
10
-7.1596285339700749
20
16.21577242610342
30
0
10
-7.5186832776278854
20
15.185630446458978
30
0
10
-7.8699925649366431
20
14.129141331535154
30
0
10
-8.2151029326826457
20
13.061027420470648
30
0
10
-8.5543994060198205
20
11.99493348447098
30
0
10
-8.8857827315117444
20
10.942433589428282
30
0
10
-9.2055037625085472
20
9.9126749354267734
30
0
10
-9.5090307477967038
20
8.9120267661283172
30
0
10
-9.7918993273065293
20
7.9437355799383589
30
0
10
-10.05058143688905
20
7.0075590366624994
30
0
10
-10.28331882339976
20
6.0994527166738877
30
0
10
-10.491045470879723
20
5.2111171023665879
30
0
10
-10.676618789489412
20
4.3320893858177723
30
0
10
-10.843967421572557
20
3.4519138313579152
30
0
10
-10.997239552445116
20
2.5624188021705354
30
0
10
-11.140018757603478
20
1.6596412080801866
30
0
10
-11.27433831174285
20
0.74668445673815165
30
0
10
-11.400763431071315
20
-0.16823388599170719
30
0
10
-11.518901911265132
20
-1.0755673414512146
30
0
10
-11.627788682090912
20
-1.9678422497668315
30
0
10
-11.72629503913884
20
-2.84275371566223
30
0
10
-11.813595388064668
20
-3.7075305044560167
30
0
10
-11.889350975474237
20
-4.578457774212807
30
0
10
-11.95354830285407
20
-5.4748313657153114
30
0
10
-12.006428912295288
20
-6.4142086729345493
30
0
10
-12.048380098718219
20
-7.4074645061410802
30
0
10
-12.07984674395934
20
-8.453139625654595
30
0
10
-12.101220277867689
20
-9.534543167298855
30
0
10
-12.112668688321097
20
-10.627221703291294
30
0
10
-12.113978848035419
20
-11.704695685366319
30
0
10
-12.104386343591036
20
-12.745017587289439
30
0
10
-12.082428273478619
20
-13.736656097921232
30
0
10
-12.045743993628159
20
-14.685443396257385
30
0
10
-11.991025566961852
20
-15.618732460399782
30
0
10
-11.914686495188406
20
-16.576459719593849
30
0
10
-11.813429925190764
20
-17.604001196374639
30
0
10
-11.684864962107396
20
-18.744235499461386
30
0
10
-11.528081852166519
20
-20.03016531629283
30
0
10
-11.344294031823736
20
-21.476773144468719
30
0
10
-11.137306743838787
20
-23.074752729750713
30
0
10
-10.912834252068384
20
-24.796534627691535
30
0
10
-10.677938984814494
20
-26.601014498446624
30
0
10
-10.440422549069515
20
-28.438790242916578
30
0
10
-10.208240094991083
20
-30.257159032042299
30
0
10
-9.9888980028380541
20
-32.00527208820732
30
0
10
-9.7888741639337766
20
-33.639094895892832
30
0
10
-9.6129926915620985
20
-35.1267456313604
30
0
10
-9.4639021170410409
20
-36.452981737403796
30
0
10
-9.3412989006045706
20
-37.625779519569249
30
0
10
-9.2422028229043818
20
-38.674273627727629
30
0
10
-9.161976246631804
20
-39.640593454361614
30
0
10
-9.0951090999092052
20
-40.573611345480032
30
0
10
-9.0361325418977714
20
-41.521661844600985
30
0
10
-8.9804030487272328
20
-42.526260278668019
30
0
10
-8.9251271185724299
20
-43.614004532454217
30
0
10
-8.8695117942292452
20
-44.795040304223548
30
0
10
-8.8141832247465626
20
-46.067018114239886
30
0
10
-8.7608107002977658
20
-47.417505262634307
30
0
10
-8.7116485056674318
20
-48.827023866690801
30
0
10
-8.6691081342272565
20
-50.271838322379374
30
0
10
-8.6353287398158205
20
-51.726809257836152
30
0
10
-8.6117213819086764
20
-53.168317338343343
30
0
10
-8.5986039245424148
20
-54.576867444922676
30
0
10
-8.5954689856442741
20
-55.93739565945544
30
0
10
-8.6011839692780701
20
-57.239814392446803
30
0
10
-8.6142183003544694
20
-58.479482008279014
30
0
10
-8.6328566828439186
20
-59.657667672251605
30
0
10
-8.6554239263237083
20
-60.78210405021288
30
0
10
-8.6804917392195531
20
-61.867300990061274
30
0
10
-8.7071269014515167
20
-62.935480437662122
30
0
10
-8.7349111927660612
20
-64.014000918158814
30
0
10
-8.7638835539911746
20
-65.131583154134148
30
0
10
-8.7945079794210503
20
-66.314927752154617
30
0
10
-8.8276304858517189
20
-67.585177130266786
30
0
10
-8.8644411945902224
20
-68.954425725715197
30
0
10
-8.9064332214637947
20
-70.422253166046687
30
0
10
-8.9553657206109509
20
-71.972126607710777
30
0
10
-9.0130408468019727
20
-73.575412584222306
30
0
10
-9.0810757516211851
20
-75.195552405817253
30
0
10
-9.1606790846876756
20
-76.792161676532771
30
0
10
-9.2524195176171489
20
-78.325196734467895
30
0
10
-9.3560117340033706
20
-79.759011650963757
30
0
10
-9.4700622703714714
20
-81.066649759513666
30
0
10
-9.5919088097396603
20
-82.233596686556808
30
0
10
-9.717232633056792
20
-83.262837891486015
30
0
10
-9.84044864349835
20
-84.175430639776721
30
0
10
-9.9561024748841671
20
-85.005143004194736
30
0
10
-10.060049682447074
20
-85.794544428048368
30
0
10
-10.150652991623106
20
-86.590560938794198
30
0
10
-10.230138219548166
20
-87.440134421812814
30
0
10
-10.305377093301313
20
-88.386215687423956
30
0
10
-10.386062863855788
20
-89.46572896061636
30
0
10
-10.483262319816845
20
-90.707259195644653
30
0
10
-10.607809092469132
20
-92.128817182084958
30
0
10
-10.768791745764261
20
-93.735641942650346
30
0
10
-10.971938067172747
20
-95.517823191097605
30
0
10
-11.218192165886279
20
-97.448386127116478
30
0
10
-11.501822043452526
20
-99.4801726792507
30
0
10
-11.811683875040568
20
-101.55091620376695
30
0
10
-12.133252870807247
20
-103.59030697161394
30
0
10
-12.450398974090415
20
-105.52640145734854
30
0
10
-12.74725602483435
20
-107.29225667758344
30
0
10
-13.010081974387122
20
-108.83258358931344
30
0
10
-13.229050568599448
20
-110.11012388919214
30
0
10
-13.400240765763108
20
-111.11276981961026
30
0
10
-13.527149224149515
20
-111.85891108821144
30
0
10
-13.623346790147856
20
-112.4070271599149
30
0
10
-13.711791809937111
20
-112.85285660585501
30
0
10
-13.814656261056212
20
-113.29089239224911
30
0
10
-13.943258240195537
20
-113.77672809037711
30
0
10
-14.091925424791189
20
-114.30281021213405
30
0
10
-14.249412582462318
20
-114.83549170087517
30
0
10
-14.408587130447971
20
-115.34555788268781
30
0
10
-14.574245869274641
20
-115.83365493269737
30
0
10
-14.756166060187901
20
-116.31170298951467
30
0
10
-14.963957285236125
20
-116.78930954263822
30
0
10
-15.201896425627965
20
-117.26135096253584
30
0
10
-15.469565882264879
20
-117.71852726432017
30
0
10
-15.761498049407408
20
-118.15573577078118
30
0
10
-16.067809660506676
20
-118.5795527342693
30
0
10
-16.379801095102522
20
-118.99912558374537
30
0
10
-16.69550300006226
20
-119.41832918674748
30
0
10
-17.024361345822523
20
-119.82843361145018
30
0
10
-17.380055499202147
20
-120.21460361551755
30
0
10
-17.773997201093138
20
-120.56150483899366
30
0
10
-18.208940733845967
20
-120.85889055730976
30
0
10
-18.681283324893265
20
-121.09885287162143
30
0
10
-19.182936957851343
20
-121.27344099149143
30
0
10
-19.703346270804108
20
-121.37229788087848
30
0
10
-20.230666578018848
20
-121.38688564086259
30
0
10
-20.752993064961537
20
-121.31453557643697
30
0
10
-21.259567733303463
20
-121.16250765758537
30
0
10
-21.741908412572219
20
-120.94371946988508
30
0
10
-22.194929962259302
20
-120.67257978376348
30
0
10
-22.618080826027416
20
-120.36073451192635
30
0
10
-23.014341015280205
20
-120.01777685513609
30
0
10
-23.389158917698879
20
-119.65196245554297
30
0
10
-23.749496569642666
20
-119.27100956451851
30
0
10
-24.100866943417714
20
-118.88055261831656
30
0
10
-24.444491489499217
20
-118.48262983326205
30
0
10
-24.773985540190559
20
-118.0738820617981
30
0
10
-25.07970922871689
20
-117.64871040909679
30
0
10
-25.353381501051722
20
-117.20261345525459
30
0
10
-25.593212313123907
20
-116.73584496417902
30
0
10
-25.800953261288431
20
-116.25185111603101
30
0
10
-25.978375281740036
20
-115.75524812224705
30
0
10
-26.123275124066581
20
-115.24972163032659
30
0
10
-26.232547545568131
20
-114.73811625437706
30
0
10
-26.305880390666452
20
-114.22247610748215
30
0
10
-26.350145484421784
20
-113.70493439788348
30
0
10
-26.375460938598771
20
-113.18150753757854
30
0
10
-26.390098381297086
20
-112.63552778726486
30
0
10
-26.394939356864771
20
-112.0292823749493
30
0
10
-26.384979097014607
20
-111.31193872997081
30
0
10
-26.352653306125376
20
-110.4316871687263
30
0
10
-26.290319574389017
20
-109.34552113060531
30
0
10
-26.193596910998217
20
-108.03217496614096
30
0
10
-26.062274313637403
20
-106.49482382989908
30
0
10
-25.899225672519044
20
-104.75509818050494
30
0
10
-25.709876540134545
20
-102.84951796784401
30
0
10
-25.501444885575513
20
-100.82493469113953
30
0
10
-25.282279041939447
20
-98.734400821527331
30
0
10
-25.061153003676687
20
-96.632850204630628
30
0
10
-24.846582037949013
20
-94.572871912188191
30
0
10
-24.646125032611792
20
-92.60041589548463
30
0
10
-24.465703060137315
20
-90.750593010562511
30
0
10
-24.308885962058
20
-89.043279695708179
30
0
10
-24.176263832148731
20
-87.479246955071673
30
0
10
-24.066105882160191
20
-86.044256151033181
30
0
10
-23.974947408257087
20
-84.712709971786055
30
0
10
-23.898204591901578
20
-83.451475013580676
30
0
10
-23.830775916682512
20
-82.223623151545752
30
0
10
-23.767652929098322
20
-80.992226903557565
30
0
10
-23.704518605137054
20
-79.724087022716759
30
0
10
-23.638370955163644
20
-78.393595106446568
30
0
10
-23.568078969894298
20
-76.986236053357004
30
0
10
-23.494004170322501
20
-75.497121311169892
30
0
10
-23.417678377027155
20
-73.929821131389758
30
0
10
-23.34146023592076
20
-72.295083726902035
30
0
10
-23.268200723288075
20
-70.609602570947317
30
0
10
-23.200904915703639
20
-68.894762982579337
30
0
10
-23.142395093354949
20
-67.175397872310128
30
0
10
-23.094973913788426
20
-65.478539143978608
30
0
10
-23.0600860215431
20
-63.832172066149148
30
0
10
-23.037984579917961
20
-62.263984752522774
30
0
10
-23.027965399730878
20
-60.799192969774779
30
0
10
-23.028596088671414
20
-59.458394242721972
30
0
10
-23.037947053348798
20
-58.255369149608086
30
0
10
-23.053821691922344
20
-57.194999621347201
30
0
10
-23.073986972977067
20
-56.270917460276152
30
0
10
-23.096403758371032
20
-55.463782580803681
30
0
10
-23.119457244091699
20
-54.737996695756017
30
0
10
-23.142193464356598
20
-54.045175342035606
30
0
10
-23.164581806394985
20
-53.332107007662088
30
0
10
-23.187734333013026
20
-52.547003393240203
30
0
10
-23.214223912234093
20
-51.647273032462763
30
0
10
-23.24809275867533
20
-50.603945518735536
30
0
10
-23.294206754276395
20
-49.399609364946599
30
0
10
-23.357747624372767
20
-48.027675635010439
30
0
10
-23.443646194837857
20
-46.491116199618745
30
0
10
-23.556049724105339
20
-44.801420858754845
30
0
10
-23.697753907940019
20
-42.97747341690598
30
0
10
-23.869698269559628
20
-41.044432367528984
30
0
10
-24.070317393807837
20
-39.032683295633767
30
0
10
-24.29534482802401
20
-36.97651434346858
30
0
10
-24.538543338317403
20
-34.912204958243422
30
0
10
-24.792240262664734
20
-32.876238321713686
30
0
10
-25.047940416585188
20
-30.903465684893696
30
0
10
-25.296906570313006
20
-29.025288111432044
30
0
10
-25.530752214961566
20
-27.267837957424863
30
0
10
-25.742032890996157
20
-25.650143561896456
30
0
10
-25.924829197915557
20
-24.18234024126571
30
0
10
-26.075354208057341
20
-22.863770208428775
30
0
10
-26.192501344551115
20
-21.681344835543086
30
0
10
-26.27854861303657
20
-20.607221873239961
30
0
10
-26.338285641916166
20
-19.603390284453035
30
0
10
-26.377917746726176
20
-18.627235190412009
30
0
10
-26.404062032561924
20
-17.636691546252003
30
0
10
-26.422675096165293
20
-16.595716446696404
30
0
10
-26.438079563965729
20
-15.479283854471324
30
0
10
-26.451765601721782
20
-14.279480474935442
30
0
10
-26.462893961709469
20
-13.003238747010624
30
0
10
-26.469128387724297
20
-11.668434719553824
30
0
10
-26.467362451090928
20
-10.300538794783291
30
0
10
-26.454471935616304
20
-8.9290634723754074
30
0
10
-26.428099691168001
20
-7.5840309008760265
30
0
10
-26.387325112847474
20
-6.2925892995853419
30
0
10
-26.333631712626755
20
-5.0751801957316474
30
0
10
-26.27084238469903
20
-3.9432892711484095
30
0
10
-26.203605329091516
20
-2.8993417368287755
30
0
10
-26.136266907521062
20
-1.936139002825995
30
0
10
-26.071521794998169
20
-1.0363333958430982
30
0
10
-26.009310724091112
20
-0.17222678086136733
30
0
10
-25.945241181462997
20
0.69539782539175865
30
0
10
-25.870497299782137
20
1.6151637018300957
30
0
10
-25.774209387324724
20
2.6375095948184901
30
0
10
-25.645286410914132
20
3.8082632724601382
30
0
10
-25.474413146502709
20
5.1619362947808698
30
0
10
-25.256094610513316
20
6.7147026951721047
30
0
10
-24.990404969231573
20
8.4585313484854456
30
0
10
-24.685556772941297
20
10.352258174518456
30
0
10
-24.356815163900606
20
12.326189614087685
30
0
10
-24.023241929153652
20
14.294734884856695
30
0
10
-23.705078884668893
20
16.166663576632033
30
0
10
-23.420915068473587
20
17.85618878232739
30
0
10
-23.184835217462595
20
19.294058021111667
30
0
10
-23.00383482626199
20
20.437801359112658
30
0
10
-22.874519504700551
20
21.284293709073083
30
0
10
-22.781516999702106
20
21.876759913688318
30
0
10
-22.691677344495176
20
22.325461092546167
30
0
10
-22.564239524522691
20
22.776350707833977
30
0
10
-22.37013201860519
20
23.349221871090101
30
0
10
-22.114121930000508
20
24.067992671749494
30
0
10
-21.834524607960478
20
24.858880111848794
30
0
10
-21.580156972332581
20
25.618048414487223
30
0
10
-21.395022751235619
20
26.255413391478555
30
0
10
-21.296917776469193
20
26.757596710921831
30
0
10
-21.267581701188032
20
27.213937186951451
30
0
10
-21.2737193361952
20
27.744431864061525
30
0
10
-21.284532493530147
20
28.437536018974761
30
0
10
-21.286079079279631
20
29.301951517687172
30
0
10
-21.274995413771389
20
30.298931515626176
30
0
10
-21.255654134357073
20
31.361333103377341
30
0
10
-21.235951605808104
20
32.417985079313929
30
0
10
-21.223705151737022
20
33.415602519526239
30
0
10
-21.2227200379698
20
34.342260064834051
30
0
10
-21.233817680046243
20
35.215438861613578
30
0
10
-21.255883759661202
20
36.069866718105196
30
0
10
-21.28694221457711
20
36.945024969524141
30
0
10
-21.325148813067859
20
37.873707107573537
30
0
10
-21.369997506756199
20
38.867784629305035
30
0
10
-21.422290086922573
20
39.920238759505303
30
0
10
-21.483700161866693
20
41.012572022415867
30
0
10
-21.556474064618214
20
42.120328207404413
30
0
10
-21.643069313751646
20
43.219640473681963
30
0
10
-21.745832068086411
20
44.292783873243671
30
0
10
-21.866626710031092
20
45.335572546569892
30
0
10
-22.006660707914843
20
46.355939001536129
30
0
10
-22.166384079399315
20
47.368868167308584
30
0
10
-22.345369107685581
20
48.392583533009926
30
0
10
-22.542189177865851
20
49.444035543107304
30
0
10
-22.754319132516123
20
50.535100183041635
30
0
10
-22.977972792287794
20
51.667431888354727
30
0
10
-23.208240385057781
20
52.833185909473968
30
0
10
-23.439381407506971
20
54.018708341534747
30
0
10
-23.66506779546533
20
55.207317728312269
30
0
10
-23.878650124819963
20
56.38242697151162
30
0
10
-24.073408352936045
20
57.530603586410265
30
0
10
-24.242822373879768
20
58.644457678814852
30
0
10
-24.380798347748296
20
59.726138867261383
30
0
10
-24.482442942180288
20
60.782989260355365
30
0
10
-24.544914631437095
20
61.822271629927684
30
0
10
-24.568212006604369
20
62.84637851154578
30
0
10
-24.556068574925366
20
63.847500462719466
30
0
10
-24.516613762545873
20
64.80332184388989
30
0
10
-24.463647564481576
20
65.670112740663697
30
0
10
-24.411614999734866
20
66.40197057216696
30
0
10
-24.3687791560092
20
66.977214722650828
30
0
10
-24.332468126725274
20
67.416880079305827
30
0
10
-24.279991308184542
20
67.819468934943572
30
0
10
-24.176013405123328
20
68.334053804367926
30
0
10
-23.989741625200217
20
69.096354719323841
30
0
10
-23.712853823587132
20
70.162605712388341
30
0
10
-23.362934257799171
20
71.495559868363316
30
0
10
-22.973016730671517
20
73.000771674608643
30
0
10
-22.585107150929002
20
74.54841789585987
30
0
10
-22.242162949542617
20
76.000834347149805
30
0
10
-21.980514185521741
20
77.238153937782329
30
0
10
-21.822605702494812
20
78.183479274105821
30
0
10
-21.7683837299506
20
78.831313594160136
30
0
10
-21.790792370268939
20
79.265657290503498
30
0
10
-21.856381223541565
20
79.611493366921323
30
0
10
-21.944655844075193
20
79.991597263403321
30
0
10
-22.06426050255104
20
80.486016650138325
30
0
10
-22.234625789867639
20
81.138688875938016
30
0
10
-22.470267572418905
20
81.959235892277462
30
0
10
-22.765625250739699
20
82.927010240360275
30
0
10
-23.102006992598167
20
83.999634970820765
30
0
10
-23.452811578367289
20
85.121510760842497
30
0
10
-23.789440156030345
20
86.232324566521868
30
0
10
-24.086860178678414
20
87.275544494234808
30
0
10
-24.329446762598511
20
88.206954429617198
30
0
10
-24.516350949551931
20
89.003053186111259
30
0
10
-24.656293641884567
20
89.661670532820978
30
0
10
-24.762518560394934
20
90.203556815461567
30
0
10
-24.848048046046852
20
90.67217806089991
30
0
10
-24.919899707252263
20
91.137836130923091
30
0
10
-24.97978940890059
20
91.67762226411412
30
0
10
-25.026635685658377
20
92.351021456876268
30
0
10
-25.058767627597426
20
93.17138127155502
30
0
10
-25.074462368343703
20
94.111709743848735
30
0
10
-25.071689566217884
20
95.123070551000183
30
0
10
-25.048101238087874
20
96.14946374134081
30
0
10
-25.000978836382505
20
97.142689745697552
30
0
10
-24.927050924377824
20
98.080866321099478
30
0
10
-24.822937512868108
20
98.971145278010397
30
0
10
-24.686230827169446
20
99.835814968518378
30
0
10
-24.516465928386417
20
100.70256336467943
30
0
10
-24.316001382415614
20
101.59374043074723
30
0
10
-24.091260048286692
20
102.51438382296473
30
0
10
-23.852803635788472
20
103.44601697230331
30
0
10
-23.611808660374937
20
104.35927392264624
30
0
10
-23.377148292478896
20
105.22326318633525
30
0
10
-23.152276795716396
20
106.01612977414801
30
0
10
-22.932102058439593
20
106.73531358182971
30
0
10
-22.7001133346808
20
107.40739193386702
30
0
10
-22.436619051112004
20
108.07119686393492
30
0
10
-22.127368381244082
20
108.76037604424185
30
0
10
-21.770891072035777
20
109.48821612334783
30
0
10
-21.389264800522255
20
110.22630376675042
30
0
10
-21.018284370266514
20
110.92012422709161
30
0
10
-20.689004724177341
20
111.51975000174141
30
0
10
-20.415151800977238
20
112.0008077601799
30
0
10
-20.171024713969139
20
112.40058179887826
30
0
10
-19.899167471078481
20
112.80725303139155
30
0
10
-19.546769239028222
20
113.30365339573113
30
0
10
-19.102723207273165
20
113.91062706004448
30
0
10
-18.60702230333381
20
114.5716872968035
30
0
10
-18.115882500425641
20
115.20419232658489
30
0
10
-17.679359672870326
20
115.73181567682772
30
0
10
-17.311090907448538
20
116.12863690288832
30
0
10
-16.969527966871386
20
116.4466028233218
30
0
10
-16.59311896286286
20
116.76576330086534
30
0
10
-16.131305103565431
20
117.1503792701545
30
0
10
-15.572678117775475
20
117.60938803263856
30
0
10
-14.931632507241853
20
118.11820925176029
30
0
10
-14.239088848687754
20
118.6347159034061
30
0
10
-13.531959143412845
20
119.11665491493446
30
0
10
-12.842322069066146
20
119.54055387998713
30
0
10
-12.194392222637703
20
119.89980623626474
30
0
10
-11.602800586831277
20
120.19880604865149
30
0
10
-11.070837601147637
20
120.44855747276691
30
0
10
-10.587668122723333
20
120.6614611744949
30
0
10
-10.130705040187181
20
120.84755117526385
30
0
10
-9.6730265201222885
20
121.01254361558523
30
0
10
-9.1877776389403483
20
121.15375523498369
30
0
10
-8.6585629184386743
20
121.26286057150621
30
0
10
-8.0880477010768921
20
121.33280061816808
30
0
10
-7.5170282174002416
20
121.36614076574041
30
0
10
-7.0042794357151781
20
121.37348553016209
30
0
10
-6.5786554744633765
20
121.36317325440629
30
0
10
-6.181370240049362
20
121.33038380081152
30
0
10
-5.6730414802528015
20
121.25699055566915
30
0
10
-4.9108558959946311
20
121.12390000164304
30
0
10
-3.8196991416812858
20
120.92197141139819
30
0
10
-2.4223265421992486
20
120.65686546683848
30
0
10
-0.80288596466528173
20
120.34361281082674
30
0
10
0.91200978773830044
20
120.00387950482721
30
0
10
2.5796731170358571
20
119.66213834942074
30
0
10
4.0638361586837055
20
119.34229337085395
30
0
10
5.2604466287788938
20
119.06414501480702
30
0
10
6.1182483280237481
20
118.83984124965467
30
0
10
6.6709033012668737
20
118.6705196276705
30
0
10
7.0300981098937463
20
118.54261702037276
30
0
10
7.3339265215775971
20
118.42694150115449
30
0
10
7.7012534051692825
20
118.27253813129079
30
0
10
8.2018463944924331
20
118.01706550214489
30
0
10
8.8606590331606601
20
117.61541574138926
30
0
10
9.6498332726657683
20
117.070881415347
30
0
10
10.497215183751088
20
116.44291242209648
30
0
10
11.31422579465279
20
115.81303999919555
30
0
10
12.020317316328198
20
115.25983311997619
30
0
10
12.567133987734893
20
114.83195824709506
30
0
10
12.966688856905515
20
114.51793121205867
30
0
10
13.306485273558174
20
114.22928686088852
30
0
10
13.688903183006564
20
113.86395493715072
30
0
10
14.17526754826808
20
113.36472648799676
30
0
10
14.738080306434433
20
112.76880257812671
30
0
10
15.305711991066302
20
112.15749596496521
30
0
10
15.799611763356738
20
111.61378180640551
30
0
10
16.171273415631305
20
111.18065844698883
30
0
10
16.447347096086595
20
110.80931103599622
30
0
10
16.698491733852702
20
110.40048835871239
30
0
10
16.997137449452037
20
109.85905897887152
30
0
10
17.373043743881947
20
109.15205714511495
30
0
10
17.817264212174926
20
108.30205716552705
30
0
10
18.297982388400015
20
107.36482752497912
30
0
10
18.772658674303759
20
106.41189253944212
30
0
10
19.200688565535319
20
105.51233858820028
30
0
10
19.558428481972737
20
104.71169488511136
30
0
10
19.841874742202513
20
104.02620031229503
30
0
10
20.059810407603234
20
103.44854256031149
30
0
10
20.229782536757966
20
102.95085936285275
30
0
10
20.372842541120843
20
102.48743413122959
30
0
10
20.509083388143182
20
102.0019480446927
30
0
10
20.654352426138605
20
101.4453863976201
30
0
10
20.816128899550179
20
100.7946321656125
30
0
10
20.991617053101702
20
100.06282008409714
30
0
10
21.172273937678398
20
99.282036279882135
30
0
10
21.347218406150368
20
98.49094920236837
30
0
10
21.507059442131208
20
97.720578784699626
30
0
10
21.647607655742014
20
96.980610018377661
30
0
10
21.768111286337316
20
96.265535882642979
30
0
10
21.869258632193727
20
95.561505460813137
30
0
10
21.951470107058601
20
94.852506855003597
30
0
10
22.012564783890124
20
94.127813354035652
30
0
10
22.048630844986601
20
93.383378064525999
30
0
10
22.05636891769322
20
92.620955310408576
30
0
10
22.034655698443078
20
91.847685459881475
30
0
10
21.987143430277023
20
91.076117206349977
30
0
10
21.921829977918733
20
90.321733791966565
30
0
10
21.846419345775168
20
89.596501521204473
30
0
10
21.764941002029889
20
88.903786149792069
30
0
10
21.673352243826372
20
88.231879025418749
30
0
10
21.5570475946048
20
87.550541637511344
30
0
10
21.398728545659012
20
86.824679720703813
30
0
10
21.185394401768242
20
86.026534040538792
30
0
10
20.915149502253662
20
85.147607287889997
30
0
10
20.605436393290933
20
84.212871834465304
30
0
10
20.286104379410631
20
83.269956851560991
30
0
10
19.990750516134934
20
82.374972663732166
30
0
10
19.747835333938475
20
81.579094844583651
30
0
10
19.573786261694821
20
80.91580646853707
30
0
10
19.460538940500957
20
80.385370522715007
30
0
10
19.386971532393019
20
79.953444363474617
30
0
10
19.3393761657317
20
79.560588923454176
30
0
10
19.33712971213961
20
79.1236525773609
30
0
10
19.422531495806407
20
78.55971402366302
30
0
10
19.630025348812644
20
77.817310712576216
30
0
10
19.954397270027798
20
76.9159249024367
30
0
10
20.34968643204575
20
75.939053517397909
30
0
10
20.753072772270819
20
74.993419024719955
30
0
10
21.102245118019205
20
74.176188408848958
30
0
10
21.353308581207429
20
73.543295924170863
30
0
10
21.503636878486315
20
73.066716783250442
30
0
10
21.595509383200337
20
72.631354188879357
30
0
10
21.683495425521659
20
72.105092562368498
30
0
10
21.80555144602096
20
71.402229817847399
30
0
10
21.964782160332788
20
70.522541042581096
30
0
10
22.144802248957028
20
69.515886925250953
30
0
10
22.318154014326801
20
68.462172648447307
30
0
10
22.457336585237101
20
67.445484565822795
30
0
10
22.545120007643902
20
66.529951549641481
30
0
10
22.584034877653714
20
65.737034842979256
30
0
10
22.587919844755699
20
65.05855412088296
30
0
10
22.574323459823951
20
64.467545655460498
30
0
10
22.557200328951147
20
63.929616693922604
30
0
10
22.537903321800989
20
63.414958305406856
30
0
10
22.508675666825383
20
62.902746928248973
30
0
10
22.458829729752065
20
62.382639224714325
30
0
10
22.380837270529945
20
61.859112669199988
30
0
10
22.271045865887334
20
61.34362072011217
30
0
10
22.128540918444592
20
60.845225797100568
30
0
10
21.954548126751774
20
60.358160015338129
30
0
10
21.752333112146353
20
59.870065223015352
30
0
10
21.527759427727311
20
59.374312978577386
30
0
10
21.289122631290113
20
58.887518837588559
30
0
10
21.049331282745495
20
58.432158587053934
30
0
10
20.827489382484519
20
58.010895006869106
30
0
10
20.653439980684855
20
57.571110614738885
30
0
10
20.558039410520806
20
57.033363342142927
30
0
10
20.558849029490709
20
56.343893050313945
30
0
10
20.643087237216882
20
55.534323696611459
30
0
10
20.771990201545002
20
54.705900099759326
30
0
10
20.898023203520772
20
53.965921369537824
30
0
10
20.976864711028
20
53.385855914712366
30
0
10
20.984300576717306
20
52.935231920752585
30
0
10
20.921694830183597
20
52.47719296440728
30
0
10
20.804094340349199
20
51.855287340158171
30
0
10
20.6511975207756
20
50.971664012737399
30
0
10
20.480287227340526
20
49.83220453419996
30
0
10
20.306893934228036
20
48.505667598467205
30
0
10
20.143639991981289
20
47.101750211138878
30
0
10
19.999856663446753
20
45.742147830013941
30
0
10
19.880787777787905
20
44.533197010128276
30
0
10
19.787164621235334
20
43.541136259950235
30
0
10
19.714135552673696
20
42.757969282585684
30
0
10
19.652679151621946
20
42.108673498750512
30
0
10
19.592848910071442
20
41.488590702291155
30
0
10
19.526275879092609
20
40.790196972131199
30
0
10
19.449438430636839
20
39.938102833658348
30
0
10
19.365111153489373
20
38.908052625017632
30
0
10
19.279807638937495
20
37.712525103157397
30
0
10
19.201971651219122
20
36.392761244757537
30
0
10
19.13994522587441
20
35.008301786070355
30
0
10
19.099862587549389
20
33.627458694291576
30
0
10
19.083971512932834
20
32.317687055979661
30
0
10
19.087788420525197
20
31.135242763764751
30
0
10
19.101843120049772
20
30.118484441641545
30
0
10
19.116871738160803
20
29.284891722410503
30
0
10
19.128486189457149
20
28.626055266982835
30
0
10
19.141049932385737
20
28.105604693679588
30
0
10
19.174301953562466
20
27.650857926547271
30
0
10
19.261135745837343
20
27.163050148259877
30
0
10
19.427997378806118
20
26.562181996851443
30
0
10
19.675264913736445
20
25.833682926019932
30
0
10
19.967832775684059
20
25.048931962221062
30
0
10
20.257511017910559
20
24.306775816151465
30
0
10
20.499318086129602
20
23.690140931680126
30
0
10
20.670225261984875
20
23.216584344681664
30
0
10
20.786785329227992
20
22.791622466564888
30
0
10
20.886358338386604
20
22.269326167572171
30
0
10
21.008456981278027
20
21.512389717442094
30
0
10
21.175608461051137
20
20.453885814131965
30
0
10
21.395861654271062
20
19.086030371333411
30
0
10
21.665860358227313
20
17.447050395647842
30
0
10
21.973709808481786
20
15.608742353254552
30
0
10
22.301926529070162
20
13.663756138299604
30
0
10
22.630361715026893
20
11.71295689050169
30
0
10
22.93911409742141
20
9.8528471369083022
30
0
10
23.211498213048365
20
8.1627449684615812
30
0
10
23.436868751270534
20
6.6925815883572515
30
0
10
23.613830341972196
20
5.4490466758198881
30
0
10
23.748165061737353
20
4.4043352852848008
30
0
10
23.850262967525179
20
3.5070088501658345
30
0
10
23.932753277424432
20
2.6920247642748678
30
0
10
24.008001022398069
20
1.8912790025063086
30
0
10
24.085778591274071
20
1.0435471970624561
30
0
10
24.170551055802946
20
0.10569624246982558
30
0
10
24.262329036012797
20
-0.94769959297612894
30
0
10
24.358042375013827
20
-2.126417679531269
30
0
10
24.452725180876929
20
-3.4260655407109954
30
0
10
24.540792102422966
20
-4.8297832527805298
30
0
10
24.617247936505176
20
-6.3098966326404096
30
0
10
24.678991321463091
20
-7.829479288676283
30
0
10
24.725888268472467
20
-9.3442805951532115
30
0
10
24.759788771015842
20
-10.80828295711618
30
0
10
24.783721042809578
20
-12.178907538193361
30
0
10
24.801008003824421
20
-13.422439670061983
30
0
10
24.814439528033667
20
-14.519167333224239
30
0
10
24.825368054384754
20
-15.469092105575296
30
0
10
24.832960675470201
20
-16.296340919062679
30
0
10
24.833068289488246
20
-17.05682701720939
30
0
10
24.819054987945847
20
-17.829233306002102
30
0
10
24.783384253053057
20
-18.699607367658611
30
0
10
24.719013567967568
20
-19.747475065003972
30
0
10
24.620750267974948
20
-21.032542730814189
30
0
10
24.486914071107407
20
-22.578159505387742
30
0
10
24.31976564221182
20
-24.367523575973792
30
0
10
24.124488506298619
20
-26.354772757654096
30
0
10
23.908549260632949
20
-28.472185379976636
30
0
10
23.68090373480106
20
-30.638965008779881
30
0
10
23.451269132668813
20
-32.769346831366484
30
0
10
23.229367762460896
20
-34.780996149061366
30
0
10
23.024183068289219
20
-36.603280462582802
30
0
10
22.843210205672747
20
-38.185597593050275
30
0
10
22.691709311635012
20
-39.505676335251898
30
0
10
22.571956725365997
20
-40.577897865321177
30
0
10
22.482499877690458
20
-41.4615777745394
30
0
10
22.419218148000787
20
-42.245067694037971
30
0
10
22.376364270742386
20
-43.030162799574974
30
0
10
22.347639779655516
20
-43.915948062910076
30
0
10
22.327194643946193
20
-44.983906588137394
30
0
10
22.310818085105968
20
-46.279838698110261
30
0
10
22.295953681625292
20
-47.81540106198841
30
0
10
22.281374656196679
20
-49.575317527703469
30
0
10
22.266973373035519
20
-51.522682702667453
30
0
10
22.253502810813867
20
-53.605069617975332
30
0
10
22.242339205150735
20
-55.760278019574358
30
0
10
22.235234330499559
20
-57.922269644567507
30
0
10
22.234075163620155
20
-60.026947646824937
30
0
10
22.24063359609594
20
-62.018178040965267
30
0
10
22.256336229953519
20
-63.853299113424804
30
0
10
22.281987333678547
20
-65.509837390564812
30
0
10
22.317636423319371
20
-66.988490936374319
30
0
10
22.36279287869079
20
-68.307152452993193
30
0
10
22.416572285684929
20
-69.49669536482115
30
0
10
22.477870381807399
20
-70.59604704382177
30
0
10
22.545524137569132
20
-71.647594518690227
30
0
10
22.618480867470186
20
-72.692382174063226
30
0
10
22.695957995991822
20
-73.765552380954233
30
0
10
22.777622653668402
20
-74.891269903066174
30
0
10
22.863533381690431
20
-76.083837189792305
30
0
10
22.954057964511925
20
-77.349428505867678
30
0
10
23.049799703914733
20
-78.687609856830861
30
0
10
23.151520340582227
20
-80.092933471881622
30
0
10
23.260063943877718
20
-81.556536542994195
30
0
10
23.376281493971589
20
-83.067653156639309
30
0
10
23.500952426189087
20
-84.615373537421718
30
0
10
23.634718331351067
20
-86.18946720415812
30
0
10
23.778029176677702
20
-87.780260980779929
30
0
10
23.931085934168582
20
-89.378773615376502
30
0
10
24.093785094498251
20
-90.976744282974309
30
0
10
24.265661405907025
20
-92.566709441457093
30
0
10
24.445833610811839
20
-94.142052159252941
30
0
10
24.632943688525248
20
-95.697078937082622
30
0
10
24.825111031430914
20
-97.227048188749094
30
0
10
25.019850409342599
20
-98.728309121453051
30
0
10
25.214114936710871
20
-100.19806307002638
30
0
10
25.404503516558545
20
-101.63362251959251
30
0
10
25.58742638319934
20
-103.03180682063895
30
0
10
25.75928938242722
20
-104.38825826436157
30
0
10
25.916666212392517
20
-105.69684781853631
30
0
10
26.056485178034094
20
-106.94891324452391
30
0
10
26.176187908710858
20
-108.13287061822717
30
0
10
26.273953575728036
20
-109.23292704633525
30
0
10
26.348698652267217
20
-110.23087771523997
30
0
10
26.399799172297385
20
-111.11161658012554
30
0
10
26.426871082137989
20
-111.86801278332256
30
0
10
26.429552452183334
20
-112.50539523638479
30
0
10
26.407224943959207
20
-113.04773920088817
30
0
10
26.358937356684656
20
-113.5385396673456
30
0
10
26.284011251775322
20
-114.02196668716471
30
0
10
26.182685337436361
20
-114.52493129113294
30
0
10
26.056384672740442
20
-115.04405047825202
30
0
10
25.906200845475958
20
-115.56248848821505
30
0
10
25.731366768688812
20
-116.06375793960771
30
0
10
25.528349661342826
20
-116.54421132597028
30
0
10
25.294098237313012
20
-117.00669749121744
30
0
10
25.029097434949552
20
-117.4563049193431
30
0
10
24.739798351932023
20
-117.8957954164192
30
0
10
24.434383524571508
20
-118.32638469551807
30
0
10
24.11900639888065
20
-118.74792770086609
30
0
10
23.794217287207179
20
-119.1593065409358
30
0
10
23.456751896760277
20
-119.5581890835532
30
0
10
23.100916495476241
20
-119.94088916664039
30
0
10
22.720144711133553
20
-120.30213362761069
30
0
10
22.308814001681426
20
-120.63376276888208
30
0
10
21.864094322859586
20
-120.92342239505328
30
0
10
21.483011233028467
20
-121.10738325494404
30
0
10
21.185405061285802
20
-121.21079579763722
30
0
10
20.982856902042375
20
-121.26297347382051
30
0
10
20.880700000000001
20
-121.28479999999999
30
0
0
ENDSEC
0
SECTION
2
OBJECTS
0
DICTIONARY
5
C
100
AcDbDictionary
3
ACAD_GROUP
350
D
3
ACAD_MLINESTYLE
350
17
0
DICTIONARY
5
D
100
AcDbDictionary
0
DICTIONARY
5
1A
330
C
100
AcDbDictionary
0
DICTIONARY
5
17
100
AcDbDictionary
0
ENDSEC
0
EOF
