0
SECTION
2
HEADER
9
$INSUNITS
70
4
9
$ACADVER
1
AC1014
9
$HANDSEED
5
FFFF
0
ENDSEC
0
SECTION
2
TABLES
0
TABLE
2
VPORT
5
8
100
AcDbSymbolTable
0
ENDTAB
0
TABLE
2
LTYPE
5
5
100
AcDbSymbolTable
0
LTYPE
5
14
100
AcDbSymbolTableRecord
100
AcDbLinetypeTableRecord
2
BYBLOCK
70
0
0
LTYPE
5
15
100
AcDbSymbolTableRecord
100
AcDbLinetypeTableRecord
2
BYLAYER
70
0
0
LTYPE
5
16
100
AcDbSymbolTableRecord
100
AcDbLinetypeTableRecord
2
DASHED
70
0
3
Dashed __ __ __ __ __ __ __ __ __ __ __ __ __ _
72
65
73
2
40
0.75
49
0.5
74
0
49
-0.25
74
0
0
ENDTAB
0
TABLE
2
LAYER
5
2
100
AcDbSymbolTable
70
2
0
LAYER
5
50
100
AcDbSymbolTableRecord
100
AcDbLayerTableRecord
2
0
70
0
62
7
6
CONTINUOUS
0
ENDTAB
0
TABLE
2
STYLE
5
3
100
AcDbSymbolTable
70
1
0
STYLE
5
11
100
AcDbSymbolTableRecord
100
AcDbTextStyleTableRecord
2
STANDARD
70
0
0
ENDTAB
0
TABLE
2
VIEW
5
6
100
AcDbSymbolTable
70
0
0
ENDTAB
0
TABLE
2
UCS
5
7
100
AcDbSymbolTable
70
0
0
ENDTAB
0
TABLE
2
APPID
5
9
100
AcDbSymbolTable
70
2
0
APPID
5
12
100
AcDbSymbolTableRecord
100
AcDbRegAppTableRecord
2
ACAD
70
0
0
ENDTAB
0
TABLE
2
DIMSTYLE
5
A
100
AcDbSymbolTable
70
1
0
ENDTAB
0
TABLE
2
BLOCK_RECORD
5
1
100
AcDbSymbolTable
70
1
0
BLOCK_RECORD
5
1F
100
AcDbSymbolTableRecord
100
AcDbBlockTableRecord
2
*MODEL_SPACE
0
BLOCK_RECORD
5
1B
100
AcDbSymbolTableRecord
100
AcDbBlockTableRecord
2
*PAPER_SPACE
0
ENDTAB
0
ENDSEC
0
SECTION
2
BLOCKS
0
BLOCK
5
20
100
AcDbEntity
100
AcDbBlockBegin
2
*MODEL_SPACE
0
ENDBLK
5
21
100
AcDbEntity
100
AcDbBlockEnd
0
BLOCK
5
1C
100
AcDbEntity
100
AcDbBlockBegin
2
*PAPER_SPACE
0
ENDBLK
5
1D
100
AcDbEntity
100
AcDbBlockEnd
0
ENDSEC
0
SECTION
2
ENTITIES
0
SPLINE
5
100
100
AcDbEntity
8
0
100
AcDbSpline
70
6
71
5
72
806
73
800
74
0
42
0.000000001
43
0.0000000001
44
0.0000000001
40
0
40
0
40
0
40
0
40
0
40
0
40
0.0012578616352201257
40
0.0025157232704402514
40
0.0037735849056603774
40
0.0050314465408805029
40
0.0062893081761006284
40
0.0075471698113207539
40
0.0088050314465408803
40
0.010062893081761006
40
0.011320754716981131
40
0.012578616352201257
40
0.013836477987421382
40
0.015094339622641508
40
0.016352201257861635
40
0.017610062893081761
40
0.018867924528301886
40
0.020125786163522012
40
0.021383647798742137
40
0.022641509433962263
40
0.023899371069182388
40
0.025157232704402514
40
0.026415094339622639
40
0.027672955974842765
40
0.02893081761006289
40
0.030188679245283016
40
0.031446540880503145
40
0.03270440251572327
40
0.033962264150943396
40
0.035220125786163521
40
0.036477987421383647
40
0.037735849056603772
40
0.038993710691823898
40
0.040251572327044023
40
0.041509433962264149
40
0.042767295597484274
40
0.0440251572327044
40
0.045283018867924525
40
0.046540880503144651
40
0.047798742138364776
40
0.049056603773584902
40
0.050314465408805027
40
0.051572327044025153
40
0.052830188679245278
40
0.054088050314465404
40
0.055345911949685529
40
0.056603773584905655
40
0.05786163522012578
40
0.059119496855345906
40
0.060377358490566031
40
0.061635220125786157
40
0.062893081761006289
40
0.064150943396226415
40
0.06540880503144654
40
0.066666666666666666
40
0.067924528301886791
40
0.069182389937106917
40
0.070440251572327042
40
0.071698113207547168
40
0.072955974842767293
40
0.074213836477987419
40
0.075471698113207544
40
0.07672955974842767
40
0.077987421383647795
40
0.079245283018867921
40
0.080503144654088046
40
0.081761006289308172
40
0.083018867924528297
40
0.084276729559748423
40
0.085534591194968548
40
0.086792452830188674
40
0.088050314465408799
40
0.089308176100628925
40
0.09056603773584905
40
0.091823899371069176
40
0.093081761006289301
40
0.094339622641509427
40
0.095597484276729552
40
0.096855345911949678
40
0.098113207547169803
40
0.099371069182389929
40
0.10062893081761005
40
0.10188679245283018
40
0.10314465408805031
40
0.10440251572327043
40
0.10566037735849056
40
0.10691823899371068
40
0.10817610062893081
40
0.10943396226415093
40
0.11069182389937106
40
0.11194968553459118
40
0.11320754716981131
40
0.11446540880503144
40
0.11572327044025156
40
0.11698113207547169
40
0.11823899371069181
40
0.11949685534591194
40
0.12075471698113206
40
0.12201257861635219
40
0.12327044025157231
40
0.12452830188679244
40
0.12578616352201258
40
0.1270440251572327
40
0.12830188679245283
40
0.12955974842767295
40
0.13081761006289308
40
0.13207547169811321
40
0.13333333333333333
40
0.13459119496855346
40
0.13584905660377358
40
0.13710691823899371
40
0.13836477987421383
40
0.13962264150943396
40
0.14088050314465408
40
0.14213836477987421
40
0.14339622641509434
40
0.14465408805031446
40
0.14591194968553459
40
0.14716981132075471
40
0.14842767295597484
40
0.14968553459119496
40
0.15094339622641509
40
0.15220125786163521
40
0.15345911949685534
40
0.15471698113207547
40
0.15597484276729559
40
0.15723270440251572
40
0.15849056603773584
40
0.15974842767295597
40
0.16100628930817609
40
0.16226415094339622
40
0.16352201257861634
40
0.16477987421383647
40
0.16603773584905659
40
0.16729559748427672
40
0.16855345911949685
40
0.16981132075471697
40
0.1710691823899371
40
0.17232704402515722
40
0.17358490566037735
40
0.17484276729559747
40
0.1761006289308176
40
0.17735849056603772
40
0.17861635220125785
40
0.17987421383647798
40
0.1811320754716981
40
0.18238993710691823
40
0.18364779874213835
40
0.18490566037735848
40
0.1861635220125786
40
0.18742138364779873
40
0.18867924528301885
40
0.18993710691823898
40
0.1911949685534591
40
0.19245283018867923
40
0.19371069182389936
40
0.19496855345911948
40
0.19622641509433961
40
0.19748427672955973
40
0.19874213836477986
40
0.19999999999999998
40
0.20125786163522011
40
0.20251572327044023
40
0.20377358490566036
40
0.20503144654088049
40
0.20628930817610061
40
0.20754716981132074
40
0.20880503144654086
40
0.21006289308176099
40
0.21132075471698111
40
0.21257861635220124
40
0.21383647798742136
40
0.21509433962264149
40
0.21635220125786161
40
0.21761006289308174
40
0.21886792452830187
40
0.22012578616352199
40
0.22138364779874212
40
0.22264150943396224
40
0.22389937106918237
40
0.22515723270440249
40
0.22641509433962262
40
0.22767295597484274
40
0.22893081761006287
40
0.230188679245283
40
0.23144654088050312
40
0.23270440251572325
40
0.23396226415094337
40
0.2352201257861635
40
0.23647798742138362
40
0.23773584905660375
40
0.23899371069182387
40
0.240251572327044
40
0.24150943396226413
40
0.24276729559748425
40
0.24402515723270438
40
0.2452830188679245
40
0.24654088050314463
40
0.24779874213836475
40
0.24905660377358488
40
0.25031446540880503
40
0.25157232704402516
40
0.25283018867924528
40
0.25408805031446541
40
0.25534591194968553
40
0.25660377358490566
40
0.25786163522012578
40
0.25911949685534591
40
0.26037735849056604
40
0.26163522012578616
40
0.26289308176100629
40
0.26415094339622641
40
0.26540880503144654
40
0.26666666666666666
40
0.26792452830188679
40
0.26918238993710691
40
0.27044025157232704
40
0.27169811320754716
40
0.27295597484276729
40
0.27421383647798742
40
0.27547169811320754
40
0.27672955974842767
40
0.27798742138364779
40
0.27924528301886792
40
0.28050314465408804
40
0.28176100628930817
40
0.28301886792452829
40
0.28427672955974842
40
0.28553459119496855
40
0.28679245283018867
40
0.2880503144654088
40
0.28930817610062892
40
0.29056603773584905
40
0.29182389937106917
40
0.2930817610062893
40
0.29433962264150942
40
0.29559748427672955
40
0.29685534591194968
40
0.2981132075471698
40
0.29937106918238993
40
0.30062893081761005
40
0.30188679245283018
40
0.3031446540880503
40
0.30440251572327043
40
0.30566037735849055
40
0.30691823899371068
40
0.3081761006289308
40
0.30943396226415093
40
0.31069182389937106
40
0.31194968553459118
40
0.31320754716981131
40
0.31446540880503143
40
0.31572327044025156
40
0.31698113207547168
40
0.31823899371069181
40
0.31949685534591193
40
0.32075471698113206
40
0.32201257861635219
40
0.32327044025157231
40
0.32452830188679244
40
0.32578616352201256
40
0.32704402515723269
40
0.32830188679245281
40
0.32955974842767294
40
0.33081761006289306
40
0.33207547169811319
40
0.33333333333333331
40
0.33459119496855344
40
0.33584905660377357
40
0.33710691823899369
40
0.33836477987421382
40
0.33962264150943394
40
0.34088050314465407
40
0.34213836477987419
40
0.34339622641509432
40
0.34465408805031444
40
0.34591194968553457
40
0.3471698113207547
40
0.34842767295597482
40
0.34968553459119495
40
0.35094339622641507
40
0.3522012578616352
40
0.35345911949685532
40
0.35471698113207545
40
0.35597484276729557
40
0.3572327044025157
40
0.35849056603773582
40
0.35974842767295595
40
0.36100628930817608
40
0.3622641509433962
40
0.36352201257861633
40
0.36477987421383645
40
0.36603773584905658
40
0.3672955974842767
40
0.36855345911949683
40
0.36981132075471695
40
0.37106918238993708
40
0.37232704402515721
40
0.37358490566037733
40
0.37484276729559746
40
0.37610062893081758
40
0.37735849056603771
40
0.37861635220125783
40
0.37987421383647796
40
0.38113207547169808
40
0.38238993710691821
40
0.38364779874213834
40
0.38490566037735846
40
0.38616352201257859
40
0.38742138364779871
40
0.38867924528301884
40
0.38993710691823896
40
0.39119496855345909
40
0.39245283018867921
40
0.39371069182389934
40
0.39496855345911946
40
0.39622641509433959
40
0.39748427672955972
40
0.39874213836477984
40
0.39999999999999997
40
0.40125786163522009
40
0.40251572327044022
40
0.40377358490566034
40
0.40503144654088047
40
0.40628930817610059
40
0.40754716981132072
40
0.40880503144654085
40
0.41006289308176097
40
0.4113207547169811
40
0.41257861635220122
40
0.41383647798742135
40
0.41509433962264147
40
0.4163522012578616
40
0.41761006289308172
40
0.41886792452830185
40
0.42012578616352197
40
0.4213836477987421
40
0.42264150943396223
40
0.42389937106918235
40
0.42515723270440248
40
0.4264150943396226
40
0.42767295597484273
40
0.42893081761006285
40
0.43018867924528298
40
0.4314465408805031
40
0.43270440251572323
40
0.43396226415094336
40
0.43522012578616348
40
0.43647798742138361
40
0.43773584905660373
40
0.43899371069182386
40
0.44025157232704398
40
0.44150943396226411
40
0.44276729559748423
40
0.44402515723270436
40
0.44528301886792448
40
0.44654088050314461
40
0.44779874213836474
40
0.44905660377358486
40
0.45031446540880499
40
0.45157232704402511
40
0.45283018867924524
40
0.45408805031446536
40
0.45534591194968549
40
0.45660377358490561
40
0.45786163522012574
40
0.45911949685534587
40
0.46037735849056599
40
0.46163522012578612
40
0.46289308176100624
40
0.46415094339622637
40
0.46540880503144649
40
0.46666666666666662
40
0.46792452830188674
40
0.46918238993710687
40
0.470440251572327
40
0.47169811320754712
40
0.47295597484276725
40
0.47421383647798737
40
0.4754716981132075
40
0.47672955974842762
40
0.47798742138364775
40
0.47924528301886787
40
0.480503144654088
40
0.48176100628930812
40
0.48301886792452825
40
0.48427672955974838
40
0.4855345911949685
40
0.48679245283018863
40
0.48805031446540875
40
0.48930817610062888
40
0.490566037735849
40
0.49182389937106913
40
0.49308176100628925
40
0.49433962264150938
40
0.49559748427672951
40
0.49685534591194963
40
0.49811320754716976
40
0.49937106918238988
40
0.50062893081761006
40
0.50188679245283019
40
0.50314465408805031
40
0.50440251572327044
40
0.50566037735849056
40
0.50691823899371069
40
0.50817610062893082
40
0.50943396226415094
40
0.51069182389937107
40
0.51194968553459119
40
0.51320754716981132
40
0.51446540880503144
40
0.51572327044025157
40
0.51698113207547169
40
0.51823899371069182
40
0.51949685534591195
40
0.52075471698113207
40
0.5220125786163522
40
0.52327044025157232
40
0.52452830188679245
40
0.52578616352201257
40
0.5270440251572327
40
0.52830188679245282
40
0.52955974842767295
40
0.53081761006289307
40
0.5320754716981132
40
0.53333333333333333
40
0.53459119496855345
40
0.53584905660377358
40
0.5371069182389937
40
0.53836477987421383
40
0.53962264150943395
40
0.54088050314465408
40
0.5421383647798742
40
0.54339622641509433
40
0.54465408805031446
40
0.54591194968553458
40
0.54716981132075471
40
0.54842767295597483
40
0.54968553459119496
40
0.55094339622641508
40
0.55220125786163521
40
0.55345911949685533
40
0.55471698113207546
40
0.55597484276729559
40
0.55723270440251571
40
0.55849056603773584
40
0.55974842767295596
40
0.56100628930817609
40
0.56226415094339621
40
0.56352201257861634
40
0.56477987421383646
40
0.56603773584905659
40
0.56729559748427671
40
0.56855345911949684
40
0.56981132075471697
40
0.57106918238993709
40
0.57232704402515722
40
0.57358490566037734
40
0.57484276729559747
40
0.57610062893081759
40
0.57735849056603772
40
0.57861635220125784
40
0.57987421383647797
40
0.5811320754716981
40
0.58238993710691822
40
0.58364779874213835
40
0.58490566037735847
40
0.5861635220125786
40
0.58742138364779872
40
0.58867924528301885
40
0.58993710691823897
40
0.5911949685534591
40
0.59245283018867922
40
0.59371069182389935
40
0.59496855345911948
40
0.5962264150943396
40
0.59748427672955973
40
0.59874213836477985
40
0.59999999999999998
40
0.6012578616352201
40
0.60251572327044023
40
0.60377358490566035
40
0.60503144654088048
40
0.60628930817610061
40
0.60754716981132073
40
0.60880503144654086
40
0.61006289308176098
40
0.61132075471698111
40
0.61257861635220123
40
0.61383647798742136
40
0.61509433962264148
40
0.61635220125786161
40
0.61761006289308173
40
0.61886792452830186
40
0.62012578616352199
40
0.62138364779874211
40
0.62264150943396224
40
0.62389937106918236
40
0.62515723270440249
40
0.62641509433962261
40
0.62767295597484274
40
0.62893081761006286
40
0.63018867924528299
40
0.63144654088050312
40
0.63270440251572324
40
0.63396226415094337
40
0.63522012578616349
40
0.63647798742138362
40
0.63773584905660374
40
0.63899371069182387
40
0.64025157232704399
40
0.64150943396226412
40
0.64276729559748425
40
0.64402515723270437
40
0.6452830188679245
40
0.64654088050314462
40
0.64779874213836475
40
0.64905660377358487
40
0.650314465408805
40
0.65157232704402512
40
0.65283018867924525
40
0.65408805031446537
40
0.6553459119496855
40
0.65660377358490563
40
0.65786163522012575
40
0.65911949685534588
40
0.660377358490566
40
0.66163522012578613
40
0.66289308176100625
40
0.66415094339622638
40
0.6654088050314465
40
0.66666666666666663
40
0.66792452830188676
40
0.66918238993710688
40
0.67044025157232701
40
0.67169811320754713
40
0.67295597484276726
40
0.67421383647798738
40
0.67547169811320751
40
0.67672955974842763
40
0.67798742138364776
40
0.67924528301886788
40
0.68050314465408801
40
0.68176100628930814
40
0.68301886792452826
40
0.68427672955974839
40
0.68553459119496851
40
0.68679245283018864
40
0.68805031446540876
40
0.68930817610062889
40
0.69056603773584901
40
0.69182389937106914
40
0.69308176100628927
40
0.69433962264150939
40
0.69559748427672952
40
0.69685534591194964
40
0.69811320754716977
40
0.69937106918238989
40
0.70062893081761002
40
0.70188679245283014
40
0.70314465408805027
40
0.70440251572327039
40
0.70566037735849052
40
0.70691823899371065
40
0.70817610062893077
40
0.7094339622641509
40
0.71069182389937102
40
0.71194968553459115
40
0.71320754716981127
40
0.7144654088050314
40
0.71572327044025152
40
0.71698113207547165
40
0.71823899371069178
40
0.7194968553459119
40
0.72075471698113203
40
0.72201257861635215
40
0.72327044025157228
40
0.7245283018867924
40
0.72578616352201253
40
0.72704402515723265
40
0.72830188679245278
40
0.72955974842767291
40
0.73081761006289303
40
0.73207547169811316
40
0.73333333333333328
40
0.73459119496855341
40
0.73584905660377353
40
0.73710691823899366
40
0.73836477987421378
40
0.73962264150943391
40
0.74088050314465403
40
0.74213836477987416
40
0.74339622641509429
40
0.74465408805031441
40
0.74591194968553454
40
0.74716981132075466
40
0.74842767295597479
40
0.74968553459119491
40
0.75094339622641504
40
0.75220125786163516
40
0.75345911949685529
40
0.75471698113207542
40
0.75597484276729554
40
0.75723270440251567
40
0.75849056603773579
40
0.75974842767295592
40
0.76100628930817604
40
0.76226415094339617
40
0.76352201257861629
40
0.76477987421383642
40
0.76603773584905654
40
0.76729559748427667
40
0.7685534591194968
40
0.76981132075471692
40
0.77106918238993705
40
0.77232704402515717
40
0.7735849056603773
40
0.77484276729559742
40
0.77610062893081755
40
0.77735849056603767
40
0.7786163522012578
40
0.77987421383647793
40
0.78113207547169805
40
0.78238993710691818
40
0.7836477987421383
40
0.78490566037735843
40
0.78616352201257855
40
0.78742138364779868
40
0.7886792452830188
40
0.78993710691823893
40
0.79119496855345905
40
0.79245283018867918
40
0.79371069182389931
40
0.79496855345911943
40
0.79622641509433956
40
0.79748427672955968
40
0.79874213836477981
40
0.79999999999999993
40
0.80125786163522006
40
0.80251572327044018
40
0.80377358490566031
40
0.80503144654088044
40
0.80628930817610056
40
0.80754716981132069
40
0.80880503144654081
40
0.81006289308176094
40
0.81132075471698106
40
0.81257861635220119
40
0.81383647798742131
40
0.81509433962264144
40
0.81635220125786156
40
0.81761006289308169
40
0.81886792452830182
40
0.82012578616352194
40
0.82138364779874207
40
0.82264150943396219
40
0.82389937106918232
40
0.82515723270440244
40
0.82641509433962257
40
0.82767295597484269
40
0.82893081761006282
40
0.83018867924528295
40
0.83144654088050307
40
0.8327044025157232
40
0.83396226415094332
40
0.83522012578616345
40
0.83647798742138357
40
0.8377358490566037
40
0.83899371069182382
40
0.84025157232704395
40
0.84150943396226408
40
0.8427672955974842
40
0.84402515723270433
40
0.84528301886792445
40
0.84654088050314458
40
0.8477987421383647
40
0.84905660377358483
40
0.85031446540880495
40
0.85157232704402508
40
0.8528301886792452
40
0.85408805031446533
40
0.85534591194968546
40
0.85660377358490558
40
0.85786163522012571
40
0.85911949685534583
40
0.86037735849056596
40
0.86163522012578608
40
0.86289308176100621
40
0.86415094339622633
40
0.86540880503144646
40
0.86666666666666659
40
0.86792452830188671
40
0.86918238993710684
40
0.87044025157232696
40
0.87169811320754709
40
0.87295597484276721
40
0.87421383647798734
40
0.87547169811320746
40
0.87672955974842759
40
0.87798742138364771
40
0.87924528301886784
40
0.88050314465408797
40
0.88176100628930809
40
0.88301886792452822
40
0.88427672955974834
40
0.88553459119496847
40
0.88679245283018859
40
0.88805031446540872
40
0.88930817610062884
40
0.89056603773584897
40
0.8918238993710691
40
0.89308176100628922
40
0.89433962264150935
40
0.89559748427672947
40
0.8968553459119496
40
0.89811320754716972
40
0.89937106918238985
40
0.90062893081760997
40
0.9018867924528301
40
0.90314465408805022
40
0.90440251572327035
40
0.90566037735849048
40
0.9069182389937106
40
0.90817610062893073
40
0.90943396226415085
40
0.91069182389937098
40
0.9119496855345911
40
0.91320754716981123
40
0.91446540880503135
40
0.91572327044025148
40
0.91698113207547161
40
0.91823899371069173
40
0.91949685534591186
40
0.92075471698113198
40
0.92201257861635211
40
0.92327044025157223
40
0.92452830188679236
40
0.92578616352201248
40
0.92704402515723261
40
0.92830188679245274
40
0.92955974842767286
40
0.93081761006289299
40
0.93207547169811311
40
0.93333333333333324
40
0.93459119496855336
40
0.93584905660377349
40
0.93710691823899361
40
0.93836477987421374
40
0.93962264150943386
40
0.94088050314465399
40
0.94213836477987412
40
0.94339622641509424
40
0.94465408805031437
40
0.94591194968553449
40
0.94716981132075462
40
0.94842767295597474
40
0.94968553459119487
40
0.95094339622641499
40
0.95220125786163512
40
0.95345911949685525
40
0.95471698113207537
40
0.9559748427672955
40
0.95723270440251562
40
0.95849056603773575
40
0.95974842767295587
40
0.961006289308176
40
0.96226415094339612
40
0.96352201257861625
40
0.96477987421383637
40
0.9660377358490565
40
0.96729559748427663
40
0.96855345911949675
40
0.96981132075471688
40
0.971069182389937
40
0.97232704402515713
40
0.97358490566037725
40
0.97484276729559738
40
0.9761006289308175
40
0.97735849056603763
40
0.97861635220125776
40
0.97987421383647788
40
0.98113207547169801
40
0.98238993710691813
40
0.98364779874213826
40
0.98490566037735838
40
0.98616352201257851
40
0.98742138364779863
40
0.98867924528301876
40
0.98993710691823888
40
0.99119496855345901
40
0.99245283018867914
40
0.99371069182389926
40
0.99496855345911939
40
0.99622641509433951
40
0.99748427672955964
40
0.99874213836477976
40
1
40
1
40
1
40
1
40
1
40
1
41
1
41
1
41
1
41
1
41
1
41
1
41
1
41
1
41
1
41
1
41
1
41
1
41
1
41
1
41
1
41
1
41
1
41
1
41
1
41
1
41
1
41
1
41
1
41
1
41
1
41
1
41
1
41
1
41
1
41
1
41
1
41
1
41
1
41
1
41
1
41
1
41
1
41
1
41
1
41
1
41
1
41
1
41
1
41
1
41
1
41
1
41
1
41
1
41
1
41
1
41
1
41
1
41
1
41
1
41
1
41
1
41
1
41
1
41
1
41
1
41
1
41
1
41
1
41
1
41
1
41
1
41
1
41
1
41
1
41
1
41
1
41
1
41
1
41
1
41
1
41
1
41
1
41
1
41
1
41
1
41
1
41
1
41
1
41
1
41
1
41
1
41
1
41
1
41
1
41
1
41
1
41
1
41
1
41
1
41
1
41
1
41
1
41
1
41
1
41
1
41
1
41
1
41
1
41
1
41
1
41
1
41
1
41
1
41
1
41
1
41
1
41
1
41
1
41
1
41
1
41
1
41
1
41
1
41
1
41
1
41
1
41
1
41
1
41
1
41
1
41
1
41
1
41
1
41
1
41
1
41
1
41
1
41
1
41
1
41
1
41
1
41
1
41
1
41
1
41
1
41
1
41
1
41
1
41
1
41
1
41
1
41
1
41
1
41
1
41
1
41
1
41
1
41
1
41
1
41
1
41
1
41
1
41
1
41
1
41
1
41
1
41
1
41
1
41
1
41
1
41
1
41
1
41
1
41
1
41
1
41
1
41
1
41
1
41
1
41
1
41
1
41
1
41
1
41
1
41
1
41
1
41
1
41
1
41
1
41
1
41
1
41
1
41
1
41
1
41
1
41
1
41
1
41
1
41
1
41
1
41
1
41
1
41
1
41
1
41
1
41
1
41
1
41
1
41
1
41
1
41
1
41
1
41
1
41
1
41
1
41
1
41
1
41
1
41
1
41
1
41
1
41
1
41
1
41
1
41
1
41
1
41
1
41
1
41
1
41
1
41
1
41
1
41
1
41
1
41
1
41
1
41
1
41
1
41
1
41
1
41
1
41
1
41
1
41
1
41
1
41
1
41
1
41
1
41
1
41
1
41
1
41
1
41
1
41
1
41
1
41
1
41
1
41
1
41
1
41
1
41
1
41
1
41
1
41
1
41
1
41
1
41
1
41
1
41
1
41
1
41
1
41
1
41
1
41
1
41
1
41
1
41
1
41
1
41
1
41
1
41
1
41
1
41
1
41
1
41
1
41
1
41
1
41
1
41
1
41
1
41
1
41
1
41
1
41
1
41
1
41
1
41
1
41
1
41
1
41
1
41
1
41
1
41
1
41
1
41
1
41
1
41
1
41
1
41
1
41
1
41
1
41
1
41
1
41
1
41
1
41
1
41
1
41
1
41
1
41
1
41
1
41
1
41
1
41
1
41
1
41
1
41
1
41
1
41
1
41
1
41
1
41
1
41
1
41
1
41
1
41
1
41
1
41
1
41
1
41
1
41
1
41
1
41
1
41
1
41
1
41
1
41
1
41
1
41
1
41
1
41
1
41
1
41
1
41
1
41
1
41
1
41
1
41
1
41
1
41
1
41
1
41
1
41
1
41
1
41
1
41
1
41
1
41
1
41
1
41
1
41
1
41
1
41
1
41
1
41
1
41
1
41
1
41
1
41
1
41
1
41
1
41
1
41
1
41
1
41
1
41
1
41
1
41
1
41
1
41
1
41
1
41
1
41
1
41
1
41
1
41
1
41
1
41
1
41
1
41
1
41
1
41
1
41
1
41
1
41
1
41
1
41
1
41
1
41
1
41
1
41
1
41
1
41
1
41
1
41
1
41
1
41
1
41
1
41
1
41
1
41
1
41
1
41
1
41
1
41
1
41
1
41
1
41
1
41
1
41
1
41
1
41
1
41
1
41
1
41
1
41
1
41
1
41
1
41
1
41
1
41
1
41
1
41
1
41
1
41
1
41
1
41
1
41
1
41
1
41
1
41
1
41
1
41
1
41
1
41
1
41
1
41
1
41
1
41
1
41
1
41
1
41
1
41
1
41
1
41
1
41
1
41
1
41
1
41
1
41
1
41
1
41
1
41
1
41
1
41
1
41
1
41
1
41
1
41
1
41
1
41
1
41
1
41
1
41
1
41
1
41
1
41
1
41
1
41
1
41
1
41
1
41
1
41
1
41
1
41
1
41
1
41
1
41
1
41
1
41
1
41
1
41
1
41
1
41
1
41
1
41
1
41
1
41
1
41
1
41
1
41
1
41
1
41
1
41
1
41
1
41
1
41
1
41
1
41
1
41
1
41
1
41
1
41
1
41
1
41
1
41
1
41
1
41
1
41
1
41
1
41
1
41
1
41
1
41
1
41
1
41
1
41
1
41
1
41
1
41
1
41
1
41
1
41
1
41
1
41
1
41
1
41
1
41
1
41
1
41
1
41
1
41
1
41
1
41
1
41
1
41
1
41
1
41
1
41
1
41
1
41
1
41
1
41
1
41
1
41
1
41
1
41
1
41
1
41
1
41
1
41
1
41
1
41
1
41
1
41
1
41
1
41
1
41
1
41
1
41
1
41
1
41
1
41
1
41
1
41
1
41
1
41
1
41
1
41
1
41
1
41
1
41
1
41
1
41
1
41
1
41
1
41
1
41
1
41
1
41
1
41
1
41
1
41
1
41
1
41
1
41
1
41
1
41
1
41
1
41
1
41
1
41
1
41
1
41
1
41
1
41
1
41
1
41
1
41
1
41
1
41
1
41
1
41
1
41
1
41
1
41
1
41
1
41
1
41
1
41
1
41
1
41
1
41
1
41
1
41
1
41
1
41
1
41
1
41
1
41
1
41
1
41
1
41
1
41
1
41
1
41
1
41
1
41
1
41
1
41
1
41
1
41
1
41
1
41
1
41
1
41
1
41
1
41
1
41
1
41
1
41
1
41
1
41
1
41
1
41
1
41
1
41
1
41
1
41
1
41
1
41
1
41
1
41
1
41
1
41
1
41
1
41
1
41
1
41
1
41
1
41
1
41
1
41
1
41
1
41
1
41
1
41
1
41
1
41
1
41
1
41
1
41
1
41
1
41
1
41
1
41
1
41
1
41
1
41
1
41
1
41
1
41
1
41
1
41
1
41
1
41
1
41
1
41
1
41
1
41
1
41
1
41
1
41
1
41
1
41
1
41
1
41
1
41
1
41
1
41
1
41
1
41
1
41
1
41
1
41
1
41
1
41
1
41
1
41
1
41
1
41
1
41
1
41
1
41
1
41
1
41
1
41
1
41
1
41
1
41
1
41
1
41
1
41
1
41
1
41
1
41
1
41
1
41
1
41
1
41
1
41
1
41
1
41
1
41
1
41
1
41
1
41
1
41
1
41
1
41
1
41
1
41
1
41
1
41
1
41
1
41
1
41
1
41
1
41
1
41
1
41
1
41
1
41
1
41
1
41
1
41
1
41
1
41
1
41
1
41
1
41
1
41
1
41
1
41
1
41
1
41
1
41
1
41
1
41
1
41
1
41
1
41
1
41
1
41
1
41
1
41
1
41
1
41
1
41
1
41
1
41
1
41
1
41
1
41
1
41
1
10
-19.746300000000002
20
-121.38939999999999
30
0
10
-19.85363101343416
20
-121.39426433618121
30
0
10
-20.068675449870451
20
-121.3961173024536
30
0
10
-20.391249888576723
20
-121.37544312531654
30
0
10
-20.816853265804689
20
-121.30253974896181
30
0
10
-21.331744399387329
20
-121.1430322097378
30
0
10
-21.823016580815235
20
-120.92449057435645
30
0
10
-22.288655119326705
20
-120.65730660629953
30
0
10
-22.729651782748952
20
-120.35179157194781
30
0
10
-23.148575914206514
20
-120.01702437193723
30
0
10
-23.548160915001532
20
-119.65976475635871
30
0
10
-23.930768409064047
20
-119.28466461283504
30
0
10
-24.297795101535804
20
-118.89441139128309
30
0
10
-24.649135359719363
20
-118.48991986789417
30
0
10
-24.983288213492152
20
-118.07090065958448
30
0
10
-25.297388255985588
20
-117.6364007611495
30
0
10
-25.587359768905607
20
-117.1853723940786
30
0
10
-25.849034819128001
20
-116.71727442673281
30
0
10
-26.079277395172852
20
-116.23275008668546
30
0
10
-26.27691535901721
20
-115.73408735947147
30
0
10
-26.441993880597366
20
-115.22419418063467
30
0
10
-26.575095295169536
20
-114.7055349196925
30
0
10
-26.67685110207276
20
-114.1794888502242
30
0
10
-26.748841097550809
20
-113.64758961772483
30
0
10
-26.79455174135526
20
-113.11336316755322
30
0
10
-26.819772307477223
20
-112.58192292188491
30
0
10
-26.829834776805921
20
-112.04864410668699
30
0
10
-26.826945308801449
20
-111.48753222924988
30
0
10
-26.808249131303196
20
-110.84396803502513
30
0
10
-26.768315557223126
20
-110.05176105163768
30
0
10
-26.701032592920633
20
-109.04701555589264
30
0
10
-26.601712890754222
20
-107.78309200989466
30
0
10
-26.469161001358312
20
-106.24549587679135
30
0
10
-26.305172626738582
20
-104.44697052904372
30
0
10
-26.11395026922812
20
-102.4219905266618
30
0
10
-25.901550694573132
20
-100.22148072559926
30
0
10
-25.675319117742919
20
-97.907442107562574
30
0
10
-25.443328600050258
20
-95.547612286207539
30
0
10
-25.213818406512168
20
-93.210124099697268
30
0
10
-24.994630041859011
20
-90.958135011339181
30
0
10
-24.792650724102529
20
-88.844538814982229
30
0
10
-24.613238667035994
20
-86.906479523914442
30
0
10
-24.459691479188429
20
-85.160332681501373
30
0
10
-24.332602201514764
20
-83.595469305343698
30
0
10
-24.230293227498741
20
-82.179696695149872
30
0
10
-24.149406749941594
20
-80.866394743169735
30
0
10
-24.085440072771963
20
-79.601055359188962
30
0
10
-24.033303999539868
20
-78.328071096940903
30
0
10
-23.9878715846333
20
-76.997421324590434
30
0
10
-23.944530368417468
20
-75.571391757061477
30
0
10
-23.899734685577112
20
-74.031305278563565
30
0
10
-23.851553589074474
20
-72.384177177249569
30
0
10
-23.799428461554157
20
-70.656607200385352
30
0
10
-23.743935838906275
20
-68.888752083251973
30
0
10
-23.686548375675617
20
-67.128275133341859
30
0
10
-23.629396441409899
20
-65.424290084993345
30
0
10
-23.57502984152411
20
-63.821343471627962
30
0
10
-23.526178589636672
20
-62.353296739569004
30
0
10
-23.485516187154015
20
-61.037446184418002
30
0
10
-23.455416837550885
20
-59.868076571977618
30
0
10
-23.437729586481733
20
-58.811601167281452
30
0
10
-23.433714055115189
20
-57.817525305010662
30
0
10
-23.44396558555928
20
-56.828069787132591
30
0
10
-23.468339826747865
20
-55.788466692266979
30
0
10
-23.505887996774284
20
-54.656601340210784
30
0
10
-23.554762649520246
20
-53.413812635224133
30
0
10
-23.612210186042883
20
-52.072587687184175
30
0
10
-23.675068583244606
20
-50.666554240594273
30
0
10
-23.740203684424461
20
-49.242578444236329
30
0
10
-23.804972778047681
20
-47.852007994266366
30
0
10
-23.867668498402487
20
-46.542373638475908
30
0
10
-23.927989916501065
20
-45.348674190599567
30
0
10
-23.987457836008986
20
-44.285357644698365
30
0
10
-24.049971417692454
20
-43.336625636530464
30
0
10
-24.120880080063532
20
-42.464315688728519
30
0
10
-24.205892190937043
20
-41.61781187114488
30
0
10
-24.310003323799435
20
-40.743501915783739
30
0
10
-24.436503336508004
20
-39.793820913065758
30
0
10
-24.585726454427075
20
-38.73802182374979
30
0
10
-24.755297225258243
20
-37.562575719880051
30
0
10
-24.940895902043568
20
-36.267934801465472
30
0
10
-25.136856237784485
20
-34.866499697197895
30
0
10
-25.336824801450661
20
-33.380077134189825
30
0
10
-25.534413415656442
20
-31.83757197590479
30
0
10
-25.723808933685159
20
-30.272542287974108
30
0
10
-25.900513556823562
20
-28.720902271425579
30
0
10
-26.061606722661267
20
-27.218230056801133
30
0
10
-26.205433565020016
20
-25.796653076741144
30
0
10
-26.331441167742287
20
-24.481813465380981
30
0
10
-26.439954962234197
20
-23.28986014286432
30
0
10
-26.531980211722221
20
-22.224293362163262
30
0
10
-26.608993976158306
20
-21.273189097499454
30
0
10
-26.672738145741505
20
-20.405502364304446
30
0
10
-26.725021209780412
20
-19.570049226020704
30
0
10
-26.767573120535381
20
-18.707148793891758
30
0
10
-26.801892011309473
20
-17.758603182738927
30
0
10
-26.829095645437452
20
-16.678245047058006
30
0
10
-26.849767235864981
20
-15.442425959292779
30
0
10
-26.863813840408454
20
-14.060018095798505
30
0
10
-26.870690709541183
20
-12.564126953582432
30
0
10
-26.86961342487221
20
-11.004400997278104
30
0
10
-26.859776689795737
20
-9.4390886320580698
30
0
10
-26.840565575162255
20
-7.9272658443271755
30
0
10
-26.811780948666566
20
-6.5208438567815987
30
0
10
-26.773833328445136
20
-5.257012941525999
30
0
10
-26.728011278883152
20
-4.1496812099661904
30
0
10
-26.676534656749787
20
-3.1838026991789317
30
0
10
-26.62155706949822
20
-2.3238734470939435
30
0
10
-26.564301903949303
20
-1.5205778764173552
30
0
10
-26.504155401279746
20
-0.71813335315817084
30
0
10
-26.437757264562372
20
0.13861668104328898
30
0
10
-26.358150668482999
20
1.0971295095180797
30
0
10
-26.256434243550004
20
2.1953288784763072
30
0
10
-26.123336630080768
20
3.4596319444392365
30
0
10
-25.950838890404505
20
4.9029843884782576
30
0
10
-25.733734087401324
20
6.522993749686079
30
0
10
-25.471312514474089
20
8.299784183651834
30
0
10
-25.16876127619097
20
10.194525679829049
30
0
10
-24.839286207846065
20
12.146237148005387
30
0
10
-24.501922859739885
20
14.078919436133319
30
0
10
-24.177997322202003
20
15.91193425489282
30
0
10
-23.888081869305363
20
17.569177434746003
30
0
10
-23.648645324706767
20
18.989028448200902
30
0
10
-23.469061490070864
20
20.133338784961271
30
0
10
-23.347936186724702
20
20.998292557714471
30
0
10
-23.270956896038825
20
21.621060831689711
30
0
10
-23.20511529274475
20
22.096487622600218
30
0
10
-23.104230188450167
20
22.562495888066426
30
0
10
-22.931369112758656
20
23.138494484023425
30
0
10
-22.682598429548829
20
23.860425659855803
30
0
10
-22.39419116877189
20
24.66063730111674
30
0
10
-22.117318468853387
20
25.436267104861763
30
0
10
-21.90123875472117
20
26.094289208067568
30
0
10
-21.770972672559811
20
26.6120884842084
30
0
10
-21.713443214624583
20
27.073517118189194
30
0
10
-21.698167759149758
20
27.604187937513402
30
0
10
-21.695192199030743
20
28.314469528432657
30
0
10
-21.690194083466618
20
29.251868584740542
30
0
10
-21.678991199514787
20
30.418692601360071
30
0
10
-21.665104942196379
20
31.780008055367329
30
0
10
-21.656186126990704
20
33.275354325040837
30
0
10
-21.660778895994888
20
34.828992162059578
30
0
10
-21.685282817735022
20
36.360463452103005
30
0
10
-21.729973376280842
20
37.795808323547149
30
0
10
-21.789077660531788
20
39.075210659802835
30
0
10
-21.854236904154668
20
40.157935891637166
30
0
10
-21.916893071977803
20
41.027552304721347
30
0
10
-21.971345259074472
20
41.69812543849573
30
0
10
-22.016991490475888
20
42.217468946022763
30
0
10
-22.062239700302744
20
42.677967028132613
30
0
10
-22.121731966938384
20
43.19591111204528
30
0
10
-22.210067528776651
20
43.875331793255626
30
0
10
-22.335434727136175
20
44.769104004611833
30
0
10
-22.498516952864481
20
45.875033480796645
30
0
10
-22.694937368636133
20
47.154443487620846
30
0
10
-22.916593544744217
20
48.543748721557016
30
0
10
-23.153451533476552
20
49.968926263614847
30
0
10
-23.395146703421254
20
51.358774899424908
30
0
10
-23.632658544776703
20
52.658621975356397
30
0
10
-23.859978925726377
20
53.844041638430092
30
0
10
-24.073354282665044
20
54.914727170600337
30
0
10
-24.270493164388142
20
55.888074873588558
30
0
10
-24.449781593122182
20
56.79286831275838
30
0
10
-24.609507337579878
20
57.662940293465198
30
0
10
-24.747051368020895
20
58.530796877734446
30
0
10
-24.858176424618705
20
59.4213876797957
30
0
10
-24.938807912608816
20
60.348881213095773
30
0
10
-24.986682305972518
20
61.313456322418531
30
0
10
-25.003119274640945
20
62.297825271927032
30
0
10
-24.994570596047588
20
63.264476876860499
30
0
10
-24.97473794856678
20
64.150915900400562
30
0
10
-24.958522017122881
20
64.895237741557395
30
0
10
-24.954386174332686
20
65.468140046858224
30
0
10
-24.958671470333435
20
65.896463494208589
30
0
10
-24.945691185090038
20
66.305437521226679
30
0
10
-24.87774650890243
20
66.872435406507947
30
0
10
-24.721975476976709
20
67.750846247746054
30
0
10
-24.468095131668569
20
68.988890492629835
30
0
10
-24.128616011078307
20
70.531994659310513
30
0
10
-23.731338934901459
20
72.261702466513313
30
0
10
-23.314423245600373
20
74.022358091451096
30
0
10
-22.920350486787171
20
75.65319370704097
30
0
10
-22.590431194449991
20
77.017417295092017
30
0
10
-22.358917814875966
20
78.034171473675102
30
0
10
-22.247664175906653
20
78.70553900308073
30
0
10
-22.2595526721366
20
79.155459071857663
30
0
10
-22.382642405536423
20
79.566546093363158
30
0
10
-22.595881008968046
20
80.10466421812373
30
0
10
-22.874509611019231
20
80.83981528776863
30
0
10
-23.192636449054788
20
81.763147441062372
30
0
10
-23.525266874237175
20
82.816783153430265
30
0
10
-23.850636630024962
20
83.919828451263228
30
0
10
-24.152184887133799
20
84.994161792973841
30
0
10
-24.421276040898256
20
85.995014218326872
30
0
10
-24.655930719067328
20
86.910301597730424
30
0
10
-24.858257205202911
20
87.749072055476518
30
0
10
-25.032200739406669
20
88.533276034087933
30
0
10
-25.181406380014476
20
89.28878024216452
30
0
10
-25.30641859823664
20
90.03513205631711
30
0
10
-25.404965602314135
20
90.782934178662401
30
0
10
-25.474567326551867
20
91.53679833248006
30
0
10
-25.514208833357095
20
92.296615146276963
30
0
10
-25.526962280077456
20
93.059556381998732
30
0
10
-25.520245411053022
20
93.821646524990427
30
0
10
-25.502271098552178
20
94.579343059863817
30
0
10
-25.479524437278563
20
95.330958447277695
30
0
10
-25.453470522590319
20
96.078434406382982
30
0
10
-25.418646419336433
20
96.828115953498184
30
0
10
-25.366848140880926
20
97.586582993844758
30
0
10
-25.290567882277827
20
98.35709528163504
30
0
10
-25.186673264500271
20
99.135858295659403
30
0
10
-25.060119051533839
20
99.908191174466211
30
0
10
-24.919690253468417
20
100.6565971683535
30
0
10
-24.773252108824394
20
101.36974928038192
30
0
10
-24.623674617966355
20
102.0500218853182
30
0
10
-24.463226403907012
20
102.72446823889879
30
0
10
-24.277433227116166
20
103.43413621517762
30
0
10
-24.052057879661707
20
104.21597403289869
30
0
10
-23.778322433694953
20
105.08930362556724
30
0
10
-23.460563025113252
20
106.03541478548722
30
0
10
-23.115596960453345
20
107.00122561875203
30
0
10
-22.765920819905929
20
107.92057050951
30
0
10
-22.434580021233291
20
108.73133212985735
30
0
10
-22.139567984642689
20
109.39229154973887
30
0
10
-21.887891531913336
20
109.90491829352537
30
0
10
-21.671951964757969
20
110.31585015814551
30
0
10
-21.471704933013278
20
110.69135497494976
30
0
10
-21.252502673165566
20
111.09766017726217
30
0
10
-20.973976594744855
20
111.58251444131662
30
0
10
-20.608814441401186
20
112.16691461211111
30
0
10
-20.164721542365985
20
112.8290373624052
30
0
10
-19.685476650802187
20
113.50904596979609
30
0
10
-19.222565474321016
20
114.13987628544871
30
0
10
-18.816787433023961
20
114.66892584323581
30
0
10
-18.47054249885484
20
115.08906109761652
30
0
10
-18.139914982550202
20
115.44865475044065
30
0
10
-17.776183220649241
20
115.80680991937149
30
0
10
-17.368116797351515
20
116.18958179880373
30
0
10
-16.959084165889557
20
116.56844336335431
30
0
10
-16.591590761134089
20
116.90711960520984
30
0
10
-16.253570559259963
20
117.20425051205856
30
0
10
-15.856899242716519
20
117.51362779191943
30
0
10
-15.307385801793638
20
117.89620964112039
30
0
10
-14.567205272657972
20
118.37888646866043
30
0
10
-13.690206457324315
20
118.93008152417437
30
0
10
-12.773415334848025
20
119.4900631290645
30
0
10
-11.924822618692424
20
119.99046198928934
30
0
10
-11.226805812677016
20
120.37690494973486
30
0
10
-10.696358952009872
20
120.63315817770373
30
0
10
-10.261396329123196
20
120.79632642639929
30
0
10
-9.8248931808152964
20
120.92118664854658
30
0
10
-9.325813233630031
20
121.04735152730964
30
0
10
-8.781944548099581
20
121.17409718728553
30
0
10
-8.2303640093612689
20
121.28328367339196
30
0
10
-7.6758801404204737
20
121.35725828733544
30
0
10
-7.0526888276405177
20
121.39430296759336
30
0
10
-6.2679078545403586
20
121.40144156974876
30
0
10
-5.2326153964788631
20
121.39083754646077
30
0
10
-3.8977672501881799
20
121.37477603439527
30
0
10
-2.2881393623889723
20
121.36123776863224
30
0
10
-0.48311613819789989
20
121.35431373473511
30
0
10
1.4031626930162293
20
121.35474049548706
30
0
10
3.2411850150266854
20
121.36039452916248
30
0
10
4.9061210759803346
20
121.36678050391119
30
0
10
6.2964973979053394
20
121.36757705129273
30
0
10
7.3560024128366175
20
121.35503015085915
30
0
10
8.0880098600009092
20
121.32071014590316
30
0
10
8.5879988039943029
20
121.25538138191334
30
0
10
9.0043738826832982
20
121.15212012772875
30
0
10
9.4659699336613592
20
121.00975946341592
30
0
10
9.9959885939133439
20
120.8392955589984
30
0
10
10.533512179067452
20
120.65632897732577
30
0
10
11.013093453600648
20
120.46825513826684
30
0
10
11.447421844241084
20
120.25725549416856
30
0
10
11.912872136693132
20
119.99110687946438
30
0
10
12.481385979134521
20
119.64678452361699
30
0
10
13.155250468598235
20
119.23613735434162
30
0
10
13.870808623226733
20
118.8003600913221
30
0
10
14.546712309130909
20
118.3852891517128
30
0
10
15.113131443533288
20
118.02570311509353
30
0
10
15.55975376823833
20
117.71917379598096
30
0
10
15.936292183840116
20
117.42858632775824
30
0
10
16.305932161362204
20
117.11262779157056
30
0
10
16.701080082277461
20
116.75667313393625
30
0
10
17.111593938849438
20
116.37757582451975
30
0
10
17.514014854527169
20
115.99833356519716
30
0
10
17.894706883652084
20
115.62497670796216
30
0
10
18.257421750465465
20
115.24349681181567
30
0
10
18.609821435984351
20
114.83900635136129
30
0
10
18.952973800142335
20
114.41421174445544
30
0
10
19.280554523733205
20
113.98809608327079
30
0
10
19.588851522396897
20
113.57565717316518
30
0
10
19.886718311836489
20
113.1672901893409
30
0
10
20.193932117893581
20
112.73001529627135
30
0
10
20.529098726273492
20
112.22858022656598
30
0
10
20.898103058828447
20
111.64473816798531
30
0
10
21.292261532163536
20
110.98162133032011
30
0
10
21.696219866676394
20
110.25260100247984
30
0
10
22.092601368687767
20
109.4752979110166
30
0
10
22.468849050109284
20
108.66221267492442
30
0
10
22.820276295720813
20
107.81698958733037
30
0
10
23.146969293683469
20
106.93961881318161
30
0
10
23.451926685224663
20
106.02991345238756
30
0
10
23.738795144198317
20
105.09140266574269
30
0
10
24.009568669112134
20
104.13568522658343
30
0
10
24.262937808172168
20
103.18464893828926
30
0
10
24.495836323050533
20
102.26303806569328
30
0
10
24.704525134755691
20
101.39236530637932
30
0
10
24.885840645584281
20
100.58441933158966
30
0
10
25.038412023039484
20
99.834663197915049
30
0
10
25.163782911051594
20
99.116463944283879
30
0
10
25.265108904481043
20
98.3925902263354
30
0
10
25.345929388951557
20
97.626237535186604
30
0
10
25.408988751823145
20
96.791610355422137
30
0
10
25.454836784073382
20
95.886295247596678
30
0
10
25.482460292445555
20
94.927165602754684
30
0
10
25.490236224753229
20
93.943522647101759
30
0
10
25.476818762111286
20
92.971126298366542
30
0
10
25.441948649712053
20
92.046029125380443
30
0
10
25.38756405986333
20
91.198052641968218
30
0
10
25.317277289192731
20
90.446619897654728
30
0
10
25.235201579410717
20
89.796919873629193
30
0
10
25.144934431810597
20
89.237163075006009
30
0
10
25.048597347416916
20
88.732565314387358
30
0
10
24.945488172100795
20
88.231424579275441
30
0
10
24.830946560496709
20
87.681793698872085
30
0
10
24.694151038428789
20
87.048100010676933
30
0
10
24.520234011275409
20
86.317254286372844
30
0
10
24.296887672025083
20
85.49311487968248
30
0
10
24.019162851069812
20
84.594192268170303
30
0
10
23.69629143261875
20
83.650143955370382
30
0
10
23.353499391000284
20
82.698380515340162
30
0
10
23.022930452582177
20
81.77914141228618
30
0
10
22.736458455049689
20
80.931126510306157
30
0
10
22.518287231377819
20
80.186494782537125
30
0
10
22.376379752463173
20
79.567083530303989
30
0
10
22.298045576163958
20
79.077514706976203
30
0
10
22.266453544434093
20
78.689226224307134
30
0
10
22.276792364980018
20
78.32016521508281
30
0
10
22.346840061918442
20
77.830245369132186
30
0
10
22.498607675932959
20
77.083925907399646
30
0
10
22.742364811730049
20
76.010162624223327
30
0
10
23.064290585455545
20
74.645586270323051
30
0
10
23.435776738712629
20
73.094260113243493
30
0
10
23.819283299259748
20
71.500430820577492
30
0
10
24.175584558073279
20
70.016023854164331
30
0
10
24.470350685549747
20
68.770723889896246
30
0
10
24.681180484764525
20
67.840145273666607
30
0
10
24.804049927981598
20
67.21670688362471
30
0
10
24.861062980175536
20
66.774273856410375
30
0
10
24.885843913227816
20
66.340391550370057
30
0
10
24.907835669096507
20
65.773702809709377
30
0
10
24.936287675192929
20
65.043097613385243
30
0
10
24.966408755199847
20
64.193207935982571
30
0
10
24.986841429115199
20
63.303074999822435
30
0
10
24.986126702404192
20
62.450171761442149
30
0
10
24.960904315012442
20
61.665046124456509
30
0
10
24.914771088493623
20
60.936691172388969
30
0
10
24.854029065494071
20
60.234748076810405
30
0
10
24.78479443425239
20
59.524467487250064
30
0
10
24.708752390889387
20
58.788653254181462
30
0
10
24.62278415024528
20
58.029997273015155
30
0
10
24.52168557298576
20
57.257674614324436
30
0
10
24.399897935030765
20
56.47921014134419
30
0
10
24.253920324987238
20
55.688216637447695
30
0
10
24.083512593563054
20
54.860413875345763
30
0
10
23.890808568567699
20
53.964471797283487
30
0
10
23.679853026008889
20
52.969982449636618
30
0
10
23.455978378173473
20
51.856170001433469
30
0
10
23.225230400642957
20
50.621242353636518
30
0
10
22.993831510714188
20
49.288576586627414
30
0
10
22.767971840141644
20
47.897274638371066
30
0
10
22.553551574445887
20
46.49491265412216
30
0
10
22.355941961824954
20
45.129399681132092
30
0
10
22.179739564000226
20
43.841296605919723
30
0
10
22.02852059465264
20
42.655749698148597
30
0
10
21.90460184439754
20
41.575032134255217
30
0
10
21.808780896088162
20
40.569631468208456
30
0
10
21.740379287880984
20
39.589735036986141
30
0
10
21.697311250013108
20
38.578492975541678
30
0
10
21.676144652038762
20
37.484603451763576
30
0
10
21.67216199459827
20
36.275271165112393
30
0
10
21.679429028070366
20
34.948799908249413
30
0
10
21.690837839798228
20
33.547914076535832
30
0
10
21.699532573020303
20
32.143689051252878
30
0
10
21.700416149450778
20
30.818477294039273
30
0
10
21.691541228809651
20
29.649669175997943
30
0
10
21.675744327116728
20
28.692048153351308
30
0
10
21.661724390031367
20
27.963195587101545
30
0
10
21.666448861886071
20
27.421674244998485
30
0
10
21.71347099998647
20
26.967593445981702
30
0
10
21.823950637367851
20
26.485402549503661
30
0
10
22.007673452455904
20
25.883550837023055
30
0
10
22.25874379007541
20
25.118001583566528
30
0
10
22.561719571903033
20
24.176220650939246
30
0
10
22.895492951877479
20
23.069950411400768
30
0
10
23.237926500684203
20
21.824713500484513
30
0
10
23.570523241462059
20
20.470079430386164
30
0
10
23.881993060192901
20
19.031543030022149
30
0
10
24.166542084812018
20
17.531956792102946
30
0
10
24.422960120092657
20
15.991474753203487
30
0
10
24.653397601449033
20
14.428080495988134
30
0
10
24.862269460781402
20
12.857870646581208
30
0
10
25.055117186284789
20
11.295432677398757
30
0
10
25.237459239066013
20
9.7542073191501384
30
0
10
25.413716250924971
20
8.2467982486281315
30
0
10
25.585921450304035
20
6.7854595616889828
30
0
10
25.753999027978708
20
5.3812615844067926
30
0
10
25.916392797050012
20
4.0429705985995561
30
0
10
26.070578887530939
20
2.7760041837162479
30
0
10
26.213617439434845
20
1.5814054019379131
30
0
10
26.342709875513162
20
0.45469181088204058
30
0
10
26.455701564344789
20
-0.6149681107786813
30
0
10
26.5517376975648
20
-1.646399518807931
30
0
10
26.631316801031456
20
-2.6648927794040906
30
0
10
26.695811877336041
20
-3.6978435910518788
30
0
10
26.747147045753408
20
-4.7712745303684843
30
0
10
26.78739742806107
20
-5.9058064957287071
30
0
10
26.818452020721914
20
-7.1133030694084178
30
0
10
26.84157411348113
20
-8.392130608953055
30
0
10
26.857345672706856
20
-9.7279505386112461
30
0
10
26.865867640936916
20
-11.098244316557528
30
0
10
26.866885729512731
20
-12.475754919533033
30
0
10
26.859944449828657
20
-13.832326186213681
30
0
10
26.844534750399283
20
-15.14268447491602
30
0
10
26.820231090265459
20
-16.38798210256752
30
0
10
26.786865298961537
20
-17.56008003464872
30
0
10
26.744578102977886
20
-18.663416724025733
30
0
10
26.693585357290566
20
-19.711362220540988
30
0
10
26.634008410489358
20
-20.723706620004045
30
0
10
26.565665265777938
20
-21.723653999248729
30
0
10
26.487909865708026
20
-22.735125708551362
30
0
10
26.399374421080971
20
-23.779692092869542
30
0
10
26.298016153554101
20
-24.874489005102944
30
0
10
26.181681107833779
20
-26.031777178806333
30
0
10
26.048557167733165
20
-27.258112520354409
30
0
10
25.89765891277278
20
-28.553716496994184
30
0
10
25.729327961408327
20
-29.911660057374231
30
0
10
25.545658470311992
20
-31.317364151407887
30
0
10
25.351130171065478
20
-32.747356198685807
30
0
10
25.15207585621085
20
-34.172072531800879
30
0
10
24.955742543176793
20
-35.56005315218485
30
0
10
24.769476684894233
20
-36.881729400870967
30
0
10
24.599879008801729
20
-38.113269342940988
30
0
10
24.45192292053008
20
-39.240657656093731
30
0
10
24.328204053809863
20
-40.26306952107609
30
0
10
24.227849665822028
20
-41.198035089403746
30
0
10
24.146634446075979
20
-42.080279847041446
30
0
10
24.078531023188919
20
-42.953058752532115
30
0
10
24.016927626255885
20
-43.861219117666295
30
0
10
23.955904906446595
20
-44.843985962717205
30
0
10
23.891669438028757
20
-45.926849741012994
30
0
10
23.823325400493779
20
-47.117159802140769
30
0
10
23.752016163729046
20
-48.40881775452624
30
0
10
23.680391471607003
20
-49.785153490484262
30
0
10
23.611945657154877
20
-51.222522352583873
30
0
10
23.550409332657058
20
-52.693600089561386
30
0
10
23.499121835900134
20
-54.170794151314354
30
0
10
23.46040304547234
20
-55.629637190731522
30
0
10
23.434950530446471
20
-57.052097748885984
30
0
10
23.422236289959997
20
-58.426354820901345
30
0
10
23.420873365278702
20
-59.746668951940492
30
0
10
23.428996726446115
20
-61.013229460203824
30
0
10
23.444631391320879
20
-62.231983686426716
30
0
10
23.466081573674124
20
-63.414539346901392
30
0
10
23.492274280191879
20
-64.577882108258848
30
0
10
23.523216903285885
20
-65.744569102737259
30
0
10
23.559776506953337
20
-66.940084683505575
30
0
10
23.603255225084297
20
-68.189358586945772
30
0
10
23.655028968866723
20
-69.513515203748526
30
0
10
23.716170314525478
20
-70.926634445021392
30
0
10
23.787053551833147
20
-72.432257343424283
30
0
10
23.867024927724415
20
-74.020585841680685
30
0
10
23.953902923355564
20
-75.663942033153177
30
0
10
24.044100954622113
20
-77.318556928753935
30
0
10
24.133427593819977
20
-78.933240044739918
30
0
10
24.217701923161563
20
-80.456171934171934
30
0
10
24.293455379218326
20
-81.842574819130235
30
0
10
24.358571048107848
20
-83.061748275784254
30
0
10
24.41300914772302
20
-84.104979696358669
30
0
10
24.459356649666766
20
-84.991669902801334
30
0
10
24.503801984650991
20
-85.77977329920634
30
0
10
24.55526276356952
20
-86.557483181740963
30
0
10
24.623472230886719
20
-87.42431649861507
30
0
10
24.717316346760313
20
-88.474795744090372
30
0
10
24.843215792281867
20
-89.782468531993487
30
0
10
25.003125173983435
20
-91.380327957076517
30
0
10
25.194092471386476
20
-93.256042527132536
30
0
10
25.409580543654595
20
-95.363937664040051
30
0
10
25.640323140363186
20
-97.632549652104061
30
0
10
25.875369561165947
20
-99.973976156676088
30
0
10
26.103051081062571
20
-102.29247667265696
30
0
10
26.31197509343124
20
-104.49335071256429
30
0
10
26.492021108044117
20
-106.49180072130954
30
0
10
26.635303932353722
20
-108.22155932534828
30
0
10
26.737225488003613
20
-109.64418172858876
30
0
10
26.797313241668089
20
-110.75672672717168
30
0
10
26.820610209793998
20
-111.60359384812963
30
0
10
26.815405314734914
20
-112.26134832739545
30
0
10
26.789635621668502
20
-112.81456782372844
30
0
10
26.748275767583429
20
-113.33722698156556
30
0
10
26.689029125380905
20
-113.86576502650357
30
0
10
26.604101948003649
20
-114.40112588620082
30
0
10
26.485636481798149
20
-114.92989793201514
30
0
10
26.331500236152479
20
-115.44361552615179
30
0
10
26.145095789729538
20
-115.94344270562459
30
0
10
25.931041780831514
20
-116.43268672973556
30
0
10
25.69114086933287
20
-116.91189863033762
30
0
10
25.424373477464663
20
-117.37793223064853
30
0
10
25.129690040644078
20
-117.82701458411165
30
0
10
24.808510480367971
20
-118.25684651853578
30
0
10
24.464682155167679
20
-118.66748691821473
30
0
10
24.102609264506142
20
-119.06060847208254
30
0
10
23.725920874405475
20
-119.43992687707457
30
0
10
23.336255697648841
20
-119.80836444815733
30
0
10
22.932734202017706
20
-120.16460109831411
30
0
10
22.510501519010813
20
-120.4981806164823
30
0
10
22.063020072246402
20
-120.79300356168568
30
0
10
21.585656309639411
20
-121.03394392511748
30
0
10
21.079653586029501
20
-121.21429163003812
30
0
10
20.55176535529192
20
-121.33357354343016
30
0
10
20.011907769141697
20
-121.39173567971552
30
0
10
19.471361143733596
20
-121.38284033512889
30
0
10
18.941325260969393
20
-121.29816553822609
30
0
10
18.431888870282179
20
-121.13256015911348
30
0
10
17.950733862627501
20
-120.89110107147059
30
0
10
17.502701969407632
20
-120.58703773675356
30
0
10
17.089628816316452
20
-120.23668888256081
30
0
10
16.710021406813677
20
-119.85510309165247
30
0
10
16.359453767121025
20
-119.45364334673059
30
0
10
16.031386432833933
20
-119.0389427604479
30
0
10
15.717349648270897
20
-118.6103163704604
30
0
10
15.410559146012444
20
-118.16496026431889
30
0
10
15.109560324333797
20
-117.70369614209523
30
0
10
14.823379429646288
20
-117.23890459198526
30
0
10
14.56431173997137
20
-116.78347854658853
30
0
10
14.339049256083227
20
-116.33753380921604
30
0
10
14.138474040117107
20
-115.8722513608018
30
0
10
13.944980047033688
20
-115.34698254386709
30
0
10
13.74252170728969
20
-114.73109342541915
30
0
10
13.526929475839932
20
-114.02722785398754
30
0
10
13.30304485539205
20
-113.26082811795106
30
0
10
13.079394560906243
20
-112.46329551982909
30
0
10
12.864156183593586
20
-111.65894596766081
30
0
10
12.659580242061473
20
-110.84663885314568
30
0
10
12.462139850458083
20
-110.00256078696555
30
0
10
12.265401624261976
20
-109.09314476845935
30
0
10
12.06214557054775
20
-108.08531998137917
30
0
10
11.846590609896433
20
-106.95679808329415
30
0
10
11.617080035303067
20
-105.70897364489669
30
0
10
11.376552769479089
20
-104.36820619446877
30
0
10
11.130784383582903
20
-102.97554283998221
30
0
10
10.887235038493488
20
-101.57957008019383
30
0
10
10.653664537038186
20
-100.22808778779347
30
0
10
10.436811297888902
20
-98.960051047977231
30
0
10
10.241127262924728
20
-97.79794764742077
30
0
10
10.06728818767002
20
-96.73866385756466
30
0
10
9.9114242624974853
20
-95.749119734494727
30
0
10
9.7669185202162652
20
-94.778876814998256
30
0
10
9.625770183568477
20
-93.76985485707732
30
0
10
9.4801685758725966
20
-92.66748106759556
30
0
10
9.3238861883742992
20
-91.430546996595837
30
0
10
9.1539689542798897
20
-90.043263617519216
30
0
10
8.9715903402695432
20
-88.521069255201482
30
0
10
8.7808090191623052
20
-86.900743037967743
30
0
10
8.5877234278274663
20
-85.23348945286844
30
0
10
8.3994708758956307
20
-83.576861812528151
30
0
10
8.2232887409271971
20
-81.987143227195077
30
0
10
8.0655588925602828
20
-80.511619402387964
30
0
10
7.9308362267439483
20
-79.180691802894799
30
0
10
7.8209385155983551
20
-78.0005455554858
30
0
10
7.7338639486566265
20
-76.944276619139316
30
0
10
7.6647283322745716
20
-75.961047671087499
30
0
10
7.6069332276300834
20
-74.987308945820985
30
0
10
7.5532478167693409
20
-73.957239890312565
30
0
10
7.4969359414519756
20
-72.813615701130047
30
0
10
7.4328430049272924
20
-71.518264458189904
30
0
10
7.3585566194492742
20
-70.063318632845849
30
0
10
7.2740136062270118
20
-68.465462604412494
30
0
10
7.1810317830891082
20
-66.759353561115432
30
0
10
7.0828691842247355
20
-64.991345525698449
30
0
10
6.9837715104526898
20
-63.213079916339154
30
0
10
6.8885250990032194
20
-61.475146286246051
30
0
10
6.8020064819644794
20
-59.820683276399066
30
0
10
6.7287358427474135
20
-58.279074109240632
30
0
10
6.6724230348956572
20
-56.859437782276885
30
0
10
6.6355329702423047
20
-55.544669752614119
30
0
10
6.6193433619117892
20
-54.299930328854458
30
0
10
6.6239866028886896
20
-53.080590429450481
30
0
10
6.6484950739058126
20
-51.840458815297652
30
0
10
6.6908506653865762
20
-50.53971320442318
30
0
10
6.7480193063577367
20
-49.153368293059494
30
0
10
6.8160228669755965
20
-47.678550786448071
30
0
10
6.8899149146694487
20
-46.14477996057316
30
0
10
6.9643436963034553
20
-44.605878480669602
30
0
10
7.0342780454372171
20
-43.126650867936107
30
0
10
7.0956921587167763
20
-41.771141139377946
30
0
10
7.1462374339831838
20
-40.59062331684342
30
0
10
7.1859895776138325
20
-39.610796608849398
30
0
10
7.2180005039059569
20
-38.82144844566843
30
0
10
7.2493369686847391
20
-38.159799148824575
30
0
10
7.2903208200675156
20
-37.517276118805356
30
0
10
7.351800132967135
20
-36.771795843562508
30
0
10
7.4430812524301802
20
-35.811712752391543
30
0
10
7.5692912850401175
20
-34.566537279540597
30
0
10
7.7299381735194705
20
-33.02404130106008
30
0
10
7.9203545381307325
20
-31.215036003650283
30
0
10
8.1326092712267624
20
-29.204098805692432
30
0
10
8.3566314889817974
20
-27.077929041235187
30
0
10
8.5812391180184484
20
-24.934765478748307
30
0
10
8.7952194376434498
20
-22.873231861799841
30
0
10
8.9883618294094898
20
-20.98169662732932
30
0
10
9.1525701815089509
20
-19.326788678609848
30
0
10
9.2828030651635167
20
-17.943730072124357
30
0
10
9.3784262196958359
20
-16.822323012198343
30
0
10
9.443149128804059
20
-15.907855558146551
30
0
10
9.4831407949140036
20
-15.121174180813988
30
0
10
9.5055610788506559
20
-14.374405324156127
30
0
10
9.517008934229267
20
-13.587491687265096
30
0
10
9.5218024988428098
20
-12.706645059865371
30
0
10
9.5209880609233402
20
-11.714670681678893
30
0
10
9.5133345686769371
20
-10.619160630512742
30
0
10
9.4959423219292436
20
-9.4450379218145546
30
0
10
9.4650169218367246
20
-8.2251285198287754
30
0
10
9.4165449484006327
20
-6.9921373943532181
30
0
10
9.3470790660766276
20
-5.7686588199592439
30
0
10
9.2542490345639656
20
-4.5626247278684771
30
0
10
9.1367638745662667
20
-3.3729706833997719
30
0
10
8.9945274917960649
20
-2.1931578501809086
30
0
10
8.8286985806310909
20
-1.0154557250005452
30
0
10
8.6417981395703727
20
0.16487847862173327
30
0
10
8.4377407745861195
20
1.3458954655858442
30
0
10
8.2220415830510358
20
2.5137149724691077
30
0
10
8.0011233350643707
20
3.6456093522636546
30
0
10
7.7812512297654726
20
4.7165328384250147
30
0
10
7.5676084699302599
20
5.7044065733029079
30
0
10
7.3632679820606377
20
6.596205672044646
30
0
10
7.1683141221650253
20
7.39304027898224
30
0
10
6.9786269040679061
20
8.1173878662463554
30
0
10
6.7866696159233184
20
8.8075064390001074
30
0
10
6.5828623280356711
20
9.5077836020212878
30
0
10
6.3567631211983677
20
10.260995713284341
30
0
10
6.098319956970645
20
11.098456026849188
30
0
10
5.799145295701762
20
12.03663412927072
30
0
10
5.4539035005034684
20
13.078535977444847
30
0
10
5.0615850759332224
20
14.213828234428156
30
0
10
4.6269991793920031
20
15.41926133282
30
0
10
4.1617744096129359
20
16.659467331010557
30
0
10
3.6865738189728003
20
17.886327285400711
30
0
10
3.2280221542595005
20
19.045071929324202
30
0
10
2.8122476525768514
20
20.085039920457923
30
0
10
2.4596805927155714
20
20.968250478159824
30
0
10
2.1788237416356542
20
21.680577108531274
30
0
10
1.9616457795435247
20
22.23786477299058
30
0
10
1.775276775472483
20
22.704104037785882
30
0
10
1.5710685710445955
20
23.156195851251979
30
0
10
1.301476564845925
20
23.634757910507606
30
0
10
0.93512290649522156
20
24.079067980275489
30
0
10
0.46754272688817444
20
24.371243779293252
30
0
10
-0.074680334028255649
20
24.41801129387775
30
0
10
-0.620419685418233
20
24.241840841096703
30
0
10
-1.0868767411592763
20
23.937254535144298
30
0
10
-1.4225454232346868
20
23.586317002223822
30
0
10
-1.6551808215699195
20
23.17495632722105
30
0
10
-1.8599342304867126
20
22.630678768200209
30
0
10
-2.1151327118197751
20
21.881593050971805
30
0
10
-2.4582961183503311
20
20.913390173717175
30
0
10
-2.8907147591177615
20
19.761045656060165
30
0
10
-3.3894563067949868
20
18.490086308321064
30
0
10
-3.9165682759381921
20
17.181855175916795
30
0
10
-4.4296911104474352
20
15.916683217760809
30
0
10
-4.8915416601361148
20
14.758895015547367
30
0
10
-5.2811399669097465
20
13.738780555481938
30
0
10
-5.600375904253676
20
12.842851900680571
30
0
10
-5.8651130213999823
20
12.03168567565735
30
0
10
-6.0987546149200034
20
11.253396387077718
30
0
10
-6.3249655199030075
20
10.458550011192198
30
0
10
-6.5604681726111238
20
9.6151064004296831
30
0
10
-6.8086273296982549
20
8.7215022906367707
30
0
10
-7.0640549842277309
20
7.7949265608500848
30
0
10
-7.3163743837174122
20
6.8614911963917136
30
0
10
-7.5543482935322546
20
5.9455503058865924
30
0
10
-7.7697532696061735
20
5.0596775590254666
30
0
10
-7.9616309166805257
20
4.1935608271486808
30
0
10
-8.1341856787405593
20
3.3217636943363917
30
0
10
-8.2943675492908753
20
2.4124027258445766
30
0
10
-8.4494980164053022
20
1.4357581019600976
30
0
10
-8.6050386947564697
20
0.37230899141478979
30
0
10
-8.7618804054928283
20
-0.77741572076504095
30
0
10
-8.9170263980715809
20
-1.9957169470723199
30
0
10
-9.0651233404264246
20
-3.2537753291401077
30
0
10
-9.1996933248777086
20
-4.5165907318311156
30
0
10
-9.3145131432113022
20
-5.7484526705262819
30
0
10
-9.4048795708539661
20
-6.9180312835176281
30
0
10
-9.469044863777766
20
-8.0039931385376999
30
0
10
-9.5092201148168716
20
-8.9993201908132718
30
0
10
-9.5300312237700631
20
-9.9080283223867909
30
0
10
-9.5372643343077765
20
-10.742749661063627
30
0
10
-9.536500668686692
20
-11.521982761348328
30
0
10
-9.5317960944870421
20
-12.26748231858573
30
0
10
-9.5243476850869158
20
-13.001594115242103
30
0
10
-9.5131586120332869
20
-13.74663630033915
30
0
10
-9.4957010741045202
20
-14.524263725297434
30
0
10
-9.4685647109880478
20
-15.354838407885282
30
0
10
-9.4281503601025634
20
-16.256799556975782
30
0
10
-9.3710427561334608
20
-17.246012219327834
30
0
10
-9.2943084592246237
20
-18.335103871558026
30
0
10
-9.1958149474218285
20
-19.532816014757529
30
0
10
-9.0745506598831245
20
-20.843325151057282
30
0
10
-8.9309216300807979
20
-22.265633761510031
30
0
10
-8.7671191551240781
20
-23.792780405519714
30
0
10
-8.5868261521073652
20
-25.412687341583226
30
0
10
-8.3948193370418522
20
-27.10926488995344
30
0
10
-8.1966074781156308
20
-28.86342674978134
30
0
10
-7.9980556789936488
20
-30.654140244146937
30
0
10
-7.805012886045585
20
-32.459467335862094
30
0
10
-7.6229444684383241
20
-34.257596137943253
30
0
10
-7.4565476003701772
20
-36.027907803726322
30
0
10
-7.3094091124519656
20
-37.751955087480745
30
0
10
-7.1835587262129508
20
-39.414658907088089
30
0
10
-7.079394948133598
20
-41.004727636731815
30
0
10
-6.9960416482176102
20
-42.514175132629376
30
0
10
-6.9315924693804103
20
-43.938077511444916
30
0
10
-6.8834012646770191
20
-45.274223320842005
30
0
10
-6.8483519276116143
20
-46.522831141144685
30
0
10
-6.8231391605519729
20
-47.686187672116219
30
0
10
-6.8045396636664535
20
-48.768438336687794
30
0
10
-6.7896997933091772
20
-49.775016065209748
30
0
10
-6.7763554474483172
20
-50.713575454214251
30
0
10
-6.7629986313878954
20
-51.595762915764887
30
0
10
-6.7490781241968145
20
-52.438910855352425
30
0
10
-6.7351462006641682
20
-53.267375197415909
30
0
10
-6.7231257949820602
20
-54.114973291082215
30
0
10
-6.7161578445212538
20
-55.023363426443694
30
0
10
-6.7179467842967986
20
-56.035509977087905
30
0
10
-6.7322466186509367
20
-57.190543857248073
30
0
10
-6.7622660340415557
20
-58.517786940271428
30
0
10
-6.8101631696536478
20
-60.031754897303344
30
0
10
-6.8763656036166401
20
-61.725202219357314
30
0
10
-6.9595173949233589
20
-63.569236109173957
30
0
10
-7.0570014673152226
20
-65.519925039728989
30
0
10
-7.1653026928631425
20
-67.523107941837097
30
0
10
-7.2804371634210421
20
-69.51995257849984
30
0
10
-7.3983508443130264
20
-71.452163862792588
30
0
10
-7.5153366453641173
20
-73.267410266131222
30
0
10
-7.62843138799398
20
-74.924499715189143
30
0
10
-7.7358497425124071
20
-76.399027642555183
30
0
10
-7.8373358843034282
20
-77.68796797601199
30
0
10
-7.9347194078005909
20
-78.816891208591755
30
0
10
-8.0314878921594559
20
-79.834536827107584
30
0
10
-8.1318838269253551
20
-80.801280724628569
30
0
10
-8.2401676851953596
20
-81.779715845240432
30
0
10
-8.359777155767933
20
-82.823950840251626
30
0
10
-8.4926120326566874
20
-83.970400044544533
30
0
10
-8.6380566705403936
20
-85.22551336768791
30
0
10
-8.793388908873764
20
-86.569610390649416
30
0
10
-8.9546731434233902
20
-87.966345450624331
30
0
10
-9.1175030637546897
20
-89.370403131651955
30
0
10
-9.2777882511890262
20
-90.735759993472257
30
0
10
-9.4325655487736633
20
-92.024100932813013
30
0
10
-9.5806979953855969
20
-93.212240550583999
30
0
10
-9.7238723991442129
20
-94.302255399688761
30
0
10
-9.866529194870159
20
-95.321886571814773
30
0
10
-10.014471627670453
20
-96.31292620664739
30
0
10
-10.17383801807128
20
-97.322870181091787
30
0
10
-10.349872697947955
20
-98.394835501071555
30
0
10
-10.545907438215412
20
-99.559163590734016
30
0
10
-10.761944818644567
20
-100.82196543930536
30
0
10
-10.994645921612868
20
-102.16433821997776
30
0
10
-11.238638013880376
20
-103.55159588801271
30
0
10
-11.487468000717513
20
-104.93980490647562
30
0
10
-11.734684994305004
20
-106.28332129424061
30
0
10
-11.974903838810295
20
-107.54213062825687
30
0
10
-12.204792424123019
20
-108.68873308991837
30
0
10
-12.424294608385107
20
-109.71652125116834
30
0
10
-12.637122228597867
20
-110.64348779189686
30
0
10
-12.848761924553155
20
-111.49999111898894
30
0
10
-13.064860823945899
20
-112.31898777617987
30
0
10
-13.2895213928067
20
-113.12559342672928
30
0
10
-13.523499664867202
20
-113.92623508358804
30
0
10
-13.762827590070517
20
-114.69995223305054
30
0
10
-14.002146950311694
20
-115.41460483451107
30
0
10
-14.237855113765928
20
-116.04182667153214
30
0
10
-14.471009358887583
20
-116.57131868656158
30
0
10
-14.711141220410402
20
-117.02836935112757
30
0
10
-14.970278213395524
20
-117.45489534142376
30
0
10
-15.256208521221497
20
-117.88706289256162
30
0
10
-15.565035962984279
20
-118.33171238833913
30
0
10
-15.887636060627736
20
-118.77732702153155
30
0
10
-16.217251358468975
20
-119.20823088524227
30
0
10
-16.557359202925394
20
-119.61870775335171
30
0
10
-16.917346424923807
20
-120.00792838388448
30
0
10
-17.307242808373623
20
-120.37333415538212
30
0
10
-17.732592366622157
20
-120.70415486498791
30
0
10
-18.194364056899573
20
-120.98537770126549
30
0
10
-18.689223741063799
20
-121.20236149499617
30
0
10
-19.105556616639767
20
-121.31672410750053
30
0
10
-19.424689369265458
20
-121.36693128536628
30
0
10
-19.638968986565835
20
-121.38453566381882
30
0
10
-19.746300000000002
20
-121.38939999999999
30
0
0
ENDSEC
0
SECTION
2
OBJECTS
0
DICTIONARY
5
C
100
AcDbDictionary
3
ACAD_GROUP
350
D
3
ACAD_MLINESTYLE
350
17
0
DICTIONARY
5
D
100
AcDbDictionary
0
DICTIONARY
5
1A
330
C
100
AcDbDictionary
0
DICTIONARY
5
17
100
AcDbDictionary
0
ENDSEC
0
EOF
