0
SECTION
2
HEADER
9
$INSUNITS
70
4
9
$ACADVER
1
AC1014
9
$HANDSEED
5
FFFF
0
ENDSEC
0
SECTION
2
TABLES
0
TABLE
2
VPORT
5
8
100
AcDbSymbolTable
0
ENDTAB
0
TABLE
2
LTYPE
5
5
100
AcDbSymbolTable
0
LTYPE
5
14
100
AcDbSymbolTableRecord
100
AcDbLinetypeTableRecord
2
BYBLOCK
70
0
0
LTYPE
5
15
100
AcDbSymbolTableRecord
100
AcDbLinetypeTableRecord
2
BYLAYER
70
0
0
LTYPE
5
16
100
AcDbSymbolTableRecord
100
AcDbLinetypeTableRecord
2
DASHED
70
0
3
Dashed __ __ __ __ __ __ __ __ __ __ __ __ __ _
72
65
73
2
40
0.75
49
0.5
74
0
49
-0.25
74
0
0
ENDTAB
0
TABLE
2
LAYER
5
2
100
AcDbSymbolTable
70
2
0
LAYER
5
50
100
AcDbSymbolTableRecord
100
AcDbLayerTableRecord
2
0
70
0
62
7
6
CONTINUOUS
0
ENDTAB
0
TABLE
2
STYLE
5
3
100
AcDbSymbolTable
70
1
0
STYLE
5
11
100
AcDbSymbolTableRecord
100
AcDbTextStyleTableRecord
2
STANDARD
70
0
0
ENDTAB
0
TABLE
2
VIEW
5
6
100
AcDbSymbolTable
70
0
0
ENDTAB
0
TABLE
2
UCS
5
7
100
AcDbSymbolTable
70
0
0
ENDTAB
0
TABLE
2
APPID
5
9
100
AcDbSymbolTable
70
2
0
APPID
5
12
100
AcDbSymbolTableRecord
100
AcDbRegAppTableRecord
2
ACAD
70
0
0
ENDTAB
0
TABLE
2
DIMSTYLE
5
A
100
AcDbSymbolTable
70
1
0
ENDTAB
0
TABLE
2
BLOCK_RECORD
5
1
100
AcDbSymbolTable
70
1
0
BLOCK_RECORD
5
1F
100
AcDbSymbolTableRecord
100
AcDbBlockTableRecord
2
*MODEL_SPACE
0
BLOCK_RECORD
5
1B
100
AcDbSymbolTableRecord
100
AcDbBlockTableRecord
2
*PAPER_SPACE
0
ENDTAB
0
ENDSEC
0
SECTION
2
BLOCKS
0
BLOCK
5
20
100
AcDbEntity
100
AcDbBlockBegin
2
*MODEL_SPACE
0
ENDBLK
5
21
100
AcDbEntity
100
AcDbBlockEnd
0
BLOCK
5
1C
100
AcDbEntity
100
AcDbBlockBegin
2
*PAPER_SPACE
0
ENDBLK
5
1D
100
AcDbEntity
100
AcDbBlockEnd
0
ENDSEC
0
SECTION
2
ENTITIES
0
SPLINE
5
100
100
AcDbEntity
8
0
100
AcDbSpline
70
6
71
5
72
841
73
835
74
0
42
0.000000001
43
0.0000000001
44
0.0000000001
40
0
40
0
40
0
40
0
40
0
40
0
40
0.0012048192771084338
40
0.0024096385542168677
40
0.0036144578313253017
40
0.0048192771084337354
40
0.006024096385542169
40
0.0072289156626506026
40
0.0084337349397590362
40
0.0096385542168674707
40
0.010843373493975905
40
0.01204819277108434
40
0.013253012048192774
40
0.014457831325301209
40
0.015662650602409643
40
0.016867469879518076
40
0.018072289156626509
40
0.019277108433734941
40
0.020481927710843374
40
0.021686746987951807
40
0.02289156626506024
40
0.024096385542168672
40
0.025301204819277105
40
0.026506024096385538
40
0.027710843373493971
40
0.028915662650602404
40
0.030120481927710836
40
0.031325301204819272
40
0.032530120481927709
40
0.033734939759036145
40
0.034939759036144581
40
0.036144578313253017
40
0.037349397590361454
40
0.03855421686746989
40
0.039759036144578326
40
0.040963855421686762
40
0.042168674698795199
40
0.043373493975903635
40
0.044578313253012071
40
0.045783132530120507
40
0.046987951807228943
40
0.04819277108433738
40
0.049397590361445816
40
0.050602409638554252
40
0.051807228915662688
40
0.053012048192771125
40
0.054216867469879561
40
0.055421686746987997
40
0.056626506024096433
40
0.057831325301204869
40
0.059036144578313306
40
0.060240963855421742
40
0.061445783132530178
40
0.062650602409638614
40
0.063855421686747044
40
0.065060240963855473
40
0.066265060240963902
40
0.067469879518072332
40
0.068674698795180761
40
0.06987951807228919
40
0.071084337349397619
40
0.072289156626506049
40
0.073493975903614478
40
0.074698795180722907
40
0.075903614457831337
40
0.077108433734939766
40
0.078313253012048195
40
0.079518072289156624
40
0.080722891566265054
40
0.081927710843373483
40
0.083132530120481912
40
0.084337349397590342
40
0.085542168674698771
40
0.0867469879518072
40
0.087951807228915629
40
0.089156626506024059
40
0.090361445783132488
40
0.091566265060240917
40
0.092771084337349347
40
0.093975903614457776
40
0.095180722891566205
40
0.096385542168674634
40
0.097590361445783064
40
0.098795180722891493
40
0.099999999999999922
40
0.10120481927710835
40
0.10240963855421678
40
0.10361445783132521
40
0.10481927710843364
40
0.10602409638554207
40
0.1072289156626505
40
0.10843373493975893
40
0.10963855421686736
40
0.11084337349397579
40
0.11204819277108422
40
0.11325301204819264
40
0.11445783132530107
40
0.1156626506024095
40
0.11686746987951793
40
0.11807228915662636
40
0.11927710843373479
40
0.12048192771084322
40
0.12168674698795165
40
0.12289156626506008
40
0.12409638554216851
40
0.12530120481927695
40
0.12650602409638539
40
0.12771084337349384
40
0.12891566265060228
40
0.13012048192771072
40
0.13132530120481917
40
0.13253012048192761
40
0.13373493975903605
40
0.1349397590361445
40
0.13614457831325294
40
0.13734939759036138
40
0.13855421686746983
40
0.13975903614457827
40
0.14096385542168671
40
0.14216867469879516
40
0.1433734939759036
40
0.14457831325301204
40
0.14578313253012049
40
0.14698795180722893
40
0.14819277108433737
40
0.14939759036144581
40
0.15060240963855426
40
0.1518072289156627
40
0.15301204819277114
40
0.15421686746987959
40
0.15542168674698803
40
0.15662650602409647
40
0.15783132530120492
40
0.15903614457831336
40
0.1602409638554218
40
0.16144578313253025
40
0.16265060240963869
40
0.16385542168674713
40
0.16506024096385558
40
0.16626506024096402
40
0.16746987951807246
40
0.16867469879518091
40
0.16987951807228935
40
0.17108433734939779
40
0.17228915662650623
40
0.17349397590361468
40
0.17469879518072312
40
0.17590361445783156
40
0.17710843373494001
40
0.17831325301204845
40
0.17951807228915689
40
0.18072289156626534
40
0.18192771084337378
40
0.18313253012048222
40
0.18433734939759067
40
0.18554216867469911
40
0.18674698795180755
40
0.187951807228916
40
0.18915662650602444
40
0.19036144578313288
40
0.19156626506024133
40
0.19277108433734977
40
0.19397590361445821
40
0.19518072289156665
40
0.1963855421686751
40
0.19759036144578354
40
0.19879518072289198
40
0.20000000000000043
40
0.20120481927710887
40
0.20240963855421731
40
0.20361445783132576
40
0.2048192771084342
40
0.20602409638554264
40
0.20722891566265109
40
0.20843373493975953
40
0.20963855421686797
40
0.21084337349397642
40
0.21204819277108486
40
0.2132530120481933
40
0.21445783132530175
40
0.21566265060241019
40
0.21686746987951863
40
0.21807228915662707
40
0.21927710843373552
40
0.22048192771084396
40
0.2216867469879524
40
0.22289156626506085
40
0.22409638554216929
40
0.22530120481927773
40
0.22650602409638618
40
0.22771084337349462
40
0.22891566265060306
40
0.23012048192771151
40
0.23132530120481995
40
0.23253012048192839
40
0.23373493975903684
40
0.23493975903614528
40
0.23614457831325372
40
0.23734939759036217
40
0.23855421686747061
40
0.23975903614457905
40
0.2409638554216875
40
0.24216867469879594
40
0.24337349397590438
40
0.24457831325301282
40
0.24578313253012127
40
0.24698795180722971
40
0.24819277108433815
40
0.2493975903614466
40
0.25060240963855501
40
0.25180722891566343
40
0.25301204819277184
40
0.25421686746988026
40
0.25542168674698867
40
0.25662650602409709
40
0.25783132530120551
40
0.25903614457831392
40
0.26024096385542234
40
0.26144578313253075
40
0.26265060240963917
40
0.26385542168674758
40
0.265060240963856
40
0.26626506024096441
40
0.26746987951807283
40
0.26867469879518124
40
0.26987951807228966
40
0.27108433734939807
40
0.27228915662650649
40
0.27349397590361491
40
0.27469879518072332
40
0.27590361445783174
40
0.27710843373494015
40
0.27831325301204857
40
0.27951807228915698
40
0.2807228915662654
40
0.28192771084337381
40
0.28313253012048223
40
0.28433734939759064
40
0.28554216867469906
40
0.28674698795180747
40
0.28795180722891589
40
0.28915662650602431
40
0.29036144578313272
40
0.29156626506024114
40
0.29277108433734955
40
0.29397590361445797
40
0.29518072289156638
40
0.2963855421686748
40
0.29759036144578321
40
0.29879518072289163
40
0.30000000000000004
40
0.30120481927710846
40
0.30240963855421688
40
0.30361445783132529
40
0.30481927710843371
40
0.30602409638554212
40
0.30722891566265054
40
0.30843373493975895
40
0.30963855421686737
40
0.31084337349397578
40
0.3120481927710842
40
0.31325301204819261
40
0.31445783132530103
40
0.31566265060240944
40
0.31686746987951786
40
0.31807228915662628
40
0.31927710843373469
40
0.32048192771084311
40
0.32168674698795152
40
0.32289156626505994
40
0.32409638554216835
40
0.32530120481927677
40
0.32650602409638518
40
0.3277108433734936
40
0.32891566265060201
40
0.33012048192771043
40
0.33132530120481885
40
0.33253012048192726
40
0.33373493975903568
40
0.33493975903614409
40
0.33614457831325251
40
0.33734939759036092
40
0.33855421686746934
40
0.33975903614457775
40
0.34096385542168617
40
0.34216867469879458
40
0.343373493975903
40
0.34457831325301141
40
0.34578313253011983
40
0.34698795180722825
40
0.34819277108433666
40
0.34939759036144508
40
0.35060240963855349
40
0.35180722891566191
40
0.35301204819277032
40
0.35421686746987874
40
0.35542168674698715
40
0.35662650602409557
40
0.35783132530120398
40
0.3590361445783124
40
0.36024096385542081
40
0.36144578313252923
40
0.36265060240963765
40
0.36385542168674606
40
0.36506024096385448
40
0.36626506024096289
40
0.36746987951807131
40
0.36867469879517972
40
0.36987951807228814
40
0.37108433734939655
40
0.37228915662650497
40
0.37349397590361338
40
0.3746987951807218
40
0.37590361445783022
40
0.37710843373493863
40
0.37831325301204705
40
0.37951807228915546
40
0.38072289156626388
40
0.38192771084337229
40
0.38313253012048071
40
0.38433734939758912
40
0.38554216867469754
40
0.38674698795180595
40
0.38795180722891437
40
0.38915662650602278
40
0.3903614457831312
40
0.39156626506023962
40
0.39277108433734803
40
0.39397590361445645
40
0.39518072289156486
40
0.39638554216867328
40
0.39759036144578169
40
0.39879518072289011
40
0.39999999999999852
40
0.40120481927710694
40
0.40240963855421535
40
0.40361445783132377
40
0.40481927710843219
40
0.4060240963855406
40
0.40722891566264902
40
0.40843373493975743
40
0.40963855421686585
40
0.41084337349397426
40
0.41204819277108268
40
0.41325301204819109
40
0.41445783132529951
40
0.41566265060240792
40
0.41686746987951634
40
0.41807228915662475
40
0.41927710843373317
40
0.42048192771084159
40
0.42168674698795
40
0.42289156626505842
40
0.42409638554216683
40
0.42530120481927525
40
0.42650602409638366
40
0.42771084337349208
40
0.42891566265060049
40
0.43012048192770891
40
0.43132530120481732
40
0.43253012048192574
40
0.43373493975903415
40
0.43493975903614257
40
0.43614457831325099
40
0.4373493975903594
40
0.43855421686746782
40
0.43975903614457623
40
0.44096385542168465
40
0.44216867469879306
40
0.44337349397590148
40
0.44457831325300989
40
0.44578313253011831
40
0.44698795180722672
40
0.44819277108433514
40
0.44939759036144356
40
0.45060240963855197
40
0.45180722891566039
40
0.4530120481927688
40
0.45421686746987722
40
0.45542168674698563
40
0.45662650602409405
40
0.45783132530120246
40
0.45903614457831088
40
0.46024096385541929
40
0.46144578313252771
40
0.46265060240963612
40
0.46385542168674454
40
0.46506024096385296
40
0.46626506024096137
40
0.46746987951806979
40
0.4686746987951782
40
0.46987951807228662
40
0.47108433734939503
40
0.47228915662650345
40
0.47349397590361186
40
0.47469879518072028
40
0.47590361445782869
40
0.47710843373493711
40
0.47831325301204553
40
0.47951807228915394
40
0.48072289156626236
40
0.48192771084337077
40
0.48313253012047919
40
0.4843373493975876
40
0.48554216867469602
40
0.48674698795180443
40
0.48795180722891285
40
0.48915662650602126
40
0.49036144578312968
40
0.49156626506023809
40
0.49277108433734651
40
0.49397590361445493
40
0.49518072289156334
40
0.49638554216867176
40
0.49759036144578017
40
0.49879518072288859
40
0.499999999999997
40
0.50120481927710547
40
0.50240963855421394
40
0.50361445783132242
40
0.50481927710843089
40
0.50602409638553936
40
0.50722891566264783
40
0.5084337349397563
40
0.50963855421686477
40
0.51084337349397324
40
0.51204819277108171
40
0.51325301204819018
40
0.51445783132529865
40
0.51566265060240712
40
0.5168674698795156
40
0.51807228915662407
40
0.51927710843373254
40
0.52048192771084101
40
0.52168674698794948
40
0.52289156626505795
40
0.52409638554216642
40
0.52530120481927489
40
0.52650602409638336
40
0.52771084337349183
40
0.5289156626506003
40
0.53012048192770878
40
0.53132530120481725
40
0.53253012048192572
40
0.53373493975903419
40
0.53493975903614266
40
0.53614457831325113
40
0.5373493975903596
40
0.53855421686746807
40
0.53975903614457654
40
0.54096385542168501
40
0.54216867469879348
40
0.54337349397590196
40
0.54457831325301043
40
0.5457831325301189
40
0.54698795180722737
40
0.54819277108433584
40
0.54939759036144431
40
0.55060240963855278
40
0.55180722891566125
40
0.55301204819276972
40
0.55421686746987819
40
0.55542168674698666
40
0.55662650602409514
40
0.55783132530120361
40
0.55903614457831208
40
0.56024096385542055
40
0.56144578313252902
40
0.56265060240963749
40
0.56385542168674596
40
0.56506024096385443
40
0.5662650602409629
40
0.56746987951807137
40
0.56867469879517984
40
0.56987951807228832
40
0.57108433734939679
40
0.57228915662650526
40
0.57349397590361373
40
0.5746987951807222
40
0.57590361445783067
40
0.57710843373493914
40
0.57831325301204761
40
0.57951807228915608
40
0.58072289156626455
40
0.58192771084337303
40
0.5831325301204815
40
0.58433734939758997
40
0.58554216867469844
40
0.58674698795180691
40
0.58795180722891538
40
0.58915662650602385
40
0.59036144578313232
40
0.59156626506024079
40
0.59277108433734926
40
0.59397590361445773
40
0.59518072289156621
40
0.59638554216867468
40
0.59759036144578315
40
0.59879518072289162
40
0.60000000000000009
40
0.60120481927710856
40
0.60240963855421703
40
0.6036144578313255
40
0.60481927710843397
40
0.60602409638554244
40
0.60722891566265091
40
0.60843373493975939
40
0.60963855421686786
40
0.61084337349397633
40
0.6120481927710848
40
0.61325301204819327
40
0.61445783132530174
40
0.61566265060241021
40
0.61686746987951868
40
0.61807228915662715
40
0.61927710843373562
40
0.62048192771084409
40
0.62168674698795257
40
0.62289156626506104
40
0.62409638554216951
40
0.62530120481927798
40
0.62650602409638645
40
0.62771084337349492
40
0.62891566265060339
40
0.63012048192771186
40
0.63132530120482033
40
0.6325301204819288
40
0.63373493975903727
40
0.63493975903614575
40
0.63614457831325422
40
0.63734939759036269
40
0.63855421686747116
40
0.63975903614457963
40
0.6409638554216881
40
0.64216867469879657
40
0.64337349397590504
40
0.64457831325301351
40
0.64578313253012198
40
0.64698795180723045
40
0.64819277108433893
40
0.6493975903614474
40
0.65060240963855587
40
0.65180722891566434
40
0.65301204819277281
40
0.65421686746988128
40
0.65542168674698975
40
0.65662650602409822
40
0.65783132530120669
40
0.65903614457831516
40
0.66024096385542363
40
0.66144578313253211
40
0.66265060240964058
40
0.66385542168674905
40
0.66506024096385752
40
0.66626506024096599
40
0.66746987951807446
40
0.66867469879518293
40
0.6698795180722914
40
0.67108433734939987
40
0.67228915662650834
40
0.67349397590361681
40
0.67469879518072529
40
0.67590361445783376
40
0.67710843373494223
40
0.6783132530120507
40
0.67951807228915917
40
0.68072289156626764
40
0.68192771084337611
40
0.68313253012048458
40
0.68433734939759305
40
0.68554216867470152
40
0.68674698795181
40
0.68795180722891847
40
0.68915662650602694
40
0.69036144578313541
40
0.69156626506024388
40
0.69277108433735235
40
0.69397590361446082
40
0.69518072289156929
40
0.69638554216867776
40
0.69759036144578623
40
0.6987951807228947
40
0.70000000000000318
40
0.70120481927711165
40
0.70240963855422012
40
0.70361445783132859
40
0.70481927710843706
40
0.70602409638554553
40
0.707228915662654
40
0.70843373493976247
40
0.70963855421687094
40
0.71084337349397941
40
0.71204819277108788
40
0.71325301204819636
40
0.71445783132530483
40
0.7156626506024133
40
0.71686746987952177
40
0.71807228915663024
40
0.71927710843373871
40
0.72048192771084718
40
0.72168674698795565
40
0.72289156626506412
40
0.72409638554217259
40
0.72530120481928106
40
0.72650602409638954
40
0.72771084337349801
40
0.72891566265060648
40
0.73012048192771495
40
0.73132530120482342
40
0.73253012048193189
40
0.73373493975904036
40
0.73493975903614883
40
0.7361445783132573
40
0.73734939759036577
40
0.73855421686747424
40
0.73975903614458272
40
0.74096385542169119
40
0.74216867469879966
40
0.74337349397590813
40
0.7445783132530166
40
0.74578313253012507
40
0.74698795180723354
40
0.74819277108434201
40
0.74939759036145048
40
0.75060240963855895
40
0.75180722891566742
40
0.7530120481927759
40
0.75421686746988437
40
0.75542168674699284
40
0.75662650602410131
40
0.75783132530120978
40
0.75903614457831825
40
0.76024096385542672
40
0.76144578313253519
40
0.76265060240964366
40
0.76385542168675213
40
0.7650602409638606
40
0.76626506024096908
40
0.76746987951807755
40
0.76867469879518602
40
0.76987951807229449
40
0.77108433734940296
40
0.77228915662651143
40
0.7734939759036199
40
0.77469879518072837
40
0.77590361445783684
40
0.77710843373494531
40
0.77831325301205379
40
0.77951807228916226
40
0.78072289156627073
40
0.7819277108433792
40
0.78313253012048767
40
0.78433734939759614
40
0.78554216867470461
40
0.78674698795181308
40
0.78795180722892155
40
0.78915662650603002
40
0.79036144578313849
40
0.79156626506024697
40
0.79277108433735544
40
0.79397590361446391
40
0.79518072289157238
40
0.79638554216868085
40
0.79759036144578932
40
0.79879518072289779
40
0.80000000000000626
40
0.80120481927711473
40
0.8024096385542232
40
0.80361445783133167
40
0.80481927710844015
40
0.80602409638554862
40
0.80722891566265709
40
0.80843373493976556
40
0.80963855421687403
40
0.8108433734939825
40
0.81204819277109097
40
0.81325301204819944
40
0.81445783132530791
40
0.81566265060241638
40
0.81686746987952485
40
0.81807228915663333
40
0.8192771084337418
40
0.82048192771085027
40
0.82168674698795874
40
0.82289156626506721
40
0.82409638554217568
40
0.82530120481928415
40
0.82650602409639262
40
0.82771084337350109
40
0.82891566265060956
40
0.83012048192771803
40
0.83132530120482651
40
0.83253012048193498
40
0.83373493975904345
40
0.83493975903615192
40
0.83614457831326039
40
0.83734939759036886
40
0.83855421686747733
40
0.8397590361445858
40
0.84096385542169427
40
0.84216867469880274
40
0.84337349397591121
40
0.84457831325301969
40
0.84578313253012816
40
0.84698795180723663
40
0.8481927710843451
40
0.84939759036145357
40
0.85060240963856204
40
0.85180722891567051
40
0.85301204819277898
40
0.85421686746988745
40
0.85542168674699592
40
0.85662650602410439
40
0.85783132530121287
40
0.85903614457832134
40
0.86024096385542981
40
0.86144578313253828
40
0.86265060240964675
40
0.86385542168675522
40
0.86506024096386369
40
0.86626506024097216
40
0.86746987951808063
40
0.8686746987951891
40
0.86987951807229758
40
0.87108433734940605
40
0.87228915662651452
40
0.87349397590362299
40
0.87469879518073146
40
0.87590361445783993
40
0.8771084337349484
40
0.87831325301205687
40
0.87951807228916534
40
0.88072289156627381
40
0.88192771084338228
40
0.88313253012049076
40
0.88433734939759923
40
0.8855421686747077
40
0.88674698795181617
40
0.88795180722892464
40
0.88915662650603311
40
0.89036144578314158
40
0.89156626506025005
40
0.89277108433735852
40
0.89397590361446699
40
0.89518072289157546
40
0.89638554216868394
40
0.89759036144579241
40
0.89879518072290088
40
0.90000000000000935
40
0.90120481927711782
40
0.90240963855422629
40
0.90361445783133476
40
0.90481927710844323
40
0.9060240963855517
40
0.90722891566266017
40
0.90843373493976864
40
0.90963855421687712
40
0.91084337349398559
40
0.91204819277109406
40
0.91325301204820253
40
0.914457831325311
40
0.91566265060241947
40
0.91686746987952794
40
0.91807228915663641
40
0.91927710843374488
40
0.92048192771085335
40
0.92168674698796182
40
0.9228915662650703
40
0.92409638554217877
40
0.92530120481928724
40
0.92650602409639571
40
0.92771084337350418
40
0.92891566265061265
40
0.93012048192772112
40
0.93132530120482959
40
0.93253012048193806
40
0.93373493975904653
40
0.934939759036155
40
0.93614457831326348
40
0.93734939759037195
40
0.93855421686748042
40
0.93975903614458889
40
0.94096385542169736
40
0.94216867469880583
40
0.9433734939759143
40
0.94457831325302277
40
0.94578313253013124
40
0.94698795180723971
40
0.94819277108434818
40
0.94939759036145666
40
0.95060240963856513
40
0.9518072289156736
40
0.95301204819278207
40
0.95421686746989054
40
0.95542168674699901
40
0.95662650602410748
40
0.95783132530121595
40
0.95903614457832442
40
0.96024096385543289
40
0.96144578313254137
40
0.96265060240964984
40
0.96385542168675831
40
0.96506024096386678
40
0.96626506024097525
40
0.96746987951808372
40
0.96867469879519219
40
0.96987951807230066
40
0.97108433734940913
40
0.9722891566265176
40
0.97349397590362607
40
0.97469879518073455
40
0.97590361445784302
40
0.97710843373495149
40
0.97831325301205996
40
0.97951807228916843
40
0.9807228915662769
40
0.98192771084338537
40
0.98313253012049384
40
0.98433734939760231
40
0.98554216867471078
40
0.98674698795181925
40
0.98795180722892773
40
0.9891566265060362
40
0.99036144578314467
40
0.99156626506025314
40
0.99277108433736161
40
0.99397590361447008
40
0.99518072289157855
40
0.99638554216868702
40
0.99759036144579549
40
0.99879518072290396
40
1
40
1
40
1
40
1
40
1
40
1
41
1
41
1
41
1
41
1
41
1
41
1
41
1
41
1
41
1
41
1
41
1
41
1
41
1
41
1
41
1
41
1
41
1
41
1
41
1
41
1
41
1
41
1
41
1
41
1
41
1
41
1
41
1
41
1
41
1
41
1
41
1
41
1
41
1
41
1
41
1
41
1
41
1
41
1
41
1
41
1
41
1
41
1
41
1
41
1
41
1
41
1
41
1
41
1
41
1
41
1
41
1
41
1
41
1
41
1
41
1
41
1
41
1
41
1
41
1
41
1
41
1
41
1
41
1
41
1
41
1
41
1
41
1
41
1
41
1
41
1
41
1
41
1
41
1
41
1
41
1
41
1
41
1
41
1
41
1
41
1
41
1
41
1
41
1
41
1
41
1
41
1
41
1
41
1
41
1
41
1
41
1
41
1
41
1
41
1
41
1
41
1
41
1
41
1
41
1
41
1
41
1
41
1
41
1
41
1
41
1
41
1
41
1
41
1
41
1
41
1
41
1
41
1
41
1
41
1
41
1
41
1
41
1
41
1
41
1
41
1
41
1
41
1
41
1
41
1
41
1
41
1
41
1
41
1
41
1
41
1
41
1
41
1
41
1
41
1
41
1
41
1
41
1
41
1
41
1
41
1
41
1
41
1
41
1
41
1
41
1
41
1
41
1
41
1
41
1
41
1
41
1
41
1
41
1
41
1
41
1
41
1
41
1
41
1
41
1
41
1
41
1
41
1
41
1
41
1
41
1
41
1
41
1
41
1
41
1
41
1
41
1
41
1
41
1
41
1
41
1
41
1
41
1
41
1
41
1
41
1
41
1
41
1
41
1
41
1
41
1
41
1
41
1
41
1
41
1
41
1
41
1
41
1
41
1
41
1
41
1
41
1
41
1
41
1
41
1
41
1
41
1
41
1
41
1
41
1
41
1
41
1
41
1
41
1
41
1
41
1
41
1
41
1
41
1
41
1
41
1
41
1
41
1
41
1
41
1
41
1
41
1
41
1
41
1
41
1
41
1
41
1
41
1
41
1
41
1
41
1
41
1
41
1
41
1
41
1
41
1
41
1
41
1
41
1
41
1
41
1
41
1
41
1
41
1
41
1
41
1
41
1
41
1
41
1
41
1
41
1
41
1
41
1
41
1
41
1
41
1
41
1
41
1
41
1
41
1
41
1
41
1
41
1
41
1
41
1
41
1
41
1
41
1
41
1
41
1
41
1
41
1
41
1
41
1
41
1
41
1
41
1
41
1
41
1
41
1
41
1
41
1
41
1
41
1
41
1
41
1
41
1
41
1
41
1
41
1
41
1
41
1
41
1
41
1
41
1
41
1
41
1
41
1
41
1
41
1
41
1
41
1
41
1
41
1
41
1
41
1
41
1
41
1
41
1
41
1
41
1
41
1
41
1
41
1
41
1
41
1
41
1
41
1
41
1
41
1
41
1
41
1
41
1
41
1
41
1
41
1
41
1
41
1
41
1
41
1
41
1
41
1
41
1
41
1
41
1
41
1
41
1
41
1
41
1
41
1
41
1
41
1
41
1
41
1
41
1
41
1
41
1
41
1
41
1
41
1
41
1
41
1
41
1
41
1
41
1
41
1
41
1
41
1
41
1
41
1
41
1
41
1
41
1
41
1
41
1
41
1
41
1
41
1
41
1
41
1
41
1
41
1
41
1
41
1
41
1
41
1
41
1
41
1
41
1
41
1
41
1
41
1
41
1
41
1
41
1
41
1
41
1
41
1
41
1
41
1
41
1
41
1
41
1
41
1
41
1
41
1
41
1
41
1
41
1
41
1
41
1
41
1
41
1
41
1
41
1
41
1
41
1
41
1
41
1
41
1
41
1
41
1
41
1
41
1
41
1
41
1
41
1
41
1
41
1
41
1
41
1
41
1
41
1
41
1
41
1
41
1
41
1
41
1
41
1
41
1
41
1
41
1
41
1
41
1
41
1
41
1
41
1
41
1
41
1
41
1
41
1
41
1
41
1
41
1
41
1
41
1
41
1
41
1
41
1
41
1
41
1
41
1
41
1
41
1
41
1
41
1
41
1
41
1
41
1
41
1
41
1
41
1
41
1
41
1
41
1
41
1
41
1
41
1
41
1
41
1
41
1
41
1
41
1
41
1
41
1
41
1
41
1
41
1
41
1
41
1
41
1
41
1
41
1
41
1
41
1
41
1
41
1
41
1
41
1
41
1
41
1
41
1
41
1
41
1
41
1
41
1
41
1
41
1
41
1
41
1
41
1
41
1
41
1
41
1
41
1
41
1
41
1
41
1
41
1
41
1
41
1
41
1
41
1
41
1
41
1
41
1
41
1
41
1
41
1
41
1
41
1
41
1
41
1
41
1
41
1
41
1
41
1
41
1
41
1
41
1
41
1
41
1
41
1
41
1
41
1
41
1
41
1
41
1
41
1
41
1
41
1
41
1
41
1
41
1
41
1
41
1
41
1
41
1
41
1
41
1
41
1
41
1
41
1
41
1
41
1
41
1
41
1
41
1
41
1
41
1
41
1
41
1
41
1
41
1
41
1
41
1
41
1
41
1
41
1
41
1
41
1
41
1
41
1
41
1
41
1
41
1
41
1
41
1
41
1
41
1
41
1
41
1
41
1
41
1
41
1
41
1
41
1
41
1
41
1
41
1
41
1
41
1
41
1
41
1
41
1
41
1
41
1
41
1
41
1
41
1
41
1
41
1
41
1
41
1
41
1
41
1
41
1
41
1
41
1
41
1
41
1
41
1
41
1
41
1
41
1
41
1
41
1
41
1
41
1
41
1
41
1
41
1
41
1
41
1
41
1
41
1
41
1
41
1
41
1
41
1
41
1
41
1
41
1
41
1
41
1
41
1
41
1
41
1
41
1
41
1
41
1
41
1
41
1
41
1
41
1
41
1
41
1
41
1
41
1
41
1
41
1
41
1
41
1
41
1
41
1
41
1
41
1
41
1
41
1
41
1
41
1
41
1
41
1
41
1
41
1
41
1
41
1
41
1
41
1
41
1
41
1
41
1
41
1
41
1
41
1
41
1
41
1
41
1
41
1
41
1
41
1
41
1
41
1
41
1
41
1
41
1
41
1
41
1
41
1
41
1
41
1
41
1
41
1
41
1
41
1
41
1
41
1
41
1
41
1
41
1
41
1
41
1
41
1
41
1
41
1
41
1
41
1
41
1
41
1
41
1
41
1
41
1
41
1
41
1
41
1
41
1
41
1
41
1
41
1
41
1
41
1
41
1
41
1
41
1
41
1
41
1
41
1
41
1
41
1
41
1
41
1
41
1
41
1
41
1
41
1
41
1
41
1
41
1
41
1
41
1
41
1
41
1
41
1
41
1
41
1
41
1
41
1
41
1
41
1
41
1
41
1
41
1
41
1
41
1
41
1
41
1
41
1
41
1
41
1
41
1
41
1
41
1
41
1
41
1
41
1
41
1
41
1
41
1
41
1
41
1
41
1
41
1
41
1
41
1
41
1
41
1
41
1
41
1
41
1
41
1
41
1
41
1
41
1
41
1
41
1
41
1
41
1
41
1
41
1
41
1
41
1
41
1
41
1
41
1
41
1
41
1
41
1
41
1
41
1
41
1
41
1
41
1
41
1
41
1
41
1
41
1
41
1
41
1
41
1
41
1
41
1
41
1
41
1
41
1
41
1
41
1
41
1
41
1
41
1
41
1
41
1
41
1
41
1
41
1
41
1
41
1
41
1
41
1
41
1
41
1
41
1
41
1
41
1
41
1
41
1
41
1
10
-21.0901
20
-121.22320000000001
30
0
10
-21.190464514557874
20
-121.19300349102141
30
0
10
-21.389260216184518
20
-121.12634977970266
30
0
10
-21.681054237387318
20
-121.00824502403135
30
0
10
-22.05552913754142
20
-120.8178530854603
30
0
10
-22.497776898549038
20
-120.53521484127479
30
0
10
-22.915382613602802
20
-120.21846013110314
30
0
10
-23.312201157831712
20
-119.87683076922386
30
0
10
-23.692824818597018
20
-119.5175533307203
30
0
10
-24.060688987044113
20
-119.1452171199318
30
0
10
-24.415954902855258
20
-118.76096915138243
30
0
10
-24.756480369111237
20
-118.36376699215182
30
0
10
-25.079044038548624
20
-117.95177320213911
30
0
10
-25.380604639756108
20
-117.5238273798148
30
0
10
-25.658356116735064
20
-117.07960809481906
30
0
10
-25.909592401634406
20
-116.61953427682973
30
0
10
-26.131568413393168
20
-116.14481447886774
30
0
10
-26.321898822589688
20
-115.65712140370591
30
0
10
-26.479098350011775
20
-115.15834183296261
30
0
10
-26.603092429331305
20
-114.65003192690844
30
0
10
-26.695501473671616
20
-114.13416992432664
30
0
10
-26.75963070921344
20
-113.61342997943942
30
0
10
-26.800949389022634
20
-113.09331864845169
30
0
10
-26.825396189377798
20
-112.57507718603301
30
0
10
-26.837133358168757
20
-112.0465014635873
30
0
10
-26.835856992450672
20
-111.47014200509575
30
0
10
-26.817284165617533
20
-110.78850626090903
30
0
10
-26.775497887228418
20
-109.93921019029777
30
0
10
-26.704599563458977
20
-108.86623493612822
30
0
10
-26.600900785950191
20
-107.53459119917075
30
0
10
-26.464044959251986
20
-105.93755603182925
30
0
10
-26.29622696887985
20
-104.09030308360965
30
0
10
-26.101807848616151
20
-102.02637649023671
30
0
10
-25.88677191992366
20
-99.793029281074652
30
0
10
-25.658251598675463
20
-97.447050428249682
30
0
10
-25.42402224751434
20
-95.0503737263316
30
0
10
-25.192011918933332
20
-92.665799363306078
30
0
10
-24.969800077279288
20
-90.352623573830471
30
0
10
-24.764131777574789
20
-88.162408692037275
30
0
10
-24.580400281751849
20
-86.134458302571886
30
0
10
-24.422201515767927
20
-84.291967682335269
30
0
10
-24.290712222552383
20
-82.636515094841272
30
0
10
-24.184770714559889
20
-81.149167198685817
30
0
10
-24.101500920359445
20
-79.796702038605474
30
0
10
-24.036777882690888
20
-78.536334139041543
30
0
10
-23.985761882388811
20
-77.321097579863533
30
0
10
-23.943395280975203
20
-76.104850623979104
30
0
10
-23.904933658102895
20
-74.847667037753695
30
0
10
-23.866419511290061
20
-73.520537706546051
30
0
10
-23.825286385284649
20
-72.111665292050972
30
0
10
-23.780481892337111
20
-70.626862591325448
30
0
10
-23.732135680825991
20
-69.084371748562731
30
0
10
-23.681352327875178
20
-67.511213038626366
30
0
10
-23.629953289752553
20
-65.938914693942735
30
0
10
-23.580240298340669
20
-64.399492148070578
30
0
10
-23.534750419681835
20
-62.9213565208169
30
0
10
-23.496012645306212
20
-61.525168504998227
30
0
10
-23.466308685620284
20
-60.219916392872015
30
0
10
-23.44741888642368
20
-58.998357188960114
30
0
10
-23.440578486565219
20
-57.841240369094614
30
0
10
-23.446452815684058
20
-56.722356498923403
30
0
10
-23.465106833993733
20
-55.613264269925445
30
0
10
-23.495974454375947
20
-54.488210064064752
30
0
10
-23.537833980048614
20
-53.328832956725506
30
0
10
-23.588766561929933
20
-52.129275911939317
30
0
10
-23.64616330366518
20
-50.900215007629619
30
0
10
-23.707174189943643
20
-49.663052175103495
30
0
10
-23.769125025107662
20
-48.444888065604545
30
0
10
-23.829936601204839
20
-47.273278364427028
30
0
10
-23.888565601870816
20
-46.170898017930696
30
0
10
-23.94538342111041
20
-45.150673333460404
30
0
10
-24.002709164172753
20
-44.209677737896094
30
0
10
-24.064861662402372
20
-43.326926985707452
30
0
10
-24.137048402055072
20
-42.470630299606604
30
0
10
-24.22447937872743
20
-41.603604398761021
30
0
10
-24.331396545626337
20
-40.689393432676255
30
0
10
-24.460127670891318
20
-39.698143849096667
30
0
10
-24.610162252984004
20
-38.612427202757303
30
0
10
-24.778762804274294
20
-37.425707900089485
30
0
10
-24.961534606870984
20
-36.141007236762491
30
0
10
-25.153014901176096
20
-34.76949908838624
30
0
10
-25.347245318960777
20
-33.329120381098846
30
0
10
-25.538371195177145
20
-31.843208546082018
30
0
10
-25.721183259213305
20
-30.339049584185279
30
0
10
-25.891799256974124
20
-28.846659158216713
30
0
10
-26.047778380124914
20
-27.396608995267417
30
0
10
-26.187823310790861
20
-26.01716637530243
30
0
10
-26.311602721327205
20
-24.731620511252821
30
0
10
-26.419524685346861
20
-23.555562942325704
30
0
10
-26.512529933431569
20
-22.49411606401539
30
0
10
-26.591879375833312
20
-21.53935024474368
30
0
10
-26.658937419656365
20
-20.667222872955328
30
0
10
-26.71497659275137
20
-19.835886364126065
30
0
10
-26.761159638323697
20
-18.994778459589206
30
0
10
-26.798504685251061
20
-18.092573673918345
30
0
10
-26.827856203799357
20
-17.08578112924825
30
0
10
-26.849855150512472
20
-15.946584168606385
30
0
10
-26.864905101050518
20
-14.672282103011216
30
0
10
-26.873183672739657
20
-13.281263743752465
30
0
10
-26.874661662375786
20
-11.806773100674501
30
0
10
-26.869119562475277
20
-10.291462351866393
30
0
10
-26.856164955629783
20
-8.7815798136050844
30
0
10
-26.835250047175315
20
-7.3213932738213483
30
0
10
-26.805687934149084
20
-5.9473294961679137
30
0
10
-26.766672246073597
20
-4.682665121662211
30
0
10
-26.717287916832262
20
-3.5308577843616047
30
0
10
-26.656585168062538
20
-2.4783224157788801
30
0
10
-26.583669531109777
20
-1.4994332408393536
30
0
10
-26.497784101613448
20
-0.56072223120653286
30
0
10
-26.398400149215661
20
0.37449099835495481
30
0
10
-26.28529224575114
20
1.3418751433439271
30
0
10
-26.158650528122649
20
2.3711233273578385
30
0
10
-26.018997972223644
20
3.4846387179047058
30
0
10
-25.86703420260082
20
4.6976005400295513
30
0
10
-25.703501613009454
20
6.017571771603702
30
0
10
-25.529045746031215
20
7.4443196799113611
30
0
10
-25.344069913504256
20
8.9694944870253366
30
0
10
-25.148611448400445
20
10.576486544218193
30
0
10
-24.942162515882135
20
12.239923555691636
30
0
10
-24.723660691371112
20
13.926218178265186
30
0
10
-24.491979244183796
20
15.597183345912565
30
0
10
-24.246331464258226
20
17.213116480592326
30
0
10
-23.98670373782744
20
18.736070446156074
30
0
10
-23.714288204979532
20
20.133096985484773
30
0
10
-23.431888154742332
20
21.379381133014739
30
0
10
-23.144398982237835
20
22.46170365737153
30
0
10
-22.859106998265943
20
23.38110327287152
30
0
10
-22.586447606350177
20
24.157564012311052
30
0
10
-22.338561383597835
20
24.824908411679303
30
0
10
-22.126617613635673
20
25.41998476123382
30
0
10
-21.958735394404929
20
25.974953114168709
30
0
10
-21.837169679411037
20
26.505275445765225
30
0
10
-21.75745087847551
20
27.009416744661337
30
0
10
-21.711080421001363
20
27.487188834866771
30
0
10
-21.687466901970652
20
27.957589219042006
30
0
10
-21.676121062411422
20
28.466459696681707
30
0
10
-21.668331656554408
20
29.066205444442943
30
0
10
-21.659265923658385
20
29.799556139550543
30
0
10
-21.649069062026193
20
30.686281960426776
30
0
10
-21.640941240011124
20
31.727519911135452
30
0
10
-21.639739845617257
20
32.906875994885134
30
0
10
-21.6503447402369
20
34.192736878151855
30
0
10
-21.676194367194576
20
35.540238000205584
30
0
10
-21.717581884819992
20
36.892965860949161
30
0
10
-21.770551334419693
20
38.186011626395512
30
0
10
-21.82903117994643
20
39.357250271635152
30
0
10
-21.886564081014932
20
40.357506634769948
30
0
10
-21.93821791726165
20
41.161356370611813
30
0
10
-21.982362261207058
20
41.777193028964057
30
0
10
-22.022638846780982
20
42.258710434105168
30
0
10
-22.069461038292427
20
42.712648653436041
30
0
10
-22.13552364094943
20
43.258398189876985
30
0
10
-22.231643682746185
20
43.990193773079433
30
0
10
-22.362574076058223
20
44.939308967074965
30
0
10
-22.528162590871229
20
46.089237066724415
30
0
10
-22.724380306793268
20
47.38966372109487
30
0
10
-22.94439509786999
20
48.770771858082711
30
0
10
-23.179637515804927
20
50.157699706694942
30
0
10
-23.420842987884466
20
51.484248081756824
30
0
10
-23.659168819548778
20
52.708554276878729
30
0
10
-23.887080149290135
20
53.822853191687948
30
0
10
-24.098359827818861
20
54.840720780536785
30
0
10
-24.288251121028765
20
55.78790571234584
30
0
10
-24.45355390386058
20
56.69152975452063
30
0
10
-24.592728138194452
20
57.570501402668413
30
0
10
-24.706024116432342
20
58.424177206631171
30
0
10
-24.795513759690699
20
59.225336310050295
30
0
10
-24.86440339501684
20
59.940526633239237
30
0
10
-24.9164145224644
20
60.548869906529383
30
0
10
-24.955151208698503
20
61.058899558166182
30
0
10
-24.983439082053742
20
61.532746527255455
30
0
10
-25.003032846780954
20
62.053799345852596
30
0
10
-25.014466872797204
20
62.686928274043709
30
0
10
-25.016716683658316
20
63.43324899355526
30
0
10
-25.008066176989704
20
64.241937377707757
30
0
10
-24.987590772254542
20
65.039699633112377
30
0
10
-24.955923462390412
20
65.753304109384956
30
0
10
-24.917513976818398
20
66.337241731219535
30
0
10
-24.878014330683214
20
66.790047227571762
30
0
10
-24.837761597502407
20
67.153725384062298
30
0
10
-24.783749245331293
20
67.525149419785649
30
0
10
-24.690418713183135
20
68.037902405998395
30
0
10
-24.532923600786983
20
68.810212403765789
30
0
10
-24.299254495452608
20
69.89198490045365
30
0
10
-23.996843273363389
20
71.240316948177124
30
0
10
-23.645983568796936
20
72.755906008455582
30
0
10
-23.276278964527187
20
74.305635873696588
30
0
10
-22.92185833649026
20
75.750901834699121
30
0
10
-22.617145017133321
20
76.973077705293932
30
0
10
-22.392326104587866
20
77.901151269244039
30
0
10
-22.269096167797024
20
78.536215503125803
30
0
10
-22.255890786558297
20
78.983183621916908
30
0
10
-22.349422935981146
20
79.395983086706607
30
0
10
-22.536868683834143
20
79.917827554478009
30
0
10
-22.797699613759789
20
80.616162665230974
30
0
10
-23.106818057832985
20
81.493054869393987
30
0
10
-23.437752025223467
20
82.507342176494646
30
0
10
-23.765987690052061
20
83.593123178328042
30
0
10
-24.071892466165682
20
84.678617690274422
30
0
10
-24.344689911451795
20
85.707791929066147
30
0
10
-24.582047482182642
20
86.647559969805954
30
0
10
-24.786725769055053
20
87.484586849462943
30
0
10
-24.964002439986945
20
88.2254700884356
30
0
10
-25.118990004741782
20
88.89492170319015
30
0
10
-25.253486892728795
20
89.536259252157919
30
0
10
-25.364715841926436
20
90.20612296765394
30
0
10
-25.448465301232297
20
90.956884854698188
30
0
10
-25.501329057124952
20
91.82154893980082
30
0
10
-25.523311693538581
20
92.79761682301509
30
0
10
-25.520257456516426
20
93.831542450337082
30
0
10
-25.500993754900211
20
94.843846857924376
30
0
10
-25.474610485931613
20
95.753007989196689
30
0
10
-25.447457085211433
20
96.501680096185524
30
0
10
-25.420792090270258
20
97.077636253108949
30
0
10
-25.386796853227956
20
97.547901708220763
30
0
10
-25.333318710391058
20
98.022053570972417
30
0
10
-25.25067009067914
20
98.59785516890642
30
0
10
-25.139498495810606
20
99.300417306206029
30
0
10
-25.008948583413858
20
100.08888019751177
30
0
10
-24.869807675888854
20
100.89764665315462
30
0
10
-24.729866260847157
20
101.66356877401759
30
0
10
-24.586976429260812
20
102.36562917006989
30
0
10
-24.427855616274257
20
103.03636437913049
30
0
10
-24.23613816657566
20
103.72915003149159
30
0
10
-23.998232045223261
20
104.4957781376648
30
0
10
-23.710300424166377
20
105.35902523845736
30
0
10
-23.38407505795071
20
106.28985099361499
30
0
10
-23.040488265142312
20
107.22905781552079
30
0
10
-22.704006744772684
20
108.10629035878561
30
0
10
-22.396569252829146
20
108.86083622741451
30
0
10
-22.132001197617775
20
109.4597995140012
30
0
10
-21.909404419209281
20
109.92224141426108
30
0
10
-21.71399313752741
20
110.30398246786012
30
0
10
-21.520642811610578
20
110.6737179761641
30
0
10
-21.2946970370831
20
111.09056026456331
30
0
10
-21.003891591834453
20
111.59160693496179
30
0
10
-20.631455578811007
20
112.1859860563861
30
0
10
-20.193185291897535
20
112.84251755729441
30
0
10
-19.729344744723406
20
113.50284483857855
30
0
10
-19.28429322384774
20
114.1065057529317
30
0
10
-18.891872898335027
20
114.60959029217358
30
0
10
-18.554216471849891
20
115.01212381450706
30
0
10
-18.237712919397691
20
115.36104238727971
30
0
10
-17.89441080025307
20
115.71735011101018
30
0
10
-17.479437410643694
20
116.12754485273501
30
0
10
-16.964451545877793
20
116.60535853208555
30
0
10
-16.336792509075472
20
117.14373549047131
30
0
10
-15.601817808812726
20
117.72014164820008
30
0
10
-14.78401946562567
20
118.30459700893118
30
0
10
-13.928469202494686
20
118.86643943150673
30
0
10
-13.088917676163319
20
119.37787629164362
30
0
10
-12.316673024544265
20
119.8172082755959
30
0
10
-11.64841466118312
20
120.17257562102871
30
0
10
-11.096214448506727
20
120.44459612885127
30
0
10
-10.632109898686451
20
120.65173476599931
30
0
10
-10.203735469076822
20
120.82070316137722
30
0
10
-9.7579555901657073
20
120.97409255052561
30
0
10
-9.2651042301010094
20
121.11529065677489
30
0
10
-8.7238385116037485
20
121.23360258550787
30
0
10
-8.1539672382014352
20
121.31639690952069
30
0
10
-7.5986724397072916
20
121.36217004085617
30
0
10
-7.0994908997515225
20
121.37828223937076
30
0
10
-6.6671780537104759
20
121.37132705085362
30
0
10
-6.2382766413209314
20
121.33685597284584
30
0
10
-5.7026548856774877
20
121.26208001488084
30
0
10
-4.9691734952742799
20
121.13691328817521
30
0
10
-4.036256623649586
20
120.96478069780295
30
0
10
-2.9953179103883292
20
120.76425455520102
30
0
10
-1.9738641793310885
20
120.56178732929064
30
0
10
-1.0939226762987744
20
120.38697140418736
30
0
10
-0.42905907983907232
20
120.26694911628567
30
0
10
0.049696272973576303
20
120.22072550745085
30
0
10
0.48640720419406919
20
120.25502059743188
30
0
10
1.0443589081134665
20
120.36538601654371
30
0
10
1.8201064401336433
20
120.53593303819008
30
0
10
2.781805696161074
20
120.74073123291483
30
0
10
3.8285941971716393
20
120.94975402587659
30
0
10
4.8295027125864314
20
121.13409624455799
30
0
10
5.6710727915320351
20
121.27157881989255
30
0
10
6.2998196682063821
20
121.35194709468367
30
0
10
6.770764467036229
20
121.38288321323158
30
0
10
7.1894033409649847
20
121.37949285684402
30
0
10
7.6520769859232241
20
121.35380343521442
30
0
10
8.1807636172381741
20
121.30267285183297
30
0
10
8.7470198732835396
20
121.21699351688963
30
0
10
9.3041571950836808
20
121.09183963167433
30
0
10
9.8184812955953369
20
120.93885141961186
30
0
10
10.278718132596669
20
120.77441828361364
30
0
10
10.699073400243799
20
120.60565623748428
30
0
10
11.128706020074826
20
120.41327330038088
30
0
10
11.629224889897653
20
120.16408264948284
30
0
10
12.248034301240825
20
119.82912277009211
30
0
10
12.987364319069313
20
119.40324374892457
30
0
10
13.810750377397923
20
118.90278110762532
30
0
10
14.661720359206601
20
118.35567451117757
30
0
10
15.479055703550337
20
117.79384492140558
30
0
10
16.211976617269226
20
117.24529284237695
30
0
10
16.839062570869508
20
116.72468048559477
30
0
10
17.371283199645866
20
116.23085465373229
30
0
10
17.836870021465778
20
115.75225537167383
30
0
10
18.271322830953807
20
115.27028193547766
30
0
10
18.704615107114286
20
114.76337380306484
30
0
10
19.151696238749942
20
114.21112109126443
30
0
10
19.615468253968508
20
113.60010354908155
30
0
10
20.088229274707917
20
112.92979221315159
30
0
10
20.553828715106309
20
112.21774253309221
30
0
10
20.989176004306117
20
111.50692816661251
30
0
10
21.371007001543553
20
110.84911075537943
30
0
10
21.684358131283918
20
110.28229160365777
30
0
10
21.928575471077437
20
109.81474977673312
30
0
10
22.128825277550163
20
109.3955451920759
30
0
10
22.326958531538097
20
108.93494372920358
30
0
10
22.559513691932771
20
108.35595526662898
30
0
10
22.83401324835069
20
107.64975043365138
30
0
10
23.126267449862034
20
106.88132200118596
30
0
10
23.401550467447144
20
106.13848770654295
30
0
10
23.628177432039152
20
105.4989457115432
30
0
10
23.796375353647939
20
104.98472961920544
30
0
10
23.928396036928021
20
104.53756813777494
30
0
10
24.057431943454972
20
104.06924699488496
30
0
10
24.20951546416002
20
103.50441109695888
30
0
10
24.387602411430123
20
102.8192489571107
30
0
10
24.581001225343783
20
102.02589643733643
30
0
10
24.771976236148706
20
101.16331756703873
30
0
10
24.943094118735768
20
100.28567148591996
30
0
10
25.085181635440165
20
99.451751630985427
30
0
10
25.196441146563298
20
98.71201092892835
30
0
10
25.279744739030168
20
98.093405814532588
30
0
10
25.340664412036329
20
97.588698937932236
30
0
10
25.384964492169189
20
97.135051260044349
30
0
10
25.41727554071371
20
96.632020245316284
30
0
10
25.440780611907925
20
95.988321576071556
30
0
10
25.456460866859871
20
95.170617271373942
30
0
10
25.463114202709058
20
94.215487858892502
30
0
10
25.458071198720383
20
93.194884733346171
30
0
10
25.437742182897342
20
92.193466462647891
30
0
10
25.398217725165637
20
91.282402907075124
30
0
10
25.335881630956905
20
90.491551169258059
30
0
10
25.247911256776483
20
89.791869082407615
30
0
10
25.13225212987571
20
89.124592948552049
30
0
10
24.987663559932546
20
88.424020552445043
30
0
10
24.813750578559436
20
87.641762040598792
30
0
10
24.610965442636989
20
86.773075985565157
30
0
10
24.381057396707959
20
85.845708201734567
30
0
10
24.127536108904465
20
84.904760302221831
30
0
10
23.856201508022362
20
83.998301805856826
30
0
10
23.575483686719846
20
83.164230564874927
30
0
10
23.297273786620888
20
82.412660539174738
30
0
10
23.035501742756491
20
81.729492504221923
30
0
10
22.8030808289449
20
81.094239341881035
30
0
10
22.60982577229295
20
80.490980706845704
30
0
10
22.458884268433685
20
79.927901343048433
30
0
10
22.347217855188894
20
79.435071575308697
30
0
10
22.273440800953452
20
79.023308110484209
30
0
10
22.246016642133725
20
78.641171536728962
30
0
10
22.286132999127549
20
78.159950248881984
30
0
10
22.414167181889596
20
77.445184793947888
30
0
10
22.637803379825904
20
76.419234772475193
30
0
10
22.943179645323497
20
75.10864922124783
30
0
10
23.302900249759212
20
73.605637702151654
30
0
10
23.681281426143428
20
72.043651227783272
30
0
10
24.040770360178584
20
70.566991799361531
30
0
10
24.34767690041555
20
69.30389068405178
30
0
10
24.578634172835706
20
68.335957539984875
30
0
10
24.725728656358953
20
67.674206819583361
30
0
10
24.80481605870478
20
67.219368805613328
30
0
10
24.845422912327958
20
66.812833164589335
30
0
10
24.876699781501756
20
66.306736107296672
30
0
10
24.911927353011102
20
65.641826212430047
30
0
10
24.949298210255442
20
64.841838304696068
30
0
10
24.97988786951376
20
63.971224610017586
30
0
10
24.992761862925292
20
63.107305953790103
30
0
10
24.98242899667553
20
62.300938818048763
30
0
10
24.951215905312012
20
61.561431858908627
30
0
10
24.904746428933091
20
60.873966311762885
30
0
10
24.849109983946938
20
60.209260675248132
30
0
10
24.787176230338474
20
59.536753389883508
30
0
10
24.715766969597588
20
58.835151352123603
30
0
10
24.628464991614042
20
58.090025094322428
30
0
10
24.518111032298073
20
57.292148221476403
30
0
10
24.379250396354578
20
56.435686196396723
30
0
10
24.211025341193306
20
55.51614064991
30
0
10
24.016710116416618
20
54.530710477721087
30
0
10
23.802366735154386
20
53.479328794503857
30
0
10
23.575815135916812
20
52.365422773070222
30
0
10
23.34543895352661
20
51.196891191902054
30
0
10
23.119137912008103
20
49.986751902593994
30
0
10
22.903022848938011
20
48.754535928443168
30
0
10
22.70132566752185
20
47.52392967936796
30
0
10
22.516797416506677
20
46.318902985091405
30
0
10
22.350950033797815
20
45.160301565190515
30
0
10
22.204361385365171
20
44.06229933180515
30
0
10
22.07695727816736
20
43.028787582468141
30
0
10
21.968293602439882
20
42.050081775465038
30
0
10
21.877864684805779
20
41.098710637702254
30
0
10
21.805025999401288
20
40.136723517647177
30
0
10
21.748872022919677
20
39.124303134689491
30
0
10
21.708135713442246
20
38.027750519272921
30
0
10
21.681066428906803
20
36.82809718044161
30
0
10
21.665346234674917
20
35.528598860942601
30
0
10
21.657913399513468
20
34.164934107349261
30
0
10
21.655452234718375
20
32.795990340709437
30
0
10
21.655029141123467
20
31.490399907753993
30
0
10
21.654677752111301
20
30.314539064564187
30
0
10
21.654006956709154
20
29.319907010306245
30
0
10
21.65479562611894
20
28.530784834263606
30
0
10
21.661601261559774
20
27.931740104547359
30
0
10
21.682341620432002
20
27.455313655946686
30
0
10
21.726369658182946
20
27.016691185699592
30
0
10
21.802506141321327
20
26.547339174056571
30
0
10
21.917204988218263
20
26.030797863652559
30
0
10
22.071243045146002
20
25.485728007150076
30
0
10
22.25683479583132
20
24.946647807358936
30
0
10
22.453525116238112
20
24.445507218948354
30
0
10
22.638329443718774
20
23.996664261413422
30
0
10
22.796314485814399
20
23.584411306073907
30
0
10
22.933068162349496
20
23.145262553729047
30
0
10
23.067062061386359
20
22.59243610821035
30
0
10
23.219268264646232
20
21.845130249315826
30
0
10
23.402400473215398
20
20.860299524975886
30
0
10
23.620467455274337
20
19.631843392542653
30
0
10
23.871093776649911
20
18.181441438516789
30
0
10
24.146873477944617
20
16.552290359758864
30
0
10
24.437135433703524
20
14.801601588635133
30
0
10
24.729520106058818
20
12.993678548355987
30
0
10
25.011664706745201
20
11.192634996640011
30
0
10
25.27277821340348
20
9.4555230098801104
30
0
10
25.505415867149907
20
7.8246734247408849
30
0
10
25.706706013181627
20
6.3222310176954091
30
0
10
25.877203342669141
20
4.9542225520532348
30
0
10
26.020079160409189
20
3.7132769468803772
30
0
10
26.140174877361943
20
2.5818792559083459
30
0
10
26.243126390842939
20
1.5353768532674692
30
0
10
26.33442875875118
20
0.54513911794973979
30
0
10
26.41859520543456
20
-0.41845935843849713
30
0
10
26.498098460049412
20
-1.3826953187010136
30
0
10
26.573540210265826
20
-2.3711157573087891
30
0
10
26.644226893198002
20
-3.4027761880988967
30
0
10
26.708604319359807
20
-4.4913095119733848
30
0
10
26.764765923491765
20
-5.6439865652913248
30
0
10
26.810895272793594
20
-6.8609643323037197
30
0
10
26.845823340088586
20
-8.1339868517153455
30
0
10
26.86909377148713
20
-9.4477075238260113
30
0
10
26.880782772727436
20
-10.782342304237712
30
0
10
26.881395495247965
20
-12.115915027478755
30
0
10
26.871730840046695
20
-13.426652145158149
30
0
10
26.852759458924314
20
-14.695359193658508
30
0
10
26.825496899483028
20
-15.907698444739427
30
0
10
26.790876875601285
20
-17.056764912202716
30
0
10
26.749630393803614
20
-18.144753377409383
30
0
10
26.702191848953447
20
-19.180829074138103
30
0
10
26.64860282272004
20
-20.179555277479217
30
0
10
26.588413118928685
20
-21.159099989107663
30
0
10
26.520591345409571
20
-22.13954489095817
30
0
10
26.443411477813488
20
-23.14113106876092
30
0
10
26.354407557785112
20
-24.182588693722991
30
0
10
26.250875692033247
20
-25.280035097243811
30
0
10
26.130330159218012
20
-26.445807708729859
30
0
10
25.990967934099579
20
-27.687352575001498
30
0
10
25.832150445975035
20
-29.006019143645716
30
0
10
25.654829530190003
20
-30.396058288410632
30
0
10
25.462114524462326
20
-31.84313845673454
30
0
10
25.259393659473474
20
-33.324365429248232
30
0
10
25.053436799436376
20
-34.81173096219608
30
0
10
24.851705693126789
20
-36.27486306832796
30
0
10
24.661576050589385
20
-37.684073313850497
30
0
10
24.489609965096662
20
-39.013233905296573
30
0
10
24.340777242840023
20
-40.242828605521254
30
0
10
24.217767302939002
20
-41.362694452432144
30
0
10
24.120096834744899
20
-42.375461392886635
30
0
10
24.043829463503698
20
-43.297900398948386
30
0
10
23.983075926179225
20
-44.156188249339877
30
0
10
23.931176269815062
20
-44.98225710149363
30
0
10
23.882009614964584
20
-45.809712339324662
30
0
10
23.831244790885393
20
-46.669942651502851
30
0
10
23.777629481524105
20
-47.588125833273153
30
0
10
23.722188126141891
20
-48.582202028624778
30
0
10
23.667404512027499
20
-49.661838564744379
30
0
10
23.616415893387863
20
-50.827431759583931
30
0
10
23.572188427409614
20
-52.069018161496679
30
0
10
23.536733151424372
20
-53.365400487598521
30
0
10
23.510217137713578
20
-54.682708080666565
30
0
10
23.491434397852942
20
-55.980345435072124
30
0
10
23.478410860066656
20
-57.217684751826809
30
0
10
23.468957954547292
20
-58.3604452192614
30
0
10
23.461255399211609
20
-59.387309380542284
30
0
10
23.454403995999389
20
-60.296194546031629
30
0
10
23.449032878093625
20
-61.111251917577896
30
0
10
23.447762810926452
20
-61.887872019384957
30
0
10
23.454257504764541
20
-62.697968005515882
30
0
10
23.472400549237747
20
-63.617026905853315
30
0
10
23.505399744349717
20
-64.710118967433743
30
0
10
23.554979167061457
20
-66.019196314876737
30
0
10
23.620384261712069
20
-67.547615954689803
30
0
10
23.698792411352841
20
-69.265578279451674
30
0
10
23.785995166102193
20
-71.119611406821846
30
0
10
23.876987219722228
20
-73.040664151059119
30
0
10
23.96659281494188
20
-74.952762868396889
30
0
10
24.050080082056052
20
-76.781473306425269
30
0
10
24.123771259833148
20
-78.462336617282489
30
0
10
24.18567633721398
20
-79.949571568417753
30
0
10
24.236066204960483
20
-81.224068131787831
30
0
10
24.278192804185231
20
-82.303111467511897
30
0
10
24.318575547533293
20
-83.244996259778873
30
0
10
24.365535840969216
20
-84.133012987289092
30
0
10
24.427999080673249
20
-85.062572506024566
30
0
10
24.514178230042219
20
-86.126963882299066
30
0
10
24.630339678960866
20
-87.404016287083039
30
0
10
24.779458007016245
20
-88.941606979404952
30
0
10
24.960139521556798
20
-90.745899039898902
30
0
10
25.167572900187945
20
-92.790058460000012
30
0
10
25.394287540117254
20
-95.021031174606833
30
0
10
25.630985991139443
20
-97.367066045530493
30
0
10
25.867343786463529
20
-99.744912675803391
30
0
10
26.09282578200899
20
-102.06717692807882
30
0
10
26.297489576011401
20
-104.24956666728826
30
0
10
26.472807983342545
20
-106.21828189479106
30
0
10
26.612451987202036
20
-107.91711721971024
30
0
10
26.71316357951925
20
-109.31521285715235
30
0
10
26.775418682467723
20
-110.41329414481385
30
0
10
26.804625727052592
20
-111.2537567408834
30
0
10
26.809117891290395
20
-111.9081058240956
30
0
10
26.796836799662888
20
-112.45579719835507
30
0
10
26.772887413711398
20
-112.96789042246377
30
0
10
26.735705974601874
20
-113.48409564303623
30
0
10
26.677466481358159
20
-114.00917908123242
30
0
10
26.589273446439567
20
-114.5322049251719
30
0
10
26.4661013180773
20
-115.04266016890638
30
0
10
26.308851106540764
20
-115.53968510067888
30
0
10
26.12087512066234
20
-116.025433866942
30
0
10
25.905436809553386
20
-116.50169011312728
30
0
10
25.663965659351607
20
-116.96701630248847
30
0
10
25.397280503709105
20
-117.41890708975333
30
0
10
25.106188129292871
20
-117.85481999101052
30
0
10
24.792175558522462
20
-118.27341690816419
30
0
10
24.457336824687182
20
-118.67458849986848
30
0
10
24.104646326937655
20
-119.06003021517017
30
0
10
23.737621950330677
20
-119.43285461602707
30
0
10
23.358479772914919
20
-119.79468707613813
30
0
10
22.966199459085175
20
-120.14277325312604
30
0
10
22.555491275113528
20
-120.46810317793934
30
0
10
22.120376388819793
20
-120.75905410439117
30
0
10
21.65734346519034
20
-121.00446950671935
30
0
10
21.168150229484809
20
-121.19647072593948
30
0
10
20.658201949676396
20
-121.32918134697421
30
0
10
20.135393421573578
20
-121.39784084032979
30
0
10
19.608814316550202
20
-121.39792765657555
30
0
10
19.088098985287001
20
-121.32644665812677
30
0
10
18.58270677590836
20
-121.18305773982259
30
0
10
18.101219341886981
20
-120.97121456539291
30
0
10
17.650370007080014
20
-120.69791973218996
30
0
10
17.234079060713718
20
-120.3735370111265
30
0
10
16.852505977663199
20
-120.01159563109765
30
0
10
16.502232006693625
20
-119.62513247945461
30
0
10
16.176532526828741
20
-119.22322587312615
30
0
10
15.865407013561743
20
-118.80706137139823
30
0
10
15.560217104436969
20
-118.37557449575496
30
0
10
15.258079546948249
20
-117.93085412068331
30
0
10
14.967304421560888
20
-117.48501668089634
30
0
10
14.699873834410136
20
-117.04912158163168
30
0
10
14.463383391864078
20
-116.62180700939405
30
0
10
14.25158703524113
20
-116.1748233486617
30
0
10
14.050442001245067
20
-115.66930394708331
30
0
10
13.846164756309943
20
-115.07536752336389
30
0
10
13.633854905052145
20
-114.39430746959401
30
0
10
13.416042956540391
20
-113.65053010173395
30
0
10
13.19845014003702
20
-112.87511462704329
30
0
10
12.987026961887612
20
-112.09370628699565
30
0
10
12.783717460715959
20
-111.30917501462844
30
0
10
12.585639078604034
20
-110.4998046328584
30
0
10
12.387521081974317
20
-109.6326531030269
30
0
10
12.183319163046473
20
-108.67311737447645
30
0
10
11.968079321736823
20
-107.59551239795933
30
0
10
11.739900176409998
20
-106.39448288000114
30
0
10
11.501221595772936
20
-105.09215753756098
30
0
10
11.257293490980176
20
-103.72792214657181
30
0
10
11.015093062896096
20
-102.35095144164222
30
0
10
10.782055605427029
20
-101.01158211809664
30
0
10
10.564908561808682
20
-99.753354799343668
30
0
10
10.368406061973532
20
-98.604362556724766
30
0
10
10.194235752588428
20
-97.569850954343167
30
0
10
10.039515512636445
20
-96.621805869421351
30
0
10
9.8977984206889982
20
-95.707014817114029
30
0
10
9.7608151096002462
20
-94.760576313934337
30
0
10
9.6199390827779148
20
-93.717336717938124
30
0
10
9.4678335936148237
20
-92.524736249323752
30
0
10
9.2998675754496887
20
-91.15378681569112
30
0
10
9.1160203411712679
20
-89.614068701141662
30
0
10
8.9204759196261065
20
-87.949658851696157
30
0
10
8.7201738656698158
20
-86.226439368443778
30
0
10
8.5236930081926729
20
-84.522157852358148
30
0
10
8.3399940056977755
20
-82.915317719612673
30
0
10
8.177228884169125
20
-81.474630319144723
30
0
10
8.0415068910973613
20
-80.24808643945407
30
0
10
7.9357137010383934
20
-79.252514409108073
30
0
10
7.8582255715236133
20
-78.462161840036259
30
0
10
7.8019006668865618
20
-77.799864095238689
30
0
10
7.7565179286994255
20
-77.160367445817101
30
0
10
7.7110728367487891
20
-76.432334424390575
30
0
10
7.6559822353771416
20
-75.519459711619561
30
0
10
7.5856952142073144
20
-74.365479257184091
30
0
10
7.498590902953354
20
-72.953218411213584
30
0
10
7.3960866423483669
20
-71.296087295291926
30
0
10
7.2820126118782724
20
-69.43212395178233
30
0
10
7.1618737927166132
20
-67.416961927351267
30
0
10
7.042162913644928
20
-65.31728075256207
30
0
10
6.9296454501007272
20
-63.204000183166976
30
0
10
6.8306706271414894
20
-61.145697491102631
30
0
10
6.7504387564414117
20
-59.201666811119658
30
0
10
6.6923635024962724
20
-57.415746710935316
30
0
10
6.6571994259351586
20
-55.808253165493852
30
0
10
6.6433158350366988
20
-54.377163408182938
30
0
10
6.6474888966243331
20
-53.103489479110742
30
0
10
6.6655318497129308
20
-51.955330027685477
30
0
10
6.6929858227289118
20
-50.892445937447377
30
0
10
6.7258001356332038
20
-49.870670449027571
30
0
10
6.7609810535309407
20
-48.846252270106625
30
0
10
6.7973407685461815
20
-47.780559387825832
30
0
10
6.8359350259638667
20
-46.643600465871629
30
0
10
6.8793723559924125
20
-45.413226120518068
30
0
10
6.9313037882578179
20
-44.075017635094227
30
0
10
6.9958399685961847
20
-42.621908888464553
30
0
10
7.0770033783517867
20
-41.053915601747931
30
0
10
7.1781558492773598
20
-39.377833585067087
30
0
10
7.3014590820879688
20
-37.606915253962413
30
0
10
7.4472674128382934
20
-35.760639665482685
30
0
10
7.6137107289881447
20
-33.864189411187311
30
0
10
7.7972060589690173
20
-31.946465458002852
30
0
10
7.992847287026839
20
-30.038295034893707
30
0
10
8.1948423159324477
20
-28.170563411084032
30
0
10
8.3969296705157142
20
-26.372380709892056
30
0
10
8.5928047306996476
20
-24.669227581725622
30
0
10
8.7765399755813629
20
-23.081124017908611
30
0
10
8.9430120863933276
20
-21.620755465778046
30
0
10
9.0883161438477256
20
-20.291693357186958
30
0
10
9.2102090909090393
20
-19.086393828472723
30
0
10
9.3084723995800296
20
-17.984813022274917
30
0
10
9.3844004566118571
20
-16.959702666682041
30
0
10
9.4403535288915776
20
-15.981412239931277
30
0
10
9.4792860927704155
20
-15.022879187829773
30
0
10
9.5042858276144511
20
-14.06453833293245
30
0
10
9.5181075745468409
20
-13.099268507911814
30
0
10
9.5227108273863621
20
-12.137310932381137
30
0
10
9.5193874508807799
20
-11.198599085428613
30
0
10
9.5088837061475875
20
-10.30532463537396
30
0
10
9.4915317226229483
20
-9.4740441020255854
30
0
10
9.4673601294841081
20
-8.708829837313294
30
0
10
9.4362572484121632
20
-7.9917874385295304
30
0
10
9.3978269132709027
20
-7.2883845536362921
30
0
10
9.3511056296157964
20
-6.5583591189458463
30
0
10
9.2943792815123132
20
-5.7641139148822926
30
0
10
9.2248320147856244
20
-4.8817464634334637
30
0
10
9.1387240121505933
20
-3.9052333384010378
30
0
10
9.0323042450327566
20
-2.8417074112583118
30
0
10
8.902522610600041
20
-1.7089044590207236
30
0
10
8.7478678246594264
20
-0.53171579134118263
30
0
10
8.5690487800713591
20
0.66083639945968875
30
0
10
8.3699922580705941
20
1.8389027313452124
30
0
10
8.1578684460802116
20
2.9746707894808306
30
0
10
7.9411159363501831
20
4.0445762975131636
30
0
10
7.7279268413058499
20
5.0315650159692238
30
0
10
7.5244674856536031
20
5.9275055803717773
30
0
10
7.3333971032238621
20
6.7351456119263169
30
0
10
7.1518139305084194
20
7.4712064424136706
30
0
10
6.9708394516656558
20
8.1660384586029799
30
0
10
6.7802572383185291
20
8.8525681877082754
30
0
10
6.5723535446500598
20
9.5569235053524686
30
0
10
6.3459378665641335
20
10.28871762037965
30
0
10
6.110658873513386
20
11.03059610637721
30
0
10
5.880710478532027
20
11.752564272662461
30
0
10
5.6673831536902401
20
12.428898569289387
30
0
10
5.4730451474843589
20
13.051965464899787
30
0
10
5.2820446393716223
20
13.65262008212188
30
0
10
5.0651449763430048
20
14.291832392112324
30
0
10
4.7921149749791985
20
15.035205761599904
30
0
10
4.4408984855541025
20
15.934334911573348
30
0
10
4.0103001796549984
20
17.001696562607783
30
0
10
3.5242799173638679
20
18.200255083181286
30
0
10
3.0195256561328732
20
19.462314765354911
30
0
10
2.5361149766871245
20
20.702633327286438
30
0
10
2.1076136722419685
20
21.833395482924331
30
0
10
1.7498880444779008
20
22.779362890962407
30
0
10
1.4540309406912622
20
23.49068287752668
30
0
10
1.1687678326101785
20
23.962302882310837
30
0
10
0.82092552005162611
20
24.228278553963271
30
0
10
0.36007918686919949
20
24.335553646474377
30
0
10
-0.18678145275008398
20
24.319380435509366
30
0
10
-0.72452679189456914
20
24.193093312004041
30
0
10
-1.1584505880870315
20
23.956491464518574
30
0
10
-1.462788613192985
20
23.598395317494017
30
0
10
-1.6873801724024353
20
23.103798855039862
30
0
10
-1.9062006819728645
20
22.461190895995724
30
0
10
-2.1754948089817678
20
21.671656940775868
30
0
10
-2.5149212650202251
20
20.75094396746389
30
0
10
-2.9220501619417854
20
19.724443265629972
30
0
10
-3.3772076171504288
20
18.62413551803683
30
0
10
-3.8525098303068162
20
17.484654569486036
30
0
10
-4.3186049107972373
20
16.339911703646706
30
0
10
-4.7536144561312499
20
15.219031679687877
30
0
10
-5.1467680770944968
20
14.144188073210763
30
0
10
-5.4949776949278153
20
13.131028796874569
30
0
10
-5.8011203176450667
20
12.188507701505387
30
0
10
-6.0715798078503758
20
11.318895401754263
30
0
10
-6.3142251299712466
20
10.517852824472945
30
0
10
-6.5359115670117056
20
9.7741401874329252
30
0
10
-6.7411487916421962
20
9.0706062656338702
30
0
10
-6.9331110968920502
20
8.3879678181192094
30
0
10
-7.1141633021253492
20
7.7079836477064028
30
0
10
-7.2865871321310856
20
7.016922843552214
30
0
10
-7.4532020272279738
20
6.3087701622957564
30
0
10
-7.616906161873354
20
5.5817460028046471
30
0
10
-7.7802007443971224
20
4.8346922584320486
30
0
10
-7.944762038577351
20
4.0639653365353947
30
0
10
-8.1108917827438987
20
3.2589785180956854
30
0
10
-8.2776092219072019
20
2.4048565778226214
30
0
10
-8.4429920929222977
20
1.4876926679674674
30
0
10
-8.6044377256601141
20
0.49924785020791662
30
0
10
-8.7589551502432528
20
-0.55875993007950864
30
0
10
-8.9034494401802906
20
-1.668622883062322
30
0
10
-9.0349898542137446
20
-2.7971471194451345
30
0
10
-9.1510527809682589
20
-3.9048901842124821
30
0
10
-9.2497627119886587
20
-4.9530218543026283
30
0
10
-9.3301528545411152
20
-5.9115407086621055
30
0
10
-9.3923738509247752
20
-6.7660077001940779
30
0
10
-9.4380303775073209
20
-7.5271086113384449
30
0
10
-9.4701046490713345
20
-8.2315674437851314
30
0
10
-9.4920884041404783
20
-8.9266695021008715
30
0
10
-9.5072930749690556
20
-9.6584612971225354
30
0
10
-9.5180755338001948
20
-10.458220728238206
30
0
10
-9.5251361857092949
20
-11.33038585476468
30
0
10
-9.5278498338318443
20
-12.261568397869924
30
0
10
-9.5245625805029892
20
-13.228749816988316
30
0
10
-9.5129023968143258
20
-14.208051304576649
30
0
10
-9.4900810944259302
20
-15.182634388022603
30
0
10
-9.4532071942131637
20
-16.152595954188971
30
0
10
-9.3995457274245808
20
-17.132635015864246
30
0
10
-9.3267670396872315
20
-18.146245158037296
30
0
10
-9.2331934513933795
20
-19.221148381486653
30
0
10
-9.1180597705766306
20
-20.384047163420927
30
0
10
-8.9817376725425824
20
-21.656047376024116
30
0
10
-8.8260525329453916
20
-23.046829479662311
30
0
10
-8.6541418461863771
20
-24.554601228922301
30
0
10
-8.4701092389851933
20
-26.168593149828546
30
0
10
-8.2787436617350902
20
-27.870744744332082
30
0
10
-8.0852116083691268
20
-29.637726467575824
30
0
10
-7.8947605999971859
20
-31.442819223863168
30
0
10
-7.7124185498495414
20
-33.257851337527569
30
0
10
-7.5426932097465453
20
-35.055119611721075
30
0
10
-7.3892755123254874
20
-36.809296624529154
30
0
10
-7.2547318782569334
20
-38.499392946202285
30
0
10
-7.140227871414158
20
-40.110556375556911
30
0
10
-7.045746680028909
20
-41.633278480497623
30
0
10
-6.9702806655454737
20
-43.062742504162784
30
0
10
-6.9120330887824331
20
-44.398117719021982
30
0
10
-6.8686154812192015
20
-45.641876952155599
30
0
10
-6.8372469409336256
20
-46.799103275003453
30
0
10
-6.8149524591128099
20
-47.876803504023329
30
0
10
-6.7987619706666882
20
-48.883213674729227
30
0
10
-6.7859085398517767
20
-49.82712446467032
30
0
10
-6.7741090578550214
20
-50.719403906119716
30
0
10
-6.7618335851553111
20
-51.574416455510956
30
0
10
-6.7485988489517776
20
-52.411622184730895
30
0
10
-6.7352059704102638
20
-53.256776144440991
30
0
10
-6.7241192541450996
20
-54.144131346595302
30
0
10
-6.7190357423991554
20
-55.112893475762341
30
0
10
-6.7241898745240185
20
-56.201796441453624
30
0
10
-6.7437442102639666
20
-57.444284913278906
30
0
10
-6.7811480312684314
20
-58.863478167020844
30
0
10
-6.8385008399550458
20
-60.467146773147675
30
0
10
-6.915934718869055
20
-62.242874724993762
30
0
10
-7.0109315880619025
20
-64.152622683435439
30
0
10
-7.1189796757679087
20
-66.139488961704018
30
0
10
-7.2343082199243822
20
-68.135180819487317
30
0
10
-7.3505955317917291
20
-70.067245899126092
30
0
10
-7.4616842064608218
20
-71.866363352064212
30
0
10
-7.5623027562849039
20
-73.473705611624752
30
0
10
-7.6487624418728517
20
-74.848046283573751
30
0
10
-7.7197160131879148
20
-75.973496906611274
30
0
10
-7.7767703549705978
20
-76.86576170783998
30
0
10
-7.8254513512761719
20
-77.581964458205746
30
0
10
-7.8750604685097159
20
-78.219236163317845
30
0
10
-7.9360956721761244
20
-78.888604342973665
30
0
10
-8.0181760238466921
20
-79.693987982927496
30
0
10
-8.1277533813885423
20
-80.70903827163427
30
0
10
-8.2659480662488267
20
-81.955223881480151
30
0
10
-8.429725371270667
20
-83.412759389092471
30
0
10
-8.6130524638378372
20
-85.031342875603144
30
0
10
-8.8080569984631865
20
-86.740914864396714
30
0
10
-9.0061955087749972
20
-88.462498960967622
30
0
10
-9.1993933199480367
20
-90.118797675728288
30
0
10
-9.3812530850941247
20
-91.645380402149897
30
0
10
-9.5481021990817556
20
-93.000480056615643
30
0
10
-9.7004313183059221
20
-94.178167340780902
30
0
10
-9.8430135103153287
20
-95.210132576483147
30
0
10
-9.9830625478190917
20
-96.150553290303606
30
0
10
-10.128884027801677
20
-97.065191031792807
30
0
10
-10.288279943311451
20
-98.018417141573451
30
0
10
-10.467168074221824
20
-99.061959932833048
30
0
10
-10.667844439625354
20
-100.22089039393742
30
0
10
-10.888274338229863
20
-101.48748073829515
30
0
10
-11.123595233129326
20
-102.83194943617609
30
0
10
-11.367164431334352
20
-104.2097374893311
30
0
10
-11.61179585685673
20
-105.57021490875675
30
0
10
-11.8508984652359
20
-106.86466657445251
30
0
10
-12.079697807752659
20
-108.05484277895019
30
0
10
-12.296325660728174
20
-109.1206669580889
30
0
10
-12.50322083370895
20
-110.06989502371263
30
0
10
-12.705602414909993
20
-110.92936362356397
30
0
10
-12.909605168602972
20
-111.73401685992859
30
0
10
-13.120406890468484
20
-112.51610042526265
30
0
10
-13.340647004877917
20
-113.29567949597852
30
0
10
-13.567998291560739
20
-114.06709730800003
30
0
10
-13.796474005186354
20
-114.80333955084399
30
0
10
-14.020525281260763
20
-115.4732576176084
30
0
10
-14.237832472009677
20
-116.0535288303101
30
0
10
-14.453709336623685
20
-116.54602300450873
30
0
10
-14.681465608439389
20
-116.98267626074305
30
0
10
-14.934069883396646
20
-117.40272438288714
30
0
10
-15.216091919544825
20
-117.83240476433971
30
0
10
-15.519299815035957
20
-118.27122456877261
30
0
10
-15.832306083782953
20
-118.70727329505785
30
0
10
-16.148696977876831
20
-119.12872147891457
30
0
10
-16.473425934677831
20
-119.53361666375758
30
0
10
-16.816441493848806
20
-119.92207701150176
30
0
10
-17.18792846234345
20
-120.29059750448752
30
0
10
-17.593528028079909
20
-120.62686908128234
30
0
10
-18.034896537054944
20
-120.91562575352665
30
0
10
-18.509576941477984
20
-121.14340960824165
30
0
10
-19.011226707996567
20
-121.30325464591354
30
0
10
-19.530888753702143
20
-121.3924490084873
30
0
10
-20.058231293193749
20
-121.4108182215457
30
0
10
-20.477879156312653
20
-121.36928732655556
30
0
10
-20.787073128839317
20
-121.30752883357367
30
0
10
-20.989735485443148
20
-121.25339650897826
30
0
10
-21.0901
20
-121.22320000000001
30
0
0
ENDSEC
0
SECTION
2
OBJECTS
0
DICTIONARY
5
C
100
AcDbDictionary
3
ACAD_GROUP
350
D
3
ACAD_MLINESTYLE
350
17
0
DICTIONARY
5
D
100
AcDbDictionary
0
DICTIONARY
5
1A
330
C
100
AcDbDictionary
0
DICTIONARY
5
17
100
AcDbDictionary
0
ENDSEC
0
EOF
