0
SECTION
2
HEADER
9
$INSUNITS
70
4
9
$ACADVER
1
AC1014
9
$HANDSEED
5
FFFF
0
ENDSEC
0
SECTION
2
TABLES
0
TABLE
2
VPORT
5
8
100
AcDbSymbolTable
0
ENDTAB
0
TABLE
2
LTYPE
5
5
100
AcDbSymbolTable
0
LTYPE
5
14
100
AcDbSymbolTableRecord
100
AcDbLinetypeTableRecord
2
BYBLOCK
70
0
0
LTYPE
5
15
100
AcDbSymbolTableRecord
100
AcDbLinetypeTableRecord
2
BYLAYER
70
0
0
LTYPE
5
16
100
AcDbSymbolTableRecord
100
AcDbLinetypeTableRecord
2
DASHED
70
0
3
Dashed __ __ __ __ __ __ __ __ __ __ __ __ __ _
72
65
73
2
40
0.75
49
0.5
74
0
49
-0.25
74
0
0
ENDTAB
0
TABLE
2
LAYER
5
2
100
AcDbSymbolTable
70
2
0
LAYER
5
50
100
AcDbSymbolTableRecord
100
AcDbLayerTableRecord
2
0
70
0
62
7
6
CONTINUOUS
0
ENDTAB
0
TABLE
2
STYLE
5
3
100
AcDbSymbolTable
70
1
0
STYLE
5
11
100
AcDbSymbolTableRecord
100
AcDbTextStyleTableRecord
2
STANDARD
70
0
0
ENDTAB
0
TABLE
2
VIEW
5
6
100
AcDbSymbolTable
70
0
0
ENDTAB
0
TABLE
2
UCS
5
7
100
AcDbSymbolTable
70
0
0
ENDTAB
0
TABLE
2
APPID
5
9
100
AcDbSymbolTable
70
2
0
APPID
5
12
100
AcDbSymbolTableRecord
100
AcDbRegAppTableRecord
2
ACAD
70
0
0
ENDTAB
0
TABLE
2
DIMSTYLE
5
A
100
AcDbSymbolTable
70
1
0
ENDTAB
0
TABLE
2
BLOCK_RECORD
5
1
100
AcDbSymbolTable
70
1
0
BLOCK_RECORD
5
1F
100
AcDbSymbolTableRecord
100
AcDbBlockTableRecord
2
*MODEL_SPACE
0
BLOCK_RECORD
5
1B
100
AcDbSymbolTableRecord
100
AcDbBlockTableRecord
2
*PAPER_SPACE
0
ENDTAB
0
ENDSEC
0
SECTION
2
BLOCKS
0
BLOCK
5
20
100
AcDbEntity
100
AcDbBlockBegin
2
*MODEL_SPACE
0
ENDBLK
5
21
100
AcDbEntity
100
AcDbBlockEnd
0
BLOCK
5
1C
100
AcDbEntity
100
AcDbBlockBegin
2
*PAPER_SPACE
0
ENDBLK
5
1D
100
AcDbEntity
100
AcDbBlockEnd
0
ENDSEC
0
SECTION
2
ENTITIES
0
SPLINE
5
100
100
AcDbEntity
8
0
100
AcDbSpline
70
6
71
5
72
721
73
715
74
0
42
0.000000001
43
0.0000000001
44
0.0000000001
40
0
40
0
40
0
40
0
40
0
40
0
40
0.0014084507042253522
40
0.0028169014084507044
40
0.0042253521126760568
40
0.0056338028169014088
40
0.0070422535211267607
40
0.0084507042253521136
40
0.0098591549295774655
40
0.011267605633802818
40
0.012676056338028169
40
0.014084507042253521
40
0.015492957746478873
40
0.016901408450704227
40
0.018309859154929581
40
0.019718309859154935
40
0.021126760563380288
40
0.022535211267605642
40
0.023943661971830996
40
0.025352112676056349
40
0.026760563380281703
40
0.028169014084507057
40
0.02957746478873241
40
0.030985915492957764
40
0.032394366197183118
40
0.033802816901408468
40
0.035211267605633818
40
0.036619718309859169
40
0.038028169014084519
40
0.039436619718309869
40
0.040845070422535219
40
0.04225352112676057
40
0.04366197183098592
40
0.04507042253521127
40
0.04647887323943662
40
0.04788732394366197
40
0.049295774647887321
40
0.050704225352112671
40
0.052112676056338021
40
0.053521126760563371
40
0.054929577464788722
40
0.056338028169014072
40
0.057746478873239422
40
0.059154929577464772
40
0.060563380281690123
40
0.061971830985915473
40
0.06338028169014083
40
0.06478873239436618
40
0.06619718309859153
40
0.067605633802816881
40
0.069014084507042231
40
0.070422535211267581
40
0.071830985915492931
40
0.073239436619718282
40
0.074647887323943632
40
0.076056338028168982
40
0.077464788732394332
40
0.078873239436619683
40
0.080281690140845033
40
0.081690140845070383
40
0.083098591549295733
40
0.084507042253521084
40
0.085915492957746434
40
0.087323943661971784
40
0.088732394366197134
40
0.090140845070422485
40
0.091549295774647835
40
0.092957746478873185
40
0.094366197183098535
40
0.095774647887323885
40
0.097183098591549236
40
0.098591549295774586
40
0.099999999999999936
40
0.10140845070422529
40
0.10281690140845064
40
0.10422535211267599
40
0.10563380281690134
40
0.10704225352112669
40
0.10845070422535204
40
0.10985915492957739
40
0.11126760563380274
40
0.11267605633802809
40
0.11408450704225344
40
0.11549295774647879
40
0.11690140845070414
40
0.11830985915492949
40
0.11971830985915484
40
0.12112676056338019
40
0.12253521126760554
40
0.12394366197183089
40
0.12535211267605625
40
0.1267605633802816
40
0.12816901408450695
40
0.12957746478873231
40
0.13098591549295766
40
0.13239436619718301
40
0.13380281690140836
40
0.13521126760563371
40
0.13661971830985906
40
0.13802816901408441
40
0.13943661971830976
40
0.14084507042253511
40
0.14225352112676046
40
0.14366197183098581
40
0.14507042253521116
40
0.14647887323943651
40
0.14788732394366186
40
0.14929577464788721
40
0.15070422535211256
40
0.15211267605633791
40
0.15352112676056326
40
0.15492957746478861
40
0.15633802816901396
40
0.15774647887323931
40
0.15915492957746466
40
0.16056338028169001
40
0.16197183098591536
40
0.16338028169014071
40
0.16478873239436606
40
0.16619718309859141
40
0.16760563380281676
40
0.16901408450704211
40
0.17042253521126746
40
0.17183098591549281
40
0.17323943661971816
40
0.17464788732394351
40
0.17605633802816886
40
0.17746478873239421
40
0.17887323943661956
40
0.18028169014084491
40
0.18169014084507026
40
0.18309859154929561
40
0.18450704225352096
40
0.18591549295774631
40
0.18732394366197166
40
0.18873239436619701
40
0.19014084507042237
40
0.19154929577464772
40
0.19295774647887307
40
0.19436619718309842
40
0.19577464788732377
40
0.19718309859154912
40
0.19859154929577447
40
0.19999999999999982
40
0.20140845070422517
40
0.20281690140845052
40
0.20422535211267587
40
0.20563380281690122
40
0.20704225352112657
40
0.20845070422535192
40
0.20985915492957727
40
0.21126760563380262
40
0.21267605633802797
40
0.21408450704225332
40
0.21549295774647867
40
0.21690140845070402
40
0.21830985915492937
40
0.21971830985915472
40
0.22112676056338007
40
0.22253521126760542
40
0.22394366197183077
40
0.22535211267605612
40
0.22676056338028147
40
0.22816901408450682
40
0.22957746478873217
40
0.23098591549295752
40
0.23239436619718287
40
0.23380281690140822
40
0.23521126760563357
40
0.23661971830985892
40
0.23802816901408427
40
0.23943661971830962
40
0.24084507042253497
40
0.24225352112676032
40
0.24366197183098567
40
0.24507042253521102
40
0.24647887323943637
40
0.24788732394366172
40
0.24929577464788708
40
0.25070422535211245
40
0.2521126760563378
40
0.25352112676056315
40
0.2549295774647885
40
0.25633802816901385
40
0.2577464788732392
40
0.25915492957746455
40
0.2605633802816899
40
0.26197183098591525
40
0.26338028169014061
40
0.26478873239436596
40
0.26619718309859131
40
0.26760563380281666
40
0.26901408450704201
40
0.27042253521126736
40
0.27183098591549271
40
0.27323943661971806
40
0.27464788732394341
40
0.27605633802816876
40
0.27746478873239411
40
0.27887323943661946
40
0.28028169014084481
40
0.28169014084507016
40
0.28309859154929551
40
0.28450704225352086
40
0.28591549295774621
40
0.28732394366197156
40
0.28873239436619691
40
0.29014084507042226
40
0.29154929577464761
40
0.29295774647887296
40
0.29436619718309831
40
0.29577464788732366
40
0.29718309859154901
40
0.29859154929577436
40
0.29999999999999971
40
0.30140845070422506
40
0.30281690140845041
40
0.30422535211267576
40
0.30563380281690111
40
0.30704225352112646
40
0.30845070422535181
40
0.30985915492957716
40
0.31126760563380251
40
0.31267605633802786
40
0.31408450704225321
40
0.31549295774647856
40
0.31690140845070391
40
0.31830985915492926
40
0.31971830985915461
40
0.32112676056337996
40
0.32253521126760532
40
0.32394366197183067
40
0.32535211267605602
40
0.32676056338028137
40
0.32816901408450672
40
0.32957746478873207
40
0.33098591549295742
40
0.33239436619718277
40
0.33380281690140812
40
0.33521126760563347
40
0.33661971830985882
40
0.33802816901408417
40
0.33943661971830952
40
0.34084507042253487
40
0.34225352112676022
40
0.34366197183098557
40
0.34507042253521092
40
0.34647887323943627
40
0.34788732394366162
40
0.34929577464788697
40
0.35070422535211232
40
0.35211267605633767
40
0.35352112676056302
40
0.35492957746478837
40
0.35633802816901372
40
0.35774647887323907
40
0.35915492957746442
40
0.36056338028168977
40
0.36197183098591512
40
0.36338028169014047
40
0.36478873239436582
40
0.36619718309859117
40
0.36760563380281652
40
0.36901408450704187
40
0.37042253521126722
40
0.37183098591549257
40
0.37323943661971792
40
0.37464788732394327
40
0.37605633802816862
40
0.37746478873239397
40
0.37887323943661932
40
0.38028169014084467
40
0.38169014084507003
40
0.38309859154929538
40
0.38450704225352073
40
0.38591549295774608
40
0.38732394366197143
40
0.38873239436619678
40
0.39014084507042213
40
0.39154929577464748
40
0.39295774647887283
40
0.39436619718309818
40
0.39577464788732353
40
0.39718309859154888
40
0.39859154929577423
40
0.39999999999999958
40
0.40140845070422493
40
0.40281690140845028
40
0.40422535211267563
40
0.40563380281690098
40
0.40704225352112633
40
0.40845070422535168
40
0.40985915492957703
40
0.41126760563380238
40
0.41267605633802773
40
0.41408450704225308
40
0.41549295774647843
40
0.41690140845070378
40
0.41830985915492913
40
0.41971830985915448
40
0.42112676056337983
40
0.42253521126760518
40
0.42394366197183053
40
0.42535211267605588
40
0.42676056338028123
40
0.42816901408450658
40
0.42957746478873193
40
0.43098591549295728
40
0.43239436619718263
40
0.43380281690140798
40
0.43521126760563333
40
0.43661971830985868
40
0.43802816901408403
40
0.43943661971830938
40
0.44084507042253473
40
0.44225352112676009
40
0.44366197183098544
40
0.44507042253521079
40
0.44647887323943614
40
0.44788732394366149
40
0.44929577464788684
40
0.45070422535211219
40
0.45211267605633754
40
0.45352112676056289
40
0.45492957746478824
40
0.45633802816901359
40
0.45774647887323894
40
0.45915492957746429
40
0.46056338028168964
40
0.46197183098591499
40
0.46338028169014034
40
0.46478873239436569
40
0.46619718309859104
40
0.46760563380281639
40
0.46901408450704174
40
0.47042253521126709
40
0.47183098591549244
40
0.47323943661971779
40
0.47464788732394314
40
0.47605633802816849
40
0.47746478873239384
40
0.47887323943661919
40
0.48028169014084454
40
0.48169014084506989
40
0.48309859154929524
40
0.48450704225352059
40
0.48591549295774594
40
0.48732394366197129
40
0.48873239436619664
40
0.49014084507042199
40
0.49154929577464734
40
0.49295774647887269
40
0.49436619718309804
40
0.49577464788732339
40
0.49718309859154874
40
0.49859154929577409
40
0.49999999999999944
40
0.5014084507042248
40
0.50281690140845015
40
0.5042253521126755
40
0.50563380281690085
40
0.5070422535211262
40
0.50845070422535155
40
0.5098591549295769
40
0.51126760563380225
40
0.5126760563380276
40
0.51408450704225295
40
0.5154929577464783
40
0.51690140845070365
40
0.518309859154929
40
0.51971830985915435
40
0.5211267605633797
40
0.52253521126760505
40
0.5239436619718304
40
0.52535211267605575
40
0.5267605633802811
40
0.52816901408450645
40
0.5295774647887318
40
0.53098591549295715
40
0.5323943661971825
40
0.53380281690140785
40
0.5352112676056332
40
0.53661971830985855
40
0.5380281690140839
40
0.53943661971830925
40
0.5408450704225346
40
0.54225352112675995
40
0.5436619718309853
40
0.54507042253521065
40
0.546478873239436
40
0.54788732394366135
40
0.5492957746478867
40
0.55070422535211205
40
0.5521126760563374
40
0.55352112676056275
40
0.5549295774647881
40
0.55633802816901345
40
0.5577464788732388
40
0.55915492957746415
40
0.56056338028168951
40
0.56197183098591486
40
0.56338028169014021
40
0.56478873239436556
40
0.56619718309859091
40
0.56760563380281626
40
0.56901408450704161
40
0.57042253521126696
40
0.57183098591549231
40
0.57323943661971766
40
0.57464788732394301
40
0.57605633802816836
40
0.57746478873239371
40
0.57887323943661906
40
0.58028169014084441
40
0.58169014084506976
40
0.58309859154929511
40
0.58450704225352046
40
0.58591549295774581
40
0.58732394366197116
40
0.58873239436619651
40
0.59014084507042186
40
0.59154929577464721
40
0.59295774647887256
40
0.59436619718309791
40
0.59577464788732326
40
0.59718309859154861
40
0.59859154929577396
40
0.59999999999999931
40
0.60140845070422466
40
0.60281690140845001
40
0.60422535211267536
40
0.60563380281690071
40
0.60704225352112606
40
0.60845070422535141
40
0.60985915492957676
40
0.61126760563380211
40
0.61267605633802746
40
0.61408450704225281
40
0.61549295774647816
40
0.61690140845070351
40
0.61830985915492886
40
0.61971830985915421
40
0.62112676056337957
40
0.62253521126760492
40
0.62394366197183027
40
0.62535211267605562
40
0.62676056338028097
40
0.62816901408450632
40
0.62957746478873167
40
0.63098591549295702
40
0.63239436619718237
40
0.63380281690140772
40
0.63521126760563307
40
0.63661971830985842
40
0.63802816901408377
40
0.63943661971830912
40
0.64084507042253447
40
0.64225352112675982
40
0.64366197183098517
40
0.64507042253521052
40
0.64647887323943587
40
0.64788732394366122
40
0.64929577464788657
40
0.65070422535211192
40
0.65211267605633727
40
0.65352112676056262
40
0.65492957746478797
40
0.65633802816901332
40
0.65774647887323867
40
0.65915492957746402
40
0.66056338028168937
40
0.66197183098591472
40
0.66338028169014007
40
0.66478873239436542
40
0.66619718309859077
40
0.66760563380281612
40
0.66901408450704147
40
0.67042253521126682
40
0.67183098591549217
40
0.67323943661971752
40
0.67464788732394287
40
0.67605633802816822
40
0.67746478873239357
40
0.67887323943661892
40
0.68028169014084428
40
0.68169014084506963
40
0.68309859154929498
40
0.68450704225352033
40
0.68591549295774568
40
0.68732394366197103
40
0.68873239436619638
40
0.69014084507042173
40
0.69154929577464708
40
0.69295774647887243
40
0.69436619718309778
40
0.69577464788732313
40
0.69718309859154848
40
0.69859154929577383
40
0.69999999999999918
40
0.70140845070422453
40
0.70281690140844988
40
0.70422535211267523
40
0.70563380281690058
40
0.70704225352112593
40
0.70845070422535128
40
0.70985915492957663
40
0.71126760563380198
40
0.71267605633802733
40
0.71408450704225268
40
0.71549295774647803
40
0.71690140845070338
40
0.71830985915492873
40
0.71971830985915408
40
0.72112676056337943
40
0.72253521126760478
40
0.72394366197183013
40
0.72535211267605548
40
0.72676056338028083
40
0.72816901408450618
40
0.72957746478873153
40
0.73098591549295688
40
0.73239436619718223
40
0.73380281690140758
40
0.73521126760563293
40
0.73661971830985828
40
0.73802816901408363
40
0.73943661971830899
40
0.74084507042253434
40
0.74225352112675969
40
0.74366197183098504
40
0.74507042253521039
40
0.74647887323943574
40
0.74788732394366109
40
0.74929577464788644
40
0.75070422535211179
40
0.75211267605633714
40
0.75352112676056249
40
0.75492957746478784
40
0.75633802816901319
40
0.75774647887323854
40
0.75915492957746389
40
0.76056338028168924
40
0.76197183098591459
40
0.76338028169013994
40
0.76478873239436529
40
0.76619718309859064
40
0.76760563380281599
40
0.76901408450704134
40
0.77042253521126669
40
0.77183098591549204
40
0.77323943661971739
40
0.77464788732394274
40
0.77605633802816809
40
0.77746478873239344
40
0.77887323943661879
40
0.78028169014084414
40
0.78169014084506949
40
0.78309859154929484
40
0.78450704225352019
40
0.78591549295774554
40
0.78732394366197089
40
0.78873239436619624
40
0.79014084507042159
40
0.79154929577464694
40
0.79295774647887229
40
0.79436619718309764
40
0.79577464788732299
40
0.79718309859154834
40
0.79859154929577369
40
0.79999999999999905
40
0.8014084507042244
40
0.80281690140844975
40
0.8042253521126751
40
0.80563380281690045
40
0.8070422535211258
40
0.80845070422535115
40
0.8098591549295765
40
0.81126760563380185
40
0.8126760563380272
40
0.81408450704225255
40
0.8154929577464779
40
0.81690140845070325
40
0.8183098591549286
40
0.81971830985915395
40
0.8211267605633793
40
0.82253521126760465
40
0.82394366197183
40
0.82535211267605535
40
0.8267605633802807
40
0.82816901408450605
40
0.8295774647887314
40
0.83098591549295675
40
0.8323943661971821
40
0.83380281690140745
40
0.8352112676056328
40
0.83661971830985815
40
0.8380281690140835
40
0.83943661971830885
40
0.8408450704225342
40
0.84225352112675955
40
0.8436619718309849
40
0.84507042253521025
40
0.8464788732394356
40
0.84788732394366095
40
0.8492957746478863
40
0.85070422535211165
40
0.852112676056337
40
0.85352112676056235
40
0.8549295774647877
40
0.85633802816901305
40
0.8577464788732384
40
0.85915492957746376
40
0.86056338028168911
40
0.86197183098591446
40
0.86338028169013981
40
0.86478873239436516
40
0.86619718309859051
40
0.86760563380281586
40
0.86901408450704121
40
0.87042253521126656
40
0.87183098591549191
40
0.87323943661971726
40
0.87464788732394261
40
0.87605633802816796
40
0.87746478873239331
40
0.87887323943661866
40
0.88028169014084401
40
0.88169014084506936
40
0.88309859154929471
40
0.88450704225352006
40
0.88591549295774541
40
0.88732394366197076
40
0.88873239436619611
40
0.89014084507042146
40
0.89154929577464681
40
0.89295774647887216
40
0.89436619718309751
40
0.89577464788732286
40
0.89718309859154821
40
0.89859154929577356
40
0.89999999999999891
40
0.90140845070422426
40
0.90281690140844961
40
0.90422535211267496
40
0.90563380281690031
40
0.90704225352112566
40
0.90845070422535101
40
0.90985915492957636
40
0.91126760563380171
40
0.91267605633802706
40
0.91408450704225241
40
0.91549295774647776
40
0.91690140845070311
40
0.91830985915492847
40
0.91971830985915382
40
0.92112676056337917
40
0.92253521126760452
40
0.92394366197182987
40
0.92535211267605522
40
0.92676056338028057
40
0.92816901408450592
40
0.92957746478873127
40
0.93098591549295662
40
0.93239436619718197
40
0.93380281690140732
40
0.93521126760563267
40
0.93661971830985802
40
0.93802816901408337
40
0.93943661971830872
40
0.94084507042253407
40
0.94225352112675942
40
0.94366197183098477
40
0.94507042253521012
40
0.94647887323943547
40
0.94788732394366082
40
0.94929577464788617
40
0.95070422535211152
40
0.95211267605633687
40
0.95352112676056222
40
0.95492957746478757
40
0.95633802816901292
40
0.95774647887323827
40
0.95915492957746362
40
0.96056338028168897
40
0.96197183098591432
40
0.96338028169013967
40
0.96478873239436502
40
0.96619718309859037
40
0.96760563380281572
40
0.96901408450704107
40
0.97042253521126642
40
0.97183098591549177
40
0.97323943661971712
40
0.97464788732394247
40
0.97605633802816782
40
0.97746478873239317
40
0.97887323943661853
40
0.98028169014084388
40
0.98169014084506923
40
0.98309859154929458
40
0.98450704225351993
40
0.98591549295774528
40
0.98732394366197063
40
0.98873239436619598
40
0.99014084507042133
40
0.99154929577464668
40
0.99295774647887203
40
0.99436619718309738
40
0.99577464788732273
40
0.99718309859154808
40
0.99859154929577343
40
1
40
1
40
1
40
1
40
1
40
1
41
1
41
1
41
1
41
1
41
1
41
1
41
1
41
1
41
1
41
1
41
1
41
1
41
1
41
1
41
1
41
1
41
1
41
1
41
1
41
1
41
1
41
1
41
1
41
1
41
1
41
1
41
1
41
1
41
1
41
1
41
1
41
1
41
1
41
1
41
1
41
1
41
1
41
1
41
1
41
1
41
1
41
1
41
1
41
1
41
1
41
1
41
1
41
1
41
1
41
1
41
1
41
1
41
1
41
1
41
1
41
1
41
1
41
1
41
1
41
1
41
1
41
1
41
1
41
1
41
1
41
1
41
1
41
1
41
1
41
1
41
1
41
1
41
1
41
1
41
1
41
1
41
1
41
1
41
1
41
1
41
1
41
1
41
1
41
1
41
1
41
1
41
1
41
1
41
1
41
1
41
1
41
1
41
1
41
1
41
1
41
1
41
1
41
1
41
1
41
1
41
1
41
1
41
1
41
1
41
1
41
1
41
1
41
1
41
1
41
1
41
1
41
1
41
1
41
1
41
1
41
1
41
1
41
1
41
1
41
1
41
1
41
1
41
1
41
1
41
1
41
1
41
1
41
1
41
1
41
1
41
1
41
1
41
1
41
1
41
1
41
1
41
1
41
1
41
1
41
1
41
1
41
1
41
1
41
1
41
1
41
1
41
1
41
1
41
1
41
1
41
1
41
1
41
1
41
1
41
1
41
1
41
1
41
1
41
1
41
1
41
1
41
1
41
1
41
1
41
1
41
1
41
1
41
1
41
1
41
1
41
1
41
1
41
1
41
1
41
1
41
1
41
1
41
1
41
1
41
1
41
1
41
1
41
1
41
1
41
1
41
1
41
1
41
1
41
1
41
1
41
1
41
1
41
1
41
1
41
1
41
1
41
1
41
1
41
1
41
1
41
1
41
1
41
1
41
1
41
1
41
1
41
1
41
1
41
1
41
1
41
1
41
1
41
1
41
1
41
1
41
1
41
1
41
1
41
1
41
1
41
1
41
1
41
1
41
1
41
1
41
1
41
1
41
1
41
1
41
1
41
1
41
1
41
1
41
1
41
1
41
1
41
1
41
1
41
1
41
1
41
1
41
1
41
1
41
1
41
1
41
1
41
1
41
1
41
1
41
1
41
1
41
1
41
1
41
1
41
1
41
1
41
1
41
1
41
1
41
1
41
1
41
1
41
1
41
1
41
1
41
1
41
1
41
1
41
1
41
1
41
1
41
1
41
1
41
1
41
1
41
1
41
1
41
1
41
1
41
1
41
1
41
1
41
1
41
1
41
1
41
1
41
1
41
1
41
1
41
1
41
1
41
1
41
1
41
1
41
1
41
1
41
1
41
1
41
1
41
1
41
1
41
1
41
1
41
1
41
1
41
1
41
1
41
1
41
1
41
1
41
1
41
1
41
1
41
1
41
1
41
1
41
1
41
1
41
1
41
1
41
1
41
1
41
1
41
1
41
1
41
1
41
1
41
1
41
1
41
1
41
1
41
1
41
1
41
1
41
1
41
1
41
1
41
1
41
1
41
1
41
1
41
1
41
1
41
1
41
1
41
1
41
1
41
1
41
1
41
1
41
1
41
1
41
1
41
1
41
1
41
1
41
1
41
1
41
1
41
1
41
1
41
1
41
1
41
1
41
1
41
1
41
1
41
1
41
1
41
1
41
1
41
1
41
1
41
1
41
1
41
1
41
1
41
1
41
1
41
1
41
1
41
1
41
1
41
1
41
1
41
1
41
1
41
1
41
1
41
1
41
1
41
1
41
1
41
1
41
1
41
1
41
1
41
1
41
1
41
1
41
1
41
1
41
1
41
1
41
1
41
1
41
1
41
1
41
1
41
1
41
1
41
1
41
1
41
1
41
1
41
1
41
1
41
1
41
1
41
1
41
1
41
1
41
1
41
1
41
1
41
1
41
1
41
1
41
1
41
1
41
1
41
1
41
1
41
1
41
1
41
1
41
1
41
1
41
1
41
1
41
1
41
1
41
1
41
1
41
1
41
1
41
1
41
1
41
1
41
1
41
1
41
1
41
1
41
1
41
1
41
1
41
1
41
1
41
1
41
1
41
1
41
1
41
1
41
1
41
1
41
1
41
1
41
1
41
1
41
1
41
1
41
1
41
1
41
1
41
1
41
1
41
1
41
1
41
1
41
1
41
1
41
1
41
1
41
1
41
1
41
1
41
1
41
1
41
1
41
1
41
1
41
1
41
1
41
1
41
1
41
1
41
1
41
1
41
1
41
1
41
1
41
1
41
1
41
1
41
1
41
1
41
1
41
1
41
1
41
1
41
1
41
1
41
1
41
1
41
1
41
1
41
1
41
1
41
1
41
1
41
1
41
1
41
1
41
1
41
1
41
1
41
1
41
1
41
1
41
1
41
1
41
1
41
1
41
1
41
1
41
1
41
1
41
1
41
1
41
1
41
1
41
1
41
1
41
1
41
1
41
1
41
1
41
1
41
1
41
1
41
1
41
1
41
1
41
1
41
1
41
1
41
1
41
1
41
1
41
1
41
1
41
1
41
1
41
1
41
1
41
1
41
1
41
1
41
1
41
1
41
1
41
1
41
1
41
1
41
1
41
1
41
1
41
1
41
1
41
1
41
1
41
1
41
1
41
1
41
1
41
1
41
1
41
1
41
1
41
1
41
1
41
1
41
1
41
1
41
1
41
1
41
1
41
1
41
1
41
1
41
1
41
1
41
1
41
1
41
1
41
1
41
1
41
1
41
1
41
1
41
1
41
1
41
1
41
1
41
1
41
1
41
1
41
1
41
1
41
1
41
1
41
1
41
1
41
1
41
1
41
1
41
1
41
1
41
1
41
1
41
1
41
1
41
1
41
1
41
1
41
1
41
1
41
1
41
1
41
1
41
1
41
1
41
1
41
1
41
1
41
1
41
1
41
1
41
1
41
1
41
1
41
1
41
1
41
1
41
1
41
1
41
1
41
1
41
1
41
1
41
1
41
1
41
1
41
1
41
1
41
1
41
1
41
1
41
1
41
1
41
1
41
1
41
1
41
1
41
1
41
1
41
1
41
1
41
1
41
1
41
1
41
1
41
1
41
1
41
1
41
1
41
1
41
1
41
1
41
1
41
1
41
1
41
1
41
1
41
1
41
1
41
1
41
1
41
1
41
1
41
1
41
1
41
1
41
1
41
1
41
1
41
1
41
1
41
1
41
1
41
1
41
1
41
1
41
1
41
1
10
29.465199999999999
20
-86.893699999999995
30
0
10
29.34752690992682
20
-86.91025795739732
30
0
10
29.11195341466842
20
-86.939242900142773
30
0
10
28.760612319873179
20
-86.969858936656621
30
0
10
28.306435658508562
20
-86.985257047091991
30
0
10
27.78285525483836
20
-86.96941734416562
30
0
10
27.315822681952341
20
-86.927583176770341
30
0
10
26.907967354527553
20
-86.866717453217888
30
0
10
26.54811075392324
20
-86.785828552045828
30
0
10
26.216318780508271
20
-86.67791000938945
30
0
10
25.893343051623646
20
-86.535853056756054
30
0
10
25.571008953984808
20
-86.358700297626839
30
0
10
25.253875339552415
20
-86.15218380121982
30
0
10
24.951510683107525
20
-85.923365500969808
30
0
10
24.672555234572684
20
-85.67572415771798
30
0
10
24.420613369863901
20
-85.407774653771341
30
0
10
24.195576255702456
20
-85.117993267668126
30
0
10
23.99349866729829
20
-84.809633464484875
30
0
10
23.807372641401162
20
-84.491595359004776
30
0
10
23.628674579745244
20
-84.167066611465998
30
0
10
23.448855547528641
20
-83.82308979601288
30
0
10
23.260783540622981
20
-83.423286258335196
30
0
10
23.059571416233588
20
-82.924561927118475
30
0
10
22.843563352068649
20
-82.291641119103474
30
0
10
22.615086165639671
20
-81.511005303659161
30
0
10
22.381740865331189
20
-80.608737079988956
30
0
10
22.154517323162374
20
-79.642158834507626
30
0
10
21.944992815357921
20
-78.683581866060322
30
0
10
21.762779728143073
20
-77.806499157697033
30
0
10
21.612996191012815
20
-77.071211066516327
30
0
10
21.493432810160641
20
-76.509640923826581
30
0
10
21.392540344558558
20
-76.112972980520425
30
0
10
21.285279680489687
20
-75.81166023518611
30
0
10
21.144041398940271
20
-75.51055851070889
30
0
10
20.95091372617048
20
-75.130206291708305
30
0
10
20.712812551858168
20
-74.655741435636259
30
0
10
20.456650505123974
20
-74.127703687654687
30
0
10
20.215744654226341
20
-73.607319888333237
30
0
10
20.019952554453315
20
-73.152213526321972
30
0
10
19.882250473565531
20
-72.782968094071663
30
0
10
19.793332441980588
20
-72.469177242230217
30
0
10
19.73265099242181
20
-72.154857922687825
30
0
10
19.676820360846293
20
-71.777487822931377
30
0
10
19.607375080343246
20
-71.285763899301202
30
0
10
19.509416172670157
20
-70.63677274412845
30
0
10
19.37170846182287
20
-69.796459457780486
30
0
10
19.186202582029125
20
-68.738787761810855
30
0
10
18.947802625844293
20
-67.445458926456539
30
0
10
18.654028128478949
20
-65.905390449058558
30
0
10
18.304721654007089
20
-64.114298161426206
30
0
10
17.901736613092371
20
-62.074234154807648
30
0
10
17.448634009702602
20
-59.793143226201046
30
0
10
16.950374467131525
20
-57.284412809353718
30
0
10
16.413014400236833
20
-54.566422592889936
30
0
10
15.843395553391687
20
-51.662101773613173
30
0
10
15.24884881943348
20
-48.598465661770703
30
0
10
14.636862809276767
20
-45.406205681648082
30
0
10
14.014928139618226
20
-42.119011306438921
30
0
10
13.390457992594204
20
-38.772775471602266
30
0
10
12.770684252040354
20
-35.404837341513719
30
0
10
12.162563801794949
20
-32.053209548807203
30
0
10
11.572680461371068
20
-28.755812117783567
30
0
10
11.007148791937219
20
-25.549703491963292
30
0
10
10.471517097207242
20
-22.470312847946907
30
0
10
9.9706707488816555
20
-19.550671723984433
30
0
10
9.5087353975481967
20
-16.820646173651305
30
0
10
9.0889801437763964
20
-14.306168048496364
30
0
10
8.7137208982824301
20
-12.028468007452325
30
0
10
8.3842232218572939
20
-10.003304461858216
30
0
10
8.1006063644751443
20
-8.2402017661997657
30
0
10
7.8617444747863683
20
-6.7416667669285948
30
0
10
7.665174347594375
20
-5.5024553990527449
30
0
10
7.5069879441165153
20
-4.5087228168082607
30
0
10
7.3817602355030356
20
-3.7374437701985053
30
0
10
7.282394918973182
20
-3.1552046851422455
30
0
10
7.2001618076318472
20
-2.718463345317045
30
0
10
7.1242661479744438
20
-2.3701977203846702
30
0
10
7.043207389686124
20
-2.051148834095978
30
0
10
6.9464753267041672
20
-1.7168979133985589
30
0
10
6.8274473081198312
20
-1.3586689543871255
30
0
10
6.6812278904228819
20
-1.0025532178026189
30
0
10
6.4987047952960335
20
-0.68678595400773967
30
0
10
6.2592608612896434
20
-0.44233182633800761
30
0
10
5.9315686617719869
20
-0.28078289640872284
30
0
10
5.4873879853145162
20
-0.19993746441570645
30
0
10
4.9142340245659017
20
-0.18483135293137909
30
0
10
4.222755193006968
20
-0.2114021554898142
30
0
10
3.4385303882873712
20
-0.25150840788203727
30
0
10
2.5971541175669595
20
-0.2778083706186405
30
0
10
1.7379502261654201
20
-0.26876281056059509
30
0
10
0.89839669459745253
20
-0.21340556188251525
30
0
10
0.10794708888101512
20
-0.1166424364065733
30
0
10
-0.61701836541886312
20
-0.003062486441357632
30
0
10
-1.2688995863350947
20
0.093241097576980417
30
0
10
-1.8455511908521338
20
0.13719779179189268
30
0
10
-2.3462442072209506
20
0.10279731009712993
30
0
10
-2.7687195660828081
20
-0.019531480457242276
30
0
10
-3.1037718681012021
20
-0.20927841567522421
30
0
10
-3.3424380965990914
20
-0.43466722819316927
30
0
10
-3.4857822685645647
20
-0.67863314612759718
30
0
10
-3.5571484842334367
20
-0.97013056070084347
30
0
10
-3.595528610126038
20
-1.371771715630707
30
0
10
-3.642197854673932
20
-1.9514814992128151
30
0
10
-3.727351338484453
20
-2.7548221488672651
30
0
10
-3.8663440639265816
20
-3.7969612936108623
30
0
10
-4.0634785903315533
20
-5.0704175636342068
30
0
10
-4.3134813562576877
20
-6.547959907045322
30
0
10
-4.6039374005675544
20
-8.1875168187431431
30
0
10
-4.9173118125379291
20
-9.9362198530353858
30
0
10
-5.2331538975840006
20
-11.734827550715611
30
0
10
-5.5302111957914608
20
-13.52196695896394
30
0
10
-5.7886088363587316
20
-15.238496631789094
30
0
10
-5.9919391246898455
20
-16.831717489994848
30
0
10
-6.1295331065095269
20
-18.259881340460705
30
0
10
-6.1983183674595086
20
-19.496027993378785
30
0
10
-6.2056969203284922
20
-20.533475057663551
30
0
10
-6.1681426609788046
20
-21.384377937075225
30
0
10
-6.10686506643209
20
-22.073551322851269
30
0
10
-6.0444444878190415
20
-22.633843383277057
30
0
10
-6.000851053666727
20
-23.100557768193429
30
0
10
-5.9902263246516778
20
-23.507004640356023
30
0
10
-6.0161243967292757
20
-23.877814409482294
30
0
10
-6.0716071561207805
20
-24.229240385660198
30
0
10
-6.146443099623494
20
-24.579398999385408
30
0
10
-6.2334067293554041
20
-24.957642312881543
30
0
10
-6.3327307620201179
20
-25.410045709178135
30
0
10
-6.4491764879617328
20
-25.990887481131594
30
0
10
-6.5905296945807477
20
-26.756807223054359
30
0
10
-6.7655189273197358
20
-27.759862273601193
30
0
10
-6.982001953925935
20
-29.041137303330625
30
0
10
-7.2449859556411278
20
-30.623919831662654
30
0
10
-7.5548642271505964
20
-32.507620714074122
30
0
10
-7.9081948127551049
20
-34.671523426475972
30
0
10
-8.298342094060505
20
-37.077988961070346
30
0
10
-8.7161697110483054
20
-39.675865489425647
30
0
10
-9.1507116809534441
20
-42.403810958061634
30
0
10
-9.5898528398810328
20
-45.193652879386477
30
0
10
-10.02100530417316
20
-47.973732195944656
30
0
10
-10.431786515266417
20
-50.672253486704548
30
0
10
-10.810696883553925
20
-53.22063347926214
30
0
10
-11.147796962184067
20
-55.556847877640969
30
0
10
-11.435386356656164
20
-57.628784669479458
30
0
10
-11.668678397662067
20
-59.397581581925756
30
0
10
-11.846484845281996
20
-60.841001154290353
30
0
10
-11.971877346993935
20
-61.956718710373792
30
0
10
-12.052903039065445
20
-62.765813312923711
30
0
10
-12.10317426966421
20
-63.315786938910563
30
0
10
-12.142757031936807
20
-63.684703300464029
30
0
10
-12.198222097803733
20
-63.982189675662305
30
0
10
-12.294163832608994
20
-64.318545185163003
30
0
10
-12.445471085691665
20
-64.776629166545689
30
0
10
-12.649121731566662
20
-65.382056572492431
30
0
10
-12.889336970852378
20
-66.11776314080862
30
0
10
-13.142972022607523
20
-66.939307490376407
30
0
10
-13.38473827494944
20
-67.789686324085508
30
0
10
-13.592687001435424
20
-68.614865480716389
30
0
10
-13.753134619064436
20
-69.377807377842956
30
0
10
-13.866987790904549
20
-70.076254125827234
30
0
10
-13.947148553723698
20
-70.736597469835374
30
0
10
-14.013440623769124
20
-71.401108162300531
30
0
10
-14.088460144148554
20
-72.117634822993395
30
0
10
-14.192844155313111
20
-72.927761297472998
30
0
10
-14.341243245440074
20
-73.856806575890076
30
0
10
-14.53685672580036
20
-74.900082520705638
30
0
10
-14.771556965770692
20
-76.023685280699468
30
0
10
-15.030129087140118
20
-77.175990093296519
30
0
10
-15.293286954259486
20
-78.295956440386817
30
0
10
-15.541247089184147
20
-79.322902733934114
30
0
10
-15.756938764607614
20
-80.205291020204726
30
0
10
-15.929660107474529
20
-80.9107737533989
30
0
10
-16.057867174160599
20
-81.433747575045473
30
0
10
-16.153973779938845
20
-81.808709303362917
30
0
10
-16.242777741721476
20
-82.105223439999918
30
0
10
-16.34994565754867
20
-82.394373177109543
30
0
10
-16.491155612832262
20
-82.716863081420385
30
0
10
-16.66546935113449
20
-83.064013560613091
30
0
10
-16.864856618808446
20
-83.407261938079102
30
0
10
-17.081321288370606
20
-83.720634950683063
30
0
10
-17.313720798472257
20
-84.001808673068126
30
0
10
-17.564243202226749
20
-84.25878459723026
30
0
10
-17.836101976152545
20
-84.500571015730856
30
0
10
-18.130823958455032
20
-84.726539245415054
30
0
10
-18.447548673082196
20
-84.930946101265178
30
0
10
-18.782438917298265
20
-85.106758862338836
30
0
10
-19.127541700643317
20
-85.250014873328297
30
0
10
-19.47550301816181
20
-85.359914777960057
30
0
10
-19.823680399208005
20
-85.438522786008363
30
0
10
-20.18085971060674
20
-85.490717176943576
30
0
10
-20.557437336167347
20
-85.523109616217837
30
0
10
-20.954920538768764
20
-85.54263702375377
30
0
10
-21.349173108234567
20
-85.55547703440044
30
0
10
-21.707682111345523
20
-85.565019846653186
30
0
10
-22.016460333378838
20
-85.570221617807761
30
0
10
-22.314868990656795
20
-85.562440234369333
30
0
10
-22.683024486671876
20
-85.528433930944772
30
0
10
-23.195995547965865
20
-85.457194783890429
30
0
10
-23.879046617816936
20
-85.347150775575571
30
0
10
-24.692832050590784
20
-85.20803443033337
30
0
10
-25.563951211330959
20
-85.055098400424754
30
0
10
-26.403246930421332
20
-84.905403840014543
30
0
10
-27.129992258920772
20
-84.773068124103347
30
0
10
-27.69150150669963
20
-84.66541111902194
30
0
10
-28.089637459192058
20
-84.577628402641778
30
0
10
-28.38913307892938
20
-84.491451805072529
30
0
10
-28.670329466196872
20
-84.386029233539318
30
0
10
-28.988087844833355
20
-84.247482179884599
30
0
10
-29.336160735796149
20
-84.07715148327982
30
0
10
-29.682567536467293
20
-83.883337090252027
30
0
10
-29.997622476217
20
-83.674756976666131
30
0
10
-30.284607664197782
20
-83.453352345027497
30
0
10
-30.561432559663764
20
-83.218804729385113
30
0
10
-30.844329939494774
20
-82.972339133607676
30
0
10
-31.128355553354837
20
-82.721873512798823
30
0
10
-31.398629601406665
20
-82.474664265876214
30
0
10
-31.643318662543948
20
-82.230011544968292
30
0
10
-31.869242353907975
20
-81.969003484759668
30
0
10
-32.094841941478307
20
-81.664606602245726
30
0
10
-32.33793566780075
20
-81.295604489730152
30
0
10
-32.602712877219268
20
-80.862811444345056
30
0
10
-32.879678701811741
20
-80.386436387894165
30
0
10
-33.153092845177802
20
-79.89281296760393
30
0
10
-33.405714008023551
20
-79.405325002158591
30
0
10
-33.625346174501836
20
-78.931712595036601
30
0
10
-33.808466522927084
20
-78.458825937589467
30
0
10
-33.956911332477389
20
-77.96644101032139
30
0
10
-34.075723169695365
20
-77.438082739397089
30
0
10
-34.170627379361072
20
-76.872244310298726
30
0
10
-34.245442968268136
20
-76.295513015126602
30
0
10
-34.302165334022369
20
-75.748795804306383
30
0
10
-34.341451590281885
20
-75.268702988242978
30
0
10
-34.362956519675734
20
-74.872833878211424
30
0
10
-34.365741123772857
20
-74.538237260398162
30
0
10
-34.348608949672077
20
-74.202493584115899
30
0
10
-34.3103772717173
20
-73.787117678888421
30
0
10
-34.250203234050034
20
-73.21755271779233
30
0
10
-34.167761579426752
20
-72.436591275851768
30
0
10
-34.063165707636671
20
-71.400395052093756
30
0
10
-33.93694556595338
20
-70.078617514721515
30
0
10
-33.790002754408029
20
-68.452866152700423
30
0
10
-33.623575374777445
20
-66.51587525449186
30
0
10
-33.439198692109258
20
-64.270373106002708
30
0
10
-33.238667603430756
20
-61.728080899094486
30
0
10
-33.023998332097037
20
-58.908655058052858
30
0
10
-32.797390458807001
20
-55.838654043630562
30
0
10
-32.561188810347893
20
-52.550494717396361
30
0
10
-32.317845411825061
20
-49.081413287799904
30
0
10
-32.069881413101506
20
-45.472424352584667
30
0
10
-31.819849027709274
20
-41.767280822692932
30
0
10
-31.570293466416615
20
-38.011433497417528
30
0
10
-31.323714874475055
20
-34.250990844585331
30
0
10
-31.082530263763346
20
-30.531678643426115
30
0
10
-30.849035453225568
20
-26.89779983083854
30
0
10
-30.625366987743018
20
-23.391193907401711
30
0
10
-30.413464102492405
20
-20.050197286443048
30
0
10
-30.215030576275463
20
-16.908601373097316
30
0
10
-30.031496836352783
20
-13.99461579701072
30
0
10
-29.863981461052113
20
-11.32981931184875
30
0
10
-29.713254307853521
20
-8.9281440032365325
30
0
10
-29.579770737014744
20
-6.7963224783363021
30
0
10
-29.463704372375972
20
-4.9343042446762189
30
0
10
-29.364980281392398
20
-3.3356823498345554
30
0
10
-29.283308252472459
20
-1.9881181896003706
30
0
10
-29.21821538226391
20
-0.87376098012717129
30
0
10
-29.169080455054836
20
0.030316529422532473
30
0
10
-29.135164070016131
20
0.75172197312520239
30
0
10
-29.115648676182602
20
1.3222546556569024
30
0
10
-29.109655569344035
20
1.7776325248829308
30
0
10
-29.11631559671838
20
2.1567161532464789
30
0
10
-29.134710526604355
20
2.501948925144803
30
0
10
-29.164231429799031
20
2.8557585251547009
30
0
10
-29.205294784801485
20
3.2525285738915723
30
0
10
-29.260250194642971
20
3.7102696762180853
30
0
10
-29.333364535190064
20
4.226641363999958
30
0
10
-29.428598765702265
20
4.7862833795240869
30
0
10
-29.547786633535576
20
5.3658797476290445
30
0
10
-29.68875038103695
20
5.9400228053130864
30
0
10
-29.843175479064957
20
6.4870102355103496
30
0
10
-30.000023737779443
20
6.9904868267499456
30
0
10
-30.14981689888209
20
7.4408943472752789
30
0
10
-30.287854268285322
20
7.836537973640997
30
0
10
-30.419673792601788
20
8.1859074576429638
30
0
10
-30.558568141469145
20
8.5051902874596905
30
0
10
-30.717479691108881
20
8.8122510628300468
30
0
10
-30.900043791891783
20
9.1202382313325145
30
0
10
-31.099835619919048
20
9.4357804473895897
30
0
10
-31.311807632190938
20
9.7642526802563268
30
0
10
-31.542765218383003
20
10.114228835098967
30
0
10
-31.816277391570576
20
10.499561353524813
30
0
10
-32.159580246159678
20
10.933246341420411
30
0
10
-32.593769272574448
20
11.42277990486946
30
0
10
-33.123222697548591
20
11.9652186229807
30
0
10
-33.723915742721637
20
12.541571654913518
30
0
10
-34.352257365335319
20
13.122607724403059
30
0
10
-34.956529087014111
20
13.676122772437797
30
0
10
-35.486963808028818
20
14.173397138676904
30
0
10
-35.907349219466397
20
14.596636019532681
30
0
10
-36.203758120395321
20
14.944491115934643
30
0
10
-36.400116970591931
20
15.242191131645598
30
0
10
-36.541655439111487
20
15.529856972324591
30
0
10
-36.668959098922592
20
15.844098722173776
30
0
10
-36.78699766176338
20
16.196899604118059
30
0
10
-36.869141208082105
20
16.575798512817745
30
0
10
-36.884433329501839
20
16.959416008966866
30
0
10
-36.824360925003958
20
17.330633994573049
30
0
10
-36.707331966882499
20
17.682750799701566
30
0
10
-36.556163935121639
20
18.014380216081818
30
0
10
-36.377822066434248
20
18.327553932968637
30
0
10
-36.157846258763684
20
18.624233580746285
30
0
10
-35.884054743474842
20
18.903851124195214
30
0
10
-35.568499780044775
20
19.159181700802495
30
0
10
-35.255770437825163
20
19.376633926255455
30
0
10
-34.982551419512497
20
19.548493863031968
30
0
10
-34.742119375086304
20
19.684461616008775
30
0
10
-34.456875010643024
20
19.81992438206435
30
0
10
-34.028072304649598
20
19.997102826446667
30
0
10
-33.37717482276161
20
20.249062853074964
30
0
10
-32.489407159806383
20
20.583038907332117
30
0
10
-31.398575394528745
20
20.987019216171415
30
0
10
-30.173646341926158
20
21.435673054880176
30
0
10
-28.904693280087304
20
21.896497850567187
30
0
10
-27.688980211507662
20
22.335958177955078
30
0
10
-26.617292708597926
20
22.725429498831385
30
0
10
-25.759451735492384
20
23.047687552095056
30
0
10
-25.1518355817451
20
23.302087459258388
30
0
10
-24.780056986612621
20
23.512887909504826
30
0
10
-24.57609345861238
20
23.728271153188576
30
0
10
-24.456731379936855
20
23.994084061044173
30
0
10
-24.357861649422841
20
24.328775926138619
30
0
10
-24.26238960856702
20
24.706328862121552
30
0
10
-24.177366236861406
20
25.091433613438458
30
0
10
-24.117343663685631
20
25.468986201420112
30
0
10
-24.08635638705811
20
25.873300083857615
30
0
10
-24.081729117413175
20
26.368710865616034
30
0
10
-24.096443879132533
20
27.032473979501344
30
0
10
-24.12190583097917
20
27.937956192095893
30
0
10
-24.150960317577422
20
29.134769312782009
30
0
10
-24.178603772168131
20
30.645511740822169
30
0
10
-24.201474550284672
20
32.470755649600733
30
0
10
-24.217733732638717
20
34.591425402784481
30
0
10
-24.226783645761408
20
36.97225994602227
30
0
10
-24.229056030893958
20
39.564809934628798
30
0
10
-24.22577025724727
20
42.310634861153986
30
0
10
-24.218704427175503
20
45.14441406658559
30
0
10
-24.209960980291797
20
47.997094380034888
30
0
10
-24.201734576076468
20
50.799022717729379
30
0
10
-24.196079219703954
20
53.483083289107334
30
0
10
-24.194675197074332
20
55.987837132409986
30
0
10
-24.198597285416771
20
58.260650746900396
30
0
10
-24.208079625770033
20
60.260852674691783
30
0
10
-24.222288482178399
20
61.962824443837505
30
0
10
-24.239076583416153
20
63.359244855019156
30
0
10
-24.25478033598333
20
64.463977605600846
30
0
10
-24.263914974432481
20
65.315807673748566
30
0
10
-24.25916340136834
20
65.97974866234992
30
0
10
-24.233461303710421
20
66.53152415067558
30
0
10
-24.181774232110858
20
67.044247967373124
30
0
10
-24.10316364329184
20
67.573447231807762
30
0
10
-24.002337626644241
20
68.144657087390954
30
0
10
-23.892448412525265
20
68.735052138713996
30
0
10
-23.78993759750831
20
69.292028382409953
30
0
10
-23.706322683294218
20
69.76479677153786
30
0
10
-23.642279803409171
20
70.127807206452061
30
0
10
-23.577809298426018
20
70.416456244927758
30
0
10
-23.474012755792199
20
70.727658351646753
30
0
10
-23.293065763755362
20
71.164909585264581
30
0
10
-23.016463584939586
20
71.789823393687868
30
0
10
-22.657217674048677
20
72.588125470078467
30
0
10
-22.247105464692766
20
73.499174633640919
30
0
10
-21.828273669655655
20
74.434249495884671
30
0
10
-21.443362060841235
20
75.298787746308008
30
0
10
-21.125694647023444
20
76.014097613214872
30
0
10
-20.890755130980967
20
76.53659661682137
30
0
10
-20.723937453038353
20
76.884636349463221
30
0
10
-20.58019619657053
20
77.140876129517338
30
0
10
-20.408601273746658
20
77.403180523243549
30
0
10
-20.17405138641152
20
77.741664867379839
30
0
10
-19.874058217139368
20
78.165071117915403
30
0
10
-19.524920499844672
20
78.646764334230951
30
0
10
-19.152242410400543
20
79.142218074754823
30
0
10
-18.780349472675688
20
79.608709874295712
30
0
10
-18.420615275599335
20
80.027004971353108
30
0
10
-18.072798291001227
20
80.398585247474088
30
0
10
-17.729681373786374
20
80.73661866365083
30
0
10
-17.380359569178442
20
81.059551270466116
30
0
10
-17.014582301605422
20
81.382534330265173
30
0
10
-16.624910892515356
20
81.713565717260394
30
0
10
-16.20606164543258
20
82.055810898766822
30
0
10
-15.754908385304077
20
82.408466225335985
30
0
10
-15.270222551173987
20
82.768212605257943
30
0
10
-14.752521106950262
20
83.130406910707549
30
0
10
-14.205077935287759
20
83.489329569948325
30
0
10
-13.634813263543624
20
83.838423449293046
30
0
10
-13.053473916900826
20
84.170494378906568
30
0
10
-12.478127460381288
20
84.478028937272313
30
0
10
-11.93337939242002
20
84.753204508548592
30
0
10
-11.445495231231657
20
84.989379051475169
30
0
10
-11.031195467890429
20
85.183622590928223
30
0
10
-10.689568913219933
20
85.338548308821046
30
0
10
-10.389345907981316
20
85.465294634838756
30
0
10
-10.068408049043626
20
85.583377763533321
30
0
10
-9.668818560833337
20
85.711368355224934
30
0
10
-9.168751023449234
20
85.85840307103831
30
0
10
-8.6082345877828566
20
86.017202397111419
30
0
10
-8.0543527307826288
20
86.172281551539584
30
0
10
-7.5707855333128284
20
86.306965349769641
30
0
10
-7.1897969752411122
20
86.410042144158069
30
0
10
-6.8728460787410093
20
86.484637873869715
30
0
10
-6.5374564194044709
20
86.543774400103104
30
0
10
-6.102397925319063
20
86.60204468627802
30
0
10
-5.5363482012969145
20
86.667003817428622
30
0
10
-4.8622074703259672
20
86.737741461063123
30
0
10
-4.1313381008992005
20
86.808476957267658
30
0
10
-3.4065944819797531
20
86.870648363921362
30
0
10
-2.7427991947943129
20
86.915514283918384
30
0
10
-2.1657136880236889
20
86.936802725779586
30
0
10
-1.6597360977129156
20
86.932508851597817
30
0
10
-1.1872136522180252
20
86.903393087350139
30
0
10
-0.7028608241503197
20
86.852021735276267
30
0
10
-0.16926219320933505
20
86.781625794683208
30
0
10
0.42590046689035488
20
86.694953242584006
30
0
10
1.0744013893616737
20
86.593965079985594
30
0
10
1.7558245004221054
20
86.479724537308513
30
0
10
2.4448872545859417
20
86.352173292706709
30
0
10
3.1184971046505021
20
86.210054554051283
30
0
10
3.7646403929745058
20
86.050529977882292
30
0
10
4.3839578021586982
20
85.869847517659409
30
0
10
4.9828701618597995
20
85.665163886074936
30
0
10
5.568814593808443
20
85.436118871355902
30
0
10
6.1448412927285432
20
85.186396764326901
30
0
10
6.7039674359597301
20
84.92556037890634
30
0
10
7.2250825273050872
20
84.670024325416676
30
0
10
7.6846343951536387
20
84.43624389472123
30
0
10
8.0681499967236991
20
84.233831582489515
30
0
10
8.3797104951658454
20
84.060034910144665
30
0
10
8.6575257056815182
20
83.890330421595408
30
0
10
8.9587116281417831
20
83.688458677631331
30
0
10
9.3343454016799061
20
83.422502422456901
30
0
10
9.8020150275981592
20
83.082730333033524
30
0
10
10.343294820660256
20
82.682983602366491
30
0
10
10.920600326791801
20
82.249334689686876
30
0
10
11.4885273730041
20
81.812351331280496
30
0
10
12.006845357669771
20
81.398313704464229
30
0
10
12.45426562926631
20
81.019828901797979
30
0
10
12.837367767538975
20
80.669897167379332
30
0
10
13.177847589094432
20
80.331282582728562
30
0
10
13.502649237667457
20
79.983879732758282
30
0
10
13.833670480021494
20
79.612307541080668
30
0
10
14.17583858940942
20
79.214844973539869
30
0
10
14.521032265571844
20
78.799697579192255
30
0
10
14.85595157840989
20
78.378046508565191
30
0
10
15.168015371998372
20
77.958831457538139
30
0
10
15.453514002112662
20
77.541342967868658
30
0
10
15.719676524404457
20
77.114000834329858
30
0
10
15.978508102390503
20
76.66159720353906
30
0
10
16.242633851384181
20
76.170463713224919
30
0
10
16.520281443312054
20
75.634547363417198
30
0
10
16.81077438671878
20
75.060898981081365
30
0
10
17.10727769390839
20
74.464248444886763
30
0
10
17.399387821884702
20
73.861929240518009
30
0
10
17.675878189909412
20
73.268353735207043
30
0
10
17.927148168156616
20
72.690415009238535
30
0
10
18.148381633764032
20
72.120634423756101
30
0
10
18.339471389237225
20
71.540567028935186
30
0
10
18.503268728841597
20
70.929372925729496
30
0
10
18.644325135380125
20
70.271118853411153
30
0
10
18.767494301605904
20
69.561858766955027
30
0
10
18.876439890605848
20
68.818599564736431
30
0
10
18.972675435393036
20
68.081728064979742
30
0
10
19.056204978077467
20
67.398610921369297
30
0
10
19.125870857410593
20
66.810926679152288
30
0
10
19.17980934928179
20
66.339937219733656
30
0
10
19.215879249602608
20
65.973989762326312
30
0
10
19.232053687516629
20
65.651505555261792
30
0
10
19.227328039118095
20
65.291478060617735
30
0
10
19.20257585061875
20
64.825924017694831
30
0
10
19.161655630586793
20
64.237797911724911
30
0
10
19.110781599926764
20
63.553462162930252
30
0
10
19.057441814056514
20
62.823010697607238
30
0
10
19.009447641949826
20
62.104064956570973
30
0
10
18.973977947163668
20
61.445609922113064
30
0
10
18.9565047105255
20
60.86817775720646
30
0
10
18.960198369474718
20
60.358524519896179
30
0
10
18.986071832281176
20
59.886757281966595
30
0
10
19.032954815574762
20
59.418043345601745
30
0
10
19.097520845152424
20
58.926596562499327
30
0
10
19.1743304077931
20
58.408459872047814
30
0
10
19.257619534953779
20
57.873582498255338
30
0
10
19.343230183012356
20
57.337487414749155
30
0
10
19.430166190726052
20
56.813945436536372
30
0
10
19.523098966896427
20
56.305151372456919
30
0
10
19.630679331785327
20
55.80281570788685
30
0
10
19.761080885553682
20
55.296221306799637
30
0
10
19.918721551866845
20
54.777664840260051
30
0
10
20.099730185330564
20
54.250120875488648
30
0
10
20.29028379707632
20
53.730484114988002
30
0
10
20.47463376464809
20
53.238432563658016
30
0
10
20.641952280336589
20
52.787053498076617
30
0
10
20.792978692218895
20
52.373699672546095
30
0
10
20.94847088177977
20
51.968358586190611
30
0
10
21.14105332075799
20
51.525114703183796
30
0
10
21.403188768385508
20
50.999050253858698
30
0
10
21.757566720369731
20
50.359691405864197
30
0
10
22.203953423129668
20
49.609595788747086
30
0
10
22.716747363222737
20
48.787301950278604
30
0
10
23.256182243028583
20
47.950350189298099
30
0
10
23.776307167679597
20
47.162968633615975
30
0
10
24.233924768784014
20
46.482466876772925
30
0
10
24.597917096436014
20
45.944811297166019
30
0
10
24.856543563554684
20
45.553751923056694
30
0
10
25.030192555133816
20
45.260548040468151
30
0
10
25.164203835942537
20
44.977897359747018
30
0
10
25.304553136321019
20
44.622906731436053
30
0
10
25.473719916243102
20
44.160381125324236
30
0
10
25.660944906627719
20
43.619430589689181
30
0
10
25.840720696802791
20
43.05834087507283
30
0
10
25.984666103414952
20
42.54157697169159
30
0
10
26.075957172388691
20
42.112032522176833
30
0
10
26.122966820765367
20
41.764920479180454
30
0
10
26.147138108195985
20
41.462390511935148
30
0
10
26.170974067654601
20
41.148612870793897
30
0
10
26.204672331198296
20
40.765418546822815
30
0
10
26.248344676172618
20
40.259842259543099
30
0
10
26.296556737044071
20
39.590904456387207
30
0
10
26.341775531382531
20
38.735873816492358
30
0
10
26.378917903912964
20
37.69863625086834
30
0
10
26.406973223781698
20
36.509934480762432
30
0
10
26.427616354721913
20
35.218536916971431
30
0
10
26.444602619906195
20
33.88479261804887
30
0
10
26.462847528072679
20
32.573236504093288
30
0
10
26.487634998158459
20
31.345548971198774
30
0
10
26.523785282094359
20
30.253484369431007
30
0
10
26.574805427518207
20
29.331530819336269
30
0
10
26.642128319368901
20
28.590342233999163
30
0
10
26.724119841507637
20
28.008268190804909
30
0
10
26.815762071665091
20
27.528375488234332
30
0
10
26.911516564905902
20
27.081398663332958
30
0
10
27.007898818062191
20
26.60622769116636
30
0
10
27.105902323418309
20
26.069436388610008
30
0
10
27.214155745703529
20
25.490123110830538
30
0
10
27.346906166623697
20
24.925903456003553
30
0
10
27.520687504090091
20
24.447607938076075
30
0
10
27.751332966636863
20
24.119569396079878
30
0
10
28.051076849414976
20
23.97346749850653
30
0
10
28.424966763477514
20
23.999250541903024
30
0
10
28.86757239977949
20
24.161320646730267
30
0
10
29.357590592688098
20
24.409331934038953
30
0
10
29.860449227004469
20
24.689521143524338
30
0
10
30.340389580036287
20
24.953074178705691
30
0
10
30.769838442106646
20
25.165186945441004
30
0
10
31.140411693454517
20
25.314386625792128
30
0
10
31.471714710061516
20
25.420162140868619
30
0
10
31.794082122578597
20
25.512682706896761
30
0
10
32.133219449302956
20
25.614740300910213
30
0
10
32.493176239954394
20
25.721632118984964
30
0
10
32.865414854199614
20
25.813968732032091
30
0
10
33.238219775203127
20
25.870824886425762
30
0
10
33.607457563100191
20
25.884842396429764
30
0
10
33.973936455929177
20
25.858337792339185
30
0
10
34.33876827019391
20
25.79649775974665
30
0
10
34.69837908040698
20
25.700289039321955
30
0
10
35.045621121898897
20
25.56700249284544
30
0
10
35.372934562393546
20
25.393661271374604
30
0
10
35.675633455672809
20
25.180018952920229
30
0
10
35.951586191598857
20
24.929198744919262
30
0
10
36.198735356044274
20
24.646301943302767
30
0
10
36.412625575666084
20
24.337883380429886
30
0
10
36.586413407848454
20
24.010354978710922
30
0
10
36.713652697124765
20
23.668505207521598
30
0
10
36.79046614569608
20
23.312752095878011
30
0
10
36.817347340869787
20
22.940722444524454
30
0
10
36.799007432410626
20
22.553741957590621
30
0
10
36.745661644239291
20
22.164589672914797
30
0
10
36.671003195874107
20
21.797716281254466
30
0
10
36.583356044839462
20
21.470437563894759
30
0
10
36.47671680857281
20
21.175336444161115
30
0
10
36.325553777453884
20
20.868740595843647
30
0
10
36.10136176343444
20
20.498008569811095
30
0
10
35.786783128270031
20
20.024300588708698
30
0
10
35.38964923898974
20
19.445534008499237
30
0
10
34.934836229375442
20
18.78509646890063
30
0
10
34.45731512538201
20
18.082461933346778
30
0
10
33.994829217757662
20
17.38318463829097
30
0
10
33.580530093603215
20
16.728897855607979
30
0
10
33.236101863779346
20
16.147922618577621
30
0
10
32.963421230237557
20
15.64397826874931
30
0
10
32.75002872708815
20
15.203133860240017
30
0
10
32.577293051662664
20
14.804522061006862
30
0
10
32.426808597069403
20
14.428271366292423
30
0
10
32.289480053095055
20
14.068056888210052
30
0
10
32.166325425661981
20
13.729210457652695
30
0
10
32.060695522203972
20
13.413105818598678
30
0
10
31.971185061857796
20
13.100534174263345
30
0
10
31.888892593716925
20
12.749340554917447
30
0
10
31.804982983504058
20
12.321659591949384
30
0
10
31.716849276234708
20
11.808165640233508
30
0
10
31.63237459083151
20
11.243823040232739
30
0
10
31.56359274594136
20
10.682133297966239
30
0
10
31.521859950850214
20
10.175364437358066
30
0
10
31.512974216534634
20
9.7541719308762822
30
0
10
31.530920282911374
20
9.4029756531568616
30
0
10
31.563923273481826
20
9.0758738029237147
30
0
10
31.602096171261756
20
8.7189259727906219
30
0
10
31.646252923355036
20
8.2937126549520226
30
0
10
31.706430950367302
20
7.7805633739001134
30
0
10
31.795979413671127
20
7.1729104576914979
30
0
10
31.927400241765621
20
6.4746856746552677
30
0
10
32.106776497736334
20
5.6962058238181603
30
0
10
32.331040120920512
20
4.8514922617383833
30
0
10
32.590875060414589
20
3.95738070640044
30
0
10
32.872491029317935
20
3.0323197685685894
30
0
10
33.159861832544429
20
2.095287018536049
30
0
10
33.436728657057849
20
1.164662884499408
30
0
10
33.688789517392557
20
0.25710440227204939
30
0
10
33.905608950412841
20
-0.61353809887952382
30
0
10
34.0831611610474
20
-1.4374326890114284
30
0
10
34.222996559193618
20
-2.2092700436444437
30
0
10
34.330159188700648
20
-2.92852917361204
30
0
10
34.411547141720774
20
-3.5997842028060911
30
0
10
34.474012177078848
20
-4.233076584358539
30
0
10
34.522747861929297
20
-4.8440675888041058
30
0
10
34.559115934799635
20
-5.454760651457244
30
0
10
34.580491751591424
20
-6.0920450038942011
30
0
10
34.581964862373027
20
-6.7841962368522912
30
0
10
34.557510482786846
20
-7.5579866252795256
30
0
10
34.50141319725951
20
-8.435450207634215
30
0
10
34.409500368029825
20
-9.4310162571234812
30
0
10
34.280656281436322
20
-10.547950955266192
30
0
10
34.11756161344001
20
-11.776850091110372
30
0
10
33.925725255339238
20
-13.098722073017122
30
0
10
33.712858475864643
20
-14.487148169276145
30
0
10
33.488113559916968
20
-15.910808004372035
30
0
10
33.261378753105816
20
-17.335853704435451
30
0
10
33.042552687614716
20
-18.728338175813505
30
0
10
32.840819072067859
20
-20.056645460920851
30
0
10
32.663941173269542
20
-21.293861238412429
30
0
10
32.517501477102108
20
-22.420306245310513
30
0
10
32.40427325592249
20
-23.425678756888111
30
0
10
32.323264223900203
20
-24.312168396277016
30
0
10
32.270104922705954
20
-25.093589532728565
30
0
10
32.238412495240809
20
-25.791637497717247
30
0
10
32.220850224974711
20
-26.433027050438756
30
0
10
32.210351347827277
20
-27.046185808095476
30
0
10
32.201182422822527
20
-27.658327104991077
30
0
10
32.19029474584454
20
-28.291900744709821
30
0
10
32.177795122703721
20
-28.962896422259824
30
0
10
32.165915914583508
20
-29.682282403686063
30
0
10
32.158328520059882
20
-30.456733178382112
30
0
10
32.159309273618454
20
-31.289650515484958
30
0
10
32.172990544537157
20
-32.182041067597218
30
0
10
32.202522419536749
20
-33.133498582164464
30
0
10
32.249430579857233
20
-34.143012755871538
30
0
10
32.313954691904343
20
-35.208986588384214
30
0
10
32.395265762049299
20
-36.329349428587946
30
0
10
32.491730554149868
20
-37.501633261640187
30
0
10
32.601155322881546
20
-38.72306432657895
30
0
10
32.721039913364869
20
-39.990648844773737
30
0
10
32.848823957677467
20
-41.301259634911311
30
0
10
32.982144453296385
20
-42.651726167266986
30
0
10
33.119069818516898
20
-44.038914214390239
30
0
10
33.258389386062937
20
-45.459831684499228
30
0
10
33.399723535781732
20
-46.9116486921586
30
0
10
33.543315172107448
20
-48.391564915510571
30
0
10
33.689892409891861
20
-49.896711082345853
30
0
10
33.840502713482167
20
-51.424036787455734
30
0
10
33.996359158806037
20
-52.970204068835123
30
0
10
34.158681678432586
20
-54.53147869244836
30
0
10
34.328540012069155
20
-56.103621977468322
30
0
10
34.506696978877066
20
-57.681783406540241
30
0
10
34.693449151438259
20
-59.260390511098166
30
0
10
34.888474347567154
20
-60.833045445790844
30
0
10
35.090662918615692
20
-62.392405828996701
30
0
10
35.297987045725968
20
-63.930102409569173
30
0
10
35.507275871442744
20
-65.436565534424304
30
0
10
35.714382055580856
20
-66.901230404066524
30
0
10
35.914616671969192
20
-68.313000949101209
30
0
10
36.103103684908326
20
-69.660637845274579
30
0
10
36.275169466829993
20
-70.933176018317525
30
0
10
36.426712992885008
20
-72.12033366059255
30
0
10
36.554594341595212
20
-73.212915275051984
30
0
10
36.656992140666596
20
-74.203239677067913
30
0
10
36.733828268224642
20
-75.085505289462958
30
0
10
36.787038008257078
20
-75.856303646878601
30
0
10
36.821210209619046
20
-76.514776923928437
30
0
10
36.84308301138703
20
-77.063864719639582
30
0
10
36.858513460146419
20
-77.513777931752529
30
0
10
36.869817215753557
20
-77.885344789142422
30
0
10
36.87324587563738
20
-78.212733881706072
30
0
10
36.855668061002042
20
-78.548179242823508
30
0
10
36.802215212392746
20
-78.941616643739835
30
0
10
36.704055914868761
20
-79.420480820988104
30
0
10
36.567885132614137
20
-79.964492990121528
30
0
10
36.411037487839423
20
-80.521155540390168
30
0
10
36.252619343546947
20
-81.032752719398943
30
0
10
36.106852989307356
20
-81.45649014640567
30
0
10
35.973507819601977
20
-81.794348634664757
30
0
10
35.83654883222443
20
-82.094912864534621
30
0
10
35.674060697221684
20
-82.417732984349286
30
0
10
35.466244934704598
20
-82.802404377344402
30
0
10
35.201966388473643
20
-83.248148234084468
30
0
10
34.878159252577689
20
-83.731510713234641
30
0
10
34.500784767437189
20
-84.21661081302679
30
0
10
34.084991918921162
20
-84.66799732780504
30
0
10
33.656098224339047
20
-85.063361587277967
30
0
10
33.242125983496521
20
-85.393015768046951
30
0
10
32.8646917939638
20
-85.65785237914119
30
0
10
32.532015449118219
20
-85.86752036462147
30
0
10
32.227375737671537
20
-86.039324731354711
30
0
10
31.913717216027248
20
-86.19376295692058
30
0
10
31.552040995795778
20
-86.347676067480919
30
0
10
31.11889747233419
20
-86.506462956245855
30
0
10
30.614879232324267
20
-86.661905578815634
30
0
10
30.167287213433855
20
-86.772100369449049
30
0
10
29.817991955107694
20
-86.839895155758882
30
0
10
29.582873090073278
20
-86.877142042602657
30
0
10
29.465199999999999
20
-86.893699999999995
30
0
0
ENDSEC
0
SECTION
2
OBJECTS
0
DICTIONARY
5
C
100
AcDbDictionary
3
ACAD_GROUP
350
D
3
ACAD_MLINESTYLE
350
17
0
DICTIONARY
5
D
100
AcDbDictionary
0
DICTIONARY
5
1A
330
C
100
AcDbDictionary
0
DICTIONARY
5
17
100
AcDbDictionary
0
ENDSEC
0
EOF
