0
SECTION
2
HEADER
9
$INSUNITS
70
4
9
$ACADVER
1
AC1014
9
$HANDSEED
5
FFFF
0
ENDSEC
0
SECTION
2
TABLES
0
TABLE
2
VPORT
5
8
100
AcDbSymbolTable
0
ENDTAB
0
TABLE
2
LTYPE
5
5
100
AcDbSymbolTable
0
LTYPE
5
14
100
AcDbSymbolTableRecord
100
AcDbLinetypeTableRecord
2
BYBLOCK
70
0
0
LTYPE
5
15
100
AcDbSymbolTableRecord
100
AcDbLinetypeTableRecord
2
BYLAYER
70
0
0
LTYPE
5
16
100
AcDbSymbolTableRecord
100
AcDbLinetypeTableRecord
2
DASHED
70
0
3
Dashed __ __ __ __ __ __ __ __ __ __ __ __ __ _
72
65
73
2
40
0.75
49
0.5
74
0
49
-0.25
74
0
0
ENDTAB
0
TABLE
2
LAYER
5
2
100
AcDbSymbolTable
70
2
0
LAYER
5
50
100
AcDbSymbolTableRecord
100
AcDbLayerTableRecord
2
0
70
0
62
7
6
CONTINUOUS
0
ENDTAB
0
TABLE
2
STYLE
5
3
100
AcDbSymbolTable
70
1
0
STYLE
5
11
100
AcDbSymbolTableRecord
100
AcDbTextStyleTableRecord
2
STANDARD
70
0
0
ENDTAB
0
TABLE
2
VIEW
5
6
100
AcDbSymbolTable
70
0
0
ENDTAB
0
TABLE
2
UCS
5
7
100
AcDbSymbolTable
70
0
0
ENDTAB
0
TABLE
2
APPID
5
9
100
AcDbSymbolTable
70
2
0
APPID
5
12
100
AcDbSymbolTableRecord
100
AcDbRegAppTableRecord
2
ACAD
70
0
0
ENDTAB
0
TABLE
2
DIMSTYLE
5
A
100
AcDbSymbolTable
70
1
0
ENDTAB
0
TABLE
2
BLOCK_RECORD
5
1
100
AcDbSymbolTable
70
1
0
BLOCK_RECORD
5
1F
100
AcDbSymbolTableRecord
100
AcDbBlockTableRecord
2
*MODEL_SPACE
0
BLOCK_RECORD
5
1B
100
AcDbSymbolTableRecord
100
AcDbBlockTableRecord
2
*PAPER_SPACE
0
ENDTAB
0
ENDSEC
0
SECTION
2
BLOCKS
0
BLOCK
5
20
100
AcDbEntity
100
AcDbBlockBegin
2
*MODEL_SPACE
0
ENDBLK
5
21
100
AcDbEntity
100
AcDbBlockEnd
0
BLOCK
5
1C
100
AcDbEntity
100
AcDbBlockBegin
2
*PAPER_SPACE
0
ENDBLK
5
1D
100
AcDbEntity
100
AcDbBlockEnd
0
ENDSEC
0
SECTION
2
ENTITIES
0
SPLINE
5
100
100
AcDbEntity
8
0
100
AcDbSpline
70
6
71
5
72
796
73
790
74
0
42
0.000000001
43
0.0000000001
44
0.0000000001
40
0
40
0
40
0
40
0
40
0
40
0
40
0.0012738853503184713
40
0.0025477707006369425
40
0.003821656050955414
40
0.0050955414012738851
40
0.0063694267515923561
40
0.0076433121019108272
40
0.0089171974522292991
40
0.01019108280254777
40
0.011464968152866241
40
0.012738853503184712
40
0.014012738853503183
40
0.015286624203821654
40
0.016560509554140127
40
0.017834394904458598
40
0.019108280254777069
40
0.02038216560509554
40
0.021656050955414011
40
0.022929936305732482
40
0.024203821656050954
40
0.025477707006369425
40
0.026751592356687896
40
0.028025477707006367
40
0.029299363057324838
40
0.030573248407643309
40
0.031847133757961783
40
0.033121019108280254
40
0.034394904458598725
40
0.035668789808917196
40
0.036942675159235668
40
0.038216560509554139
40
0.03949044585987261
40
0.040764331210191081
40
0.042038216560509552
40
0.043312101910828023
40
0.044585987261146494
40
0.045859872611464965
40
0.047133757961783436
40
0.048407643312101907
40
0.049681528662420378
40
0.050955414012738849
40
0.05222929936305732
40
0.053503184713375791
40
0.054777070063694262
40
0.056050955414012733
40
0.057324840764331204
40
0.058598726114649675
40
0.059872611464968147
40
0.061146496815286618
40
0.062420382165605089
40
0.063694267515923567
40
0.064968152866242038
40
0.066242038216560509
40
0.06751592356687898
40
0.068789808917197451
40
0.070063694267515922
40
0.071337579617834393
40
0.072611464968152864
40
0.073885350318471335
40
0.075159235668789806
40
0.076433121019108277
40
0.077707006369426748
40
0.078980891719745219
40
0.08025477707006369
40
0.081528662420382161
40
0.082802547770700632
40
0.084076433121019103
40
0.085350318471337575
40
0.086624203821656046
40
0.087898089171974517
40
0.089171974522292988
40
0.090445859872611459
40
0.09171974522292993
40
0.092993630573248401
40
0.094267515923566872
40
0.095541401273885343
40
0.096815286624203814
40
0.098089171974522285
40
0.099363057324840756
40
0.10063694267515923
40
0.1019108280254777
40
0.10318471337579617
40
0.10445859872611464
40
0.10573248407643311
40
0.10700636942675158
40
0.10828025477707005
40
0.10955414012738852
40
0.110828025477707
40
0.11210191082802547
40
0.11337579617834394
40
0.11464968152866241
40
0.11592356687898088
40
0.11719745222929935
40
0.11847133757961782
40
0.11974522292993629
40
0.12101910828025476
40
0.12229299363057324
40
0.12356687898089171
40
0.12484076433121018
40
0.12611464968152866
40
0.12738853503184713
40
0.1286624203821656
40
0.12993630573248408
40
0.13121019108280255
40
0.13248407643312102
40
0.13375796178343949
40
0.13503184713375796
40
0.13630573248407643
40
0.1375796178343949
40
0.13885350318471337
40
0.14012738853503184
40
0.14140127388535031
40
0.14267515923566879
40
0.14394904458598726
40
0.14522292993630573
40
0.1464968152866242
40
0.14777070063694267
40
0.14904458598726114
40
0.15031847133757961
40
0.15159235668789808
40
0.15286624203821655
40
0.15414012738853503
40
0.1554140127388535
40
0.15668789808917197
40
0.15796178343949044
40
0.15923566878980891
40
0.16050955414012738
40
0.16178343949044585
40
0.16305732484076432
40
0.16433121019108279
40
0.16560509554140126
40
0.16687898089171974
40
0.16815286624203821
40
0.16942675159235668
40
0.17070063694267515
40
0.17197452229299362
40
0.17324840764331209
40
0.17452229299363056
40
0.17579617834394903
40
0.1770700636942675
40
0.17834394904458598
40
0.17961783439490445
40
0.18089171974522292
40
0.18216560509554139
40
0.18343949044585986
40
0.18471337579617833
40
0.1859872611464968
40
0.18726114649681527
40
0.18853503184713374
40
0.18980891719745221
40
0.19108280254777069
40
0.19235668789808916
40
0.19363057324840763
40
0.1949044585987261
40
0.19617834394904457
40
0.19745222929936304
40
0.19872611464968151
40
0.19999999999999998
40
0.20127388535031845
40
0.20254777070063693
40
0.2038216560509554
40
0.20509554140127387
40
0.20636942675159234
40
0.20764331210191081
40
0.20891719745222928
40
0.21019108280254775
40
0.21146496815286622
40
0.21273885350318469
40
0.21401273885350316
40
0.21528662420382164
40
0.21656050955414011
40
0.21783439490445858
40
0.21910828025477705
40
0.22038216560509552
40
0.22165605095541399
40
0.22292993630573246
40
0.22420382165605093
40
0.2254777070063694
40
0.22675159235668788
40
0.22802547770700635
40
0.22929936305732482
40
0.23057324840764329
40
0.23184713375796176
40
0.23312101910828023
40
0.2343949044585987
40
0.23566878980891717
40
0.23694267515923564
40
0.23821656050955411
40
0.23949044585987259
40
0.24076433121019106
40
0.24203821656050953
40
0.243312101910828
40
0.24458598726114647
40
0.24585987261146494
40
0.24713375796178341
40
0.24840764331210188
40
0.24968152866242035
40
0.25095541401273885
40
0.25222929936305732
40
0.2535031847133758
40
0.25477707006369427
40
0.25605095541401274
40
0.25732484076433121
40
0.25859872611464968
40
0.25987261146496815
40
0.26114649681528662
40
0.26242038216560509
40
0.26369426751592356
40
0.26496815286624203
40
0.26624203821656051
40
0.26751592356687898
40
0.26878980891719745
40
0.27006369426751592
40
0.27133757961783439
40
0.27261146496815286
40
0.27388535031847133
40
0.2751592356687898
40
0.27643312101910827
40
0.27770700636942675
40
0.27898089171974522
40
0.28025477707006369
40
0.28152866242038216
40
0.28280254777070063
40
0.2840764331210191
40
0.28535031847133757
40
0.28662420382165604
40
0.28789808917197451
40
0.28917197452229298
40
0.29044585987261146
40
0.29171974522292993
40
0.2929936305732484
40
0.29426751592356687
40
0.29554140127388534
40
0.29681528662420381
40
0.29808917197452228
40
0.29936305732484075
40
0.30063694267515922
40
0.3019108280254777
40
0.30318471337579617
40
0.30445859872611464
40
0.30573248407643311
40
0.30700636942675158
40
0.30828025477707005
40
0.30955414012738852
40
0.31082802547770699
40
0.31210191082802546
40
0.31337579617834393
40
0.31464968152866241
40
0.31592356687898088
40
0.31719745222929935
40
0.31847133757961782
40
0.31974522292993629
40
0.32101910828025476
40
0.32229299363057323
40
0.3235668789808917
40
0.32484076433121017
40
0.32611464968152865
40
0.32738853503184712
40
0.32866242038216559
40
0.32993630573248406
40
0.33121019108280253
40
0.332484076433121
40
0.33375796178343947
40
0.33503184713375794
40
0.33630573248407641
40
0.33757961783439489
40
0.33885350318471336
40
0.34012738853503183
40
0.3414012738853503
40
0.34267515923566877
40
0.34394904458598724
40
0.34522292993630571
40
0.34649681528662418
40
0.34777070063694265
40
0.34904458598726112
40
0.3503184713375796
40
0.35159235668789807
40
0.35286624203821654
40
0.35414012738853501
40
0.35541401273885348
40
0.35668789808917195
40
0.35796178343949042
40
0.35923566878980889
40
0.36050955414012736
40
0.36178343949044584
40
0.36305732484076431
40
0.36433121019108278
40
0.36560509554140125
40
0.36687898089171972
40
0.36815286624203819
40
0.36942675159235666
40
0.37070063694267513
40
0.3719745222929936
40
0.37324840764331207
40
0.37452229299363055
40
0.37579617834394902
40
0.37707006369426749
40
0.37834394904458596
40
0.37961783439490443
40
0.3808917197452229
40
0.38216560509554137
40
0.38343949044585984
40
0.38471337579617831
40
0.38598726114649679
40
0.38726114649681526
40
0.38853503184713373
40
0.3898089171974522
40
0.39108280254777067
40
0.39235668789808914
40
0.39363057324840761
40
0.39490445859872608
40
0.39617834394904455
40
0.39745222929936302
40
0.3987261146496815
40
0.39999999999999997
40
0.40127388535031844
40
0.40254777070063691
40
0.40382165605095538
40
0.40509554140127385
40
0.40636942675159232
40
0.40764331210191079
40
0.40891719745222926
40
0.41019108280254774
40
0.41146496815286621
40
0.41273885350318468
40
0.41401273885350315
40
0.41528662420382162
40
0.41656050955414009
40
0.41783439490445856
40
0.41910828025477703
40
0.4203821656050955
40
0.42165605095541397
40
0.42292993630573245
40
0.42420382165605092
40
0.42547770700636939
40
0.42675159235668786
40
0.42802547770700633
40
0.4292993630573248
40
0.43057324840764327
40
0.43184713375796174
40
0.43312101910828021
40
0.43439490445859869
40
0.43566878980891716
40
0.43694267515923563
40
0.4382165605095541
40
0.43949044585987257
40
0.44076433121019104
40
0.44203821656050951
40
0.44331210191082798
40
0.44458598726114645
40
0.44585987261146492
40
0.4471337579617834
40
0.44840764331210187
40
0.44968152866242034
40
0.45095541401273881
40
0.45222929936305728
40
0.45350318471337575
40
0.45477707006369422
40
0.45605095541401269
40
0.45732484076433116
40
0.45859872611464964
40
0.45987261146496811
40
0.46114649681528658
40
0.46242038216560505
40
0.46369426751592352
40
0.46496815286624199
40
0.46624203821656046
40
0.46751592356687893
40
0.4687898089171974
40
0.47006369426751587
40
0.47133757961783435
40
0.47261146496815282
40
0.47388535031847129
40
0.47515923566878976
40
0.47643312101910823
40
0.4777070063694267
40
0.47898089171974517
40
0.48025477707006364
40
0.48152866242038211
40
0.48280254777070059
40
0.48407643312101906
40
0.48535031847133753
40
0.486624203821656
40
0.48789808917197447
40
0.48917197452229294
40
0.49044585987261141
40
0.49171974522292988
40
0.49299363057324835
40
0.49426751592356682
40
0.4955414012738853
40
0.49681528662420377
40
0.49808917197452224
40
0.49936305732484071
40
0.50063694267515924
40
0.50191082802547771
40
0.50318471337579618
40
0.50445859872611465
40
0.50573248407643312
40
0.50700636942675159
40
0.50828025477707006
40
0.50955414012738853
40
0.510828025477707
40
0.51210191082802548
40
0.51337579617834395
40
0.51464968152866242
40
0.51592356687898089
40
0.51719745222929936
40
0.51847133757961783
40
0.5197452229299363
40
0.52101910828025477
40
0.52229299363057324
40
0.52356687898089171
40
0.52484076433121019
40
0.52611464968152866
40
0.52738853503184713
40
0.5286624203821656
40
0.52993630573248407
40
0.53121019108280254
40
0.53248407643312101
40
0.53375796178343948
40
0.53503184713375795
40
0.53630573248407643
40
0.5375796178343949
40
0.53885350318471337
40
0.54012738853503184
40
0.54140127388535031
40
0.54267515923566878
40
0.54394904458598725
40
0.54522292993630572
40
0.54649681528662419
40
0.54777070063694266
40
0.54904458598726114
40
0.55031847133757961
40
0.55159235668789808
40
0.55286624203821655
40
0.55414012738853502
40
0.55541401273885349
40
0.55668789808917196
40
0.55796178343949043
40
0.5592356687898089
40
0.56050955414012738
40
0.56178343949044585
40
0.56305732484076432
40
0.56433121019108279
40
0.56560509554140126
40
0.56687898089171973
40
0.5681528662420382
40
0.56942675159235667
40
0.57070063694267514
40
0.57197452229299361
40
0.57324840764331209
40
0.57452229299363056
40
0.57579617834394903
40
0.5770700636942675
40
0.57834394904458597
40
0.57961783439490444
40
0.58089171974522291
40
0.58216560509554138
40
0.58343949044585985
40
0.58471337579617833
40
0.5859872611464968
40
0.58726114649681527
40
0.58853503184713374
40
0.58980891719745221
40
0.59108280254777068
40
0.59235668789808915
40
0.59363057324840762
40
0.59490445859872609
40
0.59617834394904456
40
0.59745222929936304
40
0.59872611464968151
40
0.59999999999999998
40
0.60127388535031845
40
0.60254777070063692
40
0.60382165605095539
40
0.60509554140127386
40
0.60636942675159233
40
0.6076433121019108
40
0.60891719745222928
40
0.61019108280254775
40
0.61146496815286622
40
0.61273885350318469
40
0.61401273885350316
40
0.61528662420382163
40
0.6165605095541401
40
0.61783439490445857
40
0.61910828025477704
40
0.62038216560509551
40
0.62165605095541399
40
0.62292993630573246
40
0.62420382165605093
40
0.6254777070063694
40
0.62675159235668787
40
0.62802547770700634
40
0.62929936305732481
40
0.63057324840764328
40
0.63184713375796175
40
0.63312101910828023
40
0.6343949044585987
40
0.63566878980891717
40
0.63694267515923564
40
0.63821656050955411
40
0.63949044585987258
40
0.64076433121019105
40
0.64203821656050952
40
0.64331210191082799
40
0.64458598726114646
40
0.64585987261146494
40
0.64713375796178341
40
0.64840764331210188
40
0.64968152866242035
40
0.65095541401273882
40
0.65222929936305729
40
0.65350318471337576
40
0.65477707006369423
40
0.6560509554140127
40
0.65732484076433118
40
0.65859872611464965
40
0.65987261146496812
40
0.66114649681528659
40
0.66242038216560506
40
0.66369426751592353
40
0.664968152866242
40
0.66624203821656047
40
0.66751592356687894
40
0.66878980891719741
40
0.67006369426751589
40
0.67133757961783436
40
0.67261146496815283
40
0.6738853503184713
40
0.67515923566878977
40
0.67643312101910824
40
0.67770700636942671
40
0.67898089171974518
40
0.68025477707006365
40
0.68152866242038213
40
0.6828025477707006
40
0.68407643312101907
40
0.68535031847133754
40
0.68662420382165601
40
0.68789808917197448
40
0.68917197452229295
40
0.69044585987261142
40
0.69171974522292989
40
0.69299363057324836
40
0.69426751592356684
40
0.69554140127388531
40
0.69681528662420378
40
0.69808917197452225
40
0.69936305732484072
40
0.70063694267515919
40
0.70191082802547766
40
0.70318471337579613
40
0.7044585987261146
40
0.70573248407643308
40
0.70700636942675155
40
0.70828025477707002
40
0.70955414012738849
40
0.71082802547770696
40
0.71210191082802543
40
0.7133757961783439
40
0.71464968152866237
40
0.71592356687898084
40
0.71719745222929931
40
0.71847133757961779
40
0.71974522292993626
40
0.72101910828025473
40
0.7222929936305732
40
0.72356687898089167
40
0.72484076433121014
40
0.72611464968152861
40
0.72738853503184708
40
0.72866242038216555
40
0.72993630573248403
40
0.7312101910828025
40
0.73248407643312097
40
0.73375796178343944
40
0.73503184713375791
40
0.73630573248407638
40
0.73757961783439485
40
0.73885350318471332
40
0.74012738853503179
40
0.74140127388535026
40
0.74267515923566874
40
0.74394904458598721
40
0.74522292993630568
40
0.74649681528662415
40
0.74777070063694262
40
0.74904458598726109
40
0.75031847133757956
40
0.75159235668789803
40
0.7528662420382165
40
0.75414012738853498
40
0.75541401273885345
40
0.75668789808917192
40
0.75796178343949039
40
0.75923566878980886
40
0.76050955414012733
40
0.7617834394904458
40
0.76305732484076427
40
0.76433121019108274
40
0.76560509554140121
40
0.76687898089171969
40
0.76815286624203816
40
0.76942675159235663
40
0.7707006369426751
40
0.77197452229299357
40
0.77324840764331204
40
0.77452229299363051
40
0.77579617834394898
40
0.77707006369426745
40
0.77834394904458593
40
0.7796178343949044
40
0.78089171974522287
40
0.78216560509554134
40
0.78343949044585981
40
0.78471337579617828
40
0.78598726114649675
40
0.78726114649681522
40
0.78853503184713369
40
0.78980891719745216
40
0.79108280254777064
40
0.79235668789808911
40
0.79363057324840758
40
0.79490445859872605
40
0.79617834394904452
40
0.79745222929936299
40
0.79872611464968146
40
0.79999999999999993
40
0.8012738853503184
40
0.80254777070063688
40
0.80382165605095535
40
0.80509554140127382
40
0.80636942675159229
40
0.80764331210191076
40
0.80891719745222923
40
0.8101910828025477
40
0.81146496815286617
40
0.81273885350318464
40
0.81401273885350311
40
0.81528662420382159
40
0.81656050955414006
40
0.81783439490445853
40
0.819108280254777
40
0.82038216560509547
40
0.82165605095541394
40
0.82292993630573241
40
0.82420382165605088
40
0.82547770700636935
40
0.82675159235668783
40
0.8280254777070063
40
0.82929936305732477
40
0.83057324840764324
40
0.83184713375796171
40
0.83312101910828018
40
0.83439490445859865
40
0.83566878980891712
40
0.83694267515923559
40
0.83821656050955407
40
0.83949044585987254
40
0.84076433121019101
40
0.84203821656050948
40
0.84331210191082795
40
0.84458598726114642
40
0.84585987261146489
40
0.84713375796178336
40
0.84840764331210183
40
0.8496815286624203
40
0.85095541401273878
40
0.85222929936305725
40
0.85350318471337572
40
0.85477707006369419
40
0.85605095541401266
40
0.85732484076433113
40
0.8585987261146496
40
0.85987261146496807
40
0.86114649681528654
40
0.86242038216560502
40
0.86369426751592349
40
0.86496815286624196
40
0.86624203821656043
40
0.8675159235668789
40
0.86878980891719737
40
0.87006369426751584
40
0.87133757961783431
40
0.87261146496815278
40
0.87388535031847125
40
0.87515923566878973
40
0.8764331210191082
40
0.87770700636942667
40
0.87898089171974514
40
0.88025477707006361
40
0.88152866242038208
40
0.88280254777070055
40
0.88407643312101902
40
0.88535031847133749
40
0.88662420382165597
40
0.88789808917197444
40
0.88917197452229291
40
0.89044585987261138
40
0.89171974522292985
40
0.89299363057324832
40
0.89426751592356679
40
0.89554140127388526
40
0.89681528662420373
40
0.8980891719745222
40
0.89936305732484068
40
0.90063694267515915
40
0.90191082802547762
40
0.90318471337579609
40
0.90445859872611456
40
0.90573248407643303
40
0.9070063694267515
40
0.90828025477706997
40
0.90955414012738844
40
0.91082802547770692
40
0.91210191082802539
40
0.91337579617834386
40
0.91464968152866233
40
0.9159235668789808
40
0.91719745222929927
40
0.91847133757961774
40
0.91974522292993621
40
0.92101910828025468
40
0.92229299363057315
40
0.92356687898089163
40
0.9248407643312101
40
0.92611464968152857
40
0.92738853503184704
40
0.92866242038216551
40
0.92993630573248398
40
0.93121019108280245
40
0.93248407643312092
40
0.93375796178343939
40
0.93503184713375787
40
0.93630573248407634
40
0.93757961783439481
40
0.93885350318471328
40
0.94012738853503175
40
0.94140127388535022
40
0.94267515923566869
40
0.94394904458598716
40
0.94522292993630563
40
0.9464968152866241
40
0.94777070063694258
40
0.94904458598726105
40
0.95031847133757952
40
0.95159235668789799
40
0.95286624203821646
40
0.95414012738853493
40
0.9554140127388534
40
0.95668789808917187
40
0.95796178343949034
40
0.95923566878980882
40
0.96050955414012729
40
0.96178343949044576
40
0.96305732484076423
40
0.9643312101910827
40
0.96560509554140117
40
0.96687898089171964
40
0.96815286624203811
40
0.96942675159235658
40
0.97070063694267505
40
0.97197452229299353
40
0.973248407643312
40
0.97452229299363047
40
0.97579617834394894
40
0.97707006369426741
40
0.97834394904458588
40
0.97961783439490435
40
0.98089171974522282
40
0.98216560509554129
40
0.98343949044585977
40
0.98471337579617824
40
0.98598726114649671
40
0.98726114649681518
40
0.98853503184713365
40
0.98980891719745212
40
0.99108280254777059
40
0.99235668789808906
40
0.99363057324840753
40
0.994904458598726
40
0.99617834394904448
40
0.99745222929936295
40
0.99872611464968142
40
1
40
1
40
1
40
1
40
1
40
1
41
1
41
1
41
1
41
1
41
1
41
1
41
1
41
1
41
1
41
1
41
1
41
1
41
1
41
1
41
1
41
1
41
1
41
1
41
1
41
1
41
1
41
1
41
1
41
1
41
1
41
1
41
1
41
1
41
1
41
1
41
1
41
1
41
1
41
1
41
1
41
1
41
1
41
1
41
1
41
1
41
1
41
1
41
1
41
1
41
1
41
1
41
1
41
1
41
1
41
1
41
1
41
1
41
1
41
1
41
1
41
1
41
1
41
1
41
1
41
1
41
1
41
1
41
1
41
1
41
1
41
1
41
1
41
1
41
1
41
1
41
1
41
1
41
1
41
1
41
1
41
1
41
1
41
1
41
1
41
1
41
1
41
1
41
1
41
1
41
1
41
1
41
1
41
1
41
1
41
1
41
1
41
1
41
1
41
1
41
1
41
1
41
1
41
1
41
1
41
1
41
1
41
1
41
1
41
1
41
1
41
1
41
1
41
1
41
1
41
1
41
1
41
1
41
1
41
1
41
1
41
1
41
1
41
1
41
1
41
1
41
1
41
1
41
1
41
1
41
1
41
1
41
1
41
1
41
1
41
1
41
1
41
1
41
1
41
1
41
1
41
1
41
1
41
1
41
1
41
1
41
1
41
1
41
1
41
1
41
1
41
1
41
1
41
1
41
1
41
1
41
1
41
1
41
1
41
1
41
1
41
1
41
1
41
1
41
1
41
1
41
1
41
1
41
1
41
1
41
1
41
1
41
1
41
1
41
1
41
1
41
1
41
1
41
1
41
1
41
1
41
1
41
1
41
1
41
1
41
1
41
1
41
1
41
1
41
1
41
1
41
1
41
1
41
1
41
1
41
1
41
1
41
1
41
1
41
1
41
1
41
1
41
1
41
1
41
1
41
1
41
1
41
1
41
1
41
1
41
1
41
1
41
1
41
1
41
1
41
1
41
1
41
1
41
1
41
1
41
1
41
1
41
1
41
1
41
1
41
1
41
1
41
1
41
1
41
1
41
1
41
1
41
1
41
1
41
1
41
1
41
1
41
1
41
1
41
1
41
1
41
1
41
1
41
1
41
1
41
1
41
1
41
1
41
1
41
1
41
1
41
1
41
1
41
1
41
1
41
1
41
1
41
1
41
1
41
1
41
1
41
1
41
1
41
1
41
1
41
1
41
1
41
1
41
1
41
1
41
1
41
1
41
1
41
1
41
1
41
1
41
1
41
1
41
1
41
1
41
1
41
1
41
1
41
1
41
1
41
1
41
1
41
1
41
1
41
1
41
1
41
1
41
1
41
1
41
1
41
1
41
1
41
1
41
1
41
1
41
1
41
1
41
1
41
1
41
1
41
1
41
1
41
1
41
1
41
1
41
1
41
1
41
1
41
1
41
1
41
1
41
1
41
1
41
1
41
1
41
1
41
1
41
1
41
1
41
1
41
1
41
1
41
1
41
1
41
1
41
1
41
1
41
1
41
1
41
1
41
1
41
1
41
1
41
1
41
1
41
1
41
1
41
1
41
1
41
1
41
1
41
1
41
1
41
1
41
1
41
1
41
1
41
1
41
1
41
1
41
1
41
1
41
1
41
1
41
1
41
1
41
1
41
1
41
1
41
1
41
1
41
1
41
1
41
1
41
1
41
1
41
1
41
1
41
1
41
1
41
1
41
1
41
1
41
1
41
1
41
1
41
1
41
1
41
1
41
1
41
1
41
1
41
1
41
1
41
1
41
1
41
1
41
1
41
1
41
1
41
1
41
1
41
1
41
1
41
1
41
1
41
1
41
1
41
1
41
1
41
1
41
1
41
1
41
1
41
1
41
1
41
1
41
1
41
1
41
1
41
1
41
1
41
1
41
1
41
1
41
1
41
1
41
1
41
1
41
1
41
1
41
1
41
1
41
1
41
1
41
1
41
1
41
1
41
1
41
1
41
1
41
1
41
1
41
1
41
1
41
1
41
1
41
1
41
1
41
1
41
1
41
1
41
1
41
1
41
1
41
1
41
1
41
1
41
1
41
1
41
1
41
1
41
1
41
1
41
1
41
1
41
1
41
1
41
1
41
1
41
1
41
1
41
1
41
1
41
1
41
1
41
1
41
1
41
1
41
1
41
1
41
1
41
1
41
1
41
1
41
1
41
1
41
1
41
1
41
1
41
1
41
1
41
1
41
1
41
1
41
1
41
1
41
1
41
1
41
1
41
1
41
1
41
1
41
1
41
1
41
1
41
1
41
1
41
1
41
1
41
1
41
1
41
1
41
1
41
1
41
1
41
1
41
1
41
1
41
1
41
1
41
1
41
1
41
1
41
1
41
1
41
1
41
1
41
1
41
1
41
1
41
1
41
1
41
1
41
1
41
1
41
1
41
1
41
1
41
1
41
1
41
1
41
1
41
1
41
1
41
1
41
1
41
1
41
1
41
1
41
1
41
1
41
1
41
1
41
1
41
1
41
1
41
1
41
1
41
1
41
1
41
1
41
1
41
1
41
1
41
1
41
1
41
1
41
1
41
1
41
1
41
1
41
1
41
1
41
1
41
1
41
1
41
1
41
1
41
1
41
1
41
1
41
1
41
1
41
1
41
1
41
1
41
1
41
1
41
1
41
1
41
1
41
1
41
1
41
1
41
1
41
1
41
1
41
1
41
1
41
1
41
1
41
1
41
1
41
1
41
1
41
1
41
1
41
1
41
1
41
1
41
1
41
1
41
1
41
1
41
1
41
1
41
1
41
1
41
1
41
1
41
1
41
1
41
1
41
1
41
1
41
1
41
1
41
1
41
1
41
1
41
1
41
1
41
1
41
1
41
1
41
1
41
1
41
1
41
1
41
1
41
1
41
1
41
1
41
1
41
1
41
1
41
1
41
1
41
1
41
1
41
1
41
1
41
1
41
1
41
1
41
1
41
1
41
1
41
1
41
1
41
1
41
1
41
1
41
1
41
1
41
1
41
1
41
1
41
1
41
1
41
1
41
1
41
1
41
1
41
1
41
1
41
1
41
1
41
1
41
1
41
1
41
1
41
1
41
1
41
1
41
1
41
1
41
1
41
1
41
1
41
1
41
1
41
1
41
1
41
1
41
1
41
1
41
1
41
1
41
1
41
1
41
1
41
1
41
1
41
1
41
1
41
1
41
1
41
1
41
1
41
1
41
1
41
1
41
1
41
1
41
1
41
1
41
1
41
1
41
1
41
1
41
1
41
1
41
1
41
1
41
1
41
1
41
1
41
1
41
1
41
1
41
1
41
1
41
1
41
1
41
1
41
1
41
1
41
1
41
1
41
1
41
1
41
1
41
1
41
1
41
1
41
1
41
1
41
1
41
1
41
1
41
1
41
1
41
1
41
1
41
1
41
1
41
1
41
1
41
1
41
1
41
1
41
1
41
1
41
1
41
1
41
1
41
1
41
1
41
1
41
1
41
1
41
1
41
1
41
1
41
1
41
1
41
1
41
1
41
1
41
1
41
1
41
1
41
1
41
1
41
1
41
1
41
1
41
1
41
1
41
1
41
1
41
1
41
1
41
1
41
1
41
1
41
1
41
1
41
1
10
-5.2575000000000003
20
-80.569600000000008
30
0
10
-5.3359791834180381
20
-80.547134129056104
30
0
10
-5.4864444203619236
20
-80.503126890597215
30
0
10
-5.6943302564667029
20
-80.439352169191096
30
0
10
-5.9497031414310673
20
-80.354431537000607
30
0
10
-6.2810263164058044
20
-80.233109642767118
30
0
10
-6.6666882919762616
20
-80.082903778481267
30
0
10
-7.1180337158540397
20
-79.899170868263965
30
0
10
-7.6203908263177924
20
-79.685164507177774
30
0
10
-8.1461974384984082
20
-79.448483275222188
30
0
10
-8.6648192773633816
20
-79.198429870040712
30
0
10
-9.1549439728984652
20
-78.94274290017789
30
0
10
-9.6121941944218268
20
-78.685361283197523
30
0
10
-10.04247733515982
20
-78.427217854796922
30
0
10
-10.457449382936396
20
-78.166511681901113
30
0
10
-10.869492480425381
20
-77.89927257017095
30
0
10
-11.286045263257428
20
-77.619577750839298
30
0
10
-11.708969427513543
20
-77.321207276446302
30
0
10
-12.136171829915696
20
-76.999985468068189
30
0
10
-12.562521930806628
20
-76.655723379290578
30
0
10
-12.980999805243821
20
-76.294736131000491
30
0
10
-13.383921759796937
20
-75.930931375077208
30
0
10
-13.765133542019228
20
-75.579279950340222
30
0
10
-14.122291800759193
20
-75.249672501410728
30
0
10
-14.45866711629424
20
-74.941615556261979
30
0
10
-14.786248478026099
20
-74.636135316913126
30
0
10
-15.123149245541342
20
-74.300273967016409
30
0
10
-15.487378266311268
20
-73.899640506579715
30
0
10
-15.891810354679222
20
-73.408335075196064
30
0
10
-16.33843266070248
20
-72.820390029548648
30
0
10
-16.813543176143003
20
-72.159349726459169
30
0
10
-17.29389779754333
20
-71.467217832011713
30
0
10
-17.752364588463198
20
-70.794322013583994
30
0
10
-18.163568736355941
20
-70.189202776663095
30
0
10
-18.509981058102365
20
-69.687659783953706
30
0
10
-18.786789160948459
20
-69.304103666301643
30
0
10
-19.009881855589914
20
-69.017024192524744
30
0
10
-19.209673600047765
20
-68.780913707838337
30
0
10
-19.418628559336199
20
-68.549072784370253
30
0
10
-19.659011205013666
20
-68.297800215275274
30
0
10
-19.936672158539185
20
-68.033512300627223
30
0
10
-20.245171025577481
20
-67.774934566283122
30
0
10
-20.566337483465006
20
-67.540532592063101
30
0
10
-20.874905544574247
20
-67.336892952923208
30
0
10
-21.155084395361033
20
-67.162257955313279
30
0
10
-21.415141773250745
20
-67.007507868650592
30
0
10
-21.703448727198001
20
-66.858069525751318
30
0
10
-22.078555548593059
20
-66.698699687959504
30
0
10
-22.581880813124858
20
-66.518007230028076
30
0
10
-23.203308085501813
20
-66.314090972704605
30
0
10
-23.891380730667791
20
-66.092700130675169
30
0
10
-24.575690248552608
20
-65.863326660998482
30
0
10
-25.185763086503627
20
-65.635893124390591
30
0
10
-25.670060914100105
20
-65.417419981650355
30
0
10
-26.018159433803866
20
-65.208155898104408
30
0
10
-26.271651096193366
20
-64.999610865724378
30
0
10
-26.48980635865783
20
-64.780129410423299
30
0
10
-26.722219502944597
20
-64.539377505814215
30
0
10
-26.978568501325569
20
-64.273118939955921
30
0
10
-27.245020879378629
20
-63.98370208085322
30
0
10
-27.49922296366309
20
-63.679733201207291
30
0
10
-27.727879939568464
20
-63.377964896656309
30
0
10
-27.928842442389623
20
-63.092233006224987
30
0
10
-28.10888003995947
20
-62.821056753675215
30
0
10
-28.283288096606945
20
-62.531561087551559
30
0
10
-28.473163918988558
20
-62.16194807724569
30
0
10
-28.701560475153887
20
-61.639061557596861
30
0
10
-28.989938354817507
20
-60.891534273082343
30
0
10
-29.354473712806872
20
-59.864844102352365
30
0
10
-29.80249262742533
20
-58.535301262272384
30
0
10
-30.333678536793624
20
-56.905811321855339
30
0
10
-30.941214989851566
20
-55.001781119385754
30
0
10
-31.612951895309482
20
-52.866979970796962
30
0
10
-32.33256177749395
20
-50.559419615422215
30
0
10
-33.080700264555674
20
-48.14722635266083
30
0
10
-33.836164742396605
20
-45.704516546784646
30
0
10
-34.577053713171672
20
-43.307271046379299
30
0
10
-35.281925978285813
20
-41.029209449592003
30
0
10
-35.930959573657248
20
-38.937665949505337
30
0
10
-36.507111579862148
20
-37.089460898319551
30
0
10
-36.997275832468404
20
-35.526782337038412
30
0
10
-37.393445643107405
20
-34.273043974630021
30
0
10
-37.693864973827381
20
-33.328797486320497
30
0
10
-37.904206584750646
20
-32.667518099678908
30
0
10
-38.038687629661048
20
-32.23168413229822
30
0
10
-38.121332524024282
20
-31.928166270162045
30
0
10
-38.177969990698166
20
-31.659150174146763
30
0
10
-38.22895013518977
20
-31.349613363584638
30
0
10
-38.279996430717745
20
-30.983646821931551
30
0
10
-38.32497349248905
20
-30.586483270880599
30
0
10
-38.351849672829928
20
-30.195236382428217
30
0
10
-38.347667486709625
20
-29.82689711372992
30
0
10
-38.303281617772797
20
-29.474065365380216
30
0
10
-38.216058488980956
20
-29.123155383428401
30
0
10
-38.095252291103556
20
-28.76873716088193
30
0
10
-37.959893259034871
20
-28.420915130143278
30
0
10
-37.823245687738414
20
-28.092264840188967
30
0
10
-37.678597011063104
20
-27.788703574842618
30
0
10
-37.4885743707312
20
-27.500576774215443
30
0
10
-37.214017633047433
20
-27.211309567316636
30
0
10
-36.837679073645305
20
-26.903890858225562
30
0
10
-36.392807889409951
20
-26.568713164271152
30
0
10
-35.945272295470339
20
-26.203981714157827
30
0
10
-35.57058155986455
20
-25.815924045211574
30
0
10
-35.334484099327909
20
-25.418398138947808
30
0
10
-35.26790045662424
20
-25.034305607998959
30
0
10
-35.358398064603364
20
-24.691160917845938
30
0
10
-35.569771979517114
20
-24.408525688819573
30
0
10
-35.856503137238313
20
-24.184306185800899
30
0
10
-36.176922517106263
20
-23.990255509360907
30
0
10
-36.495769121069351
20
-23.791519616835792
30
0
10
-36.789317801393537
20
-23.562063371949296
30
0
10
-37.048838973017425
20
-23.299976963597715
30
0
10
-37.274883006279673
20
-23.014198345228998
30
0
10
-37.472251065943553
20
-22.714442699987156
30
0
10
-37.644219174179739
20
-22.397680144801431
30
0
10
-37.792455489269145
20
-22.056995006859484
30
0
10
-37.917732540072826
20
-21.690985204568257
30
0
10
-38.020328508802187
20
-21.317933232741485
30
0
10
-38.10067968684001
20
-20.965021272647277
30
0
10
-38.159935769899434
20
-20.647498505979446
30
0
10
-38.200757769146641
20
-20.345050437506444
30
0
10
-38.227307441215167
20
-19.999715523881527
30
0
10
-38.244207917652339
20
-19.544300899588013
30
0
10
-38.255684140369944
20
-18.925126415777182
30
0
10
-38.264841460007865
20
-18.121395549997889
30
0
10
-38.273978870329977
20
-17.136573125911529
30
0
10
-38.284735767879631
20
-15.994306038713763
30
0
10
-38.298304897161067
20
-14.732538038907769
30
0
10
-38.315616186727446
20
-13.398413331164626
30
0
10
-38.337535096687738
20
-12.042799531525205
30
0
10
-38.365050089710998
20
-10.715070753190208
30
0
10
-38.399475541342355
20
-9.4575551214163038
30
0
10
-38.442622825914455
20
-8.3006501102304355
30
0
10
-38.497048240085398
20
-7.2563380002424802
30
0
10
-38.565981581903614
20
-6.3183395412916639
30
0
10
-38.653038972259402
20
-5.4667480655314513
30
0
10
-38.762000449822956
20
-4.6713235049346329
30
0
10
-38.896559447129071
20
-3.8953572672523382
30
0
10
-39.060087527443116
20
-3.099250868549662
30
0
10
-39.25538510264046
20
-2.2443139525900562
30
0
10
-39.484455669879722
20
-1.2962418816056482
30
0
10
-39.748224841369812
20
-0.22931370662059081
30
0
10
-40.046568480569661
20
0.97340690905509897
30
0
10
-40.378444080271805
20
2.3212034695016843
30
0
10
-40.741988003625274
20
3.8163979449723806
30
0
10
-41.134626977420467
20
5.455226004155886
30
0
10
-41.55318345748276
20
7.2286332074321891
30
0
10
-41.993983628323974
20
9.1231051899463491
30
0
10
-42.452964253809697
20
11.121483084947233
30
0
10
-42.925780038118603
20
13.203785424318149
30
0
10
-43.407910716126224
20
15.348026829377881
30
0
10
-43.894768367751851
20
17.531038954546137
30
0
10
-44.381804379688944
20
19.729288362907884
30
0
10
-44.864617151386248
20
21.919700550926542
30
0
10
-45.339058106017973
20
24.080470097388705
30
0
10
-45.801341632586102
20
26.19190290884972
30
0
10
-46.248145830889136
20
28.237183379943499
30
0
10
-46.676736494786638
20
30.20333123266818
30
0
10
-47.084965644604189
20
32.081134357059632
30
0
10
-47.471223597751518
20
33.864702416094659
30
0
10
-47.834406235023209
20
35.551144445381048
30
0
10
-48.173875930649473
20
37.140194794970377
30
0
10
-48.489425212508962
20
38.633861183436657
30
0
10
-48.781239240004837
20
40.036063470080627
30
0
10
-49.049858823896493
20
41.352275961035645
30
0
10
-49.296143151229685
20
42.589169340134802
30
0
10
-49.521232793619305
20
43.754250157600872
30
0
10
-49.726512242354282
20
44.855507462986154
30
0
10
-49.913573474010811
20
45.90104223405163
30
0
10
-50.084177148640627
20
46.898737261912864
30
0
10
-50.240219599610029
20
47.8558277908989
30
0
10
-50.383678189319937
20
48.778842869267791
30
0
10
-50.516535681880796
20
49.673904289121616
30
0
10
-50.640710657105281
20
50.546925448246341
30
0
10
-50.757984815264827
20
51.403855763091784
30
0
10
-50.869933077680344
20
52.250894964019679
30
0
10
-50.977849079169232
20
53.094744985058959
30
0
10
-51.082680616777267
20
53.942787944064172
30
0
10
-51.184940592780556
20
54.803442291248345
30
0
10
-51.284731930158316
20
55.685693211557719
30
0
10
-51.381830385950096
20
56.598202869328034
30
0
10
-51.475749198220335
20
57.54855406688732
30
0
10
-51.56581138100514
20
58.542434127271534
30
0
10
-51.651218479941136
20
59.582854529342214
30
0
10
-51.731121444427032
20
60.669331612423811
30
0
10
-51.80468920226734
20
61.797138777714942
30
0
10
-51.871181537937161
20
62.956396844569952
30
0
10
-51.930010163920876
20
64.131627122329846
30
0
10
-51.980740430180816
20
65.303637606488238
30
0
10
-52.023100866967354
20
66.451109684867831
30
0
10
-52.056989288677997
20
67.552298737716626
30
0
10
-52.082481281203215
20
68.586691355556155
30
0
10
-52.099835540708952
20
69.536669339939536
30
0
10
-52.10950550611004
20
70.389198411861827
30
0
10
-52.112136797796147
20
71.13744206761541
30
0
10
-52.108597965053974
20
71.782560683256818
30
0
10
-52.099921680265993
20
72.334989519173519
30
0
10
-52.086649870286259
20
72.811179600075945
30
0
10
-52.068135833357545
20
73.230669822878141
30
0
10
-52.042053861459927
20
73.613151592839415
30
0
10
-52.00335733926498
20
73.975243277254904
30
0
10
-51.945395710139167
20
74.328735620649766
30
0
10
-51.862301729307006
20
74.680313975618958
30
0
10
-51.751597997931739
20
75.030321475163618
30
0
10
-51.614867534922809
20
75.373571951150367
30
0
10
-51.454448483866734
20
75.70354316599807
30
0
10
-51.270729058099008
20
76.016161102512768
30
0
10
-51.059951366688253
20
76.312915170215703
30
0
10
-50.819376229222883
20
76.596156637648193
30
0
10
-50.551170182215124
20
76.86559537083123
30
0
10
-50.267892618019864
20
77.113491248343209
30
0
10
-49.98307910615496
20
77.331226483917959
30
0
10
-49.702196605780237
20
77.515574745946054
30
0
10
-49.410086622534479
20
77.677657634739774
30
0
10
-49.077528733101417
20
77.837408450657904
30
0
10
-48.674752684054276
20
78.013012222408122
30
0
10
-48.185140015114612
20
78.209691842413648
30
0
10
-47.609970908556313
20
78.417075539849705
30
0
10
-46.961514634641155
20
78.617407435219292
30
0
10
-46.259289420384093
20
78.790800148789771
30
0
10
-45.524968426866543
20
78.921800880932452
30
0
10
-44.778001243641029
20
79.005149985387519
30
0
10
-44.030561199115652
20
79.052549458314331
30
0
10
-43.289187584235911
20
79.087360411954407
30
0
10
-42.556956913082942
20
79.138275719666382
30
0
10
-41.835405695174899
20
79.233516521160738
30
0
10
-41.126695124371693
20
79.394453327216524
30
0
10
-40.435352341847455
20
79.630299583883073
30
0
10
-39.770984546855232
20
79.930301573605846
30
0
10
-39.147413948998341
20
80.26516231078827
30
0
10
-38.578306491154592
20
80.597480547496644
30
0
10
-38.07380707372274
20
80.889653457343158
30
0
10
-37.636655445203296
20
81.112980757948336
30
0
10
-37.258775064914971
20
81.255871761151468
30
0
10
-36.917007857050244
20
81.333440141252353
30
0
10
-36.583571019917727
20
81.372975650340763
30
0
10
-36.235864811041537
20
81.400017421111414
30
0
10
-35.869220085175364
20
81.420782437871694
30
0
10
-35.492476260238355
20
81.426400975879119
30
0
10
-35.118677598127086
20
81.403551685205315
30
0
10
-34.755472901334478
20
81.345084495692333
30
0
10
-34.402964274554598
20
81.252574192052521
30
0
10
-34.059139551606329
20
81.130438676864856
30
0
10
-33.723790189695407
20
80.981780608910782
30
0
10
-33.401128492590047
20
80.805567493018501
30
0
10
-33.096710670867644
20
80.599877849792762
30
0
10
-32.815486418550861
20
80.363959529648312
30
0
10
-32.559597162806462
20
80.10050676989917
30
0
10
-32.329154701650666
20
79.814111546633654
30
0
10
-32.122720433257349
20
79.510098985686867
30
0
10
-31.937938429325634
20
79.193127443193731
30
0
10
-31.771772615602835
20
78.866931238618349
30
0
10
-31.62076995550084
20
78.534258159548088
30
0
10
-31.481206588297571
20
78.196597549092274
30
0
10
-31.349765792494821
20
77.85463236608301
30
0
10
-31.224382819589536
20
77.508867496876903
30
0
10
-31.105231227152842
20
77.160517670078661
30
0
10
-30.994971450011583
20
76.811240972547182
30
0
10
-30.897882898767797
20
76.461556865095446
30
0
10
-30.81936483414799
20
76.10917353211947
30
0
10
-30.765028616251513
20
75.748548169281577
30
0
10
-30.738492388389261
20
75.376298137273665
30
0
10
-30.739470122970125
20
74.995541778629743
30
0
10
-30.7615011740622
20
74.621049199625659
30
0
10
-30.79862176924977
20
74.26737821183454
30
0
10
-30.850875318836035
20
73.938755308587517
30
0
10
-30.932880446861461
20
73.614384257157781
30
0
10
-31.064309850118335
20
73.261084919222924
30
0
10
-31.257275968071163
20
72.851137126243998
30
0
10
-31.501051695898209
20
72.382956529166492
30
0
10
-31.76307693603502
20
71.881818867915882
30
0
10
-32.003755731097485
20
71.38343881387209
30
0
10
-32.187237952788472
20
70.922556605438515
30
0
10
-32.293889459240638
20
70.519410857907062
30
0
10
-32.331908368807611
20
70.167281343752535
30
0
10
-32.323221337828784
20
69.843716398771633
30
0
10
-32.290680685944466
20
69.5208798739759
30
0
10
-32.24239541589548
20
69.177811671415299
30
0
10
-32.175185087809652
20
68.799864012644917
30
0
10
-32.08185450578415
20
68.375499050565622
30
0
10
-31.958350183823001
20
67.893339489746566
30
0
10
-31.805873894103453
20
67.341894847124181
30
0
10
-31.628734150222741
20
66.711647230214496
30
0
10
-31.43348871774382
20
65.996422214958727
30
0
10
-31.227556567675805
20
65.195044762481672
30
0
10
-31.018048450881579
20
64.312899153384507
30
0
10
-30.810528333519112
20
63.363457175122662
30
0
10
-30.60913191817038
20
62.365991490780829
30
0
10
-30.416638310201272
20
61.343374349323369
30
0
10
-30.234561206523235
20
60.31985519157444
30
0
10
-30.063229491767554
20
59.318821686988194
30
0
10
-29.901877583900959
20
58.360627092514164
30
0
10
-29.748719471667037
20
57.460251481424478
30
0
10
-29.601058061410988
20
56.625356193072236
30
0
10
-29.455308882098699
20
55.853368395073275
30
0
10
-29.307356676026775
20
55.132342233224222
30
0
10
-29.153193560323572
20
54.444989612172378
30
0
10
-28.989471808174034
20
53.771789253643362
30
0
10
-28.814103681072119
20
53.09452296457323
30
0
10
-28.626813454201777
20
52.399516288273631
30
0
10
-28.429775901916084
20
51.681274514981808
30
0
10
-28.228025259447577
20
50.945165278340966
30
0
10
-28.028202842506648
20
50.203322373463365
30
0
10
-27.837456859290789
20
49.471179309325947
30
0
10
-27.662307115152398
20
48.763833318907885
30
0
10
-27.507471706416325
20
48.092318049593672
30
0
10
-27.374833963169422
20
47.460298041641082
30
0
10
-27.262031627576995
20
46.859601844762075
30
0
10
-27.163062069914222
20
46.271976552546548
30
0
10
-27.069662428888375
20
45.673235026665338
30
0
10
-26.972450059823977
20
45.03666361957292
30
0
10
-26.862135372777551
20
44.336651706869013
30
0
10
-26.730768951703936
20
43.552431315664855
30
0
10
-26.572780153812442
20
42.671160702135431
30
0
10
-26.38465759339217
20
41.686742281193958
30
0
10
-26.164789796165557
20
40.599143402485858
30
0
10
-25.913243848711161
20
39.41352265932175
30
0
10
-25.631570503888341
20
38.139438752795385
30
0
10
-25.322597836805379
20
36.790024594760965
30
0
10
-24.990230050979996
20
35.381174812812418
30
0
10
-24.639243602116242
20
33.930731251164033
30
0
10
-24.275085597792071
20
32.457660685225783
30
0
10
-23.903668629021698
20
30.981256188334999
30
0
10
-23.531173585503879
20
29.520277995323099
30
0
10
-23.163822731968779
20
28.092326058057747
30
0
10
-22.807626107199589
20
26.713422130617484
30
0
10
-22.468135249717136
20
25.397533260986222
30
0
10
-22.150194119902451
20
24.15611978456262
30
0
10
-21.857690749672383
20
22.997671615936692
30
0
10
-21.593309650842301
20
21.927252278791372
30
0
10
-21.358281371817561
20
20.94603321693992
30
0
10
-21.152139101906748
20
20.050846997095732
30
0
10
-20.972458648378023
20
19.233698018859219
30
0
10
-20.814637581784751
20
18.481372434837777
30
0
10
-20.671571400243145
20
17.774787526935384
30
0
10
-20.534583933686598
20
17.091524332248866
30
0
10
-20.394504480951046
20
16.408738971472797
30
0
10
-20.242670798848508
20
15.705871697172693
30
0
10
-20.07201224596362
20
14.967591970904607
30
0
10
-19.877984743401374
20
14.186291461584055
30
0
10
-19.659849914977887
20
13.365636030326007
30
0
10
-19.420724668284606
20
12.520329770807312
30
0
10
-19.16629643773463
20
11.671777250808058
30
0
10
-18.903888738541845
20
10.844808249384377
30
0
10
-18.641389587178715
20
10.064017947553147
30
0
10
-18.386225660043202
20
9.3501602135747106
30
0
10
-18.144347027847108
20
8.716777885473169
30
0
10
-17.919133906651123
20
8.1661023821562289
30
0
10
-17.710582836294421
20
7.6873281949499175
30
0
10
-17.515228133271467
20
7.2604479641166026
30
0
10
-17.325837467021717
20
6.8589624103052858
30
0
10
-17.131365049294683
20
6.4530699006565015
30
0
10
-16.916367286894282
20
6.012571164099243
30
0
10
-16.663569454772134
20
5.5103952059638006
30
0
10
-16.357276021844811
20
4.9261583840002077
30
0
10
-15.986594684925329
20
4.2498699046926687
30
0
10
-15.54852244425984
20
3.4852316174273841
30
0
10
-15.051605917041734
20
2.653933170474577
30
0
10
-14.517780394004145
20
1.7970091705997537
30
0
10
-13.976765931839179
20
0.96435064129548831
30
0
10
-13.461566201019252
20
0.20596258217408009
30
0
10
-13.00354666255801
20
-0.43743442315113368
30
0
10
-12.627668622044739
20
-0.94358285073434445
30
0
10
-12.347710605071924
20
-1.3178226547384211
30
0
10
-12.161364642249961
20
-1.602579086549285
30
0
10
-12.045783462535589
20
-1.8856560153165294
30
0
10
-11.970169856560904
20
-2.2600660785654796
30
0
10
-11.906845564071666
20
-2.7887079236559043
30
0
10
-11.844955785307693
20
-3.4601746169056362
30
0
10
-11.785648081813653
20
-4.2079019340467667
30
0
10
-11.733844035539258
20
-4.9411687186527384
30
0
10
-11.690761430316766
20
-5.5731531232012763
30
0
10
-11.647075017296915
20
-6.0476504984222128
30
0
10
-11.573516733417241
20
-6.3725390487683242
30
0
10
-11.419830659859505
20
-6.6307357477455353
30
0
10
-11.136827122878767
20
-6.9282950509397825
30
0
10
-10.69479107969739
20
-7.3528389322297096
30
0
10
-10.101881048581005
20
-7.9308191471425573
30
0
10
-9.393311102314911
20
-8.643999761701016
30
0
10
-8.6223328396560355
20
-9.4421167482234871
30
0
10
-7.850469553584043
20
-10.257104749579803
30
0
10
-7.1381872783105074
20
-11.016474458921016
30
0
10
-6.5351034694735759
20
-11.657476058134844
30
0
10
-6.0710340870307196
20
-12.139943955355385
30
0
10
-5.7451462717341748
20
-12.462060656952081
30
0
10
-5.5206149854981597
20
-12.667663655545486
30
0
10
-5.3412776088571201
20
-12.819516575145053
30
0
10
-5.1450866399294597
20
-12.977744690585446
30
0
10
-4.878681051104615
20
-13.175994435652289
30
0
10
-4.5056090288502091
20
-13.426122750544529
30
0
10
-4.0134473710165182
20
-13.722891745123302
30
0
10
-3.424065069583857
20
-14.048583347154795
30
0
10
-2.7841612404739093
20
-14.378247469391599
30
0
10
-2.1503691939609966
20
-14.68502556428313
30
0
10
-1.5757520725975052
20
-14.945657694956028
30
0
10
-1.0966890456924059
20
-15.145444794883065
30
0
10
-0.71727297254061617
20
-15.284561551423025
30
0
10
-0.4018827788945572
20
-15.380360487714842
30
0
10
-0.10123537141406271
20
-15.453326093488652
30
0
10
0.22663758521236133
20
-15.515684043319256
30
0
10
0.59325155771332139
20
-15.558491992379317
30
0
10
0.98834630833253334
20
-15.565472635791531
30
0
10
1.3889460570867771
20
-15.525085239817111
30
0
10
1.7673808213327806
20
-15.447204523866947
30
0
10
2.103864019492371
20
-15.352411878646084
30
0
10
2.3968838111570427
20
-15.256500518836507
30
0
10
2.6808825374423524
20
-15.151320553689086
30
0
10
3.0147047234159041
20
-15.008386639311093
30
0
10
3.4503366194214729
20
-14.79956417832506
30
0
10
4.0019633861009778
20
-14.5159912583077
30
0
10
4.6317987167170429
20
-14.177598810135951
30
0
10
5.2769896982156634
20
-13.817749105652386
30
0
10
5.8670815668077161
20
-13.473631179197669
30
0
10
6.3463531618989402
20
-13.173731275191919
30
0
10
6.6915649989927273
20
-12.927968429131537
30
0
10
6.9381371556049443
20
-12.713037150352971
30
0
10
7.1579402605569467
20
-12.485121447002204
30
0
10
7.4275668388169658
20
-12.198032523642016
30
0
10
7.7938050948360713
20
-11.822824508883309
30
0
10
8.265115562536451
20
-11.353127863363655
30
0
10
8.8253797748681038
20
-10.798229894193611
30
0
10
9.4410606102333006
20
-10.179760624692859
30
0
10
10.071191388510556
20
-9.5268756915229726
30
0
10
10.675892258526723
20
-8.8721217882206744
30
0
10
11.226140952663673
20
-8.2469179534045551
30
0
10
11.71116129189566
20
-7.6774561691662395
30
0
10
12.131756848948845
20
-7.1819480291036699
30
0
10
12.495388172791849
20
-6.7680459809419444
30
0
10
12.810129514605705
20
-6.4295713767256295
30
0
10
13.080134246207308
20
-6.1449686232757408
30
0
10
13.297887658183264
20
-5.8714651559754207
30
0
10
13.448940749835332
20
-5.5563423838667916
30
0
10
13.523609113823781
20
-5.1573612840042449
30
0
10
13.529266950894183
20
-4.6648858794913428
30
0
10
13.493759284883886
20
-4.1089213021084223
30
0
10
13.452204232711445
20
-3.5382191222680399
30
0
10
13.437172266515793
20
-3.0055332526160705
30
0
10
13.468594364893082
20
-2.551159350798514
30
0
10
13.540982899473589
20
-2.1852003811432459
30
0
10
13.636946669480777
20
-1.8909334373073958
30
0
10
13.742772974010375
20
-1.6325938506702165
30
0
10
13.868233226397033
20
-1.3603937998788695
30
0
10
14.041784929016309
20
-1.0218666529397273
30
0
10
14.29288258580338
20
-0.57459980151056811
30
0
10
14.635488678308153
20
-0.0013170389120297791
30
0
10
15.060603096612176
20
0.68535485349481395
30
0
10
15.545103291642883
20
1.4534918869786386
30
0
10
16.056520509411978
20
2.2587720074695814
30
0
10
16.55939259110621
20
3.0527796589349854
30
0
10
17.021114561964136
20
3.7909261576053384
30
0
10
17.417603467872283
20
4.4400299452650929
30
0
10
17.740008965595067
20
4.9872581808861352
30
0
10
17.997966683922876
20
5.4446948156717472
30
0
10
18.211632286377977
20
5.8396935547498714
30
0
10
18.405357752092851
20
6.207396533133819
30
0
10
18.601236350142557
20
6.5828700280544012
30
0
10
18.811408762694935
20
6.9922248663461772
30
0
10
19.038276418825653
20
7.4508509841420825
30
0
10
19.278085462920981
20
7.9646454127165756
30
0
10
19.523361510513695
20
8.5303546970589661
30
0
10
19.765946621143893
20
9.136082668250241
30
0
10
19.999414454298197
20
9.7623355420796738
30
0
10
20.219166093890731
20
10.387392481551423
30
0
10
20.422762171817809
20
10.992011695383141
30
0
10
20.610194688355186
20
11.564649359659105
30
0
10
20.784116903460088
20
12.105876421554564
30
0
10
20.95026044865174
20
12.634602596313137
30
0
10
21.116995026245196
20
13.186805130318433
30
0
10
21.294325351058827
20
13.809416435685433
30
0
10
21.493051737944
20
14.555630707146904
30
0
10
21.723874752525873
20
15.479690249450748
30
0
10
21.996496971631441
20
16.631743694012606
30
0
10
22.318788688898081
20
18.053026060848396
30
0
10
22.695772420730357
20
19.770035703524126
30
0
10
23.129246331781978
20
21.792298903428588
30
0
10
23.61826943534032
20
24.11498599514923
30
0
10
24.159432997581561
20
26.72032334312938
30
0
10
24.747218543313672
20
29.579493120762685
30
0
10
25.374318781193523
20
32.654324235861701
30
0
10
26.031974465060085
20
35.899073018279559
30
0
10
26.710304372603414
20
39.262165160404926
30
0
10
27.398638242420454
20
42.687954287965546
30
0
10
28.085848406829307
20
46.118473273942897
30
0
10
28.760682027179271
20
49.495188747154735
30
0
10
29.412092957465077
20
52.760753975174488
30
0
10
30.029574024027802
20
55.860763006767009
30
0
10
30.603488539251138
20
58.7455030172611
30
0
10
31.12540352834738
20
61.371710452721473
30
0
10
31.588419038779488
20
63.704318689940621
30
0
10
31.987506566659093
20
65.718225498152876
30
0
10
32.319826358904081
20
67.400014779053237
30
0
10
32.585093825218024
20
68.749784755329628
30
0
10
32.785831947951849
20
69.782729245702711
30
0
10
32.927888705951311
20
70.531293197533586
30
0
10
33.020334951861059
20
71.04598468513484
30
0
10
33.076897248998435
20
71.399545588489858
30
0
10
33.110310901391244
20
71.674610861831965
30
0
10
33.125714803836928
20
71.946576058897605
30
0
10
33.110921007439536
20
72.264592607351858
30
0
10
33.04038631063414
20
72.645994088438158
30
0
10
32.892556458391596
20
73.086447224313517
30
0
10
32.666300747878807
20
73.565806434484159
30
0
10
32.389838357854075
20
74.055855343987048
30
0
10
32.104352140597243
20
74.527170068484864
30
0
10
31.851668787230828
20
74.956885686747952
30
0
10
31.661836356167363
20
75.33491326849061
30
0
10
31.536933476996602
20
75.673782087160106
30
0
10
31.459172494494624
20
75.999561714454245
30
0
10
31.406000993841083
20
76.338083159048907
30
0
10
31.366110937026278
20
76.699243484387438
30
0
10
31.342778117683409
20
77.075268978270515
30
0
10
31.344281365347189
20
77.452468279906086
30
0
10
31.376923510937736
20
77.820588053194896
30
0
10
31.440093248599293
20
78.179015254480518
30
0
10
31.530849397957212
20
78.530496620533071
30
0
10
31.646635147237948
20
78.877267633855254
30
0
10
31.788435842857837
20
79.21661982128856
30
0
10
31.958720842614383
20
79.543300116937544
30
0
10
32.159889817913104
20
79.851254783963725
30
0
10
32.392402439607189
20
80.13577691225386
30
0
10
32.654552645189405
20
80.393796319653589
30
0
10
32.942689305456192
20
80.623798273208308
30
0
10
33.250804345129801
20
80.826162202872183
30
0
10
33.572444735218923
20
81.00204513981096
30
0
10
33.903087477607649
20
81.151921433999661
30
0
10
34.243662773739707
20
81.273533309779822
30
0
10
34.599276295689577
20
81.362419237779648
30
0
10
34.972276243341753
20
81.415552651427788
30
0
10
35.35528707881123
20
81.434908018183151
30
0
10
35.728358237831337
20
81.429057508402821
30
0
10
36.075305183915475
20
81.405412415396768
30
0
10
36.396837358237548
20
81.364023513190361
30
0
10
36.725460653480766
20
81.29054345061175
30
0
10
37.101126483326958
20
81.167483107057578
30
0
10
37.549406261617129
20
80.984375050333227
30
0
10
38.053304911289615
20
80.75067372787187
30
0
10
38.56624591404276
20
80.491058214117146
30
0
10
39.037080547864342
20
80.235736659650868
30
0
10
39.429402960023261
20
80.012887074489058
30
0
10
39.747011374900325
20
79.839171384325894
30
0
10
40.045097021716487
20
79.714270545677508
30
0
10
40.39577482774996
20
79.627948842977517
30
0
10
40.860783409716163
20
79.56512713540603
30
0
10
41.461957938880559
20
79.511663323482566
30
0
10
42.190675301061717
20
79.45483439678118
30
0
10
43.016184476737905
20
79.384064764779524
30
0
10
43.894264272974929
20
79.291521657125259
30
0
10
44.776009547810069
20
79.172841434211023
30
0
10
45.615934307990848
20
79.027626634302109
30
0
10
46.3819464449479
20
78.86047633768689
30
0
10
47.057174504066232
20
78.679767251986661
30
0
10
47.636628944733843
20
78.495027395428679
30
0
10
48.125421428577909
20
78.314717206904959
30
0
10
48.536337461676965
20
78.14387810990651
30
0
10
48.887693767263904
20
77.981753278498587
30
0
10
49.201036719038065
20
77.819664762114471
30
0
10
49.496060649659412
20
77.645503457345242
30
0
10
49.786098291477401
20
77.44776580339331
30
0
10
50.072343544283335
20
77.220136834761192
30
0
10
50.34767089691524
20
76.96196155882329
30
0
10
50.601868518433086
20
76.677424964770864
30
0
10
50.827117134325036
20
76.37625668857352
30
0
10
51.01994998732637
20
76.069268836842795
30
0
10
51.180573555561921
20
75.762165117473828
30
0
10
51.313379033785438
20
75.447677821173514
30
0
10
51.425727803805245
20
75.10562645000951
30
0
10
51.524940945045628
20
74.715001259322605
30
0
10
51.615378260970431
20
74.264256091881578
30
0
10
51.696332297740632
20
73.759354522191543
30
0
10
51.764597745147547
20
73.215208734348252
30
0
10
51.816504630521834
20
72.649103873125355
30
0
10
51.849938098918436
20
72.074123221806744
30
0
10
51.866916697428707
20
71.49063672870146
30
0
10
51.873198734771826
20
70.888186303796218
30
0
10
51.876232761873695
20
70.253154152608857
30
0
10
51.883608734333365
20
69.574712118880925
30
0
10
51.901332266955592
20
68.851310326205152
30
0
10
51.932102102922862
20
68.097345471793375
30
0
10
51.97379536071162
20
67.348557730855219
30
0
10
52.021063741893158
20
66.648888210521875
30
0
10
52.066684969015931
20
66.039076846939807
30
0
10
52.103066651902175
20
65.543650999901615
30
0
10
52.123550215252592
20
65.160760959105943
30
0
10
52.124134784504783
20
64.845452835131823
30
0
10
52.103667847259146
20
64.517192036508021
30
0
10
52.062712304894482
20
64.087394676678585
30
0
10
52.00269705956827
20
63.484277377768301
30
0
10
51.925208335247788
20
62.67002082688704
30
0
10
51.832058006338954
20
61.632590699233639
30
0
10
51.725183986406257
20
60.382773223908998
30
0
10
51.606618316520212
20
58.949122363225179
30
0
10
51.478426310336573
20
57.373801973179255
30
0
10
51.342658137975903
20
55.708037613475973
30
0
10
51.2012950904004
20
54.007749207435538
30
0
10
51.056198050083388
20
52.329076477619559
30
0
10
50.909055204571352
20
50.724018910338124
30
0
10
50.761329633069323
20
49.235867470097972
30
0
10
50.614208004986409
20
47.895099125068
30
0
10
50.468546062402943
20
46.714108282560133
30
0
10
50.324833189983536
20
45.688702018184827
30
0
10
50.183163004148632
20
44.801760457761389
30
0
10
50.043202131551929
20
44.026174256676846
30
0
10
49.904159305705889
20
43.328091294593534
30
0
10
49.764755324500804
20
42.670014054025287
30
0
10
49.623190301106213
20
42.013999548757106
30
0
10
49.477117571551695
20
41.324724677775968
30
0
10
49.323599999469032
20
40.572851782392078
30
0
10
49.159277022315415
20
39.73492515513145
30
0
10
48.980554545670813
20
38.792894669102743
30
0
10
48.783786593553756
20
37.733772449790614
30
0
10
48.565460623067338
20
36.549233482422039
30
0
10
48.322380828312404
20
35.235240423173479
30
0
10
48.051853327756461
20
33.791657899738496
30
0
10
47.751868188672375
20
32.221871710992566
30
0
10
47.421288296809614
20
30.5324051965362
30
0
10
47.060022521870764
20
28.732538638046876
30
0
10
46.669236412264461
20
26.83392310834823
30
0
10
46.251449124145424
20
24.850210322438343
30
0
10
45.810300727249079
20
22.796728304795138
30
0
10
45.350378403410161
20
20.690148904962587
30
0
10
44.877019396613107
20
18.548158547631427
30
0
10
44.396123889309493
20
16.389127615467764
30
0
10
43.913963622095203
20
14.231780428498535
30
0
10
43.436992335922255
20
12.094864972982567
30
0
10
42.971655467060557
20
9.996822736810568
30
0
10
42.524200083607504
20
7.9554585030275611
30
0
10
42.100484903934721
20
5.987610140542051
30
0
10
41.70578984052122
20
4.1088184204180118
30
0
10
41.344626753826795
20
2.3329967280453259
30
0
10
41.020547327643243
20
0.67210098741324009
30
0
10
40.735957630352914
20
-0.86420095586780488
30
0
10
40.491917106595452
20
-2.2688587470727795
30
0
10
40.287973827103649
20
-3.5377718044877038
30
0
10
40.121912570136303
20
-4.670114805989158
30
0
10
39.989775320191391
20
-5.6686838887082214
30
0
10
39.886500519137051
20
-6.5402815292043854
30
0
10
39.80643987724234
20
-7.2961027599376846
30
0
10
39.743919880128196
20
-7.9521017889453152
30
0
10
39.693793477131464
20
-8.529410775786733
30
0
10
39.651974438823011
20
-9.0546345266018093
30
0
10
39.616030662496485
20
-9.5604416995027179
30
0
10
39.58559967719021
20
-10.085304161916273
30
0
10
39.56162370358517
20
-10.667455277139222
30
0
10
39.545726510293534
20
-11.339645822803181
30
0
10
39.539509885400548
20
-12.123254089729741
30
0
10
39.543943356638394
20
-13.023446596237392
30
0
10
39.558566318547214
20
-14.021948443932402
30
0
10
39.581430544221959
20
-15.079515271789781
30
0
10
39.609558763539439
20
-16.145217288441799
30
0
10
39.639247608043561
20
-17.163646525624866
30
0
10
39.666442493375833
20
-18.083127991378024
30
0
10
39.687063726799664
20
-18.863160331901817
30
0
10
39.697395250855536
20
-19.48297828705768
30
0
10
39.694348904430804
20
-19.94777971587526
30
0
10
39.676027445685193
20
-20.300675158114295
30
0
10
39.640850779039091
20
-20.604841554384571
30
0
10
39.586583691477692
20
-20.918709194300483
30
0
10
39.508653912860076
20
-21.26701640746883
30
0
10
39.401470711881991
20
-21.637934133150516
30
0
10
39.261940665861424
20
-22.005630460695581
30
0
10
39.093527257012902
20
-22.34796022905385
30
0
10
38.906648687655021
20
-22.659545433216511
30
0
10
38.709428755716019
20
-22.944384787820283
30
0
10
38.499784385304238
20
-23.212623713720774
30
0
10
38.258495982866869
20
-23.475825586799452
30
0
10
37.975597221638402
20
-23.745620773639221
30
0
10
37.671289590850719
20
-24.03188099378778
30
0
10
37.426288951176339
20
-24.341076229468758
30
0
10
37.339831011490404
20
-24.675075604454271
30
0
10
37.482335577015952
20
-25.030405260064978
30
0
10
37.838220134157147
20
-25.396650106291322
30
0
10
38.322179074754636
20
-25.759353613882542
30
0
10
38.824422835982396
20
-26.104672838785696
30
0
10
39.244249386658659
20
-26.423198776819497
30
0
10
39.533298971559049
20
-26.714719965620755
30
0
10
39.720064751909931
20
-26.990787448895102
30
0
10
39.862474501433709
20
-27.268649923003046
30
0
10
40.011148212018377
20
-27.566274810810576
30
0
10
40.16739356985839
20
-27.897254970624545
30
0
10
40.307630783647816
20
-28.265171721038477
30
0
10
40.405571414385129
20
-28.659897739342419
30
0
10
40.460512158046072
20
-29.048842029512933
30
0
10
40.488850156925906
20
-29.397029605786926
30
0
10
40.507225008124635
20
-29.690992579686334
30
0
10
40.514502069159477
20
-29.969714154647189
30
0
10
40.490210280632184
20
-30.319268126596452
30
0
10
40.407349736064198
20
-30.838905532671433
30
0
10
40.242226903502399
20
-31.611795752750194
30
0
10
39.981697086882143
20
-32.685007489234373
30
0
10
39.620446727307026
20
-34.077869303708674
30
0
10
39.160525329412899
20
-35.784066390098516
30
0
10
38.609968779694334
20
-37.776258978684318
30
0
10
37.981811355499609
20
-40.009622371665955
30
0
10
37.292930599268878
20
-42.425850543986748
30
0
10
36.562964073027224
20
-44.956960498444893
30
0
10
35.813195492281963
20
-47.529181110978641
30
0
10
35.065453383930226
20
-50.066808250648798
30
0
10
34.341005947690611
20
-52.496068038476722
30
0
10
33.65945386592783
20
-54.748991352116512
30
0
10
33.037632537014765
20
-56.767249304146539
30
0
10
32.48849035388217
20
-58.506085135333251
30
0
10
32.020023407985747
20
-59.93802004471388
30
0
10
31.634078553659762
20
-61.057085907568194
30
0
10
31.325464739948735
20
-61.881824182387319
30
0
10
31.080289757417709
20
-62.461387080010084
30
0
10
30.8781458577485
20
-62.866150822695914
30
0
10
30.69604543089919
20
-63.171109083188746
30
0
10
30.511730886954702
20
-63.442140810469034
30
0
10
30.307396494998326
20
-63.71978747540421
30
0
10
30.072807720865477
20
-64.007912545562959
30
0
10
29.805997774764187
20
-64.291335468361794
30
0
10
29.513774180317952
20
-64.549946251625542
30
0
10
29.213291521274275
20
-64.775066865989587
30
0
10
28.920335500029136
20
-64.967606418478823
30
0
10
28.639041485538201
20
-65.13505015744478
30
0
10
28.346086256068375
20
-65.289087566052544
30
0
10
28.003962009200993
20
-65.441939609806909
30
0
10
27.582759246403981
20
-65.602912031675658
30
0
10
27.084776563129005
20
-65.773757623085302
30
0
10
26.547182841468935
20
-65.948660333015013
30
0
10
26.019631486906206
20
-66.119084280202827
30
0
10
25.548369063865067
20
-66.277376289071398
30
0
10
25.15836358247908
20
-66.420752343973462
30
0
10
24.834511802345148
20
-66.555452428978981
30
0
10
24.541323006099447
20
-66.692832305377522
30
0
10
24.242793020463314
20
-66.845132369608223
30
0
10
23.926568672588683
20
-67.021043725192456
30
0
10
23.600943016647079
20
-67.223708868922344
30
0
10
23.282486500219708
20
-67.450581392136613
30
0
10
22.985356399120747
20
-67.690998527291029
30
0
10
22.715327056604004
20
-67.930802767201016
30
0
10
22.470834972907454
20
-68.162141479833494
30
0
10
22.241366844290958
20
-68.394157442325408
30
0
10
22.008886757467927
20
-68.656467489146138
30
0
10
21.754659427882803
20
-68.981956277123203
30
0
10
21.465332525145197
20
-69.393092812531023
30
0
10
21.138821095576287
20
-69.887950202420527
30
0
10
20.780616732247509
20
-70.448183365807907
30
0
10
20.400732910665283
20
-71.045454264106226
30
0
10
20.010268759306623
20
-71.648724338199571
30
0
10
19.618449428391408
20
-72.230571810230657
30
0
10
19.228685669535004
20
-72.775424053704796
30
0
10
18.83814897812363
20
-73.281003228569631
30
0
10
18.440762163431884
20
-73.753200241101609
30
0
10
18.029245387592301
20
-74.202755167874116
30
0
10
17.597578747912404
20
-74.641162946746505
30
0
10
17.143215444610135
20
-75.076995705062217
30
0
10
16.669593544595227
20
-75.511816266361166
30
0
10
16.183694596732579
20
-75.942221241865042
30
0
10
15.693449641110767
20
-76.362111259766948
30
0
10
15.205048161531824
20
-76.76497541410869
30
0
10
14.720631887491669
20
-77.145953693092352
30
0
10
14.234987295365482
20
-77.504519719726574
30
0
10
13.735612151221943
20
-77.845050261050915
30
0
10
13.208245731568107
20
-78.173982641791781
30
0
10
12.641019121639015
20
-78.497812986709022
30
0
10
12.029384363583073
20
-78.820661928500456
30
0
10
11.380193209850727
20
-79.142242858638667
30
0
10
10.717499032245602
20
-79.455086043589944
30
0
10
10.075361086446225
20
-79.747245501310402
30
0
10
9.4884988021871557
20
-80.005915177685836
30
0
10
8.9832599159641155
20
-80.220898518042929
30
0
10
8.5694272083195049
20
-80.387760962324194
30
0
10
8.2293367654857956
20
-80.512027018077092
30
0
10
7.915573175994707
20
-80.610033806346607
30
0
10
7.5718591668700563
20
-80.700752734702434
30
0
10
7.1500756981848141
20
-80.79910191332759
30
0
10
6.6277651081361579
20
-80.909119600509143
30
0
10
6.0022855045785342
20
-81.027293125117197
30
0
10
5.2863924715973667
20
-81.145242923256617
30
0
10
4.5031886171951738
20
-81.252762785400819
30
0
10
3.6815193307631393
20
-81.340465306642571
30
0
10
2.8507407038818746
20
-81.403196753592454
30
0
10
2.0374772881903649
20
-81.440750956965388
30
0
10
1.264300066836197
20
-81.455891026911175
30
0
10
0.54791127409390827
20
-81.453107471428709
30
0
10
-0.10252085528082541
20
-81.437056171200368
30
0
10
-0.6869733696486402
20
-81.411178032044219
30
0
10
-1.2164831510523424
20
-81.376134845155747
30
0
10
-1.714150484189543
20
-81.328620564045849
30
0
10
-2.2068401320832871
20
-81.263829644568602
30
0
10
-2.7169061493830697
20
-81.177859523739713
30
0
10
-3.2551559910418075
20
-81.069770522738267
30
0
10
-3.8102547873606269
20
-80.944683849230174
30
0
10
-4.3523299669107507
20
-80.812705188244109
30
0
10
-4.7492453147110698
20
-80.710017368402092
30
0
10
-5.0155693198536779
20
-80.63792211626081
30
0
10
-5.1790208165819562
20
-80.592065870943941
30
0
10
-5.2575000000000003
20
-80.569600000000008
30
0
0
ENDSEC
0
SECTION
2
OBJECTS
0
DICTIONARY
5
C
100
AcDbDictionary
3
ACAD_GROUP
350
D
3
ACAD_MLINESTYLE
350
17
0
DICTIONARY
5
D
100
AcDbDictionary
0
DICTIONARY
5
1A
330
C
100
AcDbDictionary
0
DICTIONARY
5
17
100
AcDbDictionary
0
ENDSEC
0
EOF
