0
SECTION
2
HEADER
9
$INSUNITS
70
4
9
$ACADVER
1
AC1014
9
$HANDSEED
5
FFFF
0
ENDSEC
0
SECTION
2
TABLES
0
TABLE
2
VPORT
5
8
100
AcDbSymbolTable
0
ENDTAB
0
TABLE
2
LTYPE
5
5
100
AcDbSymbolTable
0
LTYPE
5
14
100
AcDbSymbolTableRecord
100
AcDbLinetypeTableRecord
2
BYBLOCK
70
0
0
LTYPE
5
15
100
AcDbSymbolTableRecord
100
AcDbLinetypeTableRecord
2
BYLAYER
70
0
0
LTYPE
5
16
100
AcDbSymbolTableRecord
100
AcDbLinetypeTableRecord
2
DASHED
70
0
3
Dashed __ __ __ __ __ __ __ __ __ __ __ __ __ _
72
65
73
2
40
0.75
49
0.5
74
0
49
-0.25
74
0
0
ENDTAB
0
TABLE
2
LAYER
5
2
100
AcDbSymbolTable
70
2
0
LAYER
5
50
100
AcDbSymbolTableRecord
100
AcDbLayerTableRecord
2
0
70
0
62
7
6
CONTINUOUS
0
ENDTAB
0
TABLE
2
STYLE
5
3
100
AcDbSymbolTable
70
1
0
STYLE
5
11
100
AcDbSymbolTableRecord
100
AcDbTextStyleTableRecord
2
STANDARD
70
0
0
ENDTAB
0
TABLE
2
VIEW
5
6
100
AcDbSymbolTable
70
0
0
ENDTAB
0
TABLE
2
UCS
5
7
100
AcDbSymbolTable
70
0
0
ENDTAB
0
TABLE
2
APPID
5
9
100
AcDbSymbolTable
70
2
0
APPID
5
12
100
AcDbSymbolTableRecord
100
AcDbRegAppTableRecord
2
ACAD
70
0
0
ENDTAB
0
TABLE
2
DIMSTYLE
5
A
100
AcDbSymbolTable
70
1
0
ENDTAB
0
TABLE
2
BLOCK_RECORD
5
1
100
AcDbSymbolTable
70
1
0
BLOCK_RECORD
5
1F
100
AcDbSymbolTableRecord
100
AcDbBlockTableRecord
2
*MODEL_SPACE
0
BLOCK_RECORD
5
1B
100
AcDbSymbolTableRecord
100
AcDbBlockTableRecord
2
*PAPER_SPACE
0
ENDTAB
0
ENDSEC
0
SECTION
2
BLOCKS
0
BLOCK
5
20
100
AcDbEntity
100
AcDbBlockBegin
2
*MODEL_SPACE
0
ENDBLK
5
21
100
AcDbEntity
100
AcDbBlockEnd
0
BLOCK
5
1C
100
AcDbEntity
100
AcDbBlockBegin
2
*PAPER_SPACE
0
ENDBLK
5
1D
100
AcDbEntity
100
AcDbBlockEnd
0
ENDSEC
0
SECTION
2
ENTITIES
0
SPLINE
5
100
100
AcDbEntity
8
0
100
AcDbSpline
70
6
71
5
72
796
73
790
74
0
42
0.000000001
43
0.0000000001
44
0.0000000001
40
0
40
0
40
0
40
0
40
0
40
0
40
0.0012738853503184713
40
0.0025477707006369425
40
0.003821656050955414
40
0.0050955414012738851
40
0.0063694267515923561
40
0.0076433121019108272
40
0.0089171974522292991
40
0.01019108280254777
40
0.011464968152866241
40
0.012738853503184712
40
0.014012738853503183
40
0.015286624203821654
40
0.016560509554140127
40
0.017834394904458598
40
0.019108280254777069
40
0.02038216560509554
40
0.021656050955414011
40
0.022929936305732482
40
0.024203821656050954
40
0.025477707006369425
40
0.026751592356687896
40
0.028025477707006367
40
0.029299363057324838
40
0.030573248407643309
40
0.031847133757961783
40
0.033121019108280254
40
0.034394904458598725
40
0.035668789808917196
40
0.036942675159235668
40
0.038216560509554139
40
0.03949044585987261
40
0.040764331210191081
40
0.042038216560509552
40
0.043312101910828023
40
0.044585987261146494
40
0.045859872611464965
40
0.047133757961783436
40
0.048407643312101907
40
0.049681528662420378
40
0.050955414012738849
40
0.05222929936305732
40
0.053503184713375791
40
0.054777070063694262
40
0.056050955414012733
40
0.057324840764331204
40
0.058598726114649675
40
0.059872611464968147
40
0.061146496815286618
40
0.062420382165605089
40
0.063694267515923567
40
0.064968152866242038
40
0.066242038216560509
40
0.06751592356687898
40
0.068789808917197451
40
0.070063694267515922
40
0.071337579617834393
40
0.072611464968152864
40
0.073885350318471335
40
0.075159235668789806
40
0.076433121019108277
40
0.077707006369426748
40
0.078980891719745219
40
0.08025477707006369
40
0.081528662420382161
40
0.082802547770700632
40
0.084076433121019103
40
0.085350318471337575
40
0.086624203821656046
40
0.087898089171974517
40
0.089171974522292988
40
0.090445859872611459
40
0.09171974522292993
40
0.092993630573248401
40
0.094267515923566872
40
0.095541401273885343
40
0.096815286624203814
40
0.098089171974522285
40
0.099363057324840756
40
0.10063694267515923
40
0.1019108280254777
40
0.10318471337579617
40
0.10445859872611464
40
0.10573248407643311
40
0.10700636942675158
40
0.10828025477707005
40
0.10955414012738852
40
0.110828025477707
40
0.11210191082802547
40
0.11337579617834394
40
0.11464968152866241
40
0.11592356687898088
40
0.11719745222929935
40
0.11847133757961782
40
0.11974522292993629
40
0.12101910828025476
40
0.12229299363057324
40
0.12356687898089171
40
0.12484076433121018
40
0.12611464968152866
40
0.12738853503184713
40
0.1286624203821656
40
0.12993630573248408
40
0.13121019108280255
40
0.13248407643312102
40
0.13375796178343949
40
0.13503184713375796
40
0.13630573248407643
40
0.1375796178343949
40
0.13885350318471337
40
0.14012738853503184
40
0.14140127388535031
40
0.14267515923566879
40
0.14394904458598726
40
0.14522292993630573
40
0.1464968152866242
40
0.14777070063694267
40
0.14904458598726114
40
0.15031847133757961
40
0.15159235668789808
40
0.15286624203821655
40
0.15414012738853503
40
0.1554140127388535
40
0.15668789808917197
40
0.15796178343949044
40
0.15923566878980891
40
0.16050955414012738
40
0.16178343949044585
40
0.16305732484076432
40
0.16433121019108279
40
0.16560509554140126
40
0.16687898089171974
40
0.16815286624203821
40
0.16942675159235668
40
0.17070063694267515
40
0.17197452229299362
40
0.17324840764331209
40
0.17452229299363056
40
0.17579617834394903
40
0.1770700636942675
40
0.17834394904458598
40
0.17961783439490445
40
0.18089171974522292
40
0.18216560509554139
40
0.18343949044585986
40
0.18471337579617833
40
0.1859872611464968
40
0.18726114649681527
40
0.18853503184713374
40
0.18980891719745221
40
0.19108280254777069
40
0.19235668789808916
40
0.19363057324840763
40
0.1949044585987261
40
0.19617834394904457
40
0.19745222929936304
40
0.19872611464968151
40
0.19999999999999998
40
0.20127388535031845
40
0.20254777070063693
40
0.2038216560509554
40
0.20509554140127387
40
0.20636942675159234
40
0.20764331210191081
40
0.20891719745222928
40
0.21019108280254775
40
0.21146496815286622
40
0.21273885350318469
40
0.21401273885350316
40
0.21528662420382164
40
0.21656050955414011
40
0.21783439490445858
40
0.21910828025477705
40
0.22038216560509552
40
0.22165605095541399
40
0.22292993630573246
40
0.22420382165605093
40
0.2254777070063694
40
0.22675159235668788
40
0.22802547770700635
40
0.22929936305732482
40
0.23057324840764329
40
0.23184713375796176
40
0.23312101910828023
40
0.2343949044585987
40
0.23566878980891717
40
0.23694267515923564
40
0.23821656050955411
40
0.23949044585987259
40
0.24076433121019106
40
0.24203821656050953
40
0.243312101910828
40
0.24458598726114647
40
0.24585987261146494
40
0.24713375796178341
40
0.24840764331210188
40
0.24968152866242035
40
0.25095541401273885
40
0.25222929936305732
40
0.2535031847133758
40
0.25477707006369427
40
0.25605095541401274
40
0.25732484076433121
40
0.25859872611464968
40
0.25987261146496815
40
0.26114649681528662
40
0.26242038216560509
40
0.26369426751592356
40
0.26496815286624203
40
0.26624203821656051
40
0.26751592356687898
40
0.26878980891719745
40
0.27006369426751592
40
0.27133757961783439
40
0.27261146496815286
40
0.27388535031847133
40
0.2751592356687898
40
0.27643312101910827
40
0.27770700636942675
40
0.27898089171974522
40
0.28025477707006369
40
0.28152866242038216
40
0.28280254777070063
40
0.2840764331210191
40
0.28535031847133757
40
0.28662420382165604
40
0.28789808917197451
40
0.28917197452229298
40
0.29044585987261146
40
0.29171974522292993
40
0.2929936305732484
40
0.29426751592356687
40
0.29554140127388534
40
0.29681528662420381
40
0.29808917197452228
40
0.29936305732484075
40
0.30063694267515922
40
0.3019108280254777
40
0.30318471337579617
40
0.30445859872611464
40
0.30573248407643311
40
0.30700636942675158
40
0.30828025477707005
40
0.30955414012738852
40
0.31082802547770699
40
0.31210191082802546
40
0.31337579617834393
40
0.31464968152866241
40
0.31592356687898088
40
0.31719745222929935
40
0.31847133757961782
40
0.31974522292993629
40
0.32101910828025476
40
0.32229299363057323
40
0.3235668789808917
40
0.32484076433121017
40
0.32611464968152865
40
0.32738853503184712
40
0.32866242038216559
40
0.32993630573248406
40
0.33121019108280253
40
0.332484076433121
40
0.33375796178343947
40
0.33503184713375794
40
0.33630573248407641
40
0.33757961783439489
40
0.33885350318471336
40
0.34012738853503183
40
0.3414012738853503
40
0.34267515923566877
40
0.34394904458598724
40
0.34522292993630571
40
0.34649681528662418
40
0.34777070063694265
40
0.34904458598726112
40
0.3503184713375796
40
0.35159235668789807
40
0.35286624203821654
40
0.35414012738853501
40
0.35541401273885348
40
0.35668789808917195
40
0.35796178343949042
40
0.35923566878980889
40
0.36050955414012736
40
0.36178343949044584
40
0.36305732484076431
40
0.36433121019108278
40
0.36560509554140125
40
0.36687898089171972
40
0.36815286624203819
40
0.36942675159235666
40
0.37070063694267513
40
0.3719745222929936
40
0.37324840764331207
40
0.37452229299363055
40
0.37579617834394902
40
0.37707006369426749
40
0.37834394904458596
40
0.37961783439490443
40
0.3808917197452229
40
0.38216560509554137
40
0.38343949044585984
40
0.38471337579617831
40
0.38598726114649679
40
0.38726114649681526
40
0.38853503184713373
40
0.3898089171974522
40
0.39108280254777067
40
0.39235668789808914
40
0.39363057324840761
40
0.39490445859872608
40
0.39617834394904455
40
0.39745222929936302
40
0.3987261146496815
40
0.39999999999999997
40
0.40127388535031844
40
0.40254777070063691
40
0.40382165605095538
40
0.40509554140127385
40
0.40636942675159232
40
0.40764331210191079
40
0.40891719745222926
40
0.41019108280254774
40
0.41146496815286621
40
0.41273885350318468
40
0.41401273885350315
40
0.41528662420382162
40
0.41656050955414009
40
0.41783439490445856
40
0.41910828025477703
40
0.4203821656050955
40
0.42165605095541397
40
0.42292993630573245
40
0.42420382165605092
40
0.42547770700636939
40
0.42675159235668786
40
0.42802547770700633
40
0.4292993630573248
40
0.43057324840764327
40
0.43184713375796174
40
0.43312101910828021
40
0.43439490445859869
40
0.43566878980891716
40
0.43694267515923563
40
0.4382165605095541
40
0.43949044585987257
40
0.44076433121019104
40
0.44203821656050951
40
0.44331210191082798
40
0.44458598726114645
40
0.44585987261146492
40
0.4471337579617834
40
0.44840764331210187
40
0.44968152866242034
40
0.45095541401273881
40
0.45222929936305728
40
0.45350318471337575
40
0.45477707006369422
40
0.45605095541401269
40
0.45732484076433116
40
0.45859872611464964
40
0.45987261146496811
40
0.46114649681528658
40
0.46242038216560505
40
0.46369426751592352
40
0.46496815286624199
40
0.46624203821656046
40
0.46751592356687893
40
0.4687898089171974
40
0.47006369426751587
40
0.47133757961783435
40
0.47261146496815282
40
0.47388535031847129
40
0.47515923566878976
40
0.47643312101910823
40
0.4777070063694267
40
0.47898089171974517
40
0.48025477707006364
40
0.48152866242038211
40
0.48280254777070059
40
0.48407643312101906
40
0.48535031847133753
40
0.486624203821656
40
0.48789808917197447
40
0.48917197452229294
40
0.49044585987261141
40
0.49171974522292988
40
0.49299363057324835
40
0.49426751592356682
40
0.4955414012738853
40
0.49681528662420377
40
0.49808917197452224
40
0.49936305732484071
40
0.50063694267515924
40
0.50191082802547771
40
0.50318471337579618
40
0.50445859872611465
40
0.50573248407643312
40
0.50700636942675159
40
0.50828025477707006
40
0.50955414012738853
40
0.510828025477707
40
0.51210191082802548
40
0.51337579617834395
40
0.51464968152866242
40
0.51592356687898089
40
0.51719745222929936
40
0.51847133757961783
40
0.5197452229299363
40
0.52101910828025477
40
0.52229299363057324
40
0.52356687898089171
40
0.52484076433121019
40
0.52611464968152866
40
0.52738853503184713
40
0.5286624203821656
40
0.52993630573248407
40
0.53121019108280254
40
0.53248407643312101
40
0.53375796178343948
40
0.53503184713375795
40
0.53630573248407643
40
0.5375796178343949
40
0.53885350318471337
40
0.54012738853503184
40
0.54140127388535031
40
0.54267515923566878
40
0.54394904458598725
40
0.54522292993630572
40
0.54649681528662419
40
0.54777070063694266
40
0.54904458598726114
40
0.55031847133757961
40
0.55159235668789808
40
0.55286624203821655
40
0.55414012738853502
40
0.55541401273885349
40
0.55668789808917196
40
0.55796178343949043
40
0.5592356687898089
40
0.56050955414012738
40
0.56178343949044585
40
0.56305732484076432
40
0.56433121019108279
40
0.56560509554140126
40
0.56687898089171973
40
0.5681528662420382
40
0.56942675159235667
40
0.57070063694267514
40
0.57197452229299361
40
0.57324840764331209
40
0.57452229299363056
40
0.57579617834394903
40
0.5770700636942675
40
0.57834394904458597
40
0.57961783439490444
40
0.58089171974522291
40
0.58216560509554138
40
0.58343949044585985
40
0.58471337579617833
40
0.5859872611464968
40
0.58726114649681527
40
0.58853503184713374
40
0.58980891719745221
40
0.59108280254777068
40
0.59235668789808915
40
0.59363057324840762
40
0.59490445859872609
40
0.59617834394904456
40
0.59745222929936304
40
0.59872611464968151
40
0.59999999999999998
40
0.60127388535031845
40
0.60254777070063692
40
0.60382165605095539
40
0.60509554140127386
40
0.60636942675159233
40
0.6076433121019108
40
0.60891719745222928
40
0.61019108280254775
40
0.61146496815286622
40
0.61273885350318469
40
0.61401273885350316
40
0.61528662420382163
40
0.6165605095541401
40
0.61783439490445857
40
0.61910828025477704
40
0.62038216560509551
40
0.62165605095541399
40
0.62292993630573246
40
0.62420382165605093
40
0.6254777070063694
40
0.62675159235668787
40
0.62802547770700634
40
0.62929936305732481
40
0.63057324840764328
40
0.63184713375796175
40
0.63312101910828023
40
0.6343949044585987
40
0.63566878980891717
40
0.63694267515923564
40
0.63821656050955411
40
0.63949044585987258
40
0.64076433121019105
40
0.64203821656050952
40
0.64331210191082799
40
0.64458598726114646
40
0.64585987261146494
40
0.64713375796178341
40
0.64840764331210188
40
0.64968152866242035
40
0.65095541401273882
40
0.65222929936305729
40
0.65350318471337576
40
0.65477707006369423
40
0.6560509554140127
40
0.65732484076433118
40
0.65859872611464965
40
0.65987261146496812
40
0.66114649681528659
40
0.66242038216560506
40
0.66369426751592353
40
0.664968152866242
40
0.66624203821656047
40
0.66751592356687894
40
0.66878980891719741
40
0.67006369426751589
40
0.67133757961783436
40
0.67261146496815283
40
0.6738853503184713
40
0.67515923566878977
40
0.67643312101910824
40
0.67770700636942671
40
0.67898089171974518
40
0.68025477707006365
40
0.68152866242038213
40
0.6828025477707006
40
0.68407643312101907
40
0.68535031847133754
40
0.68662420382165601
40
0.68789808917197448
40
0.68917197452229295
40
0.69044585987261142
40
0.69171974522292989
40
0.69299363057324836
40
0.69426751592356684
40
0.69554140127388531
40
0.69681528662420378
40
0.69808917197452225
40
0.69936305732484072
40
0.70063694267515919
40
0.70191082802547766
40
0.70318471337579613
40
0.7044585987261146
40
0.70573248407643308
40
0.70700636942675155
40
0.70828025477707002
40
0.70955414012738849
40
0.71082802547770696
40
0.71210191082802543
40
0.7133757961783439
40
0.71464968152866237
40
0.71592356687898084
40
0.71719745222929931
40
0.71847133757961779
40
0.71974522292993626
40
0.72101910828025473
40
0.7222929936305732
40
0.72356687898089167
40
0.72484076433121014
40
0.72611464968152861
40
0.72738853503184708
40
0.72866242038216555
40
0.72993630573248403
40
0.7312101910828025
40
0.73248407643312097
40
0.73375796178343944
40
0.73503184713375791
40
0.73630573248407638
40
0.73757961783439485
40
0.73885350318471332
40
0.74012738853503179
40
0.74140127388535026
40
0.74267515923566874
40
0.74394904458598721
40
0.74522292993630568
40
0.74649681528662415
40
0.74777070063694262
40
0.74904458598726109
40
0.75031847133757956
40
0.75159235668789803
40
0.7528662420382165
40
0.75414012738853498
40
0.75541401273885345
40
0.75668789808917192
40
0.75796178343949039
40
0.75923566878980886
40
0.76050955414012733
40
0.7617834394904458
40
0.76305732484076427
40
0.76433121019108274
40
0.76560509554140121
40
0.76687898089171969
40
0.76815286624203816
40
0.76942675159235663
40
0.7707006369426751
40
0.77197452229299357
40
0.77324840764331204
40
0.77452229299363051
40
0.77579617834394898
40
0.77707006369426745
40
0.77834394904458593
40
0.7796178343949044
40
0.78089171974522287
40
0.78216560509554134
40
0.78343949044585981
40
0.78471337579617828
40
0.78598726114649675
40
0.78726114649681522
40
0.78853503184713369
40
0.78980891719745216
40
0.79108280254777064
40
0.79235668789808911
40
0.79363057324840758
40
0.79490445859872605
40
0.79617834394904452
40
0.79745222929936299
40
0.79872611464968146
40
0.79999999999999993
40
0.8012738853503184
40
0.80254777070063688
40
0.80382165605095535
40
0.80509554140127382
40
0.80636942675159229
40
0.80764331210191076
40
0.80891719745222923
40
0.8101910828025477
40
0.81146496815286617
40
0.81273885350318464
40
0.81401273885350311
40
0.81528662420382159
40
0.81656050955414006
40
0.81783439490445853
40
0.819108280254777
40
0.82038216560509547
40
0.82165605095541394
40
0.82292993630573241
40
0.82420382165605088
40
0.82547770700636935
40
0.82675159235668783
40
0.8280254777070063
40
0.82929936305732477
40
0.83057324840764324
40
0.83184713375796171
40
0.83312101910828018
40
0.83439490445859865
40
0.83566878980891712
40
0.83694267515923559
40
0.83821656050955407
40
0.83949044585987254
40
0.84076433121019101
40
0.84203821656050948
40
0.84331210191082795
40
0.84458598726114642
40
0.84585987261146489
40
0.84713375796178336
40
0.84840764331210183
40
0.8496815286624203
40
0.85095541401273878
40
0.85222929936305725
40
0.85350318471337572
40
0.85477707006369419
40
0.85605095541401266
40
0.85732484076433113
40
0.8585987261146496
40
0.85987261146496807
40
0.86114649681528654
40
0.86242038216560502
40
0.86369426751592349
40
0.86496815286624196
40
0.86624203821656043
40
0.8675159235668789
40
0.86878980891719737
40
0.87006369426751584
40
0.87133757961783431
40
0.87261146496815278
40
0.87388535031847125
40
0.87515923566878973
40
0.8764331210191082
40
0.87770700636942667
40
0.87898089171974514
40
0.88025477707006361
40
0.88152866242038208
40
0.88280254777070055
40
0.88407643312101902
40
0.88535031847133749
40
0.88662420382165597
40
0.88789808917197444
40
0.88917197452229291
40
0.89044585987261138
40
0.89171974522292985
40
0.89299363057324832
40
0.89426751592356679
40
0.89554140127388526
40
0.89681528662420373
40
0.8980891719745222
40
0.89936305732484068
40
0.90063694267515915
40
0.90191082802547762
40
0.90318471337579609
40
0.90445859872611456
40
0.90573248407643303
40
0.9070063694267515
40
0.90828025477706997
40
0.90955414012738844
40
0.91082802547770692
40
0.91210191082802539
40
0.91337579617834386
40
0.91464968152866233
40
0.9159235668789808
40
0.91719745222929927
40
0.91847133757961774
40
0.91974522292993621
40
0.92101910828025468
40
0.92229299363057315
40
0.92356687898089163
40
0.9248407643312101
40
0.92611464968152857
40
0.92738853503184704
40
0.92866242038216551
40
0.92993630573248398
40
0.93121019108280245
40
0.93248407643312092
40
0.93375796178343939
40
0.93503184713375787
40
0.93630573248407634
40
0.93757961783439481
40
0.93885350318471328
40
0.94012738853503175
40
0.94140127388535022
40
0.94267515923566869
40
0.94394904458598716
40
0.94522292993630563
40
0.9464968152866241
40
0.94777070063694258
40
0.94904458598726105
40
0.95031847133757952
40
0.95159235668789799
40
0.95286624203821646
40
0.95414012738853493
40
0.9554140127388534
40
0.95668789808917187
40
0.95796178343949034
40
0.95923566878980882
40
0.96050955414012729
40
0.96178343949044576
40
0.96305732484076423
40
0.9643312101910827
40
0.96560509554140117
40
0.96687898089171964
40
0.96815286624203811
40
0.96942675159235658
40
0.97070063694267505
40
0.97197452229299353
40
0.973248407643312
40
0.97452229299363047
40
0.97579617834394894
40
0.97707006369426741
40
0.97834394904458588
40
0.97961783439490435
40
0.98089171974522282
40
0.98216560509554129
40
0.98343949044585977
40
0.98471337579617824
40
0.98598726114649671
40
0.98726114649681518
40
0.98853503184713365
40
0.98980891719745212
40
0.99108280254777059
40
0.99235668789808906
40
0.99363057324840753
40
0.994904458598726
40
0.99617834394904448
40
0.99745222929936295
40
0.99872611464968142
40
1
40
1
40
1
40
1
40
1
40
1
41
1
41
1
41
1
41
1
41
1
41
1
41
1
41
1
41
1
41
1
41
1
41
1
41
1
41
1
41
1
41
1
41
1
41
1
41
1
41
1
41
1
41
1
41
1
41
1
41
1
41
1
41
1
41
1
41
1
41
1
41
1
41
1
41
1
41
1
41
1
41
1
41
1
41
1
41
1
41
1
41
1
41
1
41
1
41
1
41
1
41
1
41
1
41
1
41
1
41
1
41
1
41
1
41
1
41
1
41
1
41
1
41
1
41
1
41
1
41
1
41
1
41
1
41
1
41
1
41
1
41
1
41
1
41
1
41
1
41
1
41
1
41
1
41
1
41
1
41
1
41
1
41
1
41
1
41
1
41
1
41
1
41
1
41
1
41
1
41
1
41
1
41
1
41
1
41
1
41
1
41
1
41
1
41
1
41
1
41
1
41
1
41
1
41
1
41
1
41
1
41
1
41
1
41
1
41
1
41
1
41
1
41
1
41
1
41
1
41
1
41
1
41
1
41
1
41
1
41
1
41
1
41
1
41
1
41
1
41
1
41
1
41
1
41
1
41
1
41
1
41
1
41
1
41
1
41
1
41
1
41
1
41
1
41
1
41
1
41
1
41
1
41
1
41
1
41
1
41
1
41
1
41
1
41
1
41
1
41
1
41
1
41
1
41
1
41
1
41
1
41
1
41
1
41
1
41
1
41
1
41
1
41
1
41
1
41
1
41
1
41
1
41
1
41
1
41
1
41
1
41
1
41
1
41
1
41
1
41
1
41
1
41
1
41
1
41
1
41
1
41
1
41
1
41
1
41
1
41
1
41
1
41
1
41
1
41
1
41
1
41
1
41
1
41
1
41
1
41
1
41
1
41
1
41
1
41
1
41
1
41
1
41
1
41
1
41
1
41
1
41
1
41
1
41
1
41
1
41
1
41
1
41
1
41
1
41
1
41
1
41
1
41
1
41
1
41
1
41
1
41
1
41
1
41
1
41
1
41
1
41
1
41
1
41
1
41
1
41
1
41
1
41
1
41
1
41
1
41
1
41
1
41
1
41
1
41
1
41
1
41
1
41
1
41
1
41
1
41
1
41
1
41
1
41
1
41
1
41
1
41
1
41
1
41
1
41
1
41
1
41
1
41
1
41
1
41
1
41
1
41
1
41
1
41
1
41
1
41
1
41
1
41
1
41
1
41
1
41
1
41
1
41
1
41
1
41
1
41
1
41
1
41
1
41
1
41
1
41
1
41
1
41
1
41
1
41
1
41
1
41
1
41
1
41
1
41
1
41
1
41
1
41
1
41
1
41
1
41
1
41
1
41
1
41
1
41
1
41
1
41
1
41
1
41
1
41
1
41
1
41
1
41
1
41
1
41
1
41
1
41
1
41
1
41
1
41
1
41
1
41
1
41
1
41
1
41
1
41
1
41
1
41
1
41
1
41
1
41
1
41
1
41
1
41
1
41
1
41
1
41
1
41
1
41
1
41
1
41
1
41
1
41
1
41
1
41
1
41
1
41
1
41
1
41
1
41
1
41
1
41
1
41
1
41
1
41
1
41
1
41
1
41
1
41
1
41
1
41
1
41
1
41
1
41
1
41
1
41
1
41
1
41
1
41
1
41
1
41
1
41
1
41
1
41
1
41
1
41
1
41
1
41
1
41
1
41
1
41
1
41
1
41
1
41
1
41
1
41
1
41
1
41
1
41
1
41
1
41
1
41
1
41
1
41
1
41
1
41
1
41
1
41
1
41
1
41
1
41
1
41
1
41
1
41
1
41
1
41
1
41
1
41
1
41
1
41
1
41
1
41
1
41
1
41
1
41
1
41
1
41
1
41
1
41
1
41
1
41
1
41
1
41
1
41
1
41
1
41
1
41
1
41
1
41
1
41
1
41
1
41
1
41
1
41
1
41
1
41
1
41
1
41
1
41
1
41
1
41
1
41
1
41
1
41
1
41
1
41
1
41
1
41
1
41
1
41
1
41
1
41
1
41
1
41
1
41
1
41
1
41
1
41
1
41
1
41
1
41
1
41
1
41
1
41
1
41
1
41
1
41
1
41
1
41
1
41
1
41
1
41
1
41
1
41
1
41
1
41
1
41
1
41
1
41
1
41
1
41
1
41
1
41
1
41
1
41
1
41
1
41
1
41
1
41
1
41
1
41
1
41
1
41
1
41
1
41
1
41
1
41
1
41
1
41
1
41
1
41
1
41
1
41
1
41
1
41
1
41
1
41
1
41
1
41
1
41
1
41
1
41
1
41
1
41
1
41
1
41
1
41
1
41
1
41
1
41
1
41
1
41
1
41
1
41
1
41
1
41
1
41
1
41
1
41
1
41
1
41
1
41
1
41
1
41
1
41
1
41
1
41
1
41
1
41
1
41
1
41
1
41
1
41
1
41
1
41
1
41
1
41
1
41
1
41
1
41
1
41
1
41
1
41
1
41
1
41
1
41
1
41
1
41
1
41
1
41
1
41
1
41
1
41
1
41
1
41
1
41
1
41
1
41
1
41
1
41
1
41
1
41
1
41
1
41
1
41
1
41
1
41
1
41
1
41
1
41
1
41
1
41
1
41
1
41
1
41
1
41
1
41
1
41
1
41
1
41
1
41
1
41
1
41
1
41
1
41
1
41
1
41
1
41
1
41
1
41
1
41
1
41
1
41
1
41
1
41
1
41
1
41
1
41
1
41
1
41
1
41
1
41
1
41
1
41
1
41
1
41
1
41
1
41
1
41
1
41
1
41
1
41
1
41
1
41
1
41
1
41
1
41
1
41
1
41
1
41
1
41
1
41
1
41
1
41
1
41
1
41
1
41
1
41
1
41
1
41
1
41
1
41
1
41
1
41
1
41
1
41
1
41
1
41
1
41
1
41
1
41
1
41
1
41
1
41
1
41
1
41
1
41
1
41
1
41
1
41
1
41
1
41
1
41
1
41
1
41
1
41
1
41
1
41
1
41
1
41
1
41
1
41
1
41
1
41
1
41
1
41
1
41
1
41
1
41
1
41
1
41
1
41
1
41
1
41
1
41
1
41
1
41
1
41
1
41
1
41
1
41
1
41
1
41
1
41
1
41
1
41
1
41
1
41
1
41
1
41
1
41
1
41
1
41
1
41
1
41
1
41
1
41
1
41
1
41
1
41
1
41
1
41
1
41
1
41
1
41
1
41
1
41
1
41
1
41
1
41
1
41
1
41
1
41
1
41
1
41
1
41
1
41
1
41
1
41
1
41
1
41
1
41
1
41
1
41
1
41
1
41
1
41
1
41
1
41
1
41
1
41
1
41
1
41
1
41
1
41
1
41
1
41
1
41
1
41
1
41
1
41
1
41
1
41
1
41
1
41
1
41
1
41
1
41
1
41
1
41
1
41
1
41
1
41
1
41
1
41
1
41
1
41
1
41
1
41
1
41
1
41
1
41
1
41
1
41
1
41
1
41
1
41
1
41
1
41
1
41
1
41
1
41
1
41
1
41
1
41
1
41
1
41
1
41
1
41
1
41
1
41
1
41
1
41
1
41
1
41
1
41
1
41
1
41
1
41
1
41
1
41
1
10
-5.1212999999999997
20
-80.5578
30
0
10
-5.2349580249744339
20
-80.522263339165193
30
0
10
-5.4651463355739978
20
-80.448455746766129
30
0
10
-5.8184155701007656
20
-80.329407457336941
30
0
10
-6.3016229296007795
20
-80.153962552314084
30
0
10
-6.9123777574874019
20
-79.90903031015965
30
0
10
-7.514482028901619
20
-79.642833641931958
30
0
10
-8.0930133429437774
20
-79.361762333124446
30
0
10
-8.635673676371292
20
-79.07391438969492
30
0
10
-9.1353295606847862
20
-78.789299040943916
30
0
10
-9.5912019846714944
20
-78.518247128146953
30
0
10
-10.008264533391365
20
-78.267603916125609
30
0
10
-10.397145239388507
20
-78.037334833258114
30
0
10
-10.773704709409657
20
-77.81727598135042
30
0
10
-11.159077874796012
20
-77.582982711353523
30
0
10
-11.574467658858465
20
-77.304328042311866
30
0
10
-12.034983128985067
20
-76.956128618248101
30
0
10
-12.544561390088067
20
-76.526917921881363
30
0
10
-13.088684476281083
20
-76.031151329236536
30
0
10
-13.633956335122106
20
-75.510973834111425
30
0
10
-14.141119543885113
20
-75.017659240736279
30
0
10
-14.57480362358403
20
-74.597957873031945
30
0
10
-14.91535434169586
20
-74.277378113313361
30
0
10
-15.167985639534134
20
-74.047327321797738
30
0
10
-15.377685202648854
20
-73.844032808520126
30
0
10
-15.609580619274933
20
-73.576675501409284
30
0
10
-15.92340373924791
20
-73.163882825811001
30
0
10
-16.344353223557256
20
-72.575455892660599
30
0
10
-16.858641527537262
20
-71.838527394016893
30
0
10
-17.429385275520822
20
-71.01441671212531
30
0
10
-18.006715276845277
20
-70.183831280358888
30
0
10
-18.53988731270729
20
-69.429131068859107
30
0
10
-18.989413575797645
20
-68.816694471173335
30
0
10
-19.337137586906522
20
-68.38193925988206
30
0
10
-19.602175115458724
20
-68.106633381258177
30
0
10
-19.837188101775823
20
-67.922192030327849
30
0
10
-20.09530972822872
20
-67.752408484528331
30
0
10
-20.400483103800333
20
-67.550716651205079
30
0
10
-20.725800824454122
20
-67.329517913097064
30
0
10
-21.034202704632456
20
-67.122642123243054
30
0
10
-21.309578434892082
20
-66.957609877835523
30
0
10
-21.595153535687356
20
-66.821613358727092
30
0
10
-21.957203421455645
20
-66.681787538622643
30
0
10
-22.44923992494272
20
-66.50567173033285
30
0
10
-23.06760966743996
20
-66.286113182769625
30
0
10
-23.759170740884453
20
-66.038453527792228
30
0
10
-24.448445849982676
20
-65.787319671233249
30
0
10
-25.058910397122251
20
-65.556519018877623
30
0
10
-25.535569036499449
20
-65.358321510120959
30
0
10
-25.869734210082854
20
-65.181382429405303
30
0
10
-26.114626723317556
20
-64.984105603214346
30
0
10
-26.344267276286644
20
-64.721739937163278
30
0
10
-26.62011057155236
20
-64.368684146812797
30
0
10
-26.952464531809973
20
-63.944435278564598
30
0
10
-27.316649860300775
20
-63.494137857668917
30
0
10
-27.67257588303568
20
-63.065705655939546
30
0
10
-27.981662823695604
20
-62.690260460647984
30
0
10
-28.228303129662905
20
-62.35622156882043
30
0
10
-28.427359576023818
20
-62.003497642612956
30
0
10
-28.610505971952115
20
-61.548227180506089
30
0
10
-28.817348792104745
20
-60.900726788221974
30
0
10
-29.085032803600669
20
-59.985327007584566
30
0
10
-29.437419931186234
20
-58.761625618369436
30
0
10
-29.885375045862887
20
-57.222528103803505
30
0
10
-30.429059641213495
20
-55.388232344766408
30
0
10
-31.059508763379064
20
-53.301653835630532
30
0
10
-31.760510034120706
20
-51.023244234111885
30
0
10
-32.510352907763043
20
-48.626070413427655
30
0
10
-33.2836334380385
20
-46.190782375237731
30
0
10
-34.053035755924022
20
-43.800627162195404
30
0
10
-34.791122015152624
20
-41.536447554286411
30
0
10
-35.47212224278676
20
-39.471676754382834
30
0
10
-36.073715978897503
20
-37.667359241248526
30
0
10
-36.578836679030474
20
-36.167103313850092
30
0
10
-36.977421789365785
20
-34.992195061872614
30
0
10
-37.26828985304256
20
-34.1363354839918
30
0
10
-37.460721774257053
20
-33.561254937940809
30
0
10
-37.576746360459126
20
-33.190239124298387
30
0
10
-37.651399242030749
20
-32.907664586395498
30
0
10
-37.719285821712873
20
-32.599141336310574
30
0
10
-37.803130382345472
20
-32.1857704301148
30
0
10
-37.900418448131539
20
-31.664029671398485
30
0
10
-37.992235954613598
20
-31.081686209675205
30
0
10
-38.054375669601384
20
-30.50775408595895
30
0
10
-38.066423152261294
20
-30.006981130787089
30
0
10
-38.024545072890007
20
-29.606758650720462
30
0
10
-37.942964776732239
20
-29.286767421105559
30
0
10
-37.837747475393229
20
-29.005515243205011
30
0
10
-37.713110034449159
20
-28.719594646806076
30
0
10
-37.550827307638201
20
-28.402850917398684
30
0
10
-37.327617771176527
20
-28.044652315330772
30
0
10
-37.028572055499637
20
-27.651018020353675
30
0
10
-36.66299428183266
20
-27.244913359386615
30
0
10
-36.257664237158146
20
-26.856266785512016
30
0
10
-35.848932075660052
20
-26.510128999538516
30
0
10
-35.475636763352455
20
-26.217539656127585
30
0
10
-35.170692144909275
20
-25.960485569756631
30
0
10
-34.956709433596359
20
-25.695861679201077
30
0
10
-34.847587584874859
20
-25.385381387706694
30
0
10
-34.848823973876598
20
-25.023294290182882
30
0
10
-34.957997256277579
20
-24.654105513229272
30
0
10
-35.163454522872286
20
-24.332732548080507
30
0
10
-35.443086913221521
20
-24.091282739007923
30
0
10
-35.763669819120864
20
-23.907264982445543
30
0
10
-36.090609492466186
20
-23.735049906518675
30
0
10
-36.396291004509685
20
-23.530768771933793
30
0
10
-36.670493415887158
20
-23.283824476709334
30
0
10
-36.914738591993398
20
-23.005190189958181
30
0
10
-37.135031363955207
20
-22.711702375494276
30
0
10
-37.333675772573692
20
-22.407652857768369
30
0
10
-37.508524197766874
20
-22.086470858128401
30
0
10
-37.656334588860787
20
-21.742192911109424
30
0
10
-37.775274382885428
20
-21.381201450269813
30
0
10
-37.866285617710879
20
-21.022558568863644
30
0
10
-37.931881667736704
20
-20.681357484097823
30
0
10
-37.975580574576206
20
-20.354344154476316
30
0
10
-38.001184552019808
20
-20.010280286449639
30
0
10
-38.012693083824182
20
-19.608677278130607
30
0
10
-38.014090651985065
20
-19.114057285255225
30
0
10
-38.009183990324608
20
-18.512274536650757
30
0
10
-38.00149017487395
20
-17.8061769290642
30
0
10
-37.994133154759105
20
-17.011177701078516
30
0
10
-37.989741171972121
20
-16.150895091476045
30
0
10
-37.990333463715153
20
-15.252641773550252
30
0
10
-37.997235732129809
20
-14.343264596338621
30
0
10
-38.010922987051444
20
-13.444121232441971
30
0
10
-38.031151975613533
20
-12.569488351838229
30
0
10
-38.057317609207423
20
-11.727645085096409
30
0
10
-38.08874759074871
20
-10.921182781568833
30
0
10
-38.125016355096299
20
-10.1476379582985
30
0
10
-38.166264788316361
20
-9.3999750859715085
30
0
10
-38.213484694841277
20
-8.6671609930764646
30
0
10
-38.268898308986714
20
-7.9346338591697361
30
0
10
-38.336018566197481
20
-7.185047520036556
30
0
10
-38.419179421573624
20
-6.3994507695995528
30
0
10
-38.523189413943271
20
-5.5583637992052282
30
0
10
-38.652933050958545
20
-4.6429038193954622
30
0
10
-38.813000409106763
20
-3.6358716717245363
30
0
10
-39.007290893515275
20
-2.5228969833307096
30
0
10
-39.238660143788991
20
-1.2934605466906659
30
0
10
-39.508468901489429
20
0.057788284836195296
30
0
10
-39.816498383097361
20
1.5308294517663894
30
0
10
-40.161196351165785
20
3.1210784844319228
30
0
10
-40.539831225778357
20
4.8199122629752242
30
0
10
-40.948683861099099
20
6.6153096813881307
30
0
10
-41.383223170631915
20
8.4924430337163699
30
0
10
-41.838288703760966
20
10.434290606267956
30
0
10
-42.308270197673124
20
12.422240036056039
30
0
10
-42.787288481504362
20
14.436695802482966
30
0
10
-43.269375665388203
20
16.457684513757197
30
0
10
-43.748655935824353
20
18.465462094161229
30
0
10
-44.219525393566656
20
20.441117929192771
30
0
10
-44.67683392464788
20
22.36718549361807
30
0
10
-45.116062441580084
20
24.228238204572907
30
0
10
-45.533510860209489
20
26.011519540073618
30
0
10
-45.926461044821991
20
27.707493261439595
30
0
10
-46.293400970581267
20
29.310589031524813
30
0
10
-46.63402500211631
20
30.81923343071545
30
0
10
-46.949002846926348
20
32.235142595993757
30
0
10
-47.239810582340979
20
33.562813030004918
30
0
10
-47.508536460890255
20
34.808931820846254
30
0
10
-47.75769726716117
20
35.981820744040711
30
0
10
-47.990050734540176
20
37.090867322900316
30
0
10
-48.20840827979805
20
38.145957991193683
30
0
10
-48.415450811767322
20
39.156918549532854
30
0
10
-48.61353575743437
20
40.132932449035934
30
0
10
-48.804525273768526
20
41.082013040547707
30
0
10
-48.989562911429012
20
42.010344320025581
30
0
10
-49.169020247171602
20
42.922055310461154
30
0
10
-49.342725556870548
20
43.819713111452444
30
0
10
-49.510126887229561
20
44.704649925592683
30
0
10
-49.670483138040453
20
45.577358572387467
30
0
10
-49.823039467442499
20
46.437854848229293
30
0
10
-49.967218023645572
20
47.286063103594351
30
0
10
-50.102782014833515
20
48.122170875576202
30
0
10
-50.230061021640971
20
48.947048811752936
30
0
10
-50.349947336541582
20
49.762430396309369
30
0
10
-50.463685147569201
20
50.570872509882392
30
0
10
-50.572716208665874
20
51.375779586355577
30
0
10
-50.67850462271501
20
52.181395703068517
30
0
10
-50.782365396302723
20
52.992824280216681
30
0
10
-50.88530343502682
20
53.816003598711021
30
0
10
-50.987818756222232
20
54.657779769999848
30
0
10
-51.089825030429211
20
55.52567329465343
30
0
10
-51.190790845974547
20
56.427051572514941
30
0
10
-51.28983301695186
20
57.368427964635003
30
0
10
-51.385828940799868
20
58.354712851085544
30
0
10
-51.477521150686798
20
59.388479101670086
30
0
10
-51.563624439589148
20
60.469235432103389
30
0
10
-51.6429337010089
20
61.592663519361892
30
0
10
-51.71442716312653
20
62.7499479837237
30
0
10
-51.777383010570944
20
63.926861373607238
30
0
10
-51.831370027475486
20
65.105110100479607
30
0
10
-51.876218635684694
20
66.264026479147333
30
0
10
-51.911999139500288
20
67.382142165688876
30
0
10
-51.938996246227362
20
68.438804611099187
30
0
10
-51.957686792597059
20
69.41579096733102
30
0
10
-51.968712370583049
20
70.298886133652118
30
0
10
-51.972862808662939
20
71.079562267186944
30
0
10
-51.971034604829349
20
71.756412490968856
30
0
10
-51.964253723851314
20
72.337217564831406
30
0
10
-51.953253326590954
20
72.836823033526528
30
0
10
-51.937903613137593
20
73.273884995621216
30
0
10
-51.916750082331269
20
73.668080900719616
30
0
10
-51.88637198184604
20
74.036937983284929
30
0
10
-51.841233248672118
20
74.393407281799071
30
0
10
-51.775137241730604
20
74.745695370832706
30
0
10
-51.682441252873481
20
75.096730443478222
30
0
10
-51.559315269362301
20
75.443780449749539
30
0
10
-51.40425118920966
20
75.781160411157373
30
0
10
-51.218343322679694
20
76.102722282729545
30
0
10
-51.006205010002859
20
76.404859191539572
30
0
10
-50.773152506685491
20
76.686086506144136
30
0
10
-50.522453540786486
20
76.945922967578497
30
0
10
-50.25071702408826
20
77.183786461764029
30
0
10
-49.951421318456084
20
77.398844633285876
30
0
10
-49.622544148963364
20
77.590710896759646
30
0
10
-49.276010559881279
20
77.759841487036297
30
0
10
-48.936820307618063
20
77.908180572177869
30
0
10
-48.623314397169217
20
78.039845002148468
30
0
10
-48.329675916579504
20
78.16203061139295
30
0
10
-48.012918067750554
20
78.285225773079631
30
0
10
-47.625605469359549
20
78.418241125374394
30
0
10
-47.142249910644694
20
78.564012071852943
30
0
10
-46.591204722543139
20
78.714560081594726
30
0
10
-46.031946487377688
20
78.855709446312559
30
0
10
-45.526148753331064
20
78.97298167321533
30
0
10
-45.114399155951986
20
79.056383414906023
30
0
10
-44.782453815561382
20
79.107273658159002
30
0
10
-44.459336665240684
20
79.138888424576692
30
0
10
-44.068181844202101
20
79.166429390954946
30
0
10
-43.569085347679668
20
79.198636724167656
30
0
10
-42.995041215103484
20
79.231014802671751
30
0
10
-42.413841404544648
20
79.254911820993001
30
0
10
-41.896454964429076
20
79.265568874646192
30
0
10
-41.487574497887323
20
79.268857152036446
30
0
10
-41.163730424011177
20
79.292768587878982
30
0
10
-40.847963243488827
20
79.378376602882497
30
0
10
-40.457953957074395
20
79.559441904386688
30
0
10
-39.951889260252841
20
79.841465332802926
30
0
10
-39.349831469467254
20
80.193925310832526
30
0
10
-38.70383340840354
20
80.568385933142082
30
0
10
-38.080611844934403
20
80.910247244344646
30
0
10
-37.538185949942779
20
81.17371245078543
30
0
10
-37.107322336367709
20
81.333869542035146
30
0
10
-36.765143974245596
20
81.403926382573331
30
0
10
-36.4585520196459
20
81.418817020033757
30
0
10
-36.133729348639356
20
81.414768603583113
30
0
10
-35.771028712258769
20
81.404999568013764
30
0
10
-35.384911018394114
20
81.379997792852549
30
0
10
-35.001674675864372
20
81.323215884115982
30
0
10
-34.640861921749924
20
81.224518449914768
30
0
10
-34.305171272542957
20
81.086633012072554
30
0
10
-33.990329544123711
20
80.916205165082062
30
0
10
-33.690527322168073
20
80.717905393972345
30
0
10
-33.40455030791744
20
80.489138549779184
30
0
10
-33.134299795658244
20
80.227619963863987
30
0
10
-32.884397780396036
20
79.936709180413814
30
0
10
-32.66160948898893
20
79.632649814624145
30
0
10
-32.470836296890049
20
79.332085784135216
30
0
10
-32.311718779515758
20
79.041007189383336
30
0
10
-32.173179504667281
20
78.738414956881599
30
0
10
-32.039148307123803
20
78.38904287115831
30
0
10
-31.897049306253816
20
77.963791856874579
30
0
10
-31.747702977771798
20
77.462693942277895
30
0
10
-31.605803756915538
20
76.917532792057784
30
0
10
-31.490564727263862
20
76.372762853807757
30
0
10
-31.418935173804115
20
75.872322196040926
30
0
10
-31.398083074661734
20
75.444296135643341
30
0
10
-31.417378757456682
20
75.085785753011038
30
0
10
-31.460711320022654
20
74.772932529558915
30
0
10
-31.517667303589487
20
74.471799823176227
30
0
10
-31.599237386156101
20
74.149440720696091
30
0
10
-31.72725798810481
20
73.781028653603983
30
0
10
-31.917593381382051
20
73.354345614779731
30
0
10
-32.160878184300181
20
72.877429046944926
30
0
10
-32.421914313658327
20
72.37602238541244
30
0
10
-32.657442117061692
20
71.882124044387922
30
0
10
-32.828841651665066
20
71.42493947276094
30
0
10
-32.916660088649856
20
71.020977333447703
30
0
10
-32.935007475631423
20
70.664181346133461
30
0
10
-32.913818890345475
20
70.334771909659807
30
0
10
-32.882139395047773
20
70.007804113717754
30
0
10
-32.847386163534068
20
69.663242420256623
30
0
10
-32.800124630067195
20
69.286102863297373
30
0
10
-32.725386751703731
20
68.863933017355933
30
0
10
-32.613631560139062
20
68.384664414039207
30
0
10
-32.464465875475788
20
67.836408762769224
30
0
10
-32.282967024724698
20
67.209407057651362
30
0
10
-32.078170669795682
20
66.497338791350444
30
0
10
-31.860660270842772
20
65.698903965441787
30
0
10
-31.640555019551005
20
64.819268159525919
30
0
10
-31.425289582026842
20
63.871621870734927
30
0
10
-31.219880833218067
20
62.875024902714827
30
0
10
-31.027209843038115
20
61.852183931587568
30
0
10
-30.848300462957098
20
60.827265042793556
30
0
10
-30.682598470779759
20
59.823666959343448
30
0
10
-30.528252226917939
20
58.861868006630587
30
0
10
-30.38238856130512
20
57.957109254218196
30
0
10
-30.241400290932905
20
57.117456781557607
30
0
10
-30.101205026611574
20
56.340938387400151
30
0
10
-29.957609339957042
20
55.616062420760969
30
0
10
-29.80678411832745
20
54.925854526592914
30
0
10
-29.64570751114892
20
54.250938641889476
30
0
10
-29.47262671654325
20
53.573034442893174
30
0
10
-29.287498807393195
20
52.878215811575188
30
0
10
-29.092471217015898
20
52.160416110490942
30
0
10
-28.892258233108326
20
51.424418168285982
30
0
10
-28.693066878599922
20
50.681988176155869
30
0
10
-28.501596465798684
20
49.948367214452617
30
0
10
-28.324032009095852
20
49.238703338551716
30
0
10
-28.164990969971978
20
48.564337538920803
30
0
10
-28.026605204956375
20
47.929552978432284
30
0
10
-27.9072532100529
20
47.327111033993006
30
0
10
-27.80191593982132
20
46.739432200694189
30
0
10
-27.703376077564478
20
46.142709781528062
30
0
10
-27.603159704260712
20
45.510129400487386
30
0
10
-27.492573098929199
20
44.815415177985116
30
0
10
-27.363726413194527
20
44.036340323078633
30
0
10
-27.210483501782146
20
43.157952887495512
30
0
10
-27.028336912059615
20
42.171745503647003
30
0
10
-26.814362535617189
20
41.075124826330331
30
0
10
-26.567143820918965
20
39.870766488958559
30
0
10
-26.286708926906819
20
38.566018778436167
30
0
10
-25.97446236856441
20
37.172285446810115
30
0
10
-25.633118956089668
20
35.704417479058598
30
0
10
-25.266636978899598
20
34.180101217743577
30
0
10
-24.880151224366088
20
32.619247691234079
30
0
10
-24.479907255823786
20
31.04338238028204
30
0
10
-24.073192381460842
20
29.475032616264659
30
0
10
-23.668275720369152
20
27.937122092718592
30
0
10
-23.273878069608163
20
26.451986746989149
30
0
10
-22.898631587552131
20
25.04038178920608
30
0
10
-22.550544116619037
20
23.720493903090833
30
0
10
-22.236459526472636
20
22.506946883373509
30
0
10
-21.961524409899678
20
21.409820122004213
30
0
10
-21.728641222533973
20
20.433638147991186
30
0
10
-21.537952327827288
20
19.576426840241233
30
0
10
-21.386252403666646
20
18.828614766521767
30
0
10
-21.266567678245636
20
18.172295309490917
30
0
10
-21.167333115458106
20
17.579619237060573
30
0
10
-21.072855348677457
20
17.013968306541621
30
0
10
-20.966401838407673
20
16.436811442640295
30
0
10
-20.832673677577816
20
15.813224913378408
30
0
10
-20.660646804713512
20
15.118215590930426
30
0
10
-20.445973419102877
20
14.342078503164137
30
0
10
-20.194304999631107
20
13.497784664053471
30
0
10
-19.918986175615824
20
12.61595427640923
30
0
10
-19.637268517085531
20
11.73655904851347
30
0
10
-19.366966609665447
20
10.901613208307912
30
0
10
-19.12305602874865
20
10.147706370643856
30
0
10
-18.914002438929277
20
9.4980128531499215
30
0
10
-18.73889393373338
20
8.955910285170356
30
0
10
-18.582500438541995
20
8.4944288423648402
30
0
10
-18.4191998773622
20
8.0635430277385431
30
0
10
-18.222741435439996
20
7.6091962784468379
30
0
10
-17.974134567480984
20
7.0885810849076467
30
0
10
-17.670592388055891
20
6.4874772237782317
30
0
10
-17.333219940435892
20
5.8352460095106604
30
0
10
-16.99528912066674
20
5.1849879267045376
30
0
10
-16.691833260202657
20
4.5959470804949598
30
0
10
-16.447829431131613
20
4.1136468234928252
30
0
10
-16.269072765710177
20
3.7542441641456321
30
0
10
-16.126754186895532
20
3.4790728469359626
30
0
10
-15.96450010239664
20
3.2041843789712976
30
0
10
-15.726272007817638
20
2.8426126792846307
30
0
10
-15.382035608865664
20
2.3427655167588219
30
0
10
-14.944363179020826
20
1.7138505449390171
30
0
10
-14.451147067880605
20
1.0017298041177143
30
0
10
-13.954538763401425
20
0.27396105661582698
30
0
10
-13.507690142900762
20
-0.3985227529543125
30
0
10
-13.151797473565779
20
-0.95896840321494436
30
0
10
-12.904506855453178
20
-1.3811130797457682
30
0
10
-12.743859244954045
20
-1.6901513972435898
30
0
10
-12.628640613888722
20
-1.9431544502991689
30
0
10
-12.521256646687277
20
-2.2047152168022031
30
0
10
-12.416920435192258
20
-2.5200934948233025
30
0
10
-12.33757351914498
20
-2.9088567678990565
30
0
10
-12.307227312774947
20
-3.3715774935316967
30
0
10
-12.328278751993917
20
-3.8922533156391403
30
0
10
-12.373397507634927
20
-4.4432874725068832
30
0
10
-12.405019953777689
20
-4.9911532960289424
30
0
10
-12.388756037971874
20
-5.5019440233430252
30
0
10
-12.307666687453837
20
-5.9471477437645692
30
0
10
-12.180279114163978
20
-6.3088867740586787
30
0
10
-12.037399465663492
20
-6.5871398648148549
30
0
10
-11.897016372426314
20
-6.8047429470479912
30
0
10
-11.731046676933667
20
-7.0182150773791117
30
0
10
-11.478199648744141
20
-7.3021385109608943
30
0
10
-11.077684489136701
20
-7.7229904589153531
30
0
10
-10.502075603727718
20
-8.3113601561726895
30
0
10
-9.7705652542782797
20
-9.0519730215606753
30
0
10
-8.931085866668738
20
-9.9000187483999884
30
0
10
-8.0504267390512858
20
-10.790796485455491
30
0
10
-7.2011280891586447
20
-11.652049775704437
30
0
10
-6.4496804434416273
20
-12.415212201485115
30
0
10
-5.8443348679455474
20
-13.02697763042757
30
0
10
-5.4026792762929539
20
-13.461066014010022
30
0
10
-5.1002591169123788
20
-13.729116619889192
30
0
10
-4.8562784887699015
20
-13.894025740509361
30
0
10
-4.5716885815422144
20
-14.03863736401294
30
0
10
-4.1659057856010095
20
-14.235325471687119
30
0
10
-3.6225294225964766
20
-14.508592096997441
30
0
10
-2.981281235787602
20
-14.839778667822651
30
0
10
-2.3104939301534824
20
-15.187051236549202
30
0
10
-1.6855031355162051
20
-15.50071366408114
30
0
10
-1.1656696496139698
20
-15.739689816182786
30
0
10
-0.76938724392637314
20
-15.889362348014062
30
0
10
-0.45774563069555874
20
-15.973248410769749
30
0
10
-0.16981966580181118
20
-16.027105493697718
30
0
10
0.14914249881419145
20
-16.078588275612997
30
0
10
0.51500970165684712
20
-16.122631975896962
30
0
10
0.91552533886554943
20
-16.139251612471078
30
0
10
1.3232824590483514
20
-16.110719099015068
30
0
10
1.7074867144866488
20
-16.044615291976406
30
0
10
2.0470536935689441
20
-15.963302941032891
30
0
10
2.3403825735687893
20
-15.88429322508977
30
0
10
2.6227686703057267
20
-15.797180081854815
30
0
10
2.9564309960284429
20
-15.665905955878998
30
0
10
3.3967591717824446
20
-15.455978124562259
30
0
10
3.9600955071479809
20
-15.158538780528328
30
0
10
4.6056491475006514
20
-14.804494168952701
30
0
10
5.2652489818716051
20
-14.441815087458592
30
0
10
5.8632256023771747
20
-14.120582997836976
30
0
10
6.3416847203880531
20
-13.873689150644605
30
0
10
6.6800980846101918
20
-13.702299786853857
30
0
10
6.9259437316101096
20
-13.551869852557658
30
0
10
7.1713764881076543
20
-13.334358653312155
30
0
10
7.5135251991506378
20
-12.964043154144045
30
0
10
8.0131990328438114
20
-12.395625662785042
30
0
10
8.6802342762420786
20
-11.636157410397182
30
0
10
9.4898268726066508
20
-10.72701887538509
30
0
10
10.390351553424416
20
-9.7340852812946146
30
0
10
11.3146168673277
20
-8.7346358988880706
30
0
10
12.189767194316858
20
-7.8054380004149611
30
0
10
12.947490674533062
20
-7.0108366002885507
30
0
10
13.534737328702331
20
-6.3896537126014596
30
0
10
13.92271899712731
20
-5.9453730214496083
30
0
10
14.120313010925042
20
-5.6281385462137576
30
0
10
14.172423076025581
20
-5.3443777177953553
30
0
10
14.138614216483457
20
-5.0009971840792913
30
0
10
14.075116359026676
20
-4.5459691641386843
30
0
10
14.01966926386371
20
-3.9965686801871234
30
0
10
13.995801750979371
20
-3.4072192413697655
30
0
10
14.013631324277281
20
-2.8460468991739885
30
0
10
14.072522236171249
20
-2.3702439756386209
30
0
10
14.161767573428266
20
-1.9963311275610554
30
0
10
14.267825677229647
20
-1.702692014933991
30
0
10
14.382581281959171
20
-1.4469271743975809
30
0
10
14.514366208216636
20
-1.1792248557855634
30
0
10
14.686945482205305
20
-0.85450074891055328
30
0
10
14.924832693104817
20
-0.43895480552594124
30
0
10
15.240683826061014
20
0.080546688764631821
30
0
10
15.626113565127675
20
0.69181175240243709
30
0
10
16.05973049102689
20
1.3662267038723228
30
0
10
16.512199580072654
20
2.0655383304827963
30
0
10
16.952400060582832
20
2.7493667915233888
30
0
10
17.35330608025459
20
3.3826330671577507
30
0
10
17.697539218644888
20
3.9424922838763616
30
0
10
17.984239151105957
20
4.4268749234352205
30
0
10
18.225239274296406
20
4.8503905709394655
30
0
10
18.438837620449011
20
5.2374727651873361
30
0
10
18.644674097800692
20
5.6166739682228437
30
0
10
18.857505051847745
20
6.014019918841206
30
0
10
19.083473486813599
20
6.4482287712161579
30
0
10
19.322876839776818
20
6.9307677261615197
30
0
10
19.571801401438936
20
7.464900757086415
30
0
10
19.824134326342744
20
8.0454448018938489
30
0
10
20.073590558856544
20
8.6574390302070476
30
0
10
20.314662313771478
20
9.2800084816917021
30
0
10
20.543103625299981
20
9.8919996803729813
30
0
10
20.756585858787417
20
10.477135227144474
30
0
10
20.955248826655776
20
11.029152647842434
30
0
10
21.142374789740824
20
11.557464094726182
30
0
10
21.324777001696361
20
12.091060131276297
30
0
10
21.511689692824611
20
12.672490847251927
30
0
10
21.71383940093029
20
13.353064025979366
30
0
10
21.942445875794565
20
14.187570202704453
30
0
10
22.208253804491672
20
15.229213515478721
30
0
10
22.520549341443772
20
16.524444048806178
30
0
10
22.88618775328797
20
18.107856188745973
30
0
10
23.308603594449448
20
19.996993126032446
30
0
10
23.78815162862244
20
22.194018585333968
30
0
10
24.322462837790518
20
24.68746570706509
30
0
10
24.906794858303115
20
27.453957478311992
30
0
10
25.534384747273084
20
30.459939060566956
30
0
10
26.196800723115771
20
33.663404882667479
30
0
10
26.884294327866357
20
37.015627885663022
30
0
10
27.586152391089769
20
40.462887758589687
30
0
10
28.291049068600941
20
43.948199546976731
30
0
10
28.987397837264872
20
47.413042056012273
30
0
10
29.663703512803494
20
50.799086323187623
30
0
10
30.308914238360426
20
54.049924047087707
30
0
10
30.912773534017376
20
57.112796074708498
30
0
10
31.466172224477653
20
59.940320843960137
30
0
10
31.961500671212924
20
62.492223028662679
30
0
10
32.3930003315172
20
64.737061873707503
30
0
10
32.757116922701933
20
66.653960448711459
30
0
10
33.052849910173535
20
68.234333016014489
30
0
10
33.282110593955629
20
69.483617069736511
30
0
10
33.450060296464706
20
70.422994865807851
30
0
10
33.565494826919618
20
71.0911397061017
30
0
10
33.641121954321193
20
71.545905994662434
30
0
10
33.69407827122928
20
71.866131001293354
30
0
10
33.736826366943674
20
72.134125627829135
30
0
10
33.769775021426341
20
72.419655681518989
30
0
10
33.769678552361711
20
72.760407973477285
30
0
10
33.70372117968283
20
73.16515417229725
30
0
10
33.547649152808347
20
73.622744661850774
30
0
10
33.307541243881332
20
74.109219851454938
30
0
10
33.019061548673122
20
74.595323128583019
30
0
10
32.728780584290277
20
75.053354241258347
30
0
10
32.480836808103973
20
75.46423099267308
30
0
10
32.301245097775563
20
75.824538971398923
30
0
10
32.183675061512588
20
76.153335308304449
30
0
10
32.106260981170813
20
76.477976512206979
30
0
10
32.046506443118673
20
76.821690304492478
30
0
10
31.999817299440533
20
77.187775010046565
30
0
10
31.974346894012676
20
77.565714579890255
30
0
10
31.981627704088844
20
77.941053313762666
30
0
10
32.026566392359676
20
78.306176032260055
30
0
10
32.106515190497795
20
78.661396674582164
30
0
10
32.216892495673036
20
79.009080850481368
30
0
10
32.355798713339169
20
79.348980629807301
30
0
10
32.525924026826971
20
79.675919582252021
30
0
10
32.730058940843307
20
79.983458059750959
30
0
10
32.967742169204129
20
80.266365776564768
30
0
10
33.232478753106804
20
80.522948802309458
30
0
10
33.517254964602273
20
80.752312275504039
30
0
10
33.81859764022748
20
80.952485386791167
30
0
10
34.142167104827394
20
81.117740269257425
30
0
10
34.493763281186823
20
81.242895616069433
30
0
10
34.871697208272792
20
81.326899254946909
30
0
10
35.254038644319749
20
81.378998639581809
30
0
10
35.612592620696532
20
81.411541326770418
30
0
10
35.932697424429641
20
81.430017781081631
30
0
10
36.239051997917478
20
81.419765004612941
30
0
10
36.589662609894262
20
81.349751933222905
30
0
10
37.039388614224194
20
81.192532579258554
30
0
10
37.606771918984649
20
80.942549585446329
30
0
10
38.254662524640892
20
80.626785924437712
30
0
10
38.919661535554383
20
80.28869027156486
30
0
10
39.531266471429063
20
79.977638704165855
30
0
10
40.036804621319291
20
79.735468937045198
30
0
10
40.420004751595748
20
79.585931433328895
30
0
10
40.732191670931513
20
79.518639787866135
30
0
10
41.061419249609827
20
79.500064113683692
30
0
10
41.485754668458711
20
79.492178108454667
30
0
10
42.019817035392073
20
79.472382389870347
30
0
10
42.609335550205444
20
79.438570439104296
30
0
10
43.176742003235013
20
79.397822692044102
30
0
10
43.653253156820028
20
79.359528636713677
30
0
10
44.015224258007855
20
79.32694440064752
30
0
10
44.32196835457502
20
79.288765329403688
30
0
10
44.668339587147869
20
79.227724580377412
30
0
10
45.138045111138908
20
79.129160017827843
30
0
10
45.746692755273401
20
78.991475073761904
30
0
10
46.449464769031124
20
78.824426434995786
30
0
10
47.171363268471993
20
78.643149598596295
30
0
10
47.830577141660449
20
78.463477610273614
30
0
10
48.363422480956302
20
78.296979357936436
30
0
10
48.751700217073441
20
78.145500299357366
30
0
10
49.039708935616993
20
77.997772160434579
30
0
10
49.293236613766062
20
77.837454862253423
30
0
10
49.566991449093855
20
77.649607031313266
30
0
10
49.86644740876627
20
77.428022235084313
30
0
10
50.168407508393017
20
77.173854117949972
30
0
10
50.441853463209128
20
76.893600941574888
30
0
10
50.672744384321049
20
76.598031483328427
30
0
10
50.86337063265443
20
76.297095272754731
30
0
10
51.02317880260857
20
75.994777055248591
30
0
10
51.16124958503481
20
75.681544961930129
30
0
10
51.282577318798879
20
75.336911067147298
30
0
10
51.389730072448231
20
74.94072248815263
30
0
10
51.482885662675869
20
74.483701511110752
30
0
10
51.56072072760719
20
73.973301228159926
30
0
10
51.621501359619387
20
73.424896001882018
30
0
10
51.664260309999214
20
72.855583633431479
30
0
10
51.689809329994468
20
72.277599755213913
30
0
10
51.702143469215692
20
71.69023388814756
30
0
10
51.707598321367598
20
71.083142050216594
30
0
10
51.713308164117812
20
70.443355200828478
30
0
10
51.725867660737961
20
69.76123270761876
30
0
10
51.749972571975029
20
69.036449760794241
30
0
10
51.786916846060421
20
68.284941243738416
30
0
10
51.833613268731966
20
67.542483071082756
30
0
10
51.88419091883344
20
66.85145091493888
30
0
10
51.931215446049315
20
66.250306672742056
30
0
10
51.967108879163732
20
65.761128025691121
30
0
10
51.985363275824383
20
65.380027809305702
30
0
10
51.982147248325141
20
65.06117987425759
30
0
10
51.956299856246957
20
64.727664062650049
30
0
10
51.90842567554725
20
64.296096160168489
30
0
10
51.840192217086951
20
63.700394189012187
30
0
10
51.753782014346598
20
62.904734473852685
30
0
10
51.651813522256717
20
61.896071437332694
30
0
10
51.537141488929201
20
60.681648182837961
30
0
10
51.412706497169737
20
59.284483604946423
30
0
10
51.281363553312183
20
57.739726992123018
30
0
10
51.145719456950751
20
56.090636093972577
30
0
10
51.007966934602223
20
54.384725303564366
30
0
10
50.869718892638247
20
52.669822323841714
30
0
10
50.731845562730385
20
50.990206833338014
30
0
10
50.594303533574134
20
49.382614796356492
30
0
10
50.455984417920668
20
47.87253367880092
30
0
10
50.314512474763887
20
46.469757715259078
30
0
10
50.16645886325481
20
45.169958389432935
30
0
10
50.007632326678078
20
43.957357756557855
30
0
10
49.833343330010692
20
42.807018382066282
30
0
10
49.638679231902749
20
41.687293477366225
30
0
10
49.418774987356571
20
40.562210113611215
30
0
10
49.169085138441694
20
39.393876609513185
30
0
10
48.885656728976585
20
38.144890109509674
30
0
10
48.565398399450373
20
36.780719391352008
30
0
10
48.206359099334776
20
35.272155718115108
30
0
10
47.807984103990194
20
33.597600731544269
30
0
10
47.371425576731397
20
31.745746931312748
30
0
10
46.899686899726177
20
29.717061060658573
30
0
10
46.397303074721975
20
27.521926279648969
30
0
10
45.870105636837017
20
25.17939299910725
30
0
10
45.32495416126725
20
22.715689106521339
30
0
10
44.769482038017415
20
20.162832954466843
30
0
10
44.211836120637813
20
17.55720221970785
30
0
10
43.660419013777215
20
14.938121798316145
30
0
10
43.123630240774744
20
12.346443583595123
30
0
10
42.60960786539232
20
9.8231296662031973
30
0
10
42.125969983114082
20
7.4078342875406333
30
0
10
41.679556107522615
20
5.1374858073602159
30
0
10
41.276168956348798
20
3.0448698295930523
30
0
10
40.920315212757032
20
1.1572090225067393
30
0
10
40.614948669073343
20
-0.50524927495347483
30
0
10
40.361207787367157
20
-1.9306637868374494
30
0
10
40.15816619126867
20
-3.1169875872361272
30
0
10
40.00255303500726
20
-4.0734553380950276
30
0
10
39.888544157142036
20
-4.8218382231016896
30
0
10
39.807368335125254
20
-5.3983026479982632
30
0
10
39.748651801063232
20
-5.8497727441203313
30
0
10
39.702094470548879
20
-6.229392150633136
30
0
10
39.658923541994902
20
-6.5923633146552776
30
0
10
39.613688584806333
20
-6.991485167433142
30
0
10
39.565101978778301
20
-7.4732792004567328
30
0
10
39.514688967391592
20
-8.0752479935852879
30
0
10
39.465882154902239
20
-8.8230080849430959
30
0
10
39.422916210051341
20
-9.7272744760355572
30
0
10
39.389861311782902
20
-10.781366086339814
30
0
10
39.369459264130867
20
-11.957308030352769
30
0
10
39.362932455381376
20
-13.210118685554225
30
0
10
39.370101573785625
20
-14.484743374328312
30
0
10
39.389396433241551
20
-15.722142225098692
30
0
10
39.417922553961105
20
-16.865658720271796
30
0
10
39.451478105283947
20
-17.867435779133785
30
0
10
39.484651831232284
20
-18.694421439421486
30
0
10
39.510747513532529
20
-19.335457907754694
30
0
10
39.522107202203166
20
-19.80578119664089
30
0
10
39.509457916928909
20
-20.157980373320477
30
0
10
39.465342891043363
20
-20.463526430487818
30
0
10
39.387856510087623
20
-20.78497272059402
30
0
10
39.287120984587446
20
-21.14314647252867
30
0
10
39.180909434906404
20
-21.5142383922764
30
0
10
39.078883371655657
20
-21.864053206434619
30
0
10
38.96636988028493
20
-22.176506958048368
30
0
10
38.797990002828968
20
-22.473483881983679
30
0
10
38.531353294080915
20
-22.787890388859577
30
0
10
38.154483091947299
20
-23.144487081640825
30
0
10
37.715034913165326
20
-23.53804792189068
30
0
10
37.294267103035814
20
-23.945852355821945
30
0
10
36.980674807087929
20
-24.340063615387294
30
0
10
36.846362874314408
20
-24.698632563514195
30
0
10
36.91591517583241
20
-25.020542780033583
30
0
10
37.163128736746913
20
-25.324906594325505
30
0
10
37.53521954319087
20
-25.635048467649643
30
0
10
37.97139043086996
20
-25.964206473965817
30
0
10
38.418057760686665
20
-26.30828835632358
30
0
10
38.830662679727808
20
-26.655288042963342
30
0
10
39.179133075277491
20
-26.991053591598806
30
0
10
39.45100291399077
20
-27.306097219216895
30
0
10
39.657724548362225
20
-27.603083410130935
30
0
10
39.822841398987435
20
-27.894133763745078
30
0
10
39.968711018033304
20
-28.195430505835802
30
0
10
40.099491888748986
20
-28.523520659584797
30
0
10
40.20384822203053
20
-28.888320988890559
30
0
10
40.269122852806234
20
-29.287188405614724
30
0
10
40.295301505384558
20
-29.693946452763001
30
0
10
40.298501519646351
20
-30.065172602789936
30
0
10
40.294674660197096
20
-30.372836822552983
30
0
10
40.286696862098381
20
-30.634200276547251
30
0
10
40.253623415431235
20
-30.933732779553761
30
0
10
40.164460365935916
20
-31.382920727009992
30
0
10
39.988505274417882
20
-32.088577043196644
30
0
10
39.707611315711929
20
-33.116076060126908
30
0
10
39.315016356703218
20
-34.49310393025884
30
0
10
38.813605827392124
20
-36.215272430846269
30
0
10
38.214365715146265
20
-38.251093586343572
30
0
10
37.534756031988465
20
-40.547222372974986
30
0
10
36.79711869144743
20
-43.033583470219497
30
0
10
36.027070197583335
20
-45.628549022733729
30
0
10
35.251901930957693
20
-48.244091261191038
30
0
10
34.498974830723853
20
-50.790952893018698
30
0
10
33.794121970629206
20
-53.183793471708327
30
0
10
33.160035009261733
20
-55.346384081865743
30
0
10
32.614687083693859
20
-57.216693178038327
30
0
10
32.169671379845539
20
-58.752224110771643
30
0
10
31.828735238390628
20
-59.934769094575636
30
0
10
31.585859763609765
20
-60.776519575980942
30
0
10
31.424400942618519
20
-61.323008475992651
30
0
10
31.313621140936363
20
-61.663845505405881
30
0
10
31.215560451914559
20
-61.912448448459365
30
0
10
31.09718463262476
20
-62.169443696136213
30
0
10
30.943979414348448
20
-62.48270857846461
30
0
10
30.763321514624884
20
-62.835078938220818
30
0
10
30.568634066939005
20
-63.185277103923895
30
0
10
30.366743732381735
20
-63.499076954248736
30
0
10
30.147100622169472
20
-63.778131533135621
30
0
10
29.897290593654571
20
-64.038151263962561
30
0
10
29.614346783568017
20
-64.294092453689103
30
0
10
29.32016820625558
20
-64.540736533924573
30
0
10
29.040448727858326
20
-64.76430613524353
30
0
10
28.784969040577742
20
-64.954239345612407
30
0
10
28.519196226173303
20
-65.118546179130476
30
0
10
28.182713771716873
20
-65.278438636664049
30
0
10
27.723077681984343
20
-65.455605186991036
30
0
10
27.132193182939204
20
-65.65934009682843
30
0
10
26.454016806812607
20
-65.883036643338713
30
0
10
25.756774729192902
20
-66.112765175487425
30
0
10
25.115030241900765
20
-66.332465771742136
30
0
10
24.587092674659651
20
-66.530764703141998
30
0
10
24.195895064605114
20
-66.706539796230089
30
0
10
23.904521336562134
20
-66.876463970831125
30
0
10
23.649665384953039
20
-67.062322932595819
30
0
10
23.374889922927458
20
-67.279166761427589
30
0
10
23.074009725424915
20
-67.518084759524953
30
0
10
22.777560563573985
20
-67.757322134723481
30
0
10
22.519078761678458
20
-67.982090509344417
30
0
10
22.300046399964813
20
-68.207758445522032
30
0
10
22.083750698222083
20
-68.47938643353902
30
0
10
21.824714379848263
20
-68.84427215929631
30
0
10
21.491223886235087
20
-69.328860488583615
30
0
10
21.082921861681463
20
-69.922117810654811
30
0
10
20.618534461739291
20
-70.590113826721137
30
0
10
20.129105628586068
20
-71.284990091840868
30
0
10
19.64914787396301
20
-71.956013051863863
30
0
10
19.208425162158591
20
-72.560073327411601
30
0
10
18.824070140906493
20
-73.071632525398584
30
0
10
18.490956990249817
20
-73.494995555334739
30
0
10
18.187475187953403
20
-73.856452881423209
30
0
10
17.884524296225763
20
-74.192206190769426
30
0
10
17.552959135270068
20
-74.538357705221927
30
0
10
17.17268330287121
20
-74.918643595285388
30
0
10
16.737841660499566
20
-75.337584365087082
30
0
10
16.252296755249255
20
-75.787193435393561
30
0
10
15.726947134658388
20
-76.251097282206999
30
0
10
15.176237216860693
20
-76.709825367466692
30
0
10
14.615196673098737
20
-77.145264126223736
30
0
10
14.055779250212126
20
-77.54633338201765
30
0
10
13.506348561746179
20
-77.908948867819262
30
0
10
12.972275750339657
20
-78.233957506730306
30
0
10
12.456173630110865
20
-78.525718579674589
30
0
10
11.958287081385295
20
-78.790446961387318
30
0
10
11.47680515469218
20
-79.034584056353651
30
0
10
11.008239005066505
20
-79.263379012794715
30
0
10
10.547958627181146
20
-79.480968077151303
30
0
10
10.090740880189363
20
-79.690253509617122
30
0
10
9.6312577903951997
20
-79.892886584527076
30
0
10
9.1647263310217948
20
-80.08914172171059
30
0
10
8.6868444549443851
20
-80.278142353975738
30
0
10
8.1932810888691883
20
-80.45828965399744
30
0
10
7.6793177433474282
20
-80.627626447224515
30
0
10
7.1393907363878837
20
-80.78423691027524
30
0
10
6.5667817357109879
20
-80.926605321274181
30
0
10
5.9552223679796192
20
-81.053548084935414
30
0
10
5.3003357511116498
20
-81.164170806055594
30
0
10
4.601245269641451
20
-81.257813277949651
30
0
10
3.8618710441789288
20
-81.334005788709263
30
0
10
3.0929566892450353
20
-81.392405275608439
30
0
10
2.311390629650548
20
-81.43280166568627
30
0
10
1.5369347824185682
20
-81.455191565715637
30
0
10
0.78967756367769637
20
-81.459831820761579
30
0
10
0.087161144757673795
20
-81.44730502363926
30
0
10
-0.55828396648706047
20
-81.418571351363113
30
0
10
-1.1424546990580069
20
-81.375046553857942
30
0
10
-1.6716225812067653
20
-81.318612114009724
30
0
10
-2.1591577036275549
20
-81.251014643966784
30
0
10
-2.6224995230350592
20
-81.173263472533989
30
0
10
-3.080141653770113
20
-81.085123456294909
30
0
10
-3.5482565291841635
20
-80.984337425933148
30
0
10
-4.0389626521248383
20
-80.866930578662817
30
0
10
-4.4557792970490588
20
-80.756115564512612
30
0
10
-4.7831981857273744
20
-80.661675711774862
30
0
10
-5.0076419750255576
20
-80.59333666083478
30
0
10
-5.1212999999999997
20
-80.5578
30
0
0
ENDSEC
0
SECTION
2
OBJECTS
0
DICTIONARY
5
C
100
AcDbDictionary
3
ACAD_GROUP
350
D
3
ACAD_MLINESTYLE
350
17
0
DICTIONARY
5
D
100
AcDbDictionary
0
DICTIONARY
5
1A
330
C
100
AcDbDictionary
0
DICTIONARY
5
17
100
AcDbDictionary
0
ENDSEC
0
EOF
