0
SECTION
2
HEADER
9
$INSUNITS
70
4
9
$ACADVER
1
AC1014
9
$HANDSEED
5
FFFF
0
ENDSEC
0
SECTION
2
TABLES
0
TABLE
2
VPORT
5
8
100
AcDbSymbolTable
0
ENDTAB
0
TABLE
2
LTYPE
5
5
100
AcDbSymbolTable
0
LTYPE
5
14
100
AcDbSymbolTableRecord
100
AcDbLinetypeTableRecord
2
BYBLOCK
70
0
0
LTYPE
5
15
100
AcDbSymbolTableRecord
100
AcDbLinetypeTableRecord
2
BYLAYER
70
0
0
LTYPE
5
16
100
AcDbSymbolTableRecord
100
AcDbLinetypeTableRecord
2
DASHED
70
0
3
Dashed __ __ __ __ __ __ __ __ __ __ __ __ __ _
72
65
73
2
40
0.75
49
0.5
74
0
49
-0.25
74
0
0
ENDTAB
0
TABLE
2
LAYER
5
2
100
AcDbSymbolTable
70
2
0
LAYER
5
50
100
AcDbSymbolTableRecord
100
AcDbLayerTableRecord
2
0
70
0
62
7
6
CONTINUOUS
0
ENDTAB
0
TABLE
2
STYLE
5
3
100
AcDbSymbolTable
70
1
0
STYLE
5
11
100
AcDbSymbolTableRecord
100
AcDbTextStyleTableRecord
2
STANDARD
70
0
0
ENDTAB
0
TABLE
2
VIEW
5
6
100
AcDbSymbolTable
70
0
0
ENDTAB
0
TABLE
2
UCS
5
7
100
AcDbSymbolTable
70
0
0
ENDTAB
0
TABLE
2
APPID
5
9
100
AcDbSymbolTable
70
2
0
APPID
5
12
100
AcDbSymbolTableRecord
100
AcDbRegAppTableRecord
2
ACAD
70
0
0
ENDTAB
0
TABLE
2
DIMSTYLE
5
A
100
AcDbSymbolTable
70
1
0
ENDTAB
0
TABLE
2
BLOCK_RECORD
5
1
100
AcDbSymbolTable
70
1
0
BLOCK_RECORD
5
1F
100
AcDbSymbolTableRecord
100
AcDbBlockTableRecord
2
*MODEL_SPACE
0
BLOCK_RECORD
5
1B
100
AcDbSymbolTableRecord
100
AcDbBlockTableRecord
2
*PAPER_SPACE
0
ENDTAB
0
ENDSEC
0
SECTION
2
BLOCKS
0
BLOCK
5
20
100
AcDbEntity
100
AcDbBlockBegin
2
*MODEL_SPACE
0
ENDBLK
5
21
100
AcDbEntity
100
AcDbBlockEnd
0
BLOCK
5
1C
100
AcDbEntity
100
AcDbBlockBegin
2
*PAPER_SPACE
0
ENDBLK
5
1D
100
AcDbEntity
100
AcDbBlockEnd
0
ENDSEC
0
SECTION
2
ENTITIES
0
SPLINE
5
100
100
AcDbEntity
8
0
100
AcDbSpline
70
6
71
5
72
761
73
755
74
0
42
0.000000001
43
0.0000000001
44
0.0000000001
40
0
40
0
40
0
40
0
40
0
40
0
40
0.0013333333333333333
40
0.0026666666666666666
40
0.0040000000000000001
40
0.0053333333333333332
40
0.0066666666666666662
40
0.0080000000000000002
40
0.0093333333333333341
40
0.010666666666666668
40
0.012000000000000002
40
0.013333333333333336
40
0.01466666666666667
40
0.016000000000000004
40
0.017333333333333336
40
0.018666666666666668
40
0.02
40
0.021333333333333333
40
0.022666666666666665
40
0.023999999999999997
40
0.025333333333333329
40
0.026666666666666661
40
0.027999999999999994
40
0.029333333333333326
40
0.030666666666666658
40
0.031999999999999994
40
0.033333333333333326
40
0.034666666666666658
40
0.03599999999999999
40
0.037333333333333323
40
0.038666666666666655
40
0.039999999999999987
40
0.041333333333333319
40
0.042666666666666651
40
0.043999999999999984
40
0.045333333333333316
40
0.046666666666666648
40
0.04799999999999998
40
0.049333333333333312
40
0.050666666666666645
40
0.051999999999999977
40
0.053333333333333309
40
0.054666666666666641
40
0.055999999999999973
40
0.057333333333333306
40
0.058666666666666638
40
0.05999999999999997
40
0.061333333333333302
40
0.062666666666666634
40
0.063999999999999974
40
0.065333333333333313
40
0.066666666666666652
40
0.067999999999999991
40
0.06933333333333333
40
0.070666666666666669
40
0.072000000000000008
40
0.073333333333333348
40
0.074666666666666687
40
0.076000000000000026
40
0.077333333333333365
40
0.078666666666666704
40
0.080000000000000043
40
0.081333333333333382
40
0.082666666666666722
40
0.084000000000000061
40
0.0853333333333334
40
0.086666666666666739
40
0.088000000000000078
40
0.089333333333333417
40
0.090666666666666756
40
0.092000000000000096
40
0.093333333333333435
40
0.094666666666666774
40
0.096000000000000113
40
0.097333333333333452
40
0.098666666666666791
40
0.10000000000000013
40
0.10133333333333347
40
0.10266666666666681
40
0.10400000000000015
40
0.10533333333333349
40
0.10666666666666683
40
0.10800000000000017
40
0.1093333333333335
40
0.11066666666666684
40
0.11200000000000018
40
0.11333333333333352
40
0.11466666666666686
40
0.1160000000000002
40
0.11733333333333354
40
0.11866666666666688
40
0.12000000000000022
40
0.12133333333333356
40
0.1226666666666669
40
0.12400000000000024
40
0.12533333333333357
40
0.1266666666666669
40
0.12800000000000022
40
0.12933333333333355
40
0.13066666666666688
40
0.1320000000000002
40
0.13333333333333353
40
0.13466666666666685
40
0.13600000000000018
40
0.1373333333333335
40
0.13866666666666683
40
0.14000000000000015
40
0.14133333333333348
40
0.1426666666666668
40
0.14400000000000013
40
0.14533333333333345
40
0.14666666666666678
40
0.1480000000000001
40
0.14933333333333343
40
0.15066666666666675
40
0.15200000000000008
40
0.1533333333333334
40
0.15466666666666673
40
0.15600000000000006
40
0.15733333333333338
40
0.15866666666666671
40
0.16000000000000003
40
0.16133333333333336
40
0.16266666666666668
40
0.16400000000000001
40
0.16533333333333333
40
0.16666666666666666
40
0.16799999999999998
40
0.16933333333333331
40
0.17066666666666663
40
0.17199999999999996
40
0.17333333333333328
40
0.17466666666666661
40
0.17599999999999993
40
0.17733333333333326
40
0.17866666666666658
40
0.17999999999999991
40
0.18133333333333324
40
0.18266666666666656
40
0.18399999999999989
40
0.18533333333333321
40
0.18666666666666654
40
0.18799999999999986
40
0.18933333333333319
40
0.19066666666666651
40
0.19199999999999984
40
0.19333333333333316
40
0.19466666666666649
40
0.19599999999999981
40
0.19733333333333314
40
0.19866666666666646
40
0.19999999999999979
40
0.20133333333333311
40
0.20266666666666644
40
0.20399999999999976
40
0.20533333333333309
40
0.20666666666666642
40
0.20799999999999974
40
0.20933333333333307
40
0.21066666666666639
40
0.21199999999999972
40
0.21333333333333304
40
0.21466666666666637
40
0.21599999999999969
40
0.21733333333333302
40
0.21866666666666634
40
0.21999999999999967
40
0.22133333333333299
40
0.22266666666666632
40
0.22399999999999964
40
0.22533333333333297
40
0.22666666666666629
40
0.22799999999999962
40
0.22933333333333294
40
0.23066666666666627
40
0.2319999999999996
40
0.23333333333333292
40
0.23466666666666625
40
0.23599999999999957
40
0.2373333333333329
40
0.23866666666666622
40
0.23999999999999955
40
0.24133333333333287
40
0.2426666666666662
40
0.24399999999999952
40
0.24533333333333285
40
0.24666666666666617
40
0.2479999999999995
40
0.24933333333333282
40
0.25066666666666615
40
0.2519999999999995
40
0.25333333333333286
40
0.25466666666666621
40
0.25599999999999956
40
0.25733333333333291
40
0.25866666666666627
40
0.25999999999999962
40
0.26133333333333297
40
0.26266666666666633
40
0.26399999999999968
40
0.26533333333333303
40
0.26666666666666639
40
0.26799999999999974
40
0.26933333333333309
40
0.27066666666666644
40
0.2719999999999998
40
0.27333333333333315
40
0.2746666666666665
40
0.27599999999999986
40
0.27733333333333321
40
0.27866666666666656
40
0.27999999999999992
40
0.28133333333333327
40
0.28266666666666662
40
0.28399999999999997
40
0.28533333333333333
40
0.28666666666666668
40
0.28800000000000003
40
0.28933333333333339
40
0.29066666666666674
40
0.29200000000000009
40
0.29333333333333345
40
0.2946666666666668
40
0.29600000000000015
40
0.2973333333333335
40
0.29866666666666686
40
0.30000000000000021
40
0.30133333333333356
40
0.30266666666666692
40
0.30400000000000027
40
0.30533333333333362
40
0.30666666666666698
40
0.30800000000000033
40
0.30933333333333368
40
0.31066666666666704
40
0.31200000000000039
40
0.31333333333333374
40
0.31466666666666709
40
0.31600000000000045
40
0.3173333333333338
40
0.31866666666666715
40
0.32000000000000051
40
0.32133333333333386
40
0.32266666666666721
40
0.32400000000000057
40
0.32533333333333392
40
0.32666666666666727
40
0.32800000000000062
40
0.32933333333333398
40
0.33066666666666733
40
0.33200000000000068
40
0.33333333333333404
40
0.33466666666666739
40
0.33600000000000074
40
0.3373333333333341
40
0.33866666666666745
40
0.3400000000000008
40
0.34133333333333415
40
0.34266666666666751
40
0.34400000000000086
40
0.34533333333333421
40
0.34666666666666757
40
0.34800000000000092
40
0.34933333333333427
40
0.35066666666666763
40
0.35200000000000098
40
0.35333333333333433
40
0.35466666666666768
40
0.35600000000000104
40
0.35733333333333439
40
0.35866666666666774
40
0.3600000000000011
40
0.36133333333333445
40
0.3626666666666678
40
0.36400000000000116
40
0.36533333333333451
40
0.36666666666666786
40
0.36800000000000122
40
0.36933333333333457
40
0.37066666666666792
40
0.37200000000000127
40
0.37333333333333463
40
0.37466666666666798
40
0.37600000000000133
40
0.37733333333333469
40
0.37866666666666804
40
0.38000000000000139
40
0.38133333333333475
40
0.3826666666666681
40
0.38400000000000145
40
0.3853333333333348
40
0.38666666666666816
40
0.38800000000000151
40
0.38933333333333486
40
0.39066666666666822
40
0.39200000000000157
40
0.39333333333333492
40
0.39466666666666828
40
0.39600000000000163
40
0.39733333333333498
40
0.39866666666666833
40
0.40000000000000169
40
0.40133333333333504
40
0.40266666666666839
40
0.40400000000000175
40
0.4053333333333351
40
0.40666666666666845
40
0.40800000000000181
40
0.40933333333333516
40
0.41066666666666851
40
0.41200000000000186
40
0.41333333333333522
40
0.41466666666666857
40
0.41600000000000192
40
0.41733333333333528
40
0.41866666666666863
40
0.42000000000000198
40
0.42133333333333534
40
0.42266666666666869
40
0.42400000000000204
40
0.42533333333333539
40
0.42666666666666875
40
0.4280000000000021
40
0.42933333333333545
40
0.43066666666666881
40
0.43200000000000216
40
0.43333333333333551
40
0.43466666666666887
40
0.43600000000000222
40
0.43733333333333557
40
0.43866666666666893
40
0.44000000000000228
40
0.44133333333333563
40
0.44266666666666898
40
0.44400000000000234
40
0.44533333333333569
40
0.44666666666666904
40
0.4480000000000024
40
0.44933333333333575
40
0.4506666666666691
40
0.45200000000000246
40
0.45333333333333581
40
0.45466666666666916
40
0.45600000000000251
40
0.45733333333333587
40
0.45866666666666922
40
0.46000000000000257
40
0.46133333333333593
40
0.46266666666666928
40
0.46400000000000263
40
0.46533333333333599
40
0.46666666666666934
40
0.46800000000000269
40
0.46933333333333604
40
0.4706666666666694
40
0.47200000000000275
40
0.4733333333333361
40
0.47466666666666946
40
0.47600000000000281
40
0.47733333333333616
40
0.47866666666666952
40
0.48000000000000287
40
0.48133333333333622
40
0.48266666666666957
40
0.48400000000000293
40
0.48533333333333628
40
0.48666666666666963
40
0.48800000000000299
40
0.48933333333333634
40
0.49066666666666969
40
0.49200000000000305
40
0.4933333333333364
40
0.49466666666666975
40
0.49600000000000311
40
0.49733333333333646
40
0.49866666666666981
40
0.50000000000000311
40
0.50133333333333641
40
0.5026666666666697
40
0.504000000000003
40
0.5053333333333363
40
0.5066666666666696
40
0.50800000000000289
40
0.50933333333333619
40
0.51066666666666949
40
0.51200000000000279
40
0.51333333333333608
40
0.51466666666666938
40
0.51600000000000268
40
0.51733333333333598
40
0.51866666666666927
40
0.52000000000000257
40
0.52133333333333587
40
0.52266666666666917
40
0.52400000000000246
40
0.52533333333333576
40
0.52666666666666906
40
0.52800000000000236
40
0.52933333333333565
40
0.53066666666666895
40
0.53200000000000225
40
0.53333333333333555
40
0.53466666666666884
40
0.53600000000000214
40
0.53733333333333544
40
0.53866666666666874
40
0.54000000000000203
40
0.54133333333333533
40
0.54266666666666863
40
0.54400000000000193
40
0.54533333333333522
40
0.54666666666666852
40
0.54800000000000182
40
0.54933333333333512
40
0.55066666666666841
40
0.55200000000000171
40
0.55333333333333501
40
0.55466666666666831
40
0.5560000000000016
40
0.5573333333333349
40
0.5586666666666682
40
0.5600000000000015
40
0.56133333333333479
40
0.56266666666666809
40
0.56400000000000139
40
0.56533333333333469
40
0.56666666666666798
40
0.56800000000000128
40
0.56933333333333458
40
0.57066666666666788
40
0.57200000000000117
40
0.57333333333333447
40
0.57466666666666777
40
0.57600000000000107
40
0.57733333333333436
40
0.57866666666666766
40
0.58000000000000096
40
0.58133333333333426
40
0.58266666666666755
40
0.58400000000000085
40
0.58533333333333415
40
0.58666666666666745
40
0.58800000000000074
40
0.58933333333333404
40
0.59066666666666734
40
0.59200000000000064
40
0.59333333333333393
40
0.59466666666666723
40
0.59600000000000053
40
0.59733333333333383
40
0.59866666666666712
40
0.60000000000000042
40
0.60133333333333372
40
0.60266666666666702
40
0.60400000000000031
40
0.60533333333333361
40
0.60666666666666691
40
0.60800000000000021
40
0.6093333333333335
40
0.6106666666666668
40
0.6120000000000001
40
0.6133333333333334
40
0.61466666666666669
40
0.61599999999999999
40
0.61733333333333329
40
0.61866666666666659
40
0.61999999999999988
40
0.62133333333333318
40
0.62266666666666648
40
0.62399999999999978
40
0.62533333333333307
40
0.62666666666666637
40
0.62799999999999967
40
0.62933333333333297
40
0.63066666666666626
40
0.63199999999999956
40
0.63333333333333286
40
0.63466666666666616
40
0.63599999999999945
40
0.63733333333333275
40
0.63866666666666605
40
0.63999999999999935
40
0.64133333333333264
40
0.64266666666666594
40
0.64399999999999924
40
0.64533333333333254
40
0.64666666666666583
40
0.64799999999999913
40
0.64933333333333243
40
0.65066666666666573
40
0.65199999999999902
40
0.65333333333333232
40
0.65466666666666562
40
0.65599999999999892
40
0.65733333333333221
40
0.65866666666666551
40
0.65999999999999881
40
0.66133333333333211
40
0.6626666666666654
40
0.6639999999999987
40
0.665333333333332
40
0.6666666666666653
40
0.66799999999999859
40
0.66933333333333189
40
0.67066666666666519
40
0.67199999999999849
40
0.67333333333333178
40
0.67466666666666508
40
0.67599999999999838
40
0.67733333333333168
40
0.67866666666666497
40
0.67999999999999827
40
0.68133333333333157
40
0.68266666666666487
40
0.68399999999999817
40
0.68533333333333146
40
0.68666666666666476
40
0.68799999999999806
40
0.68933333333333136
40
0.69066666666666465
40
0.69199999999999795
40
0.69333333333333125
40
0.69466666666666455
40
0.69599999999999784
40
0.69733333333333114
40
0.69866666666666444
40
0.69999999999999774
40
0.70133333333333103
40
0.70266666666666433
40
0.70399999999999763
40
0.70533333333333093
40
0.70666666666666422
40
0.70799999999999752
40
0.70933333333333082
40
0.71066666666666412
40
0.71199999999999741
40
0.71333333333333071
40
0.71466666666666401
40
0.71599999999999731
40
0.7173333333333306
40
0.7186666666666639
40
0.7199999999999972
40
0.7213333333333305
40
0.72266666666666379
40
0.72399999999999709
40
0.72533333333333039
40
0.72666666666666369
40
0.72799999999999698
40
0.72933333333333028
40
0.73066666666666358
40
0.73199999999999688
40
0.73333333333333017
40
0.73466666666666347
40
0.73599999999999677
40
0.73733333333333007
40
0.73866666666666336
40
0.73999999999999666
40
0.74133333333332996
40
0.74266666666666326
40
0.74399999999999655
40
0.74533333333332985
40
0.74666666666666315
40
0.74799999999999645
40
0.74933333333332974
40
0.75066666666666304
40
0.75199999999999634
40
0.75333333333332964
40
0.75466666666666293
40
0.75599999999999623
40
0.75733333333332953
40
0.75866666666666283
40
0.75999999999999612
40
0.76133333333332942
40
0.76266666666666272
40
0.76399999999999602
40
0.76533333333332931
40
0.76666666666666261
40
0.76799999999999591
40
0.76933333333332921
40
0.7706666666666625
40
0.7719999999999958
40
0.7733333333333291
40
0.7746666666666624
40
0.77599999999999569
40
0.77733333333332899
40
0.77866666666666229
40
0.77999999999999559
40
0.78133333333332888
40
0.78266666666666218
40
0.78399999999999548
40
0.78533333333332878
40
0.78666666666666207
40
0.78799999999999537
40
0.78933333333332867
40
0.79066666666666197
40
0.79199999999999526
40
0.79333333333332856
40
0.79466666666666186
40
0.79599999999999516
40
0.79733333333332845
40
0.79866666666666175
40
0.79999999999999505
40
0.80133333333332835
40
0.80266666666666164
40
0.80399999999999494
40
0.80533333333332824
40
0.80666666666666154
40
0.80799999999999483
40
0.80933333333332813
40
0.81066666666666143
40
0.81199999999999473
40
0.81333333333332802
40
0.81466666666666132
40
0.81599999999999462
40
0.81733333333332792
40
0.81866666666666121
40
0.81999999999999451
40
0.82133333333332781
40
0.82266666666666111
40
0.8239999999999944
40
0.8253333333333277
40
0.826666666666661
40
0.8279999999999943
40
0.82933333333332759
40
0.83066666666666089
40
0.83199999999999419
40
0.83333333333332749
40
0.83466666666666078
40
0.83599999999999408
40
0.83733333333332738
40
0.83866666666666068
40
0.83999999999999397
40
0.84133333333332727
40
0.84266666666666057
40
0.84399999999999387
40
0.84533333333332716
40
0.84666666666666046
40
0.84799999999999376
40
0.84933333333332706
40
0.85066666666666035
40
0.85199999999999365
40
0.85333333333332695
40
0.85466666666666025
40
0.85599999999999354
40
0.85733333333332684
40
0.85866666666666014
40
0.85999999999999344
40
0.86133333333332673
40
0.86266666666666003
40
0.86399999999999333
40
0.86533333333332663
40
0.86666666666665992
40
0.86799999999999322
40
0.86933333333332652
40
0.87066666666665982
40
0.87199999999999311
40
0.87333333333332641
40
0.87466666666665971
40
0.87599999999999301
40
0.8773333333333263
40
0.8786666666666596
40
0.8799999999999929
40
0.8813333333333262
40
0.88266666666665949
40
0.88399999999999279
40
0.88533333333332609
40
0.88666666666665939
40
0.88799999999999268
40
0.88933333333332598
40
0.89066666666665928
40
0.89199999999999258
40
0.89333333333332587
40
0.89466666666665917
40
0.89599999999999247
40
0.89733333333332577
40
0.89866666666665906
40
0.89999999999999236
40
0.90133333333332566
40
0.90266666666665896
40
0.90399999999999225
40
0.90533333333332555
40
0.90666666666665885
40
0.90799999999999215
40
0.90933333333332544
40
0.91066666666665874
40
0.91199999999999204
40
0.91333333333332534
40
0.91466666666665863
40
0.91599999999999193
40
0.91733333333332523
40
0.91866666666665853
40
0.91999999999999182
40
0.92133333333332512
40
0.92266666666665842
40
0.92399999999999172
40
0.92533333333332501
40
0.92666666666665831
40
0.92799999999999161
40
0.92933333333332491
40
0.9306666666666582
40
0.9319999999999915
40
0.9333333333333248
40
0.9346666666666581
40
0.93599999999999139
40
0.93733333333332469
40
0.93866666666665799
40
0.93999999999999129
40
0.94133333333332458
40
0.94266666666665788
40
0.94399999999999118
40
0.94533333333332448
40
0.94666666666665777
40
0.94799999999999107
40
0.94933333333332437
40
0.95066666666665767
40
0.95199999999999096
40
0.95333333333332426
40
0.95466666666665756
40
0.95599999999999086
40
0.95733333333332415
40
0.95866666666665745
40
0.95999999999999075
40
0.96133333333332405
40
0.96266666666665734
40
0.96399999999999064
40
0.96533333333332394
40
0.96666666666665724
40
0.96799999999999053
40
0.96933333333332383
40
0.97066666666665713
40
0.97199999999999043
40
0.97333333333332372
40
0.97466666666665702
40
0.97599999999999032
40
0.97733333333332362
40
0.97866666666665691
40
0.97999999999999021
40
0.98133333333332351
40
0.98266666666665681
40
0.9839999999999901
40
0.9853333333333234
40
0.9866666666666567
40
0.98799999999999
40
0.98933333333332329
40
0.99066666666665659
40
0.99199999999998989
40
0.99333333333332319
40
0.99466666666665648
40
0.99599999999998978
40
0.99733333333332308
40
0.99866666666665638
40
1
40
1
40
1
40
1
40
1
40
1
41
1
41
1
41
1
41
1
41
1
41
1
41
1
41
1
41
1
41
1
41
1
41
1
41
1
41
1
41
1
41
1
41
1
41
1
41
1
41
1
41
1
41
1
41
1
41
1
41
1
41
1
41
1
41
1
41
1
41
1
41
1
41
1
41
1
41
1
41
1
41
1
41
1
41
1
41
1
41
1
41
1
41
1
41
1
41
1
41
1
41
1
41
1
41
1
41
1
41
1
41
1
41
1
41
1
41
1
41
1
41
1
41
1
41
1
41
1
41
1
41
1
41
1
41
1
41
1
41
1
41
1
41
1
41
1
41
1
41
1
41
1
41
1
41
1
41
1
41
1
41
1
41
1
41
1
41
1
41
1
41
1
41
1
41
1
41
1
41
1
41
1
41
1
41
1
41
1
41
1
41
1
41
1
41
1
41
1
41
1
41
1
41
1
41
1
41
1
41
1
41
1
41
1
41
1
41
1
41
1
41
1
41
1
41
1
41
1
41
1
41
1
41
1
41
1
41
1
41
1
41
1
41
1
41
1
41
1
41
1
41
1
41
1
41
1
41
1
41
1
41
1
41
1
41
1
41
1
41
1
41
1
41
1
41
1
41
1
41
1
41
1
41
1
41
1
41
1
41
1
41
1
41
1
41
1
41
1
41
1
41
1
41
1
41
1
41
1
41
1
41
1
41
1
41
1
41
1
41
1
41
1
41
1
41
1
41
1
41
1
41
1
41
1
41
1
41
1
41
1
41
1
41
1
41
1
41
1
41
1
41
1
41
1
41
1
41
1
41
1
41
1
41
1
41
1
41
1
41
1
41
1
41
1
41
1
41
1
41
1
41
1
41
1
41
1
41
1
41
1
41
1
41
1
41
1
41
1
41
1
41
1
41
1
41
1
41
1
41
1
41
1
41
1
41
1
41
1
41
1
41
1
41
1
41
1
41
1
41
1
41
1
41
1
41
1
41
1
41
1
41
1
41
1
41
1
41
1
41
1
41
1
41
1
41
1
41
1
41
1
41
1
41
1
41
1
41
1
41
1
41
1
41
1
41
1
41
1
41
1
41
1
41
1
41
1
41
1
41
1
41
1
41
1
41
1
41
1
41
1
41
1
41
1
41
1
41
1
41
1
41
1
41
1
41
1
41
1
41
1
41
1
41
1
41
1
41
1
41
1
41
1
41
1
41
1
41
1
41
1
41
1
41
1
41
1
41
1
41
1
41
1
41
1
41
1
41
1
41
1
41
1
41
1
41
1
41
1
41
1
41
1
41
1
41
1
41
1
41
1
41
1
41
1
41
1
41
1
41
1
41
1
41
1
41
1
41
1
41
1
41
1
41
1
41
1
41
1
41
1
41
1
41
1
41
1
41
1
41
1
41
1
41
1
41
1
41
1
41
1
41
1
41
1
41
1
41
1
41
1
41
1
41
1
41
1
41
1
41
1
41
1
41
1
41
1
41
1
41
1
41
1
41
1
41
1
41
1
41
1
41
1
41
1
41
1
41
1
41
1
41
1
41
1
41
1
41
1
41
1
41
1
41
1
41
1
41
1
41
1
41
1
41
1
41
1
41
1
41
1
41
1
41
1
41
1
41
1
41
1
41
1
41
1
41
1
41
1
41
1
41
1
41
1
41
1
41
1
41
1
41
1
41
1
41
1
41
1
41
1
41
1
41
1
41
1
41
1
41
1
41
1
41
1
41
1
41
1
41
1
41
1
41
1
41
1
41
1
41
1
41
1
41
1
41
1
41
1
41
1
41
1
41
1
41
1
41
1
41
1
41
1
41
1
41
1
41
1
41
1
41
1
41
1
41
1
41
1
41
1
41
1
41
1
41
1
41
1
41
1
41
1
41
1
41
1
41
1
41
1
41
1
41
1
41
1
41
1
41
1
41
1
41
1
41
1
41
1
41
1
41
1
41
1
41
1
41
1
41
1
41
1
41
1
41
1
41
1
41
1
41
1
41
1
41
1
41
1
41
1
41
1
41
1
41
1
41
1
41
1
41
1
41
1
41
1
41
1
41
1
41
1
41
1
41
1
41
1
41
1
41
1
41
1
41
1
41
1
41
1
41
1
41
1
41
1
41
1
41
1
41
1
41
1
41
1
41
1
41
1
41
1
41
1
41
1
41
1
41
1
41
1
41
1
41
1
41
1
41
1
41
1
41
1
41
1
41
1
41
1
41
1
41
1
41
1
41
1
41
1
41
1
41
1
41
1
41
1
41
1
41
1
41
1
41
1
41
1
41
1
41
1
41
1
41
1
41
1
41
1
41
1
41
1
41
1
41
1
41
1
41
1
41
1
41
1
41
1
41
1
41
1
41
1
41
1
41
1
41
1
41
1
41
1
41
1
41
1
41
1
41
1
41
1
41
1
41
1
41
1
41
1
41
1
41
1
41
1
41
1
41
1
41
1
41
1
41
1
41
1
41
1
41
1
41
1
41
1
41
1
41
1
41
1
41
1
41
1
41
1
41
1
41
1
41
1
41
1
41
1
41
1
41
1
41
1
41
1
41
1
41
1
41
1
41
1
41
1
41
1
41
1
41
1
41
1
41
1
41
1
41
1
41
1
41
1
41
1
41
1
41
1
41
1
41
1
41
1
41
1
41
1
41
1
41
1
41
1
41
1
41
1
41
1
41
1
41
1
41
1
41
1
41
1
41
1
41
1
41
1
41
1
41
1
41
1
41
1
41
1
41
1
41
1
41
1
41
1
41
1
41
1
41
1
41
1
41
1
41
1
41
1
41
1
41
1
41
1
41
1
41
1
41
1
41
1
41
1
41
1
41
1
41
1
41
1
41
1
41
1
41
1
41
1
41
1
41
1
41
1
41
1
41
1
41
1
41
1
41
1
41
1
41
1
41
1
41
1
41
1
41
1
41
1
41
1
41
1
41
1
41
1
41
1
41
1
41
1
41
1
41
1
41
1
41
1
41
1
41
1
41
1
41
1
41
1
41
1
41
1
41
1
41
1
41
1
41
1
41
1
41
1
41
1
41
1
41
1
41
1
41
1
41
1
41
1
41
1
41
1
41
1
41
1
41
1
41
1
41
1
41
1
41
1
41
1
41
1
41
1
41
1
41
1
41
1
41
1
41
1
41
1
41
1
41
1
41
1
41
1
41
1
41
1
41
1
41
1
41
1
41
1
41
1
41
1
41
1
41
1
41
1
41
1
41
1
41
1
41
1
41
1
41
1
41
1
41
1
41
1
41
1
41
1
41
1
41
1
41
1
41
1
41
1
41
1
41
1
41
1
41
1
41
1
41
1
41
1
41
1
41
1
41
1
41
1
41
1
41
1
41
1
41
1
41
1
41
1
41
1
41
1
41
1
41
1
41
1
41
1
41
1
41
1
41
1
41
1
41
1
41
1
41
1
41
1
41
1
41
1
10
27.740400000000001
20
-118.9226
30
0
10
27.626797631831018
20
-118.91257049615487
30
0
10
27.38836583492796
20
-118.88912794243673
30
0
10
26.995097803376286
20
-118.84348649754179
30
0
10
26.400019495882255
20
-118.76101835116432
30
0
10
25.568725816081191
20
-118.62308905176849
30
0
10
24.697896171094762
20
-118.4539064536135
30
0
10
23.840584167688927
20
-118.25909433638125
30
0
10
23.043977543647816
20
-118.04583102704285
30
0
10
22.335257213164791
20
-117.82262732279904
30
0
10
21.719399203359888
20
-117.59809967120498
30
0
10
21.187337125052373
20
-117.37883338028824
30
0
10
20.721163002283383
20
-117.16755814969466
30
0
10
20.300651056297319
20
-116.96106955302415
30
0
10
19.908914071460618
20
-116.74862489295036
30
0
10
19.533457937817957
20
-116.51765125490078
30
0
10
19.167272791887072
20
-116.25874832437751
30
0
10
18.810239391322767
20
-115.97162910699467
30
0
10
18.466275104238964
20
-115.66151501651184
30
0
10
18.140368440663174
20
-115.33496477024796
30
0
10
17.834986002571725
20
-114.99519317596265
30
0
10
17.550654408574466
20
-114.64201223605241
30
0
10
17.287690261176184
20
-114.27357810196527
30
0
10
17.048131878001392
20
-113.88728578673769
30
0
10
16.835196116570074
20
-113.48180174679661
30
0
10
16.650959363633739
20
-113.05853011160886
30
0
10
16.494139489426011
20
-112.62507893598277
30
0
10
16.359279028613322
20
-112.19192676898047
30
0
10
16.238391432648889
20
-111.76046719272097
30
0
10
16.122046540564511
20
-111.31135378637511
30
0
10
16.000531909879406
20
-110.79783899483756
30
0
10
15.864320499311725
20
-110.15836407065196
30
0
10
15.704699810323801
20
-109.32606172799569
30
0
10
15.514301115192296
20
-108.23893665300751
30
0
10
15.287759999318709
20
-106.85114472219297
30
0
10
15.021681442002171
20
-105.13378910333346
30
0
10
14.714426175068358
20
-103.07273880049969
30
0
10
14.36595707098248
20
-100.66746396374967
30
0
10
13.977660427314069
20
-97.92944490614795
30
0
10
13.552178047343569
20
-94.880764338369815
30
0
10
13.093234689884842
20
-91.552620874061702
30
0
10
12.605467526636506
20
-87.983876548398825
30
0
10
12.09425474812836
20
-84.219589800809473
30
0
10
11.56554454380354
20
-80.309554779030478
30
0
10
11.025683934121249
20
-76.306838032215708
30
0
10
10.481247659479148
20
-72.266316266512689
30
0
10
9.9388670771766634
20
-68.243213921854135
30
0
10
9.4050589888399667
20
-64.291640253338699
30
0
10
8.8860546535942042
20
-60.463127969702406
30
0
10
8.3876283546735948
20
-56.805168034420802
30
0
10
7.914926997887278
20
-53.359753367718881
30
0
10
7.4722972970153041
20
-50.161901714318304
30
0
10
7.0631185449413003
20
-47.238226742731698
30
0
10
6.6896223815112146
20
-44.60539685956234
30
0
10
6.3527428623703699
20
-42.268855676749091
30
0
10
6.0518930902539161
20
-40.220908334481884
30
0
10
5.7849880544893857
20
-38.440933868082681
30
0
10
5.5488380036533913
20
-36.898797174769769
30
0
10
5.3394534829246236
20
-35.557498204973172
30
0
10
5.1523861696401028
20
-34.37613024889189
30
0
10
4.9830540505746219
20
-33.312703076145034
30
0
10
4.8270741229183924
20
-32.327030895634451
30
0
10
4.6805900245819529
20
-31.383576875187469
30
0
10
4.5406061163319507
20
-30.454352575945641
30
0
10
4.4053087281367871
20
-29.521708343299458
30
0
10
4.2744201784274551
20
-28.581403931166452
30
0
10
4.1488751918570106
20
-27.639619512418342
30
0
10
4.0304676289745132
20
-26.70962214702131
30
0
10
3.9214959213548055
20
-25.808600768878406
30
0
10
3.8244363562032246
20
-24.954332850503455
30
0
10
3.7415406329574381
20
-24.162150168843766
30
0
10
3.6746281601189379
20
-23.441204303663184
30
0
10
3.6239653739181521
20
-22.793806847707167
30
0
10
3.5865185719960331
20
-22.216415161954032
30
0
10
3.5545850795675897
20
-21.700233794739013
30
0
10
3.5138475855042941
20
-21.231698798513257
30
0
10
3.4429204327715417
20
-20.793832795176904
30
0
10
3.3206966297914731
20
-20.372856512375222
30
0
10
3.1327478166033966
20
-19.964102712532853
30
0
10
2.8780517460745654
20
-19.57826155714513
30
0
10
2.5649657935566554
20
-19.231415026847507
30
0
10
2.2072676393607087
20
-18.935892791864251
30
0
10
1.8202372574758063
20
-18.689229702845267
30
0
10
1.41698982878223
20
-18.479980449789053
30
0
10
1.0056843515116232
20
-18.295745560414144
30
0
10
0.58471479773808377
20
-18.1311331273
30
0
10
0.1475838911705919
20
-17.991170963791077
30
0
10
-0.3092531518024062
20
-17.890829073148019
30
0
10
-0.77756603614979869
20
-17.858810541181604
30
0
10
-1.2366149942763227
20
-17.928433169505599
30
0
10
-1.6602402332776367
20
-18.121383568761949
30
0
10
-2.0214478776431046
20
-18.42790425807507
30
0
10
-2.2987451893842077
20
-18.806253276972079
30
0
10
-2.4819689051677458
20
-19.212155242555934
30
0
10
-2.5802076459799812
20
-19.625772702446064
30
0
10
-2.6233660684266895
20
-20.066420443788758
30
0
10
-2.6466864043765259
20
-20.564475166176624
30
0
10
-2.6775946806001101
20
-21.140026936525665
30
0
10
-2.7236308295316998
20
-21.7823671157748
30
0
10
-2.7807037247697823
20
-22.465402135397202
30
0
10
-2.8397216687851232
20
-23.160165987660033
30
0
10
-2.893188397442894
20
-23.847037375068723
30
0
10
-2.9434601410976575
20
-24.531622692242895
30
0
10
-3.0021405142355162
20
-25.241551630409994
30
0
10
-3.0845954917953691
20
-26.012833668224275
30
0
10
-3.2058985663496165
20
-26.879219056698993
30
0
10
-3.3763770899262568
20
-27.860846434917796
30
0
10
-3.5968679533746983
20
-28.951931172350793
30
0
10
-3.8554819320131317
20
-30.112657751393563
30
0
10
-4.132589125820914
20
-31.283565167256281
30
0
10
-4.4047476281693818
20
-32.39705283252875
30
0
10
-4.6490027592594201
20
-33.389889497187795
30
0
10
-4.8471201989222195
20
-34.215559060202224
30
0
10
-4.9896343934135343
20
-34.856063042253552
30
0
10
-5.0804850622097533
20
-35.335420634791362
30
0
10
-5.1399075581458327
20
-35.728146107452432
30
0
10
-5.1932581820906263
20
-36.127514071396256
30
0
10
-5.2613889095794306
20
-36.618139647000227
30
0
10
-5.3499453786019213
20
-37.24578854017323
30
0
10
-5.4533478103913442
20
-38.022360699979487
30
0
10
-5.5592151712743263
20
-38.93215677753436
30
0
10
-5.6527829907651705
20
-39.937533775193799
30
0
10
-5.720984396986637
20
-40.985179625760679
30
0
10
-5.7575099671381995
20
-42.011231810510246
30
0
10
-5.7641958810443334
20
-42.950357249824904
30
0
10
-5.7485362102024844
20
-43.748919542458879
30
0
10
-5.7222305718827347
20
-44.377090336608013
30
0
10
-5.6993130515568104
20
-44.841317250245709
30
0
10
-5.6944516427124654
20
-45.196816170598368
30
0
10
-5.7211974386460778
20
-45.559514971490458
30
0
10
-5.7911650788960589
20
-46.072631777919511
30
0
10
-5.9132312092705224
20
-46.87561669715555
30
0
10
-6.0926156756497463
20
-48.068898585355527
30
0
10
-6.3311348887964609
20
-49.713802614467653
30
0
10
-6.6276429979941351
20
-51.837925704239005
30
0
10
-6.9784069221936562
20
-54.438600614357412
30
0
10
-7.3775091923425675
20
-57.487163743450679
30
0
10
-7.817238817248878
20
-60.932877343170013
30
0
10
-8.2884872820777602
20
-64.70700021586444
30
0
10
-8.7811423161931117
20
-68.726794224369968
30
0
10
-9.2844826118272454
20
-72.899558289936294
30
0
10
-9.7875721142604508
20
-77.12665032383984
30
0
10
-10.279654515656878
20
-81.307514478393756
30
0
10
-10.750547607836015
20
-85.343705574354004
30
0
10
-11.191037827160839
20
-89.142915903368873
30
0
10
-11.593274435291228
20
-92.622998402604466
30
0
10
-11.951164550302511
20
-95.715997695366028
30
0
10
-12.260766257130143
20
-98.372163523765408
30
0
10
-12.520686228011659
20
-100.56400537757499
30
0
10
-12.732466934590798
20
-102.29025205313597
30
0
10
-12.900998147804181
20
-103.58003301431837
30
0
10
-13.0348712211061
20
-104.49653720968942
30
0
10
-13.146887186000795
20
-105.14207709900813
30
0
10
-13.251887824681337
20
-105.63864859815595
30
0
10
-13.3642665516874
20
-106.10554241451626
30
0
10
-13.495811170055491
20
-106.64003351043897
30
0
10
-13.652891328314919
20
-107.29197461318996
30
0
10
-13.835853801168955
20
-108.05894158030137
30
0
10
-14.041054421990646
20
-108.90591806433854
30
0
10
-14.262211820693144
20
-109.77867872813817
30
0
10
-14.49204177480647
20
-110.61975709769914
30
0
10
-14.723759794442639
20
-111.38325053350223
30
0
10
-14.952669050863639
20
-112.05028600033097
30
0
10
-15.176439312465046
20
-112.62232681733488
30
0
10
-15.395504339910911
20
-113.11419019620344
30
0
10
-15.61317599427521
20
-113.5474662335339
30
0
10
-15.836450333786761
20
-113.9430411133209
30
0
10
-16.074305349913647
20
-114.31703733866775
30
0
10
-16.334315744274495
20
-114.68027538930914
30
0
10
-16.618822199553897
20
-115.0361010647316
30
0
10
-16.924148352266041
20
-115.38094381553293
30
0
10
-17.245461488511062
20
-115.70873409879816
30
0
10
-17.580985217952566
20
-116.01491130517149
30
0
10
-17.934765466512907
20
-116.29946386194206
30
0
10
-18.310457228056777
20
-116.56401052133985
30
0
10
-18.706369656357381
20
-116.8097334200263
30
0
10
-19.110200417120787
20
-117.03504173527173
30
0
10
-19.509544872646881
20
-117.23833277277973
30
0
10
-19.900984844006789
20
-117.42030812120493
30
0
10
-20.301835780881738
20
-117.58704556703196
30
0
10
-20.739893163409441
20
-117.74703961661868
30
0
10
-21.241087828663723
20
-117.90772023238553
30
0
10
-21.815531023570962
20
-118.0714176766564
30
0
10
-22.45691957830649
20
-118.23556106954358
30
0
10
-23.147945472334875
20
-118.39479726625241
30
0
10
-23.863772177738856
20
-118.54243164537348
30
0
10
-24.576271856011896
20
-118.67227615318023
30
0
10
-25.258051340041071
20
-118.77993666760297
30
0
10
-25.886606139043458
20
-118.86248940182497
30
0
10
-26.44885566289323
20
-118.91844762953581
30
0
10
-26.944605054988045
20
-118.94751935591293
30
0
10
-27.392793370211784
20
-118.95069131939974
30
0
10
-27.821833748991352
20
-118.92883193502357
30
0
10
-28.257092241487733
20
-118.88132125273077
30
0
10
-28.705819426069155
20
-118.80381786377976
30
0
10
-29.158227091924751
20
-118.68992065734447
30
0
10
-29.598802016631296
20
-118.53467642953419
30
0
10
-30.016352821443938
20
-118.33882327141951
30
0
10
-30.408304141304484
20
-118.10841277161332
30
0
10
-30.77527883391738
20
-117.84891111401407
30
0
10
-31.11779301767573
20
-117.5591818112329
30
0
10
-31.433316167618621
20
-117.22992265480593
30
0
10
-31.717751535356346
20
-116.85532050687814
30
0
10
-31.965952479245516
20
-116.44340603023352
30
0
10
-32.172748260702107
20
-116.02379801735289
30
0
10
-32.335161191097022
20
-115.62325397871474
30
0
10
-32.454479901117715
20
-115.24505653523622
30
0
10
-32.538590639726294
20
-114.84515329553156
30
0
10
-32.598790379666951
20
-114.35666818008634
30
0
10
-32.646586294864449
20
-113.71449836556425
30
0
10
-32.690039798428131
20
-112.88355394918312
30
0
10
-32.733696777089506
20
-111.85846888397313
30
0
10
-32.779429939860691
20
-110.65606214165058
30
0
10
-32.826967445436431
20
-109.31029256221211
30
0
10
-32.874557183937938
20
-107.86613437642291
30
0
10
-32.919563356831411
20
-106.37399378858285
30
0
10
-32.959114079217137
20
-104.88371297843199
30
0
10
-32.990675871910959
20
-103.43917164952816
30
0
10
-33.012785226684983
20
-102.07160003469764
30
0
10
-33.025244823291061
20
-100.79728574623529
30
0
10
-33.028656915236184
20
-99.620712761226798
30
0
10
-33.024126776958333
20
-98.536318526426925
30
0
10
-33.012893432018679
20
-97.53081648696984
30
0
10
-32.995999939185467
20
-96.585266334950987
30
0
10
-32.973927072591522
20
-95.677276401433105
30
0
10
-32.946288715986348
20
-94.783093561082552
30
0
10
-32.911382683358077
20
-93.879884339178474
30
0
10
-32.866514111371394
20
-92.947067066799605
30
0
10
-32.808597123462157
20
-91.967293345770415
30
0
10
-32.734671045751142
20
-90.927562044594183
30
0
10
-32.642439790235628
20
-89.820238059879529
30
0
10
-32.530830146544851
20
-88.644204422159419
30
0
10
-32.400474359999592
20
-87.405740562428647
30
0
10
-32.254397096915952
20
-86.120068859369155
30
0
10
-32.09770792280419
20
-84.809708696966709
30
0
10
-31.936817729251715
20
-83.50130569364724
30
0
10
-31.778808216849139
20
-82.222954053358151
30
0
10
-31.630732206462685
20
-81.001289203262857
30
0
10
-31.498956490037045
20
-79.858736239765264
30
0
10
-31.388456504478004
20
-78.810558313765483
30
0
10
-31.30220138288071
20
-77.862301186878426
30
0
10
-31.240331289302212
20
-77.006315616147162
30
0
10
-31.19998540654613
20
-76.221175350303028
30
0
10
-31.17652467181663
20
-75.477302428914697
30
0
10
-31.164455392108394
20
-74.741264146558478
30
0
10
-31.158494245779718
20
-73.980691741913773
30
0
10
-31.154521744255991
20
-73.168720657816593
30
0
10
-31.150719119851672
20
-72.289200351598282
30
0
10
-31.147189443395455
20
-71.335589629769842
30
0
10
-31.145355398541398
20
-70.308920492568092
30
0
10
-31.147432568799829
20
-69.216081677219918
30
0
10
-31.15587710753044
20
-68.067982579421709
30
0
10
-31.172830203097913
20
-66.87773436377968
30
0
10
-31.199597341517663
20
-65.658904243745823
30
0
10
-31.236025133583112
20
-64.423527546050167
30
0
10
-31.280626094024253
20
-63.181920224083839
30
0
10
-31.330873116299106
20
-61.942901178612246
30
0
10
-31.383435760720431
20
-60.713873987369873
30
0
10
-31.434440810608827
20
-59.500967309418513
30
0
10
-31.479722723223901
20
-58.309150799131608
30
0
10
-31.515077672368115
20
-57.142359865184744
30
0
10
-31.536517802289392
20
-56.00362053735293
30
0
10
-31.540521101513171
20
-54.895164628875229
30
0
10
-31.524298481239082
20
-53.818585026810489
30
0
10
-31.486075324305915
20
-52.775035763547649
30
0
10
-31.425377829092817
20
-51.765425312653605
30
0
10
-31.34329896576395
20
-50.790602096457675
30
0
10
-31.242815583046429
20
-49.85156755742527
30
0
10
-31.128984636815176
20
-48.949620860861927
30
0
10
-31.009433245357148
20
-48.086671185538009
30
0
10
-30.893856493309585
20
-47.264983114938516
30
0
10
-30.79205359763748
20
-46.486086561259768
30
0
10
-30.712327459685621
20
-45.749894587842022
30
0
10
-30.659712114749624
20
-45.053722377137532
30
0
10
-30.634332874618167
20
-44.391383080840271
30
0
10
-30.629545270008176
20
-43.752156405634572
30
0
10
-30.634678423153549
20
-43.122149458287787
30
0
10
-30.63816048029156
20
-42.485787531648313
30
0
10
-30.630240280846866
20
-41.827251516951947
30
0
10
-30.606513469078944
20
-41.131952871344659
30
0
10
-30.568673418988347
20
-40.387934485379645
30
0
10
-30.522236557576864
20
-39.587200206823233
30
0
10
-30.475063635252265
20
-38.727066315055048
30
0
10
-30.435559086030604
20
-37.811496164682765
30
0
10
-30.411002641402174
20
-36.852460754158173
30
0
10
-30.405839640746223
20
-35.871237843866126
30
0
10
-30.42202841949036
20
-34.894310988528837
30
0
10
-30.459354491180363
20
-33.949269918938803
30
0
10
-30.515764317229038
20
-33.060804871727669
30
0
10
-30.587675747822942
20
-32.246447439412776
30
0
10
-30.670333508896054
20
-31.512919996773693
30
0
10
-30.758055199432132
20
-30.850944726541918
30
0
10
-30.845053907368261
20
-30.238015967618935
30
0
10
-30.926538628718031
20
-29.644534596357389
30
0
10
-30.999653879034316
20
-29.038692211060777
30
0
10
-31.064649334064001
20
-28.392253742108625
30
0
10
-31.125446567595006
20
-27.684790780489202
30
0
10
-31.188144726959006
20
-26.90331457110403
30
0
10
-31.259878249068048
20
-26.042598596145908
30
0
10
-31.347495444810122
20
-25.10530210498257
30
0
10
-31.456408202930248
20
-24.102016399539586
30
0
10
-31.589123053560677
20
-23.051763590255028
30
0
10
-31.745596304218061
20
-21.979424000547656
30
0
10
-31.9241017989008
20
-20.912286846838988
30
0
10
-32.121938491770052
20
-19.876850434016479
30
0
10
-32.336179294804111
20
-18.895619920331931
30
0
10
-32.564461693155565
20
-17.983670170072099
30
0
10
-32.805620896988628
20
-17.145862875856665
30
0
10
-33.060747211685268
20
-16.372366342456154
30
0
10
-33.332000643985239
20
-15.643155433350817
30
0
10
-33.620658236701836
20
-14.935727460346463
30
0
10
-33.925257003980846
20
-14.232134146707986
30
0
10
-34.240040404700586
20
-13.525489563993885
30
0
10
-34.552455546539733
20
-12.828634206934675
30
0
10
-34.843581326118702
20
-12.175892739134008
30
0
10
-35.097108444265153
20
-11.603966016406224
30
0
10
-35.307651211005904
20
-11.13505586645876
30
0
10
-35.487668510116755
20
-10.761887662554095
30
0
10
-35.679156494230988
20
-10.424898748127269
30
0
10
-35.935031491291092
20
-10.040658034346059
30
0
10
-36.295605757462695
20
-9.5391971128114914
30
0
10
-36.760604987574787
20
-8.9075814482377265
30
0
10
-37.290729126323484
20
-8.1889817637369156
30
0
10
-37.828194635993114
20
-7.4529167112782027
30
0
10
-38.311811395035555
20
-6.7738254749872002
30
0
10
-38.693556792342328
20
-6.2073142012010649
30
0
10
-38.956323704525111
20
-5.7647355906950803
30
0
10
-39.125783212258199
20
-5.3963805614607905
30
0
10
-39.242498345885807
20
-5.0330389358137264
30
0
10
-39.33884786101062
20
-4.6204745564318781
30
0
10
-39.413461380219175
20
-4.1576050396018269
30
0
10
-39.447050769182567
20
-3.6725184304449461
30
0
10
-39.417472737145587
20
-3.1997703005271476
30
0
10
-39.317349740222184
20
-2.7535070077312214
30
0
10
-39.151379532653216
20
-2.3330199579995763
30
0
10
-38.92996463158925
20
-1.9334519399249657
30
0
10
-38.663513748550507
20
-1.5570991919154729
30
0
10
-38.359790124612516
20
-1.2126496394909478
30
0
10
-38.023917017002681
20
-0.90868125873291983
30
0
10
-37.656308483593087
20
-0.64757315138789573
30
0
10
-37.255741417546758
20
-0.4246664862039578
30
0
10
-36.825067249606093
20
-0.23299599621944958
30
0
10
-36.378993523056707
20
-0.067327891895549385
30
0
10
-35.942440013212291
20
0.074295450873218039
30
0
10
-35.53226570750212
20
0.19479232395239174
30
0
10
-35.139856363142016
20
0.30167903733079593
30
0
10
-34.721040863266637
20
0.40897564559675847
30
0
10
-34.227712818561272
20
0.52847177107653243
30
0
10
-33.633987244185057
20
0.66228490107337457
30
0
10
-32.963568477171854
20
0.79541618549620063
30
0
10
-32.268904329092052
20
0.90730363959849991
30
0
10
-31.610240380534002
20
0.98431850291978407
30
0
10
-31.037289529384683
20
1.0292120212004823
30
0
10
-30.563504005840578
20
1.0783687164735158
30
0
10
-30.169583570552536
20
1.1893320443883244
30
0
10
-29.827861526527826
20
1.410064421016948
30
0
10
-29.525026344577121
20
1.7444773372417421
30
0
10
-29.271410730671708
20
2.1485523588744297
30
0
10
-29.084755111857149
20
2.5756058014074541
30
0
10
-28.978624146255669
20
3.0158582284880984
30
0
10
-28.953507640871635
20
3.5204673286145822
30
0
10
-29.002173668828672
20
4.1723288730932842
30
0
10
-29.112083891603486
20
5.0671414894396429
30
0
10
-29.268861613254295
20
6.2913527176294313
30
0
10
-29.459644250749356
20
7.8988840764258708
30
0
10
-29.673483009402005
20
9.9112961682600282
30
0
10
-29.901037814775769
20
12.322942557280925
30
0
10
-30.134524752670792
20
15.104364144873536
30
0
10
-30.367556991573792
20
18.206424164758943
30
0
10
-30.595031493797315
20
21.564124693080981
30
0
10
-30.812996028827889
20
25.100560168131928
30
0
10
-31.018524689022676
20
28.730811476384019
30
0
10
-31.209589742881747
20
32.365866163500556
30
0
10
-31.384935111153297
20
35.916525824830032
30
0
10
-31.543949074718967
20
39.297322497262726
30
0
10
-31.686537506450343
20
42.430423082810805
30
0
10
-31.812996455386468
20
45.249557874042111
30
0
10
-31.923886011413156
20
47.703895009689063
30
0
10
-32.019901308450912
20
49.762040163501887
30
0
10
-32.101750136502723
20
51.415746141721463
30
0
10
-32.170015211526454
20
52.684297300205138
30
0
10
-32.225052418309083
20
53.617312885386482
30
0
10
-32.266797380429125
20
54.301561684697205
30
0
10
-32.295098341149142
20
54.845404905016451
30
0
10
-32.310293913921434
20
55.354074766080323
30
0
10
-32.313618118589382
20
55.909733873888243
30
0
10
-32.30788985352406
20
56.545453722436456
30
0
10
-32.297421168956191
20
57.234548203781785
30
0
10
-32.285709105751309
20
57.923807571095494
30
0
10
-32.273399794513566
20
58.560209352847082
30
0
10
-32.256382280969888
20
59.117948025751716
30
0
10
-32.22321770375045
20
59.63110686639606
30
0
10
-32.157506824700654
20
60.180015519881053
30
0
10
-32.041622007818603
20
60.8649339497779
30
0
10
-31.859782829517371
20
61.785288699435455
30
0
10
-31.601851580030278
20
63.013742522483291
30
0
10
-31.265353842860662
20
64.581837835116758
30
0
10
-30.853868305547497
20
66.488707008248952
30
0
10
-30.376156661135504
20
68.705104719484595
30
0
10
-29.844998870100969
20
71.179301405332723
30
0
10
-29.276154135237952
20
73.842182378963429
30
0
10
-28.687268243221794
20
76.612686726603698
30
0
10
-28.096803072022109
20
79.403103751137678
30
0
10
-27.522958781716124
20
82.124421349897233
30
0
10
-26.98259401624032
20
84.691673592580457
30
0
10
-26.490158886913967
20
87.029238513345945
30
0
10
-26.056594700714459
20
89.076273933061216
30
0
10
-25.688312365038477
20
90.791823431099417
30
0
10
-25.385987195173353
20
92.160693441878934
30
0
10
-25.143782818621023
20
93.19752757069071
30
0
10
-24.947518885289135
20
93.955317959992385
30
0
10
-24.776952261178501
20
94.516654642107426
30
0
10
-24.611626186068353
20
94.970090407700212
30
0
10
-24.435568345586859
20
95.39117873833014
30
0
10
-24.242777881468619
20
95.820563111054213
30
0
10
-24.041452448248535
20
96.246307016517747
30
0
10
-23.840999259162228
20
96.639737648398167
30
0
10
-23.640828423186253
20
96.986372143241653
30
0
10
-23.416727556288439
20
97.322781940050703
30
0
10
-23.13288896519331
20
97.712703357424942
30
0
10
-22.755177510970075
20
98.219912992906316
30
0
10
-22.266165905179317
20
98.877767287149837
30
0
10
-21.665801736100747
20
99.687803388068858
30
0
10
-20.967055864872769
20
100.62857314749698
30
0
10
-20.193246462410666
20
101.66105642036618
30
0
10
-19.374663800503157
20
102.73550135945796
30
0
10
-18.545491695944364
20
103.79766107303475
30
0
10
-17.740609776691485
20
104.79526876043909
30
0
10
-16.99242735923146
20
105.68445996239234
30
0
10
-16.327751478339682
20
106.43609322299197
30
0
10
-15.765495576042415
20
107.0381030732905
30
0
10
-15.31460853847458
20
107.49744558771738
30
0
10
-14.971456741033617
20
107.84312535983035
30
0
10
-14.718496458409486
20
108.12664760997612
30
0
10
-14.519777601738086
20
108.42879881745108
30
0
10
-14.328509730523351
20
108.84246126810987
30
0
10
-14.102530688709813
20
109.44034672770078
30
0
10
-13.820404161002141
20
110.24031722363846
30
0
10
-13.487746775625363
20
111.19384285238968
30
0
10
-13.125646218684746
20
112.21600390706149
30
0
10
-12.763382327196949
20
113.20552235173109
30
0
10
-12.429316790053601
20
114.06908023353654
30
0
10
-12.142778605488509
20
114.74320842835581
30
0
10
-11.905015580982514
20
115.21863963358015
30
0
10
-11.692021363285939
20
115.55946671436359
30
0
10
-11.471270873971001
20
115.85531685217094
30
0
10
-11.216171141788438
20
116.17989600853085
30
0
10
-10.923072273981699
20
116.54245496784533
30
0
10
-10.601681852006378
20
116.91339742982123
30
0
10
-10.264457264907634
20
117.25321198376263
30
0
10
-9.9140354230181629
20
117.54571769630672
30
0
10
-9.5457252316209829
20
117.79540323689474
30
0
10
-9.154166470793152
20
118.01391206213623
30
0
10
-8.740179587369429
20
118.20793939655032
30
0
10
-8.3107453343406306
20
118.37611060897588
30
0
10
-7.8735673376477404
20
118.5138930100006
30
0
10
-7.433054441494483
20
118.61618339986657
30
0
10
-6.9865734911969053
20
118.68031234302286
30
0
10
-6.5231646026708887
20
118.70738050674873
30
0
10
-6.0204749337666321
20
118.70458646980421
30
0
10
-5.4456612268632041
20
118.68569748834447
30
0
10
-4.7669270753361275
20
118.66671600130225
30
0
10
-3.9637097063942957
20
118.66223075875203
30
0
10
-3.036360765695008
20
118.6817913477482
30
0
10
-2.0187088703483669
20
118.72552212537364
30
0
10
-0.96892414004339811
20
118.78580151367812
30
0
10
0.04534469635500625
20
118.85052753188376
30
0
10
0.95936076782577917
20
118.90574970067911
30
0
10
1.7258787889470542
20
118.93876978484899
30
0
10
2.3261072437919044
20
118.94056934353932
30
0
10
2.7888037823544822
20
118.90968576555863
30
0
10
3.1810425778229079
20
118.85109390103445
30
0
10
3.5726789501304879
20
118.77048338823579
30
0
10
4.0019050015445332
20
118.66868578595459
30
0
10
4.4583367692829929
20
118.53930147473642
30
0
10
4.9120257019485027
20
118.37451804946795
30
0
10
5.3343693341275262
20
118.16963926210448
30
0
10
5.7181278885678646
20
117.92697128235253
30
0
10
6.067329628729432
20
117.65126584357147
30
0
10
6.3911748939219146
20
117.34634524770939
30
0
10
6.6963989626484777
20
117.01103735875276
30
0
10
6.9862493765980354
20
116.6450491656925
30
0
10
7.2596390155308406
20
116.25363650784637
30
0
10
7.5093250158999991
20
115.85527592782285
30
0
10
7.7275052694933848
20
115.46871384947482
30
0
10
7.9116258636336028
20
115.09942184405452
30
0
10
8.0725512563155526
20
114.71967457607711
30
0
10
8.229884119784888
20
114.28308833873248
30
0
10
8.4021142440044905
20
113.75234456999715
30
0
10
8.5962574501084443
20
113.12970959183174
30
0
10
8.8058055477997303
20
112.46009707547168
30
0
10
9.0181324711215129
20
111.80360989598555
30
0
10
9.219244203014739
20
111.21665855073388
30
0
10
9.3996946996981432
20
110.72923696894962
30
0
10
9.5597947673162018
20
110.32479420932388
30
0
10
9.7085059050273479
20
109.96255707361297
30
0
10
9.8622175418075599
20
109.5977339213762
30
0
10
10.044055780514485
20
109.20507245417063
30
0
10
10.278443172422428
20
108.77396778241092
30
0
10
10.585541091803554
20
108.30029390526867
30
0
10
10.974571219076996
20
107.77793958431262
30
0
10
11.443987908251984
20
107.19839369148856
30
0
10
11.98451805617445
20
106.55406499755108
30
0
10
12.58129807672611
20
105.84044963921627
30
0
10
13.216326119491253
20
105.05860171008368
30
0
10
13.870924747658881
20
104.21789976134127
30
0
10
14.527745503467607
20
103.33736251831976
30
0
10
15.170925848741536
20
102.4416588511281
30
0
10
15.786559942420965
20
101.5579738648441
30
0
10
16.363037997480387
20
100.71258335366366
30
0
10
16.89145923336573
20
99.927449321886073
30
0
10
17.365972519058769
20
99.217046580318083
30
0
10
17.784245264257518
20
98.584516445139087
30
0
10
18.147590702586413
20
98.019806163714222
30
0
10
18.459662793027551
20
97.50643785791533
30
0
10
18.725212943005999
20
97.027789908237722
30
0
10
18.949089792271682
20
96.572187725420804
30
0
10
19.134471534883172
20
96.141936224244034
30
0
10
19.285080347021683
20
95.741659359147803
30
0
10
19.408361538994555
20
95.361374856982991
30
0
10
19.519380625225608
20
94.956366187167959
30
0
10
19.640230938629976
20
94.448353300371764
30
0
10
19.795540396532424
20
93.745270139167246
30
0
10
20.009156651856319
20
92.755443277041564
30
0
10
20.300234557753171
20
91.404551253080569
30
0
10
20.679900212690391
20
89.650038516746648
30
0
10
21.15232949847034
20
87.47692808192285
30
0
10
21.715554662532234
20
84.894762684283776
30
0
10
22.362372219394867
20
81.93412666897828
30
0
10
23.081207831406449
20
78.643345831739381
30
0
10
23.85699963415027
20
75.085110970453613
30
0
10
24.672073556706941
20
71.333134524944469
30
0
10
25.50702209458116
20
67.468792994311769
30
0
10
26.341581474442041
20
63.577775876775881
30
0
10
27.155509722013257
20
59.746731191795853
30
0
10
27.929463816375858
20
56.059914066980753
30
0
10
28.645878457164425
20
52.595830344825821
30
0
10
29.289841342118251
20
49.423890736438445
30
0
10
29.849976512293036
20
46.601040681674483
30
0
10
30.319309085877105
20
44.168446167885364
30
0
10
30.69617330864228
20
42.148049270102639
30
0
10
30.985020137290931
20
40.53942576638314
30
0
10
31.197458496441119
20
39.31594007091492
30
0
10
31.35274974038715
20
38.422544254605391
30
0
10
31.479671587719199
20
37.769460665934609
30
0
10
31.611908247583042
20
37.245279200498508
30
0
10
31.779898743683425
20
36.740553643769267
30
0
10
32.004205547045231
20
36.167079733331434
30
0
10
32.287314179697255
20
35.481316423544669
30
0
10
32.608937775027556
20
34.698952984282329
30
0
10
32.936851003933043
20
33.871266011882049
30
0
10
33.235297326754505
20
33.067024095244186
30
0
10
33.474989371012349
20
32.35148293016767
30
0
10
33.640934893634025
20
31.768359565627421
30
0
10
33.744994661149448
20
31.316053999096958
30
0
10
33.814800989047825
20
30.953745310681839
30
0
10
33.876782040781826
20
30.619173023833554
30
0
10
33.936149009290276
20
30.240993767445488
30
0
10
33.978033951757247
20
29.758889865109307
30
0
10
33.984644827556828
20
29.143091412257732
30
0
10
33.950851344173152
20
28.421915289228998
30
0
10
33.890174531473299
20
27.680482607186271
30
0
10
33.821532359958141
20
27.013930522449826
30
0
10
33.760426212100313
20
26.490294451465516
30
0
10
33.708833617556436
20
26.11163927441256
30
0
10
33.64432540932053
20
25.770307316403326
30
0
10
33.532464468089572
20
25.304131585670095
30
0
10
33.340070188077469
20
24.554846950388431
30
0
10
33.050288498515066
20
23.434654233636781
30
0
10
32.662975445368254
20
21.928301004574248
30
0
10
32.190464385303841
20
20.074969165914037
30
0
10
31.654889883254043
20
17.956967477436564
30
0
10
31.084858930516273
20
15.68557203688454
30
0
10
30.512404545679054
20
13.388098760796709
30
0
10
29.969813108242406
20
11.194429455852779
30
0
10
29.486517147488961
20
9.2238111801987603
30
0
10
29.085934204557482
20
7.5714497262224532
30
0
10
28.782388590775398
20
6.2953961900334381
30
0
10
28.577858456259506
20
5.4028310113583284
30
0
10
28.459124030510367
20
4.8377246262038351
30
0
10
28.393904021901697
20
4.4650199099699917
30
0
10
28.348751198564756
20
4.1315977527859529
30
0
10
28.305620453008011
20
3.723113026074512
30
0
10
28.283344148169029
20
3.2367276559941631
30
0
10
28.324825546674049
20
2.7432422801490803
30
0
10
28.477496560337304
20
2.3287423041768935
30
0
10
28.773082902193931
20
2.0311431744953783
30
0
10
29.222242988709539
20
1.8366627993962334
30
0
10
29.818519509571679
20
1.7094610130475318
30
0
10
30.538748147893429
20
1.6144421678618759
30
0
10
31.34725965850436
20
1.5283945299478137
30
0
10
32.20174951405393
20
1.4353795256442514
30
0
10
33.058787605346119
20
1.3268743005930903
30
0
10
33.879392835596406
20
1.199924873518311
30
0
10
34.634764704916989
20
1.0562027469552855
30
0
10
35.311420310408586
20
0.90054011775409148
30
0
10
35.907626918171346
20
0.73834238080637837
30
0
10
36.430383960276046
20
0.57271081372210064
30
0
10
36.892159778159552
20
0.40228149178768574
30
0
10
37.307818307777438
20
0.21729113273968928
30
0
10
37.691215516434106
20
0.0029117729168951847
30
0
10
38.052167319697134
20
-0.2539490850741577
30
0
10
38.392395693053949
20
-0.55700791703380792
30
0
10
38.705083720116342
20
-0.89977005889362172
30
0
10
38.979024649365783
20
-1.2731240602913934
30
0
10
39.201553744937264
20
-1.6722264004794676
30
0
10
39.362096857384749
20
-2.0993676019803829
30
0
10
39.455301826336758
20
-2.5546955408002185
30
0
10
39.484915355731147
20
-3.0282757770587359
30
0
10
39.46571283008106
20
-3.4944606544600316
30
0
10
39.41165878746429
20
-3.9303124616935632
30
0
10
39.325738387137974
20
-4.3310572352334695
30
0
10
39.188570426853332
20
-4.7274781419249408
30
0
10
38.972638945101352
20
-5.16669057761984
30
0
10
38.655947576438436
20
-5.6935634754182471
30
0
10
38.238098195473107
20
-6.3292310513675973
30
0
10
37.737417966207545
20
-7.0724147951544527
30
0
10
37.183922985158418
20
-7.9057114090380605
30
0
10
36.613824855773352
20
-8.8001277879541764
30
0
10
36.063150010924836
20
-9.7204416258231063
30
0
10
35.562297059007101
20
-10.629998748081693
30
0
10
35.128813069532434
20
-11.496268762879108
30
0
10
34.766418914156468
20
-12.294018334365106
30
0
10
34.470073213801513
20
-13.006224020364979
30
0
10
34.229408094535913
20
-13.625610927325303
30
0
10
34.032798811701582
20
-14.155906448113669
30
0
10
33.871236686418264
20
-14.613285121537668
30
0
10
33.742063153110855
20
-15.027537871041412
30
0
10
33.643054725083758
20
-15.436955185675775
30
0
10
33.567261114103005
20
-15.883397091364198
30
0
10
33.496613581775058
20
-16.407332429746305
30
0
10
33.407248011417209
20
-17.041719777139107
30
0
10
33.276726844005218
20
-17.805165692677537
30
0
10
33.089934910971515
20
-18.696365993506518
30
0
10
32.847082089189222
20
-19.685584044476073
30
0
10
32.565310276151529
20
-20.715995754664075
30
0
10
32.270900661654792
20
-21.719841139087404
30
0
10
31.993755760992421
20
-22.630938869784632
30
0
10
31.760880370524418
20
-23.398889849187093
30
0
10
31.59048182843047
20
-24.002051333743143
30
0
10
31.48534887275181
20
-24.46224725580543
30
0
10
31.427863343306008
20
-24.855219303862807
30
0
10
31.391643997128963
20
-25.276669066650975
30
0
10
31.351631229238734
20
-25.81255883798072
30
0
10
31.295432502348589
20
-26.505812747587754
30
0
10
31.221037529567806
20
-27.363325436403443
30
0
10
31.133665748836911
20
-28.365551985304144
30
0
10
31.042968777631224
20
-29.475065765164274
30
0
10
30.959977483908276
20
-30.645807906080954
30
0
10
30.894405711280641
20
-31.831440369962468
30
0
10
30.851179079270487
20
-32.995592856679302
30
0
10
30.830247792047608
20
-34.114128336621306
30
0
10
30.82835305853024
20
-35.172645930000918
30
0
10
30.840213937707311
20
-36.16542944939895
30
0
10
30.859923400771009
20
-37.093799878150008
30
0
10
30.882324980101306
20
-37.964719376592797
30
0
10
30.904233382340397
20
-38.789296846226797
30
0
10
30.926132583354406
20
-39.581311544833831
30
0
10
30.951889878761495
20
-40.355836959547339
30
0
10
30.986967403632832
20
-41.127974156812073
30
0
10
31.037055278185974
20
-41.911537941145802
30
0
10
31.106563812997578
20
-42.717793561689376
30
0
10
31.197099182698572
20
-43.554098451186832
30
0
10
31.306167833568939
20
-44.42279587106497
30
0
10
31.428480069059667
20
-45.322566604584402
30
0
10
31.557051032067807
20
-46.249595305997424
30
0
10
31.684363050542984
20
-47.198789876454867
30
0
10
31.80353854162751
20
-48.165018179770087
30
0
10
31.90942240921196
20
-49.144243748390082
30
0
10
31.999927353205663
20
-50.134948634646136
30
0
10
32.075586934703338
20
-51.137606494013987
30
0
10
32.138659498221259
20
-52.153668466333436
30
0
10
32.192378222572131
20
-53.184705543263689
30
0
10
32.240154865527984
20
-54.231505996769549
30
0
10
32.284768847899549
20
-55.293144323557414
30
0
10
32.327643720131057
20
-56.366174543737884
30
0
10
32.367877298002874
20
-57.443481341361327
30
0
10
32.40268076373534
20
-58.515080630770477
30
0
10
32.428296200381332
20
-59.569582371115516
30
0
10
32.440765384652572
20
-60.595446120647374
30
0
10
32.436740227755564
20
-61.58229791914291
30
0
10
32.41432265752362
20
-62.522279169387545
30
0
10
32.3737809599005
20
-63.411245102125157
30
0
10
32.318601587906905
20
-64.250376085543934
30
0
10
32.25487028442322
20
-65.045724418798272
30
0
10
32.189918132713771
20
-65.806840274145159
30
0
10
32.131175503818767
20
-66.545679089692953
30
0
10
32.084998475869334
20
-67.27541925493523
30
0
10
32.055366547083239
20
-68.009253151165353
30
0
10
32.043067953859946
20
-68.759389725286781
30
0
10
32.046864318639322
20
-69.536970929135279
30
0
10
32.064335832008041
20
-70.351845992794622
30
0
10
32.092883811365049
20
-71.212401802457748
30
0
10
32.130591734334175
20
-72.125368568357842
30
0
10
32.177338944970458
20
-73.0956380832951
30
0
10
32.234558977529936
20
-74.126063805449292
30
0
10
32.304571817615297
20
-75.217258684481138
30
0
10
32.390057085216057
20
-76.367393061918449
30
0
10
32.493469024361033
20
-77.571993553598958
30
0
10
32.616474879966091
20
-78.823739094273179
30
0
10
32.759386904446835
20
-80.112263713201003
30
0
10
32.920588311575834
20
-81.423943236267263
30
0
10
33.095986341747874
20
-82.741725487501711
30
0
10
33.279725283798214
20
-84.046818829599474
30
0
10
33.464873603113006
20
-85.320345644324206
30
0
10
33.644117520762087
20
-86.544999028117758
30
0
10
33.810459146086743
20
-87.706720470843948
30
0
10
33.957895757373635
20
-88.796316836742562
30
0
10
34.082146474215399
20
-89.811223708241172
30
0
10
34.181266456472372
20
-90.756923944998476
30
0
10
34.256544204601674
20
-91.649232962036024
30
0
10
34.312002424406771
20
-92.512309660167858
30
0
10
34.353260904787881
20
-93.374713973806735
30
0
10
34.386617762802288
20
-94.266134096419606
30
0
10
34.418006541003123
20
-95.213730717422621
30
0
10
34.452083821083505
20
-96.238887686007132
30
0
10
34.491072768920034
20
-97.353198804868299
30
0
10
34.534359272970619
20
-98.556813443832482
30
0
10
34.579380685577448
20
-99.840839209096387
30
0
10
34.622225444142629
20
-101.18883151105629
30
0
10
34.658344892405346
20
-102.57864937836007
30
0
10
34.683226108026041
20
-103.98415565494668
30
0
10
34.693060679783045
20
-105.3769817262606
30
0
10
34.685463623652382
20
-106.72826993729119
30
0
10
34.660057686061748
20
-108.0104127437916
30
0
10
34.619393463890987
20
-109.19882466864992
30
0
10
34.568684028922959
20
-110.27358786585341
30
0
10
34.514077298423238
20
-111.22097583118828
30
0
10
34.461321196558181
20
-112.03495939343676
30
0
10
34.414228317976978
20
-112.71882573637686
30
0
10
34.373320565925482
20
-113.28650563034168
30
0
10
34.334171643840257
20
-113.76460734794267
30
0
10
34.286545527506185
20
-114.19242271242899
30
0
10
34.218758079384244
20
-114.60833822699298
30
0
10
34.121393141482336
20
-115.037967267287
30
0
10
33.991448575801812
20
-115.48105711447099
30
0
10
33.82922657115229
20
-115.92293913013188
30
0
10
33.63546217114181
20
-116.34557090758001
30
0
10
33.407589601623243
20
-116.74057986308362
30
0
10
33.142062443212915
20
-117.10698908917098
30
0
10
32.837322243011961
20
-117.44613358878669
30
0
10
32.497843923883003
20
-117.756501568147
30
0
10
32.131770854379589
20
-118.03364600366805
30
0
10
31.746266532913218
20
-118.27294625988225
30
0
10
31.341526987280623
20
-118.47182351927876
30
0
10
30.912671001109278
20
-118.6307929169935
30
0
10
30.458332323301317
20
-118.75258879541022
30
0
10
29.990453981201792
20
-118.8420383538248
30
0
10
29.534364779132272
20
-118.90501790987214
30
0
10
29.108220137389864
20
-118.94625011016082
30
0
10
28.704386068737946
20
-118.96705789438037
30
0
10
28.362204526543042
20
-118.96449447964105
30
0
10
28.069980043943474
20
-118.94930496550771
30
0
10
27.854002368169866
20
-118.93262950384522
30
0
10
27.740400000000001
20
-118.9226
30
0
0
ENDSEC
0
SECTION
2
OBJECTS
0
DICTIONARY
5
C
100
AcDbDictionary
3
ACAD_GROUP
350
D
3
ACAD_MLINESTYLE
350
17
0
DICTIONARY
5
D
100
AcDbDictionary
0
DICTIONARY
5
1A
330
C
100
AcDbDictionary
0
DICTIONARY
5
17
100
AcDbDictionary
0
ENDSEC
0
EOF
