0
SECTION
2
HEADER
9
$INSUNITS
70
4
9
$ACADVER
1
AC1014
9
$HANDSEED
5
FFFF
0
ENDSEC
0
SECTION
2
TABLES
0
TABLE
2
VPORT
5
8
100
AcDbSymbolTable
0
ENDTAB
0
TABLE
2
LTYPE
5
5
100
AcDbSymbolTable
0
LTYPE
5
14
100
AcDbSymbolTableRecord
100
AcDbLinetypeTableRecord
2
BYBLOCK
70
0
0
LTYPE
5
15
100
AcDbSymbolTableRecord
100
AcDbLinetypeTableRecord
2
BYLAYER
70
0
0
LTYPE
5
16
100
AcDbSymbolTableRecord
100
AcDbLinetypeTableRecord
2
DASHED
70
0
3
Dashed __ __ __ __ __ __ __ __ __ __ __ __ __ _
72
65
73
2
40
0.75
49
0.5
74
0
49
-0.25
74
0
0
ENDTAB
0
TABLE
2
LAYER
5
2
100
AcDbSymbolTable
70
2
0
LAYER
5
50
100
AcDbSymbolTableRecord
100
AcDbLayerTableRecord
2
0
70
0
62
7
6
CONTINUOUS
0
ENDTAB
0
TABLE
2
STYLE
5
3
100
AcDbSymbolTable
70
1
0
STYLE
5
11
100
AcDbSymbolTableRecord
100
AcDbTextStyleTableRecord
2
STANDARD
70
0
0
ENDTAB
0
TABLE
2
VIEW
5
6
100
AcDbSymbolTable
70
0
0
ENDTAB
0
TABLE
2
UCS
5
7
100
AcDbSymbolTable
70
0
0
ENDTAB
0
TABLE
2
APPID
5
9
100
AcDbSymbolTable
70
2
0
APPID
5
12
100
AcDbSymbolTableRecord
100
AcDbRegAppTableRecord
2
ACAD
70
0
0
ENDTAB
0
TABLE
2
DIMSTYLE
5
A
100
AcDbSymbolTable
70
1
0
ENDTAB
0
TABLE
2
BLOCK_RECORD
5
1
100
AcDbSymbolTable
70
1
0
BLOCK_RECORD
5
1F
100
AcDbSymbolTableRecord
100
AcDbBlockTableRecord
2
*MODEL_SPACE
0
BLOCK_RECORD
5
1B
100
AcDbSymbolTableRecord
100
AcDbBlockTableRecord
2
*PAPER_SPACE
0
ENDTAB
0
ENDSEC
0
SECTION
2
BLOCKS
0
BLOCK
5
20
100
AcDbEntity
100
AcDbBlockBegin
2
*MODEL_SPACE
0
ENDBLK
5
21
100
AcDbEntity
100
AcDbBlockEnd
0
BLOCK
5
1C
100
AcDbEntity
100
AcDbBlockBegin
2
*PAPER_SPACE
0
ENDBLK
5
1D
100
AcDbEntity
100
AcDbBlockEnd
0
ENDSEC
0
SECTION
2
ENTITIES
0
SPLINE
5
100
100
AcDbEntity
8
0
100
AcDbSpline
70
6
71
5
72
791
73
785
74
0
42
0.000000001
43
0.0000000001
44
0.0000000001
40
0
40
0
40
0
40
0
40
0
40
0
40
0.0012820512820512821
40
0.0025641025641025641
40
0.0038461538461538464
40
0.0051282051282051282
40
0.00641025641025641
40
0.0076923076923076919
40
0.0089743589743589737
40
0.010256410256410256
40
0.011538461538461539
40
0.012820512820512822
40
0.014102564102564105
40
0.015384615384615387
40
0.01666666666666667
40
0.017948717948717951
40
0.019230769230769232
40
0.020512820512820513
40
0.021794871794871794
40
0.023076923076923075
40
0.024358974358974356
40
0.025641025641025637
40
0.026923076923076918
40
0.028205128205128199
40
0.02948717948717948
40
0.030769230769230761
40
0.032051282051282041
40
0.033333333333333326
40
0.03461538461538461
40
0.035897435897435895
40
0.037179487179487179
40
0.038461538461538464
40
0.039743589743589748
40
0.041025641025641033
40
0.042307692307692317
40
0.043589743589743601
40
0.044871794871794886
40
0.04615384615384617
40
0.047435897435897455
40
0.048717948717948739
40
0.050000000000000024
40
0.051282051282051308
40
0.052564102564102592
40
0.053846153846153877
40
0.055128205128205161
40
0.056410256410256446
40
0.05769230769230773
40
0.058974358974359015
40
0.060256410256410299
40
0.061538461538461584
40
0.062820512820512861
40
0.064102564102564139
40
0.065384615384615416
40
0.066666666666666693
40
0.067948717948717971
40
0.069230769230769248
40
0.070512820512820526
40
0.071794871794871803
40
0.073076923076923081
40
0.074358974358974358
40
0.075641025641025636
40
0.076923076923076913
40
0.078205128205128191
40
0.079487179487179468
40
0.080769230769230746
40
0.082051282051282023
40
0.083333333333333301
40
0.084615384615384578
40
0.085897435897435856
40
0.087179487179487133
40
0.088461538461538411
40
0.089743589743589688
40
0.091025641025640966
40
0.092307692307692243
40
0.093589743589743521
40
0.094871794871794798
40
0.096153846153846076
40
0.097435897435897353
40
0.098717948717948631
40
0.099999999999999908
40
0.10128205128205119
40
0.10256410256410246
40
0.10384615384615374
40
0.10512820512820502
40
0.1064102564102563
40
0.10769230769230757
40
0.10897435897435885
40
0.11025641025641013
40
0.11153846153846141
40
0.11282051282051268
40
0.11410256410256396
40
0.11538461538461524
40
0.11666666666666652
40
0.11794871794871779
40
0.11923076923076907
40
0.12051282051282035
40
0.12179487179487163
40
0.1230769230769229
40
0.12435897435897418
40
0.12564102564102547
40
0.12692307692307675
40
0.12820512820512803
40
0.1294871794871793
40
0.13076923076923058
40
0.13205128205128186
40
0.13333333333333314
40
0.13461538461538441
40
0.13589743589743569
40
0.13717948717948697
40
0.13846153846153825
40
0.13974358974358952
40
0.1410256410256408
40
0.14230769230769208
40
0.14358974358974336
40
0.14487179487179463
40
0.14615384615384591
40
0.14743589743589719
40
0.14871794871794847
40
0.14999999999999974
40
0.15128205128205102
40
0.1525641025641023
40
0.15384615384615358
40
0.15512820512820485
40
0.15641025641025613
40
0.15769230769230741
40
0.15897435897435869
40
0.16025641025640996
40
0.16153846153846124
40
0.16282051282051252
40
0.1641025641025638
40
0.16538461538461507
40
0.16666666666666635
40
0.16794871794871763
40
0.16923076923076891
40
0.17051282051282018
40
0.17179487179487146
40
0.17307692307692274
40
0.17435897435897402
40
0.17564102564102529
40
0.17692307692307657
40
0.17820512820512785
40
0.17948717948717913
40
0.1807692307692304
40
0.18205128205128168
40
0.18333333333333296
40
0.18461538461538424
40
0.18589743589743551
40
0.18717948717948679
40
0.18846153846153807
40
0.18974358974358935
40
0.19102564102564062
40
0.1923076923076919
40
0.19358974358974318
40
0.19487179487179446
40
0.19615384615384573
40
0.19743589743589701
40
0.19871794871794829
40
0.19999999999999957
40
0.20128205128205084
40
0.20256410256410212
40
0.2038461538461534
40
0.20512820512820468
40
0.20641025641025595
40
0.20769230769230723
40
0.20897435897435851
40
0.21025641025640979
40
0.21153846153846106
40
0.21282051282051234
40
0.21410256410256362
40
0.2153846153846149
40
0.21666666666666617
40
0.21794871794871745
40
0.21923076923076873
40
0.22051282051282001
40
0.22179487179487128
40
0.22307692307692256
40
0.22435897435897384
40
0.22564102564102512
40
0.22692307692307639
40
0.22820512820512767
40
0.22948717948717895
40
0.23076923076923023
40
0.2320512820512815
40
0.23333333333333278
40
0.23461538461538406
40
0.23589743589743534
40
0.23717948717948661
40
0.23846153846153789
40
0.23974358974358917
40
0.24102564102564045
40
0.24230769230769172
40
0.243589743589743
40
0.24487179487179428
40
0.24615384615384556
40
0.24743589743589683
40
0.24871794871794811
40
0.24999999999999939
40
0.25128205128205067
40
0.25256410256410194
40
0.25384615384615322
40
0.2551282051282045
40
0.25641025641025578
40
0.25769230769230705
40
0.25897435897435833
40
0.26025641025640961
40
0.26153846153846089
40
0.26282051282051216
40
0.26410256410256344
40
0.26538461538461472
40
0.266666666666666
40
0.26794871794871727
40
0.26923076923076855
40
0.27051282051281983
40
0.27179487179487111
40
0.27307692307692238
40
0.27435897435897366
40
0.27564102564102494
40
0.27692307692307622
40
0.27820512820512749
40
0.27948717948717877
40
0.28076923076923005
40
0.28205128205128133
40
0.2833333333333326
40
0.28461538461538388
40
0.28589743589743516
40
0.28717948717948644
40
0.28846153846153771
40
0.28974358974358899
40
0.29102564102564027
40
0.29230769230769155
40
0.29358974358974282
40
0.2948717948717941
40
0.29615384615384538
40
0.29743589743589666
40
0.29871794871794793
40
0.29999999999999921
40
0.30128205128205049
40
0.30256410256410177
40
0.30384615384615304
40
0.30512820512820432
40
0.3064102564102556
40
0.30769230769230688
40
0.30897435897435815
40
0.31025641025640943
40
0.31153846153846071
40
0.31282051282051199
40
0.31410256410256326
40
0.31538461538461454
40
0.31666666666666582
40
0.3179487179487171
40
0.31923076923076837
40
0.32051282051281965
40
0.32179487179487093
40
0.32307692307692221
40
0.32435897435897348
40
0.32564102564102476
40
0.32692307692307604
40
0.32820512820512732
40
0.32948717948717859
40
0.33076923076922987
40
0.33205128205128115
40
0.33333333333333243
40
0.3346153846153837
40
0.33589743589743498
40
0.33717948717948626
40
0.33846153846153754
40
0.33974358974358881
40
0.34102564102564009
40
0.34230769230769137
40
0.34358974358974265
40
0.34487179487179392
40
0.3461538461538452
40
0.34743589743589648
40
0.34871794871794776
40
0.34999999999999903
40
0.35128205128205031
40
0.35256410256410159
40
0.35384615384615287
40
0.35512820512820414
40
0.35641025641025542
40
0.3576923076923067
40
0.35897435897435798
40
0.36025641025640925
40
0.36153846153846053
40
0.36282051282051181
40
0.36410256410256309
40
0.36538461538461436
40
0.36666666666666564
40
0.36794871794871692
40
0.3692307692307682
40
0.37051282051281947
40
0.37179487179487075
40
0.37307692307692203
40
0.37435897435897331
40
0.37564102564102458
40
0.37692307692307586
40
0.37820512820512714
40
0.37948717948717842
40
0.38076923076922969
40
0.38205128205128097
40
0.38333333333333225
40
0.38461538461538353
40
0.3858974358974348
40
0.38717948717948608
40
0.38846153846153736
40
0.38974358974358864
40
0.39102564102563991
40
0.39230769230769119
40
0.39358974358974247
40
0.39487179487179375
40
0.39615384615384502
40
0.3974358974358963
40
0.39871794871794758
40
0.39999999999999886
40
0.40128205128205013
40
0.40256410256410141
40
0.40384615384615269
40
0.40512820512820397
40
0.40641025641025524
40
0.40769230769230652
40
0.4089743589743578
40
0.41025641025640908
40
0.41153846153846035
40
0.41282051282051163
40
0.41410256410256291
40
0.41538461538461419
40
0.41666666666666546
40
0.41794871794871674
40
0.41923076923076802
40
0.4205128205128193
40
0.42179487179487057
40
0.42307692307692185
40
0.42435897435897313
40
0.42564102564102441
40
0.42692307692307568
40
0.42820512820512696
40
0.42948717948717824
40
0.43076923076922952
40
0.43205128205128079
40
0.43333333333333207
40
0.43461538461538335
40
0.43589743589743463
40
0.4371794871794859
40
0.43846153846153718
40
0.43974358974358846
40
0.44102564102563974
40
0.44230769230769101
40
0.44358974358974229
40
0.44487179487179357
40
0.44615384615384485
40
0.44743589743589612
40
0.4487179487179474
40
0.44999999999999868
40
0.45128205128204996
40
0.45256410256410123
40
0.45384615384615251
40
0.45512820512820379
40
0.45641025641025507
40
0.45769230769230634
40
0.45897435897435762
40
0.4602564102564089
40
0.46153846153846018
40
0.46282051282051145
40
0.46410256410256273
40
0.46538461538461401
40
0.46666666666666529
40
0.46794871794871656
40
0.46923076923076784
40
0.47051282051281912
40
0.4717948717948704
40
0.47307692307692167
40
0.47435897435897295
40
0.47564102564102423
40
0.47692307692307551
40
0.47820512820512678
40
0.47948717948717806
40
0.48076923076922934
40
0.48205128205128062
40
0.48333333333333189
40
0.48461538461538317
40
0.48589743589743445
40
0.48717948717948573
40
0.488461538461537
40
0.48974358974358828
40
0.49102564102563956
40
0.49230769230769084
40
0.49358974358974211
40
0.49487179487179339
40
0.49615384615384467
40
0.49743589743589595
40
0.49871794871794722
40
0.4999999999999985
40
0.50128205128204983
40
0.50256410256410111
40
0.50384615384615239
40
0.50512820512820367
40
0.50641025641025494
40
0.50769230769230622
40
0.5089743589743575
40
0.51025641025640878
40
0.51153846153846005
40
0.51282051282051133
40
0.51410256410256261
40
0.51538461538461389
40
0.51666666666666516
40
0.51794871794871644
40
0.51923076923076772
40
0.520512820512819
40
0.52179487179487027
40
0.52307692307692155
40
0.52435897435897283
40
0.52564102564102411
40
0.52692307692307538
40
0.52820512820512666
40
0.52948717948717794
40
0.53076923076922922
40
0.53205128205128049
40
0.53333333333333177
40
0.53461538461538305
40
0.53589743589743433
40
0.5371794871794856
40
0.53846153846153688
40
0.53974358974358816
40
0.54102564102563944
40
0.54230769230769071
40
0.54358974358974199
40
0.54487179487179327
40
0.54615384615384455
40
0.54743589743589582
40
0.5487179487179471
40
0.54999999999999838
40
0.55128205128204966
40
0.55256410256410093
40
0.55384615384615221
40
0.55512820512820349
40
0.55641025641025477
40
0.55769230769230604
40
0.55897435897435732
40
0.5602564102564086
40
0.56153846153845988
40
0.56282051282051115
40
0.56410256410256243
40
0.56538461538461371
40
0.56666666666666499
40
0.56794871794871626
40
0.56923076923076754
40
0.57051282051281882
40
0.5717948717948701
40
0.57307692307692137
40
0.57435897435897265
40
0.57564102564102393
40
0.57692307692307521
40
0.57820512820512648
40
0.57948717948717776
40
0.58076923076922904
40
0.58205128205128032
40
0.58333333333333159
40
0.58461538461538287
40
0.58589743589743415
40
0.58717948717948543
40
0.5884615384615367
40
0.58974358974358798
40
0.59102564102563926
40
0.59230769230769054
40
0.59358974358974181
40
0.59487179487179309
40
0.59615384615384437
40
0.59743589743589565
40
0.59871794871794692
40
0.5999999999999982
40
0.60128205128204948
40
0.60256410256410076
40
0.60384615384615203
40
0.60512820512820331
40
0.60641025641025459
40
0.60769230769230587
40
0.60897435897435714
40
0.61025641025640842
40
0.6115384615384597
40
0.61282051282051098
40
0.61410256410256225
40
0.61538461538461353
40
0.61666666666666481
40
0.61794871794871609
40
0.61923076923076736
40
0.62051282051281864
40
0.62179487179486992
40
0.6230769230769212
40
0.62435897435897247
40
0.62564102564102375
40
0.62692307692307503
40
0.62820512820512631
40
0.62948717948717758
40
0.63076923076922886
40
0.63205128205128014
40
0.63333333333333142
40
0.63461538461538269
40
0.63589743589743397
40
0.63717948717948525
40
0.63846153846153653
40
0.6397435897435878
40
0.64102564102563908
40
0.64230769230769036
40
0.64358974358974164
40
0.64487179487179291
40
0.64615384615384419
40
0.64743589743589547
40
0.64871794871794675
40
0.64999999999999802
40
0.6512820512820493
40
0.65256410256410058
40
0.65384615384615186
40
0.65512820512820313
40
0.65641025641025441
40
0.65769230769230569
40
0.65897435897435697
40
0.66025641025640824
40
0.66153846153845952
40
0.6628205128205108
40
0.66410256410256208
40
0.66538461538461335
40
0.66666666666666463
40
0.66794871794871591
40
0.66923076923076719
40
0.67051282051281846
40
0.67179487179486974
40
0.67307692307692102
40
0.6743589743589723
40
0.67564102564102357
40
0.67692307692307485
40
0.67820512820512613
40
0.67948717948717741
40
0.68076923076922868
40
0.68205128205127996
40
0.68333333333333124
40
0.68461538461538252
40
0.68589743589743379
40
0.68717948717948507
40
0.68846153846153635
40
0.68974358974358763
40
0.6910256410256389
40
0.69230769230769018
40
0.69358974358974146
40
0.69487179487179274
40
0.69615384615384401
40
0.69743589743589529
40
0.69871794871794657
40
0.69999999999999785
40
0.70128205128204912
40
0.7025641025641004
40
0.70384615384615168
40
0.70512820512820296
40
0.70641025641025423
40
0.70769230769230551
40
0.70897435897435679
40
0.71025641025640807
40
0.71153846153845934
40
0.71282051282051062
40
0.7141025641025619
40
0.71538461538461318
40
0.71666666666666445
40
0.71794871794871573
40
0.71923076923076701
40
0.72051282051281829
40
0.72179487179486956
40
0.72307692307692084
40
0.72435897435897212
40
0.7256410256410234
40
0.72692307692307467
40
0.72820512820512595
40
0.72948717948717723
40
0.73076923076922851
40
0.73205128205127978
40
0.73333333333333106
40
0.73461538461538234
40
0.73589743589743362
40
0.73717948717948489
40
0.73846153846153617
40
0.73974358974358745
40
0.74102564102563873
40
0.74230769230769
40
0.74358974358974128
40
0.74487179487179256
40
0.74615384615384384
40
0.74743589743589511
40
0.74871794871794639
40
0.74999999999999767
40
0.75128205128204895
40
0.75256410256410022
40
0.7538461538461515
40
0.75512820512820278
40
0.75641025641025406
40
0.75769230769230533
40
0.75897435897435661
40
0.76025641025640789
40
0.76153846153845917
40
0.76282051282051044
40
0.76410256410256172
40
0.765384615384613
40
0.76666666666666428
40
0.76794871794871555
40
0.76923076923076683
40
0.77051282051281811
40
0.77179487179486939
40
0.77307692307692066
40
0.77435897435897194
40
0.77564102564102322
40
0.7769230769230745
40
0.77820512820512577
40
0.77948717948717705
40
0.78076923076922833
40
0.78205128205127961
40
0.78333333333333088
40
0.78461538461538216
40
0.78589743589743344
40
0.78717948717948472
40
0.78846153846153599
40
0.78974358974358727
40
0.79102564102563855
40
0.79230769230768983
40
0.7935897435897411
40
0.79487179487179238
40
0.79615384615384366
40
0.79743589743589494
40
0.79871794871794621
40
0.79999999999999749
40
0.80128205128204877
40
0.80256410256410005
40
0.80384615384615132
40
0.8051282051282026
40
0.80641025641025388
40
0.80769230769230516
40
0.80897435897435643
40
0.81025641025640771
40
0.81153846153845899
40
0.81282051282051027
40
0.81410256410256154
40
0.81538461538461282
40
0.8166666666666641
40
0.81794871794871538
40
0.81923076923076665
40
0.82051282051281793
40
0.82179487179486921
40
0.82307692307692049
40
0.82435897435897176
40
0.82564102564102304
40
0.82692307692307432
40
0.8282051282051256
40
0.82948717948717687
40
0.83076923076922815
40
0.83205128205127943
40
0.83333333333333071
40
0.83461538461538198
40
0.83589743589743326
40
0.83717948717948454
40
0.83846153846153582
40
0.83974358974358709
40
0.84102564102563837
40
0.84230769230768965
40
0.84358974358974093
40
0.8448717948717922
40
0.84615384615384348
40
0.84743589743589476
40
0.84871794871794604
40
0.84999999999999731
40
0.85128205128204859
40
0.85256410256409987
40
0.85384615384615115
40
0.85512820512820242
40
0.8564102564102537
40
0.85769230769230498
40
0.85897435897435626
40
0.86025641025640753
40
0.86153846153845881
40
0.86282051282051009
40
0.86410256410256137
40
0.86538461538461264
40
0.86666666666666392
40
0.8679487179487152
40
0.86923076923076648
40
0.87051282051281775
40
0.87179487179486903
40
0.87307692307692031
40
0.87435897435897159
40
0.87564102564102286
40
0.87692307692307414
40
0.87820512820512542
40
0.8794871794871767
40
0.88076923076922797
40
0.88205128205127925
40
0.88333333333333053
40
0.88461538461538181
40
0.88589743589743308
40
0.88717948717948436
40
0.88846153846153564
40
0.88974358974358692
40
0.89102564102563819
40
0.89230769230768947
40
0.89358974358974075
40
0.89487179487179203
40
0.8961538461538433
40
0.89743589743589458
40
0.89871794871794586
40
0.89999999999999714
40
0.90128205128204841
40
0.90256410256409969
40
0.90384615384615097
40
0.90512820512820225
40
0.90641025641025352
40
0.9076923076923048
40
0.90897435897435608
40
0.91025641025640736
40
0.91153846153845863
40
0.91282051282050991
40
0.91410256410256119
40
0.91538461538461247
40
0.91666666666666374
40
0.91794871794871502
40
0.9192307692307663
40
0.92051282051281758
40
0.92179487179486885
40
0.92307692307692013
40
0.92435897435897141
40
0.92564102564102269
40
0.92692307692307396
40
0.92820512820512524
40
0.92948717948717652
40
0.9307692307692278
40
0.93205128205127907
40
0.93333333333333035
40
0.93461538461538163
40
0.93589743589743291
40
0.93717948717948418
40
0.93846153846153546
40
0.93974358974358674
40
0.94102564102563802
40
0.94230769230768929
40
0.94358974358974057
40
0.94487179487179185
40
0.94615384615384313
40
0.9474358974358944
40
0.94871794871794568
40
0.94999999999999696
40
0.95128205128204824
40
0.95256410256409951
40
0.95384615384615079
40
0.95512820512820207
40
0.95641025641025335
40
0.95769230769230462
40
0.9589743589743559
40
0.96025641025640718
40
0.96153846153845846
40
0.96282051282050973
40
0.96410256410256101
40
0.96538461538461229
40
0.96666666666666357
40
0.96794871794871484
40
0.96923076923076612
40
0.9705128205128174
40
0.97179487179486868
40
0.97307692307691995
40
0.97435897435897123
40
0.97564102564102251
40
0.97692307692307379
40
0.97820512820512506
40
0.97948717948717634
40
0.98076923076922762
40
0.9820512820512789
40
0.98333333333333017
40
0.98461538461538145
40
0.98589743589743273
40
0.98717948717948401
40
0.98846153846153528
40
0.98974358974358656
40
0.99102564102563784
40
0.99230769230768912
40
0.99358974358974039
40
0.99487179487179167
40
0.99615384615384295
40
0.99743589743589423
40
0.9987179487179455
40
1
40
1
40
1
40
1
40
1
40
1
41
1
41
1
41
1
41
1
41
1
41
1
41
1
41
1
41
1
41
1
41
1
41
1
41
1
41
1
41
1
41
1
41
1
41
1
41
1
41
1
41
1
41
1
41
1
41
1
41
1
41
1
41
1
41
1
41
1
41
1
41
1
41
1
41
1
41
1
41
1
41
1
41
1
41
1
41
1
41
1
41
1
41
1
41
1
41
1
41
1
41
1
41
1
41
1
41
1
41
1
41
1
41
1
41
1
41
1
41
1
41
1
41
1
41
1
41
1
41
1
41
1
41
1
41
1
41
1
41
1
41
1
41
1
41
1
41
1
41
1
41
1
41
1
41
1
41
1
41
1
41
1
41
1
41
1
41
1
41
1
41
1
41
1
41
1
41
1
41
1
41
1
41
1
41
1
41
1
41
1
41
1
41
1
41
1
41
1
41
1
41
1
41
1
41
1
41
1
41
1
41
1
41
1
41
1
41
1
41
1
41
1
41
1
41
1
41
1
41
1
41
1
41
1
41
1
41
1
41
1
41
1
41
1
41
1
41
1
41
1
41
1
41
1
41
1
41
1
41
1
41
1
41
1
41
1
41
1
41
1
41
1
41
1
41
1
41
1
41
1
41
1
41
1
41
1
41
1
41
1
41
1
41
1
41
1
41
1
41
1
41
1
41
1
41
1
41
1
41
1
41
1
41
1
41
1
41
1
41
1
41
1
41
1
41
1
41
1
41
1
41
1
41
1
41
1
41
1
41
1
41
1
41
1
41
1
41
1
41
1
41
1
41
1
41
1
41
1
41
1
41
1
41
1
41
1
41
1
41
1
41
1
41
1
41
1
41
1
41
1
41
1
41
1
41
1
41
1
41
1
41
1
41
1
41
1
41
1
41
1
41
1
41
1
41
1
41
1
41
1
41
1
41
1
41
1
41
1
41
1
41
1
41
1
41
1
41
1
41
1
41
1
41
1
41
1
41
1
41
1
41
1
41
1
41
1
41
1
41
1
41
1
41
1
41
1
41
1
41
1
41
1
41
1
41
1
41
1
41
1
41
1
41
1
41
1
41
1
41
1
41
1
41
1
41
1
41
1
41
1
41
1
41
1
41
1
41
1
41
1
41
1
41
1
41
1
41
1
41
1
41
1
41
1
41
1
41
1
41
1
41
1
41
1
41
1
41
1
41
1
41
1
41
1
41
1
41
1
41
1
41
1
41
1
41
1
41
1
41
1
41
1
41
1
41
1
41
1
41
1
41
1
41
1
41
1
41
1
41
1
41
1
41
1
41
1
41
1
41
1
41
1
41
1
41
1
41
1
41
1
41
1
41
1
41
1
41
1
41
1
41
1
41
1
41
1
41
1
41
1
41
1
41
1
41
1
41
1
41
1
41
1
41
1
41
1
41
1
41
1
41
1
41
1
41
1
41
1
41
1
41
1
41
1
41
1
41
1
41
1
41
1
41
1
41
1
41
1
41
1
41
1
41
1
41
1
41
1
41
1
41
1
41
1
41
1
41
1
41
1
41
1
41
1
41
1
41
1
41
1
41
1
41
1
41
1
41
1
41
1
41
1
41
1
41
1
41
1
41
1
41
1
41
1
41
1
41
1
41
1
41
1
41
1
41
1
41
1
41
1
41
1
41
1
41
1
41
1
41
1
41
1
41
1
41
1
41
1
41
1
41
1
41
1
41
1
41
1
41
1
41
1
41
1
41
1
41
1
41
1
41
1
41
1
41
1
41
1
41
1
41
1
41
1
41
1
41
1
41
1
41
1
41
1
41
1
41
1
41
1
41
1
41
1
41
1
41
1
41
1
41
1
41
1
41
1
41
1
41
1
41
1
41
1
41
1
41
1
41
1
41
1
41
1
41
1
41
1
41
1
41
1
41
1
41
1
41
1
41
1
41
1
41
1
41
1
41
1
41
1
41
1
41
1
41
1
41
1
41
1
41
1
41
1
41
1
41
1
41
1
41
1
41
1
41
1
41
1
41
1
41
1
41
1
41
1
41
1
41
1
41
1
41
1
41
1
41
1
41
1
41
1
41
1
41
1
41
1
41
1
41
1
41
1
41
1
41
1
41
1
41
1
41
1
41
1
41
1
41
1
41
1
41
1
41
1
41
1
41
1
41
1
41
1
41
1
41
1
41
1
41
1
41
1
41
1
41
1
41
1
41
1
41
1
41
1
41
1
41
1
41
1
41
1
41
1
41
1
41
1
41
1
41
1
41
1
41
1
41
1
41
1
41
1
41
1
41
1
41
1
41
1
41
1
41
1
41
1
41
1
41
1
41
1
41
1
41
1
41
1
41
1
41
1
41
1
41
1
41
1
41
1
41
1
41
1
41
1
41
1
41
1
41
1
41
1
41
1
41
1
41
1
41
1
41
1
41
1
41
1
41
1
41
1
41
1
41
1
41
1
41
1
41
1
41
1
41
1
41
1
41
1
41
1
41
1
41
1
41
1
41
1
41
1
41
1
41
1
41
1
41
1
41
1
41
1
41
1
41
1
41
1
41
1
41
1
41
1
41
1
41
1
41
1
41
1
41
1
41
1
41
1
41
1
41
1
41
1
41
1
41
1
41
1
41
1
41
1
41
1
41
1
41
1
41
1
41
1
41
1
41
1
41
1
41
1
41
1
41
1
41
1
41
1
41
1
41
1
41
1
41
1
41
1
41
1
41
1
41
1
41
1
41
1
41
1
41
1
41
1
41
1
41
1
41
1
41
1
41
1
41
1
41
1
41
1
41
1
41
1
41
1
41
1
41
1
41
1
41
1
41
1
41
1
41
1
41
1
41
1
41
1
41
1
41
1
41
1
41
1
41
1
41
1
41
1
41
1
41
1
41
1
41
1
41
1
41
1
41
1
41
1
41
1
41
1
41
1
41
1
41
1
41
1
41
1
41
1
41
1
41
1
41
1
41
1
41
1
41
1
41
1
41
1
41
1
41
1
41
1
41
1
41
1
41
1
41
1
41
1
41
1
41
1
41
1
41
1
41
1
41
1
41
1
41
1
41
1
41
1
41
1
41
1
41
1
41
1
41
1
41
1
41
1
41
1
41
1
41
1
41
1
41
1
41
1
41
1
41
1
41
1
41
1
41
1
41
1
41
1
41
1
41
1
41
1
41
1
41
1
41
1
41
1
41
1
41
1
41
1
41
1
41
1
41
1
41
1
41
1
41
1
41
1
41
1
41
1
41
1
41
1
41
1
41
1
41
1
41
1
41
1
41
1
41
1
41
1
41
1
41
1
41
1
41
1
41
1
41
1
41
1
41
1
41
1
41
1
41
1
41
1
41
1
41
1
41
1
41
1
41
1
41
1
41
1
41
1
41
1
41
1
41
1
41
1
41
1
41
1
41
1
41
1
41
1
41
1
41
1
41
1
41
1
41
1
41
1
41
1
41
1
41
1
41
1
41
1
41
1
41
1
41
1
41
1
41
1
41
1
41
1
41
1
41
1
41
1
41
1
41
1
41
1
41
1
41
1
41
1
41
1
41
1
41
1
41
1
41
1
41
1
41
1
41
1
41
1
41
1
10
28.887
20
-118.9444
30
0
10
28.800456008440619
20
-118.94826104788031
30
0
10
28.628370307832167
20
-118.95401426452383
30
0
10
28.37227630178662
20
-118.95674633859957
30
0
10
28.027109825646519
20
-118.94759239611901
30
0
10
27.562328845703114
20
-118.91019396621169
30
0
10
27.040191375479917
20
-118.84291090945196
30
0
10
26.452698674599731
20
-118.74592054572746
30
0
10
25.806708089453558
20
-118.622947939548
30
0
10
25.119362767415488
20
-118.47973056117959
30
0
10
24.414659790389273
20
-118.32284829213646
30
0
10
23.719580543035327
20
-118.15832569397062
30
0
10
23.060308476492214
20
-117.9905726156653
30
0
10
22.458432844310174
20
-117.82214824597659
30
0
10
21.926773952778689
20
-117.65331520436771
30
0
10
21.466208402281136
20
-117.48181646057878
30
0
10
21.059927166040975
20
-117.30220481503181
30
0
10
20.68189140440197
20
-117.10752085599809
30
0
10
20.308109641906974
20
-116.89143200777131
30
0
10
19.93006180161586
20
-116.65072542694307
30
0
10
19.55496447980822
20
-116.38561710408032
30
0
10
19.195304515150056
20
-116.09817674631225
30
0
10
18.860105512145704
20
-115.79123419392417
30
0
10
18.549749209591486
20
-115.46728755328712
30
0
10
18.260997080958788
20
-115.12806086032775
30
0
10
17.989878458131379
20
-114.77378770281919
30
0
10
17.734995041893445
20
-114.40291997208843
30
0
10
17.497060451450508
20
-114.01458479030423
30
0
10
17.278888036072569
20
-113.61058246468653
30
0
10
17.085376348546628
20
-113.19796877587348
30
0
10
16.920829452701611
20
-112.7841780928666
30
0
10
16.786432565752662
20
-112.37214389280057
30
0
10
16.676891323123208
20
-111.95445242921566
30
0
10
16.581976118633456
20
-111.51367659716307
30
0
10
16.489580911695004
20
-111.02494599833243
30
0
10
16.388726432336973
20
-110.45777025308158
30
0
10
16.270851402354388
20
-109.77820526721912
30
0
10
16.129249372272149
20
-108.9509102601268
30
0
10
15.95903736947929
20
-107.94126802573338
30
0
10
15.756906459628885
20
-106.71745038361365
30
0
10
15.520964084531348
20
-105.25257096743688
30
0
10
15.250540905858674
20
-103.52665176900183
30
0
10
14.94600322951678
20
-101.52903230785724
30
0
10
14.608596898575374
20
-99.259325563803031
30
0
10
14.240358657956529
20
-96.725978493174566
30
0
10
13.844011348946175
20
-93.945383998753883
30
0
10
13.422865659408176
20
-90.940771031803052
30
0
10
12.98071907618464
20
-87.741189639552246
30
0
10
12.521756047530461
20
-84.380455232397722
30
0
10
12.050447628940816
20
-80.896110463389817
30
0
10
11.571451356054043
20
-77.328379579923961
30
0
10
11.089511019969976
20
-73.71912603003625
30
0
10
10.609356491281421
20
-70.110808738917243
30
0
10
10.135603510881968
20
-66.545438854428284
30
0
10
9.6726535230000845
20
-63.063536553994581
30
0
10
9.2245934208493718
20
-59.703087196442361
30
0
10
8.795095482438942
20
-56.498499158907975
30
0
10
8.3873168582349518
20
-53.479557592901003
30
0
10
8.0038000865946763
20
-50.670387593394707
30
0
10
7.6463712081592226
20
-48.088395357605435
30
0
10
7.3160434394263349
20
-45.743260312275893
30
0
10
7.0129079091482129
20
-43.635808619455304
30
0
10
6.7360545648554604
20
-41.757163306623212
30
0
10
6.4834195854236825
20
-40.087220536634533
30
0
10
6.251891366094422
20
-38.595496560103427
30
0
10
6.0377287326944327
20
-37.244836415951582
30
0
10
5.8368987161033656
20
-35.994386542716697
30
0
10
5.645447752521207
20
-34.802870692959736
30
0
10
5.459856887913932
20
-33.631726436506128
30
0
10
5.2774077865774558
20
-32.448323888343225
30
0
10
5.0965349983660886
20
-31.22909750056245
30
0
10
4.9172053148838204
20
-29.962835377567902
30
0
10
4.7412355974516895
20
-28.653618023865981
30
0
10
4.5727700538133522
20
-27.324662182491942
30
0
10
4.4171001715117493
20
-26.012757751535926
30
0
10
4.27927187980867
20
-24.761492436073912
30
0
10
4.1627645297959246
20
-23.614894718599459
30
0
10
4.0681476326827317
20
-22.610926037552638
30
0
10
3.9917285513261405
20
-21.774978892283858
30
0
10
3.9242473045853417
20
-21.113509230020906
30
0
10
3.8494471882807972
20
-20.607282780989358
30
0
10
3.7430180845068679
20
-20.205780765542436
30
0
10
3.5816797432748366
20
-19.851523436683813
30
0
10
3.3510466607782128
20
-19.501098349575305
30
0
10
3.0556379369571922
20
-19.151725267936833
30
0
10
2.7118218114264643
20
-18.824700128038071
30
0
10
2.3390069360863879
20
-18.544783600976615
30
0
10
1.9497011019162922
20
-18.315886073524791
30
0
10
1.5488224144206708
20
-18.123781066096896
30
0
10
1.1375042672276503
20
-17.951071392448334
30
0
10
0.71593114705110805
20
-17.7909039203543
30
0
10
0.2849341571353054
20
-17.651642030966691
30
0
10
-0.15452944689683362
20
-17.5485406618767
30
0
10
-0.60174903098592725
20
-17.498483618041746
30
0
10
-1.0553975882522475
20
-17.514782893688373
30
0
10
-1.5084932142782634
20
-17.607104106538216
30
0
10
-1.9437949908941148
20
-17.780279030679566
30
0
10
-2.3299124117905405
20
-18.033668245894862
30
0
10
-2.6357435346339786
20
-18.360904467390689
30
0
10
-2.8430466390780964
20
-18.750066312820213
30
0
10
-2.9615178202200783
20
-19.182838620635984
30
0
10
-3.018544726507566
20
-19.643539630262129
30
0
10
-3.0473835139388235
20
-20.127606245131396
30
0
10
-3.0741023009251216
20
-20.653442633890972
30
0
10
-3.1151935344879558
20
-21.254695499720508
30
0
10
-3.1795868250963615
20
-21.964412154999465
30
0
10
-3.2692519578394261
20
-22.802584560020186
30
0
10
-3.3803050710929918
20
-23.760590658411374
30
0
10
-3.5041535109046658
20
-24.79203738085673
30
0
10
-3.6300644653366869
20
-25.830407023717925
30
0
10
-3.7475493782174634
20
-26.803286728019742
30
0
10
-3.8487315484805249
20
-27.647505462142131
30
0
10
-3.9309272029715556
20
-28.324838922425624
30
0
10
-3.9986511648435492
20
-28.835233481929421
30
0
10
-4.0671177437172323
20
-29.236883130888181
30
0
10
-4.1560485238818989
20
-29.62072460809615
30
0
10
-4.2821026840309742
20
-30.077477375861857
30
0
10
-4.4499936002825313
20
-30.660692669715385
30
0
10
-4.6519295744104419
20
-31.379971452292679
30
0
10
-4.8730080535021933
20
-32.216180039199081
30
0
10
-5.0948411822582074
20
-33.130071075085141
30
0
10
-5.2998690266452435
20
-34.073559594040582
30
0
10
-5.4754797569861413
20
-35.000027592422562
30
0
10
-5.6179229896059644
20
-35.87457927777465
30
0
10
-5.7297180307131903
20
-36.674627048245689
30
0
10
-5.817439724701825
20
-37.39084548317657
30
0
10
-5.8892715956658055
20
-38.028332792838341
30
0
10
-5.9528610624738079
20
-38.606883801817069
30
0
10
-6.0125422658567986
20
-39.163625273732748
30
0
10
-6.0688762261704623
20
-39.74657874575567
30
0
10
-6.1202928461324637
20
-40.399937066843762
30
0
10
-6.1641494504892389
20
-41.15161930191563
30
0
10
-6.1980297196257261
20
-41.999941864872305
30
0
10
-6.220936459056178
20
-42.900550057589044
30
0
10
-6.233492957778676
20
-43.786420844513131
30
0
10
-6.2380991100830752
20
-44.587325669057883
30
0
10
-6.2391552721655348
20
-45.250738487188428
30
0
10
-6.2431442001085866
20
-45.75929204758539
30
0
10
-6.2590508191610708
20
-46.156670357417795
30
0
10
-6.2976086846002799
20
-46.543873120660059
30
0
10
-6.3693083350404835
20
-47.042935022681945
30
0
10
-6.4825404003300893
20
-47.766156007249606
30
0
10
-6.6422285113141868
20
-48.791646457544935
30
0
10
-6.8504353201223598
20
-50.170463827255062
30
0
10
-7.1066094482098974
20
-51.927853561708943
30
0
10
-7.4079749296272182
20
-54.06683844686782
30
0
10
-7.749859794346964
20
-56.570804703631708
30
0
10
-8.1260508080844911
20
-59.406519453190548
30
0
10
-8.5291369386258822
20
-62.526962301730933
30
0
10
-8.9508576453933912
20
-65.874236691192039
30
0
10
-9.3824491180931844
20
-69.382447003510563
30
0
10
-9.8149913059396674
20
-72.98058976559021
30
0
10
-10.239754802079265
20
-76.595439975414834
30
0
10
-10.648547330105757
20
-80.154436564027506
30
0
10
-11.034061478103091
20
-83.588575030471162
30
0
10
-11.390219416603118
20
-86.835281218694305
30
0
10
-11.712524706253394
20
-89.841329974531618
30
0
10
-11.998397649031789
20
-92.565659341800242
30
0
10
-12.247548943648724
20
-94.982427999729282
30
0
10
-12.46226376233157
20
-97.083503809291116
30
0
10
-12.647909428755195
20
-98.882372477969795
30
0
10
-12.812418256315947
20
-100.41153624973501
30
0
10
-12.965230125430438
20
-101.71647743309165
30
0
10
-13.116400045779065
20
-102.85067647363576
30
0
10
-13.275643825047803
20
-103.87022217351392
30
0
10
-13.451395247289128
20
-104.82852910961009
30
0
10
-13.649893186534074
20
-105.77116623195937
30
0
10
-13.874174690927211
20
-106.73027183779374
30
0
10
-14.123298521409032
20
-107.72000302312145
30
0
10
-14.390990857185349
20
-108.729382401678
30
0
10
-14.666812381275898
20
-109.72650298992289
30
0
10
-14.938888069636453
20
-110.66975222001284
30
0
10
-15.196113519743097
20
-111.51671809604844
30
0
10
-15.430686008617831
20
-112.23446667152488
30
0
10
-15.640246151953116
20
-112.8082775535805
30
0
10
-15.830787379570392
20
-113.2533320205759
30
0
10
-16.017380902546222
20
-113.61805584463559
30
0
10
-16.21722880836872
20
-113.95810961714497
30
0
10
-16.443859243547987
20
-114.31482077964448
30
0
10
-16.701061574919265
20
-114.69245358673294
30
0
10
-16.985768999708242
20
-115.07439098870424
30
0
10
-17.290820436512661
20
-115.43735956086472
30
0
10
-17.607462547215807
20
-115.7682552540699
30
0
10
-17.929656114090179
20
-116.06438886363927
30
0
10
-18.257762398847181
20
-116.33025707526711
30
0
10
-18.60444394037491
20
-116.57578684033362
30
0
10
-18.990811046042129
20
-116.81282569752815
30
0
10
-19.43735259629673
20
-117.05153837475748
30
0
10
-19.95503610384521
20
-117.2959932772192
30
0
10
-20.541108284831658
20
-117.54282585316028
30
0
10
-21.183200352921858
20
-117.78447980531242
30
0
10
-21.86136596300414
20
-118.01137865650986
30
0
10
-22.550982993461375
20
-118.21445502224296
30
0
10
-23.225210067480134
20
-118.38772227814893
30
0
10
-23.859272597819849
20
-118.52841100220887
30
0
10
-24.435304595069873
20
-118.63685696988894
30
0
10
-24.946194727780757
20
-118.71632984199614
30
0
10
-25.401736372169339
20
-118.77323948060675
30
0
10
-25.827431226783922
20
-118.81599776561474
30
0
10
-26.251074936414796
20
-118.85167727614123
30
0
10
-26.691024444932104
20
-118.88287013459399
30
0
10
-27.146646414822339
20
-118.90526437312501
30
0
10
-27.608276043496204
20
-118.91049163671693
30
0
10
-28.064503006971478
20
-118.88835288458526
30
0
10
-28.510934778986389
20
-118.82921209535887
30
0
10
-28.946980203965509
20
-118.72614812149419
30
0
10
-29.372657846031412
20
-118.57657179134945
30
0
10
-29.784634129031055
20
-118.38524196874751
30
0
10
-30.177192192082973
20
-118.15984925986925
30
0
10
-30.544450377501104
20
-117.90580453850279
30
0
10
-30.882774265412504
20
-117.61842897209347
30
0
10
-31.190694571022526
20
-117.28730398678549
30
0
10
-31.466928606560842
20
-116.90798321405785
30
0
10
-31.708384622276526
20
-116.49589373914876
30
0
10
-31.909978872110827
20
-116.08576916643284
30
0
10
-32.068175534682226
20
-115.70370972972101
30
0
10
-32.184013400290191
20
-115.34261125211238
30
0
10
-32.265454523901781
20
-114.94365055815011
30
0
10
-32.323525887180878
20
-114.42967000037083
30
0
10
-32.369291607055835
20
-113.73161303016875
30
0
10
-32.410371550600097
20
-112.81888185037759
30
0
10
-32.451361283391606
20
-111.69329212849205
30
0
10
-32.494367115345938
20
-110.38189047650869
30
0
10
-32.539502979050582
20
-108.93015352203436
30
0
10
-32.585402731693222
20
-107.39503541821968
30
0
10
-32.629726986107151
20
-105.83806202871905
30
0
10
-32.669669570307754
20
-104.31844817647352
30
0
10
-32.702470451960352
20
-102.8861047497351
30
0
10
-32.725910976151802
20
-101.57492972892237
30
0
10
-32.738856953770615
20
-100.39533811171441
30
0
10
-32.741055383124355
20
-99.338641196889327
30
0
10
-32.732874025154047
20
-98.382332651406188
30
0
10
-32.715059837605232
20
-97.495075575799532
30
0
10
-32.688493428195535
20
-96.641751977191063
30
0
10
-32.653936009814252
20
-95.788632960073244
30
0
10
-32.611801225253252
20
-94.90815015267782
30
0
10
-32.561860004714276
20
-93.984740420038662
30
0
10
-32.503380692342091
20
-93.013711318783621
30
0
10
-32.435384573586262
20
-91.998250544795866
30
0
10
-32.356864213449832
20
-90.947043739137129
30
0
10
-32.267013231929781
20
-89.871681374271773
30
0
10
-32.165460745220066
20
-88.784054812607195
30
0
10
-32.052481380564878
20
-87.693994570470068
30
0
10
-31.929272453076983
20
-86.606204218464143
30
0
10
-31.797923488760496
20
-85.520452471015545
30
0
10
-31.661215074073027
20
-84.433581316998684
30
0
10
-31.52247014245124
20
-83.34094714499102
30
0
10
-31.385384084029454
20
-82.238110678702242
30
0
10
-31.253862681284335
20
-81.122388277352684
30
0
10
-31.131859610572825
20
-79.994537085710903
30
0
10
-31.023207239802616
20
-78.860208115080837
30
0
10
-30.93146828288647
20
-77.731956462611905
30
0
10
-30.859632954074804
20
-76.62720575506907
30
0
10
-30.809788558584223
20
-75.56536959734089
30
0
10
-30.782788389310348
20
-74.565230059782252
30
0
10
-30.777943665304367
20
-73.642282370823565
30
0
10
-30.792652904601169
20
-72.805922671036569
30
0
10
-30.822181633016207
20
-72.057105049930001
30
0
10
-30.859062799370314
20
-71.384773598824651
30
0
10
-30.89435597209901
20
-70.768300828377818
30
0
10
-30.91982738758627
20
-70.182814858175504
30
0
10
-30.929748045124672
20
-69.603470597411658
30
0
10
-30.923054867919831
20
-69.010477677140656
30
0
10
-30.90475929847921
20
-68.392872375615838
30
0
10
-30.883263178193388
20
-67.745833608473433
30
0
10
-30.868042126188811
20
-67.06863505462664
30
0
10
-30.867377171918122
20
-66.362513656389055
30
0
10
-30.885597446352513
20
-65.628177349628118
30
0
10
-30.922788202319342
20
-64.865375582969961
30
0
10
-30.975959408199763
20
-64.073713434535506
30
0
10
-31.039766413043939
20
-63.253086048748358
30
0
10
-31.107414268953441
20
-62.404262465792719
30
0
10
-31.17148768665421
20
-61.529424184336783
30
0
10
-31.224799694184423
20
-60.632668758251626
30
0
10
-31.261019174324961
20
-59.719785240738787
30
0
10
-31.275335654624676
20
-58.798098412826306
30
0
10
-31.265078463947695
20
-57.876266357909515
30
0
10
-31.230426091348292
20
-56.964143839000258
30
0
10
-31.174911204559052
20
-56.072509903920498
30
0
10
-31.106436463388562
20
-55.213128101867824
30
0
10
-31.035678634940304
20
-54.397122940910549
30
0
10
-30.973471782512888
20
-53.632722666864758
30
0
10
-30.928449332555843
20
-52.923120053380899
30
0
10
-30.904735764144494
20
-52.264476334015733
30
0
10
-30.89924340832631
20
-51.643407459788861
30
0
10
-30.900243073157885
20
-51.036039624573036
30
0
10
-30.892509816411035
20
-50.415028679965495
30
0
10
-30.861901918270718
20
-49.755931389358025
30
0
10
-30.799636071171619
20
-49.04311874736031
30
0
10
-30.707989093099183
20
-48.277641528080522
30
0
10
-30.598951547086486
20
-47.47553504104345
30
0
10
-30.489061746853388
20
-46.66093678510768
30
0
10
-30.395367399974909
20
-45.860758211809696
30
0
10
-30.331049939940634
20
-45.098837855695884
30
0
10
-30.300885736515237
20
-44.39001952824853
30
0
10
-30.297660813593836
20
-43.735121374772632
30
0
10
-30.307478055476263
20
-43.124844321404872
30
0
10
-30.314511462380814
20
-42.542978994413701
30
0
10
-30.305516766830522
20
-41.96970970324972
30
0
10
-30.275561522537512
20
-41.385298145110539
30
0
10
-30.228238049257868
20
-40.771721294841797
30
0
10
-30.171962140530376
20
-40.112824392356842
30
0
10
-30.117458828749953
20
-39.394916853470122
30
0
10
-30.074697869821051
20
-38.607183407729281
30
0
10
-30.050235918129186
20
-37.742180144761491
30
0
10
-30.047774732129142
20
-36.796421935420817
30
0
10
-30.06858364101689
20
-35.770973295986991
30
0
10
-30.111971449640933
20
-34.672046222925715
30
0
10
-30.175736912075131
20
-33.51157478394326
30
0
10
-30.256629599456911
20
-32.307847036035376
30
0
10
-30.350803436371656
20
-31.086000804333555
30
0
10
-30.454281157122981
20
-29.878878390158292
30
0
10
-30.563264352630732
20
-28.722386552214022
30
0
10
-30.674428049138285
20
-27.6504733230189
30
0
10
-30.785228152936128
20
-26.690160793829932
30
0
10
-30.894187040638702
20
-25.856739293497483
30
0
10
-31.001226611930221
20
-25.148463377843498
30
0
10
-31.10789141021796
20
-24.542470074401365
30
0
10
-31.217853841408644
20
-23.98753537471524
30
0
10
-31.335510747368218
20
-23.417924454362655
30
0
10
-31.463956745287341
20
-22.773660015449281
30
0
10
-31.603379400020081
20
-22.017130643346405
30
0
10
-31.748789872700858
20
-21.154670845447772
30
0
10
-31.889585350042196
20
-20.245156751079406
30
0
10
-32.014826724485587
20
-19.369449750722112
30
0
10
-32.117262393043482
20
-18.607603008887658
30
0
10
-32.19838815308642
20
-18.010993274308444
30
0
10
-32.271816175326222
20
-17.581265105729045
30
0
10
-32.370539944855764
20
-17.234526350283815
30
0
10
-32.534594703168416
20
-16.839721664157455
30
0
10
-32.793962123051116
20
-16.277061991367791
30
0
10
-33.148609742133623
20
-15.502698496823664
30
0
10
-33.566838309776635
20
-14.561257671189143
30
0
10
-34.001987493492393
20
-13.544959694844309
30
0
10
-34.403866058373474
20
-12.568005160485804
30
0
10
-34.732649934119529
20
-11.734109831761632
30
0
10
-34.971021590492725
20
-11.10832773756518
30
0
10
-35.138739736322485
20
-10.683802481629618
30
0
10
-35.301212744106387
20
-10.360231316426255
30
0
10
-35.53287978519873
20
-10.008642743188375
30
0
10
-35.886306662157502
20
-9.5256070509929742
30
0
10
-36.356155417479656
20
-8.8963474580325475
30
0
10
-36.896272427128537
20
-8.1696220542725602
30
0
10
-37.439954565398374
20
-7.4272982308257536
30
0
10
-37.920161124804267
20
-6.7542470642778554
30
0
10
-38.28732600030159
20
-6.2116187727840053
30
0
10
-38.534071351531274
20
-5.8001453175760718
30
0
10
-38.696673662208063
20
-5.4571948553331948
30
0
10
-38.821163990066978
20
-5.1054956897793868
30
0
10
-38.934540895961085
20
-4.6939977567395754
30
0
10
-39.022514635392511
20
-4.2304442508709323
30
0
10
-39.05647103088716
20
-3.7483729794955938
30
0
10
-39.013087225037644
20
-3.2837740613427968
30
0
10
-38.897512464024508
20
-2.8474490013855442
30
0
10
-38.727000628471423
20
-2.4367300129889662
30
0
10
-38.516788729241902
20
-2.0459197166544252
30
0
10
-38.260453324768605
20
-1.6794707420406514
30
0
10
-37.943748292548307
20
-1.3481996540525623
30
0
10
-37.562059175950601
20
-1.0622653451301707
30
0
10
-37.145522824031005
20
-0.82348544126802259
30
0
10
-36.743525762822259
20
-0.62551627445794
30
0
10
-36.38793947332853
20
-0.45918431965129097
30
0
10
-36.051851041190886
20
-0.3172994796084867
30
0
10
-35.646218971647698
20
-0.196203967485238
30
0
10
-35.077514406437757
20
-0.091284894585152723
30
0
10
-34.295449248495224
20
0.0065110328795263588
30
0
10
-33.331387411283146
20
0.11322357407988953
30
0
10
-32.266424940179853
20
0.24742001906670491
30
0
10
-31.209903516454386
20
0.42669715969596911
30
0
10
-30.27429953532371
20
0.66401666017061922
30
0
10
-29.550549769128157
20
0.96362686465755432
30
0
10
-29.085792257972667
20
1.3182982408131318
30
0
10
-28.853301470253193
20
1.7030655944395652
30
0
10
-28.779379507688944
20
2.0925220979876662
30
0
10
-28.779334292424554
20
2.4803871251620131
30
0
10
-28.796766737309426
20
2.9038385148291415
30
0
10
-28.808404016003287
20
3.4373085759966902
30
0
10
-28.811190897357498
20
4.1711504159246315
30
0
10
-28.815277579025587
20
5.1955766133452741
30
0
10
-28.8341271828575
20
6.5814008034413671
30
0
10
-28.877109394357369
20
8.3651055998084054
30
0
10
-28.950455665749221
20
10.554340883856344
30
0
10
-29.057389849032234
20
13.131185752768884
30
0
10
-29.198568712904876
20
16.056266420599506
30
0
10
-29.372390945626833
20
19.272509920743008
30
0
10
-29.575362671911748
20
22.709054166271933
30
0
10
-29.802438621243788
20
26.28509062211829
30
0
10
-30.047373750773261
20
29.913735634723967
30
0
10
-30.303070375325728
20
33.505889874058951
30
0
10
-30.561927166142247
20
36.974101613379574
30
0
10
-30.816187465259851
20
40.236431246558908
30
0
10
-31.058287596002128
20
43.220308623497118
30
0
10
-31.281205862608704
20
45.866409130543076
30
0
10
-31.478809663894452
20
48.13248570473958
30
0
10
-31.646207130665811
20
49.997303925931107
30
0
10
-31.780088227827633
20
51.464338021967684
30
0
10
-31.879090410649468
20
52.566023452190649
30
0
10
-31.944106665325236
20
53.366702434578535
30
0
10
-31.978741907438732
20
53.96895588207677
30
0
10
-31.988655074191684
20
54.493474709348753
30
0
10
-31.980669422408088
20
55.052266250501916
30
0
10
-31.961962809770004
20
55.726274704881433
30
0
10
-31.939224554420107
20
56.53623137525944
30
0
10
-31.917822658411946
20
57.432316716028524
30
0
10
-31.900902898321668
20
58.330380002336113
30
0
10
-31.888555770490431
20
59.138456473556182
30
0
10
-31.876844415080271
20
59.788740538945184
30
0
10
-31.857150545658399
20
60.263516960176446
30
0
10
-31.814721057283894
20
60.63322645628282
30
0
10
-31.731793753907208
20
61.027321884560656
30
0
10
-31.591704085752291
20
61.589056777850587
30
0
10
-31.383406263419463
20
62.428264883671773
30
0
10
-31.1027889013431
20
63.605087426823289
30
0
10
-30.751208571661447
20
65.141702178141202
30
0
10
-30.3348329777251
20
67.025851211501603
30
0
10
-29.863650665511589
20
69.217749693735939
30
0
10
-29.350623801871819
20
71.655544306307505
30
0
10
-28.81077920645199
20
74.261397255888625
30
0
10
-28.260326484471211
20
76.947296903443871
30
0
10
-27.715763372128038
20
79.620994852082376
30
0
10
-27.192989230587038
20
82.191867880707605
30
0
10
-26.706408904942439
20
84.576860159980441
30
0
10
-26.268054937920674
20
86.706279659656573
30
0
10
-25.886668817635559
20
88.529916080598923
30
0
10
-25.566876852912319
20
90.022417589862357
30
0
10
-25.308139601397791
20
91.190441734821164
30
0
10
-25.104390714952245
20
92.074372557340197
30
0
10
-24.94548456710514
20
92.735265491797435
30
0
10
-24.818356982350579
20
93.244659753495242
30
0
10
-24.708198022171366
20
93.672985392829503
30
0
10
-24.599853100974865
20
94.079195455807707
30
0
10
-24.478548790261105
20
94.49823724956174
30
0
10
-24.3337164089222
20
94.940806974022536
30
0
10
-24.162177409340927
20
95.398680714866217
30
0
10
-23.974616745056601
20
95.845204297841335
30
0
10
-23.788930245252125
20
96.248992582865768
30
0
10
-23.61472450626659
20
96.594479896896374
30
0
10
-23.4364597283394
20
96.906279264914957
30
0
10
-23.209150289520672
20
97.254248325086309
30
0
10
-22.882183233446884
20
97.717386896067509
30
0
10
-22.418230690521593
20
98.354776956729566
30
0
10
-21.811173134799034
20
99.17822323292576
30
0
10
-21.077630750509641
20
100.16517088609903
30
0
10
-20.251447552596687
20
101.26714115474681
30
0
10
-19.377048957863042
20
102.41987835878598
30
0
10
-18.503216709528136
20
103.55285667916505
30
0
10
-17.676830227960714
20
104.5988551793637
30
0
10
-16.936283368018252
20
105.50398464972918
30
0
10
-16.305836028062444
20
106.23639154801965
30
0
10
-15.787536444987591
20
106.79840634576458
30
0
10
-15.365181494005959
20
107.22166871406934
30
0
10
-15.013960820649556
20
107.55434500438845
30
0
10
-14.707967398085188
20
107.85110222220966
30
0
10
-14.42933455125964
20
108.16138942177156
30
0
10
-14.174487203617183
20
108.52005679886518
30
0
10
-13.945534840529048
20
108.94863527464084
30
0
10
-13.743507496667082
20
109.45544813179806
30
0
10
-13.560568295636717
20
110.03609164255801
30
0
10
-13.383801192459261
20
110.6761105225971
30
0
10
-13.199554820332914
20
111.35381315363034
30
0
10
-12.997148108985876
20
112.04310605135137
30
0
10
-12.773898928380929
20
112.71614055494767
30
0
10
-12.535734802698828
20
113.34667896116507
30
0
10
-12.29215110543921
20
113.91426832889736
30
0
10
-12.052481603440764
20
114.40841511002304
30
0
10
-11.821855289885075
20
114.8323160189294
30
0
10
-11.59671939763475
20
115.20792682003717
30
0
10
-11.368821446330701
20
115.56430159659368
30
0
10
-11.129380372809333
20
115.92595454674782
30
0
10
-10.874398994540886
20
116.29818344474286
30
0
10
-10.603073141372459
20
116.67039426957574
30
0
10
-10.314299296052894
20
117.02588771528072
30
0
10
-10.002176688184434
20
117.35093891158104
30
0
10
-9.6578489672960135
20
117.63883846269579
30
0
10
-9.2766647756345435
20
117.88747297788355
30
0
10
-8.8660162128420357
20
118.0989235245201
30
0
10
-8.4464324655754552
20
118.27766096765762
30
0
10
-8.0353905106496768
20
118.4276911900491
30
0
10
-7.6335638432563071
20
118.54958688656824
30
0
10
-7.21280192973677
20
118.63822052603004
30
0
10
-6.7375554547142773
20
118.68860355625227
30
0
10
-6.1825199846204226
20
118.70077728011951
30
0
10
-5.5538192312863206
20
118.68574687472471
30
0
10
-4.8788052480949942
20
118.6611276900903
30
0
10
-4.1921968858017076
20
118.64551622237352
30
0
10
-3.5246816364421103
20
118.65378931690502
30
0
10
-2.8877263686258257
20
118.69089198789736
30
0
10
-2.2694772924650946
20
118.75012588542563
30
0
10
-1.6488441816906694
20
118.81886877695382
30
0
10
-1.0058276063554135
20
118.88272899090109
30
0
10
-0.33257902558542174
20
118.93007303517234
30
0
10
0.35380758953534885
20
118.95706560088799
30
0
10
1.0208966143041038
20
118.96544691598032
30
0
10
1.6350672929374979
20
118.9588781956853
30
0
10
2.1726336047606591
20
118.94014410952596
30
0
10
2.6355779652186011
20
118.90717607536641
30
0
10
3.0543453849296438
20
118.85226531829602
30
0
10
3.4652316193759809
20
118.76742458368214
30
0
10
3.8916896686585964
20
118.64888302966661
30
0
10
4.3276945581759332
20
118.50081762258567
30
0
10
4.7549580310124471
20
118.3279017560273
30
0
10
5.1558278102322657
20
118.12971230816839
30
0
10
5.5294539863488854
20
117.89287551464687
30
0
10
5.8823240618552308
20
117.60420467568852
30
0
10
6.2189035841384808
20
117.26213561819972
30
0
10
6.5285156666163804
20
116.89546697179247
30
0
10
6.7940162792716716
20
116.54312083144538
30
0
10
7.0060171812141023
20
116.22537251179862
30
0
10
7.1802664530293381
20
115.90673863358752
30
0
10
7.3547342026119882
20
115.50472844491857
30
0
10
7.5685032570476594
20
114.93871512314725
30
0
10
7.8429056690745274
20
114.17441636151847
30
0
10
8.1705701653987362
20
113.24907239521828
30
0
10
8.5281510982845496
20
112.24021204785532
30
0
10
8.8840890221143489
20
111.24622178991508
30
0
10
9.2082625722723357
20
110.36241308048605
30
0
10
9.4810644391799332
20
109.65848643552729
30
0
10
9.7021784833505222
20
109.15663469773591
30
0
10
9.900932682238226
20
108.80608206830543
30
0
10
10.12125582781824
20
108.51595419518354
30
0
10
10.406123914269505
20
108.18960571927953
30
0
10
10.779366880241705
20
107.76431336630155
30
0
10
11.245134415708264
20
107.21417218117027
30
0
10
11.793991205222213
20
106.53911322912855
30
0
10
12.40687767425605
20
105.75842047994327
30
0
10
13.059852254031066
20
104.90253606841898
30
0
10
13.728759320524908
20
104.00520248081915
30
0
10
14.393139699446134
20
103.09666261077123
30
0
10
15.035808348082796
20
102.20350894676848
30
0
10
15.643048475755544
20
101.3475705631854
30
0
10
16.204561497166264
20
100.5451906753876
30
0
10
16.713528093168129
20
99.806306793099367
30
0
10
17.166605285655308
20
99.13368727219526
30
0
10
17.563989278405707
20
98.521932226197464
30
0
10
17.909350164145074
20
97.957014533845637
30
0
10
18.208175930042355
20
97.422628850127126
30
0
10
18.465938342864529
20
96.907368196206733
30
0
10
18.686802803096775
20
96.409410829612654
30
0
10
18.87096049027976
20
95.947502123770292
30
0
10
19.017045957545925
20
95.548715748359456
30
0
10
19.128244294482364
20
95.219414957463044
30
0
10
19.218776132540953
20
94.914405079391827
30
0
10
19.315912695485405
20
94.526750216731656
30
0
10
19.451066770714093
20
93.928059519417218
30
0
10
19.652846182828014
20
92.999657756675617
30
0
10
19.940140515030546
20
91.663757739065176
30
0
10
20.323714489528754
20
89.876683029289595
30
0
10
20.806908683039648
20
87.626093808642338
30
0
10
21.386689708704143
20
84.926644465289613
30
0
10
22.054551348028308
20
81.816310094262718
30
0
10
22.797479732873111
20
78.352425537299965
30
0
10
23.598890888748873
20
74.607848447058032
30
0
10
24.439580152778383
20
70.667069078193322
30
0
10
25.298666402329332
20
66.622343311088827
30
0
10
26.15453859536732
20
62.569815432423034
30
0
10
26.985801071865019
20
58.605646179468764
30
0
10
27.772219926480762
20
54.82213668477911
30
0
10
28.495667679153641
20
51.303858444186268
30
0
10
29.141071604689838
20
48.123770654617644
30
0
10
29.697353771502147
20
45.339366004870243
30
0
10
30.158390363070396
20
42.988750320871546
30
0
10
30.523926355594288
20
41.08687527236782
30
0
10
30.800594032564952
20
39.621415016853106
30
0
10
31.002689936188574
20
38.549471096896802
30
0
10
31.15352635805673
20
37.792307048075124
30
0
10
31.285137849156847
20
37.235729772259305
30
0
10
31.430701890556591
20
36.755646791215653
30
0
10
31.617511158803776
20
36.241589440444663
30
0
10
31.860603151011567
20
35.618279311823507
30
0
10
32.153942296598828
20
34.874858809304875
30
0
10
32.473773140672321
20
34.055788617135633
30
0
10
32.788044930174578
20
33.232608389372317
30
0
10
33.064059606202044
20
32.481290359690284
30
0
10
33.276566960443908
20
31.858203823265004
30
0
10
33.416356417108794
20
31.374462156257259
30
0
10
33.496611712054751
20
30.977515424363865
30
0
10
33.540602253227085
20
30.595143931235352
30
0
10
33.571508662692153
20
30.171265105353868
30
0
10
33.600730845581793
20
29.70959898887148
30
0
10
33.629120638037477
20
29.240790677493983
30
0
10
33.649176453971165
20
28.787750280388092
30
0
10
33.646725877342611
20
28.323607686628719
30
0
10
33.603850565919529
20
27.778696344116103
30
0
10
33.502247479209174
20
27.06735344090578
30
0
10
33.326337293484031
20
26.107465181320855
30
0
10
33.066744269764904
20
24.844783616883078
30
0
10
32.722814548438926
20
23.269942466441329
30
0
10
32.300945340270559
20
21.408473670732036
30
0
10
31.813495915403983
20
19.314447083131355
30
0
10
31.27747259409314
20
17.062711399162904
30
0
10
30.713309302839068
20
14.741723737436709
30
0
10
30.143608842416914
20
12.446142685139952
30
0
10
29.59189698515701
20
10.269485071541869
30
0
10
29.081380619261886
20
8.2968440390362765
30
0
10
28.633681957507342
20
6.5973745881480266
30
0
10
28.267634585054218
20
5.2173576813865399
30
0
10
27.997933075954421
20
4.1719029050630194
30
0
10
27.834125206497191
20
3.4398328838480756
30
0
10
27.778774516607278
20
2.9508649673841871
30
0
10
27.82839426336453
20
2.5985100384110904
30
0
10
27.977682287472515
20
2.2834998213158317
30
0
10
28.223622186135874
20
1.9561368550789706
30
0
10
28.567703462946838
20
1.6407219280739194
30
0
10
29.010515810639511
20
1.3874967901190622
30
0
10
29.547410923619445
20
1.2348868508750754
30
0
10
30.164296923609161
20
1.1724830429599276
30
0
10
30.840450175149225
20
1.1623516439663482
30
0
10
31.550687365931335
20
1.1560617069338428
30
0
10
32.267843019259786
20
1.1115855083131607
30
0
10
32.964976692753382
20
1.0146527268678005
30
0
10
33.618323123137465
20
0.87884090507816803
30
0
10
34.210778739663354
20
0.72965170490982478
30
0
10
34.735163640026855
20
0.59343404932041699
30
0
10
35.19773445083765
20
0.48399802045218793
30
0
10
35.621111881149915
20
0.39111349091124692
30
0
10
36.031705397117996
20
0.29267110783102929
30
0
10
36.448821070010979
20
0.16529244998100209
30
0
10
36.870885416764622
20
-0.0030154270319496879
30
0
10
37.283126111174681
20
-0.21492443246057469
30
0
10
37.66756467557412
20
-0.46805224445919924
30
0
10
38.014711393600045
20
-0.75888597809967206
30
0
10
38.322848152426523
20
-1.0846607661448635
30
0
10
38.591265644252857
20
-1.4433173465255327
30
0
10
38.813483099935638
20
-1.8349022345519794
30
0
10
38.977094611046624
20
-2.2595989870408122
30
0
10
39.072158361972626
20
-2.7130894606891731
30
0
10
39.098944971140106
20
-3.1809749925443249
30
0
10
39.071294033831535
20
-3.6382346634235185
30
0
10
39.003522982392596
20
-4.0647302782533776
30
0
10
38.899871342372435
20
-4.458431151307102
30
0
10
38.744055894133382
20
-4.8481299423727844
30
0
10
38.513034861291239
20
-5.2762147888824673
30
0
10
38.188635230311171
20
-5.7839119924346196
30
0
10
37.771539878394407
20
-6.3939477815584222
30
0
10
37.27823951683142
20
-7.11125326021393
30
0
10
36.735494739100169
20
-7.9262187776887485
30
0
10
36.175738361696276
20
-8.8171120696548595
30
0
10
35.631919682754081
20
-9.7527336809676584
30
0
10
35.132967142997693
20
-10.695235688429454
30
0
10
34.698052626333997
20
-11.60221593924749
30
0
10
34.334930423943071
20
-12.431644848176237
30
0
10
34.042824156809203
20
-13.150185169138195
30
0
10
33.814135096922215
20
-13.740415392967083
30
0
10
33.636608873880078
20
-14.208945346324661
30
0
10
33.495355299079634
20
-14.593114455416503
30
0
10
33.374810290223138
20
-14.970990205666556
30
0
10
33.261871880519934
20
-15.424961192833248
30
0
10
33.148604826100801
20
-16.007182198930053
30
0
10
33.036211270241736
20
-16.69428411922943
30
0
10
32.931678568848263
20
-17.407623657961516
30
0
10
32.841564126659513
20
-18.058459600796162
30
0
10
32.767212096574944
20
-18.582164341653925
30
0
10
32.698250676810133
20
-18.983306205936618
30
0
10
32.610236126836661
20
-19.356943031036263
30
0
10
32.478430017817836
20
-19.819639781524977
30
0
10
32.289200427522744
20
-20.4537144728302
30
0
10
32.05236261435445
20
-21.246260525293867
30
0
10
31.792784583574175
20
-22.12368599262269
30
0
10
31.542414176072707
20
-22.984091793150021
30
0
10
31.331698520273932
20
-23.732652857021414
30
0
10
31.182264446160506
20
-24.310847884616365
30
0
10
31.096600470909465
20
-24.740265938098858
30
0
10
31.05824229454463
20
-25.115619708082896
30
0
10
31.04338037679949
20
-25.544135634322487
30
0
10
31.030507176310739
20
-26.09171704815229
30
0
10
31.007904342633033
20
-26.747305965987536
30
0
10
30.970413617851499
20
-27.460904496720111
30
0
10
30.918203141926188
20
-28.169163012932628
30
0
10
30.854793418730793
20
-28.823431449641856
30
0
10
30.785259918327004
20
-29.423052151030191
30
0
10
30.715222782128663
20
-30.00676167569258
30
0
10
30.650199907178788
20
-30.628485661677868
30
0
10
30.594868097073551
20
-31.339260429453965
30
0
10
30.552284059412695
20
-32.16445492809757
30
0
10
30.523363105268619
20
-33.089525257717945
30
0
10
30.507470096549511
20
-34.075179468202116
30
0
10
30.502841258213955
20
-35.068301409602952
30
0
10
30.507068880345965
20
-36.014340036409543
30
0
10
30.517566976792445
20
-36.869499160474078
30
0
10
30.532026873664329
20
-37.612015049824848
30
0
10
30.548924862418776
20
-38.256458146320512
30
0
10
30.567603310919459
20
-38.84336743295605
30
0
10
30.588278229832927
20
-39.423420114560692
30
0
10
30.612047838701308
20
-40.044373714454238
30
0
10
30.640957814573216
20
-40.734796357439777
30
0
10
30.67785642416802
20
-41.495810388535332
30
0
10
30.725710234045405
20
-42.311502673690285
30
0
10
30.787039977615812
20
-43.155615438954527
30
0
10
30.863278359347706
20
-43.999944538978554
30
0
10
30.954231234051193
20
-44.821472936394017
30
0
10
31.057313254229783
20
-45.611434042039548
30
0
10
31.168114529241237
20
-46.374060705264249
30
0
10
31.281342576823853
20
-47.12242397798601
30
0
10
31.391658112096895
20
-47.875206782267654
30
0
10
31.494511492739772
20
-48.653168697695349
30
0
10
31.587083395750266
20
-49.475547421797302
30
0
10
31.668857190986927
20
-50.357094462291066
30
0
10
31.740839577876066
20
-51.307681585956892
30
0
10
31.804996634344107
20
-52.331482438313131
30
0
10
31.863608223707697
20
-53.426333428747085
30
0
10
31.918650580850297
20
-54.58299034996034
30
0
10
31.971182201330382
20
-55.784494218198894
30
0
10
32.02069161070127
20
-57.00533670758346
30
0
10
32.064566950939046
20
-58.211152438794301
30
0
10
32.099007306591012
20
-59.364443725639674
30
0
10
32.11983091874604
20
-60.429871387431852
30
0
10
32.123325273151593
20
-61.379732124583157
30
0
10
32.10707331938282
20
-62.19930735293913
30
0
10
32.070804078744132
20
-62.892382001426625
30
0
10
32.017199327507683
20
-63.486418607661861
30
0
10
31.952812637025762
20
-64.038644143022722
30
0
10
31.886288537077458
20
-64.619392464701747
30
0
10
31.826341376336291
20
-65.293245898353902
30
0
10
31.780005780476962
20
-66.102866437869181
30
0
10
31.750335029158499
20
-67.04720522946522
30
0
10
31.735912044411748
20
-68.078285199590155
30
0
10
31.732877269843787
20
-69.123807361264568
30
0
10
31.736339638329049
20
-70.103423074034794
30
0
10
31.742042146152372
20
-70.947627038698272
30
0
10
31.747906889717477
20
-71.615395047144247
30
0
10
31.755660018312643
20
-72.112683462513075
30
0
10
31.772332068676228
20
-72.509574995377349
30
0
10
31.805691603017546
20
-72.900676551650719
30
0
10
31.860209273158922
20
-73.369616124653746
30
0
10
31.931997984518709
20
-73.946215385740786
30
0
10
32.011389611226008
20
-74.616929950423796
30
0
10
32.08715051896106
20
-75.346277791668257
30
0
10
32.149873514890288
20
-76.093419576708484
30
0
10
32.196314135510519
20
-76.833224320468588
30
0
10
32.231379400000989
20
-77.567463725922735
30
0
10
32.264691967433293
20
-78.313977351063627
30
0
10
32.308245562997527
20
-79.100190773191017
30
0
10
32.373546047278325
20
-79.954685959358656
30
0
10
32.469160064968406
20
-80.90011641857005
30
0
10
32.597601815615803
20
-81.944215464564508
30
0
10
32.755861582479085
20
-83.080789674672658
30
0
10
32.936964866383207
20
-84.29350607178452
30
0
10
33.131183192782203
20
-85.558739267115101
30
0
10
33.327398552578757
20
-86.848827869000928
30
0
10
33.514383508278598
20
-88.135117729827954
30
0
10
33.682160221797858
20
-89.39118378208866
30
0
10
33.823226099790034
20
-90.595772428776655
30
0
10
33.934077533077584
20
-91.736354661673261
30
0
10
34.015811988078013
20
-92.810799300817877
30
0
10
34.072689238070922
20
-93.824881966915271
30
0
10
34.111103124369151
20
-94.790637326975002
30
0
10
34.138398034710356
20
-95.724380197402468
30
0
10
34.161732761663806
20
-96.644857123054379
30
0
10
34.186968066607434
20
-97.571367466525317
30
0
10
34.217438566394527
20
-98.521836402314278
30
0
10
34.253091222602698
20
-99.511092002758232
30
0
10
34.291497060327004
20
-100.55021323723454
30
0
10
34.328615902583202
20
-101.64574777523063
30
0
10
34.359664137543376
20
-102.79895967358348
30
0
10
34.379922264128545
20
-104.00511136280316
30
0
10
34.385606198845309
20
-105.25262165049452
30
0
10
34.374622820856111
20
-106.52253166492271
30
0
10
34.347589886191081
20
-107.78721975761769
30
0
10
34.308015047029158
20
-109.01153340522364
30
0
10
34.26089899219064
20
-110.15843606532243
30
0
10
34.211672032898974
20
-111.19372820811222
30
0
10
34.165018719770629
20
-112.09101391488386
30
0
10
34.123700742751254
20
-112.83685001495431
30
0
10
34.087495865362598
20
-113.43514813000299
30
0
10
34.051810316736869
20
-113.91350223354394
30
0
10
34.007279589979603
20
-114.32377131600066
30
0
10
33.943318212751699
20
-114.71978099673245
30
0
10
33.851069388481399
20
-115.13849204889135
30
0
10
33.726600991930503
20
-115.57976782852485
30
0
10
33.568793530444587
20
-116.02354500592779
30
0
10
33.377508013753634
20
-116.44531912135646
30
0
10
33.151185127977996
20
-116.83504018590779
30
0
10
32.888007037004591
20
-117.19369541556794
30
0
10
32.587524448574371
20
-117.5256395944608
30
0
10
32.252790255210016
20
-117.83078873364281
30
0
10
31.889450670193735
20
-118.10387316319304
30
0
10
31.503262725181852
20
-118.33866437884689
30
0
10
31.097277451763116
20
-118.53117384300967
30
0
10
30.671823995442157
20
-118.68156762389914
30
0
10
30.22853436070513
20
-118.79280769342033
30
0
10
29.774194690335012
20
-118.87022328609133
30
0
10
29.412748804519811
20
-118.91039598574493
30
0
10
29.147634257188887
20
-118.93084797724197
30
0
10
28.973543991559602
20
-118.94053895211968
30
0
10
28.887
20
-118.9444
30
0
0
ENDSEC
0
SECTION
2
OBJECTS
0
DICTIONARY
5
C
100
AcDbDictionary
3
ACAD_GROUP
350
D
3
ACAD_MLINESTYLE
350
17
0
DICTIONARY
5
D
100
AcDbDictionary
0
DICTIONARY
5
1A
330
C
100
AcDbDictionary
0
DICTIONARY
5
17
100
AcDbDictionary
0
ENDSEC
0
EOF
