0
SECTION
2
HEADER
9
$INSUNITS
70
4
9
$ACADVER
1
AC1014
9
$HANDSEED
5
FFFF
0
ENDSEC
0
SECTION
2
TABLES
0
TABLE
2
VPORT
5
8
100
AcDbSymbolTable
0
ENDTAB
0
TABLE
2
LTYPE
5
5
100
AcDbSymbolTable
0
LTYPE
5
14
100
AcDbSymbolTableRecord
100
AcDbLinetypeTableRecord
2
BYBLOCK
70
0
0
LTYPE
5
15
100
AcDbSymbolTableRecord
100
AcDbLinetypeTableRecord
2
BYLAYER
70
0
0
LTYPE
5
16
100
AcDbSymbolTableRecord
100
AcDbLinetypeTableRecord
2
DASHED
70
0
3
Dashed __ __ __ __ __ __ __ __ __ __ __ __ __ _
72
65
73
2
40
0.75
49
0.5
74
0
49
-0.25
74
0
0
ENDTAB
0
TABLE
2
LAYER
5
2
100
AcDbSymbolTable
70
2
0
LAYER
5
50
100
AcDbSymbolTableRecord
100
AcDbLayerTableRecord
2
0
70
0
62
7
6
CONTINUOUS
0
ENDTAB
0
TABLE
2
STYLE
5
3
100
AcDbSymbolTable
70
1
0
STYLE
5
11
100
AcDbSymbolTableRecord
100
AcDbTextStyleTableRecord
2
STANDARD
70
0
0
ENDTAB
0
TABLE
2
VIEW
5
6
100
AcDbSymbolTable
70
0
0
ENDTAB
0
TABLE
2
UCS
5
7
100
AcDbSymbolTable
70
0
0
ENDTAB
0
TABLE
2
APPID
5
9
100
AcDbSymbolTable
70
2
0
APPID
5
12
100
AcDbSymbolTableRecord
100
AcDbRegAppTableRecord
2
ACAD
70
0
0
ENDTAB
0
TABLE
2
DIMSTYLE
5
A
100
AcDbSymbolTable
70
1
0
ENDTAB
0
TABLE
2
BLOCK_RECORD
5
1
100
AcDbSymbolTable
70
1
0
BLOCK_RECORD
5
1F
100
AcDbSymbolTableRecord
100
AcDbBlockTableRecord
2
*MODEL_SPACE
0
BLOCK_RECORD
5
1B
100
AcDbSymbolTableRecord
100
AcDbBlockTableRecord
2
*PAPER_SPACE
0
ENDTAB
0
ENDSEC
0
SECTION
2
BLOCKS
0
BLOCK
5
20
100
AcDbEntity
100
AcDbBlockBegin
2
*MODEL_SPACE
0
ENDBLK
5
21
100
AcDbEntity
100
AcDbBlockEnd
0
BLOCK
5
1C
100
AcDbEntity
100
AcDbBlockBegin
2
*PAPER_SPACE
0
ENDBLK
5
1D
100
AcDbEntity
100
AcDbBlockEnd
0
ENDSEC
0
SECTION
2
ENTITIES
0
SPLINE
5
100
100
AcDbEntity
8
0
100
AcDbSpline
70
6
71
5
72
906
73
900
74
0
42
0.000000001
43
0.0000000001
44
0.0000000001
40
0
40
0
40
0
40
0
40
0
40
0
40
0.0011173184357541898
40
0.0022346368715083797
40
0.0033519553072625698
40
0.0044692737430167594
40
0.005586592178770949
40
0.0067039106145251387
40
0.0078212290502793283
40
0.0089385474860335188
40
0.010055865921787709
40
0.0111731843575419
40
0.01229050279329609
40
0.013407821229050281
40
0.014525139664804471
40
0.01564245810055866
40
0.016759776536312849
40
0.017877094972067038
40
0.018994413407821226
40
0.020111731843575415
40
0.021229050279329604
40
0.022346368715083793
40
0.023463687150837981
40
0.02458100558659217
40
0.025698324022346359
40
0.026815642458100548
40
0.027932960893854736
40
0.029050279329608925
40
0.030167597765363114
40
0.031284916201117306
40
0.032402234636871495
40
0.033519553072625684
40
0.034636871508379873
40
0.035754189944134061
40
0.03687150837988825
40
0.037988826815642439
40
0.039106145251396628
40
0.040223463687150816
40
0.041340782122905005
40
0.042458100558659194
40
0.043575418994413383
40
0.044692737430167571
40
0.04581005586592176
40
0.046927374301675949
40
0.048044692737430138
40
0.049162011173184327
40
0.050279329608938515
40
0.051396648044692704
40
0.052513966480446893
40
0.053631284916201082
40
0.05474860335195527
40
0.055865921787709459
40
0.056983240223463648
40
0.058100558659217837
40
0.059217877094972025
40
0.060335195530726214
40
0.061452513966480403
40
0.062569832402234599
40
0.063687150837988787
40
0.064804469273742976
40
0.065921787709497165
40
0.067039106145251354
40
0.068156424581005542
40
0.069273743016759731
40
0.07039106145251392
40
0.071508379888268109
40
0.072625698324022298
40
0.073743016759776486
40
0.074860335195530675
40
0.075977653631284864
40
0.077094972067039053
40
0.078212290502793241
40
0.07932960893854743
40
0.080446927374301619
40
0.081564245810055808
40
0.082681564245809996
40
0.083798882681564185
40
0.084916201117318374
40
0.086033519553072563
40
0.087150837988826751
40
0.08826815642458094
40
0.089385474860335129
40
0.090502793296089318
40
0.091620111731843507
40
0.092737430167597695
40
0.093854748603351884
40
0.094972067039106073
40
0.096089385474860262
40
0.09720670391061445
40
0.098324022346368639
40
0.099441340782122828
40
0.10055865921787702
40
0.10167597765363121
40
0.10279329608938539
40
0.10391061452513958
40
0.10502793296089377
40
0.10614525139664796
40
0.10726256983240215
40
0.10837988826815634
40
0.10949720670391053
40
0.11061452513966472
40
0.1117318435754189
40
0.11284916201117309
40
0.11396648044692728
40
0.11508379888268147
40
0.11620111731843566
40
0.11731843575418985
40
0.11843575418994404
40
0.11955307262569823
40
0.12067039106145241
40
0.1217877094972066
40
0.12290502793296079
40
0.12402234636871498
40
0.12513966480446917
40
0.12625698324022336
40
0.12737430167597755
40
0.12849162011173174
40
0.12960893854748592
40
0.13072625698324011
40
0.1318435754189943
40
0.13296089385474849
40
0.13407821229050268
40
0.13519553072625687
40
0.13631284916201106
40
0.13743016759776525
40
0.13854748603351943
40
0.13966480446927362
40
0.14078212290502781
40
0.141899441340782
40
0.14301675977653619
40
0.14413407821229038
40
0.14525139664804457
40
0.14636871508379876
40
0.14748603351955294
40
0.14860335195530713
40
0.14972067039106132
40
0.15083798882681551
40
0.1519553072625697
40
0.15307262569832389
40
0.15418994413407808
40
0.15530726256983227
40
0.15642458100558645
40
0.15754189944134064
40
0.15865921787709483
40
0.15977653631284902
40
0.16089385474860321
40
0.1620111731843574
40
0.16312849162011159
40
0.16424581005586578
40
0.16536312849161997
40
0.16648044692737415
40
0.16759776536312834
40
0.16871508379888253
40
0.16983240223463672
40
0.17094972067039091
40
0.1720670391061451
40
0.17318435754189929
40
0.17430167597765348
40
0.17541899441340766
40
0.17653631284916185
40
0.17765363128491604
40
0.17877094972067023
40
0.17988826815642442
40
0.18100558659217861
40
0.1821229050279328
40
0.18324022346368699
40
0.18435754189944117
40
0.18547486033519536
40
0.18659217877094955
40
0.18770949720670374
40
0.18882681564245793
40
0.18994413407821212
40
0.19106145251396631
40
0.1921787709497205
40
0.19329608938547468
40
0.19441340782122887
40
0.19553072625698306
40
0.19664804469273725
40
0.19776536312849144
40
0.19888268156424563
40
0.19999999999999982
40
0.20111731843575401
40
0.20223463687150819
40
0.20335195530726238
40
0.20446927374301657
40
0.20558659217877076
40
0.20670391061452495
40
0.20782122905027914
40
0.20893854748603333
40
0.21005586592178752
40
0.2111731843575417
40
0.21229050279329589
40
0.21340782122905008
40
0.21452513966480427
40
0.21564245810055846
40
0.21675977653631265
40
0.21787709497206684
40
0.21899441340782103
40
0.22011173184357521
40
0.2212290502793294
40
0.22234636871508359
40
0.22346368715083778
40
0.22458100558659197
40
0.22569832402234616
40
0.22681564245810035
40
0.22793296089385454
40
0.22905027932960872
40
0.23016759776536291
40
0.2312849162011171
40
0.23240223463687129
40
0.23351955307262548
40
0.23463687150837967
40
0.23575418994413386
40
0.23687150837988805
40
0.23798882681564223
40
0.23910614525139642
40
0.24022346368715061
40
0.2413407821229048
40
0.24245810055865899
40
0.24357541899441318
40
0.24469273743016737
40
0.24581005586592156
40
0.24692737430167574
40
0.24804469273742993
40
0.24916201117318412
40
0.25027932960893834
40
0.25139664804469253
40
0.25251396648044672
40
0.25363128491620091
40
0.25474860335195509
40
0.25586592178770928
40
0.25698324022346347
40
0.25810055865921766
40
0.25921787709497185
40
0.26033519553072604
40
0.26145251396648023
40
0.26256983240223442
40
0.2636871508379886
40
0.26480446927374279
40
0.26592178770949698
40
0.26703910614525117
40
0.26815642458100536
40
0.26927374301675955
40
0.27039106145251374
40
0.27150837988826793
40
0.27262569832402211
40
0.2737430167597763
40
0.27486033519553049
40
0.27597765363128468
40
0.27709497206703887
40
0.27821229050279306
40
0.27932960893854725
40
0.28044692737430144
40
0.28156424581005562
40
0.28268156424580981
40
0.283798882681564
40
0.28491620111731819
40
0.28603351955307238
40
0.28715083798882657
40
0.28826815642458076
40
0.28938547486033495
40
0.29050279329608913
40
0.29162011173184332
40
0.29273743016759751
40
0.2938547486033517
40
0.29497206703910589
40
0.29608938547486008
40
0.29720670391061427
40
0.29832402234636846
40
0.29944134078212264
40
0.30055865921787683
40
0.30167597765363102
40
0.30279329608938521
40
0.3039106145251394
40
0.30502793296089359
40
0.30614525139664778
40
0.30726256983240197
40
0.30837988826815615
40
0.30949720670391034
40
0.31061452513966453
40
0.31173184357541872
40
0.31284916201117291
40
0.3139664804469271
40
0.31508379888268129
40
0.31620111731843548
40
0.31731843575418966
40
0.31843575418994385
40
0.31955307262569804
40
0.32067039106145223
40
0.32178770949720642
40
0.32290502793296061
40
0.3240223463687148
40
0.32513966480446899
40
0.32625698324022318
40
0.32737430167597736
40
0.32849162011173155
40
0.32960893854748574
40
0.33072625698323993
40
0.33184357541899412
40
0.33296089385474831
40
0.3340782122905025
40
0.33519553072625669
40
0.33631284916201087
40
0.33743016759776506
40
0.33854748603351925
40
0.33966480446927344
40
0.34078212290502763
40
0.34189944134078182
40
0.34301675977653601
40
0.3441340782122902
40
0.34525139664804438
40
0.34636871508379857
40
0.34748603351955276
40
0.34860335195530695
40
0.34972067039106114
40
0.35083798882681533
40
0.35195530726256952
40
0.35307262569832371
40
0.35418994413407789
40
0.35530726256983208
40
0.35642458100558627
40
0.35754189944134046
40
0.35865921787709465
40
0.35977653631284884
40
0.36089385474860303
40
0.36201117318435722
40
0.3631284916201114
40
0.36424581005586559
40
0.36536312849161978
40
0.36648044692737397
40
0.36759776536312816
40
0.36871508379888235
40
0.36983240223463654
40
0.37094972067039073
40
0.37206703910614491
40
0.3731843575418991
40
0.37430167597765329
40
0.37541899441340748
40
0.37653631284916167
40
0.37765363128491586
40
0.37877094972067005
40
0.37988826815642424
40
0.38100558659217842
40
0.38212290502793261
40
0.3832402234636868
40
0.38435754189944099
40
0.38547486033519518
40
0.38659217877094937
40
0.38770949720670356
40
0.38882681564245775
40
0.38994413407821193
40
0.39106145251396612
40
0.39217877094972031
40
0.3932960893854745
40
0.39441340782122869
40
0.39553072625698288
40
0.39664804469273707
40
0.39776536312849126
40
0.39888268156424544
40
0.39999999999999963
40
0.40111731843575382
40
0.40223463687150801
40
0.4033519553072622
40
0.40446927374301639
40
0.40558659217877058
40
0.40670391061452477
40
0.40782122905027895
40
0.40893854748603314
40
0.41005586592178733
40
0.41117318435754152
40
0.41229050279329571
40
0.4134078212290499
40
0.41452513966480409
40
0.41564245810055828
40
0.41675977653631247
40
0.41787709497206665
40
0.41899441340782084
40
0.42011173184357503
40
0.42122905027932922
40
0.42234636871508341
40
0.4234636871508376
40
0.42458100558659179
40
0.42569832402234598
40
0.42681564245810016
40
0.42793296089385435
40
0.42905027932960854
40
0.43016759776536273
40
0.43128491620111692
40
0.43240223463687111
40
0.4335195530726253
40
0.43463687150837949
40
0.43575418994413367
40
0.43687150837988786
40
0.43798882681564205
40
0.43910614525139624
40
0.44022346368715043
40
0.44134078212290462
40
0.44245810055865881
40
0.443575418994413
40
0.44469273743016718
40
0.44581005586592137
40
0.44692737430167556
40
0.44804469273742975
40
0.44916201117318394
40
0.45027932960893813
40
0.45139664804469232
40
0.45251396648044651
40
0.45363128491620069
40
0.45474860335195488
40
0.45586592178770907
40
0.45698324022346326
40
0.45810055865921745
40
0.45921787709497164
40
0.46033519553072583
40
0.46145251396648002
40
0.4625698324022342
40
0.46368715083798839
40
0.46480446927374258
40
0.46592178770949677
40
0.46703910614525096
40
0.46815642458100515
40
0.46927374301675934
40
0.47039106145251353
40
0.47150837988826771
40
0.4726256983240219
40
0.47374301675977609
40
0.47486033519553028
40
0.47597765363128447
40
0.47709497206703866
40
0.47821229050279285
40
0.47932960893854704
40
0.48044692737430122
40
0.48156424581005541
40
0.4826815642458096
40
0.48379888268156379
40
0.48491620111731798
40
0.48603351955307217
40
0.48715083798882636
40
0.48826815642458055
40
0.48938547486033473
40
0.49050279329608892
40
0.49162011173184311
40
0.4927374301675973
40
0.49385474860335149
40
0.49497206703910568
40
0.49608938547485987
40
0.49720670391061406
40
0.49832402234636825
40
0.49944134078212243
40
0.50055865921787668
40
0.50167597765363092
40
0.50279329608938517
40
0.50391061452513941
40
0.50502793296089366
40
0.5061452513966479
40
0.50726256983240214
40
0.50837988826815639
40
0.50949720670391063
40
0.51061452513966488
40
0.51173184357541912
40
0.51284916201117337
40
0.51396648044692761
40
0.51508379888268185
40
0.5162011173184361
40
0.51731843575419034
40
0.51843575418994459
40
0.51955307262569883
40
0.52067039106145308
40
0.52178770949720732
40
0.52290502793296156
40
0.52402234636871581
40
0.52513966480447005
40
0.5262569832402243
40
0.52737430167597854
40
0.52849162011173278
40
0.52960893854748703
40
0.53072625698324127
40
0.53184357541899552
40
0.53296089385474976
40
0.53407821229050401
40
0.53519553072625825
40
0.53631284916201249
40
0.53743016759776674
40
0.53854748603352098
40
0.53966480446927523
40
0.54078212290502947
40
0.54189944134078372
40
0.54301675977653796
40
0.5441340782122922
40
0.54525139664804645
40
0.54636871508380069
40
0.54748603351955494
40
0.54860335195530918
40
0.54972067039106343
40
0.55083798882681767
40
0.55195530726257191
40
0.55307262569832616
40
0.5541899441340804
40
0.55530726256983465
40
0.55642458100558889
40
0.55754189944134314
40
0.55865921787709738
40
0.55977653631285162
40
0.56089385474860587
40
0.56201117318436011
40
0.56312849162011436
40
0.5642458100558686
40
0.56536312849162285
40
0.56648044692737709
40
0.56759776536313133
40
0.56871508379888558
40
0.56983240223463982
40
0.57094972067039407
40
0.57206703910614831
40
0.57318435754190256
40
0.5743016759776568
40
0.57541899441341104
40
0.57653631284916529
40
0.57765363128491953
40
0.57877094972067378
40
0.57988826815642802
40
0.58100558659218227
40
0.58212290502793651
40
0.58324022346369075
40
0.584357541899445
40
0.58547486033519924
40
0.58659217877095349
40
0.58770949720670773
40
0.58882681564246198
40
0.58994413407821622
40
0.59106145251397046
40
0.59217877094972471
40
0.59329608938547895
40
0.5944134078212332
40
0.59553072625698744
40
0.59664804469274169
40
0.59776536312849593
40
0.59888268156425017
40
0.60000000000000442
40
0.60111731843575866
40
0.60223463687151291
40
0.60335195530726715
40
0.6044692737430214
40
0.60558659217877564
40
0.60670391061452988
40
0.60782122905028413
40
0.60893854748603837
40
0.61005586592179262
40
0.61117318435754686
40
0.61229050279330111
40
0.61340782122905535
40
0.61452513966480959
40
0.61564245810056384
40
0.61675977653631808
40
0.61787709497207233
40
0.61899441340782657
40
0.62011173184358082
40
0.62122905027933506
40
0.6223463687150893
40
0.62346368715084355
40
0.62458100558659779
40
0.62569832402235204
40
0.62681564245810628
40
0.62793296089386053
40
0.62905027932961477
40
0.63016759776536901
40
0.63128491620112326
40
0.6324022346368775
40
0.63351955307263175
40
0.63463687150838599
40
0.63575418994414024
40
0.63687150837989448
40
0.63798882681564872
40
0.63910614525140297
40
0.64022346368715721
40
0.64134078212291146
40
0.6424581005586657
40
0.64357541899441995
40
0.64469273743017419
40
0.64581005586592843
40
0.64692737430168268
40
0.64804469273743692
40
0.64916201117319117
40
0.65027932960894541
40
0.65139664804469966
40
0.6525139664804539
40
0.65363128491620814
40
0.65474860335196239
40
0.65586592178771663
40
0.65698324022347088
40
0.65810055865922512
40
0.65921787709497937
40
0.66033519553073361
40
0.66145251396648785
40
0.6625698324022421
40
0.66368715083799634
40
0.66480446927375059
40
0.66592178770950483
40
0.66703910614525908
40
0.66815642458101332
40
0.66927374301676756
40
0.67039106145252181
40
0.67150837988827605
40
0.6726256983240303
40
0.67374301675978454
40
0.67486033519553879
40
0.67597765363129303
40
0.67709497206704727
40
0.67821229050280152
40
0.67932960893855576
40
0.68044692737431001
40
0.68156424581006425
40
0.6826815642458185
40
0.68379888268157274
40
0.68491620111732698
40
0.68603351955308123
40
0.68715083798883547
40
0.68826815642458972
40
0.68938547486034396
40
0.69050279329609821
40
0.69162011173185245
40
0.69273743016760669
40
0.69385474860336094
40
0.69497206703911518
40
0.69608938547486943
40
0.69720670391062367
40
0.69832402234637792
40
0.69944134078213216
40
0.7005586592178864
40
0.70167597765364065
40
0.70279329608939489
40
0.70391061452514914
40
0.70502793296090338
40
0.70614525139665762
40
0.70726256983241187
40
0.70837988826816611
40
0.70949720670392036
40
0.7106145251396746
40
0.71173184357542885
40
0.71284916201118309
40
0.71396648044693733
40
0.71508379888269158
40
0.71620111731844582
40
0.71731843575420007
40
0.71843575418995431
40
0.71955307262570856
40
0.7206703910614628
40
0.72178770949721704
40
0.72290502793297129
40
0.72402234636872553
40
0.72513966480447978
40
0.72625698324023402
40
0.72737430167598827
40
0.72849162011174251
40
0.72960893854749675
40
0.730726256983251
40
0.73184357541900524
40
0.73296089385475949
40
0.73407821229051373
40
0.73519553072626798
40
0.73631284916202222
40
0.73743016759777646
40
0.73854748603353071
40
0.73966480446928495
40
0.7407821229050392
40
0.74189944134079344
40
0.74301675977654769
40
0.74413407821230193
40
0.74525139664805617
40
0.74636871508381042
40
0.74748603351956466
40
0.74860335195531891
40
0.74972067039107315
40
0.7508379888268274
40
0.75195530726258164
40
0.75307262569833588
40
0.75418994413409013
40
0.75530726256984437
40
0.75642458100559862
40
0.75754189944135286
40
0.75865921787710711
40
0.75977653631286135
40
0.76089385474861559
40
0.76201117318436984
40
0.76312849162012408
40
0.76424581005587833
40
0.76536312849163257
40
0.76648044692738682
40
0.76759776536314106
40
0.7687150837988953
40
0.76983240223464955
40
0.77094972067040379
40
0.77206703910615804
40
0.77318435754191228
40
0.77430167597766653
40
0.77541899441342077
40
0.77653631284917501
40
0.77765363128492926
40
0.7787709497206835
40
0.77988826815643775
40
0.78100558659219199
40
0.78212290502794624
40
0.78324022346370048
40
0.78435754189945472
40
0.78547486033520897
40
0.78659217877096321
40
0.78770949720671746
40
0.7888268156424717
40
0.78994413407822595
40
0.79106145251398019
40
0.79217877094973443
40
0.79329608938548868
40
0.79441340782124292
40
0.79553072625699717
40
0.79664804469275141
40
0.79776536312850566
40
0.7988826815642599
40
0.80000000000001414
40
0.80111731843576839
40
0.80223463687152263
40
0.80335195530727688
40
0.80446927374303112
40
0.80558659217878537
40
0.80670391061453961
40
0.80782122905029385
40
0.8089385474860481
40
0.81005586592180234
40
0.81117318435755659
40
0.81229050279331083
40
0.81340782122906508
40
0.81452513966481932
40
0.81564245810057356
40
0.81675977653632781
40
0.81787709497208205
40
0.8189944134078363
40
0.82011173184359054
40
0.82122905027934479
40
0.82234636871509903
40
0.82346368715085327
40
0.82458100558660752
40
0.82569832402236176
40
0.82681564245811601
40
0.82793296089387025
40
0.8290502793296245
40
0.83016759776537874
40
0.83128491620113298
40
0.83240223463688723
40
0.83351955307264147
40
0.83463687150839572
40
0.83575418994414996
40
0.83687150837990421
40
0.83798882681565845
40
0.83910614525141269
40
0.84022346368716694
40
0.84134078212292118
40
0.84245810055867543
40
0.84357541899442967
40
0.84469273743018392
40
0.84581005586593816
40
0.8469273743016924
40
0.84804469273744665
40
0.84916201117320089
40
0.85027932960895514
40
0.85139664804470938
40
0.85251396648046363
40
0.85363128491621787
40
0.85474860335197211
40
0.85586592178772636
40
0.8569832402234806
40
0.85810055865923485
40
0.85921787709498909
40
0.86033519553074334
40
0.86145251396649758
40
0.86256983240225182
40
0.86368715083800607
40
0.86480446927376031
40
0.86592178770951456
40
0.8670391061452688
40
0.86815642458102305
40
0.86927374301677729
40
0.87039106145253153
40
0.87150837988828578
40
0.87262569832404002
40
0.87374301675979427
40
0.87486033519554851
40
0.87597765363130276
40
0.877094972067057
40
0.87821229050281124
40
0.87932960893856549
40
0.88044692737431973
40
0.88156424581007398
40
0.88268156424582822
40
0.88379888268158247
40
0.88491620111733671
40
0.88603351955309095
40
0.8871508379888452
40
0.88826815642459944
40
0.88938547486035369
40
0.89050279329610793
40
0.89162011173186217
40
0.89273743016761642
40
0.89385474860337066
40
0.89497206703912491
40
0.89608938547487915
40
0.8972067039106334
40
0.89832402234638764
40
0.89944134078214188
40
0.90055865921789613
40
0.90167597765365037
40
0.90279329608940462
40
0.90391061452515886
40
0.90502793296091311
40
0.90614525139666735
40
0.90726256983242159
40
0.90837988826817584
40
0.90949720670393008
40
0.91061452513968433
40
0.91173184357543857
40
0.91284916201119282
40
0.91396648044694706
40
0.9150837988827013
40
0.91620111731845555
40
0.91731843575420979
40
0.91843575418996404
40
0.91955307262571828
40
0.92067039106147253
40
0.92178770949722677
40
0.92290502793298101
40
0.92402234636873526
40
0.9251396648044895
40
0.92625698324024375
40
0.92737430167599799
40
0.92849162011175224
40
0.92960893854750648
40
0.93072625698326072
40
0.93184357541901497
40
0.93296089385476921
40
0.93407821229052346
40
0.9351955307262777
40
0.93631284916203195
40
0.93743016759778619
40
0.93854748603354043
40
0.93966480446929468
40
0.94078212290504892
40
0.94189944134080317
40
0.94301675977655741
40
0.94413407821231166
40
0.9452513966480659
40
0.94636871508382014
40
0.94748603351957439
40
0.94860335195532863
40
0.94972067039108288
40
0.95083798882683712
40
0.95195530726259137
40
0.95307262569834561
40
0.95418994413409985
40
0.9553072625698541
40
0.95642458100560834
40
0.95754189944136259
40
0.95865921787711683
40
0.95977653631287108
40
0.96089385474862532
40
0.96201117318437956
40
0.96312849162013381
40
0.96424581005588805
40
0.9653631284916423
40
0.96648044692739654
40
0.96759776536315079
40
0.96871508379890503
40
0.96983240223465927
40
0.97094972067041352
40
0.97206703910616776
40
0.97318435754192201
40
0.97430167597767625
40
0.9754189944134305
40
0.97653631284918474
40
0.97765363128493898
40
0.97877094972069323
40
0.97988826815644747
40
0.98100558659220172
40
0.98212290502795596
40
0.98324022346371021
40
0.98435754189946445
40
0.98547486033521869
40
0.98659217877097294
40
0.98770949720672718
40
0.98882681564248143
40
0.98994413407823567
40
0.99106145251398992
40
0.99217877094974416
40
0.9932960893854984
40
0.99441340782125265
40
0.99553072625700689
40
0.99664804469276114
40
0.99776536312851538
40
0.99888268156426963
40
1
40
1
40
1
40
1
40
1
40
1
41
1
41
1
41
1
41
1
41
1
41
1
41
1
41
1
41
1
41
1
41
1
41
1
41
1
41
1
41
1
41
1
41
1
41
1
41
1
41
1
41
1
41
1
41
1
41
1
41
1
41
1
41
1
41
1
41
1
41
1
41
1
41
1
41
1
41
1
41
1
41
1
41
1
41
1
41
1
41
1
41
1
41
1
41
1
41
1
41
1
41
1
41
1
41
1
41
1
41
1
41
1
41
1
41
1
41
1
41
1
41
1
41
1
41
1
41
1
41
1
41
1
41
1
41
1
41
1
41
1
41
1
41
1
41
1
41
1
41
1
41
1
41
1
41
1
41
1
41
1
41
1
41
1
41
1
41
1
41
1
41
1
41
1
41
1
41
1
41
1
41
1
41
1
41
1
41
1
41
1
41
1
41
1
41
1
41
1
41
1
41
1
41
1
41
1
41
1
41
1
41
1
41
1
41
1
41
1
41
1
41
1
41
1
41
1
41
1
41
1
41
1
41
1
41
1
41
1
41
1
41
1
41
1
41
1
41
1
41
1
41
1
41
1
41
1
41
1
41
1
41
1
41
1
41
1
41
1
41
1
41
1
41
1
41
1
41
1
41
1
41
1
41
1
41
1
41
1
41
1
41
1
41
1
41
1
41
1
41
1
41
1
41
1
41
1
41
1
41
1
41
1
41
1
41
1
41
1
41
1
41
1
41
1
41
1
41
1
41
1
41
1
41
1
41
1
41
1
41
1
41
1
41
1
41
1
41
1
41
1
41
1
41
1
41
1
41
1
41
1
41
1
41
1
41
1
41
1
41
1
41
1
41
1
41
1
41
1
41
1
41
1
41
1
41
1
41
1
41
1
41
1
41
1
41
1
41
1
41
1
41
1
41
1
41
1
41
1
41
1
41
1
41
1
41
1
41
1
41
1
41
1
41
1
41
1
41
1
41
1
41
1
41
1
41
1
41
1
41
1
41
1
41
1
41
1
41
1
41
1
41
1
41
1
41
1
41
1
41
1
41
1
41
1
41
1
41
1
41
1
41
1
41
1
41
1
41
1
41
1
41
1
41
1
41
1
41
1
41
1
41
1
41
1
41
1
41
1
41
1
41
1
41
1
41
1
41
1
41
1
41
1
41
1
41
1
41
1
41
1
41
1
41
1
41
1
41
1
41
1
41
1
41
1
41
1
41
1
41
1
41
1
41
1
41
1
41
1
41
1
41
1
41
1
41
1
41
1
41
1
41
1
41
1
41
1
41
1
41
1
41
1
41
1
41
1
41
1
41
1
41
1
41
1
41
1
41
1
41
1
41
1
41
1
41
1
41
1
41
1
41
1
41
1
41
1
41
1
41
1
41
1
41
1
41
1
41
1
41
1
41
1
41
1
41
1
41
1
41
1
41
1
41
1
41
1
41
1
41
1
41
1
41
1
41
1
41
1
41
1
41
1
41
1
41
1
41
1
41
1
41
1
41
1
41
1
41
1
41
1
41
1
41
1
41
1
41
1
41
1
41
1
41
1
41
1
41
1
41
1
41
1
41
1
41
1
41
1
41
1
41
1
41
1
41
1
41
1
41
1
41
1
41
1
41
1
41
1
41
1
41
1
41
1
41
1
41
1
41
1
41
1
41
1
41
1
41
1
41
1
41
1
41
1
41
1
41
1
41
1
41
1
41
1
41
1
41
1
41
1
41
1
41
1
41
1
41
1
41
1
41
1
41
1
41
1
41
1
41
1
41
1
41
1
41
1
41
1
41
1
41
1
41
1
41
1
41
1
41
1
41
1
41
1
41
1
41
1
41
1
41
1
41
1
41
1
41
1
41
1
41
1
41
1
41
1
41
1
41
1
41
1
41
1
41
1
41
1
41
1
41
1
41
1
41
1
41
1
41
1
41
1
41
1
41
1
41
1
41
1
41
1
41
1
41
1
41
1
41
1
41
1
41
1
41
1
41
1
41
1
41
1
41
1
41
1
41
1
41
1
41
1
41
1
41
1
41
1
41
1
41
1
41
1
41
1
41
1
41
1
41
1
41
1
41
1
41
1
41
1
41
1
41
1
41
1
41
1
41
1
41
1
41
1
41
1
41
1
41
1
41
1
41
1
41
1
41
1
41
1
41
1
41
1
41
1
41
1
41
1
41
1
41
1
41
1
41
1
41
1
41
1
41
1
41
1
41
1
41
1
41
1
41
1
41
1
41
1
41
1
41
1
41
1
41
1
41
1
41
1
41
1
41
1
41
1
41
1
41
1
41
1
41
1
41
1
41
1
41
1
41
1
41
1
41
1
41
1
41
1
41
1
41
1
41
1
41
1
41
1
41
1
41
1
41
1
41
1
41
1
41
1
41
1
41
1
41
1
41
1
41
1
41
1
41
1
41
1
41
1
41
1
41
1
41
1
41
1
41
1
41
1
41
1
41
1
41
1
41
1
41
1
41
1
41
1
41
1
41
1
41
1
41
1
41
1
41
1
41
1
41
1
41
1
41
1
41
1
41
1
41
1
41
1
41
1
41
1
41
1
41
1
41
1
41
1
41
1
41
1
41
1
41
1
41
1
41
1
41
1
41
1
41
1
41
1
41
1
41
1
41
1
41
1
41
1
41
1
41
1
41
1
41
1
41
1
41
1
41
1
41
1
41
1
41
1
41
1
41
1
41
1
41
1
41
1
41
1
41
1
41
1
41
1
41
1
41
1
41
1
41
1
41
1
41
1
41
1
41
1
41
1
41
1
41
1
41
1
41
1
41
1
41
1
41
1
41
1
41
1
41
1
41
1
41
1
41
1
41
1
41
1
41
1
41
1
41
1
41
1
41
1
41
1
41
1
41
1
41
1
41
1
41
1
41
1
41
1
41
1
41
1
41
1
41
1
41
1
41
1
41
1
41
1
41
1
41
1
41
1
41
1
41
1
41
1
41
1
41
1
41
1
41
1
41
1
41
1
41
1
41
1
41
1
41
1
41
1
41
1
41
1
41
1
41
1
41
1
41
1
41
1
41
1
41
1
41
1
41
1
41
1
41
1
41
1
41
1
41
1
41
1
41
1
41
1
41
1
41
1
41
1
41
1
41
1
41
1
41
1
41
1
41
1
41
1
41
1
41
1
41
1
41
1
41
1
41
1
41
1
41
1
41
1
41
1
41
1
41
1
41
1
41
1
41
1
41
1
41
1
41
1
41
1
41
1
41
1
41
1
41
1
41
1
41
1
41
1
41
1
41
1
41
1
41
1
41
1
41
1
41
1
41
1
41
1
41
1
41
1
41
1
41
1
41
1
41
1
41
1
41
1
41
1
41
1
41
1
41
1
41
1
41
1
41
1
41
1
41
1
41
1
41
1
41
1
41
1
41
1
41
1
41
1
41
1
41
1
41
1
41
1
41
1
41
1
41
1
41
1
41
1
41
1
41
1
41
1
41
1
41
1
41
1
41
1
41
1
41
1
41
1
41
1
41
1
41
1
41
1
41
1
41
1
41
1
41
1
41
1
41
1
41
1
41
1
41
1
41
1
41
1
41
1
41
1
41
1
41
1
41
1
41
1
41
1
41
1
41
1
41
1
41
1
41
1
41
1
41
1
41
1
41
1
41
1
41
1
41
1
41
1
41
1
41
1
41
1
41
1
41
1
41
1
41
1
41
1
41
1
41
1
41
1
41
1
41
1
41
1
41
1
41
1
41
1
41
1
41
1
41
1
41
1
41
1
41
1
41
1
41
1
41
1
41
1
41
1
41
1
41
1
41
1
41
1
41
1
41
1
41
1
41
1
41
1
41
1
41
1
41
1
41
1
41
1
41
1
41
1
41
1
41
1
41
1
41
1
41
1
41
1
41
1
41
1
41
1
41
1
41
1
41
1
41
1
41
1
41
1
41
1
41
1
41
1
41
1
41
1
41
1
41
1
41
1
41
1
41
1
41
1
41
1
41
1
41
1
41
1
41
1
41
1
41
1
41
1
41
1
41
1
41
1
41
1
41
1
41
1
41
1
41
1
41
1
41
1
41
1
41
1
41
1
41
1
41
1
41
1
41
1
41
1
41
1
41
1
41
1
10
-6.8681000000000001
20
-117.91970000000001
30
0
10
-6.9325171442256348
20
-117.86764427153432
30
0
10
-7.0580656943375253
20
-117.75908380143755
30
0
10
-7.2361329906624547
20
-117.58376404769783
30
0
10
-7.4517027243629581
20
-117.32865004999672
30
0
10
-7.6810938521252039
20
-116.98218080581945
30
0
10
-7.8659002657569301
20
-116.6139080294941
30
0
10
-7.9980617505693994
20
-116.22493261997474
30
0
10
-8.0726295423432699
20
-115.81493498862929
30
0
10
-8.0964215987991874
20
-115.38701773442398
30
0
10
-8.0997121342839407
20
-114.95366111545989
30
0
10
-8.1346260895770399
20
-114.53689625719049
30
0
10
-8.2501924362247578
20
-114.15808924438223
30
0
10
-8.4720986131147864
20
-113.82986600085798
30
0
10
-8.7822572309659126
20
-113.54781845973932
30
0
10
-9.1405203057388178
20
-113.29739179345711
30
0
10
-9.5024765412148966
20
-113.05952001309804
30
0
10
-9.8420886341337503
20
-112.81752683143401
30
0
10
-10.150299324828055
20
-112.55836228960264
30
0
10
-10.427340930172049
20
-112.27244062227159
30
0
10
-10.676226969714225
20
-111.9536428534996
30
0
10
-10.899006880490276
20
-111.60026992270461
30
0
10
-11.098100642330193
20
-111.21723290679998
30
0
10
-11.276201298988248
20
-110.81834414137211
30
0
10
-11.437012503216039
20
-110.42733514245357
30
0
10
-11.590207863876005
20
-110.06530171542082
30
0
10
-11.754774962690064
20
-109.74110281428082
30
0
10
-11.965830093649153
20
-109.43705232533951
30
0
10
-12.259877607596664
20
-109.12260781395923
30
0
10
-12.658091109737198
20
-108.77179255865059
30
0
10
-13.144692364565589
20
-108.38417036825115
30
0
10
-13.66820335461634
20
-107.98632111881844
30
0
10
-14.166807730378231
20
-107.61229388940173
30
0
10
-14.588294104930529
20
-107.28887247668881
30
0
10
-14.909843208660799
20
-107.02079048294399
30
0
10
-15.163957825800072
20
-106.77105736438773
30
0
10
-15.416589174016895
20
-106.4797091718809
30
0
10
-15.736621073800547
20
-106.08927730715791
30
0
10
-16.162603706672364
20
-105.57302517503086
30
0
10
-16.691742937810069
20
-104.94329231136146
30
0
10
-17.296037939682968
20
-104.23580648609487
30
0
10
-17.931222255798723
20
-103.50034518809943
30
0
10
-18.5485019684501
20
-102.78895525928577
30
0
10
-19.105422703882219
20
-102.14487147022476
30
0
10
-19.576342696643444
20
-101.59195029473682
30
0
10
-19.965113449342859
20
-101.12171888173378
30
0
10
-20.296364690995485
20
-100.70314815533123
30
0
10
-20.602910093392342
20
-100.29653341593308
30
0
10
-20.914961866919164
20
-99.865462071492587
30
0
10
-21.247552917568264
20
-99.39067441615984
30
0
10
-21.591759741694467
20
-98.87990404629015
30
0
10
-21.925695425974361
20
-98.356476535180633
30
0
10
-22.223654280251321
20
-97.850111255867716
30
0
10
-22.465038036273679
20
-97.387429474237891
30
0
10
-22.64561870629981
20
-96.981245684330389
30
0
10
-22.779313549366446
20
-96.62551801415421
30
0
10
-22.889070808155857
20
-96.297335472640398
30
0
10
-23.000284473969877
20
-95.956655184475167
30
0
10
-23.134062482281724
20
-95.548046174193985
30
0
10
-23.307634000662041
20
-95.009730831721967
30
0
10
-23.533784140115436
20
-94.282239886328341
30
0
10
-23.820727390774998
20
-93.316565953436623
30
0
10
-24.1716634286295
20
-92.084080929662264
30
0
10
-24.58495617486118
20
-90.57991117655213
30
0
10
-25.054959960871376
20
-88.818249634580326
30
0
10
-25.572685428556689
20
-86.82973285570236
30
0
10
-26.126530182918643
20
-84.657979059476119
30
0
10
-26.702981781866498
20
-82.356485155383083
30
0
10
-27.287332467029405
20
-79.985369969816404
30
0
10
-27.864389160735634
20
-77.608182409507066
30
0
10
-28.419184720541537
20
-75.288684830365611
30
0
10
-28.937690451404574
20
-73.087639830285724
30
0
10
-29.407523904510661
20
-71.059612416386585
30
0
10
-29.81866842174783
20
-69.24972633469487
30
0
10
-30.164165104140803
20
-67.690531041911385
30
0
10
-30.440869040924504
20
-66.398609559208822
30
0
10
-30.65005583435196
20
-65.371790525433667
30
0
10
-30.798386712940747
20
-64.584912750590021
30
0
10
-30.89778468537002
20
-63.98998547802745
30
0
10
-30.962532149441987
20
-63.52756199605259
30
0
10
-31.006746907184237
20
-63.136588856992276
30
0
10
-31.041999921724923
20
-62.763676203585916
30
0
10
-31.074154747461233
20
-62.375525200973755
30
0
10
-31.103742378028322
20
-61.957052174244403
30
0
10
-31.128653282244695
20
-61.500256853421206
30
0
10
-31.146360644449615
20
-60.994759730446034
30
0
10
-31.155675859213257
20
-60.420902418214801
30
0
10
-31.156155488636269
20
-59.754310360892198
30
0
10
-31.147963985203443
20
-58.968233599924822
30
0
10
-31.131546025662367
20
-58.036865701975898
30
0
10
-31.107399555424998
20
-56.938031745544258
30
0
10
-31.075757519671999
20
-55.656675711985571
30
0
10
-31.036504840367677
20
-54.185848107680471
30
0
10
-30.989288932216926
20
-52.525526259051325
30
0
10
-30.933577294481644
20
-50.682033287717118
30
0
10
-30.868736731356755
20
-48.667212095304187
30
0
10
-30.794103310022386
20
-46.497704332125224
30
0
10
-30.709056300442981
20
-44.194184240943954
30
0
10
-30.613090409789251
20
-41.78061194077042
30
0
10
-30.505888731561591
20
-39.283478430988204
30
0
10
-30.38739543583301
20
-36.731054045160278
30
0
10
-30.257888462968975
20
-34.152635760816928
30
0
10
-30.118052474229206
20
-31.577794260726094
30
0
10
-29.969051101368134
20
-29.035622852155743
30
0
10
-29.812600881039359
20
-26.553981527461488
30
0
10
-29.651041265612825
20
-24.158752529393013
30
0
10
-29.487413770207361
20
-21.873069056942729
30
0
10
-29.325519835024863
20
-19.716606572283382
30
0
10
-29.170029885430449
20
-17.704723487221063
30
0
10
-29.026431478329297
20
-15.848075435310925
30
0
10
-28.900626266920728
20
-14.153265842503945
30
0
10
-28.798597624086028
20
-12.623284995098018
30
0
10
-28.726052641674155
20
-11.258032168357918
30
0
10
-28.688069241445628
20
-10.05480508956062
30
0
10
-28.688754604370253
20
-9.0087968438027435
30
0
10
-28.730867319500053
20
-8.1136048511713916
30
0
10
-28.815528074392663
20
-7.36169910472411
30
0
10
-28.941722667727966
20
-6.7449905298699662
30
0
10
-29.106291902070843
20
-6.2551624982781533
30
0
10
-29.30270229590246
20
-5.8845986469712832
30
0
10
-29.528121784093472
20
-5.6231125893436253
30
0
10
-29.789699430260647
20
-5.4549235153426707
30
0
10
-30.115407837969887
20
-5.3536887343108699
30
0
10
-30.544386961318033
20
-5.2864416666504628
30
0
10
-31.106039510698558
20
-5.2225603526337796
30
0
10
-31.799136493165729
20
-5.142475748446774
30
0
10
-32.581281826709521
20
-5.0426393151547169
30
0
10
-33.389673993857521
20
-4.9288885935663904
30
0
10
-34.155146775324432
20
-4.8122467170678549
30
0
10
-34.820049655008653
20
-4.7034647823457947
30
0
10
-35.351812311071853
20
-4.6087616408634746
30
0
10
-35.765002421510388
20
-4.5234094592121492
30
0
10
-36.112042407789211
20
-4.4331158647987223
30
0
10
-36.451179055451071
20
-4.3211859872595699
30
0
10
-36.817422835807307
20
-4.1746761176802725
30
0
10
-37.202563241740279
20
-3.989100050745626
30
0
10
-37.58011907062027
20
-3.7651290673251547
30
0
10
-37.921958832342341
20
-3.5066239100460761
30
0
10
-38.220194655114327
20
-3.2181855867247391
30
0
10
-38.478364992170285
20
-2.9035121751367043
30
0
10
-38.702016615115951
20
-2.5643753615533367
30
0
10
-38.886429424340456
20
-2.1980337496185913
30
0
10
-39.018587951192096
20
-1.8008933240193592
30
0
10
-39.087712243863443
20
-1.3750092268607408
30
0
10
-39.095316693232419
20
-0.93593203796879354
30
0
10
-39.059083769687348
20
-0.51331249526505462
30
0
10
-38.996457604867118
20
-0.13042824136379264
30
0
10
-38.912613061260764
20
0.21165731269592875
30
0
10
-38.785643913448254
20
0.55323561994576353
30
0
10
-38.584664001425793
20
0.94939288696299085
30
0
10
-38.286484356409986
20
1.4453959094943851
30
0
10
-37.897216839566454
20
2.0450809449399237
30
0
10
-37.450188697670647
20
2.7130559545372379
30
0
10
-36.991367952715038
20
3.394728784617207
30
0
10
-36.568828421035022
20
4.0305971589671232
30
0
10
-36.220225110040374
20
4.5733041490764768
30
0
10
-35.96185571605708
20
5.0026083159115746
30
0
10
-35.775104650174093
20
5.3436344810603797
30
0
10
-35.621513668631351
20
5.649079174586352
30
0
10
-35.458856963194911
20
5.9797275331322455
30
0
10
-35.260017477824348
20
6.382478780323475
30
0
10
-35.016998695082101
20
6.8828458047207794
30
0
10
-34.734173070771639
20
7.4881582312800665
30
0
10
-34.424690341761305
20
8.1874584671181694
30
0
10
-34.105672329493103
20
8.9530256098982512
30
0
10
-33.793686818964247
20
9.7405074418091235
30
0
10
-33.503407333342224
20
10.498806322334209
30
0
10
-33.246771856159697
20
11.180736913438409
30
0
10
-33.031924817565681
20
11.753736338860188
30
0
10
-32.862320558177437
20
12.209830824197558
30
0
10
-32.735591310492438
20
12.57764110278992
30
0
10
-32.643013997456549
20
12.928324462228257
30
0
10
-32.572667117121689
20
13.341724349289322
30
0
10
-32.512040566642753
20
13.879204614573762
30
0
10
-32.451143158119891
20
14.549058503567982
30
0
10
-32.382876662966595
20
15.317525038728043
30
0
10
-32.302920374123097
20
16.128041504786321
30
0
10
-32.209792282733531
20
16.917845049105502
30
0
10
-32.104815350331378
20
17.635285227607941
30
0
10
-31.992173774101005
20
18.257780451707092
30
0
10
-31.87879227691576
20
18.806799802347133
30
0
10
-31.77258009388391
20
19.328563816050732
30
0
10
-31.680705921339019
20
19.876449452376036
30
0
10
-31.608029566793284
20
20.494302530161001
30
0
10
-31.555065455457289
20
21.195650567119976
30
0
10
-31.517563969576994
20
21.95778293064873
30
0
10
-31.488648940603227
20
22.739540051722244
30
0
10
-31.460318216528094
20
23.493162810615186
30
0
10
-31.42527459548932
20
24.179270778954326
30
0
10
-31.378445450100006
20
24.778807099844396
30
0
10
-31.319066602264193
20
25.310578646158795
30
0
10
-31.25032650689684
20
25.824495362052794
30
0
10
-31.17778869855934
20
26.382656849074102
30
0
10
-31.10818981818726
20
27.044128073884082
30
0
10
-31.048094236351243
20
27.848414246461353
30
0
10
-31.002576473495598
20
28.7988684567623
30
0
10
-30.975195867277478
20
29.87045277272501
30
0
10
-30.968026668453845
20
31.018450489378363
30
0
10
-30.981668521532058
20
32.186798190244865
30
0
10
-31.015261855083537
20
33.316631793159353
30
0
10
-31.066509054297487
20
34.354618199101807
30
0
10
-31.131674746882389
20
35.261663754428753
30
0
10
-31.205638411143276
20
36.020790275224371
30
0
10
-31.281808822899308
20
36.647149216503912
30
0
10
-31.353326242348519
20
37.178689497917155
30
0
10
-31.414513205630993
20
37.663506757263164
30
0
10
-31.462159937673349
20
38.148765969033768
30
0
10
-31.497059443994235
20
38.668018437190888
30
0
10
-31.524905217431748
20
39.231996480128366
30
0
10
-31.553892069291006
20
39.837020135642362
30
0
10
-31.592622836198906
20
40.471557861008769
30
0
10
-31.648088300146267
20
41.122947286834943
30
0
10
-31.723153726020456
20
41.785381778860184
30
0
10
-31.816022660098987
20
42.462259256515374
30
0
10
-31.921982946380414
20
43.161920118517457
30
0
10
-32.034533768985618
20
43.895177140645458
30
0
10
-32.146805617799174
20
44.672009683003822
30
0
10
-32.252760283686449
20
45.498860038584851
30
0
10
-32.348728419893966
20
46.375042947868607
30
0
10
-32.43330667965737
20
47.293400245032942
30
0
10
-32.506694787409089
20
48.242399686926127
30
0
10
-32.570212522296572
20
49.207770753845594
30
0
10
-32.625749316123375
20
50.174312453777318
30
0
10
-32.675225063351434
20
51.127676134517657
30
0
10
-32.720087401494126
20
52.056045204481819
30
0
10
-32.760693296690498
20
52.952134960542367
30
0
10
-32.796071062277392
20
53.814142348598473
30
0
10
-32.824512762732859
20
54.644396729585701
30
0
10
-32.84400056322955
20
55.448479368407526
30
0
10
-32.852689603045235
20
56.234163834081627
30
0
10
-32.849388975157147
20
57.01041492169032
30
0
10
-32.833991413540609
20
57.786404561923803
30
0
10
-32.808058132478315
20
58.570412813151698
30
0
10
-32.774591897850748
20
59.36938004922888
30
0
10
-32.737464861134086
20
60.188738181021208
30
0
10
-32.700958855398383
20
61.032153816711684
30
0
10
-32.669255888473216
20
61.901303738397111
30
0
10
-32.645956884415732
20
62.795646560983826
30
0
10
-32.63357192939565
20
63.712172100427445
30
0
10
-32.633069359121315
20
64.645228650023014
30
0
10
-32.644255751048036
20
65.5875842563605
30
0
10
-32.666108092050258
20
66.531412034607342
30
0
10
-32.697126950862923
20
67.469315755819565
30
0
10
-32.735674001524643
20
68.395312190718528
30
0
10
-32.780331867401024
20
69.305892659922307
30
0
10
-32.830217813236985
20
70.200908485563801
30
0
10
-32.885410001134701
20
71.084892486983378
30
0
10
-32.946847049935151
20
71.966334814507761
30
0
10
-33.015966499339093
20
72.855945603040993
30
0
10
-33.094423640622132
20
73.765227104159123
30
0
10
-33.183780444328171
20
74.704936098899879
30
0
10
-33.28519932899566
20
75.6835500872034
30
0
10
-33.399153445747068
20
76.705832660003836
30
0
10
-33.525085086517819
20
77.771113541634548
30
0
10
-33.661227161661941
20
78.87245419128611
30
0
10
-33.80493707632143
20
79.998588457713396
30
0
10
-33.952942885995974
20
81.135389422979273
30
0
10
-34.101623088147157
20
82.267515685000262
30
0
10
-34.24727417767177
20
83.379997610252573
30
0
10
-34.386378558698773
20
84.459811088074758
30
0
10
-34.515883702776875
20
85.497545716888283
30
0
10
-34.63344982703611
20
86.488824262343812
30
0
10
-34.73777690080702
20
87.436342965910526
30
0
10
-34.828640950143026
20
88.349640901219587
30
0
10
-34.906625547651188
20
89.242490383789246
30
0
10
-34.972934647363864
20
90.130920096655643
30
0
10
-35.029172670271556
20
91.030988011556119
30
0
10
-35.077137597799002
20
91.95664307904751
30
0
10
-35.118610840565182
20
92.91759143654302
30
0
10
-35.155142858614575
20
93.917059036370858
30
0
10
-35.187856759509692
20
94.949889855107102
30
0
10
-35.217490074750579
20
96.004928002158195
30
0
10
-35.244420603377641
20
97.067116258776593
30
0
10
-35.268698348027073
20
98.119700611762966
30
0
10
-35.290074767561691
20
99.146393424168465
30
0
10
-35.308033394382775
20
100.1335458572662
30
0
10
-35.321819364971994
20
101.07233617723924
30
0
10
-35.330470595966368
20
101.96090426170763
30
0
10
-35.332844908838695
20
102.80663928245437
30
0
10
-35.327809228681453
20
103.62281782777248
30
0
10
-35.314437796795005
20
104.4250238137399
30
0
10
-35.292199370472829
20
105.2277302285718
30
0
10
-35.261166483048015
20
106.04062787203651
30
0
10
-35.222174778719065
20
106.86549181767433
30
0
10
-35.177102037273485
20
107.69177510594471
30
0
10
-35.128763855787597
20
108.49626351247919
30
0
10
-35.080008946919314
20
109.25114094167657
30
0
10
-35.033017579881282
20
109.92999069786093
30
0
10
-34.988448564248095
20
110.5152108690387
30
0
10
-34.944812942946662
20
111.00346739242843
30
0
10
-34.897345673649852
20
111.41538008265647
30
0
10
-34.838903310712908
20
111.78828244241716
30
0
10
-34.762043956551281
20
112.15934623018123
30
0
10
-34.660998481021437
20
112.54916602981631
30
0
10
-34.532951293488956
20
112.9524397191696
30
0
10
-34.376881809575998
20
113.35288648893611
30
0
10
-34.192877198212656
20
113.73332930666146
30
0
10
-33.981234786673269
20
114.08834619349642
30
0
10
-33.742449453911753
20
114.41961868479518
30
0
10
-33.477245174480657
20
114.73133398917821
30
0
10
-33.186510132486958
20
115.0245242906168
30
0
10
-32.87161822120985
20
115.29663778417105
30
0
10
-32.534825402858395
20
115.54396611657417
30
0
10
-32.179886910932638
20
115.76346655910767
30
0
10
-31.811816168677467
20
115.95397602428926
30
0
10
-31.43452287940972
20
116.11498194510909
30
0
10
-31.048994235734284
20
116.24595656518369
30
0
10
-30.651015094301219
20
116.34539094333734
30
0
10
-30.236975638173803
20
116.41260388506302
30
0
10
-29.808264192315495
20
116.44910327785689
30
0
10
-29.379186124984695
20
116.46100523426028
30
0
10
-28.968720257740053
20
116.45662736375415
30
0
10
-28.587058921623481
20
116.44245087841556
30
0
10
-28.219743902927451
20
116.41852470206688
30
0
10
-27.825845634599293
20
116.37755705300604
30
0
10
-27.364675628934005
20
116.31158443510208
30
0
10
-26.816614314985468
20
116.21706918691613
30
0
10
-26.205284146373057
20
116.10037293957734
30
0
10
-25.578437112566643
20
115.97302000539683
30
0
10
-24.989352763534413
20
115.8470707878248
30
0
10
-24.47981844695888
20
115.73094048326475
30
0
10
-24.058188193599655
20
115.62386326440145
30
0
10
-23.693752936945167
20
115.51483448335971
30
0
10
-23.344423943841388
20
115.39072414196092
30
0
10
-22.977388964355278
20
115.24242135976009
30
0
10
-22.5924439031083
20
115.07179758864153
30
0
10
-22.205949478933938
20
114.88484803189286
30
0
10
-21.837450855645603
20
114.68623416658022
30
0
10
-21.491657702851175
20
114.47095593783088
30
0
10
-21.161394377597077
20
114.2291831347255
30
0
10
-20.838092558240259
20
113.95498919874932
30
0
10
-20.522210920402237
20
113.65685240352369
30
0
10
-20.226044158533988
20
113.35757124067909
30
0
10
-19.960800945753583
20
113.07430277041858
30
0
10
-19.727084836659813
20
112.8027380343479
30
0
10
-19.504651109743399
20
112.50073011287415
30
0
10
-19.268136517341755
20
112.11948088315104
30
0
10
-18.999855460564589
20
111.62900972639648
30
0
10
-18.707390227925647
20
111.05359644094177
30
0
10
-18.417527495210916
20
110.45708210245604
30
0
10
-18.161633354142623
20
109.90993889944973
30
0
10
-17.963894953537999
20
109.46246959996697
30
0
10
-17.828197155009228
20
109.11504035898207
30
0
10
-17.726117477655833
20
108.79087027927083
30
0
10
-17.616974450789897
20
108.38528116027231
30
0
10
-17.465150585152184
20
107.80851513395783
30
0
10
-17.262550998671077
20
107.04058018631852
30
0
10
-17.02557348831823
20
106.12652546954411
30
0
10
-16.78210026853953
20
105.14843645232696
30
0
10
-16.561789934749456
20
104.20507494518426
30
0
10
-16.38484207178044
20
103.38809913142987
30
0
10
-16.251769258562408
20
102.7602935640044
30
0
10
-16.131893729741964
20
102.33163986708149
30
0
10
-15.95491922347372
20
102.04014171355105
30
0
10
-15.646784728623533
20
101.79552150620951
30
0
10
-15.159399338389665
20
101.51551850427852
30
0
10
-14.509721624968581
20
101.17211269408493
30
0
10
-13.765210532535637
20
100.78317453186688
30
0
10
-13.015353046717449
20
100.39005931414805
30
0
10
-12.347769694308282
20
100.03984842303058
30
0
10
-11.822657129325378
20
99.765827198649347
30
0
10
-11.447339392908489
20
99.568286254344969
30
0
10
-11.152613911816058
20
99.396505940493228
30
0
10
-10.840186316092346
20
99.182214105523315
30
0
10
-10.423181870090767
20
98.867956909865299
30
0
10
-9.878342186252528
20
98.444083435267373
30
0
10
-9.2402453058016345
20
97.9429495527461
30
0
10
-8.5742809710834038
20
97.417416279329871
30
0
10
-7.9566467497815481
20
96.924584435460133
30
0
10
-7.4512009374573349
20
96.507084555285843
30
0
10
-7.0881666573230175
20
96.176023472952949
30
0
10
-6.8407539627259961
20
95.891691223928291
30
0
10
-6.6552602098789491
20
95.5971525413091
30
0
10
-6.4785303098692015
20
95.24746497982882
30
0
10
-6.2938216060934771
20
94.851602661532738
30
0
10
-6.1166239300465266
20
94.455272550022883
30
0
10
-5.971989042628052
20
94.098699556107192
30
0
10
-5.8745976404860105
20
93.773942171705386
30
0
10
-5.8174320121782097
20
93.408856070223734
30
0
10
-5.7841703398256552
20
92.913971202682021
30
0
10
-5.7563585820636209
20
92.215920319395366
30
0
10
-5.7225610173045194
20
91.295657798251696
30
0
10
-5.6767213675114094
20
90.175956960412336
30
0
10
-5.6170517235793511
20
88.910584542631
30
0
10
-5.5447071102887318
20
87.57282715977837
30
0
10
-5.4625410129202843
20
86.244215993798164
30
0
10
-5.3738516624309982
20
85.003350439183677
30
0
10
-5.2810728638618123
20
83.914251345853742
30
0
10
-5.1846272341205886
20
83.015913770203497
30
0
10
-5.0813765751166589
20
82.308945769164637
30
0
10
-4.9642824952258726
20
81.750954800891762
30
0
10
-4.8256052803685892
20
81.278006112435591
30
0
10
-4.659686399824448
20
80.822508624256756
30
0
10
-4.4654871370351179
20
80.330562147129129
30
0
10
-4.2502317335019066
20
79.784309495880677
30
0
10
-4.0282682043079632
20
79.201529643711254
30
0
10
-3.8163147877540387
20
78.617683600245201
30
0
10
-3.629633393271515
20
78.072800111614455
30
0
10
-3.4780942261195364
20
77.596958111682227
30
0
10
-3.3615755822396167
20
77.194810029986499
30
0
10
-3.2733722816686788
20
76.848946865564912
30
0
10
-3.2043157172227295
20
76.526243873141183
30
0
10
-3.1474598082095273
20
76.18269580576721
30
0
10
-3.0991906885403213
20
75.77058679085458
30
0
10
-3.0573035747681843
20
75.246506878715337
30
0
10
-3.0198345572335987
20
74.579978949212759
30
0
10
-2.9839338800222075
20
73.759437671777988
30
0
10
-2.9463825644504889
20
72.788044261500872
30
0
10
-2.9038075660584233
20
71.681117165293927
30
0
10
-2.8530161654846173
20
70.462935502401294
30
0
10
-2.7912829390376812
20
69.163794037872449
30
0
10
-2.7166489391713156
20
67.81698713722102
30
0
10
-2.628234667475835
20
66.455737089387384
30
0
10
-2.5265026265830204
20
65.110347875714481
30
0
10
-2.4136510401713434
20
63.80476617794227
30
0
10
-2.2935375547580845
20
62.555271050756573
30
0
10
-2.1710513092877961
20
61.371666477190757
30
0
10
-2.0516267506346377
20
60.257825601955744
30
0
10
-1.9407020939422517
20
59.212499286763752
30
0
10
-1.8431961889557067
20
58.230010041369354
30
0
10
-1.7629897367745806
20
57.300998562060002
30
0
10
-1.7023760940963719
20
56.413139862594022
30
0
10
-1.6615920948939857
20
55.551890586752947
30
0
10
-1.638143362930683
20
54.701176628560788
30
0
10
-1.6271844231216415
20
53.844366101163118
30
0
10
-1.6223330642148164
20
52.965354517138508
30
0
10
-1.6163481360191567
20
52.049621218070115
30
0
10
-1.6018565420483066
20
51.08528152588331
30
0
10
-1.5720768409156194
20
50.064178279558639
30
0
10
-1.5215030145140691
20
48.982869000937121
30
0
10
-1.4467051098448149
20
47.843869189472628
30
0
10
-1.3467572264564147
20
46.656102767918526
30
0
10
-1.2227154541945193
20
45.43334203329897
30
0
10
-1.0772775778169899
20
44.193032137478113
30
0
10
-0.91437070949074661
20
42.954962595621772
30
0
10
-0.73876959827013011
20
41.740005113743095
30
0
10
-0.55570198986285435
20
40.568820601181656
30
0
10
-0.37045901100924372
20
39.460584786477725
30
0
10
-0.18800468389665553
20
38.431693402114504
30
0
10
-0.012582783158483268
20
37.494505475405781
30
0
10
0.1526674405017783
20
36.655990350468613
30
0
10
0.30619704924691671
20
35.917954642702611
30
0
10
0.44852164000398931
20
35.277410821806484
30
0
10
0.58273646952015057
20
34.726851139305424
30
0
10
0.71493144556425514
20
34.254659662542878
30
0
10
0.85484717922542253
20
33.845230345234519
30
0
10
1.0158214478475101
20
33.479930194726542
30
0
10
1.2111247173371773
20
33.142367046785893
30
0
10
1.4509669641667935
20
32.822840371169363
30
0
10
1.7388131429467184
20
32.523680077197461
30
0
10
2.0723274486004559
20
32.25741697051761
30
0
10
2.4447179982706011
20
32.043408187717588
30
0
10
2.8463974257275817
20
31.90608620284177
30
0
10
3.264750961263458
20
31.868387703308283
30
0
10
3.6828456268447378
20
31.94310092473853
30
0
10
4.0776012123691396
20
32.122402038646911
30
0
10
4.4207091063619277
20
32.375285399287861
30
0
10
4.6881796312909154
20
32.669334932454184
30
0
10
4.8683257233127817
20
32.988114220923151
30
0
10
4.9703740352048644
20
33.350288347554894
30
0
10
5.0163529048616615
20
33.795271411081686
30
0
10
5.0337232855019511
20
34.370326693175251
30
0
10
5.0465607651416686
20
35.115041910877444
30
0
10
5.0736794162947874
20
36.058129721157812
30
0
10
5.1296814480543578
20
37.219401939722474
30
0
10
5.2250688947937043
20
38.610086311807379
30
0
10
5.3667456743397848
20
40.233833015912175
30
0
10
5.5583521127079774
20
42.087425149442268
30
0
10
5.8006715437538965
20
44.161616554550136
30
0
10
6.0920058653603153
20
46.441914788924031
30
0
10
6.4285644043290482
20
48.909387604139731
30
0
10
6.8048471132554997
20
51.541459409347183
30
0
10
7.2140300023239048
20
54.312711669379745
30
0
10
7.6483500367195205
20
57.195682380161976
30
0
10
8.0994892319024068
20
60.161664067407877
30
0
10
8.5589614643632377
20
63.181506714157692
30
0
10
9.0184925922246144
20
66.226408558896793
30
0
10
9.4704162819265978
20
69.268735359553546
30
0
10
9.9080331020822445
20
72.282773085556684
30
0
10
10.326059455273189
20
75.245643426268245
30
0
10
10.720748545149981
20
78.137624924061384
30
0
10
11.089669867571807
20
80.941855245655248
30
0
10
11.431580211221885
20
83.644199301532836
30
0
10
11.74625731818265
20
86.233049695029052
30
0
10
12.034349538262948
20
88.699156165421229
30
0
10
12.297218620223063
20
91.035442588195366
30
0
10
12.53678543758565
20
93.236829321051985
30
0
10
12.75537451882766
20
95.300053338115191
30
0
10
12.955558950815679
20
97.223489165566775
30
0
10
13.140005462021476
20
99.006969875483648
30
0
10
13.31131864477203
20
100.65160716558786
30
0
10
13.471887370726067
20
102.15961393970595
30
0
10
13.623726027447724
20
103.53412095488932
30
0
10
13.768327814088837
20
104.77900733556488
30
0
10
13.906489986596945
20
105.89869884873752
30
0
10
14.038204700579708
20
106.89804161073536
30
0
10
14.16238690293916
20
107.78198828034249
30
0
10
14.277304873448788
20
108.55609746177444
30
0
10
14.381466806436716
20
109.22757686556437
30
0
10
14.474346537246245
20
109.80611011500565
30
0
10
14.557227062805818
20
110.30488812998223
30
0
10
14.633873930697396
20
110.74128453637206
30
0
10
14.711593133794697
20
111.13837759846064
30
0
10
14.799045797611065
20
111.51954738486222
30
0
10
14.903924309123578
20
111.90303936687673
30
0
10
15.030044122801836
20
112.29466403227802
30
0
10
15.177222868450146
20
112.68877968334463
30
0
10
15.343465230339469
20
113.07590906090849
30
0
10
15.526652107635231
20
113.4491760115618
30
0
10
15.72596103132231
20
113.80916422163881
30
0
10
15.941033818876368
20
114.15918063878438
30
0
10
16.171583342971939
20
114.5022944922043
30
0
10
16.416694722075892
20
114.83721699779358
30
0
10
16.675607357327518
20
115.16036890518072
30
0
10
16.948346103771087
20
115.46810038913807
30
0
10
17.236957727212701
20
115.7595954296124
30
0
10
17.544259263455292
20
116.03645272968025
30
0
10
17.871182569713909
20
116.30005763744273
30
0
10
18.213834256546907
20
116.54911538032131
30
0
10
18.562751000632481
20
116.7785760994995
30
0
10
18.910163602968634
20
116.98422838899739
30
0
10
19.255514986941733
20
117.16605798446517
30
0
10
19.612499134857352
20
117.33264012362318
30
0
10
20.001500191125171
20
117.49616992721596
30
0
10
20.441862771757716
20
117.66749531275239
30
0
10
20.942647681653916
20
117.84993010014563
30
0
10
21.501051387287063
20
118.03901040425215
30
0
10
22.105911310730963
20
118.22614675341926
30
0
10
22.739672538732943
20
118.40114069974103
30
0
10
23.381001637773458
20
118.55508563247759
30
0
10
24.007088669479405
20
118.68333068738093
30
0
10
24.597039799379719
20
118.78465119596129
30
0
10
25.13549768855729
20
118.86002321907192
30
0
10
25.615817390668823
20
118.91157621937757
30
0
10
26.044282016234519
20
118.9413937211598
30
0
10
26.441225854772632
20
118.95061409069842
30
0
10
26.830154613576106
20
118.93951403920617
30
0
10
27.22923860769459
20
118.90745981227441
30
0
10
27.640704115572561
20
118.85286752800597
30
0
10
28.056590025431202
20
118.77366194305634
30
0
10
28.465335664342444
20
118.66774157885706
30
0
10
28.85944669628411
20
118.53355756765328
30
0
10
29.236877744815352
20
118.37015914546491
30
0
10
29.597808969660335
20
118.17691118180932
30
0
10
29.942570689840437
20
117.9532046794359
30
0
10
30.269738942562697
20
117.69848871506719
30
0
10
30.576654508485245
20
117.41359316430157
30
0
10
30.859518078318914
20
117.10166174770345
30
0
10
31.113511599596055
20
116.76959895169325
30
0
10
31.334852439732526
20
116.42425637003984
30
0
10
31.522553690172145
20
116.06937400774939
30
0
10
31.681211229446127
20
115.70010588381848
30
0
10
31.819204860743362
20
115.30796352543312
30
0
10
31.944603553248143
20
114.89014153428784
30
0
10
32.061038975027479
20
114.46054359480122
30
0
10
32.165855106008394
20
114.05069803708365
30
0
10
32.254731738956238
20
113.68368726364776
30
0
10
32.324946857187349
20
113.35406959381768
30
0
10
32.379321467659665
20
113.00394671082942
30
0
10
32.4236860547121
20
112.55689107902435
30
0
10
32.464549230079811
20
111.94912763112669
30
0
10
32.506184431166488
20
111.16923553633748
30
0
10
32.550447948207982
20
110.25717766794052
30
0
10
32.5980038858333
20
109.28235067282542
30
0
10
32.649104170463026
20
108.32820746926853
30
0
10
32.704564989352725
20
107.47412256072485
30
0
10
32.766631808221469
20
106.77850862469046
30
0
10
32.839955362617708
20
106.26122814934222
30
0
10
32.932374271724179
20
105.88686124598098
30
0
10
33.056325514652016
20
105.59425771845711
30
0
10
33.229247531091687
20
105.32222632561179
30
0
10
33.476480827832049
20
105.04270768200819
30
0
10
33.821927953333734
20
104.75679796426819
30
0
10
34.276049021816057
20
104.47781555570319
30
0
10
34.821026522127681
20
104.21635959453371
30
0
10
35.409747132886515
20
103.97216346087458
30
0
10
35.984696997867438
20
103.73903910672516
30
0
10
36.492879848060149
20
103.50648439762153
30
0
10
36.900353488507967
20
103.26264147982074
30
0
10
37.211959897727496
20
102.99670421656785
30
0
10
37.459188326475136
20
102.70112986846118
30
0
10
37.678774899865282
20
102.37305151582062
30
0
10
37.890102098241513
20
102.01693257451737
30
0
10
38.087656771816192
20
101.64340519319404
30
0
10
38.25772609401195
20
101.26289638528114
30
0
10
38.389648612242631
20
100.88024830635293
30
0
10
38.487820931891839
20
100.48963672457189
30
0
10
38.563734633824424
20
100.07860652116406
30
0
10
38.630360024456792
20
99.631207809806824
30
0
10
38.694577813758698
20
99.131770295333524
30
0
10
38.757603147701758
20
98.566405089407866
30
0
10
38.817426587047485
20
97.92397668831201
30
0
10
38.870561221039495
20
97.197225031282983
30
0
10
38.914140659052599
20
96.383878408590732
30
0
10
38.947692417213936
20
95.487618143227536
30
0
10
38.972455630612338
20
94.516836965754564
30
0
10
38.990844910222343
20
93.483550364541216
30
0
10
39.005860245551531
20
92.402249977974094
30
0
10
39.020518934425802
20
91.288780820554521
30
0
10
39.037279998065415
20
90.159210184649581
30
0
10
39.057467285820167
20
89.028695688572199
30
0
10
39.080703879796268
20
87.910364193692885
30
0
10
39.104312131523599
20
86.814157231372064
30
0
10
39.123991671646209
20
85.746915081364051
30
0
10
39.134536756123055
20
84.712497456926513
30
0
10
39.130537201285243
20
83.711891772734717
30
0
10
39.107090688795395
20
82.74332428328313
30
0
10
39.060499933268297
20
81.802375421649515
30
0
10
38.989000212899995
20
80.882080615754774
30
0
10
38.893417689358735
20
79.973067230547784
30
0
10
38.778006335993048
20
79.063596703094689
30
0
10
38.649676751721614
20
78.140463825603632
30
0
10
38.516967711000632
20
77.190034071683911
30
0
10
38.389111463473817
20
76.19922907892294
30
0
10
38.275051793611624
20
75.156541578169666
30
0
10
38.182500403786889
20
74.053020047485077
30
0
10
38.116934890219071
20
72.883307405745811
30
0
10
38.080720243168457
20
71.646560221889473
30
0
10
38.071923507067723
20
70.347667491617329
30
0
10
38.084869900799191
20
68.99676662441486
30
0
10
38.111280110656992
20
67.608191620418836
30
0
10
38.141214501008143
20
66.199608800894765
30
0
10
38.164099758455961
20
64.791074942128944
30
0
10
38.169716033067928
20
63.404127049000678
30
0
10
38.149210622136941
20
62.060862453306022
30
0
10
38.096078083149131
20
60.783013961435103
30
0
10
38.007206285945465
20
59.591048331261653
30
0
10
37.883774110357095
20
58.503205257484169
30
0
10
37.732502400959625
20
57.534681537434523
30
0
10
37.565828260984787
20
56.696362215542713
30
0
10
37.398944085939057
20
55.992088604044909
30
0
10
37.247469898841118
20
55.416356294666528
30
0
10
37.124733028597689
20
54.95149554995173
30
0
10
37.039542821319969
20
54.56587192403677
30
0
10
36.992941835889901
20
54.209671008235567
30
0
10
36.97870328919845
20
53.81974072879509
30
0
10
36.986975759140833
20
53.331855540336733
30
0
10
37.00726420504553
20
52.691781357373522
30
0
10
37.031065931501665
20
51.864325131151681
30
0
10
37.051400032861849
20
50.830026257127017
30
0
10
37.062838123443065
20
49.583771484637218
30
0
10
37.061336600777388
20
48.132652378967542
30
0
10
37.044153638763547
20
46.494145792396736
30
0
10
37.009729716988609
20
44.694155948798489
30
0
10
36.957583917879035
20
42.765115102824524
30
0
10
36.888203309273088
20
40.744061558671767
30
0
10
36.802935626702379
20
38.670721634068286
30
0
10
36.703879813971398
20
36.585603538656031
30
0
10
36.593779187418001
20
34.528054542776118
30
0
10
36.475909488561136
20
32.534408280521632
30
0
10
36.353979610545025
20
30.63589824306495
30
0
10
36.231938432509452
20
28.858312457949992
30
0
10
36.113761432414144
20
27.222015816862456
30
0
10
36.003245013948344
20
25.741846243492468
30
0
10
35.903795926701733
20
24.427062460961334
30
0
10
35.818226642340264
20
23.281272613419528
30
0
10
35.748539221858131
20
22.30236396869968
30
0
10
35.695734895405984
20
21.482448621745171
30
0
10
35.659564317932151
20
20.807763883264954
30
0
10
35.638415910659958
20
20.258681653664897
30
0
10
35.628871607175945
20
19.809453618113039
30
0
10
35.626324689579747
20
19.428799819563054
30
0
10
35.627679411386204
20
19.082138355968969
30
0
10
35.633616056453619
20
18.733485699603872
30
0
10
35.650989134181103
20
18.347448870976073
30
0
10
35.688744763077736
20
17.894314790823209
30
0
10
35.75434213189488
20
17.354557654591154
30
0
10
35.849206103804022
20
16.724756709318754
30
0
10
35.968838622204238
20
16.016401135636166
30
0
10
36.104877768984764
20
15.251694974692956
30
0
10
36.246529551314374
20
14.460328036664123
30
0
10
36.382265511474586
20
13.675841312444774
30
0
10
36.501395453250296
20
12.932173677589827
30
0
10
36.59571698399597
20
12.260125398986759
30
0
10
36.661456403382267
20
11.681697709008796
30
0
10
36.701479399640633
20
11.203762872744321
30
0
10
36.726925769659815
20
10.813063123089275
30
0
10
36.760203619395206
20
10.468112369112443
30
0
10
36.833854975787716
20
10.100477715459323
30
0
10
36.976864108173999
20
9.6445106826186908
30
0
10
37.203580191046903
20
9.0612177852251268
30
0
10
37.500659542407774
20
8.3664421231655819
30
0
10
37.83594014566782
20
7.6128345732356362
30
0
10
38.168294260128633
20
6.8698074667243469
30
0
10
38.457387367722575
20
6.2036408742109277
30
0
10
38.672909242548641
20
5.6587817483638609
30
0
10
38.805386592641774
20
5.2356282630022921
30
0
10
38.872165183869171
20
4.8790340822095999
30
0
10
38.901919501376327
20
4.5147231154155678
30
0
10
38.92282311944254
20
4.0773260347476379
30
0
10
38.947931768705658
20
3.5452197208048002
30
0
10
38.977934062950219
20
2.9302116821944542
30
0
10
39.005912103075026
20
2.2617618785337044
30
0
10
39.021289325858518
20
1.5736535766091571
30
0
10
39.014389873384353
20
0.88836346025429569
30
0
10
38.979923328715238
20
0.20625735298950926
30
0
10
38.916183933490991
20
-0.4844356986227828
30
0
10
38.824800274684996
20
-1.2006700183258903
30
0
10
38.71031728781459
20
-1.9560235967078086
30
0
10
38.579745308799581
20
-2.7538159512154619
30
0
10
38.442379730129893
20
-3.5770684626726581
30
0
10
38.308534099423156
20
-4.3889224994796052
30
0
10
38.186761222879809
20
-5.1463101595347513
30
0
10
38.081627875195736
20
-5.8098196623504395
30
0
10
37.990901444327733
20
-6.3560729188835552
30
0
10
37.903829723933754
20
-6.7867858302578306
30
0
10
37.796819496811587
20
-7.1449454202667848
30
0
10
37.641826646126461
20
-7.4965728364274753
30
0
10
37.418231943467084
20
-7.9021480313459991
30
0
10
37.126385542616376
20
-8.3855267684458425
30
0
10
36.791188888721649
20
-8.9233012524907824
30
0
10
36.448537746421358
20
-9.4703173813685844
30
0
10
36.135203034086508
20
-9.9777628908005696
30
0
10
35.878569251088102
20
-10.41193596935797
30
0
10
35.683308797404514
20
-10.778545261765531
30
0
10
35.53641674599087
20
-11.112872361801067
30
0
10
35.419185856271362
20
-11.456957012406196
30
0
10
35.318798087591439
20
-11.837535346341843
30
0
10
35.233939491036303
20
-12.255031303762769
30
0
10
35.168051693576835
20
-12.695457827525662
30
0
10
35.125404810711899
20
-13.137083008915999
30
0
10
35.106269114098048
20
-13.558898785476178
30
0
10
35.111017433766996
20
-13.948783945363459
30
0
10
35.142833574452759
20
-14.310086598454516
30
0
10
35.212678273051594
20
-14.673030813047568
30
0
10
35.33348387084375
20
-15.079789031876686
30
0
10
35.511937919792253
20
-15.563343725432599
30
0
10
35.738801174361051
20
-16.123009407410251
30
0
10
35.987545000552309
20
-16.719748161082784
30
0
10
36.225439150744094
20
-17.301114342840172
30
0
10
36.42205042579112
20
-17.820197760027657
30
0
10
36.557780638845124
20
-18.254237870348703
30
0
10
36.634940645276018
20
-18.630342522935337
30
0
10
36.672605677753168
20
-19.007483404908772
30
0
10
36.696176984965383
20
-19.445526561109755
30
0
10
36.727343510175423
20
-19.972646470257526
30
0
10
36.778443742633925
20
-20.573328436629822
30
0
10
36.855086251947718
20
-21.211109277835689
30
0
10
36.956718658145093
20
-21.843660980380037
30
0
10
37.078073037246753
20
-22.439288290840494
30
0
10
37.210123906447379
20
-22.99709087035335
30
0
10
37.341915651888421
20
-23.54062818713804
30
0
10
37.462614688352851
20
-24.100689277977136
30
0
10
37.563476982515922
20
-24.701752218081264
30
0
10
37.639892062001252
20
-25.346633200541646
30
0
10
37.693284645656568
20
-26.002629115913734
30
0
10
37.728014475625521
20
-26.621311538783388
30
0
10
37.748175846747579
20
-27.158940639427431
30
0
10
37.754806109395453
20
-27.594447104035034
30
0
10
37.742044094212346
20
-27.953623841816647
30
0
10
37.696649769318178
20
-28.313459763103836
30
0
10
37.604562912860779
20
-28.764883983241237
30
0
10
37.456011266297764
20
-29.384093034390297
30
0
10
37.251149837508578
20
-30.20070227162865
30
0
10
36.997804453265694
20
-31.207462630026896
30
0
10
36.709375630177313
20
-32.369061653577866
30
0
10
36.402681735454365
20
-33.631281734417968
30
0
10
36.095816522196642
20
-34.930051081180331
30
0
10
35.806027582565932
20
-36.200433917543634
30
0
10
35.547522866937612
20
-37.385894984134104
30
0
10
35.3294548164451
20
-38.446867572434897
30
0
10
35.15347532271111
20
-39.371012402057623
30
0
10
35.012577946151765
20
-40.178400288975446
30
0
10
34.894102618706995
20
-40.910274336880939
30
0
10
34.78206193059885
20
-41.620491472236878
30
0
10
34.65969059714719
20
-42.366076096338404
30
0
10
34.511999582349496
20
-43.197772815186198
30
0
10
34.32809479586858
20
-44.151487051209784
30
0
10
34.104184701090901
20
-45.237109522608208
30
0
10
33.843508743289924
20
-46.439046086845238
30
0
10
33.554393127770467
20
-47.723866533380487
30
0
10
33.248873806704388
20
-49.045799037530173
30
0
10
32.941088982973909
20
-50.353095660219857
30
0
10
32.64576095880129
20
-51.594070481579067
30
0
10
32.376661614535621
20
-52.723171355566436
30
0
10
32.145033649007566
20
-53.707286405302057
30
0
10
31.95815037197244
20
-54.531368797308446
30
0
10
31.817528447340568
20
-55.205751122675082
30
0
10
31.718187764002487
20
-55.768378591694244
30
0
10
31.651140096698644
20
-56.271517028625738
30
0
10
31.605406265629249
20
-56.770599510952351
30
0
10
31.570052402681128
20
-57.313300752106507
30
0
10
31.536626427477028
20
-57.925890984831547
30
0
10
31.499670622312983
20
-58.612016496708428
30
0
10
31.455679730778954
20
-59.361455784731341
30
0
10
31.402518312544274
20
-60.155909692329537
30
0
10
31.338630173657315
20
-60.976183021195823
30
0
10
31.262381008854273
20
-61.808371056135258
30
0
10
31.171228110628299
20
-62.651519710448717
30
0
10
31.06194443677666
20
-63.515792250676945
30
0
10
30.931054779325223
20
-64.418703751520283
30
0
10
30.775197714396558
20
-65.382029525653877
30
0
10
30.591522288688019
20
-66.428406199666327
30
0
10
30.378061473410483
20
-67.578121579860195
30
0
10
30.134134954996938
20
-68.845691304729854
30
0
10
29.860693954843477
20
-70.236836797710609
30
0
10
29.560807028743469
20
-71.744498555475971
30
0
10
29.239421479938695
20
-73.349794782843119
30
0
10
28.902832364519014
20
-75.024975269447708
30
0
10
28.558246154648895
20
-76.73572966971652
30
0
10
28.213304721488193
20
-78.443765861933826
30
0
10
27.875626927421294
20
-80.109269704204863
30
0
10
27.552341302781933
20
-81.693421997548853
30
0
10
27.249625662943799
20
-83.160876476286901
30
0
10
26.972236519252753
20
-84.482287915729188
30
0
10
26.723059622023406
20
-85.636741328949043
30
0
10
26.502612444899498
20
-86.614403738982361
30
0
10
26.308658860524986
20
-87.418657409692756
30
0
10
26.135538107927474
20
-88.06955294520381
30
0
10
25.975254349884747
20
-88.599136069525457
30
0
10
25.819093058698826
20
-89.044352852643854
30
0
10
25.659036293115097
20
-89.440861968331291
30
0
10
25.489317693281905
20
-89.816251617335467
30
0
10
25.307757780271267
20
-90.184133071089576
30
0
10
25.114379607120298
20
-90.548860880007311
30
0
10
24.910241014582567
20
-90.909390474709525
30
0
10
24.696061689265541
20
-91.263981634986692
30
0
10
24.471790559176931
20
-91.611173765179942
30
0
10
24.236560338686477
20
-91.949602465707812
30
0
10
23.988311297566227
20
-92.278305706534212
30
0
10
23.724252556564007
20
-92.596457345820156
30
0
10
23.442338394244867
20
-92.902654382052177
30
0
10
23.142574356326261
20
-93.194217037619069
30
0
10
22.828173162513
20
-93.466740336153094
30
0
10
22.503469786793818
20
-93.718099662653316
30
0
10
22.172477381158217
20
-93.951342948410399
30
0
10
21.836407161997549
20
-94.179647147610211
30
0
10
21.496547609961109
20
-94.419909435962438
30
0
10
21.157534321285716
20
-94.684999203694545
30
0
10
20.832389920912433
20
-94.973339922338127
30
0
10
20.540089062306436
20
-95.270682511174712
30
0
10
20.29447802064654
20
-95.566247320766706
30
0
10
20.094437490694311
20
-95.866620051320865
30
0
10
19.91627538829152
20
-96.206480972269361
30
0
10
19.73032104288815
20
-96.622637541726547
30
0
10
19.513679636773904
20
-97.134179231900859
30
0
10
19.267149980301198
20
-97.715556653140226
30
0
10
19.00821215274657
20
-98.311668901955358
30
0
10
18.759006864035793
20
-98.861870264851518
30
0
10
18.536384942740099
20
-99.320182405139889
30
0
10
18.340259675786637
20
-99.678812682580386
30
0
10
18.145130400184691
20
-99.98519906219677
30
0
10
17.914899903159267
20
-100.31072348475001
30
0
10
17.614687208935678
20
-100.72571996986454
30
0
10
17.22559235970672
20
-101.26822535111303
30
0
10
16.744317494855373
20
-101.94503897002119
30
0
10
16.179484527270006
20
-102.7398376440953
30
0
10
15.549063831537961
20
-103.61892582615488
30
0
10
14.877349818957695
20
-104.53793062795357
30
0
10
14.192103073900109
20
-105.4481961755527
30
0
10
13.521686253489156
20
-106.30306210520708
30
0
10
12.89204367683981
20
-107.06478898707842
30
0
10
12.324293323497686
20
-107.70913431509584
30
0
10
11.833189050941677
20
-108.22640906399927
30
0
10
11.425539722893379
20
-108.62303242165754
30
0
10
11.098299961679363
20
-108.92358642832887
30
0
10
10.837600622528639
20
-109.17103708884852
30
0
10
10.615366958639941
20
-109.43180957489201
30
0
10
10.396730797827212
20
-109.77914144588802
30
0
10
10.151785867133682
20
-110.2680475402889
30
0
10
9.8681394438912626
20
-110.90794834239718
30
0
10
9.5563079609254373
20
-111.65198446588531
30
0
10
9.2380756840241176
20
-112.42544929776876
30
0
10
8.938827889262118
20
-113.14513777615917
30
0
10
8.6775510964193501
20
-113.74398620218194
30
0
10
8.4595407054176963
20
-114.1896333885538
30
0
10
8.2636804789525193
20
-114.51511919714891
30
0
10
8.050854034454435
20
-114.8021985947298
30
0
10
7.7846449738113668
20
-115.13638661899748
30
0
10
7.4515029779785422
20
-115.56457976346927
30
0
10
7.071879337916755
20
-116.06893320892517
30
0
10
6.6811971570105735
20
-116.59828336886085
30
0
10
6.3152823648584562
20
-117.09017038784241
30
0
10
5.9964333860215371
20
-117.49373910464554
30
0
10
5.7133077677382627
20
-117.79928452105601
30
0
10
5.4289140438129397
20
-118.03441480250254
30
0
10
5.1067682830991776
20
-118.23703742382531
30
0
10
4.7358608979464991
20
-118.43226238295497
30
0
10
4.3437040621778138
20
-118.61638338364087
30
0
10
3.9630650842665549
20
-118.77328134071297
30
0
10
3.6081576027794
20
-118.88461553418638
30
0
10
3.2443394484572359
20
-118.94311630206118
30
0
10
2.8137904305007808
20
-118.95055498603779
30
0
10
2.2611784335324008
20
-118.91531821522769
30
0
10
1.5649318708998461
20
-118.85003538408341
30
0
10
0.74052791339126478
20
-118.76946718865399
30
0
10
-0.17346522842450579
20
-118.68860443400642
30
0
10
-1.1240863007012472
20
-118.62069982936141
30
0
10
-2.054851437867292
20
-118.57532840427024
30
0
10
-2.9157031951997574
20
-118.55643387871153
30
0
10
-3.6733315269779396
20
-118.56038532399972
30
0
10
-4.3214101969589311
20
-118.57401347644698
30
0
10
-4.8723872665171024
20
-118.57862217345445
30
0
10
-5.3488521116062202
20
-118.5541830147491
30
0
10
-5.7755579134380532
20
-118.4831898751802
30
0
10
-6.1699983814471153
20
-118.3552977275764
30
0
10
-6.4639238849501899
20
-118.20669676227531
30
0
10
-6.6715628289865769
20
-118.07141817222958
30
0
10
-6.8036828557757421
20
-117.97175572846456
30
0
10
-6.8681000000000001
20
-117.91970000000001
30
0
0
ENDSEC
0
SECTION
2
OBJECTS
0
DICTIONARY
5
C
100
AcDbDictionary
3
ACAD_GROUP
350
D
3
ACAD_MLINESTYLE
350
17
0
DICTIONARY
5
D
100
AcDbDictionary
0
DICTIONARY
5
1A
330
C
100
AcDbDictionary
0
DICTIONARY
5
17
100
AcDbDictionary
0
ENDSEC
0
EOF
