0
SECTION
2
HEADER
9
$INSUNITS
70
4
9
$ACADVER
1
AC1014
9
$HANDSEED
5
FFFF
0
ENDSEC
0
SECTION
2
TABLES
0
TABLE
2
VPORT
5
8
100
AcDbSymbolTable
0
ENDTAB
0
TABLE
2
LTYPE
5
5
100
AcDbSymbolTable
0
LTYPE
5
14
100
AcDbSymbolTableRecord
100
AcDbLinetypeTableRecord
2
BYBLOCK
70
0
0
LTYPE
5
15
100
AcDbSymbolTableRecord
100
AcDbLinetypeTableRecord
2
BYLAYER
70
0
0
LTYPE
5
16
100
AcDbSymbolTableRecord
100
AcDbLinetypeTableRecord
2
DASHED
70
0
3
Dashed __ __ __ __ __ __ __ __ __ __ __ __ __ _
72
65
73
2
40
0.75
49
0.5
74
0
49
-0.25
74
0
0
ENDTAB
0
TABLE
2
LAYER
5
2
100
AcDbSymbolTable
70
2
0
LAYER
5
50
100
AcDbSymbolTableRecord
100
AcDbLayerTableRecord
2
0
70
0
62
7
6
CONTINUOUS
0
ENDTAB
0
TABLE
2
STYLE
5
3
100
AcDbSymbolTable
70
1
0
STYLE
5
11
100
AcDbSymbolTableRecord
100
AcDbTextStyleTableRecord
2
STANDARD
70
0
0
ENDTAB
0
TABLE
2
VIEW
5
6
100
AcDbSymbolTable
70
0
0
ENDTAB
0
TABLE
2
UCS
5
7
100
AcDbSymbolTable
70
0
0
ENDTAB
0
TABLE
2
APPID
5
9
100
AcDbSymbolTable
70
2
0
APPID
5
12
100
AcDbSymbolTableRecord
100
AcDbRegAppTableRecord
2
ACAD
70
0
0
ENDTAB
0
TABLE
2
DIMSTYLE
5
A
100
AcDbSymbolTable
70
1
0
ENDTAB
0
TABLE
2
BLOCK_RECORD
5
1
100
AcDbSymbolTable
70
1
0
BLOCK_RECORD
5
1F
100
AcDbSymbolTableRecord
100
AcDbBlockTableRecord
2
*MODEL_SPACE
0
BLOCK_RECORD
5
1B
100
AcDbSymbolTableRecord
100
AcDbBlockTableRecord
2
*PAPER_SPACE
0
ENDTAB
0
ENDSEC
0
SECTION
2
BLOCKS
0
BLOCK
5
20
100
AcDbEntity
100
AcDbBlockBegin
2
*MODEL_SPACE
0
ENDBLK
5
21
100
AcDbEntity
100
AcDbBlockEnd
0
BLOCK
5
1C
100
AcDbEntity
100
AcDbBlockBegin
2
*PAPER_SPACE
0
ENDBLK
5
1D
100
AcDbEntity
100
AcDbBlockEnd
0
ENDSEC
0
SECTION
2
ENTITIES
0
SPLINE
5
100
100
AcDbEntity
8
0
100
AcDbSpline
70
6
71
5
72
796
73
790
74
0
42
0.000000001
43
0.0000000001
44
0.0000000001
40
0
40
0
40
0
40
0
40
0
40
0
40
0.0012738853503184713
40
0.0025477707006369425
40
0.003821656050955414
40
0.0050955414012738851
40
0.0063694267515923561
40
0.0076433121019108272
40
0.0089171974522292991
40
0.01019108280254777
40
0.011464968152866241
40
0.012738853503184712
40
0.014012738853503183
40
0.015286624203821654
40
0.016560509554140127
40
0.017834394904458598
40
0.019108280254777069
40
0.02038216560509554
40
0.021656050955414011
40
0.022929936305732482
40
0.024203821656050954
40
0.025477707006369425
40
0.026751592356687896
40
0.028025477707006367
40
0.029299363057324838
40
0.030573248407643309
40
0.031847133757961783
40
0.033121019108280254
40
0.034394904458598725
40
0.035668789808917196
40
0.036942675159235668
40
0.038216560509554139
40
0.03949044585987261
40
0.040764331210191081
40
0.042038216560509552
40
0.043312101910828023
40
0.044585987261146494
40
0.045859872611464965
40
0.047133757961783436
40
0.048407643312101907
40
0.049681528662420378
40
0.050955414012738849
40
0.05222929936305732
40
0.053503184713375791
40
0.054777070063694262
40
0.056050955414012733
40
0.057324840764331204
40
0.058598726114649675
40
0.059872611464968147
40
0.061146496815286618
40
0.062420382165605089
40
0.063694267515923567
40
0.064968152866242038
40
0.066242038216560509
40
0.06751592356687898
40
0.068789808917197451
40
0.070063694267515922
40
0.071337579617834393
40
0.072611464968152864
40
0.073885350318471335
40
0.075159235668789806
40
0.076433121019108277
40
0.077707006369426748
40
0.078980891719745219
40
0.08025477707006369
40
0.081528662420382161
40
0.082802547770700632
40
0.084076433121019103
40
0.085350318471337575
40
0.086624203821656046
40
0.087898089171974517
40
0.089171974522292988
40
0.090445859872611459
40
0.09171974522292993
40
0.092993630573248401
40
0.094267515923566872
40
0.095541401273885343
40
0.096815286624203814
40
0.098089171974522285
40
0.099363057324840756
40
0.10063694267515923
40
0.1019108280254777
40
0.10318471337579617
40
0.10445859872611464
40
0.10573248407643311
40
0.10700636942675158
40
0.10828025477707005
40
0.10955414012738852
40
0.110828025477707
40
0.11210191082802547
40
0.11337579617834394
40
0.11464968152866241
40
0.11592356687898088
40
0.11719745222929935
40
0.11847133757961782
40
0.11974522292993629
40
0.12101910828025476
40
0.12229299363057324
40
0.12356687898089171
40
0.12484076433121018
40
0.12611464968152866
40
0.12738853503184713
40
0.1286624203821656
40
0.12993630573248408
40
0.13121019108280255
40
0.13248407643312102
40
0.13375796178343949
40
0.13503184713375796
40
0.13630573248407643
40
0.1375796178343949
40
0.13885350318471337
40
0.14012738853503184
40
0.14140127388535031
40
0.14267515923566879
40
0.14394904458598726
40
0.14522292993630573
40
0.1464968152866242
40
0.14777070063694267
40
0.14904458598726114
40
0.15031847133757961
40
0.15159235668789808
40
0.15286624203821655
40
0.15414012738853503
40
0.1554140127388535
40
0.15668789808917197
40
0.15796178343949044
40
0.15923566878980891
40
0.16050955414012738
40
0.16178343949044585
40
0.16305732484076432
40
0.16433121019108279
40
0.16560509554140126
40
0.16687898089171974
40
0.16815286624203821
40
0.16942675159235668
40
0.17070063694267515
40
0.17197452229299362
40
0.17324840764331209
40
0.17452229299363056
40
0.17579617834394903
40
0.1770700636942675
40
0.17834394904458598
40
0.17961783439490445
40
0.18089171974522292
40
0.18216560509554139
40
0.18343949044585986
40
0.18471337579617833
40
0.1859872611464968
40
0.18726114649681527
40
0.18853503184713374
40
0.18980891719745221
40
0.19108280254777069
40
0.19235668789808916
40
0.19363057324840763
40
0.1949044585987261
40
0.19617834394904457
40
0.19745222929936304
40
0.19872611464968151
40
0.19999999999999998
40
0.20127388535031845
40
0.20254777070063693
40
0.2038216560509554
40
0.20509554140127387
40
0.20636942675159234
40
0.20764331210191081
40
0.20891719745222928
40
0.21019108280254775
40
0.21146496815286622
40
0.21273885350318469
40
0.21401273885350316
40
0.21528662420382164
40
0.21656050955414011
40
0.21783439490445858
40
0.21910828025477705
40
0.22038216560509552
40
0.22165605095541399
40
0.22292993630573246
40
0.22420382165605093
40
0.2254777070063694
40
0.22675159235668788
40
0.22802547770700635
40
0.22929936305732482
40
0.23057324840764329
40
0.23184713375796176
40
0.23312101910828023
40
0.2343949044585987
40
0.23566878980891717
40
0.23694267515923564
40
0.23821656050955411
40
0.23949044585987259
40
0.24076433121019106
40
0.24203821656050953
40
0.243312101910828
40
0.24458598726114647
40
0.24585987261146494
40
0.24713375796178341
40
0.24840764331210188
40
0.24968152866242035
40
0.25095541401273885
40
0.25222929936305732
40
0.2535031847133758
40
0.25477707006369427
40
0.25605095541401274
40
0.25732484076433121
40
0.25859872611464968
40
0.25987261146496815
40
0.26114649681528662
40
0.26242038216560509
40
0.26369426751592356
40
0.26496815286624203
40
0.26624203821656051
40
0.26751592356687898
40
0.26878980891719745
40
0.27006369426751592
40
0.27133757961783439
40
0.27261146496815286
40
0.27388535031847133
40
0.2751592356687898
40
0.27643312101910827
40
0.27770700636942675
40
0.27898089171974522
40
0.28025477707006369
40
0.28152866242038216
40
0.28280254777070063
40
0.2840764331210191
40
0.28535031847133757
40
0.28662420382165604
40
0.28789808917197451
40
0.28917197452229298
40
0.29044585987261146
40
0.29171974522292993
40
0.2929936305732484
40
0.29426751592356687
40
0.29554140127388534
40
0.29681528662420381
40
0.29808917197452228
40
0.29936305732484075
40
0.30063694267515922
40
0.3019108280254777
40
0.30318471337579617
40
0.30445859872611464
40
0.30573248407643311
40
0.30700636942675158
40
0.30828025477707005
40
0.30955414012738852
40
0.31082802547770699
40
0.31210191082802546
40
0.31337579617834393
40
0.31464968152866241
40
0.31592356687898088
40
0.31719745222929935
40
0.31847133757961782
40
0.31974522292993629
40
0.32101910828025476
40
0.32229299363057323
40
0.3235668789808917
40
0.32484076433121017
40
0.32611464968152865
40
0.32738853503184712
40
0.32866242038216559
40
0.32993630573248406
40
0.33121019108280253
40
0.332484076433121
40
0.33375796178343947
40
0.33503184713375794
40
0.33630573248407641
40
0.33757961783439489
40
0.33885350318471336
40
0.34012738853503183
40
0.3414012738853503
40
0.34267515923566877
40
0.34394904458598724
40
0.34522292993630571
40
0.34649681528662418
40
0.34777070063694265
40
0.34904458598726112
40
0.3503184713375796
40
0.35159235668789807
40
0.35286624203821654
40
0.35414012738853501
40
0.35541401273885348
40
0.35668789808917195
40
0.35796178343949042
40
0.35923566878980889
40
0.36050955414012736
40
0.36178343949044584
40
0.36305732484076431
40
0.36433121019108278
40
0.36560509554140125
40
0.36687898089171972
40
0.36815286624203819
40
0.36942675159235666
40
0.37070063694267513
40
0.3719745222929936
40
0.37324840764331207
40
0.37452229299363055
40
0.37579617834394902
40
0.37707006369426749
40
0.37834394904458596
40
0.37961783439490443
40
0.3808917197452229
40
0.38216560509554137
40
0.38343949044585984
40
0.38471337579617831
40
0.38598726114649679
40
0.38726114649681526
40
0.38853503184713373
40
0.3898089171974522
40
0.39108280254777067
40
0.39235668789808914
40
0.39363057324840761
40
0.39490445859872608
40
0.39617834394904455
40
0.39745222929936302
40
0.3987261146496815
40
0.39999999999999997
40
0.40127388535031844
40
0.40254777070063691
40
0.40382165605095538
40
0.40509554140127385
40
0.40636942675159232
40
0.40764331210191079
40
0.40891719745222926
40
0.41019108280254774
40
0.41146496815286621
40
0.41273885350318468
40
0.41401273885350315
40
0.41528662420382162
40
0.41656050955414009
40
0.41783439490445856
40
0.41910828025477703
40
0.4203821656050955
40
0.42165605095541397
40
0.42292993630573245
40
0.42420382165605092
40
0.42547770700636939
40
0.42675159235668786
40
0.42802547770700633
40
0.4292993630573248
40
0.43057324840764327
40
0.43184713375796174
40
0.43312101910828021
40
0.43439490445859869
40
0.43566878980891716
40
0.43694267515923563
40
0.4382165605095541
40
0.43949044585987257
40
0.44076433121019104
40
0.44203821656050951
40
0.44331210191082798
40
0.44458598726114645
40
0.44585987261146492
40
0.4471337579617834
40
0.44840764331210187
40
0.44968152866242034
40
0.45095541401273881
40
0.45222929936305728
40
0.45350318471337575
40
0.45477707006369422
40
0.45605095541401269
40
0.45732484076433116
40
0.45859872611464964
40
0.45987261146496811
40
0.46114649681528658
40
0.46242038216560505
40
0.46369426751592352
40
0.46496815286624199
40
0.46624203821656046
40
0.46751592356687893
40
0.4687898089171974
40
0.47006369426751587
40
0.47133757961783435
40
0.47261146496815282
40
0.47388535031847129
40
0.47515923566878976
40
0.47643312101910823
40
0.4777070063694267
40
0.47898089171974517
40
0.48025477707006364
40
0.48152866242038211
40
0.48280254777070059
40
0.48407643312101906
40
0.48535031847133753
40
0.486624203821656
40
0.48789808917197447
40
0.48917197452229294
40
0.49044585987261141
40
0.49171974522292988
40
0.49299363057324835
40
0.49426751592356682
40
0.4955414012738853
40
0.49681528662420377
40
0.49808917197452224
40
0.49936305732484071
40
0.50063694267515924
40
0.50191082802547771
40
0.50318471337579618
40
0.50445859872611465
40
0.50573248407643312
40
0.50700636942675159
40
0.50828025477707006
40
0.50955414012738853
40
0.510828025477707
40
0.51210191082802548
40
0.51337579617834395
40
0.51464968152866242
40
0.51592356687898089
40
0.51719745222929936
40
0.51847133757961783
40
0.5197452229299363
40
0.52101910828025477
40
0.52229299363057324
40
0.52356687898089171
40
0.52484076433121019
40
0.52611464968152866
40
0.52738853503184713
40
0.5286624203821656
40
0.52993630573248407
40
0.53121019108280254
40
0.53248407643312101
40
0.53375796178343948
40
0.53503184713375795
40
0.53630573248407643
40
0.5375796178343949
40
0.53885350318471337
40
0.54012738853503184
40
0.54140127388535031
40
0.54267515923566878
40
0.54394904458598725
40
0.54522292993630572
40
0.54649681528662419
40
0.54777070063694266
40
0.54904458598726114
40
0.55031847133757961
40
0.55159235668789808
40
0.55286624203821655
40
0.55414012738853502
40
0.55541401273885349
40
0.55668789808917196
40
0.55796178343949043
40
0.5592356687898089
40
0.56050955414012738
40
0.56178343949044585
40
0.56305732484076432
40
0.56433121019108279
40
0.56560509554140126
40
0.56687898089171973
40
0.5681528662420382
40
0.56942675159235667
40
0.57070063694267514
40
0.57197452229299361
40
0.57324840764331209
40
0.57452229299363056
40
0.57579617834394903
40
0.5770700636942675
40
0.57834394904458597
40
0.57961783439490444
40
0.58089171974522291
40
0.58216560509554138
40
0.58343949044585985
40
0.58471337579617833
40
0.5859872611464968
40
0.58726114649681527
40
0.58853503184713374
40
0.58980891719745221
40
0.59108280254777068
40
0.59235668789808915
40
0.59363057324840762
40
0.59490445859872609
40
0.59617834394904456
40
0.59745222929936304
40
0.59872611464968151
40
0.59999999999999998
40
0.60127388535031845
40
0.60254777070063692
40
0.60382165605095539
40
0.60509554140127386
40
0.60636942675159233
40
0.6076433121019108
40
0.60891719745222928
40
0.61019108280254775
40
0.61146496815286622
40
0.61273885350318469
40
0.61401273885350316
40
0.61528662420382163
40
0.6165605095541401
40
0.61783439490445857
40
0.61910828025477704
40
0.62038216560509551
40
0.62165605095541399
40
0.62292993630573246
40
0.62420382165605093
40
0.6254777070063694
40
0.62675159235668787
40
0.62802547770700634
40
0.62929936305732481
40
0.63057324840764328
40
0.63184713375796175
40
0.63312101910828023
40
0.6343949044585987
40
0.63566878980891717
40
0.63694267515923564
40
0.63821656050955411
40
0.63949044585987258
40
0.64076433121019105
40
0.64203821656050952
40
0.64331210191082799
40
0.64458598726114646
40
0.64585987261146494
40
0.64713375796178341
40
0.64840764331210188
40
0.64968152866242035
40
0.65095541401273882
40
0.65222929936305729
40
0.65350318471337576
40
0.65477707006369423
40
0.6560509554140127
40
0.65732484076433118
40
0.65859872611464965
40
0.65987261146496812
40
0.66114649681528659
40
0.66242038216560506
40
0.66369426751592353
40
0.664968152866242
40
0.66624203821656047
40
0.66751592356687894
40
0.66878980891719741
40
0.67006369426751589
40
0.67133757961783436
40
0.67261146496815283
40
0.6738853503184713
40
0.67515923566878977
40
0.67643312101910824
40
0.67770700636942671
40
0.67898089171974518
40
0.68025477707006365
40
0.68152866242038213
40
0.6828025477707006
40
0.68407643312101907
40
0.68535031847133754
40
0.68662420382165601
40
0.68789808917197448
40
0.68917197452229295
40
0.69044585987261142
40
0.69171974522292989
40
0.69299363057324836
40
0.69426751592356684
40
0.69554140127388531
40
0.69681528662420378
40
0.69808917197452225
40
0.69936305732484072
40
0.70063694267515919
40
0.70191082802547766
40
0.70318471337579613
40
0.7044585987261146
40
0.70573248407643308
40
0.70700636942675155
40
0.70828025477707002
40
0.70955414012738849
40
0.71082802547770696
40
0.71210191082802543
40
0.7133757961783439
40
0.71464968152866237
40
0.71592356687898084
40
0.71719745222929931
40
0.71847133757961779
40
0.71974522292993626
40
0.72101910828025473
40
0.7222929936305732
40
0.72356687898089167
40
0.72484076433121014
40
0.72611464968152861
40
0.72738853503184708
40
0.72866242038216555
40
0.72993630573248403
40
0.7312101910828025
40
0.73248407643312097
40
0.73375796178343944
40
0.73503184713375791
40
0.73630573248407638
40
0.73757961783439485
40
0.73885350318471332
40
0.74012738853503179
40
0.74140127388535026
40
0.74267515923566874
40
0.74394904458598721
40
0.74522292993630568
40
0.74649681528662415
40
0.74777070063694262
40
0.74904458598726109
40
0.75031847133757956
40
0.75159235668789803
40
0.7528662420382165
40
0.75414012738853498
40
0.75541401273885345
40
0.75668789808917192
40
0.75796178343949039
40
0.75923566878980886
40
0.76050955414012733
40
0.7617834394904458
40
0.76305732484076427
40
0.76433121019108274
40
0.76560509554140121
40
0.76687898089171969
40
0.76815286624203816
40
0.76942675159235663
40
0.7707006369426751
40
0.77197452229299357
40
0.77324840764331204
40
0.77452229299363051
40
0.77579617834394898
40
0.77707006369426745
40
0.77834394904458593
40
0.7796178343949044
40
0.78089171974522287
40
0.78216560509554134
40
0.78343949044585981
40
0.78471337579617828
40
0.78598726114649675
40
0.78726114649681522
40
0.78853503184713369
40
0.78980891719745216
40
0.79108280254777064
40
0.79235668789808911
40
0.79363057324840758
40
0.79490445859872605
40
0.79617834394904452
40
0.79745222929936299
40
0.79872611464968146
40
0.79999999999999993
40
0.8012738853503184
40
0.80254777070063688
40
0.80382165605095535
40
0.80509554140127382
40
0.80636942675159229
40
0.80764331210191076
40
0.80891719745222923
40
0.8101910828025477
40
0.81146496815286617
40
0.81273885350318464
40
0.81401273885350311
40
0.81528662420382159
40
0.81656050955414006
40
0.81783439490445853
40
0.819108280254777
40
0.82038216560509547
40
0.82165605095541394
40
0.82292993630573241
40
0.82420382165605088
40
0.82547770700636935
40
0.82675159235668783
40
0.8280254777070063
40
0.82929936305732477
40
0.83057324840764324
40
0.83184713375796171
40
0.83312101910828018
40
0.83439490445859865
40
0.83566878980891712
40
0.83694267515923559
40
0.83821656050955407
40
0.83949044585987254
40
0.84076433121019101
40
0.84203821656050948
40
0.84331210191082795
40
0.84458598726114642
40
0.84585987261146489
40
0.84713375796178336
40
0.84840764331210183
40
0.8496815286624203
40
0.85095541401273878
40
0.85222929936305725
40
0.85350318471337572
40
0.85477707006369419
40
0.85605095541401266
40
0.85732484076433113
40
0.8585987261146496
40
0.85987261146496807
40
0.86114649681528654
40
0.86242038216560502
40
0.86369426751592349
40
0.86496815286624196
40
0.86624203821656043
40
0.8675159235668789
40
0.86878980891719737
40
0.87006369426751584
40
0.87133757961783431
40
0.87261146496815278
40
0.87388535031847125
40
0.87515923566878973
40
0.8764331210191082
40
0.87770700636942667
40
0.87898089171974514
40
0.88025477707006361
40
0.88152866242038208
40
0.88280254777070055
40
0.88407643312101902
40
0.88535031847133749
40
0.88662420382165597
40
0.88789808917197444
40
0.88917197452229291
40
0.89044585987261138
40
0.89171974522292985
40
0.89299363057324832
40
0.89426751592356679
40
0.89554140127388526
40
0.89681528662420373
40
0.8980891719745222
40
0.89936305732484068
40
0.90063694267515915
40
0.90191082802547762
40
0.90318471337579609
40
0.90445859872611456
40
0.90573248407643303
40
0.9070063694267515
40
0.90828025477706997
40
0.90955414012738844
40
0.91082802547770692
40
0.91210191082802539
40
0.91337579617834386
40
0.91464968152866233
40
0.9159235668789808
40
0.91719745222929927
40
0.91847133757961774
40
0.91974522292993621
40
0.92101910828025468
40
0.92229299363057315
40
0.92356687898089163
40
0.9248407643312101
40
0.92611464968152857
40
0.92738853503184704
40
0.92866242038216551
40
0.92993630573248398
40
0.93121019108280245
40
0.93248407643312092
40
0.93375796178343939
40
0.93503184713375787
40
0.93630573248407634
40
0.93757961783439481
40
0.93885350318471328
40
0.94012738853503175
40
0.94140127388535022
40
0.94267515923566869
40
0.94394904458598716
40
0.94522292993630563
40
0.9464968152866241
40
0.94777070063694258
40
0.94904458598726105
40
0.95031847133757952
40
0.95159235668789799
40
0.95286624203821646
40
0.95414012738853493
40
0.9554140127388534
40
0.95668789808917187
40
0.95796178343949034
40
0.95923566878980882
40
0.96050955414012729
40
0.96178343949044576
40
0.96305732484076423
40
0.9643312101910827
40
0.96560509554140117
40
0.96687898089171964
40
0.96815286624203811
40
0.96942675159235658
40
0.97070063694267505
40
0.97197452229299353
40
0.973248407643312
40
0.97452229299363047
40
0.97579617834394894
40
0.97707006369426741
40
0.97834394904458588
40
0.97961783439490435
40
0.98089171974522282
40
0.98216560509554129
40
0.98343949044585977
40
0.98471337579617824
40
0.98598726114649671
40
0.98726114649681518
40
0.98853503184713365
40
0.98980891719745212
40
0.99108280254777059
40
0.99235668789808906
40
0.99363057324840753
40
0.994904458598726
40
0.99617834394904448
40
0.99745222929936295
40
0.99872611464968142
40
1
40
1
40
1
40
1
40
1
40
1
41
1
41
1
41
1
41
1
41
1
41
1
41
1
41
1
41
1
41
1
41
1
41
1
41
1
41
1
41
1
41
1
41
1
41
1
41
1
41
1
41
1
41
1
41
1
41
1
41
1
41
1
41
1
41
1
41
1
41
1
41
1
41
1
41
1
41
1
41
1
41
1
41
1
41
1
41
1
41
1
41
1
41
1
41
1
41
1
41
1
41
1
41
1
41
1
41
1
41
1
41
1
41
1
41
1
41
1
41
1
41
1
41
1
41
1
41
1
41
1
41
1
41
1
41
1
41
1
41
1
41
1
41
1
41
1
41
1
41
1
41
1
41
1
41
1
41
1
41
1
41
1
41
1
41
1
41
1
41
1
41
1
41
1
41
1
41
1
41
1
41
1
41
1
41
1
41
1
41
1
41
1
41
1
41
1
41
1
41
1
41
1
41
1
41
1
41
1
41
1
41
1
41
1
41
1
41
1
41
1
41
1
41
1
41
1
41
1
41
1
41
1
41
1
41
1
41
1
41
1
41
1
41
1
41
1
41
1
41
1
41
1
41
1
41
1
41
1
41
1
41
1
41
1
41
1
41
1
41
1
41
1
41
1
41
1
41
1
41
1
41
1
41
1
41
1
41
1
41
1
41
1
41
1
41
1
41
1
41
1
41
1
41
1
41
1
41
1
41
1
41
1
41
1
41
1
41
1
41
1
41
1
41
1
41
1
41
1
41
1
41
1
41
1
41
1
41
1
41
1
41
1
41
1
41
1
41
1
41
1
41
1
41
1
41
1
41
1
41
1
41
1
41
1
41
1
41
1
41
1
41
1
41
1
41
1
41
1
41
1
41
1
41
1
41
1
41
1
41
1
41
1
41
1
41
1
41
1
41
1
41
1
41
1
41
1
41
1
41
1
41
1
41
1
41
1
41
1
41
1
41
1
41
1
41
1
41
1
41
1
41
1
41
1
41
1
41
1
41
1
41
1
41
1
41
1
41
1
41
1
41
1
41
1
41
1
41
1
41
1
41
1
41
1
41
1
41
1
41
1
41
1
41
1
41
1
41
1
41
1
41
1
41
1
41
1
41
1
41
1
41
1
41
1
41
1
41
1
41
1
41
1
41
1
41
1
41
1
41
1
41
1
41
1
41
1
41
1
41
1
41
1
41
1
41
1
41
1
41
1
41
1
41
1
41
1
41
1
41
1
41
1
41
1
41
1
41
1
41
1
41
1
41
1
41
1
41
1
41
1
41
1
41
1
41
1
41
1
41
1
41
1
41
1
41
1
41
1
41
1
41
1
41
1
41
1
41
1
41
1
41
1
41
1
41
1
41
1
41
1
41
1
41
1
41
1
41
1
41
1
41
1
41
1
41
1
41
1
41
1
41
1
41
1
41
1
41
1
41
1
41
1
41
1
41
1
41
1
41
1
41
1
41
1
41
1
41
1
41
1
41
1
41
1
41
1
41
1
41
1
41
1
41
1
41
1
41
1
41
1
41
1
41
1
41
1
41
1
41
1
41
1
41
1
41
1
41
1
41
1
41
1
41
1
41
1
41
1
41
1
41
1
41
1
41
1
41
1
41
1
41
1
41
1
41
1
41
1
41
1
41
1
41
1
41
1
41
1
41
1
41
1
41
1
41
1
41
1
41
1
41
1
41
1
41
1
41
1
41
1
41
1
41
1
41
1
41
1
41
1
41
1
41
1
41
1
41
1
41
1
41
1
41
1
41
1
41
1
41
1
41
1
41
1
41
1
41
1
41
1
41
1
41
1
41
1
41
1
41
1
41
1
41
1
41
1
41
1
41
1
41
1
41
1
41
1
41
1
41
1
41
1
41
1
41
1
41
1
41
1
41
1
41
1
41
1
41
1
41
1
41
1
41
1
41
1
41
1
41
1
41
1
41
1
41
1
41
1
41
1
41
1
41
1
41
1
41
1
41
1
41
1
41
1
41
1
41
1
41
1
41
1
41
1
41
1
41
1
41
1
41
1
41
1
41
1
41
1
41
1
41
1
41
1
41
1
41
1
41
1
41
1
41
1
41
1
41
1
41
1
41
1
41
1
41
1
41
1
41
1
41
1
41
1
41
1
41
1
41
1
41
1
41
1
41
1
41
1
41
1
41
1
41
1
41
1
41
1
41
1
41
1
41
1
41
1
41
1
41
1
41
1
41
1
41
1
41
1
41
1
41
1
41
1
41
1
41
1
41
1
41
1
41
1
41
1
41
1
41
1
41
1
41
1
41
1
41
1
41
1
41
1
41
1
41
1
41
1
41
1
41
1
41
1
41
1
41
1
41
1
41
1
41
1
41
1
41
1
41
1
41
1
41
1
41
1
41
1
41
1
41
1
41
1
41
1
41
1
41
1
41
1
41
1
41
1
41
1
41
1
41
1
41
1
41
1
41
1
41
1
41
1
41
1
41
1
41
1
41
1
41
1
41
1
41
1
41
1
41
1
41
1
41
1
41
1
41
1
41
1
41
1
41
1
41
1
41
1
41
1
41
1
41
1
41
1
41
1
41
1
41
1
41
1
41
1
41
1
41
1
41
1
41
1
41
1
41
1
41
1
41
1
41
1
41
1
41
1
41
1
41
1
41
1
41
1
41
1
41
1
41
1
41
1
41
1
41
1
41
1
41
1
41
1
41
1
41
1
41
1
41
1
41
1
41
1
41
1
41
1
41
1
41
1
41
1
41
1
41
1
41
1
41
1
41
1
41
1
41
1
41
1
41
1
41
1
41
1
41
1
41
1
41
1
41
1
41
1
41
1
41
1
41
1
41
1
41
1
41
1
41
1
41
1
41
1
41
1
41
1
41
1
41
1
41
1
41
1
41
1
41
1
41
1
41
1
41
1
41
1
41
1
41
1
41
1
41
1
41
1
41
1
41
1
41
1
41
1
41
1
41
1
41
1
41
1
41
1
41
1
41
1
41
1
41
1
41
1
41
1
41
1
41
1
41
1
41
1
41
1
41
1
41
1
41
1
41
1
41
1
41
1
41
1
41
1
41
1
41
1
41
1
41
1
41
1
41
1
41
1
41
1
41
1
41
1
41
1
41
1
41
1
41
1
41
1
41
1
41
1
41
1
41
1
41
1
41
1
41
1
41
1
41
1
41
1
41
1
41
1
41
1
41
1
41
1
41
1
41
1
41
1
41
1
41
1
41
1
41
1
41
1
41
1
41
1
41
1
41
1
41
1
41
1
41
1
41
1
41
1
41
1
41
1
41
1
41
1
41
1
41
1
41
1
41
1
41
1
41
1
41
1
41
1
41
1
41
1
41
1
41
1
41
1
41
1
41
1
41
1
41
1
41
1
41
1
41
1
41
1
41
1
41
1
41
1
41
1
41
1
41
1
41
1
41
1
41
1
41
1
41
1
41
1
41
1
41
1
41
1
41
1
41
1
41
1
41
1
41
1
41
1
41
1
41
1
41
1
41
1
41
1
41
1
41
1
41
1
41
1
41
1
41
1
41
1
41
1
41
1
41
1
41
1
41
1
41
1
41
1
41
1
41
1
41
1
41
1
41
1
41
1
41
1
41
1
41
1
41
1
10
-16.466799999999999
20
-99.411000000000001
30
0
10
-16.566096631590209
20
-99.405542231100497
30
0
10
-16.754281158349883
20
-99.393152419190969
30
0
10
-17.007192840682382
20
-99.369729265381878
30
0
10
-17.30095305202596
20
-99.327008561079879
30
0
10
-17.64734148944628
20
-99.250599470432149
30
0
10
-18.013323038031068
20
-99.149288725624331
30
0
10
-18.400691014220946
20
-99.024784316634708
30
0
10
-18.789734773573613
20
-98.879388774448174
30
0
10
-19.158082589047684
20
-98.713187397146882
30
0
10
-19.501683238758883
20
-98.52008534174999
30
0
10
-19.827561751279632
20
-98.29388222803172
30
0
10
-20.143281037161934
20
-98.034464982861095
30
0
10
-20.445094640306714
20
-97.756852247927398
30
0
10
-20.723862467067566
20
-97.479609133590571
30
0
10
-20.974412351154509
20
-97.210524452996893
30
0
10
-21.206447830649239
20
-96.928294688075596
30
0
10
-21.439433772565796
20
-96.593444795602394
30
0
10
-21.692162823340681
20
-96.168418779145583
30
0
10
-21.972047901773873
20
-95.638585223477548
30
0
10
-22.274460522880048
20
-95.013681673600146
30
0
10
-22.587966008720464
20
-94.317922934204447
30
0
10
-22.897789896029064
20
-93.583533050625803
30
0
10
-23.189760340374534
20
-92.843283827766584
30
0
10
-23.454674562933224
20
-92.122418670831564
30
0
10
-23.690347318244523
20
-91.434379624592452
30
0
10
-23.899013587808035
20
-90.784254668793182
30
0
10
-24.085756606682338
20
-90.170511001555667
30
0
10
-24.256539574100309
20
-89.587405522764811
30
0
10
-24.416370422849848
20
-89.027132579535191
30
0
10
-24.567513059628286
20
-88.482007455776795
30
0
10
-24.710066041060767
20
-87.944766860358939
30
0
10
-24.842393905753539
20
-87.409019986443624
30
0
10
-24.961659197996283
20
-86.869561163077904
30
0
10
-25.064198614884226
20
-86.322944737304809
30
0
10
-25.146712624549469
20
-85.766648979819621
30
0
10
-25.207865195365137
20
-85.197605327169811
30
0
10
-25.249534496442777
20
-84.611165098038725
30
0
10
-25.278710173409877
20
-83.999348456797122
30
0
10
-25.307359451025555
20
-83.351273308114585
30
0
10
-25.349190154010401
20
-82.656875102048389
30
0
10
-25.417112780920817
20
-81.909907440564496
30
0
10
-25.520483880337608
20
-81.111120355529849
30
0
10
-25.662294614102716
20
-80.27162639954949
30
0
10
-25.836810030340693
20
-79.415426475064749
30
0
10
-26.032380726418065
20
-78.572760467178966
30
0
10
-26.233847453818409
20
-77.77417197209455
30
0
10
-26.425097574631454
20
-77.044311147245281
30
0
10
-26.591565230936112
20
-76.395824652644464
30
0
10
-26.722736176095157
20
-75.823265752535562
30
0
10
-26.814704342927836
20
-75.296821381891178
30
0
10
-26.869071892507694
20
-74.773474793022231
30
0
10
-26.891785026931881
20
-74.209036527866857
30
0
10
-26.891985149315168
20
-73.568782360619281
30
0
10
-26.880874773141681
20
-72.841321594868333
30
0
10
-26.870461742103373
20
-72.037776624306119
30
0
10
-26.872209200224603
20
-71.18320670189425
30
0
10
-26.895757901758643
20
-70.31057460057167
30
0
10
-26.947524210529195
20
-69.453373211785774
30
0
10
-27.029570224012261
20
-68.639489481368756
30
0
10
-27.137813907656685
20
-67.882891951224821
30
0
10
-27.262758197585065
20
-67.183034529657263
30
0
10
-27.392362267421046
20
-66.530782387945038
30
0
10
-27.514382652845704
20
-65.912641237773812
30
0
10
-27.618775445653178
20
-65.315396983389576
30
0
10
-27.700444303607444
20
-64.731257863830919
30
0
10
-27.76068831692314
20
-64.160681451387802
30
0
10
-27.804021338714634
20
-63.606753939027556
30
0
10
-27.835690892890682
20
-63.070840315677465
30
0
10
-27.859039568808509
20
-62.547974868910558
30
0
10
-27.872620031393165
20
-62.021720934937996
30
0
10
-27.872352964744049
20
-61.469362256213543
30
0
10
-27.854370796023119
20
-60.868494473850454
30
0
10
-27.817311566277848
20
-60.20248971620358
30
0
10
-27.765576605158515
20
-59.467941750922826
30
0
10
-27.708970670836205
20
-58.674677298279818
30
0
10
-27.659680795601439
20
-57.840321397111829
30
0
10
-27.630085801355509
20
-56.986526667846455
30
0
10
-27.630101595554507
20
-56.134346172449042
30
0
10
-27.665008502532473
20
-55.300370359318016
30
0
10
-27.732375650431379
20
-54.491559883887703
30
0
10
-27.821989432435718
20
-53.704305329297675
30
0
10
-27.919387723305093
20
-52.928518731603511
30
0
10
-28.008424058673711
20
-52.150392856300215
30
0
10
-28.074325146788798
20
-51.35579658354122
30
0
10
-28.106308504146046
20
-50.533179250026222
30
0
10
-28.100943606246766
20
-49.677216397209492
30
0
10
-28.063333775400285
20
-48.790357563876832
30
0
10
-28.004034284478241
20
-47.880294854843015
30
0
10
-27.936852704373134
20
-46.958280699798621
30
0
10
-27.876345513361784
20
-46.037139593351725
30
0
10
-27.835332435759934
20
-45.129334212147427
30
0
10
-27.822664703496866
20
-44.24518644694713
30
0
10
-27.840236851397506
20
-43.39059056404939
30
0
10
-27.882900382260924
20
-42.566701869005797
30
0
10
-27.941281078872755
20
-41.771610104992632
30
0
10
-28.003766629446783
20
-41.001440956246341
30
0
10
-28.058917686081131
20
-40.251758807082837
30
0
10
-28.097502962250104
20
-39.518684662971218
30
0
10
-28.115170056271275
20
-38.800516023030326
30
0
10
-28.113185985129327
20
-38.09780575437982
30
0
10
-28.096117238969633
20
-37.411003474815956
30
0
10
-28.070202931142788
20
-36.738634624017493
30
0
10
-28.041479610594688
20
-36.075318556250807
30
0
10
-28.013940282122437
20
-35.409725099981543
30
0
10
-27.987885214145823
20
-34.722931397323364
30
0
10
-27.961058576233569
20
-33.991794336867237
30
0
10
-27.929579390325173
20
-33.191962659246293
30
0
10
-27.888949085245805
20
-32.301018989988862
30
0
10
-27.835031107715075
20
-31.3015834552257
30
0
10
-27.765031615028249
20
-30.184394254509897
30
0
10
-27.678509723454859
20
-28.951506931617214
30
0
10
-27.576988154872414
20
-27.614419113631339
30
0
10
-27.463524112469329
20
-26.192053348085523
30
0
10
-27.342295185071585
20
-24.708793506732686
30
0
10
-27.218178142667586
20
-23.192495749478205
30
0
10
-27.096332556096797
20
-21.672517032820807
30
0
10
-26.981778260411136
20
-20.177720850744659
30
0
10
-26.878984954269328
20
-18.734528171054922
30
0
10
-26.791434528357534
20
-17.364866654617963
30
0
10
-26.721246570900583
20
-16.084355572093628
30
0
10
-26.668651243494651
20
-14.899921255534439
30
0
10
-26.631966023492271
20
-13.80929213853674
30
0
10
-26.608396243892972
20
-12.803563799173832
30
0
10
-26.594643319065323
20
-11.869051024923889
30
0
10
-26.587594441908948
20
-10.989434009966995
30
0
10
-26.584968172097408
20
-10.147762439063296
30
0
10
-26.586000549889768
20
-9.3285585898794174
30
0
10
-26.592062957630553
20
-8.5197884402831736
30
0
10
-26.607446012915375
20
-7.7151296642573888
30
0
10
-26.638119906177039
20
-6.9127010432093563
30
0
10
-26.690266469699143
20
-6.1134047857135716
30
0
10
-26.768922575463499
20
-5.3194387150653188
30
0
10
-26.876509576568218
20
-4.5326656752346484
30
0
10
-27.011568544260179
20
-3.7532109168389582
30
0
10
-27.166998525579437
20
-2.9775272778751827
30
0
10
-27.331503951553444
20
-2.1998839011216136
30
0
10
-27.491917841065789
20
-1.4148038285022948
30
0
10
-27.635175355421051
20
-0.6190956765969835
30
0
10
-27.750552525741167
20
0.18575538491880986
30
0
10
-27.831514460789425
20
0.99179198068181873
30
0
10
-27.878432645135401
20
1.781415267997001
30
0
10
-27.897305900224417
20
2.5305743616464014
30
0
10
-27.896645202565477
20
3.2148642649738006
30
0
10
-27.88477079973844
20
3.8150009909020177
30
0
10
-27.867305048688124
20
4.3219064265184235
30
0
10
-27.843698313906874
20
4.7435254689982926
30
0
10
-27.807121800708309
20
5.1055932087482034
30
0
10
-27.749612472239889
20
5.4421726889845266
30
0
10
-27.66705932015542
20
5.7876548252744184
30
0
10
-27.561273597839218
20
6.1706322542923155
30
0
10
-27.434008873652548
20
6.6150805313260399
30
0
10
-27.281860284239201
20
7.1401617055090538
30
0
10
-27.092845158212899
20
7.7602154977403224
30
0
10
-26.851844459966262
20
8.4829225063808469
30
0
10
-26.544530366440586
20
9.3078573464669478
30
0
10
-26.161970395281955
20
10.224821182981273
30
0
10
-25.704763619173171
20
11.212413289041871
30
0
10
-25.187804235642229
20
12.236155539628209
30
0
10
-24.643544571808317
20
13.247801671895134
30
0
10
-24.112745847333787
20
14.194657981785925
30
0
10
-23.636165164405543
20
15.028195364146345
30
0
10
-23.246171289625472
20
15.712614071194684
30
0
10
-22.957740602821243
20
16.234151139736277
30
0
10
-22.761230521591145
20
16.608389197046314
30
0
10
-22.610754616201028
20
16.892463525959858
30
0
10
-22.425831413833457
20
17.182514822611445
30
0
10
-22.126847458675577
20
17.573608573600161
30
0
10
-21.667775867124369
20
18.12265612372267
30
0
10
-21.06066003074757
20
18.82061608199994
30
0
10
-20.353958965583068
20
19.616524423438065
30
0
10
-19.617650842559936
20
20.433916844403246
30
0
10
-18.92615060590802
20
21.189753932313145
30
0
10
-18.341089872419268
20
21.81338670523083
30
0
10
-17.896647157851568
20
22.262925662305086
30
0
10
-17.577738783459672
20
22.54898246878831
30
0
10
-17.321599310353356
20
22.734204664905864
30
0
10
-17.056945853279124
20
22.893904269668855
30
0
10
-16.740069802683564
20
23.079859645974381
30
0
10
-16.376406213798994
20
23.299129760461376
30
0
10
-15.99638351812443
20
23.53943938072527
30
0
10
-15.639696335685604
20
23.786741974790093
30
0
10
-15.338434955916496
20
24.041543948101648
30
0
10
-15.112599989114075
20
24.314400788431673
30
0
10
-14.961935422100689
20
24.625892420243982
30
0
10
-14.862652063357068
20
25.002859510697959
30
0
10
-14.783511631675346
20
25.464858358308994
30
0
10
-14.700429740902459
20
26.01055197482335
30
0
10
-14.609560843786051
20
26.606912711449844
30
0
10
-14.519090029422983
20
27.20606505399148
30
0
10
-14.442655040980352
20
27.76031194926405
30
0
10
-14.392811704574587
20
28.236598464269509
30
0
10
-14.3727872489308
20
28.634415930583156
30
0
10
-14.380301871628662
20
28.979396213374859
30
0
10
-14.413600877797684
20
29.310200993399164
30
0
10
-14.479004599573509
20
29.66760025506726
30
0
10
-14.58585282136621
20
30.08389018789601
30
0
10
-14.737496041454012
20
30.575028435833236
30
0
10
-14.920958314965304
20
31.12851108396309
30
0
10
-15.109727638214398
20
31.708859083772811
30
0
10
-15.274979610736937
20
32.27296784534979
30
0
10
-15.393286123871942
20
32.781810487508302
30
0
10
-15.457780092898073
20
33.215049238889797
30
0
10
-15.481424812242759
20
33.579811627082812
30
0
10
-15.484196914703476
20
33.906663835191146
30
0
10
-15.482256477530553
20
34.248799231689475
30
0
10
-15.479627054914804
20
34.67792517544698
30
0
10
-15.473153605395256
20
35.272880271222256
30
0
10
-15.455160332068626
20
36.10919603472135
30
0
10
-15.416940008056297
20
37.248603636054554
30
0
10
-15.35210339107747
20
38.727745141423412
30
0
10
-15.256639453756195
20
40.559970080498069
30
0
10
-15.128580742026038
20
42.7383883374739
30
0
10
-14.967815732759572
20
45.238469542204641
30
0
10
-14.775838912130457
20
48.020833748571576
30
0
10
-14.555527645074026
20
51.033959716393795
30
0
10
-14.310907530033237
20
54.216928558220729
30
0
10
-14.046922719420198
20
57.502151947925185
30
0
10
-13.769204127080847
20
60.818107112807745
30
0
10
-13.483838521851112
20
64.092068337143203
30
0
10
-13.197137320558392
20
67.252841138020742
30
0
10
-12.915405339561293
20
70.233492527456264
30
0
10
-12.644709969461847
20
72.974089434596451
30
0
10
-12.390649226021937
20
75.424418737246611
30
0
10
-12.158122462822604
20
77.546750027654895
30
0
10
-11.951094861915186
20
79.318499482753168
30
0
10
-11.77237637098168
20
80.735123815546856
30
0
10
-11.623366936008177
20
81.81247838228218
30
0
10
-11.503882805368075
20
82.590464896162516
30
0
10
-11.411726495331507
20
83.132609664989161
30
0
10
-11.341705640958155
20
83.51697430978291
30
0
10
-11.284770622200194
20
83.828845406455343
30
0
10
-11.227094911075312
20
84.152747128652479
30
0
10
-11.149199697018961
20
84.564667137462209
30
0
10
-11.030336843938377
20
85.125988572199816
30
0
10
-10.853135324129106
20
85.877015233495214
30
0
10
-10.607676696448769
20
86.831568676955783
30
0
10
-10.296981063970335
20
87.968847144934898
30
0
10
-9.9358145335261732
20
89.238330042984856
30
0
10
-9.546239253976621
20
90.571053198083462
30
0
10
-9.1541900615251457
20
91.888875129677515
30
0
10
-8.7856225432524866
20
93.114583607508266
30
0
10
-8.4628501089878192
20
94.1816279885809
30
0
10
-8.2007877618145564
20
95.044044553229384
30
0
10
-8.0032637322442248
20
95.686224778314823
30
0
10
-7.8592354286745758
20
96.132928941272056
30
0
10
-7.7392439672105837
20
96.458663063949217
30
0
10
-7.6088333917553275
20
96.750365681084602
30
0
10
-7.4412762489571049
20
97.072082088197533
30
0
10
-7.2314665649074561
20
97.426225081964077
30
0
10
-6.9870531675387326
20
97.781062958805364
30
0
10
-6.7189471316566571
20
98.099827057970984
30
0
10
-6.4310280125439236
20
98.372664711299677
30
0
10
-6.1223404808893944
20
98.607437923503369
30
0
10
-5.7907699888226984
20
98.816119973608778
30
0
10
-5.4365297454715389
20
99.000750435276416
30
0
10
-5.0626621891037891
20
99.155871106691578
30
0
10
-4.674433103470454
20
99.274694130261466
30
0
10
-4.2797467950822332
20
99.354465974981267
30
0
10
-3.8858324369511301
20
99.398293104306163
30
0
10
-3.4960721017749807
20
99.414301779311089
30
0
10
-3.1044708821139078
20
99.417814941802021
30
0
10
-2.7019969689711356
20
99.422778832996542
30
0
10
-2.2854348485791296
20
99.432378160585415
30
0
10
-1.8706242804956352
20
99.423127919153714
30
0
10
-1.4820881231884755
20
99.360049790404616
30
0
10
-1.1324416653097173
20
99.224897785864783
30
0
10
-0.79633401724266184
20
99.051799365516587
30
0
10
-0.41979094015489815
20
98.915811404665831
30
0
10
0.044239072452515182
20
98.88624968059203
30
0
10
0.59966346214457045
20
98.979981081051562
30
0
10
1.201379025244786
20
99.151942353293464
30
0
10
1.7885360166078255
20
99.334061760463328
30
0
10
2.305801887049443
20
99.459530908889747
30
0
10
2.7325815470163386
20
99.496356978480435
30
0
10
3.0998651121454972
20
99.467268692896965
30
0
10
3.456224908002818
20
99.414744362689319
30
0
10
3.838413375684727
20
99.371073588706963
30
0
10
4.244398091291373
20
99.330752679315708
30
0
10
4.6540752206332003
20
99.271324474438359
30
0
10
5.0460194064837802
20
99.17016267444879
30
0
10
5.415145929818058
20
99.022216788935609
30
0
10
5.7645146828394029
20
98.832647635800996
30
0
10
6.0982542320205635
20
98.610521259910783
30
0
10
6.413751847494165
20
98.361900590977754
30
0
10
6.7051052418556711
20
98.090024461348719
30
0
10
6.9667604817515105
20
97.795555780587463
30
0
10
7.1973155292778781
20
97.476990500719879
30
0
10
7.3998615932799616
20
97.129000542060993
30
0
10
7.5818211709901009
20
96.740856413359282
30
0
10
7.7552300251369815
20
96.294167408607493
30
0
10
7.9344098837450137
20
95.766856445777819
30
0
10
8.1330445904282467
20
95.138585992635058
30
0
10
8.3617100892751939
20
94.395234642818068
30
0
10
8.6246209752493925
20
93.534831550899696
30
0
10
8.9190543112265388
20
92.568685001745351
30
0
10
9.2373883748243522
20
91.517858767495454
30
0
10
9.5684287721758707
20
90.410905526816236
30
0
10
9.8990349604702903
20
89.281089973533653
30
0
10
10.215596741127053
20
88.163823396715344
30
0
10
10.505624863836189
20
87.094023837459943
30
0
10
10.759176809210249
20
86.103469675944297
30
0
10
10.970636542289149
20
85.21825004847679
30
0
10
11.139325190446051
20
84.455845763866293
30
0
10
11.268439085574254
20
83.821749960283171
30
0
10
11.364394341383644
20
83.306091969247703
30
0
10
11.436003238896822
20
82.88049313935916
30
0
10
11.493731695561401
20
82.494274369073523
30
0
10
11.548896613395247
20
82.072524302576312
30
0
10
11.612688896004773
20
81.52905209288862
30
0
10
11.695177256950824
20
80.778325748146145
30
0
10
11.804382160987409
20
79.747112162793286
30
0
10
11.945160709906691
20
78.387992228822839
30
0
10
12.119344455536735
20
76.679204348447996
30
0
10
12.326202166074049
20
74.620882544228351
30
0
10
12.562792319758813
20
72.232521362758064
30
0
10
12.824361790271748
20
69.549926685043104
30
0
10
13.104724665214265
20
66.622387511256832
30
0
10
13.3966496235136
20
63.509752735180172
30
0
10
13.692243557309487
20
60.279549078711156
30
0
10
13.983336934843724
20
57.004081116876499
30
0
10
14.261868100864206
20
53.757539737909184
30
0
10
14.52026875067498
20
50.613105470861946
30
0
10
14.751847239647688
20
47.640057579156178
30
0
10
14.951176696750112
20
44.900872374639206
30
0
10
15.114472109999904
20
42.448345295011983
30
0
10
15.23999301644443
20
40.32265808247584
30
0
10
15.328386788822094
20
38.548572978682998
30
0
10
15.383170003456378
20
37.13233152164085
30
0
10
15.410887558617546
20
36.059242242349335
30
0
10
15.422058101766433
20
35.28959097852082
30
0
10
15.429314934216162
20
34.760436928612805
30
0
10
15.44192095603502
20
34.394367650272812
30
0
10
15.461555782606396
20
34.106638563625154
30
0
10
15.476831563907369
20
33.812591995324041
30
0
10
15.460516565312288
20
33.436019235216243
30
0
10
15.385148779261126
20
32.925850669803118
30
0
10
15.237307214527032
20
32.272681368415697
30
0
10
15.031330634765826
20
31.523623515705367
30
0
10
14.798652444088932
20
30.755471906315531
30
0
10
14.578573293728084
20
30.050751578825722
30
0
10
14.408100072492307
20
29.470906047843698
30
0
10
14.313064383902645
20
29.034752227468644
30
0
10
14.296417883153833
20
28.684307086928847
30
0
10
14.342804174819154
20
28.321997429666126
30
0
10
14.427684366854876
20
27.863171885993715
30
0
10
14.525589419096214
20
27.295560642558478
30
0
10
14.615573919561156
20
26.670997570040686
30
0
10
14.685537626973264
20
26.063338079500987
30
0
10
14.735825971315624
20
25.54088790914772
30
0
10
14.785700625894547
20
25.124620674903881
30
0
10
14.870130699309128
20
24.779624128744899
30
0
10
15.021480980191871
20
24.457525885843431
30
0
10
15.251015049772732
20
24.13489174485294
30
0
10
15.540727848752381
20
23.832727402589029
30
0
10
15.863077808291081
20
23.579594613129188
30
0
10
16.197895080800638
20
23.380520477774827
30
0
10
16.543001837107592
20
23.198846478814666
30
0
10
16.898586212388764
20
22.992645584511735
30
0
10
17.253882529747131
20
22.745786905655272
30
0
10
17.579162215535227
20
22.489618328289236
30
0
10
17.852230004888881
20
22.259302650432915
30
0
10
18.08244345991783
20
22.055998398199179
30
0
10
18.330127505003954
20
21.814494475602586
30
0
10
18.665930942762234
20
21.454833568135165
30
0
10
19.134794913880086
20
20.927266616863186
30
0
10
19.719701388706106
20
20.257807309175409
30
0
10
20.364189718993618
20
19.519177032036911
30
0
10
20.992996363891201
20
18.804164601569774
30
0
10
21.533140538897481
20
18.198449868105701
30
0
10
21.935448116254676
20
17.75275557009255
30
0
10
22.194411072287533
20
17.457402916601584
30
0
10
22.372683210015083
20
17.210223363338905
30
0
10
22.562867440659865
20
16.873530357064265
30
0
10
22.846572338568439
20
16.3346161339093
30
0
10
23.24889633128539
20
15.573626269038181
30
0
10
23.747502664147486
20
14.646357984193354
30
0
10
24.29146236029943
20
13.651902541122205
30
0
10
24.816651703602442
20
12.705630351355232
30
0
10
25.262608691073542
20
11.909912858513298
30
0
10
25.588742893639335
20
11.325849792272502
30
0
10
25.790871958153527
20
10.944482163148528
30
0
10
25.917456104990855
20
10.658510511887812
30
0
10
26.037108117809368
20
10.327943082313844
30
0
10
26.207382923221235
20
9.843090940612937
30
0
10
26.440945105975509
20
9.1930911742845218
30
0
10
26.718008774950569
20
8.4367708912918555
30
0
10
27.001181352839545
20
7.6685139664258113
30
0
10
27.250226537899135
20
6.9841175860335802
30
0
10
27.435067417803907
20
6.4507876691978261
30
0
10
27.554040748168799
20
6.0649920994310769
30
0
10
27.628366123335248
20
5.7652894721839045
30
0
10
27.685141834467153
20
5.4720565203431555
30
0
10
27.740740158052031
20
5.1254898929674368
30
0
10
27.796875565336322
20
4.6973642726254941
30
0
10
27.847872866724074
20
4.1787448881713836
30
0
10
27.88517810523723
20
3.5742865111885842
30
0
10
27.900816297013531
20
2.8961115290873285
30
0
10
27.887707612741153
20
2.1616560483869289
30
0
10
27.840958009329736
20
1.3901849970062297
30
0
10
27.758681796974024
20
0.59997892134461051
30
0
10
27.643177407860357
20
-0.19504183728025215
30
0
10
27.50148804949081
20
-0.98761746272158513
30
0
10
27.343633627364706
20
-1.7752504609500463
30
0
10
27.181170172696
20
-2.5588976282083298
30
0
10
27.025610998561106
20
-3.3414212947256869
30
0
10
26.886932290065854
20
-4.1261693256301273
30
0
10
26.771981757934501
20
-4.9154375822617977
30
0
10
26.68310253956718
20
-5.7091609500786511
30
0
10
26.619303208733747
20
-6.5062085587649756
30
0
10
26.577262408918592
20
-7.3055123883471804
30
0
10
26.552393580662859
20
-8.1072537577870687
30
0
10
26.539889874974577
20
-8.9140369473964896
30
0
10
26.535764080646405
20
-9.7320407892047101
30
0
10
26.537927633925086
20
-10.572255113087794
30
0
10
26.545847194545999
20
-11.448840541570295
30
0
10
26.56015358317779
20
-12.377398048442135
30
0
10
26.582266102103741
20
-13.373257478786329
30
0
10
26.614015184514578
20
-14.449790017665553
30
0
10
26.65725458657592
20
-15.616636319301868
30
0
10
26.713504202469235
20
-16.878143836442042
30
0
10
26.783515320285403
20
-18.231287843332254
30
0
10
26.867116572893082
20
-19.665451944155663
30
0
10
26.963370578133027
20
-21.164264482310919
30
0
10
27.070648684191386
20
-22.706893730469652
30
0
10
27.1867391530064
20
-24.269562719664609
30
0
10
27.308940852179852
20
-25.826971952324669
30
0
10
27.434163568043083
20
-27.35375719244939
30
0
10
27.559024555464148
20
-28.825942692809718
30
0
10
27.679948812710734
20
-30.222371905455368
30
0
10
27.793262850448158
20
-31.526204830635809
30
0
10
27.895302705653968
20
-32.726253745673105
30
0
10
27.98248770245393
20
-33.8187156133542
30
0
10
28.05151423973885
20
-34.807501146204181
30
0
10
28.099687945864794
20
-35.702887571662544
30
0
10
28.12522599967728
20
-36.520613823835383
30
0
10
28.127559060941628
20
-37.280773549358507
30
0
10
28.107662182699546
20
-38.006846068126386
30
0
10
28.068305887384554
20
-38.724547871323253
30
0
10
28.014511327914519
20
-39.461063707394544
30
0
10
27.953108484569054
20
-40.242680628321523
30
0
10
27.891764934333008
20
-41.091512688615538
30
0
10
27.83816976031099
20
-42.02244908999667
30
0
10
27.799166871410492
20
-43.040126774840921
30
0
10
27.779878621315422
20
-44.135622595213306
30
0
10
27.782907318777788
20
-45.283899846148117
30
0
10
27.807311197484935
20
-46.439280416419983
30
0
10
27.849098254311372
20
-47.543938365349227
30
0
10
27.902113387511097
20
-48.539705439602805
30
0
10
27.9587909872496
20
-49.378835929776237
30
0
10
28.01096610447545
20
-50.035022165195706
30
0
10
28.050655360646843
20
-50.514731855872704
30
0
10
28.070862785195729
20
-50.867396899386094
30
0
10
28.066345569904165
20
-51.198766711058155
30
0
10
28.034748392974276
20
-51.623299326551724
30
0
10
27.977633700020228
20
-52.216774649619765
30
0
10
27.901815712618951
20
-52.961679308900848
30
0
10
27.817566345256608
20
-53.776506487988918
30
0
10
27.736470167584738
20
-54.554814974940882
30
0
10
27.669296735628581
20
-55.203460644840412
30
0
10
27.624107584676732
20
-55.675199413480755
30
0
10
27.603661423317398
20
-56.018529125321699
30
0
10
27.605732084673935
20
-56.356429346201608
30
0
10
27.625376233367675
20
-56.820435942767162
30
0
10
27.656909316591232
20
-57.486094122620997
30
0
10
27.694951149790192
20
-58.351798074710985
30
0
10
27.734209862554465
20
-59.368486211643884
30
0
10
27.769623134496747
20
-60.455240874203682
30
0
10
27.796360138237908
20
-61.520293149263672
30
0
10
27.809865236076959
20
-62.480590849673376
30
0
10
27.805925789747267
20
-63.27992505314684
30
0
10
27.780621840945425
20
-63.912917386741448
30
0
10
27.730919998315859
20
-64.418702370664931
30
0
10
27.655651867143479
20
-64.859355036687447
30
0
10
27.556250918122139
20
-65.304107636130141
30
0
10
27.437866085757317
20
-65.808944211492886
30
0
10
27.309394437710036
20
-66.405555821382421
30
0
10
27.18138187413161
20
-67.107154455768352
30
0
10
27.064367741237952
20
-67.910789831513284
30
0
10
26.967065763361624
20
-68.801060566678672
30
0
10
26.894582858458801
20
-69.753227159756591
30
0
10
26.846711556863163
20
-70.736588459272397
30
0
10
26.819164087214649
20
-71.717822407171255
30
0
10
26.804705682014962
20
-72.664395569465057
30
0
10
26.794321671730433
20
-73.54789718140826
30
0
10
26.77837995801864
20
-74.347511927674091
30
0
10
26.74777280597208
20
-75.053185648917392
30
0
10
26.695121904035332
20
-75.669516237539469
30
0
10
26.615788859502132
20
-76.217528762935615
30
0
10
26.508028218697586
20
-76.727737080954384
30
0
10
26.373296254902783
20
-77.234385961069222
30
0
10
26.21643445302055
20
-77.7694140849364
30
0
10
26.046074196474088
20
-78.356060225929241
30
0
10
25.873056015427007
20
-79.008234946431855
30
0
10
25.708629786717374
20
-79.730786397138502
30
0
10
25.562651909908197
20
-80.519321821017229
30
0
10
25.441965104160204
20
-81.360498555685439
30
0
10
25.348248352481679
20
-82.231409915050222
30
0
10
25.278080282896873
20
-83.102472320510273
30
0
10
25.224645130968419
20
-83.942946567913651
30
0
10
25.17893797449203
20
-84.725541455994815
30
0
10
25.131220332161078
20
-85.431721388396937
30
0
10
25.072266266340634
20
-86.055957222942467
30
0
10
24.994949684589724
20
-86.612287762619502
30
0
10
24.894739385019435
20
-87.132888194568267
30
0
10
24.768899217052336
20
-87.656945395869727
30
0
10
24.61603769535866
20
-88.222249856815793
30
0
10
24.435476649701151
20
-88.855183902429289
30
0
10
24.226810139727451
20
-89.562841529187992
30
0
10
23.990429015730541
20
-90.337660954573067
30
0
10
23.727958883365417
20
-91.16088521778174
30
0
10
23.442730323802465
20
-92.006471835844877
30
0
10
23.140236540380485
20
-92.844804288289424
30
0
10
22.828594049121151
20
-93.646505596049948
30
0
10
22.519003654138952
20
-94.386166303857934
30
0
10
22.22297282307246
20
-95.044319440239008
30
0
10
21.949734591865756
20
-95.609242188302929
30
0
10
21.703263129321229
20
-96.079179891575421
30
0
10
21.480213436400675
20
-96.46357578158333
30
0
10
21.265566526379381
20
-96.786786002289233
30
0
10
21.039426066830945
20
-97.079559376618477
30
0
10
20.786171378108502
20
-97.367593103015352
30
0
10
20.50650509468753
20
-97.657626576737641
30
0
10
20.211935559142312
20
-97.940342877744499
30
0
10
19.912312004921603
20
-98.201712488911369
30
0
10
19.600163749201045
20
-98.433875264120303
30
0
10
19.257373504723176
20
-98.637246926560323
30
0
10
18.874079852253946
20
-98.815205780444074
30
0
10
18.473129167137607
20
-98.97024484934569
30
0
10
18.099345479771884
20
-99.102388979976297
30
0
10
17.779816548410658
20
-99.211080496833262
30
0
10
17.479380885196125
20
-99.29625040107311
30
0
10
17.101119514370055
20
-99.359055134413964
30
0
10
16.546328241915308
20
-99.401412921864321
30
0
10
15.768475341767543
20
-99.42589519736508
30
0
10
14.800662085043204
20
-99.435401551598432
30
0
10
13.721838505044177
20
-99.432756973749434
30
0
10
12.63688822443533
20
-99.420305545724972
30
0
10
11.651980495493842
20
-99.399525189291197
30
0
10
10.849950346314756
20
-99.370590027084631
30
0
10
10.270326390474747
20
-99.332056472870178
30
0
10
9.8758490200150426
20
-99.280245183325206
30
0
10
9.5706229533261613
20
-99.209776899695385
30
0
10
9.2556287380350923
20
-99.115065307630886
30
0
10
8.8866424785275164
20
-98.991632358342628
30
0
10
8.4863302294436362
20
-98.837123426418643
30
0
10
8.0989353521152267
20
-98.651423058019091
30
0
10
7.7533221577443046
20
-98.437523845422291
30
0
10
7.4446876558379813
20
-98.200512327646535
30
0
10
7.1570453519238626
20
-97.944606737129533
30
0
10
6.8780508714393456
20
-97.669508524578418
30
0
10
6.6095878573748701
20
-97.370359644073574
30
0
10
6.3589503716832061
20
-97.044338870620265
30
0
10
6.1338769009323659
20
-96.697772850392013
30
0
10
5.9376325879247052
20
-96.347704344339817
30
0
10
5.7705395692277186
20
-96.007003634952937
30
0
10
5.6301054187982702
20
-95.670081937430083
30
0
10
5.5119216262273376
20
-95.304648418528203
30
0
10
5.4113159407475973
20
-94.875356662450528
30
0
10
5.3250510330598253
20
-94.364469403681738
30
0
10
5.2527859637915384
20
-93.789730385841494
30
0
10
5.1965080051341719
20
-93.186317263567261
30
0
10
5.1601848935951358
20
-92.591827216938881
30
0
10
5.1492763017254806
20
-92.031337454532647
30
0
10
5.1704510048490695
20
-91.499228470399117
30
0
10
5.2300130812928618
20
-90.967112162261884
30
0
10
5.3318785430529694
20
-90.399048406221112
30
0
10
5.4759543525569008
20
-89.763114688027969
30
0
10
5.6557582585643029
20
-89.047235514131387
30
0
10
5.8585897902902415
20
-88.262904302782331
30
0
10
6.0686935824568335
20
-87.435292650715837
30
0
10
6.2696036392351449
20
-86.596965673614918
30
0
10
6.4469199969846605
20
-85.779887741221344
30
0
10
6.5906711956422592
20
-85.008724246328057
30
0
10
6.698410518390471
20
-84.292217487807065
30
0
10
6.7761234398549197
20
-83.620004807910874
30
0
10
6.8349344705442592
20
-82.969765083865155
30
0
10
6.8887066623257098
20
-82.312170562214732
30
0
10
6.9513035415979907
20
-81.616678019954065
30
0
10
7.0339494782669734
20
-80.85705126785713
30
0
10
7.1426768283972555
20
-80.016745569497999
30
0
10
7.2792722827473497
20
-79.087403354317871
30
0
10
7.4420742594113429
20
-78.067648733771591
30
0
10
7.62682652970165
20
-76.961768590689076
30
0
10
7.8275087782052912
20
-75.77844095217749
30
0
10
8.0371750687037817
20
-74.529445383516418
30
0
10
8.2487935209166157
20
-73.228375813632155
30
0
10
8.4560745205020922
20
-71.889364983620609
30
0
10
8.6543337828817819
20
-70.525769335028798
30
0
10
8.8403421459991147
20
-69.150024295487697
30
0
10
9.0121357605938428
20
-67.773545396367993
30
0
10
9.1688408233245475
20
-66.406612673404467
30
0
10
9.3104920863069509
20
-65.058261962907153
30
0
10
9.4378542501957359
20
-63.736173597802157
30
0
10
9.5522416657319429
20
-62.446561332098803
30
0
10
9.6553398367346261
20
-61.194063185313816
30
0
10
9.7490236725720454
20
-59.981626711197706
30
0
10
9.8351829787681115
20
-58.810407783427351
30
0
10
9.9155294971749957
20
-57.679634288193725
30
0
10
9.9915455786960798
20
-56.58673962840048
30
0
10
10.064461043027809
20
-55.527549600655959
30
0
10
10.135220574096838
20
-54.496451973338452
30
0
10
10.204454443692123
20
-53.4865706717408
30
0
10
10.27244929157365
20
-52.489944078331867
30
0
10
10.339115416356027
20
-51.497687352784148
30
0
10
10.403963691156344
20
-50.500194953235862
30
0
10
10.466057400244569
20
-49.487239984523569
30
0
10
10.524106095955423
20
-48.448656502944587
30
0
10
10.576607991430663
20
-47.375221452896739
30
0
10
10.621976218542574
20
-46.259469397418805
30
0
10
10.658672067597141
20
-45.096538263227075
30
0
10
10.685334667717694
20
-43.884995045187424
30
0
10
10.700913506795215
20
-42.627685853859212
30
0
10
10.704796691665274
20
-41.33253902250388
30
0
10
10.696948281553258
20
-40.013475332868218
30
0
10
10.678020885035828
20
-38.691022388970829
30
0
10
10.649201680021578
20
-37.389755147344424
30
0
10
10.612078417117793
20
-36.135965288621918
30
0
10
10.568497321124612
20
-34.955255955600592
30
0
10
10.520425585204435
20
-33.870140076934028
30
0
10
10.469809235454214
20
-32.897702271732584
30
0
10
10.418439160793929
20
-32.047081973517749
30
0
10
10.367799204673663
20
-31.317386990284881
30
0
10
10.318957497228309
20
-30.694553356727013
30
0
10
10.272304486824304
20
-30.151889903967071
30
0
10
10.227079521304692
20
-29.655269952949791
30
0
10
10.180977650827227
20
-29.167095342824698
30
0
10
10.129665071285107
20
-28.650867014691876
30
0
10
10.066503629064897
20
-28.075186172472428
30
0
10
9.9839753111013536
20
-27.414885493016392
30
0
10
9.8749321649590911
20
-26.652355905412879
30
0
10
9.7339558861006363
20
-25.778872592473611
30
0
10
9.5585719848867416
20
-24.795755207956134
30
0
10
9.3507850269858128
20
-23.716034127249017
30
0
10
9.1163068653002846
20
-22.562252000456631
30
0
10
8.8632964350723427
20
-21.363437081472412
30
0
10
8.6012703724649366
20
-20.152367946636627
30
0
10
8.3399359180238335
20
-18.962703104107923
30
0
10
8.0880711140350936
20
-17.826198233613074
30
0
10
7.8523523346424584
20
-16.76981699954737
30
0
10
7.6362797281545181
20
-15.813047659247825
30
0
10
7.438880159612566
20
-14.964748042819718
30
0
10
7.2540535532649475
20
-14.221346432506765
30
0
10
7.0735058269790221
20
-13.572283159719476
30
0
10
6.8890605185400267
20
-13.004400031884815
30
0
10
6.6955547175224854
20
-12.507016780325754
30
0
10
6.492695524548453
20
-12.076071338958108
30
0
10
6.2893968921242038
20
-11.720337034169289
30
0
10
6.0879596274108527
20
-11.449797293873603
30
0
10
5.8686895281075415
20
-11.263260438594491
30
0
10
5.5677022576523862
20
-11.132735734048271
30
0
10
5.1091224526218468
20
-11.016879012981885
30
0
10
4.4444889932014728
20
-10.879074075863668
30
0
10
3.598211680927315
20
-10.707063217910125
30
0
10
2.6528697425112484
20
-10.510707518044534
30
0
10
1.7155371748127093
20
-10.312764540821098
30
0
10
0.89167475894405823
20
-10.14222888360794
30
0
10
0.25334869625078721
20
-10.026197860497138
30
0
10
-0.18428699126751474
20
-9.9833027576281488
30
0
10
-0.50473158638625515
20
-10.01411366046008
30
0
10
-0.85211578566840807
20
-10.104582633230482
30
0
10
-1.3609987785881863
20
-10.235315785908956
30
0
10
-2.081274629407293
20
-10.39038556263977
30
0
10
-2.96921289002873
20
-10.560518789553505
30
0
10
-3.9298711871007859
20
-10.741512855523091
30
0
10
-4.8431490292665718
20
-10.934111708752885
30
0
10
-5.5984332296743773
20
-11.143284021210189
30
0
10
-6.1213288588541959
20
-11.377741239261914
30
0
10
-6.4141893574632043
20
-11.649394003025064
30
0
10
-6.5513406392981146
20
-11.972656284666812
30
0
10
-6.6306320578120612
20
-12.363394381453281
30
0
10
-6.7294435080982504
20
-12.838145519256406
30
0
10
-6.883172159011167
20
-13.41263900800956
30
0
10
-7.101023883379451
20
-14.099511753315825
30
0
10
-7.3721051571778133
20
-14.906180486124343
30
0
10
-7.6752997903177356
20
-15.832744768241099
30
0
10
-7.9879341317267869
20
-16.869654355239959
30
0
10
-8.2937577496728316
20
-17.996132691503952
30
0
10
-8.5813769456169844
20
-19.183608623393649
30
0
10
-8.8438267925245828
20
-20.39860869205426
30
0
10
-9.0777000943268842
20
-21.605843276574511
30
0
10
-9.2824616780678699
20
-22.771241973726109
30
0
10
-9.4596911943163757
20
-23.8649372351721
30
0
10
-9.6123376933924121
20
-24.864441268897085
30
0
10
-9.744013631034278
20
-25.757340225307178
30
0
10
-9.8581619717316258
20
-26.545183650599284
30
0
10
-9.9577112837620128
20
-27.242973022690393
30
0
10
-10.045226952446185
20
-27.874242602596709
30
0
10
-10.122929664781735
20
-28.467271907404218
30
0
10
-10.192764836133179
20
-29.050965149368487
30
0
10
-10.256458017246569
20
-29.65056693035967
30
0
10
-10.31555259148446
20
-30.284378931194883
30
0
10
-10.371321238737414
20
-30.965242146495452
30
0
10
-10.424697741851626
20
-31.701325108179809
30
0
10
-10.476198452126841
20
-32.497193215888608
30
0
10
-10.525853556533791
20
-33.354735182603065
30
0
10
-10.573119678767251
20
-34.274212560743997
30
0
10
-10.617004613247296
20
-35.254385717483302
30
0
10
-10.6562142188279
20
-36.292553691930408
30
0
10
-10.689291056985091
20
-37.384624940559526
30
0
10
-10.714757298258309
20
-38.525173280888943
30
0
10
-10.731253967307808
20
-39.707504326500271
30
0
10
-10.737686011294688
20
-40.923707748514495
30
0
10
-10.733354874249033
20
-42.164738308999233
30
0
10
-10.718122618702804
20
-43.420425094193334
30
0
10
-10.692348111035589
20
-44.679997691709133
30
0
10
-10.656773183191387
20
-45.932725018166998
30
0
10
-10.612425875303215
20
-47.168517059017596
30
0
10
-10.56051676111454
20
-48.378538569853077
30
0
10
-10.502337672027585
20
-49.555825995205268
30
0
10
-10.439160723511394
20
-50.695883655075136
30
0
10
-10.372134111565083
20
-51.797333899851019
30
0
10
-10.302186562531851
20
-52.862438577060885
30
0
10
-10.229909693001629
20
-53.897942657335378
30
0
10
-10.15554099683129
20
-54.914453971294719
30
0
10
-10.079001301016961
20
-55.92502584450807
30
0
10
-9.9999156467483967
20
-56.943990827593311
30
0
10
-9.9176404007836929
20
-57.985680777618541
30
0
10
-9.831289160784797
20
-59.063217764667392
30
0
10
-9.739755764587656
20
-60.187223217234767
30
0
10
-9.6417465266411746
20
-61.36468218199748
30
0
10
-9.5357886037670383
20
-62.597441873250077
30
0
10
-9.4203335595564219
20
-63.8821426414274
30
0
10
-9.2939369416027322
20
-65.211285413925907
30
0
10
-9.1554156673354203
20
-66.573972762032213
30
0
10
-9.0040153361307027
20
-67.956784555197899
30
0
10
-8.8395714493003261
20
-69.344594844764046
30
0
10
-8.662677533480462
20
-70.721416487571091
30
0
10
-8.4748403707029709
20
-72.071228079578233
30
0
10
-8.2786638620421478
20
-73.378821826774285
30
0
10
-8.0779666995756099
20
-74.630611296702497
30
0
10
-7.8780604038651125
20
-75.815532584860122
30
0
10
-7.6854821313584321
20
-76.925630705766977
30
0
10
-7.5069586428855803
20
-77.956205686890684
30
0
10
-7.3485602955740266
20
-78.906063709297854
30
0
10
-7.2147728125054442
20
-79.777730825229611
30
0
10
-7.1076164727474955
20
-80.577671175135379
30
0
10
-7.0257163900861244
20
-81.316530147082545
30
0
10
-6.96346099842809
20
-82.009303564517154
30
0
10
-6.909942246693431
20
-82.675708129970076
30
0
10
-6.8514666518206822
20
-83.337246130146269
30
0
10
-6.7742374685417603
20
-84.014129799608654
30
0
10
-6.6671096450603979
20
-84.722095747092425
30
0
10
-6.5240081835213726
20
-85.46963079206418
30
0
10
-6.3472603891724342
20
-86.254103104488877
30
0
10
-6.1467869131535995
20
-87.06283366514063
30
0
10
-5.9368949625719623
20
-87.877017022562455
30
0
10
-5.733860547933384
20
-88.674719563604043
30
0
10
-5.55306818774564
20
-89.434364309640543
30
0
10
-5.406609012991578
20
-90.137764620398258
30
0
10
-5.3000164137713588
20
-90.773951616293388
30
0
10
-5.232059390523486
20
-91.340258128385386
30
0
10
-5.1974053019322097
20
-91.840944944727511
30
0
10
-5.1884548521494605
20
-92.286380598091199
30
0
10
-5.1976030895126035
20
-92.692265856886479
30
0
10
-5.2190542659569719
20
-93.078048189919798
30
0
10
-5.2491602940404238
20
-93.461445209392878
30
0
10
-5.287000277660229
20
-93.853102094124253
30
0
10
-5.334714745643609
20
-94.252235245758243
30
0
10
-5.3963787384145467
20
-94.652357006818704
30
0
10
-5.4769943349491559
20
-95.046155935851829
30
0
10
-5.5814418254789775
20
-95.43047517496575
30
0
10
-5.7134289490724575
20
-95.804492608477133
30
0
10
-5.8744588227895473
20
-96.168226382847394
30
0
10
-6.0627310458395396
20
-96.520872919704388
30
0
10
-6.2747324419464015
20
-96.861111894433122
30
0
10
-6.5068523821598223
20
-97.18741481178651
30
0
10
-6.757088545562592
20
-97.498402830796067
30
0
10
-7.0250331319375983
20
-97.792546271992208
30
0
10
-7.3115567354462545
20
-98.067840828625293
30
0
10
-7.6188662115133186
20
-98.321400433406751
30
0
10
-7.9484924749696875
20
-98.549915697031423
30
0
10
-8.2993964272646306
20
-98.750285370778414
30
0
10
-8.6650582016358584
20
-98.920173576080401
30
0
10
-9.0371589627835256
20
-99.058603550762726
30
0
10
-9.4106237593158006
20
-99.166404928646784
30
0
10
-9.7893009288438186
20
-99.246980790745866
30
0
10
-10.185343983213293
20
-99.305521851542537
30
0
10
-10.615608433715325
20
-99.347692674706408
30
0
10
-11.099346969742685
20
-99.378289153316658
30
0
10
-11.653735588348582
20
-99.40082947091787
30
0
10
-12.288126847026032
20
-99.417761680870157
30
0
10
-12.999359227479747
20
-99.43047624916035
30
0
10
-13.765060432281985
20
-99.439402820190651
30
0
10
-14.542878302795474
20
-99.444060356252038
30
0
10
-15.284002062423026
20
-99.443090831328362
30
0
10
-15.811911058664021
20
-99.436053719246587
30
0
10
-16.158501368808626
20
-99.425899032587864
30
0
10
-16.367503368409785
20
-99.416457768899505
30
0
10
-16.466799999999999
20
-99.411000000000001
30
0
0
ENDSEC
0
SECTION
2
OBJECTS
0
DICTIONARY
5
C
100
AcDbDictionary
3
ACAD_GROUP
350
D
3
ACAD_MLINESTYLE
350
17
0
DICTIONARY
5
D
100
AcDbDictionary
0
DICTIONARY
5
1A
330
C
100
AcDbDictionary
0
DICTIONARY
5
17
100
AcDbDictionary
0
ENDSEC
0
EOF
