0
SECTION
2
HEADER
9
$INSUNITS
70
4
9
$ACADVER
1
AC1014
9
$HANDSEED
5
FFFF
0
ENDSEC
0
SECTION
2
TABLES
0
TABLE
2
VPORT
5
8
100
AcDbSymbolTable
0
ENDTAB
0
TABLE
2
LTYPE
5
5
100
AcDbSymbolTable
0
LTYPE
5
14
100
AcDbSymbolTableRecord
100
AcDbLinetypeTableRecord
2
BYBLOCK
70
0
0
LTYPE
5
15
100
AcDbSymbolTableRecord
100
AcDbLinetypeTableRecord
2
BYLAYER
70
0
0
LTYPE
5
16
100
AcDbSymbolTableRecord
100
AcDbLinetypeTableRecord
2
DASHED
70
0
3
Dashed __ __ __ __ __ __ __ __ __ __ __ __ __ _
72
65
73
2
40
0.75
49
0.5
74
0
49
-0.25
74
0
0
ENDTAB
0
TABLE
2
LAYER
5
2
100
AcDbSymbolTable
70
2
0
LAYER
5
50
100
AcDbSymbolTableRecord
100
AcDbLayerTableRecord
2
0
70
0
62
7
6
CONTINUOUS
0
ENDTAB
0
TABLE
2
STYLE
5
3
100
AcDbSymbolTable
70
1
0
STYLE
5
11
100
AcDbSymbolTableRecord
100
AcDbTextStyleTableRecord
2
STANDARD
70
0
0
ENDTAB
0
TABLE
2
VIEW
5
6
100
AcDbSymbolTable
70
0
0
ENDTAB
0
TABLE
2
UCS
5
7
100
AcDbSymbolTable
70
0
0
ENDTAB
0
TABLE
2
APPID
5
9
100
AcDbSymbolTable
70
2
0
APPID
5
12
100
AcDbSymbolTableRecord
100
AcDbRegAppTableRecord
2
ACAD
70
0
0
ENDTAB
0
TABLE
2
DIMSTYLE
5
A
100
AcDbSymbolTable
70
1
0
ENDTAB
0
TABLE
2
BLOCK_RECORD
5
1
100
AcDbSymbolTable
70
1
0
BLOCK_RECORD
5
1F
100
AcDbSymbolTableRecord
100
AcDbBlockTableRecord
2
*MODEL_SPACE
0
BLOCK_RECORD
5
1B
100
AcDbSymbolTableRecord
100
AcDbBlockTableRecord
2
*PAPER_SPACE
0
ENDTAB
0
ENDSEC
0
SECTION
2
BLOCKS
0
BLOCK
5
20
100
AcDbEntity
100
AcDbBlockBegin
2
*MODEL_SPACE
0
ENDBLK
5
21
100
AcDbEntity
100
AcDbBlockEnd
0
BLOCK
5
1C
100
AcDbEntity
100
AcDbBlockBegin
2
*PAPER_SPACE
0
ENDBLK
5
1D
100
AcDbEntity
100
AcDbBlockEnd
0
ENDSEC
0
SECTION
2
ENTITIES
0
SPLINE
5
100
100
AcDbEntity
8
0
100
AcDbSpline
70
6
71
5
72
736
73
730
74
0
42
0.000000001
43
0.0000000001
44
0.0000000001
40
0
40
0
40
0
40
0
40
0
40
0
40
0.0013793103448275861
40
0.0027586206896551722
40
0.0041379310344827579
40
0.0055172413793103444
40
0.0068965517241379309
40
0.0082758620689655175
40
0.009655172413793104
40
0.011034482758620691
40
0.012413793103448277
40
0.013793103448275864
40
0.01517241379310345
40
0.016551724137931035
40
0.01793103448275862
40
0.019310344827586205
40
0.020689655172413789
40
0.022068965517241374
40
0.023448275862068959
40
0.024827586206896544
40
0.026206896551724129
40
0.027586206896551713
40
0.028965517241379298
40
0.030344827586206883
40
0.031724137931034471
40
0.033103448275862056
40
0.034482758620689641
40
0.035862068965517226
40
0.03724137931034481
40
0.038620689655172395
40
0.03999999999999998
40
0.041379310344827565
40
0.04275862068965515
40
0.044137931034482734
40
0.045517241379310319
40
0.046896551724137904
40
0.048275862068965489
40
0.049655172413793074
40
0.051034482758620658
40
0.052413793103448243
40
0.053793103448275828
40
0.055172413793103413
40
0.056551724137930998
40
0.057931034482758582
40
0.059310344827586167
40
0.060689655172413752
40
0.062068965517241337
40
0.063448275862068929
40
0.06482758620689652
40
0.066206896551724112
40
0.067586206896551704
40
0.068965517241379296
40
0.070344827586206887
40
0.071724137931034479
40
0.073103448275862071
40
0.074482758620689662
40
0.075862068965517254
40
0.077241379310344846
40
0.078620689655172438
40
0.080000000000000029
40
0.081379310344827621
40
0.082758620689655213
40
0.084137931034482805
40
0.085517241379310396
40
0.086896551724137988
40
0.08827586206896558
40
0.089655172413793172
40
0.091034482758620763
40
0.092413793103448355
40
0.093793103448275947
40
0.095172413793103539
40
0.09655172413793113
40
0.097931034482758722
40
0.099310344827586314
40
0.10068965517241391
40
0.1020689655172415
40
0.10344827586206909
40
0.10482758620689668
40
0.10620689655172427
40
0.10758620689655186
40
0.10896551724137946
40
0.11034482758620705
40
0.11172413793103464
40
0.11310344827586223
40
0.11448275862068982
40
0.11586206896551741
40
0.11724137931034501
40
0.1186206896551726
40
0.12000000000000019
40
0.12137931034482778
40
0.12275862068965537
40
0.12413793103448297
40
0.12551724137931056
40
0.12689655172413813
40
0.12827586206896571
40
0.12965517241379329
40
0.13103448275862087
40
0.13241379310344845
40
0.13379310344827602
40
0.1351724137931036
40
0.13655172413793118
40
0.13793103448275876
40
0.13931034482758634
40
0.14068965517241391
40
0.14206896551724149
40
0.14344827586206907
40
0.14482758620689665
40
0.14620689655172422
40
0.1475862068965518
40
0.14896551724137938
40
0.15034482758620696
40
0.15172413793103454
40
0.15310344827586211
40
0.15448275862068969
40
0.15586206896551727
40
0.15724137931034485
40
0.15862068965517243
40
0.16
40
0.16137931034482758
40
0.16275862068965516
40
0.16413793103448274
40
0.16551724137931031
40
0.16689655172413789
40
0.16827586206896547
40
0.16965517241379305
40
0.17103448275862063
40
0.1724137931034482
40
0.17379310344827578
40
0.17517241379310336
40
0.17655172413793094
40
0.17793103448275852
40
0.17931034482758609
40
0.18068965517241367
40
0.18206896551724125
40
0.18344827586206883
40
0.1848275862068964
40
0.18620689655172398
40
0.18758620689655156
40
0.18896551724137914
40
0.19034482758620672
40
0.19172413793103429
40
0.19310344827586187
40
0.19448275862068945
40
0.19586206896551703
40
0.19724137931034461
40
0.19862068965517218
40
0.19999999999999976
40
0.20137931034482734
40
0.20275862068965492
40
0.20413793103448249
40
0.20551724137931007
40
0.20689655172413765
40
0.20827586206896523
40
0.20965517241379281
40
0.21103448275862038
40
0.21241379310344796
40
0.21379310344827554
40
0.21517241379310312
40
0.2165517241379307
40
0.21793103448275827
40
0.21931034482758585
40
0.22068965517241343
40
0.22206896551724101
40
0.22344827586206858
40
0.22482758620689616
40
0.22620689655172374
40
0.22758620689655132
40
0.2289655172413789
40
0.23034482758620647
40
0.23172413793103405
40
0.23310344827586163
40
0.23448275862068921
40
0.23586206896551679
40
0.23724137931034436
40
0.23862068965517194
40
0.23999999999999952
40
0.2413793103448271
40
0.24275862068965467
40
0.24413793103448225
40
0.24551724137930983
40
0.24689655172413741
40
0.24827586206896499
40
0.24965517241379256
40
0.25103448275862017
40
0.25241379310344775
40
0.25379310344827533
40
0.2551724137931029
40
0.25655172413793048
40
0.25793103448275806
40
0.25931034482758564
40
0.26068965517241321
40
0.26206896551724079
40
0.26344827586206837
40
0.26482758620689595
40
0.26620689655172353
40
0.2675862068965511
40
0.26896551724137868
40
0.27034482758620626
40
0.27172413793103384
40
0.27310344827586142
40
0.27448275862068899
40
0.27586206896551657
40
0.27724137931034415
40
0.27862068965517173
40
0.27999999999999931
40
0.28137931034482688
40
0.28275862068965446
40
0.28413793103448204
40
0.28551724137930962
40
0.28689655172413719
40
0.28827586206896477
40
0.28965517241379235
40
0.29103448275861993
40
0.29241379310344751
40
0.29379310344827508
40
0.29517241379310266
40
0.29655172413793024
40
0.29793103448275782
40
0.2993103448275854
40
0.30068965517241297
40
0.30206896551724055
40
0.30344827586206813
40
0.30482758620689571
40
0.30620689655172328
40
0.30758620689655086
40
0.30896551724137844
40
0.31034482758620602
40
0.3117241379310336
40
0.31310344827586117
40
0.31448275862068875
40
0.31586206896551633
40
0.31724137931034391
40
0.31862068965517149
40
0.31999999999999906
40
0.32137931034482664
40
0.32275862068965422
40
0.3241379310344818
40
0.32551724137930937
40
0.32689655172413695
40
0.32827586206896453
40
0.32965517241379211
40
0.33103448275861969
40
0.33241379310344726
40
0.33379310344827484
40
0.33517241379310242
40
0.33655172413793
40
0.33793103448275758
40
0.33931034482758515
40
0.34068965517241273
40
0.34206896551724031
40
0.34344827586206789
40
0.34482758620689546
40
0.34620689655172304
40
0.34758620689655062
40
0.3489655172413782
40
0.35034482758620578
40
0.35172413793103335
40
0.35310344827586093
40
0.35448275862068851
40
0.35586206896551609
40
0.35724137931034367
40
0.35862068965517124
40
0.35999999999999882
40
0.3613793103448264
40
0.36275862068965398
40
0.36413793103448155
40
0.36551724137930913
40
0.36689655172413671
40
0.36827586206896429
40
0.36965517241379187
40
0.37103448275861944
40
0.37241379310344702
40
0.3737931034482746
40
0.37517241379310218
40
0.37655172413792976
40
0.37793103448275733
40
0.37931034482758491
40
0.38068965517241249
40
0.38206896551724007
40
0.38344827586206764
40
0.38482758620689522
40
0.3862068965517228
40
0.38758620689655038
40
0.38896551724137796
40
0.39034482758620553
40
0.39172413793103311
40
0.39310344827586069
40
0.39448275862068827
40
0.39586206896551585
40
0.39724137931034342
40
0.398620689655171
40
0.39999999999999858
40
0.40137931034482616
40
0.40275862068965373
40
0.40413793103448131
40
0.40551724137930889
40
0.40689655172413647
40
0.40827586206896405
40
0.40965517241379162
40
0.4110344827586192
40
0.41241379310344678
40
0.41379310344827436
40
0.41517241379310194
40
0.41655172413792951
40
0.41793103448275709
40
0.41931034482758467
40
0.42068965517241225
40
0.42206896551723982
40
0.4234482758620674
40
0.42482758620689498
40
0.42620689655172256
40
0.42758620689655014
40
0.42896551724137771
40
0.43034482758620529
40
0.43172413793103287
40
0.43310344827586045
40
0.43448275862068803
40
0.4358620689655156
40
0.43724137931034318
40
0.43862068965517076
40
0.43999999999999834
40
0.44137931034482591
40
0.44275862068965349
40
0.44413793103448107
40
0.44551724137930865
40
0.44689655172413623
40
0.4482758620689638
40
0.44965517241379138
40
0.45103448275861896
40
0.45241379310344654
40
0.45379310344827412
40
0.45517241379310169
40
0.45655172413792927
40
0.45793103448275685
40
0.45931034482758443
40
0.460689655172412
40
0.46206896551723958
40
0.46344827586206716
40
0.46482758620689474
40
0.46620689655172232
40
0.46758620689654989
40
0.46896551724137747
40
0.47034482758620505
40
0.47172413793103263
40
0.47310344827586021
40
0.47448275862068778
40
0.47586206896551536
40
0.47724137931034294
40
0.47862068965517052
40
0.47999999999999809
40
0.48137931034482567
40
0.48275862068965325
40
0.48413793103448083
40
0.48551724137930841
40
0.48689655172413598
40
0.48827586206896356
40
0.48965517241379114
40
0.49103448275861872
40
0.4924137931034463
40
0.49379310344827387
40
0.49517241379310145
40
0.49655172413792903
40
0.49793103448275661
40
0.49931034482758418
40
0.50068965517241182
40
0.50206896551723945
40
0.50344827586206709
40
0.50482758620689472
40
0.50620689655172235
40
0.50758620689654999
40
0.50896551724137762
40
0.51034482758620525
40
0.51172413793103289
40
0.51310344827586052
40
0.51448275862068815
40
0.51586206896551579
40
0.51724137931034342
40
0.51862068965517105
40
0.51999999999999869
40
0.52137931034482632
40
0.52275862068965395
40
0.52413793103448159
40
0.52551724137930922
40
0.52689655172413685
40
0.52827586206896449
40
0.52965517241379212
40
0.53103448275861975
40
0.53241379310344739
40
0.53379310344827502
40
0.53517241379310265
40
0.53655172413793029
40
0.53793103448275792
40
0.53931034482758555
40
0.54068965517241319
40
0.54206896551724082
40
0.54344827586206845
40
0.54482758620689609
40
0.54620689655172372
40
0.54758620689655135
40
0.54896551724137899
40
0.55034482758620662
40
0.55172413793103425
40
0.55310344827586189
40
0.55448275862068952
40
0.55586206896551715
40
0.55724137931034479
40
0.55862068965517242
40
0.56000000000000005
40
0.56137931034482769
40
0.56275862068965532
40
0.56413793103448295
40
0.56551724137931059
40
0.56689655172413822
40
0.56827586206896585
40
0.56965517241379349
40
0.57103448275862112
40
0.57241379310344875
40
0.57379310344827639
40
0.57517241379310402
40
0.57655172413793165
40
0.57793103448275929
40
0.57931034482758692
40
0.58068965517241455
40
0.58206896551724219
40
0.58344827586206982
40
0.58482758620689745
40
0.58620689655172509
40
0.58758620689655272
40
0.58896551724138035
40
0.59034482758620799
40
0.59172413793103562
40
0.59310344827586325
40
0.59448275862069089
40
0.59586206896551852
40
0.59724137931034615
40
0.59862068965517379
40
0.60000000000000142
40
0.60137931034482905
40
0.60275862068965669
40
0.60413793103448432
40
0.60551724137931195
40
0.60689655172413959
40
0.60827586206896722
40
0.60965517241379485
40
0.61103448275862249
40
0.61241379310345012
40
0.61379310344827775
40
0.61517241379310539
40
0.61655172413793302
40
0.61793103448276065
40
0.61931034482758829
40
0.62068965517241592
40
0.62206896551724356
40
0.62344827586207119
40
0.62482758620689882
40
0.62620689655172646
40
0.62758620689655409
40
0.62896551724138172
40
0.63034482758620936
40
0.63172413793103699
40
0.63310344827586462
40
0.63448275862069226
40
0.63586206896551989
40
0.63724137931034752
40
0.63862068965517516
40
0.64000000000000279
40
0.64137931034483042
40
0.64275862068965806
40
0.64413793103448569
40
0.64551724137931332
40
0.64689655172414096
40
0.64827586206896859
40
0.64965517241379622
40
0.65103448275862386
40
0.65241379310345149
40
0.65379310344827912
40
0.65517241379310676
40
0.65655172413793439
40
0.65793103448276202
40
0.65931034482758966
40
0.66068965517241729
40
0.66206896551724492
40
0.66344827586207256
40
0.66482758620690019
40
0.66620689655172782
40
0.66758620689655546
40
0.66896551724138309
40
0.67034482758621072
40
0.67172413793103836
40
0.67310344827586599
40
0.67448275862069362
40
0.67586206896552126
40
0.67724137931034889
40
0.67862068965517652
40
0.68000000000000416
40
0.68137931034483179
40
0.68275862068965942
40
0.68413793103448706
40
0.68551724137931469
40
0.68689655172414232
40
0.68827586206896996
40
0.68965517241379759
40
0.69103448275862522
40
0.69241379310345286
40
0.69379310344828049
40
0.69517241379310812
40
0.69655172413793576
40
0.69793103448276339
40
0.69931034482759102
40
0.70068965517241866
40
0.70206896551724629
40
0.70344827586207392
40
0.70482758620690156
40
0.70620689655172919
40
0.70758620689655682
40
0.70896551724138446
40
0.71034482758621209
40
0.71172413793103972
40
0.71310344827586736
40
0.71448275862069499
40
0.71586206896552262
40
0.71724137931035026
40
0.71862068965517789
40
0.72000000000000552
40
0.72137931034483316
40
0.72275862068966079
40
0.72413793103448842
40
0.72551724137931606
40
0.72689655172414369
40
0.72827586206897132
40
0.72965517241379896
40
0.73103448275862659
40
0.73241379310345422
40
0.73379310344828186
40
0.73517241379310949
40
0.73655172413793712
40
0.73793103448276476
40
0.73931034482759239
40
0.74068965517242003
40
0.74206896551724766
40
0.74344827586207529
40
0.74482758620690293
40
0.74620689655173056
40
0.74758620689655819
40
0.74896551724138583
40
0.75034482758621346
40
0.75172413793104109
40
0.75310344827586873
40
0.75448275862069636
40
0.75586206896552399
40
0.75724137931035163
40
0.75862068965517926
40
0.76000000000000689
40
0.76137931034483453
40
0.76275862068966216
40
0.76413793103448979
40
0.76551724137931743
40
0.76689655172414506
40
0.76827586206897269
40
0.76965517241380033
40
0.77103448275862796
40
0.77241379310345559
40
0.77379310344828323
40
0.77517241379311086
40
0.77655172413793849
40
0.77793103448276613
40
0.77931034482759376
40
0.78068965517242139
40
0.78206896551724903
40
0.78344827586207666
40
0.78482758620690429
40
0.78620689655173193
40
0.78758620689655956
40
0.78896551724138719
40
0.79034482758621483
40
0.79172413793104246
40
0.79310344827587009
40
0.79448275862069773
40
0.79586206896552536
40
0.79724137931035299
40
0.79862068965518063
40
0.80000000000000826
40
0.80137931034483589
40
0.80275862068966353
40
0.80413793103449116
40
0.80551724137931879
40
0.80689655172414643
40
0.80827586206897406
40
0.80965517241380169
40
0.81103448275862933
40
0.81241379310345696
40
0.81379310344828459
40
0.81517241379311223
40
0.81655172413793986
40
0.81793103448276749
40
0.81931034482759513
40
0.82068965517242276
40
0.82206896551725039
40
0.82344827586207803
40
0.82482758620690566
40
0.82620689655173329
40
0.82758620689656093
40
0.82896551724138856
40
0.83034482758621619
40
0.83172413793104383
40
0.83310344827587146
40
0.83448275862069909
40
0.83586206896552673
40
0.83724137931035436
40
0.83862068965518199
40
0.84000000000000963
40
0.84137931034483726
40
0.84275862068966489
40
0.84413793103449253
40
0.84551724137932016
40
0.84689655172414779
40
0.84827586206897543
40
0.84965517241380306
40
0.85103448275863069
40
0.85241379310345833
40
0.85379310344828596
40
0.85517241379311359
40
0.85655172413794123
40
0.85793103448276886
40
0.8593103448275965
40
0.86068965517242413
40
0.86206896551725176
40
0.8634482758620794
40
0.86482758620690703
40
0.86620689655173466
40
0.8675862068965623
40
0.86896551724138993
40
0.87034482758621756
40
0.8717241379310452
40
0.87310344827587283
40
0.87448275862070046
40
0.8758620689655281
40
0.87724137931035573
40
0.87862068965518336
40
0.880000000000011
40
0.88137931034483863
40
0.88275862068966626
40
0.8841379310344939
40
0.88551724137932153
40
0.88689655172414916
40
0.8882758620689768
40
0.88965517241380443
40
0.89103448275863206
40
0.8924137931034597
40
0.89379310344828733
40
0.89517241379311496
40
0.8965517241379426
40
0.89793103448277023
40
0.89931034482759786
40
0.9006896551724255
40
0.90206896551725313
40
0.90344827586208076
40
0.9048275862069084
40
0.90620689655173603
40
0.90758620689656366
40
0.9089655172413913
40
0.91034482758621893
40
0.91172413793104656
40
0.9131034482758742
40
0.91448275862070183
40
0.91586206896552946
40
0.9172413793103571
40
0.91862068965518473
40
0.92000000000001236
40
0.92137931034484
40
0.92275862068966763
40
0.92413793103449526
40
0.9255172413793229
40
0.92689655172415053
40
0.92827586206897816
40
0.9296551724138058
40
0.93103448275863343
40
0.93241379310346106
40
0.9337931034482887
40
0.93517241379311633
40
0.93655172413794396
40
0.9379310344827716
40
0.93931034482759923
40
0.94068965517242686
40
0.9420689655172545
40
0.94344827586208213
40
0.94482758620690976
40
0.9462068965517374
40
0.94758620689656503
40
0.94896551724139266
40
0.9503448275862203
40
0.95172413793104793
40
0.95310344827587556
40
0.9544827586207032
40
0.95586206896553083
40
0.95724137931035846
40
0.9586206896551861
40
0.96000000000001373
40
0.96137931034484136
40
0.962758620689669
40
0.96413793103449663
40
0.96551724137932426
40
0.9668965517241519
40
0.96827586206897953
40
0.96965517241380716
40
0.9710344827586348
40
0.97241379310346243
40
0.97379310344829006
40
0.9751724137931177
40
0.97655172413794533
40
0.97793103448277297
40
0.9793103448276006
40
0.98068965517242823
40
0.98206896551725587
40
0.9834482758620835
40
0.98482758620691113
40
0.98620689655173877
40
0.9875862068965664
40
0.98896551724139403
40
0.99034482758622167
40
0.9917241379310493
40
0.99310344827587693
40
0.99448275862070457
40
0.9958620689655322
40
0.99724137931035983
40
0.99862068965518747
40
1
40
1
40
1
40
1
40
1
40
1
41
1
41
1
41
1
41
1
41
1
41
1
41
1
41
1
41
1
41
1
41
1
41
1
41
1
41
1
41
1
41
1
41
1
41
1
41
1
41
1
41
1
41
1
41
1
41
1
41
1
41
1
41
1
41
1
41
1
41
1
41
1
41
1
41
1
41
1
41
1
41
1
41
1
41
1
41
1
41
1
41
1
41
1
41
1
41
1
41
1
41
1
41
1
41
1
41
1
41
1
41
1
41
1
41
1
41
1
41
1
41
1
41
1
41
1
41
1
41
1
41
1
41
1
41
1
41
1
41
1
41
1
41
1
41
1
41
1
41
1
41
1
41
1
41
1
41
1
41
1
41
1
41
1
41
1
41
1
41
1
41
1
41
1
41
1
41
1
41
1
41
1
41
1
41
1
41
1
41
1
41
1
41
1
41
1
41
1
41
1
41
1
41
1
41
1
41
1
41
1
41
1
41
1
41
1
41
1
41
1
41
1
41
1
41
1
41
1
41
1
41
1
41
1
41
1
41
1
41
1
41
1
41
1
41
1
41
1
41
1
41
1
41
1
41
1
41
1
41
1
41
1
41
1
41
1
41
1
41
1
41
1
41
1
41
1
41
1
41
1
41
1
41
1
41
1
41
1
41
1
41
1
41
1
41
1
41
1
41
1
41
1
41
1
41
1
41
1
41
1
41
1
41
1
41
1
41
1
41
1
41
1
41
1
41
1
41
1
41
1
41
1
41
1
41
1
41
1
41
1
41
1
41
1
41
1
41
1
41
1
41
1
41
1
41
1
41
1
41
1
41
1
41
1
41
1
41
1
41
1
41
1
41
1
41
1
41
1
41
1
41
1
41
1
41
1
41
1
41
1
41
1
41
1
41
1
41
1
41
1
41
1
41
1
41
1
41
1
41
1
41
1
41
1
41
1
41
1
41
1
41
1
41
1
41
1
41
1
41
1
41
1
41
1
41
1
41
1
41
1
41
1
41
1
41
1
41
1
41
1
41
1
41
1
41
1
41
1
41
1
41
1
41
1
41
1
41
1
41
1
41
1
41
1
41
1
41
1
41
1
41
1
41
1
41
1
41
1
41
1
41
1
41
1
41
1
41
1
41
1
41
1
41
1
41
1
41
1
41
1
41
1
41
1
41
1
41
1
41
1
41
1
41
1
41
1
41
1
41
1
41
1
41
1
41
1
41
1
41
1
41
1
41
1
41
1
41
1
41
1
41
1
41
1
41
1
41
1
41
1
41
1
41
1
41
1
41
1
41
1
41
1
41
1
41
1
41
1
41
1
41
1
41
1
41
1
41
1
41
1
41
1
41
1
41
1
41
1
41
1
41
1
41
1
41
1
41
1
41
1
41
1
41
1
41
1
41
1
41
1
41
1
41
1
41
1
41
1
41
1
41
1
41
1
41
1
41
1
41
1
41
1
41
1
41
1
41
1
41
1
41
1
41
1
41
1
41
1
41
1
41
1
41
1
41
1
41
1
41
1
41
1
41
1
41
1
41
1
41
1
41
1
41
1
41
1
41
1
41
1
41
1
41
1
41
1
41
1
41
1
41
1
41
1
41
1
41
1
41
1
41
1
41
1
41
1
41
1
41
1
41
1
41
1
41
1
41
1
41
1
41
1
41
1
41
1
41
1
41
1
41
1
41
1
41
1
41
1
41
1
41
1
41
1
41
1
41
1
41
1
41
1
41
1
41
1
41
1
41
1
41
1
41
1
41
1
41
1
41
1
41
1
41
1
41
1
41
1
41
1
41
1
41
1
41
1
41
1
41
1
41
1
41
1
41
1
41
1
41
1
41
1
41
1
41
1
41
1
41
1
41
1
41
1
41
1
41
1
41
1
41
1
41
1
41
1
41
1
41
1
41
1
41
1
41
1
41
1
41
1
41
1
41
1
41
1
41
1
41
1
41
1
41
1
41
1
41
1
41
1
41
1
41
1
41
1
41
1
41
1
41
1
41
1
41
1
41
1
41
1
41
1
41
1
41
1
41
1
41
1
41
1
41
1
41
1
41
1
41
1
41
1
41
1
41
1
41
1
41
1
41
1
41
1
41
1
41
1
41
1
41
1
41
1
41
1
41
1
41
1
41
1
41
1
41
1
41
1
41
1
41
1
41
1
41
1
41
1
41
1
41
1
41
1
41
1
41
1
41
1
41
1
41
1
41
1
41
1
41
1
41
1
41
1
41
1
41
1
41
1
41
1
41
1
41
1
41
1
41
1
41
1
41
1
41
1
41
1
41
1
41
1
41
1
41
1
41
1
41
1
41
1
41
1
41
1
41
1
41
1
41
1
41
1
41
1
41
1
41
1
41
1
41
1
41
1
41
1
41
1
41
1
41
1
41
1
41
1
41
1
41
1
41
1
41
1
41
1
41
1
41
1
41
1
41
1
41
1
41
1
41
1
41
1
41
1
41
1
41
1
41
1
41
1
41
1
41
1
41
1
41
1
41
1
41
1
41
1
41
1
41
1
41
1
41
1
41
1
41
1
41
1
41
1
41
1
41
1
41
1
41
1
41
1
41
1
41
1
41
1
41
1
41
1
41
1
41
1
41
1
41
1
41
1
41
1
41
1
41
1
41
1
41
1
41
1
41
1
41
1
41
1
41
1
41
1
41
1
41
1
41
1
41
1
41
1
41
1
41
1
41
1
41
1
41
1
41
1
41
1
41
1
41
1
41
1
41
1
41
1
41
1
41
1
41
1
41
1
41
1
41
1
41
1
41
1
41
1
41
1
41
1
41
1
41
1
41
1
41
1
41
1
41
1
41
1
41
1
41
1
41
1
41
1
41
1
41
1
41
1
41
1
41
1
41
1
41
1
41
1
41
1
41
1
41
1
41
1
41
1
41
1
41
1
41
1
41
1
41
1
41
1
41
1
41
1
41
1
41
1
41
1
41
1
41
1
41
1
41
1
41
1
41
1
41
1
41
1
41
1
41
1
41
1
41
1
41
1
41
1
41
1
41
1
41
1
41
1
41
1
41
1
41
1
41
1
41
1
41
1
41
1
41
1
41
1
41
1
41
1
41
1
41
1
41
1
41
1
41
1
41
1
41
1
41
1
41
1
41
1
41
1
41
1
41
1
41
1
41
1
41
1
41
1
41
1
41
1
41
1
41
1
41
1
41
1
41
1
41
1
41
1
41
1
41
1
41
1
41
1
41
1
41
1
41
1
41
1
41
1
41
1
41
1
41
1
41
1
41
1
41
1
41
1
41
1
41
1
41
1
41
1
41
1
41
1
41
1
41
1
41
1
41
1
41
1
41
1
41
1
10
16.9102
20
-99.350500000000011
30
0
10
16.835804825186354
20
-99.361308784785848
30
0
10
16.688649552397685
20
-99.380560542234804
30
0
10
16.47042721895107
20
-99.402485702473371
30
0
10
16.166316608978299
20
-99.419059140236129
30
0
10
15.710587291014072
20
-99.423567036399049
30
0
10
15.153098283559688
20
-99.416979895575906
30
0
10
14.528232549265915
20
-99.403101489787531
30
0
10
13.900587006031147
20
-99.383831097112136
30
0
10
13.335785569529325
20
-99.358466793287874
30
0
10
12.873023558651218
20
-99.32318627802394
30
0
10
12.491305563829487
20
-99.270095288543786
30
0
10
12.138741745971904
20
-99.190234239946193
30
0
10
11.769098220371564
20
-99.076955549784728
30
0
10
11.3794301654059
20
-98.929565614507723
30
0
10
10.992023841448407
20
-98.750912123935564
30
0
10
10.631092695264456
20
-98.544455236247785
30
0
10
10.300326037672109
20
-98.311361347305962
30
0
10
9.9916254614290843
20
-98.052554638520704
30
0
10
9.6956045849951078
20
-97.771049805222844
30
0
10
9.4114247448671335
20
-97.474133862612547
30
0
10
9.1428344841711464
20
-97.168309509337902
30
0
10
8.8939874809241335
20
-96.853856158780701
30
0
10
8.6655381900519934
20
-96.520324705779629
30
0
10
8.4563563743203733
20
-96.158643561951536
30
0
10
8.2650670777157114
20
-95.774074863231235
30
0
10
8.0916220123157885
20
-95.395519859225786
30
0
10
7.9377005694149663
20
-95.047307927651374
30
0
10
7.8074484690000414
20
-94.719759289310758
30
0
10
7.707486428754267
20
-94.349426236928053
30
0
10
7.6427357683458217
20
-93.870977801164699
30
0
10
7.6120229182429586
20
-93.267776246561809
30
0
10
7.6053799200116448
20
-92.608054167785795
30
0
10
7.6113178337620226
20
-91.988274918452944
30
0
10
7.6228326261612995
20
-91.488432436957666
30
0
10
7.6439124173291848
20
-91.122670381358404
30
0
10
7.6958152622052971
20
-90.791944121567639
30
0
10
7.8030947687545194
20
-90.358337291946285
30
0
10
7.9792508922618923
20
-89.721449339117655
30
0
10
8.2132382662564911
20
-88.890438036923157
30
0
10
8.4783689860382889
20
-87.94520689869502
30
0
10
8.7403644031047172
20
-87.001741799242467
30
0
10
8.9659005974766615
20
-86.175123593094511
30
0
10
9.1305474698736671
20
-85.545275580711973
30
0
10
9.2279119693608109
20
-85.117378664403006
30
0
10
9.2755097664943023
20
-84.796707318956308
30
0
10
9.3018977732067896
20
-84.445812240071362
30
0
10
9.335045031589571
20
-83.936384287483094
30
0
10
9.3925107300876736
20
-83.192808269203169
30
0
10
9.4840704843460362
20
-82.179311640701769
30
0
10
9.6125336310310292
20
-80.895296151944905
30
0
10
9.7752704979653675
20
-79.367458784127692
30
0
10
9.9654369141131287
20
-77.643281815495172
30
0
10
10.173328773182606
20
-75.783934881905168
30
0
10
10.387680837173567
20
-73.857428949328309
30
0
10
10.596988882037595
20
-71.931665316578872
30
0
10
10.790823275016008
20
-70.067521981586722
30
0
10
10.961142721216708
20
-68.311942463124609
30
0
10
11.103617715535217
20
-66.690971979613522
30
0
10
11.217040295289566
20
-65.212893968003854
30
0
10
11.302722127171744
20
-63.871428140236574
30
0
10
11.363896200067938
20
-62.648909028239615
30
0
10
11.405118744429988
20
-61.519464631289367
30
0
10
11.431667076887093
20
-60.452213420997928
30
0
10
11.44894849266009
20
-59.414410353732592
30
0
10
11.461882828437318
20
-58.374714786483175
30
0
10
11.474346963087111
20
-57.306171410135967
30
0
10
11.48846365529667
20
-56.1899125008322
30
0
10
11.504662594100461
20
-55.01528145441177
30
0
10
11.522082416478153
20
-53.778375409995519
30
0
10
11.538864190771637
20
-52.481092355587521
30
0
10
11.552489130996621
20
-51.12996988397019
30
0
10
11.560099428423548
20
-49.73511001889284
30
0
10
11.558821457011748
20
-48.309074921662869
30
0
10
11.546099310177675
20
-46.865776874374767
30
0
10
11.519997391494186
20
-45.419413455090094
30
0
10
11.47958088290552
20
-43.983279246808884
30
0
10
11.425038846106574
20
-42.56899145629685
30
0
10
11.357372273045199
20
-41.186417305465483
30
0
10
11.27818135471362
20
-39.843440972463839
30
0
10
11.189413004612041
20
-38.545795489663305
30
0
10
11.093125028765154
20
-37.296865830636541
30
0
10
10.991243951212887
20
-36.09750670889197
30
0
10
10.88532367607038
20
-34.945848561294611
30
0
10
10.776308195043555
20
-33.837121266679226
30
0
10
10.664282064920126
20
-32.763440039475952
30
0
10
10.548256046170497
20
-31.713693703975153
30
0
10
10.426467358038519
20
-30.674923905253891
30
0
10
10.296649464326897
20
-29.633613265162666
30
0
10
10.156314350813442
20
-28.577016693872167
30
0
10
10.003027294674123
20
-27.49445459906471
30
0
10
9.8346899579430662
20
-26.378668333677741
30
0
10
9.6498080222044127
20
-25.227042058869145
30
0
10
9.4477941430028629
20
-24.043139890949497
30
0
10
9.2291637474777826
20
-22.837280755796673
30
0
10
8.995443911060331
20
-21.624539629770744
30
0
10
8.7491361921134185
20
-20.423226772077218
30
0
10
8.4936568638100738
20
-19.253179205990229
30
0
10
8.2332896568978526
20
-18.134128940461093
30
0
10
7.9731265207523006
20
-17.084046117450079
30
0
10
7.7190289276755886
20
-16.117474483223049
30
0
10
7.4775441299828209
20
-15.243913715054894
30
0
10
7.2559367102276937
20
-14.466063347887788
30
0
10
7.0597337273955398
20
-13.781581150769973
30
0
10
6.8902765844206808
20
-13.184962020912236
30
0
10
6.7420510175444095
20
-12.669433843362279
30
0
10
6.6006117190435543
20
-12.228706653014338
30
0
10
6.4389435210429511
20
-11.859151622983291
30
0
10
6.2268633640310362
20
-11.558183844508481
30
0
10
5.9419259973038159
20
-11.322064864005219
30
0
10
5.5811845064706924
20
-11.14380319213325
30
0
10
5.1531847778286206
20
-11.012572597014119
30
0
10
4.6679636132784745
20
-10.913365111409192
30
0
10
4.1274506625326843
20
-10.826471945867866
30
0
10
3.5324025064197047
20
-10.732263022286281
30
0
10
2.8905839812452157
20
-10.616403040017966
30
0
10
2.2233111288374028
20
-10.474338413869793
30
0
10
1.5757047311705614
20
-10.317549931376995
30
0
10
1.0002056869755678
20
-10.167321115700268
30
0
10
0.53095629099845576
20
-10.044760308218825
30
0
10
0.16617467042140968
20
-9.9634270632805535
30
0
10
-0.16456231607083535
20
-9.9176694412394575
30
0
10
-0.57267056752818224
20
-9.8876170089724251
30
0
10
-1.1544552049905361
20
-9.8524456159690992
30
0
10
-1.9317349373212549
20
-9.8035465385492984
30
0
10
-2.8526689551294853
20
-9.7458093202517961
30
0
10
-3.8263621532813294
20
-9.6919199017365685
30
0
10
-4.7460469153283444
20
-9.6590419050958385
30
0
10
-5.5183099208175221
20
-9.6642244163148678
30
0
10
-6.0867194050133584
20
-9.7210099694584535
30
0
10
-6.4656251592433645
20
-9.8338466373484223
30
0
10
-6.7163024928254123
20
-10.004613358198494
30
0
10
-6.9094339796701298
20
-10.241433209067983
30
0
10
-7.0877807456620801
20
-10.568808643706639
30
0
10
-7.2696652057190745
20
-11.018117023767857
30
0
10
-7.4604903332036869
20
-11.614927088593896
30
0
10
-7.6619185479254162
20
-12.366486970956993
30
0
10
-7.8734073341126889
20
-13.264258878838167
30
0
10
-8.0924290786161954
20
-14.288032817115415
30
0
10
-8.315205320034277
20
-15.409476007801999
30
0
10
-8.5372147879036522
20
-16.595876289169386
30
0
10
-8.7538151729934928
20
-17.81390605423892
30
0
10
-8.9607773461321631
20
-19.033133420623017
30
0
10
-9.1549559092583284
20
-20.230265755231844
30
0
10
-9.3343412944574702
20
-21.389539437383238
30
0
10
-9.4978642924654597
20
-22.501520628381137
30
0
10
-9.6452801580738079
20
-23.562419403742936
30
0
10
-9.7770195527490209
20
-24.57318984022335
30
0
10
-9.8940538295845535
20
-25.538722601109004
30
0
10
-9.9977539141767728
20
-26.466996418857196
30
0
10
-10.089752510316682
20
-27.368250487079347
30
0
10
-10.171803393646428
20
-28.254139456037713
30
0
10
-10.245663430275583
20
-29.137022504852276
30
0
10
-10.312975191592564
20
-30.029258410885067
30
0
10
-10.375151613353848
20
-30.942506862829084
30
0
10
-10.433254740262166
20
-31.887008460656013
30
0
10
-10.487888735961445
20
-32.870917222895933
30
0
10
-10.53905834555793
20
-33.899505452822069
30
0
10
-10.586136462592519
20
-34.974771969951803
30
0
10
-10.628065561444775
20
-36.095915071864361
30
0
10
-10.663510806225512
20
-37.259626801597776
30
0
10
-10.6910324376892
20
-38.460458481095024
30
0
10
-10.709249923666578
20
-39.691155782648046
30
0
10
-10.717009651954235
20
-40.94300685645409
30
0
10
-10.713551103359446
20
-42.206184872494063
30
0
10
-10.698673676326367
20
-43.470092821015534
30
0
10
-10.672903265890231
20
-44.723707619375361
30
0
10
-10.637324861790603
20
-45.956289100526526
30
0
10
-10.593414759235042
20
-47.158091309031114
30
0
10
-10.542873429387241
20
-48.321068257448978
30
0
10
-10.487456967293022
20
-49.439592682022834
30
0
10
-10.428811807094334
20
-50.511144622661689
30
0
10
-10.368301861357779
20
-51.53707024016866
30
0
10
-10.306853382458613
20
-52.523176310144009
30
0
10
-10.244755408206483
20
-53.480736517403059
30
0
10
-10.181674809985651
20
-54.425511357801845
30
0
10
-10.116772084590522
20
-55.375844090775814
30
0
10
-10.048784952284318
20
-56.35103766135515
30
0
10
-9.9761259390147998
20
-57.369640775004605
30
0
10
-9.8969725501720323
20
-58.447713131950266
30
0
10
-9.8093639077362518
20
-59.597239243363774
30
0
10
-9.7112865390684266
20
-60.824134802940002
30
0
10
-9.6007952809701358
20
-62.127723977153238
30
0
10
-9.476175108136788
20
-63.501960525924233
30
0
10
-9.3360921763135423
20
-64.936198221735538
30
0
10
-9.1797498012240961
20
-66.416144595981791
30
0
10
-9.0070410753998953
20
-67.924736005289873
30
0
10
-8.8187058538089431
20
-69.443046873332818
30
0
10
-8.6164791032711197
20
-70.951183358254397
30
0
10
-8.4032587023195759
20
-72.429185641852982
30
0
10
-8.1832282355678636
20
-73.857921999071834
30
0
10
-7.9620874891269322
20
-75.219997224299803
30
0
10
-7.7469558667252301
20
-76.500621456945169
30
0
10
-7.5453169430099498
20
-77.688380780986407
30
0
10
-7.3641427861302464
20
-78.776010923690492
30
0
10
-7.2089291803655176
20
-79.761199871134863
30
0
10
-7.0828101944038959
20
-80.647309479315567
30
0
10
-6.9855426882358254
20
-81.444291425659657
30
0
10
-6.9127708052891954
20
-82.169147171350616
30
0
10
-6.8546183469489144
20
-82.847500751473873
30
0
10
-6.796673823574916
20
-83.511206836608793
30
0
10
-6.7235269511458036
20
-84.191788425955281
30
0
10
-6.6217659390228079
20
-84.914669105919032
30
0
10
-6.4829068479466256
20
-85.693740235802181
30
0
10
-6.3070448619281914
20
-86.524197680068241
30
0
10
-6.1038047506235724
20
-87.381608093395414
30
0
10
-5.8884304547643564
20
-88.232213798238121
30
0
10
-5.6790352195230867
20
-89.04043753973923
30
0
10
-5.4932577475365809
20
-89.778062684377616
30
0
10
-5.3454661281327596
20
-90.431428999133232
30
0
10
-5.2430022634346685
20
-91.012611320057303
30
0
10
-5.1856393901328701
20
-91.556654991847708
30
0
10
-5.1685382782597777
20
-92.102735234095476
30
0
10
-5.1842073732177543
20
-92.680985041803794
30
0
10
-5.2250326923459909
20
-93.29381089052012
30
0
10
-5.2850406521135227
20
-93.910007458925691
30
0
10
-5.3604299656219396
20
-94.487512496547424
30
0
10
-5.4502146221790051
20
-94.989591715818761
30
0
10
-5.557077998882435
20
-95.405650506004221
30
0
10
-5.6874324427881682
20
-95.764337741153852
30
0
10
-5.8472450383824235
20
-96.106534742425055
30
0
10
-6.0375174526149245
20
-96.459681213995736
30
0
10
-6.2519318376071435
20
-96.818866923887299
30
0
10
-6.4836713591185555
20
-97.166243541386947
30
0
10
-6.7326235359371323
20
-97.487126380778278
30
0
10
-7.0081850632786722
20
-97.782010576389609
30
0
10
-7.317879156766006
20
-98.056339479661091
30
0
10
-7.6546990437350679
20
-98.312738722652341
30
0
10
-7.9946190521760361
20
-98.545811460322398
30
0
10
-8.3199388759960851
20
-98.74846595929553
30
0
10
-8.6446303058278477
20
-98.916878573586501
30
0
10
-9.0195647891644608
20
-99.053490273884961
30
0
10
-9.4924559604830208
20
-99.16330234216008
30
0
10
-10.069392545027952
20
-99.251213081609976
30
0
10
-10.699436357018561
20
-99.320130419157238
30
0
10
-11.313368461707645
20
-99.371935806735678
30
0
10
-11.848390967728513
20
-99.407732386664961
30
0
10
-12.282524924800079
20
-99.428469247010597
30
0
10
-12.653047281245733
20
-99.435158863737627
30
0
10
-13.01636523031452
20
-99.428060839866902
30
0
10
-13.410788130176792
20
-99.405775079619758
30
0
10
-13.830898227641173
20
-99.364936912588689
30
0
10
-14.25379679779053
20
-99.301901849924192
30
0
10
-14.659499451696288
20
-99.214481767855744
30
0
10
-15.046167572368461
20
-99.102660365603754
30
0
10
-15.419532746052058
20
-98.96668929224046
30
0
10
-15.786757863259279
20
-98.804891916184445
30
0
10
-16.150219544188818
20
-98.613734610103677
30
0
10
-16.508020422503158
20
-98.392034317691767
30
0
10
-16.851443144563149
20
-98.146237431254946
30
0
10
-17.168050221197081
20
-97.889609922359057
30
0
10
-17.451390963106761
20
-97.63129437942554
30
0
10
-17.712723056213154
20
-97.364701632381554
30
0
10
-17.981262997154598
20
-97.065343164971139
30
0
10
-18.287201989618644
20
-96.704271554465393
30
0
10
-18.645831135389624
20
-96.259556709369122
30
0
10
-19.051231976089646
20
-95.72258799352673
30
0
10
-19.485572289403127
20
-95.094739517356231
30
0
10
-19.924557889557992
20
-94.386598203592882
30
0
10
-20.344057160328198
20
-93.616062917066643
30
0
10
-20.727166283874389
20
-92.807125926715088
30
0
10
-21.067942805337417
20
-91.98769264314231
30
0
10
-21.367337666738475
20
-91.185783711953476
30
0
10
-21.630852200308563
20
-90.42614878346221
30
0
10
-21.865362353016057
20
-89.726522257016825
30
0
10
-22.076626220305059
20
-89.094480010335388
30
0
10
-22.265694484532577
20
-88.522939311153124
30
0
10
-22.428781404906012
20
-87.990302406877788
30
0
10
-22.561705726501661
20
-87.466643026717492
30
0
10
-22.662917319334731
20
-86.918271457226354
30
0
10
-22.737700048408144
20
-86.313188703539524
30
0
10
-22.799973275628112
20
-85.625441117251427
30
0
10
-22.867757667216463
20
-84.837320324110181
30
0
10
-22.959835167080058
20
-83.941789006053696
30
0
10
-23.091776577791471
20
-82.945096964699218
30
0
10
-23.27261047328324
20
-81.868678701571142
30
0
10
-23.500313055520255
20
-80.752908943807697
30
0
10
-23.760930054934587
20
-79.654710900313958
30
0
10
-24.033753511020187
20
-78.63487427007405
30
0
10
-24.295166168952179
20
-77.747515191915028
30
0
10
-24.522929307904327
20
-77.029104903139469
30
0
10
-24.700492392625542
20
-76.486695620483886
30
0
10
-24.820797301531844
20
-76.088806988867816
30
0
10
-24.89158793271713
20
-75.749172850163617
30
0
10
-24.930548588082353
20
-75.357181485693232
30
0
10
-24.958268003667055
20
-74.817241934595387
30
0
10
-24.991225015821954
20
-74.090480824887663
30
0
10
-25.04106083509442
20
-73.188377040774554
30
0
10
-25.115251278864612
20
-72.15628636923438
30
0
10
-25.217285810928416
20
-71.060659753354741
30
0
10
-25.347041397598183
20
-69.974429417107231
30
0
10
-25.501102968247622
20
-68.963824732323317
30
0
10
-25.673033858496304
20
-68.073027670276872
30
0
10
-25.853895615467771
20
-67.314604372996442
30
0
10
-26.03360426504662
20
-66.677916937804028
30
0
10
-26.202159926392703
20
-66.134493131588613
30
0
10
-26.350890298111388
20
-65.644596086433609
30
0
10
-26.473772947837546
20
-65.163274241661696
30
0
10
-26.568474185344492
20
-64.646655055409042
30
0
10
-26.635505416252336
20
-64.058196273749502
30
0
10
-26.677586005472349
20
-63.375033571274713
30
0
10
-26.698930081330843
20
-62.594162420556323
30
0
10
-26.704556180311506
20
-61.739030708894411
30
0
10
-26.700038590085718
20
-60.84993247578565
30
0
10
-26.691275631944983
20
-59.9740334606619
30
0
10
-26.684253879153594
20
-59.155428123198838
30
0
10
-26.684808344873957
20
-58.4254180948341
30
0
10
-26.698398040903555
20
-57.792139410775462
30
0
10
-26.729836726066495
20
-57.232053599377892
30
0
10
-26.782525056860468
20
-56.704225624394262
30
0
10
-26.857691667866519
20
-56.163320343298523
30
0
10
-26.953679542398348
20
-55.572635600323316
30
0
10
-27.06508545416979
20
-54.918299373302816
30
0
10
-27.183919193450492
20
-54.204757562396097
30
0
10
-27.300939191721739
20
-53.448516685800513
30
0
10
-27.406949235313022
20
-52.672417231446772
30
0
10
-27.494055853938342
20
-51.899908354463015
30
0
10
-27.557088135713961
20
-51.148733981484384
30
0
10
-27.593776592922481
20
-50.429598013403123
30
0
10
-27.604621613009677
20
-49.746086428233255
30
0
10
-27.592905687078595
20
-49.094021974930222
30
0
10
-27.564561360878685
20
-48.461361332947696
30
0
10
-27.528314095465785
20
-47.827087501204211
30
0
10
-27.494525525665811
20
-47.164814775416481
30
0
10
-27.473545006910403
20
-46.448170468473663
30
0
10
-27.474147103426073
20
-45.655872706236174
30
0
10
-27.502094094397616
20
-44.776339352996423
30
0
10
-27.558244355817582
20
-43.813980856467651
30
0
10
-27.638669573670619
20
-42.788057485672979
30
0
10
-27.736136783001257
20
-41.726497748216843
30
0
10
-27.841190630796856
20
-40.6611740022663
30
0
10
-27.943385645724412
20
-39.622672789114155
30
0
10
-28.032488696895008
20
-38.635060238625144
30
0
10
-28.099613790291173
20
-37.711166158063634
30
0
10
-28.138582096739171
20
-36.84638617858473
30
0
10
-28.146503340551359
20
-36.01749491209133
30
0
10
-28.123048493786417
20
-35.189828641496042
30
0
10
-28.070021496913995
20
-34.322581082404142
30
0
10
-27.990813959618677
20
-33.374786056525238
30
0
10
-27.889902345488462
20
-32.311172460203416
30
0
10
-27.772344676811475
20
-31.107684387063166
30
0
10
-27.643231051948696
20
-29.758162782241765
30
0
10
-27.50751072453355
20
-28.272709577689646
30
0
10
-27.36991339197634
20
-26.674016201411721
30
0
10
-27.234838110976902
20
-24.99438646126416
30
0
10
-27.10625598381742
20
-23.272470496432259
30
0
10
-26.987606484903409
20
-21.55011790020523
30
0
10
-26.881697541037489
20
-19.869191210277684
30
0
10
-26.790601612255461
20
-18.268369511375486
30
0
10
-26.715559002382886
20
-16.780018898388068
30
0
10
-26.656865216950145
20
-15.426888438004831
30
0
10
-26.613795341106147
20
-14.219223553248792
30
0
10
-26.584433866293914
20
-13.150807941827086
30
0
10
-26.566126979693685
20
-12.202039527232502
30
0
10
-26.556102099613152
20
-11.344858279088673
30
0
10
-26.552021214370114
20
-10.547007264403055
30
0
10
-26.552583132950133
20
-9.776659593647727
30
0
10
-26.558055689126988
20
-9.0066876580449424
30
0
10
-26.570955657423877
20
-8.2195668772941666
30
0
10
-26.596306260223223
20
-7.4105424117237444
30
0
10
-26.640048692089806
20
-6.5833446038056387
30
0
10
-26.707744967204373
20
-5.747021669031426
30
0
10
-26.803109303690583
20
-4.912220896347903
30
0
10
-26.926745048945477
20
-4.0879706675515015
30
0
10
-27.074473305992768
20
-3.2776053443926152
30
0
10
-27.236885602649185
20
-2.4771635859511516
30
0
10
-27.401790217521
20
-1.6796060824380208
30
0
10
-27.55604431218956
20
-0.8777809205610333
30
0
10
-27.687718220728229
20
-0.068103348136936484
30
0
10
-27.787915770412216
20
0.74656713354325832
30
0
10
-27.853236176596621
20
1.552489897110606
30
0
10
-27.88618693727021
20
2.3256226284500783
30
0
10
-27.892699581084752
20
3.0391641498194133
30
0
10
-27.880337984457633
20
3.6696179338200956
30
0
10
-27.856244294716053
20
4.203012051324194
30
0
10
-27.825152659255657
20
4.642109598098652
30
0
10
-27.787579089126069
20
5.0096778824640058
30
0
10
-27.739379902105998
20
5.3416713430792395
30
0
10
-27.670119280326109
20
5.6832124061380682
30
0
10
-27.564620921259049
20
6.0812665059034856
30
0
10
-27.4093239470829
20
6.5746720769119884
30
0
10
-27.198854078579451
20
7.1824972340531259
30
0
10
-26.938463203687022
20
7.9000873975554109
30
0
10
-26.638983893475899
20
8.7078442544474193
30
0
10
-26.313669288514486
20
9.5768729714262726
30
0
10
-25.97407726463242
20
10.476152449470222
30
0
10
-25.626809536632429
20
11.378456039671319
30
0
10
-25.268781112289393
20
12.268287077590255
30
0
10
-24.887490958949687
20
13.143086995182829
30
0
10
-24.466120088526861
20
14.007959620060113
30
0
10
-23.987366828778924
20
14.872114628472699
30
0
10
-23.437698890652342
20
15.744689172295519
30
0
10
-22.811655023183746
20
16.630650751683955
30
0
10
-22.115594282932875
20
17.527096118536882
30
0
10
-21.372964879833379
20
18.418339425921356
30
0
10
-20.624794848034512
20
19.274870769258634
30
0
10
-19.918277792476733
20
20.062018286577459
30
0
10
-19.297354302705038
20
20.746949040527877
30
0
10
-18.793088452852896
20
21.305921160390525
30
0
10
-18.412788487289284
20
21.732362354032201
30
0
10
-18.132810564986819
20
22.042408599053488
30
0
10
-17.881804151197564
20
22.287076557890142
30
0
10
-17.571668806322716
20
22.531317554707368
30
0
10
-17.14195333794407
20
22.823816983336393
30
0
10
-16.610400933829609
20
23.162333162381525
30
0
10
-16.054147840062019
20
23.509018301673418
30
0
10
-15.564188252419914
20
23.826152494396858
30
0
10
-15.213704474751587
20
24.099403799888034
30
0
10
-15.008963067200225
20
24.379677043528744
30
0
10
-14.898017596399242
20
24.76001880977438
30
0
10
-14.814489094752147
20
25.316157248529969
30
0
10
-14.718451421777836
20
26.043182555103673
30
0
10
-14.603945439506598
20
26.861600367226785
30
0
10
-14.484419847822332
20
27.663555376238111
30
0
10
-14.385034628812175
20
28.349198303798811
30
0
10
-14.332611217501555
20
28.860767623823421
30
0
10
-14.345337927658184
20
29.233347031144401
30
0
10
-14.42798239992889
20
29.574734161352119
30
0
10
-14.573168008986039
20
29.993978667141199
30
0
10
-14.759685733438289
20
30.529310399183792
30
0
10
-14.957299685287676
20
31.140749222203347
30
0
10
-15.136022559212277
20
31.756766088851567
30
0
10
-15.273000776588241
20
32.302115089783932
30
0
10
-15.362925540103438
20
32.739109208451545
30
0
10
-15.418071877079328
20
33.082988606486921
30
0
10
-15.455372709125077
20
33.385198551034335
30
0
10
-15.484434959323403
20
33.724326696992733
30
0
10
-15.502732101440547
20
34.193451487601905
30
0
10
-15.501778325846537
20
34.887635058754604
30
0
10
-15.47020078155869
20
35.891798085569263
30
0
10
-15.398485276406424
20
37.267012641989787
30
0
10
-15.281712417180103
20
39.042050614466142
30
0
10
-15.118562221150638
20
41.218948441554645
30
0
10
-14.910966133811094
20
43.775934012583917
30
0
10
-14.663505763196961
20
46.671398966282055
30
0
10
-14.382919612025525
20
49.847424475875755
30
0
10
-14.077563390194275
20
53.233498873550182
30
0
10
-13.756890327533998
20
56.750152544967285
30
0
10
-13.430922911547974
20
60.312628203035118
30
0
10
-13.109728280959834
20
63.834536094464163
30
0
10
-12.802892154848479
20
67.231515073987097
30
0
10
-12.518993139544758
20
70.424892519702652
30
0
10
-12.265077438681027
20
73.345341660841569
30
0
10
-12.046132031085314
20
75.936547439546416
30
0
10
-11.864561595902348
20
78.15885187880842
30
0
10
-11.719656562508669
20
79.992947912458078
30
0
10
-11.607081735508938
20
81.443461012897401
30
0
10
-11.518316952854766
20
82.54279248564589
30
0
10
-11.440210467004883
20
83.354347934499927
30
0
10
-11.354237208773929
20
83.977376840602048
30
0
10
-11.239739438774116
20
84.529959608666459
30
0
10
-11.077453461587082
20
85.130368948890194
30
0
10
-10.85306133551838
20
85.878420354883389
30
0
10
-10.560441062363019
20
86.838182439310444
30
0
10
-10.205805050557542
20
88.01656929550748
30
0
10
-9.8053275042194326
20
89.372250629179149
30
0
10
-9.3813043812312085
20
90.831401071146715
30
0
10
-8.9588158088635126
20
92.301105653237244
30
0
10
-8.5621809513357316
20
93.683737212247564
30
0
10
-8.2114944329348898
20
94.89094280056328
30
0
10
-7.9191452149661243
20
95.857736876981051
30
0
10
-7.6863019698778601
20
96.556692131212856
30
0
10
-7.4995099646300076
20
97.011748607082296
30
0
10
-7.3269659347204481
20
97.313144026105363
30
0
10
-7.1329321544505966
20
97.56950081172954
30
0
10
-6.8927743588991595
20
97.857804936338638
30
0
10
-6.6072339471254313
20
98.175897764295996
30
0
10
-6.2898782643277249
20
98.48238848184927
30
0
10
-5.9545790856142435
20
98.736414416010348
30
0
10
-5.6040607752548492
20
98.934090555268
30
0
10
-5.2362718301613267
20
99.08921574613646
30
0
10
-4.8501207530229937
20
99.216030768261746
30
0
10
-4.4505014169748138
20
99.314012311374512
30
0
10
-4.0443375148575607
20
99.378571338644122
30
0
10
-3.6371830410054025
20
99.41049711286783
30
0
10
-3.2303731985891462
20
99.422807342078258
30
0
10
-2.8233298138373719
20
99.429051773377367
30
0
10
-2.4152876115863355
20
99.432285853082561
30
0
10
-2.0070399086101323
20
99.418076991423234
30
0
10
-1.6011860005275713
20
99.367153194217948
30
0
10
-1.2029131341691603
20
99.266853434711223
30
0
10
-0.81980120174087456
20
99.118417358730227
30
0
10
-0.45935697709351475
20
98.927928292743559
30
0
10
-0.12630778426543138
20
98.69819626107541
30
0
10
0.1783381495884076
20
98.425507282625432
30
0
10
0.45433972934947714
20
98.109087170800748
30
0
10
0.69884398315340224
20
97.761508022158594
30
0
10
0.90660564842352176
20
97.408580739257388
30
0
10
1.0767388086449643
20
97.069152114995632
30
0
10
1.2200164984721549
20
96.73431810613755
30
0
10
1.3598618516318559
20
96.36224448653681
30
0
10
1.5225541760140064
20
95.900793385547033
30
0
10
1.7286320375519095
20
95.3063907038282
30
0
10
1.9882359781964518
20
94.555163127679393
30
0
10
2.3038993952643541
20
93.638289460013425
30
0
10
2.671429222157272
20
92.561427788809567
30
0
10
3.0815679980738904
20
91.342495943552706
30
0
10
3.5213137037734539
20
90.010121270119626
30
0
10
3.9754045337919717
20
88.601885977051253
30
0
10
4.4276911146392033
20
87.162465121241169
30
0
10
4.8626618790890026
20
85.742304585607911
30
0
10
5.2663935063040146
20
84.39365424846018
30
0
10
5.6271911291799226
20
83.165056479562324
30
0
10
5.9363167588743115
20
82.096346313044734
30
0
10
6.1886955736234937
20
81.213360742992521
30
0
10
6.383598709735276
20
80.522954173206301
30
0
10
6.525412984012231
20
80.007459965204234
30
0
10
6.6241926471762733
20
79.620382852185401
30
0
10
6.6967788047817924
20
79.278955917527313
30
0
10
6.7632872769984651
20
78.882236479569684
30
0
10
6.8429609165524496
20
78.332768694959412
30
0
10
6.9498843528164898
20
77.558844219462131
30
0
10
7.0931108683688731
20
76.514185444374959
30
0
10
7.2773910119722549
20
75.174524045548537
30
0
10
7.5036835797502217
20
73.535303726904388
30
0
10
7.7697584780843778
20
71.608908316374723
30
0
10
8.0707600216298871
20
69.422094156878131
30
0
10
8.3997873080270722
20
67.013334560673599
30
0
10
8.7484670210945801
20
64.430202735681917
30
0
10
9.1075299119642867
20
61.72673724981108
30
0
10
9.4673846611296586
20
58.960817499214038
30
0
10
9.8186952334089455
20
56.191529383139994
30
0
10
10.152951221453993
20
53.476548106714304
30
0
10
10.463054014262994
20
50.869483667719983
30
0
10
10.743866357702283
20
48.417312093160874
30
0
10
10.992849002100666
20
46.157602923206376
30
0
10
11.210446134551887
20
44.116333831981855
30
0
10
11.399175346742055
20
42.308720893211429
30
0
10
11.562884537566662
20
40.739668415926992
30
0
10
11.705940215631024
20
39.404358375186334
30
0
10
11.832453892438156
20
38.288797962452669
30
0
10
11.94547153917612
20
37.370344027178824
30
0
10
12.046226661536576
20
36.618332548235053
30
0
10
12.13325505824689
20
35.994441558001121
30
0
10
12.201828097366521
20
35.453685407508175
30
0
10
12.242614219812534
20
34.943869604551153
30
0
10
12.242977443940076
20
34.410348496512448
30
0
10
12.192416701486746
20
33.809422476651562
30
0
10
12.086635963533086
20
33.118507597625957
30
0
10
11.932992145748273
20
32.350150108448915
30
0
10
11.752821048052603
20
31.556609219637345
30
0
10
11.574058130345076
20
30.804862369365011
30
0
10
11.425320474733454
20
30.155773375908108
30
0
10
11.329671680653135
20
29.64305065598511
30
0
10
11.297922280261011
20
29.248965152005439
30
0
10
11.323872455988617
20
28.891029389654641
30
0
10
11.39256058319331
20
28.475552825130066
30
0
10
11.487582925045949
20
27.949289563726513
30
0
10
11.597530465463846
20
27.337982589352634
30
0
10
11.715281273978505
20
26.706780603559075
30
0
10
11.838328752413066
20
26.131477206601645
30
0
10
11.968669956968789
20
25.665379785135887
30
0
10
12.112958818585088
20
25.308429823201184
30
0
10
12.283540419938113
20
25.026862558917145
30
0
10
12.499970078500745
20
24.772902003952694
30
0
10
12.789297370325375
20
24.504070014933195
30
0
10
13.170172183390958
20
24.191615739526476
30
0
10
13.636330475767808
20
23.830536581191208
30
0
10
14.143817102612584
20
23.446414911665077
30
0
10
14.634337510808502
20
23.076004526088433
30
0
10
15.055923265338462
20
22.749600114215525
30
0
10
15.383773836666077
20
22.473564979127723
30
0
10
15.643276436531133
20
22.210579064563952
30
0
10
15.885060924726435
20
21.906883239166156
30
0
10
16.157134443439812
20
21.522294964438018
30
0
10
16.477447450577579
20
21.059981746740299
30
0
10
16.842987525490685
20
20.549597444794845
30
0
10
17.240236920229684
20
20.028478339028521
30
0
10
17.654491895824194
20
19.524886014503686
30
0
10
18.081246154746768
20
19.037033805744596
30
0
10
18.524220444123991
20
18.540271116303654
30
0
10
18.990476484738373
20
18.000389714710941
30
0
10
19.486336255262973
20
17.385363564711326
30
0
10
20.013393035229903
20
16.676557444655447
30
0
10
20.563390918694754
20
15.883185146993473
30
0
10
21.119761281189831
20
15.038298603612141
30
0
10
21.662004961285955
20
14.186924117953762
30
0
10
22.169123056289127
20
13.376824808294829
30
0
10
22.623511734374162
20
12.647975378016728
30
0
10
23.014501645539866
20
12.023036939331782
30
0
10
23.342422358020936
20
11.496336209744255
30
0
10
23.621363066501328
20
11.026572914394015
30
0
10
23.87133684815938
20
10.559790889558569
30
0
10
24.111292697485776
20
10.049959741496915
30
0
10
24.351998060386855
20
9.4798473230945923
30
0
10
24.588445673752265
20
8.8834804846760509
30
0
10
24.807056958969248
20
8.3191901815239788
30
0
10
24.994267895928001
20
7.8376012337075629
30
0
10
25.143581001320108
20
7.455780496734671
30
0
10
25.265839206104651
20
7.118001671298182
30
0
10
25.380835531207346
20
6.7343233028590177
30
0
10
25.504769000966903
20
6.2359819048971925
30
0
10
25.636952086177402
20
5.6351525908444913
30
0
10
25.764170256848104
20
5.0016417145408472
30
0
10
25.869929524895863
20
4.4165786801340898
30
0
10
25.940993870648001
20
3.9393029746890873
30
0
10
25.977488973665345
20
3.5561762612765486
30
0
10
25.989848544256454
20
3.1972488284944873
30
0
10
25.989795832529666
20
2.7840650248099337
30
0
10
25.981405550076573
20
2.2765009681057933
30
0
10
25.961163169686476
20
1.6757549663051294
30
0
10
25.923069348917402
20
1.0027802411022402
30
0
10
25.861745727433586
20
0.28600956567850394
30
0
10
25.777201899599433
20
-0.45776539694572316
30
0
10
25.675598714782186
20
-1.227772625682453
30
0
10
25.566511377979833
20
-2.0312494615518135
30
0
10
25.461170876635858
20
-2.8788659302407895
30
0
10
25.370218594669012
20
-3.7784437588503379
30
0
10
25.301873004906067
20
-4.730113541410276
30
0
10
25.259407027274442
20
-5.7190716301981945
30
0
10
25.241342430431835
20
-6.7177920600620631
30
0
10
25.243267100640576
20
-7.6938880745832829
30
0
10
25.259159654561799
20
-8.6162538984496315
30
0
10
25.282922115890287
20
-9.4619433940480331
30
0
10
25.309813151091337
20
-10.222672925415935
30
0
10
25.337948345843134
20
-10.911628194974101
30
0
10
25.369703408155246
20
-11.569739872883565
30
0
10
25.410302391929864
20
-12.255319414482365
30
0
10
25.466487323364895
20
-13.034197412005444
30
0
10
25.545142060397126
20
-13.969554330989673
30
0
10
25.651970732657922
20
-15.112154646797322
30
0
10
25.790069029153379
20
-16.489758020799151
30
0
10
25.958787944341829
20
-18.098796450649118
30
0
10
26.154531557517426
20
-19.911062759798511
30
0
10
26.371348697500089
20
-21.878798760749021
30
0
10
26.601603898011351
20
-23.940399048136136
30
0
10
26.836614560464316
20
-26.025852443064082
30
0
10
27.067302711102851
20
-28.062296647622446
30
0
10
27.284840285688745
20
-29.979522894620803
30
0
10
27.481297623010832
20
-31.715504939710737
30
0
10
27.650289607793024
20
-33.221911159361916
30
0
10
27.78762511597521
20
-34.46963917978443
30
0
10
27.891949782670906
20
-35.454305941170297
30
0
10
27.965404054414019
20
-36.201839587614479
30
0
10
28.014243487680069
20
-36.773817684709726
30
0
10
28.046391781600306
20
-37.249206181192093
30
0
10
28.068904363436697
20
-37.705605747228233
30
0
10
28.085677150421024
20
-38.201923554414464
30
0
10
28.094503782836572
20
-38.757240579650215
30
0
10
28.08963372889087
20
-39.361340373514416
30
0
10
28.065570817717443
20
-39.991892147175157
30
0
10
28.020040850271148
20
-40.627917418159882
30
0
10
27.958284232177988
20
-41.268244499928031
30
0
10
27.891781718542642
20
-41.930239622831493
30
0
10
27.834380069027379
20
-42.639359222587601
30
0
10
27.799078352188772
20
-43.421188282618843
30
0
10
27.794880146816357
20
-44.29329011745488
30
0
10
27.822775951286921
20
-45.255051613705604
30
0
10
27.875694279196001
20
-46.287298196365271
30
0
10
27.941645925350421
20
-47.359847948281512
30
0
10
28.005965627894728
20
-48.436820103487179
30
0
10
28.053882113219583
20
-49.482755481250472
30
0
10
28.073046246468412
20
-50.468647062760667
30
0
10
28.05584682604561
20
-51.377407600668363
30
0
10
28.002377187841141
20
-52.211040575736561
30
0
10
27.921233916561192
20
-52.992143663535678
30
0
10
27.825979811853742
20
-53.754035454612094
30
0
10
27.732587918935799
20
-54.533507947581825
30
0
10
27.656387483124437
20
-55.362141916906666
30
0
10
27.609465566250041
20
-56.259125821911589
30
0
10
27.597276859016819
20
-57.221245694691341
30
0
10
27.6178217242099
20
-58.22224703861994
30
0
10
27.663905428980481
20
-59.223460888326088
30
0
10
27.724615799241334
20
-60.181610583032324
30
0
10
27.787109726659757
20
-61.057645841146915
30
0
10
27.838287076443969
20
-61.825408085014615
30
0
10
27.866466924092613
20
-62.479730410855616
30
0
10
27.863184016371182
20
-63.046488399707606
30
0
10
27.823659545099932
20
-63.572016107580879
30
0
10
27.747145627465109
20
-64.109064956549176
30
0
10
27.637188814343556
20
-64.704958410824119
30
0
10
27.502238463780845
20
-65.386420166274789
30
0
10
27.354367059394388
20
-66.159234286052552
30
0
10
27.207169742576951
20
-67.01399954794114
30
0
10
27.073954926133212
20
-67.929911542784197
30
0
10
26.965754951856479
20
-68.879411764885475
30
0
10
26.889551149390641
20
-69.832356156538964
30
0
10
26.846047960119176
20
-70.760673523474352
30
0
10
26.830503358074051
20
-71.640567584472322
30
0
10
26.83425410933426
20
-72.454216509151436
30
0
10
26.846001773684019
20
-73.191611005659553
30
0
10
26.853202365212006
20
-73.852404334468403
30
0
10
26.843403767146587
20
-74.447593125963664
30
0
10
26.805623937627701
20
-75.001718369247016
30
0
10
26.731627281993045
20
-75.547103023234314
30
0
10
26.617301544520878
20
-76.117161584254504
30
0
10
26.463796924685596
20
-76.740470550258891
30
0
10
26.27926853080475
20
-77.43345214194558
30
0
10
26.077175253257401
20
-78.200377452368571
30
0
10
25.873409142143085
20
-79.035775463059991
30
0
10
25.683843168639761
20
-79.926058326352418
30
0
10
25.521634138349508
20
-80.851451162039112
30
0
10
25.394794694720638
20
-81.787844217260385
30
0
10
25.303215772858184
20
-82.708537595658015
30
0
10
25.240249781254057
20
-83.587447853359521
30
0
10
25.195045759887154
20
-84.402584856634192
30
0
10
25.15461531019762
20
-85.139410831609979
30
0
10
25.106026121515352
20
-85.794299236363756
30
0
10
25.038506754176467
20
-86.377832571779649
30
0
10
24.945683359269069
20
-86.918500710407201
30
0
10
24.824572206242973
20
-87.454268762194275
30
0
10
24.67440365315845
20
-88.023350533616863
30
0
10
24.495587205481584
20
-88.655862491407404
30
0
10
24.288415354797163
20
-89.363613729464234
30
0
10
24.053370237112151
20
-90.14167276973582
30
0
10
23.791849631973875
20
-90.972959333089619
30
0
10
23.506731972844928
20
-91.831806968279182
30
0
10
23.203051443970644
20
-92.687966217960621
30
0
10
22.888525972744876
20
-93.51039619523705
30
0
10
22.574413075562948
20
-94.271211169529309
30
0
10
22.272836673905498
20
-94.948388144380843
30
0
10
21.993854383788264
20
-95.528169694583141
30
0
10
21.742378994378107
20
-96.007925373783095
30
0
10
21.515702478968937
20
-96.398023251811139
30
0
10
21.299368844023633
20
-96.726172503165557
30
0
10
21.073680636601978
20
-97.026303759291764
30
0
10
20.822176711109428
20
-97.324867368404568
30
0
10
20.54089762585587
20
-97.625345891535858
30
0
10
20.234849712722358
20
-97.916060713638899
30
0
10
19.911982442474574
20
-98.182162748889823
30
0
10
19.577648144436182
20
-98.417385207147703
30
0
10
19.233543899154188
20
-98.622307190816031
30
0
10
18.877726679750481
20
-98.800459241268015
30
0
10
18.503730031718415
20
-98.955048279052221
30
0
10
18.107430417346801
20
-99.088173899904433
30
0
10
17.694130990696411
20
-99.20046727474184
30
0
10
17.367958622966103
20
-99.27249034467026
30
0
10
17.135020601277937
20
-99.315707833520037
30
0
10
16.984595174812842
20
-99.339691215214287
30
0
10
16.9102
20
-99.350500000000011
30
0
0
ENDSEC
0
SECTION
2
OBJECTS
0
DICTIONARY
5
C
100
AcDbDictionary
3
ACAD_GROUP
350
D
3
ACAD_MLINESTYLE
350
17
0
DICTIONARY
5
D
100
AcDbDictionary
0
DICTIONARY
5
1A
330
C
100
AcDbDictionary
0
DICTIONARY
5
17
100
AcDbDictionary
0
ENDSEC
0
EOF
