0
SECTION
2
HEADER
9
$INSUNITS
70
4
9
$ACADVER
1
AC1014
9
$HANDSEED
5
FFFF
0
ENDSEC
0
SECTION
2
TABLES
0
TABLE
2
VPORT
5
8
100
AcDbSymbolTable
0
ENDTAB
0
TABLE
2
LTYPE
5
5
100
AcDbSymbolTable
0
LTYPE
5
14
100
AcDbSymbolTableRecord
100
AcDbLinetypeTableRecord
2
BYBLOCK
70
0
0
LTYPE
5
15
100
AcDbSymbolTableRecord
100
AcDbLinetypeTableRecord
2
BYLAYER
70
0
0
LTYPE
5
16
100
AcDbSymbolTableRecord
100
AcDbLinetypeTableRecord
2
DASHED
70
0
3
Dashed __ __ __ __ __ __ __ __ __ __ __ __ __ _
72
65
73
2
40
0.75
49
0.5
74
0
49
-0.25
74
0
0
ENDTAB
0
TABLE
2
LAYER
5
2
100
AcDbSymbolTable
70
2
0
LAYER
5
50
100
AcDbSymbolTableRecord
100
AcDbLayerTableRecord
2
0
70
0
62
7
6
CONTINUOUS
0
ENDTAB
0
TABLE
2
STYLE
5
3
100
AcDbSymbolTable
70
1
0
STYLE
5
11
100
AcDbSymbolTableRecord
100
AcDbTextStyleTableRecord
2
STANDARD
70
0
0
ENDTAB
0
TABLE
2
VIEW
5
6
100
AcDbSymbolTable
70
0
0
ENDTAB
0
TABLE
2
UCS
5
7
100
AcDbSymbolTable
70
0
0
ENDTAB
0
TABLE
2
APPID
5
9
100
AcDbSymbolTable
70
2
0
APPID
5
12
100
AcDbSymbolTableRecord
100
AcDbRegAppTableRecord
2
ACAD
70
0
0
ENDTAB
0
TABLE
2
DIMSTYLE
5
A
100
AcDbSymbolTable
70
1
0
ENDTAB
0
TABLE
2
BLOCK_RECORD
5
1
100
AcDbSymbolTable
70
1
0
BLOCK_RECORD
5
1F
100
AcDbSymbolTableRecord
100
AcDbBlockTableRecord
2
*MODEL_SPACE
0
BLOCK_RECORD
5
1B
100
AcDbSymbolTableRecord
100
AcDbBlockTableRecord
2
*PAPER_SPACE
0
ENDTAB
0
ENDSEC
0
SECTION
2
BLOCKS
0
BLOCK
5
20
100
AcDbEntity
100
AcDbBlockBegin
2
*MODEL_SPACE
0
ENDBLK
5
21
100
AcDbEntity
100
AcDbBlockEnd
0
BLOCK
5
1C
100
AcDbEntity
100
AcDbBlockBegin
2
*PAPER_SPACE
0
ENDBLK
5
1D
100
AcDbEntity
100
AcDbBlockEnd
0
ENDSEC
0
SECTION
2
ENTITIES
0
SPLINE
5
100
100
AcDbEntity
8
0
100
AcDbSpline
70
6
71
5
72
676
73
670
74
0
42
0.000000001
43
0.0000000001
44
0.0000000001
40
0
40
0
40
0
40
0
40
0
40
0
40
0.0015037593984962407
40
0.0030075187969924814
40
0.0045112781954887221
40
0.0060150375939849628
40
0.0075187969924812035
40
0.0090225563909774441
40
0.010526315789473686
40
0.012030075187969926
40
0.013533834586466165
40
0.015037593984962405
40
0.016541353383458645
40
0.018045112781954885
40
0.019548872180451125
40
0.021052631578947364
40
0.022556390977443604
40
0.024060150375939844
40
0.025563909774436084
40
0.027067669172932324
40
0.028571428571428564
40
0.030075187969924803
40
0.031578947368421047
40
0.03308270676691729
40
0.034586466165413533
40
0.036090225563909777
40
0.03759398496240602
40
0.039097744360902263
40
0.040601503759398506
40
0.04210526315789475
40
0.043609022556390993
40
0.045112781954887236
40
0.04661654135338348
40
0.048120300751879723
40
0.049624060150375966
40
0.05112781954887221
40
0.052631578947368453
40
0.054135338345864696
40
0.055639097744360939
40
0.057142857142857183
40
0.058646616541353426
40
0.060150375939849669
40
0.061654135338345913
40
0.063157894736842149
40
0.064661654135338392
40
0.066165413533834636
40
0.067669172932330879
40
0.069172932330827122
40
0.070676691729323365
40
0.072180451127819609
40
0.073684210526315852
40
0.075187969924812095
40
0.076691729323308339
40
0.078195488721804582
40
0.079699248120300825
40
0.081203007518797068
40
0.082706766917293312
40
0.084210526315789555
40
0.085714285714285798
40
0.087218045112782042
40
0.088721804511278285
40
0.090225563909774528
40
0.091729323308270772
40
0.093233082706767015
40
0.094736842105263258
40
0.096240601503759501
40
0.097744360902255745
40
0.099248120300751988
40
0.10075187969924823
40
0.10225563909774447
40
0.10375939849624072
40
0.10526315789473696
40
0.1067669172932332
40
0.10827067669172945
40
0.10977443609022569
40
0.11127819548872193
40
0.11278195488721818
40
0.11428571428571442
40
0.11578947368421066
40
0.11729323308270691
40
0.11879699248120315
40
0.12030075187969939
40
0.12180451127819564
40
0.12330827067669188
40
0.12481203007518812
40
0.12631578947368435
40
0.12781954887218058
40
0.12932330827067681
40
0.13082706766917304
40
0.13233082706766927
40
0.1338345864661655
40
0.13533834586466173
40
0.13684210526315796
40
0.13834586466165419
40
0.13984962406015042
40
0.14135338345864665
40
0.14285714285714288
40
0.14436090225563911
40
0.14586466165413534
40
0.14736842105263157
40
0.14887218045112779
40
0.15037593984962402
40
0.15187969924812025
40
0.15338345864661648
40
0.15488721804511271
40
0.15639097744360894
40
0.15789473684210517
40
0.1593984962406014
40
0.16090225563909763
40
0.16240601503759386
40
0.16390977443609009
40
0.16541353383458632
40
0.16691729323308255
40
0.16842105263157878
40
0.16992481203007501
40
0.17142857142857124
40
0.17293233082706747
40
0.17443609022556369
40
0.17593984962405992
40
0.17744360902255615
40
0.17894736842105238
40
0.18045112781954861
40
0.18195488721804484
40
0.18345864661654107
40
0.1849624060150373
40
0.18646616541353353
40
0.18796992481202976
40
0.18947368421052599
40
0.19097744360902222
40
0.19248120300751845
40
0.19398496240601468
40
0.19548872180451091
40
0.19699248120300714
40
0.19849624060150337
40
0.19999999999999959
40
0.20150375939849582
40
0.20300751879699205
40
0.20451127819548828
40
0.20601503759398451
40
0.20751879699248074
40
0.20902255639097697
40
0.2105263157894732
40
0.21203007518796943
40
0.21353383458646566
40
0.21503759398496189
40
0.21654135338345812
40
0.21804511278195435
40
0.21954887218045058
40
0.22105263157894681
40
0.22255639097744304
40
0.22406015037593927
40
0.22556390977443549
40
0.22706766917293172
40
0.22857142857142795
40
0.23007518796992418
40
0.23157894736842041
40
0.23308270676691664
40
0.23458646616541287
40
0.2360902255639091
40
0.23759398496240533
40
0.23909774436090156
40
0.24060150375939779
40
0.24210526315789402
40
0.24360902255639025
40
0.24511278195488648
40
0.24661654135338271
40
0.24812030075187894
40
0.24962406015037517
40
0.25112781954887142
40
0.25263157894736765
40
0.25413533834586388
40
0.25563909774436011
40
0.25714285714285634
40
0.25864661654135257
40
0.2601503759398488
40
0.26165413533834503
40
0.26315789473684126
40
0.26466165413533749
40
0.26616541353383372
40
0.26766917293232995
40
0.26917293233082618
40
0.27067669172932241
40
0.27218045112781863
40
0.27368421052631486
40
0.27518796992481109
40
0.27669172932330732
40
0.27819548872180355
40
0.27969924812029978
40
0.28120300751879601
40
0.28270676691729224
40
0.28421052631578847
40
0.2857142857142847
40
0.28721804511278093
40
0.28872180451127716
40
0.29022556390977339
40
0.29172932330826962
40
0.29323308270676585
40
0.29473684210526208
40
0.29624060150375831
40
0.29774436090225453
40
0.29924812030075076
40
0.30075187969924699
40
0.30225563909774322
40
0.30375939849623945
40
0.30526315789473568
40
0.30676691729323191
40
0.30827067669172814
40
0.30977443609022437
40
0.3112781954887206
40
0.31278195488721683
40
0.31428571428571306
40
0.31578947368420929
40
0.31729323308270552
40
0.31879699248120175
40
0.32030075187969798
40
0.32180451127819421
40
0.32330827067669043
40
0.32481203007518666
40
0.32631578947368289
40
0.32781954887217912
40
0.32932330827067535
40
0.33082706766917158
40
0.33233082706766781
40
0.33383458646616404
40
0.33533834586466027
40
0.3368421052631565
40
0.33834586466165273
40
0.33984962406014896
40
0.34135338345864519
40
0.34285714285714142
40
0.34436090225563765
40
0.34586466165413388
40
0.34736842105263011
40
0.34887218045112633
40
0.35037593984962256
40
0.35187969924811879
40
0.35338345864661502
40
0.35488721804511125
40
0.35639097744360748
40
0.35789473684210371
40
0.35939849624059994
40
0.36090225563909617
40
0.3624060150375924
40
0.36390977443608863
40
0.36541353383458486
40
0.36691729323308109
40
0.36842105263157732
40
0.36992481203007355
40
0.37142857142856978
40
0.37293233082706601
40
0.37443609022556223
40
0.37593984962405846
40
0.37744360902255469
40
0.37894736842105092
40
0.38045112781954715
40
0.38195488721804338
40
0.38345864661653961
40
0.38496240601503584
40
0.38646616541353207
40
0.3879699248120283
40
0.38947368421052453
40
0.39097744360902076
40
0.39248120300751699
40
0.39398496240601322
40
0.39548872180450945
40
0.39699248120300568
40
0.39849624060150191
40
0.39999999999999813
40
0.40150375939849436
40
0.40300751879699059
40
0.40451127819548682
40
0.40601503759398305
40
0.40751879699247928
40
0.40902255639097551
40
0.41052631578947174
40
0.41203007518796797
40
0.4135338345864642
40
0.41503759398496043
40
0.41654135338345666
40
0.41804511278195289
40
0.41954887218044912
40
0.42105263157894535
40
0.42255639097744158
40
0.42406015037593781
40
0.42556390977443403
40
0.42706766917293026
40
0.42857142857142649
40
0.43007518796992272
40
0.43157894736841895
40
0.43308270676691518
40
0.43458646616541141
40
0.43609022556390764
40
0.43759398496240387
40
0.4390977443609001
40
0.44060150375939633
40
0.44210526315789256
40
0.44360902255638879
40
0.44511278195488502
40
0.44661654135338125
40
0.44812030075187748
40
0.44962406015037371
40
0.45112781954886993
40
0.45263157894736616
40
0.45413533834586239
40
0.45563909774435862
40
0.45714285714285485
40
0.45864661654135108
40
0.46015037593984731
40
0.46165413533834354
40
0.46315789473683977
40
0.464661654135336
40
0.46616541353383223
40
0.46766917293232846
40
0.46917293233082469
40
0.47067669172932092
40
0.47218045112781715
40
0.47368421052631338
40
0.47518796992480961
40
0.47669172932330584
40
0.47819548872180206
40
0.47969924812029829
40
0.48120300751879452
40
0.48270676691729075
40
0.48421052631578698
40
0.48571428571428321
40
0.48721804511277944
40
0.48872180451127567
40
0.4902255639097719
40
0.49172932330826813
40
0.49323308270676436
40
0.49473684210526059
40
0.49624060150375682
40
0.49774436090225305
40
0.49924812030074928
40
0.50075187969924551
40
0.50225563909774174
40
0.50375939849623796
40
0.50526315789473419
40
0.50676691729323042
40
0.50827067669172665
40
0.50977443609022288
40
0.51127819548871911
40
0.51278195488721534
40
0.51428571428571157
40
0.5157894736842078
40
0.51729323308270403
40
0.51879699248120026
40
0.52030075187969649
40
0.52180451127819272
40
0.52330827067668895
40
0.52481203007518518
40
0.52631578947368141
40
0.52781954887217764
40
0.52932330827067386
40
0.53082706766917009
40
0.53233082706766632
40
0.53383458646616255
40
0.53533834586465878
40
0.53684210526315501
40
0.53834586466165124
40
0.53984962406014747
40
0.5413533834586437
40
0.54285714285713993
40
0.54436090225563616
40
0.54586466165413239
40
0.54736842105262862
40
0.54887218045112485
40
0.55037593984962108
40
0.55187969924811731
40
0.55338345864661354
40
0.55488721804510976
40
0.55639097744360599
40
0.55789473684210222
40
0.55939849624059845
40
0.56090225563909468
40
0.56240601503759091
40
0.56390977443608714
40
0.56541353383458337
40
0.5669172932330796
40
0.56842105263157583
40
0.56992481203007206
40
0.57142857142856829
40
0.57293233082706452
40
0.57443609022556075
40
0.57593984962405698
40
0.57744360902255321
40
0.57894736842104944
40
0.58045112781954566
40
0.58195488721804189
40
0.58345864661653812
40
0.58496240601503435
40
0.58646616541353058
40
0.58796992481202681
40
0.58947368421052304
40
0.59097744360901927
40
0.5924812030075155
40
0.59398496240601173
40
0.59548872180450796
40
0.59699248120300419
40
0.59849624060150042
40
0.59999999999999665
40
0.60150375939849288
40
0.60300751879698911
40
0.60451127819548534
40
0.60601503759398156
40
0.60751879699247779
40
0.60902255639097402
40
0.61052631578947025
40
0.61203007518796648
40
0.61353383458646271
40
0.61503759398495894
40
0.61654135338345517
40
0.6180451127819514
40
0.61954887218044763
40
0.62105263157894386
40
0.62255639097744009
40
0.62406015037593632
40
0.62556390977443255
40
0.62706766917292878
40
0.62857142857142501
40
0.63007518796992124
40
0.63157894736841746
40
0.63308270676691369
40
0.63458646616540992
40
0.63609022556390615
40
0.63759398496240238
40
0.63909774436089861
40
0.64060150375939484
40
0.64210526315789107
40
0.6436090225563873
40
0.64511278195488353
40
0.64661654135337976
40
0.64812030075187599
40
0.64962406015037222
40
0.65112781954886845
40
0.65263157894736468
40
0.65413533834586091
40
0.65563909774435714
40
0.65714285714285336
40
0.65864661654134959
40
0.66015037593984582
40
0.66165413533834205
40
0.66315789473683828
40
0.66466165413533451
40
0.66616541353383074
40
0.66766917293232697
40
0.6691729323308232
40
0.67067669172931943
40
0.67218045112781566
40
0.67368421052631189
40
0.67518796992480812
40
0.67669172932330435
40
0.67819548872180058
40
0.67969924812029681
40
0.68120300751879304
40
0.68270676691728926
40
0.68421052631578549
40
0.68571428571428172
40
0.68721804511277795
40
0.68872180451127418
40
0.69022556390977041
40
0.69172932330826664
40
0.69323308270676287
40
0.6947368421052591
40
0.69624060150375533
40
0.69774436090225156
40
0.69924812030074779
40
0.70075187969924402
40
0.70225563909774025
40
0.70375939849623648
40
0.70526315789473271
40
0.70676691729322894
40
0.70827067669172517
40
0.70977443609022139
40
0.71127819548871762
40
0.71278195488721385
40
0.71428571428571008
40
0.71578947368420631
40
0.71729323308270254
40
0.71879699248119877
40
0.720300751879695
40
0.72180451127819123
40
0.72330827067668746
40
0.72481203007518369
40
0.72631578947367992
40
0.72781954887217615
40
0.72932330827067238
40
0.73082706766916861
40
0.73233082706766484
40
0.73383458646616107
40
0.73533834586465729
40
0.73684210526315352
40
0.73834586466164975
40
0.73984962406014598
40
0.74135338345864221
40
0.74285714285713844
40
0.74436090225563467
40
0.7458646616541309
40
0.74736842105262713
40
0.74887218045112336
40
0.75037593984961959
40
0.75187969924811582
40
0.75338345864661205
40
0.75488721804510828
40
0.75639097744360451
40
0.75789473684210074
40
0.75939849624059697
40
0.76090225563909319
40
0.76240601503758942
40
0.76390977443608565
40
0.76541353383458188
40
0.76691729323307811
40
0.76842105263157434
40
0.76992481203007057
40
0.7714285714285668
40
0.77293233082706303
40
0.77443609022555926
40
0.77593984962405549
40
0.77744360902255172
40
0.77894736842104795
40
0.78045112781954418
40
0.78195488721804041
40
0.78345864661653664
40
0.78496240601503287
40
0.78646616541352909
40
0.78796992481202532
40
0.78947368421052155
40
0.79097744360901778
40
0.79248120300751401
40
0.79398496240601024
40
0.79548872180450647
40
0.7969924812030027
40
0.79849624060149893
40
0.79999999999999516
40
0.80150375939849139
40
0.80300751879698762
40
0.80451127819548385
40
0.80601503759398008
40
0.80751879699247631
40
0.80902255639097254
40
0.81052631578946877
40
0.81203007518796499
40
0.81353383458646122
40
0.81503759398495745
40
0.81654135338345368
40
0.81804511278194991
40
0.81954887218044614
40
0.82105263157894237
40
0.8225563909774386
40
0.82406015037593483
40
0.82556390977443106
40
0.82706766917292729
40
0.82857142857142352
40
0.83007518796991975
40
0.83157894736841598
40
0.83308270676691221
40
0.83458646616540844
40
0.83609022556390467
40
0.83759398496240089
40
0.83909774436089712
40
0.84060150375939335
40
0.84210526315788958
40
0.84360902255638581
40
0.84511278195488204
40
0.84661654135337827
40
0.8481203007518745
40
0.84962406015037073
40
0.85112781954886696
40
0.85263157894736319
40
0.85413533834585942
40
0.85563909774435565
40
0.85714285714285188
40
0.85864661654134811
40
0.86015037593984434
40
0.86165413533834057
40
0.86315789473683679
40
0.86466165413533302
40
0.86616541353382925
40
0.86766917293232548
40
0.86917293233082171
40
0.87067669172931794
40
0.87218045112781417
40
0.8736842105263104
40
0.87518796992480663
40
0.87669172932330286
40
0.87819548872179909
40
0.87969924812029532
40
0.88120300751879155
40
0.88270676691728778
40
0.88421052631578401
40
0.88571428571428024
40
0.88721804511277647
40
0.88872180451127269
40
0.89022556390976892
40
0.89172932330826515
40
0.89323308270676138
40
0.89473684210525761
40
0.89624060150375384
40
0.89774436090225007
40
0.8992481203007463
40
0.90075187969924253
40
0.90225563909773876
40
0.90375939849623499
40
0.90526315789473122
40
0.90676691729322745
40
0.90827067669172368
40
0.90977443609021991
40
0.91127819548871614
40
0.91278195488721237
40
0.9142857142857086
40
0.91578947368420482
40
0.91729323308270105
40
0.91879699248119728
40
0.92030075187969351
40
0.92180451127818974
40
0.92330827067668597
40
0.9248120300751822
40
0.92631578947367843
40
0.92781954887217466
40
0.92932330827067089
40
0.93082706766916712
40
0.93233082706766335
40
0.93383458646615958
40
0.93533834586465581
40
0.93684210526315204
40
0.93834586466164827
40
0.9398496240601445
40
0.94135338345864072
40
0.94285714285713695
40
0.94436090225563318
40
0.94586466165412941
40
0.94736842105262564
40
0.94887218045112187
40
0.9503759398496181
40
0.95187969924811433
40
0.95338345864661056
40
0.95488721804510679
40
0.95639097744360302
40
0.95789473684209925
40
0.95939849624059548
40
0.96090225563909171
40
0.96240601503758794
40
0.96390977443608417
40
0.9654135338345804
40
0.96691729323307662
40
0.96842105263157285
40
0.96992481203006908
40
0.97142857142856531
40
0.97293233082706154
40
0.97443609022555777
40
0.975939849624054
40
0.97744360902255023
40
0.97894736842104646
40
0.98045112781954269
40
0.98195488721803892
40
0.98345864661653515
40
0.98496240601503138
40
0.98646616541352761
40
0.98796992481202384
40
0.98947368421052007
40
0.9909774436090163
40
0.99248120300751252
40
0.99398496240600875
40
0.99548872180450498
40
0.99699248120300121
40
0.99849624060149744
40
1
40
1
40
1
40
1
40
1
40
1
41
1
41
1
41
1
41
1
41
1
41
1
41
1
41
1
41
1
41
1
41
1
41
1
41
1
41
1
41
1
41
1
41
1
41
1
41
1
41
1
41
1
41
1
41
1
41
1
41
1
41
1
41
1
41
1
41
1
41
1
41
1
41
1
41
1
41
1
41
1
41
1
41
1
41
1
41
1
41
1
41
1
41
1
41
1
41
1
41
1
41
1
41
1
41
1
41
1
41
1
41
1
41
1
41
1
41
1
41
1
41
1
41
1
41
1
41
1
41
1
41
1
41
1
41
1
41
1
41
1
41
1
41
1
41
1
41
1
41
1
41
1
41
1
41
1
41
1
41
1
41
1
41
1
41
1
41
1
41
1
41
1
41
1
41
1
41
1
41
1
41
1
41
1
41
1
41
1
41
1
41
1
41
1
41
1
41
1
41
1
41
1
41
1
41
1
41
1
41
1
41
1
41
1
41
1
41
1
41
1
41
1
41
1
41
1
41
1
41
1
41
1
41
1
41
1
41
1
41
1
41
1
41
1
41
1
41
1
41
1
41
1
41
1
41
1
41
1
41
1
41
1
41
1
41
1
41
1
41
1
41
1
41
1
41
1
41
1
41
1
41
1
41
1
41
1
41
1
41
1
41
1
41
1
41
1
41
1
41
1
41
1
41
1
41
1
41
1
41
1
41
1
41
1
41
1
41
1
41
1
41
1
41
1
41
1
41
1
41
1
41
1
41
1
41
1
41
1
41
1
41
1
41
1
41
1
41
1
41
1
41
1
41
1
41
1
41
1
41
1
41
1
41
1
41
1
41
1
41
1
41
1
41
1
41
1
41
1
41
1
41
1
41
1
41
1
41
1
41
1
41
1
41
1
41
1
41
1
41
1
41
1
41
1
41
1
41
1
41
1
41
1
41
1
41
1
41
1
41
1
41
1
41
1
41
1
41
1
41
1
41
1
41
1
41
1
41
1
41
1
41
1
41
1
41
1
41
1
41
1
41
1
41
1
41
1
41
1
41
1
41
1
41
1
41
1
41
1
41
1
41
1
41
1
41
1
41
1
41
1
41
1
41
1
41
1
41
1
41
1
41
1
41
1
41
1
41
1
41
1
41
1
41
1
41
1
41
1
41
1
41
1
41
1
41
1
41
1
41
1
41
1
41
1
41
1
41
1
41
1
41
1
41
1
41
1
41
1
41
1
41
1
41
1
41
1
41
1
41
1
41
1
41
1
41
1
41
1
41
1
41
1
41
1
41
1
41
1
41
1
41
1
41
1
41
1
41
1
41
1
41
1
41
1
41
1
41
1
41
1
41
1
41
1
41
1
41
1
41
1
41
1
41
1
41
1
41
1
41
1
41
1
41
1
41
1
41
1
41
1
41
1
41
1
41
1
41
1
41
1
41
1
41
1
41
1
41
1
41
1
41
1
41
1
41
1
41
1
41
1
41
1
41
1
41
1
41
1
41
1
41
1
41
1
41
1
41
1
41
1
41
1
41
1
41
1
41
1
41
1
41
1
41
1
41
1
41
1
41
1
41
1
41
1
41
1
41
1
41
1
41
1
41
1
41
1
41
1
41
1
41
1
41
1
41
1
41
1
41
1
41
1
41
1
41
1
41
1
41
1
41
1
41
1
41
1
41
1
41
1
41
1
41
1
41
1
41
1
41
1
41
1
41
1
41
1
41
1
41
1
41
1
41
1
41
1
41
1
41
1
41
1
41
1
41
1
41
1
41
1
41
1
41
1
41
1
41
1
41
1
41
1
41
1
41
1
41
1
41
1
41
1
41
1
41
1
41
1
41
1
41
1
41
1
41
1
41
1
41
1
41
1
41
1
41
1
41
1
41
1
41
1
41
1
41
1
41
1
41
1
41
1
41
1
41
1
41
1
41
1
41
1
41
1
41
1
41
1
41
1
41
1
41
1
41
1
41
1
41
1
41
1
41
1
41
1
41
1
41
1
41
1
41
1
41
1
41
1
41
1
41
1
41
1
41
1
41
1
41
1
41
1
41
1
41
1
41
1
41
1
41
1
41
1
41
1
41
1
41
1
41
1
41
1
41
1
41
1
41
1
41
1
41
1
41
1
41
1
41
1
41
1
41
1
41
1
41
1
41
1
41
1
41
1
41
1
41
1
41
1
41
1
41
1
41
1
41
1
41
1
41
1
41
1
41
1
41
1
41
1
41
1
41
1
41
1
41
1
41
1
41
1
41
1
41
1
41
1
41
1
41
1
41
1
41
1
41
1
41
1
41
1
41
1
41
1
41
1
41
1
41
1
41
1
41
1
41
1
41
1
41
1
41
1
41
1
41
1
41
1
41
1
41
1
41
1
41
1
41
1
41
1
41
1
41
1
41
1
41
1
41
1
41
1
41
1
41
1
41
1
41
1
41
1
41
1
41
1
41
1
41
1
41
1
41
1
41
1
41
1
41
1
41
1
41
1
41
1
41
1
41
1
41
1
41
1
41
1
41
1
41
1
41
1
41
1
41
1
41
1
41
1
41
1
41
1
41
1
41
1
41
1
41
1
41
1
41
1
41
1
41
1
41
1
41
1
41
1
41
1
41
1
41
1
41
1
41
1
41
1
41
1
41
1
41
1
41
1
41
1
41
1
41
1
41
1
41
1
41
1
41
1
41
1
41
1
41
1
41
1
41
1
41
1
41
1
41
1
41
1
41
1
41
1
41
1
41
1
41
1
41
1
41
1
41
1
41
1
41
1
41
1
41
1
41
1
41
1
41
1
41
1
41
1
41
1
41
1
41
1
41
1
41
1
41
1
41
1
41
1
41
1
41
1
41
1
41
1
41
1
41
1
41
1
41
1
41
1
41
1
41
1
41
1
41
1
41
1
41
1
41
1
41
1
41
1
41
1
41
1
41
1
41
1
41
1
41
1
41
1
41
1
41
1
41
1
41
1
41
1
41
1
41
1
41
1
41
1
41
1
41
1
41
1
41
1
41
1
41
1
41
1
41
1
41
1
41
1
41
1
41
1
41
1
41
1
41
1
41
1
10
-28.895200000000006
20
-127.69660000000002
30
0
10
-28.992275551453702
20
-127.67557527509091
30
0
10
-29.187229082809996
20
-127.6307066094146
30
0
10
-29.483351086473903
20
-127.55455480079561
30
0
10
-29.885154416290479
20
-127.43451396204642
30
0
10
-30.384017781572297
20
-127.25427637756584
30
0
10
-30.864156002702163
20
-127.04607268866658
30
0
10
-31.323756469411691
20
-126.81257395932133
30
0
10
-31.768200201623621
20
-126.55651671331681
30
0
10
-32.2036319294211
20
-126.28032570434117
30
0
10
-32.630437889063906
20
-125.98572846225524
30
0
10
-33.045799580091604
20
-125.67379545025057
30
0
10
-33.446369251556121
20
-125.34499027719977
30
0
10
-33.83098880127001
20
-124.99920858742188
30
0
10
-34.199424937422897
20
-124.63613124003382
30
0
10
-34.551029239101311
20
-124.25557731015579
30
0
10
-34.883338986902942
20
-123.85787461555397
30
0
10
-35.193499359587165
20
-123.44366730286714
30
0
10
-35.479729327129732
20
-123.01371610294864
30
0
10
-35.742912250844931
20
-122.56867313033669
30
0
10
-35.984532484129183
20
-122.10949869483449
30
0
10
-36.204563112220292
20
-121.63786235228956
30
0
10
-36.399106970022174
20
-121.15664834811099
30
0
10
-36.563975833741821
20
-120.66847364267048
30
0
10
-36.698391548944358
20
-120.1742428730563
30
0
10
-36.809091824350773
20
-119.67137749124214
30
0
10
-36.905321890273569
20
-119.15782605304145
30
0
10
-36.993501871944865
20
-118.63606036440285
30
0
10
-37.071443483866972
20
-118.11790022048413
30
0
10
-37.132934016549704
20
-117.61470872676936
30
0
10
-37.172871360077444
20
-117.12702943275255
30
0
10
-37.19271019249873
20
-116.63329808675238
30
0
10
-37.197485969560859
20
-116.0973645702815
30
0
10
-37.192213728186665
20
-115.47744446566618
30
0
10
-37.178229347406813
20
-114.73499762830109
30
0
10
-37.153879315670991
20
-113.83691655836735
30
0
10
-37.115679703672591
20
-112.75697012217911
30
0
10
-37.059297153230489
20
-111.47750417833601
30
0
10
-36.980618676575681
20
-109.99107424941405
30
0
10
-36.876751456416315
20
-108.30201185247573
30
0
10
-36.747138447413917
20
-106.42827713198052
30
0
10
-36.593250418452399
20
-104.39905801069712
30
0
10
-36.418153240510371
20
-102.25198305615082
30
0
10
-36.226119726322437
20
-100.03047271393605
30
0
10
-36.022222958523088
20
-97.781034111226646
30
0
10
-35.811936983927083
20
-95.550575831879286
30
0
10
-35.600735743698841
20
-93.383724185474051
30
0
10
-35.393689516771254
20
-91.320115417935995
30
0
10
-35.195069973750904
20
-89.391752544167446
30
0
10
-35.007933984103246
20
-87.620208017644146
30
0
10
-34.833757433324813
20
-86.014187013496667
30
0
10
-34.671948613476317
20
-84.566223241335763
30
0
10
-34.51973716646318
20
-83.252079347252732
30
0
10
-34.372937989663718
20
-82.036448208815571
30
0
10
-34.2265406561663
20
-80.877397728123015
30
0
10
-34.075369092040482
20
-79.73132148778771
30
0
10
-33.914709316007958
20
-78.557659575339216
30
0
10
-33.74095540558713
20
-77.323750272665961
30
0
10
-33.552237030249209
20
-76.009549915157365
30
0
10
-33.349084033528705
20
-74.612617077656097
30
0
10
-33.133876925025618
20
-73.144448223582032
30
0
10
-32.910258709477525
20
-71.626539304586984
30
0
10
-32.68256335642149
20
-70.086562862727718
30
0
10
-32.455231669547317
20
-68.554462424462088
30
0
10
-32.232245479468979
20
-67.058661113815944
30
0
10
-32.016523968013196
20
-65.622038453903087
30
0
10
-31.809406342089343
20
-64.258433759963566
30
0
10
-31.609924310706624
20
-62.967868649083165
30
0
10
-31.414841426479946
20
-61.736442195747884
30
0
10
-31.219487525371047
20
-60.541071869403417
30
0
10
-31.018381961361236
20
-59.352945511667045
30
0
10
-30.805938718526996
20
-58.141476829706626
30
0
10
-30.5771463948563
20
-56.878097054700085
30
0
10
-30.328235885914495
20
-55.53999655215469
30
0
10
-30.057408583738972
20
-54.11417592991836
30
0
10
-29.765375115082261
20
-52.600511763057725
30
0
10
-29.454711718461173
20
-51.008656207311333
30
0
10
-29.129351356913826
20
-49.355639168303114
30
0
10
-28.794021763516824
20
-47.6631946777837
30
0
10
-28.453708568958991
20
-45.955215547276758
30
0
10
-28.113101897926306
20
-44.255127841507644
30
0
10
-27.776063434620838
20
-42.583358064806909
30
0
10
-27.445053620742577
20
-40.954625125232234
30
0
10
-27.120648790231296
20
-39.375624839565745
30
0
10
-26.800834430261919
20
-37.841738663413153
30
0
10
-26.481380251088357
20
-36.3384564284124
30
0
10
-26.156719429706811
20
-34.844996086624406
30
0
10
-25.820668933023505
20
-33.337230654841974
30
0
10
-25.46721390190843
20
-31.790895043632005
30
0
10
-25.091269132527259
20
-30.184691321570657
30
0
10
-24.689439791326958
20
-28.503394717394489
30
0
10
-24.260807189163298
20
-26.741059299222869
30
0
10
-23.807646239357805
20
-24.903948082276919
30
0
10
-23.336310306533829
20
-23.01413976799266
30
0
10
-22.857624541199151
20
-21.111147807731385
30
0
10
-22.385180448427697
20
-19.245049865748857
30
0
10
-21.933927266342543
20
-17.470819153009391
30
0
10
-21.518655783820513
20
-15.842217588269779
30
0
10
-21.152509409183359
20
-14.4058063808151
30
0
10
-20.845526568446889
20
-13.195066602451337
30
0
10
-20.603069536683872
20
-12.22409925196798
30
0
10
-20.424535116408006
20
-11.482374914313194
30
0
10
-20.301386737743098
20
-10.926952844707875
30
0
10
-20.217146167081058
20
-10.482031646638848
30
0
10
-20.154276818473853
20
-10.064832183623253
30
0
10
-20.100810663430103
20
-9.6099902392053256
30
0
10
-20.055003020820056
20
-9.0879647699801751
30
0
10
-20.020057435899812
20
-8.4914195652803706
30
0
10
-19.999993028792382
20
-7.8257031442186236
30
0
10
-19.995967442149084
20
-7.0996035149691847
30
0
10
-20.007582983982694
20
-6.3267515012340434
30
0
10
-20.033436216763718
20
-5.5253470928228037
30
0
10
-20.071956243867501
20
-4.7184894547523131
30
0
10
-20.122149225520552
20
-3.9344287860921257
30
0
10
-20.183355923714345
20
-3.2010209836383292
30
0
10
-20.254843666982758
20
-2.5394168942495501
30
0
10
-20.335626627291958
20
-1.9587989758157076
30
0
10
-20.423782879212666
20
-1.4487801073859634
30
0
10
-20.518080041601937
20
-0.9834056127277685
30
0
10
-20.620074100940968
20
-0.52970661410528685
30
0
10
-20.736934822370031
20
-0.05518965054145495
30
0
10
-20.879464606727534
20
0.46660933319647668
30
0
10
-21.058227078264586
20
1.0525932731458636
30
0
10
-21.279740813177177
20
1.704723573985131
30
0
10
-21.54539959924973
20
2.4114113294348751
30
0
10
-21.851764500511916
20
3.151776783613554
30
0
10
-22.190614343478948
20
3.8990505480430713
30
0
10
-22.548610288677139
20
4.6242269777236418
30
0
10
-22.908906295751173
20
5.3000178652409291
30
0
10
-23.255514483720262
20
5.9057099563255031
30
0
10
-23.576918698050825
20
6.431484657336048
30
0
10
-23.870123017217701
20
6.8836204982585425
30
0
10
-24.144084863492065
20
7.2873317273686613
30
0
10
-24.419802033260702
20
7.6790498621587533
30
0
10
-24.731718957088162
20
8.1001648673325786
30
0
10
-25.126310301490754
20
8.5901893000360499
30
0
10
-25.648056934859376
20
9.1803006578862441
30
0
10
-26.326852380849274
20
9.8866238067107588
30
0
10
-27.165307207216745
20
10.703906698332645
30
0
10
-28.124888164843668
20
11.598257475701653
30
0
10
-29.13925073409688
20
12.517437761230168
30
0
10
-30.129517735749985
20
13.402414299282093
30
0
10
-31.018508162437655
20
14.198150782145337
30
0
10
-31.74617632868776
20
14.865404523087351
30
0
10
-32.282751774439305
20
15.390504531731693
30
0
10
-32.64712938391316
20
15.799795706109091
30
0
10
-32.910070639169675
20
16.160613288751563
30
0
10
-33.15116668485728
20
16.542565013106408
30
0
10
-33.417556547096645
20
16.978971451203662
30
0
10
-33.69756835452214
20
17.445217666958023
30
0
10
-33.957710503366528
20
17.903453944499976
30
0
10
-34.172870139721468
20
18.342370555996052
30
0
10
-34.349644863299559
20
18.803238980099465
30
0
10
-34.506983820360304
20
19.33896313107272
30
0
10
-34.662447651229328
20
19.979808408945342
30
0
10
-34.819987080517301
20
20.707484242673733
30
0
10
-34.976440391832369
20
21.482381678510585
30
0
10
-35.12495386985001
20
22.262615883422331
30
0
10
-35.259565628411792
20
23.02591281591997
30
0
10
-35.379450556118506
20
23.791318669329577
30
0
10
-35.487653067282501
20
24.604635668872351
30
0
10
-35.58953786779842
20
25.522567184582599
30
0
10
-35.691315184133778
20
26.596826243347614
30
0
10
-35.798614291375337
20
27.85945924775168
30
0
10
-35.914829423611771
20
29.304545384059576
30
0
10
-36.04099103522141
20
30.892894151339849
30
0
10
-36.176080678673443
20
32.563424264014998
30
0
10
-36.317200893241093
20
34.242258852466961
30
0
10
-36.459795954734055
20
35.852859693821159
30
0
10
-36.59787343218423
20
37.325522913636554
30
0
10
-36.724172728390521
20
38.607596223132738
30
0
10
-36.830479186511447
20
39.672344358035986
30
0
10
-36.907578783754552
20
40.530911925700359
30
0
10
-36.946333254571265
20
41.234814340850377
30
0
10
-36.941707083142518
20
41.854243462648867
30
0
10
-36.896125202815405
20
42.461163560462651
30
0
10
-36.823322347396321
20
43.1101325017788
30
0
10
-36.751371614116948
20
43.821130070402432
30
0
10
-36.711885405956352
20
44.588894254495798
30
0
10
-36.72923383921632
20
45.391473276648838
30
0
10
-36.810797089023211
20
46.198781197484863
30
0
10
-36.934098871219689
20
46.981869221273946
30
0
10
-37.057696660506437
20
47.716441020879053
30
0
10
-37.139397951395729
20
48.38523277425368
30
0
10
-37.148778922751731
20
48.980334164020427
30
0
10
-37.089669811337707
20
49.506613135055765
30
0
10
-36.987794009994658
20
49.980031561980297
30
0
10
-36.859446278010772
20
50.421705348799748
30
0
10
-36.672779555269251
20
50.853424895765862
30
0
10
-36.361923500338243
20
51.292026680841161
30
0
10
-35.878464359568333
20
51.745153552725512
30
0
10
-35.244913460611826
20
52.203813045453387
30
0
10
-34.554644484023214
20
52.647803799277824
30
0
10
-33.922098635768833
20
53.062501397611889
30
0
10
-33.450911388709436
20
53.450144986371953
30
0
10
-33.187282172220172
20
53.848423634970118
30
0
10
-33.103662277320048
20
54.329726305948427
30
0
10
-33.137290469918518
20
54.965334735335702
30
0
10
-33.221372614572537
20
55.791327973086588
30
0
10
-33.307708145726906
20
56.790590067373657
30
0
10
-33.360925221684653
20
57.915070234197557
30
0
10
-33.359147636640813
20
59.098940507194833
30
0
10
-33.29210055974081
20
60.2759922017352
30
0
10
-33.160229046853587
20
61.393881465427938
30
0
10
-32.973581896210177
20
62.432976214593253
30
0
10
-32.750118798741497
20
63.412270957831865
30
0
10
-32.512359862042807
20
64.370040630683874
30
0
10
-32.284432820519292
20
65.35029987846373
30
0
10
-32.088909900301964
20
66.386039676567322
30
0
10
-31.943849860760444
20
67.485914371379266
30
0
10
-31.859471821112599
20
68.614420135271445
30
0
10
-31.835944311770113
20
69.691778075428857
30
0
10
-31.863420869793828
20
70.630534851240142
30
0
10
-31.92144735377299
20
71.36524091352895
30
0
10
-31.978925326138473
20
71.882769004093802
30
0
10
-31.993121838683876
20
72.257370646979865
30
0
10
-31.911168444419594
20
72.669035141072257
30
0
10
-31.684458793284328
20
73.326739862817362
30
0
10
-31.282532025633131
20
74.398431631355692
30
0
10
-30.70460940551169
20
75.949853163451706
30
0
10
-29.972312198677066
20
77.968748599584799
30
0
10
-29.124550770446692
20
80.37899261755193
30
0
10
-28.211569124519663
20
83.058645442848587
30
0
10
-27.289356133777112
20
85.856319560665952
30
0
10
-26.413883276264208
20
88.608307154688916
30
0
10
-25.635454012214428
20
91.155298218120905
30
0
10
-24.992919285832244
20
93.3594642625593
30
0
10
-24.508149657968708
20
95.120945065984415
30
0
10
-24.179934076968838
20
96.395614677352938
30
0
10
-23.979202426374151
20
97.209918255844499
30
0
10
-23.841110552271211
20
97.682642361635331
30
0
10
-23.665957529971976
20
98.027137648668202
30
0
10
-23.362632082095768
20
98.458214786476958
30
0
10
-22.890837953257179
20
99.102700457767483
30
0
10
-22.29342223355626
20
99.929409570236345
30
0
10
-21.65735950514253
20
100.8226304083788
30
0
10
-21.083523772864929
20
101.63788167798054
30
0
10
-20.652696819591476
20
102.26524210560774
30
0
10
-20.393995015149258
20
102.6878640603875
30
0
10
-20.250047869600728
20
103.04686244717401
30
0
10
-20.119815178120717
20
103.55533200004234
30
0
10
-19.903259632311734
20
104.40886969254007
30
0
10
-19.547107591080188
20
105.69371158161741
30
0
10
-19.038150431583251
20
107.4037325182595
30
0
10
-18.394084456577776
20
109.46253294040238
30
0
10
-17.655276239232865
20
111.74360412243061
30
0
10
-16.876102850527307
20
114.09139882273904
30
0
10
-16.11655287399439
20
116.34179781995445
30
0
10
-15.433534682531588
20
118.34333398258102
30
0
10
-14.872730197996269
20
119.97693434512114
30
0
10
-14.459238801596591
20
121.17898716395109
30
0
10
-14.191021934371008
20
121.95669565534757
30
0
10
-14.025474757439813
20
122.42234753525881
30
0
10
-13.893017943973883
20
122.75378499573426
30
0
10
-13.726312339190832
20
123.11460776055037
30
0
10
-13.491436859923345
20
123.5643782961177
30
0
10
-13.191570260279729
20
124.06035837526268
30
0
10
-12.84750149177184
20
124.52814335720939
30
0
10
-12.484529962290141
20
124.9241761189916
30
0
10
-12.119411537014841
20
125.25245563336321
30
0
10
-11.754225791863213
20
125.53630241950577
30
0
10
-11.362487160830788
20
125.80104526433885
30
0
10
-10.900002613021773
20
126.06274198865626
30
0
10
-10.330897142975262
20
126.32940924542859
30
0
10
-9.6554760298058628
20
126.59719647916359
30
0
10
-8.9130326117535432
20
126.85314724912045
30
0
10
-8.1617840171981726
20
127.08175489568205
30
0
10
-7.4649610633078902
20
127.26998793560116
30
0
10
-6.8754551460487949
20
127.41417794113192
30
0
10
-6.4181391001738248
20
127.52217786271925
30
0
10
-6.071622446791725
20
127.60558851156978
30
0
10
-5.7411624319226284
20
127.67282992812328
30
0
10
-5.2610926026843741
20
127.72502175546464
30
0
10
-4.4650518049133918
20
127.76087860945057
30
0
10
-3.2517055466222509
20
127.78028588565034
30
0
10
-1.6275753818474876
20
127.78698983031967
30
0
10
0.32759861034281978
20
127.78666504730333
30
0
10
2.4804056810815514
20
127.78592711179758
30
0
10
4.6694014694538426
20
127.79095777274202
30
0
10
6.7279665405281586
20
127.80631479230364
30
0
10
8.50877109659959
20
127.83361813965939
30
0
10
9.9065939235341034
20
127.87039199256513
30
0
10
10.884069709207589
20
127.90860101172122
30
0
10
11.490962277282593
20
127.93387851150798
30
0
10
11.899731839155228
20
127.92301044764734
30
0
10
12.331081326713706
20
127.8529629663698
30
0
10
12.96333927940317
20
127.71128747795996
30
0
10
13.830450240816958
20
127.50847375573274
30
0
10
14.850679513184609
20
127.27157003620601
30
0
10
15.886579658254279
20
127.0335185134953
30
0
10
16.797609876539866
20
126.82328226079886
30
0
10
17.488047891333693
20
126.65718279863425
30
0
10
17.976299731514516
20
126.52588003073919
30
0
10
18.368372947093007
20
126.40043452604063
30
0
10
18.779470385542876
20
126.24883797709793
30
0
10
19.25304907923714
20
126.05268451724555
30
0
10
19.757558273963159
20
125.80973061062292
30
0
10
20.238472435574938
20
125.52562676281219
30
0
10
20.661914386135521
20
125.20850095768337
30
0
10
21.026102051186527
20
124.86434894929778
30
0
10
21.343449403570602
20
124.4947420849665
30
0
10
21.629809746961101
20
124.09342562197538
30
0
10
21.899012560319946
20
123.6449460923541
30
0
10
22.165374121313455
20
123.12487212386367
30
0
10
22.443923991021325
20
122.49871732484527
30
0
10
22.750368020471821
20
121.72491904953625
30
0
10
23.09961197337379
20
120.76055874746622
30
0
10
23.50476591056719
20
119.56631153442922
30
0
10
23.97595937119355
20
118.11165691458714
30
0
10
24.519208592174312
20
116.38010689270851
30
0
10
25.135330004661903
20
114.3741225378011
30
0
10
25.818650586265363
20
112.12097559868153
30
0
10
26.557968695959175
20
109.66862884902007
30
0
10
27.337815640937805
20
107.08029358299856
30
0
10
28.139610340111851
20
104.42945698409495
30
0
10
28.942859247754903
20
101.79470980386712
30
0
10
29.726336180159414
20
99.254664349918301
30
0
10
30.469272205758294
20
96.882823381152235
30
0
10
31.152537884534478
20
94.742493867382237
30
0
10
31.759836530920552
20
92.881626059011126
30
0
10
32.278874864962631
20
91.327812784694942
30
0
10
32.70258505187212
20
90.082921432852032
30
0
10
33.030227809278173
20
89.118577861953042
30
0
10
33.268778327332839
20
88.36962469069114
30
0
10
33.433501423139241
20
87.733378610832261
30
0
10
33.544250414782951
20
87.099180857491149
30
0
10
33.622242381782613
20
86.37477133127436
30
0
10
33.686759059327088
20
85.512701587067369
30
0
10
33.751591032843919
20
84.539863271164236
30
0
10
33.826480813077403
20
83.531557190693931
30
0
10
33.918850195569455
20
82.582005247825094
30
0
10
34.035663443211504
20
81.774407656283174
30
0
10
34.184689316740659
20
81.155159480085487
30
0
10
34.37739453605149
20
80.696188413686457
30
0
10
34.623438681432425
20
80.321594641350288
30
0
10
34.923562628411119
20
79.952398853693495
30
0
10
35.260343803606382
20
79.554768133981142
30
0
10
35.604763843197233
20
79.133181328148183
30
0
10
35.927629385640145
20
78.703908339592829
30
0
10
36.211548189325718
20
78.270267802483446
30
0
10
36.450604712458819
20
77.823494183813168
30
0
10
36.645056857187974
20
77.353983714080414
30
0
10
36.797041879405242
20
76.862433008295284
30
0
10
36.909433089207837
20
76.352946568499021
30
0
10
36.986465512322127
20
75.819567843448795
30
0
10
37.033887440715489
20
75.231469272358126
30
0
10
37.058573013692317
20
74.538262867981928
30
0
10
37.067665973721432
20
73.685014055656865
30
0
10
37.067936900839207
20
72.623117945863541
30
0
10
37.064933966172759
20
71.325128552525427
30
0
10
37.062658789878469
20
69.78957708244107
30
0
10
37.063824782109783
20
68.034698749234167
30
0
10
37.069967759475354
20
66.094970277640314
30
0
10
37.081616478282612
20
64.016510726899526
30
0
10
37.098437503586361
20
61.852961311541904
30
0
10
37.119391123955992
20
59.661176942507701
30
0
10
37.142882460341468
20
57.496957802933807
30
0
10
37.166914723647466
20
55.410859151651401
30
0
10
37.189241333317902
20
53.443745468204256
30
0
10
37.207519007359295
20
51.622974695096211
30
0
10
37.219459174734062
20
49.956992431097866
30
0
10
37.222987332187984
20
48.437355808945448
30
0
10
37.216408690322147
20
47.044560398795063
30
0
10
37.198568055749334
20
45.752645710284568
30
0
10
37.169020501275128
20
44.534377457863634
30
0
10
37.128178077666981
20
43.366021086060911
30
0
10
37.077511778147901
20
42.232665933040472
30
0
10
37.019624397516367
20
41.13243338522237
30
0
10
36.958646734202603
20
40.08341440629421
30
0
10
36.898969652018934
20
39.116114389779042
30
0
10
36.843590167224228
20
38.261440166712596
30
0
10
36.792216903696172
20
37.538855452857504
30
0
10
36.740295192767881
20
36.947353353193172
30
0
10
36.675641362212701
20
36.448152225866195
30
0
10
36.583658643870407
20
35.978542500517179
30
0
10
36.456696095996449
20
35.485495300998949
30
0
10
36.30759816324754
20
34.965930263216244
30
0
10
36.162072383031557
20
34.459243599548735
30
0
10
36.035623615468552
20
34.000281990751915
30
0
10
35.907147676835407
20
33.571088771180399
30
0
10
35.722098167789547
20
33.098904355850351
30
0
10
35.423467156031251
20
32.501073804001621
30
0
10
34.980198187672194
20
31.723520438354914
30
0
10
34.397335773625414
20
30.756694432895578
30
0
10
33.703203872948933
20
29.621029853289706
30
0
10
32.943037494008401
20
28.361069426524125
30
0
10
32.170015153411356
20
27.036047087375913
30
0
10
31.437285180259899
20
25.711934611132779
30
0
10
30.789843776172408
20
24.452984597229189
30
0
10
30.255809032272193
20
23.313188608844314
30
0
10
29.839944771495148
20
22.328667532755201
30
0
10
29.53024133726241
20
21.515866230447482
30
0
10
29.30290081412911
20
20.869100267827079
30
0
10
29.127946808838765
20
20.358208902579278
30
0
10
28.974552303349533
20
19.926497714200178
30
0
10
28.816535193187363
20
19.487658860616371
30
0
10
28.635296412160574
20
18.954890874789832
30
0
10
28.422583769395708
20
18.270332561484977
30
0
10
28.183576114094052
20
17.436024316957102
30
0
10
27.93242919120339
20
16.496026897592305
30
0
10
27.687598615054959
20
15.516752611256905
30
0
10
27.46707116499525
20
14.567296891351448
30
0
10
27.284029290421717
20
13.701269107261574
30
0
10
27.141309606829047
20
12.934103682972447
30
0
10
27.033356860226068
20
12.248759010577681
30
0
10
26.950595377143088
20
11.610478733371083
30
0
10
26.882701182335392
20
10.97762074952589
30
0
10
26.823022519025997
20
10.31626143956392
30
0
10
26.769743215900149
20
9.6046266221727379
30
0
10
26.724145832536816
20
8.828587300603516
30
0
10
26.689698357432032
20
7.9796906408869326
30
0
10
26.670728066488127
20
7.0519101462726059
30
0
10
26.671512763646952
20
6.039716699194785
30
0
10
26.696113249649201
20
4.938527179274729
30
0
10
26.74808426029319
20
3.7447715489578135
30
0
10
26.83023825432997
20
2.4561048187330283
30
0
10
26.944373585082261
20
1.0715645419263842
30
0
10
27.091048566186011
20
-0.4082650692819646
30
0
10
27.26925940844707
20
-1.9810498538522812
30
0
10
27.476491035781791
20
-3.642701635199594
30
0
10
27.709048010828184
20
-5.3875308714302426
30
0
10
27.962304299198482
20
-7.2083533990892672
30
0
10
28.230986280572388
20
-9.0966162658650269
30
0
10
28.509441814515434
20
-11.042514897343246
30
0
10
28.791914569314617
20
-13.035115044085924
30
0
10
29.07281778036014
20
-15.062470164723415
30
0
10
29.347004310311398
20
-17.111746534926016
30
0
10
29.610047480680038
20
-19.169331581678662
30
0
10
29.858495720888154
20
-21.220980992404449
30
0
10
30.090194359228846
20
-23.251867316152961
30
0
10
30.304195629026353
20
-25.24723206486388
30
0
10
30.500548349847083
20
-27.19321464915835
30
0
10
30.680128066545027
20
-29.077620954447859
30
0
10
30.844450092417649
20
-30.890719547714447
30
0
10
30.995490313803788
20
-32.626020635912731
30
0
10
31.135501708804316
20
-34.281075078759613
30
0
10
31.266834930131274
20
-35.858235605265129
30
0
10
31.391751997056122
20
-37.365502276795617
30
0
10
31.512254959002842
20
-38.817173276307059
30
0
10
31.629878842653426
20
-40.234965987132412
30
0
10
31.745602244538741
20
-41.647585327191905
30
0
10
31.859949347793158
20
-43.087762693349646
30
0
10
31.973047616962937
20
-44.589882711750889
30
0
10
32.084703400882354
20
-46.187367892586238
30
0
10
32.194469718952789
20
-47.910179256496015
30
0
10
32.301717763258864
20
-49.78223812854138
30
0
10
32.405705968873434
20
-51.818948880218237
30
0
10
32.505652054998151
20
-54.02452217944618
30
0
10
32.600799287269567
20
-56.389748151458207
30
0
10
32.690496277532674
20
-58.888681159468057
30
0
10
32.774229792809606
20
-61.479125328818213
30
0
10
32.851599443785055
20
-64.10782722451404
30
0
10
32.922307165541042
20
-66.714469320979788
30
0
10
32.98614067641455
20
-69.236153632349357
30
0
10
33.04295955247968
20
-71.611668036952267
30
0
10
33.092680092004215
20
-73.78586343202798
30
0
10
33.135260900849836
20
-75.713943039257316
30
0
10
33.170687706043125
20
-77.365883056718033
30
0
10
33.198959575590713
20
-78.730580088667736
30
0
10
33.220072038565462
20
-79.820620506139377
30
0
10
33.234007369559748
20
-80.675604624980338
30
0
10
33.240707408542825
20
-81.368995896795866
30
0
10
33.240109266319216
20
-82.002344884792564
30
0
10
33.23225835198717
20
-82.684433429606671
30
0
10
33.217394426310186
20
-83.515104530145891
30
0
10
33.196063911325467
20
-84.56548863541471
30
0
10
33.169174395104271
20
-85.864943379524988
30
0
10
33.13784656211881
20
-87.410346187223226
30
0
10
33.103297298724371
20
-89.171994459568467
30
0
10
33.066710315388612
20
-91.100836385079532
30
0
10
33.029112775438691
20
-93.135117639891632
30
0
10
32.991247748066108
20
-95.207317966628366
30
0
10
32.95345214794316
20
-97.250872567330902
30
0
10
32.915523727221661
20
-99.207195837094773
30
0
10
32.87661277728661
20
-101.03208606580081
30
0
10
32.835054902208384
20
-102.70357678919328
30
0
10
32.788384544277491
20
-104.22537133942993
30
0
10
32.733828944516553
20
-105.61860069763271
30
0
10
32.668708612949054
20
-106.91579937439468
30
0
10
32.590882164343782
20
-108.1539379069652
30
0
10
32.499155484824755
20
-109.36800620016004
30
0
10
32.393745081053133
20
-110.58401645444533
30
0
10
32.276627536725897
20
-111.81305712460839
30
0
10
32.152158432886694
20
-113.04294598820493
30
0
10
32.026819103741694
20
-114.2375692727431
30
0
10
31.907248921092627
20
-115.35096475372946
30
0
10
31.798746903701861
20
-116.33775259760685
30
0
10
31.703385209453497
20
-117.16593665418763
30
0
10
31.618748365397316
20
-117.82660744159372
30
0
10
31.535293779066748
20
-118.35001817217812
30
0
10
31.437929610130556
20
-118.80224177888465
30
0
10
31.313675334178384
20
-119.25146598923223
30
0
10
31.160052285961189
20
-119.73442872805745
30
0
10
30.986949817888146
20
-120.24267116241042
30
0
10
30.806089504549583
20
-120.75090159680971
30
0
10
30.621231850057956
20
-121.23971933104403
30
0
10
30.424076608919208
20
-121.7093268693726
30
0
10
30.20341378780687
20
-122.16662293852353
30
0
10
29.952726542180432
20
-122.6168587095714
30
0
10
29.67432602315068
20
-123.05776800442978
30
0
10
29.373627589324819
20
-123.48475383034872
30
0
10
29.054896407242737
20
-123.89410551647848
30
0
10
28.718465771816252
20
-124.28533815124695
30
0
10
28.363300290747844
20
-124.65899943231886
30
0
10
27.988672849818457
20
-125.01532995025329
30
0
10
27.59534544437436
20
-125.35309986960854
30
0
10
27.184466383128566
20
-125.67010603916773
30
0
10
26.756776608844632
20
-125.96317672207535
30
0
10
26.31225467145946
20
-126.22871330659086
30
0
10
25.85120441820921
20
-126.4639438675417
30
0
10
25.375258604026119
20
-126.66822477501044
30
0
10
24.887781180594306
20
-126.84379988002806
30
0
10
24.392530144887154
20
-126.99481943662578
30
0
10
23.892514970274995
20
-127.12693590873337
30
0
10
23.38922110312884
20
-127.24602494731515
30
0
10
22.883219423814264
20
-127.35566348263796
30
0
10
22.374510943647966
20
-127.45415003605048
30
0
10
21.862947343440972
20
-127.53362076431991
30
0
10
21.348538426925433
20
-127.58457586948255
30
0
10
20.831762266978366
20
-127.60011125342839
30
0
10
20.313949286296882
20
-127.57827675604071
30
0
10
19.797769403123866
20
-127.51826290195588
30
0
10
19.287855707607072
20
-127.41710369344739
30
0
10
18.790940071907809
20
-127.26794116349141
30
0
10
18.31466944382959
20
-127.06405635194393
30
0
10
17.866477914956469
20
-126.80235004175863
30
0
10
17.452912653110346
20
-126.48560119657397
30
0
10
17.080199785245199
20
-126.11975282860288
30
0
10
16.755044116647923
20
-125.71184631607196
30
0
10
16.484094823686725
20
-125.26843400757555
30
0
10
16.270011279954893
20
-124.79654125359684
30
0
10
16.107113072355961
20
-124.3043579631111
30
0
10
15.980001633013202
20
-123.80141383224313
30
0
10
15.871266248182398
20
-123.29593613304985
30
0
10
15.768617789202469
20
-122.79320153070314
30
0
10
15.669403725752586
20
-122.2921983737547
30
0
10
15.574780323793362
20
-121.77885813053084
30
0
10
15.485225794015328
20
-121.21860153033664
30
0
10
15.396854883516664
20
-120.55262240095456
30
0
10
15.303306936635511
20
-119.70800537973818
30
0
10
15.196629632794007
20
-118.60548185971437
30
0
10
15.068582355312948
20
-117.16826361184221
30
0
10
14.911714398310833
20
-115.33007704821701
30
0
10
14.720650325831144
20
-113.04435648321565
30
0
10
14.492942364990435
20
-110.29039778785224
30
0
10
14.228587837292812
20
-107.06957714384222
30
0
10
13.929763386215555
20
-103.40320175995417
30
0
10
13.600474250909171
20
-99.32971999725433
30
0
10
13.246239789551657
20
-94.902204940664831
30
0
10
12.873763435000976
20
-90.185720587027603
30
0
10
12.490609374196611
20
-85.254738778253369
30
0
10
12.104876345219438
20
-80.190534433922167
30
0
10
11.724872691090722
20
-75.078590276308873
30
0
10
11.358790864145467
20
-70.005997480608485
30
0
10
11.014382197264268
20
-65.058858272044191
30
0
10
10.698631483759995
20
-60.319687322489266
30
0
10
10.417431793994357
20
-55.864814453171583
30
0
10
10.175258791319715
20
-51.761784753515833
30
0
10
9.9748461322878157
20
-48.066764182163737
30
0
10
9.8168583080160019
20
-44.821932197332124
30
0
10
9.6995693543483945
20
-42.05290401551715
30
0
10
9.618527854886981
20
-39.766083536652495
30
0
10
9.5662536915421317
20
-37.946176671607276
30
0
10
9.5318608258829212
20
-36.553330855213858
30
0
10
9.5008548550097807
20
-35.521154781040792
30
0
10
9.4544526316629511
20
-34.752394104758721
30
0
10
9.3745054810431956
20
-34.138726165335164
30
0
10
9.2505693262328332
20
-33.587547102487434
30
0
10
9.0839386100771122
20
-33.040647739250467
30
0
10
8.8984331121703804
20
-32.509905806909039
30
0
10
8.724638813621544
20
-32.04602329378551
30
0
10
8.5735073198699716
20
-31.677020948388638
30
0
10
8.4026983001981019
20
-31.335427199110512
30
0
10
8.1300039808243518
20
-30.876410556154021
30
0
10
7.6752141134238494
20
-30.153176416845774
30
0
10
7.0010440414593988
20
-29.088065188759256
30
0
10
6.1218022785347141
20
-27.689702716123115
30
0
10
5.0855196033536458
20
-26.024367273474404
30
0
10
3.9641590224949681
20
-24.201362154869457
30
0
10
2.840513745101676
20
-22.352634414276572
30
0
10
1.7964463192606053
20
-20.61474762281496
30
0
10
0.90073501353370444
20
-19.110106700839896
30
0
10
0.19666072014857244
20
-17.927888862183302
30
0
10
-0.30929744767102335
20
-17.10653401494007
30
0
10
-0.66161398844576003
20
-16.612159073829851
30
0
10
-0.96190254823829879
20
-16.328373559503561
30
0
10
-1.3159490014832822
20
-16.128868477626632
30
0
10
-1.7821400649292316
20
-15.949129144524754
30
0
10
-2.3291983848133899
20
-15.842188406951639
30
0
10
-2.883980674394933
20
-15.893969752061071
30
0
10
-3.3732491202171029
20
-16.143366953620927
30
0
10
-3.7613487587468741
20
-16.521970487833311
30
0
10
-4.040233487522892
20
-16.936256936134193
30
0
10
-4.2256321161084012
20
-17.341205241367732
30
0
10
-4.3499992900955338
20
-17.795788667819213
30
0
10
-4.4529294828092469
20
-18.404345479329237
30
0
10
-4.570927802664543
20
-19.270870221947803
30
0
10
-4.7293211256686103
20
-20.457250601167857
30
0
10
-4.9444135047625988
20
-21.99356085733729
30
0
10
-5.2242614992429184
20
-23.880539604986645
30
0
10
-5.5699860177905416
20
-26.095154996677792
30
0
10
-5.976855425924712
20
-28.594851688448799
30
0
10
-6.4354671536051464
20
-31.3223655479147
30
0
10
-6.9328863125176969
20
-34.210291343234069
30
0
10
-7.4538039323700094
20
-37.185762020259972
30
0
10
-7.9816839896424563
20
-40.175067257262754
30
0
10
-8.4999215475109153
20
-43.108327315933685
30
0
10
-8.9929814475586269
20
-45.924075329160914
30
0
10
-9.4475794704246994
20
-48.574036765188318
30
0
10
-9.8537651056192495
20
-51.027453545674362
30
0
10
-10.20625550593337
20
-53.276570076706371
30
0
10
-10.504102169810576
20
-55.334407965557524
30
0
10
-10.749934411202918
20
-57.230583446544621
30
0
10
-10.949346591294532
20
-59.0077895589015
30
0
10
-11.110225292484879
20
-60.718000890640866
30
0
10
-11.242101972558796
20
-62.418795364645739
30
0
10
-11.355495487720354
20
-64.169630978081727
30
0
10
-11.461257120228819
20
-66.02812984118286
30
0
10
-11.569918893648502
20
-68.046387265448161
30
0
10
-11.691030346955081
20
-70.267204473790244
30
0
10
-11.832523850151377
20
-72.720506712766081
30
0
10
-12.000011147776156
20
-75.419315924636535
30
0
10
-12.196279945145958
20
-78.357018251967176
30
0
10
-12.421727258726241
20
-81.510694410975759
30
0
10
-12.674665884240339
20
-84.843628878605415
30
0
10
-12.951680167240248
20
-88.308138142128399
30
0
10
-13.24796074852012
20
-91.848262922669562
30
0
10
-13.557648319343487
20
-95.402518610650461
30
0
10
-13.874173501846602
20
-98.90662088795014
30
0
10
-14.190598332970666
20
-102.29622116610361
30
0
10
-14.499957171295392
20
-105.50963966662306
30
0
10
-14.795597569755968
20
-108.4905951733968
30
0
10
-15.071521817931044
20
-111.19094644526781
30
0
10
-15.322726691549457
20
-113.57340513944268
30
0
10
-15.545547502460682
20
-115.61431593508247
30
0
10
-15.737992153399919
20
-117.30628069512926
30
0
10
-15.900098500630431
20
-118.66114590076096
30
0
10
-16.034237148556482
20
-119.71213780058633
30
0
10
-16.145552493083585
20
-120.51819046006059
30
0
10
-16.241560482214897
20
-121.15346438036114
30
0
10
-16.331594269217589
20
-121.69198939039616
30
0
10
-16.426172039167085
20
-122.19563280019645
30
0
10
-16.536700679643797
20
-122.69669138736708
30
0
10
-16.673915906586387
20
-123.19892824298735
30
0
10
-16.84586763326331
20
-123.69280995601986
30
0
10
-17.055005158601396
20
-124.16901089890763
30
0
10
-17.299364048560918
20
-124.62401489778871
30
0
10
-17.576486666224604
20
-125.05631434051972
30
0
10
-17.888277061368221
20
-125.46530592930374
30
0
10
-18.239385399867245
20
-125.84934416006334
30
0
10
-18.631110265667452
20
-126.20521386152311
30
0
10
-19.053435762025156
20
-126.52609818164802
30
0
10
-19.489086112667309
20
-126.80384238972158
30
0
10
-19.926953613022256
20
-127.03383783551229
30
0
10
-20.3774228732807
20
-127.22111685642741
30
0
10
-20.870457952522518
20
-127.37898837540544
30
0
10
-21.437066729377502
20
-127.52092796767704
30
0
10
-22.092233318880442
20
-127.65266253722618
30
0
10
-22.828858202906183
20
-127.77036199042888
30
0
10
-23.625729556403414
20
-127.86639180601328
30
0
10
-24.451591639142105
20
-127.93270151231873
30
0
10
-25.270744727758302
20
-127.96576965539799
30
0
10
-26.048212104282658
20
-127.96905154150055
30
0
10
-26.756038953442498
20
-127.94898408121105
30
0
10
-27.379291182860101
20
-127.91207092258406
30
0
10
-27.922236347693257
20
-127.8615277552847
30
0
10
-28.315875624285603
20
-127.80763381511177
30
0
10
-28.604775774086932
20
-127.75685495886945
30
0
10
-28.798124448545892
20
-127.71762472490921
30
0
10
-28.895200000000006
20
-127.69660000000002
30
0
0
ENDSEC
0
SECTION
2
OBJECTS
0
DICTIONARY
5
C
100
AcDbDictionary
3
ACAD_GROUP
350
D
3
ACAD_MLINESTYLE
350
17
0
DICTIONARY
5
D
100
AcDbDictionary
0
DICTIONARY
5
1A
330
C
100
AcDbDictionary
0
DICTIONARY
5
17
100
AcDbDictionary
0
ENDSEC
0
EOF
