0
SECTION
2
HEADER
9
$INSUNITS
70
4
9
$ACADVER
1
AC1014
9
$HANDSEED
5
FFFF
0
ENDSEC
0
SECTION
2
TABLES
0
TABLE
2
VPORT
5
8
100
AcDbSymbolTable
0
ENDTAB
0
TABLE
2
LTYPE
5
5
100
AcDbSymbolTable
0
LTYPE
5
14
100
AcDbSymbolTableRecord
100
AcDbLinetypeTableRecord
2
BYBLOCK
70
0
0
LTYPE
5
15
100
AcDbSymbolTableRecord
100
AcDbLinetypeTableRecord
2
BYLAYER
70
0
0
LTYPE
5
16
100
AcDbSymbolTableRecord
100
AcDbLinetypeTableRecord
2
DASHED
70
0
3
Dashed __ __ __ __ __ __ __ __ __ __ __ __ __ _
72
65
73
2
40
0.75
49
0.5
74
0
49
-0.25
74
0
0
ENDTAB
0
TABLE
2
LAYER
5
2
100
AcDbSymbolTable
70
2
0
LAYER
5
50
100
AcDbSymbolTableRecord
100
AcDbLayerTableRecord
2
0
70
0
62
7
6
CONTINUOUS
0
ENDTAB
0
TABLE
2
STYLE
5
3
100
AcDbSymbolTable
70
1
0
STYLE
5
11
100
AcDbSymbolTableRecord
100
AcDbTextStyleTableRecord
2
STANDARD
70
0
0
ENDTAB
0
TABLE
2
VIEW
5
6
100
AcDbSymbolTable
70
0
0
ENDTAB
0
TABLE
2
UCS
5
7
100
AcDbSymbolTable
70
0
0
ENDTAB
0
TABLE
2
APPID
5
9
100
AcDbSymbolTable
70
2
0
APPID
5
12
100
AcDbSymbolTableRecord
100
AcDbRegAppTableRecord
2
ACAD
70
0
0
ENDTAB
0
TABLE
2
DIMSTYLE
5
A
100
AcDbSymbolTable
70
1
0
ENDTAB
0
TABLE
2
BLOCK_RECORD
5
1
100
AcDbSymbolTable
70
1
0
BLOCK_RECORD
5
1F
100
AcDbSymbolTableRecord
100
AcDbBlockTableRecord
2
*MODEL_SPACE
0
BLOCK_RECORD
5
1B
100
AcDbSymbolTableRecord
100
AcDbBlockTableRecord
2
*PAPER_SPACE
0
ENDTAB
0
ENDSEC
0
SECTION
2
BLOCKS
0
BLOCK
5
20
100
AcDbEntity
100
AcDbBlockBegin
2
*MODEL_SPACE
0
ENDBLK
5
21
100
AcDbEntity
100
AcDbBlockEnd
0
BLOCK
5
1C
100
AcDbEntity
100
AcDbBlockBegin
2
*PAPER_SPACE
0
ENDBLK
5
1D
100
AcDbEntity
100
AcDbBlockEnd
0
ENDSEC
0
SECTION
2
ENTITIES
0
SPLINE
5
100
100
AcDbEntity
8
0
100
AcDbSpline
70
6
71
5
72
711
73
705
74
0
42
0.000000001
43
0.0000000001
44
0.0000000001
40
0
40
0
40
0
40
0
40
0
40
0
40
0.0014285714285714286
40
0.0028571428571428571
40
0.0042857142857142859
40
0.0057142857142857143
40
0.0071428571428571426
40
0.0085714285714285719
40
0.01
40
0.011428571428571429
40
0.012857142857142857
40
0.014285714285714285
40
0.015714285714285715
40
0.017142857142857144
40
0.018571428571428572
40
0.02
40
0.021428571428571429
40
0.022857142857142857
40
0.024285714285714285
40
0.025714285714285714
40
0.027142857142857142
40
0.028571428571428571
40
0.029999999999999999
40
0.031428571428571431
40
0.032857142857142863
40
0.034285714285714294
40
0.035714285714285726
40
0.037142857142857158
40
0.03857142857142859
40
0.040000000000000022
40
0.041428571428571453
40
0.042857142857142885
40
0.044285714285714317
40
0.045714285714285749
40
0.047142857142857181
40
0.048571428571428613
40
0.050000000000000044
40
0.051428571428571476
40
0.052857142857142908
40
0.05428571428571434
40
0.055714285714285772
40
0.057142857142857204
40
0.058571428571428635
40
0.060000000000000067
40
0.061428571428571499
40
0.062857142857142931
40
0.064285714285714363
40
0.065714285714285794
40
0.067142857142857226
40
0.068571428571428658
40
0.07000000000000009
40
0.071428571428571522
40
0.072857142857142954
40
0.074285714285714385
40
0.075714285714285817
40
0.077142857142857249
40
0.078571428571428681
40
0.080000000000000113
40
0.081428571428571545
40
0.082857142857142976
40
0.084285714285714408
40
0.08571428571428584
40
0.087142857142857272
40
0.088571428571428704
40
0.090000000000000135
40
0.091428571428571567
40
0.092857142857142999
40
0.094285714285714431
40
0.095714285714285863
40
0.097142857142857295
40
0.098571428571428726
40
0.10000000000000016
40
0.10142857142857159
40
0.10285714285714302
40
0.10428571428571445
40
0.10571428571428589
40
0.10714285714285732
40
0.10857142857142875
40
0.11000000000000018
40
0.11142857142857161
40
0.11285714285714304
40
0.11428571428571448
40
0.11571428571428591
40
0.11714285714285734
40
0.11857142857142877
40
0.1200000000000002
40
0.12142857142857164
40
0.12285714285714307
40
0.1242857142857145
40
0.12571428571428592
40
0.12714285714285734
40
0.12857142857142875
40
0.13000000000000017
40
0.13142857142857159
40
0.13285714285714301
40
0.13428571428571442
40
0.13571428571428584
40
0.13714285714285726
40
0.13857142857142868
40
0.1400000000000001
40
0.14142857142857151
40
0.14285714285714293
40
0.14428571428571435
40
0.14571428571428577
40
0.14714285714285719
40
0.1485714285714286
40
0.15000000000000002
40
0.15142857142857144
40
0.15285714285714286
40
0.15428571428571428
40
0.15571428571428569
40
0.15714285714285711
40
0.15857142857142853
40
0.15999999999999995
40
0.16142857142857137
40
0.16285714285714278
40
0.1642857142857142
40
0.16571428571428562
40
0.16714285714285704
40
0.16857142857142846
40
0.16999999999999987
40
0.17142857142857129
40
0.17285714285714271
40
0.17428571428571413
40
0.17571428571428555
40
0.17714285714285696
40
0.17857142857142838
40
0.1799999999999998
40
0.18142857142857122
40
0.18285714285714263
40
0.18428571428571405
40
0.18571428571428547
40
0.18714285714285689
40
0.18857142857142831
40
0.18999999999999972
40
0.19142857142857114
40
0.19285714285714256
40
0.19428571428571398
40
0.1957142857142854
40
0.19714285714285681
40
0.19857142857142823
40
0.19999999999999965
40
0.20142857142857107
40
0.20285714285714249
40
0.2042857142857139
40
0.20571428571428532
40
0.20714285714285674
40
0.20857142857142816
40
0.20999999999999958
40
0.21142857142857099
40
0.21285714285714241
40
0.21428571428571383
40
0.21571428571428525
40
0.21714285714285667
40
0.21857142857142808
40
0.2199999999999995
40
0.22142857142857092
40
0.22285714285714234
40
0.22428571428571376
40
0.22571428571428517
40
0.22714285714285659
40
0.22857142857142801
40
0.22999999999999943
40
0.23142857142857085
40
0.23285714285714226
40
0.23428571428571368
40
0.2357142857142851
40
0.23714285714285652
40
0.23857142857142793
40
0.23999999999999935
40
0.24142857142857077
40
0.24285714285714219
40
0.24428571428571361
40
0.24571428571428502
40
0.24714285714285644
40
0.24857142857142786
40
0.24999999999999928
40
0.25142857142857072
40
0.25285714285714217
40
0.25428571428571362
40
0.25571428571428506
40
0.25714285714285651
40
0.25857142857142795
40
0.2599999999999994
40
0.26142857142857084
40
0.26285714285714229
40
0.26428571428571374
40
0.26571428571428518
40
0.26714285714285663
40
0.26857142857142807
40
0.26999999999999952
40
0.27142857142857096
40
0.27285714285714241
40
0.27428571428571386
40
0.2757142857142853
40
0.27714285714285675
40
0.27857142857142819
40
0.27999999999999964
40
0.28142857142857108
40
0.28285714285714253
40
0.28428571428571398
40
0.28571428571428542
40
0.28714285714285687
40
0.28857142857142831
40
0.28999999999999976
40
0.2914285714285712
40
0.29285714285714265
40
0.2942857142857141
40
0.29571428571428554
40
0.29714285714285699
40
0.29857142857142843
40
0.29999999999999988
40
0.30142857142857132
40
0.30285714285714277
40
0.30428571428571421
40
0.30571428571428566
40
0.30714285714285711
40
0.30857142857142855
40
0.31
40
0.31142857142857144
40
0.31285714285714289
40
0.31428571428571433
40
0.31571428571428578
40
0.31714285714285723
40
0.31857142857142867
40
0.32000000000000012
40
0.32142857142857156
40
0.32285714285714301
40
0.32428571428571445
40
0.3257142857142859
40
0.32714285714285735
40
0.32857142857142879
40
0.33000000000000024
40
0.33142857142857168
40
0.33285714285714313
40
0.33428571428571457
40
0.33571428571428602
40
0.33714285714285747
40
0.33857142857142891
40
0.34000000000000036
40
0.3414285714285718
40
0.34285714285714325
40
0.34428571428571469
40
0.34571428571428614
40
0.34714285714285759
40
0.34857142857142903
40
0.35000000000000048
40
0.35142857142857192
40
0.35285714285714337
40
0.35428571428571481
40
0.35571428571428626
40
0.35714285714285771
40
0.35857142857142915
40
0.3600000000000006
40
0.36142857142857204
40
0.36285714285714349
40
0.36428571428571493
40
0.36571428571428638
40
0.36714285714285783
40
0.36857142857142927
40
0.37000000000000072
40
0.37142857142857216
40
0.37285714285714361
40
0.37428571428571505
40
0.3757142857142865
40
0.37714285714285795
40
0.37857142857142939
40
0.38000000000000084
40
0.38142857142857228
40
0.38285714285714373
40
0.38428571428571517
40
0.38571428571428662
40
0.38714285714285807
40
0.38857142857142951
40
0.39000000000000096
40
0.3914285714285724
40
0.39285714285714385
40
0.39428571428571529
40
0.39571428571428674
40
0.39714285714285819
40
0.39857142857142963
40
0.40000000000000108
40
0.40142857142857252
40
0.40285714285714397
40
0.40428571428571541
40
0.40571428571428686
40
0.40714285714285831
40
0.40857142857142975
40
0.4100000000000012
40
0.41142857142857264
40
0.41285714285714409
40
0.41428571428571553
40
0.41571428571428698
40
0.41714285714285843
40
0.41857142857142987
40
0.42000000000000132
40
0.42142857142857276
40
0.42285714285714421
40
0.42428571428571565
40
0.4257142857142871
40
0.42714285714285855
40
0.42857142857142999
40
0.43000000000000144
40
0.43142857142857288
40
0.43285714285714433
40
0.43428571428571577
40
0.43571428571428722
40
0.43714285714285867
40
0.43857142857143011
40
0.44000000000000156
40
0.441428571428573
40
0.44285714285714445
40
0.44428571428571589
40
0.44571428571428734
40
0.44714285714285879
40
0.44857142857143023
40
0.45000000000000168
40
0.45142857142857312
40
0.45285714285714457
40
0.45428571428571601
40
0.45571428571428746
40
0.4571428571428589
40
0.45857142857143035
40
0.4600000000000018
40
0.46142857142857324
40
0.46285714285714469
40
0.46428571428571613
40
0.46571428571428758
40
0.46714285714285902
40
0.46857142857143047
40
0.47000000000000192
40
0.47142857142857336
40
0.47285714285714481
40
0.47428571428571625
40
0.4757142857142877
40
0.47714285714285914
40
0.47857142857143059
40
0.48000000000000204
40
0.48142857142857348
40
0.48285714285714493
40
0.48428571428571637
40
0.48571428571428782
40
0.48714285714285926
40
0.48857142857143071
40
0.49000000000000216
40
0.4914285714285736
40
0.49285714285714505
40
0.49428571428571649
40
0.49571428571428794
40
0.49714285714285938
40
0.49857142857143083
40
0.50000000000000222
40
0.50142857142857367
40
0.50285714285714511
40
0.50428571428571656
40
0.505714285714288
40
0.50714285714285945
40
0.50857142857143089
40
0.51000000000000234
40
0.51142857142857379
40
0.51285714285714523
40
0.51428571428571668
40
0.51571428571428812
40
0.51714285714285957
40
0.51857142857143101
40
0.52000000000000246
40
0.52142857142857391
40
0.52285714285714535
40
0.5242857142857168
40
0.52571428571428824
40
0.52714285714285969
40
0.52857142857143113
40
0.53000000000000258
40
0.53142857142857403
40
0.53285714285714547
40
0.53428571428571692
40
0.53571428571428836
40
0.53714285714285981
40
0.53857142857143125
40
0.5400000000000027
40
0.54142857142857415
40
0.54285714285714559
40
0.54428571428571704
40
0.54571428571428848
40
0.54714285714285993
40
0.54857142857143137
40
0.55000000000000282
40
0.55142857142857427
40
0.55285714285714571
40
0.55428571428571716
40
0.5557142857142886
40
0.55714285714286005
40
0.55857142857143149
40
0.56000000000000294
40
0.56142857142857439
40
0.56285714285714583
40
0.56428571428571728
40
0.56571428571428872
40
0.56714285714286017
40
0.56857142857143161
40
0.57000000000000306
40
0.57142857142857451
40
0.57285714285714595
40
0.5742857142857174
40
0.57571428571428884
40
0.57714285714286029
40
0.57857142857143173
40
0.58000000000000318
40
0.58142857142857463
40
0.58285714285714607
40
0.58428571428571752
40
0.58571428571428896
40
0.58714285714286041
40
0.58857142857143185
40
0.5900000000000033
40
0.59142857142857475
40
0.59285714285714619
40
0.59428571428571764
40
0.59571428571428908
40
0.59714285714286053
40
0.59857142857143197
40
0.60000000000000342
40
0.60142857142857487
40
0.60285714285714631
40
0.60428571428571776
40
0.6057142857142892
40
0.60714285714286065
40
0.60857142857143209
40
0.61000000000000354
40
0.61142857142857499
40
0.61285714285714643
40
0.61428571428571788
40
0.61571428571428932
40
0.61714285714286077
40
0.61857142857143221
40
0.62000000000000366
40
0.6214285714285751
40
0.62285714285714655
40
0.624285714285718
40
0.62571428571428944
40
0.62714285714286089
40
0.62857142857143233
40
0.63000000000000378
40
0.63142857142857522
40
0.63285714285714667
40
0.63428571428571812
40
0.63571428571428956
40
0.63714285714286101
40
0.63857142857143245
40
0.6400000000000039
40
0.64142857142857534
40
0.64285714285714679
40
0.64428571428571824
40
0.64571428571428968
40
0.64714285714286113
40
0.64857142857143257
40
0.65000000000000402
40
0.65142857142857546
40
0.65285714285714691
40
0.65428571428571836
40
0.6557142857142898
40
0.65714285714286125
40
0.65857142857143269
40
0.66000000000000414
40
0.66142857142857558
40
0.66285714285714703
40
0.66428571428571848
40
0.66571428571428992
40
0.66714285714286137
40
0.66857142857143281
40
0.67000000000000426
40
0.6714285714285757
40
0.67285714285714715
40
0.6742857142857186
40
0.67571428571429004
40
0.67714285714286149
40
0.67857142857143293
40
0.68000000000000438
40
0.68142857142857582
40
0.68285714285714727
40
0.68428571428571872
40
0.68571428571429016
40
0.68714285714286161
40
0.68857142857143305
40
0.6900000000000045
40
0.69142857142857594
40
0.69285714285714739
40
0.69428571428571884
40
0.69571428571429028
40
0.69714285714286173
40
0.69857142857143317
40
0.70000000000000462
40
0.70142857142857606
40
0.70285714285714751
40
0.70428571428571896
40
0.7057142857142904
40
0.70714285714286185
40
0.70857142857143329
40
0.71000000000000474
40
0.71142857142857618
40
0.71285714285714763
40
0.71428571428571908
40
0.71571428571429052
40
0.71714285714286197
40
0.71857142857143341
40
0.72000000000000486
40
0.7214285714285763
40
0.72285714285714775
40
0.7242857142857192
40
0.72571428571429064
40
0.72714285714286209
40
0.72857142857143353
40
0.73000000000000498
40
0.73142857142857642
40
0.73285714285714787
40
0.73428571428571932
40
0.73571428571429076
40
0.73714285714286221
40
0.73857142857143365
40
0.7400000000000051
40
0.74142857142857654
40
0.74285714285714799
40
0.74428571428571944
40
0.74571428571429088
40
0.74714285714286233
40
0.74857142857143377
40
0.75000000000000522
40
0.75142857142857666
40
0.75285714285714811
40
0.75428571428571956
40
0.755714285714291
40
0.75714285714286245
40
0.75857142857143389
40
0.76000000000000534
40
0.76142857142857678
40
0.76285714285714823
40
0.76428571428571968
40
0.76571428571429112
40
0.76714285714286257
40
0.76857142857143401
40
0.77000000000000546
40
0.7714285714285769
40
0.77285714285714835
40
0.77428571428571979
40
0.77571428571429124
40
0.77714285714286269
40
0.77857142857143413
40
0.78000000000000558
40
0.78142857142857702
40
0.78285714285714847
40
0.78428571428571991
40
0.78571428571429136
40
0.78714285714286281
40
0.78857142857143425
40
0.7900000000000057
40
0.79142857142857714
40
0.79285714285714859
40
0.79428571428572003
40
0.79571428571429148
40
0.79714285714286293
40
0.79857142857143437
40
0.80000000000000582
40
0.80142857142857726
40
0.80285714285714871
40
0.80428571428572015
40
0.8057142857142916
40
0.80714285714286305
40
0.80857142857143449
40
0.81000000000000594
40
0.81142857142857738
40
0.81285714285714883
40
0.81428571428572027
40
0.81571428571429172
40
0.81714285714286317
40
0.81857142857143461
40
0.82000000000000606
40
0.8214285714285775
40
0.82285714285714895
40
0.82428571428572039
40
0.82571428571429184
40
0.82714285714286329
40
0.82857142857143473
40
0.83000000000000618
40
0.83142857142857762
40
0.83285714285714907
40
0.83428571428572051
40
0.83571428571429196
40
0.83714285714286341
40
0.83857142857143485
40
0.8400000000000063
40
0.84142857142857774
40
0.84285714285714919
40
0.84428571428572063
40
0.84571428571429208
40
0.84714285714286353
40
0.84857142857143497
40
0.85000000000000642
40
0.85142857142857786
40
0.85285714285714931
40
0.85428571428572075
40
0.8557142857142922
40
0.85714285714286365
40
0.85857142857143509
40
0.86000000000000654
40
0.86142857142857798
40
0.86285714285714943
40
0.86428571428572087
40
0.86571428571429232
40
0.86714285714286377
40
0.86857142857143521
40
0.87000000000000666
40
0.8714285714285781
40
0.87285714285714955
40
0.87428571428572099
40
0.87571428571429244
40
0.87714285714286389
40
0.87857142857143533
40
0.88000000000000678
40
0.88142857142857822
40
0.88285714285714967
40
0.88428571428572111
40
0.88571428571429256
40
0.88714285714286401
40
0.88857142857143545
40
0.8900000000000069
40
0.89142857142857834
40
0.89285714285714979
40
0.89428571428572123
40
0.89571428571429268
40
0.89714285714286413
40
0.89857142857143557
40
0.90000000000000702
40
0.90142857142857846
40
0.90285714285714991
40
0.90428571428572135
40
0.9057142857142928
40
0.90714285714286425
40
0.90857142857143569
40
0.91000000000000714
40
0.91142857142857858
40
0.91285714285715003
40
0.91428571428572147
40
0.91571428571429292
40
0.91714285714286437
40
0.91857142857143581
40
0.92000000000000726
40
0.9214285714285787
40
0.92285714285715015
40
0.92428571428572159
40
0.92571428571429304
40
0.92714285714286448
40
0.92857142857143593
40
0.93000000000000738
40
0.93142857142857882
40
0.93285714285715027
40
0.93428571428572171
40
0.93571428571429316
40
0.9371428571428646
40
0.93857142857143605
40
0.9400000000000075
40
0.94142857142857894
40
0.94285714285715039
40
0.94428571428572183
40
0.94571428571429328
40
0.94714285714286472
40
0.94857142857143617
40
0.95000000000000762
40
0.95142857142857906
40
0.95285714285715051
40
0.95428571428572195
40
0.9557142857142934
40
0.95714285714286484
40
0.95857142857143629
40
0.96000000000000774
40
0.96142857142857918
40
0.96285714285715063
40
0.96428571428572207
40
0.96571428571429352
40
0.96714285714286496
40
0.96857142857143641
40
0.97000000000000786
40
0.9714285714285793
40
0.97285714285715075
40
0.97428571428572219
40
0.97571428571429364
40
0.97714285714286508
40
0.97857142857143653
40
0.98000000000000798
40
0.98142857142857942
40
0.98285714285715087
40
0.98428571428572231
40
0.98571428571429376
40
0.9871428571428652
40
0.98857142857143665
40
0.9900000000000081
40
0.99142857142857954
40
0.99285714285715099
40
0.99428571428572243
40
0.99571428571429388
40
0.99714285714286532
40
0.99857142857143677
40
1
40
1
40
1
40
1
40
1
40
1
41
1
41
1
41
1
41
1
41
1
41
1
41
1
41
1
41
1
41
1
41
1
41
1
41
1
41
1
41
1
41
1
41
1
41
1
41
1
41
1
41
1
41
1
41
1
41
1
41
1
41
1
41
1
41
1
41
1
41
1
41
1
41
1
41
1
41
1
41
1
41
1
41
1
41
1
41
1
41
1
41
1
41
1
41
1
41
1
41
1
41
1
41
1
41
1
41
1
41
1
41
1
41
1
41
1
41
1
41
1
41
1
41
1
41
1
41
1
41
1
41
1
41
1
41
1
41
1
41
1
41
1
41
1
41
1
41
1
41
1
41
1
41
1
41
1
41
1
41
1
41
1
41
1
41
1
41
1
41
1
41
1
41
1
41
1
41
1
41
1
41
1
41
1
41
1
41
1
41
1
41
1
41
1
41
1
41
1
41
1
41
1
41
1
41
1
41
1
41
1
41
1
41
1
41
1
41
1
41
1
41
1
41
1
41
1
41
1
41
1
41
1
41
1
41
1
41
1
41
1
41
1
41
1
41
1
41
1
41
1
41
1
41
1
41
1
41
1
41
1
41
1
41
1
41
1
41
1
41
1
41
1
41
1
41
1
41
1
41
1
41
1
41
1
41
1
41
1
41
1
41
1
41
1
41
1
41
1
41
1
41
1
41
1
41
1
41
1
41
1
41
1
41
1
41
1
41
1
41
1
41
1
41
1
41
1
41
1
41
1
41
1
41
1
41
1
41
1
41
1
41
1
41
1
41
1
41
1
41
1
41
1
41
1
41
1
41
1
41
1
41
1
41
1
41
1
41
1
41
1
41
1
41
1
41
1
41
1
41
1
41
1
41
1
41
1
41
1
41
1
41
1
41
1
41
1
41
1
41
1
41
1
41
1
41
1
41
1
41
1
41
1
41
1
41
1
41
1
41
1
41
1
41
1
41
1
41
1
41
1
41
1
41
1
41
1
41
1
41
1
41
1
41
1
41
1
41
1
41
1
41
1
41
1
41
1
41
1
41
1
41
1
41
1
41
1
41
1
41
1
41
1
41
1
41
1
41
1
41
1
41
1
41
1
41
1
41
1
41
1
41
1
41
1
41
1
41
1
41
1
41
1
41
1
41
1
41
1
41
1
41
1
41
1
41
1
41
1
41
1
41
1
41
1
41
1
41
1
41
1
41
1
41
1
41
1
41
1
41
1
41
1
41
1
41
1
41
1
41
1
41
1
41
1
41
1
41
1
41
1
41
1
41
1
41
1
41
1
41
1
41
1
41
1
41
1
41
1
41
1
41
1
41
1
41
1
41
1
41
1
41
1
41
1
41
1
41
1
41
1
41
1
41
1
41
1
41
1
41
1
41
1
41
1
41
1
41
1
41
1
41
1
41
1
41
1
41
1
41
1
41
1
41
1
41
1
41
1
41
1
41
1
41
1
41
1
41
1
41
1
41
1
41
1
41
1
41
1
41
1
41
1
41
1
41
1
41
1
41
1
41
1
41
1
41
1
41
1
41
1
41
1
41
1
41
1
41
1
41
1
41
1
41
1
41
1
41
1
41
1
41
1
41
1
41
1
41
1
41
1
41
1
41
1
41
1
41
1
41
1
41
1
41
1
41
1
41
1
41
1
41
1
41
1
41
1
41
1
41
1
41
1
41
1
41
1
41
1
41
1
41
1
41
1
41
1
41
1
41
1
41
1
41
1
41
1
41
1
41
1
41
1
41
1
41
1
41
1
41
1
41
1
41
1
41
1
41
1
41
1
41
1
41
1
41
1
41
1
41
1
41
1
41
1
41
1
41
1
41
1
41
1
41
1
41
1
41
1
41
1
41
1
41
1
41
1
41
1
41
1
41
1
41
1
41
1
41
1
41
1
41
1
41
1
41
1
41
1
41
1
41
1
41
1
41
1
41
1
41
1
41
1
41
1
41
1
41
1
41
1
41
1
41
1
41
1
41
1
41
1
41
1
41
1
41
1
41
1
41
1
41
1
41
1
41
1
41
1
41
1
41
1
41
1
41
1
41
1
41
1
41
1
41
1
41
1
41
1
41
1
41
1
41
1
41
1
41
1
41
1
41
1
41
1
41
1
41
1
41
1
41
1
41
1
41
1
41
1
41
1
41
1
41
1
41
1
41
1
41
1
41
1
41
1
41
1
41
1
41
1
41
1
41
1
41
1
41
1
41
1
41
1
41
1
41
1
41
1
41
1
41
1
41
1
41
1
41
1
41
1
41
1
41
1
41
1
41
1
41
1
41
1
41
1
41
1
41
1
41
1
41
1
41
1
41
1
41
1
41
1
41
1
41
1
41
1
41
1
41
1
41
1
41
1
41
1
41
1
41
1
41
1
41
1
41
1
41
1
41
1
41
1
41
1
41
1
41
1
41
1
41
1
41
1
41
1
41
1
41
1
41
1
41
1
41
1
41
1
41
1
41
1
41
1
41
1
41
1
41
1
41
1
41
1
41
1
41
1
41
1
41
1
41
1
41
1
41
1
41
1
41
1
41
1
41
1
41
1
41
1
41
1
41
1
41
1
41
1
41
1
41
1
41
1
41
1
41
1
41
1
41
1
41
1
41
1
41
1
41
1
41
1
41
1
41
1
41
1
41
1
41
1
41
1
41
1
41
1
41
1
41
1
41
1
41
1
41
1
41
1
41
1
41
1
41
1
41
1
41
1
41
1
41
1
41
1
41
1
41
1
41
1
41
1
41
1
41
1
41
1
41
1
41
1
41
1
41
1
41
1
41
1
41
1
41
1
41
1
41
1
41
1
41
1
41
1
41
1
41
1
41
1
41
1
41
1
41
1
41
1
41
1
41
1
41
1
41
1
41
1
41
1
41
1
41
1
41
1
41
1
41
1
41
1
41
1
41
1
41
1
41
1
41
1
41
1
41
1
41
1
41
1
41
1
41
1
41
1
41
1
41
1
41
1
41
1
41
1
41
1
41
1
41
1
41
1
41
1
41
1
41
1
41
1
41
1
41
1
41
1
41
1
41
1
41
1
41
1
41
1
41
1
41
1
41
1
41
1
41
1
41
1
41
1
41
1
41
1
41
1
41
1
41
1
41
1
41
1
41
1
41
1
41
1
41
1
41
1
41
1
41
1
41
1
41
1
41
1
41
1
41
1
41
1
41
1
41
1
41
1
41
1
41
1
41
1
41
1
41
1
10
-29.227799999999998
20
-127.6405
30
0
10
-29.314266034360283
20
-127.61680167559808
30
0
10
-29.490105466905238
20
-127.56669038718934
30
0
10
-29.766393633006526
20
-127.48321485203788
30
0
10
-30.160672420212194
20
-127.35437949311407
30
0
10
-30.661750825276325
20
-127.16233792481758
30
0
10
-31.132142075104241
20
-126.9397272054934
30
0
10
-31.565977876587024
20
-126.6911844708462
30
0
10
-31.977874849158393
20
-126.423452068297
30
0
10
-32.3869438886735
20
-126.1430301270903
30
0
10
-32.799677596118215
20
-125.85362824759189
30
0
10
-33.212178566977229
20
-125.55612702730288
30
0
10
-33.616471020982381
20
-125.24918214461154
30
0
10
-34.006215691356594
20
-124.92944896157752
30
0
10
-34.377815698977031
20
-124.59280984142538
30
0
10
-34.729316524334443
20
-124.23577152108584
30
0
10
-35.060058341225592
20
-123.85705555320328
30
0
10
-35.370033378871561
20
-123.45788597355568
30
0
10
-35.659468482536596
20
-123.04123414292178
30
0
10
-35.928186655129657
20
-122.61183776492679
30
0
10
-36.175581349509493
20
-122.17433175065983
30
0
10
-36.401001267928137
20
-121.73098943611123
30
0
10
-36.604131105406672
20
-121.27789359532488
30
0
10
-36.785008673981359
20
-120.80726523111937
30
0
10
-36.943646398435625
20
-120.31527244335948
30
0
10
-37.079556349763976
20
-119.8117709080002
30
0
10
-37.191926595182601
20
-119.31906486496467
30
0
10
-37.280876032272069
20
-118.85236374214371
30
0
10
-37.348760750934517
20
-118.39995460095358
30
0
10
-37.400617611267279
20
-117.91601556881352
30
0
10
-37.441924450305365
20
-117.35287204559093
30
0
10
-37.476687997274311
20
-116.6890031675666
30
0
10
-37.505844418780299
20
-115.95066426770461
30
0
10
-37.528328261726323
20
-115.18583231130803
30
0
10
-37.541787212473665
20
-114.44390518264505
30
0
10
-37.543405472882718
20
-113.75471780519005
30
0
10
-37.530758507989169
20
-113.10380108352845
30
0
10
-37.502023255689814
20
-112.44304099796213
30
0
10
-37.45603890884405
20
-111.71003600988215
30
0
10
-37.392404326412944
20
-110.84324954254269
30
0
10
-37.311597201796822
20
-109.80175400806684
30
0
10
-37.214946348806379
20
-108.57254739518544
30
0
10
-37.104404290841103
20
-107.16322816290344
30
0
10
-36.982371179986195
20
-105.59834624002298
30
0
10
-36.851498128734328
20
-103.91427053057137
30
0
10
-36.714498684812511
20
-102.15467611186352
30
0
10
-36.573958367516695
20
-100.36580036205579
30
0
10
-36.432141404625277
20
-98.59171625215447
30
0
10
-36.290807136047498
20
-96.869790184484856
30
0
10
-36.151001948438463
20
-95.225599982917046
30
0
10
-36.012923868520382
20
-93.669493992158891
30
0
10
-35.876079204569358
20
-92.199774089676254
30
0
10
-35.739395774510164
20
-90.804894052132553
30
0
10
-35.601352892325259
20
-89.466036564529759
30
0
10
-35.460104655294103
20
-88.159542459590739
30
0
10
-35.313605064864475
20
-86.859371642128153
30
0
10
-35.159734777471179
20
-85.539624205352737
30
0
10
-34.996421488790503
20
-84.176862933722546
30
0
10
-34.821777058281285
20
-82.752948214340876
30
0
10
-34.634172165672766
20
-81.255967355557942
30
0
10
-34.432247881855808
20
-79.679241115295497
30
0
10
-34.214944331118403
20
-78.020850418207857
30
0
10
-33.981522330459349
20
-76.282950672582402
30
0
10
-33.731588141486498
20
-74.471176949447838
30
0
10
-33.465116654533105
20
-72.59401048402863
30
0
10
-33.182475794351596
20
-70.662161009496998
30
0
10
-32.884449147798279
20
-68.687944314619131
30
0
10
-32.572262287506206
20
-66.684657217356516
30
0
10
-32.247600625778809
20
-64.665964652167247
30
0
10
-31.912649053137812
20
-62.645252617580461
30
0
10
-31.569957387400699
20
-60.63525898029107
30
0
10
-31.222273005441977
20
-58.647756961174153
30
0
10
-30.872384807230503
20
-56.693220097225577
30
0
10
-30.522962569588881
20
-54.780495436763417
30
0
10
-30.176397929738819
20
-52.916472102908607
30
0
10
-29.83464547508412
20
-51.105754316429781
30
0
10
-29.499061898048335
20
-49.350326679848436
30
0
10
-29.17025035111012
20
-47.649236199488314
30
0
10
-28.847892387845057
20
-45.998235828755661
30
0
10
-28.530608943204999
20
-44.389517371700322
30
0
10
-28.215751442299837
20
-42.811229643967238
30
0
10
-27.899411208673939
20
-41.247667365609658
30
0
10
-27.576928895400915
20
-39.680996156522909
30
0
10
-27.243303949407359
20
-38.092670607497972
30
0
10
-26.893643323802578
20
-36.464972486001088
30
0
10
-26.523594674452443
20
-34.782502316039
30
0
10
-26.129783348706095
20
-33.033680207251308
30
0
10
-25.710254461873685
20
-31.21226791427528
30
0
10
-25.264897220315945
20
-29.318823376701644
30
0
10
-24.795913132538082
20
-27.362320288107732
30
0
10
-24.308180476628401
20
-25.361378327590582
30
0
10
-23.809878212966904
20
-23.346466695935778
30
0
10
-23.31192335704938
20
-21.357656579141327
30
0
10
-22.826775042087874
20
-19.439997693373193
30
0
10
-22.367436201119787
20
-17.639636541272182
30
0
10
-21.946371101711879
20
-15.99961809414175
30
0
10
-21.574464064036093
20
-14.555844050208943
30
0
10
-21.259948614514542
20
-13.332915308709442
30
0
10
-21.007376790214455
20
-12.340136352458259
30
0
10
-20.816507256508828
20
-11.567188779597634
30
0
10
-20.68137865987125
20
-10.980561326103668
30
0
10
-20.588906409599605
20
-10.518035055325125
30
0
10
-20.523206144565211
20
-10.106341830439147
30
0
10
-20.470115336893215
20
-9.6795116599171411
30
0
10
-20.422359801447129
20
-9.2001013468620947
30
0
10
-20.37867086771265
20
-8.6543779407704324
30
0
10
-20.341611508703494
20
-8.0424553929914957
30
0
10
-20.315761392018491
20
-7.3687927595952853
30
0
10
-20.306217275405977
20
-6.6407188310971801
30
0
10
-20.317264610587429
20
-5.8708424103590575
30
0
10
-20.351156424028982
20
-5.0776746174512235
30
0
10
-20.406448889464365
20
-4.288112970008604
30
0
10
-20.477879743356766
20
-3.5353533358146416
30
0
10
-20.55910081915609
20
-2.8489788822301043
30
0
10
-20.644788281591669
20
-2.2467023695416231
30
0
10
-20.732981700504705
20
-1.725563520455164
30
0
10
-20.827375181761688
20
-1.2530804663317288
30
0
10
-20.933597286913642
20
-0.78876877342344942
30
0
10
-21.055707433359537
20
-0.30433738780584157
30
0
10
-21.19205552856263
20
0.19240982581092708
30
0
10
-21.338863959327014
20
0.67804550637242689
30
0
10
-21.494169391429658
20
1.1359314144441663
30
0
10
-21.662466832591974
20
1.5829512648234858
30
0
10
-21.852572603221468
20
2.0558913934897003
30
0
10
-22.074127236099088
20
2.5904963641982577
30
0
10
-22.334194128518
20
3.1993140406222058
30
0
10
-22.635904784662028
20
3.8716279180712121
30
0
10
-22.977901013294606
20
4.5828147701300717
30
0
10
-23.353761616856723
20
5.3003748050878929
30
0
10
-23.750845146888217
20
5.9917954263002207
30
0
10
-24.151380072963416
20
6.6301315192942925
30
0
10
-24.537870876134193
20
7.1965965567504444
30
0
10
-24.897556704094839
20
7.6837714148789455
30
0
10
-25.227241382096643
20
8.0985410928213
30
0
10
-25.537991084811203
20
8.4652189571035823
30
0
10
-25.851771766578299
20
8.8180958881589167
30
0
10
-26.197932732078936
20
9.1941017277860642
30
0
10
-26.609939394536951
20
9.6250904741869121
30
0
10
-27.118180801165501
20
10.134370392994338
30
0
10
-27.741770629199173
20
10.733290332432263
30
0
10
-28.481881675357037
20
11.418513271120847
30
0
10
-29.311608276958996
20
12.16729623055155
30
0
10
-30.179093507861779
20
12.940734068161984
30
0
10
-31.022200982371665
20
13.694028939707742
30
0
10
-31.779513085743687
20
14.38446589113309
30
0
10
-32.403741107006006
20
14.981001209179086
30
0
10
-32.872011941402647
20
15.471608534309699
30
0
10
-33.202567338923821
20
15.875352324955417
30
0
10
-33.451551067035396
20
16.239680634158763
30
0
10
-33.680169466896864
20
16.615559431708892
30
0
10
-33.923558438061612
20
17.034082668505828
30
0
10
-34.173655129585313
20
17.492927627097629
30
0
10
-34.405827608429973
20
17.974413268208785
30
0
10
-34.598910416474197
20
18.458272686433993
30
0
10
-34.752603227002126
20
18.934122098121229
30
0
10
-34.876763253174829
20
19.400256261913668
30
0
10
-34.98479993327097
20
19.864879827066591
30
0
10
-35.086137113982183
20
20.345835661033284
30
0
10
-35.187063150192799
20
20.86485631987312
30
0
10
-35.290627050804922
20
21.442107964398964
30
0
10
-35.396933017177105
20
22.090690218987813
30
0
10
-35.504345027289077
20
22.818002342577838
30
0
10
-35.610818709790294
20
23.627076991301475
30
0
10
-35.715048484084292
20
24.517833538894671
30
0
10
-35.818021507741193
20
25.488595931077068
30
0
10
-35.922758022857181
20
26.536345911710061
30
0
10
-36.033100536151878
20
27.656304009811343
30
0
10
-36.152786686375563
20
28.841712012287143
30
0
10
-36.284429898867934
20
30.083548585926177
30
0
10
-36.428480914988903
20
31.37023488169714
30
0
10
-36.582335233687843
20
32.687435165999837
30
0
10
-36.739021592776162
20
34.017581839801117
30
0
10
-36.888448618294703
20
35.341085509187444
30
0
10
-37.019423071055733
20
36.638052585215981
30
0
10
-37.121426624352083
20
37.889845598880058
30
0
10
-37.186456926425308
20
39.080681718501268
30
0
10
-37.210925940356184
20
40.199278669505524
30
0
10
-37.197336087430266
20
41.240331799617557
30
0
10
-37.156526280736763
20
42.206420256417488
30
0
10
-37.108214352296407
20
43.108632954731164
30
0
10
-37.074699110507169
20
43.962066055008222
30
0
10
-37.075680200207465
20
44.782150275447314
30
0
10
-37.12245911174314
20
45.580534484064998
30
0
10
-37.212825681987454
20
46.361434622638797
30
0
10
-37.324502245939321
20
47.117043444803045
30
0
10
-37.424200105154043
20
47.832230147753307
30
0
10
-37.480030254841701
20
48.490714125868706
30
0
10
-37.47035963684236
20
49.080278981085229
30
0
10
-37.399786415900621
20
49.599447526515796
30
0
10
-37.290693397780068
20
50.059133488806836
30
0
10
-37.157802668382004
20
50.478654653410956
30
0
10
-36.978079199755811
20
50.884735319865257
30
0
10
-36.693356628906329
20
51.304714084256133
30
0
10
-36.255618491874955
20
51.75557210105395
30
0
10
-35.670144069740509
20
52.23021853991338
30
0
10
-35.012851997419013
20
52.696496652890801
30
0
10
-34.386165057135912
20
53.122224234505723
30
0
10
-33.888472747142458
20
53.494697456401965
30
0
10
-33.578283853723377
20
53.842156789762399
30
0
10
-33.440240100218077
20
54.255052674458859
30
0
10
-33.418002835177504
20
54.832246550746476
30
0
10
-33.446967591696222
20
55.628952773565587
30
0
10
-33.489127451873408
20
56.598912395041374
30
0
10
-33.527453949099744
20
57.632326905580456
30
0
10
-33.557619587668356
20
58.598809824280274
30
0
10
-33.58016115014432
20
59.391968824348361
30
0
10
-33.593646198781066
20
59.965482077165547
30
0
10
-33.584454706518819
20
60.392237985397173
30
0
10
-33.530910080315877
20
60.82898875234568
30
0
10
-33.415676352884226
20
61.427533364628204
30
0
10
-33.238442060162598
20
62.242773103486904
30
0
10
-33.018303623712441
20
63.212536177845763
30
0
10
-32.784142914770108
20
64.220063042808164
30
0
10
-32.568216190241415
20
65.134763756277195
30
0
10
-32.398672704645847
20
65.859419838704099
30
0
10
-32.291949355583746
20
66.380444214246666
30
0
10
-32.246951263273175
20
66.799639367275489
30
0
10
-32.250987630452087
20
67.253835831277314
30
0
10
-32.284237762841336
20
67.845692841230786
30
0
10
-32.324851799813075
20
68.576222074078217
30
0
10
-32.352843398679269
20
69.383668000897984
30
0
10
-32.354792220697995
20
70.176304446226169
30
0
10
-32.326921499118207
20
70.866113919969919
30
0
10
-32.282103946716816
20
71.405808270524304
30
0
10
-32.23807413296251
20
71.801348068372022
30
0
10
-32.201303079284187
20
72.110049038015148
30
0
10
-32.146365790236132
20
72.450964200075163
30
0
10
-32.023033994824168
20
72.977513964239918
30
0
10
-31.779262382480798
20
73.833179174423705
30
0
10
-31.383106456935195
20
75.104015533146807
30
0
10
-30.830514095197969
20
76.804078899660752
30
0
10
-30.137171966452708
20
78.894442245267442
30
0
10
-29.334921761509939
20
81.292726318801499
30
0
10
-28.46629351429052
20
83.886530592366938
30
0
10
-27.579852240327266
20
86.545180142701469
30
0
10
-26.725180335655626
20
89.132225684530439
30
0
10
-25.948050079402641
20
91.517552545749624
30
0
10
-25.285437045232019
20
93.589812850223367
30
0
10
-24.760781218793099
20
95.268359243303436
30
0
10
-24.378724718363269
20
96.516228828213556
30
0
10
-24.121045043499073
20
97.350729783369573
30
0
10
-23.939751190183408
20
97.859718044912569
30
0
10
-23.758391615797517
20
98.201374064914887
30
0
10
-23.504371723427319
20
98.540901537435687
30
0
10
-23.138798956351444
20
98.992927870585874
30
0
10
-22.681926148425902
20
99.570897996692963
30
0
10
-22.187355396709858
20
100.22613605013677
30
0
10
-21.720387921076068
20
100.87884963711346
30
0
10
-21.336320092902241
20
101.45102546190621
30
0
10
-21.05484305522193
20
101.90167286881487
30
0
10
-20.862148054655343
20
102.23801907537252
30
0
10
-20.722235730255917
20
102.51480696416364
30
0
10
-20.584518893918798
20
102.84512327466544
30
0
10
-20.395557726053145
20
103.37064030933934
30
0
10
-20.110219772155343
20
104.21794578673628
30
0
10
-19.705672984748706
20
105.45042107667695
30
0
10
-19.183423377395464
20
107.05845364549202
30
0
10
-18.56245702384896
20
108.98068790007244
30
0
10
-17.874978445199019
20
111.11608888327186
30
0
10
-17.161084000501258
20
113.33978378103446
30
0
10
-16.463882215655918
20
115.51731334569703
30
0
10
-15.824444272686263
20
117.51949809671709
30
0
10
-15.276775483433484
20
119.2372009507436
30
0
10
-14.842898743108901
20
120.59576043871949
30
0
10
-14.527607995712
20
121.57043648337059
30
0
10
-14.314026541686843
20
122.19937281294918
30
0
10
-14.157071783421864
20
122.6030076618335
30
0
10
-14.001395223143104
20
122.92959436862814
30
0
10
-13.800123414882485
20
123.29919434896054
30
0
10
-13.536623815324376
20
123.73639393879132
30
0
10
-13.218366482196377
20
124.19972939712511
30
0
10
-12.864600301061376
20
124.6286772409604
30
0
10
-12.496046371683624
20
124.99239964658584
30
0
10
-12.125672517113117
20
125.29233135934574
30
0
10
-11.753046887004592
20
125.546041676737
30
0
10
-11.352889352865837
20
125.77643880385051
30
0
10
-10.886620410120916
20
126.00338910861956
30
0
10
-10.323644474867306
20
126.24029995051552
30
0
10
-9.6647019603515858
20
126.48736115214767
30
0
10
-8.9442569599454664
20
126.73288434755344
30
0
10
-8.2137298680010993
20
126.96081198255243
30
0
10
-7.5300623176880723
20
127.15618098063823
30
0
10
-6.9425525906015544
20
127.31216216691088
30
0
10
-6.4791451047360678
20
127.43423719794542
30
0
10
-6.1279614389254924
20
127.53254148281238
30
0
10
-5.8173769874393582
20
127.61542593439829
30
0
10
-5.4022681607064049
20
127.68334855951622
30
0
10
-4.7238017370687526
20
127.7334798193022
30
0
10
-3.663809758332162
20
127.76344137564253
30
0
10
-2.2014156785564309
20
127.77539309659204
30
0
10
-0.39174428061468269
20
127.77464186070064
30
0
10
1.655186346488873
20
127.7682993303906
30
0
10
3.7957156081907781
20
127.76391197281558
30
0
10
5.8736073974704386
20
127.76811654042498
30
0
10
7.7414774616293052
20
127.78525332178901
30
0
10
9.2814118905330751
20
127.81607014839869
30
0
10
10.427453051633726
20
127.85621860999017
30
0
10
11.183742360873163
20
127.89523274451992
30
0
10
11.653040042982738
20
127.91435584814303
30
0
10
12.034290739150013
20
127.88779153828686
30
0
10
12.53447432618189
20
127.79322793946844
30
0
10
13.288627712416973
20
127.62169576403203
30
0
10
14.29505948561399
20
127.38511247643736
30
0
10
15.466695857057315
20
127.10765331257066
30
0
10
16.66715381141006
20
126.81922856738348
30
0
10
17.752773843278554
20
126.54813364074644
30
0
10
18.61212184022709
20
126.31406564758055
30
0
10
19.206561798239363
20
126.12094908863533
30
0
10
19.610337403523292
20
125.94993288559094
30
0
10
19.94441180775102
20
125.77008647651105
30
0
10
20.313516253866624
20
125.54911353287241
30
0
10
20.735780176589845
20
125.26390785884202
30
0
10
21.174290214172164
20
124.90816416484873
30
0
10
21.575299558572297
20
124.49715304505909
30
0
10
21.90811489409537
20
124.07896441437222
30
0
10
22.168546396582933
20
123.70136690173707
30
0
10
22.373768422108199
20
123.37589115864822
30
0
10
22.561585440129356
20
123.03115509909057
30
0
10
22.780047683498488
20
122.53966061436115
30
0
10
23.075832599980227
20
121.76621355718602
30
0
10
23.48085954135329
20
120.616954320746
30
0
10
24.009859607318255
20
119.05059448482112
30
0
10
24.663997497696787
20
117.06634888343476
30
0
10
25.432596910115265
20
114.69929444644751
30
0
10
26.295653289751701
20
112.01263867289413
30
0
10
27.226008384221455
20
109.09131527499576
30
0
10
28.191670932802758
20
106.03500724119147
30
0
10
29.158072774499281
20
102.95142054975037
30
0
10
30.090356392457743
20
99.949441092190028
30
0
10
30.955640371676143
20
97.132362855222922
30
0
10
31.725314212292691
20
94.591036771160475
30
0
10
32.377274504737613
20
92.397166451227619
30
0
10
32.898293418993973
20
90.596278200895597
30
0
10
33.286081081544786
20
89.201441940177205
30
0
10
33.552077198840564
20
88.185203359535777
30
0
10
33.722111112176719
20
87.476763832378452
30
0
10
33.828703274315195
20
86.980222848353009
30
0
10
33.904419168059881
20
86.589771942222583
30
0
10
33.975206611694595
20
86.205912995824292
30
0
10
34.052715972861392
20
85.751711658102622
30
0
10
34.137108805131852
20
85.182257300308777
30
0
10
34.221715181888115
20
84.490770550698429
30
0
10
34.296986389336929
20
83.720148552231691
30
0
10
34.355667455410924
20
82.943947261452792
30
0
10
34.39914671089339
20
82.235989255558067
30
0
10
34.441666421177842
20
81.647311120377353
30
0
10
34.51951287676868
20
81.17175800358595
30
0
10
34.684269488950477
20
80.744837807441058
30
0
10
34.974799997621432
20
80.289959523325564
30
0
10
35.388770032014058
20
79.759723631701547
30
0
10
35.870576132226915
20
79.161087589564858
30
0
10
36.343650770289841
20
78.529688387347093
30
0
10
36.734139079206322
20
77.91465075172583
30
0
10
36.997199749087969
20
77.359309054996189
30
0
10
37.144349996202322
20
76.883340754492565
30
0
10
37.21848919862272
20
76.477662480367968
30
0
10
37.26748990822805
20
76.101622072208656
30
0
10
37.315029094874951
20
75.676566795412811
30
0
10
37.365635758198728
20
75.107128152330063
30
0
10
37.414700373157878
20
74.304892509127029
30
0
10
37.457903369391282
20
73.214906896230886
30
0
10
37.493059026920406
20
71.816621984308895
30
0
10
37.519167753982231
20
70.116987415910245
30
0
10
37.536438836722212
20
68.146206296082795
30
0
10
37.545905129240921
20
65.95237474106608
30
0
10
37.549213204086989
20
63.596602779211786
30
0
10
37.548337583596798
20
61.147922846862457
30
0
10
37.545328589982397
20
58.678302438143881
30
0
10
37.54204357457499
20
56.257582789659082
30
0
10
37.539890290526891
20
53.948517189004008
30
0
10
37.539553429560236
20
51.801608659751786
30
0
10
37.540755721020986
20
49.850405109519407
30
0
10
37.541931932848641
20
48.105616805633659
30
0
10
37.540633758167935
20
46.559126741298272
30
0
10
37.534066771275491
20
45.18976072154733
30
0
10
37.519574584579146
20
43.968405910759174
30
0
10
37.495160279005361
20
42.8634873135058
30
0
10
37.459956989715678
20
41.846096049428652
30
0
10
37.414801362907284
20
40.895719294503444
30
0
10
37.362572578668811
20
40.004650717658237
30
0
10
37.309123232157432
20
39.185696816644167
30
0
10
37.261044843070003
20
38.462619010310618
30
0
10
37.221640986174194
20
37.851549166592058
30
0
10
37.188221668551741
20
37.348102954206638
30
0
10
37.147132315428308
20
36.90567739357445
30
0
10
37.07527685712644
20
36.438356023004502
30
0
10
36.953271667558568
20
35.868638329973635
30
0
10
36.778309412769104
20
35.172691564582358
30
0
10
36.57116221627723
20
34.407395306244283
30
0
10
36.359862732581412
20
33.661734137524327
30
0
10
36.166779092122205
20
33.019718617461578
30
0
10
35.995496091880014
20
32.521516727742096
30
0
10
35.814810540525535
20
32.118171782233432
30
0
10
35.57679414056939
20
31.709452262257727
30
0
10
35.237887636202018
20
31.190016260833303
30
0
10
34.782292733961789
20
30.499212792380213
30
0
10
34.2204060989826
20
29.622416088052827
30
0
10
33.580280530019984
20
28.578542631563998
30
0
10
32.901456934490852
20
27.41231604527675
30
0
10
32.227845647321026
20
26.184545416297567
30
0
10
31.600914176266173
20
24.963242739455879
30
0
10
31.052983409656498
20
23.814413813871003
30
0
10
30.599831222336171
20
22.792879803179112
30
0
10
30.242622951850823
20
21.935900599006022
30
0
10
29.970949759707292
20
21.257924993658865
30
0
10
29.765320836841937
20
20.743457727305334
30
0
10
29.60022340355442
20
20.344062688833063
30
0
10
29.446112107953695
20
19.965354767674853
30
0
10
29.275087624183161
20
19.491809068490934
30
0
10
29.06808799596709
20
18.833995543513161
30
0
10
28.823851762238817
20
17.981428060545156
30
0
10
28.559342545578104
20
17.010391158593038
30
0
10
28.299806974245314
20
16.034327492563339
30
0
10
28.071380885756454
20
15.168512166473887
30
0
10
27.892997587719577
20
14.490685079590509
30
0
10
27.767793795995299
20
13.999209775222878
30
0
10
27.677059575088904
20
13.584505850772201
30
0
10
27.595062554162393
20
13.109655600547534
30
0
10
27.5020742797
20
12.481782614962317
30
0
10
27.397532812215559
20
11.72364579079302
30
0
10
27.29244484212801
20
10.923287000769715
30
0
10
27.202059065984407
20
10.184775430708219
30
0
10
27.139226188930181
20
9.5839935634101288
30
0
10
27.10550554689247
20
9.1087410848233574
30
0
10
27.093260560140585
20
8.6748051655152274
30
0
10
27.09246850010501
20
8.1747572972595499
30
0
10
27.097175310390767
20
7.523921315251993
30
0
10
27.107362715018187
20
6.6761745155326739
30
0
10
27.126663524076928
20
5.6121617902979493
30
0
10
27.161322283828962
20
4.335828979604079
30
0
10
27.218660378021205
20
2.8675710127701026
30
0
10
27.305708173636315
20
1.2386994904931965
30
0
10
27.427871855462978
20
-0.5143468933254669
30
0
10
27.587313672939256
20
-2.3564725700534757
30
0
10
27.782940338490235
20
-4.2557758402967458
30
0
10
28.011117903013183
20
-6.1832537346454943
30
0
10
28.266153845300437
20
-8.1131982590283016
30
0
10
28.540875664248357
20
-10.023304250383628
30
0
10
28.827168888653073
20
-11.894902082616078
30
0
10
29.116530566329217
20
-13.713134251958506
30
0
10
29.40062066173169
20
-15.467161827608544
30
0
10
29.671803713568316
20
-17.150344980543512
30
0
10
29.923719425688994
20
-18.760465225383705
30
0
10
30.151782925074954
20
-20.299858388450009
30
0
10
30.353860261116008
20
-21.775764771774607
30
0
10
30.530220746641092
20
-23.199787317456657
30
0
10
30.682983134483933
20
-24.58672619927821
30
0
10
30.815710910198682
20
-25.953596750432428
30
0
10
30.932946732653676
20
-27.318573360085271
30
0
10
31.039771568543905
20
-28.69996160888228
30
0
10
31.141356474851449
20
-30.115166418781879
30
0
10
31.242509953620555
20
-31.57964292880207
30
0
10
31.347245114946638
20
-33.105899525973001
30
0
10
31.458290620286906
20
-34.702359236683137
30
0
10
31.577181116206312
20
-36.373669609419238
30
0
10
31.70442570209989
20
-38.121207353150801
30
0
10
31.839648784506913
20
-39.943514086126427
30
0
10
31.981742502473409
20
-41.836760894646837
30
0
10
32.129014282169912
20
-43.795200865997018
30
0
10
32.279336220391095
20
-45.811625869727315
30
0
10
32.430294275019833
20
-47.877823575174936
30
0
10
32.579336137394797
20
-49.98502950078138
30
0
10
32.72392291442516
20
-52.124392462334811
30
0
10
32.861671599021356
20
-54.287407954352716
30
0
10
32.990519900155796
20
-56.466429217992015
30
0
10
33.108819034547487
20
-58.654928097280532
30
0
10
33.215290541333204
20
-60.847283650423179
30
0
10
33.309012773050952
20
-63.038673805695041
30
0
10
33.389395496704665
20
-65.224925757723312
30
0
10
33.456159587225414
20
-67.402383956217932
30
0
10
33.509314520029811
20
-69.567770650273857
30
0
10
33.549136848869395
20
-71.718049372554987
30
0
10
33.576148185579726
20
-73.850287791654736
30
0
10
33.591093578519349
20
-75.961519375484855
30
0
10
33.594919303123234
20
-78.048608964877076
30
0
10
33.588751883241635
20
-80.108108766462536
30
0
10
33.573874312499584
20
-82.136136876643931
30
0
10
33.551708971297074
20
-84.128201645421683
30
0
10
33.523779930787875
20
-86.079193011200516
30
0
10
33.491623058450742
20
-87.983797033967846
30
0
10
33.456706011458323
20
-89.836829953429628
30
0
10
33.420344479114661
20
-91.633603418492783
30
0
10
33.383619629957508
20
-93.370278148004161
30
0
10
33.34729595296259
20
-95.044218561599635
30
0
10
33.311736799411037
20
-96.654356337401367
30
0
10
33.276825846187243
20
-98.201528479419409
30
0
10
33.241874527540197
20
-99.688876751899528
30
0
10
33.205562382900226
20
-101.12210273572484
30
0
10
33.165795433518745
20
-102.5100826121971
30
0
10
33.119926430171716
20
-103.86389379293988
30
0
10
33.065188953822769
20
-105.1949032284856
30
0
10
32.999062433802123
20
-106.51315844519777
30
0
10
32.919673981248117
20
-107.82561804427846
30
0
10
32.826165504535652
20
-109.13453216539804
30
0
10
32.719119753797834
20
-110.43556990057759
30
0
10
32.600858249629312
20
-111.71649594032496
30
0
10
32.476047985730638
20
-112.95452422623468
30
0
10
32.351192857031549
20
-114.11844240248911
30
0
10
32.232842632509112
20
-115.17617585946191
30
0
10
32.126211003599401
20
-116.10067867434128
30
0
10
32.033472978672812
20
-116.87702534748843
30
0
10
31.952554544847359
20
-117.50779163747195
30
0
10
31.874855773041734
20
-118.0220561061532
30
0
10
31.786163303158318
20
-118.47356567365118
30
0
10
31.673753068598383
20
-118.91700112185524
30
0
10
31.53341078835313
20
-119.38567991541541
30
0
10
31.373277298670558
20
-119.87689825063258
30
0
10
31.204355186552494
20
-120.37236683517642
30
0
10
31.032498908786827
20
-120.85399491598538
30
0
10
30.851512344255092
20
-121.31886452475922
30
0
10
30.650851463454302
20
-121.77085138510836
30
0
10
30.421867824237697
20
-122.2147843071012
30
0
10
30.16433793526727
20
-122.64986256666661
30
0
10
29.882393198164593
20
-123.0725869985873
30
0
10
29.580980379394475
20
-123.479161941854
30
0
10
29.261889207328664
20
-123.86824500699319
30
0
10
28.925138414708805
20
-124.24015038475353
30
0
10
28.570487499242553
20
-124.59590593827468
30
0
10
28.199173799275133
20
-124.93634938094756
30
0
10
27.813073394256609
20
-125.26149066133753
30
0
10
27.413601031612515
20
-125.57007794960219
30
0
10
27.000351723542785
20
-125.85878980414742
30
0
10
26.572023233346492
20
-126.12346275442698
30
0
10
26.127853375918747
20
-126.36075712508205
30
0
10
25.6692847952934
20
-126.56998735026579
30
0
10
25.19954973000965
20
-126.75324874195942
30
0
10
24.722290238384375
20
-126.91447320399404
30
0
10
24.240271506717587
20
-127.05914833743527
30
0
10
23.754972139957257
20
-127.19254804483292
30
0
10
23.266995067865626
20
-127.31759697096889
30
0
10
22.776187263064429
20
-127.43191110956616
30
0
10
22.282025764772619
20
-127.52845662464985
30
0
10
21.784087861946205
20
-127.59960500517727
30
0
10
21.282578810325404
20
-127.64116800142531
30
0
10
20.778598376544952
20
-127.65357253812758
30
0
10
20.273984729081974
20
-127.6380808914263
30
0
10
19.771245428134282
20
-127.59367748970269
30
0
10
19.273491842512801
20
-127.51525654811077
30
0
10
18.784512566180794
20
-127.39630154972608
30
0
10
18.308799427461608
20
-127.2307153294396
30
0
10
17.851630695473652
20
-127.01475624830302
30
0
10
17.419169647853884
20
-126.7475411082131
30
0
10
17.018691135348881
20
-126.43199265332649
30
0
10
16.658426219328931
20
-126.07513924729419
30
0
10
16.344704995348668
20
-125.68459221946767
30
0
10
16.079280771361852
20
-125.26528056338641
30
0
10
15.856800383251375
20
-124.81636342004103
30
0
10
15.669126944775737
20
-124.33830124373461
30
0
10
15.509259328066609
20
-123.83907126442998
30
0
10
15.375707567297347
20
-123.34172840222311
30
0
10
15.268772214859785
20
-122.8673756422816
30
0
10
15.186824130677666
20
-122.41882241523922
30
0
10
15.121889122651586
20
-121.96032227827375
30
0
10
15.062606204825141
20
-121.4360665052177
30
0
10
14.997993351617428
20
-120.7925895106989
30
0
10
14.921517256167984
20
-120.00345985428001
30
0
10
14.831012239770342
20
-119.0679918158061
30
0
10
14.72731936645306
20
-118.00205835445331
30
0
10
14.613377293076045
20
-116.83170748116123
30
0
10
14.49309224887009
20
-115.58536065002372
30
0
10
14.370376003347376
20
-114.28718477458212
30
0
10
14.24792781515168
20
-112.94854037555854
30
0
10
14.126983539211386
20
-111.56687526035741
30
0
10
14.007656923129915
20
-110.12920078862756
30
0
10
13.88910320346594
20
-108.614191992784
30
0
10
13.769755972597558
20
-106.99485457111254
30
0
10
13.647532883645264
20
-105.24095218360002
30
0
10
13.520054146640657
20
-103.32152886551714
30
0
10
13.384856934229447
20
-101.2074090204198
30
0
10
13.239608243607595
20
-98.873663987905786
30
0
10
13.08232610011364
20
-96.302193203830228
30
0
10
12.911579227876356
20
-93.484021970645642
30
0
10
12.726740414022942
20
-90.422300859657014
30
0
10
12.528039370235238
20
-87.13268867686574
30
0
10
12.316421132781635
20
-83.641198465020054
30
0
10
12.093457615216508
20
-79.982736921297757
30
0
10
11.861237430890252
20
-76.199360346267937
30
0
10
11.62226503056055
20
-72.338652104569093
30
0
10
11.379355837204857
20
-68.452047897070941
30
0
10
11.135533110164676
20
-64.593183523757233
30
0
10
10.893924065707893
20
-60.816233097216859
30
0
10
10.657656325231365
20
-57.174251159642779
30
0
10
10.429754209964583
20
-53.717513628137475
30
0
10
10.21303513063555
20
-50.491858009000651
30
0
10
10.010005864294991
20
-47.537026664292419
30
0
10
9.822759037015004
20
-44.885002195705958
30
0
10
9.6528691379076221
20
-42.558361188279264
30
0
10
9.5012895979502492
20
-40.568584922822552
30
0
10
9.3682473806230213
20
-38.914469759031746
30
0
10
9.2531433477110721
20
-37.580305394860972
30
0
10
9.1544387305418677
20
-36.534597269806817
30
0
10
9.0695844587949868
20
-35.727397736939608
30
0
10
8.9943607374748709
20
-35.096730272582796
30
0
10
8.9216205996497138
20
-34.577401739474439
30
0
10
8.841026735828132
20
-34.108982032960554
30
0
10
8.7365323120110148
20
-33.644207772502682
30
0
10
8.5909973278976377
20
-33.156444372999935
30
0
10
8.3971147874044849
20
-32.642057359278319
30
0
10
8.1717298703680825
20
-32.129441611435723
30
0
10
7.9540480097016664
20
-31.669260251671972
30
0
10
7.7727080489420821
20
-31.292596567229225
30
0
10
7.6136882917189563
20
-30.967843644736142
30
0
10
7.4039371485913126
20
-30.580297376786461
30
0
10
7.0567364538247528
20
-29.996559674695114
30
0
10
6.5091557004056719
20
-29.118287971844161
30
0
10
5.7560051512231967
20
-27.930770920284406
30
0
10
4.8325149884413774
20
-26.479037541353463
30
0
10
3.8032111575672527
20
-24.852694593709501
30
0
10
2.7483421501621743
20
-23.167317283753235
30
0
10
1.7514123768512313
20
-21.547394481158172
30
0
10
0.88609474478215899
20
-20.108408082181228
30
0
10
0.20374695662334247
20
-18.939743543415346
30
0
10
-0.28011499814298341
20
-18.086176190993321
30
0
10
-0.59705348089417498
20
-17.532477214767933
30
0
10
-0.84276010888396602
20
-17.180130505301001
30
0
10
-1.1286424065182719
20
-16.910482113186561
30
0
10
-1.5324168028065173
20
-16.647744263934282
30
0
10
-2.0377467804264642
20
-16.439983975563639
30
0
10
-2.5681424267763431
20
-16.394279834221674
30
0
10
-3.0376669693627312
20
-16.590726883466246
30
0
10
-3.4030479873801331
20
-16.983133276157691
30
0
10
-3.6611988615090789
20
-17.453911398839221
30
0
10
-3.8323544023930878
20
-17.899696560985412
30
0
10
-3.9472365119120139
20
-18.323770474120519
30
0
10
-4.0393570562329923
20
-18.813386448567943
30
0
10
-4.1408784746241336
20
-19.483371169980991
30
0
10
-4.2762810356346739
20
-20.423246665708721
30
0
10
-4.4616007864053637
20
-21.683740919228583
30
0
10
-4.7058398627543729
20
-23.286526360627246
30
0
10
-5.0117119128506911
20
-25.226336486308814
30
0
10
-5.3766624917494985
20
-27.476265125959387
30
0
10
-5.793771424258316
20
-29.991699059084802
30
0
10
-6.2527059969349574
20
-32.714839109453251
30
0
10
-6.7406519926905553
20
-35.578966529620118
30
0
10
-7.2432547367216653
20
-38.512821526676653
30
0
10
-7.7455546205358949
20
-41.444927345023423
30
0
10
-8.2329277436862824
20
-44.307951876376336
30
0
10
-8.6920179584466766
20
-47.043020383108797
30
0
10
-9.1116875045513961
20
-49.604125599696438
30
0
10
-9.4839245688350307
20
-51.96231620160377
30
0
10
-9.8048637807789909
20
-54.110464434746042
30
0
10
-10.074320652258876
20
-56.060418135149021
30
0
10
-10.295184057254067
20
-57.839425407028671
30
0
10
-10.472859559924776
20
-59.48681967677075
30
0
10
-10.614691535065688
20
-61.050596458285334
30
0
10
-10.729393949694209
20
-62.584033587115414
30
0
10
-10.826478556457012
20
-64.142300260700665
30
0
10
-10.915681618055952
20
-65.779053686710796
30
0
10
-11.006397302562767
20
-67.543081135077642
30
0
10
-11.10709417521371
20
-69.474829192809622
30
0
10
-11.224771956059115
20
-71.603200688696575
30
0
10
-11.364314610585655
20
-73.94166285530352
30
0
10
-11.528577762465741
20
-76.489233587768808
30
0
10
-11.718643883919341
20
-79.232582219278328
30
0
10
-11.934019973546079
20
-82.14774823789412
30
0
10
-12.172859342860416
20
-85.202020167122157
30
0
10
-12.432173028584943
20
-88.355745499035351
30
0
10
-12.708045654807581
20
-91.56417027597189
30
0
10
-12.995849361899856
20
-94.77926564914803
30
0
10
-13.290458564039424
20
-97.951560400651601
30
0
10
-13.586464325000476
20
-101.03196991583197
30
0
10
-13.878388932660034
20
-103.97362889617511
30
0
10
-14.160900294726254
20
-106.73371734249436
30
0
10
-14.42902662467314
20
-109.27530143010166
30
0
10
-14.678370514395038
20
-111.56914030645322
30
0
10
-14.905324422502051
20
-113.59557211484402
30
0
10
-15.107282897124348
20
-115.34621583663301
30
0
10
-15.28286261235734
20
-116.82611328951114
30
0
10
-15.432099471099638
20
-118.05456556272533
30
0
10
-15.556567478487846
20
-119.06126580186358
30
0
10
-15.659506322880963
20
-119.88317987297478
30
0
10
-15.745953275225295
20
-120.56113064804563
30
0
10
-15.822855638621014
20
-121.13651611811811
30
0
10
-15.899233499300609
20
-121.64795260360202
30
0
10
-15.986199485264311
20
-122.12799543780446
30
0
10
-16.094451068355411
20
-122.60031053085908
30
0
10
-16.231961919892829
20
-123.0769455848851
30
0
10
-16.40145346802155
20
-123.55529207930499
30
0
10
-16.602938783129694
20
-124.02501159595148
30
0
10
-16.836144749275601
20
-124.47483985993621
30
0
10
-17.10351688165585
20
-124.90029927541073
30
0
10
-17.407484467284423
20
-125.3011467898055
30
0
10
-17.747674521747573
20
-125.67787143193344
30
0
10
-18.116766393154677
20
-126.02780552170296
30
0
10
-18.505743795401351
20
-126.34650360867225
30
0
10
-18.909694872463373
20
-126.63022236105499
30
0
10
-19.336978248018269
20
-126.87865630740515
30
0
10
-19.799431043664462
20
-127.09419595114355
30
0
10
-20.299133513939118
20
-127.27990670359321
30
0
10
-20.808078386731164
20
-127.43737990375763
30
0
10
-21.285318707195295
20
-127.5670096265474
30
0
10
-21.71039772830342
20
-127.6696748145274
30
0
10
-22.125320387447665
20
-127.74852681371142
30
0
10
-22.62246099982967
20
-127.80869906985905
30
0
10
-23.286584125525852
20
-127.85507758667529
30
0
10
-24.138268719803811
20
-127.89023779254988
30
0
10
-25.115964894207746
20
-127.91362607666905
30
0
10
-26.120250618855408
20
-127.92284988947115
30
0
10
-27.042674686934593
20
-127.91443608802517
30
0
10
-27.799912814832179
20
-127.8847852819201
30
0
10
-28.367902944272878
20
-127.83109060006262
30
0
10
-28.721187366036325
20
-127.76792409912998
30
0
10
-28.971309260744576
20
-127.70888033360077
30
0
10
-29.141333965640229
20
-127.66419832440184
30
0
10
-29.227799999999998
20
-127.6405
30
0
0
ENDSEC
0
SECTION
2
OBJECTS
0
DICTIONARY
5
C
100
AcDbDictionary
3
ACAD_GROUP
350
D
3
ACAD_MLINESTYLE
350
17
0
DICTIONARY
5
D
100
AcDbDictionary
0
DICTIONARY
5
1A
330
C
100
AcDbDictionary
0
DICTIONARY
5
17
100
AcDbDictionary
0
ENDSEC
0
EOF
