  0
SECTION
  2
HEADER
  9
$ACADVER
  1
AC1027
  9
$ACADMAINTVER
 70
105
  9
$DWGCODEPAGE
  3
ANSI_1252
  9
$LASTSAVEDBY
  1
ezdxf
  9
$REQUIREDVERSIONS
160
0
  9
$INSBASE
 10
0.0
 20
0.0
 30
0.0
  9
$EXTMIN
 10
1e+20
 20
1e+20
 30
1e+20
  9
$EXTMAX
 10
-1e+20
 20
-1e+20
 30
-1e+20
  9
$LIMMIN
 10
0.0
 20
0.0
  9
$LIMMAX
 10
420.0
 20
297.0
  9
$ORTHOMODE
 70
0
  9
$REGENMODE
 70
1
  9
$FILLMODE
 70
1
  9
$QTEXTMODE
 70
0
  9
$MIRRTEXT
 70
1
  9
$LTSCALE
 40
1.0
  9
$ATTMODE
 70
1
  9
$TEXTSIZE
 40
2.5
  9
$TRACEWID
 40
1.0
  9
$TEXTSTYLE
  7
Standard
  9
$CLAYER
  8
0
  9
$CELTYPE
  6
ByLayer
  9
$CECOLOR
 62
256
  9
$CELTSCALE
 40
1.0
  9
$DISPSILH
 70
0
  9
$DIMSCALE
 40
1.0
  9
$DIMASZ
 40
2.5
  9
$DIMEXO
 40
0.625
  9
$DIMDLI
 40
3.75
  9
$DIMRND
 40
0.0
  9
$DIMDLE
 40
0.0
  9
$DIMEXE
 40
1.25
  9
$DIMTP
 40
0.0
  9
$DIMTM
 40
0.0
  9
$DIMTXT
 40
2.5
  9
$DIMCEN
 40
2.5
  9
$DIMTSZ
 40
0.0
  9
$DIMTOL
 70
0
  9
$DIMLIM
 70
0
  9
$DIMTIH
 70
0
  9
$DIMTOH
 70
0
  9
$DIMSE1
 70
0
  9
$DIMSE2
 70
0
  9
$DIMTAD
 70
1
  9
$DIMZIN
 70
8
  9
$DIMBLK
  1

  9
$DIMASO
 70
1
  9
$DIMSHO
 70
1
  9
$DIMPOST
  1

  9
$DIMAPOST
  1

  9
$DIMALT
 70
0
  9
$DIMALTD
 70
3
  9
$DIMALTF
 40
0.03937007874
  9
$DIMLFAC
 40
1.0
  9
$DIMTOFL
 70
1
  9
$DIMTVP
 40
0.0
  9
$DIMTIX
 70
0
  9
$DIMSOXD
 70
0
  9
$DIMSAH
 70
0
  9
$DIMBLK1
  1

  9
$DIMBLK2
  1

  9
$DIMSTYLE
  2
ISO-25
  9
$DIMCLRD
 70
0
  9
$DIMCLRE
 70
0
  9
$DIMCLRT
 70
0
  9
$DIMTFAC
 40
1.0
  9
$DIMGAP
 40
0.625
  9
$DIMJUST
 70
0
  9
$DIMSD1
 70
0
  9
$DIMSD2
 70
0
  9
$DIMTOLJ
 70
0
  9
$DIMTZIN
 70
8
  9
$DIMALTZ
 70
0
  9
$DIMALTTZ
 70
0
  9
$DIMUPT
 70
0
  9
$DIMDEC
 70
2
  9
$DIMTDEC
 70
2
  9
$DIMALTU
 70
2
  9
$DIMALTTD
 70
3
  9
$DIMTXSTY
  7
Standard
  9
$DIMAUNIT
 70
0
  9
$DIMADEC
 70
0
  9
$DIMALTRND
 40
0.0
  9
$DIMAZIN
 70
0
  9
$DIMDSEP
 70
44
  9
$DIMATFIT
 70
3
  9
$DIMFRAC
 70
0
  9
$DIMLDRBLK
  1

  9
$DIMLUNIT
 70
2
  9
$DIMLWD
 70
-2
  9
$DIMLWE
 70
-2
  9
$DIMTMOVE
 70
0
  9
$DIMFXL
 40
1.0
  9
$DIMFXLON
 70
0
  9
$DIMJOGANG
 40
0.785398163397
  9
$DIMTFILL
 70
0
  9
$DIMTFILLCLR
 70
0
  9
$DIMARCSYM
 70
0
  9
$DIMLTYPE
  6

  9
$DIMLTEX1
  6

  9
$DIMLTEX2
  6

  9
$DIMTXTDIRECTION
 70
0
  9
$LUNITS
 70
2
  9
$LUPREC
 70
4
  9
$SKETCHINC
 40
1.0
  9
$FILLETRAD
 40
10.0
  9
$AUNITS
 70
0
  9
$AUPREC
 70
2
  9
$MENU
  1
.
  9
$ELEVATION
 40
0.0
  9
$PELEVATION
 40
0.0
  9
$THICKNESS
 40
0.0
  9
$LIMCHECK
 70
0
  9
$CHAMFERA
 40
0.0
  9
$CHAMFERB
 40
0.0
  9
$CHAMFERC
 40
0.0
  9
$CHAMFERD
 40
0.0
  9
$SKPOLY
 70
0
  9
$TDCREATE
 40
2461290.794583333
  9
$TDUCREATE
 40
2458532.153996898
  9
$TDUPDATE
 40
2461290.794583333
  9
$TDUUPDATE
 40
2458532.1544311
  9
$TDINDWG
 40
0.0
  9
$TDUSRTIMER
 40
0.0
  9
$USRTIMER
 70
1
  9
$ANGBASE
 50
0.0
  9
$ANGDIR
 70
0
  9
$PDMODE
 70
0
  9
$PDSIZE
 40
0.0
  9
$PLINEWID
 40
0.0
  9
$SPLFRAME
 70
0
  9
$SPLINETYPE
 70
6
  9
$SPLINESEGS
 70
8
  9
$HANDSEED
  5
10B
  9
$SURFTAB1
 70
6
  9
$SURFTAB2
 70
6
  9
$SURFTYPE
 70
6
  9
$SURFU
 70
6
  9
$SURFV
 70
6
  9
$UCSBASE
  2

  9
$UCSNAME
  2

  9
$UCSORG
 10
0.0
 20
0.0
 30
0.0
  9
$UCSXDIR
 10
1.0
 20
0.0
 30
0.0
  9
$UCSYDIR
 10
0.0
 20
1.0
 30
0.0
  9
$UCSORTHOREF
  2

  9
$UCSORTHOVIEW
 70
0
  9
$UCSORGTOP
 10
0.0
 20
0.0
 30
0.0
  9
$UCSORGBOTTOM
 10
0.0
 20
0.0
 30
0.0
  9
$UCSORGLEFT
 10
0.0
 20
0.0
 30
0.0
  9
$UCSORGRIGHT
 10
0.0
 20
0.0
 30
0.0
  9
$UCSORGFRONT
 10
0.0
 20
0.0
 30
0.0
  9
$UCSORGBACK
 10
0.0
 20
0.0
 30
0.0
  9
$PUCSBASE
  2

  9
$PUCSNAME
  2

  9
$PUCSORG
 10
0.0
 20
0.0
 30
0.0
  9
$PUCSXDIR
 10
1.0
 20
0.0
 30
0.0
  9
$PUCSYDIR
 10
0.0
 20
1.0
 30
0.0
  9
$PUCSORTHOREF
  2

  9
$PUCSORTHOVIEW
 70
0
  9
$PUCSORGTOP
 10
0.0
 20
0.0
 30
0.0
  9
$PUCSORGBOTTOM
 10
0.0
 20
0.0
 30
0.0
  9
$PUCSORGLEFT
 10
0.0
 20
0.0
 30
0.0
  9
$PUCSORGRIGHT
 10
0.0
 20
0.0
 30
0.0
  9
$PUCSORGFRONT
 10
0.0
 20
0.0
 30
0.0
  9
$PUCSORGBACK
 10
0.0
 20
0.0
 30
0.0
  9
$USERI1
 70
0
  9
$USERI2
 70
0
  9
$USERI3
 70
0
  9
$USERI4
 70
0
  9
$USERI5
 70
0
  9
$USERR1
 40
0.0
  9
$USERR2
 40
0.0
  9
$USERR3
 40
0.0
  9
$USERR4
 40
0.0
  9
$USERR5
 40
0.0
  9
$WORLDVIEW
 70
1
  9
$SHADEDGE
 70
3
  9
$SHADEDIF
 70
70
  9
$TILEMODE
 70
1
  9
$MAXACTVP
 70
64
  9
$PINSBASE
 10
0.0
 20
0.0
 30
0.0
  9
$PLIMCHECK
 70
0
  9
$PEXTMIN
 10
1e+20
 20
1e+20
 30
1e+20
  9
$PEXTMAX
 10
-1e+20
 20
-1e+20
 30
-1e+20
  9
$PLIMMIN
 10
0.0
 20
0.0
  9
$PLIMMAX
 10
420.0
 20
297.0
  9
$UNITMODE
 70
0
  9
$VISRETAIN
 70
1
  9
$PLINEGEN
 70
0
  9
$PSLTSCALE
 70
1
  9
$TREEDEPTH
 70
3020
  9
$CMLSTYLE
  2
Standard
  9
$CMLJUST
 70
0
  9
$CMLSCALE
 40
20.0
  9
$PROXYGRAPHICS
 70
1
  9
$MEASUREMENT
 70
1
  9
$CELWEIGHT
370
-1
  9
$ENDCAPS
280
0
  9
$JOINSTYLE
280
0
  9
$LWDISPLAY
290
0
  9
$INSUNITS
 70
4
  9
$HYPERLINKBASE
  1

  9
$STYLESHEET
  1

  9
$XEDIT
290
1
  9
$CEPSNTYPE
380
0
  9
$PSTYLEMODE
290
1
  9
$FINGERPRINTGUID
  2
{D35D03EF-BB62-4E1E-B90E-6806856878F2}
  9
$VERSIONGUID
  2
{01DEE156-70A8-435B-87C3-06279E75B555}
  9
$EXTNAMES
290
1
  9
$PSVPSCALE
 40
0.0
  9
$OLESTARTUP
290
0
  9
$SORTENTS
280
127
  9
$INDEXCTL
280
0
  9
$HIDETEXT
280
1
  9
$XCLIPFRAME
280
1
  9
$HALOGAP
280
0
  9
$OBSCOLOR
 70
257
  9
$OBSLTYPE
280
0
  9
$INTERSECTIONDISPLAY
280
0
  9
$INTERSECTIONCOLOR
 70
257
  9
$DIMASSOC
280
2
  9
$PROJECTNAME
  1

  9
$CAMERADISPLAY
290
0
  9
$LENSLENGTH
 40
50.0
  9
$CAMERAHEIGHT
 40
0.0
  9
$STEPSPERSEC
 40
24.0
  9
$STEPSIZE
 40
100.0
  9
$3DDWFPREC
 40
2.0
  9
$PSOLWIDTH
 40
0.005
  9
$PSOLHEIGHT
 40
0.08
  9
$LOFTANG1
 40
1.570796326795
  9
$LOFTANG2
 40
1.570796326795
  9
$LOFTMAG1
 40
0.0
  9
$LOFTMAG2
 40
0.0
  9
$LOFTPARAM
 70
7
  9
$LOFTNORMALS
280
1
  9
$LATITUDE
 40
37.795
  9
$LONGITUDE
 40
-122.394
  9
$NORTHDIRECTION
 40
0.0
  9
$TIMEZONE
 70
-8000
  9
$LIGHTGLYPHDISPLAY
280
1
  9
$TILEMODELIGHTSYNCH
280
1
  9
$CMATERIAL
347
20
  9
$SOLIDHIST
280
0
  9
$SHOWHIST
280
1
  9
$DWFFRAME
280
2
  9
$DGNFRAME
280
2
  9
$REALWORLDSCALE
290
1
  9
$INTERFERECOLOR
 62
256
  9
$CSHADOW
280
0
  9
$SHADOWPLANELOCATION
 40
0.0
  0
ENDSEC
  0
SECTION
  2
CLASSES
  0
CLASS
  1
ACDBDICTIONARYWDFLT
  2
AcDbDictionaryWithDefault
  3
ObjectDBX Classes
 90
0
 91
0
280
0
281
0
  0
CLASS
  1
SUN
  2
AcDbSun
  3
SCENEOE
 90
1153
 91
0
280
0
281
0
  0
CLASS
  1
VISUALSTYLE
  2
AcDbVisualStyle
  3
ObjectDBX Classes
 90
4095
 91
0
280
0
281
0
  0
CLASS
  1
MATERIAL
  2
AcDbMaterial
  3
ObjectDBX Classes
 90
1153
 91
0
280
0
281
0
  0
CLASS
  1
SCALE
  2
AcDbScale
  3
ObjectDBX Classes
 90
1153
 91
0
280
0
281
0
  0
CLASS
  1
TABLESTYLE
  2
AcDbTableStyle
  3
ObjectDBX Classes
 90
4095
 91
0
280
0
281
0
  0
CLASS
  1
MLEADERSTYLE
  2
AcDbMLeaderStyle
  3
ACDB_MLEADERSTYLE_CLASS
 90
4095
 91
0
280
0
281
0
  0
CLASS
  1
DICTIONARYVAR
  2
AcDbDictionaryVar
  3
ObjectDBX Classes
 90
0
 91
0
280
0
281
0
  0
CLASS
  1
CELLSTYLEMAP
  2
AcDbCellStyleMap
  3
ObjectDBX Classes
 90
1152
 91
0
280
0
281
0
  0
CLASS
  1
MENTALRAYRENDERSETTINGS
  2
AcDbMentalRayRenderSettings
  3
SCENEOE
 90
1024
 91
0
280
0
281
0
  0
CLASS
  1
ACDBDETAILVIEWSTYLE
  2
AcDbDetailViewStyle
  3
ObjectDBX Classes
 90
1025
 91
0
280
0
281
0
  0
CLASS
  1
ACDBSECTIONVIEWSTYLE
  2
AcDbSectionViewStyle
  3
ObjectDBX Classes
 90
1025
 91
0
280
0
281
0
  0
CLASS
  1
RASTERVARIABLES
  2
AcDbRasterVariables
  3
ISM
 90
0
 91
0
280
0
281
0
  0
CLASS
  1
ACDBPLACEHOLDER
  2
AcDbPlaceHolder
  3
ObjectDBX Classes
 90
0
 91
0
280
0
281
0
  0
CLASS
  1
LAYOUT
  2
AcDbLayout
  3
ObjectDBX Classes
 90
0
 91
0
280
0
281
0
  0
ENDSEC
  0
SECTION
  2
TABLES
  0
TABLE
  2
VPORT
  5
8
330
0
100
AcDbSymbolTable
 70
1
  0
VPORT
  5
107
330
8
100
AcDbSymbolTableRecord
100
AcDbViewportTableRecord
  2
*Active
 70
0
 10
0.0
 20
0.0
 11
1.0
 21
1.0
 12
0.0
 22
0.0
 13
0.0
 23
0.0
 14
0.5
 24
0.5
 15
0.5
 25
0.5
 16
0.0
 26
0.0
 36
1.0
 17
0.0
 27
0.0
 37
0.0
 40
216.86428833007812
 41
1.34
 42
50.0
 43
0.0
 44
0.0
 50
0.0
 51
0.0
 71
0
 72
1000
 73
1
 74
3
 75
0
 76
0
 77
0
 78
0
281
0
 65
1
110
0.0
120
0.0
130
0.0
111
1.0
121
0.0
131
0.0
112
0.0
122
1.0
132
0.0
 79
0
146
0.0
  0
ENDTAB
  0
TABLE
  2
LTYPE
  5
2
330
0
100
AcDbSymbolTable
 70
3
  0
LTYPE
  5
24
330
2
100
AcDbSymbolTableRecord
100
AcDbLinetypeTableRecord
  2
ByBlock
 70
0
  3

 72
65
 73
0
 40
0.0
  0
LTYPE
  5
25
330
2
100
AcDbSymbolTableRecord
100
AcDbLinetypeTableRecord
  2
ByLayer
 70
0
  3

 72
65
 73
0
 40
0.0
  0
LTYPE
  5
26
330
2
100
AcDbSymbolTableRecord
100
AcDbLinetypeTableRecord
  2
Continuous
 70
0
  3

 72
65
 73
0
 40
0.0
  0
ENDTAB
  0
TABLE
  2
LAYER
  5
1
330
0
100
AcDbSymbolTable
 70
2
  0
LAYER
  5
27
330
1
100
AcDbSymbolTableRecord
100
AcDbLayerTableRecord
  2
0
 70
0
 62
7
  6
Continuous
370
-3
390
13
347
21
  0
LAYER
  5
28
330
1
100
AcDbSymbolTableRecord
100
AcDbLayerTableRecord
  2
Defpoints
 70
0
 62
7
  6
Continuous
290
0
370
-3
390
13
347
21
  0
ENDTAB
  0
TABLE
  2
STYLE
  5
5
330
0
100
AcDbSymbolTable
 70
1
  0
STYLE
  5
29
330
5
100
AcDbSymbolTableRecord
100
AcDbTextStyleTableRecord
  2
Standard
 70
0
 40
0.0
 41
1.0
 50
0.0
 71
0
 42
2.5
  3
txt
  4

  0
ENDTAB
  0
TABLE
  2
VIEW
  5
7
330
0
100
AcDbSymbolTable
 70
0
  0
ENDTAB
  0
TABLE
  2
UCS
  5
6
330
0
100
AcDbSymbolTable
 70
0
  0
ENDTAB
  0
TABLE
  2
APPID
  5
3
330
0
100
AcDbSymbolTable
 70
3
  0
APPID
  5
2A
330
3
100
AcDbSymbolTableRecord
100
AcDbRegAppTableRecord
  2
ACAD
 70
0
  0
APPID
  5
108
330
3
100
AcDbSymbolTableRecord
100
AcDbRegAppTableRecord
  2
HATCHBACKGROUNDCOLOR
 70
0
  0
APPID
  5
109
330
3
100
AcDbSymbolTableRecord
100
AcDbRegAppTableRecord
  2
EZDXF
 70
0
  0
ENDTAB
  0
TABLE
  2
DIMSTYLE
  5
4
330
0
100
AcDbSymbolTable
 70
1
100
AcDbDimStyleTable
  0
DIMSTYLE
105
2B
330
4
100
AcDbSymbolTableRecord
100
AcDbDimStyleTableRecord
  2
Standard
 70
0
 40
1.0
 41
2.5
 42
0.625
 43
3.75
 44
1.25
 45
0.0
 46
0.0
 47
0.0
 48
0.0
 49
2.5
140
2.5
141
2.5
142
0.0
143
0.03937007874
144
1.0
145
0.0
146
1.0
147
0.625
148
0.0
 69
0
 70
0
 71
0
 72
0
 73
0
 74
0
 75
0
 76
0
 77
1
 78
8
 79
3
170
0
171
3
172
1
173
0
174
0
175
0
176
0
177
0
178
0
179
2
271
2
272
2
273
2
274
3
275
0
276
0
277
2
278
44
279
0
280
0
281
0
282
0
283
0
284
8
285
0
286
0
288
0
289
3
290
0
371
-2
372
-2
  0
ENDTAB
  0
TABLE
  2
BLOCK_RECORD
  5
9
330
0
100
AcDbSymbolTable
 70
2
  0
BLOCK_RECORD
  5
17
330
9
100
AcDbSymbolTableRecord
100
AcDbBlockTableRecord
  2
*Model_Space
340
1A
 70
0
280
1
281
0
  0
BLOCK_RECORD
  5
1B
330
9
100
AcDbSymbolTableRecord
100
AcDbBlockTableRecord
  2
*Paper_Space
340
1E
 70
0
280
1
281
0
  0
ENDTAB
  0
ENDSEC
  0
SECTION
  2
BLOCKS
  0
BLOCK
  5
18
330
17
100
AcDbEntity
  8
0
100
AcDbBlockBegin
  2
*Model_Space
 70
0
 10
0.0
 20
0.0
 30
0.0
  3
*Model_Space
  1

  0
ENDBLK
  5
19
330
17
100
AcDbEntity
  8
0
100
AcDbBlockEnd
  0
BLOCK
  5
1C
330
1B
100
AcDbEntity
  8
0
100
AcDbBlockBegin
  2
*Paper_Space
 70
0
 10
0.0
 20
0.0
 30
0.0
  3
*Paper_Space
  1

  0
ENDBLK
  5
1D
330
1B
100
AcDbEntity
  8
0
100
AcDbBlockEnd
  0
ENDSEC
  0
SECTION
  2
ENTITIES
  0
LINE
  5
2F
330
17
100
AcDbEntity
  8
0
100
AcDbLine
 10
-71.31677627563477
 20
-107.79914855957031
 30
0.0
 11
-72.56241989135742
 21
-106.96053314208984
 31
0.0
  0
LINE
  5
30
330
17
100
AcDbEntity
  8
0
100
AcDbLine
 10
-72.56241989135742
 20
-106.96053314208984
 30
0.0
 11
-73.49911117553711
 21
-105.78276062011719
 31
0.0
  0
LINE
  5
31
330
17
100
AcDbEntity
  8
0
100
AcDbLine
 10
-73.49911117553711
 20
-105.78276062011719
 30
0.0
 11
-74.18375015258789
 21
-104.44314575195312
 31
0.0
  0
LINE
  5
32
330
17
100
AcDbEntity
  8
0
100
AcDbLine
 10
-74.18375015258789
 20
-104.44314575195312
 30
0.0
 11
-74.59464645385742
 21
-102.99380493164062
 31
0.0
  0
LINE
  5
33
330
17
100
AcDbEntity
  8
0
100
AcDbLine
 10
-74.59464645385742
 20
-102.99380493164062
 30
0.0
 11
-74.85467910766602
 21
-101.5093994140625
 31
0.0
  0
LINE
  5
34
330
17
100
AcDbEntity
  8
0
100
AcDbLine
 10
-74.85467910766602
 20
-101.5093994140625
 30
0.0
 11
-74.77893447875977
 21
-100.00816345214844
 31
0.0
  0
LINE
  5
35
330
17
100
AcDbEntity
  8
0
100
AcDbLine
 10
-74.77893447875977
 20
-100.00816345214844
 30
0.0
 11
-72.96698379516602
 21
-92.68795776367188
 31
0.0
  0
LINE
  5
36
330
17
100
AcDbEntity
  8
0
100
AcDbLine
 10
-72.96698379516602
 20
-92.68795776367188
 30
0.0
 11
-71.8433723449707
 21
-86.76124572753906
 31
0.0
  0
LINE
  5
37
330
17
100
AcDbEntity
  8
0
100
AcDbLine
 10
-71.8433723449707
 20
-86.76124572753906
 30
0.0
 11
-70.64422225952148
 21
-82.40052795410156
 31
0.0
  0
LINE
  5
38
330
17
100
AcDbEntity
  8
0
100
AcDbLine
 10
-70.64422225952148
 20
-82.40052795410156
 30
0.0
 11
-69.97126388549805
 21
-79.46000671386719
 31
0.0
  0
LINE
  5
39
330
17
100
AcDbEntity
  8
0
100
AcDbLine
 10
-69.97126388549805
 20
-79.46000671386719
 30
0.0
 11
-68.57284164428711
 21
-72.0500259399414
 31
0.0
  0
LINE
  5
3A
330
17
100
AcDbEntity
  8
0
100
AcDbLine
 10
-68.57284164428711
 20
-72.0500259399414
 30
0.0
 11
-68.24873733520508
 21
-67.5383071899414
 31
0.0
  0
LINE
  5
3B
330
17
100
AcDbEntity
  8
0
100
AcDbLine
 10
-68.24873733520508
 20
-67.5383071899414
 30
0.0
 11
-68.04375076293945
 21
-66.04438781738281
 31
0.0
  0
LINE
  5
3C
330
17
100
AcDbEntity
  8
0
100
AcDbLine
 10
-68.04375076293945
 20
-66.04438781738281
 30
0.0
 11
-65.67930221557617
 21
-52.67829132080078
 31
0.0
  0
LINE
  5
3D
330
17
100
AcDbEntity
  8
0
100
AcDbLine
 10
-65.67930221557617
 20
-52.67829132080078
 30
0.0
 11
-65.50457000732422
 21
-48.158931732177734
 31
0.0
  0
LINE
  5
3E
330
17
100
AcDbEntity
  8
0
100
AcDbLine
 10
-65.50457000732422
 20
-48.158931732177734
 30
0.0
 11
-64.8100471496582
 21
-43.69041442871094
 31
0.0
  0
LINE
  5
3F
330
17
100
AcDbEntity
  8
0
100
AcDbLine
 10
-64.8100471496582
 20
-43.69041442871094
 30
0.0
 11
-64.73944854736328
 21
-40.676475524902344
 31
0.0
  0
LINE
  5
40
330
17
100
AcDbEntity
  8
0
100
AcDbLine
 10
-64.73944854736328
 20
-40.676475524902344
 30
0.0
 11
-64.01683807373047
 21
-36.21277618408203
 31
0.0
  0
LINE
  5
41
330
17
100
AcDbEntity
  8
0
100
AcDbLine
 10
-64.01683807373047
 20
-36.21277618408203
 30
0.0
 11
-63.862327575683594
 21
-31.692276000976562
 31
0.0
  0
LINE
  5
42
330
17
100
AcDbEntity
  8
0
100
AcDbLine
 10
-63.862327575683594
 20
-31.692276000976562
 30
0.0
 11
-63.10700988769531
 21
-27.233469009399414
 31
0.0
  0
LINE
  5
43
330
17
100
AcDbEntity
  8
0
100
AcDbLine
 10
-63.10700988769531
 20
-27.233469009399414
 30
0.0
 11
-62.950599670410156
 21
-22.71323013305664
 31
0.0
  0
LINE
  5
44
330
17
100
AcDbEntity
  8
0
100
AcDbLine
 10
-62.950599670410156
 20
-22.71323013305664
 30
0.0
 11
-62.220272064208984
 21
-18.25103187561035
 31
0.0
  0
LINE
  5
45
330
17
100
AcDbEntity
  8
0
100
AcDbLine
 10
-62.220272064208984
 20
-18.25103187561035
 30
0.0
 11
-62.1978645324707
 21
-16.74370765686035
 31
0.0
  0
LINE
  5
46
330
17
100
AcDbEntity
  8
0
100
AcDbLine
 10
-62.1978645324707
 20
-16.74370765686035
 30
0.0
 11
-63.74376678466797
 21
46.58366012573242
 31
0.0
  0
LINE
  5
47
330
17
100
AcDbEntity
  8
0
100
AcDbLine
 10
-63.74376678466797
 20
46.58366012573242
 30
0.0
 11
-64.01251220703125
 21
48.06623840332031
 31
0.0
  0
LINE
  5
48
330
17
100
AcDbEntity
  8
0
100
AcDbLine
 10
-64.01251220703125
 20
48.06623840332031
 30
0.0
 11
-65.5958023071289
 21
53.887699127197266
 31
0.0
  0
LINE
  5
49
330
17
100
AcDbEntity
  8
0
100
AcDbLine
 10
-65.5958023071289
 20
53.887699127197266
 30
0.0
 11
-67.99785232543945
 21
61.03464889526367
 31
0.0
  0
LINE
  5
4A
330
17
100
AcDbEntity
  8
0
100
AcDbLine
 10
-67.99785232543945
 20
61.03464889526367
 30
0.0
 11
-68.57220077514648
 21
65.51966857910156
 31
0.0
  0
LINE
  5
4B
330
17
100
AcDbEntity
  8
0
100
AcDbLine
 10
-68.57220077514648
 20
65.51966857910156
 30
0.0
 11
-69.48445510864258
 21
69.94976043701172
 31
0.0
  0
LINE
  5
4C
330
17
100
AcDbEntity
  8
0
100
AcDbLine
 10
-69.48445510864258
 20
69.94976043701172
 30
0.0
 11
-69.55710220336914
 21
71.45527648925781
 31
0.0
  0
LINE
  5
4D
330
17
100
AcDbEntity
  8
0
100
AcDbLine
 10
-69.55710220336914
 20
71.45527648925781
 30
0.0
 11
-69.5087776184082
 21
72.96257781982422
 31
0.0
  0
LINE
  5
4E
330
17
100
AcDbEntity
  8
0
100
AcDbLine
 10
-69.5087776184082
 20
72.96257781982422
 30
0.0
 11
-69.29471206665039
 21
74.45433807373047
 31
0.0
  0
LINE
  5
4F
330
17
100
AcDbEntity
  8
0
100
AcDbLine
 10
-69.29471206665039
 20
74.45433807373047
 30
0.0
 11
-68.49884414672852
 21
77.3622055053711
 31
0.0
  0
LINE
  5
50
330
17
100
AcDbEntity
  8
0
100
AcDbLine
 10
-68.49884414672852
 20
77.3622055053711
 30
0.0
 11
-67.38529586791992
 21
80.16436767578125
 31
0.0
  0
LINE
  5
51
330
17
100
AcDbEntity
  8
0
100
AcDbLine
 10
-67.38529586791992
 20
80.16436767578125
 30
0.0
 11
-66.05783081054688
 21
82.87305450439453
 31
0.0
  0
LINE
  5
52
330
17
100
AcDbEntity
  8
0
100
AcDbLine
 10
-66.05783081054688
 20
82.87305450439453
 30
0.0
 11
-65.2630615234375
 21
84.1524429321289
 31
0.0
  0
LINE
  5
53
330
17
100
AcDbEntity
  8
0
100
AcDbLine
 10
-65.2630615234375
 20
84.1524429321289
 30
0.0
 11
-64.22898483276367
 21
85.24577331542969
 31
0.0
  0
LINE
  5
54
330
17
100
AcDbEntity
  8
0
100
AcDbLine
 10
-64.22898483276367
 20
85.24577331542969
 30
0.0
 11
-63.04002380371094
 21
86.17243194580078
 31
0.0
  0
LINE
  5
55
330
17
100
AcDbEntity
  8
0
100
AcDbLine
 10
-63.04002380371094
 20
86.17243194580078
 30
0.0
 11
-61.93199920654297
 21
87.18804168701172
 31
0.0
  0
LINE
  5
56
330
17
100
AcDbEntity
  8
0
100
AcDbLine
 10
-61.93199920654297
 20
87.18804168701172
 30
0.0
 11
-61.22683334350586
 21
88.51313018798828
 31
0.0
  0
LINE
  5
57
330
17
100
AcDbEntity
  8
0
100
AcDbLine
 10
-61.22683334350586
 20
88.51313018798828
 30
0.0
 11
-60.29690933227539
 21
91.38180541992188
 31
0.0
  0
LINE
  5
58
330
17
100
AcDbEntity
  8
0
100
AcDbLine
 10
-60.29690933227539
 20
91.38180541992188
 30
0.0
 11
-60.06918716430664
 21
92.86833953857422
 31
0.0
  0
LINE
  5
59
330
17
100
AcDbEntity
  8
0
100
AcDbLine
 10
-60.06918716430664
 20
92.86833953857422
 30
0.0
 11
-60.26162338256836
 21
95.87560272216797
 31
0.0
  0
LINE
  5
5A
330
17
100
AcDbEntity
  8
0
100
AcDbLine
 10
-60.26162338256836
 20
95.87560272216797
 30
0.0
 11
-60.125797271728516
 21
97.37496185302734
 31
0.0
  0
LINE
  5
5B
330
17
100
AcDbEntity
  8
0
100
AcDbLine
 10
-60.125797271728516
 20
97.37496185302734
 30
0.0
 11
-59.75246047973633
 21
98.8335952758789
 31
0.0
  0
LINE
  5
5C
330
17
100
AcDbEntity
  8
0
100
AcDbLine
 10
-59.75246047973633
 20
98.8335952758789
 30
0.0
 11
-59.07980728149414
 21
100.18037414550781
 31
0.0
  0
LINE
  5
5D
330
17
100
AcDbEntity
  8
0
100
AcDbLine
 10
-59.07980728149414
 20
100.18037414550781
 30
0.0
 11
-58.231163024902344
 21
101.42699432373047
 31
0.0
  0
LINE
  5
5E
330
17
100
AcDbEntity
  8
0
100
AcDbLine
 10
-58.231163024902344
 20
101.42699432373047
 30
0.0
 11
-56.262901306152344
 21
103.70906829833984
 31
0.0
  0
LINE
  5
5F
330
17
100
AcDbEntity
  8
0
100
AcDbLine
 10
-56.262901306152344
 20
103.70906829833984
 30
0.0
 11
-54.017913818359375
 21
105.71979522705078
 31
0.0
  0
LINE
  5
60
330
17
100
AcDbEntity
  8
0
100
AcDbLine
 10
-54.017913818359375
 20
105.71979522705078
 30
0.0
 11
-52.76822280883789
 21
106.5600357055664
 31
0.0
  0
LINE
  5
61
330
17
100
AcDbEntity
  8
0
100
AcDbLine
 10
-52.76822280883789
 20
106.5600357055664
 30
0.0
 11
-49.962284088134766
 21
107.6552505493164
 31
0.0
  0
LINE
  5
62
330
17
100
AcDbEntity
  8
0
100
AcDbLine
 10
-49.962284088134766
 20
107.6552505493164
 30
0.0
 11
-48.502220153808594
 21
108.0318603515625
 31
0.0
  0
LINE
  5
63
330
17
100
AcDbEntity
  8
0
100
AcDbLine
 10
-48.502220153808594
 20
108.0318603515625
 30
0.0
 11
-47.02336120605469
 21
108.32522583007812
 31
0.0
  0
LINE
  5
64
330
17
100
AcDbEntity
  8
0
100
AcDbLine
 10
-47.02336120605469
 20
108.32522583007812
 30
0.0
 11
-45.52037048339844
 21
108.43214416503906
 31
0.0
  0
LINE
  5
65
330
17
100
AcDbEntity
  8
0
100
AcDbLine
 10
-45.52037048339844
 20
108.43214416503906
 30
0.0
 11
-44.01276779174805
 21
108.399658203125
 31
0.0
  0
LINE
  5
66
330
17
100
AcDbEntity
  8
0
100
AcDbLine
 10
-44.01276779174805
 20
108.399658203125
 30
0.0
 11
-42.51716995239258
 21
108.21658325195312
 31
0.0
  0
LINE
  5
67
330
17
100
AcDbEntity
  8
0
100
AcDbLine
 10
-42.51716995239258
 20
108.21658325195312
 30
0.0
 11
-41.07183837890625
 21
107.7911376953125
 31
0.0
  0
LINE
  5
68
330
17
100
AcDbEntity
  8
0
100
AcDbLine
 10
-41.07183837890625
 20
107.7911376953125
 30
0.0
 11
-39.74826431274414
 21
107.08003997802734
 31
0.0
  0
LINE
  5
69
330
17
100
AcDbEntity
  8
0
100
AcDbLine
 10
-39.74826431274414
 20
107.08003997802734
 30
0.0
 11
-38.625118255615234
 21
106.07694244384766
 31
0.0
  0
LINE
  5
6A
330
17
100
AcDbEntity
  8
0
100
AcDbLine
 10
-38.625118255615234
 20
106.07694244384766
 30
0.0
 11
-37.60866928100586
 21
104.96351623535156
 31
0.0
  0
LINE
  5
6B
330
17
100
AcDbEntity
  8
0
100
AcDbLine
 10
-37.60866928100586
 20
104.96351623535156
 30
0.0
 11
-36.74235916137695
 21
103.73052978515625
 31
0.0
  0
LINE
  5
6C
330
17
100
AcDbEntity
  8
0
100
AcDbLine
 10
-36.74235916137695
 20
103.73052978515625
 30
0.0
 11
-35.30634689331055
 21
101.08079528808594
 31
0.0
  0
LINE
  5
6D
330
17
100
AcDbEntity
  8
0
100
AcDbLine
 10
-35.30634689331055
 20
101.08079528808594
 30
0.0
 11
-34.7984561920166
 21
99.6613998413086
 31
0.0
  0
LINE
  5
6E
330
17
100
AcDbEntity
  8
0
100
AcDbLine
 10
-34.7984561920166
 20
99.6613998413086
 30
0.0
 11
-33.55383491516113
 21
95.31124877929688
 31
0.0
  0
LINE
  5
6F
330
17
100
AcDbEntity
  8
0
100
AcDbLine
 10
-33.55383491516113
 20
95.31124877929688
 30
0.0
 11
-32.47825241088867
 21
92.49590301513672
 31
0.0
  0
LINE
  5
70
330
17
100
AcDbEntity
  8
0
100
AcDbLine
 10
-32.47825241088867
 20
92.49590301513672
 30
0.0
 11
-31.65060806274414
 21
91.24077606201172
 31
0.0
  0
LINE
  5
71
330
17
100
AcDbEntity
  8
0
100
AcDbLine
 10
-31.65060806274414
 20
91.24077606201172
 30
0.0
 11
-30.45115089416504
 21
90.34381103515625
 31
0.0
  0
LINE
  5
72
330
17
100
AcDbEntity
  8
0
100
AcDbLine
 10
-30.45115089416504
 20
90.34381103515625
 30
0.0
 11
-28.986154556274414
 21
90.05149841308594
 31
0.0
  0
LINE
  5
73
330
17
100
AcDbEntity
  8
0
100
AcDbLine
 10
-28.986154556274414
 20
90.05149841308594
 30
0.0
 11
-27.5262393951416
 21
90.39950561523438
 31
0.0
  0
LINE
  5
74
330
17
100
AcDbEntity
  8
0
100
AcDbLine
 10
-27.5262393951416
 20
90.39950561523438
 30
0.0
 11
-26.147106170654297
 21
91.00930786132812
 31
0.0
  0
LINE
  5
75
330
17
100
AcDbEntity
  8
0
100
AcDbLine
 10
-26.147106170654297
 20
91.00930786132812
 30
0.0
 11
-24.71178436279297
 21
91.46295928955078
 31
0.0
  0
LINE
  5
76
330
17
100
AcDbEntity
  8
0
100
AcDbLine
 10
-24.71178436279297
 20
91.46295928955078
 30
0.0
 11
-23.211910247802734
 21
91.55579376220703
 31
0.0
  0
LINE
  5
77
330
17
100
AcDbEntity
  8
0
100
AcDbLine
 10
-23.211910247802734
 20
91.55579376220703
 30
0.0
 11
-21.723552703857422
 21
91.32573699951172
 31
0.0
  0
LINE
  5
78
330
17
100
AcDbEntity
  8
0
100
AcDbLine
 10
-21.723552703857422
 20
91.32573699951172
 30
0.0
 11
-17.325363159179688
 21
90.26642608642578
 31
0.0
  0
LINE
  5
79
330
17
100
AcDbEntity
  8
0
100
AcDbLine
 10
-17.325363159179688
 20
90.26642608642578
 30
0.0
 11
-14.48574447631836
 21
89.25737762451172
 31
0.0
  0
LINE
  5
7A
330
17
100
AcDbEntity
  8
0
100
AcDbLine
 10
-14.48574447631836
 20
89.25737762451172
 30
0.0
 11
-12.990650177001953
 21
89.10260009765625
 31
0.0
  0
LINE
  5
7B
330
17
100
AcDbEntity
  8
0
100
AcDbLine
 10
-12.990650177001953
 20
89.10260009765625
 30
0.0
 11
-11.510136604309082
 21
89.35838317871094
 31
0.0
  0
LINE
  5
7C
330
17
100
AcDbEntity
  8
0
100
AcDbLine
 10
-11.510136604309082
 20
89.35838317871094
 30
0.0
 11
-10.18824291229248
 21
90.0621109008789
 31
0.0
  0
LINE
  5
7D
330
17
100
AcDbEntity
  8
0
100
AcDbLine
 10
-10.18824291229248
 20
90.0621109008789
 30
0.0
 11
-9.24576711654663
 21
91.22807312011719
 31
0.0
  0
LINE
  5
7E
330
17
100
AcDbEntity
  8
0
100
AcDbLine
 10
-9.24576711654663
 20
91.22807312011719
 30
0.0
 11
-8.47561502456665
 21
92.52474975585938
 31
0.0
  0
LINE
  5
7F
330
17
100
AcDbEntity
  8
0
100
AcDbLine
 10
-8.47561502456665
 20
92.52474975585938
 30
0.0
 11
-7.508879661560059
 21
93.6766586303711
 31
0.0
  0
LINE
  5
80
330
17
100
AcDbEntity
  8
0
100
AcDbLine
 10
-7.508879661560059
 20
93.6766586303711
 30
0.0
 11
-6.284389019012451
 21
94.54959869384766
 31
0.0
  0
LINE
  5
81
330
17
100
AcDbEntity
  8
0
100
AcDbLine
 10
-6.284389019012451
 20
94.54959869384766
 30
0.0
 11
-4.921523928642273
 21
95.19364166259766
 31
0.0
  0
LINE
  5
82
330
17
100
AcDbEntity
  8
0
100
AcDbLine
 10
-4.921523928642273
 20
95.19364166259766
 30
0.0
 11
-2.072390556335449
 21
96.17698669433594
 31
0.0
  0
LINE
  5
83
330
17
100
AcDbEntity
  8
0
100
AcDbLine
 10
-2.072390556335449
 20
96.17698669433594
 30
0.0
 11
-0.6055731773376465
 21
96.52730560302734
 31
0.0
  0
LINE
  5
84
330
17
100
AcDbEntity
  8
0
100
AcDbLine
 10
-0.6055731773376465
 20
96.52730560302734
 30
0.0
 11
0.8925833702087402
 21
96.67442321777344
 31
0.0
  0
LINE
  5
85
330
17
100
AcDbEntity
  8
0
100
AcDbLine
 10
0.8925833702087402
 20
96.67442321777344
 30
0.0
 11
2.3907485008239746
 21
96.51739501953125
 31
0.0
  0
LINE
  5
86
330
17
100
AcDbEntity
  8
0
100
AcDbLine
 10
2.3907485008239746
 20
96.51739501953125
 30
0.0
 11
3.8510375022888184
 21
96.14656066894531
 31
0.0
  0
LINE
  5
87
330
17
100
AcDbEntity
  8
0
100
AcDbLine
 10
3.8510375022888184
 20
96.14656066894531
 30
0.0
 11
6.68769645690918
 21
95.12612915039062
 31
0.0
  0
LINE
  5
88
330
17
100
AcDbEntity
  8
0
100
AcDbLine
 10
6.68769645690918
 20
95.12612915039062
 30
0.0
 11
11.132058143615723
 21
94.28325653076172
 31
0.0
  0
LINE
  5
89
330
17
100
AcDbEntity
  8
0
100
AcDbLine
 10
11.132058143615723
 20
94.28325653076172
 30
0.0
 11
12.627490997314453
 21
94.09711456298828
 31
0.0
  0
LINE
  5
8A
330
17
100
AcDbEntity
  8
0
100
AcDbLine
 10
12.627490997314453
 20
94.09711456298828
 30
0.0
 11
14.125818252563477
 21
94.22622680664062
 31
0.0
  0
LINE
  5
8B
330
17
100
AcDbEntity
  8
0
100
AcDbLine
 10
14.125818252563477
 20
94.22622680664062
 30
0.0
 11
15.597309112548828
 21
94.5545883178711
 31
0.0
  0
LINE
  5
8C
330
17
100
AcDbEntity
  8
0
100
AcDbLine
 10
15.597309112548828
 20
94.5545883178711
 30
0.0
 11
17.09874153137207
 21
94.65808868408203
 31
0.0
  0
LINE
  5
8D
330
17
100
AcDbEntity
  8
0
100
AcDbLine
 10
17.09874153137207
 20
94.65808868408203
 30
0.0
 11
18.576276779174805
 21
94.38101959228516
 31
0.0
  0
LINE
  5
8E
330
17
100
AcDbEntity
  8
0
100
AcDbLine
 10
18.576276779174805
 20
94.38101959228516
 30
0.0
 11
25.508054733276367
 21
91.4202651977539
 31
0.0
  0
LINE
  5
8F
330
17
100
AcDbEntity
  8
0
100
AcDbLine
 10
25.508054733276367
 20
91.4202651977539
 30
0.0
 11
26.98189926147461
 21
91.10700988769531
 31
0.0
  0
LINE
  5
90
330
17
100
AcDbEntity
  8
0
100
AcDbLine
 10
26.98189926147461
 20
91.10700988769531
 30
0.0
 11
29.97933578491211
 21
90.7691650390625
 31
0.0
  0
LINE
  5
91
330
17
100
AcDbEntity
  8
0
100
AcDbLine
 10
29.97933578491211
 20
90.7691650390625
 30
0.0
 11
31.452545166015625
 21
90.45137786865234
 31
0.0
  0
LINE
  5
92
330
17
100
AcDbEntity
  8
0
100
AcDbLine
 10
31.452545166015625
 20
90.45137786865234
 30
0.0
 11
35.709373474121094
 21
88.91854095458984
 31
0.0
  0
LINE
  5
93
330
17
100
AcDbEntity
  8
0
100
AcDbLine
 10
35.709373474121094
 20
88.91854095458984
 30
0.0
 11
37.165626525878906
 21
88.52958679199219
 31
0.0
  0
LINE
  5
94
330
17
100
AcDbEntity
  8
0
100
AcDbLine
 10
37.165626525878906
 20
88.52958679199219
 30
0.0
 11
38.65892028808594
 21
88.33816528320312
 31
0.0
  0
LINE
  5
95
330
17
100
AcDbEntity
  8
0
100
AcDbLine
 10
38.65892028808594
 20
88.33816528320312
 30
0.0
 11
40.136444091796875
 21
88.58207702636719
 31
0.0
  0
LINE
  5
96
330
17
100
AcDbEntity
  8
0
100
AcDbLine
 10
40.136444091796875
 20
88.58207702636719
 30
0.0
 11
41.48086929321289
 21
89.26000213623047
 31
0.0
  0
LINE
  5
97
330
17
100
AcDbEntity
  8
0
100
AcDbLine
 10
41.48086929321289
 20
89.26000213623047
 30
0.0
 11
43.99555969238281
 21
90.92562103271484
 31
0.0
  0
LINE
  5
98
330
17
100
AcDbEntity
  8
0
100
AcDbLine
 10
43.99555969238281
 20
90.92562103271484
 30
0.0
 11
45.328857421875
 21
91.62542724609375
 31
0.0
  0
LINE
  5
99
330
17
100
AcDbEntity
  8
0
100
AcDbLine
 10
45.328857421875
 20
91.62542724609375
 30
0.0
 11
46.75782012939453
 21
92.10513305664062
 31
0.0
  0
LINE
  5
9A
330
17
100
AcDbEntity
  8
0
100
AcDbLine
 10
46.75782012939453
 20
92.10513305664062
 30
0.0
 11
48.227535247802734
 21
92.43318176269531
 31
0.0
  0
LINE
  5
9B
330
17
100
AcDbEntity
  8
0
100
AcDbLine
 10
48.227535247802734
 20
92.43318176269531
 30
0.0
 11
49.731483459472656
 21
92.4434585571289
 31
0.0
  0
LINE
  5
9C
330
17
100
AcDbEntity
  8
0
100
AcDbLine
 10
49.731483459472656
 20
92.4434585571289
 30
0.0
 11
51.212684631347656
 21
92.1708984375
 31
0.0
  0
LINE
  5
9D
330
17
100
AcDbEntity
  8
0
100
AcDbLine
 10
51.212684631347656
 20
92.1708984375
 30
0.0
 11
52.593528747558594
 21
91.57335662841797
 31
0.0
  0
LINE
  5
9E
330
17
100
AcDbEntity
  8
0
100
AcDbLine
 10
52.593528747558594
 20
91.57335662841797
 30
0.0
 11
53.7957763671875
 21
90.66695404052734
 31
0.0
  0
LINE
  5
9F
330
17
100
AcDbEntity
  8
0
100
AcDbLine
 10
53.7957763671875
 20
90.66695404052734
 30
0.0
 11
58.007102966308594
 21
86.34825897216797
 31
0.0
  0
LINE
  5
A0
330
17
100
AcDbEntity
  8
0
100
AcDbLine
 10
58.007102966308594
 20
86.34825897216797
 30
0.0
 11
58.96910858154297
 21
85.18931579589844
 31
0.0
  0
LINE
  5
A1
330
17
100
AcDbEntity
  8
0
100
AcDbLine
 10
58.96910858154297
 20
85.18931579589844
 30
0.0
 11
59.702701568603516
 21
83.87393951416016
 31
0.0
  0
LINE
  5
A2
330
17
100
AcDbEntity
  8
0
100
AcDbLine
 10
59.702701568603516
 20
83.87393951416016
 30
0.0
 11
60.30561065673828
 21
82.49251556396484
 31
0.0
  0
LINE
  5
A3
330
17
100
AcDbEntity
  8
0
100
AcDbLine
 10
60.30561065673828
 20
82.49251556396484
 30
0.0
 11
60.65203857421875
 21
81.02863311767578
 31
0.0
  0
LINE
  5
A4
330
17
100
AcDbEntity
  8
0
100
AcDbLine
 10
60.65203857421875
 20
81.02863311767578
 30
0.0
 11
60.68927001953125
 21
79.52249145507812
 31
0.0
  0
LINE
  5
A5
330
17
100
AcDbEntity
  8
0
100
AcDbLine
 10
60.68927001953125
 20
79.52249145507812
 30
0.0
 11
60.28730010986328
 21
75.015869140625
 31
0.0
  0
LINE
  5
A6
330
17
100
AcDbEntity
  8
0
100
AcDbLine
 10
60.28730010986328
 20
75.015869140625
 30
0.0
 11
59.54267501831055
 21
70.55430603027344
 31
0.0
  0
LINE
  5
A7
330
17
100
AcDbEntity
  8
0
100
AcDbLine
 10
59.54267501831055
 20
70.55430603027344
 30
0.0
 11
59.4070930480957
 21
69.05306243896484
 31
0.0
  0
LINE
  5
A8
330
17
100
AcDbEntity
  8
0
100
AcDbLine
 10
59.4070930480957
 20
69.05306243896484
 30
0.0
 11
59.33506393432617
 21
66.0391845703125
 31
0.0
  0
LINE
  5
A9
330
17
100
AcDbEntity
  8
0
100
AcDbLine
 10
59.33506393432617
 20
66.0391845703125
 30
0.0
 11
59.059051513671875
 21
64.55736541748047
 31
0.0
  0
LINE
  5
AA
330
17
100
AcDbEntity
  8
0
100
AcDbLine
 10
59.059051513671875
 20
64.55736541748047
 30
0.0
 11
55.75507354736328
 21
52.95472717285156
 31
0.0
  0
LINE
  5
AB
330
17
100
AcDbEntity
  8
0
100
AcDbLine
 10
55.75507354736328
 20
52.95472717285156
 30
0.0
 11
55.611228942871094
 21
51.45476531982422
 31
0.0
  0
LINE
  5
AC
330
17
100
AcDbEntity
  8
0
100
AcDbLine
 10
55.611228942871094
 20
51.45476531982422
 30
0.0
 11
55.557987213134766
 21
48.43893814086914
 31
0.0
  0
LINE
  5
AD
330
17
100
AcDbEntity
  8
0
100
AcDbLine
 10
55.557987213134766
 20
48.43893814086914
 30
0.0
 11
55.388370513916016
 21
46.94116973876953
 31
0.0
  0
LINE
  5
AE
330
17
100
AcDbEntity
  8
0
100
AcDbLine
 10
55.388370513916016
 20
46.94116973876953
 30
0.0
 11
54.81391525268555
 21
43.980342864990234
 31
0.0
  0
LINE
  5
AF
330
17
100
AcDbEntity
  8
0
100
AcDbLine
 10
54.81391525268555
 20
43.980342864990234
 30
0.0
 11
54.71392059326172
 21
42.47654342651367
 31
0.0
  0
LINE
  5
B0
330
17
100
AcDbEntity
  8
0
100
AcDbLine
 10
54.71392059326172
 20
42.47654342651367
 30
0.0
 11
55.811397552490234
 21
-4.266957759857178
 31
0.0
  0
LINE
  5
B1
330
17
100
AcDbEntity
  8
0
100
AcDbLine
 10
55.811397552490234
 20
-4.266957759857178
 30
0.0
 11
55.982547760009766
 21
-7.276086807250977
 31
0.0
  0
LINE
  5
B2
330
17
100
AcDbEntity
  8
0
100
AcDbLine
 10
55.982547760009766
 20
-7.276086807250977
 30
0.0
 11
56.92509841918945
 21
-11.698370933532715
 31
0.0
  0
LINE
  5
B3
330
17
100
AcDbEntity
  8
0
100
AcDbLine
 10
56.92509841918945
 20
-11.698370933532715
 30
0.0
 11
57.20439529418945
 21
-17.72418975830078
 31
0.0
  0
LINE
  5
B4
330
17
100
AcDbEntity
  8
0
100
AcDbLine
 10
57.20439529418945
 20
-17.72418975830078
 30
0.0
 11
57.37199783325195
 21
-19.221820831298828
 31
0.0
  0
LINE
  5
B5
330
17
100
AcDbEntity
  8
0
100
AcDbLine
 10
57.37199783325195
 20
-19.221820831298828
 30
0.0
 11
58.06913757324219
 21
-22.1561279296875
 31
0.0
  0
LINE
  5
B6
330
17
100
AcDbEntity
  8
0
100
AcDbLine
 10
58.06913757324219
 20
-22.1561279296875
 30
0.0
 11
58.321903228759766
 21
-23.641992568969727
 31
0.0
  0
LINE
  5
B7
330
17
100
AcDbEntity
  8
0
100
AcDbLine
 10
58.321903228759766
 20
-23.641992568969727
 30
0.0
 11
58.49917221069336
 21
-26.65286636352539
 31
0.0
  0
LINE
  5
B8
330
17
100
AcDbEntity
  8
0
100
AcDbLine
 10
58.49917221069336
 20
-26.65286636352539
 30
0.0
 11
58.69649124145508
 21
-28.147140502929688
 31
0.0
  0
LINE
  5
B9
330
17
100
AcDbEntity
  8
0
100
AcDbLine
 10
58.69649124145508
 20
-28.147140502929688
 30
0.0
 11
59.40877151489258
 21
-31.077999114990234
 31
0.0
  0
LINE
  5
BA
330
17
100
AcDbEntity
  8
0
100
AcDbLine
 10
59.40877151489258
 20
-31.077999114990234
 30
0.0
 11
59.89339065551758
 21
-34.053314208984375
 31
0.0
  0
LINE
  5
BB
330
17
100
AcDbEntity
  8
0
100
AcDbLine
 10
59.89339065551758
 20
-34.053314208984375
 30
0.0
 11
60.778343200683594
 21
-38.486148834228516
 31
0.0
  0
LINE
  5
BC
330
17
100
AcDbEntity
  8
0
100
AcDbLine
 10
60.778343200683594
 20
-38.486148834228516
 30
0.0
 11
60.9784049987793
 21
-43.00612258911133
 31
0.0
  0
LINE
  5
BD
330
17
100
AcDbEntity
  8
0
100
AcDbLine
 10
60.9784049987793
 20
-43.00612258911133
 30
0.0
 11
61.17112350463867
 21
-44.50082015991211
 31
0.0
  0
LINE
  5
BE
330
17
100
AcDbEntity
  8
0
100
AcDbLine
 10
61.17112350463867
 20
-44.50082015991211
 30
0.0
 11
61.85635757446289
 21
-47.43824768066406
 31
0.0
  0
LINE
  5
BF
330
17
100
AcDbEntity
  8
0
100
AcDbLine
 10
61.85635757446289
 20
-47.43824768066406
 30
0.0
 11
62.533809661865234
 21
-51.90916442871094
 31
0.0
  0
LINE
  5
C0
330
17
100
AcDbEntity
  8
0
100
AcDbLine
 10
62.533809661865234
 20
-51.90916442871094
 30
0.0
 11
64.28115463256836
 21
-59.245208740234375
 31
0.0
  0
LINE
  5
C1
330
17
100
AcDbEntity
  8
0
100
AcDbLine
 10
64.28115463256836
 20
-59.245208740234375
 30
0.0
 11
64.52469253540039
 21
-60.733116149902344
 31
0.0
  0
LINE
  5
C2
330
17
100
AcDbEntity
  8
0
100
AcDbLine
 10
64.52469253540039
 20
-60.733116149902344
 30
0.0
 11
64.82014846801758
 21
-63.73491668701172
 31
0.0
  0
LINE
  5
C3
330
17
100
AcDbEntity
  8
0
100
AcDbLine
 10
64.82014846801758
 20
-63.73491668701172
 30
0.0
 11
65.07929611206055
 21
-65.22026824951172
 31
0.0
  0
LINE
  5
C4
330
17
100
AcDbEntity
  8
0
100
AcDbLine
 10
65.07929611206055
 20
-65.22026824951172
 30
0.0
 11
66.11411666870117
 21
-69.6249771118164
 31
0.0
  0
LINE
  5
C5
330
17
100
AcDbEntity
  8
0
100
AcDbLine
 10
66.11411666870117
 20
-69.6249771118164
 30
0.0
 11
67.91743087768555
 21
-75.381103515625
 31
0.0
  0
LINE
  5
C6
330
17
100
AcDbEntity
  8
0
100
AcDbLine
 10
67.91743087768555
 20
-75.381103515625
 30
0.0
 11
69.09088516235352
 21
-79.75102233886719
 31
0.0
  0
LINE
  5
C7
330
17
100
AcDbEntity
  8
0
100
AcDbLine
 10
69.09088516235352
 20
-79.75102233886719
 30
0.0
 11
69.73807144165039
 21
-82.69705200195312
 31
0.0
  0
LINE
  5
C8
330
17
100
AcDbEntity
  8
0
100
AcDbLine
 10
69.73807144165039
 20
-82.69705200195312
 30
0.0
 11
71.53024673461914
 21
-88.45600891113281
 31
0.0
  0
LINE
  5
C9
330
17
100
AcDbEntity
  8
0
100
AcDbLine
 10
71.53024673461914
 20
-88.45600891113281
 30
0.0
 11
74.69197463989258
 21
-100.09960174560547
 31
0.0
  0
LINE
  5
CA
330
17
100
AcDbEntity
  8
0
100
AcDbLine
 10
74.69197463989258
 20
-100.09960174560547
 30
0.0
 11
74.85467910766602
 21
-101.59716033935547
 31
0.0
  0
LINE
  5
CB
330
17
100
AcDbEntity
  8
0
100
AcDbLine
 10
74.85467910766602
 20
-101.59716033935547
 30
0.0
 11
74.72328567504883
 21
-103.09783935546875
 31
0.0
  0
LINE
  5
CC
330
17
100
AcDbEntity
  8
0
100
AcDbLine
 10
74.72328567504883
 20
-103.09783935546875
 30
0.0
 11
74.27243423461914
 21
-104.53508758544922
 31
0.0
  0
LINE
  5
CD
330
17
100
AcDbEntity
  8
0
100
AcDbLine
 10
74.27243423461914
 20
-104.53508758544922
 30
0.0
 11
73.55109786987305
 21
-105.8572769165039
 31
0.0
  0
LINE
  5
CE
330
17
100
AcDbEntity
  8
0
100
AcDbLine
 10
73.55109786987305
 20
-105.8572769165039
 30
0.0
 11
72.57970809936523
 21
-107.00270080566406
 31
0.0
  0
LINE
  5
CF
330
17
100
AcDbEntity
  8
0
100
AcDbLine
 10
72.57970809936523
 20
-107.00270080566406
 30
0.0
 11
71.28866958618164
 21
-107.76715850830078
 31
0.0
  0
LINE
  5
D0
330
17
100
AcDbEntity
  8
0
100
AcDbLine
 10
71.28866958618164
 20
-107.76715850830078
 30
0.0
 11
69.84722518920898
 21
-108.20698547363281
 31
0.0
  0
LINE
  5
D1
330
17
100
AcDbEntity
  8
0
100
AcDbLine
 10
69.84722518920898
 20
-108.20698547363281
 30
0.0
 11
68.35406875610352
 21
-108.40892028808594
 31
0.0
  0
LINE
  5
D2
330
17
100
AcDbEntity
  8
0
100
AcDbLine
 10
68.35406875610352
 20
-108.40892028808594
 30
0.0
 11
65.34148788452148
 21
-108.365478515625
 31
0.0
  0
LINE
  5
D3
330
17
100
AcDbEntity
  8
0
100
AcDbLine
 10
65.34148788452148
 20
-108.365478515625
 30
0.0
 11
62.374507904052734
 21
-107.82374572753906
 31
0.0
  0
LINE
  5
D4
330
17
100
AcDbEntity
  8
0
100
AcDbLine
 10
62.374507904052734
 20
-107.82374572753906
 30
0.0
 11
60.880611419677734
 21
-107.62126922607422
 31
0.0
  0
LINE
  5
D5
330
17
100
AcDbEntity
  8
0
100
AcDbLine
 10
60.880611419677734
 20
-107.62126922607422
 30
0.0
 11
57.86891555786133
 21
-107.47994995117188
 31
0.0
  0
LINE
  5
D6
330
17
100
AcDbEntity
  8
0
100
AcDbLine
 10
57.86891555786133
 20
-107.47994995117188
 30
0.0
 11
54.90519714355469
 21
-106.92215728759766
 31
0.0
  0
LINE
  5
D7
330
17
100
AcDbEntity
  8
0
100
AcDbLine
 10
54.90519714355469
 20
-106.92215728759766
 30
0.0
 11
53.4095573425293
 21
-106.73503875732422
 31
0.0
  0
LINE
  5
D8
330
17
100
AcDbEntity
  8
0
100
AcDbLine
 10
53.4095573425293
 20
-106.73503875732422
 30
0.0
 11
48.89021301269531
 21
-106.573486328125
 31
0.0
  0
LINE
  5
D9
330
17
100
AcDbEntity
  8
0
100
AcDbLine
 10
48.89021301269531
 20
-106.573486328125
 30
0.0
 11
39.99824523925781
 21
-104.89448547363281
 31
0.0
  0
LINE
  5
DA
330
17
100
AcDbEntity
  8
0
100
AcDbLine
 10
39.99824523925781
 20
-104.89448547363281
 30
0.0
 11
32.560611724853516
 21
-103.6480941772461
 31
0.0
  0
LINE
  5
DB
330
17
100
AcDbEntity
  8
0
100
AcDbLine
 10
32.560611724853516
 20
-103.6480941772461
 30
0.0
 11
31.112960815429688
 21
-103.23771667480469
 31
0.0
  0
LINE
  5
DC
330
17
100
AcDbEntity
  8
0
100
AcDbLine
 10
31.112960815429688
 20
-103.23771667480469
 30
0.0
 11
29.818347930908203
 21
-102.47635650634766
 31
0.0
  0
LINE
  5
DD
330
17
100
AcDbEntity
  8
0
100
AcDbLine
 10
29.818347930908203
 20
-102.47635650634766
 30
0.0
 11
28.736351013183594
 21
-101.43150329589844
 31
0.0
  0
LINE
  5
DE
330
17
100
AcDbEntity
  8
0
100
AcDbLine
 10
28.736351013183594
 20
-101.43150329589844
 30
0.0
 11
27.940073013305664
 21
-100.15464782714844
 31
0.0
  0
LINE
  5
DF
330
17
100
AcDbEntity
  8
0
100
AcDbLine
 10
27.940073013305664
 20
-100.15464782714844
 30
0.0
 11
27.346887588500977
 21
-98.76823425292969
 31
0.0
  0
LINE
  5
E0
330
17
100
AcDbEntity
  8
0
100
AcDbLine
 10
27.346887588500977
 20
-98.76823425292969
 30
0.0
 11
24.285913467407227
 21
-90.25265502929688
 31
0.0
  0
LINE
  5
E1
330
17
100
AcDbEntity
  8
0
100
AcDbLine
 10
24.285913467407227
 20
-90.25265502929688
 30
0.0
 11
21.954620361328125
 21
-84.6894760131836
 31
0.0
  0
LINE
  5
E2
330
17
100
AcDbEntity
  8
0
100
AcDbLine
 10
21.954620361328125
 20
-84.6894760131836
 30
0.0
 11
18.88766860961914
 21
-76.17537689208984
 31
0.0
  0
LINE
  5
E3
330
17
100
AcDbEntity
  8
0
100
AcDbLine
 10
18.88766860961914
 20
-76.17537689208984
 30
0.0
 11
15.983957290649414
 21
-69.21595764160156
 31
0.0
  0
LINE
  5
E4
330
17
100
AcDbEntity
  8
0
100
AcDbLine
 10
15.983957290649414
 20
-69.21595764160156
 30
0.0
 11
14.244306564331055
 21
-63.44139862060547
 31
0.0
  0
LINE
  5
E5
330
17
100
AcDbEntity
  8
0
100
AcDbLine
 10
14.244306564331055
 20
-63.44139862060547
 30
0.0
 11
13.733434677124023
 21
-62.022674560546875
 31
0.0
  0
LINE
  5
E6
330
17
100
AcDbEntity
  8
0
100
AcDbLine
 10
13.733434677124023
 20
-62.022674560546875
 30
0.0
 11
11.404136657714844
 21
-56.45748519897461
 31
0.0
  0
LINE
  5
E7
330
17
100
AcDbEntity
  8
0
100
AcDbLine
 10
11.404136657714844
 20
-56.45748519897461
 30
0.0
 11
9.655327796936035
 21
-50.68502426147461
 31
0.0
  0
LINE
  5
E8
330
17
100
AcDbEntity
  8
0
100
AcDbLine
 10
9.655327796936035
 20
-50.68502426147461
 30
0.0
 11
5.732845306396484
 21
-40.88633728027344
 31
0.0
  0
LINE
  5
E9
330
17
100
AcDbEntity
  8
0
100
AcDbLine
 10
5.732845306396484
 20
-40.88633728027344
 30
0.0
 11
4.848883628845215
 21
-39.678428649902344
 31
0.0
  0
LINE
  5
EA
330
17
100
AcDbEntity
  8
0
100
AcDbLine
 10
4.848883628845215
 20
-39.678428649902344
 30
0.0
 11
3.521219253540039
 21
-38.98290252685547
 31
0.0
  0
LINE
  5
EB
330
17
100
AcDbEntity
  8
0
100
AcDbLine
 10
3.521219253540039
 20
-38.98290252685547
 30
0.0
 11
2.0485849380493164
 21
-38.669002532958984
 31
0.0
  0
LINE
  5
EC
330
17
100
AcDbEntity
  8
0
100
AcDbLine
 10
2.0485849380493164
 20
-38.669002532958984
 30
0.0
 11
0.543187141418457
 21
-38.608943939208984
 31
0.0
  0
LINE
  5
ED
330
17
100
AcDbEntity
  8
0
100
AcDbLine
 10
0.543187141418457
 20
-38.608943939208984
 30
0.0
 11
-5.487028121948242
 21
-38.7630729675293
 31
0.0
  0
LINE
  5
EE
330
17
100
AcDbEntity
  8
0
100
AcDbLine
 10
-5.487028121948242
 20
-38.7630729675293
 30
0.0
 11
-6.970970869064331
 21
-39.019927978515625
 31
0.0
  0
LINE
  5
EF
330
17
100
AcDbEntity
  8
0
100
AcDbLine
 10
-6.970970869064331
 20
-39.019927978515625
 30
0.0
 11
-8.349198818206787
 21
-39.6154670715332
 31
0.0
  0
LINE
  5
F0
330
17
100
AcDbEntity
  8
0
100
AcDbLine
 10
-8.349198818206787
 20
-39.6154670715332
 30
0.0
 11
-9.44284725189209
 21
-40.64156723022461
 31
0.0
  0
LINE
  5
F1
330
17
100
AcDbEntity
  8
0
100
AcDbLine
 10
-9.44284725189209
 20
-40.64156723022461
 30
0.0
 11
-10.154608249664307
 21
-41.96562576293945
 31
0.0
  0
LINE
  5
F2
330
17
100
AcDbEntity
  8
0
100
AcDbLine
 10
-10.154608249664307
 20
-41.96562576293945
 30
0.0
 11
-12.011823654174805
 21
-47.70530700683594
 31
0.0
  0
LINE
  5
F3
330
17
100
AcDbEntity
  8
0
100
AcDbLine
 10
-12.011823654174805
 20
-47.70530700683594
 30
0.0
 11
-13.622420310974121
 21
-51.93307876586914
 31
0.0
  0
LINE
  5
F4
330
17
100
AcDbEntity
  8
0
100
AcDbLine
 10
-13.622420310974121
 20
-51.93307876586914
 30
0.0
 11
-15.491251945495605
 21
-59.235870361328125
 31
0.0
  0
LINE
  5
F5
330
17
100
AcDbEntity
  8
0
100
AcDbLine
 10
-15.491251945495605
 20
-59.235870361328125
 30
0.0
 11
-23.976266860961914
 21
-86.60810089111328
 31
0.0
  0
LINE
  5
F6
330
17
100
AcDbEntity
  8
0
100
AcDbLine
 10
-23.976266860961914
 20
-86.60810089111328
 30
0.0
 11
-26.686527252197266
 21
-93.64524841308594
 31
0.0
  0
LINE
  5
F7
330
17
100
AcDbEntity
  8
0
100
AcDbLine
 10
-26.686527252197266
 20
-93.64524841308594
 30
0.0
 11
-28.607797622680664
 21
-99.36349487304688
 31
0.0
  0
LINE
  5
F8
330
17
100
AcDbEntity
  8
0
100
AcDbLine
 10
-28.607797622680664
 20
-99.36349487304688
 30
0.0
 11
-29.258773803710938
 21
-100.72120666503906
 31
0.0
  0
LINE
  5
F9
330
17
100
AcDbEntity
  8
0
100
AcDbLine
 10
-29.258773803710938
 20
-100.72120666503906
 30
0.0
 11
-30.197866439819336
 21
-101.89640045166016
 31
0.0
  0
LINE
  5
FA
330
17
100
AcDbEntity
  8
0
100
AcDbLine
 10
-30.197866439819336
 20
-101.89640045166016
 30
0.0
 11
-31.356109619140625
 21
-102.86024475097656
 31
0.0
  0
LINE
  5
FB
330
17
100
AcDbEntity
  8
0
100
AcDbLine
 10
-31.356109619140625
 20
-102.86024475097656
 30
0.0
 11
-32.6655158996582
 21
-103.60338592529297
 31
0.0
  0
LINE
  5
FC
330
17
100
AcDbEntity
  8
0
100
AcDbLine
 10
-32.6655158996582
 20
-103.60338592529297
 30
0.0
 11
-34.08784294128418
 21
-104.0993423461914
 31
0.0
  0
LINE
  5
FD
330
17
100
AcDbEntity
  8
0
100
AcDbLine
 10
-34.08784294128418
 20
-104.0993423461914
 30
0.0
 11
-39.978179931640625
 21
-105.40214538574219
 31
0.0
  0
LINE
  5
FE
330
17
100
AcDbEntity
  8
0
100
AcDbLine
 10
-39.978179931640625
 20
-105.40214538574219
 30
0.0
 11
-41.463706970214844
 21
-105.66018676757812
 31
0.0
  0
LINE
  5
FF
330
17
100
AcDbEntity
  8
0
100
AcDbLine
 10
-41.463706970214844
 20
-105.66018676757812
 30
0.0
 11
-44.471256256103516
 21
-105.87146759033203
 31
0.0
  0
LINE
  5
100
330
17
100
AcDbEntity
  8
0
100
AcDbLine
 10
-44.471256256103516
 20
-105.87146759033203
 30
0.0
 11
-48.89771270751953
 21
-106.79776763916016
 31
0.0
  0
LINE
  5
101
330
17
100
AcDbEntity
  8
0
100
AcDbLine
 10
-48.89771270751953
 20
-106.79776763916016
 30
0.0
 11
-56.41469192504883
 21
-107.3711929321289
 31
0.0
  0
LINE
  5
102
330
17
100
AcDbEntity
  8
0
100
AcDbLine
 10
-56.41469192504883
 20
-107.3711929321289
 30
0.0
 11
-60.84357833862305
 21
-108.28339385986328
 31
0.0
  0
LINE
  5
103
330
17
100
AcDbEntity
  8
0
100
AcDbLine
 10
-60.84357833862305
 20
-108.28339385986328
 30
0.0
 11
-62.349090576171875
 21
-108.36199951171875
 31
0.0
  0
LINE
  5
104
330
17
100
AcDbEntity
  8
0
100
AcDbLine
 10
-62.349090576171875
 20
-108.36199951171875
 30
0.0
 11
-68.38058090209961
 21
-108.43214416503906
 31
0.0
  0
LINE
  5
105
330
17
100
AcDbEntity
  8
0
100
AcDbLine
 10
-68.38058090209961
 20
-108.43214416503906
 30
0.0
 11
-69.87322616577148
 21
-108.2286376953125
 31
0.0
  0
LINE
  5
106
330
17
100
AcDbEntity
  8
0
100
AcDbLine
 10
-69.87322616577148
 20
-108.2286376953125
 30
0.0
 11
-71.31677627563477
 21
-107.79914855957031
 31
0.0
  0
ENDSEC
  0
SECTION
  2
OBJECTS
  0
DICTIONARY
  5
A
330
0
100
AcDbDictionary
281
1
  3
ACAD_COLOR
350
B
  3
ACAD_GROUP
350
C
  3
ACAD_LAYOUT
350
D
  3
ACAD_MATERIAL
350
E
  3
ACAD_MLEADERSTYLE
350
F
  3
ACAD_MLINESTYLE
350
10
  3
ACAD_PLOTSETTINGS
350
11
  3
ACAD_PLOTSTYLENAME
350
12
  3
ACAD_SCALELIST
350
14
  3
ACAD_TABLESTYLE
350
15
  3
ACAD_VISUALSTYLE
350
16
  3
EZDXF_META
350
2D
  0
DICTIONARY
  5
B
330
A
100
AcDbDictionary
281
1
  0
DICTIONARY
  5
C
330
A
100
AcDbDictionary
281
1
  0
DICTIONARY
  5
D
330
A
100
AcDbDictionary
281
1
  3
Model
350
1A
  3
Layout1
350
1E
  0
DICTIONARY
  5
E
330
A
100
AcDbDictionary
281
1
  3
ByBlock
350
1F
  3
ByLayer
350
20
  3
Global
350
21
  0
DICTIONARY
  5
F
330
A
100
AcDbDictionary
281
1
  3
Standard
350
2C
  0
DICTIONARY
  5
10
330
A
100
AcDbDictionary
281
1
  3
Standard
350
22
  0
DICTIONARY
  5
11
330
A
100
AcDbDictionary
281
1
  0
ACDBDICTIONARYWDFLT
  5
12
330
A
100
AcDbDictionary
281
1
  3
Normal
350
13
100
AcDbDictionaryWithDefault
340
13
  0
ACDBPLACEHOLDER
  5
13
330
12
  0
DICTIONARY
  5
14
330
A
100
AcDbDictionary
281
1
  0
DICTIONARY
  5
15
330
A
100
AcDbDictionary
281
1
  0
DICTIONARY
  5
16
330
A
100
AcDbDictionary
281
1
  0
LAYOUT
  5
1A
330
D
100
AcDbPlotSettings
  1

  4
A3
  6

 40
7.5
 41
20.0
 42
7.5
 43
20.0
 44
420.0
 45
297.0
 46
0.0
 47
0.0
 48
0.0
 49
0.0
140
0.0
141
0.0
142
1.0
143
1.0
 70
1024
 72
1
 73
0
 74
5
  7

 75
16
 76
0
 77
2
 78
300
147
1.0
148
0.0
149
0.0
100
AcDbLayout
  1
Model
 70
1
 71
0
 10
0.0
 20
0.0
 11
420.0
 21
297.0
 12
0.0
 22
0.0
 32
0.0
 14
1e+20
 24
1e+20
 34
1e+20
 15
-1e+20
 25
-1e+20
 35
-1e+20
146
0.0
 13
0.0
 23
0.0
 33
0.0
 16
1.0
 26
0.0
 36
0.0
 17
0.0
 27
1.0
 37
0.0
 76
1
330
17
  0
LAYOUT
  5
1E
330
D
100
AcDbPlotSettings
  1

  4
A3
  6

 40
7.5
 41
20.0
 42
7.5
 43
20.0
 44
420.0
 45
297.0
 46
0.0
 47
0.0
 48
0.0
 49
0.0
140
0.0
141
0.0
142
1.0
143
1.0
 70
0
 72
1
 73
0
 74
5
  7

 75
16
 76
0
 77
2
 78
300
147
1.0
148
0.0
149
0.0
100
AcDbLayout
  1
Layout1
 70
1
 71
1
 10
0.0
 20
0.0
 11
420.0
 21
297.0
 12
0.0
 22
0.0
 32
0.0
 14
1e+20
 24
1e+20
 34
1e+20
 15
-1e+20
 25
-1e+20
 35
-1e+20
146
0.0
 13
0.0
 23
0.0
 33
0.0
 16
1.0
 26
0.0
 36
0.0
 17
0.0
 27
1.0
 37
0.0
 76
1
330
1B
  0
MATERIAL
  5
1F
102
{ACAD_REACTORS
330
E
102
}
330
E
100
AcDbMaterial
  1
ByBlock
  2

 70
0
 40
1.0
 71
1
 41
1.0
 91
-1023410177
 42
1.0
 72
1
  3

 73
1
 74
1
 75
1
 44
0.5
 73
0
 45
1.0
 46
1.0
 77
1
  4

 78
1
 79
1
170
1
 48
1.0
171
1
  6

172
1
173
1
174
1
140
1.0
141
1.0
175
1
  7

176
1
177
1
178
1
143
1.0
179
1
  8

270
1
271
1
272
1
145
1.0
146
1.0
273
1
  9

274
1
275
1
276
1
 42
1.0
 72
1
  3

 73
1
 74
1
 75
1
 94
63
  0
MATERIAL
  5
20
102
{ACAD_REACTORS
330
E
102
}
330
E
100
AcDbMaterial
  1
ByLayer
  2

 70
0
 40
1.0
 71
1
 41
1.0
 91
-1023410177
 42
1.0
 72
1
  3

 73
1
 74
1
 75
1
 44
0.5
 73
0
 45
1.0
 46
1.0
 77
1
  4

 78
1
 79
1
170
1
 48
1.0
171
1
  6

172
1
173
1
174
1
140
1.0
141
1.0
175
1
  7

176
1
177
1
178
1
143
1.0
179
1
  8

270
1
271
1
272
1
145
1.0
146
1.0
273
1
  9

274
1
275
1
276
1
 42
1.0
 72
1
  3

 73
1
 74
1
 75
1
 94
63
  0
MATERIAL
  5
21
102
{ACAD_REACTORS
330
E
102
}
330
E
100
AcDbMaterial
  1
Global
  2

 70
0
 40
1.0
 71
1
 41
1.0
 91
-1023410177
 42
1.0
 72
1
  3

 73
1
 74
1
 75
1
 44
0.5
 73
0
 45
1.0
 46
1.0
 77
1
  4

 78
1
 79
1
170
1
 48
1.0
171
1
  6

172
1
173
1
174
1
140
1.0
141
1.0
175
1
  7

176
1
177
1
178
1
143
1.0
179
1
  8

270
1
271
1
272
1
145
1.0
146
1.0
273
1
  9

274
1
275
1
276
1
 42
1.0
 72
1
  3

 73
1
 74
1
 75
1
 94
63
  0
MLINESTYLE
  5
22
102
{ACAD_REACTORS
330
10
102
}
330
10
100
AcDbMlineStyle
  2
Standard
 70
0
  3

 62
256
 51
90.0
 52
90.0
 71
2
 49
0.5
 62
256
  6
BYLAYER
 49
-0.5
 62
256
  6
BYLAYER
  0
MLEADERSTYLE
  5
2C
102
{ACAD_REACTORS
330
F
102
}
330
F
100
AcDbMLeaderStyle
179
2
170
2
171
1
172
0
 90
2
 40
0.0
 41
0.0
173
1
 91
-1056964608
 92
-2
290
1
 42
2.0
291
1
 43
8.0
  3
Standard
 44
4.0
300

342
29
174
1
175
1
176
0
178
1
 93
-1056964608
 45
4.0
292
0
297
0
 46
4.0
 94
-1056964608
 47
1.0
 49
1.0
140
1.0
294
1
141
0.0
177
0
142
1.0
295
0
296
0
143
3.75
271
0
272
9
273
9
  0
DICTIONARY
  5
2D
330
A
100
AcDbDictionary
280
1
281
1
  3
CREATED_BY_EZDXF
350
2E
  3
WRITTEN_BY_EZDXF
350
10A
  0
DICTIONARYVAR
  5
2E
330
2D
100
DictionaryVariables
280
0
  1
1.4.4 @ 2026-09-06T19:04:12.723536+00:00
  0
DICTIONARYVAR
  5
10A
330
2D
100
DictionaryVariables
280
0
  1
1.4.4 @ 2026-09-06T19:04:12.740684+00:00
  0
ENDSEC
  0
EOF
