0
SECTION
2
HEADER
9
$INSUNITS
70
4
9
$ACADVER
1
AC1014
9
$HANDSEED
5
FFFF
0
ENDSEC
0
SECTION
2
TABLES
0
TABLE
2
VPORT
5
8
100
AcDbSymbolTable
0
ENDTAB
0
TABLE
2
LTYPE
5
5
100
AcDbSymbolTable
0
LTYPE
5
14
100
AcDbSymbolTableRecord
100
AcDbLinetypeTableRecord
2
BYBLOCK
70
0
0
LTYPE
5
15
100
AcDbSymbolTableRecord
100
AcDbLinetypeTableRecord
2
BYLAYER
70
0
0
LTYPE
5
16
100
AcDbSymbolTableRecord
100
AcDbLinetypeTableRecord
2
DASHED
70
0
3
Dashed __ __ __ __ __ __ __ __ __ __ __ __ __ _
72
65
73
2
40
0.75
49
0.5
74
0
49
-0.25
74
0
0
ENDTAB
0
TABLE
2
LAYER
5
2
100
AcDbSymbolTable
70
2
0
LAYER
5
50
100
AcDbSymbolTableRecord
100
AcDbLayerTableRecord
2
0
70
0
62
7
6
CONTINUOUS
0
ENDTAB
0
TABLE
2
STYLE
5
3
100
AcDbSymbolTable
70
1
0
STYLE
5
11
100
AcDbSymbolTableRecord
100
AcDbTextStyleTableRecord
2
STANDARD
70
0
0
ENDTAB
0
TABLE
2
VIEW
5
6
100
AcDbSymbolTable
70
0
0
ENDTAB
0
TABLE
2
UCS
5
7
100
AcDbSymbolTable
70
0
0
ENDTAB
0
TABLE
2
APPID
5
9
100
AcDbSymbolTable
70
2
0
APPID
5
12
100
AcDbSymbolTableRecord
100
AcDbRegAppTableRecord
2
ACAD
70
0
0
ENDTAB
0
TABLE
2
DIMSTYLE
5
A
100
AcDbSymbolTable
70
1
0
ENDTAB
0
TABLE
2
BLOCK_RECORD
5
1
100
AcDbSymbolTable
70
1
0
BLOCK_RECORD
5
1F
100
AcDbSymbolTableRecord
100
AcDbBlockTableRecord
2
*MODEL_SPACE
0
BLOCK_RECORD
5
1B
100
AcDbSymbolTableRecord
100
AcDbBlockTableRecord
2
*PAPER_SPACE
0
ENDTAB
0
ENDSEC
0
SECTION
2
BLOCKS
0
BLOCK
5
20
100
AcDbEntity
100
AcDbBlockBegin
2
*MODEL_SPACE
0
ENDBLK
5
21
100
AcDbEntity
100
AcDbBlockEnd
0
BLOCK
5
1C
100
AcDbEntity
100
AcDbBlockBegin
2
*PAPER_SPACE
0
ENDBLK
5
1D
100
AcDbEntity
100
AcDbBlockEnd
0
ENDSEC
0
SECTION
2
ENTITIES
0
SPLINE
5
100
100
AcDbEntity
8
0
100
AcDbSpline
70
6
71
5
72
681
73
675
74
0
42
0.000000001
43
0.0000000001
44
0.0000000001
40
0
40
0
40
0
40
0
40
0
40
0
40
0.0014925373134328358
40
0.0029850746268656717
40
0.0044776119402985077
40
0.0059701492537313433
40
0.007462686567164179
40
0.0089552238805970154
40
0.010447761194029851
40
0.011940298507462687
40
0.013432835820895522
40
0.014925373134328358
40
0.016417910447761194
40
0.017910447761194031
40
0.019402985074626868
40
0.020895522388059706
40
0.022388059701492543
40
0.02388059701492538
40
0.025373134328358218
40
0.026865671641791055
40
0.028358208955223892
40
0.02985074626865673
40
0.031343283582089564
40
0.032835820895522401
40
0.034328358208955238
40
0.035820895522388076
40
0.037313432835820913
40
0.03880597014925375
40
0.040298507462686588
40
0.041791044776119425
40
0.043283582089552262
40
0.0447761194029851
40
0.046268656716417937
40
0.047761194029850775
40
0.049253731343283612
40
0.050746268656716449
40
0.052238805970149287
40
0.053731343283582124
40
0.055223880597014961
40
0.056716417910447799
40
0.058208955223880636
40
0.059701492537313473
40
0.061194029850746311
40
0.062686567164179141
40
0.064179104477611978
40
0.065671641791044816
40
0.067164179104477653
40
0.068656716417910491
40
0.070149253731343328
40
0.071641791044776165
40
0.073134328358209003
40
0.07462686567164184
40
0.076119402985074677
40
0.077611940298507515
40
0.079104477611940352
40
0.080597014925373189
40
0.082089552238806027
40
0.083582089552238864
40
0.085074626865671701
40
0.086567164179104539
40
0.088059701492537376
40
0.089552238805970213
40
0.091044776119403051
40
0.092537313432835888
40
0.094029850746268726
40
0.095522388059701563
40
0.0970149253731344
40
0.098507462686567238
40
0.10000000000000007
40
0.10149253731343291
40
0.10298507462686575
40
0.10447761194029859
40
0.10597014925373142
40
0.10746268656716426
40
0.1089552238805971
40
0.11044776119402994
40
0.11194029850746277
40
0.11343283582089561
40
0.11492537313432845
40
0.11641791044776129
40
0.11791044776119412
40
0.11940298507462696
40
0.1208955223880598
40
0.12238805970149264
40
0.12388059701492547
40
0.12537313432835831
40
0.12686567164179113
40
0.12835820895522396
40
0.12985074626865678
40
0.1313432835820896
40
0.13283582089552243
40
0.13432835820895525
40
0.13582089552238807
40
0.1373134328358209
40
0.13880597014925372
40
0.14029850746268654
40
0.14179104477611937
40
0.14328358208955219
40
0.14477611940298502
40
0.14626865671641784
40
0.14776119402985066
40
0.14925373134328349
40
0.15074626865671631
40
0.15223880597014913
40
0.15373134328358196
40
0.15522388059701478
40
0.1567164179104476
40
0.15820895522388043
40
0.15970149253731325
40
0.16119402985074607
40
0.1626865671641789
40
0.16417910447761172
40
0.16567164179104454
40
0.16716417910447737
40
0.16865671641791019
40
0.17014925373134301
40
0.17164179104477584
40
0.17313432835820866
40
0.17462686567164148
40
0.17611940298507431
40
0.17761194029850713
40
0.17910447761193996
40
0.18059701492537278
40
0.1820895522388056
40
0.18358208955223843
40
0.18507462686567125
40
0.18656716417910407
40
0.1880597014925369
40
0.18955223880596972
40
0.19104477611940254
40
0.19253731343283537
40
0.19402985074626819
40
0.19552238805970101
40
0.19701492537313384
40
0.19850746268656666
40
0.19999999999999948
40
0.20149253731343231
40
0.20298507462686513
40
0.20447761194029795
40
0.20597014925373078
40
0.2074626865671636
40
0.20895522388059642
40
0.21044776119402925
40
0.21194029850746207
40
0.2134328358208949
40
0.21492537313432772
40
0.21641791044776054
40
0.21791044776119337
40
0.21940298507462619
40
0.22089552238805901
40
0.22238805970149184
40
0.22388059701492466
40
0.22537313432835748
40
0.22686567164179031
40
0.22835820895522313
40
0.22985074626865595
40
0.23134328358208878
40
0.2328358208955216
40
0.23432835820895442
40
0.23582089552238725
40
0.23731343283582007
40
0.23880597014925289
40
0.24029850746268572
40
0.24179104477611854
40
0.24328358208955136
40
0.24477611940298419
40
0.24626865671641701
40
0.24776119402984983
40
0.24925373134328266
40
0.25074626865671551
40
0.25223880597014836
40
0.25373134328358121
40
0.25522388059701406
40
0.25671641791044691
40
0.25820895522387977
40
0.25970149253731262
40
0.26119402985074547
40
0.26268656716417832
40
0.26417910447761117
40
0.26567164179104402
40
0.26716417910447687
40
0.26865671641790972
40
0.27014925373134258
40
0.27164179104477543
40
0.27313432835820828
40
0.27462686567164113
40
0.27611940298507398
40
0.27761194029850683
40
0.27910447761193968
40
0.28059701492537253
40
0.28208955223880539
40
0.28358208955223824
40
0.28507462686567109
40
0.28656716417910394
40
0.28805970149253679
40
0.28955223880596964
40
0.29104477611940249
40
0.29253731343283534
40
0.2940298507462682
40
0.29552238805970105
40
0.2970149253731339
40
0.29850746268656675
40
0.2999999999999996
40
0.30149253731343245
40
0.3029850746268653
40
0.30447761194029815
40
0.30597014925373101
40
0.30746268656716386
40
0.30895522388059671
40
0.31044776119402956
40
0.31194029850746241
40
0.31343283582089526
40
0.31492537313432811
40
0.31641791044776096
40
0.31791044776119382
40
0.31940298507462667
40
0.32089552238805952
40
0.32238805970149237
40
0.32388059701492522
40
0.32537313432835807
40
0.32686567164179092
40
0.32835820895522377
40
0.32985074626865662
40
0.33134328358208948
40
0.33283582089552233
40
0.33432835820895518
40
0.33582089552238803
40
0.33731343283582088
40
0.33880597014925373
40
0.34029850746268658
40
0.34179104477611943
40
0.34328358208955229
40
0.34477611940298514
40
0.34626865671641799
40
0.34776119402985084
40
0.34925373134328369
40
0.35074626865671654
40
0.35223880597014939
40
0.35373134328358224
40
0.3552238805970151
40
0.35671641791044795
40
0.3582089552238808
40
0.35970149253731365
40
0.3611940298507465
40
0.36268656716417935
40
0.3641791044776122
40
0.36567164179104505
40
0.36716417910447791
40
0.36865671641791076
40
0.37014925373134361
40
0.37164179104477646
40
0.37313432835820931
40
0.37462686567164216
40
0.37611940298507501
40
0.37761194029850786
40
0.37910447761194072
40
0.38059701492537357
40
0.38208955223880642
40
0.38358208955223927
40
0.38507462686567212
40
0.38656716417910497
40
0.38805970149253782
40
0.38955223880597067
40
0.39104477611940353
40
0.39253731343283638
40
0.39402985074626923
40
0.39552238805970208
40
0.39701492537313493
40
0.39850746268656778
40
0.40000000000000063
40
0.40149253731343348
40
0.40298507462686634
40
0.40447761194029919
40
0.40597014925373204
40
0.40746268656716489
40
0.40895522388059774
40
0.41044776119403059
40
0.41194029850746344
40
0.41343283582089629
40
0.41492537313432915
40
0.416417910447762
40
0.41791044776119485
40
0.4194029850746277
40
0.42089552238806055
40
0.4223880597014934
40
0.42388059701492625
40
0.4253731343283591
40
0.42686567164179195
40
0.42835820895522481
40
0.42985074626865766
40
0.43134328358209051
40
0.43283582089552336
40
0.43432835820895621
40
0.43582089552238906
40
0.43731343283582191
40
0.43880597014925476
40
0.44029850746268762
40
0.44179104477612047
40
0.44328358208955332
40
0.44477611940298617
40
0.44626865671641902
40
0.44776119402985187
40
0.44925373134328472
40
0.45074626865671757
40
0.45223880597015043
40
0.45373134328358328
40
0.45522388059701613
40
0.45671641791044898
40
0.45820895522388183
40
0.45970149253731468
40
0.46119402985074753
40
0.46268656716418038
40
0.46417910447761324
40
0.46567164179104609
40
0.46716417910447894
40
0.46865671641791179
40
0.47014925373134464
40
0.47164179104477749
40
0.47313432835821034
40
0.47462686567164319
40
0.47611940298507605
40
0.4776119402985089
40
0.47910447761194175
40
0.4805970149253746
40
0.48208955223880745
40
0.4835820895522403
40
0.48507462686567315
40
0.486567164179106
40
0.48805970149253886
40
0.48955223880597171
40
0.49104477611940456
40
0.49253731343283741
40
0.49402985074627026
40
0.49552238805970311
40
0.49701492537313596
40
0.49850746268656881
40
0.50000000000000167
40
0.50149253731343446
40
0.50298507462686726
40
0.50447761194030005
40
0.50597014925373285
40
0.50746268656716564
40
0.50895522388059844
40
0.51044776119403124
40
0.51194029850746403
40
0.51343283582089683
40
0.51492537313432962
40
0.51641791044776242
40
0.51791044776119521
40
0.51940298507462801
40
0.52089552238806081
40
0.5223880597014936
40
0.5238805970149264
40
0.52537313432835919
40
0.52686567164179199
40
0.52835820895522478
40
0.52985074626865758
40
0.53134328358209038
40
0.53283582089552317
40
0.53432835820895597
40
0.53582089552238876
40
0.53731343283582156
40
0.53880597014925435
40
0.54029850746268715
40
0.54179104477611995
40
0.54328358208955274
40
0.54477611940298554
40
0.54626865671641833
40
0.54776119402985113
40
0.54925373134328392
40
0.55074626865671672
40
0.55223880597014952
40
0.55373134328358231
40
0.55522388059701511
40
0.5567164179104479
40
0.5582089552238807
40
0.55970149253731349
40
0.56119402985074629
40
0.56268656716417909
40
0.56417910447761188
40
0.56567164179104468
40
0.56716417910447747
40
0.56865671641791027
40
0.57014925373134306
40
0.57164179104477586
40
0.57313432835820866
40
0.57462686567164145
40
0.57611940298507425
40
0.57761194029850704
40
0.57910447761193984
40
0.58059701492537263
40
0.58208955223880543
40
0.58358208955223823
40
0.58507462686567102
40
0.58656716417910382
40
0.58805970149253661
40
0.58955223880596941
40
0.5910447761194022
40
0.592537313432835
40
0.5940298507462678
40
0.59552238805970059
40
0.59701492537313339
40
0.59850746268656618
40
0.59999999999999898
40
0.60149253731343177
40
0.60298507462686457
40
0.60447761194029737
40
0.60597014925373016
40
0.60746268656716296
40
0.60895522388059575
40
0.61044776119402855
40
0.61194029850746134
40
0.61343283582089414
40
0.61492537313432694
40
0.61641791044775973
40
0.61791044776119253
40
0.61940298507462532
40
0.62089552238805812
40
0.62238805970149091
40
0.62388059701492371
40
0.62537313432835651
40
0.6268656716417893
40
0.6283582089552221
40
0.62985074626865489
40
0.63134328358208769
40
0.63283582089552048
40
0.63432835820895328
40
0.63582089552238608
40
0.63731343283581887
40
0.63880597014925167
40
0.64029850746268446
40
0.64179104477611726
40
0.64328358208955005
40
0.64477611940298285
40
0.64626865671641565
40
0.64776119402984844
40
0.64925373134328124
40
0.65074626865671403
40
0.65223880597014683
40
0.65373134328357962
40
0.65522388059701242
40
0.65671641791044522
40
0.65820895522387801
40
0.65970149253731081
40
0.6611940298507436
40
0.6626865671641764
40
0.66417910447760919
40
0.66567164179104199
40
0.66716417910447479
40
0.66865671641790758
40
0.67014925373134038
40
0.67164179104477317
40
0.67313432835820597
40
0.67462686567163876
40
0.67611940298507156
40
0.67761194029850436
40
0.67910447761193715
40
0.68059701492536995
40
0.68208955223880274
40
0.68358208955223554
40
0.68507462686566833
40
0.68656716417910113
40
0.68805970149253393
40
0.68955223880596672
40
0.69104477611939952
40
0.69253731343283231
40
0.69402985074626511
40
0.6955223880596979
40
0.6970149253731307
40
0.6985074626865635
40
0.69999999999999629
40
0.70149253731342909
40
0.70298507462686188
40
0.70447761194029468
40
0.70597014925372747
40
0.70746268656716027
40
0.70895522388059307
40
0.71044776119402586
40
0.71194029850745866
40
0.71343283582089145
40
0.71492537313432425
40
0.71641791044775704
40
0.71791044776118984
40
0.71940298507462264
40
0.72089552238805543
40
0.72238805970148823
40
0.72388059701492102
40
0.72537313432835382
40
0.72686567164178661
40
0.72835820895521941
40
0.72985074626865221
40
0.731343283582085
40
0.7328358208955178
40
0.73432835820895059
40
0.73582089552238339
40
0.73731343283581618
40
0.73880597014924898
40
0.74029850746268178
40
0.74179104477611457
40
0.74328358208954737
40
0.74477611940298016
40
0.74626865671641296
40
0.74776119402984575
40
0.74925373134327855
40
0.75074626865671135
40
0.75223880597014414
40
0.75373134328357694
40
0.75522388059700973
40
0.75671641791044253
40
0.75820895522387532
40
0.75970149253730812
40
0.76119402985074092
40
0.76268656716417371
40
0.76417910447760651
40
0.7656716417910393
40
0.7671641791044721
40
0.76865671641790489
40
0.77014925373133769
40
0.77164179104477049
40
0.77313432835820328
40
0.77462686567163608
40
0.77611940298506887
40
0.77761194029850167
40
0.77910447761193447
40
0.78059701492536726
40
0.78208955223880006
40
0.78358208955223285
40
0.78507462686566565
40
0.78656716417909844
40
0.78805970149253124
40
0.78955223880596404
40
0.79104477611939683
40
0.79253731343282963
40
0.79402985074626242
40
0.79552238805969522
40
0.79701492537312801
40
0.79850746268656081
40
0.79999999999999361
40
0.8014925373134264
40
0.8029850746268592
40
0.80447761194029199
40
0.80597014925372479
40
0.80746268656715758
40
0.80895522388059038
40
0.81044776119402318
40
0.81194029850745597
40
0.81343283582088877
40
0.81492537313432156
40
0.81641791044775436
40
0.81791044776118715
40
0.81940298507461995
40
0.82089552238805275
40
0.82238805970148554
40
0.82388059701491834
40
0.82537313432835113
40
0.82686567164178393
40
0.82835820895521672
40
0.82985074626864952
40
0.83134328358208232
40
0.83283582089551511
40
0.83432835820894791
40
0.8358208955223807
40
0.8373134328358135
40
0.83880597014924629
40
0.84029850746267909
40
0.84179104477611189
40
0.84328358208954468
40
0.84477611940297748
40
0.84626865671641027
40
0.84776119402984307
40
0.84925373134327586
40
0.85074626865670866
40
0.85223880597014146
40
0.85373134328357425
40
0.85522388059700705
40
0.85671641791043984
40
0.85820895522387264
40
0.85970149253730543
40
0.86119402985073823
40
0.86268656716417103
40
0.86417910447760382
40
0.86567164179103662
40
0.86716417910446941
40
0.86865671641790221
40
0.870149253731335
40
0.8716417910447678
40
0.8731343283582006
40
0.87462686567163339
40
0.87611940298506619
40
0.87761194029849898
40
0.87910447761193178
40
0.88059701492536457
40
0.88208955223879737
40
0.88358208955223017
40
0.88507462686566296
40
0.88656716417909576
40
0.88805970149252855
40
0.88955223880596135
40
0.89104477611939414
40
0.89253731343282694
40
0.89402985074625974
40
0.89552238805969253
40
0.89701492537312533
40
0.89850746268655812
40
0.89999999999999092
40
0.90149253731342371
40
0.90298507462685651
40
0.90447761194028931
40
0.9059701492537221
40
0.9074626865671549
40
0.90895522388058769
40
0.91044776119402049
40
0.91194029850745328
40
0.91343283582088608
40
0.91492537313431888
40
0.91641791044775167
40
0.91791044776118447
40
0.91940298507461726
40
0.92089552238805006
40
0.92238805970148285
40
0.92388059701491565
40
0.92537313432834845
40
0.92686567164178124
40
0.92835820895521404
40
0.92985074626864683
40
0.93134328358207963
40
0.93283582089551242
40
0.93432835820894522
40
0.93582089552237802
40
0.93731343283581081
40
0.93880597014924361
40
0.9402985074626764
40
0.9417910447761092
40
0.94328358208954199
40
0.94477611940297479
40
0.94626865671640759
40
0.94776119402984038
40
0.94925373134327318
40
0.95074626865670597
40
0.95223880597013877
40
0.95373134328357156
40
0.95522388059700436
40
0.95671641791043716
40
0.95820895522386995
40
0.95970149253730275
40
0.96119402985073554
40
0.96268656716416834
40
0.96417910447760113
40
0.96567164179103393
40
0.96716417910446673
40
0.96865671641789952
40
0.97014925373133232
40
0.97164179104476511
40
0.97313432835819791
40
0.9746268656716307
40
0.9761194029850635
40
0.9776119402984963
40
0.97910447761192909
40
0.98059701492536189
40
0.98208955223879468
40
0.98358208955222748
40
0.98507462686566027
40
0.98656716417909307
40
0.98805970149252587
40
0.98955223880595866
40
0.99104477611939146
40
0.99253731343282425
40
0.99402985074625705
40
0.99552238805968984
40
0.99701492537312264
40
0.99850746268655544
40
1
40
1
40
1
40
1
40
1
40
1
41
1
41
1
41
1
41
1
41
1
41
1
41
1
41
1
41
1
41
1
41
1
41
1
41
1
41
1
41
1
41
1
41
1
41
1
41
1
41
1
41
1
41
1
41
1
41
1
41
1
41
1
41
1
41
1
41
1
41
1
41
1
41
1
41
1
41
1
41
1
41
1
41
1
41
1
41
1
41
1
41
1
41
1
41
1
41
1
41
1
41
1
41
1
41
1
41
1
41
1
41
1
41
1
41
1
41
1
41
1
41
1
41
1
41
1
41
1
41
1
41
1
41
1
41
1
41
1
41
1
41
1
41
1
41
1
41
1
41
1
41
1
41
1
41
1
41
1
41
1
41
1
41
1
41
1
41
1
41
1
41
1
41
1
41
1
41
1
41
1
41
1
41
1
41
1
41
1
41
1
41
1
41
1
41
1
41
1
41
1
41
1
41
1
41
1
41
1
41
1
41
1
41
1
41
1
41
1
41
1
41
1
41
1
41
1
41
1
41
1
41
1
41
1
41
1
41
1
41
1
41
1
41
1
41
1
41
1
41
1
41
1
41
1
41
1
41
1
41
1
41
1
41
1
41
1
41
1
41
1
41
1
41
1
41
1
41
1
41
1
41
1
41
1
41
1
41
1
41
1
41
1
41
1
41
1
41
1
41
1
41
1
41
1
41
1
41
1
41
1
41
1
41
1
41
1
41
1
41
1
41
1
41
1
41
1
41
1
41
1
41
1
41
1
41
1
41
1
41
1
41
1
41
1
41
1
41
1
41
1
41
1
41
1
41
1
41
1
41
1
41
1
41
1
41
1
41
1
41
1
41
1
41
1
41
1
41
1
41
1
41
1
41
1
41
1
41
1
41
1
41
1
41
1
41
1
41
1
41
1
41
1
41
1
41
1
41
1
41
1
41
1
41
1
41
1
41
1
41
1
41
1
41
1
41
1
41
1
41
1
41
1
41
1
41
1
41
1
41
1
41
1
41
1
41
1
41
1
41
1
41
1
41
1
41
1
41
1
41
1
41
1
41
1
41
1
41
1
41
1
41
1
41
1
41
1
41
1
41
1
41
1
41
1
41
1
41
1
41
1
41
1
41
1
41
1
41
1
41
1
41
1
41
1
41
1
41
1
41
1
41
1
41
1
41
1
41
1
41
1
41
1
41
1
41
1
41
1
41
1
41
1
41
1
41
1
41
1
41
1
41
1
41
1
41
1
41
1
41
1
41
1
41
1
41
1
41
1
41
1
41
1
41
1
41
1
41
1
41
1
41
1
41
1
41
1
41
1
41
1
41
1
41
1
41
1
41
1
41
1
41
1
41
1
41
1
41
1
41
1
41
1
41
1
41
1
41
1
41
1
41
1
41
1
41
1
41
1
41
1
41
1
41
1
41
1
41
1
41
1
41
1
41
1
41
1
41
1
41
1
41
1
41
1
41
1
41
1
41
1
41
1
41
1
41
1
41
1
41
1
41
1
41
1
41
1
41
1
41
1
41
1
41
1
41
1
41
1
41
1
41
1
41
1
41
1
41
1
41
1
41
1
41
1
41
1
41
1
41
1
41
1
41
1
41
1
41
1
41
1
41
1
41
1
41
1
41
1
41
1
41
1
41
1
41
1
41
1
41
1
41
1
41
1
41
1
41
1
41
1
41
1
41
1
41
1
41
1
41
1
41
1
41
1
41
1
41
1
41
1
41
1
41
1
41
1
41
1
41
1
41
1
41
1
41
1
41
1
41
1
41
1
41
1
41
1
41
1
41
1
41
1
41
1
41
1
41
1
41
1
41
1
41
1
41
1
41
1
41
1
41
1
41
1
41
1
41
1
41
1
41
1
41
1
41
1
41
1
41
1
41
1
41
1
41
1
41
1
41
1
41
1
41
1
41
1
41
1
41
1
41
1
41
1
41
1
41
1
41
1
41
1
41
1
41
1
41
1
41
1
41
1
41
1
41
1
41
1
41
1
41
1
41
1
41
1
41
1
41
1
41
1
41
1
41
1
41
1
41
1
41
1
41
1
41
1
41
1
41
1
41
1
41
1
41
1
41
1
41
1
41
1
41
1
41
1
41
1
41
1
41
1
41
1
41
1
41
1
41
1
41
1
41
1
41
1
41
1
41
1
41
1
41
1
41
1
41
1
41
1
41
1
41
1
41
1
41
1
41
1
41
1
41
1
41
1
41
1
41
1
41
1
41
1
41
1
41
1
41
1
41
1
41
1
41
1
41
1
41
1
41
1
41
1
41
1
41
1
41
1
41
1
41
1
41
1
41
1
41
1
41
1
41
1
41
1
41
1
41
1
41
1
41
1
41
1
41
1
41
1
41
1
41
1
41
1
41
1
41
1
41
1
41
1
41
1
41
1
41
1
41
1
41
1
41
1
41
1
41
1
41
1
41
1
41
1
41
1
41
1
41
1
41
1
41
1
41
1
41
1
41
1
41
1
41
1
41
1
41
1
41
1
41
1
41
1
41
1
41
1
41
1
41
1
41
1
41
1
41
1
41
1
41
1
41
1
41
1
41
1
41
1
41
1
41
1
41
1
41
1
41
1
41
1
41
1
41
1
41
1
41
1
41
1
41
1
41
1
41
1
41
1
41
1
41
1
41
1
41
1
41
1
41
1
41
1
41
1
41
1
41
1
41
1
41
1
41
1
41
1
41
1
41
1
41
1
41
1
41
1
41
1
41
1
41
1
41
1
41
1
41
1
41
1
41
1
41
1
41
1
41
1
41
1
41
1
41
1
41
1
41
1
41
1
41
1
41
1
41
1
41
1
41
1
41
1
41
1
41
1
41
1
41
1
41
1
41
1
41
1
41
1
41
1
41
1
41
1
41
1
41
1
41
1
41
1
41
1
41
1
41
1
41
1
41
1
41
1
41
1
41
1
41
1
41
1
41
1
41
1
41
1
41
1
41
1
41
1
41
1
41
1
41
1
41
1
41
1
41
1
41
1
41
1
41
1
41
1
41
1
41
1
41
1
41
1
41
1
41
1
41
1
41
1
41
1
41
1
41
1
41
1
41
1
41
1
41
1
41
1
10
20.648499999999999
20
-124.3304
30
0
10
20.539498742964881
20
-124.34885342310075
30
0
10
20.320538318607895
20
-124.37999454767478
30
0
10
19.989858952016945
20
-124.40930485718324
30
0
10
19.546938527331459
20
-124.41320100323793
30
0
10
18.995967917905897
20
-124.35878935486446
30
0
10
18.45396921537802
20
-124.24482936283525
30
0
10
17.927613679071339
20
-124.07178388894306
30
0
10
17.423060877721603
20
-123.84184821226256
30
0
10
16.945204927839267
20
-123.56041242563296
30
0
10
16.496943819377755
20
-123.23567982078092
30
0
10
16.079115852285987
20
-122.87589434394602
30
0
10
15.689583836953613
20
-122.48634498968076
30
0
10
15.325334996138597
20
-122.06964541290824
30
0
10
14.985832823338798
20
-121.628184543518
30
0
10
14.677336682598552
20
-121.16653627546205
30
0
10
14.407502549307923
20
-120.68948069964976
30
0
10
14.177284037633182
20
-120.19852508264925
30
0
10
13.973757391529398
20
-119.68918814527126
30
0
10
13.780818581658462
20
-119.1587533177605
30
0
10
13.592326835270756
20
-118.61708577843223
30
0
10
13.41965554750956
20
-118.08974172747965
30
0
10
13.276660620826092
20
-117.59346873475383
30
0
10
13.163995203276428
20
-117.1072382035351
30
0
10
13.064098974520439
20
-116.56853610001839
30
0
10
12.955873526262366
20
-115.91213287205358
30
0
10
12.827404212229261
20
-115.10690996442462
30
0
10
12.679513673595306
20
-114.1634603421125
30
0
10
12.519900210277001
20
-113.11408199276185
30
0
10
12.359981773837257
20
-112.00047111617026
30
0
10
12.210890425143619
20
-110.85934815328828
30
0
10
12.079145967929559
20
-109.70614154059768
30
0
10
11.966466907167968
20
-108.53603156799714
30
0
10
11.871378362028896
20
-107.33233400221766
30
0
10
11.790209876278439
20
-106.07235064359075
30
0
10
11.718384158509803
20
-104.73454162813354
30
0
10
11.651497216312377
20
-103.30451711129628
30
0
10
11.586693979407954
20
-101.78304438885704
30
0
10
11.523142186281778
20
-100.18751084747998
30
0
10
11.461464626360105
20
-98.545714167234379
30
0
10
11.403439325884719
20
-96.891645959221805
30
0
10
11.351588693549118
20
-95.26041700857192
30
0
10
11.308821245945865
20
-93.683660869613419
30
0
10
11.278039012592277
20
-92.184474137501041
30
0
10
11.261787093228662
20
-90.77315831202813
30
0
10
11.261816862686283
20
-89.441116183757302
30
0
10
11.278976535065279
20
-88.161920454297089
30
0
10
11.313361629156095
20
-86.898080631826076
30
0
10
11.364391153738095
20
-85.606217113539586
30
0
10
11.430914059460145
20
-84.242803385742377
30
0
10
11.511303282626317
20
-82.769863800872145
30
0
10
11.603553782685294
20
-81.160223929240942
30
0
10
11.705382277841217
20
-79.404147442487528
30
0
10
11.814306609773666
20
-77.508526290539933
30
0
10
11.927716076506133
20
-75.493058247657601
30
0
10
12.042944691865374
20
-73.387402839498577
30
0
10
12.157343314896869
20
-71.227924731821588
30
0
10
12.268352048876437
20
-69.054625702446288
30
0
10
12.373573025235856
20
-66.907968997724566
30
0
10
12.470841862886918
20
-64.825811625869676
30
0
10
12.558302400045314
20
-62.840147008486426
30
0
10
12.634473698781507
20
-60.974264540079034
30
0
10
12.698336334521157
20
-59.238883698104644
30
0
10
12.749333029319757
20
-57.632824631289111
30
0
10
12.787319846557033
20
-56.146274213780664
30
0
10
12.812532963432625
20
-54.763269318718926
30
0
10
12.825548080001512
20
-53.464475888935191
30
0
10
12.827245110050328
20
-52.229906165877168
30
0
10
12.818765669672359
20
-51.041510961116785
30
0
10
12.801485541968461
20
-49.886190007726974
30
0
10
12.776943427381626
20
-48.757487084492645
30
0
10
12.746610427956842
20
-47.652595440125573
30
0
10
12.711692479116168
20
-46.570191806204626
30
0
10
12.672904937883764
20
-45.507804439478143
30
0
10
12.630293354313896
20
-44.459703598177157
30
0
10
12.582947822626696
20
-43.413750793875124
30
0
10
12.529190678870334
20
-42.352729777183022
30
0
10
12.467021575154217
20
-41.258099205132638
30
0
10
12.394484848888423
20
-40.11301438699477
30
0
10
12.31006513411838
20
-38.905616092713572
30
0
10
12.21308019377477
20
-37.632289253958511
30
0
10
12.104048688714323
20
-36.300697225058933
30
0
10
11.984352153811514
20
-34.926445133810809
30
0
10
11.855924390812065
20
-33.529988655368996
30
0
10
11.720933147624255
20
-32.133478736467204
30
0
10
11.581459094335019
20
-30.75756860997749
30
0
10
11.439189862465673
20
-29.418387898532259
30
0
10
11.295074297250132
20
-28.124083312104524
30
0
10
11.14909505366456
20
-26.872644422049419
30
0
10
11.000553000254779
20
-25.655280881533034
30
0
10
10.848278942058094
20
-24.459013699493653
30
0
10
10.690873034334556
20
-23.26956117222327
30
0
10
10.52693384859213
20
-22.074125906982989
30
0
10
10.355288460714277
20
-20.864161501099922
30
0
10
10.175231329149758
20
-19.638319222487539
30
0
10
9.9865389795074719
20
-18.40097668131861
30
0
10
9.7894762360873706
20
-17.160525464502896
30
0
10
9.5847981756717111
20
-15.927751702902782
30
0
10
9.3737705569576484
20
-14.714166437536802
30
0
10
9.1581433854321084
20
-13.530383183380694
30
0
10
8.9402438843720375
20
-12.384409517597943
30
0
10
8.7224696409586358
20
-11.280351574609051
30
0
10
8.5065341942191335
20
-10.217318138085609
30
0
10
8.2927775136845554
20
-9.1882169535812217
30
0
10
8.0794817671580414
20
-8.1786928815946016
30
0
10
7.8621083946926396
20
-7.1657756748526928
30
0
10
7.6327888282266541
20
-6.1173121056993462
30
0
10
7.3823589632047906
20
-4.998985196605382
30
0
10
7.1022087830188863
20
-3.7808011668761758
30
0
10
6.7861675907771604
20
-2.4436439329525661
30
0
10
6.4324534633312611
20
-0.98610860528262334
30
0
10
6.0454088239485664
20
0.56950717120958694
30
0
10
5.637820522262567
20
2.1689394084393592
30
0
10
5.2281635251081511
20
3.7374195176192537
30
0
10
4.8369852509431066
20
5.1945063505273206
30
0
10
4.4835855852185444
20
6.467698816861275
30
0
10
4.1825833713564391
20
7.5066530669027216
30
0
10
3.9405065202273413
20
8.2969285944660882
30
0
10
3.7524301799715785
20
8.8744281511292868
30
0
10
3.5984563631750528
20
9.3384193538365796
30
0
10
3.4485594974749851
20
9.7974892574389667
30
0
10
3.2666140256244729
20
10.306934860885624
30
0
10
3.0166437708669545
20
10.830206543924053
30
0
10
2.6736498474064914
20
11.29598961468094
30
0
10
2.2380801258198355
20
11.652416146891856
30
0
10
1.7360922593977481
20
11.891079355451277
30
0
10
1.2003501591934354
20
12.017320704920644
30
0
10
0.64986409452901506
20
12.025582995798951
30
0
10
0.093178389909028991
20
11.905310324933145
30
0
10
-0.4547028598476619
20
11.666855261054753
30
0
10
-0.95456245847932664
20
11.369432011072252
30
0
10
-1.3687667664840624
20
11.076929435942176
30
0
10
-1.6984993154551016
20
10.79489993702682
30
0
10
-2.0141126226436112
20
10.419015605481583
30
0
10
-2.4041406831607817
20
9.8200540115139727
30
0
10
-2.9191287723194854
20
8.9379153238131952
30
0
10
-3.5343776772555775
20
7.8428130116580359
30
0
10
-4.1848209317639338
20
6.6709697562371915
30
0
10
-4.7876187820943263
20
5.5819827473457
30
0
10
-5.2714099524061107
20
4.703864541048933
30
0
10
-5.5984904783671388
20
4.0921402155430622
30
0
10
-5.8006618883835728
20
3.660816976898698
30
0
10
-5.9586512127113558
20
3.2302238453972896
30
0
10
-6.1532035631827036
20
2.6327570289487685
30
0
10
-6.4184348230425359
20
1.815781426401565
30
0
10
-6.7471453968688069
20
0.822908547577345
30
0
10
-7.1090298328301973
20
-0.25421333685972619
30
0
10
-7.4643376936049854
20
-1.313785863355533
30
0
10
-7.7793276109393341
20
-2.2857060635200543
30
0
10
-8.0412945281433661
20
-3.1727963785821016
30
0
10
-8.2534736283195169
20
-4.0267573043224001
30
0
10
-8.429291930951301
20
-4.9219945128813682
30
0
10
-8.5869755703373869
20
-5.9309163272822207
30
0
10
-8.743760903715998
20
-7.0970649497371321
30
0
10
-8.9109926197855636
20
-8.4136832256231848
30
0
10
-9.0952775040534775
20
-9.8402237666099719
30
0
10
-9.299031777714891
20
-11.315139583369564
30
0
10
-9.5212616164954404
20
-12.769901175860801
30
0
10
-9.7582428889414778
20
-14.142947385571203
30
0
10
-10.004247810755114
20
-15.392605176355081
30
0
10
-10.252242564697189
20
-16.513010440022992
30
0
10
-10.494627135348102
20
-17.540504116695462
30
0
10
-10.724086272477509
20
-18.534279416419054
30
0
10
-10.934397157279935
20
-19.562179610175441
30
0
10
-11.121303168966506
20
-20.683755780083501
30
0
10
-11.283246403201485
20
-21.936108597202374
30
0
10
-11.422448789107962
20
-23.314422272207032
30
0
10
-11.544259083438732
20
-24.777410657663729
30
0
10
-11.655751440723366
20
-26.263407191450497
30
0
10
-11.764555125338944
20
-27.703150501390308
30
0
10
-11.877606845790433
20
-29.033730156683681
30
0
10
-11.999892849099725
20
-30.212530121406648
30
0
10
-12.133297604155185
20
-31.230007651365792
30
0
10
-12.275136778866178
20
-32.126051141314676
30
0
10
-12.419396378591621
20
-32.975480623618679
30
0
10
-12.558450592552193
20
-33.868084420161395
30
0
10
-12.684613912436136
20
-34.890546776124928
30
0
10
-12.791759821928609
20
-36.107617846050161
30
0
10
-12.87691949954916
20
-37.543505278319699
30
0
10
-12.939717463864531
20
-39.189365704949331
30
0
10
-12.98179084649642
20
-41.010990382670812
30
0
10
-13.006215828931879
20
-42.956405273082297
30
0
10
-13.016929394984476
20
-44.963528563159954
30
0
10
-13.018156952205498
20
-46.967753943051108
30
0
10
-13.013828519508078
20
-48.909680378950149
30
0
10
-13.007020598374993
20
-50.742511921222246
30
0
10
-12.999337366730106
20
-52.440237533209995
30
0
10
-12.990465498917276
20
-54.003578842396216
30
0
10
-12.978731013833977
20
-55.453058801665271
30
0
10
-12.96153635267774
20
-56.823607905365627
30
0
10
-12.935846567337181
20
-58.158543795186176
30
0
10
-12.898648126299028
20
-59.50389211961734
30
0
10
-12.847434502677213
20
-60.902388160066977
30
0
10
-12.780644986341908
20
-62.388021147968814
30
0
10
-12.698214919547805
20
-63.979295479997646
30
0
10
-12.601459556862647
20
-65.68015424478304
30
0
10
-12.492760233621656
20
-67.48317551307079
30
0
10
-12.375316359106279
20
-69.372011464627349
30
0
10
-12.252870666473598
20
-71.324136170927588
30
0
10
-12.129444145567128
20
-73.313479182181823
30
0
10
-12.009071010720529
20
-75.313065432913348
30
0
10
-11.895523900924916
20
-77.29775178881745
30
0
10
-11.792066080931159
20
-79.246689697970311
30
0
10
-11.701135703890017
20
-81.146479561923556
30
0
10
-11.624279836247677
20
-82.991780218077395
30
0
10
-11.56234665834778
20
-84.783286651121173
30
0
10
-11.515608633612015
20
-86.526412557822113
30
0
10
-11.483913174436127
20
-88.229689601268504
30
0
10
-11.466823084276017
20
-89.903277953623032
30
0
10
-11.463757779153942
20
-91.557452382853214
30
0
10
-11.474142573669464
20
-93.201044480305654
30
0
10
-11.497534798107342
20
-94.840031254921371
30
0
10
-11.533809822641556
20
-96.475737606372093
30
0
10
-11.583066082091865
20
-98.104851783632967
30
0
10
-11.645384497043166
20
-99.720367844707624
30
0
10
-11.720636208826873
20
-101.31224166298844
30
0
10
-11.808264089963323
20
-102.86815826704326
30
0
10
-11.907089727206897
20
-104.37426868140926
30
0
10
-12.015076374396763
20
-105.81589968159555
30
0
10
-12.129188470052144
20
-107.17836952645264
30
0
10
-12.245009576892656
20
-108.44751557425111
30
0
10
-12.357749229827292
20
-109.61188283612985
30
0
10
-12.463662783476188
20
-110.66536960495641
30
0
10
-12.56138646073242
20
-111.60985112206012
30
0
10
-12.65319087707323
20
-112.45752270270692
30
0
10
-12.74654820313266
20
-113.23405363001775
30
0
10
-12.854721161347364
20
-113.97930147570966
30
0
10
-12.990937766696625
20
-114.73206945392468
30
0
10
-13.163693961715222
20
-115.51770286789123
30
0
10
-13.37082318154568
20
-116.33253146741268
30
0
10
-13.596507212889758
20
-117.13588205386814
30
0
10
-13.821916990060544
20
-117.87703300485657
30
0
10
-14.033015698022348
20
-118.51502812261116
30
0
10
-14.231451244080802
20
-119.04607191470069
30
0
10
-14.438266637279924
20
-119.51349287802982
30
0
10
-14.678084935601071
20
-119.97023705829527
30
0
10
-14.962803148955476
20
-120.44040363114627
30
0
10
-15.287104271418473
20
-120.90862595868417
30
0
10
-15.640795718683995
20
-121.34905139699684
30
0
10
-16.019131145384357
20
-121.74986749282661
30
0
10
-16.424130103063078
20
-122.1153078306871
30
0
10
-16.85900727533252
20
-122.45099657748234
30
0
10
-17.324254778353552
20
-122.75266388202276
30
0
10
-17.817442015948782
20
-123.00917505730497
30
0
10
-18.334396283557201
20
-123.21009581550905
30
0
10
-18.869859984353209
20
-123.35143314488512
30
0
10
-19.417776772586215
20
-123.43298260308318
30
0
10
-19.971460229136213
20
-123.45509389778123
30
0
10
-20.523890591261647
20
-123.4166959478973
30
0
10
-21.068233069242559
20
-123.31728704585689
30
0
10
-21.598430201025653
20
-123.15888468015044
30
0
10
-22.109442161940542
20
-122.94630711986736
30
0
10
-22.596983104285894
20
-122.68500462831003
30
0
10
-23.057329627836882
20
-122.37888714917403
30
0
10
-23.487317146485939
20
-122.03070851923849
30
0
10
-23.884511022311735
20
-121.64404857468534
30
0
10
-24.247316688511734
20
-121.22532244728697
30
0
10
-24.575190969704202
20
-120.78168783215595
30
0
10
-24.868904127574663
20
-120.31775689654475
30
0
10
-25.130707679759428
20
-119.8329399013062
30
0
10
-25.36265018230268
20
-119.32627745797345
30
0
10
-25.564403667122267
20
-118.80266536586292
30
0
10
-25.732467767522444
20
-118.27526925714977
30
0
10
-25.863996291023046
20
-117.75405920385396
30
0
10
-25.961096261604144
20
-117.23415216356663
30
0
10
-26.031529703742223
20
-116.69090216125021
30
0
10
-26.083777103158567
20
-116.08760229424425
30
0
10
-26.122501284601313
20
-115.38000618377055
30
0
10
-26.147670619086565
20
-114.5228175969922
30
0
10
-26.156879359901648
20
-113.47601228545514
30
0
10
-26.146742008482448
20
-112.21157233105727
30
0
10
-26.114560702205715
20
-110.71939825560264
30
0
10
-26.0601580568472
20
-109.01522930629062
30
0
10
-25.985867589620408
20
-107.13732655949273
30
0
10
-25.895839596613289
20
-105.13934421806019
30
0
10
-25.795575465379823
20
-103.08444613380937
30
0
10
-25.691368267143325
20
-101.03893154026176
30
0
10
-25.589779322971502
20
-99.066004242641398
30
0
10
-25.49710922168088
20
-97.219636230345387
30
0
10
-25.418848149999622
20
-95.538027571882168
30
0
10
-25.3591890358584
20
-94.038087969589981
30
0
10
-25.320380875966304
20
-92.707389905221888
30
0
10
-25.302656365491586
20
-91.505165067140723
30
0
10
-25.304819945937943
20
-90.373711575951049
30
0
10
-25.324660224036659
20
-89.24700374403848
30
0
10
-25.359441161480266
20
-88.06061883482576
30
0
10
-25.406342734278429
20
-86.760689006547835
30
0
10
-25.46296359051642
20
-85.314257792739426
30
0
10
-25.527673359944995
20
-83.716006857282906
30
0
10
-25.599408492402233
20
-81.981351173843478
30
0
10
-25.677551986187744
20
-80.141592547314673
30
0
10
-25.761780807401781
20
-78.238285423598782
30
0
10
-25.851926028937857
20
-76.317900628073772
30
0
10
-25.947829946929421
20
-74.426449088960268
30
0
10
-26.049198818076569
20
-72.603918296176573
30
0
10
-26.15547074000526
20
-70.879266610273419
30
0
10
-26.265644714154774
20
-69.26401473848027
30
0
10
-26.378238402027993
20
-67.750472178727733
30
0
10
-26.491463777222766
20
-66.317806284918888
30
0
10
-26.603353013609308
20
-64.936320398956923
30
0
10
-26.711904477123042
20
-63.572455403162863
30
0
10
-26.81521991243001
20
-62.193474460213672
30
0
10
-26.911645904497131
20
-60.772301347792791
30
0
10
-26.999912354341319
20
-59.292251821742227
30
0
10
-27.079275408498091
20
-57.751923807024355
30
0
10
-27.149427166462164
20
-56.161793621181616
30
0
10
-27.210401628734267
20
-54.54067959490483
30
0
10
-27.262481946748558
20
-52.912249446215668
30
0
10
-27.306107309145695
20
-51.301520440269918
30
0
10
-27.341779564116571
20
-49.731336754722626
30
0
10
-27.369970941412674
20
-48.218916988427893
30
0
10
-27.391028959764256
20
-46.77222795203599
30
0
10
-27.405089244494285
20
-45.386842737415947
30
0
10
-27.412094792561859
20
-44.049233205675186
30
0
10
-27.411808377881876
20
-42.739673107636442
30
0
10
-27.403827993244111
20
-41.435264955991158
30
0
10
-27.387600001065859
20
-40.112967954530319
30
0
10
-27.36243558837025
20
-38.752500715242476
30
0
10
-27.327520221860379
20
-37.33959740678381
30
0
10
-27.281943407847038
20
-35.868184620654631
30
0
10
-27.224801686742293
20
-34.338665072866128
30
0
10
-27.155289359261996
20
-32.756822112450678
30
0
10
-27.072795336989358
20
-31.132478569407979
30
0
10
-26.976994389621389
20
-29.478265548637346
30
0
10
-26.867947750876127
20
-27.808332068735851
30
0
10
-26.746183506421279
20
-26.137107974812992
30
0
10
-26.612824916267854
20
-24.477976682397443
30
0
10
-26.469568232499757
20
-22.842208641485232
30
0
10
-26.31833007084397
20
-21.238448483877804
30
0
10
-26.160964453577616
20
-19.672096252128092
30
0
10
-25.998947874420878
20
-18.144715649195756
30
0
10
-25.833087620146031
20
-16.653465355211324
30
0
10
-25.663197801238059
20
-15.190439934950298
30
0
10
-25.487841275326659
20
-13.742237334067767
30
0
10
-25.303915982194134
20
-12.288969536829315
30
0
10
-25.106765505762834
20
-10.805163462876489
30
0
10
-24.891036040660612
20
-9.263355867757026
30
0
10
-24.651354768390682
20
-7.6370450885921093
30
0
10
-24.383075174805619
20
-5.9038804270172811
30
0
10
-24.083005824240683
20
-4.0488013864334196
30
0
10
-23.750118239434155
20
-2.0670792167540579
30
0
10
-23.386328953008405
20
0.032321924481566899
30
0
10
-22.997097197391323
20
2.2241704850473338
30
0
10
-22.592483311883335
20
4.462430449214108
30
0
10
-22.186323435657492
20
6.6837458937863614
30
0
10
-21.794056882610128
20
8.81666229659991
30
0
10
-21.430937928020462
20
10.789211573349519
30
0
10
-21.110113305244568
20
12.537067543088806
30
0
10
-20.840701720107006
20
14.011695971748106
30
0
10
-20.626001284107858
20
15.187952520919072
30
0
10
-20.46134226523921
20
16.07320812174742
30
0
10
-20.332795544820566
20
16.712790562584484
30
0
10
-20.213706146381409
20
17.204785332442356
30
0
10
-20.073393431847563
20
17.662596160971059
30
0
10
-19.889513077936332
20
18.162005180946178
30
0
10
-19.660063780346743
20
18.689163518521077
30
0
10
-19.395724219324638
20
19.191353800738739
30
0
10
-19.109597207122199
20
19.642947535003405
30
0
10
-18.810218227010946
20
20.089224330912199
30
0
10
-18.507933892515013
20
20.584982417993501
30
0
10
-18.223430018478012
20
21.12371045419469
30
0
10
-17.986135120937803
20
21.624212914662607
30
0
10
-17.814550227623286
20
22.029594062339321
30
0
10
-17.693745754846951
20
22.412389736594044
30
0
10
-17.57753956857109
20
22.971578922976377
30
0
10
-17.414111909204365
20
23.922803000610028
30
0
10
-17.168732644098409
20
25.402999081593581
30
0
10
-16.827893262231839
20
27.453363504351785
30
0
10
-16.393654613470446
20
30.044368055193882
30
0
10
-15.881295424185398
20
33.086553955790762
30
0
10
-15.315578698181902
20
36.447283852103347
30
0
10
-14.727610326736711
20
39.964938522079485
30
0
10
-14.151446168032839
20
43.464204157840463
30
0
10
-13.62079988094229
20
46.770910346455921
30
0
10
-13.165725054508437
20
49.72701374122471
30
0
10
-12.809267329709504
20
52.205630002553491
30
0
10
-12.564224668391281
20
54.125787953529567
30
0
10
-12.429639073468262
20
55.467902786112617
30
0
10
-12.387929646183036
20
56.287527698180412
30
0
10
-12.400279817879946
20
56.733643304278445
30
0
10
-12.429072984527105
20
57.008757280453601
30
0
10
-12.465574892464065
20
57.323183661613015
30
0
10
-12.549931857501832
20
57.851785389471459
30
0
10
-12.735276095731331
20
58.709428757344511
30
0
10
-13.050962479574826
20
59.918567636386435
30
0
10
-13.480251763328289
20
61.398523274113103
30
0
10
-13.979528169256401
20
63.008453219151257
30
0
10
-14.489640096969339
20
64.580758561046537
30
0
10
-14.949943670840494
20
65.956947376330078
30
0
10
-15.312179401650447
20
67.025501365120022
30
0
10
-15.552119179160613
20
67.75176894731176
30
0
10
-15.687800213295001
20
68.228672618516157
30
0
10
-15.774616123276479
20
68.655897532489305
30
0
10
-15.874406493802319
20
69.240333745492222
30
0
10
-16.025725813922989
20
70.097910536300191
30
0
10
-16.238036182467894
20
71.23861110431082
30
0
10
-16.502244774349887
20
72.607196837740105
30
0
10
-16.795971202323308
20
74.105887606194685
30
0
10
-17.091197542712891
20
75.625489614184318
30
0
10
-17.360453842409378
20
77.0707066721545
30
0
10
-17.584710521819421
20
78.393292991865565
30
0
10
-17.756786541830099
20
79.603233197482794
30
0
10
-17.877683408665984
20
80.744656732176395
30
0
10
-17.954541166153561
20
81.87993940219846
30
0
10
-17.997920486152431
20
83.070237099010896
30
0
10
-18.019423731240767
20
84.358179674450753
30
0
10
-18.029049195691947
20
85.748123739293987
30
0
10
-18.033014682862451
20
87.191880050888358
30
0
10
-18.034563945260288
20
88.61167883002571
30
0
10
-18.034485288395235
20
89.919574271821361
30
0
10
-18.031728830648561
20
91.037895542674164
30
0
10
-18.024007765108149
20
91.919978189375428
30
0
10
-18.008345268496665
20
92.569068520653786
30
0
10
-17.981810831968161
20
93.062589171113871
30
0
10
-17.93999368391432
20
93.517604856723281
30
0
10
-17.875042542865817
20
94.047489863101518
30
0
10
-17.774181622114661
20
94.724404621372173
30
0
10
-17.623938131041125
20
95.585359771186361
30
0
10
-17.413937303335512
20
96.63624051714396
30
0
10
-17.141102297184354
20
97.856458129557325
30
0
10
-16.812996668075293
20
99.203668330494594
30
0
10
-16.444161985259502
20
100.62192613926358
30
0
10
-16.05303314991605
20
102.04955793927024
30
0
10
-15.658685266329442
20
103.42701358638253
30
0
10
-15.277534360201727
20
104.70502408106668
30
0
10
-14.920331709513771
20
105.8519369594614
30
0
10
-14.588373082224193
20
106.86306834086226
30
0
10
-14.27211680620333
20
107.76395613598446
30
0
10
-13.956686391812919
20
108.59616615427903
30
0
10
-13.626396701163364
20
109.40563548757405
30
0
10
-13.269157671017942
20
110.23116667978718
30
0
10
-12.882150754425833
20
111.09008802859211
30
0
10
-12.472608386538937
20
111.97502118283032
30
0
10
-12.051694077315132
20
112.86649386445843
30
0
10
-11.629720814906577
20
113.74227094920582
30
0
10
-11.211567177298061
20
114.58676086934146
30
0
10
-10.790187499837147
20
115.4034766940368
30
0
10
-10.348807920555153
20
116.21282836035995
30
0
10
-9.8694378348190952
20
117.03906278504745
30
0
10
-9.3400164376968071
20
117.89971706956982
30
0
10
-8.7610588084781647
20
118.79550191066718
30
0
10
-8.1552183224891532
20
119.69627377471653
30
0
10
-7.5594624652136293
20
120.55096103655484
30
0
10
-7.0110574712525207
20
121.30609714650157
30
0
10
-6.5350868665208743
20
121.92214586241502
30
0
10
-6.1324551922739374
20
122.3893489945481
30
0
10
-5.7646668492310802
20
122.74752972760638
30
0
10
-5.378333253527174
20
123.05650876207085
30
0
10
-4.9365391124700766
20
123.35796971530009
30
0
10
-4.444164908039884
20
123.64485939604833
30
0
10
-3.9252737007813927
20
123.88950753525037
30
0
10
-3.3998176317995958
20
124.07300484359523
30
0
10
-2.8693141341716863
20
124.20235443258123
30
0
10
-2.3292682098938426
20
124.29236842055069
30
0
10
-1.7790207559322515
20
124.35008171661438
30
0
10
-1.2248930740487618
20
124.37113604130147
30
0
10
-0.67332528483106013
20
124.35204817723471
30
0
10
-0.12508639283296774
20
124.30189663182051
30
0
10
0.42323165559736808
20
124.23704877939663
30
0
10
0.9733812208181245
20
124.16680096556072
30
0
10
1.5201337271310991
20
124.07944559275819
30
0
10
2.0546535709083553
20
123.95225125547925
30
0
10
2.5699665979832997
20
123.7664902993271
30
0
10
3.0651162636708951
20
123.52003520040272
30
0
10
3.5408434586157984
20
123.22181702162254
30
0
10
3.994048259667911
20
122.8870086335055
30
0
10
4.4163279316437141
20
122.53117650021701
30
0
10
4.8031344893914039
20
122.16397063379318
30
0
10
5.164133535041957
20
121.78055249056891
30
0
10
5.5235255209996739
20
121.36143659375291
30
0
10
5.9072179443776971
20
120.88280293299186
30
0
10
6.3312785394977569
20
120.32528867451629
30
0
10
6.7990405627536612
20
119.67862633298691
30
0
10
7.3045874636840633
20
118.94320248306164
30
0
10
7.8343354788441921
20
118.13190417984549
30
0
10
8.3691010185774903
20
117.27355715560782
30
0
10
8.8875145413384082
20
116.40685013062266
30
0
10
9.3702944002450863
20
115.56976546867409
30
0
10
9.8044330925291536
20
114.78999927892988
30
0
10
10.186969454701167
20
114.07595025063492
30
0
10
10.53012027097955
20
113.40489831207478
30
0
10
10.85545340164526
20
112.73492076286418
30
0
10
11.185582109490973
20
112.02222107034531
30
0
10
11.537135982533886
20
111.23566695022066
30
0
10
11.912124470878114
20
110.3748423271451
30
0
10
12.301495239081309
20
109.46143279536287
30
0
10
12.690432705821859
20
108.52679853346019
30
0
10
13.063034310279686
20
107.60092388391298
30
0
10
13.40728122720985
20
106.70068578550212
30
0
10
13.719792498176528
20
105.81869250475337
30
0
10
14.003427556135762
20
104.93282842945302
30
0
10
14.264938342913329
20
104.01575135916809
30
0
10
14.512659836315112
20
103.04402739254252
30
0
10
14.754054785960244
20
102.00829860702618
30
0
10
14.99370664632603
20
100.92037569417194
30
0
10
15.233676098392708
20
99.803765674592341
30
0
10
15.473574309926818
20
98.686490837556079
30
0
10
15.710716717163368
20
97.592592889588175
30
0
10
15.940309557980791
20
96.535176406445999
30
0
10
16.155454954421568
20
95.506346670324334
30
0
10
16.347971698260938
20
94.479251244388081
30
0
10
16.509821311061476
20
93.418855769446779
30
0
10
16.634353457379969
20
92.290149877843305
30
0
10
16.717632179834261
20
91.067447533070762
30
0
10
16.75971261133158
20
89.74313397391245
30
0
10
16.765980357591769
20
88.336884476216383
30
0
10
16.745282101496166
20
86.88681944561489
30
0
10
16.707997147398451
20
85.440360697865486
30
0
10
16.664147387669402
20
84.045268985350532
30
0
10
16.62145312143296
20
82.740439709665196
30
0
10
16.583500073921563
20
81.547186015313315
30
0
10
16.54764855631781
20
80.45939647805298
30
0
10
16.503674416060829
20
79.436881679566483
30
0
10
16.437669210412125
20
78.421534231088529
30
0
10
16.335297546301064
20
77.350754564995427
30
0
10
16.185501109504003
20
76.172683442655511
30
0
10
15.983555744733371
20
74.858935688417262
30
0
10
15.735540054661993
20
73.422700092830723
30
0
10
15.457471933194897
20
71.916630187290721
30
0
10
15.170021441236614
20
70.413938549226657
30
0
10
14.894399907222446
20
68.994019751729581
30
0
10
14.64792980480305
20
67.726698258683513
30
0
10
14.439374768838963
20
66.655951901745794
30
0
10
14.265255698019992
20
65.786471156377914
30
0
10
14.103477900839685
20
65.062309366004285
30
0
10
13.92106445868783
20
64.386972104719334
30
0
10
13.688777805803159
20
63.66325899517588
30
0
10
13.392073619436399
20
62.823331800559103
30
0
10
13.047145043979153
20
61.871250769639595
30
0
10
12.692999445611923
20
60.868685581856639
30
0
10
12.375695081724373
20
59.901932325856862
30
0
10
12.134715631076611
20
59.054475513206491
30
0
10
11.989418361526827
20
58.378508532319842
30
0
10
11.922856116698417
20
57.863539816577266
30
0
10
11.90197554536083
20
57.448142347399916
30
0
10
11.903648604994375
20
57.036356853812258
30
0
10
11.935474265185293
20
56.513971951460306
30
0
10
12.018207709380492
20
55.776454205809671
30
0
10
12.168513118166249
20
54.759972886133127
30
0
10
12.387089704873924
20
53.459811102298346
30
0
10
12.664414912911583
20
51.912514361717761
30
0
10
12.983152301681443
20
50.184785349769676
30
0
10
13.321908800255702
20
48.35961160563312
30
0
10
13.658360358422012
20
46.52379264233295
30
0
10
13.972777752913592
20
44.75435937231321
30
0
10
14.251080403895815
20
43.106650435766511
30
0
10
14.488822880913572
20
41.598803113883562
30
0
10
14.692268733111325
20
40.207674537378097
30
0
10
14.874403526138469
20
38.884703948046003
30
0
10
15.052086725522905
20
37.567284398396019
30
0
10
15.242741296465523
20
36.191957189503022
30
0
10
15.461252310098958
20
34.706782916332067
30
0
10
15.716749184374628
20
33.084169457799405
30
0
10
16.009500320047152
20
31.333261331539379
30
0
10
16.327590347391229
20
29.513175851518113
30
0
10
16.651679095973055
20
27.714345753115683
30
0
10
16.95986555033873
20
26.039383729395329
30
0
10
17.232688354361777
20
24.583554962182287
30
0
10
17.457673644219721
20
23.4166955006365
30
0
10
17.634992098577438
20
22.561544529591337
30
0
10
17.780500457042109
20
21.980550606554125
30
0
10
17.935220874618931
20
21.541803727934287
30
0
10
18.149539700181332
20
21.067169064086784
30
0
10
18.453364902364346
20
20.427030090536157
30
0
10
18.823242931519207
20
19.64299016855351
30
0
10
19.199099925406841
20
18.841094522428236
30
0
10
19.517692924765484
20
18.154254548362609
30
0
10
19.73788935331913
20
17.649628610974204
30
0
10
19.875552331683274
20
17.226510711693656
30
0
10
19.983532950524413
20
16.683217055885429
30
0
10
20.120278386645396
20
15.81906210272113
30
0
10
20.322447525657743
20
14.523942844237245
30
0
10
20.607712842175307
20
12.765365920956411
30
0
10
20.978111928547563
20
10.573825499560366
30
0
10
21.423154331110581
20
8.028917506072343
30
0
10
21.923032166798802
20
5.2451448292533476
30
0
10
22.45178990954896
20
2.3578366480157271
30
0
10
22.980502285462634
20
-0.49093547134213633
30
0
10
23.480470358313468
20
-3.1665456383801294
30
0
10
23.926359267136558
20
-5.5557113318707483
30
0
10
24.299478576213382
20
-7.5810874796628678
30
0
10
24.590724886382791
20
-9.2142171377332378
30
0
10
24.804396523044858
20
-10.492722607220326
30
0
10
24.955192987229932
20
-11.504383854506239
30
0
10
25.063934088606963
20
-12.365019786154626
30
0
10
25.153646358029288
20
-13.198103332113964
30
0
10
25.245667184425646
20
-14.114579280757034
30
0
10
25.355330062350021
20
-15.190368637514094
30
0
10
25.489108024608758
20
-16.451786401180645
30
0
10
25.646934416159706
20
-17.888981713186254
30
0
10
25.823674900495732
20
-19.464782772781486
30
0
10
26.010940048213726
20
-21.12539286901789
30
0
10
26.198736327543045
20
-22.810191708021232
30
0
10
26.377224405023071
20
-24.462165162871138
30
0
10
26.538342187475109
20
-26.037490778626825
30
0
10
26.677721023464308
20
-27.517000223792174
30
0
10
26.794270943657658
20
-28.902630639812692
30
0
10
26.889348830696886
20
-30.211187430813496
30
0
10
26.966071527170268
20
-31.469040830213135
30
0
10
27.028568461052892
20
-32.706434351167367
30
0
10
27.081259311206839
20
-33.951950196376941
30
0
10
27.128123168621691
20
-35.226930384810274
30
0
10
27.171965102353582
20
-36.539852268366964
30
0
10
27.214499654016112
20
-37.889394628119504
30
0
10
27.256442456370213
20
-39.267599060835686
30
0
10
27.29759943370604
20
-40.662977942505265
30
0
10
27.336955538182572
20
-42.063685060657406
30
0
10
27.372767099002203
20
-43.460566216011998
30
0
10
27.402644426486784
20
-44.850483598130765
30
0
10
27.423662765494466
20
-46.238867294306161
30
0
10
27.432661025873898
20
-47.637220874674888
30
0
10
27.426518993079686
20
-49.06117925821497
30
0
10
27.40244518803042
20
-50.528342204032739
30
0
10
27.358254828014061
20
-52.056230097945225
30
0
10
27.292664512218106
20
-53.660125020495045
30
0
10
27.205550464808447
20
-55.351107067378081
30
0
10
27.098297978027389
20
-57.133630090056826
30
0
10
26.973624972264819
20
-59.005721918587028
30
0
10
26.835234814102364
20
-60.960034013167288
30
0
10
26.687526061496275
20
-62.984609385105941
30
0
10
26.535277858177228
20
-65.063767966302379
30
0
10
26.383347104215002
20
-67.178942011120611
30
0
10
26.236357506622273
20
-69.309531769683758
30
0
10
26.098399216089856
20
-71.433755156525535
30
0
10
25.972707411742896
20
-73.529493568090217
30
0
10
25.861388594108842
20
-75.57515439055264
30
0
10
25.765028072955847
20
-77.550488039180863
30
0
10
25.682867156897199
20
-79.437628468431143
30
0
10
25.613252176244128
20
-81.222245490066385
30
0
10
25.553996207576297
20
-82.894653182331638
30
0
10
25.502780099217311
20
-84.450955602470799
30
0
10
25.457529634182396
20
-85.894132787083123
30
0
10
25.416819212689351
20
-87.235254228456256
30
0
10
25.38022624744729
20
-88.494400548854912
30
0
10
25.348798187038298
20
-89.702282846221237
30
0
10
25.325177405411129
20
-90.899725184206602
30
0
10
25.312838340883786
20
-92.13160857214325
30
0
10
25.315485110781868
20
-93.441800847771347
30
0
10
25.336399016057683
20
-94.867812597600164
30
0
10
25.377776600277244
20
-96.43530289663525
30
0
10
25.440143639032634
20
-98.153272095478968
30
0
10
25.521560179173054
20
-100.0074320698085
30
0
10
25.617563163053031
20
-101.95997120006281
30
0
10
25.722072897301466
20
-103.95767062490734
30
0
10
25.828061017077836
20
-105.9379485519579
30
0
10
25.928309044776213
20
-107.83570416842511
30
0
10
26.01614220438627
20
-109.58991220474788
30
0
10
26.086141345134777
20
-111.15010936071498
30
0
10
26.134939944027558
20
-112.48342819671157
30
0
10
26.161807306792326
20
-113.58022272472573
30
0
10
26.169770970126997
20
-114.46325198250555
30
0
10
26.164390377299007
20
-115.1815837316145
30
0
10
26.150736461564534
20
-115.79363929385663
30
0
10
26.131309031856542
20
-116.35480177610535
30
0
10
26.102613348840077
20
-116.90000466841678
30
0
10
26.056879592771303
20
-117.44373051066538
30
0
10
25.986215019124572
20
-117.98877966638237
30
0
10
25.886589323124049
20
-118.53287584901736
30
0
10
25.756888309980333
20
-119.07177861520546
30
0
10
25.59678808758246
20
-119.60107127373155
30
0
10
25.405113731701011
20
-120.1183575125539
30
0
10
25.180483123693421
20
-120.62205375421391
30
0
10
24.922061551903091
20
-121.11016619632599
30
0
10
24.630042068101282
20
-121.57951365322766
30
0
10
24.305176887983752
20
-122.02656472014483
30
0
10
23.948422015568411
20
-122.4483195648011
30
0
10
23.560652995222526
20
-122.84225419155706
30
0
10
23.142709438237858
20
-123.20506655682922
30
0
10
22.695191620050608
20
-123.53122956719844
30
0
10
22.219028234045709
20
-123.81368655413098
30
0
10
21.716380296837841
20
-124.04586926927736
30
0
10
21.296604031897036
20
-124.1880721873401
30
0
10
20.974545860820321
20
-124.26927400906983
30
0
10
20.757501257035976
20
-124.31194657689912
30
0
10
20.648499999999999
20
-124.3304
30
0
0
ENDSEC
0
SECTION
2
OBJECTS
0
DICTIONARY
5
C
100
AcDbDictionary
3
ACAD_GROUP
350
D
3
ACAD_MLINESTYLE
350
17
0
DICTIONARY
5
D
100
AcDbDictionary
0
DICTIONARY
5
1A
330
C
100
AcDbDictionary
0
DICTIONARY
5
17
100
AcDbDictionary
0
ENDSEC
0
EOF
