0
SECTION
2
HEADER
9
$INSUNITS
70
4
9
$ACADVER
1
AC1014
9
$HANDSEED
5
FFFF
0
ENDSEC
0
SECTION
2
TABLES
0
TABLE
2
VPORT
5
8
100
AcDbSymbolTable
0
ENDTAB
0
TABLE
2
LTYPE
5
5
100
AcDbSymbolTable
0
LTYPE
5
14
100
AcDbSymbolTableRecord
100
AcDbLinetypeTableRecord
2
BYBLOCK
70
0
0
LTYPE
5
15
100
AcDbSymbolTableRecord
100
AcDbLinetypeTableRecord
2
BYLAYER
70
0
0
LTYPE
5
16
100
AcDbSymbolTableRecord
100
AcDbLinetypeTableRecord
2
DASHED
70
0
3
Dashed __ __ __ __ __ __ __ __ __ __ __ __ __ _
72
65
73
2
40
0.75
49
0.5
74
0
49
-0.25
74
0
0
ENDTAB
0
TABLE
2
LAYER
5
2
100
AcDbSymbolTable
70
2
0
LAYER
5
50
100
AcDbSymbolTableRecord
100
AcDbLayerTableRecord
2
0
70
0
62
7
6
CONTINUOUS
0
ENDTAB
0
TABLE
2
STYLE
5
3
100
AcDbSymbolTable
70
1
0
STYLE
5
11
100
AcDbSymbolTableRecord
100
AcDbTextStyleTableRecord
2
STANDARD
70
0
0
ENDTAB
0
TABLE
2
VIEW
5
6
100
AcDbSymbolTable
70
0
0
ENDTAB
0
TABLE
2
UCS
5
7
100
AcDbSymbolTable
70
0
0
ENDTAB
0
TABLE
2
APPID
5
9
100
AcDbSymbolTable
70
2
0
APPID
5
12
100
AcDbSymbolTableRecord
100
AcDbRegAppTableRecord
2
ACAD
70
0
0
ENDTAB
0
TABLE
2
DIMSTYLE
5
A
100
AcDbSymbolTable
70
1
0
ENDTAB
0
TABLE
2
BLOCK_RECORD
5
1
100
AcDbSymbolTable
70
1
0
BLOCK_RECORD
5
1F
100
AcDbSymbolTableRecord
100
AcDbBlockTableRecord
2
*MODEL_SPACE
0
BLOCK_RECORD
5
1B
100
AcDbSymbolTableRecord
100
AcDbBlockTableRecord
2
*PAPER_SPACE
0
ENDTAB
0
ENDSEC
0
SECTION
2
BLOCKS
0
BLOCK
5
20
100
AcDbEntity
100
AcDbBlockBegin
2
*MODEL_SPACE
0
ENDBLK
5
21
100
AcDbEntity
100
AcDbBlockEnd
0
BLOCK
5
1C
100
AcDbEntity
100
AcDbBlockBegin
2
*PAPER_SPACE
0
ENDBLK
5
1D
100
AcDbEntity
100
AcDbBlockEnd
0
ENDSEC
0
SECTION
2
ENTITIES
0
SPLINE
5
100
100
AcDbEntity
8
0
100
AcDbSpline
70
6
71
5
72
661
73
655
74
0
42
0.000000001
43
0.0000000001
44
0.0000000001
40
0
40
0
40
0
40
0
40
0
40
0
40
0.0015384615384615385
40
0.0030769230769230769
40
0.0046153846153846149
40
0.0061538461538461538
40
0.0076923076923076927
40
0.0092307692307692316
40
0.010769230769230771
40
0.012307692307692309
40
0.013846153846153848
40
0.015384615384615387
40
0.016923076923076926
40
0.018461538461538463
40
0.02
40
0.021538461538461538
40
0.023076923076923075
40
0.024615384615384612
40
0.026153846153846149
40
0.027692307692307686
40
0.029230769230769223
40
0.030769230769230761
40
0.032307692307692301
40
0.033846153846153838
40
0.035384615384615375
40
0.036923076923076913
40
0.03846153846153845
40
0.039999999999999987
40
0.041538461538461524
40
0.043076923076923061
40
0.044615384615384598
40
0.046153846153846136
40
0.047692307692307673
40
0.04923076923076921
40
0.050769230769230747
40
0.052307692307692284
40
0.053846153846153821
40
0.055384615384615359
40
0.056923076923076896
40
0.058461538461538433
40
0.05999999999999997
40
0.061538461538461507
40
0.063076923076923044
40
0.064615384615384588
40
0.066153846153846133
40
0.067692307692307677
40
0.069230769230769221
40
0.070769230769230765
40
0.072307692307692309
40
0.073846153846153853
40
0.075384615384615397
40
0.076923076923076941
40
0.078461538461538485
40
0.080000000000000029
40
0.081538461538461574
40
0.083076923076923118
40
0.084615384615384662
40
0.086153846153846206
40
0.08769230769230775
40
0.089230769230769294
40
0.090769230769230838
40
0.092307692307692382
40
0.093846153846153926
40
0.09538461538461547
40
0.096923076923077014
40
0.098461538461538559
40
0.1000000000000001
40
0.10153846153846165
40
0.10307692307692319
40
0.10461538461538473
40
0.10615384615384628
40
0.10769230769230782
40
0.10923076923076937
40
0.11076923076923091
40
0.11230769230769246
40
0.113846153846154
40
0.11538461538461554
40
0.11692307692307709
40
0.11846153846153863
40
0.12000000000000018
40
0.12153846153846172
40
0.12307692307692326
40
0.12461538461538481
40
0.12615384615384634
40
0.12769230769230788
40
0.12923076923076943
40
0.13076923076923097
40
0.13230769230769251
40
0.13384615384615406
40
0.1353846153846156
40
0.13692307692307715
40
0.13846153846153869
40
0.14000000000000024
40
0.14153846153846178
40
0.14307692307692332
40
0.14461538461538487
40
0.14615384615384641
40
0.14769230769230796
40
0.1492307692307695
40
0.15076923076923104
40
0.15230769230769259
40
0.15384615384615413
40
0.15538461538461568
40
0.15692307692307722
40
0.15846153846153876
40
0.16000000000000031
40
0.16153846153846185
40
0.1630769230769234
40
0.16461538461538494
40
0.16615384615384649
40
0.16769230769230803
40
0.16923076923076957
40
0.17076923076923112
40
0.17230769230769266
40
0.17384615384615421
40
0.17538461538461575
40
0.17692307692307729
40
0.17846153846153884
40
0.18000000000000038
40
0.18153846153846193
40
0.18307692307692347
40
0.18461538461538501
40
0.18615384615384656
40
0.1876923076923081
40
0.18923076923076965
40
0.19076923076923119
40
0.19230769230769273
40
0.19384615384615428
40
0.19538461538461582
40
0.19692307692307737
40
0.19846153846153891
40
0.20000000000000046
40
0.201538461538462
40
0.20307692307692354
40
0.20461538461538509
40
0.20615384615384663
40
0.20769230769230818
40
0.20923076923076972
40
0.21076923076923126
40
0.21230769230769281
40
0.21384615384615435
40
0.2153846153846159
40
0.21692307692307744
40
0.21846153846153898
40
0.22000000000000053
40
0.22153846153846207
40
0.22307692307692362
40
0.22461538461538516
40
0.2261538461538467
40
0.22769230769230825
40
0.22923076923076979
40
0.23076923076923134
40
0.23230769230769288
40
0.23384615384615443
40
0.23538461538461597
40
0.23692307692307751
40
0.23846153846153906
40
0.2400000000000006
40
0.24153846153846215
40
0.24307692307692369
40
0.24461538461538523
40
0.24615384615384678
40
0.24769230769230832
40
0.24923076923076987
40
0.25076923076923141
40
0.25230769230769295
40
0.2538461538461545
40
0.25538461538461604
40
0.25692307692307759
40
0.25846153846153913
40
0.26000000000000068
40
0.26153846153846222
40
0.26307692307692376
40
0.26461538461538531
40
0.26615384615384685
40
0.2676923076923084
40
0.26923076923076994
40
0.27076923076923148
40
0.27230769230769303
40
0.27384615384615457
40
0.27538461538461612
40
0.27692307692307766
40
0.2784615384615392
40
0.28000000000000075
40
0.28153846153846229
40
0.28307692307692384
40
0.28461538461538538
40
0.28615384615384692
40
0.28769230769230847
40
0.28923076923077001
40
0.29076923076923156
40
0.2923076923076931
40
0.29384615384615465
40
0.29538461538461619
40
0.29692307692307773
40
0.29846153846153928
40
0.30000000000000082
40
0.30153846153846237
40
0.30307692307692391
40
0.30461538461538545
40
0.306153846153847
40
0.30769230769230854
40
0.30923076923077009
40
0.31076923076923163
40
0.31230769230769317
40
0.31384615384615472
40
0.31538461538461626
40
0.31692307692307781
40
0.31846153846153935
40
0.32000000000000089
40
0.32153846153846244
40
0.32307692307692398
40
0.32461538461538553
40
0.32615384615384707
40
0.32769230769230862
40
0.32923076923077016
40
0.3307692307692317
40
0.33230769230769325
40
0.33384615384615479
40
0.33538461538461634
40
0.33692307692307788
40
0.33846153846153942
40
0.34000000000000097
40
0.34153846153846251
40
0.34307692307692406
40
0.3446153846153856
40
0.34615384615384714
40
0.34769230769230869
40
0.34923076923077023
40
0.35076923076923178
40
0.35230769230769332
40
0.35384615384615486
40
0.35538461538461641
40
0.35692307692307795
40
0.3584615384615395
40
0.36000000000000104
40
0.36153846153846259
40
0.36307692307692413
40
0.36461538461538567
40
0.36615384615384722
40
0.36769230769230876
40
0.36923076923077031
40
0.37076923076923185
40
0.37230769230769339
40
0.37384615384615494
40
0.37538461538461648
40
0.37692307692307803
40
0.37846153846153957
40
0.38000000000000111
40
0.38153846153846266
40
0.3830769230769242
40
0.38461538461538575
40
0.38615384615384729
40
0.38769230769230884
40
0.38923076923077038
40
0.39076923076923192
40
0.39230769230769347
40
0.39384615384615501
40
0.39538461538461656
40
0.3969230769230781
40
0.39846153846153964
40
0.40000000000000119
40
0.40153846153846273
40
0.40307692307692428
40
0.40461538461538582
40
0.40615384615384736
40
0.40769230769230891
40
0.40923076923077045
40
0.410769230769232
40
0.41230769230769354
40
0.41384615384615508
40
0.41538461538461663
40
0.41692307692307817
40
0.41846153846153972
40
0.42000000000000126
40
0.42153846153846281
40
0.42307692307692435
40
0.42461538461538589
40
0.42615384615384744
40
0.42769230769230898
40
0.42923076923077053
40
0.43076923076923207
40
0.43230769230769361
40
0.43384615384615516
40
0.4353846153846167
40
0.43692307692307825
40
0.43846153846153979
40
0.44000000000000133
40
0.44153846153846288
40
0.44307692307692442
40
0.44461538461538597
40
0.44615384615384751
40
0.44769230769230905
40
0.4492307692307706
40
0.45076923076923214
40
0.45230769230769369
40
0.45384615384615523
40
0.45538461538461678
40
0.45692307692307832
40
0.45846153846153986
40
0.46000000000000141
40
0.46153846153846295
40
0.4630769230769245
40
0.46461538461538604
40
0.46615384615384758
40
0.46769230769230913
40
0.46923076923077067
40
0.47076923076923222
40
0.47230769230769376
40
0.4738461538461553
40
0.47538461538461685
40
0.47692307692307839
40
0.47846153846153994
40
0.48000000000000148
40
0.48153846153846303
40
0.48307692307692457
40
0.48461538461538611
40
0.48615384615384766
40
0.4876923076923092
40
0.48923076923077075
40
0.49076923076923229
40
0.49230769230769383
40
0.49384615384615538
40
0.49538461538461692
40
0.49692307692307847
40
0.49846153846154001
40
0.50000000000000155
40
0.50153846153846304
40
0.50307692307692453
40
0.50461538461538602
40
0.50615384615384751
40
0.507692307692309
40
0.50923076923077049
40
0.51076923076923197
40
0.51230769230769346
40
0.51384615384615495
40
0.51538461538461644
40
0.51692307692307793
40
0.51846153846153942
40
0.52000000000000091
40
0.52153846153846239
40
0.52307692307692388
40
0.52461538461538537
40
0.52615384615384686
40
0.52769230769230835
40
0.52923076923076984
40
0.53076923076923133
40
0.53230769230769281
40
0.5338461538461543
40
0.53538461538461579
40
0.53692307692307728
40
0.53846153846153877
40
0.54000000000000026
40
0.54153846153846175
40
0.54307692307692323
40
0.54461538461538472
40
0.54615384615384621
40
0.5476923076923077
40
0.54923076923076919
40
0.55076923076923068
40
0.55230769230769217
40
0.55384615384615365
40
0.55538461538461514
40
0.55692307692307663
40
0.55846153846153812
40
0.55999999999999961
40
0.5615384615384611
40
0.56307692307692259
40
0.56461538461538407
40
0.56615384615384556
40
0.56769230769230705
40
0.56923076923076854
40
0.57076923076923003
40
0.57230769230769152
40
0.57384615384615301
40
0.5753846153846145
40
0.57692307692307598
40
0.57846153846153747
40
0.57999999999999896
40
0.58153846153846045
40
0.58307692307692194
40
0.58461538461538343
40
0.58615384615384492
40
0.5876923076923064
40
0.58923076923076789
40
0.59076923076922938
40
0.59230769230769087
40
0.59384615384615236
40
0.59538461538461385
40
0.59692307692307534
40
0.59846153846153682
40
0.59999999999999831
40
0.6015384615384598
40
0.60307692307692129
40
0.60461538461538278
40
0.60615384615384427
40
0.60769230769230576
40
0.60923076923076724
40
0.61076923076922873
40
0.61230769230769022
40
0.61384615384615171
40
0.6153846153846132
40
0.61692307692307469
40
0.61846153846153618
40
0.61999999999999766
40
0.62153846153845915
40
0.62307692307692064
40
0.62461538461538213
40
0.62615384615384362
40
0.62769230769230511
40
0.6292307692307666
40
0.63076923076922808
40
0.63230769230768957
40
0.63384615384615106
40
0.63538461538461255
40
0.63692307692307404
40
0.63846153846153553
40
0.63999999999999702
40
0.6415384615384585
40
0.64307692307691999
40
0.64461538461538148
40
0.64615384615384297
40
0.64769230769230446
40
0.64923076923076595
40
0.65076923076922744
40
0.65230769230768892
40
0.65384615384615041
40
0.6553846153846119
40
0.65692307692307339
40
0.65846153846153488
40
0.65999999999999637
40
0.66153846153845786
40
0.66307692307691934
40
0.66461538461538083
40
0.66615384615384232
40
0.66769230769230381
40
0.6692307692307653
40
0.67076923076922679
40
0.67230769230768828
40
0.67384615384614976
40
0.67538461538461125
40
0.67692307692307274
40
0.67846153846153423
40
0.67999999999999572
40
0.68153846153845721
40
0.6830769230769187
40
0.68461538461538018
40
0.68615384615384167
40
0.68769230769230316
40
0.68923076923076465
40
0.69076923076922614
40
0.69230769230768763
40
0.69384615384614912
40
0.6953846153846106
40
0.69692307692307209
40
0.69846153846153358
40
0.69999999999999507
40
0.70153846153845656
40
0.70307692307691805
40
0.70461538461537954
40
0.70615384615384102
40
0.70769230769230251
40
0.709230769230764
40
0.71076923076922549
40
0.71230769230768698
40
0.71384615384614847
40
0.71538461538460996
40
0.71692307692307145
40
0.71846153846153293
40
0.71999999999999442
40
0.72153846153845591
40
0.7230769230769174
40
0.72461538461537889
40
0.72615384615384038
40
0.72769230769230187
40
0.72923076923076335
40
0.73076923076922484
40
0.73230769230768633
40
0.73384615384614782
40
0.73538461538460931
40
0.7369230769230708
40
0.73846153846153229
40
0.73999999999999377
40
0.74153846153845526
40
0.74307692307691675
40
0.74461538461537824
40
0.74615384615383973
40
0.74769230769230122
40
0.74923076923076271
40
0.75076923076922419
40
0.75230769230768568
40
0.75384615384614717
40
0.75538461538460866
40
0.75692307692307015
40
0.75846153846153164
40
0.75999999999999313
40
0.76153846153845461
40
0.7630769230769161
40
0.76461538461537759
40
0.76615384615383908
40
0.76769230769230057
40
0.76923076923076206
40
0.77076923076922355
40
0.77230769230768503
40
0.77384615384614652
40
0.77538461538460801
40
0.7769230769230695
40
0.77846153846153099
40
0.77999999999999248
40
0.78153846153845397
40
0.78307692307691545
40
0.78461538461537694
40
0.78615384615383843
40
0.78769230769229992
40
0.78923076923076141
40
0.7907692307692229
40
0.79230769230768439
40
0.79384615384614587
40
0.79538461538460736
40
0.79692307692306885
40
0.79846153846153034
40
0.79999999999999183
40
0.80153846153845332
40
0.80307692307691481
40
0.80461538461537629
40
0.80615384615383778
40
0.80769230769229927
40
0.80923076923076076
40
0.81076923076922225
40
0.81230769230768374
40
0.81384615384614523
40
0.81538461538460671
40
0.8169230769230682
40
0.81846153846152969
40
0.81999999999999118
40
0.82153846153845267
40
0.82307692307691416
40
0.82461538461537565
40
0.82615384615383713
40
0.82769230769229862
40
0.82923076923076011
40
0.8307692307692216
40
0.83230769230768309
40
0.83384615384614458
40
0.83538461538460607
40
0.83692307692306755
40
0.83846153846152904
40
0.83999999999999053
40
0.84153846153845202
40
0.84307692307691351
40
0.844615384615375
40
0.84615384615383649
40
0.84769230769229797
40
0.84923076923075946
40
0.85076923076922095
40
0.85230769230768244
40
0.85384615384614393
40
0.85538461538460542
40
0.85692307692306691
40
0.8584615384615284
40
0.85999999999998988
40
0.86153846153845137
40
0.86307692307691286
40
0.86461538461537435
40
0.86615384615383584
40
0.86769230769229733
40
0.86923076923075882
40
0.8707692307692203
40
0.87230769230768179
40
0.87384615384614328
40
0.87538461538460477
40
0.87692307692306626
40
0.87846153846152775
40
0.87999999999998924
40
0.88153846153845072
40
0.88307692307691221
40
0.8846153846153737
40
0.88615384615383519
40
0.88769230769229668
40
0.88923076923075817
40
0.89076923076921966
40
0.89230769230768114
40
0.89384615384614263
40
0.89538461538460412
40
0.89692307692306561
40
0.8984615384615271
40
0.89999999999998859
40
0.90153846153845008
40
0.90307692307691156
40
0.90461538461537305
40
0.90615384615383454
40
0.90769230769229603
40
0.90923076923075752
40
0.91076923076921901
40
0.9123076923076805
40
0.91384615384614198
40
0.91538461538460347
40
0.91692307692306496
40
0.91846153846152645
40
0.91999999999998794
40
0.92153846153844943
40
0.92307692307691092
40
0.9246153846153724
40
0.92615384615383389
40
0.92769230769229538
40
0.92923076923075687
40
0.93076923076921836
40
0.93230769230767985
40
0.93384615384614134
40
0.93538461538460282
40
0.93692307692306431
40
0.9384615384615258
40
0.93999999999998729
40
0.94153846153844878
40
0.94307692307691027
40
0.94461538461537176
40
0.94615384615383324
40
0.94769230769229473
40
0.94923076923075622
40
0.95076923076921771
40
0.9523076923076792
40
0.95384615384614069
40
0.95538461538460218
40
0.95692307692306366
40
0.95846153846152515
40
0.95999999999998664
40
0.96153846153844813
40
0.96307692307690962
40
0.96461538461537111
40
0.9661538461538326
40
0.96769230769229408
40
0.96923076923075557
40
0.97076923076921706
40
0.97230769230767855
40
0.97384615384614004
40
0.97538461538460153
40
0.97692307692306302
40
0.9784615384615245
40
0.97999999999998599
40
0.98153846153844748
40
0.98307692307690897
40
0.98461538461537046
40
0.98615384615383195
40
0.98769230769229344
40
0.98923076923075492
40
0.99076923076921641
40
0.9923076923076779
40
0.99384615384613939
40
0.99538461538460088
40
0.99692307692306237
40
0.99846153846152386
40
1
40
1
40
1
40
1
40
1
40
1
41
1
41
1
41
1
41
1
41
1
41
1
41
1
41
1
41
1
41
1
41
1
41
1
41
1
41
1
41
1
41
1
41
1
41
1
41
1
41
1
41
1
41
1
41
1
41
1
41
1
41
1
41
1
41
1
41
1
41
1
41
1
41
1
41
1
41
1
41
1
41
1
41
1
41
1
41
1
41
1
41
1
41
1
41
1
41
1
41
1
41
1
41
1
41
1
41
1
41
1
41
1
41
1
41
1
41
1
41
1
41
1
41
1
41
1
41
1
41
1
41
1
41
1
41
1
41
1
41
1
41
1
41
1
41
1
41
1
41
1
41
1
41
1
41
1
41
1
41
1
41
1
41
1
41
1
41
1
41
1
41
1
41
1
41
1
41
1
41
1
41
1
41
1
41
1
41
1
41
1
41
1
41
1
41
1
41
1
41
1
41
1
41
1
41
1
41
1
41
1
41
1
41
1
41
1
41
1
41
1
41
1
41
1
41
1
41
1
41
1
41
1
41
1
41
1
41
1
41
1
41
1
41
1
41
1
41
1
41
1
41
1
41
1
41
1
41
1
41
1
41
1
41
1
41
1
41
1
41
1
41
1
41
1
41
1
41
1
41
1
41
1
41
1
41
1
41
1
41
1
41
1
41
1
41
1
41
1
41
1
41
1
41
1
41
1
41
1
41
1
41
1
41
1
41
1
41
1
41
1
41
1
41
1
41
1
41
1
41
1
41
1
41
1
41
1
41
1
41
1
41
1
41
1
41
1
41
1
41
1
41
1
41
1
41
1
41
1
41
1
41
1
41
1
41
1
41
1
41
1
41
1
41
1
41
1
41
1
41
1
41
1
41
1
41
1
41
1
41
1
41
1
41
1
41
1
41
1
41
1
41
1
41
1
41
1
41
1
41
1
41
1
41
1
41
1
41
1
41
1
41
1
41
1
41
1
41
1
41
1
41
1
41
1
41
1
41
1
41
1
41
1
41
1
41
1
41
1
41
1
41
1
41
1
41
1
41
1
41
1
41
1
41
1
41
1
41
1
41
1
41
1
41
1
41
1
41
1
41
1
41
1
41
1
41
1
41
1
41
1
41
1
41
1
41
1
41
1
41
1
41
1
41
1
41
1
41
1
41
1
41
1
41
1
41
1
41
1
41
1
41
1
41
1
41
1
41
1
41
1
41
1
41
1
41
1
41
1
41
1
41
1
41
1
41
1
41
1
41
1
41
1
41
1
41
1
41
1
41
1
41
1
41
1
41
1
41
1
41
1
41
1
41
1
41
1
41
1
41
1
41
1
41
1
41
1
41
1
41
1
41
1
41
1
41
1
41
1
41
1
41
1
41
1
41
1
41
1
41
1
41
1
41
1
41
1
41
1
41
1
41
1
41
1
41
1
41
1
41
1
41
1
41
1
41
1
41
1
41
1
41
1
41
1
41
1
41
1
41
1
41
1
41
1
41
1
41
1
41
1
41
1
41
1
41
1
41
1
41
1
41
1
41
1
41
1
41
1
41
1
41
1
41
1
41
1
41
1
41
1
41
1
41
1
41
1
41
1
41
1
41
1
41
1
41
1
41
1
41
1
41
1
41
1
41
1
41
1
41
1
41
1
41
1
41
1
41
1
41
1
41
1
41
1
41
1
41
1
41
1
41
1
41
1
41
1
41
1
41
1
41
1
41
1
41
1
41
1
41
1
41
1
41
1
41
1
41
1
41
1
41
1
41
1
41
1
41
1
41
1
41
1
41
1
41
1
41
1
41
1
41
1
41
1
41
1
41
1
41
1
41
1
41
1
41
1
41
1
41
1
41
1
41
1
41
1
41
1
41
1
41
1
41
1
41
1
41
1
41
1
41
1
41
1
41
1
41
1
41
1
41
1
41
1
41
1
41
1
41
1
41
1
41
1
41
1
41
1
41
1
41
1
41
1
41
1
41
1
41
1
41
1
41
1
41
1
41
1
41
1
41
1
41
1
41
1
41
1
41
1
41
1
41
1
41
1
41
1
41
1
41
1
41
1
41
1
41
1
41
1
41
1
41
1
41
1
41
1
41
1
41
1
41
1
41
1
41
1
41
1
41
1
41
1
41
1
41
1
41
1
41
1
41
1
41
1
41
1
41
1
41
1
41
1
41
1
41
1
41
1
41
1
41
1
41
1
41
1
41
1
41
1
41
1
41
1
41
1
41
1
41
1
41
1
41
1
41
1
41
1
41
1
41
1
41
1
41
1
41
1
41
1
41
1
41
1
41
1
41
1
41
1
41
1
41
1
41
1
41
1
41
1
41
1
41
1
41
1
41
1
41
1
41
1
41
1
41
1
41
1
41
1
41
1
41
1
41
1
41
1
41
1
41
1
41
1
41
1
41
1
41
1
41
1
41
1
41
1
41
1
41
1
41
1
41
1
41
1
41
1
41
1
41
1
41
1
41
1
41
1
41
1
41
1
41
1
41
1
41
1
41
1
41
1
41
1
41
1
41
1
41
1
41
1
41
1
41
1
41
1
41
1
41
1
41
1
41
1
41
1
41
1
41
1
41
1
41
1
41
1
41
1
41
1
41
1
41
1
41
1
41
1
41
1
41
1
41
1
41
1
41
1
41
1
41
1
41
1
41
1
41
1
41
1
41
1
41
1
41
1
41
1
41
1
41
1
41
1
41
1
41
1
41
1
41
1
41
1
41
1
41
1
41
1
41
1
41
1
41
1
41
1
41
1
41
1
41
1
41
1
41
1
41
1
41
1
41
1
41
1
41
1
41
1
41
1
41
1
41
1
41
1
41
1
41
1
41
1
41
1
41
1
41
1
41
1
41
1
41
1
41
1
41
1
41
1
41
1
41
1
41
1
41
1
41
1
41
1
41
1
41
1
41
1
41
1
41
1
41
1
41
1
41
1
41
1
41
1
41
1
41
1
41
1
41
1
41
1
41
1
41
1
41
1
41
1
41
1
41
1
10
20.068800000000003
20
-124.39790000000002
30
0
10
19.957357344414927
20
-124.40331076040152
30
0
10
19.734143311308227
20
-124.40713187792186
30
0
10
19.399158466819838
20
-124.39189402647371
30
0
10
18.955401521372789
20
-124.33054530899929
30
0
10
18.413149487520755
20
-124.18977156164149
30
0
10
17.890636577352016
20
-123.98886964758395
30
0
10
17.394558092728147
20
-123.73046350519465
30
0
10
16.92994969047994
20
-123.41835007716824
30
0
10
16.498858535572886
20
-123.06071743336949
30
0
10
16.10041432536741
20
-122.66907499298233
30
0
10
15.732600066803109
20
-122.25289813229864
30
0
10
15.39376097297038
20
-121.81332909826936
30
0
10
15.083320303429524
20
-121.34712152187842
30
0
10
14.801867964639175
20
-120.85520545741672
30
0
10
14.55163366539754
20
-120.35110353181554
30
0
10
14.33385119768235
20
-119.84957156871019
30
0
10
14.145440113160186
20
-119.35132656428914
30
0
10
13.976809699604038
20
-118.8323855132362
30
0
10
13.81655285558625
20
-118.25903259056733
30
0
10
13.656243394196952
20
-117.60270850405138
30
0
10
13.493099375377273
20
-116.84870558441318
30
0
10
13.327618164904075
20
-115.98984049846339
30
0
10
13.162387717896408
20
-115.0236896783497
30
0
10
13.000223793326471
20
-113.94771056794484
30
0
10
12.843313271421961
20
-112.75769352561741
30
0
10
12.693453716073046
20
-111.44993341900249
30
0
10
12.552042253330571
20
-110.02256617508837
30
0
10
12.420164483663145
20
-108.47719296326395
30
0
10
12.298641612257612
20
-106.82049021522261
30
0
10
12.188093270464936
20
-105.06557145277313
30
0
10
12.088999337379365
20
-103.2340982766128
30
0
10
12.001733953729062
20
-101.35492213827203
30
0
10
11.926580572956142
20
-99.460777328734409
30
0
10
11.863753075087525
20
-97.585571474803444
30
0
10
11.81341426107031
20
-95.761435759581587
30
0
10
11.775695691605936
20
-94.015861408085826
30
0
10
11.750716432542614
20
-92.368837908363091
30
0
10
11.73860346650525
20
-90.829899837005968
30
0
10
11.739508567364682
20
-89.395426371120237
30
0
10
11.753634236301995
20
-88.045261236331967
30
0
10
11.781159946812704
20
-86.746862205206682
30
0
10
11.822156132097346
20
-85.460369071038883
30
0
10
11.876502991239503
20
-84.143326235337412
30
0
10
11.943806221042369
20
-82.755592817419839
30
0
10
12.023316477127873
20
-81.264074810024468
30
0
10
12.113841481898159
20
-79.647765762623294
30
0
10
12.213677918450436
20
-77.901983585602522
30
0
10
12.320727241619295
20
-76.035187764732697
30
0
10
12.432596184006686
20
-74.066411899821787
30
0
10
12.546703249803581
20
-72.022458156935485
30
0
10
12.660382311266527
20
-69.935201106846023
30
0
10
12.770988256881095
20
-67.83882597315457
30
0
10
12.875999880556046
20
-65.767138476148091
30
0
10
12.973128318933963
20
-63.750743214405702
30
0
10
13.060412911479226
20
-61.814513938519667
30
0
10
13.136347747982306
20
-59.974354674095139
30
0
10
13.199892506783343
20
-58.236631906592883
30
0
10
13.250376217324915
20
-56.600073748828507
30
0
10
13.287430989310206
20
-55.056985162152515
30
0
10
13.310912756234558
20
-53.594745732600543
30
0
10
13.32082923917895
20
-52.197180393558753
30
0
10
13.317260965893984
20
-50.845998531293048
30
0
10
13.300294288442743
20
-49.522171306224237
30
0
10
13.269926257479174
20
-48.207418015728038
30
0
10
13.226108818033076
20
-46.885187121255285
30
0
10
13.168852417258893
20
-45.541420137852242
30
0
10
13.098311166200878
20
-44.16539067088447
30
0
10
13.014874360528747
20
-42.750499679729799
30
0
10
12.919258327791056
20
-41.295118594260487
30
0
10
12.812590944033737
20
-39.803343518198048
30
0
10
12.696518636885298
20
-38.285971582445001
30
0
10
12.572999223400625
20
-36.758478166380506
30
0
10
12.444068037453134
20
-35.238737030818172
30
0
10
12.311610180820537
20
-33.744807109654538
30
0
10
12.17713801384145
20
-32.2927489646531
30
0
10
12.041548273774907
20
-30.894294718669315
30
0
10
11.904930347511034
20
-29.554893992499149
30
0
10
11.766246227447819
20
-28.270813452287662
30
0
10
11.623545815791168
20
-27.030180243029459
30
0
10
11.474561804730136
20
-25.816794543533899
30
0
10
11.317176686951335
20
-24.613051135596827
30
0
10
11.149976493493096
20
-23.403384586522854
30
0
10
10.972688698887744
20
-22.177128564074678
30
0
10
10.786861880022531
20
-20.932508906629433
30
0
10
10.595762701760226
20
-19.677032924477686
30
0
10
10.403049976495883
20
-18.422284771510729
30
0
10
10.211753321611852
20
-17.180092204099477
30
0
10
10.023092604736901
20
-15.958019074935759
30
0
10
9.8354491575601255
20
-14.755425325160843
30
0
10
9.6430712274209345
20
-13.558614195725859
30
0
10
9.4355061429588396
20
-12.338414499281781
30
0
10
9.1999838872446453
20
-11.057596071591924
30
0
10
8.9233619399735424
20
-9.6768290569774784
30
0
10
8.5942546237920752
20
-8.1612470549592011
30
0
10
8.2050535541537357
20
-6.4866716410411254
30
0
10
7.754065294398699
20
-4.6461715076052004
30
0
10
7.2474328723816281
20
-2.6560326590401075
30
0
10
6.7015934344722474
20
-0.56317161544116556
30
0
10
6.1399479783584034
20
1.562962494665121
30
0
10
5.588807401246811
20
3.6404054590198331
30
0
10
5.0736247183801098
20
5.5839708638577692
30
0
10
4.6150413258444054
20
7.3149442923559302
30
0
10
4.2251642421571765
20
8.7703830832700174
30
0
10
3.9033928569966192
20
9.9131017483270512
30
0
10
3.6332559672338522
20
10.740162577105984
30
0
10
3.3768824021848283
20
11.294854106679001
30
0
10
3.0757852472873282
20
11.669243105554008
30
0
10
2.6797983512684387
20
11.958767549038726
30
0
10
2.1824819753210063
20
12.211149597214
30
0
10
1.6268517513689065
20
12.408882313048721
30
0
10
1.0643828292700217
20
12.512092485443336
30
0
10
0.51356181870962014
20
12.49237989100833
30
0
10
-0.035388210403005084
20
12.349628744568301
30
0
10
-0.58555444992109273
20
12.109559905006384
30
0
10
-1.1008826452069334
20
11.832048706965274
30
0
10
-1.5372184781326603
20
11.568803600861612
30
0
10
-1.890575952034419
20
11.308635300698313
30
0
10
-2.2322082716401681
20
10.937103944233201
30
0
10
-2.6519296453616485
20
10.3242127679103
30
0
10
-3.1968101614090019
20
9.4201400800477018
30
0
10
-3.8366024738683748
20
8.3067589438528842
30
0
10
-4.5019190646431131
20
7.1288623220452294
30
0
10
-5.1075205053057706
20
6.0502851660927472
30
0
10
-5.5831067508572012
20
5.1969059306478478
30
0
10
-5.8972426636025377
20
4.6127030669154747
30
0
10
-6.0936834310792563
20
4.1909722293296694
30
0
10
-6.2598983694707231
20
3.7432893326375192
30
0
10
-6.4756175356970678
20
3.1090760248809568
30
0
10
-6.7668671785019328
20
2.2542329288846235
30
0
10
-7.1201841258613072
20
1.2331537541891562
30
0
10
-7.4997785407254902
20
0.1441254373308069
30
0
10
-7.8630111336004056
20
-0.91106643456220715
30
0
10
-8.1778057815905072
20
-1.8730741887760063
30
0
10
-8.4355912770103973
20
-2.7573486063469534
30
0
10
-8.6431965855366819
20
-3.6222663207234795
30
0
10
-8.8172891257381174
20
-4.5446154009094588
30
0
10
-8.9781664880774184
20
-5.5941391342395539
30
0
10
-9.1430149747517859
20
-6.8039201687602882
30
0
10
-9.322195621796876
20
-8.1583247531975527
30
0
10
-9.521046535986029
20
-9.611712557509497
30
0
10
-9.7404100488813654
20
-11.100217666407666
30
0
10
-9.9776726841672367
20
-12.556013071491856
30
0
10
-10.227588100271729
20
-13.921215212350564
30
0
10
-10.48318791631727
20
-15.160302033282147
30
0
10
-10.736668379927888
20
-16.277288659746496
30
0
10
-10.980223618257572
20
-17.312052241302776
30
0
10
-11.206820165097797
20
-18.322821030198917
30
0
10
-11.410996764103874
20
-19.372714870632681
30
0
10
-11.589638900650254
20
-20.514799366706875
30
0
10
-11.742799053774263
20
-21.777337989767748
30
0
10
-11.874398819295477
20
-23.150201224717343
30
0
10
-11.990914283290531
20
-24.59698113806402
30
0
10
-12.100151728996337
20
-26.065865709739946
30
0
10
-12.210007160454266
20
-27.500824311071952
30
0
10
-12.327192254600721
20
-28.853022189229151
30
0
10
-12.456068766323833
20
-30.091296484278331
30
0
10
-12.597209425062896
20
-31.215062624684062
30
0
10
-12.746804025667593
20
-32.259674463357143
30
0
10
-12.898382176607493
20
-33.281068788559196
30
0
10
-13.044086617205581
20
-34.344442540321644
30
0
10
-13.176168614321407
20
-35.510910678316172
30
0
10
-13.288286471406208
20
-36.826003401787439
30
0
10
-13.377151434080032
20
-38.304856938589829
30
0
10
-13.442360949172807
20
-39.934752326088407
30
0
10
-13.485633681176184
20
-41.68338953690261
30
0
10
-13.51024383321265
20
-43.505244609584388
30
0
10
-13.52036781739862
20
-45.348782854345899
30
0
10
-13.520478825475076
20
-47.163175845577889
30
0
10
-13.514696964477373
20
-48.905530669834619
30
0
10
-13.506214162262687
20
-50.547201154752486
30
0
10
-13.4965504071147
20
-52.082205334440211
30
0
10
-13.485384590019812
20
-53.528443273257437
30
0
10
-13.471129910406592
20
-54.919582546438633
30
0
10
-13.451323647380327
20
-56.299266663473162
30
0
10
-13.423090555338176
20
-57.714410952246567
30
0
10
-13.383578500629852
20
-59.208821849789828
30
0
10
-13.330397309177203
20
-60.816833211401928
30
0
10
-13.262077040755884
20
-62.5565630198383
30
0
10
-13.17845737682438
20
-64.424416355271447
30
0
10
-13.080478348011543
20
-66.400301814894391
30
0
10
-12.970025560042082
20
-68.451870441476501
30
0
10
-12.849754528479224
20
-70.539137916039351
30
0
10
-12.722923981557166
20
-72.618922797124256
30
0
10
-12.593225152760777
20
-74.649412059456949
30
0
10
-12.464613189840305
20
-76.594559746297818
30
0
10
-12.341136770155776
20
-78.428818031984463
30
0
10
-12.226770566216608
20
-80.14111613303362
30
0
10
-12.125241337040706
20
-81.740675931649264
30
0
10
-12.039877768718227
20
-83.255808639947801
30
0
10
-11.973480328354251
20
-84.726498939645097
30
0
10
-11.928186805749416
20
-86.19875513867234
30
0
10
-11.90533679981646
20
-87.718176883390711
30
0
10
-11.905343115297736
20
-89.323992664120283
30
0
10
-11.92754514285908
20
-91.04258255826322
30
0
10
-11.970105234064093
20
-92.881955550551197
30
0
10
-12.029796401403004
20
-94.823940989324598
30
0
10
-12.102349873309352
20
-96.828034844870643
30
0
10
-12.18303079247584
20
-98.839988627951087
30
0
10
-12.267140678667092
20
-100.79887179584105
30
0
10
-12.350549388032038
20
-102.64475898989119
30
0
10
-12.430216756467054
20
-104.32617438732188
30
0
10
-12.504713277985037
20
-105.8075820439438
30
0
10
-12.574753836819564
20
-107.07699315106468
30
0
10
-12.643695961551222
20
-108.1532000621462
30
0
10
-12.718136603880906
20
-109.0940672460658
30
0
10
-12.805848195142566
20
-109.9767795042126
30
0
10
-12.913525030476357
20
-110.87623049123202
30
0
10
-13.044725818728907
20
-111.84515821257662
30
0
10
-13.19743940761281
20
-112.89106928480301
30
0
10
-13.362669919524908
20
-113.96175397558424
30
0
10
-13.528659717618385
20
-114.97806415373
30
0
10
-13.684705705996167
20
-115.86337975708999
30
0
10
-13.824636709810969
20
-116.57000173735007
30
0
10
-13.951611366915646
20
-117.11715979144077
30
0
10
-14.078451849474447
20
-117.59023588935149
30
0
10
-14.220497299403858
20
-118.079043056402
30
0
10
-14.388840041670672
20
-118.61357468162856
30
0
10
-14.588451112447828
20
-119.16355462247046
30
0
10
-14.820699398751803
20
-119.68756256254331
30
0
10
-15.084557575604032
20
-120.17440302851804
30
0
10
-15.378278894255526
20
-120.63649328586821
30
0
10
-15.700844886028559
20
-121.08690185598437
30
0
10
-16.053460896017068
20
-121.52267051240605
30
0
10
-16.438177241134959
20
-121.93203778549193
30
0
10
-16.856447075114168
20
-122.3033734897401
30
0
10
-17.3080195641319
20
-122.63081847631808
30
0
10
-17.791073918546893
20
-122.91064266881841
30
0
10
-18.302134045315544
20
-123.13843864566897
30
0
10
-18.836127136030704
20
-123.30815096880487
30
0
10
-19.386561167769216
20
-123.41410023824582
30
0
10
-19.945560284369904
20
-123.4523868131474
30
0
10
-20.504541015230046
20
-123.42153655289339
30
0
10
-21.055138525977153
20
-123.32247963162445
30
0
10
-21.590112337853583
20
-123.15882425805306
30
0
10
-22.103231197942105
20
-122.93574072825592
30
0
10
-22.588987298704907
20
-122.65863862518751
30
0
10
-23.042510023866992
20
-122.332216291623
30
0
10
-23.460196669470914
20
-121.96131142548467
30
0
10
-23.840465928333948
20
-121.55186415982419
30
0
10
-24.183884079545216
20
-121.1109634222434
30
0
10
-24.492088927292187
20
-120.64535328263473
30
0
10
-24.766996261984712
20
-120.15994011015856
30
0
10
-25.009905283553067
20
-119.6577202824281
30
0
10
-25.220898263067497
20
-119.14081415097306
30
0
10
-25.397717735045685
20
-118.61124476582027
30
0
10
-25.538262736820542
20
-118.07152398819711
30
0
10
-25.644032984179663
20
-117.52550206762751
30
0
10
-25.722944537787129
20
-116.97835359815056
30
0
10
-25.784458687488794
20
-116.42403427656023
30
0
10
-25.834142945755548
20
-115.83014165553445
30
0
10
-25.870361454419889
20
-115.13159024089917
30
0
10
-25.888079397109056
20
-114.25403288037393
30
0
10
-25.881277331778861
20
-113.1309006539381
30
0
10
-25.846283027171108
20
-111.72576153297729
30
0
10
-25.783503149577133
20
-110.04324077450227
30
0
10
-25.696284675893992
20
-108.1178643121157
30
0
10
-25.590353695742142
20
-106.00741470059015
30
0
10
-25.473023937654883
20
-103.78447850239199
30
0
10
-25.352505942151531
20
-101.52879482283909
30
0
10
-25.23716761938968
20
-99.319193256299187
30
0
10
-25.134828132303788
20
-97.225862080082351
30
0
10
-25.052008621747927
20
-95.302117377129804
30
0
10
-24.993269140132959
20
-93.577224668381902
30
0
10
-24.960333970183871
20
-92.046606002907424
30
0
10
-24.952424775578383
20
-90.677004116156468
30
0
10
-24.966989494866183
20
-89.416548131234151
30
0
10
-25.000300808975673
20
-88.203205996989283
30
0
10
-25.048107450700826
20
-86.97388563257789
30
0
10
-25.106266609968166
20
-85.673315943429287
30
0
10
-25.171375515162818
20
-84.262884642649169
30
0
10
-25.241427916432301
20
-82.729872972521946
30
0
10
-25.315554448408626
20
-81.0825618711646
30
0
10
-25.393729529746437
20
-79.344823235692715
30
0
10
-25.476491613142596
20
-77.55091946699163
30
0
10
-25.564655470718947
20
-75.740172604165707
30
0
10
-25.65903329073727
20
-73.951787917844044
30
0
10
-25.760139475763214
20
-72.219382612897618
30
0
10
-25.867931770771495
20
-70.566176856951913
30
0
10
-25.98146237816848
20
-68.998541347244611
30
0
10
-26.098951790310679
20
-67.507264566439758
30
0
10
-26.218071905071902
20
-66.072640841112829
30
0
10
-26.336164743278289
20
-64.668384911253426
30
0
10
-26.450485013624757
20
-63.265976051028822
30
0
10
-26.55843910071723
20
-61.838950679208757
30
0
10
-26.657810078634018
20
-60.366907545068671
30
0
10
-26.747026376208471
20
-58.840387671932461
30
0
10
-26.825285572058025
20
-57.262861173705161
30
0
10
-26.892382209234981
20
-55.646800525147874
30
0
10
-26.948598561307033
20
-54.011018849933031
30
0
10
-26.994569846720395
20
-52.377478940975919
30
0
10
-27.031161255528204
20
-50.768382417640495
30
0
10
-27.059337836713105
20
-49.203013233362924
30
0
10
-27.080042281142394
20
-47.694979436348589
30
0
10
-27.094057366700063
20
-46.248559188154104
30
0
10
-27.10192299544245
20
-44.858332562388945
30
0
10
-27.103905996909607
20
-43.511950076950924
30
0
10
-27.099954206818254
20
-42.1920513170991
30
0
10
-27.089659768286019
20
-40.87851139251012
30
0
10
-27.072212041840515
20
-39.550592368153097
30
0
10
-27.046370073206209
20
-38.189028994373672
30
0
10
-27.010387821940036
20
-36.778416746312999
30
0
10
-26.96219806927353
20
-35.307789111127278
30
0
10
-26.899688241077286
20
-33.770545106964754
30
0
10
-26.820945327703317
20
-32.164588688098611
30
0
10
-26.724515270568073
20
-30.492384702041591
30
0
10
-26.609652535065891
20
-28.761039281376863
30
0
10
-26.476582311582444
20
-26.982396434154651
30
0
10
-26.326737490808455
20
-25.173064880845768
30
0
10
-26.16305972922417
20
-23.354643967908345
30
0
10
-25.989491612210394
20
-21.551377175441111
30
0
10
-25.81038555836852
20
-19.787536630142153
30
0
10
-25.629946279546708
20
-18.084921910624384
30
0
10
-25.451650654442002
20
-16.460270251521315
30
0
10
-25.277696802193329
20
-14.922798099099815
30
0
10
-25.108395251748338
20
-13.47146911752532
30
0
10
-24.941691112668622
20
-12.092887632082107
30
0
10
-24.772363482979895
20
-10.757647911112446
30
0
10
-24.592586095581098
20
-9.4231981773967366
30
0
10
-24.393383753842578
20
-8.0409914288883968
30
0
10
-24.165814898601621
20
-6.5623266496029622
30
0
10
-23.90228036781081
20
-4.9447912756906458
30
0
10
-23.597747873590968
20
-3.1583065845387419
30
0
10
-23.25108293960006
20
-1.1916679412088509
30
0
10
-22.866169219542435
20
0.94188858231905204
30
0
10
-22.45354727504861
20
3.1967258526390872
30
0
10
-22.028829548984259
20
5.5017277835855438
30
0
10
-21.610221867622528
20
7.7713488449658055
30
0
10
-21.2163308471923
20
9.9153375006211544
30
0
10
-20.863884937404912
20
11.848872604952787
30
0
10
-20.565415559924659
20
13.502850787360819
30
0
10
-20.327134025959683
20
14.833347080103852
30
0
10
-20.146308845791722
20
15.833202752840673
30
0
10
-20.009829555979145
20
16.538554627553971
30
0
10
-19.88983594620424
20
17.047870531878356
30
0
10
-19.751271202689132
20
17.490396409500718
30
0
10
-19.566046339969386
20
17.967445434170614
30
0
10
-19.327683758165719
20
18.489807555514474
30
0
10
-19.046273244890312
20
19.012131860981807
30
0
10
-18.738371460634291
20
19.491889024195345
30
0
10
-18.41916880194292
20
19.936985810811301
30
0
10
-18.104178234894533
20
20.380060571760108
30
0
10
-17.812005289348022
20
20.851094695464347
30
0
10
-17.563883413433953
20
21.357905275813916
30
0
10
-17.375499354384992
20
21.89492598414061
30
0
10
-17.248051612158804
20
22.443873870587254
30
0
10
-17.166839661287472
20
22.98784964680323
30
0
10
-17.108697356539992
20
23.532783770433635
30
0
10
-17.047502832922007
20
24.134050697784968
30
0
10
-16.958129916060372
20
24.883700427976699
30
0
10
-16.819056758499656
20
25.879655491909666
30
0
10
-16.615229060566403
20
27.202452435021733
30
0
10
-16.341371130347152
20
28.884685912495907
30
0
10
-16.001114281130484
20
30.913365355539813
30
0
10
-15.604939233557486
20
33.240393673392646
30
0
10
-15.168522344010269
20
35.790342492140567
30
0
10
-14.710914785666072
20
38.469349693015566
30
0
10
-14.252788385324159
20
41.17355224641301
30
0
10
-13.814664742999065
20
43.797678396742789
30
0
10
-13.415123826856295
20
46.243665161125207
30
0
10
-13.069085788129861
20
48.429046693227704
30
0
10
-12.785911461684432
20
50.295949074214683
30
0
10
-12.567932207233927
20
51.818633322913911
30
0
10
-12.407895312433075
20
53.014714538307842
30
0
10
-12.292110532981413
20
53.93699530413987
30
0
10
-12.205737613155545
20
54.657905866484491
30
0
10
-12.137489080293964
20
55.256163423011728
30
0
10
-12.084323928018899
20
55.802920662346381
30
0
10
-12.056865618484858
20
56.34709137255058
30
0
10
-12.068866946781952
20
56.912232238284702
30
0
10
-12.123365248029438
20
57.491603334832959
30
0
10
-12.204344224015106
20
58.050392847190835
30
0
10
-12.294385466180282
20
58.560670183916201
30
0
10
-12.394537662351867
20
59.044345059919117
30
0
10
-12.529317085962347
20
59.579965267778618
30
0
10
-12.724838823700155
20
60.247473237759841
30
0
10
-12.988587144003175
20
61.075197238886716
30
0
10
-13.305920681448606
20
62.031960964490267
30
0
10
-13.651579844887314
20
63.058469729410589
30
0
10
-13.996926806084677
20
64.087650288724916
30
0
10
-14.318348142078035
20
65.067802827178582
30
0
10
-14.606713974500718
20
65.989074536401816
30
0
10
-14.865307788878825
20
66.876264311889997
30
0
10
-15.104365984849631
20
67.771807938000947
30
0
10
-15.336758978826436
20
68.722057372694223
30
0
10
-15.573231697517393
20
69.762307817043336
30
0
10
-15.817728594634254
20
70.902007625199587
30
0
10
-16.068807879652415
20
72.130792328491566
30
0
10
-16.321236202954211
20
73.42513109908721
30
0
10
-16.567498380525105
20
74.754653223281821
30
0
10
-16.799379484535542
20
76.088807750179043
30
0
10
-17.009430687764713
20
77.40291705150436
30
0
10
-17.192706732338554
20
78.68569703625721
30
0
10
-17.346743303588738
20
79.937170015664236
30
0
10
-17.471084524205121
20
81.164068123209574
30
0
10
-17.566962417962632
20
82.376174732030591
30
0
10
-17.636914206820443
20
83.582079995409217
30
0
10
-17.684422855532389
20
84.785637004792875
30
0
10
-17.713556319300185
20
85.980990662097128
30
0
10
-17.728567916792652
20
87.153348306247906
30
0
10
-17.733465851574316
20
88.283537076427734
30
0
10
-17.731591232343536
20
89.351444438616582
30
0
10
-17.725194720561731
20
90.339896670388924
30
0
10
-17.715008760548439
20
91.238403218694714
30
0
10
-17.699833574801946
20
92.046816584058234
30
0
10
-17.676130543917655
20
92.776959650119736
30
0
10
-17.637681389801546
20
93.454083233109273
30
0
10
-17.575086870654996
20
94.118963559094354
30
0
10
-17.475730649716571
20
94.828042937923996
30
0
10
-17.327258524108416
20
95.638738761159601
30
0
10
-17.120501211357684
20
96.597051338595307
30
0
10
-16.853005178510003
20
97.722732649773363
30
0
10
-16.531121451731352
20
99.00016353955769
30
0
10
-16.166808039551061
20
100.3901223142549
30
0
10
-15.77520089536597
20
101.83849051011883
30
0
10
-15.371945147328294
20
103.2859729542119
30
0
10
-14.97049062712442
20
104.67780026334516
30
0
10
-14.57972410890817
20
105.97247210031935
30
0
10
-14.200668563712602
20
107.15328386441018
30
0
10
-13.826478919289132
20
108.22995178445909
30
0
10
-13.446832107637727
20
109.22705806634696
30
0
10
-13.0511726303034
20
110.17588148093424
30
0
10
-12.632524321229752
20
111.10465238644223
30
0
10
-12.190821491866458
20
112.02995558436632
30
0
10
-11.737087623168474
20
112.94636755426667
30
0
10
-11.288124795905283
20
113.83486292449804
30
0
10
-10.860101717521498
20
114.67332057935997
30
0
10
-10.462740109415565
20
115.44598761229055
30
0
10
-10.092773166879693
20
116.15406429228669
30
0
10
-9.7291113328639494
20
116.82381405094276
30
0
10
-9.3461585234887643
20
117.48907157159377
30
0
10
-8.9249861308988887
20
118.17663823094645
30
0
10
-8.4668289412281563
20
118.88872202937888
30
0
10
-8.0010835319303926
20
119.59218646849976
30
0
10
-7.564326434363295
20
120.24326164361517
30
0
10
-7.1849726574642592
20
120.8054858778287
30
0
10
-6.8617168412561105
20
121.27493452704067
30
0
10
-6.5566914247865915
20
121.68839053037699
30
0
10
-6.2248641284648265
20
122.08978360511819
30
0
10
-5.8440899452347086
20
122.49568621149299
30
0
10
-5.421713024072309
20
122.88850856289797
30
0
10
-4.9733319503187561
20
123.24243373966935
30
0
10
-4.5054634006688881
20
123.5448287853189
30
0
10
-4.0153112943983231
20
123.79718819037635
30
0
10
-3.5001440557253334
20
124.00456354171612
30
0
10
-2.9640351241903771
20
124.16829401204939
30
0
10
-2.4150657274183516
20
124.28767467230684
30
0
10
-1.8607767495611427
20
124.36349925540696
30
0
10
-1.3049310576396114
20
124.40016808610505
30
0
10
-0.74901498069227179
20
124.40311607372074
30
0
10
-0.19321780683127895
20
124.37639117038815
30
0
10
0.36216958852387232
20
124.32100080776424
30
0
10
0.91554470565082391
20
124.23528982893232
30
0
10
1.4619776018725585
20
124.11450331212711
30
0
10
1.9944712603706352
20
123.95209817881451
30
0
10
2.5071164753036861
20
123.74205541477239
30
0
10
2.9984317447837707
20
123.48096407837686
30
0
10
3.4687479967388546
20
123.17003773101501
30
0
10
3.9157441792763805
20
122.81737605361128
30
0
10
4.3312567375505999
20
122.43948299999609
30
0
10
4.7096920881449869
20
122.05085262811379
30
0
10
5.0583467260021244
20
121.65155802775814
30
0
10
5.4015241024860554
20
121.22159471581055
30
0
10
5.7671954164299262
20
120.73469021024155
30
0
10
6.1743569964194265
20
120.17096437218926
30
0
10
6.6279749639128926
20
119.52253945158397
30
0
10
7.1246179955083395
20
118.78887970055987
30
0
10
7.6550092744405873
20
117.97508612708032
30
0
10
8.2082933850525936
20
117.08858738429498
30
0
10
8.7736637980778287
20
116.13816936437806
30
0
10
9.3404648794723695
20
115.13430572629809
30
0
10
9.8986983911222186
20
114.08914746070204
30
0
10
10.439364877654127
20
113.01665059451147
30
0
10
10.954877522695002
20
111.93264543597168
30
0
10
11.439440253382791
20
110.854925840753
30
0
10
11.889112983740777
20
109.8005229090635
30
0
10
12.301861851231152
20
108.78312349351837
30
0
10
12.677639874934846
20
107.81021176886257
30
0
10
13.018399060645713
20
106.88083470070389
30
0
10
13.328268573791721
20
105.98185675755305
30
0
10
13.61314297332286
20
105.08957701257813
30
0
10
13.879630479997312
20
104.17713164120858
30
0
10
14.134136887157991
20
103.220715874383
30
0
10
14.381964164303898
20
102.20555513500975
30
0
10
14.626226819829157
20
101.1338233735932
30
0
10
14.867781616985623
20
100.02197505169774
30
0
10
15.105644353461162
20
98.893078625827712
30
0
10
15.337249484895263
20
97.770638837898218
30
0
10
15.558779900788229
20
96.672022957676717
30
0
10
15.765455130669903
20
95.601528115423491
30
0
10
15.951871761324083
20
94.545162011408763
30
0
10
16.112648253346659
20
93.478442515181698
30
0
10
16.243022719124383
20
92.372677257895205
30
0
10
16.33950334595902
20
91.202131687197323
30
0
10
16.40041702699753
20
89.95012452127078
30
0
10
16.426700529890837
20
88.617322752386386
30
0
10
16.421680752987772
20
87.22116098414871
30
0
10
16.390188036532795
20
85.789440661666163
30
0
10
16.337865071257411
20
84.355636052356786
30
0
10
16.270402483580693
20
82.953556485687017
30
0
10
16.192788779943172
20
81.612144821639689
30
0
10
16.108594264872366
20
80.350545864994274
30
0
10
16.019134822580316
20
79.172196115705276
30
0
10
15.923583403618405
20
78.066617108726419
30
0
10
15.819290653638156
20
77.012860793617946
30
0
10
15.702019338092956
20
75.982359807892664
30
0
10
15.566246290943957
20
74.942082608371038
30
0
10
15.40536015674531
20
73.857425800821005
30
0
10
15.212143542915374
20
72.69563300195739
30
0
10
14.979995153516658
20
71.430372594090073
30
0
10
14.704031557797956
20
70.04623796667201
30
0
10
14.382203829333298
20
68.543002691685231
30
0
10
14.016482793543531
20
66.940610782703629
30
0
10
13.613840027586638
20
65.282380294046661
30
0
10
13.1877488305149
20
63.642615073166255
30
0
10
12.757757744141518
20
62.117867094295327
30
0
10
12.347112427551576
20
60.801069639337356
30
0
10
11.980906964467227
20
59.761162925305953
30
0
10
11.684014744263047
20
59.018603452499732
30
0
10
11.479123434832141
20
58.526954853420776
30
0
10
11.384700349285776
20
58.14146628057852
30
0
10
11.413100585807738
20
57.626335945341076
30
0
10
11.569407837746521
20
56.738907872985763
30
0
10
11.849627303592511
20
55.313304868697266
30
0
10
12.241020602545994
20
53.289300738421915
30
0
10
12.724262563891152
20
50.684723959814832
30
0
10
13.275089550593799
20
47.584123275684327
30
0
10
13.866155522793628
20
44.120746970125907
30
0
10
14.468800306244562
20
40.461374114325395
30
0
10
15.054852691839219
20
36.789952950941732
30
0
10
15.598425321888886
20
33.291674448427429
30
0
10
16.077697385420716
20
30.137041565428909
30
0
10
16.476739214656092
20
27.465515223310334
30
0
10
16.787233933847631
20
25.370329168340326
30
0
10
17.010441103409544
20
23.880506822025495
30
0
10
17.158593935010895
20
22.949446877547576
30
0
10
17.257697347339519
20
22.427357443204411
30
0
10
17.344663271094113
20
22.096254152242366
30
0
10
17.45947489681528
20
21.747939916376108
30
0
10
17.639640124012587
20
21.260354808669053
30
0
10
17.907978152375733
20
20.602232561822163
30
0
10
18.259067883038753
20
19.814142772738702
30
0
10
18.645952629345427
20
18.998083956609047
30
0
10
19.005273207546015
20
18.265670654717873
30
0
10
19.281808629590774
20
17.689595540836525
30
0
10
19.454702824790512
20
17.250073376613784
30
0
10
19.559004904429141
20
16.793395214056876
30
0
10
19.655549300258851
20
16.115848902272049
30
0
10
19.800618702579492
20
15.050078768359471
30
0
10
20.025453800670931
20
13.52162776080257
30
0
10
20.343546316502938
20
11.523567413835119
30
0
10
20.752405388022687
20
9.1073552784599414
30
0
10
21.237527394950252
20
6.3672257797740928
30
0
10
21.775423105453854
20
3.4273497857076931
30
0
10
22.337053288065416
20
0.42778943985100215
30
0
10
22.891081241742981
20
-2.4889951783065603
30
0
10
23.40722061924378
20
-5.1919530814239732
30
0
10
23.859503852820559
20
-7.5749374713719844
30
0
10
24.229674064756644
20
-9.5707471565669184
30
0
10
24.510313507693084
20
-11.163962753591509
30
0
10
24.708647307183995
20
-12.406892597487255
30
0
10
24.842646884965809
20
-13.400082008125898
30
0
10
24.936340336779889
20
-14.269215131755121
30
0
10
25.015273536544381
20
-15.142614427276211
30
0
10
25.10220565831289
20
-16.130042049267288
30
0
10
25.211983323063833
20
-17.297183394986011
30
0
10
25.349211660064501
20
-18.654731802312
30
0
10
25.511269469346864
20
-20.175336535505032
30
0
10
25.690158212956561
20
-21.804473010569474
30
0
10
25.874815950986317
20
-23.473733694886036
30
0
10
26.053237955495018
20
-25.113118095469172
30
0
10
26.214667820562234
20
-26.663674489642162
30
0
10
26.351788230824237
20
-28.090177167485546
30
0
10
26.462828008144889
20
-29.393266283991011
30
0
10
26.550123063249714
20
-30.599554028409656
30
0
10
26.618764698896065
20
-31.752265482477032
30
0
10
26.67522905815467
20
-32.901775938252584
30
0
10
26.725983033530547
20
-34.095972514085837
30
0
10
26.776174408564
20
-35.371207264892696
30
0
10
26.82809033004046
20
-36.741634992306508
30
0
10
26.881552237292333
20
-38.202042338156005
30
0
10
26.934655833424685
20
-39.733087051975758
30
0
10
26.984396534027834
20
-41.305724614041281
30
0
10
27.027330171277526
20
-42.885914814364732
30
0
10
27.060248324523002
20
-44.439350324819159
30
0
10
27.080777756404665
20
-45.935843106477627
30
0
10
27.088185034549916
20
-47.354682419486586
30
0
10
27.083395155268775
20
-48.686247982715294
30
0
10
27.068264777150688
20
-49.930104423501746
30
0
10
27.045071153121938
20
-51.094059431986551
30
0
10
27.015890969603976
20
-52.192843742741097
30
0
10
26.982076677765363
20
-53.246915703754794
30
0
10
26.943569031478447
20
-54.281303207644385
30
0
10
26.898684676538704
20
-55.324126513952109
30
0
10
26.844918554233558
20
-56.404328418721505
30
0
10
26.779528154282065
20
-57.549596804890434
30
0
10
26.700225031783273
20
-58.78415546231011
30
0
10
26.605773539482112
20
-60.126738045738151
30
0
10
26.496751612302209
20
-61.588153230939149
30
0
10
26.375336996993674
20
-63.171470038158908
30
0
10
26.244847373086621
20
-64.872872990897349
30
0
10
26.10936387914829
20
-66.682290358645147
30
0
10
25.973319437274974
20
-68.584116700485254
30
0
10
25.841102836081959
20
-70.557896396910863
30
0
10
25.716654555508399
20
-72.579020233864057
30
0
10
25.603069577220573
20
-74.619424805167583
30
0
10
25.502189026823917
20
-76.6482704657179
30
0
10
25.414219473996432
20
-78.632684839692672
30
0
10
25.338168294011925
20
-80.5404725916204
30
0
10
25.272255428606719
20
-82.342775802391259
30
0
10
25.214331894833361
20
-84.016732350564496
30
0
10
25.162300116599742
20
-85.548181748210581
30
0
10
25.114522604865968
20
-86.934242973342904
30
0
10
25.070260916567722
20
-88.186197987335206
30
0
10
25.030042284524182
20
-89.33165588398019
30
0
10
24.996210164764022
20
-90.418541788025294
30
0
10
24.97244327570624
20
-91.508847039003683
30
0
10
24.962906739064078
20
-92.668708999642163
30
0
10
24.971540798456218
20
-93.959895454101456
30
0
10
25.001255676410864
20
-95.430267979123698
30
0
10
25.053251354557297
20
-97.105693423353046
30
0
10
25.126073156230863
20
-98.978821163308893
30
0
10
25.21566165333164
20
-101.00971802607677
30
0
10
25.316229698665271
20
-103.13638142198698
30
0
10
25.420907403107154
20
-105.28247379026945
30
0
10
25.522477601507163
20
-107.36615548227419
30
0
10
25.61408345626349
20
-109.30854333569872
30
0
10
25.689922720593664
20
-111.04210650794695
30
0
10
25.746006621064641
20
-112.51960953048044
30
0
10
25.780753527140014
20
-113.72160619719031
30
0
10
25.795989480350748
20
-114.66751667563416
30
0
10
25.796588805022932
20
-115.41486832610514
30
0
10
25.787314608861323
20
-116.03570233313901
30
0
10
25.770716107102672
20
-116.60000029721225
30
0
10
25.743634486398889
20
-117.15196913364741
30
0
10
25.697736967893569
20
-117.70497478181042
30
0
10
25.624279533586591
20
-118.25737349236825
30
0
10
25.518868021493709
20
-118.80517385346025
30
0
10
25.381187845726384
20
-119.34619960299685
30
0
10
25.21195440053711
20
-119.878070515437
30
0
10
25.01049449083898
20
-120.39817376142014
30
0
10
24.775407146250515
20
-120.9036210184138
30
0
10
24.505924488134049
20
-121.39173101517309
30
0
10
24.202764349359857
20
-121.86018158534472
30
0
10
23.8670486092437
20
-122.30630276466579
30
0
10
23.499073868955346
20
-122.72627769956625
30
0
10
23.097926224390033
20
-123.11476837178267
30
0
10
22.662876369749476
20
-123.46547851416369
30
0
10
22.194568270840549
20
-123.77152737981247
30
0
10
21.695628907752244
20
-124.02588367319831
30
0
10
21.170548421337706
20
-124.22180188860233
30
0
10
20.734825588435047
20
-124.32690151617069
30
0
10
20.402799244820816
20
-124.37466731551226
30
0
10
20.180242655586142
20
-124.39248923959843
30
0
10
20.068800000000003
20
-124.39790000000002
30
0
0
ENDSEC
0
SECTION
2
OBJECTS
0
DICTIONARY
5
C
100
AcDbDictionary
3
ACAD_GROUP
350
D
3
ACAD_MLINESTYLE
350
17
0
DICTIONARY
5
D
100
AcDbDictionary
0
DICTIONARY
5
1A
330
C
100
AcDbDictionary
0
DICTIONARY
5
17
100
AcDbDictionary
0
ENDSEC
0
EOF
