0
SECTION
2
HEADER
9
$INSUNITS
70
4
9
$ACADVER
1
AC1014
9
$HANDSEED
5
FFFF
0
ENDSEC
0
SECTION
2
TABLES
0
TABLE
2
VPORT
5
8
100
AcDbSymbolTable
0
ENDTAB
0
TABLE
2
LTYPE
5
5
100
AcDbSymbolTable
0
LTYPE
5
14
100
AcDbSymbolTableRecord
100
AcDbLinetypeTableRecord
2
BYBLOCK
70
0
0
LTYPE
5
15
100
AcDbSymbolTableRecord
100
AcDbLinetypeTableRecord
2
BYLAYER
70
0
0
LTYPE
5
16
100
AcDbSymbolTableRecord
100
AcDbLinetypeTableRecord
2
DASHED
70
0
3
Dashed __ __ __ __ __ __ __ __ __ __ __ __ __ _
72
65
73
2
40
0.75
49
0.5
74
0
49
-0.25
74
0
0
ENDTAB
0
TABLE
2
LAYER
5
2
100
AcDbSymbolTable
70
2
0
LAYER
5
50
100
AcDbSymbolTableRecord
100
AcDbLayerTableRecord
2
0
70
0
62
7
6
CONTINUOUS
0
ENDTAB
0
TABLE
2
STYLE
5
3
100
AcDbSymbolTable
70
1
0
STYLE
5
11
100
AcDbSymbolTableRecord
100
AcDbTextStyleTableRecord
2
STANDARD
70
0
0
ENDTAB
0
TABLE
2
VIEW
5
6
100
AcDbSymbolTable
70
0
0
ENDTAB
0
TABLE
2
UCS
5
7
100
AcDbSymbolTable
70
0
0
ENDTAB
0
TABLE
2
APPID
5
9
100
AcDbSymbolTable
70
2
0
APPID
5
12
100
AcDbSymbolTableRecord
100
AcDbRegAppTableRecord
2
ACAD
70
0
0
ENDTAB
0
TABLE
2
DIMSTYLE
5
A
100
AcDbSymbolTable
70
1
0
ENDTAB
0
TABLE
2
BLOCK_RECORD
5
1
100
AcDbSymbolTable
70
1
0
BLOCK_RECORD
5
1F
100
AcDbSymbolTableRecord
100
AcDbBlockTableRecord
2
*MODEL_SPACE
0
BLOCK_RECORD
5
1B
100
AcDbSymbolTableRecord
100
AcDbBlockTableRecord
2
*PAPER_SPACE
0
ENDTAB
0
ENDSEC
0
SECTION
2
BLOCKS
0
BLOCK
5
20
100
AcDbEntity
100
AcDbBlockBegin
2
*MODEL_SPACE
0
ENDBLK
5
21
100
AcDbEntity
100
AcDbBlockEnd
0
BLOCK
5
1C
100
AcDbEntity
100
AcDbBlockBegin
2
*PAPER_SPACE
0
ENDBLK
5
1D
100
AcDbEntity
100
AcDbBlockEnd
0
ENDSEC
0
SECTION
2
ENTITIES
0
SPLINE
5
100
100
AcDbEntity
8
0
100
AcDbSpline
70
6
71
5
72
721
73
715
74
0
42
0.000000001
43
0.0000000001
44
0.0000000001
40
0
40
0
40
0
40
0
40
0
40
0
40
0.0014084507042253522
40
0.0028169014084507044
40
0.0042253521126760568
40
0.0056338028169014088
40
0.0070422535211267607
40
0.0084507042253521136
40
0.0098591549295774655
40
0.011267605633802818
40
0.012676056338028169
40
0.014084507042253521
40
0.015492957746478873
40
0.016901408450704227
40
0.018309859154929581
40
0.019718309859154935
40
0.021126760563380288
40
0.022535211267605642
40
0.023943661971830996
40
0.025352112676056349
40
0.026760563380281703
40
0.028169014084507057
40
0.02957746478873241
40
0.030985915492957764
40
0.032394366197183118
40
0.033802816901408468
40
0.035211267605633818
40
0.036619718309859169
40
0.038028169014084519
40
0.039436619718309869
40
0.040845070422535219
40
0.04225352112676057
40
0.04366197183098592
40
0.04507042253521127
40
0.04647887323943662
40
0.04788732394366197
40
0.049295774647887321
40
0.050704225352112671
40
0.052112676056338021
40
0.053521126760563371
40
0.054929577464788722
40
0.056338028169014072
40
0.057746478873239422
40
0.059154929577464772
40
0.060563380281690123
40
0.061971830985915473
40
0.06338028169014083
40
0.06478873239436618
40
0.06619718309859153
40
0.067605633802816881
40
0.069014084507042231
40
0.070422535211267581
40
0.071830985915492931
40
0.073239436619718282
40
0.074647887323943632
40
0.076056338028168982
40
0.077464788732394332
40
0.078873239436619683
40
0.080281690140845033
40
0.081690140845070383
40
0.083098591549295733
40
0.084507042253521084
40
0.085915492957746434
40
0.087323943661971784
40
0.088732394366197134
40
0.090140845070422485
40
0.091549295774647835
40
0.092957746478873185
40
0.094366197183098535
40
0.095774647887323885
40
0.097183098591549236
40
0.098591549295774586
40
0.099999999999999936
40
0.10140845070422529
40
0.10281690140845064
40
0.10422535211267599
40
0.10563380281690134
40
0.10704225352112669
40
0.10845070422535204
40
0.10985915492957739
40
0.11126760563380274
40
0.11267605633802809
40
0.11408450704225344
40
0.11549295774647879
40
0.11690140845070414
40
0.11830985915492949
40
0.11971830985915484
40
0.12112676056338019
40
0.12253521126760554
40
0.12394366197183089
40
0.12535211267605625
40
0.1267605633802816
40
0.12816901408450695
40
0.12957746478873231
40
0.13098591549295766
40
0.13239436619718301
40
0.13380281690140836
40
0.13521126760563371
40
0.13661971830985906
40
0.13802816901408441
40
0.13943661971830976
40
0.14084507042253511
40
0.14225352112676046
40
0.14366197183098581
40
0.14507042253521116
40
0.14647887323943651
40
0.14788732394366186
40
0.14929577464788721
40
0.15070422535211256
40
0.15211267605633791
40
0.15352112676056326
40
0.15492957746478861
40
0.15633802816901396
40
0.15774647887323931
40
0.15915492957746466
40
0.16056338028169001
40
0.16197183098591536
40
0.16338028169014071
40
0.16478873239436606
40
0.16619718309859141
40
0.16760563380281676
40
0.16901408450704211
40
0.17042253521126746
40
0.17183098591549281
40
0.17323943661971816
40
0.17464788732394351
40
0.17605633802816886
40
0.17746478873239421
40
0.17887323943661956
40
0.18028169014084491
40
0.18169014084507026
40
0.18309859154929561
40
0.18450704225352096
40
0.18591549295774631
40
0.18732394366197166
40
0.18873239436619701
40
0.19014084507042237
40
0.19154929577464772
40
0.19295774647887307
40
0.19436619718309842
40
0.19577464788732377
40
0.19718309859154912
40
0.19859154929577447
40
0.19999999999999982
40
0.20140845070422517
40
0.20281690140845052
40
0.20422535211267587
40
0.20563380281690122
40
0.20704225352112657
40
0.20845070422535192
40
0.20985915492957727
40
0.21126760563380262
40
0.21267605633802797
40
0.21408450704225332
40
0.21549295774647867
40
0.21690140845070402
40
0.21830985915492937
40
0.21971830985915472
40
0.22112676056338007
40
0.22253521126760542
40
0.22394366197183077
40
0.22535211267605612
40
0.22676056338028147
40
0.22816901408450682
40
0.22957746478873217
40
0.23098591549295752
40
0.23239436619718287
40
0.23380281690140822
40
0.23521126760563357
40
0.23661971830985892
40
0.23802816901408427
40
0.23943661971830962
40
0.24084507042253497
40
0.24225352112676032
40
0.24366197183098567
40
0.24507042253521102
40
0.24647887323943637
40
0.24788732394366172
40
0.24929577464788708
40
0.25070422535211245
40
0.2521126760563378
40
0.25352112676056315
40
0.2549295774647885
40
0.25633802816901385
40
0.2577464788732392
40
0.25915492957746455
40
0.2605633802816899
40
0.26197183098591525
40
0.26338028169014061
40
0.26478873239436596
40
0.26619718309859131
40
0.26760563380281666
40
0.26901408450704201
40
0.27042253521126736
40
0.27183098591549271
40
0.27323943661971806
40
0.27464788732394341
40
0.27605633802816876
40
0.27746478873239411
40
0.27887323943661946
40
0.28028169014084481
40
0.28169014084507016
40
0.28309859154929551
40
0.28450704225352086
40
0.28591549295774621
40
0.28732394366197156
40
0.28873239436619691
40
0.29014084507042226
40
0.29154929577464761
40
0.29295774647887296
40
0.29436619718309831
40
0.29577464788732366
40
0.29718309859154901
40
0.29859154929577436
40
0.29999999999999971
40
0.30140845070422506
40
0.30281690140845041
40
0.30422535211267576
40
0.30563380281690111
40
0.30704225352112646
40
0.30845070422535181
40
0.30985915492957716
40
0.31126760563380251
40
0.31267605633802786
40
0.31408450704225321
40
0.31549295774647856
40
0.31690140845070391
40
0.31830985915492926
40
0.31971830985915461
40
0.32112676056337996
40
0.32253521126760532
40
0.32394366197183067
40
0.32535211267605602
40
0.32676056338028137
40
0.32816901408450672
40
0.32957746478873207
40
0.33098591549295742
40
0.33239436619718277
40
0.33380281690140812
40
0.33521126760563347
40
0.33661971830985882
40
0.33802816901408417
40
0.33943661971830952
40
0.34084507042253487
40
0.34225352112676022
40
0.34366197183098557
40
0.34507042253521092
40
0.34647887323943627
40
0.34788732394366162
40
0.34929577464788697
40
0.35070422535211232
40
0.35211267605633767
40
0.35352112676056302
40
0.35492957746478837
40
0.35633802816901372
40
0.35774647887323907
40
0.35915492957746442
40
0.36056338028168977
40
0.36197183098591512
40
0.36338028169014047
40
0.36478873239436582
40
0.36619718309859117
40
0.36760563380281652
40
0.36901408450704187
40
0.37042253521126722
40
0.37183098591549257
40
0.37323943661971792
40
0.37464788732394327
40
0.37605633802816862
40
0.37746478873239397
40
0.37887323943661932
40
0.38028169014084467
40
0.38169014084507003
40
0.38309859154929538
40
0.38450704225352073
40
0.38591549295774608
40
0.38732394366197143
40
0.38873239436619678
40
0.39014084507042213
40
0.39154929577464748
40
0.39295774647887283
40
0.39436619718309818
40
0.39577464788732353
40
0.39718309859154888
40
0.39859154929577423
40
0.39999999999999958
40
0.40140845070422493
40
0.40281690140845028
40
0.40422535211267563
40
0.40563380281690098
40
0.40704225352112633
40
0.40845070422535168
40
0.40985915492957703
40
0.41126760563380238
40
0.41267605633802773
40
0.41408450704225308
40
0.41549295774647843
40
0.41690140845070378
40
0.41830985915492913
40
0.41971830985915448
40
0.42112676056337983
40
0.42253521126760518
40
0.42394366197183053
40
0.42535211267605588
40
0.42676056338028123
40
0.42816901408450658
40
0.42957746478873193
40
0.43098591549295728
40
0.43239436619718263
40
0.43380281690140798
40
0.43521126760563333
40
0.43661971830985868
40
0.43802816901408403
40
0.43943661971830938
40
0.44084507042253473
40
0.44225352112676009
40
0.44366197183098544
40
0.44507042253521079
40
0.44647887323943614
40
0.44788732394366149
40
0.44929577464788684
40
0.45070422535211219
40
0.45211267605633754
40
0.45352112676056289
40
0.45492957746478824
40
0.45633802816901359
40
0.45774647887323894
40
0.45915492957746429
40
0.46056338028168964
40
0.46197183098591499
40
0.46338028169014034
40
0.46478873239436569
40
0.46619718309859104
40
0.46760563380281639
40
0.46901408450704174
40
0.47042253521126709
40
0.47183098591549244
40
0.47323943661971779
40
0.47464788732394314
40
0.47605633802816849
40
0.47746478873239384
40
0.47887323943661919
40
0.48028169014084454
40
0.48169014084506989
40
0.48309859154929524
40
0.48450704225352059
40
0.48591549295774594
40
0.48732394366197129
40
0.48873239436619664
40
0.49014084507042199
40
0.49154929577464734
40
0.49295774647887269
40
0.49436619718309804
40
0.49577464788732339
40
0.49718309859154874
40
0.49859154929577409
40
0.49999999999999944
40
0.5014084507042248
40
0.50281690140845015
40
0.5042253521126755
40
0.50563380281690085
40
0.5070422535211262
40
0.50845070422535155
40
0.5098591549295769
40
0.51126760563380225
40
0.5126760563380276
40
0.51408450704225295
40
0.5154929577464783
40
0.51690140845070365
40
0.518309859154929
40
0.51971830985915435
40
0.5211267605633797
40
0.52253521126760505
40
0.5239436619718304
40
0.52535211267605575
40
0.5267605633802811
40
0.52816901408450645
40
0.5295774647887318
40
0.53098591549295715
40
0.5323943661971825
40
0.53380281690140785
40
0.5352112676056332
40
0.53661971830985855
40
0.5380281690140839
40
0.53943661971830925
40
0.5408450704225346
40
0.54225352112675995
40
0.5436619718309853
40
0.54507042253521065
40
0.546478873239436
40
0.54788732394366135
40
0.5492957746478867
40
0.55070422535211205
40
0.5521126760563374
40
0.55352112676056275
40
0.5549295774647881
40
0.55633802816901345
40
0.5577464788732388
40
0.55915492957746415
40
0.56056338028168951
40
0.56197183098591486
40
0.56338028169014021
40
0.56478873239436556
40
0.56619718309859091
40
0.56760563380281626
40
0.56901408450704161
40
0.57042253521126696
40
0.57183098591549231
40
0.57323943661971766
40
0.57464788732394301
40
0.57605633802816836
40
0.57746478873239371
40
0.57887323943661906
40
0.58028169014084441
40
0.58169014084506976
40
0.58309859154929511
40
0.58450704225352046
40
0.58591549295774581
40
0.58732394366197116
40
0.58873239436619651
40
0.59014084507042186
40
0.59154929577464721
40
0.59295774647887256
40
0.59436619718309791
40
0.59577464788732326
40
0.59718309859154861
40
0.59859154929577396
40
0.59999999999999931
40
0.60140845070422466
40
0.60281690140845001
40
0.60422535211267536
40
0.60563380281690071
40
0.60704225352112606
40
0.60845070422535141
40
0.60985915492957676
40
0.61126760563380211
40
0.61267605633802746
40
0.61408450704225281
40
0.61549295774647816
40
0.61690140845070351
40
0.61830985915492886
40
0.61971830985915421
40
0.62112676056337957
40
0.62253521126760492
40
0.62394366197183027
40
0.62535211267605562
40
0.62676056338028097
40
0.62816901408450632
40
0.62957746478873167
40
0.63098591549295702
40
0.63239436619718237
40
0.63380281690140772
40
0.63521126760563307
40
0.63661971830985842
40
0.63802816901408377
40
0.63943661971830912
40
0.64084507042253447
40
0.64225352112675982
40
0.64366197183098517
40
0.64507042253521052
40
0.64647887323943587
40
0.64788732394366122
40
0.64929577464788657
40
0.65070422535211192
40
0.65211267605633727
40
0.65352112676056262
40
0.65492957746478797
40
0.65633802816901332
40
0.65774647887323867
40
0.65915492957746402
40
0.66056338028168937
40
0.66197183098591472
40
0.66338028169014007
40
0.66478873239436542
40
0.66619718309859077
40
0.66760563380281612
40
0.66901408450704147
40
0.67042253521126682
40
0.67183098591549217
40
0.67323943661971752
40
0.67464788732394287
40
0.67605633802816822
40
0.67746478873239357
40
0.67887323943661892
40
0.68028169014084428
40
0.68169014084506963
40
0.68309859154929498
40
0.68450704225352033
40
0.68591549295774568
40
0.68732394366197103
40
0.68873239436619638
40
0.69014084507042173
40
0.69154929577464708
40
0.69295774647887243
40
0.69436619718309778
40
0.69577464788732313
40
0.69718309859154848
40
0.69859154929577383
40
0.69999999999999918
40
0.70140845070422453
40
0.70281690140844988
40
0.70422535211267523
40
0.70563380281690058
40
0.70704225352112593
40
0.70845070422535128
40
0.70985915492957663
40
0.71126760563380198
40
0.71267605633802733
40
0.71408450704225268
40
0.71549295774647803
40
0.71690140845070338
40
0.71830985915492873
40
0.71971830985915408
40
0.72112676056337943
40
0.72253521126760478
40
0.72394366197183013
40
0.72535211267605548
40
0.72676056338028083
40
0.72816901408450618
40
0.72957746478873153
40
0.73098591549295688
40
0.73239436619718223
40
0.73380281690140758
40
0.73521126760563293
40
0.73661971830985828
40
0.73802816901408363
40
0.73943661971830899
40
0.74084507042253434
40
0.74225352112675969
40
0.74366197183098504
40
0.74507042253521039
40
0.74647887323943574
40
0.74788732394366109
40
0.74929577464788644
40
0.75070422535211179
40
0.75211267605633714
40
0.75352112676056249
40
0.75492957746478784
40
0.75633802816901319
40
0.75774647887323854
40
0.75915492957746389
40
0.76056338028168924
40
0.76197183098591459
40
0.76338028169013994
40
0.76478873239436529
40
0.76619718309859064
40
0.76760563380281599
40
0.76901408450704134
40
0.77042253521126669
40
0.77183098591549204
40
0.77323943661971739
40
0.77464788732394274
40
0.77605633802816809
40
0.77746478873239344
40
0.77887323943661879
40
0.78028169014084414
40
0.78169014084506949
40
0.78309859154929484
40
0.78450704225352019
40
0.78591549295774554
40
0.78732394366197089
40
0.78873239436619624
40
0.79014084507042159
40
0.79154929577464694
40
0.79295774647887229
40
0.79436619718309764
40
0.79577464788732299
40
0.79718309859154834
40
0.79859154929577369
40
0.79999999999999905
40
0.8014084507042244
40
0.80281690140844975
40
0.8042253521126751
40
0.80563380281690045
40
0.8070422535211258
40
0.80845070422535115
40
0.8098591549295765
40
0.81126760563380185
40
0.8126760563380272
40
0.81408450704225255
40
0.8154929577464779
40
0.81690140845070325
40
0.8183098591549286
40
0.81971830985915395
40
0.8211267605633793
40
0.82253521126760465
40
0.82394366197183
40
0.82535211267605535
40
0.8267605633802807
40
0.82816901408450605
40
0.8295774647887314
40
0.83098591549295675
40
0.8323943661971821
40
0.83380281690140745
40
0.8352112676056328
40
0.83661971830985815
40
0.8380281690140835
40
0.83943661971830885
40
0.8408450704225342
40
0.84225352112675955
40
0.8436619718309849
40
0.84507042253521025
40
0.8464788732394356
40
0.84788732394366095
40
0.8492957746478863
40
0.85070422535211165
40
0.852112676056337
40
0.85352112676056235
40
0.8549295774647877
40
0.85633802816901305
40
0.8577464788732384
40
0.85915492957746376
40
0.86056338028168911
40
0.86197183098591446
40
0.86338028169013981
40
0.86478873239436516
40
0.86619718309859051
40
0.86760563380281586
40
0.86901408450704121
40
0.87042253521126656
40
0.87183098591549191
40
0.87323943661971726
40
0.87464788732394261
40
0.87605633802816796
40
0.87746478873239331
40
0.87887323943661866
40
0.88028169014084401
40
0.88169014084506936
40
0.88309859154929471
40
0.88450704225352006
40
0.88591549295774541
40
0.88732394366197076
40
0.88873239436619611
40
0.89014084507042146
40
0.89154929577464681
40
0.89295774647887216
40
0.89436619718309751
40
0.89577464788732286
40
0.89718309859154821
40
0.89859154929577356
40
0.89999999999999891
40
0.90140845070422426
40
0.90281690140844961
40
0.90422535211267496
40
0.90563380281690031
40
0.90704225352112566
40
0.90845070422535101
40
0.90985915492957636
40
0.91126760563380171
40
0.91267605633802706
40
0.91408450704225241
40
0.91549295774647776
40
0.91690140845070311
40
0.91830985915492847
40
0.91971830985915382
40
0.92112676056337917
40
0.92253521126760452
40
0.92394366197182987
40
0.92535211267605522
40
0.92676056338028057
40
0.92816901408450592
40
0.92957746478873127
40
0.93098591549295662
40
0.93239436619718197
40
0.93380281690140732
40
0.93521126760563267
40
0.93661971830985802
40
0.93802816901408337
40
0.93943661971830872
40
0.94084507042253407
40
0.94225352112675942
40
0.94366197183098477
40
0.94507042253521012
40
0.94647887323943547
40
0.94788732394366082
40
0.94929577464788617
40
0.95070422535211152
40
0.95211267605633687
40
0.95352112676056222
40
0.95492957746478757
40
0.95633802816901292
40
0.95774647887323827
40
0.95915492957746362
40
0.96056338028168897
40
0.96197183098591432
40
0.96338028169013967
40
0.96478873239436502
40
0.96619718309859037
40
0.96760563380281572
40
0.96901408450704107
40
0.97042253521126642
40
0.97183098591549177
40
0.97323943661971712
40
0.97464788732394247
40
0.97605633802816782
40
0.97746478873239317
40
0.97887323943661853
40
0.98028169014084388
40
0.98169014084506923
40
0.98309859154929458
40
0.98450704225351993
40
0.98591549295774528
40
0.98732394366197063
40
0.98873239436619598
40
0.99014084507042133
40
0.99154929577464668
40
0.99295774647887203
40
0.99436619718309738
40
0.99577464788732273
40
0.99718309859154808
40
0.99859154929577343
40
1
40
1
40
1
40
1
40
1
40
1
41
1
41
1
41
1
41
1
41
1
41
1
41
1
41
1
41
1
41
1
41
1
41
1
41
1
41
1
41
1
41
1
41
1
41
1
41
1
41
1
41
1
41
1
41
1
41
1
41
1
41
1
41
1
41
1
41
1
41
1
41
1
41
1
41
1
41
1
41
1
41
1
41
1
41
1
41
1
41
1
41
1
41
1
41
1
41
1
41
1
41
1
41
1
41
1
41
1
41
1
41
1
41
1
41
1
41
1
41
1
41
1
41
1
41
1
41
1
41
1
41
1
41
1
41
1
41
1
41
1
41
1
41
1
41
1
41
1
41
1
41
1
41
1
41
1
41
1
41
1
41
1
41
1
41
1
41
1
41
1
41
1
41
1
41
1
41
1
41
1
41
1
41
1
41
1
41
1
41
1
41
1
41
1
41
1
41
1
41
1
41
1
41
1
41
1
41
1
41
1
41
1
41
1
41
1
41
1
41
1
41
1
41
1
41
1
41
1
41
1
41
1
41
1
41
1
41
1
41
1
41
1
41
1
41
1
41
1
41
1
41
1
41
1
41
1
41
1
41
1
41
1
41
1
41
1
41
1
41
1
41
1
41
1
41
1
41
1
41
1
41
1
41
1
41
1
41
1
41
1
41
1
41
1
41
1
41
1
41
1
41
1
41
1
41
1
41
1
41
1
41
1
41
1
41
1
41
1
41
1
41
1
41
1
41
1
41
1
41
1
41
1
41
1
41
1
41
1
41
1
41
1
41
1
41
1
41
1
41
1
41
1
41
1
41
1
41
1
41
1
41
1
41
1
41
1
41
1
41
1
41
1
41
1
41
1
41
1
41
1
41
1
41
1
41
1
41
1
41
1
41
1
41
1
41
1
41
1
41
1
41
1
41
1
41
1
41
1
41
1
41
1
41
1
41
1
41
1
41
1
41
1
41
1
41
1
41
1
41
1
41
1
41
1
41
1
41
1
41
1
41
1
41
1
41
1
41
1
41
1
41
1
41
1
41
1
41
1
41
1
41
1
41
1
41
1
41
1
41
1
41
1
41
1
41
1
41
1
41
1
41
1
41
1
41
1
41
1
41
1
41
1
41
1
41
1
41
1
41
1
41
1
41
1
41
1
41
1
41
1
41
1
41
1
41
1
41
1
41
1
41
1
41
1
41
1
41
1
41
1
41
1
41
1
41
1
41
1
41
1
41
1
41
1
41
1
41
1
41
1
41
1
41
1
41
1
41
1
41
1
41
1
41
1
41
1
41
1
41
1
41
1
41
1
41
1
41
1
41
1
41
1
41
1
41
1
41
1
41
1
41
1
41
1
41
1
41
1
41
1
41
1
41
1
41
1
41
1
41
1
41
1
41
1
41
1
41
1
41
1
41
1
41
1
41
1
41
1
41
1
41
1
41
1
41
1
41
1
41
1
41
1
41
1
41
1
41
1
41
1
41
1
41
1
41
1
41
1
41
1
41
1
41
1
41
1
41
1
41
1
41
1
41
1
41
1
41
1
41
1
41
1
41
1
41
1
41
1
41
1
41
1
41
1
41
1
41
1
41
1
41
1
41
1
41
1
41
1
41
1
41
1
41
1
41
1
41
1
41
1
41
1
41
1
41
1
41
1
41
1
41
1
41
1
41
1
41
1
41
1
41
1
41
1
41
1
41
1
41
1
41
1
41
1
41
1
41
1
41
1
41
1
41
1
41
1
41
1
41
1
41
1
41
1
41
1
41
1
41
1
41
1
41
1
41
1
41
1
41
1
41
1
41
1
41
1
41
1
41
1
41
1
41
1
41
1
41
1
41
1
41
1
41
1
41
1
41
1
41
1
41
1
41
1
41
1
41
1
41
1
41
1
41
1
41
1
41
1
41
1
41
1
41
1
41
1
41
1
41
1
41
1
41
1
41
1
41
1
41
1
41
1
41
1
41
1
41
1
41
1
41
1
41
1
41
1
41
1
41
1
41
1
41
1
41
1
41
1
41
1
41
1
41
1
41
1
41
1
41
1
41
1
41
1
41
1
41
1
41
1
41
1
41
1
41
1
41
1
41
1
41
1
41
1
41
1
41
1
41
1
41
1
41
1
41
1
41
1
41
1
41
1
41
1
41
1
41
1
41
1
41
1
41
1
41
1
41
1
41
1
41
1
41
1
41
1
41
1
41
1
41
1
41
1
41
1
41
1
41
1
41
1
41
1
41
1
41
1
41
1
41
1
41
1
41
1
41
1
41
1
41
1
41
1
41
1
41
1
41
1
41
1
41
1
41
1
41
1
41
1
41
1
41
1
41
1
41
1
41
1
41
1
41
1
41
1
41
1
41
1
41
1
41
1
41
1
41
1
41
1
41
1
41
1
41
1
41
1
41
1
41
1
41
1
41
1
41
1
41
1
41
1
41
1
41
1
41
1
41
1
41
1
41
1
41
1
41
1
41
1
41
1
41
1
41
1
41
1
41
1
41
1
41
1
41
1
41
1
41
1
41
1
41
1
41
1
41
1
41
1
41
1
41
1
41
1
41
1
41
1
41
1
41
1
41
1
41
1
41
1
41
1
41
1
41
1
41
1
41
1
41
1
41
1
41
1
41
1
41
1
41
1
41
1
41
1
41
1
41
1
41
1
41
1
41
1
41
1
41
1
41
1
41
1
41
1
41
1
41
1
41
1
41
1
41
1
41
1
41
1
41
1
41
1
41
1
41
1
41
1
41
1
41
1
41
1
41
1
41
1
41
1
41
1
41
1
41
1
41
1
41
1
41
1
41
1
41
1
41
1
41
1
41
1
41
1
41
1
41
1
41
1
41
1
41
1
41
1
41
1
41
1
41
1
41
1
41
1
41
1
41
1
41
1
41
1
41
1
41
1
41
1
41
1
41
1
41
1
41
1
41
1
41
1
41
1
41
1
41
1
41
1
41
1
41
1
41
1
41
1
41
1
41
1
41
1
41
1
41
1
41
1
41
1
41
1
41
1
41
1
41
1
41
1
41
1
41
1
41
1
41
1
41
1
41
1
41
1
41
1
41
1
41
1
41
1
41
1
41
1
41
1
41
1
41
1
41
1
41
1
41
1
41
1
41
1
41
1
41
1
41
1
41
1
41
1
41
1
41
1
41
1
41
1
41
1
41
1
41
1
41
1
41
1
41
1
41
1
41
1
41
1
41
1
41
1
41
1
41
1
41
1
41
1
41
1
41
1
41
1
41
1
41
1
41
1
41
1
41
1
10
-29.0991
20
-88.200800000000015
30
0
10
-29.163921948237913
20
-88.181870661390178
30
0
10
-29.29387618388688
20
-88.142058235417409
30
0
10
-29.49291323814121
20
-88.076498532736622
30
0
10
-29.775662781237912
20
-87.977734140319242
30
0
10
-30.168288556367852
20
-87.835599216474833
30
0
10
-30.602414177502229
20
-87.672748285710924
30
0
10
-31.077652617297996
20
-87.482790747571357
30
0
10
-31.590010428772093
20
-87.258615199378212
30
0
10
-32.130053455417183
20
-86.997070126328282
30
0
10
-32.682012734970741
20
-86.702381965768978
30
0
10
-33.221024264611529
20
-86.39224344253627
30
0
10
-33.717302264069474
20
-86.093862000982369
30
0
10
-34.146890381885619
20
-85.830590455471452
30
0
10
-34.49979195197119
20
-85.612128157366101
30
0
10
-34.790920778182453
20
-85.421168183938562
30
0
10
-35.064736313143044
20
-85.207676928494095
30
0
10
-35.368304763299101
20
-84.920776251151594
30
0
10
-35.727103626310715
20
-84.537467153616674
30
0
10
-36.122335388574932
20
-84.08928320253375
30
0
10
-36.512393545372476
20
-83.633547593607048
30
0
10
-36.853063911384737
20
-83.225846848238447
30
0
10
-37.115556760101413
20
-82.896078604617557
30
0
10
-37.312051738792235
20
-82.612956121300414
30
0
10
-37.482464396833279
20
-82.307267430749732
30
0
10
-37.667880592604519
20
-81.914617857404849
30
0
10
-37.882564958845002
20
-81.421801265335802
30
0
10
-38.111618944556966
20
-80.868283403604678
30
0
10
-38.328432697229779
20
-80.313606349143996
30
0
10
-38.505326156930799
20
-79.816531538671029
30
0
10
-38.628775668859291
20
-79.406195464382776
30
0
10
-38.707282503268161
20
-79.066269434220175
30
0
10
-38.758057384096801
20
-78.757313885956805
30
0
10
-38.796268196966707
20
-78.434003468338986
30
0
10
-38.825115308063381
20
-78.062353345149987
30
0
10
-38.841652229998722
20
-77.619142626103041
30
0
10
-38.840890386487409
20
-77.093505659308263
30
0
10
-38.820445018930606
20
-76.487552111731048
30
0
10
-38.779795231057939
20
-75.812197733476594
30
0
10
-38.719818589744264
20
-75.083058214607433
30
0
10
-38.642200627659022
20
-74.31618158965415
30
0
10
-38.548932591743963
20
-73.524183563574724
30
0
10
-38.441682749947141
20
-72.711358739120328
30
0
10
-38.321705896630817
20
-71.873883544349198
30
0
10
-38.189983130292674
20
-71.002267396842029
30
0
10
-38.047288637363572
20
-70.083088989795542
30
0
10
-37.894286439458021
20
-69.101022171621707
30
0
10
-37.731615163369057
20
-68.040755507447983
30
0
10
-37.559975917378274
20
-66.888915768012183
30
0
10
-37.380223715998262
20
-65.636089509564513
30
0
10
-37.193443040789333
20
-64.278509676483651
30
0
10
-37.000903262736202
20
-62.817293679463901
30
0
10
-36.804026490734294
20
-61.257933170707446
30
0
10
-36.604350636806068
20
-59.609687072515449
30
0
10
-36.403494522348943
20
-57.885015832239745
30
0
10
-36.203122098293584
20
-56.098997963067454
30
0
10
-36.004907069801511
20
-54.268754322827931
30
0
10
-35.8104972953154
20
-52.412868922487277
30
0
10
-35.621479402739354
20
-50.550811644786563
30
0
10
-35.439343032302403
20
-48.702359241945253
30
0
10
-35.265445887282347
20
-46.887019202073432
30
0
10
-35.100976927960616
20
-45.123447447973149
30
0
10
-34.946923899049054
20
-43.428880251022093
30
0
10
-34.804029948290363
20
-41.81853043436994
30
0
10
-34.672806265568603
20
-40.30516672128698
30
0
10
-34.553567706441861
20
-38.898767961686687
30
0
10
-34.446460982219435
20
-37.606153534010971
30
0
10
-34.351495973091829
20
-36.430622799435064
30
0
10
-34.268575632303047
20
-35.371592539959657
30
0
10
-34.197526650063182
20
-34.42423076557202
30
0
10
-34.13812942938263
20
-33.579102354761361
30
0
10
-34.090149194147202
20
-32.821785515227042
30
0
10
-34.053364638241121
20
-32.132557396170384
30
0
10
-34.027602855575303
20
-31.485898226094587
30
0
10
-34.012640723657903
20
-30.854119583953256
30
0
10
-34.008106450560732
20
-30.211059610820588
30
0
10
-34.013369427988891
20
-29.535974817937426
30
0
10
-34.027461463295069
20
-28.816846524544868
30
0
10
-34.048918259016105
20
-28.05519730744966
30
0
10
-34.075964999611109
20
-27.264392581949526
30
0
10
-34.106927244142909
20
-26.46373847724027
30
0
10
-34.140562913536868
20
-25.673953450775564
30
0
10
-34.176451215807226
20
-24.911834921780944
30
0
10
-34.215300813373219
20
-24.18582080906031
30
0
10
-34.259430871202746
20
-23.489818505945284
30
0
10
-34.312669454977303
20
-22.802736109204453
30
0
10
-34.37948725397942
20
-22.095450758026036
30
0
10
-34.464330876337364
20
-21.335853161958127
30
0
10
-34.570856800793806
20
-20.494817550159926
30
0
10
-34.701250304705127
20
-19.551440129978278
30
0
10
-34.855405606487608
20
-18.49939973050288
30
0
10
-35.030490112985589
20
-17.350273117239801
30
0
10
-35.221600514113021
20
-16.128230781930796
30
0
10
-35.422224401084456
20
-14.866266299790603
30
0
10
-35.62477861890028
20
-13.601821572099144
30
0
10
-35.821114898327963
20
-12.372667419314784
30
0
10
-36.003039469087263
20
-11.212680101296982
30
0
10
-36.162826847316303
20
-10.147649249200315
30
0
10
-36.293735677792256
20
-9.1911032618202437
30
0
10
-36.390524805143393
20
-8.3400534796784171
30
0
10
-36.449965810700114
20
-7.5709754546138006
30
0
10
-36.470982584483977
20
-6.8486954332951511
30
0
10
-36.454809350320211
20
-6.1351636618103988
30
0
10
-36.405117836285228
20
-5.3980744019759879
30
0
10
-36.328211906088498
20
-4.6199935832041152
30
0
10
-36.233065807890398
20
-3.8062300918492102
30
0
10
-36.131762568766291
20
-2.9959740183081998
30
0
10
-36.036674800373817
20
-2.2459786853881756
30
0
10
-35.957317262152351
20
-1.6107006252691869
30
0
10
-35.896923403197356
20
-1.1218100203959638
30
0
10
-35.85001849273975
20
-0.77217711682026524
30
0
10
-35.79740670567287
20
-0.48761046109808964
30
0
10
-35.710582290484545
20
-0.14375436762160015
30
0
10
-35.564013935334287
20
0.37850859320449282
30
0
10
-35.347487774656365
20
1.1386490345199409
30
0
10
-35.071132356642615
20
2.1131146235362266
30
0
10
-34.757457992327723
20
3.2281434719779205
30
0
10
-34.436595080074774
20
4.3786945631461629
30
0
10
-34.140176623003512
20
5.4532642315850142
30
0
10
-33.895937922245793
20
6.3555899517148253
30
0
10
-33.721689437037746
20
7.0290728891680798
30
0
10
-33.620307639873957
20
7.4767875204288874
30
0
10
-33.572333533184
20
7.7918514631461058
30
0
10
-33.547748817901351
20
8.1052415423507203
30
0
10
-33.519556206374041
20
8.5263235747419444
30
0
10
-33.479471055535683
20
9.0731368511470478
30
0
10
-33.435145633708309
20
9.6891769819420439
30
0
10
-33.400797557461154
20
10.291250727989244
30
0
10
-33.390814323869272
20
10.802796192974675
30
0
10
-33.410340033477553
20
11.202852116493949
30
0
10
-33.453192739520119
20
11.535686778915297
30
0
10
-33.510184164329978
20
11.863635839486239
30
0
10
-33.576308957526422
20
12.226770808595864
30
0
10
-33.65482473482249
20
12.617582723211395
30
0
10
-33.750789671022403
20
13.010685199436931
30
0
10
-33.865856334756756
20
13.383356282526556
30
0
10
-33.994756939209381
20
13.735176447672316
30
0
10
-34.133603661294373
20
14.080471030173108
30
0
10
-34.286979070049128
20
14.445081068061219
30
0
10
-34.474298723643059
20
14.861112040429575
30
0
10
-34.720327920132391
20
15.359377765182732
30
0
10
-35.046449498390892
20
15.961278861421537
30
0
10
-35.462521170549465
20
16.671853568433924
30
0
10
-35.956277145949329
20
17.469971075750674
30
0
10
-36.496725262794612
20
18.3135814362224
30
0
10
-37.042899548373498
20
19.150625105828343
30
0
10
-37.550959591953266
20
19.928236937511606
30
0
10
-37.981768693668585
20
20.602356363807367
30
0
10
-38.30875355957243
20
21.147867980974688
30
0
10
-38.524499442162295
20
21.56685969691361
30
0
10
-38.650852204194706
20
21.901972730654332
30
0
10
-38.724120795120896
20
22.213975476151052
30
0
10
-38.777302214939567
20
22.5553403570682
30
0
10
-38.81895325886142
20
22.938359888495214
30
0
10
-38.838152237114272
20
23.343975902800963
30
0
10
-38.818276628592145
20
23.744049337606853
30
0
10
-38.750428811657656
20
24.1236365520075
30
0
10
-38.635319492227481
20
24.483049188418548
30
0
10
-38.477527003793398
20
24.827065348183272
30
0
10
-38.281393567948854
20
25.156456121930169
30
0
10
-38.049260243969279
20
25.465305788884493
30
0
10
-37.783081949752116
20
25.745508483179975
30
0
10
-37.485027661394611
20
25.989373404835007
30
0
10
-37.158435720767891
20
26.192091919303206
30
0
10
-36.808100354367845
20
26.351921709819397
30
0
10
-36.441323235895936
20
26.471855486929186
30
0
10
-36.066969164532409
20
26.558177874740394
30
0
10
-35.691908622048686
20
26.615184140461711
30
0
10
-35.316833385310872
20
26.638954088483434
30
0
10
-34.935673746207968
20
26.61647071128662
30
0
10
-34.544756973812042
20
26.539406520489234
30
0
10
-34.151953394940676
20
26.417617902971102
30
0
10
-33.781204414486695
20
26.286516697960138
30
0
10
-33.45018714579053
20
26.177926831937626
30
0
10
-33.150226970285644
20
26.094176395921895
30
0
10
-32.828403944898795
20
25.984679964665375
30
0
10
-32.423022487581854
20
25.787792991299327
30
0
10
-31.895193411534095
20
25.467889072183283
30
0
10
-31.263147342749825
20
25.055766626698848
30
0
10
-30.58275388036774
20
24.62485761406958
30
0
10
-29.927430428351542
20
24.266828930884586
30
0
10
-29.367087292403657
20
24.065773787261069
30
0
10
-28.950150282158344
20
24.07667412538537
30
0
10
-28.677576233508471
20
24.292833295638395
30
0
10
-28.511856088783052
20
24.661256976999084
30
0
10
-28.404463348048019
20
25.122681598455692
30
0
10
-28.321279441115834
20
25.650143071125342
30
0
10
-28.244881037275992
20
26.247937032837555
30
0
10
-28.168578123052832
20
26.937189005584546
30
0
10
-28.093226689931136
20
27.74570811470257
30
0
10
-28.023108589393985
20
28.696853844974335
30
0
10
-27.961641701186338
20
29.796844951921479
30
0
10
-27.909231775938423
20
31.029925019536897
30
0
10
-27.864483021182366
20
32.365016063608024
30
0
10
-27.824564262792531
20
33.759516452280721
30
0
10
-27.785920872238712
20
35.16426533375035
30
0
10
-27.744832109636107
20
36.527987379567378
30
0
10
-27.698050271248995
20
37.802008472367199
30
0
10
-27.643369111553163
20
38.944744745915926
30
0
10
-27.580305283967984
20
39.926545030428343
30
0
10
-27.510537375666129
20
40.733781605554888
30
0
10
-27.438946560790789
20
41.374790437673056
30
0
10
-27.371601297436211
20
41.876848705574631
30
0
10
-27.311994437024119
20
42.279065438929344
30
0
10
-27.258410799392067
20
42.626514492915739
30
0
10
-27.199504933474042
20
42.963975589560278
30
0
10
-27.114850712565641
20
43.329526966113477
30
0
10
-26.985659954254004
20
43.748379777393481
30
0
10
-26.804798283323677
20
44.225342525506832
30
0
10
-26.583460668104429
20
44.741538424103233
30
0
10
-26.341072789596758
20
45.26781871398687
30
0
10
-26.097529887162437
20
45.776069642312784
30
0
10
-25.865075732673773
20
46.250526328611734
30
0
10
-25.638877716683819
20
46.701210829686353
30
0
10
-25.402382077857887
20
47.155656266329061
30
0
10
-25.135764095904744
20
47.646098255622434
30
0
10
-24.822612205141205
20
48.199335203256453
30
0
10
-24.458969592913647
20
48.822897740096678
30
0
10
-24.055215585321182
20
49.502587398656871
30
0
10
-23.630104565016229
20
50.212537078804615
30
0
10
-23.206911113078984
20
50.92186511749324
30
0
10
-22.808578281848032
20
51.603028613192656
30
0
10
-22.453615322409711
20
52.238727080407799
30
0
10
-22.150893756848866
20
52.831173922453402
30
0
10
-21.897455537800784
20
53.404665308429017
30
0
10
-21.683417481991505
20
53.992200189001984
30
0
10
-21.495476112968973
20
54.625291991292507
30
0
10
-21.321005415470388
20
55.322340951294784
30
0
10
-21.151815114710843
20
56.078019192471132
30
0
10
-20.988287702932219
20
56.851156975887619
30
0
10
-20.83639293438257
20
57.58324945331448
30
0
10
-20.704537739960756
20
58.217270519465806
30
0
10
-20.600271265457465
20
58.718104997123888
30
0
10
-20.527514367870751
20
59.088371265173407
30
0
10
-20.482408312735974
20
59.396007842239371
30
0
10
-20.455019538106015
20
59.752527846679307
30
0
10
-20.434197368283137
20
60.265778644767806
30
0
10
-20.412340550084863
20
60.991392209647216
30
0
10
-20.386936390489943
20
61.918931116519346
30
0
10
-20.358401315713252
20
62.99632127337113
30
0
10
-20.328967147291912
20
64.143520194585676
30
0
10
-20.301134648816678
20
65.270633561536016
30
0
10
-20.276319753763836
20
66.294057082102697
30
0
10
-20.253400007140122
20
67.153627574420724
30
0
10
-20.227344103230504
20
67.828961529989812
30
0
10
-20.187688547328591
20
68.357211924115887
30
0
10
-20.122105288141164
20
68.809857303269254
30
0
10
-20.020450814639005
20
69.266556673999006
30
0
10
-19.878098089935222
20
69.792622537127855
30
0
10
-19.70088725102088
20
70.408772122314787
30
0
10
-19.503510440908087
20
71.091890400523042
30
0
10
-19.30352327054479
20
71.796647254111832
30
0
10
-19.116460808934143
20
72.471454963769602
30
0
10
-18.950916013674782
20
73.075634738970464
30
0
10
-18.80263797805998
20
73.598746572869814
30
0
10
-18.652153076249348
20
74.070633964698857
30
0
10
-18.474076043031662
20
74.53975735717593
30
0
10
-18.244651749079605
20
75.056475015856932
30
0
10
-17.949575577802484
20
75.655245086735079
30
0
10
-17.592791474346573
20
76.335005389766494
30
0
10
-17.191818721501082
20
77.067466589525424
30
0
10
-16.771148001135753
20
77.809431294283357
30
0
10
-16.356470145250157
20
78.513425884839393
30
0
10
-15.968230155424353
20
79.139601871589463
30
0
10
-15.616227557620503
20
79.66578762491784
30
0
10
-15.291825913205471
20
80.101680856715745
30
0
10
-14.972538414714148
20
80.481729856674718
30
0
10
-14.631910062097342
20
80.848965908565162
30
0
10
-14.247032211285147
20
81.242778297589751
30
0
10
-13.808553566879729
20
81.682702777904282
30
0
10
-13.324595772531566
20
82.161719558821162
30
0
10
-12.813001893170879
20
82.657640828017463
30
0
10
-12.296028786465708
20
83.140714071517579
30
0
10
-11.794058904906624
20
83.582742560592379
30
0
10
-11.319743672156449
20
83.965540193810128
30
0
10
-10.871920608624428
20
84.289728948163742
30
0
10
-10.440339141442056
20
84.568415536536975
30
0
10
-10.010626207485455
20
84.82053462335827
30
0
10
-9.5687926512388817
20
85.06483938547369
30
0
10
-9.1068464227548773
20
85.31232594444765
30
0
10
-8.6235854808884067
20
85.565513358775377
30
0
10
-8.1225858091238852
20
85.821813884702678
30
0
10
-7.6109873378730573
20
86.075575210796629
30
0
10
-7.0980804773912523
20
86.320855524347365
30
0
10
-6.5935772836741595
20
86.553310997787804
30
0
10
-6.1045047152310827
20
86.77009066589109
30
0
10
-5.6322231913781993
20
86.97006593564096
30
0
10
-5.1696687062424482
20
87.153897208515204
30
0
10
-4.6977673089976024
20
87.324256856272115
30
0
10
-4.1922832277451176
20
87.484787319527896
30
0
10
-3.6325227113548135
20
87.638848565703071
30
0
10
-3.0082834855213445
20
87.788471373806587
30
0
10
-2.3301623760569972
20
87.93290862395375
30
0
10
-1.6279368816537083
20
88.068624198905582
30
0
10
-0.93806832756389857
20
88.190609576927969
30
0
10
-0.29390631576178333
20
88.293348345740583
30
0
10
0.28457852513601156
20
88.371896001988148
30
0
10
0.80235866433601655
20
88.422978579896338
30
0
10
1.2959118841578356
20
88.445878263591723
30
0
10
1.8134446405250104
20
88.442012340421016
30
0
10
2.3976719026650768
20
88.414702839880007
30
0
10
3.0692377926567493
20
88.368825383575299
30
0
10
3.8056929084057161
20
88.310627857112664
30
0
10
4.5544868104136089
20
88.246604100253094
30
0
10
5.2533399880274034
20
88.18222704144867
30
0
10
5.8494543592052128
20
88.120597560231943
30
0
10
6.3161349186997109
20
88.061424569030308
30
0
10
6.678019799208851
20
87.999142252361111
30
0
10
7.0051553440142591
20
87.924028553705114
30
0
10
7.3732845663753475
20
87.826492947670914
30
0
10
7.8266212459037572
20
87.701233461918235
30
0
10
8.3590814601672321
20
87.549301775789687
30
0
10
8.9389195256153346
20
87.375411792731256
30
0
10
9.5235590590840875
20
87.186316480813446
30
0
10
10.078298417340735
20
86.988765315528113
30
0
10
10.593576349897155
20
86.787613571201931
30
0
10
11.077301280220347
20
86.585659225199606
30
0
10
11.546201683125368
20
86.383477176140872
30
0
10
12.018218129167185
20
86.179369853972531
30
0
10
12.50283589357706
20
85.968979852409419
30
0
10
12.99992733089433
20
85.746441539135319
30
0
10
13.503774244081548
20
85.506595890036493
30
0
10
14.005458819713912
20
85.246689752241451
30
0
10
14.496073438539682
20
84.968726825546113
30
0
10
14.969127465623981
20
84.680183574258223
30
0
10
15.421300127247001
20
84.389745622096584
30
0
10
15.853501455823869
20
84.103765225101654
30
0
10
16.271685550230796
20
83.822670798593748
30
0
10
16.688110197300535
20
83.536775356993928
30
0
10
17.11806804205747
20
83.230038786827095
30
0
10
17.575833812872151
20
82.885116072669433
30
0
10
18.071271318894929
20
82.487541994338116
30
0
10
18.605247579441905
20
82.031250315733473
30
0
10
19.169205052167953
20
81.51965410433435
30
0
10
19.74872343565918
20
80.962519152232076
30
0
10
20.325959279114031
20
80.374003268304563
30
0
10
20.882617482047408
20
79.770175449098886
30
0
10
21.402526165868135
20
79.166858535057301
30
0
10
21.874791306426392
20
78.577088666403966
30
0
10
22.295329784464833
20
78.0095580470295
30
0
10
22.66522367611833
20
77.468946224777923
30
0
10
22.989747607374472
20
76.955853624472525
30
0
10
23.277124487334163
20
76.466894193650617
30
0
10
23.537403607312847
20
75.994719322487086
30
0
10
23.781271782210133
20
75.528071417816676
30
0
10
24.018657832784744
20
75.053723018083843
30
0
10
24.257222715803831
20
74.558494163446184
30
0
10
24.501096531225642
20
74.031118839086417
30
0
10
24.749011106298578
20
73.46447390451533
30
0
10
24.995072633451521
20
72.856213881258881
30
0
10
25.231048350392179
20
72.208436413395546
30
0
10
25.448246961333766
20
71.527699752671111
30
0
10
25.639443695361123
20
70.824770879996095
30
0
10
25.801081783707517
20
70.114785352056373
30
0
10
25.934408916577691
20
69.416280734909819
30
0
10
26.043605126893446
20
68.747216650791771
30
0
10
26.134478459962693
20
68.121577344578583
30
0
10
26.212919050909544
20
67.545685171328486
30
0
10
26.283495008283843
20
67.014773701457912
30
0
10
26.347881738889534
20
66.509075913957872
30
0
10
26.405676834175971
20
65.998417007965145
30
0
10
26.45539790932224
20
65.447523254576424
30
0
10
26.495345968940818
20
64.820747412334072
30
0
10
26.524691719223902
20
64.087825466726713
30
0
10
26.543748728817356
20
63.225801770717553
30
0
10
26.553639678435772
20
62.218083091420482
30
0
10
26.556137891988442
20
61.054322936129225
30
0
10
26.55343695091965
20
59.72996417643089
30
0
10
26.54795073662056
20
58.245928724142011
30
0
10
26.542101307917996
20
56.608242771191009
30
0
10
26.538109865423387
20
54.827692692748059
30
0
10
26.537791382617968
20
52.919461201361926
30
0
10
26.542336039398805
20
50.902787436220606
30
0
10
26.55212346107708
20
48.800580901292896
30
0
10
26.566456155571391
20
46.639143549398234
30
0
10
26.583577107475435
20
44.447515330929434
30
0
10
26.601034000843292
20
42.256361225870762
30
0
10
26.615954752377867
20
40.09697561555803
30
0
10
26.625359180909918
20
38.000238741593662
30
0
10
26.626454964408417
20
35.995594242069913
30
0
10
26.616940923860071
20
34.110016275486089
30
0
10
26.59530584802485
20
32.366984178596518
30
0
10
26.561132290488622
20
30.785446680934495
30
0
10
26.515391173280307
20
29.378807175151568
30
0
10
26.460756778649561
20
28.153861253877377
30
0
10
26.401874864466212
20
27.109844356621615
30
0
10
26.345739623563077
20
26.237223490220831
30
0
10
26.301815611414398
20
25.517088126347822
30
0
10
26.282807514154353
20
24.919029650743983
30
0
10
26.302023877536726
20
24.406630097113595
30
0
10
26.368416810876187
20
23.947341434703642
30
0
10
26.483570110950367
20
23.519607265536845
30
0
10
26.63510467274206
20
23.124262336032668
30
0
10
26.800291151054346
20
22.78419370616929
30
0
10
26.96928140754931
20
22.520032900832692
30
0
10
27.169307873600786
20
22.326820720883202
30
0
10
27.47512112025359
20
22.160643371908794
30
0
10
27.96680423981682
20
21.966799016000351
30
0
10
28.693679348527912
20
21.702595127766422
30
0
10
29.642468718264176
20
21.358290062947635
30
0
10
30.757288104540926
20
20.946779887852433
30
0
10
31.953554897395723
20
20.497046887488906
30
0
10
33.134253531270311
20
20.046143760510486
30
0
10
34.205229392161186
20
19.631786135470865
30
0
10
35.09082385053015
20
19.284720479333103
30
0
10
35.74954094527795
20
19.021102602293418
30
0
10
36.189282065008392
20
18.835073442244848
30
0
10
36.483847475243337
20
18.690729602114747
30
0
10
36.729820047270032
20
18.542297555274825
30
0
10
37.005273040032954
20
18.353383519974876
30
0
10
37.321858014077989
20
18.119509597471279
30
0
10
37.649533905600983
20
17.85508082823527
30
0
10
37.947635484284476
20
17.577539870951814
30
0
10
38.198814926603227
20
17.289413103595205
30
0
10
38.40537483946563
20
16.982939072177167
30
0
10
38.576192243419626
20
16.649712925260943
30
0
10
38.714898361883591
20
16.290831638194344
30
0
10
38.818241566507361
20
15.915281284773075
30
0
10
38.880161105882799
20
15.533525912078336
30
0
10
38.893775839464688
20
15.150964167305212
30
0
10
38.854708092406732
20
14.768657721825935
30
0
10
38.763208366835606
20
14.388365487788121
30
0
10
38.628719669791025
20
14.018253781610852
30
0
10
38.466080590141623
20
13.670976306351744
30
0
10
38.285737364934121
20
13.354932310393789
30
0
10
38.082624358632181
20
13.06527422458805
30
0
10
37.835430216090003
20
12.782228900561918
30
0
10
37.520803224139478
20
12.480824682343091
30
0
10
37.125592662733538
20
12.138592035893794
30
0
10
36.654598613569782
20
11.741589070728526
30
0
10
36.124234914053361
20
11.283594349752333
30
0
10
35.559218250148334
20
10.766793916869432
30
0
10
34.988038503285573
20
10.20189587765169
30
0
10
34.438958042761399
20
9.6084202170176152
30
0
10
33.935757375962908
20
9.015095271121309
30
0
10
33.496210377172297
20
8.4531011562133482
30
0
10
33.13074121554353
20
7.9494634879138921
30
0
10
32.840704795983704
20
7.5197336149784411
30
0
10
32.617536268340366
20
7.1624706926917643
30
0
10
32.439756107420145
20
6.8492010724849166
30
0
10
32.279059969555519
20
6.5337969556421251
30
0
10
32.110297708386611
20
6.1708540743455353
30
0
10
31.922569652367155
20
5.7350747078248023
30
0
10
31.720832548598249
20
5.2255273153886437
30
0
10
31.518221556340585
20
4.6546667893637617
30
0
10
31.331178113312326
20
4.0419339408101571
30
0
10
31.173057242309731
20
3.4049756368879742
30
0
10
31.049472383854862
20
2.753352511511578
30
0
10
30.960550323467334
20
2.0915685707326732
30
0
10
30.902395867046582
20
1.4210258512596647
30
0
10
30.8688886713656
20
0.74248591805519804
30
0
10
30.853269081058649
20
0.058091764795265531
30
0
10
30.849997319509498
20
-0.62583598984853395
30
0
10
30.854942529182466
20
-1.3012302426692557
30
0
10
30.86523605592507
20
-1.9616920901764636
30
0
10
30.87924412609555
20
-2.6057248089002121
30
0
10
30.896480528305972
20
-3.2396897976635208
30
0
10
30.917569393287209
20
-3.8817494148911686
30
0
10
30.944093496771398
20
-4.5620716373223749
30
0
10
30.978326996410253
20
-5.3187733071364454
30
0
10
31.022998302083277
20
-6.1949884832230717
30
0
10
31.081039639423992
20
-7.2354637350417095
30
0
10
31.155344792942255
20
-8.4833899924034064
30
0
10
31.248517572661584
20
-9.9770536994160377
30
0
10
31.36263769731994
20
-11.746749685186455
30
0
10
31.498986684380505
20
-13.811136063648149
30
0
10
31.657897773590349
20
-16.175293051478338
30
0
10
31.838886441642362
20
-18.832624917962207
30
0
10
32.040724397924869
20
-21.765988236616728
30
0
10
32.261536078815183
20
-24.949128092600738
30
0
10
32.498885523995853
20
-28.34798263851394
30
0
10
32.749867382465247
20
-31.922044174928299
30
0
10
33.011196133739354
20
-35.625695801775194
30
0
10
33.279296071691967
20
-39.409558506695845
30
0
10
33.550390956081529
20
-43.221833713343436
30
0
10
33.820593802927938
20
-47.009647718159385
30
0
10
34.085996615694604
20
-50.720395356574997
30
0
10
34.3427601354812
20
-54.303083852599997
30
0
10
34.587203597108257
20
-57.709676946533193
30
0
10
34.815894453145553
20
-60.896438148014902
30
0
10
35.025738187617279
20
-63.825276255338139
30
0
10
35.214067926335652
20
-66.465085708684327
30
0
10
35.378734533046924
20
-68.793099159922136
30
0
10
35.518195591220177
20
-70.796211897989593
30
0
10
35.631606991795167
20
-72.472371925499814
30
0
10
35.718908488574705
20
-73.831817872065258
30
0
10
35.78092329629159
20
-74.898670976606525
30
0
10
35.819424885617728
20
-75.711698092497357
30
0
10
35.837284992653906
20
-76.327164535000207
30
0
10
35.838260630939814
20
-76.811176197585254
30
0
10
35.826699190365666
20
-77.226230780952946
30
0
10
35.807126540798322
20
-77.621156224789559
30
0
10
35.784210016507899
20
-78.016088335415802
30
0
10
35.761559793078227
20
-78.40086806907108
30
0
10
35.738592508356511
20
-78.760859848544442
30
0
10
35.706887986180512
20
-79.101041068029247
30
0
10
35.649181027645291
20
-79.460716575503284
30
0
10
35.549148096013113
20
-79.881999655020749
30
0
10
35.400220034734076
20
-80.383533214116554
30
0
10
35.213147138594664
20
-80.936859944051477
30
0
10
35.007183190168277
20
-81.490548205580325
30
0
10
34.802346867915873
20
-81.991041225542332
30
0
10
34.612120709632613
20
-82.402285688457582
30
0
10
34.433817737920627
20
-82.732129714778878
30
0
10
34.253229719334144
20
-83.017854695019281
30
0
10
34.053614590402418
20
-83.300667390622635
30
0
10
33.824258156807417
20
-83.59838419093272
30
0
10
33.563905873272724
20
-83.904590863895493
30
0
10
33.279240114607141
20
-84.203183453587741
30
0
10
32.987548616693459
20
-84.479506243313807
30
0
10
32.708006441642411
20
-84.72694692415746
30
0
10
32.447764616460702
20
-84.946198831461629
30
0
10
32.183632549344367
20
-85.148099308559608
30
0
10
31.865426130261305
20
-85.35040095314109
30
0
10
31.444939122817225
20
-85.569360194633575
30
0
10
30.903059778883645
20
-85.811069955911719
30
0
10
30.262999991776663
20
-86.067589530625867
30
0
10
29.569732250817943
20
-86.323746021728425
30
0
10
28.876959034480244
20
-86.561587636554719
30
0
10
28.231087861870389
20
-86.765769433296072
30
0
10
27.656401277837631
20
-86.928565203872012
30
0
10
27.139919518951277
20
-87.054979927292649
30
0
10
26.647896446138368
20
-87.157432349323955
30
0
10
26.143142409274734
20
-87.250215084233872
30
0
10
25.600082141213512
20
-87.344580253898059
30
0
10
25.025608155143569
20
-87.442220903837324
30
0
10
24.453566806671724
20
-87.535988399205024
30
0
10
23.923260449933959
20
-87.614788492247712
30
0
10
23.464653267576484
20
-87.667040338921424
30
0
10
23.076730277078141
20
-87.685078662231334
30
0
10
22.721384984966861
20
-87.668028400381033
30
0
10
22.356044079561045
20
-87.620476786289444
30
0
10
21.963196421223458
20
-87.552353641016197
30
0
10
21.571260643154794
20
-87.477061724218942
30
0
10
21.21481792989746
20
-87.402544309549882
30
0
10
20.901080812970395
20
-87.322639685643992
30
0
10
20.577997267056404
20
-87.209715217186101
30
0
10
20.177520285755229
20
-87.032943204804582
30
0
10
19.653481073521604
20
-86.774751390053652
30
0
10
19.023127897144068
20
-86.44873837530551
30
0
10
18.34462782040719
20
-86.087650986873157
30
0
10
17.693893563061803
20
-85.731150136233737
30
0
10
17.139997774012858
20
-85.41257459749032
30
0
10
16.724913474622603
20
-85.148568472544525
30
0
10
16.432093189756543
20
-84.921405448120595
30
0
10
16.202693366473813
20
-84.69198024256572
30
0
10
15.97421205826133
20
-84.425668305014455
30
0
10
15.722085431018325
20
-84.123205048426541
30
0
10
15.462823041682636
20
-83.815926689541826
30
0
10
15.222377800258993
20
-83.532308568644723
30
0
10
15.008172319052127
20
-83.263464622013842
30
0
10
14.800657633424738
20
-82.959750537097747
30
0
10
14.576837002768075
20
-82.571604362636108
30
0
10
14.328954905592006
20
-82.085886632740028
30
0
10
14.074734714191033
20
-81.543455996079288
30
0
10
13.840940550466589
20
-81.004935823039801
30
0
10
13.652660870670704
20
-80.527397250294513
30
0
10
13.520621811942735
20
-80.137327192687167
30
0
10
13.428463271845787
20
-79.803413636429084
30
0
10
13.346661526412017
20
-79.46383668348102
30
0
10
13.246850771177083
20
-79.054546978363291
30
0
10
13.117744052820042
20
-78.540317253189073
30
0
10
12.962177034985281
20
-77.911833350724905
30
0
10
12.791318431469563
20
-77.177590457519969
30
0
10
12.619690809150173
20
-76.357418642666715
30
0
10
12.460285998631157
20
-75.475800368864455
30
0
10
12.318564599483588
20
-74.554097809682276
30
0
10
12.191267090083368
20
-73.608001498475659
30
0
10
12.06987102684141
20
-72.650102146556449
30
0
10
11.942760906276504
20
-71.691037814892525
30
0
10
11.79793117833907
20
-70.741234217872176
30
0
10
11.625447127694532
20
-69.812369145500995
30
0
10
11.420041889255437
20
-68.919006241581982
30
0
10
11.183579577957296
20
-68.080036605633197
30
0
10
10.927779312197405
20
-67.320520769257669
30
0
10
10.670127498286067
20
-66.663676437563026
30
0
10
10.429658785400074
20
-66.122847230079657
30
0
10
10.222570254042086
20
-65.692835262774338
30
0
10
10.058394281401881
20
-65.34296441772851
30
0
10
9.9347058182949031
20
-65.00572822593503
30
0
10
9.8382867807053174
20
-64.58484052814525
30
0
10
9.7503206177919814
20
-63.97554737095318
30
0
10
9.6501962517016953
20
-63.080454519925027
30
0
10
9.5202674175289452
20
-61.82894501133498
30
0
10
9.3490183084547631
20
-60.189654338568417
30
0
10
9.1299400121898611
20
-58.163230225295266
30
0
10
8.8611135197753814
20
-55.778378068856547
30
0
10
8.5445160193255347
20
-53.086617302798658
30
0
10
8.1854452145813017
20
-50.15758784264758
30
0
10
7.7918929142002185
20
-47.074119955989431
30
0
10
7.3739405250883161
20
-43.927406716776915
30
0
10
6.9431450914341175
20
-40.812131201905757
30
0
10
6.5119295542495177
20
-37.821616086215116
30
0
10
6.0929709139717616
20
-35.042956992260621
30
0
10
5.6985899854080593
20
-32.552178102707707
30
0
10
5.3401388775347245
20
-30.409342441111065
30
0
10
5.0273931280958646
20
-28.65376417966802
30
0
10
4.7679332537429113
20
-27.298984656667201
30
0
10
4.5665507145650563
20
-26.328295977916056
30
0
10
4.4245970918121582
20
-25.688991027638419
30
0
10
4.3394663661597752
20
-25.28959797166592
30
0
10
4.3037370621260171
20
-24.989538536316104
30
0
10
4.3067622157575052
20
-24.640911990033935
30
0
10
4.3366127427868699
20
-24.134955705879804
30
0
10
4.3821956154662676
20
-23.458917437464986
30
0
10
4.4335946406137428
20
-22.679656414834458
30
0
10
4.4817177150779637
20
-21.900061710246167
30
0
10
4.5181385360102198
20
-21.222534192960005
30
0
10
4.5349360314231015
20
-20.713730025884903
30
0
10
4.5243442755974268
20
-20.358587619981719
30
0
10
4.479126777224967
20
-20.05375491941119
30
0
10
4.3940575833995474
20
-19.665412527288566
30
0
10
4.2673561696519453
20
-19.077660360474987
30
0
10
4.1015343743308996
20
-18.229259870945327
30
0
10
3.9022840842933828
20
-17.099087032619945
30
0
10
3.6777372044339689
20
-15.701668363843396
30
0
10
3.4375772504330437
20
-14.078685435837548
30
0
10
3.1922151892074706
20
-12.292207915237752
30
0
10
2.9519356474316973
20
-10.417170007595352
30
0
10
2.7260605356260825
20
-8.5342035732383223
30
0
10
2.5220943502766642
20
-6.7222464441401311
30
0
10
2.3449024600654376
20
-5.0514132329082795
30
0
10
2.1958167583760724
20
-3.5753677683509943
30
0
10
2.0719096920788034
20
-2.3248149598042231
30
0
10
1.9648419807136461
20
-1.2981697771716965
30
0
10
1.8621683800898743
20
-0.46871938556398512
30
0
10
1.7494302691254247
20
0.20251694100378834
30
0
10
1.6120057576154343
20
0.75642627785570793
30
0
10
1.4370196641809279
20
1.2230457511605763
30
0
10
1.2153234956313861
20
1.6129736011779439
30
0
10
0.94322434945095557
20
1.8992046412497767
30
0
10
0.62480273597028591
20
2.0356809959332658
30
0
10
0.27259947378537414
20
1.9951170657557293
30
0
10
-0.08778186823395856
20
1.8133836062461199
30
0
10
-0.43018427629131584
20
1.5721474738402783
30
0
10
-0.74388495874201599
20
1.3553009790438564
30
0
10
-1.0565640587343841
20
1.2041896243426136
30
0
10
-1.4216770605447024
20
1.1131894091056158
30
0
10
-1.8838070289556512
20
1.0568503600786459
30
0
10
-2.4424339642362956
20
1.0116276921114022
30
0
10
-3.0458350873495288
20
0.96501204489992098
30
0
10
-3.622927361585087
20
0.9044959230368117
30
0
10
-4.1041340418794103
20
0.81246723709824542
30
0
10
-4.4483020135153311
20
0.65802055942033022
30
0
10
-4.6625413371297872
20
0.39194578269325187
30
0
10
-4.7813919298372145
20
-0.041755747111218093
30
0
10
-4.848992451430659
20
-0.69542750228810224
30
0
10
-4.9014346851484252
20
-1.6077212945955912
30
0
10
-4.9683442289407376
20
-2.8052287060921062
30
0
10
-5.0729632059588434
20
-4.3032472895216607
30
0
10
-5.232813896990419
20
-6.1068799137989913
30
0
10
-5.4601149174911683
20
-8.2119922103979466
30
0
10
-5.7623037488714681
20
-10.606230913203923
30
0
10
-6.1425134125984613
20
-13.270015863269297
30
0
10
-6.6000688280644688
20
-16.177543249727297
30
0
10
-7.1309746386152248
20
-19.297783918522192
30
0
10
-7.7284066668222788
20
-22.595483736334057
30
0
10
-8.383201757103576
20
-26.032162987519637
30
0
10
-9.0843482983880968
20
-29.567116182995797
30
0
10
-9.8194763794065025
20
-33.158411553098709
30
0
10
-10.575348190099147
20
-36.763890895732004
30
0
10
-11.338348050185246
20
-40.34216870572876
30
0
10
-12.09497317801867
20
-43.853632917214625
30
0
10
-12.832322776798888
20
-47.26144195964109
30
0
10
-13.538591018075952
20
-50.532530431166279
30
0
10
-14.203551005927784
20
-53.63859486151533
30
0
10
-14.819059731798623
20
-56.557125861353398
30
0
10
-15.379514172331623
20
-59.272332342173442
30
0
10
-15.882424733336061
20
-61.776325003910202
30
0
10
-16.328625464754513
20
-64.06949733715382
30
0
10
-16.721593808822192
20
-66.158939292497763
30
0
10
-17.066943235662585
20
-68.057232925236718
30
0
10
-17.371847326854187
20
-69.781096592375121
30
0
10
-17.644492945660321
20
-71.350093420085599
30
0
10
-17.893521387821146
20
-72.785313218678709
30
0
10
-18.127473606830307
20
-74.108063412492385
30
0
10
-18.354236261379111
20
-75.338561772168831
30
0
10
-18.580481420317572
20
-76.494615180356135
30
0
10
-18.811122876936931
20
-77.590334996690956
30
0
10
-19.048733012700303
20
-78.634765495037755
30
0
10
-19.293051835412207
20
-79.630715410585452
30
0
10
-19.540275664847396
20
-80.573103933849879
30
0
10
-19.782999378192724
20
-81.448746827376496
30
0
10
-20.012557098242016
20
-82.241427202487017
30
0
10
-20.220974388689235
20
-82.93611057007783
30
0
10
-20.403095304684573
20
-83.523544492189529
30
0
10
-20.558583277044427
20
-84.004581801901281
30
0
10
-20.694098983920931
20
-84.394890154624221
30
0
10
-20.825049024398158
20
-84.728724206326518
30
0
10
-20.968781252250821
20
-85.043815185436102
30
0
10
-21.138343050990251
20
-85.367551072401056
30
0
10
-21.335638013246054
20
-85.701708691847472
30
0
10
-21.555861545650007
20
-86.033671163812983
30
0
10
-21.792224412192351
20
-86.347984801535759
30
0
10
-22.040938951995205
20
-86.63937005622428
30
0
10
-22.301810665062799
20
-86.909637524118494
30
0
10
-22.577615831440461
20
-87.162455296258443
30
0
10
-22.874889311741157
20
-87.397968617614538
30
0
10
-23.198878120760753
20
-87.613278487669334
30
0
10
-23.548762228969828
20
-87.804773411175262
30
0
10
-23.909104048578598
20
-87.970183806825887
30
0
10
-24.259757596199393
20
-88.108979029471627
30
0
10
-24.591190615731019
20
-88.221694245067368
30
0
10
-24.924964850274073
20
-88.30957998846344
30
0
10
-25.304778369260834
20
-88.374234924266887
30
0
10
-25.767762538938278
20
-88.417413367111607
30
0
10
-26.314939786077201
20
-88.440755846353127
30
0
10
-26.905733033776208
20
-88.445612869277966
30
0
10
-27.484938101545037
20
-88.432930935668693
30
0
10
-28.000515326982601
20
-88.403133917687242
30
0
10
-28.426312425021166
20
-88.355984525440775
30
0
10
-28.708700492311166
20
-88.303610229605894
30
0
10
-28.904944494459333
20
-88.255634267076601
30
0
10
-29.034278051762033
20
-88.219729338609852
30
0
10
-29.0991
20
-88.200800000000015
30
0
0
ENDSEC
0
SECTION
2
OBJECTS
0
DICTIONARY
5
C
100
AcDbDictionary
3
ACAD_GROUP
350
D
3
ACAD_MLINESTYLE
350
17
0
DICTIONARY
5
D
100
AcDbDictionary
0
DICTIONARY
5
1A
330
C
100
AcDbDictionary
0
DICTIONARY
5
17
100
AcDbDictionary
0
ENDSEC
0
EOF
