0
SECTION
2
HEADER
9
$INSUNITS
70
4
9
$ACADVER
1
AC1014
9
$HANDSEED
5
FFFF
0
ENDSEC
0
SECTION
2
TABLES
0
TABLE
2
VPORT
5
8
100
AcDbSymbolTable
0
ENDTAB
0
TABLE
2
LTYPE
5
5
100
AcDbSymbolTable
0
LTYPE
5
14
100
AcDbSymbolTableRecord
100
AcDbLinetypeTableRecord
2
BYBLOCK
70
0
0
LTYPE
5
15
100
AcDbSymbolTableRecord
100
AcDbLinetypeTableRecord
2
BYLAYER
70
0
0
LTYPE
5
16
100
AcDbSymbolTableRecord
100
AcDbLinetypeTableRecord
2
DASHED
70
0
3
Dashed __ __ __ __ __ __ __ __ __ __ __ __ __ _
72
65
73
2
40
0.75
49
0.5
74
0
49
-0.25
74
0
0
ENDTAB
0
TABLE
2
LAYER
5
2
100
AcDbSymbolTable
70
2
0
LAYER
5
50
100
AcDbSymbolTableRecord
100
AcDbLayerTableRecord
2
0
70
0
62
7
6
CONTINUOUS
0
ENDTAB
0
TABLE
2
STYLE
5
3
100
AcDbSymbolTable
70
1
0
STYLE
5
11
100
AcDbSymbolTableRecord
100
AcDbTextStyleTableRecord
2
STANDARD
70
0
0
ENDTAB
0
TABLE
2
VIEW
5
6
100
AcDbSymbolTable
70
0
0
ENDTAB
0
TABLE
2
UCS
5
7
100
AcDbSymbolTable
70
0
0
ENDTAB
0
TABLE
2
APPID
5
9
100
AcDbSymbolTable
70
2
0
APPID
5
12
100
AcDbSymbolTableRecord
100
AcDbRegAppTableRecord
2
ACAD
70
0
0
ENDTAB
0
TABLE
2
DIMSTYLE
5
A
100
AcDbSymbolTable
70
1
0
ENDTAB
0
TABLE
2
BLOCK_RECORD
5
1
100
AcDbSymbolTable
70
1
0
BLOCK_RECORD
5
1F
100
AcDbSymbolTableRecord
100
AcDbBlockTableRecord
2
*MODEL_SPACE
0
BLOCK_RECORD
5
1B
100
AcDbSymbolTableRecord
100
AcDbBlockTableRecord
2
*PAPER_SPACE
0
ENDTAB
0
ENDSEC
0
SECTION
2
BLOCKS
0
BLOCK
5
20
100
AcDbEntity
100
AcDbBlockBegin
2
*MODEL_SPACE
0
ENDBLK
5
21
100
AcDbEntity
100
AcDbBlockEnd
0
BLOCK
5
1C
100
AcDbEntity
100
AcDbBlockBegin
2
*PAPER_SPACE
0
ENDBLK
5
1D
100
AcDbEntity
100
AcDbBlockEnd
0
ENDSEC
0
SECTION
2
ENTITIES
0
SPLINE
5
100
100
AcDbEntity
8
0
100
AcDbSpline
70
6
71
5
72
736
73
730
74
0
42
0.000000001
43
0.0000000001
44
0.0000000001
40
0
40
0
40
0
40
0
40
0
40
0
40
0.0013793103448275861
40
0.0027586206896551722
40
0.0041379310344827579
40
0.0055172413793103444
40
0.0068965517241379309
40
0.0082758620689655175
40
0.009655172413793104
40
0.011034482758620691
40
0.012413793103448277
40
0.013793103448275864
40
0.01517241379310345
40
0.016551724137931035
40
0.01793103448275862
40
0.019310344827586205
40
0.020689655172413789
40
0.022068965517241374
40
0.023448275862068959
40
0.024827586206896544
40
0.026206896551724129
40
0.027586206896551713
40
0.028965517241379298
40
0.030344827586206883
40
0.031724137931034471
40
0.033103448275862056
40
0.034482758620689641
40
0.035862068965517226
40
0.03724137931034481
40
0.038620689655172395
40
0.03999999999999998
40
0.041379310344827565
40
0.04275862068965515
40
0.044137931034482734
40
0.045517241379310319
40
0.046896551724137904
40
0.048275862068965489
40
0.049655172413793074
40
0.051034482758620658
40
0.052413793103448243
40
0.053793103448275828
40
0.055172413793103413
40
0.056551724137930998
40
0.057931034482758582
40
0.059310344827586167
40
0.060689655172413752
40
0.062068965517241337
40
0.063448275862068929
40
0.06482758620689652
40
0.066206896551724112
40
0.067586206896551704
40
0.068965517241379296
40
0.070344827586206887
40
0.071724137931034479
40
0.073103448275862071
40
0.074482758620689662
40
0.075862068965517254
40
0.077241379310344846
40
0.078620689655172438
40
0.080000000000000029
40
0.081379310344827621
40
0.082758620689655213
40
0.084137931034482805
40
0.085517241379310396
40
0.086896551724137988
40
0.08827586206896558
40
0.089655172413793172
40
0.091034482758620763
40
0.092413793103448355
40
0.093793103448275947
40
0.095172413793103539
40
0.09655172413793113
40
0.097931034482758722
40
0.099310344827586314
40
0.10068965517241391
40
0.1020689655172415
40
0.10344827586206909
40
0.10482758620689668
40
0.10620689655172427
40
0.10758620689655186
40
0.10896551724137946
40
0.11034482758620705
40
0.11172413793103464
40
0.11310344827586223
40
0.11448275862068982
40
0.11586206896551741
40
0.11724137931034501
40
0.1186206896551726
40
0.12000000000000019
40
0.12137931034482778
40
0.12275862068965537
40
0.12413793103448297
40
0.12551724137931056
40
0.12689655172413813
40
0.12827586206896571
40
0.12965517241379329
40
0.13103448275862087
40
0.13241379310344845
40
0.13379310344827602
40
0.1351724137931036
40
0.13655172413793118
40
0.13793103448275876
40
0.13931034482758634
40
0.14068965517241391
40
0.14206896551724149
40
0.14344827586206907
40
0.14482758620689665
40
0.14620689655172422
40
0.1475862068965518
40
0.14896551724137938
40
0.15034482758620696
40
0.15172413793103454
40
0.15310344827586211
40
0.15448275862068969
40
0.15586206896551727
40
0.15724137931034485
40
0.15862068965517243
40
0.16
40
0.16137931034482758
40
0.16275862068965516
40
0.16413793103448274
40
0.16551724137931031
40
0.16689655172413789
40
0.16827586206896547
40
0.16965517241379305
40
0.17103448275862063
40
0.1724137931034482
40
0.17379310344827578
40
0.17517241379310336
40
0.17655172413793094
40
0.17793103448275852
40
0.17931034482758609
40
0.18068965517241367
40
0.18206896551724125
40
0.18344827586206883
40
0.1848275862068964
40
0.18620689655172398
40
0.18758620689655156
40
0.18896551724137914
40
0.19034482758620672
40
0.19172413793103429
40
0.19310344827586187
40
0.19448275862068945
40
0.19586206896551703
40
0.19724137931034461
40
0.19862068965517218
40
0.19999999999999976
40
0.20137931034482734
40
0.20275862068965492
40
0.20413793103448249
40
0.20551724137931007
40
0.20689655172413765
40
0.20827586206896523
40
0.20965517241379281
40
0.21103448275862038
40
0.21241379310344796
40
0.21379310344827554
40
0.21517241379310312
40
0.2165517241379307
40
0.21793103448275827
40
0.21931034482758585
40
0.22068965517241343
40
0.22206896551724101
40
0.22344827586206858
40
0.22482758620689616
40
0.22620689655172374
40
0.22758620689655132
40
0.2289655172413789
40
0.23034482758620647
40
0.23172413793103405
40
0.23310344827586163
40
0.23448275862068921
40
0.23586206896551679
40
0.23724137931034436
40
0.23862068965517194
40
0.23999999999999952
40
0.2413793103448271
40
0.24275862068965467
40
0.24413793103448225
40
0.24551724137930983
40
0.24689655172413741
40
0.24827586206896499
40
0.24965517241379256
40
0.25103448275862017
40
0.25241379310344775
40
0.25379310344827533
40
0.2551724137931029
40
0.25655172413793048
40
0.25793103448275806
40
0.25931034482758564
40
0.26068965517241321
40
0.26206896551724079
40
0.26344827586206837
40
0.26482758620689595
40
0.26620689655172353
40
0.2675862068965511
40
0.26896551724137868
40
0.27034482758620626
40
0.27172413793103384
40
0.27310344827586142
40
0.27448275862068899
40
0.27586206896551657
40
0.27724137931034415
40
0.27862068965517173
40
0.27999999999999931
40
0.28137931034482688
40
0.28275862068965446
40
0.28413793103448204
40
0.28551724137930962
40
0.28689655172413719
40
0.28827586206896477
40
0.28965517241379235
40
0.29103448275861993
40
0.29241379310344751
40
0.29379310344827508
40
0.29517241379310266
40
0.29655172413793024
40
0.29793103448275782
40
0.2993103448275854
40
0.30068965517241297
40
0.30206896551724055
40
0.30344827586206813
40
0.30482758620689571
40
0.30620689655172328
40
0.30758620689655086
40
0.30896551724137844
40
0.31034482758620602
40
0.3117241379310336
40
0.31310344827586117
40
0.31448275862068875
40
0.31586206896551633
40
0.31724137931034391
40
0.31862068965517149
40
0.31999999999999906
40
0.32137931034482664
40
0.32275862068965422
40
0.3241379310344818
40
0.32551724137930937
40
0.32689655172413695
40
0.32827586206896453
40
0.32965517241379211
40
0.33103448275861969
40
0.33241379310344726
40
0.33379310344827484
40
0.33517241379310242
40
0.33655172413793
40
0.33793103448275758
40
0.33931034482758515
40
0.34068965517241273
40
0.34206896551724031
40
0.34344827586206789
40
0.34482758620689546
40
0.34620689655172304
40
0.34758620689655062
40
0.3489655172413782
40
0.35034482758620578
40
0.35172413793103335
40
0.35310344827586093
40
0.35448275862068851
40
0.35586206896551609
40
0.35724137931034367
40
0.35862068965517124
40
0.35999999999999882
40
0.3613793103448264
40
0.36275862068965398
40
0.36413793103448155
40
0.36551724137930913
40
0.36689655172413671
40
0.36827586206896429
40
0.36965517241379187
40
0.37103448275861944
40
0.37241379310344702
40
0.3737931034482746
40
0.37517241379310218
40
0.37655172413792976
40
0.37793103448275733
40
0.37931034482758491
40
0.38068965517241249
40
0.38206896551724007
40
0.38344827586206764
40
0.38482758620689522
40
0.3862068965517228
40
0.38758620689655038
40
0.38896551724137796
40
0.39034482758620553
40
0.39172413793103311
40
0.39310344827586069
40
0.39448275862068827
40
0.39586206896551585
40
0.39724137931034342
40
0.398620689655171
40
0.39999999999999858
40
0.40137931034482616
40
0.40275862068965373
40
0.40413793103448131
40
0.40551724137930889
40
0.40689655172413647
40
0.40827586206896405
40
0.40965517241379162
40
0.4110344827586192
40
0.41241379310344678
40
0.41379310344827436
40
0.41517241379310194
40
0.41655172413792951
40
0.41793103448275709
40
0.41931034482758467
40
0.42068965517241225
40
0.42206896551723982
40
0.4234482758620674
40
0.42482758620689498
40
0.42620689655172256
40
0.42758620689655014
40
0.42896551724137771
40
0.43034482758620529
40
0.43172413793103287
40
0.43310344827586045
40
0.43448275862068803
40
0.4358620689655156
40
0.43724137931034318
40
0.43862068965517076
40
0.43999999999999834
40
0.44137931034482591
40
0.44275862068965349
40
0.44413793103448107
40
0.44551724137930865
40
0.44689655172413623
40
0.4482758620689638
40
0.44965517241379138
40
0.45103448275861896
40
0.45241379310344654
40
0.45379310344827412
40
0.45517241379310169
40
0.45655172413792927
40
0.45793103448275685
40
0.45931034482758443
40
0.460689655172412
40
0.46206896551723958
40
0.46344827586206716
40
0.46482758620689474
40
0.46620689655172232
40
0.46758620689654989
40
0.46896551724137747
40
0.47034482758620505
40
0.47172413793103263
40
0.47310344827586021
40
0.47448275862068778
40
0.47586206896551536
40
0.47724137931034294
40
0.47862068965517052
40
0.47999999999999809
40
0.48137931034482567
40
0.48275862068965325
40
0.48413793103448083
40
0.48551724137930841
40
0.48689655172413598
40
0.48827586206896356
40
0.48965517241379114
40
0.49103448275861872
40
0.4924137931034463
40
0.49379310344827387
40
0.49517241379310145
40
0.49655172413792903
40
0.49793103448275661
40
0.49931034482758418
40
0.50068965517241182
40
0.50206896551723945
40
0.50344827586206709
40
0.50482758620689472
40
0.50620689655172235
40
0.50758620689654999
40
0.50896551724137762
40
0.51034482758620525
40
0.51172413793103289
40
0.51310344827586052
40
0.51448275862068815
40
0.51586206896551579
40
0.51724137931034342
40
0.51862068965517105
40
0.51999999999999869
40
0.52137931034482632
40
0.52275862068965395
40
0.52413793103448159
40
0.52551724137930922
40
0.52689655172413685
40
0.52827586206896449
40
0.52965517241379212
40
0.53103448275861975
40
0.53241379310344739
40
0.53379310344827502
40
0.53517241379310265
40
0.53655172413793029
40
0.53793103448275792
40
0.53931034482758555
40
0.54068965517241319
40
0.54206896551724082
40
0.54344827586206845
40
0.54482758620689609
40
0.54620689655172372
40
0.54758620689655135
40
0.54896551724137899
40
0.55034482758620662
40
0.55172413793103425
40
0.55310344827586189
40
0.55448275862068952
40
0.55586206896551715
40
0.55724137931034479
40
0.55862068965517242
40
0.56000000000000005
40
0.56137931034482769
40
0.56275862068965532
40
0.56413793103448295
40
0.56551724137931059
40
0.56689655172413822
40
0.56827586206896585
40
0.56965517241379349
40
0.57103448275862112
40
0.57241379310344875
40
0.57379310344827639
40
0.57517241379310402
40
0.57655172413793165
40
0.57793103448275929
40
0.57931034482758692
40
0.58068965517241455
40
0.58206896551724219
40
0.58344827586206982
40
0.58482758620689745
40
0.58620689655172509
40
0.58758620689655272
40
0.58896551724138035
40
0.59034482758620799
40
0.59172413793103562
40
0.59310344827586325
40
0.59448275862069089
40
0.59586206896551852
40
0.59724137931034615
40
0.59862068965517379
40
0.60000000000000142
40
0.60137931034482905
40
0.60275862068965669
40
0.60413793103448432
40
0.60551724137931195
40
0.60689655172413959
40
0.60827586206896722
40
0.60965517241379485
40
0.61103448275862249
40
0.61241379310345012
40
0.61379310344827775
40
0.61517241379310539
40
0.61655172413793302
40
0.61793103448276065
40
0.61931034482758829
40
0.62068965517241592
40
0.62206896551724356
40
0.62344827586207119
40
0.62482758620689882
40
0.62620689655172646
40
0.62758620689655409
40
0.62896551724138172
40
0.63034482758620936
40
0.63172413793103699
40
0.63310344827586462
40
0.63448275862069226
40
0.63586206896551989
40
0.63724137931034752
40
0.63862068965517516
40
0.64000000000000279
40
0.64137931034483042
40
0.64275862068965806
40
0.64413793103448569
40
0.64551724137931332
40
0.64689655172414096
40
0.64827586206896859
40
0.64965517241379622
40
0.65103448275862386
40
0.65241379310345149
40
0.65379310344827912
40
0.65517241379310676
40
0.65655172413793439
40
0.65793103448276202
40
0.65931034482758966
40
0.66068965517241729
40
0.66206896551724492
40
0.66344827586207256
40
0.66482758620690019
40
0.66620689655172782
40
0.66758620689655546
40
0.66896551724138309
40
0.67034482758621072
40
0.67172413793103836
40
0.67310344827586599
40
0.67448275862069362
40
0.67586206896552126
40
0.67724137931034889
40
0.67862068965517652
40
0.68000000000000416
40
0.68137931034483179
40
0.68275862068965942
40
0.68413793103448706
40
0.68551724137931469
40
0.68689655172414232
40
0.68827586206896996
40
0.68965517241379759
40
0.69103448275862522
40
0.69241379310345286
40
0.69379310344828049
40
0.69517241379310812
40
0.69655172413793576
40
0.69793103448276339
40
0.69931034482759102
40
0.70068965517241866
40
0.70206896551724629
40
0.70344827586207392
40
0.70482758620690156
40
0.70620689655172919
40
0.70758620689655682
40
0.70896551724138446
40
0.71034482758621209
40
0.71172413793103972
40
0.71310344827586736
40
0.71448275862069499
40
0.71586206896552262
40
0.71724137931035026
40
0.71862068965517789
40
0.72000000000000552
40
0.72137931034483316
40
0.72275862068966079
40
0.72413793103448842
40
0.72551724137931606
40
0.72689655172414369
40
0.72827586206897132
40
0.72965517241379896
40
0.73103448275862659
40
0.73241379310345422
40
0.73379310344828186
40
0.73517241379310949
40
0.73655172413793712
40
0.73793103448276476
40
0.73931034482759239
40
0.74068965517242003
40
0.74206896551724766
40
0.74344827586207529
40
0.74482758620690293
40
0.74620689655173056
40
0.74758620689655819
40
0.74896551724138583
40
0.75034482758621346
40
0.75172413793104109
40
0.75310344827586873
40
0.75448275862069636
40
0.75586206896552399
40
0.75724137931035163
40
0.75862068965517926
40
0.76000000000000689
40
0.76137931034483453
40
0.76275862068966216
40
0.76413793103448979
40
0.76551724137931743
40
0.76689655172414506
40
0.76827586206897269
40
0.76965517241380033
40
0.77103448275862796
40
0.77241379310345559
40
0.77379310344828323
40
0.77517241379311086
40
0.77655172413793849
40
0.77793103448276613
40
0.77931034482759376
40
0.78068965517242139
40
0.78206896551724903
40
0.78344827586207666
40
0.78482758620690429
40
0.78620689655173193
40
0.78758620689655956
40
0.78896551724138719
40
0.79034482758621483
40
0.79172413793104246
40
0.79310344827587009
40
0.79448275862069773
40
0.79586206896552536
40
0.79724137931035299
40
0.79862068965518063
40
0.80000000000000826
40
0.80137931034483589
40
0.80275862068966353
40
0.80413793103449116
40
0.80551724137931879
40
0.80689655172414643
40
0.80827586206897406
40
0.80965517241380169
40
0.81103448275862933
40
0.81241379310345696
40
0.81379310344828459
40
0.81517241379311223
40
0.81655172413793986
40
0.81793103448276749
40
0.81931034482759513
40
0.82068965517242276
40
0.82206896551725039
40
0.82344827586207803
40
0.82482758620690566
40
0.82620689655173329
40
0.82758620689656093
40
0.82896551724138856
40
0.83034482758621619
40
0.83172413793104383
40
0.83310344827587146
40
0.83448275862069909
40
0.83586206896552673
40
0.83724137931035436
40
0.83862068965518199
40
0.84000000000000963
40
0.84137931034483726
40
0.84275862068966489
40
0.84413793103449253
40
0.84551724137932016
40
0.84689655172414779
40
0.84827586206897543
40
0.84965517241380306
40
0.85103448275863069
40
0.85241379310345833
40
0.85379310344828596
40
0.85517241379311359
40
0.85655172413794123
40
0.85793103448276886
40
0.8593103448275965
40
0.86068965517242413
40
0.86206896551725176
40
0.8634482758620794
40
0.86482758620690703
40
0.86620689655173466
40
0.8675862068965623
40
0.86896551724138993
40
0.87034482758621756
40
0.8717241379310452
40
0.87310344827587283
40
0.87448275862070046
40
0.8758620689655281
40
0.87724137931035573
40
0.87862068965518336
40
0.880000000000011
40
0.88137931034483863
40
0.88275862068966626
40
0.8841379310344939
40
0.88551724137932153
40
0.88689655172414916
40
0.8882758620689768
40
0.88965517241380443
40
0.89103448275863206
40
0.8924137931034597
40
0.89379310344828733
40
0.89517241379311496
40
0.8965517241379426
40
0.89793103448277023
40
0.89931034482759786
40
0.9006896551724255
40
0.90206896551725313
40
0.90344827586208076
40
0.9048275862069084
40
0.90620689655173603
40
0.90758620689656366
40
0.9089655172413913
40
0.91034482758621893
40
0.91172413793104656
40
0.9131034482758742
40
0.91448275862070183
40
0.91586206896552946
40
0.9172413793103571
40
0.91862068965518473
40
0.92000000000001236
40
0.92137931034484
40
0.92275862068966763
40
0.92413793103449526
40
0.9255172413793229
40
0.92689655172415053
40
0.92827586206897816
40
0.9296551724138058
40
0.93103448275863343
40
0.93241379310346106
40
0.9337931034482887
40
0.93517241379311633
40
0.93655172413794396
40
0.9379310344827716
40
0.93931034482759923
40
0.94068965517242686
40
0.9420689655172545
40
0.94344827586208213
40
0.94482758620690976
40
0.9462068965517374
40
0.94758620689656503
40
0.94896551724139266
40
0.9503448275862203
40
0.95172413793104793
40
0.95310344827587556
40
0.9544827586207032
40
0.95586206896553083
40
0.95724137931035846
40
0.9586206896551861
40
0.96000000000001373
40
0.96137931034484136
40
0.962758620689669
40
0.96413793103449663
40
0.96551724137932426
40
0.9668965517241519
40
0.96827586206897953
40
0.96965517241380716
40
0.9710344827586348
40
0.97241379310346243
40
0.97379310344829006
40
0.9751724137931177
40
0.97655172413794533
40
0.97793103448277297
40
0.9793103448276006
40
0.98068965517242823
40
0.98206896551725587
40
0.9834482758620835
40
0.98482758620691113
40
0.98620689655173877
40
0.9875862068965664
40
0.98896551724139403
40
0.99034482758622167
40
0.9917241379310493
40
0.99310344827587693
40
0.99448275862070457
40
0.9958620689655322
40
0.99724137931035983
40
0.99862068965518747
40
1
40
1
40
1
40
1
40
1
40
1
41
1
41
1
41
1
41
1
41
1
41
1
41
1
41
1
41
1
41
1
41
1
41
1
41
1
41
1
41
1
41
1
41
1
41
1
41
1
41
1
41
1
41
1
41
1
41
1
41
1
41
1
41
1
41
1
41
1
41
1
41
1
41
1
41
1
41
1
41
1
41
1
41
1
41
1
41
1
41
1
41
1
41
1
41
1
41
1
41
1
41
1
41
1
41
1
41
1
41
1
41
1
41
1
41
1
41
1
41
1
41
1
41
1
41
1
41
1
41
1
41
1
41
1
41
1
41
1
41
1
41
1
41
1
41
1
41
1
41
1
41
1
41
1
41
1
41
1
41
1
41
1
41
1
41
1
41
1
41
1
41
1
41
1
41
1
41
1
41
1
41
1
41
1
41
1
41
1
41
1
41
1
41
1
41
1
41
1
41
1
41
1
41
1
41
1
41
1
41
1
41
1
41
1
41
1
41
1
41
1
41
1
41
1
41
1
41
1
41
1
41
1
41
1
41
1
41
1
41
1
41
1
41
1
41
1
41
1
41
1
41
1
41
1
41
1
41
1
41
1
41
1
41
1
41
1
41
1
41
1
41
1
41
1
41
1
41
1
41
1
41
1
41
1
41
1
41
1
41
1
41
1
41
1
41
1
41
1
41
1
41
1
41
1
41
1
41
1
41
1
41
1
41
1
41
1
41
1
41
1
41
1
41
1
41
1
41
1
41
1
41
1
41
1
41
1
41
1
41
1
41
1
41
1
41
1
41
1
41
1
41
1
41
1
41
1
41
1
41
1
41
1
41
1
41
1
41
1
41
1
41
1
41
1
41
1
41
1
41
1
41
1
41
1
41
1
41
1
41
1
41
1
41
1
41
1
41
1
41
1
41
1
41
1
41
1
41
1
41
1
41
1
41
1
41
1
41
1
41
1
41
1
41
1
41
1
41
1
41
1
41
1
41
1
41
1
41
1
41
1
41
1
41
1
41
1
41
1
41
1
41
1
41
1
41
1
41
1
41
1
41
1
41
1
41
1
41
1
41
1
41
1
41
1
41
1
41
1
41
1
41
1
41
1
41
1
41
1
41
1
41
1
41
1
41
1
41
1
41
1
41
1
41
1
41
1
41
1
41
1
41
1
41
1
41
1
41
1
41
1
41
1
41
1
41
1
41
1
41
1
41
1
41
1
41
1
41
1
41
1
41
1
41
1
41
1
41
1
41
1
41
1
41
1
41
1
41
1
41
1
41
1
41
1
41
1
41
1
41
1
41
1
41
1
41
1
41
1
41
1
41
1
41
1
41
1
41
1
41
1
41
1
41
1
41
1
41
1
41
1
41
1
41
1
41
1
41
1
41
1
41
1
41
1
41
1
41
1
41
1
41
1
41
1
41
1
41
1
41
1
41
1
41
1
41
1
41
1
41
1
41
1
41
1
41
1
41
1
41
1
41
1
41
1
41
1
41
1
41
1
41
1
41
1
41
1
41
1
41
1
41
1
41
1
41
1
41
1
41
1
41
1
41
1
41
1
41
1
41
1
41
1
41
1
41
1
41
1
41
1
41
1
41
1
41
1
41
1
41
1
41
1
41
1
41
1
41
1
41
1
41
1
41
1
41
1
41
1
41
1
41
1
41
1
41
1
41
1
41
1
41
1
41
1
41
1
41
1
41
1
41
1
41
1
41
1
41
1
41
1
41
1
41
1
41
1
41
1
41
1
41
1
41
1
41
1
41
1
41
1
41
1
41
1
41
1
41
1
41
1
41
1
41
1
41
1
41
1
41
1
41
1
41
1
41
1
41
1
41
1
41
1
41
1
41
1
41
1
41
1
41
1
41
1
41
1
41
1
41
1
41
1
41
1
41
1
41
1
41
1
41
1
41
1
41
1
41
1
41
1
41
1
41
1
41
1
41
1
41
1
41
1
41
1
41
1
41
1
41
1
41
1
41
1
41
1
41
1
41
1
41
1
41
1
41
1
41
1
41
1
41
1
41
1
41
1
41
1
41
1
41
1
41
1
41
1
41
1
41
1
41
1
41
1
41
1
41
1
41
1
41
1
41
1
41
1
41
1
41
1
41
1
41
1
41
1
41
1
41
1
41
1
41
1
41
1
41
1
41
1
41
1
41
1
41
1
41
1
41
1
41
1
41
1
41
1
41
1
41
1
41
1
41
1
41
1
41
1
41
1
41
1
41
1
41
1
41
1
41
1
41
1
41
1
41
1
41
1
41
1
41
1
41
1
41
1
41
1
41
1
41
1
41
1
41
1
41
1
41
1
41
1
41
1
41
1
41
1
41
1
41
1
41
1
41
1
41
1
41
1
41
1
41
1
41
1
41
1
41
1
41
1
41
1
41
1
41
1
41
1
41
1
41
1
41
1
41
1
41
1
41
1
41
1
41
1
41
1
41
1
41
1
41
1
41
1
41
1
41
1
41
1
41
1
41
1
41
1
41
1
41
1
41
1
41
1
41
1
41
1
41
1
41
1
41
1
41
1
41
1
41
1
41
1
41
1
41
1
41
1
41
1
41
1
41
1
41
1
41
1
41
1
41
1
41
1
41
1
41
1
41
1
41
1
41
1
41
1
41
1
41
1
41
1
41
1
41
1
41
1
41
1
41
1
41
1
41
1
41
1
41
1
41
1
41
1
41
1
41
1
41
1
41
1
41
1
41
1
41
1
41
1
41
1
41
1
41
1
41
1
41
1
41
1
41
1
41
1
41
1
41
1
41
1
41
1
41
1
41
1
41
1
41
1
41
1
41
1
41
1
41
1
41
1
41
1
41
1
41
1
41
1
41
1
41
1
41
1
41
1
41
1
41
1
41
1
41
1
41
1
41
1
41
1
41
1
41
1
41
1
41
1
41
1
41
1
41
1
41
1
41
1
41
1
41
1
41
1
41
1
41
1
41
1
41
1
41
1
41
1
41
1
41
1
41
1
41
1
41
1
41
1
41
1
41
1
41
1
41
1
41
1
41
1
41
1
41
1
41
1
41
1
41
1
41
1
41
1
41
1
41
1
41
1
41
1
41
1
41
1
41
1
41
1
41
1
41
1
41
1
41
1
41
1
41
1
41
1
41
1
41
1
41
1
41
1
41
1
41
1
41
1
41
1
41
1
41
1
41
1
41
1
41
1
41
1
41
1
41
1
41
1
41
1
41
1
41
1
41
1
41
1
41
1
41
1
41
1
41
1
41
1
41
1
41
1
41
1
41
1
41
1
41
1
41
1
41
1
41
1
41
1
41
1
41
1
41
1
41
1
41
1
41
1
41
1
41
1
41
1
10
29.742000000000001
20
-87.331400000000002
30
0
10
29.653178851145789
20
-87.343039192324255
30
0
10
29.467223703057577
20
-87.364859693224005
30
0
10
29.163121733977661
20
-87.393414189414244
30
0
10
28.716658213315537
20
-87.423141485076201
30
0
10
28.142471554844349
20
-87.443891264040516
30
0
10
27.60963082646834
20
-87.44451373294892
30
0
10
27.160752354194642
20
-87.421310345589603
30
0
10
26.794407217182169
20
-87.372126340815839
30
0
10
26.472666656715802
20
-87.296596288600426
30
0
10
26.151157055164397
20
-87.195453386994103
30
0
10
25.808692946101537
20
-87.070128710806912
30
0
10
25.45572441762625
20
-86.922200689694449
30
0
10
25.112768972584799
20
-86.75298656360205
30
0
10
24.793967742077932
20
-86.562894559051315
30
0
10
24.496676272820537
20
-86.351449186480693
30
0
10
24.213298207456099
20
-86.118638588057181
30
0
10
23.939270225356136
20
-85.866230115499491
30
0
10
23.680114888986022
20
-85.598472598064205
30
0
10
23.443397396599934
20
-85.319174275354271
30
0
10
23.232742689585155
20
-85.029214937864666
30
0
10
23.041403500251473
20
-84.724009554814671
30
0
10
22.858299277441322
20
-84.39440173046404
30
0
10
22.67325356096741
20
-84.027461539008556
30
0
10
22.483039203057832
20
-83.60718686845513
30
0
10
22.289463680959795
20
-83.11763523077056
30
0
10
22.096639197011044
20
-82.546508600412892
30
0
10
21.908743770097225
20
-81.888180790845908
30
0
10
21.72709387515237
20
-81.147901477412603
30
0
10
21.549374035745576
20
-80.341857039574592
30
0
10
21.371087345735106
20
-79.49286624630561
30
0
10
21.186427158722982
20
-78.62720879340651
30
0
10
20.989364449953754
20
-77.771053323248111
30
0
10
20.774689369447017
20
-76.946915579348087
30
0
10
20.538963840226579
20
-76.17043368600423
30
0
10
20.281781452502912
20
-75.446189766758593
30
0
10
20.005819927067954
20
-74.767206821287857
30
0
10
19.71570563456666
20
-74.118042971131118
30
0
10
19.417211439335272
20
-73.476885890769211
30
0
10
19.116300483477694
20
-72.818090226060491
30
0
10
18.818276853816599
20
-72.114446518187222
30
0
10
18.526791845579666
20
-71.339755025786204
30
0
10
18.243224473878726
20
-70.470667623688826
30
0
10
17.967116626526764
20
-69.486504927657407
30
0
10
17.69642142829256
20
-68.369430758200082
30
0
10
17.427825271466062
20
-67.104485730150486
30
0
10
17.157038412961022
20
-65.6796809954173
30
0
10
16.879099048067882
20
-64.086066110409305
30
0
10
16.588671644314314
20
-62.317808172406927
30
0
10
16.280347572384173
20
-60.37226593954
30
0
10
15.948945136497844
20
-58.250066630260058
30
0
10
15.589808957842152
20
-55.955180503744153
30
0
10
15.199111749685812
20
-53.494999014691878
30
0
10
14.774150178123772
20
-50.880405494478211
30
0
10
14.313654655023758
20
-48.12586299040079
30
0
10
13.818066628477412
20
-45.249462360996191
30
0
10
13.289894052725124
20
-42.273065925349727
30
0
10
12.733822660709826
20
-39.222152759317616
30
0
10
12.156266965550726
20
-36.124979477030017
30
0
10
11.565033510894228
20
-33.011878159924507
30
0
10
10.968939453939592
20
-29.914499717163217
30
0
10
10.377450238194969
20
-26.865080568145999
30
0
10
9.800309065462395
20
-23.895699307895285
30
0
10
9.2471698992001361
20
-21.037537672561299
30
0
10
8.7272289582235558
20
-18.320139675772836
30
0
10
8.2488568312423887
20
-15.770671440863357
30
0
10
7.819230371609148
20
-13.413180873929418
30
0
10
7.443964539794039
20
-11.267856973916095
30
0
10
7.126744556763053
20
-9.3502901631083795
30
0
10
6.8689571846340423
20
-7.6707300005836068
30
0
10
6.6693240137473895
20
-6.2333488765730038
30
0
10
6.5235299971018517
20
-5.0354916218467167
30
0
10
6.4238629449937577
20
-4.0669576445598441
30
0
10
6.358827458885087
20
-3.3092072842443998
30
0
10
6.3128182485173099
20
-2.7347443199666737
30
0
10
6.2656524868643304
20
-2.3060800669823669
30
0
10
6.1924973322992907
20
-1.9758786536894499
30
0
10
6.0681317064650369
20
-1.700576962467339
30
0
10
5.8708208197729137
20
-1.4525951779493385
30
0
10
5.5864822696894461
20
-1.2340026218488453
30
0
10
5.2080730155319968
20
-1.0621077214699983
30
0
10
4.7348377103477377
20
-0.95465462426851899
30
0
10
4.1715615089974127
20
-0.91380242959555769
30
0
10
3.5283256428500538
20
-0.92864191623544512
30
0
10
2.8202757344858567
20
-0.97983126557001921
30
0
10
2.067488635891594
20
-1.0434559295139347
30
0
10
1.2945633416835425
20
-1.0952492856819576
30
0
10
0.53090637399303398
20
-1.1145767145998375
30
0
10
-0.19150935451815729
20
-1.0888211541643704
30
0
10
-0.84303536424590597
20
-1.0180038431031149
30
0
10
-1.4005959690700074
20
-0.91949342213171725
30
0
10
-1.8520621253053362
20
-0.83236114311038512
30
0
10
-2.2008928139067745
20
-0.82263438210332618
30
0
10
-2.4697519138937141
20
-0.98605662892474744
30
0
10
-2.6901089294623501
20
-1.4190064052628284
30
0
10
-2.8925122788762723
20
-2.1907139670697475
30
0
10
-3.0970921080886398
20
-3.3166013364139024
30
0
10
-3.3153460627623188
20
-4.7690628239589419
30
0
10
-3.55136956748844
20
-6.4864604448183378
30
0
10
-3.8032983751422433
20
-8.3827975796190675
30
0
10
-4.0646608743306638
20
-10.357105702278753
30
0
10
-4.3257689327941353
20
-12.302950486680889
30
0
10
-4.5750925749168907
20
-14.117895152790766
30
0
10
-4.8006404914640175
20
-15.712961930128984
30
0
10
-4.991340577364725
20
-17.022141641207128
30
0
10
-5.1384145388600455
20
-18.011773273320916
30
0
10
-5.2367688605087013
20
-18.690234666717231
30
0
10
-5.2863463009095994
20
-19.116901292913894
30
0
10
-5.2935806224663162
20
-19.41296934173057
30
0
10
-5.2688782385674129
20
-19.71296474348879
30
0
10
-5.2241255157842215
20
-20.118504468446503
30
0
10
-5.1699360939529457
20
-20.643340720371167
30
0
10
-5.1152934199472755
20
-21.236535349042708
30
0
10
-5.0675998244924072
20
-21.821253186062211
30
0
10
-5.0326329825801484
20
-22.325102637317901
30
0
10
-5.0144248209104951
20
-22.721096887927004
30
0
10
-5.0155809582053514
20
-23.038886654627987
30
0
10
-5.0381865568139341
20
-23.336973658540941
30
0
10
-5.0846856386831547
20
-23.682375711092508
30
0
10
-5.1584209602796349
20
-24.133112870477284
30
0
10
-5.2630726225875613
20
-24.740230470176321
30
0
10
-5.4023089438475145
20
-25.545771440860872
30
0
10
-5.5793526108956524
20
-26.582376842761558
30
0
10
-5.79658354661274
20
-27.872192219895922
30
0
10
-6.0551247196066544
20
-29.42606771657659
30
0
10
-6.3544381965894186
20
-31.242642706024249
30
0
10
-6.691909854164086
20
-33.307453574660876
30
0
10
-7.0624583131275429
20
-35.592105385422116
30
0
10
-7.4590279991566391
20
-38.056835181752248
30
0
10
-7.8730609385882575
20
-40.652988666180157
30
0
10
-8.2949764476739904
20
-43.325529301664297
30
0
10
-8.714647509200578
20
-46.015533758008928
30
0
10
-9.1218784500672356
20
-48.662692703945481
30
0
10
-9.5068823206085558
20
-51.207810345801349
30
0
10
-9.8607577912629036
20
-53.595302010816127
30
0
10
-10.175967694325422
20
-55.775698416260411
30
0
10
-10.446813558523818
20
-57.708133647291632
30
0
10
-10.669919590725668
20
-59.362871569850107
30
0
10
-10.844694737753251
20
-60.723743101898876
30
0
10
-10.973845750303422
20
-61.790790953128656
30
0
10
-11.063771872996922
20
-62.582432912446102
30
0
10
-11.125234705462745
20
-63.138744411573683
30
0
10
-11.173385806997569
20
-63.522128687597856
30
0
10
-11.229362584199961
20
-63.824368210782325
30
0
10
-11.316124441294622
20
-64.150185273176447
30
0
10
-11.450396880032329
20
-64.584644394930976
30
0
10
-11.633859987203216
20
-65.157994711408534
30
0
10
-11.850723657484579
20
-65.834891069092549
30
0
10
-12.076500805072229
20
-66.546664252320113
30
0
10
-12.284096192135882
20
-67.213259139275195
30
0
10
-12.451018772492047
20
-67.769499475869168
30
0
10
-12.56602322527444
20
-68.18915103325044
30
0
10
-12.636236309967696
20
-68.510859166388514
30
0
10
-12.679740609763666
20
-68.808952277569816
30
0
10
-12.718293763394904
20
-69.164903507343425
30
0
10
-12.769253756225833
20
-69.635414473885518
30
0
10
-12.844890033018491
20
-70.251670763414126
30
0
10
-12.95296263882034
20
-71.023966112533316
30
0
10
-13.09686960253573
20
-71.944452774032882
30
0
10
-13.275947938827127
20
-72.990665158524905
30
0
10
-13.485773808417825
20
-74.128745631253437
30
0
10
-13.718299265713842
20
-75.316711435088095
30
0
10
-13.962815994860772
20
-76.508111281271397
30
0
10
-14.207479191910345
20
-77.656028090650381
30
0
10
-14.44064929878385
20
-78.716933533608
30
0
10
-14.652338369638368
20
-79.654693638846709
30
0
10
-14.835543981100761
20
-80.444303266296501
30
0
10
-14.987788528047922
20
-81.076216642817997
30
0
10
-15.112204119880527
20
-81.55930382539924
30
0
10
-15.219699024246777
20
-81.927103926600381
30
0
10
-15.32773238681467
20
-82.233721840971725
30
0
10
-15.453270524734858
20
-82.531926501355727
30
0
10
-15.606106872087102
20
-82.852397575471528
30
0
10
-15.784516645811422
20
-83.190003828039067
30
0
10
-15.982256865216071
20
-83.524446331087816
30
0
10
-16.19402249666404
20
-83.836145915898754
30
0
10
-16.420939604381559
20
-84.122479520636176
30
0
10
-16.666440857220262
20
-84.388776235666981
30
0
10
-16.933004916151273
20
-84.641447333539176
30
0
10
-17.218210958473325
20
-84.879758943317427
30
0
10
-17.517742891867055
20
-85.099292143282469
30
0
10
-17.82825745520395
20
-85.295541173402626
30
0
10
-18.151305670790514
20
-85.46826292547253
30
0
10
-18.489825952927482
20
-85.619666207161615
30
0
10
-18.844045882927155
20
-85.751655078948403
30
0
10
-19.205427326451073
20
-85.862455541681413
30
0
10
-19.561862426805522
20
-85.948089805078055
30
0
10
-19.906763638467087
20
-86.005700037328666
30
0
10
-20.249760960173578
20
-86.037360552656551
30
0
10
-20.615610287206238
20
-86.049493547805184
30
0
10
-21.032987845989382
20
-86.048610288672492
30
0
10
-21.524896222159295
20
-86.03736398100871
30
0
10
-22.102692545784251
20
-86.012955340395791
30
0
10
-22.768041426838263
20
-85.970018501399181
30
0
10
-23.512879629708383
20
-85.902401149092768
30
0
10
-24.320188654259731
20
-85.805395839384687
30
0
10
-25.164423268265629
20
-85.67777235826793
30
0
10
-26.012080336840668
20
-85.523912370170137
30
0
10
-26.826532053264277
20
-85.351889797053516
30
0
10
-27.572993440323469
20
-85.171531665873886
30
0
10
-28.223277586622025
20
-84.992509670245354
30
0
10
-28.761004809334082
20
-84.822363616912071
30
0
10
-29.18576557373326
20
-84.664683515888356
30
0
10
-29.519918680900492
20
-84.516883310835013
30
0
10
-29.800450186697454
20
-84.370600836987663
30
0
10
-30.067065499445697
20
-84.213318147584971
30
0
10
-30.349756641689581
20
-84.028839325961755
30
0
10
-30.664752272105808
20
-83.801296379764693
30
0
10
-31.016622682420515
20
-83.520199893684705
30
0
10
-31.397822555552452
20
-83.18683657893537
30
0
10
-31.791717265836844
20
-82.81404191970455
30
0
10
-32.178315672196796
20
-82.418346820300812
30
0
10
-32.539250906033679
20
-82.014299931478917
30
0
10
-32.863259604945895
20
-81.607593672473001
30
0
10
-33.150908244182311
20
-81.189547319075857
30
0
10
-33.409662498967158
20
-80.745780330350414
30
0
10
-33.649192182384141
20
-80.26483971186083
30
0
10
-33.877086295816198
20
-79.74556830236854
30
0
10
-34.093163899657405
20
-79.208156509803715
30
0
10
-34.290530367226523
20
-78.687774414960913
30
0
10
-34.460493908755922
20
-78.217923880194149
30
0
10
-34.596016445271232
20
-77.818241412059777
30
0
10
-34.696384256436744
20
-77.477576524655348
30
0
10
-34.769491507166222
20
-77.147839802832181
30
0
10
-34.826298267826942
20
-76.774205725526642
30
0
10
-34.876301848714725
20
-76.321037346123603
30
0
10
-34.923071208216626
20
-75.796149063278037
30
0
10
-34.966084921527035
20
-75.230934691459808
30
0
10
-35.002100039398201
20
-74.663145142562172
30
0
10
-35.026617573884451
20
-74.120190581232066
30
0
10
-35.035519698333019
20
-73.598374693551051
30
0
10
-35.02552684226459
20
-73.063816840688887
30
0
10
-34.994043662367048
20
-72.464111012581029
30
0
10
-34.939199831222297
20
-71.736749103754647
30
0
10
-34.859808373223593
20
-70.818543519049058
30
0
10
-34.755362833757161
20
-69.655445663223333
30
0
10
-34.626006894630677
20
-68.209599207436497
30
0
10
-34.472471343099585
20
-66.456935106716287
30
0
10
-34.296015033473573
20
-64.38642998597345
30
0
10
-34.098364382913267
20
-61.99870734818893
30
0
10
-33.881653494241789
20
-59.30491937158002
30
0
10
-33.648364014895066
20
-56.325508145855814
30
0
10
-33.401265114364868
20
-53.089018943141369
30
0
10
-33.143353414628237
20
-49.630891196410552
30
0
10
-32.877792944247432
20
-45.992259174211718
30
0
10
-32.607855084392042
20
-42.218748558544107
30
0
10
-32.336858520845567
20
-38.359274857153522
30
0
10
-32.068109192369967
20
-34.464841061145968
30
0
10
-31.804840245211047
20
-30.587335691398856
30
0
10
-31.550151973780469
20
-26.77833062163387
30
0
10
-31.306951790033473
20
-23.087879166724502
30
0
10
-31.077894121791601
20
-19.563313650122712
30
0
10
-30.865320469452161
20
-16.248044072860857
30
0
10
-30.671199086511717
20
-13.180354150358205
30
0
10
-30.49706552351125
20
-10.392203320652991
30
0
10
-30.343961154611105
20
-7.9080147184220184
30
0
10
-30.212376375658927
20
-5.7434955356477868
30
0
10
-30.102182933257676
20
-3.9043818959388847
30
0
10
-30.012591566691963
20
-2.3853593651011549
30
0
10
-29.942048810107593
20
-1.1685612487225308
30
0
10
-29.888323690829843
20
-0.22338174552555004
30
0
10
-29.849040669378596
20
0.49065795985297755
30
0
10
-29.822120036423403
20
1.021637975294539
30
0
10
-29.806263153529674
20
1.4227585302618138
30
0
10
-29.80140016130202
20
1.7498865252103057
30
0
10
-29.809197609310161
20
2.0592377002192941
30
0
10
-29.83341273374144
20
2.4045601859334873
30
0
10
-29.877573323534435
20
2.8241210025166308
30
0
10
-29.942892174041447
20
3.3288522765778246
30
0
10
-30.025882369208702
20
3.8886209524461766
30
0
10
-30.120298147585803
20
4.4506631204609715
30
0
10
-30.219435820757251
20
4.9617577498851277
30
0
10
-30.318179888016182
20
5.3861661544353376
30
0
10
-30.415459921707111
20
5.7322569460430337
30
0
10
-30.515255373209854
20
6.0484976479347967
30
0
10
-30.625806544453408
20
6.3925718978045456
30
0
10
-30.759925508702221
20
6.8036150132701314
30
0
10
-30.932897541701706
20
7.2866799931047677
30
0
10
-31.156591205954633
20
7.8255937157907294
30
0
10
-31.434330232089941
20
8.3891855560198216
30
0
10
-31.755626402208815
20
8.9401102138111845
30
0
10
-32.090486707454126
20
9.4427616035237332
30
0
10
-32.402575919534101
20
9.8700956324792415
30
0
10
-32.664807252601619
20
10.211243605623592
30
0
10
-32.871186488216608
20
10.476764581417431
30
0
10
-33.057099092651534
20
10.709897183320386
30
0
10
-33.28864951010754
20
10.975411051622865
30
0
10
-33.628448627018315
20
11.331859909188804
30
0
10
-34.102015278880074
20
11.803323866514305
30
0
10
-34.683555246490322
20
12.368316343093378
30
0
10
-35.318695223411488
20
12.980450613149806
30
0
10
-35.938164169479677
20
13.581333742543256
30
0
10
-36.475491493746908
20
14.116966348175215
30
0
10
-36.882174189872885
20
14.551809213745104
30
0
10
-37.145870387652224
20
14.885840855640627
30
0
10
-37.301569741984515
20
15.164460305546136
30
0
10
-37.401406882562995
20
15.445944101932113
30
0
10
-37.488872405431252
20
15.773426249589775
30
0
10
-37.571843452063469
20
16.145674084140175
30
0
10
-37.637313905184996
20
16.53841283100536
30
0
10
-37.664741471909963
20
16.923495748477187
30
0
10
-37.64087386046846
20
17.291212075761763
30
0
10
-37.56122129320125
20
17.643919659446365
30
0
10
-37.429317458354902
20
17.987215986615549
30
0
10
-37.258175147302033
20
18.320158484579594
30
0
10
-37.062993860041516
20
18.637147607059617
30
0
10
-36.853667606654177
20
18.932800180846122
30
0
10
-36.623037667539741
20
19.207521759599672
30
0
10
-36.355459236703489
20
19.465351636506231
30
0
10
-36.042946783263446
20
19.708413870118328
30
0
10
-35.706728190171518
20
19.92963227644427
30
0
10
-35.388820407422521
20
20.116165480782321
30
0
10
-35.116822528426361
20
20.262306961943626
30
0
10
-34.866990892297203
20
20.383404428143443
30
0
10
-34.556379174459224
20
20.518032113510237
30
0
10
-34.092474178130459
20
20.707373829867098
30
0
10
-33.414081322617918
20
20.977897545097292
30
0
10
-32.523719761003832
20
21.327934141365784
30
0
10
-31.466468057944063
20
21.737473123608041
30
0
10
-30.317815499653378
20
22.174078073685376
30
0
10
-29.167967904418756
20
22.600326606054878
30
0
10
-28.107618752297697
20
22.98062456377663
30
0
10
-27.21320185432733
20
23.288231519521204
30
0
10
-26.53210704920243
20
23.512329987375931
30
0
10
-26.068523195831634
20
23.664759363769182
30
0
10
-25.767410404348151
20
23.787723710788558
30
0
10
-25.55029827390419
20
23.934422815399113
30
0
10
-25.349737497635857
20
24.150338989922307
30
0
10
-25.150563048622256
20
24.451083300658642
30
0
10
-24.972889817202613
20
24.830027748809972
30
0
10
-24.84640065896378
20
25.270682613205913
30
0
10
-24.783579303229537
20
25.758915307858992
30
0
10
-24.778461358828217
20
26.28612883738311
30
0
10
-24.815303334968863
20
26.848858106952498
30
0
10
-24.873600096653355
20
27.449482650613263
30
0
10
-24.935338090768667
20
28.096708088180264
30
0
10
-24.988968056706259
20
28.805368760341938
30
0
10
-25.027718674764632
20
29.594150387069003
30
0
10
-25.049008202966885
20
30.483760130752941
30
0
10
-25.053421289863365
20
31.494914873770057
30
0
10
-25.043872885645627
20
32.646412099061465
30
0
10
-25.0246882428204
20
33.95315387507673
30
0
10
-25.000727111933507
20
35.424217373889071
30
0
10
-24.976469801035343
20
37.060842588364494
30
0
10
-24.955174062513588
20
38.854634033523332
30
0
10
-24.939035722423419
20
40.78906199284912
30
0
10
-24.929295543957494
20
42.840784006525617
30
0
10
-24.926366330734183
20
44.981034183795991
30
0
10
-24.929951426424889
20
47.1769835845665
30
0
10
-24.939166908919034
20
49.393113118379958
30
0
10
-24.952662173330836
20
51.592580693505539
30
0
10
-24.968741230635469
20
53.738591561152766
30
0
10
-24.985483626666923
20
55.795765554734373
30
0
10
-25.000865675387729
20
57.731509684185802
30
0
10
-25.01288119667722
20
59.51737915511422
30
0
10
-25.019663299375907
20
61.130465023178935
30
0
10
-25.019603782832252
20
62.554720276127959
30
0
10
-25.011478058550537
20
63.782429108039949
30
0
10
-24.994557201751896
20
64.815342194090647
30
0
10
-24.968751462198263
20
65.666627205280406
30
0
10
-24.934639738286542
20
66.359893807384438
30
0
10
-24.893366358277923
20
66.925000079197702
30
0
10
-24.846581771727404
20
67.394677641214031
30
0
10
-24.796345926983697
20
67.800885410524558
30
0
10
-24.745093538245719
20
68.171133060244514
30
0
10
-24.695436718989509
20
68.525241533232872
30
0
10
-24.646929273741563
20
68.88070632039701
30
0
10
-24.593157202533568
20
69.257357080916535
30
0
10
-24.518325780324723
20
69.682813156831344
30
0
10
-24.402114696365853
20
70.186359052726431
30
0
10
-24.225388640088973
20
70.79163432454051
30
0
10
-23.975049571731102
20
71.510534206425191
30
0
10
-23.650570023413977
20
72.334717721806186
30
0
10
-23.264552314287378
20
73.23563691483966
30
0
10
-22.837555186206693
20
74.17274770236115
30
0
10
-22.394499063022934
20
75.09946543133816
30
0
10
-21.960396420717053
20
75.970089087840847
30
0
10
-21.556438886585717
20
76.746203695719728
30
0
10
-21.195773564155999
20
77.403555807000728
30
0
10
-20.879784056681764
20
77.938139300283723
30
0
10
-20.593156027826751
20
78.374195774071595
30
0
10
-20.311226316605179
20
78.752991516760204
30
0
10
-20.009692962436354
20
79.118014384763569
30
0
10
-19.672381153865167
20
79.502957512934458
30
0
10
-19.302462552447771
20
79.91491631583682
30
0
10
-18.922458781698744
20
80.332987349462215
30
0
10
-18.560250322446159
20
80.726039915082183
30
0
10
-18.238675637296247
20
81.065581749147654
30
0
10
-17.963543085574166
20
81.340769359982517
30
0
10
-17.712700964081428
20
81.572053395179665
30
0
10
-17.451032504272003
20
81.794457453453333
30
0
10
-17.144430587098388
20
82.042015404717219
30
0
10
-16.775508007535571
20
82.330223572923586
30
0
10
-16.34145427074413
20
82.659068386345439
30
0
10
-15.849752535011774
20
83.018584823911397
30
0
10
-15.314766380020025
20
83.393270489511423
30
0
10
-14.753697265109107
20
83.767567451097591
30
0
10
-14.183806115762161
20
84.128673939802951
30
0
10
-13.620899115042773
20
84.466496087637807
30
0
10
-13.077481187082878
20
84.77434061815157
30
0
10
-12.561074253154922
20
85.049285450917836
30
0
10
-12.072394103711584
20
85.29273805387605
30
0
10
-11.603787381125841
20
85.510775746982247
30
0
10
-11.142016661898403
20
85.711858349897824
30
0
10
-10.670879319425978
20
85.904542013287596
30
0
10
-10.173827180156298
20
86.09541572300472
30
0
10
-9.6367381543866202
20
86.286395409445532
30
0
10
-9.0498581335362847
20
86.474955202291341
30
0
10
-8.4091872995665948
20
86.656005454639157
30
0
10
-7.7181580981845164
20
86.823293269040263
30
0
10
-6.9889274608480321
20
86.970936257859961
30
0
10
-6.244466470155392
20
87.095052968118992
30
0
10
-5.5183439584172955
20
87.194877251170979
30
0
10
-4.8457734237322256
20
87.271814758682694
30
0
10
-4.2562816777883512
20
87.328825880198778
30
0
10
-3.7652159175674518
20
87.369681975412902
30
0
10
-3.366960136894726
20
87.398272364948468
30
0
10
-3.0242738825520488
20
87.417895722233752
30
0
10
-2.6838872819066961
20
87.430616740899723
30
0
10
-2.2956745934518512
20
87.436763951237765
30
0
10
-1.834570288298321
20
87.434113543832297
30
0
10
-1.3007499347757723
20
87.418596230335268
30
0
10
-0.70893344324510266
20
87.385752494989759
30
0
10
-0.08150290021021786
20
87.331865370347174
30
0
10
0.560702562089062
20
87.255421602621169
30
0
10
1.2042948472167838
20
87.157821956051791
30
0
10
1.8413215666169933
20
87.041905602906127
30
0
10
2.468548991028769
20
86.910877477342225
30
0
10
3.0862578498892184
20
86.767019150319328
30
0
10
3.6971994860830186
20
86.610625957287169
30
0
10
4.3056047214986934
20
86.438496065468456
30
0
10
4.9151503697970158
20
86.245911515465124
30
0
10
5.5268904585005307
20
86.029067082174492
30
0
10
6.1368969922475127
20
85.787593364038685
30
0
10
6.7347075985910765
20
85.526476549873522
30
0
10
7.2997549438310605
20
85.259613280745384
30
0
10
7.8048051309970159
20
85.007607795204308
30
0
10
8.2285906057090639
20
84.787997857942102
30
0
10
8.5661226006161222
20
84.607390417547364
30
0
10
8.8399951090852582
20
84.452785684326642
30
0
10
9.1110692346849511
20
84.283392121282247
30
0
10
9.4471509481894635
20
84.053355338584353
30
0
10
9.8940309764259808
20
83.732752939329913
30
0
10
10.441439996060796
20
83.332333153669055
30
0
10
11.039624198563256
20
82.890998408918094
30
0
10
11.621640715782181
20
82.459109521347585
30
0
10
12.124994120563953
20
82.082206412210127
30
0
10
12.510466237961433
20
81.786953490291964
30
0
10
12.789689429525811
20
81.560264010343658
30
0
10
13.020849502457299
20
81.353218882601368
30
0
10
13.271217721324524
20
81.110697366405645
30
0
10
13.583090173021365
20
80.798500834699183
30
0
10
13.954560571854696
20
80.418510863754051
30
0
10
14.360685570674779
20
79.991549081279771
30
0
10
14.766084169254757
20
79.547076248050999
30
0
10
15.140496126739569
20
79.110534068792646
30
0
10
15.474363639687914
20
78.690653582300257
30
0
10
15.773629449464185
20
78.283548442044918
30
0
10
16.051977891878359
20
77.878860932717018
30
0
10
16.324584955278784
20
77.464711538125556
30
0
10
16.59986660861135
20
77.034213618784221
30
0
10
16.877378103213644
20
76.587206196708109
30
0
10
17.152013656029077
20
76.127096530724131
30
0
10
17.416500153059886
20
75.659024564464488
30
0
10
17.664664804667844
20
75.18743188921529
30
0
10
17.894151504077332
20
74.714044784885928
30
0
10
18.105277927195232
20
74.23868468808331
30
0
10
18.300018364428674
20
73.759975697790409
30
0
10
18.481014420606861
20
73.276061576259139
30
0
10
18.650394699902652
20
72.78538517842702
30
0
10
18.809570357932351
20
72.287132373406592
30
0
10
18.959579607632495
20
71.781552276983234
30
0
10
19.101240351622764
20
71.270210663308418
30
0
10
19.235430569438662
20
70.756510781794049
30
0
10
19.363168012270155
20
70.245376475791218
30
0
10
19.485103317829548
20
69.740024812079383
30
0
10
19.601071127366399
20
69.238990166028856
30
0
10
19.709681226679628
20
68.733475146249205
30
0
10
19.807732496289525
20
68.203473459695076
30
0
10
19.890942556616487
20
67.622823979011969
30
0
10
19.954966463453733
20
66.966187244323152
30
0
10
19.996357945403471
20
66.215705561614286
30
0
10
20.01346136356765
20
65.367028122552654
30
0
10
20.007560038734979
20
64.437471729266989
30
0
10
19.983119978687643
20
63.466734509166528
30
0
10
19.946593306506685
20
62.505790879428183
30
0
10
19.905543322229924
20
61.608407245751913
30
0
10
19.867672918831705
20
60.821909317740896
30
0
10
19.83981864187048
20
60.177562907513291
30
0
10
19.827135929254482
20
59.682767720948952
30
0
10
19.831772487593224
20
59.308453403252699
30
0
10
19.85325994258104
20
58.992714763786118
30
0
10
19.891043443110629
20
58.666091906346637
30
0
10
19.946971961685477
20
58.274208024067718
30
0
10
20.026406484307657
20
57.793855119563389
30
0
10
20.134925437153562
20
57.223980785962681
30
0
10
20.275740257534942
20
56.581539750958534
30
0
10
20.44708836961755
20
55.895362585439059
30
0
10
20.638961688409047
20
55.200980246893785
30
0
10
20.836914436172144
20
54.534229035024453
30
0
10
21.026833179219793
20
53.925153617072176
30
0
10
21.199699807940092
20
53.391274774174001
30
0
10
21.355607469238429
20
52.932293156990518
30
0
10
21.509931032375505
20
52.521320794726421
30
0
10
21.691761905378634
20
52.108209482405961
30
0
10
21.932527154878095
20
51.638147597625519
30
0
10
22.257157411939016
20
51.066289856152295
30
0
10
22.67408716189362
20
50.374217720989243
30
0
10
23.166121559267694
20
49.58500800670177
30
0
10
23.698987158511734
20
48.748968759604793
30
0
10
24.229569815693743
20
47.929900236369349
30
0
10
24.714237871354172
20
47.19121506994081
30
0
10
25.117190242608153
20
46.582009030589056
30
0
10
25.418652543789072
20
46.123405487436038
30
0
10
25.623475402865033
20
45.794179965209203
30
0
10
25.768581570232669
20
45.518447447753204
30
0
10
25.900715971606985
20
45.207128815091735
30
0
10
26.056235849957048
20
44.795613338712855
30
0
10
26.238158895223997
20
44.286677348540373
30
0
10
26.426919136528095
20
43.728501270247612
30
0
10
26.594840054711852
20
43.185694811835617
30
0
10
26.717772993744028
20
42.715385846692243
30
0
10
26.791520119202048
20
42.335056230940708
30
0
10
26.832437576754636
20
42.017569774859531
30
0
10
26.863104409327704
20
41.712954545944385
30
0
10
26.900121343887619
20
41.364542971779976
30
0
10
26.946915668126739
20
40.922659430968793
30
0
10
26.999918787801633
20
40.346711879734265
30
0
10
27.051708109229683
20
39.610162311584133
30
0
10
27.095286435622551
20
38.704165509455954
30
0
10
27.128111062293399
20
37.642209944199926
30
0
10
27.151382937138287
20
36.45547042305364
30
0
10
27.168907126161418
20
35.18765023217324
30
0
10
27.186110805189344
20
33.889989367828129
30
0
10
27.209004507313992
20
32.616231800600339
30
0
10
27.243144370263114
20
31.41754385109083
30
0
10
27.292648308911925
20
30.337608071148914
30
0
10
27.359062614315832
20
29.407282456199624
30
0
10
27.440588656361964
20
28.640286920446037
30
0
10
27.530414048035251
20
28.026346377379522
30
0
10
27.618718199401155
20
27.534680205719567
30
0
10
27.697509995042346
20
27.125132816043646
30
0
10
27.764415404624899
20
26.756959872808675
30
0
10
27.827396942355151
20
26.398828697515523
30
0
10
27.907603641427755
20
26.037552374307218
30
0
10
28.031911373114507
20
25.681233884223715
30
0
10
28.226686859527746
20
25.363350071230094
30
0
10
28.510976743560271
20
25.145694355151509
30
0
10
28.890934347086645
20
25.086560145382535
30
0
10
29.353408886694005
20
25.207194100138729
30
0
10
29.861611310246182
20
25.464131140277569
30
0
10
30.369460243466605
20
25.780294994642141
30
0
10
30.835546838884117
20
26.073382913132775
30
0
10
31.235145980880045
20
26.281666245823043
30
0
10
31.578238170700615
20
26.399833843576403
30
0
10
31.898528122307575
20
26.464609358316519
30
0
10
32.231803241966787
20
26.520989429305004
30
0
10
32.592426346954881
20
26.586956104511263
30
0
10
32.97108732828314
20
26.648823799753004
30
0
10
33.351113397063592
20
26.68407018542721
30
0
10
33.722048837837555
20
26.679909731236489
30
0
10
34.085698137757078
20
26.641411691775385
30
0
10
34.447074115977557
20
26.578347535706964
30
0
10
34.808137332425488
20
26.495872633359753
30
0
10
35.16330536833383
20
26.388068727526992
30
0
10
35.504815598952632
20
26.246380499265541
30
0
10
35.826454165833916
20
26.065631862320686
30
0
10
36.127100430696238
20
25.84965514287974
30
0
10
36.407280998713944
20
25.605666263361634
30
0
10
36.666574701765029
20
25.339995926253785
30
0
10
36.900677889163866
20
25.053284016617443
30
0
10
37.104239103762957
20
24.74435891108666
30
0
10
37.27332297911439
20
24.413575668214598
30
0
10
37.408602257780089
20
24.06719493833382
30
0
10
37.512494218084754
20
23.713185925915422
30
0
10
37.58621514969775
20
23.356943120110433
30
0
10
37.625413715329657
20
22.99492189657073
30
0
10
37.624479530758109
20
22.620921966894997
30
0
10
37.582041082275772
20
22.234123278467557
30
0
10
37.509284706427977
20
21.851188180652077
30
0
10
37.423445590956455
20
21.496903625598293
30
0
10
37.334418100457889
20
21.184735473516966
30
0
10
37.228821543229259
20
20.893950270432633
30
0
10
37.071685831112646
20
20.571407906805508
30
0
10
36.827295808058956
20
20.160428356752842
30
0
10
36.477767315398317
20
19.626178789676974
30
0
10
36.033599893067844
20
18.970679466797122
30
0
10
35.522873256384301
20
18.21954129815736
30
0
10
34.985141763769633
20
17.414962251356375
30
0
10
34.463574678060972
20
16.60633635410472
30
0
10
33.997531797297142
20
15.841577563606359
30
0
10
33.615685215986247
20
15.158849406445881
30
0
10
33.327122821421142
20
14.576385282418586
30
0
10
33.119414028010951
20
14.089069249089945
30
0
10
32.96927034048943
20
13.677414268180147
30
0
10
32.850524856428606
20
13.313761032371399
30
0
10
32.742919376238241
20
12.969624904985368
30
0
10
32.641251678500325
20
12.622499458425104
30
0
10
32.549074625789501
20
12.259760171476897
30
0
10
32.472070663918629
20
11.880951299992606
30
0
10
32.410227695589263
20
11.503527171138607
30
0
10
32.360312157251414
20
11.147730883493484
30
0
10
32.320016904436137
20
10.820643622430852
30
0
10
32.292968493420133
20
10.493022219358739
30
0
10
32.286373660501482
20
10.1154879889204
30
0
10
32.305693637325334
20
9.6493078173088396
30
0
10
32.348792229567835
20
9.1008369628499235
30
0
10
32.40616628812927
20
8.5216149092138096
30
0
10
32.467198419183376
20
7.9750112630471879
30
0
10
32.524494629302929
20
7.5132992602170852
30
0
10
32.579432739904078
20
7.1485194451803995
30
0
10
32.645970117575345
20
6.8315524107904126
30
0
10
32.742155783667883
20
6.4867622180430189
30
0
10
32.882769756631163
20
6.0416539684669619
30
0
10
33.071353811588494
20
5.4590868003418986
30
0
10
33.302559430117434
20
4.7313500711414722
30
0
10
33.564645347141486
20
3.8737455874796405
30
0
10
33.84192478060038
20
2.9183308342169778
30
0
10
34.117233135918269
20
1.9075967005936394
30
0
10
34.374388116012391
20
0.88817032860657674
30
0
10
34.600650206424149
20
-0.09548537755828207
30
0
10
34.789190964028776
20
-1.0073897777217609
30
0
10
34.938101298454143
20
-1.8211643276347038
30
0
10
35.049393897331164
20
-2.5211901580876503
30
0
10
35.128001425982035
20
-3.1036503933263795
30
0
10
35.180791177109036
20
-3.5778509236501268
30
0
10
35.215538603598105
20
-3.9668848946514261
30
0
10
35.240003172093935
20
-4.3099548485539465
30
0
10
35.260531905239482
20
-4.6553525350535843
30
0
10
35.280747002602631
20
-5.0513446114349589
30
0
10
35.299766817002222
20
-5.5362210811417043
30
0
10
35.312613046958383
20
-6.1356507638511903
30
0
10
35.311975703690045
20
-6.8648784760946846
30
0
10
35.289544526945889
20
-7.7294336465630744
30
0
10
35.237565061989642
20
-8.7264512885312389
30
0
10
35.150193507722399
20
-9.8457404573271177
30
0
10
35.025193334250531
20
-11.070936383693034
30
0
10
34.864603558029195
20
-12.380702470610919
30
0
10
34.673665630948499
20
-13.750123383718408
30
0
10
34.460143082971264
20
-15.152051135549151
30
0
10
34.233484151473576
20
-16.558468974805916
30
0
10
34.004049850980557
20
-17.941850648998933
30
0
10
33.782317857951206
20
-19.276514669362474
30
0
10
33.57808762550588
20
-20.539996978429134
30
0
10
33.39970630175214
20
-21.7143780308953
30
0
10
33.25323607716286
20
-22.7877171830634
30
0
10
33.141762794178788
20
-23.755235888777474
30
0
10
33.064353663855513
20
-24.621121508100249
30
0
10
33.016435321976076
20
-25.397822763709428
30
0
10
32.99124000455663
20
-26.103463843661658
30
0
10
32.980923972774924
20
-26.759828785795801
30
0
10
32.977857155184523
20
-27.39006252132322
30
0
10
32.975755511498683
20
-28.016605717299605
30
0
10
32.971084148397352
20
-28.658757120238842
30
0
10
32.963670119576982
20
-29.331298256057757
30
0
10
32.955644295034936
20
-30.045351347210158
30
0
10
32.950729544101684
20
-30.808776903240371
30
0
10
32.953386241807664
20
-31.626756490318147
30
0
10
32.968029226736533
20
-32.502292580525143
30
0
10
32.998189103970141
20
-33.43675303134917
30
0
10
33.04576890024083
20
-34.430370578720989
30
0
10
33.111334276460987
20
-35.482374398960673
30
0
10
33.194336410044215
20
-36.59114386905997
30
0
10
33.293360465351419
20
-37.754354152710576
30
0
10
33.406362828083459
20
-38.969124963648639
30
0
10
33.530913994444724
20
-40.23216859938546
30
0
10
33.664437085697969
20
-41.539936786989145
30
0
10
33.804452736501446
20
-42.888771511781123
30
0
10
33.948810769119532
20
-44.275046030265997
30
0
10
34.095952686991446
20
-45.695329544787711
30
0
10
34.24508357350242
20
-47.146481875749338
30
0
10
34.396000532591174
20
-48.625482449811976
30
0
10
34.548973978551679
20
-50.12930016065787
30
0
10
34.704608268769789
20
-51.654747278956037
30
0
10
34.863711093622456
20
-53.198340049914627
30
0
10
35.027159226137108
20
-54.756156666278102
30
0
10
35.195765553943154
20
-56.323695772899271
30
0
10
35.370146223927598
20
-57.895736112747315
30
0
10
35.550586191497324
20
-59.466192473299884
30
0
10
35.736909040790181
20
-61.027980645233256
30
0
10
35.928336623617895
20
-62.572861223208236
30
0
10
36.123372527837674
20
-64.091332787948247
30
0
10
36.319627977877666
20
-65.572405857550734
30
0
10
36.513834180406725
20
-67.00376297306876
30
0
10
36.702194428229987
20
-68.372622514767059
30
0
10
36.880660364777832
20
-69.66644533095932
30
0
10
37.045239913859326
20
-70.873707240917668
30
0
10
37.192288830027572
20
-71.984636960365094
30
0
10
37.318815896191431
20
-72.991983840101696
30
0
10
37.422766934244038
20
-73.891738161267682
30
0
10
37.503353549616229
20
-74.68395239593606
30
0
10
37.561279409407419
20
-75.373330870509406
30
0
10
37.59921647930932
20
-75.970384601728412
30
0
10
37.621358741960236
20
-76.490500167561137
30
0
10
37.632024285551118
20
-76.950856590564243
30
0
10
37.634542236070217
20
-77.367986620764228
30
0
10
37.629961646811807
20
-77.7549348124993
30
0
10
37.616015047920726
20
-78.118992225952709
30
0
10
37.589197193849181
20
-78.466407444085377
30
0
10
37.546544593299174
20
-78.806451367947403
30
0
10
37.487780327319769
20
-79.156245217806173
30
0
10
37.412750661111161
20
-79.534961880738493
30
0
10
37.318955008152969
20
-79.957854061504804
30
0
10
37.198262878861428
20
-80.429430549645886
30
0
10
37.040301235565906
20
-80.943915181699793
30
0
10
36.83783081268664
20
-81.487300518193621
30
0
10
36.59067196187106
20
-82.039113354921369
30
0
10
36.312036926445124
20
-82.573689920698357
30
0
10
36.027620345720173
20
-83.063763755841734
30
0
10
35.763079393990125
20
-83.487959981713033
30
0
10
35.533953648701363
20
-83.837564454622409
30
0
10
35.335078327322627
20
-84.123193006972215
30
0
10
35.128983249342404
20
-84.382517662559025
30
0
10
34.869680973525128
20
-84.659349367746188
30
0
10
34.525813984623056
20
-84.983433039663311
30
0
10
34.108375797000335
20
-85.346138711208653
30
0
10
33.657729488241856
20
-85.712095720712824
30
0
10
33.221166994106269
20
-86.039057480376272
30
0
10
32.836291710408389
20
-86.29286471804987
30
0
10
32.506001805662329
20
-86.469265469069427
30
0
10
32.197765873388164
20
-86.596021158396553
30
0
10
31.873970313520669
20
-86.708983439823228
30
0
10
31.520002162379996
20
-86.831358323824986
30
0
10
31.158312284302209
20
-86.96048785764421
30
0
10
30.815719167548924
20
-87.083311817013239
30
0
10
30.496926072022006
20
-87.187067560912084
30
0
10
30.229436906020858
20
-87.25334907220207
30
0
10
30.000150596181072
20
-87.295024539278756
30
0
10
29.830821148853254
20
-87.319760807675891
30
0
10
29.742000000000001
20
-87.331400000000002
30
0
0
ENDSEC
0
SECTION
2
OBJECTS
0
DICTIONARY
5
C
100
AcDbDictionary
3
ACAD_GROUP
350
D
3
ACAD_MLINESTYLE
350
17
0
DICTIONARY
5
D
100
AcDbDictionary
0
DICTIONARY
5
1A
330
C
100
AcDbDictionary
0
DICTIONARY
5
17
100
AcDbDictionary
0
ENDSEC
0
EOF
