0
SECTION
2
HEADER
9
$INSUNITS
70
4
9
$ACADVER
1
AC1014
9
$HANDSEED
5
FFFF
0
ENDSEC
0
SECTION
2
TABLES
0
TABLE
2
VPORT
5
8
100
AcDbSymbolTable
0
ENDTAB
0
TABLE
2
LTYPE
5
5
100
AcDbSymbolTable
0
LTYPE
5
14
100
AcDbSymbolTableRecord
100
AcDbLinetypeTableRecord
2
BYBLOCK
70
0
0
LTYPE
5
15
100
AcDbSymbolTableRecord
100
AcDbLinetypeTableRecord
2
BYLAYER
70
0
0
LTYPE
5
16
100
AcDbSymbolTableRecord
100
AcDbLinetypeTableRecord
2
DASHED
70
0
3
Dashed __ __ __ __ __ __ __ __ __ __ __ __ __ _
72
65
73
2
40
0.75
49
0.5
74
0
49
-0.25
74
0
0
ENDTAB
0
TABLE
2
LAYER
5
2
100
AcDbSymbolTable
70
2
0
LAYER
5
50
100
AcDbSymbolTableRecord
100
AcDbLayerTableRecord
2
0
70
0
62
7
6
CONTINUOUS
0
ENDTAB
0
TABLE
2
STYLE
5
3
100
AcDbSymbolTable
70
1
0
STYLE
5
11
100
AcDbSymbolTableRecord
100
AcDbTextStyleTableRecord
2
STANDARD
70
0
0
ENDTAB
0
TABLE
2
VIEW
5
6
100
AcDbSymbolTable
70
0
0
ENDTAB
0
TABLE
2
UCS
5
7
100
AcDbSymbolTable
70
0
0
ENDTAB
0
TABLE
2
APPID
5
9
100
AcDbSymbolTable
70
2
0
APPID
5
12
100
AcDbSymbolTableRecord
100
AcDbRegAppTableRecord
2
ACAD
70
0
0
ENDTAB
0
TABLE
2
DIMSTYLE
5
A
100
AcDbSymbolTable
70
1
0
ENDTAB
0
TABLE
2
BLOCK_RECORD
5
1
100
AcDbSymbolTable
70
1
0
BLOCK_RECORD
5
1F
100
AcDbSymbolTableRecord
100
AcDbBlockTableRecord
2
*MODEL_SPACE
0
BLOCK_RECORD
5
1B
100
AcDbSymbolTableRecord
100
AcDbBlockTableRecord
2
*PAPER_SPACE
0
ENDTAB
0
ENDSEC
0
SECTION
2
BLOCKS
0
BLOCK
5
20
100
AcDbEntity
100
AcDbBlockBegin
2
*MODEL_SPACE
0
ENDBLK
5
21
100
AcDbEntity
100
AcDbBlockEnd
0
BLOCK
5
1C
100
AcDbEntity
100
AcDbBlockBegin
2
*PAPER_SPACE
0
ENDBLK
5
1D
100
AcDbEntity
100
AcDbBlockEnd
0
ENDSEC
0
SECTION
2
ENTITIES
0
SPLINE
5
100
100
AcDbEntity
8
0
100
AcDbSpline
70
6
71
5
72
746
73
740
74
0
42
0.000000001
43
0.0000000001
44
0.0000000001
40
0
40
0
40
0
40
0
40
0
40
0
40
0.0013605442176870747
40
0.0027210884353741495
40
0.004081632653061224
40
0.0054421768707482989
40
0.0068027210884353739
40
0.008163265306122448
40
0.0095238095238095229
40
0.010884353741496598
40
0.012244897959183673
40
0.013605442176870748
40
0.014965986394557823
40
0.016326530612244896
40
0.017687074829931971
40
0.019047619047619046
40
0.020408163265306121
40
0.021768707482993196
40
0.023129251700680271
40
0.024489795918367346
40
0.025850340136054421
40
0.027210884353741496
40
0.028571428571428571
40
0.029931972789115645
40
0.031292517006802717
40
0.032653061224489792
40
0.034013605442176867
40
0.035374149659863942
40
0.036734693877551017
40
0.038095238095238092
40
0.039455782312925167
40
0.040816326530612242
40
0.042176870748299317
40
0.043537414965986392
40
0.044897959183673466
40
0.046258503401360541
40
0.047619047619047616
40
0.048979591836734691
40
0.050340136054421766
40
0.051700680272108841
40
0.053061224489795916
40
0.054421768707482991
40
0.055782312925170066
40
0.057142857142857141
40
0.058503401360544216
40
0.059863945578231291
40
0.061224489795918366
40
0.062585034013605434
40
0.063945578231292502
40
0.06530612244897957
40
0.066666666666666638
40
0.068027210884353706
40
0.069387755102040774
40
0.070748299319727842
40
0.07210884353741491
40
0.073469387755101978
40
0.074829931972789046
40
0.076190476190476114
40
0.077551020408163182
40
0.07891156462585025
40
0.080272108843537318
40
0.081632653061224386
40
0.082993197278911454
40
0.084353741496598522
40
0.08571428571428559
40
0.087074829931972658
40
0.088435374149659726
40
0.089795918367346794
40
0.091156462585033862
40
0.09251700680272093
40
0.093877551020407998
40
0.095238095238095066
40
0.096598639455782134
40
0.097959183673469202
40
0.09931972789115627
40
0.10068027210884334
40
0.10204081632653041
40
0.10340136054421747
40
0.10476190476190454
40
0.10612244897959161
40
0.10748299319727868
40
0.10884353741496575
40
0.11020408163265281
40
0.11156462585033988
40
0.11292517006802695
40
0.11428571428571402
40
0.11564625850340109
40
0.11700680272108815
40
0.11836734693877522
40
0.11972789115646229
40
0.12108843537414936
40
0.12244897959183643
40
0.12380952380952349
40
0.12517006802721056
40
0.12653061224489764
40
0.12789115646258473
40
0.12925170068027181
40
0.13061224489795889
40
0.13197278911564597
40
0.13333333333333305
40
0.13469387755102014
40
0.13605442176870722
40
0.1374149659863943
40
0.13877551020408138
40
0.14013605442176846
40
0.14149659863945555
40
0.14285714285714263
40
0.14421768707482971
40
0.14557823129251679
40
0.14693877551020387
40
0.14829931972789095
40
0.14965986394557804
40
0.15102040816326512
40
0.1523809523809522
40
0.15374149659863928
40
0.15510204081632636
40
0.15646258503401345
40
0.15782312925170053
40
0.15918367346938761
40
0.16054421768707469
40
0.16190476190476177
40
0.16326530612244886
40
0.16462585034013594
40
0.16598639455782302
40
0.1673469387755101
40
0.16870748299319718
40
0.17006802721088426
40
0.17142857142857135
40
0.17278911564625843
40
0.17414965986394551
40
0.17551020408163259
40
0.17687074829931967
40
0.17823129251700676
40
0.17959183673469384
40
0.18095238095238092
40
0.182312925170068
40
0.18367346938775508
40
0.18503401360544217
40
0.18639455782312925
40
0.18775510204081633
40
0.18911564625850341
40
0.19047619047619049
40
0.19183673469387758
40
0.19319727891156466
40
0.19455782312925174
40
0.19591836734693882
40
0.1972789115646259
40
0.19863945578231298
40
0.20000000000000007
40
0.20136054421768715
40
0.20272108843537423
40
0.20408163265306131
40
0.20544217687074839
40
0.20680272108843548
40
0.20816326530612256
40
0.20952380952380964
40
0.21088435374149672
40
0.2122448979591838
40
0.21360544217687089
40
0.21496598639455797
40
0.21632653061224505
40
0.21768707482993213
40
0.21904761904761921
40
0.22040816326530629
40
0.22176870748299338
40
0.22312925170068046
40
0.22448979591836754
40
0.22585034013605462
40
0.2272108843537417
40
0.22857142857142879
40
0.22993197278911587
40
0.23129251700680295
40
0.23265306122449003
40
0.23401360544217711
40
0.2353741496598642
40
0.23673469387755128
40
0.23809523809523836
40
0.23945578231292544
40
0.24081632653061252
40
0.24217687074829961
40
0.24353741496598669
40
0.24489795918367377
40
0.24625850340136085
40
0.24761904761904793
40
0.24897959183673501
40
0.25034013605442207
40
0.25170068027210912
40
0.25306122448979618
40
0.25442176870748323
40
0.25578231292517029
40
0.25714285714285734
40
0.25850340136054439
40
0.25986394557823145
40
0.2612244897959185
40
0.26258503401360556
40
0.26394557823129261
40
0.26530612244897966
40
0.26666666666666672
40
0.26802721088435377
40
0.26938775510204083
40
0.27074829931972788
40
0.27210884353741494
40
0.27346938775510199
40
0.27482993197278904
40
0.2761904761904761
40
0.27755102040816315
40
0.27891156462585021
40
0.28027210884353726
40
0.28163265306122431
40
0.28299319727891137
40
0.28435374149659842
40
0.28571428571428548
40
0.28707482993197253
40
0.28843537414965958
40
0.28979591836734664
40
0.29115646258503369
40
0.29251700680272075
40
0.2938775510204078
40
0.29523809523809486
40
0.29659863945578191
40
0.29795918367346896
40
0.29931972789115602
40
0.30068027210884307
40
0.30204081632653013
40
0.30340136054421718
40
0.30476190476190423
40
0.30612244897959129
40
0.30748299319727834
40
0.3088435374149654
40
0.31020408163265245
40
0.3115646258503395
40
0.31292517006802656
40
0.31428571428571361
40
0.31564625850340067
40
0.31700680272108772
40
0.31836734693877478
40
0.31972789115646183
40
0.32108843537414888
40
0.32244897959183594
40
0.32380952380952299
40
0.32517006802721005
40
0.3265306122448971
40
0.32789115646258415
40
0.32925170068027121
40
0.33061224489795826
40
0.33197278911564532
40
0.33333333333333237
40
0.33469387755101943
40
0.33605442176870648
40
0.33741496598639353
40
0.33877551020408059
40
0.34013605442176764
40
0.3414965986394547
40
0.34285714285714175
40
0.3442176870748288
40
0.34557823129251586
40
0.34693877551020291
40
0.34829931972788997
40
0.34965986394557702
40
0.35102040816326407
40
0.35238095238095113
40
0.35374149659863818
40
0.35510204081632524
40
0.35646258503401229
40
0.35782312925169935
40
0.3591836734693864
40
0.36054421768707345
40
0.36190476190476051
40
0.36326530612244756
40
0.36462585034013462
40
0.36598639455782167
40
0.36734693877550872
40
0.36870748299319578
40
0.37006802721088283
40
0.37142857142856989
40
0.37278911564625694
40
0.374149659863944
40
0.37551020408163105
40
0.3768707482993181
40
0.37823129251700516
40
0.37959183673469221
40
0.38095238095237927
40
0.38231292517006632
40
0.38367346938775337
40
0.38503401360544043
40
0.38639455782312748
40
0.38775510204081454
40
0.38911564625850159
40
0.39047619047618864
40
0.3918367346938757
40
0.39319727891156275
40
0.39455782312924981
40
0.39591836734693686
40
0.39727891156462392
40
0.39863945578231097
40
0.39999999999999802
40
0.40136054421768508
40
0.40272108843537213
40
0.40408163265305919
40
0.40544217687074624
40
0.40680272108843329
40
0.40816326530612035
40
0.4095238095238074
40
0.41088435374149446
40
0.41224489795918151
40
0.41360544217686857
40
0.41496598639455562
40
0.41632653061224267
40
0.41768707482992973
40
0.41904761904761678
40
0.42040816326530384
40
0.42176870748299089
40
0.42312925170067794
40
0.424489795918365
40
0.42585034013605205
40
0.42721088435373911
40
0.42857142857142616
40
0.42993197278911321
40
0.43129251700680027
40
0.43265306122448732
40
0.43401360544217438
40
0.43537414965986143
40
0.43673469387754849
40
0.43809523809523554
40
0.43945578231292259
40
0.44081632653060965
40
0.4421768707482967
40
0.44353741496598376
40
0.44489795918367081
40
0.44625850340135786
40
0.44761904761904492
40
0.44897959183673197
40
0.45034013605441903
40
0.45170068027210608
40
0.45306122448979314
40
0.45442176870748019
40
0.45578231292516724
40
0.4571428571428543
40
0.45850340136054135
40
0.45986394557822841
40
0.46122448979591546
40
0.46258503401360251
40
0.46394557823128957
40
0.46530612244897662
40
0.46666666666666368
40
0.46802721088435073
40
0.46938775510203778
40
0.47074829931972484
40
0.47210884353741189
40
0.47346938775509895
40
0.474829931972786
40
0.47619047619047306
40
0.47755102040816011
40
0.47891156462584716
40
0.48027210884353422
40
0.48163265306122127
40
0.48299319727890833
40
0.48435374149659538
40
0.48571428571428243
40
0.48707482993196949
40
0.48843537414965654
40
0.4897959183673436
40
0.49115646258503065
40
0.49251700680271771
40
0.49387755102040476
40
0.49523809523809181
40
0.49659863945577887
40
0.49795918367346592
40
0.49931972789115298
40
0.50068027210884003
40
0.50204081632652708
40
0.50340136054421414
40
0.50476190476190119
40
0.50612244897958825
40
0.5074829931972753
40
0.50884353741496235
40
0.51020408163264941
40
0.51156462585033646
40
0.51292517006802352
40
0.51428571428571057
40
0.51564625850339763
40
0.51700680272108468
40
0.51836734693877173
40
0.51972789115645879
40
0.52108843537414584
40
0.5224489795918329
40
0.52380952380951995
40
0.525170068027207
40
0.52653061224489406
40
0.52789115646258111
40
0.52925170068026817
40
0.53061224489795522
40
0.53197278911564227
40
0.53333333333332933
40
0.53469387755101638
40
0.53605442176870344
40
0.53741496598639049
40
0.53877551020407755
40
0.5401360544217646
40
0.54149659863945165
40
0.54285714285713871
40
0.54421768707482576
40
0.54557823129251282
40
0.54693877551019987
40
0.54829931972788692
40
0.54965986394557398
40
0.55102040816326103
40
0.55238095238094809
40
0.55374149659863514
40
0.5551020408163222
40
0.55646258503400925
40
0.5578231292516963
40
0.55918367346938336
40
0.56054421768707041
40
0.56190476190475747
40
0.56326530612244452
40
0.56462585034013157
40
0.56598639455781863
40
0.56734693877550568
40
0.56870748299319274
40
0.57006802721087979
40
0.57142857142856684
40
0.5727891156462539
40
0.57414965986394095
40
0.57551020408162801
40
0.57687074829931506
40
0.57823129251700212
40
0.57959183673468917
40
0.58095238095237622
40
0.58231292517006328
40
0.58367346938775033
40
0.58503401360543739
40
0.58639455782312444
40
0.58775510204081149
40
0.58911564625849855
40
0.5904761904761856
40
0.59183673469387266
40
0.59319727891155971
40
0.59455782312924677
40
0.59591836734693382
40
0.59727891156462087
40
0.59863945578230793
40
0.59999999999999498
40
0.60136054421768204
40
0.60272108843536909
40
0.60408163265305614
40
0.6054421768707432
40
0.60680272108843025
40
0.60816326530611731
40
0.60952380952380436
40
0.61088435374149141
40
0.61224489795917847
40
0.61360544217686552
40
0.61496598639455258
40
0.61632653061223963
40
0.61768707482992669
40
0.61904761904761374
40
0.62040816326530079
40
0.62176870748298785
40
0.6231292517006749
40
0.62448979591836196
40
0.62585034013604901
40
0.62721088435373606
40
0.62857142857142312
40
0.62993197278911017
40
0.63129251700679723
40
0.63265306122448428
40
0.63401360544217134
40
0.63537414965985839
40
0.63673469387754544
40
0.6380952380952325
40
0.63945578231291955
40
0.64081632653060661
40
0.64217687074829366
40
0.64353741496598071
40
0.64489795918366777
40
0.64625850340135482
40
0.64761904761904188
40
0.64897959183672893
40
0.65034013605441598
40
0.65170068027210304
40
0.65306122448979009
40
0.65442176870747715
40
0.6557823129251642
40
0.65714285714285126
40
0.65850340136053831
40
0.65986394557822536
40
0.66122448979591242
40
0.66258503401359947
40
0.66394557823128653
40
0.66530612244897358
40
0.66666666666666063
40
0.66802721088434769
40
0.66938775510203474
40
0.6707482993197218
40
0.67210884353740885
40
0.67346938775509591
40
0.67482993197278296
40
0.67619047619047001
40
0.67755102040815707
40
0.67891156462584412
40
0.68027210884353118
40
0.68163265306121823
40
0.68299319727890528
40
0.68435374149659234
40
0.68571428571427939
40
0.68707482993196645
40
0.6884353741496535
40
0.68979591836734055
40
0.69115646258502761
40
0.69251700680271466
40
0.69387755102040172
40
0.69523809523808877
40
0.69659863945577583
40
0.69795918367346288
40
0.69931972789114993
40
0.70068027210883699
40
0.70204081632652404
40
0.7034013605442111
40
0.70476190476189815
40
0.7061224489795852
40
0.70748299319727226
40
0.70884353741495931
40
0.71020408163264637
40
0.71156462585033342
40
0.71292517006802048
40
0.71428571428570753
40
0.71564625850339458
40
0.71700680272108164
40
0.71836734693876869
40
0.71972789115645575
40
0.7210884353741428
40
0.72244897959182985
40
0.72380952380951691
40
0.72517006802720396
40
0.72653061224489102
40
0.72789115646257807
40
0.72925170068026512
40
0.73061224489795218
40
0.73197278911563923
40
0.73333333333332629
40
0.73469387755101334
40
0.7360544217687004
40
0.73741496598638745
40
0.7387755102040745
40
0.74013605442176156
40
0.74149659863944861
40
0.74285714285713567
40
0.74421768707482272
40
0.74557823129250977
40
0.74693877551019683
40
0.74829931972788388
40
0.74965986394557094
40
0.75102040816325799
40
0.75238095238094505
40
0.7537414965986321
40
0.75510204081631915
40
0.75646258503400621
40
0.75782312925169326
40
0.75918367346938032
40
0.76054421768706737
40
0.76190476190475442
40
0.76326530612244148
40
0.76462585034012853
40
0.76598639455781559
40
0.76734693877550264
40
0.76870748299318969
40
0.77006802721087675
40
0.7714285714285638
40
0.77278911564625086
40
0.77414965986393791
40
0.77551020408162497
40
0.77687074829931202
40
0.77823129251699907
40
0.77959183673468613
40
0.78095238095237318
40
0.78231292517006024
40
0.78367346938774729
40
0.78503401360543434
40
0.7863945578231214
40
0.78775510204080845
40
0.78911564625849551
40
0.79047619047618256
40
0.79183673469386961
40
0.79319727891155667
40
0.79455782312924372
40
0.79591836734693078
40
0.79727891156461783
40
0.79863945578230489
40
0.79999999999999194
40
0.80136054421767899
40
0.80272108843536605
40
0.8040816326530531
40
0.80544217687074016
40
0.80680272108842721
40
0.80816326530611426
40
0.80952380952380132
40
0.81088435374148837
40
0.81224489795917543
40
0.81360544217686248
40
0.81496598639454954
40
0.81632653061223659
40
0.81768707482992364
40
0.8190476190476107
40
0.82040816326529775
40
0.82176870748298481
40
0.82312925170067186
40
0.82448979591835891
40
0.82585034013604597
40
0.82721088435373302
40
0.82857142857142008
40
0.82993197278910713
40
0.83129251700679418
40
0.83265306122448124
40
0.83401360544216829
40
0.83537414965985535
40
0.8367346938775424
40
0.83809523809522946
40
0.83945578231291651
40
0.84081632653060356
40
0.84217687074829062
40
0.84353741496597767
40
0.84489795918366473
40
0.84625850340135178
40
0.84761904761903883
40
0.84897959183672589
40
0.85034013605441294
40
0.8517006802721
40
0.85306122448978705
40
0.85442176870747411
40
0.85578231292516116
40
0.85714285714284821
40
0.85850340136053527
40
0.85986394557822232
40
0.86122448979590938
40
0.86258503401359643
40
0.86394557823128348
40
0.86530612244897054
40
0.86666666666665759
40
0.86802721088434465
40
0.8693877551020317
40
0.87074829931971875
40
0.87210884353740581
40
0.87346938775509286
40
0.87482993197277992
40
0.87619047619046697
40
0.87755102040815403
40
0.87891156462584108
40
0.88027210884352813
40
0.88163265306121519
40
0.88299319727890224
40
0.8843537414965893
40
0.88571428571427635
40
0.8870748299319634
40
0.88843537414965046
40
0.88979591836733751
40
0.89115646258502457
40
0.89251700680271162
40
0.89387755102039868
40
0.89523809523808573
40
0.89659863945577278
40
0.89795918367345984
40
0.89931972789114689
40
0.90068027210883395
40
0.902040816326521
40
0.90340136054420805
40
0.90476190476189511
40
0.90612244897958216
40
0.90748299319726922
40
0.90884353741495627
40
0.91020408163264332
40
0.91156462585033038
40
0.91292517006801743
40
0.91428571428570449
40
0.91564625850339154
40
0.9170068027210786
40
0.91836734693876565
40
0.9197278911564527
40
0.92108843537413976
40
0.92244897959182681
40
0.92380952380951387
40
0.92517006802720092
40
0.92653061224488797
40
0.92789115646257503
40
0.92925170068026208
40
0.93061224489794914
40
0.93197278911563619
40
0.93333333333332325
40
0.9346938775510103
40
0.93605442176869735
40
0.93741496598638441
40
0.93877551020407146
40
0.94013605442175852
40
0.94149659863944557
40
0.94285714285713262
40
0.94421768707481968
40
0.94557823129250673
40
0.94693877551019379
40
0.94829931972788084
40
0.94965986394556789
40
0.95102040816325495
40
0.952380952380942
40
0.95374149659862906
40
0.95510204081631611
40
0.95646258503400317
40
0.95782312925169022
40
0.95918367346937727
40
0.96054421768706433
40
0.96190476190475138
40
0.96326530612243844
40
0.96462585034012549
40
0.96598639455781254
40
0.9673469387754996
40
0.96870748299318665
40
0.97006802721087371
40
0.97142857142856076
40
0.97278911564624782
40
0.97414965986393487
40
0.97551020408162192
40
0.97687074829930898
40
0.97823129251699603
40
0.97959183673468309
40
0.98095238095237014
40
0.98231292517005719
40
0.98367346938774425
40
0.9850340136054313
40
0.98639455782311836
40
0.98775510204080541
40
0.98911564625849246
40
0.99047619047617952
40
0.99183673469386657
40
0.99319727891155363
40
0.99455782312924068
40
0.99591836734692774
40
0.99727891156461479
40
0.99863945578230184
40
1
40
1
40
1
40
1
40
1
40
1
41
1
41
1
41
1
41
1
41
1
41
1
41
1
41
1
41
1
41
1
41
1
41
1
41
1
41
1
41
1
41
1
41
1
41
1
41
1
41
1
41
1
41
1
41
1
41
1
41
1
41
1
41
1
41
1
41
1
41
1
41
1
41
1
41
1
41
1
41
1
41
1
41
1
41
1
41
1
41
1
41
1
41
1
41
1
41
1
41
1
41
1
41
1
41
1
41
1
41
1
41
1
41
1
41
1
41
1
41
1
41
1
41
1
41
1
41
1
41
1
41
1
41
1
41
1
41
1
41
1
41
1
41
1
41
1
41
1
41
1
41
1
41
1
41
1
41
1
41
1
41
1
41
1
41
1
41
1
41
1
41
1
41
1
41
1
41
1
41
1
41
1
41
1
41
1
41
1
41
1
41
1
41
1
41
1
41
1
41
1
41
1
41
1
41
1
41
1
41
1
41
1
41
1
41
1
41
1
41
1
41
1
41
1
41
1
41
1
41
1
41
1
41
1
41
1
41
1
41
1
41
1
41
1
41
1
41
1
41
1
41
1
41
1
41
1
41
1
41
1
41
1
41
1
41
1
41
1
41
1
41
1
41
1
41
1
41
1
41
1
41
1
41
1
41
1
41
1
41
1
41
1
41
1
41
1
41
1
41
1
41
1
41
1
41
1
41
1
41
1
41
1
41
1
41
1
41
1
41
1
41
1
41
1
41
1
41
1
41
1
41
1
41
1
41
1
41
1
41
1
41
1
41
1
41
1
41
1
41
1
41
1
41
1
41
1
41
1
41
1
41
1
41
1
41
1
41
1
41
1
41
1
41
1
41
1
41
1
41
1
41
1
41
1
41
1
41
1
41
1
41
1
41
1
41
1
41
1
41
1
41
1
41
1
41
1
41
1
41
1
41
1
41
1
41
1
41
1
41
1
41
1
41
1
41
1
41
1
41
1
41
1
41
1
41
1
41
1
41
1
41
1
41
1
41
1
41
1
41
1
41
1
41
1
41
1
41
1
41
1
41
1
41
1
41
1
41
1
41
1
41
1
41
1
41
1
41
1
41
1
41
1
41
1
41
1
41
1
41
1
41
1
41
1
41
1
41
1
41
1
41
1
41
1
41
1
41
1
41
1
41
1
41
1
41
1
41
1
41
1
41
1
41
1
41
1
41
1
41
1
41
1
41
1
41
1
41
1
41
1
41
1
41
1
41
1
41
1
41
1
41
1
41
1
41
1
41
1
41
1
41
1
41
1
41
1
41
1
41
1
41
1
41
1
41
1
41
1
41
1
41
1
41
1
41
1
41
1
41
1
41
1
41
1
41
1
41
1
41
1
41
1
41
1
41
1
41
1
41
1
41
1
41
1
41
1
41
1
41
1
41
1
41
1
41
1
41
1
41
1
41
1
41
1
41
1
41
1
41
1
41
1
41
1
41
1
41
1
41
1
41
1
41
1
41
1
41
1
41
1
41
1
41
1
41
1
41
1
41
1
41
1
41
1
41
1
41
1
41
1
41
1
41
1
41
1
41
1
41
1
41
1
41
1
41
1
41
1
41
1
41
1
41
1
41
1
41
1
41
1
41
1
41
1
41
1
41
1
41
1
41
1
41
1
41
1
41
1
41
1
41
1
41
1
41
1
41
1
41
1
41
1
41
1
41
1
41
1
41
1
41
1
41
1
41
1
41
1
41
1
41
1
41
1
41
1
41
1
41
1
41
1
41
1
41
1
41
1
41
1
41
1
41
1
41
1
41
1
41
1
41
1
41
1
41
1
41
1
41
1
41
1
41
1
41
1
41
1
41
1
41
1
41
1
41
1
41
1
41
1
41
1
41
1
41
1
41
1
41
1
41
1
41
1
41
1
41
1
41
1
41
1
41
1
41
1
41
1
41
1
41
1
41
1
41
1
41
1
41
1
41
1
41
1
41
1
41
1
41
1
41
1
41
1
41
1
41
1
41
1
41
1
41
1
41
1
41
1
41
1
41
1
41
1
41
1
41
1
41
1
41
1
41
1
41
1
41
1
41
1
41
1
41
1
41
1
41
1
41
1
41
1
41
1
41
1
41
1
41
1
41
1
41
1
41
1
41
1
41
1
41
1
41
1
41
1
41
1
41
1
41
1
41
1
41
1
41
1
41
1
41
1
41
1
41
1
41
1
41
1
41
1
41
1
41
1
41
1
41
1
41
1
41
1
41
1
41
1
41
1
41
1
41
1
41
1
41
1
41
1
41
1
41
1
41
1
41
1
41
1
41
1
41
1
41
1
41
1
41
1
41
1
41
1
41
1
41
1
41
1
41
1
41
1
41
1
41
1
41
1
41
1
41
1
41
1
41
1
41
1
41
1
41
1
41
1
41
1
41
1
41
1
41
1
41
1
41
1
41
1
41
1
41
1
41
1
41
1
41
1
41
1
41
1
41
1
41
1
41
1
41
1
41
1
41
1
41
1
41
1
41
1
41
1
41
1
41
1
41
1
41
1
41
1
41
1
41
1
41
1
41
1
41
1
41
1
41
1
41
1
41
1
41
1
41
1
41
1
41
1
41
1
41
1
41
1
41
1
41
1
41
1
41
1
41
1
41
1
41
1
41
1
41
1
41
1
41
1
41
1
41
1
41
1
41
1
41
1
41
1
41
1
41
1
41
1
41
1
41
1
41
1
41
1
41
1
41
1
41
1
41
1
41
1
41
1
41
1
41
1
41
1
41
1
41
1
41
1
41
1
41
1
41
1
41
1
41
1
41
1
41
1
41
1
41
1
41
1
41
1
41
1
41
1
41
1
41
1
41
1
41
1
41
1
41
1
41
1
41
1
41
1
41
1
41
1
41
1
41
1
41
1
41
1
41
1
41
1
41
1
41
1
41
1
41
1
41
1
41
1
41
1
41
1
41
1
41
1
41
1
41
1
41
1
41
1
41
1
41
1
41
1
41
1
41
1
41
1
41
1
41
1
41
1
41
1
41
1
41
1
41
1
41
1
41
1
41
1
41
1
41
1
41
1
41
1
41
1
41
1
41
1
41
1
41
1
41
1
41
1
41
1
41
1
41
1
41
1
41
1
41
1
41
1
41
1
41
1
41
1
41
1
41
1
41
1
41
1
41
1
41
1
41
1
41
1
41
1
41
1
41
1
41
1
41
1
41
1
41
1
41
1
41
1
41
1
41
1
41
1
41
1
41
1
41
1
41
1
41
1
41
1
41
1
41
1
41
1
41
1
41
1
41
1
41
1
41
1
41
1
41
1
41
1
41
1
41
1
41
1
41
1
41
1
41
1
41
1
41
1
41
1
41
1
41
1
41
1
41
1
41
1
41
1
41
1
41
1
41
1
10
-29.127099999999999
20
-88.719300000000004
30
0
10
-29.188488593261308
20
-88.702929891478931
30
0
10
-29.31085104933663
20
-88.668761251232993
30
0
10
-29.49709818146923
20
-88.612769422385881
30
0
10
-29.766169311181187
20
-88.525487546145797
30
0
10
-30.16743446963957
20
-88.384779142446334
30
0
10
-30.650574933569676
20
-88.20297388685168
30
0
10
-31.212534424227428
20
-87.975907572710113
30
0
10
-31.834306405766327
20
-87.704847088822191
30
0
10
-32.486804495337111
20
-87.395812756602353
30
0
10
-33.136178545532346
20
-87.059303237978867
30
0
10
-33.749181206874837
20
-86.709559725697886
30
0
10
-34.298957275664243
20
-86.364735602834202
30
0
10
-34.769062707348269
20
-86.044191458016698
30
0
10
-35.154553465879815
20
-85.761625490155097
30
0
10
-35.46393511900262
20
-85.518954983601034
30
0
10
-35.720414418599646
20
-85.300401002310338
30
0
10
-35.964348339925287
20
-85.065181287505084
30
0
10
-36.236157239872966
20
-84.769502217727123
30
0
10
-36.560155937330222
20
-84.38761088030671
30
0
10
-36.924185184634581
20
-83.938193693745319
30
0
10
-37.290907161247134
20
-83.469680814022112
30
0
10
-37.617856069017542
20
-83.034021103084697
30
0
10
-37.872538121141744
20
-82.667193251355272
30
0
10
-38.054165137484588
20
-82.360389766061928
30
0
10
-38.197380985629032
20
-82.056806117310387
30
0
10
-38.344641340968437
20
-81.692821357438163
30
0
10
-38.522902599290688
20
-81.233459481240459
30
0
10
-38.725313065337438
20
-80.699542368570008
30
0
10
-38.92771659887083
20
-80.140118590652946
30
0
10
-39.100551031213044
20
-79.612125358740514
30
0
10
-39.221250764417533
20
-79.159169164195816
30
0
10
-39.289732473626671
20
-78.785721335286766
30
0
10
-39.322063025574955
20
-78.46461022491556
30
0
10
-39.338104351097435
20
-78.154669779216718
30
0
10
-39.348647971138121
20
-77.817059982778815
30
0
10
-39.353582958585022
20
-77.423066030403916
30
0
10
-39.348234681804655
20
-76.95390391762632
30
0
10
-39.327936930508478
20
-76.403794054875874
30
0
10
-39.29085259521861
20
-75.778894326172292
30
0
10
-39.236633460718735
20
-75.092495028038286
30
0
10
-39.166202151729088
20
-74.361074701173479
30
0
10
-39.081073533963192
20
-73.600005049474277
30
0
10
-38.982874948286138
20
-72.819420935545779
30
0
10
-38.872776667336296
20
-72.019977668694551
30
0
10
-38.751596307389121
20
-71.194885369067464
30
0
10
-38.619892381014445
20
-70.331976925895589
30
0
10
-38.478063253557181
20
-69.415772875381066
30
0
10
-38.326442776716824
20
-68.429527853847475
30
0
10
-38.165399630024822
20
-67.357330433284559
30
0
10
-37.995429754302499
20
-66.186073947387285
30
0
10
-37.817264595382312
20
-64.907739092731319
30
0
10
-37.631930833170095
20
-63.520709750090134
30
0
10
-37.440691718778282
20
-62.028724808036728
30
0
10
-37.245011426176106
20
-60.440289704459545
30
0
10
-37.046510263541556
20
-58.767905388117427
30
0
10
-36.846923791359444
20
-57.027375330284841
30
0
10
-36.648060256731583
20
-55.237078908572002
30
0
10
-36.451758764679013
20
-53.417259526282777
30
0
10
-36.259847107241384
20
-51.589305900080106
30
0
10
-36.074099799013965
20
-49.775037500335308
30
0
10
-35.896195886062138
20
-47.995985439897176
30
0
10
-35.727677170029338
20
-46.272681759930592
30
0
10
-35.569905511075333
20
-44.623930124679482
30
0
10
-35.424022260465343
20
-43.066119554585384
30
0
10
-35.290902401570634
20
-41.612431311125285
30
0
10
-35.171131818575468
20
-40.272511987804869
30
0
10
-35.064998641426172
20
-39.052427394680365
30
0
10
-34.972479970953707
20
-37.954528997012211
30
0
10
-34.893231248055883
20
-36.977360894474195
30
0
10
-34.826572787496524
20
-36.115539206151475
30
0
10
-34.771481467196026
20
-35.359666862776017
30
0
10
-34.726571034085183
20
-34.696178277884194
30
0
10
-34.690098829811234
20
-34.107342940159803
30
0
10
-34.659905323852691
20
-33.570867676838013
30
0
10
-34.633747963264909
20
-33.061810787810735
30
0
10
-34.609791731384057
20
-32.555341450292836
30
0
10
-34.58700568539988
20
-32.029100343999069
30
0
10
-34.565696267413848
20
-31.466002347935095
30
0
10
-34.547668630453941
20
-30.855967159046962
30
0
10
-34.535446576256767
20
-30.195051396100673
30
0
10
-34.531680446846536
20
-29.485053262827769
30
0
10
-34.538459370122766
20
-28.732963679428863
30
0
10
-34.556713385329672
20
-27.950405296204327
30
0
10
-34.585447294455271
20
-27.153282693864554
30
0
10
-34.622314568667285
20
-26.359294662231431
30
0
10
-34.664429802490908
20
-25.585019606369418
30
0
10
-34.709077656413477
20
-24.843241350246373
30
0
10
-34.754510996433936
20
-24.139970387594811
30
0
10
-34.800604362242517
20
-23.472069521217264
30
0
10
-34.849834980346174
20
-22.823438025823179
30
0
10
-34.906979601196831
20
-22.166908634053243
30
0
10
-34.977808132413898
20
-21.470623457152598
30
0
10
-35.068081565269011
20
-20.703040210271418
30
0
10
-35.182392138545737
20
-19.838670717442156
30
0
10
-35.323146444386623
20
-18.863115398288645
30
0
10
-35.489305489390404
20
-17.779340980255903
30
0
10
-35.675809462284711
20
-16.610418702428145
30
0
10
-35.87484789033256
20
-15.39270649591594
30
0
10
-36.076793903345859
20
-14.170766772981773
30
0
10
-36.271266598636259
20
-12.991631618887588
30
0
10
-36.448149525852955
20
-11.899269298777719
30
0
10
-36.598603005686947
20
-10.929143217651729
30
0
10
-36.716137295196319
20
-10.10231495467557
30
0
10
-36.797523773446954
20
-9.4207145637794643
30
0
10
-36.844107321740289
20
-8.8595386120485369
30
0
10
-36.861777812335923
20
-8.3692272393158245
30
0
10
-36.858859718465723
20
-7.8922233123244379
30
0
10
-36.844481399977902
20
-7.3764353176718291
30
0
10
-36.826772966292594
20
-6.78963630440232
30
0
10
-36.81107755244448
20
-6.1345114372091274
30
0
10
-36.799823892308929
20
-5.4372206118033457
30
0
10
-36.792530773723207
20
-4.7348149871712497
30
0
10
-36.785705527485597
20
-4.0624472538575587
30
0
10
-36.772916280116817
20
-3.442100063336802
30
0
10
-36.744471787761213
20
-2.8671351313134101
30
0
10
-36.688529023938116
20
-2.3026284578278617
30
0
10
-36.593595797789902
20
-1.7013099445675042
30
0
10
-36.450671092934002
20
-1.0153387815539663
30
0
10
-36.255497150083656
20
-0.20960587314004719
30
0
10
-36.01084926091319
20
0.72520530528647553
30
0
10
-35.728566182942025
20
1.7606259792475973
30
0
10
-35.426415396312365
20
2.8433412473317081
30
0
10
-35.125241766399213
20
3.9067432190531814
30
0
10
-34.845961531854741
20
4.8832159625627378
30
0
10
-34.606729749176424
20
5.7156424803577721
30
0
10
-34.419783438228677
20
6.3703285148114563
30
0
10
-34.289006623807751
20
6.8467926316096239
30
0
10
-34.205771549138852
20
7.1950294995700599
30
0
10
-34.15028552303982
20
7.5089180363133341
30
0
10
-34.101807140880332
20
7.8812793112394584
30
0
10
-34.047997853969974
20
8.3625666150844786
30
0
10
-33.991507831103227
20
8.9318831170021085
30
0
10
-33.942345233079308
20
9.5316321962791939
30
0
10
-33.912078669752937
20
10.093375901287285
30
0
10
-33.908143222956845
20
10.564710287432641
30
0
10
-33.926027936126523
20
10.94190178992309
30
0
10
-33.955419487580699
20
11.258983591219101
30
0
10
-33.988966478843565
20
11.564742229127598
30
0
10
-34.033296073438329
20
11.901130827146925
30
0
10
-34.105581848149995
20
12.293203804866078
30
0
10
-34.221813016308793
20
12.749570833491681
30
0
10
-34.385007773401711
20
13.257654139103401
30
0
10
-34.582540177509152
20
13.787895053061828
30
0
10
-34.796737794505106
20
14.306976282107227
30
0
10
-35.011987722603138
20
14.788807557926679
30
0
10
-35.223315519238895
20
15.226490041659064
30
0
10
-35.444213567358972
20
15.643677933763943
30
0
10
-35.697516544475114
20
16.08010297830592
30
0
10
-36.005690604664892
20
16.576292491561418
30
0
10
-36.382374228354735
20
17.160182104041787
30
0
10
-36.820896405825074
20
17.829066033234177
30
0
10
-37.294703054741973
20
18.549981878871499
30
0
10
-37.767388674704534
20
19.274973827921119
30
0
10
-38.19979512327442
20
19.951813946909738
30
0
10
-38.558704641934682
20
20.537189078779306
30
0
10
-38.823951892509115
20
21.007448441151677
30
0
10
-38.99837537992579
20
21.373726053725463
30
0
10
-39.109742937051372
20
21.684701695565167
30
0
10
-39.19135415196066
20
21.99652421858007
30
0
10
-39.2653512678718
20
22.346904440825149
30
0
10
-39.327939695461218
20
22.732151544053693
30
0
10
-39.364274151397545
20
23.129840833783852
30
0
10
-39.36012688843833
20
23.51656858665384
30
0
10
-39.315438825740472
20
23.88850673567957
30
0
10
-39.237061800286789
20
24.25182227878885
30
0
10
-39.13175570238834
20
24.613316231155192
30
0
10
-38.997509960854757
20
24.96905291499759
30
0
10
-38.827516574068078
20
25.30847421514132
30
0
10
-38.616070315216461
20
25.62101453620199
30
0
10
-38.365472654800143
20
25.903629696001357
30
0
10
-38.084418006084775
20
26.15934241800645
30
0
10
-37.782576035494721
20
26.391783559049212
30
0
10
-37.465108410587725
20
26.599541051994446
30
0
10
-37.132028898615452
20
26.776099529860502
30
0
10
-36.782395957731012
20
26.915101979573144
30
0
10
-36.417921725770775
20
27.015296669401799
30
0
10
-36.044338470118184
20
27.081861851270048
30
0
10
-35.667811496161612
20
27.120480985984734
30
0
10
-35.292030272915646
20
27.132197155912486
30
0
10
-34.916364318593182
20
27.110458681795709
30
0
10
-34.540035023633287
20
27.049365838806448
30
0
10
-34.165502346451305
20
26.950453881055907
30
0
10
-33.801669620914879
20
26.829216962389587
30
0
10
-33.455638538447388
20
26.703449704221363
30
0
10
-33.125740339002128
20
26.583313423432017
30
0
10
-32.792711164093838
20
26.459278299460486
30
0
10
-32.430636938193956
20
26.311969794847361
30
0
10
-32.018608147014625
20
26.123172240282528
30
0
10
-31.554335815950132
20
25.888027690607174
30
0
10
-31.052912330456298
20
25.6168682717827
30
0
10
-30.540872974917729
20
25.334248797156086
30
0
10
-30.051584343922929
20
25.077770887508489
30
0
10
-29.620648127911352
20
24.899645048461259
30
0
10
-29.27960448199422
20
24.858877302729883
30
0
10
-29.046976874017698
20
24.996046536233131
30
0
10
-28.917444400871922
20
25.305418616710437
30
0
10
-28.858684387733547
20
25.725539387323234
30
0
10
-28.829683719779283
20
26.183868698716172
30
0
10
-28.796141242882388
20
26.634303117284531
30
0
10
-28.744313871267103
20
27.08992940649361
30
0
10
-28.673772475651326
20
27.597293999442833
30
0
10
-28.592478793476765
20
28.216783739021626
30
0
10
-28.51130303540204
20
29.002149551277746
30
0
10
-28.43791217271464
20
29.976575846686
30
0
10
-28.375721265673835
20
31.131329876812796
30
0
10
-28.325183441891419
20
32.434578863806415
30
0
10
-28.284320838843058
20
33.836919347703052
30
0
10
-28.249573894888577
20
35.278287002870471
30
0
10
-28.216509453481603
20
36.694248709176222
30
0
10
-28.180600164976035
20
38.022618868157977
30
0
10
-28.137948705536768
20
39.209800407419181
30
0
10
-28.086092687634491
20
40.217559965689063
30
0
10
-28.024640994384736
20
41.028874706445563
30
0
10
-27.956331609653247
20
41.656104148730023
30
0
10
-27.885440334059673
20
42.13485654443889
30
0
10
-27.815276178490826
20
42.51342063807131
30
0
10
-27.746225101155328
20
42.844109930893588
30
0
10
-27.673003317414473
20
43.172819651513109
30
0
10
-27.584072228040672
20
43.5325840675347
30
0
10
-27.465656636281579
20
43.945577573209
30
0
10
-27.305018507156639
20
44.423358816015536
30
0
10
-27.093545863467821
20
44.968030994322454
30
0
10
-26.826552872084697
20
45.574611360862562
30
0
10
-26.503503185159694
20
46.233304031918436
30
0
10
-26.128107026026044
20
46.93188641126487
30
0
10
-25.708379415459248
20
47.657859731855154
30
0
10
-25.256952477803736
20
48.401180931429629
30
0
10
-24.789880298687255
20
49.153922885612467
30
0
10
-24.324867499094186
20
49.908796713108856
30
0
10
-23.879672848291136
20
50.657995933438883
30
0
10
-23.470469574119065
20
51.392014878000055
30
0
10
-23.110155580340287
20
52.098227516617115
30
0
10
-22.806846119194294
20
52.760157392478639
30
0
10
-22.561877859939695
20
53.354936978390128
30
0
10
-22.370280560064089
20
53.860365773712068
30
0
10
-22.222243579030167
20
54.267028244072421
30
0
10
-22.104364150659027
20
54.587155196616202
30
0
10
-22.000754963702505
20
54.868573762513137
30
0
10
-21.894918037279446
20
55.194986908707619
30
0
10
-21.77410336331128
20
55.644276043867734
30
0
10
-21.633479976993879
20
56.251923222537634
30
0
10
-21.479774365583218
20
56.977249643501871
30
0
10
-21.326349111265106
20
57.738298756444863
30
0
10
-21.189054894232161
20
58.440333949961328
30
0
10
-21.081499265986935
20
59.009030756447245
30
0
10
-21.011221810738196
20
59.416542617607817
30
0
10
-20.973826729379844
20
59.723503793201985
30
0
10
-20.955974214038754
20
60.052173387954781
30
0
10
-20.942440176469393
20
60.528440027336899
30
0
10
-20.923153626304259
20
61.223032767899916
30
0
10
-20.895686743215926
20
62.13148750059225
30
0
10
-20.862023006061413
20
63.202176845958896
30
0
10
-20.82690399267705
20
64.351129758849481
30
0
10
-20.795504335092065
20
65.482422019265485
30
0
10
-20.771452751931765
20
66.505806225058308
30
0
10
-20.754568768076808
20
67.356398531653795
30
0
10
-20.739040311507541
20
68.011436474388461
30
0
10
-20.71057523774045
20
68.513652050830359
30
0
10
-20.65060733965009
20
68.949950915347358
30
0
10
-20.542539866623386
20
69.417853710318965
30
0
10
-20.376729249631151
20
69.99850568257979
30
0
10
-20.157316250831837
20
70.721335008627193
30
0
10
-19.903841935642845
20
71.551056156286407
30
0
10
-19.642832554467958
20
72.417090921416147
30
0
10
-19.401559549367779
20
73.233861242342115
30
0
10
-19.20085757672873
20
73.924932325665736
30
0
10
-19.048510683232422
20
74.445048179614687
30
0
10
-18.931999667636962
20
74.804174058793421
30
0
10
-18.812670127039318
20
75.087489800720689
30
0
10
-18.645256639894587
20
75.406038990601715
30
0
10
-18.395346823898741
20
75.852710083707223
30
0
10
-18.059390175639709
20
76.452033262805458
30
0
10
-17.6571162786983
20
77.175059287380734
30
0
10
-17.221284095225581
20
77.960417472545856
30
0
10
-16.788632138020198
20
78.732730640933056
30
0
10
-16.389759634962065
20
79.423143934018583
30
0
10
-16.040779937200462
20
79.986612628822954
30
0
10
-15.730899973604252
20
80.426466462775053
30
0
10
-15.427710522381934
20
80.787536995694879
30
0
10
-15.093284830444144
20
81.130251189830304
30
0
10
-14.69637393490693
20
81.511390787545906
30
0
10
-14.227595367950819
20
81.960135593939356
30
0
10
-13.709220522466021
20
82.461974770575566
30
0
10
-13.180065148079921
20
82.977751567466541
30
0
10
-12.683868961286592
20
83.457896226768625
30
0
10
-12.255569563591903
20
83.859410443110121
30
0
10
-11.910213990456048
20
84.159625622694108
30
0
10
-11.626294938223232
20
84.376588261286187
30
0
10
-11.357773244254743
20
84.555624354789586
30
0
10
-11.05426726131444
20
84.74638543835249
30
0
10
-10.682139872044441
20
84.978624084927375
30
0
10
-10.230198307531271
20
85.256950891067248
30
0
10
-9.7025185860321486
20
85.571454518469409
30
0
10
-9.1151262742620442
20
85.903465532053133
30
0
10
-8.491051301758338
20
86.233612714474901
30
0
10
-7.8561695809939094
20
86.548065659160869
30
0
10
-7.2352662469608973
20
86.837653273234224
30
0
10
-6.648332810648979
20
87.097535965291129
30
0
10
-6.106449692525997
20
87.326699712734722
30
0
10
-5.6085772690449591
20
87.52746392838921
30
0
10
-5.1360926088072532
20
87.705140715603392
30
0
10
-4.6584848156866174
20
87.866759086881672
30
0
10
-4.1444937752207345
20
88.019292019526716
30
0
10
-3.5708925671271281
20
88.168138956214662
30
0
10
-2.9336773365686986
20
88.315281564018179
30
0
10
-2.2538170082469962
20
88.45825954493921
30
0
10
-1.5646285616180045
20
88.591973320714047
30
0
10
-0.90229441179917114
20
88.710014985024515
30
0
10
-0.29466665601726638
20
88.806229483454558
30
0
10
0.24808347848714851
20
88.876072873100611
30
0
10
0.74651991532724193
20
88.918330493682049
30
0
10
1.2413291612228581
20
88.934646119396334
30
0
10
1.7759372848517516
20
88.928476732415064
30
0
10
2.3827601160730296
20
88.904279503354815
30
0
10
3.0648134899282282
20
88.866513451301032
30
0
10
3.7897106309311313
20
88.819015017245491
30
0
10
4.5081136246832054
20
88.76506463689347
30
0
10
5.1668589550147512
20
88.707295054469284
30
0
10
5.7246164449520958
20
88.647695278324079
30
0
10
6.1655215715708742
20
88.587498335466179
30
0
10
6.5161793019293484
20
88.527311064059546
30
0
10
6.8293630013932987
20
88.465232608951112
30
0
10
7.1652642352401479
20
88.395180664855886
30
0
10
7.5711919361235038
20
88.304248592083724
30
0
10
8.076460027403197
20
88.176022839380735
30
0
10
8.6926323433495813
20
87.996205788970173
30
0
10
9.4123962575671545
20
87.757046514341752
30
0
10
10.208041288701944
20
87.463261728429842
30
0
10
11.033209154766826
20
87.134140111457327
30
0
10
11.834136269129164
20
86.796122344918857
30
0
10
12.559073867066227
20
86.477165140935654
30
0
10
13.168420797134328
20
86.200403898566194
30
0
10
13.644579330275818
20
85.978103109010448
30
0
10
14.001868027075083
20
85.80550928023672
30
0
10
14.29653812023599
20
85.654693471487747
30
0
10
14.600353050795288
20
85.487956828908708
30
0
10
14.975837658896246
20
85.270452948153292
30
0
10
15.447456157044668
20
84.984713366243199
30
0
10
16.007583719816225
20
84.628865328002661
30
0
10
16.628136993785766
20
84.212151100449546
30
0
10
17.270522683437999
20
83.751337045896094
30
0
10
17.895624620664304
20
83.266870015662818
30
0
10
18.475400272174323
20
82.77884707266756
30
0
10
18.998010483009335
20
82.304113031305945
30
0
10
19.462883019841371
20
81.855194309085221
30
0
10
19.878190339585093
20
81.438800710807939
30
0
10
20.257340117135687
20
81.054478138749047
30
0
10
20.615916068241763
20
80.69325260841768
30
0
10
20.968352633946935
20
80.336115400418777
30
0
10
21.326475277380958
20
79.959733256488988
30
0
10
21.697930916535743
20
79.542814694783928
30
0
10
22.084943343067263
20
79.071519897163355
30
0
10
22.482251562240663
20
78.546996466621238
30
0
10
22.878114768651159
20
77.985118282101965
30
0
10
23.258215660466163
20
77.408865967181669
30
0
10
23.608800569927983
20
76.842676199945387
30
0
10
23.920060544908843
20
76.306095171176537
30
0
10
24.189576777615329
20
75.807472388708334
30
0
10
24.425269023607253
20
75.338362488077024
30
0
10
24.640723215288396
20
74.880050252746486
30
0
10
24.850750373663281
20
74.409588133219955
30
0
10
25.067283724782946
20
73.905563372273363
30
0
10
25.294084922555879
20
73.355101031736552
30
0
10
25.526914938980347
20
72.755023752367251
30
0
10
25.75699658403661
20
72.109440508032961
30
0
10
25.973518644123004
20
71.428431264097071
30
0
10
26.166439857366367
20
70.726261345672995
30
0
10
26.329393843184686
20
70.019837671000715
30
0
10
26.461861147774584
20
69.326937352956534
30
0
10
26.567185058275406
20
68.66364204351035
30
0
10
26.651158937718918
20
68.041933324152581
30
0
10
26.720339528175035
20
67.46708399636465
30
0
10
26.780596090366391
20
66.935463624916764
30
0
10
26.835252179603621
20
66.431324136331654
30
0
10
26.885296424292562
20
65.929253962186948
30
0
10
26.930327259094859
20
65.398716261742337
30
0
10
26.969223882106419
20
64.807742504114486
30
0
10
27.001007768725607
20
64.127345788788858
30
0
10
27.025378809943163
20
63.3344532630217
30
0
10
27.042518461591534
20
62.411275110320652
30
0
10
27.053025415532652
20
61.345327219577477
30
0
10
27.057799113314797
20
60.12919541972974
30
0
10
27.057945360178689
20
58.760410731237627
30
0
10
27.054672791787553
20
57.241275352794894
30
0
10
27.049192452749764
20
55.578713570265407
30
0
10
27.042617959177345
20
53.784103519097535
30
0
10
27.035860939364671
20
51.873136945110986
30
0
10
27.029538940578735
20
49.865620981271562
30
0
10
27.02385245761533
20
47.785417348224485
30
0
10
27.018566411906129
20
45.659920717304239
30
0
10
27.013145187938903
20
43.518860633762102
30
0
10
27.006850750405427
20
41.393266056621414
30
0
10
26.998855716294603
20
39.314364001848475
30
0
10
26.988349932238176
20
37.312506884632207
30
0
10
26.974650069640095
20
35.416086332811624
30
0
10
26.957307403070523
20
33.650455527278218
30
0
10
26.93621757805305
20
32.036841510948648
30
0
10
26.911726728785489
20
30.591276456981639
30
0
10
26.884745670076239
20
29.323486595184391
30
0
10
26.85684552939826
20
28.235878528169245
30
0
10
26.830396440705275
20
27.322299412366377
30
0
10
26.808605913339974
20
26.567324032156794
30
0
10
26.795798781523857
20
25.944269778990744
30
0
10
26.796925382027979
20
25.417351148292234
30
0
10
26.815938886565011
20
24.950663799305957
30
0
10
26.854202740496426
20
24.515910223813421
30
0
10
26.909373523918877
20
24.100000478577002
30
0
10
26.972848022052936
20
23.714338021942734
30
0
10
27.044099322632405
20
23.377977750482735
30
0
10
27.143414342021419
20
23.100954434151681
30
0
10
27.331242240630353
20
22.862961745831704
30
0
10
27.684713345231099
20
22.62501861862404
30
0
10
28.266091380981266
20
22.348332337000201
30
0
10
29.087187318176021
20
22.014237646529789
30
0
10
30.108932273272533
20
21.626286970699145
30
0
10
31.260138739545358
20
21.202188749224714
30
0
10
32.450072758461999
20
20.769026818498524
30
0
10
33.583807133016641
20
20.357035745487121
30
0
10
34.575903056554353
20
19.99417680954609
30
0
10
35.365921709073781
20
19.699949209664368
30
0
10
35.930558298281902
20
19.480510423971147
30
0
10
36.303505567156719
20
19.320858284526501
30
0
10
36.571093230247655
20
19.186191045456244
30
0
10
36.825941595280618
20
19.039226253869053
30
0
10
37.124876808996007
20
18.855817321971564
30
0
10
37.458573969010097
20
18.636374235809249
30
0
10
37.790334088188509
20
18.392144814684361
30
0
10
38.085202748112408
20
18.135026442794619
30
0
10
38.341410151427063
20
17.866492118339888
30
0
10
38.571861607336466
20
17.582693562633043
30
0
10
38.78911775976038
20
17.278565143044943
30
0
10
38.986737761594568
20
16.952709252037444
30
0
10
39.148940443177615
20
16.606912297598065
30
0
10
39.261784153962303
20
16.245083882319385
30
0
10
39.326984018014784
20
15.87245531054992
30
0
10
39.356269668640465
20
15.494472878989072
30
0
10
39.360720235206522
20
15.115954297482975
30
0
10
39.338299373641085
20
14.739590656596542
30
0
10
39.276566493130893
20
14.366972528052131
30
0
10
39.164717385963627
20
14.000656693915372
30
0
10
39.006344980530685
20
13.647065863070226
30
0
10
38.819899786220788
20
13.315199600199346
30
0
10
38.62273464148371
20
13.010411407735935
30
0
10
38.416683419662135
20
12.728268984127764
30
0
10
38.180954371398322
20
12.45184071274153
30
0
10
37.888819920467
20
12.159319661419094
30
0
10
37.520407218790936
20
11.829902873758208
30
0
10
37.074964612429042
20
11.449665044763615
30
0
10
36.565101258657016
20
11.01144980098036
30
0
10
36.01316345418229
20
10.515405363763008
30
0
10
35.446710979436006
20
9.9694275978972478
30
0
10
34.894521823027659
20
9.3892715942308911
30
0
10
34.382000259967249
20
8.7997482428816163
30
0
10
33.92892082737427
20
8.2303331383351868
30
0
10
33.548232221535123
20
7.7085194714306571
30
0
10
33.244352134834322
20
7.2535755430524285
30
0
10
33.012056676621896
20
6.870841503847088
30
0
10
32.834200975821382
20
6.5441053529553965
30
0
10
32.682771302119853
20
6.2340564991886263
30
0
10
32.530052848164203
20
5.8959683286439359
30
0
10
32.358636773704653
20
5.4947554967379055
30
0
10
32.170506126862442
20
5.0194704913703267
30
0
10
31.979170847780509
20
4.4770391306248518
30
0
10
31.802846469269454
20
3.8877450336579695
30
0
10
31.657857118365122
20
3.2799934360902281
30
0
10
31.550391693344324
20
2.685493913336745
30
0
10
31.476722463795976
20
2.1335815634449466
30
0
10
31.428158083446277
20
1.6448148050939375
30
0
10
31.394362348838747
20
1.2254128441493728
30
0
10
31.367716867595362
20
0.85993395675985096
30
0
10
31.346135339721375
20
0.5089399379185926
30
0
10
31.330331424833084
20
0.12810361408147089
30
0
10
31.321797893849499
20
-0.31531984770220928
30
0
10
31.320597691498776
20
-0.8259057575111648
30
0
10
31.325995930923021
20
-1.3913051115665702
30
0
10
31.336972827153119
20
-1.9928213400703167
30
0
10
31.352739504683566
20
-2.6153781722509017
30
0
10
31.373361594179222
20
-3.2598727516834529
30
0
10
31.399847438917302
20
-3.9449708430683899
30
0
10
31.433854871340984
20
-4.7015200032096924
30
0
10
31.477511836588516
20
-5.5691591935804912
30
0
10
31.533189231970606
20
-6.5920066146799217
30
0
10
31.603296076107959
20
-7.8147789282396696
30
0
10
31.690060797979939
20
-9.2786409211003047
30
0
10
31.795328457399421
20
-11.017366834271369
30
0
10
31.920327084613284
20
-13.052895518271333
30
0
10
32.065524283546047
20
-15.392658880799289
30
0
10
32.230724800066135
20
-18.031645040824749
30
0
10
32.415123474665478
20
-20.95358481322199
30
0
10
32.617375848203331
20
-24.132485075720599
30
0
10
32.835661226180143
20
-27.534013957102502
30
0
10
33.067748980889277
20
-31.116949656927083
30
0
10
33.31106345397879
20
-34.834601776267704
30
0
10
33.562749456901741
20
-38.636244404311121
30
0
10
33.819737510082703
20
-42.468544094051808
30
0
10
34.078809191489171
20
-46.276989979019874
30
0
10
34.336662436067769
20
-50.007322994372274
30
0
10
34.589976854636561
20
-53.606965372030317
30
0
10
34.835479044751992
20
-57.026450287858722
30
0
10
35.070007903429286
20
-60.220850888607977
30
0
10
35.290579944813196
20
-63.151211008262358
30
0
10
35.494454607207494
20
-65.78597204902573
30
0
10
35.679199592103004
20
-68.102408988764424
30
0
10
35.842756136217972
20
-70.088045416641137
30
0
10
35.983504449236406
20
-71.742117558732133
30
0
10
36.10032877842994
20
-73.076924842023246
30
0
10
36.192683354063632
20
-74.119444405802426
30
0
10
36.260656296076867
20
-74.912331373522406
30
0
10
36.305038479221537
20
-75.51638408444262
30
0
10
36.327376075708429
20
-76.008717557051355
30
0
10
36.329926852122441
20
-76.466164774119548
30
0
10
36.315661982691218
20
-76.950150648068217
30
0
10
36.288186160688284
20
-77.492756526262752
30
0
10
36.251858786402209
20
-78.077742293793392
30
0
10
36.21051819585891
20
-78.656874276599751
30
0
10
36.16561352027901
20
-79.177725377546281
30
0
10
36.114905940473108
20
-79.604732889073148
30
0
10
36.050074915506663
20
-79.94972737945163
30
0
10
35.957569409744529
20
-80.276732882338138
30
0
10
35.825706174137679
20
-80.656547862317169
30
0
10
35.65121904060814
20
-81.127764049879801
30
0
10
35.444034750021352
20
-81.665680240552035
30
0
10
35.220237177698586
20
-82.214231158267609
30
0
10
34.996258691662248
20
-82.710885053534682
30
0
10
34.783282936173904
20
-83.111246908550299
30
0
10
34.579825595799136
20
-83.421421723213939
30
0
10
34.375223498971451
20
-83.682883932409567
30
0
10
34.156655767511531
20
-83.942898354520338
30
0
10
33.916058900436838
20
-84.223233377946144
30
0
10
33.652563084042242
20
-84.51620252291967
30
0
10
33.370350982063542
20
-84.802796371033438
30
0
10
33.078798606363236
20
-85.066202406020338
30
0
10
32.788723142987848
20
-85.300605938192589
30
0
10
32.505145622841177
20
-85.507592986666225
30
0
10
32.219264561007741
20
-85.696107867422811
30
0
10
31.905342949550729
20
-85.880004546134074
30
0
10
31.533382212106304
20
-86.073063164738045
30
0
10
31.079460190445797
20
-86.284054007736785
30
0
10
30.535800736232854
20
-86.512447274419046
30
0
10
29.907300717983961
20
-86.751489385074024
30
0
10
29.209315965350569
20
-86.990608902354651
30
0
10
28.465000021761398
20
-87.218174106561349
30
0
10
27.702734957027246
20
-87.42388359131958
30
0
10
26.95377038804174
20
-87.601864550136582
30
0
10
26.248549355647842
20
-87.750638726907823
30
0
10
25.612491759811689
20
-87.871556229938619
30
0
10
25.061700852662106
20
-87.967682280842183
30
0
10
24.599252346323158
20
-88.042555138802044
30
0
10
24.209922386895038
20
-88.098858474938112
30
0
10
23.85958697932665
20
-88.137561537100183
30
0
10
23.512132465071119
20
-88.158992654093396
30
0
10
23.144193928020297
20
-88.16364076469452
30
0
10
22.759457045542998
20
-88.152987609327852
30
0
10
22.373114868470815
20
-88.127920349992635
30
0
10
21.998873620457587
20
-88.087511579197795
30
0
10
21.632976718584928
20
-88.027157868962263
30
0
10
21.264857160028214
20
-87.942521071176301
30
0
10
20.888112805150723
20
-87.833050481586895
30
0
10
20.515815908155663
20
-87.707668469213473
30
0
10
20.16817744170303
20
-87.57804598448827
30
0
10
19.855098882818083
20
-87.450021485869485
30
0
10
19.553006025987752
20
-87.311599153671807
30
0
10
19.215298052221144
20
-87.139275107802021
30
0
10
18.802455214197174
20
-86.914638703768091
30
0
10
18.313229928781464
20
-86.64219704528324
30
0
10
17.791120437257124
20
-86.351757084347156
30
0
10
17.293832329788085
20
-86.078161585187445
30
0
10
16.872056699755838
20
-85.846661634967617
30
0
10
16.544820918569091
20
-85.656320507586457
30
0
10
16.275381693187029
20
-85.463443197000998
30
0
10
16.005017380849843
20
-85.212364565472868
30
0
10
15.68540619892577
20
-84.864586115221357
30
0
10
15.316873526701373
20
-84.433856941056987
30
0
10
14.935024579227949
20
-83.96942323035492
30
0
10
14.586452257791546
20
-83.52796234646874
30
0
10
14.310496924642562
20
-83.152394535192457
30
0
10
14.113191507388773
20
-82.840914251746241
30
0
10
13.962693927618586
20
-82.543867389043442
30
0
10
13.81636637506163
20
-82.201470083373778
30
0
10
13.643105640812882
20
-81.776082748236377
30
0
10
13.440405806028702
20
-81.275437438308344
30
0
10
13.221319002879397
20
-80.729320414368487
30
0
10
13.006314551062516
20
-80.173523865661309
30
0
10
12.81381722735623
20
-79.632341300807298
30
0
10
12.649718912967046
20
-79.098048363898371
30
0
10
12.508955500262978
20
-78.538185499943395
30
0
10
12.380413433372969
20
-77.910212787099752
30
0
10
12.250824077475393
20
-77.174119248594877
30
0
10
12.108788338545629
20
-76.304823376527978
30
0
10
11.949456309284548
20
-75.307238393005449
30
0
10
11.776539929600933
20
-74.221551848988483
30
0
10
11.598698940843484
20
-73.108170630124121
30
0
10
11.427161221706442
20
-72.037125432060904
30
0
10
11.272781587704269
20
-71.075425576505779
30
0
10
11.143495090430992
20
-70.2758976737029
30
0
10
11.041241901968178
20
-69.663974640714613
30
0
10
10.959959253839049
20
-69.228670349261947
30
0
10
10.881006586964766
20
-68.903458199930427
30
0
10
10.779748522155955
20
-68.59113422310746
30
0
10
10.636450968014543
20
-68.205918653340731
30
0
10
10.44860346121391
20
-67.720699863428308
30
0
10
10.232369502500953
20
-67.173126452664093
30
0
10
10.01166534034461
20
-66.624676989466167
30
0
10
9.8106869400204424
20
-66.132870115896409
30
0
10
9.6448545534761383
20
-65.717386456764743
30
0
10
9.5129082066270936
20
-65.330755087353282
30
0
10
9.4022330606306177
20
-64.88311858002686
30
0
10
9.2939886447059834
20
-64.266318171848042
30
0
10
9.1679639868522536
20
-63.3765149531039
30
0
10
9.0083842565752565
20
-62.141578711454279
30
0
10
8.805525930063796
20
-60.527648141386543
30
0
10
8.554492703910535
20
-58.531602690939344
30
0
10
8.2548379304970858
20
-56.177733883730724
30
0
10
7.9098376502100196
20
-53.512683401034977
30
0
10
7.5259134809307495
20
-50.601124675355926
30
0
10
7.111991030912483
20
-47.52112443616376
30
0
10
6.6788861599292293
20
-44.359642939799301
30
0
10
6.2386791545449816
20
-41.20797300644508
30
0
10
5.8040944094019142
20
-38.157209222497855
30
0
10
5.3878770904522337
20
-35.293695475590702
30
0
10
5.0021726286854769
20
-32.694501966756569
30
0
10
4.657901440326019
20
-30.422842533902681
30
0
10
4.3641439324565123
20
-28.523626424776019
30
0
10
4.127501913163762
20
-27.01869901630651
30
0
10
3.951514599496492
20
-25.902803680271322
30
0
10
3.8359477328844576
20
-25.137867441771803
30
0
10
3.7763789640563061
20
-24.651200449211586
30
0
10
3.7630558361948845
20
-24.324097456202423
30
0
10
3.7825786352746391
20
-24.017419604705093
30
0
10
3.821252574450047
20
-23.617747199821245
30
0
10
3.8686717119889447
20
-23.089011283827677
30
0
10
3.9187919617132123
20
-22.483256034549441
30
0
10
3.9669492047445272
20
-21.886755058883264
30
0
10
4.0078349644614493
20
-21.381516857486879
30
0
10
4.0331728447354092
20
-21.00158127942867
30
0
10
4.0292909887800441
20
-20.688837660604577
30
0
10
3.9815490689766615
20
-20.334606075559076
30
0
10
3.8787192163834106
20
-19.822251395912687
30
0
10
3.7180838817317223
20
-19.07493296159419
30
0
10
3.5047159473579574
20
-18.057618600100714
30
0
10
3.2494236844253499
20
-16.768457035131426
30
0
10
2.9671561990142141
20
-15.233824035975076
30
0
10
2.675214013801841
20
-13.501823788972056
30
0
10
2.3915470497740126
20
-11.636459381414923
30
0
10
2.1330064731911005
20
-9.7115030770158235
30
0
10
1.9136362021241733
20
-7.8045248130571903
30
0
10
1.7429013148368913
20
-5.9907857276307315
30
0
10
1.6240503991899258
20
-4.3373452203630478
30
0
10
1.5521718385538197
20
-2.8967146912812956
30
0
10
1.5129635970508999
20
-1.7015529796214719
30
0
10
1.4797260267777501
20
-0.75677093826989117
30
0
10
1.4184498118449334
20
-0.043539478905120742
30
0
10
1.2967483236261759
20
0.47073856855030077
30
0
10
1.0921691756777239
20
0.82397867515034173
30
0
10
0.79948611391536695
20
1.0510801361163506
30
0
10
0.4414545191303143
20
1.1737714638534043
30
0
10
0.069152688022756176
20
1.1964987365588016
30
0
10
-0.27167420472707515
20
1.123326928097844
30
0
10
-0.57591297521694529
20
0.97485868754977223
30
0
10
-0.89500912669216448
20
0.79630802217742835
30
0
10
-1.2900906711773774
20
0.63557061839816553
30
0
10
-1.793959795257047
20
0.52581127261421734
30
0
10
-2.3757711430672663
20
0.46859294858832024
30
0
10
-2.9703900469577702
20
0.44240586629285894
30
0
10
-3.5028594967557991
20
0.40879083055826887
30
0
10
-3.9121966807514958
20
0.31925555739585987
30
0
10
-4.1818556449479676
20
0.12221721237867821
30
0
10
-4.3346712205425666
20
-0.23210691795095381
30
0
10
-4.4117115540142127
20
-0.78836942501016527
30
0
10
-4.4533601459316117
20
-1.5815482693268486
30
0
10
-4.4916789041629954
20
-2.6359543041029534
30
0
10
-4.5531385098932011
20
-3.9665104215930085
30
0
10
-4.6581496285474238
20
-5.5793681197849141
30
0
10
-4.8219211700509597
20
-7.4727966781010018
30
0
10
-5.0547492535342347
20
-9.6379553902441835
30
0
10
-5.362551138628282
20
-12.059716031511428
30
0
10
-5.7472936252224773
20
-14.717463612268256
30
0
10
-6.2074668400808353
20
-17.585906407647272
30
0
10
-6.7385384329116587
20
-20.635881926941813
30
0
10
-7.3334161696359494
20
-23.835164583569906
30
0
10
-7.9829068683817672
20
-27.14927257689012
30
0
10
-8.6761768967854369
20
-30.542275111291133
30
0
10
-9.4012119378410102
20
-33.977599377671488
30
0
10
-10.145277137574386
20
-37.418837789313031
30
0
10
-10.895376882179747
20
-40.830554727267021
30
0
10
-11.638715182418235
20
-44.179094388688931
30
0
10
-12.363154745494857
20
-47.433386130939738
30
0
10
-13.057679061696172
20
-50.565755683580662
30
0
10
-13.712847531301209
20
-53.5527228196786
30
0
10
-14.321266803970076
20
-56.375830619702029
30
0
10
-14.878024079342502
20
-59.022400637903488
30
0
10
-15.381219045391763
20
-61.48648024568709
30
0
10
-15.831633081176822
20
-63.768109173121282
30
0
10
-16.232255687052369
20
-65.872307900635235
30
0
10
-16.5878609364553
20
-67.808163516124893
30
0
10
-16.904562868617507
20
-69.587874536733395
30
0
10
-17.18938003967687
20
-71.225813607322763
30
0
10
-17.449795928525482
20
-72.7375820584368
30
0
10
-17.693321637362612
20
-74.139069096511534
30
0
10
-17.927056440045423
20
-75.445506434729793
30
0
10
-18.157251962077112
20
-76.670530856356322
30
0
10
-18.388868497011973
20
-77.825229470781807
30
0
10
-18.62514930556577
20
-78.917224620811112
30
0
10
-18.867153169780821
20
-79.949666724621991
30
0
10
-19.113384882612028
20
-80.920443139476504
30
0
10
-19.359173023952067
20
-81.820829370521494
30
0
10
-19.59795375131684
20
-82.638357365727671
30
0
10
-19.823003264311275
20
-83.360689150578523
30
0
10
-20.028938594306904
20
-83.978950629871292
30
0
10
-20.213488096780271
20
-84.491724744551107
30
0
10
-20.378745155040214
20
-84.907755373576492
30
0
10
-20.533634846852888
20
-85.251689651948865
30
0
10
-20.691899784751762
20
-85.558636696507548
30
0
10
-20.866813247144293
20
-85.860816383255411
30
0
10
-21.065806825127318
20
-86.1735209319815
30
0
10
-21.288370288501717
20
-86.490687581494555
30
0
10
-21.530275739239578
20
-86.798173846906082
30
0
10
-21.786518139613904
20
-87.084041759129406
30
0
10
-22.054226009802282
20
-87.346867030926319
30
0
10
-22.332854685885369
20
-87.589665841245022
30
0
10
-22.62494660647593
20
-87.816132252181575
30
0
10
-22.936453207108794
20
-88.026268035179783
30
0
10
-23.27112023919598
20
-88.218048061847782
30
0
10
-23.625844302276317
20
-88.38858518805668
30
0
10
-23.984162211440566
20
-88.535527384668896
30
0
10
-24.329470880187923
20
-88.657567400308963
30
0
10
-24.657503398945909
20
-88.754793095627903
30
0
10
-24.994200543541805
20
-88.829350364737593
30
0
10
-25.379821808404039
20
-88.884410151578265
30
0
10
-25.845833089982971
20
-88.922818205636119
30
0
10
-26.388188532174279
20
-88.945484761208476
30
0
10
-26.968927245085439
20
-88.951517711764097
30
0
10
-27.537872528401188
20
-88.939602727230749
30
0
10
-28.047605475306383
20
-88.908921381348733
30
0
10
-28.472603421095712
20
-88.860449589316772
30
0
10
-28.752539779349206
20
-88.810117909369836
30
0
10
-28.942519489767797
20
-88.766981902360101
30
0
10
-29.065711406738195
20
-88.73567010852129
30
0
10
-29.127099999999999
20
-88.719300000000004
30
0
0
ENDSEC
0
SECTION
2
OBJECTS
0
DICTIONARY
5
C
100
AcDbDictionary
3
ACAD_GROUP
350
D
3
ACAD_MLINESTYLE
350
17
0
DICTIONARY
5
D
100
AcDbDictionary
0
DICTIONARY
5
1A
330
C
100
AcDbDictionary
0
DICTIONARY
5
17
100
AcDbDictionary
0
ENDSEC
0
EOF
