0
SECTION
2
HEADER
9
$INSUNITS
70
4
9
$ACADVER
1
AC1014
9
$HANDSEED
5
FFFF
0
ENDSEC
0
SECTION
2
TABLES
0
TABLE
2
VPORT
5
8
100
AcDbSymbolTable
0
ENDTAB
0
TABLE
2
LTYPE
5
5
100
AcDbSymbolTable
0
LTYPE
5
14
100
AcDbSymbolTableRecord
100
AcDbLinetypeTableRecord
2
BYBLOCK
70
0
0
LTYPE
5
15
100
AcDbSymbolTableRecord
100
AcDbLinetypeTableRecord
2
BYLAYER
70
0
0
LTYPE
5
16
100
AcDbSymbolTableRecord
100
AcDbLinetypeTableRecord
2
DASHED
70
0
3
Dashed __ __ __ __ __ __ __ __ __ __ __ __ __ _
72
65
73
2
40
0.75
49
0.5
74
0
49
-0.25
74
0
0
ENDTAB
0
TABLE
2
LAYER
5
2
100
AcDbSymbolTable
70
2
0
LAYER
5
50
100
AcDbSymbolTableRecord
100
AcDbLayerTableRecord
2
0
70
0
62
7
6
CONTINUOUS
0
ENDTAB
0
TABLE
2
STYLE
5
3
100
AcDbSymbolTable
70
1
0
STYLE
5
11
100
AcDbSymbolTableRecord
100
AcDbTextStyleTableRecord
2
STANDARD
70
0
0
ENDTAB
0
TABLE
2
VIEW
5
6
100
AcDbSymbolTable
70
0
0
ENDTAB
0
TABLE
2
UCS
5
7
100
AcDbSymbolTable
70
0
0
ENDTAB
0
TABLE
2
APPID
5
9
100
AcDbSymbolTable
70
2
0
APPID
5
12
100
AcDbSymbolTableRecord
100
AcDbRegAppTableRecord
2
ACAD
70
0
0
ENDTAB
0
TABLE
2
DIMSTYLE
5
A
100
AcDbSymbolTable
70
1
0
ENDTAB
0
TABLE
2
BLOCK_RECORD
5
1
100
AcDbSymbolTable
70
1
0
BLOCK_RECORD
5
1F
100
AcDbSymbolTableRecord
100
AcDbBlockTableRecord
2
*MODEL_SPACE
0
BLOCK_RECORD
5
1B
100
AcDbSymbolTableRecord
100
AcDbBlockTableRecord
2
*PAPER_SPACE
0
ENDTAB
0
ENDSEC
0
SECTION
2
BLOCKS
0
BLOCK
5
20
100
AcDbEntity
100
AcDbBlockBegin
2
*MODEL_SPACE
0
ENDBLK
5
21
100
AcDbEntity
100
AcDbBlockEnd
0
BLOCK
5
1C
100
AcDbEntity
100
AcDbBlockBegin
2
*PAPER_SPACE
0
ENDBLK
5
1D
100
AcDbEntity
100
AcDbBlockEnd
0
ENDSEC
0
SECTION
2
ENTITIES
0
SPLINE
5
100
100
AcDbEntity
8
0
100
AcDbSpline
70
6
71
5
72
871
73
865
74
0
42
0.000000001
43
0.0000000001
44
0.0000000001
40
0
40
0
40
0
40
0
40
0
40
0
40
0.0011627906976744186
40
0.0023255813953488372
40
0.0034883720930232558
40
0.0046511627906976744
40
0.0058139534883720929
40
0.0069767441860465115
40
0.0081395348837209301
40
0.0093023255813953487
40
0.010465116279069767
40
0.011627906976744186
40
0.012790697674418604
40
0.013953488372093023
40
0.015116279069767442
40
0.01627906976744186
40
0.017441860465116279
40
0.018604651162790697
40
0.019767441860465116
40
0.020930232558139535
40
0.022093023255813953
40
0.023255813953488372
40
0.02441860465116279
40
0.025581395348837209
40
0.026744186046511628
40
0.027906976744186046
40
0.029069767441860465
40
0.030232558139534883
40
0.031395348837209305
40
0.03255813953488372
40
0.033720930232558136
40
0.034883720930232551
40
0.036046511627906966
40
0.037209302325581381
40
0.038372093023255796
40
0.039534883720930211
40
0.040697674418604626
40
0.041860465116279041
40
0.043023255813953457
40
0.044186046511627872
40
0.045348837209302287
40
0.046511627906976702
40
0.047674418604651117
40
0.048837209302325532
40
0.049999999999999947
40
0.051162790697674362
40
0.052325581395348778
40
0.053488372093023193
40
0.054651162790697608
40
0.055813953488372023
40
0.056976744186046438
40
0.058139534883720853
40
0.059302325581395268
40
0.060465116279069683
40
0.061627906976744098
40
0.062790697674418514
40
0.063953488372092929
40
0.065116279069767344
40
0.066279069767441759
40
0.067441860465116174
40
0.068604651162790589
40
0.069767441860465004
40
0.070930232558139419
40
0.072093023255813835
40
0.07325581395348825
40
0.074418604651162665
40
0.07558139534883708
40
0.076744186046511495
40
0.07790697674418591
40
0.079069767441860325
40
0.08023255813953474
40
0.081395348837209155
40
0.082558139534883571
40
0.083720930232557986
40
0.084883720930232401
40
0.086046511627906816
40
0.087209302325581231
40
0.088372093023255646
40
0.089534883720930061
40
0.090697674418604476
40
0.091860465116278892
40
0.093023255813953307
40
0.094186046511627722
40
0.095348837209302137
40
0.096511627906976552
40
0.097674418604650967
40
0.098837209302325382
40
0.099999999999999797
40
0.10116279069767421
40
0.10232558139534863
40
0.10348837209302304
40
0.10465116279069746
40
0.10581395348837187
40
0.10697674418604629
40
0.1081395348837207
40
0.10930232558139512
40
0.11046511627906953
40
0.11162790697674395
40
0.11279069767441836
40
0.11395348837209278
40
0.11511627906976719
40
0.11627906976744161
40
0.11744186046511602
40
0.11860465116279044
40
0.11976744186046485
40
0.12093023255813927
40
0.12209302325581368
40
0.1232558139534881
40
0.12441860465116251
40
0.12558139534883694
40
0.12674418604651136
40
0.12790697674418577
40
0.12906976744186019
40
0.1302325581395346
40
0.13139534883720902
40
0.13255813953488343
40
0.13372093023255785
40
0.13488372093023226
40
0.13604651162790668
40
0.1372093023255811
40
0.13837209302325551
40
0.13953488372092993
40
0.14069767441860434
40
0.14186046511627876
40
0.14302325581395317
40
0.14418604651162759
40
0.145348837209302
40
0.14651162790697642
40
0.14767441860465083
40
0.14883720930232525
40
0.14999999999999966
40
0.15116279069767408
40
0.15232558139534849
40
0.15348837209302291
40
0.15465116279069732
40
0.15581395348837174
40
0.15697674418604615
40
0.15813953488372057
40
0.15930232558139498
40
0.1604651162790694
40
0.16162790697674381
40
0.16279069767441823
40
0.16395348837209264
40
0.16511627906976706
40
0.16627906976744147
40
0.16744186046511589
40
0.1686046511627903
40
0.16976744186046472
40
0.17093023255813913
40
0.17209302325581355
40
0.17325581395348796
40
0.17441860465116238
40
0.17558139534883679
40
0.17674418604651121
40
0.17790697674418562
40
0.17906976744186004
40
0.18023255813953445
40
0.18139534883720887
40
0.18255813953488328
40
0.1837209302325577
40
0.18488372093023211
40
0.18604651162790653
40
0.18720930232558095
40
0.18837209302325536
40
0.18953488372092978
40
0.19069767441860419
40
0.19186046511627861
40
0.19302325581395302
40
0.19418604651162744
40
0.19534883720930185
40
0.19651162790697627
40
0.19767441860465068
40
0.1988372093023251
40
0.19999999999999951
40
0.20116279069767393
40
0.20232558139534834
40
0.20348837209302276
40
0.20465116279069717
40
0.20581395348837159
40
0.206976744186046
40
0.20813953488372042
40
0.20930232558139483
40
0.21046511627906925
40
0.21162790697674366
40
0.21279069767441808
40
0.21395348837209249
40
0.21511627906976691
40
0.21627906976744132
40
0.21744186046511574
40
0.21860465116279015
40
0.21976744186046457
40
0.22093023255813898
40
0.2220930232558134
40
0.22325581395348781
40
0.22441860465116223
40
0.22558139534883664
40
0.22674418604651106
40
0.22790697674418547
40
0.22906976744185989
40
0.2302325581395343
40
0.23139534883720872
40
0.23255813953488313
40
0.23372093023255755
40
0.23488372093023197
40
0.23604651162790638
40
0.2372093023255808
40
0.23837209302325521
40
0.23953488372092963
40
0.24069767441860404
40
0.24186046511627846
40
0.24302325581395287
40
0.24418604651162729
40
0.2453488372093017
40
0.24651162790697612
40
0.24767441860465053
40
0.24883720930232495
40
0.24999999999999936
40
0.25116279069767378
40
0.25232558139534822
40
0.25348837209302266
40
0.25465116279069711
40
0.25581395348837155
40
0.25697674418604599
40
0.25813953488372043
40
0.25930232558139488
40
0.26046511627906932
40
0.26162790697674376
40
0.26279069767441821
40
0.26395348837209265
40
0.26511627906976709
40
0.26627906976744153
40
0.26744186046511598
40
0.26860465116279042
40
0.26976744186046486
40
0.27093023255813931
40
0.27209302325581375
40
0.27325581395348819
40
0.27441860465116263
40
0.27558139534883708
40
0.27674418604651152
40
0.27790697674418596
40
0.27906976744186041
40
0.28023255813953485
40
0.28139534883720929
40
0.28255813953488373
40
0.28372093023255818
40
0.28488372093023262
40
0.28604651162790706
40
0.28720930232558151
40
0.28837209302325595
40
0.28953488372093039
40
0.29069767441860483
40
0.29186046511627928
40
0.29302325581395372
40
0.29418604651162816
40
0.29534883720930261
40
0.29651162790697705
40
0.29767441860465149
40
0.29883720930232593
40
0.30000000000000038
40
0.30116279069767482
40
0.30232558139534926
40
0.30348837209302371
40
0.30465116279069815
40
0.30581395348837259
40
0.30697674418604703
40
0.30813953488372148
40
0.30930232558139592
40
0.31046511627907036
40
0.31162790697674481
40
0.31279069767441925
40
0.31395348837209369
40
0.31511627906976813
40
0.31627906976744258
40
0.31744186046511702
40
0.31860465116279146
40
0.31976744186046591
40
0.32093023255814035
40
0.32209302325581479
40
0.32325581395348923
40
0.32441860465116368
40
0.32558139534883812
40
0.32674418604651256
40
0.32790697674418701
40
0.32906976744186145
40
0.33023255813953589
40
0.33139534883721034
40
0.33255813953488478
40
0.33372093023255922
40
0.33488372093023366
40
0.33604651162790811
40
0.33720930232558255
40
0.33837209302325699
40
0.33953488372093144
40
0.34069767441860588
40
0.34186046511628032
40
0.34302325581395476
40
0.34418604651162921
40
0.34534883720930365
40
0.34651162790697809
40
0.34767441860465254
40
0.34883720930232698
40
0.35000000000000142
40
0.35116279069767586
40
0.35232558139535031
40
0.35348837209302475
40
0.35465116279069919
40
0.35581395348837364
40
0.35697674418604808
40
0.35813953488372252
40
0.35930232558139696
40
0.36046511627907141
40
0.36162790697674585
40
0.36279069767442029
40
0.36395348837209474
40
0.36511627906976918
40
0.36627906976744362
40
0.36744186046511806
40
0.36860465116279251
40
0.36976744186046695
40
0.37093023255814139
40
0.37209302325581584
40
0.37325581395349028
40
0.37441860465116472
40
0.37558139534883916
40
0.37674418604651361
40
0.37790697674418805
40
0.37906976744186249
40
0.38023255813953694
40
0.38139534883721138
40
0.38255813953488582
40
0.38372093023256026
40
0.38488372093023471
40
0.38604651162790915
40
0.38720930232558359
40
0.38837209302325804
40
0.38953488372093248
40
0.39069767441860692
40
0.39186046511628136
40
0.39302325581395581
40
0.39418604651163025
40
0.39534883720930469
40
0.39651162790697914
40
0.39767441860465358
40
0.39883720930232802
40
0.40000000000000246
40
0.40116279069767691
40
0.40232558139535135
40
0.40348837209302579
40
0.40465116279070024
40
0.40581395348837468
40
0.40697674418604912
40
0.40813953488372356
40
0.40930232558139801
40
0.41046511627907245
40
0.41162790697674689
40
0.41279069767442134
40
0.41395348837209578
40
0.41511627906977022
40
0.41627906976744466
40
0.41744186046511911
40
0.41860465116279355
40
0.41976744186046799
40
0.42093023255814244
40
0.42209302325581688
40
0.42325581395349132
40
0.42441860465116577
40
0.42558139534884021
40
0.42674418604651465
40
0.42790697674418909
40
0.42906976744186354
40
0.43023255813953798
40
0.43139534883721242
40
0.43255813953488687
40
0.43372093023256131
40
0.43488372093023575
40
0.43604651162791019
40
0.43720930232558464
40
0.43837209302325908
40
0.43953488372093352
40
0.44069767441860797
40
0.44186046511628241
40
0.44302325581395685
40
0.44418604651163129
40
0.44534883720930574
40
0.44651162790698018
40
0.44767441860465462
40
0.44883720930232907
40
0.45000000000000351
40
0.45116279069767795
40
0.45232558139535239
40
0.45348837209302684
40
0.45465116279070128
40
0.45581395348837572
40
0.45697674418605017
40
0.45813953488372461
40
0.45930232558139905
40
0.46046511627907349
40
0.46162790697674794
40
0.46279069767442238
40
0.46395348837209682
40
0.46511627906977127
40
0.46627906976744571
40
0.46744186046512015
40
0.46860465116279459
40
0.46976744186046904
40
0.47093023255814348
40
0.47209302325581792
40
0.47325581395349237
40
0.47441860465116681
40
0.47558139534884125
40
0.47674418604651569
40
0.47790697674419014
40
0.47906976744186458
40
0.48023255813953902
40
0.48139534883721347
40
0.48255813953488791
40
0.48372093023256235
40
0.48488372093023679
40
0.48604651162791124
40
0.48720930232558568
40
0.48837209302326012
40
0.48953488372093457
40
0.49069767441860901
40
0.49186046511628345
40
0.49302325581395789
40
0.49418604651163234
40
0.49534883720930678
40
0.49651162790698122
40
0.49767441860465567
40
0.49883720930233011
40
0.50000000000000455
40
0.50116279069767899
40
0.50232558139535344
40
0.50348837209302788
40
0.50465116279070232
40
0.50581395348837677
40
0.50697674418605121
40
0.50813953488372565
40
0.50930232558140009
40
0.51046511627907454
40
0.51162790697674898
40
0.51279069767442342
40
0.51395348837209787
40
0.51511627906977231
40
0.51627906976744675
40
0.5174418604651212
40
0.51860465116279564
40
0.51976744186047008
40
0.52093023255814452
40
0.52209302325581897
40
0.52325581395349341
40
0.52441860465116785
40
0.5255813953488423
40
0.52674418604651674
40
0.52790697674419118
40
0.52906976744186562
40
0.53023255813954007
40
0.53139534883721451
40
0.53255813953488895
40
0.5337209302325634
40
0.53488372093023784
40
0.53604651162791228
40
0.53720930232558672
40
0.53837209302326117
40
0.53953488372093561
40
0.54069767441861005
40
0.5418604651162845
40
0.54302325581395894
40
0.54418604651163338
40
0.54534883720930782
40
0.54651162790698227
40
0.54767441860465671
40
0.54883720930233115
40
0.5500000000000056
40
0.55116279069768004
40
0.55232558139535448
40
0.55348837209302892
40
0.55465116279070337
40
0.55581395348837781
40
0.55697674418605225
40
0.5581395348837267
40
0.55930232558140114
40
0.56046511627907558
40
0.56162790697675002
40
0.56279069767442447
40
0.56395348837209891
40
0.56511627906977335
40
0.5662790697674478
40
0.56744186046512224
40
0.56860465116279668
40
0.56976744186047112
40
0.57093023255814557
40
0.57209302325582001
40
0.57325581395349445
40
0.5744186046511689
40
0.57558139534884334
40
0.57674418604651778
40
0.57790697674419222
40
0.57906976744186667
40
0.58023255813954111
40
0.58139534883721555
40
0.58255813953489
40
0.58372093023256444
40
0.58488372093023888
40
0.58604651162791332
40
0.58720930232558777
40
0.58837209302326221
40
0.58953488372093665
40
0.5906976744186111
40
0.59186046511628554
40
0.59302325581395998
40
0.59418604651163442
40
0.59534883720930887
40
0.59651162790698331
40
0.59767441860465775
40
0.5988372093023322
40
0.60000000000000664
40
0.60116279069768108
40
0.60232558139535552
40
0.60348837209302997
40
0.60465116279070441
40
0.60581395348837885
40
0.6069767441860533
40
0.60813953488372774
40
0.60930232558140218
40
0.61046511627907663
40
0.61162790697675107
40
0.61279069767442551
40
0.61395348837209995
40
0.6151162790697744
40
0.61627906976744884
40
0.61744186046512328
40
0.61860465116279773
40
0.61976744186047217
40
0.62093023255814661
40
0.62209302325582105
40
0.6232558139534955
40
0.62441860465116994
40
0.62558139534884438
40
0.62674418604651883
40
0.62790697674419327
40
0.62906976744186771
40
0.63023255813954215
40
0.6313953488372166
40
0.63255813953489104
40
0.63372093023256548
40
0.63488372093023993
40
0.63604651162791437
40
0.63720930232558881
40
0.63837209302326325
40
0.6395348837209377
40
0.64069767441861214
40
0.64186046511628658
40
0.64302325581396103
40
0.64418604651163547
40
0.64534883720930991
40
0.64651162790698435
40
0.6476744186046588
40
0.64883720930233324
40
0.65000000000000768
40
0.65116279069768213
40
0.65232558139535657
40
0.65348837209303101
40
0.65465116279070545
40
0.6558139534883799
40
0.65697674418605434
40
0.65813953488372878
40
0.65930232558140323
40
0.66046511627907767
40
0.66162790697675211
40
0.66279069767442655
40
0.663953488372101
40
0.66511627906977544
40
0.66627906976744988
40
0.66744186046512433
40
0.66860465116279877
40
0.66976744186047321
40
0.67093023255814765
40
0.6720930232558221
40
0.67325581395349654
40
0.67441860465117098
40
0.67558139534884543
40
0.67674418604651987
40
0.67790697674419431
40
0.67906976744186875
40
0.6802325581395432
40
0.68139534883721764
40
0.68255813953489208
40
0.68372093023256653
40
0.68488372093024097
40
0.68604651162791541
40
0.68720930232558985
40
0.6883720930232643
40
0.68953488372093874
40
0.69069767441861318
40
0.69186046511628763
40
0.69302325581396207
40
0.69418604651163651
40
0.69534883720931095
40
0.6965116279069854
40
0.69767441860465984
40
0.69883720930233428
40
0.70000000000000873
40
0.70116279069768317
40
0.70232558139535761
40
0.70348837209303205
40
0.7046511627907065
40
0.70581395348838094
40
0.70697674418605538
40
0.70813953488372983
40
0.70930232558140427
40
0.71046511627907871
40
0.71162790697675316
40
0.7127906976744276
40
0.71395348837210204
40
0.71511627906977648
40
0.71627906976745093
40
0.71744186046512537
40
0.71860465116279981
40
0.71976744186047426
40
0.7209302325581487
40
0.72209302325582314
40
0.72325581395349758
40
0.72441860465117203
40
0.72558139534884647
40
0.72674418604652091
40
0.72790697674419536
40
0.7290697674418698
40
0.73023255813954424
40
0.73139534883721868
40
0.73255813953489313
40
0.73372093023256757
40
0.73488372093024201
40
0.73604651162791646
40
0.7372093023255909
40
0.73837209302326534
40
0.73953488372093978
40
0.74069767441861423
40
0.74186046511628867
40
0.74302325581396311
40
0.74418604651163756
40
0.745348837209312
40
0.74651162790698644
40
0.74767441860466088
40
0.74883720930233533
40
0.75000000000000977
40
0.75116279069768421
40
0.75232558139535866
40
0.7534883720930331
40
0.75465116279070754
40
0.75581395348838198
40
0.75697674418605643
40
0.75813953488373087
40
0.75930232558140531
40
0.76046511627907976
40
0.7616279069767542
40
0.76279069767442864
40
0.76395348837210308
40
0.76511627906977753
40
0.76627906976745197
40
0.76744186046512641
40
0.76860465116280086
40
0.7697674418604753
40
0.77093023255814974
40
0.77209302325582418
40
0.77325581395349863
40
0.77441860465117307
40
0.77558139534884751
40
0.77674418604652196
40
0.7779069767441964
40
0.77906976744187084
40
0.78023255813954528
40
0.78139534883721973
40
0.78255813953489417
40
0.78372093023256861
40
0.78488372093024306
40
0.7860465116279175
40
0.78720930232559194
40
0.78837209302326638
40
0.78953488372094083
40
0.79069767441861527
40
0.79186046511628971
40
0.79302325581396416
40
0.7941860465116386
40
0.79534883720931304
40
0.79651162790698748
40
0.79767441860466193
40
0.79883720930233637
40
0.80000000000001081
40
0.80116279069768526
40
0.8023255813953597
40
0.80348837209303414
40
0.80465116279070859
40
0.80581395348838303
40
0.80697674418605747
40
0.80813953488373191
40
0.80930232558140636
40
0.8104651162790808
40
0.81162790697675524
40
0.81279069767442969
40
0.81395348837210413
40
0.81511627906977857
40
0.81627906976745301
40
0.81744186046512746
40
0.8186046511628019
40
0.81976744186047634
40
0.82093023255815079
40
0.82209302325582523
40
0.82325581395349967
40
0.82441860465117411
40
0.82558139534884856
40
0.826744186046523
40
0.82790697674419744
40
0.82906976744187189
40
0.83023255813954633
40
0.83139534883722077
40
0.83255813953489521
40
0.83372093023256966
40
0.8348837209302441
40
0.83604651162791854
40
0.83720930232559299
40
0.83837209302326743
40
0.83953488372094187
40
0.84069767441861631
40
0.84186046511629076
40
0.8430232558139652
40
0.84418604651163964
40
0.84534883720931409
40
0.84651162790698853
40
0.84767441860466297
40
0.84883720930233741
40
0.85000000000001186
40
0.8511627906976863
40
0.85232558139536074
40
0.85348837209303519
40
0.85465116279070963
40
0.85581395348838407
40
0.85697674418605851
40
0.85813953488373296
40
0.8593023255814074
40
0.86046511627908184
40
0.86162790697675629
40
0.86279069767443073
40
0.86395348837210517
40
0.86511627906977961
40
0.86627906976745406
40
0.8674418604651285
40
0.86860465116280294
40
0.86976744186047739
40
0.87093023255815183
40
0.87209302325582627
40
0.87325581395350071
40
0.87441860465117516
40
0.8755813953488496
40
0.87674418604652404
40
0.87790697674419849
40
0.87906976744187293
40
0.88023255813954737
40
0.88139534883722181
40
0.88255813953489626
40
0.8837209302325707
40
0.88488372093024514
40
0.88604651162791959
40
0.88720930232559403
40
0.88837209302326847
40
0.88953488372094291
40
0.89069767441861736
40
0.8918604651162918
40
0.89302325581396624
40
0.89418604651164069
40
0.89534883720931513
40
0.89651162790698957
40
0.89767441860466402
40
0.89883720930233846
40
0.9000000000000129
40
0.90116279069768734
40
0.90232558139536179
40
0.90348837209303623
40
0.90465116279071067
40
0.90581395348838512
40
0.90697674418605956
40
0.908139534883734
40
0.90930232558140844
40
0.91046511627908289
40
0.91162790697675733
40
0.91279069767443177
40
0.91395348837210622
40
0.91511627906978066
40
0.9162790697674551
40
0.91744186046512954
40
0.91860465116280399
40
0.91976744186047843
40
0.92093023255815287
40
0.92209302325582732
40
0.92325581395350176
40
0.9244186046511762
40
0.92558139534885064
40
0.92674418604652509
40
0.92790697674419953
40
0.92906976744187397
40
0.93023255813954842
40
0.93139534883722286
40
0.9325581395348973
40
0.93372093023257174
40
0.93488372093024619
40
0.93604651162792063
40
0.93720930232559507
40
0.93837209302326952
40
0.93953488372094396
40
0.9406976744186184
40
0.94186046511629284
40
0.94302325581396729
40
0.94418604651164173
40
0.94534883720931617
40
0.94651162790699062
40
0.94767441860466506
40
0.9488372093023395
40
0.95000000000001394
40
0.95116279069768839
40
0.95232558139536283
40
0.95348837209303727
40
0.95465116279071172
40
0.95581395348838616
40
0.9569767441860606
40
0.95813953488373504
40
0.95930232558140949
40
0.96046511627908393
40
0.96162790697675837
40
0.96279069767443282
40
0.96395348837210726
40
0.9651162790697817
40
0.96627906976745614
40
0.96744186046513059
40
0.96860465116280503
40
0.96976744186047947
40
0.97093023255815392
40
0.97209302325582836
40
0.9732558139535028
40
0.97441860465117724
40
0.97558139534885169
40
0.97674418604652613
40
0.97790697674420057
40
0.97906976744187502
40
0.98023255813954946
40
0.9813953488372239
40
0.98255813953489834
40
0.98372093023257279
40
0.98488372093024723
40
0.98604651162792167
40
0.98720930232559612
40
0.98837209302327056
40
0.989534883720945
40
0.99069767441861945
40
0.99186046511629389
40
0.99302325581396833
40
0.99418604651164277
40
0.99534883720931722
40
0.99651162790699166
40
0.9976744186046661
40
0.99883720930234055
40
1
40
1
40
1
40
1
40
1
40
1
41
1
41
1
41
1
41
1
41
1
41
1
41
1
41
1
41
1
41
1
41
1
41
1
41
1
41
1
41
1
41
1
41
1
41
1
41
1
41
1
41
1
41
1
41
1
41
1
41
1
41
1
41
1
41
1
41
1
41
1
41
1
41
1
41
1
41
1
41
1
41
1
41
1
41
1
41
1
41
1
41
1
41
1
41
1
41
1
41
1
41
1
41
1
41
1
41
1
41
1
41
1
41
1
41
1
41
1
41
1
41
1
41
1
41
1
41
1
41
1
41
1
41
1
41
1
41
1
41
1
41
1
41
1
41
1
41
1
41
1
41
1
41
1
41
1
41
1
41
1
41
1
41
1
41
1
41
1
41
1
41
1
41
1
41
1
41
1
41
1
41
1
41
1
41
1
41
1
41
1
41
1
41
1
41
1
41
1
41
1
41
1
41
1
41
1
41
1
41
1
41
1
41
1
41
1
41
1
41
1
41
1
41
1
41
1
41
1
41
1
41
1
41
1
41
1
41
1
41
1
41
1
41
1
41
1
41
1
41
1
41
1
41
1
41
1
41
1
41
1
41
1
41
1
41
1
41
1
41
1
41
1
41
1
41
1
41
1
41
1
41
1
41
1
41
1
41
1
41
1
41
1
41
1
41
1
41
1
41
1
41
1
41
1
41
1
41
1
41
1
41
1
41
1
41
1
41
1
41
1
41
1
41
1
41
1
41
1
41
1
41
1
41
1
41
1
41
1
41
1
41
1
41
1
41
1
41
1
41
1
41
1
41
1
41
1
41
1
41
1
41
1
41
1
41
1
41
1
41
1
41
1
41
1
41
1
41
1
41
1
41
1
41
1
41
1
41
1
41
1
41
1
41
1
41
1
41
1
41
1
41
1
41
1
41
1
41
1
41
1
41
1
41
1
41
1
41
1
41
1
41
1
41
1
41
1
41
1
41
1
41
1
41
1
41
1
41
1
41
1
41
1
41
1
41
1
41
1
41
1
41
1
41
1
41
1
41
1
41
1
41
1
41
1
41
1
41
1
41
1
41
1
41
1
41
1
41
1
41
1
41
1
41
1
41
1
41
1
41
1
41
1
41
1
41
1
41
1
41
1
41
1
41
1
41
1
41
1
41
1
41
1
41
1
41
1
41
1
41
1
41
1
41
1
41
1
41
1
41
1
41
1
41
1
41
1
41
1
41
1
41
1
41
1
41
1
41
1
41
1
41
1
41
1
41
1
41
1
41
1
41
1
41
1
41
1
41
1
41
1
41
1
41
1
41
1
41
1
41
1
41
1
41
1
41
1
41
1
41
1
41
1
41
1
41
1
41
1
41
1
41
1
41
1
41
1
41
1
41
1
41
1
41
1
41
1
41
1
41
1
41
1
41
1
41
1
41
1
41
1
41
1
41
1
41
1
41
1
41
1
41
1
41
1
41
1
41
1
41
1
41
1
41
1
41
1
41
1
41
1
41
1
41
1
41
1
41
1
41
1
41
1
41
1
41
1
41
1
41
1
41
1
41
1
41
1
41
1
41
1
41
1
41
1
41
1
41
1
41
1
41
1
41
1
41
1
41
1
41
1
41
1
41
1
41
1
41
1
41
1
41
1
41
1
41
1
41
1
41
1
41
1
41
1
41
1
41
1
41
1
41
1
41
1
41
1
41
1
41
1
41
1
41
1
41
1
41
1
41
1
41
1
41
1
41
1
41
1
41
1
41
1
41
1
41
1
41
1
41
1
41
1
41
1
41
1
41
1
41
1
41
1
41
1
41
1
41
1
41
1
41
1
41
1
41
1
41
1
41
1
41
1
41
1
41
1
41
1
41
1
41
1
41
1
41
1
41
1
41
1
41
1
41
1
41
1
41
1
41
1
41
1
41
1
41
1
41
1
41
1
41
1
41
1
41
1
41
1
41
1
41
1
41
1
41
1
41
1
41
1
41
1
41
1
41
1
41
1
41
1
41
1
41
1
41
1
41
1
41
1
41
1
41
1
41
1
41
1
41
1
41
1
41
1
41
1
41
1
41
1
41
1
41
1
41
1
41
1
41
1
41
1
41
1
41
1
41
1
41
1
41
1
41
1
41
1
41
1
41
1
41
1
41
1
41
1
41
1
41
1
41
1
41
1
41
1
41
1
41
1
41
1
41
1
41
1
41
1
41
1
41
1
41
1
41
1
41
1
41
1
41
1
41
1
41
1
41
1
41
1
41
1
41
1
41
1
41
1
41
1
41
1
41
1
41
1
41
1
41
1
41
1
41
1
41
1
41
1
41
1
41
1
41
1
41
1
41
1
41
1
41
1
41
1
41
1
41
1
41
1
41
1
41
1
41
1
41
1
41
1
41
1
41
1
41
1
41
1
41
1
41
1
41
1
41
1
41
1
41
1
41
1
41
1
41
1
41
1
41
1
41
1
41
1
41
1
41
1
41
1
41
1
41
1
41
1
41
1
41
1
41
1
41
1
41
1
41
1
41
1
41
1
41
1
41
1
41
1
41
1
41
1
41
1
41
1
41
1
41
1
41
1
41
1
41
1
41
1
41
1
41
1
41
1
41
1
41
1
41
1
41
1
41
1
41
1
41
1
41
1
41
1
41
1
41
1
41
1
41
1
41
1
41
1
41
1
41
1
41
1
41
1
41
1
41
1
41
1
41
1
41
1
41
1
41
1
41
1
41
1
41
1
41
1
41
1
41
1
41
1
41
1
41
1
41
1
41
1
41
1
41
1
41
1
41
1
41
1
41
1
41
1
41
1
41
1
41
1
41
1
41
1
41
1
41
1
41
1
41
1
41
1
41
1
41
1
41
1
41
1
41
1
41
1
41
1
41
1
41
1
41
1
41
1
41
1
41
1
41
1
41
1
41
1
41
1
41
1
41
1
41
1
41
1
41
1
41
1
41
1
41
1
41
1
41
1
41
1
41
1
41
1
41
1
41
1
41
1
41
1
41
1
41
1
41
1
41
1
41
1
41
1
41
1
41
1
41
1
41
1
41
1
41
1
41
1
41
1
41
1
41
1
41
1
41
1
41
1
41
1
41
1
41
1
41
1
41
1
41
1
41
1
41
1
41
1
41
1
41
1
41
1
41
1
41
1
41
1
41
1
41
1
41
1
41
1
41
1
41
1
41
1
41
1
41
1
41
1
41
1
41
1
41
1
41
1
41
1
41
1
41
1
41
1
41
1
41
1
41
1
41
1
41
1
41
1
41
1
41
1
41
1
41
1
41
1
41
1
41
1
41
1
41
1
41
1
41
1
41
1
41
1
41
1
41
1
41
1
41
1
41
1
41
1
41
1
41
1
41
1
41
1
41
1
41
1
41
1
41
1
41
1
41
1
41
1
41
1
41
1
41
1
41
1
41
1
41
1
41
1
41
1
41
1
41
1
41
1
41
1
41
1
41
1
41
1
41
1
41
1
41
1
41
1
41
1
41
1
41
1
41
1
41
1
41
1
41
1
41
1
41
1
41
1
41
1
41
1
41
1
41
1
41
1
41
1
41
1
41
1
41
1
41
1
41
1
41
1
41
1
41
1
41
1
41
1
41
1
41
1
41
1
41
1
41
1
41
1
41
1
41
1
41
1
41
1
41
1
41
1
41
1
41
1
41
1
41
1
41
1
41
1
41
1
41
1
41
1
41
1
41
1
41
1
41
1
41
1
41
1
41
1
41
1
41
1
41
1
41
1
41
1
41
1
41
1
41
1
41
1
41
1
41
1
41
1
41
1
41
1
41
1
41
1
41
1
41
1
41
1
41
1
41
1
41
1
41
1
41
1
41
1
41
1
41
1
41
1
41
1
41
1
41
1
41
1
41
1
41
1
41
1
41
1
41
1
41
1
41
1
41
1
41
1
41
1
41
1
41
1
41
1
41
1
41
1
41
1
41
1
10
-30.030799999999999
20
-87.284800000000018
30
0
10
-30.144787611560528
20
-87.263115573576542
30
0
10
-30.372438542791784
20
-87.216180612354918
30
0
10
-30.710592391170316
20
-87.135572340640095
30
0
10
-31.144975742896015
20
-87.01139644296758
30
0
10
-31.638376269301588
20
-86.841854129615768
30
0
10
-32.067751584824727
20
-86.670959284333037
30
0
10
-32.430415146330219
20
-86.506970110385893
30
0
10
-32.74207887871647
20
-86.347855259583085
30
0
10
-33.035222233828094
20
-86.18030376637256
30
0
10
-33.344058178434679
20
-85.986374917736001
30
0
10
-33.691887543134634
20
-85.748514500138228
30
0
10
-34.07926658133205
20
-85.454922598579955
30
0
10
-34.491945188974611
20
-85.100519587554601
30
0
10
-34.907193291507873
20
-84.688701293319482
30
0
10
-35.300355993035645
20
-84.232132668554684
30
0
10
-35.652269534388289
20
-83.755524720611419
30
0
10
-35.952598819949024
20
-83.291560147662722
30
0
10
-36.198477617329779
20
-82.869881767776832
30
0
10
-36.394522346603196
20
-82.507308412216133
30
0
10
-36.552023743610647
20
-82.198881124941622
30
0
10
-36.689157628267985
20
-81.90512676744909
30
0
10
-36.824805593829701
20
-81.573562475151448
30
0
10
-36.972444299569261
20
-81.162156504436084
30
0
10
-37.132055539875637
20
-80.668672114956365
30
0
10
-37.291252874526705
20
-80.129282022167871
30
0
10
-37.432998283574264
20
-79.594793171925417
30
0
10
-37.541453492040887
20
-79.11329035095703
30
0
10
-37.608415514385875
20
-78.710622504810772
30
0
10
-37.63998670354956
20
-78.370520248885583
30
0
10
-37.649744232120568
20
-78.05186344340477
30
0
10
-37.651980065916142
20
-77.706123083433226
30
0
10
-37.653536264650775
20
-77.297850222219594
30
0
10
-37.653520931156933
20
-76.807417286223554
30
0
10
-37.646662188415682
20
-76.225530798338909
30
0
10
-37.625477163102829
20
-75.550405812148256
30
0
10
-37.582982210078796
20
-74.783771462299896
30
0
10
-37.515035323086423
20
-73.9275503185048
30
0
10
-37.419887231960878
20
-72.983994571993392
30
0
10
-37.297833564066551
20
-71.955732089644727
30
0
10
-37.150831144085586
20
-70.845841694874593
30
0
10
-36.982129061567413
20
-69.657916486195845
30
0
10
-36.79589426168581
20
-68.396131808830759
30
0
10
-36.596837518277027
20
-67.065312354640028
30
0
10
-36.389843859207424
20
-65.670997028577574
30
0
10
-36.179590357290763
20
-64.219510862791424
30
0
10
-35.970194532752238
20
-62.718019628137888
30
0
10
-35.764784722544654
20
-61.174628679192523
30
0
10
-35.565512130757412
20
-59.598231332151705
30
0
10
-35.373712454301717
20
-57.998272413380377
30
0
10
-35.190018089212721
20
-56.384539840158475
30
0
10
-35.014490978457452
20
-54.766944485652765
30
0
10
-34.846746583384011
20
-53.155305096954493
30
0
10
-34.686081695097407
20
-51.559130986109587
30
0
10
-34.531600534007403
20
-49.987405797763842
30
0
10
-34.382341712292096
20
-48.448370530068971
30
0
10
-34.23740452649308
20
-46.94930751827178
30
0
10
-34.096076229318292
20
-45.496322491379246
30
0
10
-33.957957277157909
20
-44.094130941473026
30
0
10
-33.823091183073842
20
-42.745834497366104
30
0
10
-33.692083589335375
20
-41.452720755397728
30
0
10
-33.566249571578169
20
-40.214001631735321
30
0
10
-33.447422207593164
20
-39.02728919725697
30
0
10
-33.337724824919349
20
-37.889150473827755
30
0
10
-33.239356033281794
20
-36.795634648823572
30
0
10
-33.154369787336208
20
-35.742810515145806
30
0
10
-33.084456611515563
20
-34.727302753312856
30
0
10
-33.030726579431615
20
-33.746821200911107
30
0
10
-32.993486288575788
20
-32.800710606701166
30
0
10
-32.972030623657055
20
-31.890450936476135
30
0
10
-32.964399083813284
20
-31.020275694928632
30
0
10
-32.96723114401383
20
-30.19746107453102
30
0
10
-32.976516460216502
20
-29.429667248190043
30
0
10
-32.988280150691175
20
-28.722481553668157
30
0
10
-32.999272944708785
20
-28.076974294459074
30
0
10
-33.007704518436107
20
-27.487045324550223
30
0
10
-33.013852646432639
20
-26.937336288700777
30
0
10
-33.020989746449807
20
-26.399710546717749
30
0
10
-33.03501435982276
20
-25.835567852061132
30
0
10
-33.06312860412018
20
-25.202457452924669
30
0
10
-33.112796301589988
20
-24.459424324118103
30
0
10
-33.190581231846721
20
-23.572901608180779
30
0
10
-33.301046626863894
20
-22.522312661099299
30
0
10
-33.445604900913118
20
-21.305931740424672
30
0
10
-33.621454670945006
20
-19.946257320787733
30
0
10
-33.822509692362445
20
-18.484012620026331
30
0
10
-34.040259182022716
20
-16.972538952527092
30
0
10
-34.264653069124506
20
-15.472047771607366
30
0
10
-34.484978250575594
20
-14.043920137197317
30
0
10
-34.690735018958179
20
-12.745014956050529
30
0
10
-34.872521973524925
20
-11.621905776359448
30
0
10
-35.022897411189483
20
-10.705305361923793
30
0
10
-35.137297036260755
20
-10.004044299280894
30
0
10
-35.214819838219576
20
-9.5000919911752053
30
0
10
-35.259329163397226
20
-9.1410859594905958
30
0
10
-35.279619205580353
20
-8.8402531747077404
30
0
10
-35.285951538910794
20
-8.5051372004052599
30
0
10
-35.287220450959062
20
-8.0612576439060462
30
0
10
-35.28770264575877
20
-7.4792877847753054
30
0
10
-35.287833955172722
20
-6.7657455529375055
30
0
10
-35.285182055958877
20
-5.9518135205683
30
0
10
-35.275342172402368
20
-5.0829779751353508
30
0
10
-35.252884292221879
20
-4.207961152936365
30
0
10
-35.212233750556365
20
-3.3687991439488618
30
0
10
-35.148689186963772
20
-2.5883698090390119
30
0
10
-35.058993166998796
20
-1.8663600881395062
30
0
10
-34.941246829859544
20
-1.1876143775857573
30
0
10
-34.794982688077823
20
-0.52754075508309395
30
0
10
-34.621171556049553
20
0.1413518676668423
30
0
10
-34.422262280857311
20
0.84326857745832584
30
0
10
-34.202196509092978
20
1.5931020668887652
30
0
10
-33.966463210401436
20
2.389511403790848
30
0
10
-33.721785999968681
20
3.2182577566034851
30
0
10
-33.47576254593568
20
4.0568592293449877
30
0
10
-33.236524022920065
20
4.8788314701177153
30
0
10
-33.012379113273795
20
5.6579800901292874
30
0
10
-32.811480884355461
20
6.3729548302003209
30
0
10
-32.641445864735658
20
7.0110267072301591
30
0
10
-32.509087988351027
20
7.573859776210373
30
0
10
-32.419703543544173
20
8.0751323436054392
30
0
10
-32.376099807552649
20
8.5323820029944937
30
0
10
-32.37759253266438
20
8.9603348558404559
30
0
10
-32.419250439452583
20
9.3640841746353853
30
0
10
-32.490448543927116
20
9.7311592212947033
30
0
10
-32.583518652694778
20
10.047519070141508
30
0
10
-32.700973642526947
20
10.311844284871572
30
0
10
-32.86718130811618
20
10.556364820219402
30
0
10
-33.117938457638083
20
10.834272316135486
30
0
10
-33.482428310429569
20
11.195060352244234
30
0
10
-33.964008925834236
20
11.659157010578303
30
0
10
-34.533849180603625
20
12.208534687472172
30
0
10
-35.145164544630461
20
12.803594886760161
30
0
10
-35.74243383478742
20
13.393624520394269
30
0
10
-36.272480864114826
20
13.929646244099352
30
0
10
-36.695149773019537
20
14.376736916148987
30
0
10
-36.993234661594052
20
14.725417511778637
30
0
10
-37.185147910633368
20
15.006473929615636
30
0
10
-37.308766462242552
20
15.27023943660938
30
0
10
-37.40368114786444
20
15.564352978200397
30
0
10
-37.490103729334919
20
15.90634179952486
30
0
10
-37.566953237992067
20
16.284167260578368
30
0
10
-37.622038325729669
20
16.673575574507641
30
0
10
-37.638875541072025
20
17.051979856070233
30
0
10
-37.603837635955813
20
17.408506795068604
30
0
10
-37.510001556511178
20
17.741025478714267
30
0
10
-37.362104823454892
20
18.056243968711239
30
0
10
-37.180384245970338
20
18.368330075836383
30
0
10
-36.994564396696077
20
18.691691311518174
30
0
10
-36.838155877769424
20
19.034790948694635
30
0
10
-36.743134208083227
20
19.391648532219101
30
0
10
-36.732123160954423
20
19.748334406890006
30
0
10
-36.811888080535326
20
20.091690038177035
30
0
10
-36.962629458445058
20
20.419682433917359
30
0
10
-37.144603890328909
20
20.741046849275996
30
0
10
-37.315725030969482
20
21.067271578261156
30
0
10
-37.448505451184758
20
21.405858034854187
30
0
10
-37.539413324600616
20
21.756114154045818
30
0
10
-37.595858869471442
20
22.113852903021261
30
0
10
-37.627611719198349
20
22.474273335871658
30
0
10
-37.636698746287905
20
22.835496334956549
30
0
10
-37.620587367867756
20
23.196638847211297
30
0
10
-37.574617369471454
20
23.556375634932731
30
0
10
-37.495002621503922
20
23.910813499136601
30
0
10
-37.379740960212445
20
24.254675357554181
30
0
10
-37.228772299797022
20
24.583137755341788
30
0
10
-37.044724450807529
20
24.894081941937504
30
0
10
-36.83217777096057
20
25.187879313024482
30
0
10
-36.595663530986556
20
25.4646162965572
30
0
10
-36.337702558729809
20
25.721604925650865
30
0
10
-36.057664581680115
20
25.951940220119987
30
0
10
-35.754718880777872
20
26.148789104322635
30
0
10
-35.430002465193255
20
26.308573102515183
30
0
10
-35.089441922860175
20
26.435069490967962
30
0
10
-34.740399605838547
20
26.534794968337021
30
0
10
-34.388671469958432
20
26.612844039605417
30
0
10
-34.033989119029549
20
26.66671828319917
30
0
10
-33.672698987026585
20
26.68982899117313
30
0
10
-33.302878141333224
20
26.678296534839546
30
0
10
-32.930544124071098
20
26.639202366338335
30
0
10
-32.569261067969364
20
26.590015094717337
30
0
10
-32.228979772565523
20
26.54368121949642
30
0
10
-31.906607332987697
20
26.495932329425365
30
0
10
-31.578101096658649
20
26.414907325785087
30
0
10
-31.214794298681419
20
26.266391091143419
30
0
10
-30.796409634576193
20
26.033893145947982
30
0
10
-30.327590576300366
20
25.744731060172448
30
0
10
-29.832323832673776
20
25.456241506627812
30
0
10
-29.344457458192537
20
25.234501434295701
30
0
10
-28.899789931037159
20
25.136718642163487
30
0
10
-28.526978371128408
20
25.18958364777091
30
0
10
-28.240570784756489
20
25.376940886249923
30
0
10
-28.041886924068802
20
25.660881469542851
30
0
10
-27.91824683757763
20
25.998684502606473
30
0
10
-27.84417089368781
20
26.359105423776722
30
0
10
-27.790715556068555
20
26.724990456514803
30
0
10
-27.733459154643004
20
27.097499041900797
30
0
10
-27.661866737444136
20
27.500639309870895
30
0
10
-27.576301539319488
20
27.97230707566527
30
0
10
-27.483695702546012
20
28.553387043338617
30
0
10
-27.393862688806301
20
29.278108802207203
30
0
10
-27.31514779503684
20
30.162586054899826
30
0
10
-27.251605709294878
20
31.198220673584238
30
0
10
-27.204212868188687
20
32.358437263598169
30
0
10
-27.17135554221359
20
33.603005342350855
30
0
10
-27.149605497760078
20
34.883326021338931
30
0
10
-27.134368900169271
20
36.147280599553703
30
0
10
-27.120599108961315
20
37.344328859947097
30
0
10
-27.103460186224638
20
38.430357530476556
30
0
10
-27.079062222869318
20
39.372967118843711
30
0
10
-27.045047526804655
20
40.155797185739658
30
0
10
-27.001532167007976
20
40.785170740416412
30
0
10
-26.95078031145496
20
41.288408612469624
30
0
10
-26.8955691186795
20
41.703272252212003
30
0
10
-26.837810171606513
20
42.069528121944856
30
0
10
-26.777263419806289
20
42.42014621776341
30
0
10
-26.709708123228889
20
42.771351443335568
30
0
10
-26.629806829164217
20
43.126432380820376
30
0
10
-26.534041228899419
20
43.481559063647481
30
0
10
-26.42496073040245
20
43.831383333432036
30
0
10
-26.309355318282094
20
44.172484603488854
30
0
10
-26.192746262977206
20
44.504327524023481
30
0
10
-26.073670887497357
20
44.831866845510476
30
0
10
-25.942005016193797
20
45.164723967968222
30
0
10
-25.788592464832043
20
45.50870370528984
30
0
10
-25.612670009294138
20
45.858809248862109
30
0
10
-25.430019521731644
20
46.191671322297445
30
0
10
-25.262805444925785
20
46.487308516005584
30
0
10
-25.130848643156668
20
46.747235906833012
30
0
10
-25.040322750914882
20
47.020448274354287
30
0
10
-24.985975717347308
20
47.386815373822785
30
0
10
-24.957290586065554
20
47.929002465498684
30
0
10
-24.944166572672163
20
48.703661317667304
30
0
10
-24.93978773334905
20
49.729515956659782
30
0
10
-24.939421653655721
20
50.997256318796531
30
0
10
-24.94032972034951
20
52.473570376666515
30
0
10
-24.941221855189145
20
54.107573568813493
30
0
10
-24.941906823341252
20
55.836207388623748
30
0
10
-24.94285741687403
20
57.590090639212946
30
0
10
-24.944814549014183
20
59.29915439644644
30
0
10
-24.948369366913408
20
60.898419591651411
30
0
10
-24.953566978695278
20
62.333598221139177
30
0
10
-24.959472641242684
20
63.567037760807182
30
0
10
-24.963819919321995
20
64.58289506200029
30
0
10
-24.962464752130842
20
65.394143814799762
30
0
10
-24.949432077148927
20
66.044005350787231
30
0
10
-24.918786236245325
20
66.590667317173356
30
0
10
-24.866085546369597
20
67.095402989384112
30
0
10
-24.79019163684125
20
67.608458425935652
30
0
10
-24.694488619350214
20
68.157940168400202
30
0
10
-24.589456080591656
20
68.732277120871842
30
0
10
-24.489576831442999
20
69.289206310470092
30
0
10
-24.406696151898903
20
69.781435722537381
30
0
10
-24.344358588572973
20
70.177535829392212
30
0
10
-24.291936962242925
20
70.484277370647177
30
0
10
-24.218355481776822
20
70.76968421799053
30
0
10
-24.086836177593703
20
71.125167087243312
30
0
10
-23.868545969906979
20
71.630071152027995
30
0
10
-23.559818016285522
20
72.307662251666585
30
0
10
-23.180227526540701
20
73.127462017524763
30
0
10
-22.762956961611145
20
74.026312035446466
30
0
10
-22.34754976212934
20
74.923585522012971
30
0
10
-21.971908332485789
20
75.738364202857738
30
0
10
-21.664063308556656
20
76.406865217114344
30
0
10
-21.435331269027699
20
76.897209887007691
30
0
10
-21.269727679050881
20
77.231559314106718
30
0
10
-21.126072740592416
20
77.483159215072135
30
0
10
-20.958489402947627
20
77.736910137270613
30
0
10
-20.733620790496236
20
78.056563937403027
30
0
10
-20.446233746744543
20
78.454754148043946
30
0
10
-20.10869331020297
20
78.912125026987155
30
0
10
-19.742909785540327
20
79.391772296862541
30
0
10
-19.37198958782475
20
79.854290552449271
30
0
10
-19.010397271051435
20
80.275518739299812
30
0
10
-18.661137144874175
20
80.651448531778328
30
0
10
-18.320180600374083
20
80.989874979302925
30
0
10
-17.978954975060368
20
81.305580043223742
30
0
10
-17.627535028090136
20
81.614268732733819
30
0
10
-17.257772091037474
20
81.926517168827189
30
0
10
-16.86359720281537
20
82.247950067758225
30
0
10
-16.440863874474644
20
82.580394010460338
30
0
10
-15.987374249592143
20
82.922656511733294
30
0
10
-15.50279182877726
20
83.271508457130182
30
0
10
-14.988720527950639
20
83.622436457115469
30
0
10
-14.449289256848195
20
83.969889270871079
30
0
10
-13.891566107060827
20
84.307618923538584
30
0
10
-13.326220382025262
20
84.628954174746681
30
0
10
-12.767662660364179
20
84.927173611971355
30
0
10
-12.235450460802575
20
85.195658949735261
30
0
10
-11.750444323582697
20
85.428939859953076
30
0
10
-11.327532849765962
20
85.624308756546839
30
0
10
-10.969236728172563
20
85.783306772300634
30
0
10
-10.659264464527151
20
85.913172859175461
30
0
10
-10.355282825182117
20
86.028539014415045
30
0
10
-10.006770647040641
20
86.146063957588666
30
0
10
-9.5717392827985339
20
86.279415917041447
30
0
10
-9.0378272787453611
20
86.432957691155679
30
0
10
-8.420197992031742
20
86.602287067117331
30
0
10
-7.7494001110488808
20
86.777742271083781
30
0
10
-7.0624235563208959
20
86.946962178742737
30
0
10
-6.3924904295365224
20
87.09782384764415
30
0
10
-5.7592344870296088
20
87.221256323704978
30
0
10
-5.1591504425952106
20
87.314000087981725
30
0
10
-4.5733685068688903
20
87.37720815440909
30
0
10
-3.9747524506070375
20
87.415194489696049
30
0
10
-3.3355081027880624
20
87.434099804888348
30
0
10
-2.633996092261794
20
87.44065324731389
30
0
10
-1.8632925163570448
20
87.440745281295293
30
0
10
-1.0341360544766316
20
87.438592371240404
30
0
10
-0.16832551068070806
20
87.436905118040173
30
0
10
0.70572493282522109
20
87.436827957424981
30
0
10
1.5582776728628494
20
87.437972610544449
30
0
10
2.3632475529528398
20
87.438406980553779
30
0
10
3.1032065056986093
20
87.434673574890951
30
0
10
3.7746310899710251
20
87.421770481430045
30
0
10
4.3923096190710424
20
87.393220684980975
30
0
10
4.981390474380694
20
87.342428977708565
30
0
10
5.5703849314191087
20
87.263915196603563
30
0
10
6.1834310681773799
20
87.15468395904773
30
0
10
6.8337313453385136
20
87.015331990211408
30
0
10
7.5143867957729942
20
86.851767389987273
30
0
10
8.1979251149559147
20
86.674863051322376
30
0
10
8.8484317441233067
20
86.497097394914391
30
0
10
9.4303344945445406
20
86.330010637481195
30
0
10
9.9191643163589003
20
86.18114948115965
30
0
10
10.310026052276655
20
86.051652204492726
30
0
10
10.630759533313141
20
85.932476645678008
30
0
10
10.929348598262095
20
85.80815585209524
30
0
10
11.255447233526262
20
85.662304436946215
30
0
10
11.64039235017597
20
85.483505972563677
30
0
10
12.090668783679606
20
85.267479558258714
30
0
10
12.597592684509786
20
85.014724968518735
30
0
10
13.142743591643933
20
84.729366543928705
30
0
10
13.70489238986347
20
84.417547186681773
30
0
10
14.266921381036415
20
84.085910242371838
30
0
10
14.816202903518651
20
83.741123567726149
30
0
10
15.343761971471871
20
83.38961683732748
30
0
10
15.843867840742838
20
83.037248995166451
30
0
10
16.313465292275296
20
82.688986972249623
30
0
10
16.751625465832692
20
82.348622772187014
30
0
10
17.159133218571235
20
82.018351900175929
30
0
10
17.538698918638676
20
81.697962699545087
30
0
10
17.895177991650208
20
81.383897129792842
30
0
10
18.235579027500812
20
81.068744304796496
30
0
10
18.569673472076651
20
80.739611535420551
30
0
10
18.908113103592534
20
80.381075941120471
30
0
10
19.258748594127994
20
79.981439463150906
30
0
10
19.62341832972054
20
79.538110497444137
30
0
10
19.994668375852072
20
79.063138938272402
30
0
10
20.352148860798831
20
78.589271063027525
30
0
10
20.670982992086312
20
78.155863783744735
30
0
10
20.931348363879945
20
77.792691865257439
30
0
10
21.126442214554579
20
77.506623246532286
30
0
10
21.273886105333961
20
77.262152393005692
30
0
10
21.416569884446467
20
76.98081407590729
30
0
10
21.601283741710425
20
76.580276684890507
30
0
10
21.861543395314115
20
76.005991405261824
30
0
10
22.199742137191048
20
75.263904092095316
30
0
10
22.596226491120696
20
74.401784577109041
30
0
10
23.016931585516481
20
73.493292899028503
30
0
10
23.421675170454034
20
72.620744996475182
30
0
10
23.771947231156645
20
71.858973087843282
30
0
10
24.03943559439924
20
71.257461064758743
30
0
10
24.213016953490836
20
70.826164290471056
30
0
10
24.309528778194377
20
70.512216420810958
30
0
10
24.363605287256473
20
70.226721502677975
30
0
10
24.412327809709346
20
69.883164613253129
30
0
10
24.478691595727305
20
69.440376008046456
30
0
10
24.566142505992929
20
68.912999747697498
30
0
10
24.667080839022599
20
68.341919262082968
30
0
10
24.767774417661592
20
67.774714410329508
30
0
10
24.854473535377842
20
67.243286129003508
30
0
10
24.919700851341091
20
66.739399833928246
30
0
10
24.961739481974853
20
66.223192110248092
30
0
10
24.982806226743143
20
65.637658185050455
30
0
10
24.987674747706777
20
64.921221176607162
30
0
10
24.982152560627551
20
64.020660028241309
30
0
10
24.971517074588675
20
62.904954528115312
30
0
10
24.959282640129018
20
61.575501214992926
30
0
10
24.947692755595451
20
60.058614688682248
30
0
10
24.93797295748104
20
58.400459979389751
30
0
10
24.930676953033014
20
56.661038782020128
30
0
10
24.92599326368169
20
54.90857783370604
30
0
10
24.924068271776964
20
53.213746924805577
30
0
10
24.925323545048911
20
51.643944474270739
30
0
10
24.93077251187141
20
50.257567522428481
30
0
10
24.942344654669025
20
49.098256956701206
30
0
10
24.963189672311703
20
48.189226228624946
30
0
10
24.998029322842687
20
47.527384367218545
30
0
10
25.053397523999514
20
47.077944706880885
30
0
10
25.138153112048887
20
46.7678192466377
30
0
10
25.258610414579742
20
46.512631130099024
30
0
10
25.414525520280563
20
46.241189419749233
30
0
10
25.59272318092755
20
45.927756096265348
30
0
10
25.772668067159785
20
45.583326729685361
30
0
10
25.935503026547909
20
45.232713106276321
30
0
10
26.074231397830022
20
44.892511300525214
30
0
10
26.195586976154978
20
44.561618375604411
30
0
10
26.310109209462979
20
44.232135547037274
30
0
10
26.424535705428571
20
43.895505257060208
30
0
10
26.535052937045226
20
43.549363343791789
30
0
10
26.634250201541469
20
43.195263454773276
30
0
10
26.715970355635168
20
42.837498429115868
30
0
10
26.781823354198281
20
42.482016508081408
30
0
10
26.837993680454989
20
42.130717709035494
30
0
10
26.891328569742889
20
41.776143460421309
30
0
10
26.944810736663456
20
41.393733106683442
30
0
10
26.997068359031307
20
40.945204993755731
30
0
10
27.044763561389939
20
40.389475353489217
30
0
10
27.084123991133357
20
39.691379659573641
30
0
10
27.112807565432547
20
38.831183491124463
30
0
10
27.131681568965362
20
37.81407565411233
30
0
10
27.1440710667543
20
36.665258955495091
30
0
10
27.154906814209518
20
35.424559957558074
30
0
10
27.169909742317241
20
34.141213690975661
30
0
10
27.194764711734962
20
32.86858873144795
30
0
10
27.234287716107119
20
31.658904356361361
30
0
10
27.291621830949264
20
30.558029163511009
30
0
10
27.367360532633846
20
29.600063257496984
30
0
10
27.458842554932751
20
28.802435839638754
30
0
10
27.559038170034903
20
28.159771675859737
30
0
10
27.656595612794419
20
27.641289885094771
30
0
10
27.74089310004728
20
27.204514021376113
30
0
10
27.806909372467338
20
26.807534383539817
30
0
10
27.859179929126753
20
26.420390875818246
30
0
10
27.918542266462133
20
26.04035169319587
30
0
10
28.017648912409967
20
25.690562211002529
30
0
10
28.188408417721284
20
25.405570474930805
30
0
10
28.450357984171784
20
25.220255989601107
30
0
10
28.802845969837808
20
25.158590490026228
30
0
10
29.231032050485865
20
25.228526632195695
30
0
10
29.708994311584629
20
25.413929970192374
30
0
10
30.204603733489851
20
25.672262027437117
30
0
10
30.685854908040721
20
25.950014194797252
30
0
10
31.127660877223139
20
26.196322656115019
30
0
10
31.517262864178935
20
26.37533153460517
30
0
10
31.863167224672324
20
26.483911028587976
30
0
10
32.189415458591888
20
26.545366436626182
30
0
10
32.521784498140271
20
26.589317314189088
30
0
10
32.874104574575405
20
26.632655946277758
30
0
10
33.241735915730771
20
26.669699656990776
30
0
10
33.613094713340409
20
26.686666346390936
30
0
10
33.977520104017167
20
26.671161056746293
30
0
10
34.334116470008496
20
26.623064139779196
30
0
10
34.685879386682629
20
26.547497947144461
30
0
10
35.035292315199563
20
26.449587104739528
30
0
10
35.37809043399627
20
26.327055665871608
30
0
10
35.706121414294067
20
26.173439957754784
30
0
10
36.011799586173822
20
25.983217785939875
30
0
10
36.293493699427458
20
25.757882729017751
30
0
10
36.555045601414008
20
25.505683927343274
30
0
10
36.799739756912686
20
25.235249393104276
30
0
10
37.02481666606942
20
24.949965031857246
30
0
10
37.218654160823846
20
24.644775711539957
30
0
10
37.370379332901656
20
24.314734948878712
30
0
10
37.476946908635909
20
23.961185387399567
30
0
10
37.552228119809541
20
23.599748143374498
30
0
10
37.61293446934252
20
23.247894445026471
30
0
10
37.666497257630226
20
22.914130649064738
30
0
10
37.692684695557105
20
22.581956825701496
30
0
10
37.65630060986696
20
22.219874928366472
30
0
10
37.530397647708511
20
21.800416019427367
30
0
10
37.32154356773087
20
21.320458415768229
30
0
10
37.075730909121866
20
20.80674233938716
30
0
10
36.854004817065317
20
20.29799192123847
30
0
10
36.71476584728692
20
19.832192955141611
30
0
10
36.695123978846588
20
19.433159288366976
30
0
10
36.788149252121997
20
19.093872552139153
30
0
10
36.95603691729859
20
18.787572674164771
30
0
10
37.150201936034748
20
18.483686395326522
30
0
10
37.332490005257242
20
18.165787310702385
30
0
10
37.48127182518256
20
17.833406961897079
30
0
10
37.585051152940402
20
17.491646123146687
30
0
10
37.639352085082372
20
17.142818427210983
30
0
10
37.643566508152475
20
16.782068651648625
30
0
10
37.602186588984459
20
16.407123892816131
30
0
10
37.524994153279906
20
16.025186436737716
30
0
10
37.427695924917394
20
15.660748836129073
30
0
10
37.321366942960594
20
15.33720213703679
30
0
10
37.204086603540304
20
15.061937270532411
30
0
10
37.047798621749614
20
14.804516371665413
30
0
10
36.811813629686732
20
14.512987870697273
30
0
10
36.462034593671007
20
14.138796945942174
30
0
10
35.992480523468338
20
13.664017153681044
30
0
10
35.430130489558557
20
13.108234037598036
30
0
10
34.820669908634613
20
12.51179637324762
30
0
10
34.219381839800995
20
11.92544529841628
30
0
10
33.680009909574302
20
11.397435330474543
30
0
10
33.244316102302093
20
10.961497574825536
30
0
10
32.931748265768718
20
10.624985633114534
30
0
10
32.7279854454613
20
10.355517933420495
30
0
10
32.600852405866007
20
10.102421424718198
30
0
10
32.515790666153784
20
9.8171764392291863
30
0
10
32.454886755760796
20
9.4794506025730829
30
0
10
32.416450215277251
20
9.0933663882300024
30
0
10
32.406481883858611
20
8.6719139814521373
30
0
10
32.431809985372368
20
8.2228217287088583
30
0
10
32.495769207534039
20
7.7419237088396269
30
0
10
32.599434038955849
20
7.2198486961006525
30
0
10
32.741389063711537
20
6.6454100984191458
30
0
10
32.918110630806183
20
6.0100900208280805
30
0
10
33.124051479514954
20
5.312699971616837
30
0
10
33.352131686495767
20
4.5588462038998259
30
0
10
33.594249318802632
20
3.7590340624303171
30
0
10
33.84179098172573
20
2.9272392050571794
30
0
10
34.086136617043209
20
2.0793025117178217
30
0
10
34.319179641303435
20
1.2313543850315507
30
0
10
34.533810431707082
20
0.39833474410021197
30
0
10
34.724489924077744
20
-0.40779611764606932
30
0
10
34.887489555489395
20
-1.1786508745975399
30
0
10
35.020800096044809
20
-1.9088136883395328
30
0
10
35.124130916170905
20
-2.5955633772446851
30
0
10
35.198871255412563
20
-3.2384647048586954
30
0
10
35.248070201778702
20
-3.8390142830191905
30
0
10
35.276402835646643
20
-4.4002675764832704
30
0
10
35.290160059109617
20
-4.9264587787483354
30
0
10
35.295965561257788
20
-5.4239921442153598
30
0
10
35.29939252289364
20
-5.9025720840710152
30
0
10
35.303745715922851
20
-6.3760892206634656
30
0
10
35.308470189444876
20
-6.8640650870142466
30
0
10
35.308743427278337
20
-7.3913197337909597
30
0
10
35.297377282507682
20
-7.9841487739606496
30
0
10
35.26619648157223
20
-8.667314734648869
30
0
10
35.20768010065283
20
-9.4605823582058726
30
0
10
35.116367105371673
20
-10.375749466118691
30
0
10
34.990678126693183
20
-11.412698631224249
30
0
10
34.832820613647165
20
-12.560098750635202
30
0
10
34.647877204366722
20
-13.798100636915194
30
0
10
34.443154878262348
20
-15.100395312847333
30
0
10
34.227425975447289
20
-16.436536452036243
30
0
10
34.010214841213447
20
-17.774151675722294
30
0
10
33.801066669116125
20
-19.08119646384182
30
0
10
33.60881976658721
20
-20.32820179169477
30
0
10
33.440886201000673
20
-21.490496433850925
30
0
10
33.302505895353406
20
-22.550505461801965
30
0
10
33.196066180955739
20
-23.499862223223079
30
0
10
33.12024934402163
20
-24.342009754095852
30
0
10
33.070861462173994
20
-25.090026183091062
30
0
10
33.041908875615704
20
-25.763751975823304
30
0
10
33.026573708648307
20
-26.387192342749017
30
0
10
33.018262334195548
20
-26.985739205908832
30
0
10
33.011551798795836
20
-27.58362077182386
30
0
10
33.003351526313033
20
-28.200889426733294
30
0
10
32.993399970450731
20
-28.851823569145548
30
0
10
32.983404476631662
20
-29.546212199615326
30
0
10
32.976463223157495
20
-30.29003679046529
30
0
10
32.976381227285628
20
-31.086387143056982
30
0
10
32.98701614747597
20
-31.936292764770009
30
0
10
33.011647599049226
20
-32.839554136875655
30
0
10
33.052241371847515
20
-33.795669255299494
30
0
10
33.109512007901706
20
-34.803963941922049
30
0
10
33.183172594984477
20
-35.863532601601598
30
0
10
33.272120192845712
20
-36.973244185591099
30
0
10
33.374648535812128
20
-38.131720765962164
30
0
10
33.488648386948469
20
-39.337327901083782
30
0
10
33.611814661520242
20
-40.588159852000857
30
0
10
33.741847246882877
20
-41.882027178329935
30
0
10
33.876662405971928
20
-43.216442923408877
30
0
10
34.014581233035386
20
-44.588610300401271
30
0
10
34.154573362556327
20
-45.995407518240143
30
0
10
34.296301178979469
20
-47.433382399176992
30
0
10
34.439949781682763
20
-48.898757404772908
30
0
10
34.586113845332825
20
-50.387431900006547
30
0
10
34.73566128345206
20
-51.894985541059228
30
0
10
34.889606842541696
20
-53.4166811774558
30
0
10
35.04898143513114
20
-54.947467963669467
30
0
10
35.21470328327257
20
-56.481984369477999
30
0
10
35.387448339144491
20
-58.014561249749612
30
0
10
35.567520881827861
20
-59.539224842101682
30
0
10
35.754724344359815
20
-61.049699894044174
30
0
10
35.948231318827709
20
-62.53941249616399
30
0
10
36.146455581881462
20
-64.001493586851723
30
0
10
36.346919278204766
20
-65.428780865113296
30
0
10
36.546133290505665
20
-66.813825048702142
30
0
10
36.739942444619537
20
-68.149053810702213
30
0
10
36.923858953176293
20
-69.426931078012586
30
0
10
37.093399417404605
20
-70.64011906052626
30
0
10
37.244422214556103
20
-71.781636870376829
30
0
10
37.37346033335659
20
-72.845025827374542
30
0
10
37.478066363545317
20
-73.824499777163823
30
0
10
37.557128595464974
20
-74.715130003359306
30
0
10
37.61125459125472
20
-75.512949838680555
30
0
10
37.642996580050145
20
-76.215247423507535
30
0
10
37.657476358342031
20
-76.820382709087653
30
0
10
37.660888367908633
20
-77.330155869452298
30
0
10
37.65812982979628
20
-77.753277579597594
30
0
10
37.650790269328084
20
-78.108300729417536
30
0
10
37.634818081692856
20
-78.427189723110644
30
0
10
37.598840605317164
20
-78.75737353714095
30
0
10
37.530914480069875
20
-79.142480746042509
30
0
10
37.424115461510496
20
-79.606327508121325
30
0
10
37.283867662362802
20
-80.131686462530766
30
0
10
37.124067075142086
20
-80.673445521103261
30
0
10
36.960616873503518
20
-81.179831795729015
30
0
10
36.806136575452143
20
-81.609826184545611
30
0
10
36.663514316195901
20
-81.954591476929124
30
0
10
36.521959049746819
20
-82.249880221286844
30
0
10
36.364186819789047
20
-82.547432608136972
30
0
10
36.171963005408443
20
-82.892751644463175
30
0
10
35.932646710041027
20
-83.298304419418884
30
0
10
35.640036255457744
20
-83.751240728338146
30
0
10
35.294971060700504
20
-84.224070146112609
30
0
10
34.905714820094772
20
-84.683879889032298
30
0
10
34.489127594426741
20
-85.103160360658819
30
0
10
34.069299657239348
20
-85.46674157253905
30
0
10
33.670119648324224
20
-85.769080091873803
30
0
10
33.308427646504761
20
-86.013486381795289
30
0
10
32.988133912683281
20
-86.210307016127899
30
0
10
32.690946258417831
20
-86.376236580426536
30
0
10
32.383653979185716
20
-86.529840718143674
30
0
10
32.032220314710806
20
-86.686104497800443
30
0
10
31.615960909877899
20
-86.84999375888269
30
0
10
31.134232146024839
20
-87.014707050085022
30
0
10
30.599155346589804
20
-87.167671790276017
30
0
10
30.031618229099728
20
-87.294891458894369
30
0
10
29.456096150073012
20
-87.38558086271351
30
0
10
28.895606901266582
20
-87.437645885883001
30
0
10
28.369145726941234
20
-87.455998753282245
30
0
10
27.889907119769415
20
-87.448690026306764
30
0
10
27.463393691586063
20
-87.423893525635435
30
0
10
27.085201295137132
20
-87.386276161876637
30
0
10
26.740052027179363
20
-87.334388041042502
30
0
10
26.409471391792941
20
-87.263399628791646
30
0
10
26.078117032949649
20
-87.167303827123419
30
0
10
25.741484620927984
20
-87.041219975109783
30
0
10
25.403120655186221
20
-86.883970433953138
30
0
10
25.070352577526887
20
-86.700097438813941
30
0
10
24.750825415485377
20
-86.503377045888982
30
0
10
24.447784001770994
20
-86.314078289864753
30
0
10
24.156077725197139
20
-86.152554001493399
30
0
10
23.855747438286613
20
-86.033145344482051
30
0
10
23.513395514625625
20
-85.960394588620716
30
0
10
23.100255372215898
20
-85.931674907815903
30
0
10
22.607460456590726
20
-85.938445262627624
30
0
10
22.060897631361097
20
-85.968097473469825
30
0
10
21.504648376622431
20
-86.00605567468952
30
0
10
20.98511310420994
20
-86.03806623258285
30
0
10
20.536796796530759
20
-86.052185996640119
30
0
10
20.162778712262366
20
-86.041435086059522
30
0
10
19.834085105376101
20
-86.00422396696068
30
0
10
19.513603990159375
20
-85.941864023383772
30
0
10
19.175498855837287
20
-85.856698037457932
30
0
10
18.822088992294297
20
-85.750253535219315
30
0
10
18.468233730880005
20
-85.623319857557675
30
0
10
18.130488030263692
20
-85.475834694040458
30
0
10
17.812807765032986
20
-85.306688381668693
30
0
10
17.511309361680933
20
-85.114921282462475
30
0
10
17.220320718803276
20
-84.900761747593037
30
0
10
16.939586570735504
20
-84.667446055198198
30
0
10
16.674057204393467
20
-84.419659388069419
30
0
10
16.429081525340404
20
-84.160436323761388
30
0
10
16.206109008028566
20
-83.887398469029392
30
0
10
16.000943049619746
20
-83.592776834848394
30
0
10
15.808989273057945
20
-83.272023028218683
30
0
10
15.629105235234992
20
-82.930839196160491
30
0
10
15.467711227510497
20
-82.592203889597016
30
0
10
15.331783444190901
20
-82.277480707500445
30
0
10
15.223230452971187
20
-81.991079302457962
30
0
10
15.130952477163159
20
-81.698626526447725
30
0
10
15.035756644428531
20
-81.341971286431345
30
0
10
14.918051792405624
20
-80.86213556835169
30
0
10
14.765987239105362
20
-80.223669183815133
30
0
10
14.578216874950074
20
-79.423065498224247
30
0
10
14.360465002779835
20
-78.47885456495186
30
0
10
14.123792073099912
20
-77.426719825446426
30
0
10
13.882169789526289
20
-76.312571777441164
30
0
10
13.650339440132111
20
-75.186464652721057
30
0
10
13.44157770381203
20
-74.096225210679748
30
0
10
13.265434032310351
20
-73.081031405074981
30
0
10
13.12564106396913
20
-72.165422723424157
30
0
10
13.017523477116516
20
-71.352035613584334
30
0
10
12.930152968761828
20
-70.626434601762398
30
0
10
12.849259480281818
20
-69.963866886915412
30
0
10
12.759829582388424
20
-69.335229965706716
30
0
10
12.648941552198089
20
-68.713617851037284
30
0
10
12.508254916296595
20
-68.080044285589224
30
0
10
12.33723954546395
20
-67.430912011074085
30
0
10
12.14412000579123
20
-66.780095938249971
30
0
10
11.941904897576647
20
-66.149417045972911
30
0
10
11.745500016724913
20
-65.561705336816473
30
0
10
11.568246780736644
20
-65.032431827129713
30
0
10
11.419034861585537
20
-64.562870970447605
30
0
10
11.298333960179054
20
-64.130272785188055
30
0
10
11.199071074933508
20
-63.691574073210674
30
0
10
11.109818069825801
20
-63.193583776673172
30
0
10
11.017234584307738
20
-62.581070809807073
30
0
10
10.908858882225543
20
-61.805854216806878
30
0
10
10.775641078997051
20
-60.835095958503643
30
0
10
10.611560781541225
20
-59.64967485680134
30
0
10
10.413335817387816
20
-58.242883535130275
30
0
10
10.180098079696027
20
-56.619007800560297
30
0
10
9.9130832822948136
20
-54.791955828737741
30
0
10
9.615314759915421
20
-52.783866041444021
30
0
10
9.2912898450047816
20
-50.623724234193347
30
0
10
8.9466651608909959
20
-48.345976800033831
30
0
10
8.5879423680316194
20
-45.989145665855446
30
0
10
8.2221537829576654
20
-43.594442589397751
30
0
10
7.8565479211482234
20
-41.204383631787003
30
0
10
7.4982753932988615
20
-38.861403870623199
30
0
10
7.1540739115410332
20
-36.606471316261782
30
0
10
6.8299553895810394
20
-34.477702778675805
30
0
10
6.5308881542858153
20
-32.508975114103563
30
0
10
6.2604905218998077
20
-30.728547172170089
30
0
10
6.0206974102529918
20
-29.157656284537627
30
0
10
5.8115021384367189
20
-27.80918526219493
30
0
10
5.6314937345113147
20
-26.687052126994899
30
0
10
5.4783332627302865
20
-25.785553934159427
30
0
10
5.3492552789511096
20
-25.088710572208946
30
0
10
5.241554227543114
20
-24.569647990475517
30
0
10
5.1530874506535538
20
-24.189872819902256
30
0
10
5.08274744375362
20
-23.898806902848793
30
0
10
5.0310037348158829
20
-23.632698482352524
30
0
10
5.0002478526855656
20
-23.315361630978607
30
0
10
4.9928752679661423
20
-22.882792920619277
30
0
10
5.0096577130586892
20
-22.303670459678074
30
0
10
5.0477454552411469
20
-21.606541424016537
30
0
10
5.1010022768016725
20
-20.86162902914101
30
0
10
5.1608103432050454
20
-20.153789144274619
30
0
10
5.216702297174213
20
-19.557914675663575
30
0
10
5.25709176251085
20
-19.114650807029268
30
0
10
5.2698996830435885
20
-18.802790665333134
30
0
10
5.2434153231004546
20
-18.522662222807504
30
0
10
5.1685722178763509
20
-18.14444642167167
30
0
10
5.0409310309718407
20
-17.546945442545706
30
0
10
4.8630650786712737
20
-16.663917028410399
30
0
10
4.6432042243964142
20
-15.479453910839712
30
0
10
4.3934379479559977
20
-14.017878159126409
30
0
10
4.1280757369722751
20
-12.335545777617982
30
0
10
3.8619378627640861
20
-10.511843298339016
30
0
10
3.6086838924886049
20
-8.6405441752124741
30
0
10
3.3791067996617978
20
-6.8209814359475418
30
0
10
3.1794840173465881
20
-5.1493669171937198
30
0
10
3.009806036322388
20
-3.7098908616065933
30
0
10
2.8622850621041889
20
-2.5662795399080784
30
0
10
2.7192144661524855
20
-1.7523104021085003
30
0
10
2.5523456589566731
20
-1.2647563795215924
30
0
10
2.3184942272918048
20
-1.0502699306937344
30
0
10
1.9724240775951187
20
-1.0209185532658973
30
0
10
1.4849550740211515
20
-1.0807878960225428
30
0
10
0.86428365288353526
20
-1.1528701493785412
30
0
10
0.15775777058772464
20
-1.1916767222373199
30
0
10
-0.56808514920660569
20
-1.1788234784985006
30
0
10
-1.2412967298803359
20
-1.1231302485989541
30
0
10
-1.8014102907132732
20
-1.0592645093351258
30
0
10
-2.2136375050306367
20
-1.0460925608815916
30
0
10
-2.4877844410528822
20
-1.1675276034155293
30
0
10
-2.6635564344543612
20
-1.5124876195641295
30
0
10
-2.7913685932921299
20
-2.1532232916408991
30
0
10
-2.9116504269952284
20
-3.1196601228954597
30
0
10
-3.0499022208387294
20
-4.3979143007138859
30
0
10
-3.2205458478529621
20
-5.941583214554842
30
0
10
-3.4279793145408801
20
-7.6790064405173979
30
0
10
-3.6687950205850228
20
-9.5222081897991107
30
0
10
-3.9334970559349065
20
-11.375100717574453
30
0
10
-4.2084377250836109
20
-13.142046337860545
30
0
10
-4.477651128126233
20
-14.736170708305053
30
0
10
-4.7247507989272428
20
-16.088002299837893
30
0
10
-4.9347538588881417
20
-17.153462842035065
30
0
10
-5.096043466696905
20
-17.923319576457452
30
0
10
-5.2020226555486779
20
-18.429247708353326
30
0
10
-5.2535122351470562
20
-18.758117198377452
30
0
10
-5.2585681173766865
20
-19.03793754555392
30
0
10
-5.2291901242939804
20
-19.391238559541698
30
0
10
-5.1786808973782748
20
-19.892992130703288
30
0
10
-5.119127254536382
20
-20.537065363504308
30
0
10
-5.0613447088885453
20
-21.268018540712358
30
0
10
-5.0144831477288143
20
-22.003575774079177
30
0
10
-4.985735967313726
20
-22.661994043024901
30
0
10
-4.9800747788151076
20
-23.184467767300092
30
0
10
-4.9998010375016486
20
-23.566769492824584
30
0
10
-5.0448595683020621
20
-23.858620012055919
30
0
10
-5.1138436190514458
20
-24.134158171768586
30
0
10
-5.2048794836378631
20
-24.46829550124734
30
0
10
-5.3163560806946011
20
-24.916586857839462
30
0
10
-5.4468058929616188
20
-25.520117980498714
30
0
10
-5.5949335471466997
20
-26.305931369081947
30
0
10
-5.759585900854935
20
-27.289230124127034
30
0
10
-5.9397469668205272
20
-28.474816657007167
30
0
10
-6.1345224635046858
20
-29.858873795913127
30
0
10
-6.3431281104459822
20
-31.430567340198724
30
0
10
-6.5648780493611607
20
-33.173800056666721
30
0
10
-6.7991677977097167
20
-35.068667785218388
30
0
10
-7.0454355195847418
20
-37.092010986273038
30
0
10
-7.3031269669737409
20
-39.218112287183409
30
0
10
-7.571658972748371
20
-41.41933681054978
30
0
10
-7.8503835615399078
20
-43.666796874340285
30
0
10
-8.1385517939334786
20
-45.931006196095723
30
0
10
-8.4352777254749221
20
-48.18253860564414
30
0
10
-8.7395023130712595
20
-50.392684821744808
30
0
10
-9.0499573470981556
20
-52.534110052219816
30
0
10
-9.3651293598997913
20
-54.581511285567139
30
0
10
-9.6832235670025018
20
-56.512274651625482
30
0
10
-10.002127734170836
20
-58.307132964483579
30
0
10
-10.319376207077148
20
-59.950822779096015
30
0
10
-10.632113557474609
20
-61.432742709602202
30
0
10
-10.93705911161069
20
-62.747608885762787
30
0
10
-11.230469417284635
20
-63.896117183134287
30
0
10
-11.508105578016137
20
-64.885589599374811
30
0
10
-11.765187199931727
20
-65.730663129917048
30
0
10
-11.99708057909989
20
-66.452000544669389
30
0
10
-12.200015468570196
20
-67.074960848224308
30
0
10
-12.371767846371789
20
-67.628276972253104
30
0
10
-12.512410133010828
20
-68.142747693450005
30
0
10
-12.624908960460392
20
-68.649883308325755
30
0
10
-12.716091568207871
20
-69.180669701398131
30
0
10
-12.796330772723728
20
-69.763917602243964
30
0
10
-12.87761911886783
20
-70.424097410228896
30
0
10
-12.972044011663073
20
-71.179291254786619
30
0
10
-13.090114026130184
20
-72.039125162241703
30
0
10
-13.23911685097629
20
-73.002645849369941
30
0
10
-13.421539142145001
20
-74.056371697041286
30
0
10
-13.633256029996613
20
-75.171862960056075
30
0
10
-13.865180440275878
20
-76.310202741050318
30
0
10
-14.105222559806332
20
-77.427097200518588
30
0
10
-14.340126694718233
20
-78.477722456238496
30
0
10
-14.557384332928777
20
-79.421747020566414
30
0
10
-14.747057875119527
20
-80.228120059053879
30
0
10
-14.903774260080789
20
-80.880329280074619
30
0
10
-15.028339089167385
20
-81.380597057150226
30
0
10
-15.130253227140368
20
-81.756607398933994
30
0
10
-15.22747355961795
20
-82.0605029819734
30
0
10
-15.338597424219458
20
-82.346657914741826
30
0
10
-15.476494434443403
20
-82.653477385302295
30
0
10
-15.641254534383073
20
-82.983351288772923
30
0
10
-15.82648107395263
20
-83.319032934775436
30
0
10
-16.024825556561822
20
-83.638272107279647
30
0
10
-16.235241346481772
20
-83.932317129906622
30
0
10
-16.461402548694437
20
-84.204368475365584
30
0
10
-16.707470866713908
20
-84.461457325829571
30
0
10
-16.97367506159312
20
-84.707103680875719
30
0
10
-17.255661715889243
20
-84.938486239543664
30
0
10
-17.548943807341452
20
-85.150752071301724
30
0
10
-17.852507643291865
20
-85.339673209361578
30
0
10
-18.171389108636287
20
-85.504336300503041
30
0
10
-18.509696127461531
20
-85.645638450413713
30
0
10
-18.865644793287618
20
-85.765408001484431
30
0
10
-19.224149465768974
20
-85.865290288157809
30
0
10
-19.568724272855412
20
-85.946060629519891
30
0
10
-19.892758822044996
20
-86.00723234159463
30
0
10
-20.216273089946732
20
-86.045942890191299
30
0
10
-20.576907755724445
20
-86.058869199864318
30
0
10
-21.00767554766351
20
-86.045513106758023
30
0
10
-21.514632633318115
20
-86.011813354419999
30
0
10
-22.06763900665084
20
-85.971263152943166
30
0
10
-22.620868087583894
20
-85.940652626096607
30
0
10
-23.127613206025849
20
-85.936894215411698
30
0
10
-23.555586756100368
20
-85.973600994441369
30
0
10
-23.906540369282819
20
-86.057291780494083
30
0
10
-24.207795008788541
20
-86.186769192599101
30
0
10
-24.494464211707268
20
-86.354097340842983
30
0
10
-24.791861368159264
20
-86.544430025456776
30
0
10
-25.108093073059806
20
-86.738498068484205
30
0
10
-25.441488241807747
20
-86.917734330980466
30
0
10
-25.784175318851837
20
-87.069179873649318
30
0
10
-26.127114921733067
20
-87.189249949267776
30
0
10
-26.464297042852284
20
-87.280143832944731
30
0
10
-26.796871161045708
20
-87.347253283118704
30
0
10
-27.138173838622151
20
-87.396144027721306
30
0
10
-27.507159057297351
20
-87.430828266344633
30
0
10
-27.921284999514519
20
-87.452422583561372
30
0
10
-28.388194514320347
20
-87.456981333693989
30
0
10
-28.904384666831543
20
-87.436876549009355
30
0
10
-29.347440391065103
20
-87.394800447029951
30
0
10
-29.68851287343151
20
-87.346287170895366
30
0
10
-29.916812388440924
20
-87.306484426423211
30
0
10
-30.030799999999999
20
-87.284800000000018
30
0
0
ENDSEC
0
SECTION
2
OBJECTS
0
DICTIONARY
5
C
100
AcDbDictionary
3
ACAD_GROUP
350
D
3
ACAD_MLINESTYLE
350
17
0
DICTIONARY
5
D
100
AcDbDictionary
0
DICTIONARY
5
1A
330
C
100
AcDbDictionary
0
DICTIONARY
5
17
100
AcDbDictionary
0
ENDSEC
0
EOF
