0
SECTION
2
HEADER
9
$INSUNITS
70
4
9
$ACADVER
1
AC1014
9
$HANDSEED
5
FFFF
0
ENDSEC
0
SECTION
2
TABLES
0
TABLE
2
VPORT
5
8
100
AcDbSymbolTable
0
ENDTAB
0
TABLE
2
LTYPE
5
5
100
AcDbSymbolTable
0
LTYPE
5
14
100
AcDbSymbolTableRecord
100
AcDbLinetypeTableRecord
2
BYBLOCK
70
0
0
LTYPE
5
15
100
AcDbSymbolTableRecord
100
AcDbLinetypeTableRecord
2
BYLAYER
70
0
0
LTYPE
5
16
100
AcDbSymbolTableRecord
100
AcDbLinetypeTableRecord
2
DASHED
70
0
3
Dashed __ __ __ __ __ __ __ __ __ __ __ __ __ _
72
65
73
2
40
0.75
49
0.5
74
0
49
-0.25
74
0
0
ENDTAB
0
TABLE
2
LAYER
5
2
100
AcDbSymbolTable
70
2
0
LAYER
5
50
100
AcDbSymbolTableRecord
100
AcDbLayerTableRecord
2
0
70
0
62
7
6
CONTINUOUS
0
ENDTAB
0
TABLE
2
STYLE
5
3
100
AcDbSymbolTable
70
1
0
STYLE
5
11
100
AcDbSymbolTableRecord
100
AcDbTextStyleTableRecord
2
STANDARD
70
0
0
ENDTAB
0
TABLE
2
VIEW
5
6
100
AcDbSymbolTable
70
0
0
ENDTAB
0
TABLE
2
UCS
5
7
100
AcDbSymbolTable
70
0
0
ENDTAB
0
TABLE
2
APPID
5
9
100
AcDbSymbolTable
70
2
0
APPID
5
12
100
AcDbSymbolTableRecord
100
AcDbRegAppTableRecord
2
ACAD
70
0
0
ENDTAB
0
TABLE
2
DIMSTYLE
5
A
100
AcDbSymbolTable
70
1
0
ENDTAB
0
TABLE
2
BLOCK_RECORD
5
1
100
AcDbSymbolTable
70
1
0
BLOCK_RECORD
5
1F
100
AcDbSymbolTableRecord
100
AcDbBlockTableRecord
2
*MODEL_SPACE
0
BLOCK_RECORD
5
1B
100
AcDbSymbolTableRecord
100
AcDbBlockTableRecord
2
*PAPER_SPACE
0
ENDTAB
0
ENDSEC
0
SECTION
2
BLOCKS
0
BLOCK
5
20
100
AcDbEntity
100
AcDbBlockBegin
2
*MODEL_SPACE
0
ENDBLK
5
21
100
AcDbEntity
100
AcDbBlockEnd
0
BLOCK
5
1C
100
AcDbEntity
100
AcDbBlockBegin
2
*PAPER_SPACE
0
ENDBLK
5
1D
100
AcDbEntity
100
AcDbBlockEnd
0
ENDSEC
0
SECTION
2
ENTITIES
0
SPLINE
5
100
100
AcDbEntity
8
0
100
AcDbSpline
70
6
71
5
72
571
73
565
74
0
42
0.000000001
43
0.0000000001
44
0.0000000001
40
0
40
0
40
0
40
0
40
0
40
0
40
0.0017857142857142857
40
0.0035714285714285713
40
0.0053571428571428572
40
0.0071428571428571426
40
0.0089285714285714281
40
0.010714285714285714
40
0.012500000000000001
40
0.014285714285714287
40
0.016071428571428573
40
0.01785714285714286
40
0.019642857142857146
40
0.021428571428571432
40
0.023214285714285719
40
0.025000000000000005
40
0.026785714285714291
40
0.028571428571428577
40
0.030357142857142864
40
0.032142857142857147
40
0.033928571428571433
40
0.035714285714285719
40
0.037500000000000006
40
0.039285714285714292
40
0.041071428571428578
40
0.042857142857142864
40
0.044642857142857151
40
0.046428571428571437
40
0.048214285714285723
40
0.05000000000000001
40
0.051785714285714296
40
0.053571428571428582
40
0.055357142857142869
40
0.057142857142857155
40
0.058928571428571441
40
0.060714285714285728
40
0.062500000000000014
40
0.064285714285714293
40
0.066071428571428573
40
0.067857142857142852
40
0.069642857142857131
40
0.071428571428571411
40
0.07321428571428569
40
0.074999999999999969
40
0.076785714285714249
40
0.078571428571428528
40
0.080357142857142808
40
0.082142857142857087
40
0.083928571428571366
40
0.085714285714285646
40
0.087499999999999925
40
0.089285714285714204
40
0.091071428571428484
40
0.092857142857142763
40
0.094642857142857043
40
0.096428571428571322
40
0.098214285714285601
40
0.099999999999999881
40
0.10178571428571416
40
0.10357142857142844
40
0.10535714285714272
40
0.107142857142857
40
0.10892857142857128
40
0.11071428571428556
40
0.11249999999999984
40
0.11428571428571412
40
0.11607142857142839
40
0.11785714285714267
40
0.11964285714285695
40
0.12142857142857123
40
0.12321428571428551
40
0.12499999999999979
40
0.12678571428571409
40
0.12857142857142836
40
0.13035714285714264
40
0.13214285714285692
40
0.1339285714285712
40
0.13571428571428548
40
0.13749999999999976
40
0.13928571428571404
40
0.14107142857142832
40
0.1428571428571426
40
0.14464285714285688
40
0.14642857142857116
40
0.14821428571428544
40
0.14999999999999972
40
0.151785714285714
40
0.15357142857142828
40
0.15535714285714256
40
0.15714285714285683
40
0.15892857142857111
40
0.16071428571428539
40
0.16249999999999967
40
0.16428571428571395
40
0.16607142857142823
40
0.16785714285714251
40
0.16964285714285679
40
0.17142857142857107
40
0.17321428571428535
40
0.17499999999999963
40
0.17678571428571391
40
0.17857142857142819
40
0.18035714285714247
40
0.18214285714285675
40
0.18392857142857102
40
0.1857142857142853
40
0.18749999999999958
40
0.18928571428571386
40
0.19107142857142814
40
0.19285714285714242
40
0.1946428571428567
40
0.19642857142857098
40
0.19821428571428526
40
0.19999999999999954
40
0.20178571428571382
40
0.2035714285714281
40
0.20535714285714238
40
0.20714285714285666
40
0.20892857142857094
40
0.21071428571428522
40
0.21249999999999949
40
0.21428571428571377
40
0.21607142857142805
40
0.21785714285714233
40
0.21964285714285661
40
0.22142857142857089
40
0.22321428571428517
40
0.22499999999999945
40
0.22678571428571373
40
0.22857142857142801
40
0.23035714285714229
40
0.23214285714285657
40
0.23392857142857085
40
0.23571428571428513
40
0.23749999999999941
40
0.23928571428571369
40
0.24107142857142796
40
0.24285714285714224
40
0.24464285714285652
40
0.2464285714285708
40
0.24821428571428508
40
0.24999999999999936
40
0.25178571428571367
40
0.25357142857142795
40
0.25535714285714223
40
0.25714285714285651
40
0.25892857142857079
40
0.26071428571428507
40
0.26249999999999934
40
0.26428571428571362
40
0.2660714285714279
40
0.26785714285714218
40
0.26964285714285646
40
0.27142857142857074
40
0.27321428571428502
40
0.2749999999999993
40
0.27678571428571358
40
0.27857142857142786
40
0.28035714285714214
40
0.28214285714285642
40
0.2839285714285707
40
0.28571428571428498
40
0.28749999999999926
40
0.28928571428571354
40
0.29107142857142781
40
0.29285714285714209
40
0.29464285714285637
40
0.29642857142857065
40
0.29821428571428493
40
0.29999999999999921
40
0.30178571428571349
40
0.30357142857142777
40
0.30535714285714205
40
0.30714285714285633
40
0.30892857142857061
40
0.31071428571428489
40
0.31249999999999917
40
0.31428571428571345
40
0.31607142857142773
40
0.31785714285714201
40
0.31964285714285628
40
0.32142857142857056
40
0.32321428571428484
40
0.32499999999999912
40
0.3267857142857134
40
0.32857142857142768
40
0.33035714285714196
40
0.33214285714285624
40
0.33392857142857052
40
0.3357142857142848
40
0.33749999999999908
40
0.33928571428571336
40
0.34107142857142764
40
0.34285714285714192
40
0.3446428571428562
40
0.34642857142857048
40
0.34821428571428475
40
0.34999999999999903
40
0.35178571428571331
40
0.35357142857142759
40
0.35535714285714187
40
0.35714285714285615
40
0.35892857142857043
40
0.36071428571428471
40
0.36249999999999899
40
0.36428571428571327
40
0.36607142857142755
40
0.36785714285714183
40
0.36964285714285611
40
0.37142857142857039
40
0.37321428571428467
40
0.37499999999999895
40
0.37678571428571322
40
0.3785714285714275
40
0.38035714285714178
40
0.38214285714285606
40
0.38392857142857034
40
0.38571428571428462
40
0.3874999999999989
40
0.38928571428571318
40
0.39107142857142746
40
0.39285714285714174
40
0.39464285714285602
40
0.3964285714285703
40
0.39821428571428458
40
0.39999999999999886
40
0.40178571428571314
40
0.40357142857142742
40
0.40535714285714169
40
0.40714285714285597
40
0.40892857142857025
40
0.41071428571428453
40
0.41249999999999881
40
0.41428571428571309
40
0.41607142857142737
40
0.41785714285714165
40
0.41964285714285593
40
0.42142857142857021
40
0.42321428571428449
40
0.42499999999999877
40
0.42678571428571305
40
0.42857142857142733
40
0.43035714285714161
40
0.43214285714285589
40
0.43392857142857016
40
0.43571428571428444
40
0.43749999999999872
40
0.439285714285713
40
0.44107142857142728
40
0.44285714285714156
40
0.44464285714285584
40
0.44642857142857012
40
0.4482142857142844
40
0.44999999999999868
40
0.45178571428571296
40
0.45357142857142724
40
0.45535714285714152
40
0.4571428571428558
40
0.45892857142857008
40
0.46071428571428436
40
0.46249999999999863
40
0.46428571428571291
40
0.46607142857142719
40
0.46785714285714147
40
0.46964285714285575
40
0.47142857142857003
40
0.47321428571428431
40
0.47499999999999859
40
0.47678571428571287
40
0.47857142857142715
40
0.48035714285714143
40
0.48214285714285571
40
0.48392857142856999
40
0.48571428571428427
40
0.48749999999999855
40
0.48928571428571282
40
0.4910714285714271
40
0.49285714285714138
40
0.49464285714285566
40
0.49642857142856994
40
0.49821428571428422
40
0.4999999999999985
40
0.50178571428571284
40
0.50357142857142712
40
0.50535714285714139
40
0.50714285714285567
40
0.50892857142856995
40
0.51071428571428423
40
0.51249999999999851
40
0.51428571428571279
40
0.51607142857142707
40
0.51785714285714135
40
0.51964285714285563
40
0.52142857142856991
40
0.52321428571428419
40
0.52499999999999847
40
0.52678571428571275
40
0.52857142857142703
40
0.53035714285714131
40
0.53214285714285559
40
0.53392857142856986
40
0.53571428571428414
40
0.53749999999999842
40
0.5392857142857127
40
0.54107142857142698
40
0.54285714285714126
40
0.54464285714285554
40
0.54642857142856982
40
0.5482142857142841
40
0.54999999999999838
40
0.55178571428571266
40
0.55357142857142694
40
0.55535714285714122
40
0.5571428571428555
40
0.55892857142856978
40
0.56071428571428406
40
0.56249999999999833
40
0.56428571428571261
40
0.56607142857142689
40
0.56785714285714117
40
0.56964285714285545
40
0.57142857142856973
40
0.57321428571428401
40
0.57499999999999829
40
0.57678571428571257
40
0.57857142857142685
40
0.58035714285714113
40
0.58214285714285541
40
0.58392857142856969
40
0.58571428571428397
40
0.58749999999999825
40
0.58928571428571253
40
0.5910714285714268
40
0.59285714285714108
40
0.59464285714285536
40
0.59642857142856964
40
0.59821428571428392
40
0.5999999999999982
40
0.60178571428571248
40
0.60357142857142676
40
0.60535714285714104
40
0.60714285714285532
40
0.6089285714285696
40
0.61071428571428388
40
0.61249999999999816
40
0.61428571428571244
40
0.61607142857142672
40
0.617857142857141
40
0.61964285714285527
40
0.62142857142856955
40
0.62321428571428383
40
0.62499999999999811
40
0.62678571428571239
40
0.62857142857142667
40
0.63035714285714095
40
0.63214285714285523
40
0.63392857142856951
40
0.63571428571428379
40
0.63749999999999807
40
0.63928571428571235
40
0.64107142857142663
40
0.64285714285714091
40
0.64464285714285519
40
0.64642857142856947
40
0.64821428571428374
40
0.64999999999999802
40
0.6517857142857123
40
0.65357142857142658
40
0.65535714285714086
40
0.65714285714285514
40
0.65892857142856942
40
0.6607142857142837
40
0.66249999999999798
40
0.66428571428571226
40
0.66607142857142654
40
0.66785714285714082
40
0.6696428571428551
40
0.67142857142856938
40
0.67321428571428366
40
0.67499999999999793
40
0.67678571428571221
40
0.67857142857142649
40
0.68035714285714077
40
0.68214285714285505
40
0.68392857142856933
40
0.68571428571428361
40
0.68749999999999789
40
0.68928571428571217
40
0.69107142857142645
40
0.69285714285714073
40
0.69464285714285501
40
0.69642857142856929
40
0.69821428571428357
40
0.69999999999999785
40
0.70178571428571213
40
0.7035714285714264
40
0.70535714285714068
40
0.70714285714285496
40
0.70892857142856924
40
0.71071428571428352
40
0.7124999999999978
40
0.71428571428571208
40
0.71607142857142636
40
0.71785714285714064
40
0.71964285714285492
40
0.7214285714285692
40
0.72321428571428348
40
0.72499999999999776
40
0.72678571428571204
40
0.72857142857142632
40
0.7303571428571406
40
0.73214285714285487
40
0.73392857142856915
40
0.73571428571428343
40
0.73749999999999771
40
0.73928571428571199
40
0.74107142857142627
40
0.74285714285714055
40
0.74464285714285483
40
0.74642857142856911
40
0.74821428571428339
40
0.74999999999999767
40
0.75178571428571195
40
0.75357142857142623
40
0.75535714285714051
40
0.75714285714285479
40
0.75892857142856907
40
0.76071428571428334
40
0.76249999999999762
40
0.7642857142857119
40
0.76607142857142618
40
0.76785714285714046
40
0.76964285714285474
40
0.77142857142856902
40
0.7732142857142833
40
0.77499999999999758
40
0.77678571428571186
40
0.77857142857142614
40
0.78035714285714042
40
0.7821428571428547
40
0.78392857142856898
40
0.78571428571428326
40
0.78749999999999754
40
0.78928571428571181
40
0.79107142857142609
40
0.79285714285714037
40
0.79464285714285465
40
0.79642857142856893
40
0.79821428571428321
40
0.79999999999999749
40
0.80178571428571177
40
0.80357142857142605
40
0.80535714285714033
40
0.80714285714285461
40
0.80892857142856889
40
0.81071428571428317
40
0.81249999999999745
40
0.81428571428571173
40
0.81607142857142601
40
0.81785714285714028
40
0.81964285714285456
40
0.82142857142856884
40
0.82321428571428312
40
0.8249999999999974
40
0.82678571428571168
40
0.82857142857142596
40
0.83035714285714024
40
0.83214285714285452
40
0.8339285714285688
40
0.83571428571428308
40
0.83749999999999736
40
0.83928571428571164
40
0.84107142857142592
40
0.8428571428571402
40
0.84464285714285448
40
0.84642857142856875
40
0.84821428571428303
40
0.84999999999999731
40
0.85178571428571159
40
0.85357142857142587
40
0.85535714285714015
40
0.85714285714285443
40
0.85892857142856871
40
0.86071428571428299
40
0.86249999999999727
40
0.86428571428571155
40
0.86607142857142583
40
0.86785714285714011
40
0.86964285714285439
40
0.87142857142856867
40
0.87321428571428295
40
0.87499999999999722
40
0.8767857142857115
40
0.87857142857142578
40
0.88035714285714006
40
0.88214285714285434
40
0.88392857142856862
40
0.8857142857142829
40
0.88749999999999718
40
0.88928571428571146
40
0.89107142857142574
40
0.89285714285714002
40
0.8946428571428543
40
0.89642857142856858
40
0.89821428571428286
40
0.89999999999999714
40
0.90178571428571141
40
0.90357142857142569
40
0.90535714285713997
40
0.90714285714285425
40
0.90892857142856853
40
0.91071428571428281
40
0.91249999999999709
40
0.91428571428571137
40
0.91607142857142565
40
0.91785714285713993
40
0.91964285714285421
40
0.92142857142856849
40
0.92321428571428277
40
0.92499999999999705
40
0.92678571428571133
40
0.92857142857142561
40
0.93035714285713988
40
0.93214285714285416
40
0.93392857142856844
40
0.93571428571428272
40
0.937499999999997
40
0.93928571428571128
40
0.94107142857142556
40
0.94285714285713984
40
0.94464285714285412
40
0.9464285714285684
40
0.94821428571428268
40
0.94999999999999696
40
0.95178571428571124
40
0.95357142857142552
40
0.9553571428571398
40
0.95714285714285408
40
0.95892857142856835
40
0.96071428571428263
40
0.96249999999999691
40
0.96428571428571119
40
0.96607142857142547
40
0.96785714285713975
40
0.96964285714285403
40
0.97142857142856831
40
0.97321428571428259
40
0.97499999999999687
40
0.97678571428571115
40
0.97857142857142543
40
0.98035714285713971
40
0.98214285714285399
40
0.98392857142856827
40
0.98571428571428255
40
0.98749999999999682
40
0.9892857142857111
40
0.99107142857142538
40
0.99285714285713966
40
0.99464285714285394
40
0.99642857142856822
40
0.9982142857142825
40
1
40
1
40
1
40
1
40
1
40
1
41
1
41
1
41
1
41
1
41
1
41
1
41
1
41
1
41
1
41
1
41
1
41
1
41
1
41
1
41
1
41
1
41
1
41
1
41
1
41
1
41
1
41
1
41
1
41
1
41
1
41
1
41
1
41
1
41
1
41
1
41
1
41
1
41
1
41
1
41
1
41
1
41
1
41
1
41
1
41
1
41
1
41
1
41
1
41
1
41
1
41
1
41
1
41
1
41
1
41
1
41
1
41
1
41
1
41
1
41
1
41
1
41
1
41
1
41
1
41
1
41
1
41
1
41
1
41
1
41
1
41
1
41
1
41
1
41
1
41
1
41
1
41
1
41
1
41
1
41
1
41
1
41
1
41
1
41
1
41
1
41
1
41
1
41
1
41
1
41
1
41
1
41
1
41
1
41
1
41
1
41
1
41
1
41
1
41
1
41
1
41
1
41
1
41
1
41
1
41
1
41
1
41
1
41
1
41
1
41
1
41
1
41
1
41
1
41
1
41
1
41
1
41
1
41
1
41
1
41
1
41
1
41
1
41
1
41
1
41
1
41
1
41
1
41
1
41
1
41
1
41
1
41
1
41
1
41
1
41
1
41
1
41
1
41
1
41
1
41
1
41
1
41
1
41
1
41
1
41
1
41
1
41
1
41
1
41
1
41
1
41
1
41
1
41
1
41
1
41
1
41
1
41
1
41
1
41
1
41
1
41
1
41
1
41
1
41
1
41
1
41
1
41
1
41
1
41
1
41
1
41
1
41
1
41
1
41
1
41
1
41
1
41
1
41
1
41
1
41
1
41
1
41
1
41
1
41
1
41
1
41
1
41
1
41
1
41
1
41
1
41
1
41
1
41
1
41
1
41
1
41
1
41
1
41
1
41
1
41
1
41
1
41
1
41
1
41
1
41
1
41
1
41
1
41
1
41
1
41
1
41
1
41
1
41
1
41
1
41
1
41
1
41
1
41
1
41
1
41
1
41
1
41
1
41
1
41
1
41
1
41
1
41
1
41
1
41
1
41
1
41
1
41
1
41
1
41
1
41
1
41
1
41
1
41
1
41
1
41
1
41
1
41
1
41
1
41
1
41
1
41
1
41
1
41
1
41
1
41
1
41
1
41
1
41
1
41
1
41
1
41
1
41
1
41
1
41
1
41
1
41
1
41
1
41
1
41
1
41
1
41
1
41
1
41
1
41
1
41
1
41
1
41
1
41
1
41
1
41
1
41
1
41
1
41
1
41
1
41
1
41
1
41
1
41
1
41
1
41
1
41
1
41
1
41
1
41
1
41
1
41
1
41
1
41
1
41
1
41
1
41
1
41
1
41
1
41
1
41
1
41
1
41
1
41
1
41
1
41
1
41
1
41
1
41
1
41
1
41
1
41
1
41
1
41
1
41
1
41
1
41
1
41
1
41
1
41
1
41
1
41
1
41
1
41
1
41
1
41
1
41
1
41
1
41
1
41
1
41
1
41
1
41
1
41
1
41
1
41
1
41
1
41
1
41
1
41
1
41
1
41
1
41
1
41
1
41
1
41
1
41
1
41
1
41
1
41
1
41
1
41
1
41
1
41
1
41
1
41
1
41
1
41
1
41
1
41
1
41
1
41
1
41
1
41
1
41
1
41
1
41
1
41
1
41
1
41
1
41
1
41
1
41
1
41
1
41
1
41
1
41
1
41
1
41
1
41
1
41
1
41
1
41
1
41
1
41
1
41
1
41
1
41
1
41
1
41
1
41
1
41
1
41
1
41
1
41
1
41
1
41
1
41
1
41
1
41
1
41
1
41
1
41
1
41
1
41
1
41
1
41
1
41
1
41
1
41
1
41
1
41
1
41
1
41
1
41
1
41
1
41
1
41
1
41
1
41
1
41
1
41
1
41
1
41
1
41
1
41
1
41
1
41
1
41
1
41
1
41
1
41
1
41
1
41
1
41
1
41
1
41
1
41
1
41
1
41
1
41
1
41
1
41
1
41
1
41
1
41
1
41
1
41
1
41
1
41
1
41
1
41
1
41
1
41
1
41
1
41
1
41
1
41
1
41
1
41
1
41
1
41
1
41
1
41
1
41
1
41
1
41
1
41
1
41
1
41
1
41
1
41
1
41
1
41
1
41
1
41
1
41
1
41
1
41
1
41
1
41
1
41
1
41
1
41
1
41
1
41
1
41
1
41
1
41
1
41
1
41
1
41
1
41
1
41
1
41
1
41
1
41
1
41
1
41
1
41
1
41
1
41
1
41
1
41
1
41
1
41
1
41
1
41
1
41
1
41
1
41
1
41
1
41
1
41
1
41
1
41
1
41
1
41
1
41
1
41
1
41
1
41
1
41
1
41
1
41
1
41
1
41
1
41
1
41
1
41
1
41
1
41
1
41
1
41
1
41
1
41
1
41
1
41
1
41
1
41
1
41
1
41
1
41
1
41
1
41
1
41
1
41
1
41
1
41
1
41
1
41
1
41
1
41
1
41
1
41
1
41
1
41
1
41
1
41
1
41
1
41
1
41
1
41
1
41
1
41
1
41
1
41
1
41
1
41
1
41
1
41
1
10
11.700800000000001
20
-113.1875
30
0
10
11.599312887474792
20
-113.19894206534138
30
0
10
11.391443169155417
20
-113.21661068734223
30
0
10
11.062588462689799
20
-113.2285156733617
30
0
10
10.578136626954525
20
-113.22575798818181
30
0
10
9.8680296581188269
20
-113.23350432857916
30
0
10
9.0418667593467763
20
-113.2937491265557
30
0
10
8.117639874621652
20
-113.43123889617391
30
0
10
7.159790985652533
20
-113.63583166392068
30
0
10
6.2546421996492558
20
-113.87347159311902
30
0
10
5.4817131983318177
20
-114.10036208223028
30
0
10
4.8850382813548441
20
-114.27645893725055
30
0
10
4.4478133197925036
20
-114.37820881114675
30
0
10
4.0568643437208909
20
-114.41435063349448
30
0
10
3.5594575906410797
20
-114.41264913128217
30
0
10
2.8327557388950728
20
-114.40242451120196
30
0
10
1.8531893654524392
20
-114.39760374459823
30
0
10
0.67352545321328516
20
-114.39977971968808
30
0
10
-0.60726141479200701
20
-114.40292036319474
30
0
10
-1.8708045510863096
20
-114.3973541279351
30
0
10
-3.0090040812547336
20
-114.37429912751321
30
0
10
-3.9491104206229819
20
-114.32960702573604
30
0
10
-4.6890171420082591
20
-114.2692005551817
30
0
10
-5.2973736381747631
20
-114.20870845484075
30
0
10
-5.8666840825463833
20
-114.1652929492117
30
0
10
-6.4814026573204302
20
-114.15204863546518
30
0
10
-7.17287483064041
20
-114.1700003406016
30
0
10
-7.9032899090895761
20
-114.20563454427747
30
0
10
-8.6082224212277243
20
-114.23993535737095
30
0
10
-9.2249568981006078
20
-114.2544150960053
30
0
10
-9.7313857951313949
20
-114.23975434786583
30
0
10
-10.165788111923426
20
-114.19923410542766
30
0
10
-10.586227921755132
20
-114.13765448946876
30
0
10
-11.033952437649168
20
-114.04890875574326
30
0
10
-11.509387939758739
20
-113.91366093378915
30
0
10
-11.991269325401703
20
-113.71789034283441
30
0
10
-12.445775958188039
20
-113.47484099798459
30
0
10
-12.843175201783035
20
-113.22297295040667
30
0
10
-13.173735414601639
20
-112.98837449513927
30
0
10
-13.471982454228959
20
-112.74399832853469
30
0
10
-13.810949672783659
20
-112.40903399542756
30
0
10
-14.265428242508406
20
-111.8962750333267
30
0
10
-14.876703952617181
20
-111.15454135217053
30
0
10
-15.642230386089892
20
-110.18287375517707
30
0
10
-16.530424766579472
20
-109.01442386872625
30
0
10
-17.488066191091068
20
-107.70931768167509
30
0
10
-18.450806822193922
20
-106.34379788436361
30
0
10
-19.352205058884341
20
-105.00099918716819
30
0
10
-20.133727212828884
20
-103.7609348444885
30
0
10
-20.753556716130351
20
-102.69102358612189
30
0
10
-21.19779823339918
20
-101.83590269334243
30
0
10
-21.484348890551317
20
-101.20901904204194
30
0
10
-21.651950258629583
20
-100.78600951474195
30
0
10
-21.752408264132885
20
-100.49961407157907
30
0
10
-21.84146286801171
20
-100.22982089948037
30
0
10
-21.970549170267777
20
-99.808364521391454
30
0
10
-22.180916703325732
20
-99.068873098629098
30
0
10
-22.496327275344314
20
-97.896269005250304
30
0
10
-22.919544684217655
20
-96.257760442900235
30
0
10
-23.437583746829425
20
-94.181767461452196
30
0
10
-24.025240433668852
20
-91.747411875437706
30
0
10
-24.649304796644266
20
-89.069789468776577
30
0
10
-25.272481971834225
20
-86.287045229440253
30
0
10
-25.85743908498603
20
-83.546672765197854
30
0
10
-26.370796923406008
20
-80.992149647697829
30
0
10
-26.787147772650499
20
-78.749424386021161
30
0
10
-27.093056746678418
20
-76.913475645877881
30
0
10
-27.291082985623987
20
-75.534819648487769
30
0
10
-27.403763573599829
20
-74.606085641200877
30
0
10
-27.477680870499785
20
-74.048453695707281
30
0
10
-27.587351390432673
20
-73.698371230592443
30
0
10
-27.805555772176916
20
-73.369913795736551
30
0
10
-28.172085850249765
20
-72.92002197904722
30
0
10
-28.666656763728398
20
-72.30626183800868
30
0
10
-29.232225483226316
20
-71.554063279505854
30
0
10
-29.795082493457592
20
-70.729837360960914
30
0
10
-30.285909088806847
20
-69.912154774054741
30
0
10
-30.661022416623275
20
-69.163075874432408
30
0
10
-30.921858729116952
20
-68.501307380314657
30
0
10
-31.096733592161591
20
-67.917994116643086
30
0
10
-31.224141407216408
20
-67.390713522141766
30
0
10
-31.33590497681849
20
-66.897727133795328
30
0
10
-31.439241268755733
20
-66.433251749628013
30
0
10
-31.52680359560496
20
-65.994847557456154
30
0
10
-31.588487678850381
20
-65.568919400038766
30
0
10
-31.622330690550218
20
-65.1174339486913
30
0
10
-31.631986490117939
20
-64.589420788702995
30
0
10
-31.624295388739291
20
-63.932493793060232
30
0
10
-31.606996078463233
20
-63.103350485330132
30
0
10
-31.588319556092117
20
-62.06725241206243
30
0
10
-31.576420673738067
20
-60.798433352898044
30
0
10
-31.578870617198138
20
-59.280154746637812
30
0
10
-31.602126891326456
20
-57.5049061097343
30
0
10
-31.651004996280356
20
-55.474555389385323
30
0
10
-31.728167828576449
20
-53.200493026029577
30
0
10
-31.833564447315648
20
-50.703844127498556
30
0
10
-31.963990975032125
20
-48.015499186507142
30
0
10
-32.112351314790409
20
-45.176598781182562
30
0
10
-32.268001891294276
20
-42.237374020711052
30
0
10
-32.418278057637167
20
-39.254193702496465
30
0
10
-32.549707648739236
20
-36.287086146695607
30
0
10
-32.649352586993238
20
-33.397067274059921
30
0
10
-32.706094425871242
20
-30.643552466845058
30
0
10
-32.711946925088746
20
-28.081730534333438
30
0
10
-32.663350373575021
20
-25.759958149632265
30
0
10
-32.562489363138482
20
-23.717135508169509
30
0
10
-32.418564581570905
20
-21.980112705553662
30
0
10
-32.249168167708802
20
-20.561029620269558
30
0
10
-32.08142042862859
20
-19.454807265095049
30
0
10
-31.953661255069012
20
-18.636287123634901
30
0
10
-31.915838439077582
20
-18.058196624452719
30
0
10
-32.03328550575214
20
-17.646963965075223
30
0
10
-32.35640213014748
20
-17.32023840584025
30
0
10
-32.88613198776136
20
-17.007141784974852
30
0
10
-33.540117916399552
20
-16.667916127715181
30
0
10
-34.194975844174948
20
-16.287906361854148
30
0
10
-34.731456650374788
20
-15.871058576638466
30
0
10
-35.075811903324556
20
-15.433382373243207
30
0
10
-35.249813423693254
20
-14.997013704821043
30
0
10
-35.326386011459306
20
-14.576635272410474
30
0
10
-35.374618903209772
20
-14.165110576696636
30
0
10
-35.407788968182906
20
-13.719096275788926
30
0
10
-35.406355467630526
20
-13.178808223788989
30
0
10
-35.343360178172524
20
-12.488878344189633
30
0
10
-35.207305830915658
20
-11.617449073028931
30
0
10
-34.998396391840593
20
-10.552408109999607
30
0
10
-34.726209124941796
20
-9.2989077593406897
30
0
10
-34.406818252459161
20
-7.8764022296408243
30
0
10
-34.060182324776392
20
-6.315886353828648
30
0
10
-33.707346462798633
20
-4.6570561031734439
30
0
10
-33.367892026687414
20
-2.9454840352932048
30
0
10
-33.056870756103727
20
-1.2298347253331938
30
0
10
-32.783395890383119
20
0.44110044586486374
30
0
10
-32.55186265779323
20
2.0216823378485147
30
0
10
-32.362556272629973
20
3.4726156216228903
30
0
10
-32.212507082794943
20
4.7642051515975519
30
0
10
-32.096238832800246
20
5.8795174145088929
30
0
10
-32.006565458722456
20
6.8177394558980282
30
0
10
-31.935360882554296
20
7.5970888795707197
30
0
10
-31.874354892602945
20
8.2587895770754685
30
0
10
-31.815874620716968
20
8.8679550008565844
30
0
10
-31.753356767596742
20
9.4993467647530423
30
0
10
-31.681879933397713
20
10.225301998994659
30
0
10
-31.598710008884868
20
11.102485673107021
30
0
10
-31.503781966795749
20
12.160071389435171
30
0
10
-31.399126035363892
20
13.404641525762731
30
0
10
-31.288352373391405
20
14.824219813288209
30
0
10
-31.176115066636655
20
16.392620226998311
30
0
10
-31.067581664042677
20
18.073679303552272
30
0
10
-30.967907917462792
20
19.825496844461906
30
0
10
-30.881692698867095
20
21.604769204961197
30
0
10
-30.812482476724568
20
23.370857836907945
30
0
10
-30.762154678610397
20
25.090518428469878
30
0
10
-30.730693799855459
20
26.74047907578343
30
0
10
-30.716684093771079
20
28.306087898476004
30
0
10
-30.717644296079651
20
29.780831018283116
30
0
10
-30.730424447398224
20
31.165500386817314
30
0
10
-30.751579018059214
20
32.46751408318687
30
0
10
-30.777743583100037
20
33.700165038087434
30
0
10
-30.80602539369832
20
34.881914944511635
30
0
10
-30.834351818496909
20
36.035635468497524
30
0
10
-30.861928551578785
20
37.187956791368237
30
0
10
-30.889183798341268
20
38.368139360335448
30
0
10
-30.917448737799077
20
39.606703672489104
30
0
10
-30.948720344091516
20
40.934135140762187
30
0
10
-30.985390214543624
20
42.379558777369851
30
0
10
-31.029987598294362
20
43.969424584443559
30
0
10
-31.084917227014238
20
45.72619343332795
30
0
10
-31.152197266935815
20
47.667010676619093
30
0
10
-31.233202211792282
20
49.802413236925709
30
0
10
-31.328390016779679
20
52.134945047256174
30
0
10
-31.437398195769681
20
54.659862147391308
30
0
10
-31.559158453792278
20
57.365942223739204
30
0
10
-31.692004546852704
20
60.236255958030036
30
0
10
-31.8337829896846
20
63.248954388281213
30
0
10
-31.981962531143679
20
66.378049274526347
30
0
10
-32.133744143448183
20
69.594196374660044
30
0
10
-32.286170800907669
20
72.865477395426282
30
0
10
-32.436237304505781
20
76.158182431659242
30
0
10
-32.581000179042327
20
79.437592195187449
30
0
10
-32.717687321096214
20
82.66876020163167
30
0
10
-32.843808265009862
20
85.817295208630554
30
0
10
-32.957263009332728
20
88.850142987249185
30
0
10
-33.05645420925601
20
91.736369719118201
30
0
10
-33.140391570401292
20
94.447941683938254
30
0
10
-33.208814394545605
20
96.960513696440756
30
0
10
-33.262271747323254
20
99.254197268906296
30
0
10
-33.302306969317812
20
101.31437871421898
30
0
10
-33.331234237426123
20
103.13234690703726
30
0
10
-33.351575422335941
20
104.70578373840522
30
0
10
-33.365598266848508
20
106.03926410617322
30
0
10
-33.374802799369256
20
107.14481675330842
30
0
10
-33.379453266016561
20
108.04231051779531
30
0
10
-33.378036247271936
20
108.76026097820278
30
0
10
-33.36687689779869
20
109.33565195775431
30
0
10
-33.339381746539459
20
109.81611789898152
30
0
10
-33.286436923695021
20
110.25495517008765
30
0
10
-33.198823089269212
20
110.69552957605539
30
0
10
-33.06959806760009
20
111.15321887230591
30
0
10
-32.895207356199521
20
111.61346486324629
30
0
10
-32.67452709747176
20
112.0518383271212
30
0
10
-32.408332565461222
20
112.45235197181346
30
0
10
-32.098918168710142
20
112.81310947653327
30
0
10
-31.750079141730559
20
113.13697437632152
30
0
10
-31.3671227378642
20
113.42506034523375
30
0
10
-30.956298707322546
20
113.67493807505234
30
0
10
-30.523880326944223
20
113.88393052688645
30
0
10
-30.075163734431278
20
114.05110445036642
30
0
10
-29.614422886987519
20
114.1782028681279
30
0
10
-29.145298249511008
20
114.26930777441274
30
0
10
-28.671157852103125
20
114.33123327823213
30
0
10
-28.194801622480217
20
114.37179175956884
30
0
10
-27.718004744801679
20
114.39763781918873
30
0
10
-27.240947936070896
20
114.41204482090723
30
0
10
-26.763178804529968
20
114.41460410695713
30
0
10
-26.284817278204958
20
114.40137955428307
30
0
10
-25.807782779648893
20
114.36475241120615
30
0
10
-25.335162640415728
20
114.29588818259545
30
0
10
-24.870398942812532
20
114.187374711435
30
0
10
-24.41656059791082
20
114.03581975595304
30
0
10
-23.97702398190178
20
113.84116253745984
30
0
10
-23.556276062996162
20
113.60611873075166
30
0
10
-23.160413875596536
20
113.33526998656509
30
0
10
-22.795106449036247
20
113.03247877674023
30
0
10
-22.463379004298908
20
112.69746693260942
30
0
10
-22.164344755761377
20
112.32502964243017
30
0
10
-21.896105532168594
20
111.91362842090155
30
0
10
-21.658890034676102
20
111.47594396426213
30
0
10
-21.456008749256199
20
111.04018072831627
30
0
10
-21.288604428393619
20
110.62661228949577
30
0
10
-21.150313937075342
20
110.22339754266086
30
0
10
-21.025498036127711
20
109.77779533186067
30
0
10
-20.895214994135497
20
109.22063303078909
30
0
10
-20.742241559772765
20
108.48644120444985
30
0
10
-20.554063256624016
20
107.52581053171355
30
0
10
-20.321731322472548
20
106.30134927502091
30
0
10
-20.039785397745714
20
104.78788616092615
30
0
10
-19.705741718774114
20
102.97094144026083
30
0
10
-19.319767413559198
20
100.84593974156918
30
0
10
-18.884274778853683
20
98.417103938359816
30
0
10
-18.403550048220559
20
95.696486543224722
30
0
10
-17.88336738601042
20
92.702942107627479
30
0
10
-17.330609203062878
20
89.461125090167712
30
0
10
-16.752883952952896
20
86.000477108733151
30
0
10
-16.158144624907671
20
82.35421838154933
30
0
10
-15.554307892170552
20
78.558338607965197
30
0
10
-14.948870784357576
20
74.650585483085592
30
0
10
-14.348533530310362
20
70.66946050746283
30
0
10
-13.758807579983291
20
66.653196871083139
30
0
10
-13.183664660410571
20
62.638787323829121
30
0
10
-12.625761637774087
20
58.661713905430979
30
0
10
-12.086630933977249
20
54.755635690769424
30
0
10
-11.566883961945759
20
50.952092382873573
30
0
10
-11.066408997365084
20
47.280201147428954
30
0
10
-10.584571456129346
20
43.766356263235558
30
0
10
-10.120413051132452
20
40.433927589609617
30
0
10
-9.6728515900741368
20
37.30295927292957
30
0
10
-9.2408801051055587
20
34.389868753074921
30
0
10
-8.8237671716524666
20
31.707144457896913
30
0
10
-8.4212546270210389
20
29.263046540080445
30
0
10
-8.0337612786076402
20
27.061300258089961
30
0
10
-7.6625727576785465
20
25.100806251509326
30
0
10
-7.310063575390112
20
23.375311324270438
30
0
10
-6.9798444404188507
20
21.873170701919555
30
0
10
-6.6770832828749773
20
20.576897477698193
30
0
10
-6.408421246124191
20
19.463208134817648
30
0
10
-6.1828682720145256
20
18.50186659683909
30
0
10
-6.0094373805847603
20
17.658563866436346
30
0
10
-5.8911725235814183
20
16.902543938459186
30
0
10
-5.8190471172430609
20
16.213946565358079
30
0
10
-5.7681188914835531
20
15.5893408983308
30
0
10
-5.6874419311898112
20
15.05264565180153
30
0
10
-5.5103440377326462
20
14.648143872919821
30
0
10
-5.1881763793420719
20
14.411502046047129
30
0
10
-4.7296498249620287
20
14.337918270333983
30
0
10
-4.1984574421490812
20
14.380054253732759
30
0
10
-3.6685001510311368
20
14.477131944548233
30
0
10
-3.1843017118032879
20
14.579773323038822
30
0
10
-2.7503639831578059
20
14.656345733631188
30
0
10
-2.3424654835760679
20
14.686535788432895
30
0
10
-1.9080136207970226
20
14.658481743818893
30
0
10
-1.3920033786056929
20
14.567950539084798
30
0
10
-0.76636087173785683
20
14.419404194734668
30
0
10
-0.064844780271246419
20
14.226736578742328
30
0
10
0.64022055549561818
20
14.011262896210948
30
0
10
1.2768000392553107
20
13.799070432198304
30
0
10
1.8011782855404703
20
13.61835093575278
30
0
10
2.2437719685220587
20
13.497338579882804
30
0
10
2.6752426982156181
20
13.459190247723514
30
0
10
3.1482646044665579
20
13.516981641820793
30
0
10
3.6332648354317447
20
13.666021838254714
30
0
10
4.0534522298579656
20
13.895436402609423
30
0
10
4.3454357489071702
20
14.20380843444619
30
0
10
4.5162077913215155
20
14.615412276344244
30
0
10
4.615610143256438
20
15.163398682165667
30
0
10
4.6993618219791946
20
15.869652818671508
30
0
10
4.7963073131331297
20
16.72634483311742
30
0
10
4.9147985672857271
20
17.705012140914981
30
0
10
5.0488725489422599
20
18.765221704186501
30
0
10
5.1845713396453004
20
19.863561011345499
30
0
10
5.3059711751900736
20
20.962072029628818
30
0
10
5.401891616765166
20
22.037924371654221
30
0
10
5.4706109143728074
20
23.089494091176345
30
0
10
5.5167625999934202
20
24.128422142918634
30
0
10
5.5493925133182023
20
25.173713708253086
30
0
10
5.5795981147177711
20
26.245185301502566
30
0
10
5.6182640005818385
20
27.356857891552117
30
0
10
5.6739478693154624
20
28.511150897479254
30
0
10
5.7502093875815818
20
29.690734780016776
30
0
10
5.8461222716157089
20
30.86334154823907
30
0
10
5.9579932124437978
20
31.991487894139105
30
0
10
6.0806714745621928
20
33.040484771493439
30
0
10
6.2090609923547913
20
33.987399871425808
30
0
10
6.3394720474597568
20
34.829060268051208
30
0
10
6.4712183816297522
20
35.591790848781862
30
0
10
6.607563567958409
20
36.336319734272273
30
0
10
6.7543754593625991
20
37.145499686151162
30
0
10
6.9191353207261939
20
38.114680609652559
30
0
10
7.1098217831858621
20
39.34117444765716
30
0
10
7.3338167872407549
20
40.913807761847558
30
0
10
7.5968756235680512
20
42.903137937612279
30
0
10
7.9018800472500041
20
45.349578227609612
30
0
10
8.2488612206053311
20
48.263641112059489
30
0
10
8.6354660370374017
20
51.630405353964747
30
0
10
9.0572770909542832
20
55.412589236209328
30
0
10
9.5081937304057806
20
59.554205442772307
30
0
10
9.9807868476838362
20
63.983965809718121
30
0
10
10.466664948001069
20
68.618793429194824
30
0
10
10.956835324813152
20
73.367288126645292
30
0
10
11.442067357626634
20
78.13321207922057
30
0
10
11.913254815303691
20
82.818965994254569
30
0
10
12.361778757149303
20
87.329070776312932
30
0
10
12.77986979202238
20
91.57364342309684
30
0
10
13.160971543192019
20
95.471883478309522
30
0
10
13.500101498720568
20
98.955536607194318
30
0
10
13.794217943782856
20
101.97241127089541
30
0
10
14.042572880377737
20
104.48977302584819
30
0
10
14.247097586279827
20
106.49802381897899
30
0
10
14.412712496770197
20
108.01372047215038
30
0
10
14.547813055845552
20
109.08412971390797
30
0
10
14.664345431818358
20
109.78820200811164
30
0
10
14.778872405156136
20
110.2461901981343
30
0
10
14.910387002129751
20
110.60090214164066
30
0
10
15.074969647913697
20
110.97164739838126
30
0
10
15.279588832810212
20
111.40034453502014
30
0
10
15.522221307013186
20
111.85401603242859
30
0
10
15.797715350767877
20
112.27830024065122
30
0
10
16.103222078805878
20
112.64734924594507
30
0
10
16.438878529251106
20
112.97044805217121
30
0
10
16.80486880378578
20
113.26542764697362
30
0
10
17.199058936923159
20
113.53798081540558
30
0
10
17.617130117082599
20
113.78044091156895
30
0
10
18.054166365714025
20
113.98267503615966
30
0
10
18.505979215142421
20
114.14024886549369
30
0
10
18.969114643847885
20
114.25499542255869
30
0
10
19.440372606355474
20
114.33212933346061
30
0
10
19.916393062603468
20
114.37849956939772
30
0
10
20.394182156596521
20
114.40124612033699
30
0
10
20.871796347635708
20
114.40682498729542
30
0
10
21.349063430808442
20
114.39991074176282
30
0
10
21.826392666039411
20
114.38165459534163
30
0
10
22.303433581529482
20
114.34778840588982
30
0
10
22.777807604329944
20
114.28694809704834
30
0
10
23.245718036761971
20
114.18671231676444
30
0
10
23.702549106968714
20
114.0401440321364
30
0
10
24.143466418317246
20
113.85080237490095
30
0
10
24.563696778624177
20
113.62502023210338
30
0
10
24.95895764307754
20
113.36362631417551
30
0
10
25.325529170643865
20
113.05766058934282
30
0
10
25.65933309081317
20
112.70052794498936
30
0
10
25.954627589976592
20
112.3016238226292
30
0
10
26.204234653212815
20
111.88937536912687
30
0
10
26.403415963414794
20
111.48618452018638
30
0
10
26.554060455517007
20
111.08296658003057
30
0
10
26.665832012380349
20
110.63048949487941
30
0
10
26.751396174392916
20
110.0649635454551
30
0
10
26.822351516001039
20
109.32917222591615
30
0
10
26.886935545030084
20
108.38462121770777
30
0
10
26.950995569261554
20
107.20645481653744
30
0
10
27.018099162130255
20
105.78293573158071
30
0
10
27.08999633241077
20
104.11305851624229
30
0
10
27.1669303801791
20
102.20496551125652
30
0
10
27.24801535170737
20
100.07401083741539
30
0
10
27.331581266914817
20
97.74099190727884
30
0
10
27.415541395074552
20
95.230272200544576
30
0
10
27.4977309048211
20
92.568036707871897
30
0
10
27.576304455595068
20
89.780281209821851
30
0
10
27.649945301646834
20
86.891647743654318
30
0
10
27.717771371463201
20
83.925618833845803
30
0
10
27.779311539041302
20
80.904397065419971
30
0
10
27.834453639027082
20
77.848911334831087
30
0
10
27.883404572044171
20
74.778768906072727
30
0
10
27.92664521579372
20
71.712230757675059
30
0
10
27.964887577784655
20
68.666176869131107
30
0
10
27.999030990966602
20
65.656075815578333
30
0
10
28.030118719807163
20
62.695952459991929
30
0
10
28.059294407391935
20
59.798356470165928
30
0
10
28.087758560425836
20
56.974330360458197
30
0
10
28.116725096315918
20
54.233377907615214
30
0
10
28.147377685659812
20
51.583431900066913
30
0
10
28.180826596918461
20
49.030823233843094
30
0
10
28.218064360581081
20
46.580246850092486
30
0
10
28.25992418334755
20
44.234734922301172
30
0
10
28.307031785314521
20
41.995612651853222
30
0
10
28.359776757195458
20
39.862505595356311
30
0
10
28.418353625987102
20
37.833531047341054
30
0
10
28.48279180701438
20
35.905460071895916
30
0
10
28.552989906663839
20
34.073890981288912
30
0
10
28.628748177384455
20
32.333417986010801
30
0
10
28.709801741021202
20
30.677801714231268
30
0
10
28.795853535518422
20
29.100139333625918
30
0
10
28.886607250081227
20
27.5930338363966
30
0
10
28.981800566468348
20
26.14876597717949
30
0
10
29.081237565739162
20
24.759459681217848
30
0
10
29.184823206009987
20
23.417263355538573
30
0
10
29.292591041266345
20
22.114479091048096
30
0
10
29.404719656890773
20
20.843601632616622
30
0
10
29.521551201672697
20
19.597378201921188
30
0
10
29.643610059088338
20
18.368859027923975
30
0
10
29.771619220507311
20
17.151453955743428
30
0
10
29.906522857151892
20
15.938981573936072
30
0
10
30.049494018655103
20
14.725733002775577
30
0
10
30.201979905819549
20
13.506500201786707
30
0
10
30.365557391226645
20
12.27678206614099
30
0
10
30.541707786353737
20
11.033066048068044
30
0
10
30.73161745064062
20
9.7730856845374916
30
0
10
30.935967834253493
20
8.4960878845902794
30
0
10
31.154729589083281
20
7.2030967452359951
30
0
10
31.386955974694516
20
5.897177307280236
30
0
10
31.630574030211243
20
4.5837031590505344
30
0
10
31.882183826789337
20
3.2706117800155878
30
0
10
32.137609264722435
20
1.9675693265953154
30
0
10
32.39243579750201
20
0.6851525216779939
30
0
10
32.642560950310035
20
-0.56598370272075604
30
0
10
32.884721481935266
20
-1.7759146515112398
30
0
10
33.117072146710534
20
-2.9363059816732262
30
0
10
33.339645381336432
20
-4.0411550986482672
30
0
10
33.555097409654323
20
-5.0878179171739122
30
0
10
33.768541096975937
20
-6.0771253448064968
30
0
10
33.985432770726703
20
-7.0115534186719843
30
0
10
34.209935110844306
20
-7.8938768677350311
30
0
10
34.442947235453602
20
-8.7254715792679445
30
0
10
34.680605704206037
20
-9.5051314960130622
30
0
10
34.911764499987015
20
-10.226752902742023
30
0
10
35.119356853959872
20
-10.881446535618053
30
0
10
35.285778642248104
20
-11.464784195659103
30
0
10
35.396370608851029
20
-11.980919273306128
30
0
10
35.445457602350174
20
-12.451842657690262
30
0
10
35.435291772117012
20
-12.911485239623566
30
0
10
35.367538375775666
20
-13.384130213298906
30
0
10
35.23306145098497
20
-13.858401248225235
30
0
10
35.014550410876019
20
-14.291667224494828
30
0
10
34.70084876563385
20
-14.642262272627868
30
0
10
34.302165770662164
20
-14.903189159286569
30
0
10
33.847625659713081
20
-15.097606345845609
30
0
10
33.370297091920364
20
-15.250175350521795
30
0
10
32.894757020156923
20
-15.35749909631428
30
0
10
32.43138596993132
20
-15.401224883325234
30
0
10
31.977141758033518
20
-15.377960255593399
30
0
10
31.509996480326123
20
-15.331443902980926
30
0
10
31.012511376181347
20
-15.331170004313655
30
0
10
30.499112746708832
20
-15.437129819872027
30
0
10
30.049500141050849
20
-15.664672837018855
30
0
10
29.760267079690962
20
-15.998296601061767
30
0
10
29.680873301170564
20
-16.414652086668987
30
0
10
29.761429529302251
20
-16.900990433492371
30
0
10
29.909742086612681
20
-17.450596781073223
30
0
10
30.047794908783352
20
-18.058723786789585
30
0
10
30.157993259758161
20
-18.718706227606553
30
0
10
30.255524598666561
20
-19.420433692957435
30
0
10
30.369519144529157
20
-20.148592914267525
30
0
10
30.520476385205416
20
-20.880864325190863
30
0
10
30.7001754523587
20
-21.586502472680849
30
0
10
30.882413584228644
20
-22.235902494042779
30
0
10
31.03306268495642
20
-22.810146565712014
30
0
10
31.120323378561302
20
-23.309903330986398
30
0
10
31.125001042768687
20
-23.766332650788534
30
0
10
31.049680556506317
20
-24.219737878794682
30
0
10
30.928136208904395
20
-24.695391595531699
30
0
10
30.833956537119729
20
-25.180931964063255
30
0
10
30.843388381110422
20
-25.648964540216674
30
0
10
30.99585120083939
20
-26.081205877752907
30
0
10
31.261681063886961
20
-26.488053537785095
30
0
10
31.578643441671261
20
-26.889173794156832
30
0
10
31.885555668054117
20
-27.29376633575248
30
0
10
32.150415061974542
20
-27.689512822570439
30
0
10
32.363359984091439
20
-28.06730926558388
30
0
10
32.53615525335082
20
-28.446573075962839
30
0
10
32.695696939274974
20
-28.884158181571401
30
0
10
32.870254356931611
20
-29.438241315908709
30
0
10
33.074330488321763
20
-30.134904165800581
30
0
10
33.301833723407995
20
-30.951797731614139
30
0
10
33.535277576858618
20
-31.840365693065216
30
0
10
33.751581002450813
20
-32.739695107186925
30
0
10
33.928798080702776
20
-33.592660025768353
30
0
10
34.053495862013648
20
-34.36368278330756
30
0
10
34.124380772674726
20
-35.047106148862497
30
0
10
34.147337841661368
20
-35.653309689713907
30
0
10
34.13227267063651
20
-36.200366078407214
30
0
10
34.089249545302117
20
-36.701645311889095
30
0
10
34.024956006455845
20
-37.160500967936599
30
0
10
33.940926113965567
20
-37.583821811136588
30
0
10
33.829988110445214
20
-37.99701425324303
30
0
10
33.677707187842294
20
-38.446548552834557
30
0
10
33.473520039106774
20
-38.97351685786893
30
0
10
33.222524868825587
20
-39.587837726805276
30
0
10
32.948985526410524
20
-40.258278939642771
30
0
10
32.683825924855078
20
-40.933919341605069
30
0
10
32.456387894022718
20
-41.558380337133954
30
0
10
32.283314030913253
20
-42.086583320455816
30
0
10
32.162287432463593
20
-42.501256000190111
30
0
10
32.077961526012224
20
-42.825796792349465
30
0
10
32.005606768708439
20
-43.14477979525531
30
0
10
31.916132582666794
20
-43.600321958837284
30
0
10
31.781112778088701
20
-44.346513800845955
30
0
10
31.578764777673772
20
-45.506432299091493
30
0
10
31.296631439059759
20
-47.149430256230147
30
0
10
30.92974182801786
20
-49.303172717950787
30
0
10
30.479884472244837
20
-51.956819281955759
30
0
10
29.954430356690512
20
-55.06780856601813
30
0
10
29.365348686755645
20
-58.567099953235626
30
0
10
28.728139818645651
20
-62.36507855630903
30
0
10
28.060803925181826
20
-66.35717419237173
30
0
10
27.382794370053279
20
-70.429602990421628
30
0
10
26.713977630288113
20
-74.465056266421485
30
0
10
26.073590590535218
20
-78.348411256690468
30
0
10
25.479198555255206
20
-81.972434145694635
30
0
10
24.945653866025481
20
-85.24348261131108
30
0
10
24.484052011159669
20
-88.087217988849957
30
0
10
24.100693832985499
20
-90.454292443877137
30
0
10
23.796033175526649
20
-92.32609676682678
30
0
10
23.563658204987657
20
-93.720367924871383
30
0
10
23.389193164189681
20
-94.697128821326771
30
0
10
23.249407968681524
20
-95.363752951016906
30
0
10
23.118750918453046
20
-95.846460098631511
30
0
10
22.975984125760117
20
-96.261677732373357
30
0
10
22.810276182499422
20
-96.68907456491533
30
0
10
22.628846379208287
20
-97.139635288718708
30
0
10
22.443027848524558
20
-97.59320663229272
30
0
10
22.252439908113203
20
-98.042177761805362
30
0
10
22.029687667438825
20
-98.533339066611859
30
0
10
21.73446889931558
20
-99.140888331457489
30
0
10
21.328411516012661
20
-99.937777723646747
30
0
10
20.788923497310702
20
-100.96903325766735
30
0
10
20.125301937622822
20
-102.22077800346865
30
0
10
19.372012663429558
20
-103.63218722119997
30
0
10
18.578952598975292
20
-105.11310314619513
30
0
10
17.802865289507622
20
-106.55949161059618
30
0
10
17.098080377503027
20
-107.87015526477521
30
0
10
16.507984016267724
20
-108.96210235869147
30
0
10
16.055151008410601
20
-109.78836383716643
30
0
10
15.734450082060746
20
-110.35037864164495
30
0
10
15.498824415318918
20
-110.72375080240238
30
0
10
15.278494688810575
20
-111.02320211265011
30
0
10
15.012406283346799
20
-111.34583065894051
30
0
10
14.682941833071677
20
-111.70719334262456
30
0
10
14.306047314510922
20
-112.06483494102781
30
0
10
13.906979628172017
20
-112.36876490453818
30
0
10
13.498120991722619
20
-112.61032813314131
30
0
10
13.079907843927138
20
-112.80794465860862
30
0
10
12.647273027269602
20
-112.97944033308045
30
0
10
12.285161110969975
20
-113.08911372747141
30
0
10
12.000365844307003
20
-113.14795829529362
30
0
10
11.802287112525388
20
-113.17605793465856
30
0
10
11.700800000000001
20
-113.1875
30
0
0
ENDSEC
0
SECTION
2
OBJECTS
0
DICTIONARY
5
C
100
AcDbDictionary
3
ACAD_GROUP
350
D
3
ACAD_MLINESTYLE
350
17
0
DICTIONARY
5
D
100
AcDbDictionary
0
DICTIONARY
5
1A
330
C
100
AcDbDictionary
0
DICTIONARY
5
17
100
AcDbDictionary
0
ENDSEC
0
EOF
