0
SECTION
2
HEADER
9
$INSUNITS
70
4
9
$ACADVER
1
AC1014
9
$HANDSEED
5
FFFF
0
ENDSEC
0
SECTION
2
TABLES
0
TABLE
2
VPORT
5
8
100
AcDbSymbolTable
0
ENDTAB
0
TABLE
2
LTYPE
5
5
100
AcDbSymbolTable
0
LTYPE
5
14
100
AcDbSymbolTableRecord
100
AcDbLinetypeTableRecord
2
BYBLOCK
70
0
0
LTYPE
5
15
100
AcDbSymbolTableRecord
100
AcDbLinetypeTableRecord
2
BYLAYER
70
0
0
LTYPE
5
16
100
AcDbSymbolTableRecord
100
AcDbLinetypeTableRecord
2
DASHED
70
0
3
Dashed __ __ __ __ __ __ __ __ __ __ __ __ __ _
72
65
73
2
40
0.75
49
0.5
74
0
49
-0.25
74
0
0
ENDTAB
0
TABLE
2
LAYER
5
2
100
AcDbSymbolTable
70
2
0
LAYER
5
50
100
AcDbSymbolTableRecord
100
AcDbLayerTableRecord
2
0
70
0
62
7
6
CONTINUOUS
0
ENDTAB
0
TABLE
2
STYLE
5
3
100
AcDbSymbolTable
70
1
0
STYLE
5
11
100
AcDbSymbolTableRecord
100
AcDbTextStyleTableRecord
2
STANDARD
70
0
0
ENDTAB
0
TABLE
2
VIEW
5
6
100
AcDbSymbolTable
70
0
0
ENDTAB
0
TABLE
2
UCS
5
7
100
AcDbSymbolTable
70
0
0
ENDTAB
0
TABLE
2
APPID
5
9
100
AcDbSymbolTable
70
2
0
APPID
5
12
100
AcDbSymbolTableRecord
100
AcDbRegAppTableRecord
2
ACAD
70
0
0
ENDTAB
0
TABLE
2
DIMSTYLE
5
A
100
AcDbSymbolTable
70
1
0
ENDTAB
0
TABLE
2
BLOCK_RECORD
5
1
100
AcDbSymbolTable
70
1
0
BLOCK_RECORD
5
1F
100
AcDbSymbolTableRecord
100
AcDbBlockTableRecord
2
*MODEL_SPACE
0
BLOCK_RECORD
5
1B
100
AcDbSymbolTableRecord
100
AcDbBlockTableRecord
2
*PAPER_SPACE
0
ENDTAB
0
ENDSEC
0
SECTION
2
BLOCKS
0
BLOCK
5
20
100
AcDbEntity
100
AcDbBlockBegin
2
*MODEL_SPACE
0
ENDBLK
5
21
100
AcDbEntity
100
AcDbBlockEnd
0
BLOCK
5
1C
100
AcDbEntity
100
AcDbBlockBegin
2
*PAPER_SPACE
0
ENDBLK
5
1D
100
AcDbEntity
100
AcDbBlockEnd
0
ENDSEC
0
SECTION
2
ENTITIES
0
SPLINE
5
100
100
AcDbEntity
8
0
100
AcDbSpline
70
6
71
5
72
586
73
580
74
0
42
0.000000001
43
0.0000000001
44
0.0000000001
40
0
40
0
40
0
40
0
40
0
40
0
40
0.0017391304347826088
40
0.0034782608695652175
40
0.0052173913043478265
40
0.006956521739130435
40
0.0086956521739130436
40
0.010434782608695653
40
0.012173913043478262
40
0.013913043478260872
40
0.015652173913043479
40
0.017391304347826087
40
0.019130434782608695
40
0.020869565217391303
40
0.02260869565217391
40
0.024347826086956518
40
0.026086956521739126
40
0.027826086956521733
40
0.029565217391304341
40
0.031304347826086952
40
0.033043478260869563
40
0.034782608695652174
40
0.036521739130434785
40
0.038260869565217397
40
0.040000000000000008
40
0.041739130434782619
40
0.04347826086956523
40
0.045217391304347841
40
0.046956521739130452
40
0.048695652173913063
40
0.050434782608695675
40
0.052173913043478286
40
0.053913043478260897
40
0.055652173913043508
40
0.057391304347826119
40
0.05913043478260873
40
0.060869565217391342
40
0.062608695652173946
40
0.06434782608695655
40
0.066086956521739154
40
0.067826086956521758
40
0.069565217391304363
40
0.071304347826086967
40
0.073043478260869571
40
0.074782608695652175
40
0.076521739130434779
40
0.078260869565217384
40
0.079999999999999988
40
0.081739130434782592
40
0.083478260869565196
40
0.0852173913043478
40
0.086956521739130405
40
0.088695652173913009
40
0.090434782608695613
40
0.092173913043478217
40
0.093913043478260821
40
0.095652173913043426
40
0.09739130434782603
40
0.099130434782608634
40
0.10086956521739124
40
0.10260869565217384
40
0.10434782608695645
40
0.10608695652173905
40
0.10782608695652166
40
0.10956521739130426
40
0.11130434782608686
40
0.11304347826086947
40
0.11478260869565207
40
0.11652173913043468
40
0.11826086956521728
40
0.11999999999999988
40
0.12173913043478249
40
0.12347826086956509
40
0.1252173913043477
40
0.1269565217391303
40
0.12869565217391291
40
0.13043478260869551
40
0.13217391304347811
40
0.13391304347826072
40
0.13565217391304332
40
0.13739130434782593
40
0.13913043478260853
40
0.14086956521739114
40
0.14260869565217374
40
0.14434782608695634
40
0.14608695652173895
40
0.14782608695652155
40
0.14956521739130416
40
0.15130434782608676
40
0.15304347826086936
40
0.15478260869565197
40
0.15652173913043457
40
0.15826086956521718
40
0.15999999999999978
40
0.16173913043478239
40
0.16347826086956499
40
0.16521739130434759
40
0.1669565217391302
40
0.1686956521739128
40
0.17043478260869541
40
0.17217391304347801
40
0.17391304347826061
40
0.17565217391304322
40
0.17739130434782582
40
0.17913043478260843
40
0.18086956521739103
40
0.18260869565217364
40
0.18434782608695624
40
0.18608695652173884
40
0.18782608695652145
40
0.18956521739130405
40
0.19130434782608666
40
0.19304347826086926
40
0.19478260869565187
40
0.19652173913043447
40
0.19826086956521707
40
0.19999999999999968
40
0.20173913043478228
40
0.20347826086956489
40
0.20521739130434749
40
0.20695652173913009
40
0.2086956521739127
40
0.2104347826086953
40
0.21217391304347791
40
0.21391304347826051
40
0.21565217391304312
40
0.21739130434782572
40
0.21913043478260832
40
0.22086956521739093
40
0.22260869565217353
40
0.22434782608695614
40
0.22608695652173874
40
0.22782608695652135
40
0.22956521739130395
40
0.23130434782608655
40
0.23304347826086916
40
0.23478260869565176
40
0.23652173913043437
40
0.23826086956521697
40
0.23999999999999957
40
0.24173913043478218
40
0.24347826086956478
40
0.24521739130434739
40
0.24695652173912999
40
0.2486956521739126
40
0.25043478260869523
40
0.25217391304347786
40
0.25391304347826049
40
0.25565217391304312
40
0.25739130434782576
40
0.25913043478260839
40
0.26086956521739102
40
0.26260869565217365
40
0.26434782608695628
40
0.26608695652173892
40
0.26782608695652155
40
0.26956521739130418
40
0.27130434782608681
40
0.27304347826086944
40
0.27478260869565208
40
0.27652173913043471
40
0.27826086956521734
40
0.27999999999999997
40
0.2817391304347826
40
0.28347826086956524
40
0.28521739130434787
40
0.2869565217391305
40
0.28869565217391313
40
0.29043478260869576
40
0.29217391304347839
40
0.29391304347826103
40
0.29565217391304366
40
0.29739130434782629
40
0.29913043478260892
40
0.30086956521739155
40
0.30260869565217419
40
0.30434782608695682
40
0.30608695652173945
40
0.30782608695652208
40
0.30956521739130471
40
0.31130434782608735
40
0.31304347826086998
40
0.31478260869565261
40
0.31652173913043524
40
0.31826086956521787
40
0.32000000000000051
40
0.32173913043478314
40
0.32347826086956577
40
0.3252173913043484
40
0.32695652173913103
40
0.32869565217391367
40
0.3304347826086963
40
0.33217391304347893
40
0.33391304347826156
40
0.33565217391304419
40
0.33739130434782683
40
0.33913043478260946
40
0.34086956521739209
40
0.34260869565217472
40
0.34434782608695735
40
0.34608695652173999
40
0.34782608695652262
40
0.34956521739130525
40
0.35130434782608788
40
0.35304347826087051
40
0.35478260869565315
40
0.35652173913043578
40
0.35826086956521841
40
0.36000000000000104
40
0.36173913043478367
40
0.36347826086956631
40
0.36521739130434894
40
0.36695652173913157
40
0.3686956521739142
40
0.37043478260869683
40
0.37217391304347947
40
0.3739130434782621
40
0.37565217391304473
40
0.37739130434782736
40
0.37913043478260999
40
0.38086956521739262
40
0.38260869565217526
40
0.38434782608695789
40
0.38608695652174052
40
0.38782608695652315
40
0.38956521739130578
40
0.39130434782608842
40
0.39304347826087105
40
0.39478260869565368
40
0.39652173913043631
40
0.39826086956521894
40
0.40000000000000158
40
0.40173913043478421
40
0.40347826086956684
40
0.40521739130434947
40
0.4069565217391321
40
0.40869565217391474
40
0.41043478260869737
40
0.41217391304348
40
0.41391304347826263
40
0.41565217391304526
40
0.4173913043478279
40
0.41913043478261053
40
0.42086956521739316
40
0.42260869565217579
40
0.42434782608695842
40
0.42608695652174106
40
0.42782608695652369
40
0.42956521739130632
40
0.43130434782608895
40
0.43304347826087158
40
0.43478260869565422
40
0.43652173913043685
40
0.43826086956521948
40
0.44000000000000211
40
0.44173913043478474
40
0.44347826086956738
40
0.44521739130435001
40
0.44695652173913264
40
0.44869565217391527
40
0.4504347826086979
40
0.45217391304348054
40
0.45391304347826317
40
0.4556521739130458
40
0.45739130434782843
40
0.45913043478261106
40
0.4608695652173937
40
0.46260869565217633
40
0.46434782608695896
40
0.46608695652174159
40
0.46782608695652422
40
0.46956521739130685
40
0.47130434782608949
40
0.47304347826087212
40
0.47478260869565475
40
0.47652173913043738
40
0.47826086956522001
40
0.48000000000000265
40
0.48173913043478528
40
0.48347826086956791
40
0.48521739130435054
40
0.48695652173913317
40
0.48869565217391581
40
0.49043478260869844
40
0.49217391304348107
40
0.4939130434782637
40
0.49565217391304633
40
0.49739130434782897
40
0.4991304347826116
40
0.50086956521739423
40
0.50260869565217681
40
0.50434782608695938
40
0.50608695652174196
40
0.50782608695652454
40
0.50956521739130711
40
0.51130434782608969
40
0.51304347826087227
40
0.51478260869565484
40
0.51652173913043742
40
0.51826086956521999
40
0.52000000000000257
40
0.52173913043478515
40
0.52347826086956772
40
0.5252173913043503
40
0.52695652173913288
40
0.52869565217391545
40
0.53043478260869803
40
0.53217391304348061
40
0.53391304347826318
40
0.53565217391304576
40
0.53739130434782834
40
0.53913043478261091
40
0.54086956521739349
40
0.54260869565217607
40
0.54434782608695864
40
0.54608695652174122
40
0.54782608695652379
40
0.54956521739130637
40
0.55130434782608895
40
0.55304347826087152
40
0.5547826086956541
40
0.55652173913043668
40
0.55826086956521925
40
0.56000000000000183
40
0.56173913043478441
40
0.56347826086956698
40
0.56521739130434956
40
0.56695652173913214
40
0.56869565217391471
40
0.57043478260869729
40
0.57217391304347986
40
0.57391304347826244
40
0.57565217391304502
40
0.57739130434782759
40
0.57913043478261017
40
0.58086956521739275
40
0.58260869565217532
40
0.5843478260869579
40
0.58608695652174048
40
0.58782608695652305
40
0.58956521739130563
40
0.59130434782608821
40
0.59304347826087078
40
0.59478260869565336
40
0.59652173913043594
40
0.59826086956521851
40
0.60000000000000109
40
0.60173913043478366
40
0.60347826086956624
40
0.60521739130434882
40
0.60695652173913139
40
0.60869565217391397
40
0.61043478260869655
40
0.61217391304347912
40
0.6139130434782617
40
0.61565217391304428
40
0.61739130434782685
40
0.61913043478260943
40
0.62086956521739201
40
0.62260869565217458
40
0.62434782608695716
40
0.62608695652173973
40
0.62782608695652231
40
0.62956521739130489
40
0.63130434782608746
40
0.63304347826087004
40
0.63478260869565262
40
0.63652173913043519
40
0.63826086956521777
40
0.64000000000000035
40
0.64173913043478292
40
0.6434782608695655
40
0.64521739130434808
40
0.64695652173913065
40
0.64869565217391323
40
0.65043478260869581
40
0.65217391304347838
40
0.65391304347826096
40
0.65565217391304353
40
0.65739130434782611
40
0.65913043478260869
40
0.66086956521739126
40
0.66260869565217384
40
0.66434782608695642
40
0.66608695652173899
40
0.66782608695652157
40
0.66956521739130415
40
0.67130434782608672
40
0.6730434782608693
40
0.67478260869565188
40
0.67652173913043445
40
0.67826086956521703
40
0.6799999999999996
40
0.68173913043478218
40
0.68347826086956476
40
0.68521739130434733
40
0.68695652173912991
40
0.68869565217391249
40
0.69043478260869506
40
0.69217391304347764
40
0.69391304347826022
40
0.69565217391304279
40
0.69739130434782537
40
0.69913043478260795
40
0.70086956521739052
40
0.7026086956521731
40
0.70434782608695568
40
0.70608695652173825
40
0.70782608695652083
40
0.7095652173913034
40
0.71130434782608598
40
0.71304347826086856
40
0.71478260869565113
40
0.71652173913043371
40
0.71826086956521629
40
0.71999999999999886
40
0.72173913043478144
40
0.72347826086956402
40
0.72521739130434659
40
0.72695652173912917
40
0.72869565217391175
40
0.73043478260869432
40
0.7321739130434769
40
0.73391304347825947
40
0.73565217391304205
40
0.73739130434782463
40
0.7391304347826072
40
0.74086956521738978
40
0.74260869565217236
40
0.74434782608695493
40
0.74608695652173751
40
0.74782608695652009
40
0.74956521739130266
40
0.75130434782608524
40
0.75304347826086782
40
0.75478260869565039
40
0.75652173913043297
40
0.75826086956521555
40
0.75999999999999812
40
0.7617391304347807
40
0.76347826086956327
40
0.76521739130434585
40
0.76695652173912843
40
0.768695652173911
40
0.77043478260869358
40
0.77217391304347616
40
0.77391304347825873
40
0.77565217391304131
40
0.77739130434782389
40
0.77913043478260646
40
0.78086956521738904
40
0.78260869565217162
40
0.78434782608695419
40
0.78608695652173677
40
0.78782608695651934
40
0.78956521739130192
40
0.7913043478260845
40
0.79304347826086707
40
0.79478260869564965
40
0.79652173913043223
40
0.7982608695652148
40
0.79999999999999738
40
0.80173913043477996
40
0.80347826086956253
40
0.80521739130434511
40
0.80695652173912769
40
0.80869565217391026
40
0.81043478260869284
40
0.81217391304347542
40
0.81391304347825799
40
0.81565217391304057
40
0.81739130434782314
40
0.81913043478260572
40
0.8208695652173883
40
0.82260869565217087
40
0.82434782608695345
40
0.82608695652173603
40
0.8278260869565186
40
0.82956521739130118
40
0.83130434782608376
40
0.83304347826086633
40
0.83478260869564891
40
0.83652173913043149
40
0.83826086956521406
40
0.83999999999999664
40
0.84173913043477921
40
0.84347826086956179
40
0.84521739130434437
40
0.84695652173912694
40
0.84869565217390952
40
0.8504347826086921
40
0.85217391304347467
40
0.85391304347825725
40
0.85565217391303983
40
0.8573913043478224
40
0.85913043478260498
40
0.86086956521738756
40
0.86260869565217013
40
0.86434782608695271
40
0.86608695652173529
40
0.86782608695651786
40
0.86956521739130044
40
0.87130434782608301
40
0.87304347826086559
40
0.87478260869564817
40
0.87652173913043074
40
0.87826086956521332
40
0.8799999999999959
40
0.88173913043477847
40
0.88347826086956105
40
0.88521739130434363
40
0.8869565217391262
40
0.88869565217390878
40
0.89043478260869136
40
0.89217391304347393
40
0.89391304347825651
40
0.89565217391303908
40
0.89739130434782166
40
0.89913043478260424
40
0.90086956521738681
40
0.90260869565216939
40
0.90434782608695197
40
0.90608695652173454
40
0.90782608695651712
40
0.9095652173912997
40
0.91130434782608227
40
0.91304347826086485
40
0.91478260869564743
40
0.91652173913043
40
0.91826086956521258
40
0.91999999999999515
40
0.92173913043477773
40
0.92347826086956031
40
0.92521739130434288
40
0.92695652173912546
40
0.92869565217390804
40
0.93043478260869061
40
0.93217391304347319
40
0.93391304347825577
40
0.93565217391303834
40
0.93739130434782092
40
0.9391304347826035
40
0.94086956521738607
40
0.94260869565216865
40
0.94434782608695123
40
0.9460869565217338
40
0.94782608695651638
40
0.94956521739129895
40
0.95130434782608153
40
0.95304347826086411
40
0.95478260869564668
40
0.95652173913042926
40
0.95826086956521184
40
0.95999999999999441
40
0.96173913043477699
40
0.96347826086955957
40
0.96521739130434214
40
0.96695652173912472
40
0.9686956521739073
40
0.97043478260868987
40
0.97217391304347245
40
0.97391304347825502
40
0.9756521739130376
40
0.97739130434782018
40
0.97913043478260275
40
0.98086956521738533
40
0.98260869565216791
40
0.98434782608695048
40
0.98608695652173306
40
0.98782608695651564
40
0.98956521739129821
40
0.99130434782608079
40
0.99304347826086337
40
0.99478260869564594
40
0.99652173913042852
40
0.9982608695652111
40
1
40
1
40
1
40
1
40
1
40
1
41
1
41
1
41
1
41
1
41
1
41
1
41
1
41
1
41
1
41
1
41
1
41
1
41
1
41
1
41
1
41
1
41
1
41
1
41
1
41
1
41
1
41
1
41
1
41
1
41
1
41
1
41
1
41
1
41
1
41
1
41
1
41
1
41
1
41
1
41
1
41
1
41
1
41
1
41
1
41
1
41
1
41
1
41
1
41
1
41
1
41
1
41
1
41
1
41
1
41
1
41
1
41
1
41
1
41
1
41
1
41
1
41
1
41
1
41
1
41
1
41
1
41
1
41
1
41
1
41
1
41
1
41
1
41
1
41
1
41
1
41
1
41
1
41
1
41
1
41
1
41
1
41
1
41
1
41
1
41
1
41
1
41
1
41
1
41
1
41
1
41
1
41
1
41
1
41
1
41
1
41
1
41
1
41
1
41
1
41
1
41
1
41
1
41
1
41
1
41
1
41
1
41
1
41
1
41
1
41
1
41
1
41
1
41
1
41
1
41
1
41
1
41
1
41
1
41
1
41
1
41
1
41
1
41
1
41
1
41
1
41
1
41
1
41
1
41
1
41
1
41
1
41
1
41
1
41
1
41
1
41
1
41
1
41
1
41
1
41
1
41
1
41
1
41
1
41
1
41
1
41
1
41
1
41
1
41
1
41
1
41
1
41
1
41
1
41
1
41
1
41
1
41
1
41
1
41
1
41
1
41
1
41
1
41
1
41
1
41
1
41
1
41
1
41
1
41
1
41
1
41
1
41
1
41
1
41
1
41
1
41
1
41
1
41
1
41
1
41
1
41
1
41
1
41
1
41
1
41
1
41
1
41
1
41
1
41
1
41
1
41
1
41
1
41
1
41
1
41
1
41
1
41
1
41
1
41
1
41
1
41
1
41
1
41
1
41
1
41
1
41
1
41
1
41
1
41
1
41
1
41
1
41
1
41
1
41
1
41
1
41
1
41
1
41
1
41
1
41
1
41
1
41
1
41
1
41
1
41
1
41
1
41
1
41
1
41
1
41
1
41
1
41
1
41
1
41
1
41
1
41
1
41
1
41
1
41
1
41
1
41
1
41
1
41
1
41
1
41
1
41
1
41
1
41
1
41
1
41
1
41
1
41
1
41
1
41
1
41
1
41
1
41
1
41
1
41
1
41
1
41
1
41
1
41
1
41
1
41
1
41
1
41
1
41
1
41
1
41
1
41
1
41
1
41
1
41
1
41
1
41
1
41
1
41
1
41
1
41
1
41
1
41
1
41
1
41
1
41
1
41
1
41
1
41
1
41
1
41
1
41
1
41
1
41
1
41
1
41
1
41
1
41
1
41
1
41
1
41
1
41
1
41
1
41
1
41
1
41
1
41
1
41
1
41
1
41
1
41
1
41
1
41
1
41
1
41
1
41
1
41
1
41
1
41
1
41
1
41
1
41
1
41
1
41
1
41
1
41
1
41
1
41
1
41
1
41
1
41
1
41
1
41
1
41
1
41
1
41
1
41
1
41
1
41
1
41
1
41
1
41
1
41
1
41
1
41
1
41
1
41
1
41
1
41
1
41
1
41
1
41
1
41
1
41
1
41
1
41
1
41
1
41
1
41
1
41
1
41
1
41
1
41
1
41
1
41
1
41
1
41
1
41
1
41
1
41
1
41
1
41
1
41
1
41
1
41
1
41
1
41
1
41
1
41
1
41
1
41
1
41
1
41
1
41
1
41
1
41
1
41
1
41
1
41
1
41
1
41
1
41
1
41
1
41
1
41
1
41
1
41
1
41
1
41
1
41
1
41
1
41
1
41
1
41
1
41
1
41
1
41
1
41
1
41
1
41
1
41
1
41
1
41
1
41
1
41
1
41
1
41
1
41
1
41
1
41
1
41
1
41
1
41
1
41
1
41
1
41
1
41
1
41
1
41
1
41
1
41
1
41
1
41
1
41
1
41
1
41
1
41
1
41
1
41
1
41
1
41
1
41
1
41
1
41
1
41
1
41
1
41
1
41
1
41
1
41
1
41
1
41
1
41
1
41
1
41
1
41
1
41
1
41
1
41
1
41
1
41
1
41
1
41
1
41
1
41
1
41
1
41
1
41
1
41
1
41
1
41
1
41
1
41
1
41
1
41
1
41
1
41
1
41
1
41
1
41
1
41
1
41
1
41
1
41
1
41
1
41
1
41
1
41
1
41
1
41
1
41
1
41
1
41
1
41
1
41
1
41
1
41
1
41
1
41
1
41
1
41
1
41
1
41
1
41
1
41
1
41
1
41
1
41
1
41
1
41
1
41
1
41
1
41
1
41
1
41
1
41
1
41
1
41
1
41
1
41
1
41
1
41
1
41
1
41
1
41
1
41
1
41
1
41
1
41
1
41
1
41
1
41
1
41
1
41
1
41
1
41
1
41
1
41
1
41
1
41
1
41
1
41
1
41
1
41
1
41
1
41
1
41
1
41
1
41
1
41
1
41
1
41
1
41
1
41
1
41
1
41
1
41
1
41
1
41
1
41
1
41
1
41
1
41
1
41
1
41
1
41
1
41
1
41
1
41
1
41
1
41
1
41
1
41
1
41
1
41
1
41
1
41
1
41
1
41
1
41
1
41
1
41
1
41
1
41
1
41
1
41
1
10
12.679100000000002
20
-113.0154
30
0
10
12.591866796948565
20
-113.04050014103596
30
0
10
12.417117006227143
20
-113.08685977404923
30
0
10
12.152568036042945
20
-113.1458112073332
30
0
10
11.785012265399837
20
-113.20535309675648
30
0
10
11.270806701882547
20
-113.2514963592844
30
0
10
10.680423273051819
20
-113.27821469127954
30
0
10
10.013179164196204
20
-113.30535650764216
30
0
10
9.2843764088532126
20
-113.35558828451198
30
0
10
8.5218766434068254
20
-113.44732068213429
30
0
10
7.7622275510042851
20
-113.5871688871576
30
0
10
7.0468390078635279
20
-113.76274027993956
30
0
10
6.4079695250259601
20
-113.95062074195064
30
0
10
5.8544011440883148
20
-114.1243846978343
30
0
10
5.3580980564558613
20
-114.26235446267221
30
0
10
4.8381370276236737
20
-114.35609778884458
30
0
10
4.1882468933935133
20
-114.40744857435162
30
0
10
3.3088907168207231
20
-114.42452087529264
30
0
10
2.1357867287348222
20
-114.41822596693994
30
0
10
0.67483801755265249
20
-114.39822041997661
30
0
10
-1.0095342992799168
20
-114.37228134139394
30
0
10
-2.8149283443235653
20
-114.3463003702641
30
0
10
-4.6183480967307773
20
-114.32407061302152
30
0
10
-6.2950957086605817
20
-114.30714842180102
30
0
10
-7.736594603773935
20
-114.29471073287695
30
0
10
-8.8696537477467547
20
-114.28334984389929
30
0
10
-9.6728288554066584
20
-114.26704499060199
30
0
10
-10.199469004481953
20
-114.23670252932757
30
0
10
-10.582191735668928
20
-114.18087084168653
30
0
10
-10.961659045128256
20
-114.09006428448822
30
0
10
-11.411663134239001
20
-113.96230909959984
30
0
10
-11.902415211696983
20
-113.80376850047534
30
0
10
-12.370877663649317
20
-113.61952402287805
30
0
10
-12.784821694570015
20
-113.40145918341543
30
0
10
-13.16830747285656
20
-113.13097637066781
30
0
10
-13.553250135375599
20
-112.79995056738444
30
0
10
-13.934744870852505
20
-112.43924584276436
30
0
10
-14.271146221426864
20
-112.10492030137107
30
0
10
-14.535175023355549
20
-111.82669500613696
30
0
10
-14.766898278491222
20
-111.54742443708157
30
0
10
-15.062784736788062
20
-111.14219421682195
30
0
10
-15.516633511774122
20
-110.49334607060234
30
0
10
-16.164555491002925
20
-109.56264547130276
30
0
10
-16.980073035467516
20
-108.39594768678511
30
0
10
-17.898787034426618
20
-107.08911604463081
30
0
10
-18.833401330148448
20
-105.7665193652914
30
0
10
-19.692701316825914
20
-104.55439832304003
30
0
10
-20.398998274575693
20
-103.55616423795175
30
0
10
-20.905855034952303
20
-102.82749338154873
30
0
10
-21.216585071857047
20
-102.35003025694466
30
0
10
-21.40003545219399
20
-102.00960095869257
30
0
10
-21.54532491763301
20
-101.66893186168903
30
0
10
-21.714372267606418
20
-101.24516034552329
30
0
10
-21.905329915125904
20
-100.76668180806598
30
0
10
-22.090903293410697
20
-100.29334262073843
30
0
10
-22.252727130328438
20
-99.841590966546207
30
0
10
-22.406740997290079
20
-99.332920124657335
30
0
10
-22.584471983338329
20
-98.647479142217065
30
0
10
-22.82212108126901
20
-97.659018842909319
30
0
10
-23.145819228040754
20
-96.279506997928848
30
0
10
-23.560679076281925
20
-94.492944056239622
30
0
10
-24.056036490430607
20
-92.338790127883243
30
0
10
-24.609119941335752
20
-89.900415389546126
30
0
10
-25.189318515627694
20
-87.291633228281569
30
0
10
-25.762186009929131
20
-84.644069275717385
30
0
10
-26.29358049294424
20
-82.094123700688243
30
0
10
-26.753694218086153
20
-79.770219709323015
30
0
10
-27.12124997362961
20
-77.779671136227009
30
0
10
-27.387349169672003
20
-76.196311943280946
30
0
10
-27.560113060664328
20
-75.046407158140482
30
0
10
-27.667485079670975
20
-74.298540757253889
30
0
10
-27.76440798271906
20
-73.844039238148028
30
0
10
-27.927341896881479
20
-73.504908429449628
30
0
10
-28.217270059759755
20
-73.112803112287068
30
0
10
-28.639606374635378
20
-72.591886744495582
30
0
10
-29.131175631565974
20
-71.991397211714485
30
0
10
-29.607238912775653
20
-71.405089396263321
30
0
10
-29.991960362149143
20
-70.921404287892784
30
0
10
-30.262767259368033
20
-70.548834861999751
30
0
10
-30.46660079342
20
-70.189963730273021
30
0
10
-30.669038251594607
20
-69.729409833866768
30
0
10
-30.906905658541291
20
-69.117273787862871
30
0
10
-31.164706374073532
20
-68.407354962516976
30
0
10
-31.406404335562801
20
-67.692330580792031
30
0
10
-31.592768806452135
20
-67.065871462609564
30
0
10
-31.708324743171037
20
-66.566567389996266
30
0
10
-31.772466313783884
20
-66.152486305403045
30
0
10
-31.81660886363742
20
-65.744050180090653
30
0
10
-31.864103392003059
20
-65.258962838209726
30
0
10
-31.919038567171377
20
-64.637613567348836
30
0
10
-31.975982485850018
20
-63.841951043787191
30
0
10
-32.024483907550398
20
-62.860185595887771
30
0
10
-32.056351471689297
20
-61.710421042738162
30
0
10
-32.069657738517151
20
-60.440644348458655
30
0
10
-32.066632874065675
20
-59.115559875911671
30
0
10
-32.052601511234215
20
-57.8059246018232
30
0
10
-32.03452265184103
20
-56.577025641809598
30
0
10
-32.019674345591561
20
-55.477204472137025
30
0
10
-32.014332963929547
20
-54.527104338760338
30
0
10
-32.022318443122494
20
-53.706822116130759
30
0
10
-32.044015263397576
20
-52.949439450963439
30
0
10
-32.077356120131441
20
-52.160407837815697
30
0
10
-32.118502652334875
20
-51.232795714709425
30
0
10
-32.162659940667233
20
-50.064696142778622
30
0
10
-32.204798878217858
20
-48.574467889462845
30
0
10
-32.240503993536784
20
-46.719956461664871
30
0
10
-32.266452684559603
20
-44.504832296446693
30
0
10
-32.280423985978246
20
-41.96813449495265
30
0
10
-32.281423845308119
20
-39.177991822241296
30
0
10
-32.269763353300739
20
-36.223651124822844
30
0
10
-32.247156867913937
20
-33.208231640708057
30
0
10
-32.216812215023992
20
-30.241164566375488
30
0
10
-32.183522919770915
20
-27.43077465249273
30
0
10
-32.153762875106182
20
-24.8767859568304
30
0
10
-32.135772381364383
20
-22.662894289191012
30
0
10
-32.139665622803335
20
-20.849231287793955
30
0
10
-32.177487872398515
20
-19.465059051766914
30
0
10
-32.263389976514325
20
-18.50093600722742
30
0
10
-32.413526065510311
20
-17.902123170533049
30
0
10
-32.646696011132235
20
-17.558697612555285
30
0
10
-32.973645841812157
20
-17.342175809993204
30
0
10
-33.384540748964795
20
-17.147987747355113
30
0
10
-33.838760459740584
20
-16.93260918328469
30
0
10
-34.285593923703537
20
-16.68657168976069
30
0
10
-34.685557665571714
20
-16.407378156920164
30
0
10
-35.026730863485163
20
-16.07891085929861
30
0
10
-35.310384318292591
20
-15.68887037859945
30
0
10
-35.53852311271104
20
-15.246430679866405
30
0
10
-35.705233841389997
20
-14.787311184564809
30
0
10
-35.803530356423288
20
-14.343011119468347
30
0
10
-35.830130742369576
20
-13.908413299708469
30
0
10
-35.78858216716506
20
-13.434597375297654
30
0
10
-35.686979724377707
20
-12.866025359679876
30
0
10
-35.537060984358149
20
-12.17413110259265
30
0
10
-35.352568165325224
20
-11.368929452482181
30
0
10
-35.147678333752872
20
-10.479907760640437
30
0
10
-34.935299330684153
20
-9.5447746730790222
30
0
10
-34.72559228498146
20
-8.5961764094831121
30
0
10
-34.523983696890078
20
-7.6463902176842833
30
0
10
-34.330974614019965
20
-6.6839342259536494
30
0
10
-34.143969190142805
20
-5.6846048905524551
30
0
10
-33.958573619111135
20
-4.6186827629450056
30
0
10
-33.770112751799715
20
-3.4597147268906263
30
0
10
-33.575048795763237
20
-2.1925905044833534
30
0
10
-33.372453327250362
20
-0.82199584578776064
30
0
10
-33.16542505219909
20
0.61950081805125912
30
0
10
-32.959822495013235
20
2.0810176087406322
30
0
10
-32.763037714209425
20
3.5026515669150662
30
0
10
-32.582741186858001
20
4.8249811018524662
30
0
10
-32.425670063299016
20
5.9982339774534541
30
0
10
-32.296325624519341
20
6.9921677182268551
30
0
10
-32.19587812570343
20
7.8043171237332389
30
0
10
-32.120571736214984
20
8.4721806063699017
30
0
10
-32.061781906483105
20
9.0723854129746666
30
0
10
-32.008944020423627
20
9.6972285191282914
30
0
10
-31.951693904380477
20
10.437425444075689
30
0
10
-31.882614864529941
20
11.360085907341981
30
0
10
-31.79880385456331
20
12.495975486412117
30
0
10
-31.70073479457081
20
13.848027160415183
30
0
10
-31.591622968540456
20
15.395912638239885
30
0
10
-31.4765924060016
20
17.102164765034157
30
0
10
-31.36192522437802
20
18.917650270000845
30
0
10
-31.254280737301514
20
20.787292470783875
30
0
10
-31.159915990593415
20
22.655754107123506
30
0
10
-31.08393270429135
20
24.472979127596005
30
0
10
-31.029448224715455
20
26.200173388591409
30
0
10
-30.996991984804918
20
27.814467969795551
30
0
10
-30.985133133177104
20
29.306375525280544
30
0
10
-30.990956557332801
20
30.678134408441409
30
0
10
-31.010597594299668
20
31.941709277193368
30
0
10
-31.039751680943763
20
33.116938225439661
30
0
10
-31.074194888217317
20
34.229616943939753
30
0
10
-31.110299492563648
20
35.309610431998671
30
0
10
-31.145552345396968
20
36.388952227456109
30
0
10
-31.179070257920706
20
37.499951096679112
30
0
10
-31.211297880018257
20
38.674331250838641
30
0
10
-31.243707181670469
20
39.942369624051082
30
0
10
-31.278497009917523
20
41.332036586358072
30
0
10
-31.318291188494207
20
42.868129680995402
30
0
10
-31.365840593050123
20
44.571422984683608
30
0
10
-31.423715765584255
20
46.457780195469041
30
0
10
-31.494021689980425
20
48.537351985083831
30
0
10
-31.578059103732027
20
50.813570068336517
30
0
10
-31.676156997407332
20
53.282791800953831
30
0
10
-31.78783832312126
20
55.935211008804906
30
0
10
-31.911913916815617
20
58.755495966471749
30
0
10
-32.046605142336674
20
61.723536484141135
30
0
10
-32.189654249263604
20
64.815144264837926
30
0
10
-32.338440005294139
20
68.002773276089755
30
0
10
-32.490091050963642
20
71.25623142884767
30
0
10
-32.641600225137381
20
74.543395938539831
30
0
10
-32.789938477990724
20
77.830927055505171
30
0
10
-32.932168939327141
20
81.084982466569869
30
0
10
-33.065560970224453
20
84.271931393962447
30
0
10
-33.187704111727747
20
87.359068821041305
30
0
10
-33.296622348158628
20
90.315329686594225
30
0
10
-33.390887629738295
20
93.112003104189668
30
0
10
-33.469735150593571
20
95.723446659674423
30
0
10
-33.533174566184172
20
98.127800633696225
30
0
10
-33.5821108473246
20
100.30770258602556
30
0
10
-33.618438857370549
20
102.25100088409691
30
0
10
-33.644508874698829
20
103.95139921733755
30
0
10
-33.662613805670382
20
105.40911212530118
30
0
10
-33.674471530177357
20
106.63149997114418
30
0
10
-33.680701886197745
20
107.63375025261654
30
0
10
-33.680323116597187
20
108.43945237581637
30
0
10
-33.670199965371452
20
109.08142024326061
30
0
10
-33.644606695834433
20
109.60193276844343
30
0
10
-33.594489761533168
20
110.05449120330638
30
0
10
-33.509927882133631
20
110.48950140200311
30
0
10
-33.382966920536163
20
110.93811834994007
30
0
10
-33.210373895145096
20
111.39636637879248
30
0
10
-32.992206221591836
20
111.84199882004276
30
0
10
-32.730207191793419
20
112.25284379832381
30
0
10
-32.426435089152918
20
112.62277988948796
30
0
10
-32.083840464938675
20
112.95408018938419
30
0
10
-31.706859234743678
20
113.25074927930027
30
0
10
-31.301641821279812
20
113.51295356495086
30
0
10
-30.874663686647871
20
113.73939160475541
30
0
10
-30.431330391575251
20
113.92858401806465
30
0
10
-29.975235503573746
20
114.08034664376822
30
0
10
-29.509148382485467
20
114.19612406115061
30
0
10
-29.035880964014005
20
114.27985388030652
30
0
10
-28.558531093157047
20
114.33776545695329
30
0
10
-28.079649516459956
20
114.37661132924156
30
0
10
-27.600401256910224
20
114.40234264346635
30
0
10
-27.120669127606831
20
114.41841197567288
30
0
10
-26.640177934153652
20
114.42459496145304
30
0
10
-26.159548141339087
20
114.41459973612785
30
0
10
-25.680504104289909
20
114.3784117489011
30
0
10
-25.205384376963092
20
114.30708733989965
30
0
10
-24.736816529627642
20
114.19821904024326
30
0
10
-24.277595980137683
20
114.05416502745389
30
0
10
-23.830781869888995
20
113.87733015449827
30
0
10
-23.399632650545641
20
113.66531975837435
30
0
10
-22.988122967708584
20
113.41360015700809
30
0
10
-22.601449385259741
20
113.12006070225793
30
0
10
-22.246832836372391
20
112.78960885277193
30
0
10
-21.930610974260347
20
112.43017021838442
30
0
10
-21.654904117704895
20
112.04752917496337
30
0
10
-21.414387490866474
20
111.6405304004944
30
0
10
-21.199027354208763
20
111.20009281678963
30
0
10
-20.996993882191049
20
110.70818817993442
30
0
10
-20.797316082182821
20
110.13721038720104
30
0
10
-20.590073234697172
20
109.45433480184511
30
0
10
-20.366756935467748
20
108.62551334721232
30
0
10
-20.120568511886212
20
107.61960708366823
30
0
10
-19.846744340510892
20
106.4124641218221
30
0
10
-19.542350512237302
20
104.98649380739928
30
0
10
-19.206082081645178
20
103.33022561368418
30
0
10
-18.83806034785232
20
101.43787448419485
30
0
10
-18.439631015444718
20
99.30890353275494
30
0
10
-18.013162004305158
20
96.947587995051208
30
0
10
-17.561841431947464
20
94.362578745954394
30
0
10
-17.089475543963204
20
91.566466099932811
30
0
10
-16.600286672534775
20
88.575343574738554
30
0
10
-16.098711213091622
20
85.408371750848204
30
0
10
-15.589197552271274
20
82.087342151065187
30
0
10
-15.07600412691569
20
78.636241185211503
30
0
10
-14.562997171875887
20
75.080814081088945
30
0
10
-14.053449181412187
20
71.448128943218279
30
0
10
-13.549835661885925
20
67.766140593824844
30
0
10
-13.053636479243696
20
64.063255068833371
30
0
10
-12.565513359861701
20
60.367946464556475
30
0
10
-12.085482917799162
20
56.70837316749644
30
0
10
-11.613091337542158
20
53.111994304484035
30
0
10
-11.14758833392743
20
49.605186098323422
30
0
10
-10.688101439032938
20
46.212858217525124
30
0
10
-10.233810089783866
20
42.958070160298533
30
0
10
-9.7841199286624381
20
39.861647446717789
30
0
10
-9.3388367206292831
20
36.941798174241811
30
0
10
-8.8983411293734669
20
34.213728607176812
30
0
10
-8.4637615396510064
20
31.689260877786008
30
0
10
-8.0371514398098434
20
29.376445628352805
30
0
10
-7.6216562563297883
20
27.279186230748532
30
0
10
-7.2217047322500258
20
25.396835925715592
30
0
10
-6.8431433551273386
20
23.723857650713207
30
0
10
-6.493503231564195
20
22.249337918717895
30
0
10
-6.1819567394160426
20
20.956842368183494
30
0
10
-5.9200572166789653
20
19.823408925085175
30
0
10
-5.7183334972840782
20
18.823098415622663
30
0
10
-5.5812050398960036
20
17.932375785186267
30
0
10
-5.5025444692456595
20
17.13481160305345
30
0
10
-5.460743372802062
20
16.426256241957152
30
0
10
-5.4145246150243
20
15.819365982042834
30
0
10
-5.2969482472456058
20
15.349648117781598
30
0
10
-5.0460529462562898
20
15.050869456699743
30
0
10
-4.6394560513095904
20
14.927144828790226
30
0
10
-4.1239113608439331
20
14.929248052929855
30
0
10
-3.5752411300303679
20
14.986228395514139
30
0
10
-3.0580762649179265
20
15.038058225860009
30
0
10
-2.5940180680893428
20
15.059175709843354
30
0
10
-2.1728977324000569
20
15.042605060481387
30
0
10
-1.7545191733571825
20
14.988585936908329
30
0
10
-1.2824185251574325
20
14.895553987923687
30
0
10
-0.71230681108411975
20
14.763416121344303
30
0
10
-0.045291782458879028
20
14.593889330048718
30
0
10
0.66513354083501774
20
14.393072959570684
30
0
10
1.3505350167574015
20
14.17693662500692
30
0
10
1.9507708295347066
20
13.974126655307
30
0
10
2.4507129302014898
20
13.834428813336446
30
0
10
2.8868747686956002
20
13.820835919233637
30
0
10
3.301845295913088
20
13.976759094535447
30
0
10
3.6964995349926633
20
14.284621515629205
30
0
10
4.0234686260130328
20
14.671257281121896
30
0
10
4.2364134450837563
20
15.069222148253195
30
0
10
4.337184791243633
20
15.481355746432861
30
0
10
4.3746626324035081
20
15.973637821928577
30
0
10
4.4069481159929476
20
16.617554399648835
30
0
10
4.4690900445161024
20
17.438145069300319
30
0
10
4.5683598602550468
20
18.410353015313628
30
0
10
4.6956038587510971
20
19.482024788430419
30
0
10
4.8311574892561673
20
20.58791326217667
30
0
10
4.9531365835157208
20
21.667712573266428
30
0
10
5.044472680339612
20
22.68173166221753
30
0
10
5.1011224066861285
20
23.629280729425194
30
0
10
5.1291311015148766
20
24.537495635088931
30
0
10
5.1408704726036545
20
25.447925404109142
30
0
10
5.1515247827533877
20
26.403711764759908
30
0
10
5.1755704495426427
20
27.43698041925224
30
0
10
5.223025656880087
20
28.555045492743758
30
0
10
5.2964838005022141
20
29.730345217402167
30
0
10
5.3934716291746829
20
30.915298828550746
30
0
10
5.5082505656420739
20
32.054622739299987
30
0
10
5.6337972454119907
20
33.098339950423558
30
0
10
5.763787970032304
20
34.015143433233341
30
0
10
5.8943938071834694
20
34.804089363851702
30
0
10
6.0266353958291861
20
35.510878155888776
30
0
10
6.1658906064009216
20
36.221072710481991
30
0
10
6.3201227501473634
20
37.042965948797836
30
0
10
6.4985256526081523
20
38.093835361292243
30
0
10
6.7099772693721267
20
39.484607724765304
30
0
10
6.9616177559046291
20
41.305630036917684
30
0
10
7.257260219353018
20
43.610823818067608
30
0
10
7.5976521041456948
20
46.420367051777262
30
0
10
7.9809008265344268
20
49.725034081230049
30
0
10
8.4028408185871779
20
53.489943189649566
30
0
10
8.8574252253464039
20
57.658553397317647
30
0
10
9.3371069648060008
20
62.156553668971092
30
0
10
9.8332243385622089
20
66.89579809678925
30
0
10
10.336384643780471
20
71.7782208288357
30
0
10
10.836848658653878
20
76.699759811416214
30
0
10
11.324914670389392
20
81.554275823308572
30
0
10
11.791302864777586
20
86.237475236042485
30
0
10
12.227539180429861
20
90.65082707835009
30
0
10
12.626340304901852
20
94.705492185289287
30
0
10
12.981996119174788
20
98.326225179112811
30
0
10
13.290758108754106
20
101.45533984235243
30
0
10
13.551214010735944
20
104.05652809432118
30
0
10
13.764694525182222
20
106.11901984664549
30
0
10
13.935605677039142
20
107.66095226943875
30
0
10
14.071934076864158
20
108.73457736896661
30
0
10
14.185348807401965
20
109.42718092891005
30
0
10
14.292286261733123
20
109.87244389871759
30
0
10
14.411496426830819
20
110.22441991911334
30
0
10
14.559182805864744
20
110.60723554935093
30
0
10
14.743429732962735
20
111.05515002507119
30
0
10
14.964891284396932
20
111.52714572588977
30
0
10
15.221204864229236
20
111.96443835825426
30
0
10
15.511018901174642
20
112.34543875998527
30
0
10
15.833992833281034
20
112.68303913017243
30
0
10
16.189005003143031
20
112.99691859691008
30
0
10
16.57265927401842
20
113.29064235188454
30
0
10
16.98010500770334
20
113.55552505629811
30
0
10
17.406470112872711
20
113.78214447844928
30
0
10
17.848178668319271
20
113.96991831152846
30
0
10
18.302547245377102
20
114.12340173773271
30
0
10
18.767183914492865
20
114.24678409643249
30
0
10
19.23947172354719
20
114.33924711663821
30
0
10
19.716792730570749
20
114.39853353753742
30
0
10
20.196744298545894
20
114.42478719820643
30
0
10
20.677372667890261
20
114.42356729583501
30
0
10
21.157320470618764
20
114.40237625081137
30
0
10
21.636101441226984
20
114.3676961414489
30
0
10
22.114019045991817
20
114.3221295467967
30
0
10
22.590986875666257
20
114.26400551715636
30
0
10
23.06529435896153
20
114.18567219595542
30
0
10
23.533041037814645
20
114.07482261349061
30
0
10
23.989235258677123
20
113.92048258186391
30
0
10
24.428605009947574
20
113.72015645407271
30
0
10
24.846321055649959
20
113.48002541227433
30
0
10
25.238113348833032
20
113.20678618083033
30
0
10
25.600844679067656
20
112.89820152571954
30
0
10
25.931884870191936
20
112.54596546572444
30
0
10
26.227991343928501
20
112.14761696602687
30
0
10
26.483459643194003
20
111.72171892967414
30
0
10
26.692231971747916
20
111.29677384420668
30
0
10
26.851822936406609
20
110.88672624503424
30
0
10
26.967822884761901
20
110.46420989993878
30
0
10
27.051796191175875
20
109.97070222919783
30
0
10
27.116771031447978
20
109.34056896291438
30
0
10
27.173057414170472
20
108.52294520602987
30
0
10
27.227884565122984
20
107.48382389235101
30
0
10
27.286029749964293
20
106.20287721497968
30
0
10
27.350090713870831
20
104.67217697174989
30
0
10
27.42090872507201
20
102.89411244214533
30
0
10
27.497926320902973
20
100.87965559254278
30
0
10
27.579574390616386
20
98.646471711002818
30
0
10
27.663643679140204
20
96.217108923991958
30
0
10
27.747669782480724
20
93.61712554870445
30
0
10
27.829296319963944
20
90.873310940499593
30
0
10
27.906689648903814
20
88.011690617080404
30
0
10
27.978549929971162
20
85.057212761185141
30
0
10
28.044045804936971
20
82.033752627434865
30
0
10
28.102775586316607
20
78.964006649673578
30
0
10
28.154717315356116
20
75.869432875219104
30
0
10
28.200183609285297
20
72.770171473482662
30
0
10
28.239774454965495
20
69.684973799124691
30
0
10
28.274330891598701
20
66.631127732709942
30
0
10
28.304888319582222
20
63.624384617744838
30
0
10
28.332629966491083
20
60.678885422510845
30
0
10
28.358840308006879
20
57.807087331654621
30
0
10
28.384858466149893
20
55.019689816556124
30
0
10
28.412031722173285
20
52.325561592358021
30
0
10
28.441668740326786
20
49.731665531410385
30
0
10
28.474993473583929
20
47.242988187593291
30
0
10
28.513097476773602
20
44.862458525623296
30
0
10
28.556895952015786
20
42.590891860893436
30
0
10
28.607074272567957
20
40.42686943697823
30
0
10
28.664093918188158
20
38.367019482982066
30
0
10
28.728215195582983
20
36.406411675762342
30
0
10
28.799514304958898
20
34.538913429158306
30
0
10
28.877902773566557
20
32.757562093324935
30
0
10
28.963145860392192
20
31.054930404609063
30
0
10
29.05488142133364
20
29.423494592701395
30
0
10
29.152638524908959
20
27.856001886680346
30
0
10
29.255856285323489
20
26.345837011301857
30
0
10
29.363902338498352
20
24.887392088235664
30
0
10
29.476092087516427
20
23.476428094076351
30
0
10
29.591705945545492
20
22.110459092777937
30
0
10
29.710095844700287
20
20.788057585265459
30
0
10
29.83079266029808
20
19.508141263860999
30
0
10
29.953615256264751
20
18.269257586570404
30
0
10
30.078774438222403
20
17.068889654023735
30
0
10
30.206989317718609
20
15.902705715346903
30
0
10
30.339574522563918
20
14.763942971782782
30
0
10
30.478597751230918
20
13.642466526836758
30
0
10
30.626813296395454
20
12.524863773606169
30
0
10
30.787151849019672
20
11.396593710126925
30
0
10
30.962300618965898
20
10.243713464758507
30
0
10
31.154256271539818
20
9.0547420585638712
30
0
10
31.36386898548842
20
7.8225385636276972
30
0
10
31.590437985078271
20
6.5460042410620778
30
0
10
31.83116997015172
20
5.2322700751402875
30
0
10
32.081062916424955
20
3.8973703468163712
30
0
10
32.334005555236359
20
2.5625935431825959
30
0
10
32.583648510256054
20
1.2516370436788982
30
0
10
32.824382968703837
20
-0.012599910743928982
30
0
10
33.052234007431444
20
-1.2109683209305857
30
0
10
33.265882235303657
20
-2.3313646055858248
30
0
10
33.467415716333363
20
-3.3713315550741827
30
0
10
33.663740102985223
20
-4.3423394462033587
30
0
10
33.865042011643503
20
-5.2665596243362884
30
0
10
34.081566722736632
20
-6.169351726957828
30
0
10
34.320970553920532
20
-7.0732011183777583
30
0
10
34.585311961425859
20
-7.9907667147363242
30
0
10
34.868485303950074
20
-8.9189850352505697
30
0
10
35.152704099848556
20
-9.8309392296833433
30
0
10
35.413230423629201
20
-10.686966518415378
30
0
10
35.624220793470961
20
-11.448294521302032
30
0
10
35.764440641967646
20
-12.090534591704765
30
0
10
35.822442424571356
20
-12.615544401639669
30
0
10
35.803529867147958
20
-13.068436835297206
30
0
10
35.720158396023521
20
-13.507261137748859
30
0
10
35.579978844213933
20
-13.965983289468324
30
0
10
35.374104950328366
20
-14.418037143134146
30
0
10
35.08955802851505
20
-14.812195238738006
30
0
10
34.723587198798157
20
-15.114184392455778
30
0
10
34.295427841794968
20
-15.340339110488909
30
0
10
33.833069684172536
20
-15.522537010092845
30
0
10
33.360598460987873
20
-15.670958225947514
30
0
10
32.88790777443824
20
-15.753678098817501
30
0
10
32.416295863396122
20
-15.743909754736887
30
0
10
31.940043275106156
20
-15.670253826279346
30
0
10
31.454078241256042
20
-15.630980781789534
30
0
10
30.967423455469714
20
-15.72385468629208
30
0
10
30.523137648016792
20
-15.973345183419955
30
0
10
30.192676864388694
20
-16.317978093086843
30
0
10
30.035806310883221
20
-16.691899461338313
30
0
10
30.058283904677889
20
-17.105875145956503
30
0
10
30.21631125672301
20
-17.631635369493885
30
0
10
30.448516753599929
20
-18.330141592258958
30
0
10
30.703059104156701
20
-19.18405704948055
30
0
10
30.943846156195761
20
-20.109707102246297
30
0
10
31.146850835956471
20
-21.000380383556756
30
0
10
31.299944582791788
20
-21.761234520745486
30
0
10
31.401080863369039
20
-22.342505348134498
30
0
10
31.457620365119769
20
-22.786738846352176
30
0
10
31.482675146609324
20
-23.189472320095309
30
0
10
31.491080362242666
20
-23.635371429013748
30
0
10
31.494624355893102
20
-24.131576630650379
30
0
10
31.504856854312663
20
-24.637618459600532
30
0
10
31.537048429250394
20
-25.114083398808205
30
0
10
31.614395890824127
20
-25.567813392336511
30
0
10
31.758419382802661
20
-26.033360380201344
30
0
10
31.978108476085886
20
-26.5484351522989
30
0
10
32.260068771210257
20
-27.132339519997544
30
0
10
32.577737194762541
20
-27.789770391220223
30
0
10
32.900206031829306
20
-28.514266259010867
30
0
10
33.200992834446417
20
-29.291741987798112
30
0
10
33.467354063268942
20
-30.10404903005184
30
0
10
33.696764066567269
20
-30.930986179565785
30
0
10
33.892696246056168
20
-31.75220614738317
30
0
10
34.060613431736385
20
-32.549177682446889
30
0
10
34.203974661440512
20
-33.307084735872529
30
0
10
34.319944574006755
20
-34.016867197957851
30
0
10
34.402729831274719
20
-34.673637170836813
30
0
10
34.44764289223091
20
-35.274578093678265
30
0
10
34.454380809680913
20
-35.817622667458281
30
0
10
34.431962417320257
20
-36.298299821244008
30
0
10
34.390161350140694
20
-36.721563948357698
30
0
10
34.329159953178738
20
-37.115331634050683
30
0
10
34.228898738408347
20
-37.545061883233409
30
0
10
34.064482111667211
20
-38.081285911735506
30
0
10
33.823477319550989
20
-38.763651187588408
30
0
10
33.521432831208941
20
-39.568602609734853
30
0
10
33.1906382819637
20
-40.43541328819515
30
0
10
32.869836131799872
20
-41.290114033609193
30
0
10
32.593683914855731
20
-42.06995044695848
30
0
10
32.382083872173453
20
-42.748201848494816
30
0
10
32.230237082911849
20
-43.35720514382389
30
0
10
32.117504409313717
20
-43.965266629163615
30
0
10
32.015614308152166
20
-44.655156607695744
30
0
10
31.896994125138004
20
-45.50234050231974
30
0
10
31.743374171161769
20
-46.552438707156639
30
0
10
31.544804440099256
20
-47.824731795464487
30
0
10
31.298216024334337
20
-49.316896354156455
30
0
10
31.006150324655518
20
-51.00928746256767
30
0
10
30.675417070657875
20
-52.869413708949409
30
0
10
30.315783730436987
20
-54.856326673198126
30
0
10
29.938649873045073
20
-56.925052774424898
30
0
10
29.555731780910875
20
-59.030993409367056
30
0
10
29.177733989831964
20
-61.13436979582626
30
0
10
28.81304695364253
20
-63.20457517482528
30
0
10
28.46637735432504
20
-65.224767898196902
30
0
10
28.139287624227514
20
-67.189626384527998
30
0
10
27.830809069125522
20
-69.102840522891512
30
0
10
27.53802827171139
20
-70.974698496069919
30
0
10
27.256684201013655
20
-72.819635966728782
30
0
10
26.981761960191591
20
-74.653795609883133
30
0
10
26.70808500867625
20
-76.492596017406726
30
0
10
26.430914892295828
20
-78.348264577620739
30
0
10
26.146531817110954
20
-80.22746011379428
30
0
10
25.852860504009449
20
-82.128684120614253
30
0
10
25.549990145530682
20
-84.04018602004794
30
0
10
25.240951553416522
20
-85.936668787591302
30
0
10
24.931618810094434
20
-87.780077051925574
30
0
10
24.629389347708091
20
-89.526073048806097
30
0
10
24.342161193527399
20
-91.129139796321255
30
0
10
24.077193326252676
20
-92.548200856726652
30
0
10
23.84000836598225
20
-93.752108286723256
30
0
10
23.633294803314875
20
-94.724980719864291
30
0
10
23.455768021378589
20
-95.472086941875205
30
0
10
23.301146252386786
20
-96.024366005580788
30
0
10
23.156822509888514
20
-96.446450455579722
30
0
10
23.004507191837877
20
-96.823566106177566
30
0
10
22.821598798467107
20
-97.242951460030213
30
0
10
22.582002089696097
20
-97.775758906123457
30
0
10
22.260299235479117
20
-98.473070983454107
30
0
10
21.836280391562394
20
-99.364565886446343
30
0
10
21.29950624196357
20
-100.45605286269907
30
0
10
20.653502983056914
20
-101.72786573379747
30
0
10
19.921051242649554
20
-103.13187924543578
30
0
10
19.139074752172498
20
-104.59983429258648
30
0
10
18.351897375759545
20
-106.05340495383908
30
0
10
17.605139735480556
20
-107.41355163092197
30
0
10
16.939200106729214
20
-108.61040703179938
30
0
10
16.38325270344578
20
-109.59239568185497
30
0
10
15.948235669936409
20
-110.33693308552736
30
0
10
15.622119292287163
20
-110.85751705456362
30
0
10
15.359511165685532
20
-111.21979425118531
30
0
10
15.098892337308314
20
-111.51400869718984
30
0
10
14.788765970080618
20
-111.8138464352316
30
0
10
14.415968996040405
20
-112.13084266265076
30
0
10
13.996363496200054
20
-112.43442179946042
30
0
10
13.555911823609428
20
-112.68778469906144
30
0
10
13.20251473232268
20
-112.84274164566425
30
0
10
12.940516224536376
20
-112.93625892783314
30
0
10
12.766333203051749
20
-112.99029985896394
30
0
10
12.679100000000002
20
-113.0154
30
0
0
ENDSEC
0
SECTION
2
OBJECTS
0
DICTIONARY
5
C
100
AcDbDictionary
3
ACAD_GROUP
350
D
3
ACAD_MLINESTYLE
350
17
0
DICTIONARY
5
D
100
AcDbDictionary
0
DICTIONARY
5
1A
330
C
100
AcDbDictionary
0
DICTIONARY
5
17
100
AcDbDictionary
0
ENDSEC
0
EOF
