  0
SECTION
  2
HEADER
  9
$ACADVER
  1
AC1027
  9
$ACADMAINTVER
 70
105
  9
$DWGCODEPAGE
  3
ANSI_1252
  9
$LASTSAVEDBY
  1
ezdxf
  9
$REQUIREDVERSIONS
160
0
  9
$INSBASE
 10
0.0
 20
0.0
 30
0.0
  9
$EXTMIN
 10
1e+20
 20
1e+20
 30
1e+20
  9
$EXTMAX
 10
-1e+20
 20
-1e+20
 30
-1e+20
  9
$LIMMIN
 10
0.0
 20
0.0
  9
$LIMMAX
 10
420.0
 20
297.0
  9
$ORTHOMODE
 70
0
  9
$REGENMODE
 70
1
  9
$FILLMODE
 70
1
  9
$QTEXTMODE
 70
0
  9
$MIRRTEXT
 70
1
  9
$LTSCALE
 40
1.0
  9
$ATTMODE
 70
1
  9
$TEXTSIZE
 40
2.5
  9
$TRACEWID
 40
1.0
  9
$TEXTSTYLE
  7
Standard
  9
$CLAYER
  8
0
  9
$CELTYPE
  6
ByLayer
  9
$CECOLOR
 62
256
  9
$CELTSCALE
 40
1.0
  9
$DISPSILH
 70
0
  9
$DIMSCALE
 40
1.0
  9
$DIMASZ
 40
2.5
  9
$DIMEXO
 40
0.625
  9
$DIMDLI
 40
3.75
  9
$DIMRND
 40
0.0
  9
$DIMDLE
 40
0.0
  9
$DIMEXE
 40
1.25
  9
$DIMTP
 40
0.0
  9
$DIMTM
 40
0.0
  9
$DIMTXT
 40
2.5
  9
$DIMCEN
 40
2.5
  9
$DIMTSZ
 40
0.0
  9
$DIMTOL
 70
0
  9
$DIMLIM
 70
0
  9
$DIMTIH
 70
0
  9
$DIMTOH
 70
0
  9
$DIMSE1
 70
0
  9
$DIMSE2
 70
0
  9
$DIMTAD
 70
1
  9
$DIMZIN
 70
8
  9
$DIMBLK
  1

  9
$DIMASO
 70
1
  9
$DIMSHO
 70
1
  9
$DIMPOST
  1

  9
$DIMAPOST
  1

  9
$DIMALT
 70
0
  9
$DIMALTD
 70
3
  9
$DIMALTF
 40
0.03937007874
  9
$DIMLFAC
 40
1.0
  9
$DIMTOFL
 70
1
  9
$DIMTVP
 40
0.0
  9
$DIMTIX
 70
0
  9
$DIMSOXD
 70
0
  9
$DIMSAH
 70
0
  9
$DIMBLK1
  1

  9
$DIMBLK2
  1

  9
$DIMSTYLE
  2
ISO-25
  9
$DIMCLRD
 70
0
  9
$DIMCLRE
 70
0
  9
$DIMCLRT
 70
0
  9
$DIMTFAC
 40
1.0
  9
$DIMGAP
 40
0.625
  9
$DIMJUST
 70
0
  9
$DIMSD1
 70
0
  9
$DIMSD2
 70
0
  9
$DIMTOLJ
 70
0
  9
$DIMTZIN
 70
8
  9
$DIMALTZ
 70
0
  9
$DIMALTTZ
 70
0
  9
$DIMUPT
 70
0
  9
$DIMDEC
 70
2
  9
$DIMTDEC
 70
2
  9
$DIMALTU
 70
2
  9
$DIMALTTD
 70
3
  9
$DIMTXSTY
  7
Standard
  9
$DIMAUNIT
 70
0
  9
$DIMADEC
 70
0
  9
$DIMALTRND
 40
0.0
  9
$DIMAZIN
 70
0
  9
$DIMDSEP
 70
44
  9
$DIMATFIT
 70
3
  9
$DIMFRAC
 70
0
  9
$DIMLDRBLK
  1

  9
$DIMLUNIT
 70
2
  9
$DIMLWD
 70
-2
  9
$DIMLWE
 70
-2
  9
$DIMTMOVE
 70
0
  9
$DIMFXL
 40
1.0
  9
$DIMFXLON
 70
0
  9
$DIMJOGANG
 40
0.785398163397
  9
$DIMTFILL
 70
0
  9
$DIMTFILLCLR
 70
0
  9
$DIMARCSYM
 70
0
  9
$DIMLTYPE
  6

  9
$DIMLTEX1
  6

  9
$DIMLTEX2
  6

  9
$DIMTXTDIRECTION
 70
0
  9
$LUNITS
 70
2
  9
$LUPREC
 70
4
  9
$SKETCHINC
 40
1.0
  9
$FILLETRAD
 40
10.0
  9
$AUNITS
 70
0
  9
$AUPREC
 70
2
  9
$MENU
  1
.
  9
$ELEVATION
 40
0.0
  9
$PELEVATION
 40
0.0
  9
$THICKNESS
 40
0.0
  9
$LIMCHECK
 70
0
  9
$CHAMFERA
 40
0.0
  9
$CHAMFERB
 40
0.0
  9
$CHAMFERC
 40
0.0
  9
$CHAMFERD
 40
0.0
  9
$SKPOLY
 70
0
  9
$TDCREATE
 40
2461290.5278703705
  9
$TDUCREATE
 40
2458532.153996898
  9
$TDUPDATE
 40
2461290.5278703705
  9
$TDUUPDATE
 40
2458532.1544311
  9
$TDINDWG
 40
0.0
  9
$TDUSRTIMER
 40
0.0
  9
$USRTIMER
 70
1
  9
$ANGBASE
 50
0.0
  9
$ANGDIR
 70
0
  9
$PDMODE
 70
0
  9
$PDSIZE
 40
0.0
  9
$PLINEWID
 40
0.0
  9
$SPLFRAME
 70
0
  9
$SPLINETYPE
 70
6
  9
$SPLINESEGS
 70
8
  9
$HANDSEED
  5
EF
  9
$SURFTAB1
 70
6
  9
$SURFTAB2
 70
6
  9
$SURFTYPE
 70
6
  9
$SURFU
 70
6
  9
$SURFV
 70
6
  9
$UCSBASE
  2

  9
$UCSNAME
  2

  9
$UCSORG
 10
0.0
 20
0.0
 30
0.0
  9
$UCSXDIR
 10
1.0
 20
0.0
 30
0.0
  9
$UCSYDIR
 10
0.0
 20
1.0
 30
0.0
  9
$UCSORTHOREF
  2

  9
$UCSORTHOVIEW
 70
0
  9
$UCSORGTOP
 10
0.0
 20
0.0
 30
0.0
  9
$UCSORGBOTTOM
 10
0.0
 20
0.0
 30
0.0
  9
$UCSORGLEFT
 10
0.0
 20
0.0
 30
0.0
  9
$UCSORGRIGHT
 10
0.0
 20
0.0
 30
0.0
  9
$UCSORGFRONT
 10
0.0
 20
0.0
 30
0.0
  9
$UCSORGBACK
 10
0.0
 20
0.0
 30
0.0
  9
$PUCSBASE
  2

  9
$PUCSNAME
  2

  9
$PUCSORG
 10
0.0
 20
0.0
 30
0.0
  9
$PUCSXDIR
 10
1.0
 20
0.0
 30
0.0
  9
$PUCSYDIR
 10
0.0
 20
1.0
 30
0.0
  9
$PUCSORTHOREF
  2

  9
$PUCSORTHOVIEW
 70
0
  9
$PUCSORGTOP
 10
0.0
 20
0.0
 30
0.0
  9
$PUCSORGBOTTOM
 10
0.0
 20
0.0
 30
0.0
  9
$PUCSORGLEFT
 10
0.0
 20
0.0
 30
0.0
  9
$PUCSORGRIGHT
 10
0.0
 20
0.0
 30
0.0
  9
$PUCSORGFRONT
 10
0.0
 20
0.0
 30
0.0
  9
$PUCSORGBACK
 10
0.0
 20
0.0
 30
0.0
  9
$USERI1
 70
0
  9
$USERI2
 70
0
  9
$USERI3
 70
0
  9
$USERI4
 70
0
  9
$USERI5
 70
0
  9
$USERR1
 40
0.0
  9
$USERR2
 40
0.0
  9
$USERR3
 40
0.0
  9
$USERR4
 40
0.0
  9
$USERR5
 40
0.0
  9
$WORLDVIEW
 70
1
  9
$SHADEDGE
 70
3
  9
$SHADEDIF
 70
70
  9
$TILEMODE
 70
1
  9
$MAXACTVP
 70
64
  9
$PINSBASE
 10
0.0
 20
0.0
 30
0.0
  9
$PLIMCHECK
 70
0
  9
$PEXTMIN
 10
1e+20
 20
1e+20
 30
1e+20
  9
$PEXTMAX
 10
-1e+20
 20
-1e+20
 30
-1e+20
  9
$PLIMMIN
 10
0.0
 20
0.0
  9
$PLIMMAX
 10
420.0
 20
297.0
  9
$UNITMODE
 70
0
  9
$VISRETAIN
 70
1
  9
$PLINEGEN
 70
0
  9
$PSLTSCALE
 70
1
  9
$TREEDEPTH
 70
3020
  9
$CMLSTYLE
  2
Standard
  9
$CMLJUST
 70
0
  9
$CMLSCALE
 40
20.0
  9
$PROXYGRAPHICS
 70
1
  9
$MEASUREMENT
 70
1
  9
$CELWEIGHT
370
-1
  9
$ENDCAPS
280
0
  9
$JOINSTYLE
280
0
  9
$LWDISPLAY
290
0
  9
$INSUNITS
 70
4
  9
$HYPERLINKBASE
  1

  9
$STYLESHEET
  1

  9
$XEDIT
290
1
  9
$CEPSNTYPE
380
0
  9
$PSTYLEMODE
290
1
  9
$FINGERPRINTGUID
  2
{F914FB0A-01BE-4581-8309-1081AEFC4EC1}
  9
$VERSIONGUID
  2
{5BBAB5D2-73B4-47ED-9B9A-6E9D6FD58D28}
  9
$EXTNAMES
290
1
  9
$PSVPSCALE
 40
0.0
  9
$OLESTARTUP
290
0
  9
$SORTENTS
280
127
  9
$INDEXCTL
280
0
  9
$HIDETEXT
280
1
  9
$XCLIPFRAME
280
1
  9
$HALOGAP
280
0
  9
$OBSCOLOR
 70
257
  9
$OBSLTYPE
280
0
  9
$INTERSECTIONDISPLAY
280
0
  9
$INTERSECTIONCOLOR
 70
257
  9
$DIMASSOC
280
2
  9
$PROJECTNAME
  1

  9
$CAMERADISPLAY
290
0
  9
$LENSLENGTH
 40
50.0
  9
$CAMERAHEIGHT
 40
0.0
  9
$STEPSPERSEC
 40
24.0
  9
$STEPSIZE
 40
100.0
  9
$3DDWFPREC
 40
2.0
  9
$PSOLWIDTH
 40
0.005
  9
$PSOLHEIGHT
 40
0.08
  9
$LOFTANG1
 40
1.570796326795
  9
$LOFTANG2
 40
1.570796326795
  9
$LOFTMAG1
 40
0.0
  9
$LOFTMAG2
 40
0.0
  9
$LOFTPARAM
 70
7
  9
$LOFTNORMALS
280
1
  9
$LATITUDE
 40
37.795
  9
$LONGITUDE
 40
-122.394
  9
$NORTHDIRECTION
 40
0.0
  9
$TIMEZONE
 70
-8000
  9
$LIGHTGLYPHDISPLAY
280
1
  9
$TILEMODELIGHTSYNCH
280
1
  9
$CMATERIAL
347
20
  9
$SOLIDHIST
280
0
  9
$SHOWHIST
280
1
  9
$DWFFRAME
280
2
  9
$DGNFRAME
280
2
  9
$REALWORLDSCALE
290
1
  9
$INTERFERECOLOR
 62
256
  9
$CSHADOW
280
0
  9
$SHADOWPLANELOCATION
 40
0.0
  0
ENDSEC
  0
SECTION
  2
CLASSES
  0
CLASS
  1
ACDBDICTIONARYWDFLT
  2
AcDbDictionaryWithDefault
  3
ObjectDBX Classes
 90
0
 91
0
280
0
281
0
  0
CLASS
  1
SUN
  2
AcDbSun
  3
SCENEOE
 90
1153
 91
0
280
0
281
0
  0
CLASS
  1
VISUALSTYLE
  2
AcDbVisualStyle
  3
ObjectDBX Classes
 90
4095
 91
0
280
0
281
0
  0
CLASS
  1
MATERIAL
  2
AcDbMaterial
  3
ObjectDBX Classes
 90
1153
 91
0
280
0
281
0
  0
CLASS
  1
SCALE
  2
AcDbScale
  3
ObjectDBX Classes
 90
1153
 91
0
280
0
281
0
  0
CLASS
  1
TABLESTYLE
  2
AcDbTableStyle
  3
ObjectDBX Classes
 90
4095
 91
0
280
0
281
0
  0
CLASS
  1
MLEADERSTYLE
  2
AcDbMLeaderStyle
  3
ACDB_MLEADERSTYLE_CLASS
 90
4095
 91
0
280
0
281
0
  0
CLASS
  1
DICTIONARYVAR
  2
AcDbDictionaryVar
  3
ObjectDBX Classes
 90
0
 91
0
280
0
281
0
  0
CLASS
  1
CELLSTYLEMAP
  2
AcDbCellStyleMap
  3
ObjectDBX Classes
 90
1152
 91
0
280
0
281
0
  0
CLASS
  1
MENTALRAYRENDERSETTINGS
  2
AcDbMentalRayRenderSettings
  3
SCENEOE
 90
1024
 91
0
280
0
281
0
  0
CLASS
  1
ACDBDETAILVIEWSTYLE
  2
AcDbDetailViewStyle
  3
ObjectDBX Classes
 90
1025
 91
0
280
0
281
0
  0
CLASS
  1
ACDBSECTIONVIEWSTYLE
  2
AcDbSectionViewStyle
  3
ObjectDBX Classes
 90
1025
 91
0
280
0
281
0
  0
CLASS
  1
RASTERVARIABLES
  2
AcDbRasterVariables
  3
ISM
 90
0
 91
0
280
0
281
0
  0
CLASS
  1
LAYOUT
  2
AcDbLayout
  3
ObjectDBX Classes
 90
0
 91
0
280
0
281
0
  0
CLASS
  1
ACDBPLACEHOLDER
  2
AcDbPlaceHolder
  3
ObjectDBX Classes
 90
0
 91
0
280
0
281
0
  0
ENDSEC
  0
SECTION
  2
TABLES
  0
TABLE
  2
VPORT
  5
8
330
0
100
AcDbSymbolTable
 70
1
  0
VPORT
  5
EB
330
8
100
AcDbSymbolTableRecord
100
AcDbViewportTableRecord
  2
*Active
 70
0
 10
0.0
 20
0.0
 11
1.0
 21
1.0
 12
0.0
 22
0.0
 13
0.0
 23
0.0
 14
0.5
 24
0.5
 15
0.5
 25
0.5
 16
0.0
 26
0.0
 36
1.0
 17
0.0
 27
0.0
 37
0.0
 40
161.83373260498047
 41
1.34
 42
50.0
 43
0.0
 44
0.0
 50
0.0
 51
0.0
 71
0
 72
1000
 73
1
 74
3
 75
0
 76
0
 77
0
 78
0
281
0
 65
1
110
0.0
120
0.0
130
0.0
111
1.0
121
0.0
131
0.0
112
0.0
122
1.0
132
0.0
 79
0
146
0.0
  0
ENDTAB
  0
TABLE
  2
LTYPE
  5
2
330
0
100
AcDbSymbolTable
 70
3
  0
LTYPE
  5
24
330
2
100
AcDbSymbolTableRecord
100
AcDbLinetypeTableRecord
  2
ByBlock
 70
0
  3

 72
65
 73
0
 40
0.0
  0
LTYPE
  5
25
330
2
100
AcDbSymbolTableRecord
100
AcDbLinetypeTableRecord
  2
ByLayer
 70
0
  3

 72
65
 73
0
 40
0.0
  0
LTYPE
  5
26
330
2
100
AcDbSymbolTableRecord
100
AcDbLinetypeTableRecord
  2
Continuous
 70
0
  3

 72
65
 73
0
 40
0.0
  0
ENDTAB
  0
TABLE
  2
LAYER
  5
1
330
0
100
AcDbSymbolTable
 70
2
  0
LAYER
  5
27
330
1
100
AcDbSymbolTableRecord
100
AcDbLayerTableRecord
  2
0
 70
0
 62
7
  6
Continuous
370
-3
390
13
347
21
  0
LAYER
  5
28
330
1
100
AcDbSymbolTableRecord
100
AcDbLayerTableRecord
  2
Defpoints
 70
0
 62
7
  6
Continuous
290
0
370
-3
390
13
347
21
  0
ENDTAB
  0
TABLE
  2
STYLE
  5
5
330
0
100
AcDbSymbolTable
 70
1
  0
STYLE
  5
29
330
5
100
AcDbSymbolTableRecord
100
AcDbTextStyleTableRecord
  2
Standard
 70
0
 40
0.0
 41
1.0
 50
0.0
 71
0
 42
2.5
  3
txt
  4

  0
ENDTAB
  0
TABLE
  2
VIEW
  5
7
330
0
100
AcDbSymbolTable
 70
0
  0
ENDTAB
  0
TABLE
  2
UCS
  5
6
330
0
100
AcDbSymbolTable
 70
0
  0
ENDTAB
  0
TABLE
  2
APPID
  5
3
330
0
100
AcDbSymbolTable
 70
3
  0
APPID
  5
2A
330
3
100
AcDbSymbolTableRecord
100
AcDbRegAppTableRecord
  2
ACAD
 70
0
  0
APPID
  5
EC
330
3
100
AcDbSymbolTableRecord
100
AcDbRegAppTableRecord
  2
HATCHBACKGROUNDCOLOR
 70
0
  0
APPID
  5
ED
330
3
100
AcDbSymbolTableRecord
100
AcDbRegAppTableRecord
  2
EZDXF
 70
0
  0
ENDTAB
  0
TABLE
  2
DIMSTYLE
  5
4
330
0
100
AcDbSymbolTable
 70
1
100
AcDbDimStyleTable
  0
DIMSTYLE
105
2B
330
4
100
AcDbSymbolTableRecord
100
AcDbDimStyleTableRecord
  2
Standard
 70
0
 40
1.0
 41
2.5
 42
0.625
 43
3.75
 44
1.25
 45
0.0
 46
0.0
 47
0.0
 48
0.0
 49
2.5
140
2.5
141
2.5
142
0.0
143
0.03937007874
144
1.0
145
0.0
146
1.0
147
0.625
148
0.0
 69
0
 70
0
 71
0
 72
0
 73
0
 74
0
 75
0
 76
0
 77
1
 78
8
 79
3
170
0
171
3
172
1
173
0
174
0
175
0
176
0
177
0
178
0
179
2
271
2
272
2
273
2
274
3
275
0
276
0
277
2
278
44
279
0
280
0
281
0
282
0
283
0
284
8
285
0
286
0
288
0
289
3
290
0
371
-2
372
-2
  0
ENDTAB
  0
TABLE
  2
BLOCK_RECORD
  5
9
330
0
100
AcDbSymbolTable
 70
2
  0
BLOCK_RECORD
  5
17
330
9
100
AcDbSymbolTableRecord
100
AcDbBlockTableRecord
  2
*Model_Space
340
1A
 70
0
280
1
281
0
  0
BLOCK_RECORD
  5
1B
330
9
100
AcDbSymbolTableRecord
100
AcDbBlockTableRecord
  2
*Paper_Space
340
1E
 70
0
280
1
281
0
  0
ENDTAB
  0
ENDSEC
  0
SECTION
  2
BLOCKS
  0
BLOCK
  5
18
330
17
100
AcDbEntity
  8
0
100
AcDbBlockBegin
  2
*Model_Space
 70
0
 10
0.0
 20
0.0
 30
0.0
  3
*Model_Space
  1

  0
ENDBLK
  5
19
330
17
100
AcDbEntity
  8
0
100
AcDbBlockEnd
  0
BLOCK
  5
1C
330
1B
100
AcDbEntity
  8
0
100
AcDbBlockBegin
  2
*Paper_Space
 70
0
 10
0.0
 20
0.0
 30
0.0
  3
*Paper_Space
  1

  0
ENDBLK
  5
1D
330
1B
100
AcDbEntity
  8
0
100
AcDbBlockEnd
  0
ENDSEC
  0
SECTION
  2
ENTITIES
  0
LINE
  5
2F
330
17
100
AcDbEntity
  8
0
100
AcDbLine
 10
11.07200813293457
 20
-80.72101974487305
 30
0.0
 11
9.816832542419434
 21
-80.91686630249023
 31
0.0
  0
LINE
  5
30
330
17
100
AcDbEntity
  8
0
100
AcDbLine
 10
9.816832542419434
 20
-80.91686630249023
 30
0.0
 11
8.555171012878418
 21
-80.78798294067383
 31
0.0
  0
LINE
  5
31
330
17
100
AcDbEntity
  8
0
100
AcDbLine
 10
8.555171012878418
 20
-80.78798294067383
 30
0.0
 11
7.467218399047852
 21
-80.15274429321289
 31
0.0
  0
LINE
  5
32
330
17
100
AcDbEntity
  8
0
100
AcDbLine
 10
7.467218399047852
 20
-80.15274429321289
 30
0.0
 11
6.729888916015625
 21
-79.12229537963867
 31
0.0
  0
LINE
  5
33
330
17
100
AcDbEntity
  8
0
100
AcDbLine
 10
6.729888916015625
 20
-79.12229537963867
 30
0.0
 11
6.338076591491699
 21
-77.91493606567383
 31
0.0
  0
LINE
  5
34
330
17
100
AcDbEntity
  8
0
100
AcDbLine
 10
6.338076591491699
 20
-77.91493606567383
 30
0.0
 11
6.0551557540893555
 21
-76.67451095581055
 31
0.0
  0
LINE
  5
35
330
17
100
AcDbEntity
  8
0
100
AcDbLine
 10
6.0551557540893555
 20
-76.67451095581055
 30
0.0
 11
5.2496442794799805
 21
-74.26372909545898
 31
0.0
  0
LINE
  5
36
330
17
100
AcDbEntity
  8
0
100
AcDbLine
 10
5.2496442794799805
 20
-74.26372909545898
 30
0.0
 11
5.303251266479492
 21
-73.0015754699707
 31
0.0
  0
LINE
  5
37
330
17
100
AcDbEntity
  8
0
100
AcDbLine
 10
5.303251266479492
 20
-73.0015754699707
 30
0.0
 11
5.742697715759277
 21
-71.80913925170898
 31
0.0
  0
LINE
  5
38
330
17
100
AcDbEntity
  8
0
100
AcDbLine
 10
5.742697715759277
 20
-71.80913925170898
 30
0.0
 11
5.823910713195801
 21
-70.55234146118164
 31
0.0
  0
LINE
  5
39
330
17
100
AcDbEntity
  8
0
100
AcDbLine
 10
5.823910713195801
 20
-70.55234146118164
 30
0.0
 11
5.270956039428711
 21
-68.06915664672852
 31
0.0
  0
LINE
  5
3A
330
17
100
AcDbEntity
  8
0
100
AcDbLine
 10
5.270956039428711
 20
-68.06915664672852
 30
0.0
 11
4.748538494110107
 21
-64.28984069824219
 31
0.0
  0
LINE
  5
3B
330
17
100
AcDbEntity
  8
0
100
AcDbLine
 10
4.748538494110107
 20
-64.28984069824219
 30
0.0
 11
4.171292781829834
 21
-61.810333251953125
 31
0.0
  0
LINE
  5
3C
330
17
100
AcDbEntity
  8
0
100
AcDbLine
 10
4.171292781829834
 20
-61.810333251953125
 30
0.0
 11
3.6259031295776367
 21
-58.03124237060547
 31
0.0
  0
LINE
  5
3D
330
17
100
AcDbEntity
  8
0
100
AcDbLine
 10
3.6259031295776367
 20
-58.03124237060547
 30
0.0
 11
0.2151648998260498
 21
-44.45034408569336
 31
0.0
  0
LINE
  5
3E
330
17
100
AcDbEntity
  8
0
100
AcDbLine
 10
0.2151648998260498
 20
-44.45034408569336
 30
0.0
 11
-0.496532678604126
 21
-43.437652587890625
 31
0.0
  0
LINE
  5
3F
330
17
100
AcDbEntity
  8
0
100
AcDbLine
 10
-0.496532678604126
 20
-43.437652587890625
 30
0.0
 11
-1.736723780632019
 21
-43.40438461303711
 31
0.0
  0
LINE
  5
40
330
17
100
AcDbEntity
  8
0
100
AcDbLine
 10
-1.736723780632019
 20
-43.40438461303711
 30
0.0
 11
-2.7785659730434418
 21
-44.09865951538086
 31
0.0
  0
LINE
  5
41
330
17
100
AcDbEntity
  8
0
100
AcDbLine
 10
-2.7785659730434418
 20
-44.09865951538086
 30
0.0
 11
-3.334070473909378
 21
-45.23487854003906
 31
0.0
  0
LINE
  5
42
330
17
100
AcDbEntity
  8
0
100
AcDbLine
 10
-3.334070473909378
 20
-45.23487854003906
 30
0.0
 11
-6.348881959915161
 21
-54.9625244140625
 31
0.0
  0
LINE
  5
43
330
17
100
AcDbEntity
  8
0
100
AcDbLine
 10
-6.348881959915161
 20
-54.9625244140625
 30
0.0
 11
-6.971616983413696
 21
-56.06630325317383
 31
0.0
  0
LINE
  5
44
330
17
100
AcDbEntity
  8
0
100
AcDbLine
 10
-6.971616983413696
 20
-56.06630325317383
 30
0.0
 11
-7.881471157073975
 21
-56.95208740234375
 31
0.0
  0
LINE
  5
45
330
17
100
AcDbEntity
  8
0
100
AcDbLine
 10
-7.881471157073975
 20
-56.95208740234375
 30
0.0
 11
-8.671321392059326
 21
-57.925689697265625
 31
0.0
  0
LINE
  5
46
330
17
100
AcDbEntity
  8
0
100
AcDbLine
 10
-8.671321392059326
 20
-57.925689697265625
 30
0.0
 11
-8.710590362548828
 21
-60.44007873535156
 31
0.0
  0
LINE
  5
47
330
17
100
AcDbEntity
  8
0
100
AcDbLine
 10
-8.710590362548828
 20
-60.44007873535156
 30
0.0
 11
-9.33552360534668
 21
-61.544376373291016
 31
0.0
  0
LINE
  5
48
330
17
100
AcDbEntity
  8
0
100
AcDbLine
 10
-9.33552360534668
 20
-61.544376373291016
 30
0.0
 11
-9.793471336364746
 21
-64.02253341674805
 31
0.0
  0
LINE
  5
49
330
17
100
AcDbEntity
  8
0
100
AcDbLine
 10
-9.793471336364746
 20
-64.02253341674805
 30
0.0
 11
-10.300023555755615
 21
-65.18882369995117
 31
0.0
  0
LINE
  5
4A
330
17
100
AcDbEntity
  8
0
100
AcDbLine
 10
-10.300023555755615
 20
-65.18882369995117
 30
0.0
 11
-10.785388946533203
 21
-67.6816520690918
 31
0.0
  0
LINE
  5
4B
330
17
100
AcDbEntity
  8
0
100
AcDbLine
 10
-10.785388946533203
 20
-67.6816520690918
 30
0.0
 11
-11.190156936645508
 21
-68.88801956176758
 31
0.0
  0
LINE
  5
4C
330
17
100
AcDbEntity
  8
0
100
AcDbLine
 10
-11.190156936645508
 20
-68.88801956176758
 30
0.0
 11
-11.69965648651123
 21
-71.3809928894043
 31
0.0
  0
LINE
  5
4D
330
17
100
AcDbEntity
  8
0
100
AcDbLine
 10
-11.69965648651123
 20
-71.3809928894043
 30
0.0
 11
-12.074576377868652
 21
-72.59738540649414
 31
0.0
  0
LINE
  5
4E
330
17
100
AcDbEntity
  8
0
100
AcDbLine
 10
-12.074576377868652
 20
-72.59738540649414
 30
0.0
 11
-13.12553596496582
 21
-74.91390609741211
 31
0.0
  0
LINE
  5
4F
330
17
100
AcDbEntity
  8
0
100
AcDbLine
 10
-13.12553596496582
 20
-74.91390609741211
 30
0.0
 11
-13.895071029663086
 21
-77.3376579284668
 31
0.0
  0
LINE
  5
50
330
17
100
AcDbEntity
  8
0
100
AcDbLine
 10
-13.895071029663086
 20
-77.3376579284668
 30
0.0
 11
-14.471610069274902
 21
-78.46894454956055
 31
0.0
  0
LINE
  5
51
330
17
100
AcDbEntity
  8
0
100
AcDbLine
 10
-14.471610069274902
 20
-78.46894454956055
 30
0.0
 11
-15.36585807800293
 21
-79.36314010620117
 31
0.0
  0
LINE
  5
52
330
17
100
AcDbEntity
  8
0
100
AcDbLine
 10
-15.36585807800293
 20
-79.36314010620117
 30
0.0
 11
-16.552644729614258
 21
-79.79555130004883
 31
0.0
  0
LINE
  5
53
330
17
100
AcDbEntity
  8
0
100
AcDbLine
 10
-16.552644729614258
 20
-79.79555130004883
 30
0.0
 11
-17.818695068359375
 21
-79.77420425415039
 31
0.0
  0
LINE
  5
54
330
17
100
AcDbEntity
  8
0
100
AcDbLine
 10
-17.818695068359375
 20
-79.77420425415039
 30
0.0
 11
-19.007038116455078
 21
-79.33518600463867
 31
0.0
  0
LINE
  5
55
330
17
100
AcDbEntity
  8
0
100
AcDbLine
 10
-19.007038116455078
 20
-79.33518600463867
 30
0.0
 11
-20.044517517089844
 21
-78.60343551635742
 31
0.0
  0
LINE
  5
56
330
17
100
AcDbEntity
  8
0
100
AcDbLine
 10
-20.044517517089844
 20
-78.60343551635742
 30
0.0
 11
-20.860300064086914
 21
-77.63039779663086
 31
0.0
  0
LINE
  5
57
330
17
100
AcDbEntity
  8
0
100
AcDbLine
 10
-20.860300064086914
 20
-77.63039779663086
 30
0.0
 11
-21.39238739013672
 21
-76.47954940795898
 31
0.0
  0
LINE
  5
58
330
17
100
AcDbEntity
  8
0
100
AcDbLine
 10
-21.39238739013672
 20
-76.47954940795898
 30
0.0
 11
-21.635116577148438
 21
-75.23238754272461
 31
0.0
  0
LINE
  5
59
330
17
100
AcDbEntity
  8
0
100
AcDbLine
 10
-21.635116577148438
 20
-75.23238754272461
 30
0.0
 11
-21.760759353637695
 21
-72.69136428833008
 31
0.0
  0
LINE
  5
5A
330
17
100
AcDbEntity
  8
0
100
AcDbLine
 10
-21.760759353637695
 20
-72.69136428833008
 30
0.0
 11
-21.397037506103516
 21
-58.6926155090332
 31
0.0
  0
LINE
  5
5B
330
17
100
AcDbEntity
  8
0
100
AcDbLine
 10
-21.397037506103516
 20
-58.6926155090332
 30
0.0
 11
-21.34957504272461
 21
-40.87009048461914
 31
0.0
  0
LINE
  5
5C
330
17
100
AcDbEntity
  8
0
100
AcDbLine
 10
-21.34957504272461
 20
-40.87009048461914
 30
0.0
 11
-21.155193328857422
 21
-37.05988693237305
 31
0.0
  0
LINE
  5
5D
330
17
100
AcDbEntity
  8
0
100
AcDbLine
 10
-21.155193328857422
 20
-37.05988693237305
 30
0.0
 11
-21.568180084228516
 21
-35.86756134033203
 31
0.0
  0
LINE
  5
5E
330
17
100
AcDbEntity
  8
0
100
AcDbLine
 10
-21.568180084228516
 20
-35.86756134033203
 30
0.0
 11
-23.74698257446289
 21
-32.73192024230957
 31
0.0
  0
LINE
  5
5F
330
17
100
AcDbEntity
  8
0
100
AcDbLine
 10
-23.74698257446289
 20
-32.73192024230957
 30
0.0
 11
-24.369787216186523
 21
-31.622547149658203
 31
0.0
  0
LINE
  5
60
330
17
100
AcDbEntity
  8
0
100
AcDbLine
 10
-24.369787216186523
 20
-31.622547149658203
 30
0.0
 11
-25.82929229736328
 21
-28.095096588134766
 31
0.0
  0
LINE
  5
61
330
17
100
AcDbEntity
  8
0
100
AcDbLine
 10
-25.82929229736328
 20
-28.095096588134766
 30
0.0
 11
-27.234756469726562
 21
-23.201017379760742
 31
0.0
  0
LINE
  5
62
330
17
100
AcDbEntity
  8
0
100
AcDbLine
 10
-27.234756469726562
 20
-23.201017379760742
 30
0.0
 11
-30.816635131835938
 21
-8.350440502166748
 31
0.0
  0
LINE
  5
63
330
17
100
AcDbEntity
  8
0
100
AcDbLine
 10
-30.816635131835938
 20
-8.350440502166748
 30
0.0
 11
-31.315587997436523
 21
-7.187213897705078
 31
0.0
  0
LINE
  5
64
330
17
100
AcDbEntity
  8
0
100
AcDbLine
 10
-31.315587997436523
 20
-7.187213897705078
 30
0.0
 11
-32.26548957824707
 21
-6.359422206878662
 31
0.0
  0
LINE
  5
65
330
17
100
AcDbEntity
  8
0
100
AcDbLine
 10
-32.26548957824707
 20
-6.359422206878662
 30
0.0
 11
-34.53074073791504
 21
-5.201517939567566
 31
0.0
  0
LINE
  5
66
330
17
100
AcDbEntity
  8
0
100
AcDbLine
 10
-34.53074073791504
 20
-5.201517939567566
 30
0.0
 11
-35.54934883117676
 21
-4.440382778644562
 31
0.0
  0
LINE
  5
67
330
17
100
AcDbEntity
  8
0
100
AcDbLine
 10
-35.54934883117676
 20
-4.440382778644562
 30
0.0
 11
-36.42719078063965
 21
-3.5228020139038563
 31
0.0
  0
LINE
  5
68
330
17
100
AcDbEntity
  8
0
100
AcDbLine
 10
-36.42719078063965
 20
-3.5228020139038563
 30
0.0
 11
-37.066904067993164
 21
-2.4270076751708984
 31
0.0
  0
LINE
  5
69
330
17
100
AcDbEntity
  8
0
100
AcDbLine
 10
-37.066904067993164
 20
-2.4270076751708984
 30
0.0
 11
-37.4500675201416
 21
-1.2149553298950195
 31
0.0
  0
LINE
  5
6A
330
17
100
AcDbEntity
  8
0
100
AcDbLine
 10
-37.4500675201416
 20
-1.2149553298950195
 30
0.0
 11
-37.643632888793945
 21
0.0424046516418457
 31
0.0
  0
LINE
  5
6B
330
17
100
AcDbEntity
  8
0
100
AcDbLine
 10
-37.643632888793945
 20
0.0424046516418457
 30
0.0
 11
-38.0986270904541
 21
6.390754699707031
 31
0.0
  0
LINE
  5
6C
330
17
100
AcDbEntity
  8
0
100
AcDbLine
 10
-38.0986270904541
 20
6.390754699707031
 30
0.0
 11
-38.54376029968262
 21
8.895461082458496
 31
0.0
  0
LINE
  5
6D
330
17
100
AcDbEntity
  8
0
100
AcDbLine
 10
-38.54376029968262
 20
8.895461082458496
 30
0.0
 11
-39.66923713684082
 21
12.544013977050781
 31
0.0
  0
LINE
  5
6E
330
17
100
AcDbEntity
  8
0
100
AcDbLine
 10
-39.66923713684082
 20
12.544013977050781
 30
0.0
 11
-42.76540184020996
 21
20.899595260620117
 31
0.0
  0
LINE
  5
6F
330
17
100
AcDbEntity
  8
0
100
AcDbLine
 10
-42.76540184020996
 20
20.899595260620117
 30
0.0
 11
-43.91908073425293
 21
24.540294647216797
 31
0.0
  0
LINE
  5
70
330
17
100
AcDbEntity
  8
0
100
AcDbLine
 10
-43.91908073425293
 20
24.540294647216797
 30
0.0
 11
-45.219160079956055
 21
29.46350860595703
 31
0.0
  0
LINE
  5
71
330
17
100
AcDbEntity
  8
0
100
AcDbLine
 10
-45.219160079956055
 20
29.46350860595703
 30
0.0
 11
-47.24811363220215
 21
38.14075469970703
 31
0.0
  0
LINE
  5
72
330
17
100
AcDbEntity
  8
0
100
AcDbLine
 10
-47.24811363220215
 20
38.14075469970703
 30
0.0
 11
-48.23770332336426
 21
43.13570022583008
 31
0.0
  0
LINE
  5
73
330
17
100
AcDbEntity
  8
0
100
AcDbLine
 10
-48.23770332336426
 20
43.13570022583008
 30
0.0
 11
-49.99562644958496
 21
54.45729064941406
 31
0.0
  0
LINE
  5
74
330
17
100
AcDbEntity
  8
0
100
AcDbLine
 10
-49.99562644958496
 20
54.45729064941406
 30
0.0
 11
-50.447622299194336
 21
59.52783966064453
 31
0.0
  0
LINE
  5
75
330
17
100
AcDbEntity
  8
0
100
AcDbLine
 10
-50.447622299194336
 20
59.52783966064453
 30
0.0
 11
-50.481794357299805
 21
63.34530258178711
 31
0.0
  0
LINE
  5
76
330
17
100
AcDbEntity
  8
0
100
AcDbLine
 10
-50.481794357299805
 20
63.34530258178711
 30
0.0
 11
-50.045881271362305
 21
68.41869735717773
 31
0.0
  0
LINE
  5
77
330
17
100
AcDbEntity
  8
0
100
AcDbLine
 10
-50.045881271362305
 20
68.41869735717773
 30
0.0
 11
-49.86219596862793
 21
69.67797470092773
 31
0.0
  0
LINE
  5
78
330
17
100
AcDbEntity
  8
0
100
AcDbLine
 10
-49.86219596862793
 20
69.67797470092773
 30
0.0
 11
-49.262067794799805
 21
72.15102005004883
 31
0.0
  0
LINE
  5
79
330
17
100
AcDbEntity
  8
0
100
AcDbLine
 10
-49.262067794799805
 20
72.15102005004883
 30
0.0
 11
-48.37255668640137
 21
74.53510665893555
 31
0.0
  0
LINE
  5
7A
330
17
100
AcDbEntity
  8
0
100
AcDbLine
 10
-48.37255668640137
 20
74.53510665893555
 30
0.0
 11
-47.13266944885254
 21
76.75590133666992
 31
0.0
  0
LINE
  5
7B
330
17
100
AcDbEntity
  8
0
100
AcDbLine
 10
-47.13266944885254
 20
76.75590133666992
 30
0.0
 11
-46.343637466430664
 21
77.75370407104492
 31
0.0
  0
LINE
  5
7C
330
17
100
AcDbEntity
  8
0
100
AcDbLine
 10
-46.343637466430664
 20
77.75370407104492
 30
0.0
 11
-45.47575569152832
 21
78.68474197387695
 31
0.0
  0
LINE
  5
7D
330
17
100
AcDbEntity
  8
0
100
AcDbLine
 10
-45.47575569152832
 20
78.68474197387695
 30
0.0
 11
-44.51741600036621
 21
79.52069473266602
 31
0.0
  0
LINE
  5
7E
330
17
100
AcDbEntity
  8
0
100
AcDbLine
 10
-44.51741600036621
 20
79.52069473266602
 30
0.0
 11
-43.43284034729004
 21
80.1846809387207
 31
0.0
  0
LINE
  5
7F
330
17
100
AcDbEntity
  8
0
100
AcDbLine
 10
-43.43284034729004
 20
80.1846809387207
 30
0.0
 11
-42.25058174133301
 21
80.65112686157227
 31
0.0
  0
LINE
  5
80
330
17
100
AcDbEntity
  8
0
100
AcDbLine
 10
-42.25058174133301
 20
80.65112686157227
 30
0.0
 11
-41.00503730773926
 21
80.89935684204102
 31
0.0
  0
LINE
  5
81
330
17
100
AcDbEntity
  8
0
100
AcDbLine
 10
-41.00503730773926
 20
80.89935684204102
 30
0.0
 11
-39.73458290100098
 21
80.90309524536133
 31
0.0
  0
LINE
  5
82
330
17
100
AcDbEntity
  8
0
100
AcDbLine
 10
-39.73458290100098
 20
80.90309524536133
 30
0.0
 11
-38.48615837097168
 21
80.66210556030273
 31
0.0
  0
LINE
  5
83
330
17
100
AcDbEntity
  8
0
100
AcDbLine
 10
-38.48615837097168
 20
80.66210556030273
 30
0.0
 11
-37.30047035217285
 21
80.20223617553711
 31
0.0
  0
LINE
  5
84
330
17
100
AcDbEntity
  8
0
100
AcDbLine
 10
-37.30047035217285
 20
80.20223617553711
 30
0.0
 11
-35.081504821777344
 21
78.95755386352539
 31
0.0
  0
LINE
  5
85
330
17
100
AcDbEntity
  8
0
100
AcDbLine
 10
-35.081504821777344
 20
78.95755386352539
 30
0.0
 11
-33.07769203186035
 21
77.38995742797852
 31
0.0
  0
LINE
  5
86
330
17
100
AcDbEntity
  8
0
100
AcDbLine
 10
-33.07769203186035
 20
77.38995742797852
 30
0.0
 11
-31.347190856933594
 21
75.52499008178711
 31
0.0
  0
LINE
  5
87
330
17
100
AcDbEntity
  8
0
100
AcDbLine
 10
-31.347190856933594
 20
75.52499008178711
 30
0.0
 11
-29.30028533935547
 21
72.30401992797852
 31
0.0
  0
LINE
  5
88
330
17
100
AcDbEntity
  8
0
100
AcDbLine
 10
-29.30028533935547
 20
72.30401992797852
 30
0.0
 11
-28.235109329223633
 21
69.99374008178711
 31
0.0
  0
LINE
  5
89
330
17
100
AcDbEntity
  8
0
100
AcDbLine
 10
-28.235109329223633
 20
69.99374008178711
 30
0.0
 11
-27.01773452758789
 21
66.37509536743164
 31
0.0
  0
LINE
  5
8A
330
17
100
AcDbEntity
  8
0
100
AcDbLine
 10
-27.01773452758789
 20
66.37509536743164
 30
0.0
 11
-25.069597244262695
 21
58.99020767211914
 31
0.0
  0
LINE
  5
8B
330
17
100
AcDbEntity
  8
0
100
AcDbLine
 10
-25.069597244262695
 20
58.99020767211914
 30
0.0
 11
-22.64669418334961
 21
47.79185104370117
 31
0.0
  0
LINE
  5
8C
330
17
100
AcDbEntity
  8
0
100
AcDbLine
 10
-22.64669418334961
 20
47.79185104370117
 30
0.0
 11
-20.197818756103516
 21
31.425647735595703
 31
0.0
  0
LINE
  5
8D
330
17
100
AcDbEntity
  8
0
100
AcDbLine
 10
-20.197818756103516
 20
31.425647735595703
 30
0.0
 11
-18.707073211669922
 21
23.934812545776367
 31
0.0
  0
LINE
  5
8E
330
17
100
AcDbEntity
  8
0
100
AcDbLine
 10
-18.707073211669922
 20
23.934812545776367
 30
0.0
 11
-16.257522583007812
 21
15.367801666259766
 31
0.0
  0
LINE
  5
8F
330
17
100
AcDbEntity
  8
0
100
AcDbLine
 10
-16.257522583007812
 20
15.367801666259766
 30
0.0
 11
-12.644033432006836
 21
5.847262382507324
 31
0.0
  0
LINE
  5
90
330
17
100
AcDbEntity
  8
0
100
AcDbLine
 10
-12.644033432006836
 20
5.847262382507324
 30
0.0
 11
-12.345239639282227
 21
4.611371994018555
 31
0.0
  0
LINE
  5
91
330
17
100
AcDbEntity
  8
0
100
AcDbLine
 10
-12.345239639282227
 20
4.611371994018555
 30
0.0
 11
-12.317665100097656
 21
3.341623306274414
 31
0.0
  0
LINE
  5
92
330
17
100
AcDbEntity
  8
0
100
AcDbLine
 10
-12.317665100097656
 20
3.341623306274414
 30
0.0
 11
-12.591943740844727
 21
2.102522850036621
 31
0.0
  0
LINE
  5
93
330
17
100
AcDbEntity
  8
0
100
AcDbLine
 10
-12.591943740844727
 20
2.102522850036621
 30
0.0
 11
-13.759903907775879
 21
-0.15449786186218262
 31
0.0
  0
LINE
  5
94
330
17
100
AcDbEntity
  8
0
100
AcDbLine
 10
-13.759903907775879
 20
-0.15449786186218262
 30
0.0
 11
-15.958855628967285
 21
-3.271776780486107
 31
0.0
  0
LINE
  5
95
330
17
100
AcDbEntity
  8
0
100
AcDbLine
 10
-15.958855628967285
 20
-3.271776780486107
 30
0.0
 11
-16.21823501586914
 21
-4.502352237701416
 31
0.0
  0
LINE
  5
96
330
17
100
AcDbEntity
  8
0
100
AcDbLine
 10
-16.21823501586914
 20
-4.502352237701416
 30
0.0
 11
-16.007007598876953
 21
-5.75514817237854
 31
0.0
  0
LINE
  5
97
330
17
100
AcDbEntity
  8
0
100
AcDbLine
 10
-16.007007598876953
 20
-5.75514817237854
 30
0.0
 11
-15.34943962097168
 21
-8.214587211608887
 31
0.0
  0
LINE
  5
98
330
17
100
AcDbEntity
  8
0
100
AcDbLine
 10
-15.34943962097168
 20
-8.214587211608887
 30
0.0
 11
-14.493844985961914
 21
-9.014841556549072
 31
0.0
  0
LINE
  5
99
330
17
100
AcDbEntity
  8
0
100
AcDbLine
 10
-14.493844985961914
 20
-9.014841556549072
 30
0.0
 11
-12.02476978302002
 21
-8.431193351745605
 31
0.0
  0
LINE
  5
9A
330
17
100
AcDbEntity
  8
0
100
AcDbLine
 10
-12.02476978302002
 20
-8.431193351745605
 30
0.0
 11
-10.760939598083496
 21
-8.290809154510498
 31
0.0
  0
LINE
  5
9B
330
17
100
AcDbEntity
  8
0
100
AcDbLine
 10
-10.760939598083496
 20
-8.290809154510498
 30
0.0
 11
-8.223840236663818
 21
-8.324307918548584
 31
0.0
  0
LINE
  5
9C
330
17
100
AcDbEntity
  8
0
100
AcDbLine
 10
-8.223840236663818
 20
-8.324307918548584
 30
0.0
 11
-6.967982769012451
 21
-8.122739315032959
 31
0.0
  0
LINE
  5
9D
330
17
100
AcDbEntity
  8
0
100
AcDbLine
 10
-6.967982769012451
 20
-8.122739315032959
 30
0.0
 11
-5.697606086730957
 21
-8.056926250457764
 31
0.0
  0
LINE
  5
9E
330
17
100
AcDbEntity
  8
0
100
AcDbLine
 10
-5.697606086730957
 20
-8.056926250457764
 30
0.0
 11
-4.483244776725769
 21
-7.68355655670166
 31
0.0
  0
LINE
  5
9F
330
17
100
AcDbEntity
  8
0
100
AcDbLine
 10
-4.483244776725769
 20
-7.68355655670166
 30
0.0
 11
-3.227303497493267
 21
-7.563041687011719
 31
0.0
  0
LINE
  5
A0
330
17
100
AcDbEntity
  8
0
100
AcDbLine
 10
-3.227303497493267
 20
-7.563041687011719
 30
0.0
 11
-0.6884176731109619
 21
-7.701423645019531
 31
0.0
  0
LINE
  5
A1
330
17
100
AcDbEntity
  8
0
100
AcDbLine
 10
-0.6884176731109619
 20
-7.701423645019531
 30
0.0
 11
0.5488247871398926
 21
-7.996578693389893
 31
0.0
  0
LINE
  5
A2
330
17
100
AcDbEntity
  8
0
100
AcDbLine
 10
0.5488247871398926
 20
-7.996578693389893
 30
0.0
 11
3.0708298683166504
 21
-8.29420280456543
 31
0.0
  0
LINE
  5
A3
330
17
100
AcDbEntity
  8
0
100
AcDbLine
 10
3.0708298683166504
 20
-8.29420280456543
 30
0.0
 11
4.297647476196289
 21
-8.63311767578125
 31
0.0
  0
LINE
  5
A4
330
17
100
AcDbEntity
  8
0
100
AcDbLine
 10
4.297647476196289
 20
-8.63311767578125
 30
0.0
 11
9.336530685424805
 21
-9.364004135131836
 31
0.0
  0
LINE
  5
A5
330
17
100
AcDbEntity
  8
0
100
AcDbLine
 10
9.336530685424805
 20
-9.364004135131836
 30
0.0
 11
10.599298477172852
 21
-9.411498069763184
 31
0.0
  0
LINE
  5
A6
330
17
100
AcDbEntity
  8
0
100
AcDbLine
 10
10.599298477172852
 20
-9.411498069763184
 30
0.0
 11
11.484665870666504
 21
-8.578121662139893
 31
0.0
  0
LINE
  5
A7
330
17
100
AcDbEntity
  8
0
100
AcDbLine
 10
11.484665870666504
 20
-8.578121662139893
 30
0.0
 11
12.529037475585938
 21
-4.906819462776184
 31
0.0
  0
LINE
  5
A8
330
17
100
AcDbEntity
  8
0
100
AcDbLine
 10
12.529037475585938
 20
-4.906819462776184
 30
0.0
 11
12.45488452911377
 21
-3.652182564139366
 31
0.0
  0
LINE
  5
A9
330
17
100
AcDbEntity
  8
0
100
AcDbLine
 10
12.45488452911377
 20
-3.652182564139366
 30
0.0
 11
11.818650245666504
 21
-2.557410478591919
 31
0.0
  0
LINE
  5
AA
330
17
100
AcDbEntity
  8
0
100
AcDbLine
 10
11.818650245666504
 20
-2.557410478591919
 30
0.0
 11
11.046154022216797
 21
-1.5457727909088135
 31
0.0
  0
LINE
  5
AB
330
17
100
AcDbEntity
  8
0
100
AcDbLine
 10
11.046154022216797
 20
-1.5457727909088135
 30
0.0
 11
10.373136520385742
 21
-0.4661216735839844
 31
0.0
  0
LINE
  5
AC
330
17
100
AcDbEntity
  8
0
100
AcDbLine
 10
10.373136520385742
 20
-0.4661216735839844
 30
0.0
 11
9.781560897827148
 21
0.6609587669372559
 31
0.0
  0
LINE
  5
AD
330
17
100
AcDbEntity
  8
0
100
AcDbLine
 10
9.781560897827148
 20
0.6609587669372559
 30
0.0
 11
9.32036304473877
 21
1.8456544876098633
 31
0.0
  0
LINE
  5
AE
330
17
100
AcDbEntity
  8
0
100
AcDbLine
 10
9.32036304473877
 20
1.8456544876098633
 30
0.0
 11
9.126407623291016
 21
3.1000242233276367
 31
0.0
  0
LINE
  5
AF
330
17
100
AcDbEntity
  8
0
100
AcDbLine
 10
9.126407623291016
 20
3.1000242233276367
 30
0.0
 11
9.231544494628906
 21
4.364385604858398
 31
0.0
  0
LINE
  5
B0
330
17
100
AcDbEntity
  8
0
100
AcDbLine
 10
9.231544494628906
 20
4.364385604858398
 30
0.0
 11
9.61543083190918
 21
5.575897216796875
 31
0.0
  0
LINE
  5
B1
330
17
100
AcDbEntity
  8
0
100
AcDbLine
 10
9.61543083190918
 20
5.575897216796875
 30
0.0
 11
13.674833297729492
 21
14.916191101074219
 31
0.0
  0
LINE
  5
B2
330
17
100
AcDbEntity
  8
0
100
AcDbLine
 10
13.674833297729492
 20
14.916191101074219
 30
0.0
 11
16.479162216186523
 21
23.372512817382812
 31
0.0
  0
LINE
  5
B3
330
17
100
AcDbEntity
  8
0
100
AcDbLine
 10
16.479162216186523
 20
23.372512817382812
 30
0.0
 11
17.812185287475586
 21
28.286876678466797
 31
0.0
  0
LINE
  5
B4
330
17
100
AcDbEntity
  8
0
100
AcDbLine
 10
17.812185287475586
 20
28.286876678466797
 30
0.0
 11
20.3627986907959
 21
42.05569076538086
 31
0.0
  0
LINE
  5
B5
330
17
100
AcDbEntity
  8
0
100
AcDbLine
 10
20.3627986907959
 20
42.05569076538086
 30
0.0
 11
22.29866600036621
 21
50.75398254394531
 31
0.0
  0
LINE
  5
B6
330
17
100
AcDbEntity
  8
0
100
AcDbLine
 10
22.29866600036621
 20
50.75398254394531
 30
0.0
 11
24.282434463500977
 21
58.130062103271484
 31
0.0
  0
LINE
  5
B7
330
17
100
AcDbEntity
  8
0
100
AcDbLine
 10
24.282434463500977
 20
58.130062103271484
 30
0.0
 11
28.24473762512207
 21
70.22627639770508
 31
0.0
  0
LINE
  5
B8
330
17
100
AcDbEntity
  8
0
100
AcDbLine
 10
28.24473762512207
 20
70.22627639770508
 30
0.0
 11
28.837963104248047
 21
71.35141372680664
 31
0.0
  0
LINE
  5
B9
330
17
100
AcDbEntity
  8
0
100
AcDbLine
 10
28.837963104248047
 20
71.35141372680664
 30
0.0
 11
30.838891983032227
 21
74.60402297973633
 31
0.0
  0
LINE
  5
BA
330
17
100
AcDbEntity
  8
0
100
AcDbLine
 10
30.838891983032227
 20
74.60402297973633
 30
0.0
 11
31.622156143188477
 21
75.6068000793457
 31
0.0
  0
LINE
  5
BB
330
17
100
AcDbEntity
  8
0
100
AcDbLine
 10
31.622156143188477
 20
75.6068000793457
 30
0.0
 11
33.334726333618164
 21
77.49062728881836
 31
0.0
  0
LINE
  5
BC
330
17
100
AcDbEntity
  8
0
100
AcDbLine
 10
33.334726333618164
 20
77.49062728881836
 30
0.0
 11
34.28611946105957
 21
78.33451461791992
 31
0.0
  0
LINE
  5
BD
330
17
100
AcDbEntity
  8
0
100
AcDbLine
 10
34.28611946105957
 20
78.33451461791992
 30
0.0
 11
36.42397499084473
 21
79.7110710144043
 31
0.0
  0
LINE
  5
BE
330
17
100
AcDbEntity
  8
0
100
AcDbLine
 10
36.42397499084473
 20
79.7110710144043
 30
0.0
 11
38.78238868713379
 21
80.6622200012207
 31
0.0
  0
LINE
  5
BF
330
17
100
AcDbEntity
  8
0
100
AcDbLine
 10
38.78238868713379
 20
80.6622200012207
 30
0.0
 11
40.030282974243164
 21
80.90175247192383
 31
0.0
  0
LINE
  5
C0
330
17
100
AcDbEntity
  8
0
100
AcDbLine
 10
40.030282974243164
 20
80.90175247192383
 30
0.0
 11
41.30125617980957
 21
80.91686630249023
 31
0.0
  0
LINE
  5
C1
330
17
100
AcDbEntity
  8
0
100
AcDbLine
 10
41.30125617980957
 20
80.91686630249023
 30
0.0
 11
42.55279350280762
 21
80.6938591003418
 31
0.0
  0
LINE
  5
C2
330
17
100
AcDbEntity
  8
0
100
AcDbLine
 10
42.55279350280762
 20
80.6938591003418
 30
0.0
 11
43.73328971862793
 21
80.22560501098633
 31
0.0
  0
LINE
  5
C3
330
17
100
AcDbEntity
  8
0
100
AcDbLine
 10
43.73328971862793
 20
80.22560501098633
 30
0.0
 11
45.82855796813965
 21
78.78723526000977
 31
0.0
  0
LINE
  5
C4
330
17
100
AcDbEntity
  8
0
100
AcDbLine
 10
45.82855796813965
 20
78.78723526000977
 30
0.0
 11
46.70387077331543
 21
77.86571884155273
 31
0.0
  0
LINE
  5
C5
330
17
100
AcDbEntity
  8
0
100
AcDbLine
 10
46.70387077331543
 20
77.86571884155273
 30
0.0
 11
47.476552963256836
 21
76.85435104370117
 31
0.0
  0
LINE
  5
C6
330
17
100
AcDbEntity
  8
0
100
AcDbLine
 10
47.476552963256836
 20
76.85435104370117
 30
0.0
 11
48.11971092224121
 21
75.75751113891602
 31
0.0
  0
LINE
  5
C7
330
17
100
AcDbEntity
  8
0
100
AcDbLine
 10
48.11971092224121
 20
75.75751113891602
 30
0.0
 11
49.55404853820801
 21
72.22112655639648
 31
0.0
  0
LINE
  5
C8
330
17
100
AcDbEntity
  8
0
100
AcDbLine
 10
49.55404853820801
 20
72.22112655639648
 30
0.0
 11
50.353620529174805
 21
68.48944473266602
 31
0.0
  0
LINE
  5
C9
330
17
100
AcDbEntity
  8
0
100
AcDbLine
 10
50.353620529174805
 20
68.48944473266602
 30
0.0
 11
50.481794357299805
 21
65.94733047485352
 31
0.0
  0
LINE
  5
CA
330
17
100
AcDbEntity
  8
0
100
AcDbLine
 10
50.481794357299805
 20
65.94733047485352
 30
0.0
 11
50.44109916687012
 21
63.40290451049805
 31
0.0
  0
LINE
  5
CB
330
17
100
AcDbEntity
  8
0
100
AcDbLine
 10
50.44109916687012
 20
63.40290451049805
 30
0.0
 11
49.85930824279785
 21
55.787147521972656
 31
0.0
  0
LINE
  5
CC
330
17
100
AcDbEntity
  8
0
100
AcDbLine
 10
49.85930824279785
 20
55.787147521972656
 30
0.0
 11
48.32452964782715
 21
47.01015090942383
 31
0.0
  0
LINE
  5
CD
330
17
100
AcDbEntity
  8
0
100
AcDbLine
 10
48.32452964782715
 20
47.01015090942383
 30
0.0
 11
46.67758369445801
 21
39.5515251159668
 31
0.0
  0
LINE
  5
CE
330
17
100
AcDbEntity
  8
0
100
AcDbLine
 10
46.67758369445801
 20
39.5515251159668
 30
0.0
 11
43.31868553161621
 21
27.272470474243164
 31
0.0
  0
LINE
  5
CF
330
17
100
AcDbEntity
  8
0
100
AcDbLine
 10
43.31868553161621
 20
27.272470474243164
 30
0.0
 11
41.224721908569336
 21
21.261964797973633
 31
0.0
  0
LINE
  5
D0
330
17
100
AcDbEntity
  8
0
100
AcDbLine
 10
41.224721908569336
 20
21.261964797973633
 30
0.0
 11
37.71793556213379
 21
13.070035934448242
 31
0.0
  0
LINE
  5
D1
330
17
100
AcDbEntity
  8
0
100
AcDbLine
 10
37.71793556213379
 20
13.070035934448242
 30
0.0
 11
35.939870834350586
 21
8.29942798614502
 31
0.0
  0
LINE
  5
D2
330
17
100
AcDbEntity
  8
0
100
AcDbLine
 10
35.939870834350586
 20
8.29942798614502
 30
0.0
 11
35.1577091217041
 21
4.563488006591797
 31
0.0
  0
LINE
  5
D3
330
17
100
AcDbEntity
  8
0
100
AcDbLine
 10
35.1577091217041
 20
4.563488006591797
 30
0.0
 11
34.549612045288086
 21
-1.7710177898406982
 31
0.0
  0
LINE
  5
D4
330
17
100
AcDbEntity
  8
0
100
AcDbLine
 10
34.549612045288086
 20
-1.7710177898406982
 30
0.0
 11
34.227888107299805
 21
-3.000137358903885
 31
0.0
  0
LINE
  5
D5
330
17
100
AcDbEntity
  8
0
100
AcDbLine
 10
34.227888107299805
 20
-3.000137358903885
 30
0.0
 11
33.668901443481445
 21
-4.140469312667847
 31
0.0
  0
LINE
  5
D6
330
17
100
AcDbEntity
  8
0
100
AcDbLine
 10
33.668901443481445
 20
-4.140469312667847
 30
0.0
 11
32.87597846984863
 21
-5.133707761764526
 31
0.0
  0
LINE
  5
D7
330
17
100
AcDbEntity
  8
0
100
AcDbLine
 10
32.87597846984863
 20
-5.133707761764526
 30
0.0
 11
31.9187068939209
 21
-5.971022129058838
 31
0.0
  0
LINE
  5
D8
330
17
100
AcDbEntity
  8
0
100
AcDbLine
 10
31.9187068939209
 20
-5.971022129058838
 30
0.0
 11
30.848840713500977
 21
-6.657111406326294
 31
0.0
  0
LINE
  5
D9
330
17
100
AcDbEntity
  8
0
100
AcDbLine
 10
30.848840713500977
 20
-6.657111406326294
 30
0.0
 11
28.509323120117188
 21
-7.658627510070801
 31
0.0
  0
LINE
  5
DA
330
17
100
AcDbEntity
  8
0
100
AcDbLine
 10
28.509323120117188
 20
-7.658627510070801
 30
0.0
 11
27.44167137145996
 21
-8.333693027496338
 31
0.0
  0
LINE
  5
DB
330
17
100
AcDbEntity
  8
0
100
AcDbLine
 10
27.44167137145996
 20
-8.333693027496338
 30
0.0
 11
26.793846130371094
 21
-9.414726257324219
 31
0.0
  0
LINE
  5
DC
330
17
100
AcDbEntity
  8
0
100
AcDbLine
 10
26.793846130371094
 20
-9.414726257324219
 30
0.0
 11
22.51795196533203
 21
-24.0799503326416
 31
0.0
  0
LINE
  5
DD
330
17
100
AcDbEntity
  8
0
100
AcDbLine
 10
22.51795196533203
 20
-24.0799503326416
 30
0.0
 11
20.49265480041504
 21
-30.112306594848633
 31
0.0
  0
LINE
  5
DE
330
17
100
AcDbEntity
  8
0
100
AcDbLine
 10
20.49265480041504
 20
-30.112306594848633
 30
0.0
 11
18.765777587890625
 21
-33.51677131652832
 31
0.0
  0
LINE
  5
DF
330
17
100
AcDbEntity
  8
0
100
AcDbLine
 10
18.765777587890625
 20
-33.51677131652832
 30
0.0
 11
16.50503158569336
 21
-36.59227752685547
 31
0.0
  0
LINE
  5
E0
330
17
100
AcDbEntity
  8
0
100
AcDbLine
 10
16.50503158569336
 20
-36.59227752685547
 30
0.0
 11
15.995450973510742
 21
-37.74934005737305
 31
0.0
  0
LINE
  5
E1
330
17
100
AcDbEntity
  8
0
100
AcDbLine
 10
15.995450973510742
 20
-37.74934005737305
 30
0.0
 11
15.943620681762695
 21
-39.01532745361328
 31
0.0
  0
LINE
  5
E2
330
17
100
AcDbEntity
  8
0
100
AcDbLine
 10
15.943620681762695
 20
-39.01532745361328
 30
0.0
 11
16.13947868347168
 21
-41.553001403808594
 31
0.0
  0
LINE
  5
E3
330
17
100
AcDbEntity
  8
0
100
AcDbLine
 10
16.13947868347168
 20
-41.553001403808594
 30
0.0
 11
16.107864379882812
 21
-44.09779739379883
 31
0.0
  0
LINE
  5
E4
330
17
100
AcDbEntity
  8
0
100
AcDbLine
 10
16.107864379882812
 20
-44.09779739379883
 30
0.0
 11
15.536056518554688
 21
-51.71448516845703
 31
0.0
  0
LINE
  5
E5
330
17
100
AcDbEntity
  8
0
100
AcDbLine
 10
15.536056518554688
 20
-51.71448516845703
 30
0.0
 11
14.493364334106445
 21
-74.60579299926758
 31
0.0
  0
LINE
  5
E6
330
17
100
AcDbEntity
  8
0
100
AcDbLine
 10
14.493364334106445
 20
-74.60579299926758
 30
0.0
 11
14.284870147705078
 21
-77.14170455932617
 31
0.0
  0
LINE
  5
E7
330
17
100
AcDbEntity
  8
0
100
AcDbLine
 10
14.284870147705078
 20
-77.14170455932617
 30
0.0
 11
13.918243408203125
 21
-78.35818862915039
 31
0.0
  0
LINE
  5
E8
330
17
100
AcDbEntity
  8
0
100
AcDbLine
 10
13.918243408203125
 20
-78.35818862915039
 30
0.0
 11
13.22471809387207
 21
-79.41926956176758
 31
0.0
  0
LINE
  5
E9
330
17
100
AcDbEntity
  8
0
100
AcDbLine
 10
13.22471809387207
 20
-79.41926956176758
 30
0.0
 11
12.236930847167969
 21
-80.21341323852539
 31
0.0
  0
LINE
  5
EA
330
17
100
AcDbEntity
  8
0
100
AcDbLine
 10
12.236930847167969
 20
-80.21341323852539
 30
0.0
 11
11.07200813293457
 21
-80.72101974487305
 31
0.0
  0
ENDSEC
  0
SECTION
  2
OBJECTS
  0
DICTIONARY
  5
A
330
0
100
AcDbDictionary
281
1
  3
ACAD_COLOR
350
B
  3
ACAD_GROUP
350
C
  3
ACAD_LAYOUT
350
D
  3
ACAD_MATERIAL
350
E
  3
ACAD_MLEADERSTYLE
350
F
  3
ACAD_MLINESTYLE
350
10
  3
ACAD_PLOTSETTINGS
350
11
  3
ACAD_PLOTSTYLENAME
350
12
  3
ACAD_SCALELIST
350
14
  3
ACAD_TABLESTYLE
350
15
  3
ACAD_VISUALSTYLE
350
16
  3
EZDXF_META
350
2D
  0
DICTIONARY
  5
B
330
A
100
AcDbDictionary
281
1
  0
DICTIONARY
  5
C
330
A
100
AcDbDictionary
281
1
  0
DICTIONARY
  5
D
330
A
100
AcDbDictionary
281
1
  3
Model
350
1A
  3
Layout1
350
1E
  0
DICTIONARY
  5
E
330
A
100
AcDbDictionary
281
1
  3
ByBlock
350
1F
  3
ByLayer
350
20
  3
Global
350
21
  0
DICTIONARY
  5
F
330
A
100
AcDbDictionary
281
1
  3
Standard
350
2C
  0
DICTIONARY
  5
10
330
A
100
AcDbDictionary
281
1
  3
Standard
350
22
  0
DICTIONARY
  5
11
330
A
100
AcDbDictionary
281
1
  0
ACDBDICTIONARYWDFLT
  5
12
330
A
100
AcDbDictionary
281
1
  3
Normal
350
13
100
AcDbDictionaryWithDefault
340
13
  0
ACDBPLACEHOLDER
  5
13
330
12
  0
DICTIONARY
  5
14
330
A
100
AcDbDictionary
281
1
  0
DICTIONARY
  5
15
330
A
100
AcDbDictionary
281
1
  0
DICTIONARY
  5
16
330
A
100
AcDbDictionary
281
1
  0
LAYOUT
  5
1A
330
D
100
AcDbPlotSettings
  1

  4
A3
  6

 40
7.5
 41
20.0
 42
7.5
 43
20.0
 44
420.0
 45
297.0
 46
0.0
 47
0.0
 48
0.0
 49
0.0
140
0.0
141
0.0
142
1.0
143
1.0
 70
1024
 72
1
 73
0
 74
5
  7

 75
16
 76
0
 77
2
 78
300
147
1.0
148
0.0
149
0.0
100
AcDbLayout
  1
Model
 70
1
 71
0
 10
0.0
 20
0.0
 11
420.0
 21
297.0
 12
0.0
 22
0.0
 32
0.0
 14
1e+20
 24
1e+20
 34
1e+20
 15
-1e+20
 25
-1e+20
 35
-1e+20
146
0.0
 13
0.0
 23
0.0
 33
0.0
 16
1.0
 26
0.0
 36
0.0
 17
0.0
 27
1.0
 37
0.0
 76
1
330
17
  0
LAYOUT
  5
1E
330
D
100
AcDbPlotSettings
  1

  4
A3
  6

 40
7.5
 41
20.0
 42
7.5
 43
20.0
 44
420.0
 45
297.0
 46
0.0
 47
0.0
 48
0.0
 49
0.0
140
0.0
141
0.0
142
1.0
143
1.0
 70
0
 72
1
 73
0
 74
5
  7

 75
16
 76
0
 77
2
 78
300
147
1.0
148
0.0
149
0.0
100
AcDbLayout
  1
Layout1
 70
1
 71
1
 10
0.0
 20
0.0
 11
420.0
 21
297.0
 12
0.0
 22
0.0
 32
0.0
 14
1e+20
 24
1e+20
 34
1e+20
 15
-1e+20
 25
-1e+20
 35
-1e+20
146
0.0
 13
0.0
 23
0.0
 33
0.0
 16
1.0
 26
0.0
 36
0.0
 17
0.0
 27
1.0
 37
0.0
 76
1
330
1B
  0
MATERIAL
  5
1F
102
{ACAD_REACTORS
330
E
102
}
330
E
100
AcDbMaterial
  1
ByBlock
  2

 70
0
 40
1.0
 71
1
 41
1.0
 91
-1023410177
 42
1.0
 72
1
  3

 73
1
 74
1
 75
1
 44
0.5
 73
0
 45
1.0
 46
1.0
 77
1
  4

 78
1
 79
1
170
1
 48
1.0
171
1
  6

172
1
173
1
174
1
140
1.0
141
1.0
175
1
  7

176
1
177
1
178
1
143
1.0
179
1
  8

270
1
271
1
272
1
145
1.0
146
1.0
273
1
  9

274
1
275
1
276
1
 42
1.0
 72
1
  3

 73
1
 74
1
 75
1
 94
63
  0
MATERIAL
  5
20
102
{ACAD_REACTORS
330
E
102
}
330
E
100
AcDbMaterial
  1
ByLayer
  2

 70
0
 40
1.0
 71
1
 41
1.0
 91
-1023410177
 42
1.0
 72
1
  3

 73
1
 74
1
 75
1
 44
0.5
 73
0
 45
1.0
 46
1.0
 77
1
  4

 78
1
 79
1
170
1
 48
1.0
171
1
  6

172
1
173
1
174
1
140
1.0
141
1.0
175
1
  7

176
1
177
1
178
1
143
1.0
179
1
  8

270
1
271
1
272
1
145
1.0
146
1.0
273
1
  9

274
1
275
1
276
1
 42
1.0
 72
1
  3

 73
1
 74
1
 75
1
 94
63
  0
MATERIAL
  5
21
102
{ACAD_REACTORS
330
E
102
}
330
E
100
AcDbMaterial
  1
Global
  2

 70
0
 40
1.0
 71
1
 41
1.0
 91
-1023410177
 42
1.0
 72
1
  3

 73
1
 74
1
 75
1
 44
0.5
 73
0
 45
1.0
 46
1.0
 77
1
  4

 78
1
 79
1
170
1
 48
1.0
171
1
  6

172
1
173
1
174
1
140
1.0
141
1.0
175
1
  7

176
1
177
1
178
1
143
1.0
179
1
  8

270
1
271
1
272
1
145
1.0
146
1.0
273
1
  9

274
1
275
1
276
1
 42
1.0
 72
1
  3

 73
1
 74
1
 75
1
 94
63
  0
MLINESTYLE
  5
22
102
{ACAD_REACTORS
330
10
102
}
330
10
100
AcDbMlineStyle
  2
Standard
 70
0
  3

 62
256
 51
90.0
 52
90.0
 71
2
 49
0.5
 62
256
  6
BYLAYER
 49
-0.5
 62
256
  6
BYLAYER
  0
MLEADERSTYLE
  5
2C
102
{ACAD_REACTORS
330
F
102
}
330
F
100
AcDbMLeaderStyle
179
2
170
2
171
1
172
0
 90
2
 40
0.0
 41
0.0
173
1
 91
-1056964608
 92
-2
290
1
 42
2.0
291
1
 43
8.0
  3
Standard
 44
4.0
300

342
29
174
1
175
1
176
0
178
1
 93
-1056964608
 45
4.0
292
0
297
0
 46
4.0
 94
-1056964608
 47
1.0
 49
1.0
140
1.0
294
1
141
0.0
177
0
142
1.0
295
0
296
0
143
3.75
271
0
272
9
273
9
  0
DICTIONARY
  5
2D
330
A
100
AcDbDictionary
280
1
281
1
  3
CREATED_BY_EZDXF
350
2E
  3
WRITTEN_BY_EZDXF
350
EE
  0
DICTIONARYVAR
  5
2E
330
2D
100
DictionaryVariables
280
0
  1
1.4.4 @ 2026-09-06T19:40:08.605551+00:00
  0
DICTIONARYVAR
  5
EE
330
2D
100
DictionaryVariables
280
0
  1
1.4.4 @ 2026-09-06T19:40:08.623225+00:00
  0
ENDSEC
  0
EOF
